<?xml version="1.0" encoding="UTF-8" standalone="no"?>
<!DOCTYPE svg PUBLIC "-//W3C//DTD SVG 1.1//EN"
 "http://www.w3.org/Graphics/SVG/1.1/DTD/svg11.dtd">
<!-- Generated by graphviz version 2.38.0 (20140413.2041)
 -->
<!-- Title: /home/travis/build/STORM&#45;IRIT/Radium&#45;Engine/src/Core/Utils/Graph/AdjacencyListOperation.cpp Pages: 1 -->
<svg width="1671pt" height="497pt"
 viewBox="0.00 0.00 1671.00 497.00" xmlns="http://www.w3.org/2000/svg" xmlns:xlink="http://www.w3.org/1999/xlink">
<g id="graph0" class="graph" transform="scale(1 1) rotate(0) translate(4 493)">
<title>/home/travis/build/STORM&#45;IRIT/Radium&#45;Engine/src/Core/Utils/Graph/AdjacencyListOperation.cpp</title>
<polygon fill="white" stroke="none" points="-4,4 -4,-493 1667,-493 1667,4 -4,4"/>
<!-- Node1 -->
<g id="node1" class="node"><title>Node1</title>
<polygon fill="#bfbfbf" stroke="black" points="1437.5,-436.5 1437.5,-488.5 1604.5,-488.5 1604.5,-436.5 1437.5,-436.5"/>
<text text-anchor="start" x="1445.5" y="-476.5" font-family="Helvetica,sans-Serif" font-size="10.00">/home/travis/build</text>
<text text-anchor="start" x="1445.5" y="-465.5" font-family="Helvetica,sans-Serif" font-size="10.00">/STORM&#45;IRIT/Radium&#45;Engine</text>
<text text-anchor="start" x="1445.5" y="-454.5" font-family="Helvetica,sans-Serif" font-size="10.00">/src/Core/Utils/Graph/Adjacency</text>
<text text-anchor="middle" x="1521" y="-443.5" font-family="Helvetica,sans-Serif" font-size="10.00">ListOperation.cpp</text>
</g>
<!-- Node2 -->
<g id="node2" class="node"><title>Node2</title>
<g id="a_node2"><a xlink:href="AdjacencyListOperation_8hpp.html" target="_top" xlink:title="Core/Utils/Graph/Adjacency\lListOperation.hpp">
<polygon fill="white" stroke="black" points="1176.5,-369.5 1176.5,-399.5 1323.5,-399.5 1323.5,-369.5 1176.5,-369.5"/>
<text text-anchor="start" x="1184.5" y="-387.5" font-family="Helvetica,sans-Serif" font-size="10.00">Core/Utils/Graph/Adjacency</text>
<text text-anchor="middle" x="1250" y="-376.5" font-family="Helvetica,sans-Serif" font-size="10.00">ListOperation.hpp</text>
</a>
</g>
</g>
<!-- Node1&#45;&gt;Node2 -->
<g id="edge1" class="edge"><title>Node1&#45;&gt;Node2</title>
<path fill="none" stroke="midnightblue" d="M1437.48,-438.077C1396.22,-426.507 1347.38,-412.811 1309.9,-402.299"/>
<polygon fill="midnightblue" stroke="midnightblue" points="1310.71,-398.891 1300.14,-399.56 1308.82,-405.631 1310.71,-398.891"/>
</g>
<!-- Node9 -->
<g id="node9" class="node"><title>Node9</title>
<polygon fill="white" stroke="#bfbfbf" points="1103.5,-0.5 1103.5,-19.5 1162.5,-19.5 1162.5,-0.5 1103.5,-0.5"/>
<text text-anchor="middle" x="1133" y="-7.5" font-family="Helvetica,sans-Serif" font-size="10.00">iostream</text>
</g>
<!-- Node1&#45;&gt;Node9 -->
<g id="edge42" class="edge"><title>Node1&#45;&gt;Node9</title>
<path fill="none" stroke="midnightblue" d="M1521,-436.443C1521,-407.893 1521,-359.836 1521,-318.5 1521,-318.5 1521,-318.5 1521,-121 1521,-49.2235 1272.12,-21.8602 1173.02,-13.8094"/>
<polygon fill="midnightblue" stroke="midnightblue" points="1173.05,-10.3007 1162.8,-13.005 1172.5,-17.2791 1173.05,-10.3007"/>
</g>
<!-- Node29 -->
<g id="node29" class="node"><title>Node29</title>
<g id="a_node29"><a xlink:href="AdjacencyList_8hpp.html" target="_top" xlink:title="Core/Utils/Graph/Adjacency\lList.hpp">
<polygon fill="white" stroke="black" points="1345.5,-302.5 1345.5,-332.5 1492.5,-332.5 1492.5,-302.5 1345.5,-302.5"/>
<text text-anchor="start" x="1353.5" y="-320.5" font-family="Helvetica,sans-Serif" font-size="10.00">Core/Utils/Graph/Adjacency</text>
<text text-anchor="middle" x="1419" y="-309.5" font-family="Helvetica,sans-Serif" font-size="10.00">List.hpp</text>
</a>
</g>
</g>
<!-- Node1&#45;&gt;Node29 -->
<g id="edge40" class="edge"><title>Node1&#45;&gt;Node29</title>
<path fill="none" stroke="midnightblue" d="M1503,-436.264C1483.76,-409.295 1453.55,-366.939 1435.08,-341.05"/>
<polygon fill="midnightblue" stroke="midnightblue" points="1437.74,-338.74 1429.08,-332.631 1432.04,-342.805 1437.74,-338.74"/>
</g>
<!-- Node32 -->
<g id="node32" class="node"><title>Node32</title>
<polygon fill="white" stroke="#bfbfbf" points="1549,-375 1549,-394 1603,-394 1603,-375 1549,-375"/>
<text text-anchor="middle" x="1576" y="-382" font-family="Helvetica,sans-Serif" font-size="10.00">fstream</text>
</g>
<!-- Node1&#45;&gt;Node32 -->
<g id="edge41" class="edge"><title>Node1&#45;&gt;Node32</title>
<path fill="none" stroke="midnightblue" d="M1539.31,-436.193C1547.35,-425.085 1556.58,-412.342 1563.76,-402.411"/>
<polygon fill="midnightblue" stroke="midnightblue" points="1566.67,-404.362 1569.7,-394.209 1561,-400.258 1566.67,-404.362"/>
</g>
<!-- Node33 -->
<g id="node33" class="node"><title>Node33</title>
<polygon fill="white" stroke="#bfbfbf" points="1621,-375 1621,-394 1663,-394 1663,-375 1621,-375"/>
<text text-anchor="middle" x="1642" y="-382" font-family="Helvetica,sans-Serif" font-size="10.00">utility</text>
</g>
<!-- Node1&#45;&gt;Node33 -->
<g id="edge43" class="edge"><title>Node1&#45;&gt;Node33</title>
<path fill="none" stroke="midnightblue" d="M1560.96,-436.404C1580.4,-424.188 1603.07,-409.952 1619.48,-399.647"/>
<polygon fill="midnightblue" stroke="midnightblue" points="1621.74,-402.361 1628.34,-394.078 1618.01,-396.433 1621.74,-402.361"/>
</g>
<!-- Node3 -->
<g id="node3" class="node"><title>Node3</title>
<g id="a_node3"><a xlink:href="VectorArray_8hpp.html" target="_top" xlink:title="Core/Containers/VectorArray.hpp">
<polygon fill="white" stroke="black" points="1064.5,-308 1064.5,-327 1237.5,-327 1237.5,-308 1064.5,-308"/>
<text text-anchor="middle" x="1151" y="-315" font-family="Helvetica,sans-Serif" font-size="10.00">Core/Containers/VectorArray.hpp</text>
</a>
</g>
</g>
<!-- Node2&#45;&gt;Node3 -->
<g id="edge2" class="edge"><title>Node2&#45;&gt;Node3</title>
<path fill="none" stroke="midnightblue" d="M1228.52,-369.396C1211.92,-358.496 1189.04,-343.479 1172.45,-332.584"/>
<polygon fill="midnightblue" stroke="midnightblue" points="1174.24,-329.57 1163.96,-327.007 1170.4,-335.421 1174.24,-329.57"/>
</g>
<!-- Node25 -->
<g id="node25" class="node"><title>Node25</title>
<g id="a_node25"><a xlink:href="MeshTypes_8hpp.html" target="_top" xlink:title="Core/Mesh/MeshTypes.hpp">
<polygon fill="white" stroke="black" points="392.5,-308 392.5,-327 535.5,-327 535.5,-308 392.5,-308"/>
<text text-anchor="middle" x="464" y="-315" font-family="Helvetica,sans-Serif" font-size="10.00">Core/Mesh/MeshTypes.hpp</text>
</a>
</g>
</g>
<!-- Node2&#45;&gt;Node25 -->
<g id="edge29" class="edge"><title>Node2&#45;&gt;Node25</title>
<path fill="none" stroke="midnightblue" d="M1176.41,-377.414C1029.24,-365.243 699.607,-337.984 545.866,-325.27"/>
<polygon fill="midnightblue" stroke="midnightblue" points="545.806,-321.753 535.552,-324.417 545.229,-328.729 545.806,-321.753"/>
</g>
<!-- Node2&#45;&gt;Node29 -->
<g id="edge35" class="edge"><title>Node2&#45;&gt;Node29</title>
<path fill="none" stroke="midnightblue" d="M1286.67,-369.396C1311.92,-359.686 1345.66,-346.709 1372.75,-336.289"/>
<polygon fill="midnightblue" stroke="midnightblue" points="1374.32,-339.433 1382.4,-332.577 1371.81,-332.9 1374.32,-339.433"/>
</g>
<!-- Node4 -->
<g id="node4" class="node"><title>Node4</title>
<g id="a_node4"><a xlink:href="AlignedStdVector_8hpp.html" target="_top" xlink:title="Core/Containers/AlignedStd\lVector.hpp">
<polygon fill="white" stroke="black" points="1178.5,-235.5 1178.5,-265.5 1327.5,-265.5 1327.5,-235.5 1178.5,-235.5"/>
<text text-anchor="start" x="1186.5" y="-253.5" font-family="Helvetica,sans-Serif" font-size="10.00">Core/Containers/AlignedStd</text>
<text text-anchor="middle" x="1253" y="-242.5" font-family="Helvetica,sans-Serif" font-size="10.00">Vector.hpp</text>
</a>
</g>
</g>
<!-- Node3&#45;&gt;Node4 -->
<g id="edge3" class="edge"><title>Node3&#45;&gt;Node4</title>
<path fill="none" stroke="midnightblue" d="M1164.76,-307.734C1179.47,-298.358 1203.27,-283.188 1222.45,-270.966"/>
<polygon fill="midnightblue" stroke="midnightblue" points="1224.34,-273.915 1230.89,-265.589 1220.58,-268.012 1224.34,-273.915"/>
</g>
<!-- Node5 -->
<g id="node5" class="node"><title>Node5</title>
<g id="a_node5"><a xlink:href="RaCore_8hpp.html" target="_top" xlink:title="Core/RaCore.hpp">
<polygon fill="white" stroke="black" points="599,-112.5 599,-131.5 697,-131.5 697,-112.5 599,-112.5"/>
<text text-anchor="middle" x="648" y="-119.5" font-family="Helvetica,sans-Serif" font-size="10.00">Core/RaCore.hpp</text>
</a>
</g>
</g>
<!-- Node3&#45;&gt;Node5 -->
<g id="edge27" class="edge"><title>Node3&#45;&gt;Node5</title>
<path fill="none" stroke="midnightblue" d="M1150.59,-307.993C1148.84,-282.041 1139.73,-203.493 1093,-168 1062.94,-145.169 821.853,-131.061 707.624,-125.595"/>
<polygon fill="midnightblue" stroke="midnightblue" points="707.461,-122.084 697.307,-125.108 707.131,-129.076 707.461,-122.084"/>
</g>
<!-- Node13 -->
<g id="node13" class="node"><title>Node13</title>
<polygon fill="white" stroke="#bfbfbf" points="1141.5,-174 1141.5,-193 1188.5,-193 1188.5,-174 1141.5,-174"/>
<text text-anchor="middle" x="1165" y="-181" font-family="Helvetica,sans-Serif" font-size="10.00">vector</text>
</g>
<!-- Node3&#45;&gt;Node13 -->
<g id="edge28" class="edge"><title>Node3&#45;&gt;Node13</title>
<path fill="none" stroke="midnightblue" d="M1151.92,-307.839C1154.16,-286.674 1159.97,-231.948 1163.03,-203.033"/>
<polygon fill="midnightblue" stroke="midnightblue" points="1166.52,-203.335 1164.1,-193.021 1159.56,-202.596 1166.52,-203.335"/>
</g>
<!-- Node14 -->
<g id="node14" class="node"><title>Node14</title>
<g id="a_node14"><a xlink:href="LinearAlgebra_8hpp.html" target="_top" xlink:title="Core/Math/LinearAlgebra.hpp">
<polygon fill="white" stroke="black" points="568,-241 568,-260 724,-260 724,-241 568,-241"/>
<text text-anchor="middle" x="646" y="-248" font-family="Helvetica,sans-Serif" font-size="10.00">Core/Math/LinearAlgebra.hpp</text>
</a>
</g>
</g>
<!-- Node3&#45;&gt;Node14 -->
<g id="edge13" class="edge"><title>Node3&#45;&gt;Node14</title>
<path fill="none" stroke="midnightblue" d="M1084.72,-307.969C991.292,-295.943 821.272,-274.06 722.566,-261.355"/>
<polygon fill="midnightblue" stroke="midnightblue" points="722.726,-257.847 712.361,-260.042 721.833,-264.79 722.726,-257.847"/>
</g>
<!-- Node4&#45;&gt;Node5 -->
<g id="edge4" class="edge"><title>Node4&#45;&gt;Node5</title>
<path fill="none" stroke="midnightblue" d="M1247.8,-235.36C1240,-216.365 1223.29,-183.237 1197,-168 1155.42,-143.901 840.652,-129.903 707.35,-125.001"/>
<polygon fill="midnightblue" stroke="midnightblue" points="707.43,-121.502 697.309,-124.636 707.175,-128.497 707.43,-121.502"/>
</g>
<!-- Node12 -->
<g id="node12" class="node"><title>Node12</title>
<polygon fill="white" stroke="#bfbfbf" points="1245.5,-174 1245.5,-193 1338.5,-193 1338.5,-174 1245.5,-174"/>
<text text-anchor="middle" x="1292" y="-181" font-family="Helvetica,sans-Serif" font-size="10.00">Eigen/StdVector</text>
</g>
<!-- Node4&#45;&gt;Node12 -->
<g id="edge11" class="edge"><title>Node4&#45;&gt;Node12</title>
<path fill="none" stroke="midnightblue" d="M1261.46,-235.396C1267.36,-225.562 1275.27,-212.378 1281.56,-201.892"/>
<polygon fill="midnightblue" stroke="midnightblue" points="1284.64,-203.57 1286.78,-193.195 1278.64,-199.969 1284.64,-203.57"/>
</g>
<!-- Node4&#45;&gt;Node13 -->
<g id="edge12" class="edge"><title>Node4&#45;&gt;Node13</title>
<path fill="none" stroke="midnightblue" d="M1233.91,-235.396C1219.42,-224.697 1199.57,-210.033 1184.89,-199.193"/>
<polygon fill="midnightblue" stroke="midnightblue" points="1186.64,-196.133 1176.52,-193.007 1182.48,-201.764 1186.64,-196.133"/>
</g>
<!-- Node6 -->
<g id="node6" class="node"><title>Node6</title>
<g id="a_node6"><a xlink:href="CoreMacros_8hpp.html" target="_top" xlink:title="Core/CoreMacros.hpp">
<polygon fill="white" stroke="black" points="702,-56.5 702,-75.5 822,-75.5 822,-56.5 702,-56.5"/>
<text text-anchor="middle" x="762" y="-63.5" font-family="Helvetica,sans-Serif" font-size="10.00">Core/CoreMacros.hpp</text>
</a>
</g>
</g>
<!-- Node5&#45;&gt;Node6 -->
<g id="edge5" class="edge"><title>Node5&#45;&gt;Node6</title>
<path fill="none" stroke="midnightblue" d="M666.064,-112.444C684.575,-103.675 713.581,-89.9355 734.855,-79.8579"/>
<polygon fill="midnightblue" stroke="midnightblue" points="736.482,-82.9604 744.021,-75.5164 733.485,-76.6343 736.482,-82.9604"/>
</g>
<!-- Node7 -->
<g id="node7" class="node"><title>Node7</title>
<polygon fill="white" stroke="#bfbfbf" points="635,-0.5 635,-19.5 687,-19.5 687,-0.5 635,-0.5"/>
<text text-anchor="middle" x="661" y="-7.5" font-family="Helvetica,sans-Serif" font-size="10.00">cassert</text>
</g>
<!-- Node6&#45;&gt;Node7 -->
<g id="edge6" class="edge"><title>Node6&#45;&gt;Node7</title>
<path fill="none" stroke="midnightblue" d="M745.773,-56.324C729.649,-47.7034 704.7,-34.3643 686.036,-24.3855"/>
<polygon fill="midnightblue" stroke="midnightblue" points="687.656,-21.283 677.187,-19.6545 684.356,-27.456 687.656,-21.283"/>
</g>
<!-- Node8 -->
<g id="node8" class="node"><title>Node8</title>
<polygon fill="white" stroke="#bfbfbf" points="705.5,-0.5 705.5,-19.5 750.5,-19.5 750.5,-0.5 705.5,-0.5"/>
<text text-anchor="middle" x="728" y="-7.5" font-family="Helvetica,sans-Serif" font-size="10.00">cstdio</text>
</g>
<!-- Node6&#45;&gt;Node8 -->
<g id="edge7" class="edge"><title>Node6&#45;&gt;Node8</title>
<path fill="none" stroke="midnightblue" d="M756.386,-56.083C751.633,-48.5341 744.682,-37.4948 738.848,-28.2298"/>
<polygon fill="midnightblue" stroke="midnightblue" points="741.8,-26.3486 733.51,-19.7511 735.876,-30.0783 741.8,-26.3486"/>
</g>
<!-- Node6&#45;&gt;Node9 -->
<g id="edge8" class="edge"><title>Node6&#45;&gt;Node9</title>
<path fill="none" stroke="midnightblue" d="M820.786,-56.4435C897.006,-45.3495 1027.9,-26.2976 1093.33,-16.7735"/>
<polygon fill="midnightblue" stroke="midnightblue" points="1093.86,-20.2333 1103.26,-15.3294 1092.86,-13.3063 1093.86,-20.2333"/>
</g>
<!-- Node10 -->
<g id="node10" class="node"><title>Node10</title>
<polygon fill="white" stroke="#bfbfbf" points="769,-0.5 769,-19.5 825,-19.5 825,-0.5 769,-0.5"/>
<text text-anchor="middle" x="797" y="-7.5" font-family="Helvetica,sans-Serif" font-size="10.00">sstream</text>
</g>
<!-- Node6&#45;&gt;Node10 -->
<g id="edge9" class="edge"><title>Node6&#45;&gt;Node10</title>
<path fill="none" stroke="midnightblue" d="M767.78,-56.083C772.672,-48.5341 779.827,-37.4948 785.833,-28.2298"/>
<polygon fill="midnightblue" stroke="midnightblue" points="788.826,-30.0463 791.328,-19.7511 782.952,-26.239 788.826,-30.0463"/>
</g>
<!-- Node11 -->
<g id="node11" class="node"><title>Node11</title>
<polygon fill="white" stroke="#bfbfbf" points="843,-0.5 843,-19.5 891,-19.5 891,-0.5 843,-0.5"/>
<text text-anchor="middle" x="867" y="-7.5" font-family="Helvetica,sans-Serif" font-size="10.00">thread</text>
</g>
<!-- Node6&#45;&gt;Node11 -->
<g id="edge10" class="edge"><title>Node6&#45;&gt;Node11</title>
<path fill="none" stroke="midnightblue" d="M778.87,-56.324C795.709,-47.6641 821.807,-34.2424 841.238,-24.249"/>
<polygon fill="midnightblue" stroke="midnightblue" points="842.88,-27.3405 850.172,-19.6545 839.678,-21.1155 842.88,-27.3405"/>
</g>
<!-- Node14&#45;&gt;Node5 -->
<g id="edge14" class="edge"><title>Node14&#45;&gt;Node5</title>
<path fill="none" stroke="midnightblue" d="M612.738,-240.931C591.599,-233.574 565.869,-220.632 553,-199 545.956,-187.159 545.632,-179.642 553,-168 563.046,-152.126 580.373,-141.742 597.501,-134.999"/>
<polygon fill="midnightblue" stroke="midnightblue" points="598.714,-138.283 606.949,-131.617 596.354,-131.692 598.714,-138.283"/>
</g>
<!-- Node15 -->
<g id="node15" class="node"><title>Node15</title>
<polygon fill="white" stroke="#bfbfbf" points="562,-174 562,-193 630,-193 630,-174 562,-174"/>
<text text-anchor="middle" x="596" y="-181" font-family="Helvetica,sans-Serif" font-size="10.00">Eigen/Core</text>
</g>
<!-- Node14&#45;&gt;Node15 -->
<g id="edge15" class="edge"><title>Node14&#45;&gt;Node15</title>
<path fill="none" stroke="midnightblue" d="M639.257,-240.734C631.46,-230.598 618.454,-213.69 608.735,-201.056"/>
<polygon fill="midnightblue" stroke="midnightblue" points="611.508,-198.92 602.636,-193.127 605.959,-203.188 611.508,-198.92"/>
</g>
<!-- Node16 -->
<g id="node16" class="node"><title>Node16</title>
<polygon fill="white" stroke="#bfbfbf" points="648,-174 648,-193 742,-193 742,-174 648,-174"/>
<text text-anchor="middle" x="695" y="-181" font-family="Helvetica,sans-Serif" font-size="10.00">Eigen/Geometry</text>
</g>
<!-- Node14&#45;&gt;Node16 -->
<g id="edge16" class="edge"><title>Node14&#45;&gt;Node16</title>
<path fill="none" stroke="midnightblue" d="M652.608,-240.734C660.176,-230.695 672.751,-214.014 682.244,-201.421"/>
<polygon fill="midnightblue" stroke="midnightblue" points="685.272,-203.219 688.496,-193.127 679.682,-199.006 685.272,-203.219"/>
</g>
<!-- Node17 -->
<g id="node17" class="node"><title>Node17</title>
<polygon fill="white" stroke="#bfbfbf" points="760,-174 760,-193 840,-193 840,-174 760,-174"/>
<text text-anchor="middle" x="800" y="-181" font-family="Helvetica,sans-Serif" font-size="10.00">Eigen/Sparse</text>
</g>
<!-- Node14&#45;&gt;Node17 -->
<g id="edge17" class="edge"><title>Node14&#45;&gt;Node17</title>
<path fill="none" stroke="midnightblue" d="M666.45,-240.869C693.028,-229.65 739.64,-209.977 770.166,-197.092"/>
<polygon fill="midnightblue" stroke="midnightblue" points="771.613,-200.28 779.465,-193.167 768.891,-193.831 771.613,-200.28"/>
</g>
<!-- Node18 -->
<g id="node18" class="node"><title>Node18</title>
<polygon fill="white" stroke="#bfbfbf" points="858.5,-174 858.5,-193 921.5,-193 921.5,-174 858.5,-174"/>
<text text-anchor="middle" x="890" y="-181" font-family="Helvetica,sans-Serif" font-size="10.00">functional</text>
</g>
<!-- Node14&#45;&gt;Node18 -->
<g id="edge18" class="edge"><title>Node14&#45;&gt;Node18</title>
<path fill="none" stroke="midnightblue" d="M685.219,-240.922C726.33,-231.655 792.654,-215.929 849,-199 851.779,-198.165 854.648,-197.254 857.517,-196.308"/>
<polygon fill="midnightblue" stroke="midnightblue" points="858.81,-199.565 867.142,-193.021 856.548,-192.941 858.81,-199.565"/>
</g>
<!-- Node19 -->
<g id="node19" class="node"><title>Node19</title>
<polygon fill="white" stroke="#bfbfbf" points="939.5,-168.5 939.5,-198.5 1084.5,-198.5 1084.5,-168.5 939.5,-168.5"/>
<text text-anchor="start" x="947.5" y="-186.5" font-family="Helvetica,sans-Serif" font-size="10.00">unsupported/Eigen/Aligned</text>
<text text-anchor="middle" x="1012" y="-175.5" font-family="Helvetica,sans-Serif" font-size="10.00">Vector3</text>
</g>
<!-- Node14&#45;&gt;Node19 -->
<g id="edge19" class="edge"><title>Node14&#45;&gt;Node19</title>
<path fill="none" stroke="midnightblue" d="M694.224,-240.936C754.013,-230.317 856.871,-212.05 929.34,-199.18"/>
<polygon fill="midnightblue" stroke="midnightblue" points="930.123,-202.596 939.357,-197.401 928.899,-195.704 930.123,-202.596"/>
</g>
<!-- Node20 -->
<g id="node20" class="node"><title>Node20</title>
<g id="a_node20"><a xlink:href="Math_8hpp.html" target="_top" xlink:title="Core/Math/Math.hpp">
<polygon fill="white" stroke="black" points="188,-174 188,-193 302,-193 302,-174 188,-174"/>
<text text-anchor="middle" x="245" y="-181" font-family="Helvetica,sans-Serif" font-size="10.00">Core/Math/Math.hpp</text>
</a>
</g>
</g>
<!-- Node14&#45;&gt;Node20 -->
<g id="edge20" class="edge"><title>Node14&#45;&gt;Node20</title>
<path fill="none" stroke="midnightblue" d="M593.164,-240.936C519.586,-229.009 386.475,-207.432 307.88,-194.693"/>
<polygon fill="midnightblue" stroke="midnightblue" points="308.065,-191.177 297.634,-193.032 306.945,-198.087 308.065,-191.177"/>
</g>
<!-- Node24 -->
<g id="node24" class="node"><title>Node24</title>
<g id="a_node24"><a xlink:href="LinearAlgebra_8inl.html" target="_top" xlink:title="Core/Math/LinearAlgebra.inl">
<polygon fill="white" stroke="black" points="357.5,-174 357.5,-193 506.5,-193 506.5,-174 357.5,-174"/>
<text text-anchor="middle" x="432" y="-181" font-family="Helvetica,sans-Serif" font-size="10.00">Core/Math/LinearAlgebra.inl</text>
</a>
</g>
</g>
<!-- Node14&#45;&gt;Node24 -->
<g id="edge26" class="edge"><title>Node14&#45;&gt;Node24</title>
<path fill="none" stroke="midnightblue" d="M617.582,-240.869C579.585,-229.327 512.12,-208.835 469.847,-195.996"/>
<polygon fill="midnightblue" stroke="midnightblue" points="470.78,-192.621 460.194,-193.064 468.745,-199.319 470.78,-192.621"/>
</g>
<!-- Node20&#45;&gt;Node5 -->
<g id="edge21" class="edge"><title>Node20&#45;&gt;Node5</title>
<path fill="none" stroke="midnightblue" d="M284.345,-173.978C294.622,-171.885 305.705,-169.747 316,-168 410.987,-151.882 522.046,-137.782 588.612,-129.837"/>
<polygon fill="midnightblue" stroke="midnightblue" points="589.387,-133.27 598.905,-128.616 588.562,-126.319 589.387,-133.27"/>
</g>
<!-- Node21 -->
<g id="node21" class="node"><title>Node21</title>
<polygon fill="white" stroke="#bfbfbf" points="94,-112.5 94,-131.5 156,-131.5 156,-112.5 94,-112.5"/>
<text text-anchor="middle" x="125" y="-119.5" font-family="Helvetica,sans-Serif" font-size="10.00">algorithm</text>
</g>
<!-- Node20&#45;&gt;Node21 -->
<g id="edge22" class="edge"><title>Node20&#45;&gt;Node21</title>
<path fill="none" stroke="midnightblue" d="M227.807,-173.975C207.757,-164.034 174.401,-147.495 151.14,-135.961"/>
<polygon fill="midnightblue" stroke="midnightblue" points="152.675,-132.816 142.161,-131.509 149.566,-139.087 152.675,-132.816"/>
</g>
<!-- Node22 -->
<g id="node22" class="node"><title>Node22</title>
<polygon fill="white" stroke="#bfbfbf" points="174.5,-112.5 174.5,-131.5 221.5,-131.5 221.5,-112.5 174.5,-112.5"/>
<text text-anchor="middle" x="198" y="-119.5" font-family="Helvetica,sans-Serif" font-size="10.00">cmath</text>
</g>
<!-- Node20&#45;&gt;Node22 -->
<g id="edge23" class="edge"><title>Node20&#45;&gt;Node22</title>
<path fill="none" stroke="midnightblue" d="M238.266,-173.975C231.216,-165.05 219.965,-150.807 211.146,-139.643"/>
<polygon fill="midnightblue" stroke="midnightblue" points="213.667,-137.187 204.721,-131.509 208.174,-141.526 213.667,-137.187"/>
</g>
<!-- Node23 -->
<g id="node23" class="node"><title>Node23</title>
<g id="a_node23"><a xlink:href="Math_8inl.html" target="_top" xlink:title="Core/Math/Math.inl">
<polygon fill="white" stroke="black" points="239.5,-112.5 239.5,-131.5 346.5,-131.5 346.5,-112.5 239.5,-112.5"/>
<text text-anchor="middle" x="293" y="-119.5" font-family="Helvetica,sans-Serif" font-size="10.00">Core/Math/Math.inl</text>
</a>
</g>
</g>
<!-- Node20&#45;&gt;Node23 -->
<g id="edge24" class="edge"><title>Node20&#45;&gt;Node23</title>
<path fill="none" stroke="midnightblue" d="M246.977,-173.975C252.334,-164.873 263.751,-150.241 274.045,-138.983"/>
<polygon fill="midnightblue" stroke="midnightblue" points="276.825,-141.141 281.238,-131.509 271.782,-136.287 276.825,-141.141"/>
</g>
<!-- Node23&#45;&gt;Node20 -->
<g id="edge25" class="edge"><title>Node23&#45;&gt;Node20</title>
<path fill="none" stroke="midnightblue" d="M291.033,-131.509C285.682,-140.604 274.268,-155.236 263.973,-166.497"/>
<polygon fill="midnightblue" stroke="midnightblue" points="261.19,-164.343 256.778,-173.975 266.234,-169.196 261.19,-164.343"/>
</g>
<!-- Node25&#45;&gt;Node5 -->
<g id="edge34" class="edge"><title>Node25&#45;&gt;Node5</title>
<path fill="none" stroke="midnightblue" d="M448.02,-307.901C406.927,-284.736 303.809,-219.314 348,-168 378.424,-132.672 510.26,-124.686 588.682,-123.12"/>
<polygon fill="midnightblue" stroke="midnightblue" points="588.969,-126.616 598.908,-122.946 588.85,-119.617 588.969,-126.616"/>
</g>
<!-- Node25&#45;&gt;Node14 -->
<g id="edge33" class="edge"><title>Node25&#45;&gt;Node14</title>
<path fill="none" stroke="midnightblue" d="M488.168,-307.869C520.075,-296.473 576.412,-276.353 612.437,-263.487"/>
<polygon fill="midnightblue" stroke="midnightblue" points="613.781,-266.723 622.022,-260.064 611.427,-260.131 613.781,-266.723"/>
</g>
<!-- Node26 -->
<g id="node26" class="node"><title>Node26</title>
<g id="a_node26"><a xlink:href="Index_8hpp.html" target="_top" xlink:title="Core/Index/Index.hpp">
<polygon fill="white" stroke="black" points="56.5,-241 56.5,-260 173.5,-260 173.5,-241 56.5,-241"/>
<text text-anchor="middle" x="115" y="-248" font-family="Helvetica,sans-Serif" font-size="10.00">Core/Index/Index.hpp</text>
</a>
</g>
</g>
<!-- Node25&#45;&gt;Node26 -->
<g id="edge30" class="edge"><title>Node25&#45;&gt;Node26</title>
<path fill="none" stroke="midnightblue" d="M418.015,-307.936C354.371,-296.082 239.545,-274.696 170.988,-261.928"/>
<polygon fill="midnightblue" stroke="midnightblue" points="171.281,-258.422 160.809,-260.032 169.999,-265.304 171.281,-258.422"/>
</g>
<!-- Node27 -->
<g id="node27" class="node"><title>Node27</title>
<polygon fill="white" stroke="#bfbfbf" points="0,-174 0,-193 42,-193 42,-174 0,-174"/>
<text text-anchor="middle" x="21" y="-181" font-family="Helvetica,sans-Serif" font-size="10.00">limits</text>
</g>
<!-- Node26&#45;&gt;Node27 -->
<g id="edge31" class="edge"><title>Node26&#45;&gt;Node27</title>
<path fill="none" stroke="midnightblue" d="M102.323,-240.734C86.819,-230.013 60.3592,-211.716 41.8444,-198.914"/>
<polygon fill="midnightblue" stroke="midnightblue" points="43.6922,-195.936 33.4764,-193.127 39.7108,-201.694 43.6922,-195.936"/>
</g>
<!-- Node28 -->
<g id="node28" class="node"><title>Node28</title>
<g id="a_node28"><a xlink:href="Index_8inl.html" target="_top" xlink:title="Core/Index/Index.inl">
<polygon fill="white" stroke="black" points="60,-174 60,-193 170,-193 170,-174 60,-174"/>
<text text-anchor="middle" x="115" y="-181" font-family="Helvetica,sans-Serif" font-size="10.00">Core/Index/Index.inl</text>
</a>
</g>
</g>
<!-- Node26&#45;&gt;Node28 -->
<g id="edge32" class="edge"><title>Node26&#45;&gt;Node28</title>
<path fill="none" stroke="midnightblue" d="M115,-240.734C115,-231.183 115,-215.618 115,-203.283"/>
<polygon fill="midnightblue" stroke="midnightblue" points="118.5,-203.127 115,-193.127 111.5,-203.127 118.5,-203.127"/>
</g>
<!-- Node29&#45;&gt;Node4 -->
<g id="edge36" class="edge"><title>Node29&#45;&gt;Node4</title>
<path fill="none" stroke="midnightblue" d="M1382.98,-302.396C1358.18,-292.686 1325.04,-279.709 1298.43,-269.289"/>
<polygon fill="midnightblue" stroke="midnightblue" points="1299.54,-265.964 1288.95,-265.577 1296.98,-272.482 1299.54,-265.964"/>
</g>
<!-- Node30 -->
<g id="node30" class="node"><title>Node30</title>
<g id="a_node30"><a xlink:href="AdjacencyList_8inl.html" target="_top" xlink:title="Core/Utils/Graph/Adjacency\lList.inl">
<polygon fill="white" stroke="black" points="1345.5,-235.5 1345.5,-265.5 1492.5,-265.5 1492.5,-235.5 1345.5,-235.5"/>
<text text-anchor="start" x="1353.5" y="-253.5" font-family="Helvetica,sans-Serif" font-size="10.00">Core/Utils/Graph/Adjacency</text>
<text text-anchor="middle" x="1419" y="-242.5" font-family="Helvetica,sans-Serif" font-size="10.00">List.inl</text>
</a>
</g>
</g>
<!-- Node29&#45;&gt;Node30 -->
<g id="edge37" class="edge"><title>Node29&#45;&gt;Node30</title>
<path fill="none" stroke="midnightblue" d="M1413.32,-302.396C1412.29,-294.56 1412.01,-284.596 1412.46,-275.565"/>
<polygon fill="midnightblue" stroke="midnightblue" points="1415.95,-275.842 1413.33,-265.577 1408.97,-275.236 1415.95,-275.842"/>
</g>
<!-- Node30&#45;&gt;Node29 -->
<g id="edge38" class="edge"><title>Node30&#45;&gt;Node29</title>
<path fill="none" stroke="midnightblue" d="M1424.67,-265.577C1425.7,-273.408 1425.99,-283.37 1425.55,-292.403"/>
<polygon fill="midnightblue" stroke="midnightblue" points="1422.06,-292.131 1424.68,-302.396 1429.03,-292.736 1422.06,-292.131"/>
</g>
<!-- Node31 -->
<g id="node31" class="node"><title>Node31</title>
<polygon fill="white" stroke="#bfbfbf" points="1403,-174 1403,-193 1435,-193 1435,-174 1403,-174"/>
<text text-anchor="middle" x="1419" y="-181" font-family="Helvetica,sans-Serif" font-size="10.00">set</text>
</g>
<!-- Node30&#45;&gt;Node31 -->
<g id="edge39" class="edge"><title>Node30&#45;&gt;Node31</title>
<path fill="none" stroke="midnightblue" d="M1419,-235.396C1419,-226.064 1419,-213.714 1419,-203.517"/>
<polygon fill="midnightblue" stroke="midnightblue" points="1422.5,-203.195 1419,-193.195 1415.5,-203.195 1422.5,-203.195"/>
</g>
</g>
</svg>
