<?xml version="1.0" encoding="UTF-8" standalone="no"?>
<!DOCTYPE svg PUBLIC "-//W3C//DTD SVG 1.1//EN"
 "http://www.w3.org/Graphics/SVG/1.1/DTD/svg11.dtd">
<!-- Generated by graphviz version 2.38.0 (20140413.2041)
 -->
<!-- Title: /home/travis/build/STORM&#45;IRIT/Radium&#45;Engine/src/Core/File/KeyFrame/AnimationTime.hpp Pages: 1 -->
<svg width="3253pt" height="673pt"
 viewBox="0.00 0.00 3252.50 673.00" xmlns="http://www.w3.org/2000/svg" xmlns:xlink="http://www.w3.org/1999/xlink">
<g id="graph0" class="graph" transform="scale(1 1) rotate(0) translate(4 669)">
<title>/home/travis/build/STORM&#45;IRIT/Radium&#45;Engine/src/Core/File/KeyFrame/AnimationTime.hpp</title>
<polygon fill="white" stroke="none" points="-4,4 -4,-669 3248.5,-669 3248.5,4 -4,4"/>
<!-- Node1 -->
<g id="node1" class="node"><title>Node1</title>
<polygon fill="#bfbfbf" stroke="black" points="2287.5,-612.5 2287.5,-664.5 2435.5,-664.5 2435.5,-612.5 2287.5,-612.5"/>
<text text-anchor="start" x="2295.5" y="-652.5" font-family="Helvetica,sans-Serif" font-size="10.00">/home/travis/build</text>
<text text-anchor="start" x="2295.5" y="-641.5" font-family="Helvetica,sans-Serif" font-size="10.00">/STORM&#45;IRIT/Radium&#45;Engine</text>
<text text-anchor="start" x="2295.5" y="-630.5" font-family="Helvetica,sans-Serif" font-size="10.00">/src/Core/File/KeyFrame</text>
<text text-anchor="middle" x="2361.5" y="-619.5" font-family="Helvetica,sans-Serif" font-size="10.00">/AnimationTime.hpp</text>
</g>
<!-- Node2 -->
<g id="node2" class="node"><title>Node2</title>
<g id="a_node2"><a xlink:href="AnimationData_8hpp.html" target="_top" xlink:title="/home/travis/build\l/STORM&#45;IRIT/Radium&#45;Engine\l/src/Core/File/AnimationData.hpp">
<polygon fill="white" stroke="black" points="2494,-351 2494,-392 2667,-392 2667,-351 2494,-351"/>
<text text-anchor="start" x="2502" y="-380" font-family="Helvetica,sans-Serif" font-size="10.00">/home/travis/build</text>
<text text-anchor="start" x="2502" y="-369" font-family="Helvetica,sans-Serif" font-size="10.00">/STORM&#45;IRIT/Radium&#45;Engine</text>
<text text-anchor="middle" x="2580.5" y="-358" font-family="Helvetica,sans-Serif" font-size="10.00">/src/Core/File/AnimationData.hpp</text>
</a>
</g>
</g>
<!-- Node1&#45;&gt;Node2 -->
<g id="edge1" class="edge"><title>Node1&#45;&gt;Node2</title>
<path fill="none" stroke="midnightblue" d="M2445.16,-611.528C2502.9,-588.733 2575.36,-549.305 2610.5,-487 2627.66,-456.573 2608.8,-416.064 2594.19,-392.282"/>
<polygon fill="midnightblue" stroke="midnightblue" points="2443.74,-608.324 2435.66,-615.181 2446.25,-614.857 2443.74,-608.324"/>
</g>
<!-- Node27 -->
<g id="node27" class="node"><title>Node27</title>
<g id="a_node27"><a xlink:href="KeyFrame_8hpp.html" target="_top" xlink:title="/home/travis/build\l/STORM&#45;IRIT/Radium&#45;Engine\l/src/Core/File/KeyFrame\l/KeyFrame.hpp">
<polygon fill="white" stroke="black" points="2287.5,-523.5 2287.5,-575.5 2435.5,-575.5 2435.5,-523.5 2287.5,-523.5"/>
<text text-anchor="start" x="2295.5" y="-563.5" font-family="Helvetica,sans-Serif" font-size="10.00">/home/travis/build</text>
<text text-anchor="start" x="2295.5" y="-552.5" font-family="Helvetica,sans-Serif" font-size="10.00">/STORM&#45;IRIT/Radium&#45;Engine</text>
<text text-anchor="start" x="2295.5" y="-541.5" font-family="Helvetica,sans-Serif" font-size="10.00">/src/Core/File/KeyFrame</text>
<text text-anchor="middle" x="2361.5" y="-530.5" font-family="Helvetica,sans-Serif" font-size="10.00">/KeyFrame.hpp</text>
</a>
</g>
</g>
<!-- Node1&#45;&gt;Node27 -->
<g id="edge30" class="edge"><title>Node1&#45;&gt;Node27</title>
<path fill="none" stroke="midnightblue" d="M2361.5,-602.191C2361.5,-593.282 2361.5,-583.899 2361.5,-575.607"/>
<polygon fill="midnightblue" stroke="midnightblue" points="2358,-602.336 2361.5,-612.336 2365,-602.336 2358,-602.336"/>
</g>
<!-- Node33 -->
<g id="node33" class="node"><title>Node33</title>
<g id="a_node33"><a xlink:href="AssimpAnimationDataLoader_8hpp.html" target="_top" xlink:title="/home/travis/build\l/STORM&#45;IRIT/Radium&#45;Engine\l/src/IO/AssimpLoader/AssimpAnimation\lDataLoader.hpp">
<polygon fill="white" stroke="black" points="1924,-345.5 1924,-397.5 2129,-397.5 2129,-345.5 1924,-345.5"/>
<text text-anchor="start" x="1932" y="-385.5" font-family="Helvetica,sans-Serif" font-size="10.00">/home/travis/build</text>
<text text-anchor="start" x="1932" y="-374.5" font-family="Helvetica,sans-Serif" font-size="10.00">/STORM&#45;IRIT/Radium&#45;Engine</text>
<text text-anchor="start" x="1932" y="-363.5" font-family="Helvetica,sans-Serif" font-size="10.00">/src/IO/AssimpLoader/AssimpAnimation</text>
<text text-anchor="middle" x="2026.5" y="-352.5" font-family="Helvetica,sans-Serif" font-size="10.00">DataLoader.hpp</text>
</a>
</g>
</g>
<!-- Node1&#45;&gt;Node33 -->
<g id="edge42" class="edge"><title>Node1&#45;&gt;Node33</title>
<path fill="none" stroke="midnightblue" d="M2277.91,-611.199C2214.74,-587.573 2129.76,-547.233 2074.5,-487 2051.04,-461.429 2038.1,-422.734 2031.73,-397.537"/>
<polygon fill="midnightblue" stroke="midnightblue" points="2276.86,-614.544 2287.45,-614.706 2279.27,-607.973 2276.86,-614.544"/>
</g>
<!-- Node3 -->
<g id="node3" class="node"><title>Node3</title>
<g id="a_node3"><a xlink:href="AnimationData_8cpp.html" target="_top" xlink:title="/home/travis/build\l/STORM&#45;IRIT/Radium&#45;Engine\l/src/Core/File/AnimationData.cpp">
<polygon fill="white" stroke="black" points="2445,-262 2445,-303 2618,-303 2618,-262 2445,-262"/>
<text text-anchor="start" x="2453" y="-291" font-family="Helvetica,sans-Serif" font-size="10.00">/home/travis/build</text>
<text text-anchor="start" x="2453" y="-280" font-family="Helvetica,sans-Serif" font-size="10.00">/STORM&#45;IRIT/Radium&#45;Engine</text>
<text text-anchor="middle" x="2531.5" y="-269" font-family="Helvetica,sans-Serif" font-size="10.00">/src/Core/File/AnimationData.cpp</text>
</a>
</g>
</g>
<!-- Node2&#45;&gt;Node3 -->
<g id="edge2" class="edge"><title>Node2&#45;&gt;Node3</title>
<path fill="none" stroke="midnightblue" d="M2564.41,-341.928C2557.26,-329.233 2549.02,-314.606 2542.57,-303.164"/>
<polygon fill="midnightblue" stroke="midnightblue" points="2561.42,-343.763 2569.38,-350.758 2567.52,-340.328 2561.42,-343.763"/>
</g>
<!-- Node4 -->
<g id="node4" class="node"><title>Node4</title>
<g id="a_node4"><a xlink:href="AnimationData_8inl.html" target="_top" xlink:title="/home/travis/build\l/STORM&#45;IRIT/Radium&#45;Engine\l/src/Core/File/AnimationData.inl">
<polygon fill="white" stroke="black" points="2636.5,-262 2636.5,-303 2802.5,-303 2802.5,-262 2636.5,-262"/>
<text text-anchor="start" x="2644.5" y="-291" font-family="Helvetica,sans-Serif" font-size="10.00">/home/travis/build</text>
<text text-anchor="start" x="2644.5" y="-280" font-family="Helvetica,sans-Serif" font-size="10.00">/STORM&#45;IRIT/Radium&#45;Engine</text>
<text text-anchor="middle" x="2719.5" y="-269" font-family="Helvetica,sans-Serif" font-size="10.00">/src/Core/File/AnimationData.inl</text>
</a>
</g>
</g>
<!-- Node2&#45;&gt;Node4 -->
<g id="edge3" class="edge"><title>Node2&#45;&gt;Node4</title>
<path fill="none" stroke="midnightblue" d="M2614.41,-345.406C2635.02,-331.953 2661.26,-315.62 2682.42,-303.11"/>
<polygon fill="midnightblue" stroke="midnightblue" points="2612.38,-342.552 2605.95,-350.976 2616.23,-348.399 2612.38,-342.552"/>
</g>
<!-- Node5 -->
<g id="node5" class="node"><title>Node5</title>
<g id="a_node5"><a xlink:href="FileData_8inl.html" target="_top" xlink:title="/home/travis/build\l/STORM&#45;IRIT/Radium&#45;Engine\l/src/Core/File/FileData.inl">
<polygon fill="white" stroke="black" points="2278.5,-262 2278.5,-303 2426.5,-303 2426.5,-262 2278.5,-262"/>
<text text-anchor="start" x="2286.5" y="-291" font-family="Helvetica,sans-Serif" font-size="10.00">/home/travis/build</text>
<text text-anchor="start" x="2286.5" y="-280" font-family="Helvetica,sans-Serif" font-size="10.00">/STORM&#45;IRIT/Radium&#45;Engine</text>
<text text-anchor="middle" x="2352.5" y="-269" font-family="Helvetica,sans-Serif" font-size="10.00">/src/Core/File/FileData.inl</text>
</a>
</g>
</g>
<!-- Node2&#45;&gt;Node5 -->
<g id="edge5" class="edge"><title>Node2&#45;&gt;Node5</title>
<path fill="none" stroke="midnightblue" d="M2519.87,-347.366C2483.71,-333.566 2438.29,-316.235 2403.89,-303.11"/>
<polygon fill="midnightblue" stroke="midnightblue" points="2518.74,-350.68 2529.33,-350.976 2521.24,-344.14 2518.74,-350.68"/>
</g>
<!-- Node22 -->
<g id="node22" class="node"><title>Node22</title>
<g id="a_node22"><a xlink:href="AssimpAnimationDataLoader_8cpp.html" target="_top" xlink:title="/home/travis/build\l/STORM&#45;IRIT/Radium&#45;Engine\l/src/IO/AssimpLoader/AssimpAnimation\lDataLoader.cpp">
<polygon fill="white" stroke="black" points="2055,-256.5 2055,-308.5 2260,-308.5 2260,-256.5 2055,-256.5"/>
<text text-anchor="start" x="2063" y="-296.5" font-family="Helvetica,sans-Serif" font-size="10.00">/home/travis/build</text>
<text text-anchor="start" x="2063" y="-285.5" font-family="Helvetica,sans-Serif" font-size="10.00">/STORM&#45;IRIT/Radium&#45;Engine</text>
<text text-anchor="start" x="2063" y="-274.5" font-family="Helvetica,sans-Serif" font-size="10.00">/src/IO/AssimpLoader/AssimpAnimation</text>
<text text-anchor="middle" x="2157.5" y="-263.5" font-family="Helvetica,sans-Serif" font-size="10.00">DataLoader.cpp</text>
</a>
</g>
</g>
<!-- Node2&#45;&gt;Node22 -->
<g id="edge22" class="edge"><title>Node2&#45;&gt;Node22</title>
<path fill="none" stroke="midnightblue" d="M2483.82,-352.121C2422.36,-340.254 2341.15,-324.237 2269.5,-309 2266.38,-308.336 2263.21,-307.656 2260.01,-306.964"/>
<polygon fill="midnightblue" stroke="midnightblue" points="2483.41,-355.607 2493.9,-354.063 2484.74,-348.733 2483.41,-355.607"/>
</g>
<!-- Node23 -->
<g id="node23" class="node"><title>Node23</title>
<g id="a_node23"><a xlink:href="AnimationComponent_8hpp.html" target="_top" xlink:title="/home/travis/build\l/STORM&#45;IRIT/Radium&#45;Engine\l/Plugins/Animation/src/Animation\lComponent.hpp">
<polygon fill="white" stroke="black" points="2820.5,-256.5 2820.5,-308.5 2994.5,-308.5 2994.5,-256.5 2820.5,-256.5"/>
<text text-anchor="start" x="2828.5" y="-296.5" font-family="Helvetica,sans-Serif" font-size="10.00">/home/travis/build</text>
<text text-anchor="start" x="2828.5" y="-285.5" font-family="Helvetica,sans-Serif" font-size="10.00">/STORM&#45;IRIT/Radium&#45;Engine</text>
<text text-anchor="start" x="2828.5" y="-274.5" font-family="Helvetica,sans-Serif" font-size="10.00">/Plugins/Animation/src/Animation</text>
<text text-anchor="middle" x="2907.5" y="-263.5" font-family="Helvetica,sans-Serif" font-size="10.00">Component.hpp</text>
</a>
</g>
</g>
<!-- Node2&#45;&gt;Node23 -->
<g id="edge23" class="edge"><title>Node2&#45;&gt;Node23</title>
<path fill="none" stroke="midnightblue" d="M2663.62,-348.387C2711.58,-335.626 2771.82,-319.597 2820.44,-306.664"/>
<polygon fill="midnightblue" stroke="midnightblue" points="2662.65,-345.022 2653.89,-350.976 2664.45,-351.787 2662.65,-345.022"/>
</g>
<!-- Node4&#45;&gt;Node2 -->
<g id="edge4" class="edge"><title>Node4&#45;&gt;Node2</title>
<path fill="none" stroke="midnightblue" d="M2685.23,-308.828C2664.63,-322.266 2638.5,-338.526 2617.43,-350.976"/>
<polygon fill="midnightblue" stroke="midnightblue" points="2687.26,-311.681 2693.69,-303.26 2683.41,-305.833 2687.26,-311.681"/>
</g>
<!-- Node6 -->
<g id="node6" class="node"><title>Node6</title>
<g id="a_node6"><a xlink:href="FileData_8hpp.html" target="_top" xlink:title="/home/travis/build\l/STORM&#45;IRIT/Radium&#45;Engine\l/src/Core/File/FileData.hpp">
<polygon fill="white" stroke="black" points="1499.5,-173 1499.5,-214 1647.5,-214 1647.5,-173 1499.5,-173"/>
<text text-anchor="start" x="1507.5" y="-202" font-family="Helvetica,sans-Serif" font-size="10.00">/home/travis/build</text>
<text text-anchor="start" x="1507.5" y="-191" font-family="Helvetica,sans-Serif" font-size="10.00">/STORM&#45;IRIT/Radium&#45;Engine</text>
<text text-anchor="middle" x="1573.5" y="-180" font-family="Helvetica,sans-Serif" font-size="10.00">/src/Core/File/FileData.hpp</text>
</a>
</g>
</g>
<!-- Node5&#45;&gt;Node6 -->
<g id="edge6" class="edge"><title>Node5&#45;&gt;Node6</title>
<path fill="none" stroke="midnightblue" d="M2284.63,-259.394C2279.54,-258.122 2274.46,-256.97 2269.5,-256 2045.84,-212.264 1775.6,-199.6 1647.61,-195.956"/>
<polygon fill="midnightblue" stroke="midnightblue" points="2283.83,-262.803 2294.4,-261.968 2285.62,-256.034 2283.83,-262.803"/>
</g>
<!-- Node7 -->
<g id="node7" class="node"><title>Node7</title>
<g id="a_node7"><a xlink:href="FileData_8cpp.html" target="_top" xlink:title="/home/travis/build\l/STORM&#45;IRIT/Radium&#45;Engine\l/src/Core/File/FileData.cpp">
<polygon fill="white" stroke="black" points="1031.5,-84 1031.5,-125 1179.5,-125 1179.5,-84 1031.5,-84"/>
<text text-anchor="start" x="1039.5" y="-113" font-family="Helvetica,sans-Serif" font-size="10.00">/home/travis/build</text>
<text text-anchor="start" x="1039.5" y="-102" font-family="Helvetica,sans-Serif" font-size="10.00">/STORM&#45;IRIT/Radium&#45;Engine</text>
<text text-anchor="middle" x="1105.5" y="-91" font-family="Helvetica,sans-Serif" font-size="10.00">/src/Core/File/FileData.cpp</text>
</a>
</g>
</g>
<!-- Node6&#45;&gt;Node7 -->
<g id="edge7" class="edge"><title>Node6&#45;&gt;Node7</title>
<path fill="none" stroke="midnightblue" d="M1489.15,-182.475C1410.71,-172.34 1290.88,-154.781 1188.5,-131 1181.01,-129.261 1173.21,-127.202 1165.52,-125.021"/>
<polygon fill="midnightblue" stroke="midnightblue" points="1489.1,-185.996 1499.46,-183.795 1489.98,-179.053 1489.1,-185.996"/>
</g>
<!-- Node8 -->
<g id="node8" class="node"><title>Node8</title>
<g id="a_node8"><a xlink:href="GeometryComponent_8cpp.html" target="_top" xlink:title="/home/travis/build\l/STORM&#45;IRIT/Radium&#45;Engine\l/src/Engine/Component/GeometryComponent.cpp">
<polygon fill="white" stroke="black" points="1197.5,-84 1197.5,-125 1453.5,-125 1453.5,-84 1197.5,-84"/>
<text text-anchor="start" x="1205.5" y="-113" font-family="Helvetica,sans-Serif" font-size="10.00">/home/travis/build</text>
<text text-anchor="start" x="1205.5" y="-102" font-family="Helvetica,sans-Serif" font-size="10.00">/STORM&#45;IRIT/Radium&#45;Engine</text>
<text text-anchor="middle" x="1325.5" y="-91" font-family="Helvetica,sans-Serif" font-size="10.00">/src/Engine/Component/GeometryComponent.cpp</text>
</a>
</g>
</g>
<!-- Node6&#45;&gt;Node8 -->
<g id="edge8" class="edge"><title>Node6&#45;&gt;Node8</title>
<path fill="none" stroke="midnightblue" d="M1508.06,-169.542C1468.64,-155.714 1418.97,-138.291 1381.4,-125.11"/>
<polygon fill="midnightblue" stroke="midnightblue" points="1507.25,-172.968 1517.84,-172.976 1509.57,-166.362 1507.25,-172.968"/>
</g>
<!-- Node9 -->
<g id="node9" class="node"><title>Node9</title>
<g id="a_node9"><a xlink:href="CameraManager_8cpp.html" target="_top" xlink:title="/home/travis/build\l/STORM&#45;IRIT/Radium&#45;Engine\l/src/Engine/Managers/CameraManager\l/CameraManager.cpp">
<polygon fill="white" stroke="black" points="1472,-78.5 1472,-130.5 1675,-130.5 1675,-78.5 1472,-78.5"/>
<text text-anchor="start" x="1480" y="-118.5" font-family="Helvetica,sans-Serif" font-size="10.00">/home/travis/build</text>
<text text-anchor="start" x="1480" y="-107.5" font-family="Helvetica,sans-Serif" font-size="10.00">/STORM&#45;IRIT/Radium&#45;Engine</text>
<text text-anchor="start" x="1480" y="-96.5" font-family="Helvetica,sans-Serif" font-size="10.00">/src/Engine/Managers/CameraManager</text>
<text text-anchor="middle" x="1573.5" y="-85.5" font-family="Helvetica,sans-Serif" font-size="10.00">/CameraManager.cpp</text>
</a>
</g>
</g>
<!-- Node6&#45;&gt;Node9 -->
<g id="edge9" class="edge"><title>Node6&#45;&gt;Node9</title>
<path fill="none" stroke="midnightblue" d="M1573.5,-162.509C1573.5,-152.174 1573.5,-140.71 1573.5,-130.788"/>
<polygon fill="midnightblue" stroke="midnightblue" points="1570,-162.758 1573.5,-172.758 1577,-162.758 1570,-162.758"/>
</g>
<!-- Node10 -->
<g id="node10" class="node"><title>Node10</title>
<g id="a_node10"><a xlink:href="LightManager_8cpp.html" target="_top" xlink:title="/home/travis/build\l/STORM&#45;IRIT/Radium&#45;Engine\l/src/Engine/Managers/LightManager\l/LightManager.cpp">
<polygon fill="white" stroke="black" points="1693.5,-78.5 1693.5,-130.5 1881.5,-130.5 1881.5,-78.5 1693.5,-78.5"/>
<text text-anchor="start" x="1701.5" y="-118.5" font-family="Helvetica,sans-Serif" font-size="10.00">/home/travis/build</text>
<text text-anchor="start" x="1701.5" y="-107.5" font-family="Helvetica,sans-Serif" font-size="10.00">/STORM&#45;IRIT/Radium&#45;Engine</text>
<text text-anchor="start" x="1701.5" y="-96.5" font-family="Helvetica,sans-Serif" font-size="10.00">/src/Engine/Managers/LightManager</text>
<text text-anchor="middle" x="1787.5" y="-85.5" font-family="Helvetica,sans-Serif" font-size="10.00">/LightManager.cpp</text>
</a>
</g>
</g>
<!-- Node6&#45;&gt;Node10 -->
<g id="edge10" class="edge"><title>Node6&#45;&gt;Node10</title>
<path fill="none" stroke="midnightblue" d="M1630.81,-169.202C1660.14,-157.279 1695.87,-142.753 1725.8,-130.585"/>
<polygon fill="midnightblue" stroke="midnightblue" points="1629.47,-165.967 1621.53,-172.976 1632.11,-172.452 1629.47,-165.967"/>
</g>
<!-- Node11 -->
<g id="node11" class="node"><title>Node11</title>
<g id="a_node11"><a xlink:href="RadiumEngine_8cpp.html" target="_top" xlink:title="/home/travis/build\l/STORM&#45;IRIT/Radium&#45;Engine\l/src/Engine/RadiumEngine.cpp">
<polygon fill="white" stroke="black" points="1900,-84 1900,-125 2061,-125 2061,-84 1900,-84"/>
<text text-anchor="start" x="1908" y="-113" font-family="Helvetica,sans-Serif" font-size="10.00">/home/travis/build</text>
<text text-anchor="start" x="1908" y="-102" font-family="Helvetica,sans-Serif" font-size="10.00">/STORM&#45;IRIT/Radium&#45;Engine</text>
<text text-anchor="middle" x="1980.5" y="-91" font-family="Helvetica,sans-Serif" font-size="10.00">/src/Engine/RadiumEngine.cpp</text>
</a>
</g>
</g>
<!-- Node6&#45;&gt;Node11 -->
<g id="edge11" class="edge"><title>Node6&#45;&gt;Node11</title>
<path fill="none" stroke="midnightblue" d="M1657.6,-178.182C1721.73,-166.782 1812.08,-149.682 1890.5,-131 1898.08,-129.194 1905.99,-127.168 1913.82,-125.069"/>
<polygon fill="midnightblue" stroke="midnightblue" points="1656.78,-174.773 1647.54,-179.962 1658,-181.666 1656.78,-174.773"/>
</g>
<!-- Node12 -->
<g id="node12" class="node"><title>Node12</title>
<g id="a_node12"><a xlink:href="Renderer_8cpp.html" target="_top" xlink:title="/home/travis/build\l/STORM&#45;IRIT/Radium&#45;Engine\l/src/Engine/Renderer/Renderer.cpp">
<polygon fill="white" stroke="black" points="2079.5,-84 2079.5,-125 2259.5,-125 2259.5,-84 2079.5,-84"/>
<text text-anchor="start" x="2087.5" y="-113" font-family="Helvetica,sans-Serif" font-size="10.00">/home/travis/build</text>
<text text-anchor="start" x="2087.5" y="-102" font-family="Helvetica,sans-Serif" font-size="10.00">/STORM&#45;IRIT/Radium&#45;Engine</text>
<text text-anchor="middle" x="2169.5" y="-91" font-family="Helvetica,sans-Serif" font-size="10.00">/src/Engine/Renderer/Renderer.cpp</text>
</a>
</g>
</g>
<!-- Node6&#45;&gt;Node12 -->
<g id="edge12" class="edge"><title>Node6&#45;&gt;Node12</title>
<path fill="none" stroke="midnightblue" d="M1657.62,-185.428C1756.87,-176.314 1926.6,-158.317 2070.5,-131 2079.48,-129.295 2088.85,-127.244 2098.1,-125.056"/>
<polygon fill="midnightblue" stroke="midnightblue" points="1657.28,-181.943 1647.64,-186.335 1657.92,-188.914 1657.28,-181.943"/>
</g>
<!-- Node13 -->
<g id="node13" class="node"><title>Node13</title>
<g id="a_node13"><a xlink:href="GeometrySystem_8cpp.html" target="_top" xlink:title="/home/travis/build\l/STORM&#45;IRIT/Radium&#45;Engine\l/src/Engine/System/GeometrySystem.cpp">
<polygon fill="white" stroke="black" points="2278,-84 2278,-125 2495,-125 2495,-84 2278,-84"/>
<text text-anchor="start" x="2286" y="-113" font-family="Helvetica,sans-Serif" font-size="10.00">/home/travis/build</text>
<text text-anchor="start" x="2286" y="-102" font-family="Helvetica,sans-Serif" font-size="10.00">/STORM&#45;IRIT/Radium&#45;Engine</text>
<text text-anchor="middle" x="2386.5" y="-91" font-family="Helvetica,sans-Serif" font-size="10.00">/src/Engine/System/GeometrySystem.cpp</text>
</a>
</g>
</g>
<!-- Node6&#45;&gt;Node13 -->
<g id="edge13" class="edge"><title>Node6&#45;&gt;Node13</title>
<path fill="none" stroke="midnightblue" d="M1658.04,-188.422C1789.28,-181.326 2049.72,-164.187 2268.5,-131 2279.48,-129.334 2290.98,-127.265 2302.3,-125.031"/>
<polygon fill="midnightblue" stroke="midnightblue" points="1657.46,-184.948 1647.66,-188.977 1657.84,-191.938 1657.46,-184.948"/>
</g>
<!-- Node14 -->
<g id="node14" class="node"><title>Node14</title>
<g id="a_node14"><a xlink:href="Viewer_8cpp.html" target="_top" xlink:title="/home/travis/build\l/STORM&#45;IRIT/Radium&#45;Engine\l/src/GuiBase/Viewer/Viewer.cpp">
<polygon fill="white" stroke="black" points="2513,-84 2513,-125 2678,-125 2678,-84 2513,-84"/>
<text text-anchor="start" x="2521" y="-113" font-family="Helvetica,sans-Serif" font-size="10.00">/home/travis/build</text>
<text text-anchor="start" x="2521" y="-102" font-family="Helvetica,sans-Serif" font-size="10.00">/STORM&#45;IRIT/Radium&#45;Engine</text>
<text text-anchor="middle" x="2595.5" y="-91" font-family="Helvetica,sans-Serif" font-size="10.00">/src/GuiBase/Viewer/Viewer.cpp</text>
</a>
</g>
</g>
<!-- Node6&#45;&gt;Node14 -->
<g id="edge14" class="edge"><title>Node6&#45;&gt;Node14</title>
<path fill="none" stroke="midnightblue" d="M1657.76,-192.752C1821.94,-191.963 2195.64,-183.887 2504.5,-131 2513.56,-129.449 2523,-127.357 2532.24,-125.034"/>
<polygon fill="midnightblue" stroke="midnightblue" points="1657.72,-189.252 1647.73,-192.792 1657.74,-196.252 1657.72,-189.252"/>
</g>
<!-- Node15 -->
<g id="node15" class="node"><title>Node15</title>
<g id="a_node15"><a xlink:href="AssimpFileLoader_8cpp.html" target="_top" xlink:title="/home/travis/build\l/STORM&#45;IRIT/Radium&#45;Engine\l/src/IO/AssimpLoader/AssimpFile\lLoader.cpp">
<polygon fill="white" stroke="black" points="0,-78.5 0,-130.5 171,-130.5 171,-78.5 0,-78.5"/>
<text text-anchor="start" x="8" y="-118.5" font-family="Helvetica,sans-Serif" font-size="10.00">/home/travis/build</text>
<text text-anchor="start" x="8" y="-107.5" font-family="Helvetica,sans-Serif" font-size="10.00">/STORM&#45;IRIT/Radium&#45;Engine</text>
<text text-anchor="start" x="8" y="-96.5" font-family="Helvetica,sans-Serif" font-size="10.00">/src/IO/AssimpLoader/AssimpFile</text>
<text text-anchor="middle" x="85.5" y="-85.5" font-family="Helvetica,sans-Serif" font-size="10.00">Loader.cpp</text>
</a>
</g>
</g>
<!-- Node6&#45;&gt;Node15 -->
<g id="edge15" class="edge"><title>Node6&#45;&gt;Node15</title>
<path fill="none" stroke="midnightblue" d="M1488.92,-189.857C1206.78,-180.89 308.361,-151.068 179.5,-131 176.743,-130.571 173.951,-130.091 171.14,-129.569"/>
<polygon fill="midnightblue" stroke="midnightblue" points="1488.99,-193.361 1499.1,-190.18 1489.21,-186.365 1488.99,-193.361"/>
</g>
<!-- Node16 -->
<g id="node16" class="node"><title>Node16</title>
<g id="a_node16"><a xlink:href="CameraLoader_8cpp.html" target="_top" xlink:title="/home/travis/build\l/STORM&#45;IRIT/Radium&#45;Engine\l/src/IO/CameraLoader/CameraLoader.cpp">
<polygon fill="white" stroke="black" points="189,-84 189,-125 404,-125 404,-84 189,-84"/>
<text text-anchor="start" x="197" y="-113" font-family="Helvetica,sans-Serif" font-size="10.00">/home/travis/build</text>
<text text-anchor="start" x="197" y="-102" font-family="Helvetica,sans-Serif" font-size="10.00">/STORM&#45;IRIT/Radium&#45;Engine</text>
<text text-anchor="middle" x="296.5" y="-91" font-family="Helvetica,sans-Serif" font-size="10.00">/src/IO/CameraLoader/CameraLoader.cpp</text>
</a>
</g>
</g>
<!-- Node6&#45;&gt;Node16 -->
<g id="edge16" class="edge"><title>Node6&#45;&gt;Node16</title>
<path fill="none" stroke="midnightblue" d="M1489.22,-189.827C1258.65,-182.229 620.797,-159.219 412.5,-131 401.057,-129.45 389.07,-127.358 377.324,-125.035"/>
<polygon fill="midnightblue" stroke="midnightblue" points="1489.12,-193.326 1499.23,-190.156 1489.35,-186.33 1489.12,-193.326"/>
</g>
<!-- Node17 -->
<g id="node17" class="node"><title>Node17</title>
<g id="a_node17"><a xlink:href="TinyPlyFileLoader_8cpp.html" target="_top" xlink:title="/home/travis/build\l/STORM&#45;IRIT/Radium&#45;Engine\l/src/IO/TinyPlyLoader/TinyPlyFile\lLoader.cpp">
<polygon fill="white" stroke="black" points="422,-78.5 422,-130.5 587,-130.5 587,-78.5 422,-78.5"/>
<text text-anchor="start" x="430" y="-118.5" font-family="Helvetica,sans-Serif" font-size="10.00">/home/travis/build</text>
<text text-anchor="start" x="430" y="-107.5" font-family="Helvetica,sans-Serif" font-size="10.00">/STORM&#45;IRIT/Radium&#45;Engine</text>
<text text-anchor="start" x="430" y="-96.5" font-family="Helvetica,sans-Serif" font-size="10.00">/src/IO/TinyPlyLoader/TinyPlyFile</text>
<text text-anchor="middle" x="504.5" y="-85.5" font-family="Helvetica,sans-Serif" font-size="10.00">Loader.cpp</text>
</a>
</g>
</g>
<!-- Node6&#45;&gt;Node17 -->
<g id="edge17" class="edge"><title>Node6&#45;&gt;Node17</title>
<path fill="none" stroke="midnightblue" d="M1489.23,-193.051C1319.19,-192.879 923.347,-185.971 596.5,-131 593.394,-130.478 590.243,-129.892 587.07,-129.257"/>
<polygon fill="midnightblue" stroke="midnightblue" points="1489.37,-196.551 1499.37,-193.054 1489.37,-189.551 1489.37,-196.551"/>
</g>
<!-- Node18 -->
<g id="node18" class="node"><title>Node18</title>
<g id="a_node18"><a xlink:href="AnimationSystem_8cpp.html" target="_top" xlink:title="/home/travis/build\l/STORM&#45;IRIT/Radium&#45;Engine\l/Plugins/Animation/src/Animation\lSystem.cpp">
<polygon fill="white" stroke="black" points="2696.5,-78.5 2696.5,-130.5 2870.5,-130.5 2870.5,-78.5 2696.5,-78.5"/>
<text text-anchor="start" x="2704.5" y="-118.5" font-family="Helvetica,sans-Serif" font-size="10.00">/home/travis/build</text>
<text text-anchor="start" x="2704.5" y="-107.5" font-family="Helvetica,sans-Serif" font-size="10.00">/STORM&#45;IRIT/Radium&#45;Engine</text>
<text text-anchor="start" x="2704.5" y="-96.5" font-family="Helvetica,sans-Serif" font-size="10.00">/Plugins/Animation/src/Animation</text>
<text text-anchor="middle" x="2783.5" y="-85.5" font-family="Helvetica,sans-Serif" font-size="10.00">System.cpp</text>
</a>
</g>
</g>
<!-- Node6&#45;&gt;Node18 -->
<g id="edge18" class="edge"><title>Node6&#45;&gt;Node18</title>
<path fill="none" stroke="midnightblue" d="M1657.93,-190.076C1882.23,-183.278 2489.32,-162.452 2687.5,-131 2690.4,-130.541 2693.33,-130.03 2696.28,-129.476"/>
<polygon fill="midnightblue" stroke="midnightblue" points="1657.76,-186.579 1647.87,-190.379 1657.97,-193.576 1657.76,-186.579"/>
</g>
<!-- Node19 -->
<g id="node19" class="node"><title>Node19</title>
<g id="a_node19"><a xlink:href="MeshPaintSystem_8cpp.html" target="_top" xlink:title="/home/travis/build\l/STORM&#45;IRIT/Radium&#45;Engine\l/Plugins/MeshPaint/src/MeshPaint\lSystem.cpp">
<polygon fill="white" stroke="black" points="605.5,-78.5 605.5,-130.5 779.5,-130.5 779.5,-78.5 605.5,-78.5"/>
<text text-anchor="start" x="613.5" y="-118.5" font-family="Helvetica,sans-Serif" font-size="10.00">/home/travis/build</text>
<text text-anchor="start" x="613.5" y="-107.5" font-family="Helvetica,sans-Serif" font-size="10.00">/STORM&#45;IRIT/Radium&#45;Engine</text>
<text text-anchor="start" x="613.5" y="-96.5" font-family="Helvetica,sans-Serif" font-size="10.00">/Plugins/MeshPaint/src/MeshPaint</text>
<text text-anchor="middle" x="692.5" y="-85.5" font-family="Helvetica,sans-Serif" font-size="10.00">System.cpp</text>
</a>
</g>
</g>
<!-- Node6&#45;&gt;Node19 -->
<g id="edge19" class="edge"><title>Node6&#45;&gt;Node19</title>
<path fill="none" stroke="midnightblue" d="M1489.36,-190.823C1345.14,-186.855 1041.9,-173.723 789.5,-131 786.238,-130.448 782.926,-129.837 779.589,-129.18"/>
<polygon fill="midnightblue" stroke="midnightblue" points="1489.37,-194.325 1499.46,-191.093 1489.56,-187.327 1489.37,-194.325"/>
</g>
<!-- Node20 -->
<g id="node20" class="node"><title>Node20</title>
<g id="a_node20"><a xlink:href="SkinningSystem_8hpp.html" target="_top" xlink:title="/home/travis/build\l/STORM&#45;IRIT/Radium&#45;Engine\l/Plugins/Skinning/src/SkinningSystem.hpp">
<polygon fill="white" stroke="black" points="798,-84 798,-125 1013,-125 1013,-84 798,-84"/>
<text text-anchor="start" x="806" y="-113" font-family="Helvetica,sans-Serif" font-size="10.00">/home/travis/build</text>
<text text-anchor="start" x="806" y="-102" font-family="Helvetica,sans-Serif" font-size="10.00">/STORM&#45;IRIT/Radium&#45;Engine</text>
<text text-anchor="middle" x="905.5" y="-91" font-family="Helvetica,sans-Serif" font-size="10.00">/Plugins/Skinning/src/SkinningSystem.hpp</text>
</a>
</g>
</g>
<!-- Node6&#45;&gt;Node20 -->
<g id="edge20" class="edge"><title>Node6&#45;&gt;Node20</title>
<path fill="none" stroke="midnightblue" d="M1488.97,-185.8C1380.5,-176.578 1186.74,-157.99 1022.5,-131 1012.04,-129.281 1001.1,-127.234 990.293,-125.06"/>
<polygon fill="midnightblue" stroke="midnightblue" points="1488.94,-189.31 1499.19,-186.664 1489.52,-182.335 1488.94,-189.31"/>
</g>
<!-- Node21 -->
<g id="node21" class="node"><title>Node21</title>
<g id="a_node21"><a xlink:href="SkinningPlugin_8cpp.html" target="_top" xlink:title="/home/travis/build\l/STORM&#45;IRIT/Radium&#45;Engine\l/Plugins/Skinning/src/SkinningPlugin.cpp">
<polygon fill="white" stroke="black" points="802.5,-0.5 802.5,-41.5 1008.5,-41.5 1008.5,-0.5 802.5,-0.5"/>
<text text-anchor="start" x="810.5" y="-29.5" font-family="Helvetica,sans-Serif" font-size="10.00">/home/travis/build</text>
<text text-anchor="start" x="810.5" y="-18.5" font-family="Helvetica,sans-Serif" font-size="10.00">/STORM&#45;IRIT/Radium&#45;Engine</text>
<text text-anchor="middle" x="905.5" y="-7.5" font-family="Helvetica,sans-Serif" font-size="10.00">/Plugins/Skinning/src/SkinningPlugin.cpp</text>
</a>
</g>
</g>
<!-- Node20&#45;&gt;Node21 -->
<g id="edge21" class="edge"><title>Node20&#45;&gt;Node21</title>
<path fill="none" stroke="midnightblue" d="M905.5,-73.5646C905.5,-62.8819 905.5,-51.1303 905.5,-41.5472"/>
<polygon fill="midnightblue" stroke="midnightblue" points="902,-73.7711 905.5,-83.7711 909,-73.7712 902,-73.7711"/>
</g>
<!-- Node23&#45;&gt;Node18 -->
<g id="edge25" class="edge"><title>Node23&#45;&gt;Node18</title>
<path fill="none" stroke="midnightblue" d="M2848.61,-250.554C2836.62,-242.005 2825.06,-231.78 2816.5,-220 2797.16,-193.393 2789.11,-155.668 2785.79,-130.899"/>
<polygon fill="midnightblue" stroke="midnightblue" points="2846.72,-253.496 2856.96,-256.204 2850.64,-247.7 2846.72,-253.496"/>
</g>
<!-- Node24 -->
<g id="node24" class="node"><title>Node24</title>
<g id="a_node24"><a xlink:href="AnimationComponent_8cpp.html" target="_top" xlink:title="/home/travis/build\l/STORM&#45;IRIT/Radium&#45;Engine\l/Plugins/Animation/src/Animation\lComponent.cpp">
<polygon fill="white" stroke="black" points="3070.5,-78.5 3070.5,-130.5 3244.5,-130.5 3244.5,-78.5 3070.5,-78.5"/>
<text text-anchor="start" x="3078.5" y="-118.5" font-family="Helvetica,sans-Serif" font-size="10.00">/home/travis/build</text>
<text text-anchor="start" x="3078.5" y="-107.5" font-family="Helvetica,sans-Serif" font-size="10.00">/STORM&#45;IRIT/Radium&#45;Engine</text>
<text text-anchor="start" x="3078.5" y="-96.5" font-family="Helvetica,sans-Serif" font-size="10.00">/Plugins/Animation/src/Animation</text>
<text text-anchor="middle" x="3157.5" y="-85.5" font-family="Helvetica,sans-Serif" font-size="10.00">Component.cpp</text>
</a>
</g>
</g>
<!-- Node23&#45;&gt;Node24 -->
<g id="edge24" class="edge"><title>Node23&#45;&gt;Node24</title>
<path fill="none" stroke="midnightblue" d="M2958.54,-250.855C2972.13,-241.685 2986.39,-231.095 2998.5,-220 3020.86,-199.507 3018.07,-186.269 3041.5,-167 3058.75,-152.809 3079.79,-140.471 3099.2,-130.646"/>
<polygon fill="midnightblue" stroke="midnightblue" points="2956.6,-247.94 2950.18,-256.372 2960.46,-253.781 2956.6,-247.94"/>
</g>
<!-- Node25 -->
<g id="node25" class="node"><title>Node25</title>
<g id="a_node25"><a xlink:href="SkeletonBoneDrawable_8hpp.html" target="_top" xlink:title="/home/travis/build\l/STORM&#45;IRIT/Radium&#45;Engine\l/Plugins/Animation/src/Drawing\l/SkeletonBoneDrawable.hpp">
<polygon fill="white" stroke="black" points="2825.5,-167.5 2825.5,-219.5 2989.5,-219.5 2989.5,-167.5 2825.5,-167.5"/>
<text text-anchor="start" x="2833.5" y="-207.5" font-family="Helvetica,sans-Serif" font-size="10.00">/home/travis/build</text>
<text text-anchor="start" x="2833.5" y="-196.5" font-family="Helvetica,sans-Serif" font-size="10.00">/STORM&#45;IRIT/Radium&#45;Engine</text>
<text text-anchor="start" x="2833.5" y="-185.5" font-family="Helvetica,sans-Serif" font-size="10.00">/Plugins/Animation/src/Drawing</text>
<text text-anchor="middle" x="2907.5" y="-174.5" font-family="Helvetica,sans-Serif" font-size="10.00">/SkeletonBoneDrawable.hpp</text>
</a>
</g>
</g>
<!-- Node23&#45;&gt;Node25 -->
<g id="edge26" class="edge"><title>Node23&#45;&gt;Node25</title>
<path fill="none" stroke="midnightblue" d="M2907.5,-246.191C2907.5,-237.282 2907.5,-227.899 2907.5,-219.607"/>
<polygon fill="midnightblue" stroke="midnightblue" points="2904,-246.336 2907.5,-256.336 2911,-246.336 2904,-246.336"/>
</g>
<!-- Node25&#45;&gt;Node18 -->
<g id="edge28" class="edge"><title>Node25&#45;&gt;Node18</title>
<path fill="none" stroke="midnightblue" d="M2863.32,-161.503C2848.88,-151.371 2833.03,-140.25 2819.29,-130.607"/>
<polygon fill="midnightblue" stroke="midnightblue" points="2861.44,-164.458 2871.63,-167.336 2865.46,-158.727 2861.44,-164.458"/>
</g>
<!-- Node25&#45;&gt;Node24 -->
<g id="edge27" class="edge"><title>Node25&#45;&gt;Node24</title>
<path fill="none" stroke="midnightblue" d="M2989,-164.138C3020.15,-153.299 3055.41,-141.027 3085.6,-130.521"/>
<polygon fill="midnightblue" stroke="midnightblue" points="2987.77,-160.86 2979.47,-167.453 2990.07,-167.472 2987.77,-160.86"/>
</g>
<!-- Node26 -->
<g id="node26" class="node"><title>Node26</title>
<g id="a_node26"><a xlink:href="SkeletonBoneDrawable_8cpp.html" target="_top" xlink:title="/home/travis/build\l/STORM&#45;IRIT/Radium&#45;Engine\l/Plugins/Animation/src/Drawing\l/SkeletonBoneDrawable.cpp">
<polygon fill="white" stroke="black" points="2888.5,-78.5 2888.5,-130.5 3052.5,-130.5 3052.5,-78.5 2888.5,-78.5"/>
<text text-anchor="start" x="2896.5" y="-118.5" font-family="Helvetica,sans-Serif" font-size="10.00">/home/travis/build</text>
<text text-anchor="start" x="2896.5" y="-107.5" font-family="Helvetica,sans-Serif" font-size="10.00">/STORM&#45;IRIT/Radium&#45;Engine</text>
<text text-anchor="start" x="2896.5" y="-96.5" font-family="Helvetica,sans-Serif" font-size="10.00">/Plugins/Animation/src/Drawing</text>
<text text-anchor="middle" x="2970.5" y="-85.5" font-family="Helvetica,sans-Serif" font-size="10.00">/SkeletonBoneDrawable.cpp</text>
</a>
</g>
</g>
<!-- Node25&#45;&gt;Node26 -->
<g id="edge29" class="edge"><title>Node25&#45;&gt;Node26</title>
<path fill="none" stroke="midnightblue" d="M2931.6,-159.215C2938.48,-149.717 2945.86,-139.529 2952.32,-130.607"/>
<polygon fill="midnightblue" stroke="midnightblue" points="2928.75,-157.184 2925.72,-167.336 2934.42,-161.289 2928.75,-157.184"/>
</g>
<!-- Node28 -->
<g id="node28" class="node"><title>Node28</title>
<g id="a_node28"><a xlink:href="KeyPose_8hpp.html" target="_top" xlink:title="/home/travis/build\l/STORM&#45;IRIT/Radium&#45;Engine\l/src/Core/File/KeyFrame\l/KeyPose.hpp">
<polygon fill="white" stroke="black" points="3083.5,-167.5 3083.5,-219.5 3231.5,-219.5 3231.5,-167.5 3083.5,-167.5"/>
<text text-anchor="start" x="3091.5" y="-207.5" font-family="Helvetica,sans-Serif" font-size="10.00">/home/travis/build</text>
<text text-anchor="start" x="3091.5" y="-196.5" font-family="Helvetica,sans-Serif" font-size="10.00">/STORM&#45;IRIT/Radium&#45;Engine</text>
<text text-anchor="start" x="3091.5" y="-185.5" font-family="Helvetica,sans-Serif" font-size="10.00">/src/Core/File/KeyFrame</text>
<text text-anchor="middle" x="3157.5" y="-174.5" font-family="Helvetica,sans-Serif" font-size="10.00">/KeyPose.hpp</text>
</a>
</g>
</g>
<!-- Node27&#45;&gt;Node28 -->
<g id="edge31" class="edge"><title>Node27&#45;&gt;Node28</title>
<path fill="none" stroke="midnightblue" d="M2446,-535.642C2557.13,-516.48 2756.43,-474.238 2911.5,-398 3005.51,-351.781 3094.79,-262.888 3135.09,-219.523"/>
<polygon fill="midnightblue" stroke="midnightblue" points="2445.13,-532.241 2435.86,-537.37 2446.3,-539.142 2445.13,-532.241"/>
</g>
<!-- Node29 -->
<g id="node29" class="node"><title>Node29</title>
<g id="a_node29"><a xlink:href="KeyRotation_8hpp.html" target="_top" xlink:title="/home/travis/build\l/STORM&#45;IRIT/Radium&#45;Engine\l/src/Core/File/KeyFrame\l/KeyRotation.hpp">
<polygon fill="white" stroke="black" points="2185.5,-345.5 2185.5,-397.5 2333.5,-397.5 2333.5,-345.5 2185.5,-345.5"/>
<text text-anchor="start" x="2193.5" y="-385.5" font-family="Helvetica,sans-Serif" font-size="10.00">/home/travis/build</text>
<text text-anchor="start" x="2193.5" y="-374.5" font-family="Helvetica,sans-Serif" font-size="10.00">/STORM&#45;IRIT/Radium&#45;Engine</text>
<text text-anchor="start" x="2193.5" y="-363.5" font-family="Helvetica,sans-Serif" font-size="10.00">/src/Core/File/KeyFrame</text>
<text text-anchor="middle" x="2259.5" y="-352.5" font-family="Helvetica,sans-Serif" font-size="10.00">/KeyRotation.hpp</text>
</a>
</g>
</g>
<!-- Node27&#45;&gt;Node29 -->
<g id="edge33" class="edge"><title>Node27&#45;&gt;Node29</title>
<path fill="none" stroke="midnightblue" d="M2306.52,-517.19C2295.73,-508.694 2285.58,-498.583 2278.5,-487 2261.79,-459.665 2258.51,-422.116 2258.42,-397.586"/>
<polygon fill="midnightblue" stroke="midnightblue" points="2304.74,-520.224 2314.85,-523.37 2308.91,-514.601 2304.74,-520.224"/>
</g>
<!-- Node30 -->
<g id="node30" class="node"><title>Node30</title>
<g id="a_node30"><a xlink:href="KeyScaling_8hpp.html" target="_top" xlink:title="/home/travis/build\l/STORM&#45;IRIT/Radium&#45;Engine\l/src/Core/File/KeyFrame\l/KeyScaling.hpp">
<polygon fill="white" stroke="black" points="2287.5,-434.5 2287.5,-486.5 2435.5,-486.5 2435.5,-434.5 2287.5,-434.5"/>
<text text-anchor="start" x="2295.5" y="-474.5" font-family="Helvetica,sans-Serif" font-size="10.00">/home/travis/build</text>
<text text-anchor="start" x="2295.5" y="-463.5" font-family="Helvetica,sans-Serif" font-size="10.00">/STORM&#45;IRIT/Radium&#45;Engine</text>
<text text-anchor="start" x="2295.5" y="-452.5" font-family="Helvetica,sans-Serif" font-size="10.00">/src/Core/File/KeyFrame</text>
<text text-anchor="middle" x="2361.5" y="-441.5" font-family="Helvetica,sans-Serif" font-size="10.00">/KeyScaling.hpp</text>
</a>
</g>
</g>
<!-- Node27&#45;&gt;Node30 -->
<g id="edge35" class="edge"><title>Node27&#45;&gt;Node30</title>
<path fill="none" stroke="midnightblue" d="M2361.5,-513.191C2361.5,-504.282 2361.5,-494.899 2361.5,-486.607"/>
<polygon fill="midnightblue" stroke="midnightblue" points="2358,-513.336 2361.5,-523.336 2365,-513.336 2358,-513.336"/>
</g>
<!-- Node31 -->
<g id="node31" class="node"><title>Node31</title>
<g id="a_node31"><a xlink:href="KeyTransform_8hpp.html" target="_top" xlink:title="/home/travis/build\l/STORM&#45;IRIT/Radium&#45;Engine\l/src/Core/File/KeyFrame\l/KeyTransform.hpp">
<polygon fill="white" stroke="black" points="2453.5,-434.5 2453.5,-486.5 2601.5,-486.5 2601.5,-434.5 2453.5,-434.5"/>
<text text-anchor="start" x="2461.5" y="-474.5" font-family="Helvetica,sans-Serif" font-size="10.00">/home/travis/build</text>
<text text-anchor="start" x="2461.5" y="-463.5" font-family="Helvetica,sans-Serif" font-size="10.00">/STORM&#45;IRIT/Radium&#45;Engine</text>
<text text-anchor="start" x="2461.5" y="-452.5" font-family="Helvetica,sans-Serif" font-size="10.00">/src/Core/File/KeyFrame</text>
<text text-anchor="middle" x="2527.5" y="-441.5" font-family="Helvetica,sans-Serif" font-size="10.00">/KeyTransform.hpp</text>
</a>
</g>
</g>
<!-- Node27&#45;&gt;Node31 -->
<g id="edge37" class="edge"><title>Node27&#45;&gt;Node31</title>
<path fill="none" stroke="midnightblue" d="M2418.48,-518.635C2438.38,-508.205 2460.51,-496.611 2479.59,-486.607"/>
<polygon fill="midnightblue" stroke="midnightblue" points="2416.75,-515.594 2409.51,-523.336 2420,-521.794 2416.75,-515.594"/>
</g>
<!-- Node32 -->
<g id="node32" class="node"><title>Node32</title>
<g id="a_node32"><a xlink:href="KeyTranslation_8hpp.html" target="_top" xlink:title="/home/travis/build\l/STORM&#45;IRIT/Radium&#45;Engine\l/src/Core/File/KeyFrame\l/KeyTranslation.hpp">
<polygon fill="white" stroke="black" points="2083.5,-434.5 2083.5,-486.5 2231.5,-486.5 2231.5,-434.5 2083.5,-434.5"/>
<text text-anchor="start" x="2091.5" y="-474.5" font-family="Helvetica,sans-Serif" font-size="10.00">/home/travis/build</text>
<text text-anchor="start" x="2091.5" y="-463.5" font-family="Helvetica,sans-Serif" font-size="10.00">/STORM&#45;IRIT/Radium&#45;Engine</text>
<text text-anchor="start" x="2091.5" y="-452.5" font-family="Helvetica,sans-Serif" font-size="10.00">/src/Core/File/KeyFrame</text>
<text text-anchor="middle" x="2157.5" y="-441.5" font-family="Helvetica,sans-Serif" font-size="10.00">/KeyTranslation.hpp</text>
</a>
</g>
</g>
<!-- Node27&#45;&gt;Node32 -->
<g id="edge40" class="edge"><title>Node27&#45;&gt;Node32</title>
<path fill="none" stroke="midnightblue" d="M2293.35,-519.436C2268.34,-508.771 2240.27,-496.8 2216.17,-486.521"/>
<polygon fill="midnightblue" stroke="midnightblue" points="2292.2,-522.749 2302.77,-523.453 2294.94,-516.31 2292.2,-522.749"/>
</g>
<!-- Node28&#45;&gt;Node24 -->
<g id="edge32" class="edge"><title>Node28&#45;&gt;Node24</title>
<path fill="none" stroke="midnightblue" d="M3157.5,-157.191C3157.5,-148.282 3157.5,-138.899 3157.5,-130.607"/>
<polygon fill="midnightblue" stroke="midnightblue" points="3154,-157.336 3157.5,-167.336 3161,-157.336 3154,-157.336"/>
</g>
<!-- Node29&#45;&gt;Node22 -->
<g id="edge34" class="edge"><title>Node29&#45;&gt;Node22</title>
<path fill="none" stroke="midnightblue" d="M2222.16,-338.649C2210.55,-328.749 2197.92,-317.98 2186.94,-308.607"/>
<polygon fill="midnightblue" stroke="midnightblue" points="2220.12,-341.509 2230,-345.336 2224.66,-336.184 2220.12,-341.509"/>
</g>
<!-- Node30&#45;&gt;Node22 -->
<g id="edge36" class="edge"><title>Node30&#45;&gt;Node22</title>
<path fill="none" stroke="midnightblue" d="M2364.62,-423.952C2364.84,-399.083 2360.94,-366.58 2342.5,-345 2330.68,-331.17 2296.17,-318.11 2260.1,-307.613"/>
<polygon fill="midnightblue" stroke="midnightblue" points="2361.11,-423.983 2364.3,-434.088 2368.11,-424.203 2361.11,-423.983"/>
</g>
<!-- Node31&#45;&gt;Node2 -->
<g id="edge38" class="edge"><title>Node31&#45;&gt;Node2</title>
<path fill="none" stroke="midnightblue" d="M2548.21,-425.506C2555.11,-414.175 2562.57,-401.94 2568.57,-392.082"/>
<polygon fill="midnightblue" stroke="midnightblue" points="2545.04,-423.975 2542.83,-434.336 2551.02,-427.617 2545.04,-423.975"/>
</g>
<!-- Node31&#45;&gt;Node24 -->
<g id="edge39" class="edge"><title>Node31&#45;&gt;Node24</title>
<path fill="none" stroke="midnightblue" d="M2611.83,-452.688C2715.17,-440.274 2890.43,-405.537 3003.5,-309 3057.16,-263.184 3029.13,-221.041 3074.5,-167 3086.15,-153.127 3101.52,-140.628 3115.87,-130.578"/>
<polygon fill="midnightblue" stroke="midnightblue" points="2611.28,-449.228 2601.75,-453.855 2612.09,-456.181 2611.28,-449.228"/>
</g>
<!-- Node32&#45;&gt;Node22 -->
<g id="edge41" class="edge"><title>Node32&#45;&gt;Node22</title>
<path fill="none" stroke="midnightblue" d="M2157.5,-424.249C2157.5,-390.038 2157.5,-338.969 2157.5,-308.67"/>
<polygon fill="midnightblue" stroke="midnightblue" points="2154,-424.283 2157.5,-434.283 2161,-424.284 2154,-424.283"/>
</g>
<!-- Node33&#45;&gt;Node15 -->
<g id="edge44" class="edge"><title>Node33&#45;&gt;Node15</title>
<path fill="none" stroke="midnightblue" d="M1913.74,-361.26C1623.9,-336.349 829.957,-260.774 179.5,-131 176.764,-130.454 173.99,-129.873 171.195,-129.263"/>
<polygon fill="midnightblue" stroke="midnightblue" points="1913.58,-364.759 1923.84,-362.125 1914.18,-357.785 1913.58,-364.759"/>
</g>
<!-- Node33&#45;&gt;Node22 -->
<g id="edge43" class="edge"><title>Node33&#45;&gt;Node22</title>
<path fill="none" stroke="midnightblue" d="M2072.75,-339.787C2088.12,-329.579 2105.04,-318.341 2119.69,-308.607"/>
<polygon fill="midnightblue" stroke="midnightblue" points="2070.78,-336.888 2064.39,-345.336 2074.66,-342.719 2070.78,-336.888"/>
</g>
</g>
</svg>
