<?xml version="1.0" encoding="UTF-8" standalone="no"?>
<!DOCTYPE svg PUBLIC "-//W3C//DTD SVG 1.1//EN"
 "http://www.w3.org/Graphics/SVG/1.1/DTD/svg11.dtd">
<!-- Generated by graphviz version 2.38.0 (20140413.2041)
 -->
<!-- Title: /home/travis/build/STORM&#45;IRIT/Radium&#45;Engine/src/Core/File/AnimationData.inl Pages: 1 -->
<svg width="1903pt" height="542pt"
 viewBox="0.00 0.00 1902.50 542.00" xmlns="http://www.w3.org/2000/svg" xmlns:xlink="http://www.w3.org/1999/xlink">
<g id="graph0" class="graph" transform="scale(1 1) rotate(0) translate(4 538)">
<title>/home/travis/build/STORM&#45;IRIT/Radium&#45;Engine/src/Core/File/AnimationData.inl</title>
<polygon fill="white" stroke="none" points="-4,4 -4,-538 1898.5,-538 1898.5,4 -4,4"/>
<!-- Node1 -->
<g id="node1" class="node"><title>Node1</title>
<polygon fill="#bfbfbf" stroke="black" points="1263.5,-492.5 1263.5,-533.5 1429.5,-533.5 1429.5,-492.5 1263.5,-492.5"/>
<text text-anchor="start" x="1271.5" y="-521.5" font-family="Helvetica,sans-Serif" font-size="10.00">/home/travis/build</text>
<text text-anchor="start" x="1271.5" y="-510.5" font-family="Helvetica,sans-Serif" font-size="10.00">/STORM&#45;IRIT/Radium&#45;Engine</text>
<text text-anchor="middle" x="1346.5" y="-499.5" font-family="Helvetica,sans-Serif" font-size="10.00">/src/Core/File/AnimationData.inl</text>
</g>
<!-- Node2 -->
<g id="node2" class="node"><title>Node2</title>
<g id="a_node2"><a xlink:href="AnimationData_8hpp.html" target="_top" xlink:title="Core/File/AnimationData.hpp">
<polygon fill="white" stroke="black" points="1270,-436.5 1270,-455.5 1423,-455.5 1423,-436.5 1270,-436.5"/>
<text text-anchor="middle" x="1346.5" y="-443.5" font-family="Helvetica,sans-Serif" font-size="10.00">Core/File/AnimationData.hpp</text>
</a>
</g>
</g>
<!-- Node1&#45;&gt;Node2 -->
<g id="edge1" class="edge"><title>Node1&#45;&gt;Node2</title>
<path fill="none" stroke="midnightblue" d="M1340.25,-492.498C1339.56,-483.969 1339.58,-474.011 1340.33,-465.59"/>
<polygon fill="midnightblue" stroke="midnightblue" points="1343.8,-466.044 1341.74,-455.652 1336.87,-465.065 1343.8,-466.044"/>
</g>
<!-- Node36 -->
<g id="node36" class="node"><title>Node36</title>
<g id="a_node36"><a xlink:href="Log_8hpp.html" target="_top" xlink:title="Core/Log/Log.hpp">
<polygon fill="white" stroke="black" points="1666,-436.5 1666,-455.5 1767,-455.5 1767,-436.5 1666,-436.5"/>
<text text-anchor="middle" x="1716.5" y="-443.5" font-family="Helvetica,sans-Serif" font-size="10.00">Core/Log/Log.hpp</text>
</a>
</g>
</g>
<!-- Node1&#45;&gt;Node36 -->
<g id="edge46" class="edge"><title>Node1&#45;&gt;Node36</title>
<path fill="none" stroke="midnightblue" d="M1429.54,-497.413C1499.06,-485.198 1596.54,-468.074 1658.09,-457.261"/>
<polygon fill="midnightblue" stroke="midnightblue" points="1658.78,-460.694 1668.02,-455.516 1657.57,-453.799 1658.78,-460.694"/>
</g>
<!-- Node2&#45;&gt;Node1 -->
<g id="edge45" class="edge"><title>Node2&#45;&gt;Node1</title>
<path fill="none" stroke="midnightblue" d="M1351.26,-455.652C1352.73,-462.524 1353.38,-472.559 1353.23,-482.263"/>
<polygon fill="midnightblue" stroke="midnightblue" points="1349.72,-482.344 1352.75,-492.498 1356.71,-482.674 1349.72,-482.344"/>
</g>
<!-- Node3 -->
<g id="node3" class="node"><title>Node3</title>
<polygon fill="white" stroke="#bfbfbf" points="1426.5,-308 1426.5,-327 1470.5,-327 1470.5,-308 1426.5,-308"/>
<text text-anchor="middle" x="1448.5" y="-315" font-family="Helvetica,sans-Serif" font-size="10.00">string</text>
</g>
<!-- Node2&#45;&gt;Node3 -->
<g id="edge2" class="edge"><title>Node2&#45;&gt;Node3</title>
<path fill="none" stroke="midnightblue" d="M1368.8,-436.382C1385.21,-428.997 1406.92,-416.868 1420.5,-400 1435.34,-381.556 1442.54,-354.771 1445.86,-337.006"/>
<polygon fill="midnightblue" stroke="midnightblue" points="1449.33,-337.474 1447.5,-327.039 1442.43,-336.338 1449.33,-337.474"/>
</g>
<!-- Node4 -->
<g id="node4" class="node"><title>Node4</title>
<polygon fill="white" stroke="#bfbfbf" points="1504,-308 1504,-327 1551,-327 1551,-308 1504,-308"/>
<text text-anchor="middle" x="1527.5" y="-315" font-family="Helvetica,sans-Serif" font-size="10.00">vector</text>
</g>
<!-- Node2&#45;&gt;Node4 -->
<g id="edge3" class="edge"><title>Node2&#45;&gt;Node4</title>
<path fill="none" stroke="midnightblue" d="M1370.82,-436.358C1391.2,-428.515 1420.55,-415.777 1443.5,-400 1471.13,-381.005 1498.04,-352.639 1513.68,-334.873"/>
<polygon fill="midnightblue" stroke="midnightblue" points="1516.51,-336.944 1520.4,-327.09 1511.22,-332.367 1516.51,-336.944"/>
</g>
<!-- Node5 -->
<g id="node5" class="node"><title>Node5</title>
<g id="a_node5"><a xlink:href="AssetData_8hpp.html" target="_top" xlink:title="Core/File/AssetData.hpp">
<polygon fill="white" stroke="black" points="1281,-375 1281,-394 1412,-394 1412,-375 1281,-375"/>
<text text-anchor="middle" x="1346.5" y="-382" font-family="Helvetica,sans-Serif" font-size="10.00">Core/File/AssetData.hpp</text>
</a>
</g>
</g>
<!-- Node2&#45;&gt;Node5 -->
<g id="edge4" class="edge"><title>Node2&#45;&gt;Node5</title>
<path fill="none" stroke="midnightblue" d="M1346.5,-436.475C1346.5,-428.08 1346.5,-414.981 1346.5,-404.163"/>
<polygon fill="midnightblue" stroke="midnightblue" points="1350,-404.009 1346.5,-394.009 1343,-404.009 1350,-404.009"/>
</g>
<!-- Node6 -->
<g id="node6" class="node"><title>Node6</title>
<g id="a_node6"><a xlink:href="RaCore_8hpp.html" target="_top" xlink:title="Core/RaCore.hpp">
<polygon fill="white" stroke="black" points="1274.5,-112.5 1274.5,-131.5 1372.5,-131.5 1372.5,-112.5 1274.5,-112.5"/>
<text text-anchor="middle" x="1323.5" y="-119.5" font-family="Helvetica,sans-Serif" font-size="10.00">Core/RaCore.hpp</text>
</a>
</g>
</g>
<!-- Node2&#45;&gt;Node6 -->
<g id="edge44" class="edge"><title>Node2&#45;&gt;Node6</title>
<path fill="none" stroke="midnightblue" d="M1319.22,-436.453C1302.21,-429.548 1281.67,-417.971 1271.5,-400 1246.01,-354.987 1298.1,-195.377 1317,-141.169"/>
<polygon fill="midnightblue" stroke="midnightblue" points="1320.38,-142.133 1320.4,-131.538 1313.77,-139.803 1320.38,-142.133"/>
</g>
<!-- Node13 -->
<g id="node13" class="node"><title>Node13</title>
<g id="a_node13"><a xlink:href="AnimationTime_8hpp.html" target="_top" xlink:title="Core/File/KeyFrame\l/AnimationTime.hpp">
<polygon fill="white" stroke="black" points="0,-235.5 0,-265.5 113,-265.5 113,-235.5 0,-235.5"/>
<text text-anchor="start" x="8" y="-253.5" font-family="Helvetica,sans-Serif" font-size="10.00">Core/File/KeyFrame</text>
<text text-anchor="middle" x="56.5" y="-242.5" font-family="Helvetica,sans-Serif" font-size="10.00">/AnimationTime.hpp</text>
</a>
</g>
</g>
<!-- Node2&#45;&gt;Node13 -->
<g id="edge13" class="edge"><title>Node2&#45;&gt;Node13</title>
<path fill="none" stroke="midnightblue" d="M1269.71,-440.91C1167.67,-434.898 981.932,-421.945 824.5,-400 562.98,-363.547 255.689,-296.804 123.014,-266.81"/>
<polygon fill="midnightblue" stroke="midnightblue" points="123.53,-263.338 113.004,-264.542 121.983,-270.165 123.53,-263.338"/>
</g>
<!-- Node16 -->
<g id="node16" class="node"><title>Node16</title>
<g id="a_node16"><a xlink:href="KeyTransform_8hpp.html" target="_top" xlink:title="Core/File/KeyFrame\l/KeyTransform.hpp">
<polygon fill="white" stroke="black" points="834,-369.5 834,-399.5 941,-399.5 941,-369.5 834,-369.5"/>
<text text-anchor="start" x="842" y="-387.5" font-family="Helvetica,sans-Serif" font-size="10.00">Core/File/KeyFrame</text>
<text text-anchor="middle" x="887.5" y="-376.5" font-family="Helvetica,sans-Serif" font-size="10.00">/KeyTransform.hpp</text>
</a>
</g>
</g>
<!-- Node2&#45;&gt;Node16 -->
<g id="edge17" class="edge"><title>Node2&#45;&gt;Node16</title>
<path fill="none" stroke="midnightblue" d="M1280.74,-436.475C1192.87,-425.085 1038.19,-405.034 951.319,-393.773"/>
<polygon fill="midnightblue" stroke="midnightblue" points="951.695,-390.292 941.328,-392.478 950.795,-397.234 951.695,-390.292"/>
</g>
<!-- Node5&#45;&gt;Node3 -->
<g id="edge12" class="edge"><title>Node5&#45;&gt;Node3</title>
<path fill="none" stroke="midnightblue" d="M1360.26,-374.734C1377.23,-363.916 1406.31,-345.383 1426.43,-332.566"/>
<polygon fill="midnightblue" stroke="midnightblue" points="1428.41,-335.453 1434.96,-327.127 1424.65,-329.55 1428.41,-335.453"/>
</g>
<!-- Node5&#45;&gt;Node6 -->
<g id="edge5" class="edge"><title>Node5&#45;&gt;Node6</title>
<path fill="none" stroke="midnightblue" d="M1346.94,-374.792C1348.25,-345.409 1351.25,-247.325 1337.5,-168 1335.94,-159.031 1333.1,-149.36 1330.37,-141.289"/>
<polygon fill="midnightblue" stroke="midnightblue" points="1333.64,-140.038 1326.99,-131.797 1327.05,-142.391 1333.64,-140.038"/>
</g>
<!-- Node7 -->
<g id="node7" class="node"><title>Node7</title>
<g id="a_node7"><a xlink:href="CoreMacros_8hpp.html" target="_top" xlink:title="Core/CoreMacros.hpp">
<polygon fill="white" stroke="black" points="1263.5,-56.5 1263.5,-75.5 1383.5,-75.5 1383.5,-56.5 1263.5,-56.5"/>
<text text-anchor="middle" x="1323.5" y="-63.5" font-family="Helvetica,sans-Serif" font-size="10.00">Core/CoreMacros.hpp</text>
</a>
</g>
</g>
<!-- Node6&#45;&gt;Node7 -->
<g id="edge6" class="edge"><title>Node6&#45;&gt;Node7</title>
<path fill="none" stroke="midnightblue" d="M1323.5,-112.083C1323.5,-105.006 1323.5,-94.8611 1323.5,-85.9865"/>
<polygon fill="midnightblue" stroke="midnightblue" points="1327,-85.751 1323.5,-75.7511 1320,-85.7511 1327,-85.751"/>
</g>
<!-- Node8 -->
<g id="node8" class="node"><title>Node8</title>
<polygon fill="white" stroke="#bfbfbf" points="1401.5,-0.5 1401.5,-19.5 1453.5,-19.5 1453.5,-0.5 1401.5,-0.5"/>
<text text-anchor="middle" x="1427.5" y="-7.5" font-family="Helvetica,sans-Serif" font-size="10.00">cassert</text>
</g>
<!-- Node7&#45;&gt;Node8 -->
<g id="edge7" class="edge"><title>Node7&#45;&gt;Node8</title>
<path fill="none" stroke="midnightblue" d="M1340.21,-56.324C1356.81,-47.7034 1382.5,-34.3643 1401.72,-24.3855"/>
<polygon fill="midnightblue" stroke="midnightblue" points="1403.57,-27.3689 1410.83,-19.6545 1400.34,-21.1565 1403.57,-27.3689"/>
</g>
<!-- Node9 -->
<g id="node9" class="node"><title>Node9</title>
<polygon fill="white" stroke="#bfbfbf" points="1195,-0.5 1195,-19.5 1240,-19.5 1240,-0.5 1195,-0.5"/>
<text text-anchor="middle" x="1217.5" y="-7.5" font-family="Helvetica,sans-Serif" font-size="10.00">cstdio</text>
</g>
<!-- Node7&#45;&gt;Node9 -->
<g id="edge8" class="edge"><title>Node7&#45;&gt;Node9</title>
<path fill="none" stroke="midnightblue" d="M1306.47,-56.324C1289.47,-47.6641 1263.12,-34.2424 1243.51,-24.249"/>
<polygon fill="midnightblue" stroke="midnightblue" points="1244.99,-21.0752 1234.49,-19.6545 1241.81,-27.3125 1244.99,-21.0752"/>
</g>
<!-- Node10 -->
<g id="node10" class="node"><title>Node10</title>
<polygon fill="white" stroke="#bfbfbf" points="1258,-0.5 1258,-19.5 1317,-19.5 1317,-0.5 1258,-0.5"/>
<text text-anchor="middle" x="1287.5" y="-7.5" font-family="Helvetica,sans-Serif" font-size="10.00">iostream</text>
</g>
<!-- Node7&#45;&gt;Node10 -->
<g id="edge9" class="edge"><title>Node7&#45;&gt;Node10</title>
<path fill="none" stroke="midnightblue" d="M1317.56,-56.083C1312.52,-48.5341 1305.16,-37.4948 1298.99,-28.2298"/>
<polygon fill="midnightblue" stroke="midnightblue" points="1301.79,-26.1301 1293.33,-19.7511 1295.97,-30.0131 1301.79,-26.1301"/>
</g>
<!-- Node11 -->
<g id="node11" class="node"><title>Node11</title>
<polygon fill="white" stroke="#bfbfbf" points="1580.5,-0.5 1580.5,-19.5 1636.5,-19.5 1636.5,-0.5 1580.5,-0.5"/>
<text text-anchor="middle" x="1608.5" y="-7.5" font-family="Helvetica,sans-Serif" font-size="10.00">sstream</text>
</g>
<!-- Node7&#45;&gt;Node11 -->
<g id="edge10" class="edge"><title>Node7&#45;&gt;Node11</title>
<path fill="none" stroke="midnightblue" d="M1368.66,-56.4435C1424.43,-45.8768 1518.3,-28.0907 1570.53,-18.1942"/>
<polygon fill="midnightblue" stroke="midnightblue" points="1571.22,-21.6251 1580.4,-16.3245 1569.92,-14.7474 1571.22,-21.6251"/>
</g>
<!-- Node12 -->
<g id="node12" class="node"><title>Node12</title>
<polygon fill="white" stroke="#bfbfbf" points="1335.5,-0.5 1335.5,-19.5 1383.5,-19.5 1383.5,-0.5 1335.5,-0.5"/>
<text text-anchor="middle" x="1359.5" y="-7.5" font-family="Helvetica,sans-Serif" font-size="10.00">thread</text>
</g>
<!-- Node7&#45;&gt;Node12 -->
<g id="edge11" class="edge"><title>Node7&#45;&gt;Node12</title>
<path fill="none" stroke="midnightblue" d="M1329.44,-56.083C1334.48,-48.5341 1341.84,-37.4948 1348.01,-28.2298"/>
<polygon fill="midnightblue" stroke="midnightblue" points="1351.03,-30.0131 1353.67,-19.7511 1345.21,-26.1301 1351.03,-30.0131"/>
</g>
<!-- Node13&#45;&gt;Node7 -->
<g id="edge14" class="edge"><title>Node13&#45;&gt;Node7</title>
<path fill="none" stroke="midnightblue" d="M41.1023,-235.279C25.1016,-218.71 4.12647,-190.707 17.5,-168 43.548,-123.774 69.0571,-125.779 118.5,-112 227.533,-81.6137 1012.34,-70.4522 1253.31,-67.7196"/>
<polygon fill="midnightblue" stroke="midnightblue" points="1253.4,-71.2189 1263.36,-67.607 1253.32,-64.2194 1253.4,-71.2189"/>
</g>
<!-- Node14 -->
<g id="node14" class="node"><title>Node14</title>
<polygon fill="white" stroke="#bfbfbf" points="128,-112.5 128,-131.5 175,-131.5 175,-112.5 128,-112.5"/>
<text text-anchor="middle" x="151.5" y="-119.5" font-family="Helvetica,sans-Serif" font-size="10.00">cmath</text>
</g>
<!-- Node13&#45;&gt;Node14 -->
<g id="edge15" class="edge"><title>Node13&#45;&gt;Node14</title>
<path fill="none" stroke="midnightblue" d="M43.871,-235.488C30.0406,-218.371 11.6748,-189.094 26.5,-168 46.9347,-138.925 88.052,-128.548 117.553,-124.893"/>
<polygon fill="midnightblue" stroke="midnightblue" points="118.25,-128.34 127.837,-123.829 117.529,-121.377 118.25,-128.34"/>
</g>
<!-- Node15 -->
<g id="node15" class="node"><title>Node15</title>
<polygon fill="white" stroke="#bfbfbf" points="35.5,-174 35.5,-193 77.5,-193 77.5,-174 35.5,-174"/>
<text text-anchor="middle" x="56.5" y="-181" font-family="Helvetica,sans-Serif" font-size="10.00">limits</text>
</g>
<!-- Node13&#45;&gt;Node15 -->
<g id="edge16" class="edge"><title>Node13&#45;&gt;Node15</title>
<path fill="none" stroke="midnightblue" d="M56.5,-235.396C56.5,-226.064 56.5,-213.714 56.5,-203.517"/>
<polygon fill="midnightblue" stroke="midnightblue" points="60.0001,-203.195 56.5,-193.195 53.0001,-203.195 60.0001,-203.195"/>
</g>
<!-- Node17 -->
<g id="node17" class="node"><title>Node17</title>
<g id="a_node17"><a xlink:href="Interpolation_8hpp.html" target="_top" xlink:title="Core/File/KeyFrame\l/Interpolation.hpp">
<polygon fill="white" stroke="black" points="834,-302.5 834,-332.5 941,-332.5 941,-302.5 834,-302.5"/>
<text text-anchor="start" x="842" y="-320.5" font-family="Helvetica,sans-Serif" font-size="10.00">Core/File/KeyFrame</text>
<text text-anchor="middle" x="887.5" y="-309.5" font-family="Helvetica,sans-Serif" font-size="10.00">/Interpolation.hpp</text>
</a>
</g>
</g>
<!-- Node16&#45;&gt;Node17 -->
<g id="edge18" class="edge"><title>Node16&#45;&gt;Node17</title>
<path fill="none" stroke="midnightblue" d="M887.5,-369.396C887.5,-361.645 887.5,-351.812 887.5,-342.86"/>
<polygon fill="midnightblue" stroke="midnightblue" points="891,-342.576 887.5,-332.577 884,-342.577 891,-342.576"/>
</g>
<!-- Node28 -->
<g id="node28" class="node"><title>Node28</title>
<g id="a_node28"><a xlink:href="KeyFrame_8hpp.html" target="_top" xlink:title="Core/File/KeyFrame\l/KeyFrame.hpp">
<polygon fill="white" stroke="black" points="688,-302.5 688,-332.5 795,-332.5 795,-302.5 688,-302.5"/>
<text text-anchor="start" x="696" y="-320.5" font-family="Helvetica,sans-Serif" font-size="10.00">Core/File/KeyFrame</text>
<text text-anchor="middle" x="741.5" y="-309.5" font-family="Helvetica,sans-Serif" font-size="10.00">/KeyFrame.hpp</text>
</a>
</g>
</g>
<!-- Node16&#45;&gt;Node28 -->
<g id="edge33" class="edge"><title>Node16&#45;&gt;Node28</title>
<path fill="none" stroke="midnightblue" d="M855.82,-369.396C834.297,-359.814 805.627,-347.05 782.384,-336.702"/>
<polygon fill="midnightblue" stroke="midnightblue" points="783.677,-333.446 773.118,-332.577 780.83,-339.841 783.677,-333.446"/>
</g>
<!-- Node18 -->
<g id="node18" class="node"><title>Node18</title>
<g id="a_node18"><a xlink:href="LinearAlgebra_8hpp.html" target="_top" xlink:title="Core/Math/LinearAlgebra.hpp">
<polygon fill="white" stroke="black" points="809.5,-241 809.5,-260 965.5,-260 965.5,-241 809.5,-241"/>
<text text-anchor="middle" x="887.5" y="-248" font-family="Helvetica,sans-Serif" font-size="10.00">Core/Math/LinearAlgebra.hpp</text>
</a>
</g>
</g>
<!-- Node17&#45;&gt;Node18 -->
<g id="edge19" class="edge"><title>Node17&#45;&gt;Node18</title>
<path fill="none" stroke="midnightblue" d="M887.5,-302.396C887.5,-293.064 887.5,-280.714 887.5,-270.517"/>
<polygon fill="midnightblue" stroke="midnightblue" points="891,-270.195 887.5,-260.195 884,-270.195 891,-270.195"/>
</g>
<!-- Node18&#45;&gt;Node6 -->
<g id="edge20" class="edge"><title>Node18&#45;&gt;Node6</title>
<path fill="none" stroke="midnightblue" d="M965.561,-246.169C1061.29,-240.881 1216.96,-228.021 1266.5,-199 1289.45,-185.558 1306.1,-158.897 1315.29,-141.002"/>
<polygon fill="midnightblue" stroke="midnightblue" points="1318.5,-142.399 1319.72,-131.874 1312.2,-139.342 1318.5,-142.399"/>
</g>
<!-- Node19 -->
<g id="node19" class="node"><title>Node19</title>
<polygon fill="white" stroke="#bfbfbf" points="979.5,-174 979.5,-193 1047.5,-193 1047.5,-174 979.5,-174"/>
<text text-anchor="middle" x="1013.5" y="-181" font-family="Helvetica,sans-Serif" font-size="10.00">Eigen/Core</text>
</g>
<!-- Node18&#45;&gt;Node19 -->
<g id="edge21" class="edge"><title>Node18&#45;&gt;Node19</title>
<path fill="none" stroke="midnightblue" d="M904.232,-240.869C925.601,-229.845 962.799,-210.655 987.781,-197.768"/>
<polygon fill="midnightblue" stroke="midnightblue" points="989.416,-200.862 996.699,-193.167 986.207,-194.641 989.416,-200.862"/>
</g>
<!-- Node20 -->
<g id="node20" class="node"><title>Node20</title>
<polygon fill="white" stroke="#bfbfbf" points="1065.5,-174 1065.5,-193 1159.5,-193 1159.5,-174 1065.5,-174"/>
<text text-anchor="middle" x="1112.5" y="-181" font-family="Helvetica,sans-Serif" font-size="10.00">Eigen/Geometry</text>
</g>
<!-- Node18&#45;&gt;Node20 -->
<g id="edge22" class="edge"><title>Node18&#45;&gt;Node20</title>
<path fill="none" stroke="midnightblue" d="M917.378,-240.869C957.414,-229.303 1028.56,-208.749 1072.99,-195.914"/>
<polygon fill="midnightblue" stroke="midnightblue" points="1074.22,-199.202 1082.86,-193.064 1072.28,-192.477 1074.22,-199.202"/>
</g>
<!-- Node21 -->
<g id="node21" class="node"><title>Node21</title>
<polygon fill="white" stroke="#bfbfbf" points="1177.5,-174 1177.5,-193 1257.5,-193 1257.5,-174 1177.5,-174"/>
<text text-anchor="middle" x="1217.5" y="-181" font-family="Helvetica,sans-Serif" font-size="10.00">Eigen/Sparse</text>
</g>
<!-- Node18&#45;&gt;Node21 -->
<g id="edge23" class="edge"><title>Node18&#45;&gt;Node21</title>
<path fill="none" stroke="midnightblue" d="M945.467,-240.99C1002.55,-232.162 1092.06,-217.122 1168.5,-199 1172.58,-198.033 1176.82,-196.929 1181.03,-195.772"/>
<polygon fill="midnightblue" stroke="midnightblue" points="1182.03,-199.125 1190.68,-193.013 1180.11,-192.395 1182.03,-199.125"/>
</g>
<!-- Node22 -->
<g id="node22" class="node"><title>Node22</title>
<polygon fill="white" stroke="#bfbfbf" points="569,-174 569,-193 632,-193 632,-174 569,-174"/>
<text text-anchor="middle" x="600.5" y="-181" font-family="Helvetica,sans-Serif" font-size="10.00">functional</text>
</g>
<!-- Node18&#45;&gt;Node22 -->
<g id="edge24" class="edge"><title>Node18&#45;&gt;Node22</title>
<path fill="none" stroke="midnightblue" d="M834.445,-240.965C784.06,-232.318 706.43,-217.582 640.5,-199 637.701,-198.211 634.816,-197.322 631.939,-196.382"/>
<polygon fill="midnightblue" stroke="midnightblue" points="632.913,-193.015 622.319,-193.062 630.63,-199.632 632.913,-193.015"/>
</g>
<!-- Node23 -->
<g id="node23" class="node"><title>Node23</title>
<polygon fill="white" stroke="#bfbfbf" points="650,-168.5 650,-198.5 795,-198.5 795,-168.5 650,-168.5"/>
<text text-anchor="start" x="658" y="-186.5" font-family="Helvetica,sans-Serif" font-size="10.00">unsupported/Eigen/Aligned</text>
<text text-anchor="middle" x="722.5" y="-175.5" font-family="Helvetica,sans-Serif" font-size="10.00">Vector3</text>
</g>
<!-- Node18&#45;&gt;Node23 -->
<g id="edge25" class="edge"><title>Node18&#45;&gt;Node23</title>
<path fill="none" stroke="midnightblue" d="M865.589,-240.869C840.723,-231.073 799.491,-214.83 767.658,-202.29"/>
<polygon fill="midnightblue" stroke="midnightblue" points="768.697,-198.937 758.11,-198.528 766.131,-205.45 768.697,-198.937"/>
</g>
<!-- Node24 -->
<g id="node24" class="node"><title>Node24</title>
<g id="a_node24"><a xlink:href="Math_8hpp.html" target="_top" xlink:title="Core/Math/Math.hpp">
<polygon fill="white" stroke="black" points="398.5,-174 398.5,-193 512.5,-193 512.5,-174 398.5,-174"/>
<text text-anchor="middle" x="455.5" y="-181" font-family="Helvetica,sans-Serif" font-size="10.00">Core/Math/Math.hpp</text>
</a>
</g>
</g>
<!-- Node18&#45;&gt;Node24 -->
<g id="edge26" class="edge"><title>Node18&#45;&gt;Node24</title>
<path fill="none" stroke="midnightblue" d="M830.579,-240.936C750.99,-228.96 606.74,-207.256 522.208,-194.537"/>
<polygon fill="midnightblue" stroke="midnightblue" points="522.613,-191.059 512.203,-193.032 521.571,-197.981 522.613,-191.059"/>
</g>
<!-- Node27 -->
<g id="node27" class="node"><title>Node27</title>
<g id="a_node27"><a xlink:href="LinearAlgebra_8inl.html" target="_top" xlink:title="Core/Math/LinearAlgebra.inl">
<polygon fill="white" stroke="black" points="813,-174 813,-193 962,-193 962,-174 813,-174"/>
<text text-anchor="middle" x="887.5" y="-181" font-family="Helvetica,sans-Serif" font-size="10.00">Core/Math/LinearAlgebra.inl</text>
</a>
</g>
</g>
<!-- Node18&#45;&gt;Node27 -->
<g id="edge32" class="edge"><title>Node18&#45;&gt;Node27</title>
<path fill="none" stroke="midnightblue" d="M887.5,-240.734C887.5,-231.183 887.5,-215.618 887.5,-203.283"/>
<polygon fill="midnightblue" stroke="midnightblue" points="891,-203.127 887.5,-193.127 884,-203.127 891,-203.127"/>
</g>
<!-- Node24&#45;&gt;Node6 -->
<g id="edge27" class="edge"><title>Node24&#45;&gt;Node6</title>
<path fill="none" stroke="midnightblue" d="M492.18,-173.953C503.162,-171.68 515.271,-169.456 526.5,-168 800.485,-132.479 1131.06,-124.991 1263.94,-123.417"/>
<polygon fill="midnightblue" stroke="midnightblue" points="1264.34,-126.913 1274.3,-123.302 1264.26,-119.914 1264.34,-126.913"/>
</g>
<!-- Node24&#45;&gt;Node14 -->
<g id="edge29" class="edge"><title>Node24&#45;&gt;Node14</title>
<path fill="none" stroke="midnightblue" d="M417.499,-173.951C408.342,-171.947 398.58,-169.855 389.5,-168 316.877,-153.16 231.426,-137.422 185.244,-129.058"/>
<polygon fill="midnightblue" stroke="midnightblue" points="185.655,-125.575 175.192,-127.241 184.41,-132.464 185.655,-125.575"/>
</g>
<!-- Node25 -->
<g id="node25" class="node"><title>Node25</title>
<polygon fill="white" stroke="#bfbfbf" points="322.5,-112.5 322.5,-131.5 384.5,-131.5 384.5,-112.5 322.5,-112.5"/>
<text text-anchor="middle" x="353.5" y="-119.5" font-family="Helvetica,sans-Serif" font-size="10.00">algorithm</text>
</g>
<!-- Node24&#45;&gt;Node25 -->
<g id="edge28" class="edge"><title>Node24&#45;&gt;Node25</title>
<path fill="none" stroke="midnightblue" d="M440.886,-173.975C424.147,-164.211 396.496,-148.081 376.781,-136.581"/>
<polygon fill="midnightblue" stroke="midnightblue" points="378.488,-133.525 368.087,-131.509 374.961,-139.571 378.488,-133.525"/>
</g>
<!-- Node26 -->
<g id="node26" class="node"><title>Node26</title>
<g id="a_node26"><a xlink:href="Math_8inl.html" target="_top" xlink:title="Core/Math/Math.inl">
<polygon fill="white" stroke="black" points="402,-112.5 402,-131.5 509,-131.5 509,-112.5 402,-112.5"/>
<text text-anchor="middle" x="455.5" y="-119.5" font-family="Helvetica,sans-Serif" font-size="10.00">Core/Math/Math.inl</text>
</a>
</g>
</g>
<!-- Node24&#45;&gt;Node26 -->
<g id="edge30" class="edge"><title>Node24&#45;&gt;Node26</title>
<path fill="none" stroke="midnightblue" d="M450.599,-173.975C448.768,-165.58 448.297,-152.481 449.185,-141.663"/>
<polygon fill="midnightblue" stroke="midnightblue" points="452.686,-141.897 450.603,-131.509 445.754,-140.929 452.686,-141.897"/>
</g>
<!-- Node26&#45;&gt;Node24 -->
<g id="edge31" class="edge"><title>Node26&#45;&gt;Node24</title>
<path fill="none" stroke="midnightblue" d="M460.397,-131.509C462.23,-139.898 462.703,-152.996 461.817,-163.817"/>
<polygon fill="midnightblue" stroke="midnightblue" points="458.315,-163.588 460.401,-173.975 465.248,-164.554 458.315,-163.588"/>
</g>
<!-- Node28&#45;&gt;Node13 -->
<g id="edge43" class="edge"><title>Node28&#45;&gt;Node13</title>
<path fill="none" stroke="midnightblue" d="M687.706,-311.812C589.355,-303.184 373.945,-284.017 192.5,-266 169.858,-263.752 145.111,-261.155 123.008,-258.786"/>
<polygon fill="midnightblue" stroke="midnightblue" points="123.373,-255.305 113.056,-257.715 122.624,-262.265 123.373,-255.305"/>
</g>
<!-- Node28&#45;&gt;Node18 -->
<g id="edge42" class="edge"><title>Node28&#45;&gt;Node18</title>
<path fill="none" stroke="midnightblue" d="M773.18,-302.396C798.797,-290.991 834.537,-275.079 859.204,-264.098"/>
<polygon fill="midnightblue" stroke="midnightblue" points="860.68,-267.272 868.392,-260.007 857.833,-260.877 860.68,-267.272"/>
</g>
<!-- Node29 -->
<g id="node29" class="node"><title>Node29</title>
<polygon fill="white" stroke="#bfbfbf" points="738.5,-241 738.5,-260 776.5,-260 776.5,-241 738.5,-241"/>
<text text-anchor="middle" x="757.5" y="-248" font-family="Helvetica,sans-Serif" font-size="10.00">map</text>
</g>
<!-- Node28&#45;&gt;Node29 -->
<g id="edge34" class="edge"><title>Node28&#45;&gt;Node29</title>
<path fill="none" stroke="midnightblue" d="M744.972,-302.396C747.294,-292.963 750.374,-280.448 752.9,-270.189"/>
<polygon fill="midnightblue" stroke="midnightblue" points="756.368,-270.741 755.36,-260.195 749.571,-269.068 756.368,-270.741"/>
</g>
<!-- Node30 -->
<g id="node30" class="node"><title>Node30</title>
<polygon fill="white" stroke="#bfbfbf" points="688.5,-241 688.5,-260 720.5,-260 720.5,-241 688.5,-241"/>
<text text-anchor="middle" x="704.5" y="-248" font-family="Helvetica,sans-Serif" font-size="10.00">set</text>
</g>
<!-- Node28&#45;&gt;Node30 -->
<g id="edge35" class="edge"><title>Node28&#45;&gt;Node30</title>
<path fill="none" stroke="midnightblue" d="M733.472,-302.396C727.874,-292.562 720.369,-279.378 714.4,-268.892"/>
<polygon fill="midnightblue" stroke="midnightblue" points="717.438,-267.154 709.449,-260.195 711.354,-270.617 717.438,-267.154"/>
</g>
<!-- Node31 -->
<g id="node31" class="node"><title>Node31</title>
<g id="a_node31"><a xlink:href="AlignedAllocator_8hpp.html" target="_top" xlink:title="Core/Containers/AlignedAllocator.hpp">
<polygon fill="white" stroke="black" points="201.5,-241 201.5,-260 395.5,-260 395.5,-241 201.5,-241"/>
<text text-anchor="middle" x="298.5" y="-248" font-family="Helvetica,sans-Serif" font-size="10.00">Core/Containers/AlignedAllocator.hpp</text>
</a>
</g>
</g>
<!-- Node28&#45;&gt;Node31 -->
<g id="edge36" class="edge"><title>Node28&#45;&gt;Node31</title>
<path fill="none" stroke="midnightblue" d="M687.622,-308.595C606.915,-296.753 454.705,-274.419 366.47,-261.473"/>
<polygon fill="midnightblue" stroke="midnightblue" points="366.963,-258.008 356.561,-260.019 365.947,-264.934 366.963,-258.008"/>
</g>
<!-- Node31&#45;&gt;Node6 -->
<g id="edge37" class="edge"><title>Node31&#45;&gt;Node6</title>
<path fill="none" stroke="midnightblue" d="M375.485,-240.987C419.858,-233.935 475.736,-221.304 521.5,-199 541.093,-189.451 539.191,-175.914 559.5,-168 624.451,-142.691 1096.32,-128.636 1264.31,-124.392"/>
<polygon fill="midnightblue" stroke="midnightblue" points="1264.55,-127.887 1274.46,-124.138 1264.37,-120.89 1264.55,-127.887"/>
</g>
<!-- Node32 -->
<g id="node32" class="node"><title>Node32</title>
<polygon fill="white" stroke="#bfbfbf" points="298.5,-174 298.5,-193 380.5,-193 380.5,-174 298.5,-174"/>
<text text-anchor="middle" x="339.5" y="-181" font-family="Helvetica,sans-Serif" font-size="10.00">mm_malloc.h</text>
</g>
<!-- Node31&#45;&gt;Node32 -->
<g id="edge38" class="edge"><title>Node31&#45;&gt;Node32</title>
<path fill="none" stroke="midnightblue" d="M304.029,-240.734C310.3,-230.793 320.679,-214.338 328.595,-201.789"/>
<polygon fill="midnightblue" stroke="midnightblue" points="331.683,-203.453 334.058,-193.127 325.763,-199.718 331.683,-203.453"/>
</g>
<!-- Node33 -->
<g id="node33" class="node"><title>Node33</title>
<polygon fill="white" stroke="#bfbfbf" points="95.5,-174 95.5,-193 147.5,-193 147.5,-174 95.5,-174"/>
<text text-anchor="middle" x="121.5" y="-181" font-family="Helvetica,sans-Serif" font-size="10.00">cstddef</text>
</g>
<!-- Node31&#45;&gt;Node33 -->
<g id="edge39" class="edge"><title>Node31&#45;&gt;Node33</title>
<path fill="none" stroke="midnightblue" d="M273.22,-240.946C244.711,-231.198 197.039,-214.594 156.5,-199 154.854,-198.367 153.169,-197.707 151.471,-197.034"/>
<polygon fill="midnightblue" stroke="midnightblue" points="152.37,-193.622 141.788,-193.111 149.742,-200.11 152.37,-193.622"/>
</g>
<!-- Node34 -->
<g id="node34" class="node"><title>Node34</title>
<polygon fill="white" stroke="#bfbfbf" points="166,-174 166,-193 215,-193 215,-174 166,-174"/>
<text text-anchor="middle" x="190.5" y="-181" font-family="Helvetica,sans-Serif" font-size="10.00">cstdint</text>
</g>
<!-- Node31&#45;&gt;Node34 -->
<g id="edge40" class="edge"><title>Node31&#45;&gt;Node34</title>
<path fill="none" stroke="midnightblue" d="M283.935,-240.734C265.879,-229.867 234.89,-211.216 213.584,-198.393"/>
<polygon fill="midnightblue" stroke="midnightblue" points="215.207,-195.285 204.835,-193.127 211.598,-201.283 215.207,-195.285"/>
</g>
<!-- Node35 -->
<g id="node35" class="node"><title>Node35</title>
<polygon fill="white" stroke="#bfbfbf" points="233,-174 233,-193 280,-193 280,-174 233,-174"/>
<text text-anchor="middle" x="256.5" y="-181" font-family="Helvetica,sans-Serif" font-size="10.00">cstdlib</text>
</g>
<!-- Node31&#45;&gt;Node35 -->
<g id="edge41" class="edge"><title>Node31&#45;&gt;Node35</title>
<path fill="none" stroke="midnightblue" d="M292.836,-240.734C286.412,-230.793 275.78,-214.338 267.671,-201.789"/>
<polygon fill="midnightblue" stroke="midnightblue" points="270.441,-199.627 262.075,-193.127 264.562,-203.426 270.441,-199.627"/>
</g>
<!-- Node36&#45;&gt;Node3 -->
<g id="edge50" class="edge"><title>Node36&#45;&gt;Node3</title>
<path fill="none" stroke="midnightblue" d="M1665.61,-439.371C1627.89,-433.575 1576.17,-422.127 1535.5,-400 1505.05,-383.436 1477.21,-353.664 1461.59,-335.054"/>
<polygon fill="midnightblue" stroke="midnightblue" points="1464.17,-332.677 1455.13,-327.149 1458.75,-337.107 1464.17,-332.677"/>
</g>
<!-- Node36&#45;&gt;Node6 -->
<g id="edge47" class="edge"><title>Node36&#45;&gt;Node6</title>
<path fill="none" stroke="midnightblue" d="M1716.5,-436.411C1716.5,-415.977 1716.5,-362.863 1716.5,-318.5 1716.5,-318.5 1716.5,-318.5 1716.5,-249.5 1716.5,-180.254 1492.62,-143.474 1382.82,-129.599"/>
<polygon fill="midnightblue" stroke="midnightblue" points="1383.23,-126.123 1372.88,-128.366 1382.37,-133.07 1383.23,-126.123"/>
</g>
<!-- Node36&#45;&gt;Node11 -->
<g id="edge48" class="edge"><title>Node36&#45;&gt;Node11</title>
<path fill="none" stroke="midnightblue" d="M1721.01,-436.375C1731.07,-416.289 1754.5,-364.592 1754.5,-318.5 1754.5,-318.5 1754.5,-318.5 1754.5,-121 1754.5,-66.8253 1689.58,-35.9892 1646.32,-21.4548"/>
<polygon fill="midnightblue" stroke="midnightblue" points="1647.24,-18.0735 1636.65,-18.3518 1645.1,-24.739 1647.24,-18.0735"/>
</g>
<!-- Node37 -->
<g id="node37" class="node"><title>Node37</title>
<polygon fill="white" stroke="#bfbfbf" points="1783,-375 1783,-394 1832,-394 1832,-375 1783,-375"/>
<text text-anchor="middle" x="1807.5" y="-382" font-family="Helvetica,sans-Serif" font-size="10.00">stdio.h</text>
</g>
<!-- Node36&#45;&gt;Node37 -->
<g id="edge49" class="edge"><title>Node36&#45;&gt;Node37</title>
<path fill="none" stroke="midnightblue" d="M1729.54,-436.475C1744.27,-426.843 1768.47,-411.017 1786.01,-399.552"/>
<polygon fill="midnightblue" stroke="midnightblue" points="1788.03,-402.411 1794.49,-394.009 1784.2,-396.552 1788.03,-402.411"/>
</g>
<!-- Node38 -->
<g id="node38" class="node"><title>Node38</title>
<g id="a_node38"><a xlink:href="StringUtils_8hpp.html" target="_top" xlink:title="Core/String/StringUtils.hpp">
<polygon fill="white" stroke="black" points="1544.5,-375 1544.5,-394 1688.5,-394 1688.5,-375 1544.5,-375"/>
<text text-anchor="middle" x="1616.5" y="-382" font-family="Helvetica,sans-Serif" font-size="10.00">Core/String/StringUtils.hpp</text>
</a>
</g>
</g>
<!-- Node36&#45;&gt;Node38 -->
<g id="edge51" class="edge"><title>Node36&#45;&gt;Node38</title>
<path fill="none" stroke="midnightblue" d="M1702.17,-436.475C1685.84,-426.755 1658.9,-410.727 1639.59,-399.237"/>
<polygon fill="midnightblue" stroke="midnightblue" points="1641.18,-396.115 1630.8,-394.009 1637.61,-402.13 1641.18,-396.115"/>
</g>
<!-- Node39 -->
<g id="node39" class="node"><title>Node39</title>
<polygon fill="white" stroke="#bfbfbf" points="1850.5,-375 1850.5,-394 1894.5,-394 1894.5,-375 1850.5,-375"/>
<text text-anchor="middle" x="1872.5" y="-382" font-family="Helvetica,sans-Serif" font-size="10.00">ctime</text>
</g>
<!-- Node36&#45;&gt;Node39 -->
<g id="edge55" class="edge"><title>Node36&#45;&gt;Node39</title>
<path fill="none" stroke="midnightblue" d="M1741.89,-436.43C1767.11,-427.768 1806.78,-413.736 1840.5,-400 1841.91,-399.425 1843.35,-398.824 1844.81,-398.207"/>
<polygon fill="midnightblue" stroke="midnightblue" points="1846.58,-401.251 1854.33,-394.027 1843.77,-394.841 1846.58,-401.251"/>
</g>
<!-- Node38&#45;&gt;Node3 -->
<g id="edge53" class="edge"><title>Node38&#45;&gt;Node3</title>
<path fill="none" stroke="midnightblue" d="M1594.19,-374.869C1564.99,-363.571 1513.62,-343.696 1480.34,-330.818"/>
<polygon fill="midnightblue" stroke="midnightblue" points="1481.22,-327.408 1470.63,-327.064 1478.7,-333.936 1481.22,-327.408"/>
</g>
<!-- Node38&#45;&gt;Node4 -->
<g id="edge54" class="edge"><title>Node38&#45;&gt;Node4</title>
<path fill="none" stroke="midnightblue" d="M1604.5,-374.734C1589.95,-364.111 1565.22,-346.049 1547.72,-333.264"/>
<polygon fill="midnightblue" stroke="midnightblue" points="1549.45,-330.199 1539.31,-327.127 1545.32,-335.852 1549.45,-330.199"/>
</g>
<!-- Node38&#45;&gt;Node6 -->
<g id="edge52" class="edge"><title>Node38&#45;&gt;Node6</title>
<path fill="none" stroke="midnightblue" d="M1611.62,-374.756C1602.63,-359.083 1582.25,-325.641 1559.5,-302 1490.43,-230.212 1390.75,-164.571 1346.34,-136.881"/>
<polygon fill="midnightblue" stroke="midnightblue" points="1348.08,-133.842 1337.74,-131.56 1344.4,-139.796 1348.08,-133.842"/>
</g>
</g>
</svg>
