<?xml version="1.0" encoding="UTF-8" standalone="no"?>
<!DOCTYPE svg PUBLIC "-//W3C//DTD SVG 1.1//EN"
 "http://www.w3.org/Graphics/SVG/1.1/DTD/svg11.dtd">
<!-- Generated by graphviz version 2.38.0 (20140413.2041)
 -->
<!-- Title: /home/travis/build/STORM&#45;IRIT/Radium&#45;Engine/src/Core/Geometry/Area/Area.cpp Pages: 1 -->
<svg width="1587pt" height="486pt"
 viewBox="0.00 0.00 1587.00 486.00" xmlns="http://www.w3.org/2000/svg" xmlns:xlink="http://www.w3.org/1999/xlink">
<g id="graph0" class="graph" transform="scale(1 1) rotate(0) translate(4 482)">
<title>/home/travis/build/STORM&#45;IRIT/Radium&#45;Engine/src/Core/Geometry/Area/Area.cpp</title>
<polygon fill="white" stroke="none" points="-4,4 -4,-482 1583,-482 1583,4 -4,4"/>
<!-- Node1 -->
<g id="node1" class="node"><title>Node1</title>
<polygon fill="#bfbfbf" stroke="black" points="662,-425.5 662,-477.5 810,-477.5 810,-425.5 662,-425.5"/>
<text text-anchor="start" x="670" y="-465.5" font-family="Helvetica,sans-Serif" font-size="10.00">/home/travis/build</text>
<text text-anchor="start" x="670" y="-454.5" font-family="Helvetica,sans-Serif" font-size="10.00">/STORM&#45;IRIT/Radium&#45;Engine</text>
<text text-anchor="start" x="670" y="-443.5" font-family="Helvetica,sans-Serif" font-size="10.00">/src/Core/Geometry/Area</text>
<text text-anchor="middle" x="736" y="-432.5" font-family="Helvetica,sans-Serif" font-size="10.00">/Area.cpp</text>
</g>
<!-- Node2 -->
<g id="node2" class="node"><title>Node2</title>
<g id="a_node2"><a xlink:href="Area_8hpp.html" target="_top" xlink:title="Core/Geometry/Area\l/Area.hpp">
<polygon fill="white" stroke="black" points="475,-358.5 475,-388.5 591,-388.5 591,-358.5 475,-358.5"/>
<text text-anchor="start" x="483" y="-376.5" font-family="Helvetica,sans-Serif" font-size="10.00">Core/Geometry/Area</text>
<text text-anchor="middle" x="533" y="-365.5" font-family="Helvetica,sans-Serif" font-size="10.00">/Area.hpp</text>
</a>
</g>
</g>
<!-- Node1&#45;&gt;Node2 -->
<g id="edge1" class="edge"><title>Node1&#45;&gt;Node2</title>
<path fill="none" stroke="midnightblue" d="M668.968,-425.404C639.859,-414.506 606.46,-402.002 580.048,-392.114"/>
<polygon fill="midnightblue" stroke="midnightblue" points="581.247,-388.826 570.654,-388.597 578.792,-395.381 581.247,-388.826"/>
</g>
<!-- Node29 -->
<g id="node29" class="node"><title>Node29</title>
<g id="a_node29"><a xlink:href="CircularIndex_8hpp.html" target="_top" xlink:title="Core/Index/CircularIndex.hpp">
<polygon fill="white" stroke="black" points="1378.5,-364 1378.5,-383 1531.5,-383 1531.5,-364 1378.5,-364"/>
<text text-anchor="middle" x="1455" y="-371" font-family="Helvetica,sans-Serif" font-size="10.00">Core/Index/CircularIndex.hpp</text>
</a>
</g>
</g>
<!-- Node1&#45;&gt;Node29 -->
<g id="edge36" class="edge"><title>Node1&#45;&gt;Node29</title>
<path fill="none" stroke="midnightblue" d="M810.238,-442.653C944.26,-428.486 1225.91,-398.716 1368.44,-383.649"/>
<polygon fill="midnightblue" stroke="midnightblue" points="1368.88,-387.122 1378.46,-382.59 1368.15,-380.161 1368.88,-387.122"/>
</g>
<!-- Node31 -->
<g id="node31" class="node"><title>Node31</title>
<g id="a_node31"><a xlink:href="TriangleOperation_8hpp.html" target="_top" xlink:title="Core/Geometry/Triangle\l/TriangleOperation.hpp">
<polygon fill="white" stroke="black" points="671.5,-358.5 671.5,-388.5 800.5,-388.5 800.5,-358.5 671.5,-358.5"/>
<text text-anchor="start" x="679.5" y="-376.5" font-family="Helvetica,sans-Serif" font-size="10.00">Core/Geometry/Triangle</text>
<text text-anchor="middle" x="736" y="-365.5" font-family="Helvetica,sans-Serif" font-size="10.00">/TriangleOperation.hpp</text>
</a>
</g>
</g>
<!-- Node1&#45;&gt;Node31 -->
<g id="edge40" class="edge"><title>Node1&#45;&gt;Node31</title>
<path fill="none" stroke="midnightblue" d="M736,-425.193C736,-416.786 736,-407.443 736,-399.091"/>
<polygon fill="midnightblue" stroke="midnightblue" points="739.5,-398.845 736,-388.845 732.5,-398.845 739.5,-398.845"/>
</g>
<!-- Node3 -->
<g id="node3" class="node"><title>Node3</title>
<g id="a_node3"><a xlink:href="VectorArray_8hpp.html" target="_top" xlink:title="Core/Containers/VectorArray.hpp">
<polygon fill="white" stroke="black" points="383.5,-302.5 383.5,-321.5 556.5,-321.5 556.5,-302.5 383.5,-302.5"/>
<text text-anchor="middle" x="470" y="-309.5" font-family="Helvetica,sans-Serif" font-size="10.00">Core/Containers/VectorArray.hpp</text>
</a>
</g>
</g>
<!-- Node2&#45;&gt;Node3 -->
<g id="edge2" class="edge"><title>Node2&#45;&gt;Node3</title>
<path fill="none" stroke="midnightblue" d="M518.07,-358.399C508.632,-349.486 496.42,-337.952 486.667,-328.741"/>
<polygon fill="midnightblue" stroke="midnightblue" points="488.84,-325.979 479.167,-321.658 484.034,-331.069 488.84,-325.979"/>
</g>
<!-- Node14 -->
<g id="node14" class="node"><title>Node14</title>
<g id="a_node14"><a xlink:href="LinearAlgebra_8hpp.html" target="_top" xlink:title="Core/Math/LinearAlgebra.hpp">
<polygon fill="white" stroke="black" points="658,-241 658,-260 814,-260 814,-241 658,-241"/>
<text text-anchor="middle" x="736" y="-248" font-family="Helvetica,sans-Serif" font-size="10.00">Core/Math/LinearAlgebra.hpp</text>
</a>
</g>
</g>
<!-- Node2&#45;&gt;Node14 -->
<g id="edge29" class="edge"><title>Node2&#45;&gt;Node14</title>
<path fill="none" stroke="midnightblue" d="M556.684,-358.383C595.829,-335.05 673.567,-288.714 712.555,-265.475"/>
<polygon fill="midnightblue" stroke="midnightblue" points="714.787,-268.219 721.585,-260.092 711.203,-262.206 714.787,-268.219"/>
</g>
<!-- Node25 -->
<g id="node25" class="node"><title>Node25</title>
<g id="a_node25"><a xlink:href="MeshTypes_8hpp.html" target="_top" xlink:title="Core/Mesh/MeshTypes.hpp">
<polygon fill="white" stroke="black" points="183.5,-302.5 183.5,-321.5 326.5,-321.5 326.5,-302.5 183.5,-302.5"/>
<text text-anchor="middle" x="255" y="-309.5" font-family="Helvetica,sans-Serif" font-size="10.00">Core/Mesh/MeshTypes.hpp</text>
</a>
</g>
</g>
<!-- Node2&#45;&gt;Node25 -->
<g id="edge30" class="edge"><title>Node2&#45;&gt;Node25</title>
<path fill="none" stroke="midnightblue" d="M474.722,-360.027C424.332,-349.242 352.283,-333.821 304.605,-323.617"/>
<polygon fill="midnightblue" stroke="midnightblue" points="305.329,-320.193 294.818,-321.522 303.864,-327.038 305.329,-320.193"/>
</g>
<!-- Node4 -->
<g id="node4" class="node"><title>Node4</title>
<g id="a_node4"><a xlink:href="AlignedStdVector_8hpp.html" target="_top" xlink:title="Core/Containers/AlignedStd\lVector.hpp">
<polygon fill="white" stroke="black" points="293.5,-235.5 293.5,-265.5 442.5,-265.5 442.5,-235.5 293.5,-235.5"/>
<text text-anchor="start" x="301.5" y="-253.5" font-family="Helvetica,sans-Serif" font-size="10.00">Core/Containers/AlignedStd</text>
<text text-anchor="middle" x="368" y="-242.5" font-family="Helvetica,sans-Serif" font-size="10.00">Vector.hpp</text>
</a>
</g>
</g>
<!-- Node3&#45;&gt;Node4 -->
<g id="edge3" class="edge"><title>Node3&#45;&gt;Node4</title>
<path fill="none" stroke="midnightblue" d="M455.386,-302.475C441.184,-294.191 419.128,-281.325 400.728,-270.591"/>
<polygon fill="midnightblue" stroke="midnightblue" points="402.441,-267.539 392.039,-265.523 398.914,-273.585 402.441,-267.539"/>
</g>
<!-- Node5 -->
<g id="node5" class="node"><title>Node5</title>
<g id="a_node5"><a xlink:href="RaCore_8hpp.html" target="_top" xlink:title="Core/RaCore.hpp">
<polygon fill="white" stroke="black" points="440,-112.5 440,-131.5 538,-131.5 538,-112.5 440,-112.5"/>
<text text-anchor="middle" x="489" y="-119.5" font-family="Helvetica,sans-Serif" font-size="10.00">Core/RaCore.hpp</text>
</a>
</g>
</g>
<!-- Node3&#45;&gt;Node5 -->
<g id="edge27" class="edge"><title>Node3&#45;&gt;Node5</title>
<path fill="none" stroke="midnightblue" d="M470.866,-302.434C473.753,-273.867 483.095,-181.426 487.123,-141.57"/>
<polygon fill="midnightblue" stroke="midnightblue" points="490.606,-141.918 488.129,-131.617 483.641,-141.214 490.606,-141.918"/>
</g>
<!-- Node13 -->
<g id="node13" class="node"><title>Node13</title>
<polygon fill="white" stroke="#bfbfbf" points="245.5,-174 245.5,-193 292.5,-193 292.5,-174 245.5,-174"/>
<text text-anchor="middle" x="269" y="-181" font-family="Helvetica,sans-Serif" font-size="10.00">vector</text>
</g>
<!-- Node3&#45;&gt;Node13 -->
<g id="edge28" class="edge"><title>Node3&#45;&gt;Node13</title>
<path fill="none" stroke="midnightblue" d="M402.329,-302.447C356.058,-295.191 300.269,-283.195 284,-266 268.197,-249.297 266.28,-221.683 267.069,-203.292"/>
<polygon fill="midnightblue" stroke="midnightblue" points="270.568,-203.443 267.811,-193.213 263.586,-202.93 270.568,-203.443"/>
</g>
<!-- Node3&#45;&gt;Node14 -->
<g id="edge13" class="edge"><title>Node3&#45;&gt;Node14</title>
<path fill="none" stroke="midnightblue" d="M508.111,-302.475C555.517,-291.871 636.484,-273.76 688.056,-262.224"/>
<polygon fill="midnightblue" stroke="midnightblue" points="688.965,-265.608 697.959,-260.009 687.436,-258.776 688.965,-265.608"/>
</g>
<!-- Node4&#45;&gt;Node5 -->
<g id="edge4" class="edge"><title>Node4&#45;&gt;Node5</title>
<path fill="none" stroke="midnightblue" d="M381.411,-235.479C404.064,-211.796 449.768,-164.016 473.66,-139.038"/>
<polygon fill="midnightblue" stroke="midnightblue" points="476.211,-141.434 480.594,-131.789 471.152,-136.596 476.211,-141.434"/>
</g>
<!-- Node12 -->
<g id="node12" class="node"><title>Node12</title>
<polygon fill="white" stroke="#bfbfbf" points="310.5,-174 310.5,-193 403.5,-193 403.5,-174 310.5,-174"/>
<text text-anchor="middle" x="357" y="-181" font-family="Helvetica,sans-Serif" font-size="10.00">Eigen/StdVector</text>
</g>
<!-- Node4&#45;&gt;Node12 -->
<g id="edge11" class="edge"><title>Node4&#45;&gt;Node12</title>
<path fill="none" stroke="midnightblue" d="M365.613,-235.396C364.017,-225.963 361.899,-213.448 360.163,-203.189"/>
<polygon fill="midnightblue" stroke="midnightblue" points="363.591,-202.47 358.471,-193.195 356.689,-203.638 363.591,-202.47"/>
</g>
<!-- Node4&#45;&gt;Node13 -->
<g id="edge12" class="edge"><title>Node4&#45;&gt;Node13</title>
<path fill="none" stroke="midnightblue" d="M346.518,-235.396C329.916,-224.496 307.044,-209.479 290.45,-198.584"/>
<polygon fill="midnightblue" stroke="midnightblue" points="292.237,-195.57 281.957,-193.007 288.395,-201.421 292.237,-195.57"/>
</g>
<!-- Node6 -->
<g id="node6" class="node"><title>Node6</title>
<g id="a_node6"><a xlink:href="CoreMacros_8hpp.html" target="_top" xlink:title="Core/CoreMacros.hpp">
<polygon fill="white" stroke="black" points="896,-56.5 896,-75.5 1016,-75.5 1016,-56.5 896,-56.5"/>
<text text-anchor="middle" x="956" y="-63.5" font-family="Helvetica,sans-Serif" font-size="10.00">Core/CoreMacros.hpp</text>
</a>
</g>
</g>
<!-- Node5&#45;&gt;Node6 -->
<g id="edge5" class="edge"><title>Node5&#45;&gt;Node6</title>
<path fill="none" stroke="midnightblue" d="M538.095,-115.323C621.243,-105.708 790.045,-86.1896 885.715,-75.1271"/>
<polygon fill="midnightblue" stroke="midnightblue" points="886.342,-78.578 895.874,-73.9525 885.538,-71.6244 886.342,-78.578"/>
</g>
<!-- Node7 -->
<g id="node7" class="node"><title>Node7</title>
<polygon fill="white" stroke="#bfbfbf" points="793,-0.5 793,-19.5 845,-19.5 845,-0.5 793,-0.5"/>
<text text-anchor="middle" x="819" y="-7.5" font-family="Helvetica,sans-Serif" font-size="10.00">cassert</text>
</g>
<!-- Node6&#45;&gt;Node7 -->
<g id="edge6" class="edge"><title>Node6&#45;&gt;Node7</title>
<path fill="none" stroke="midnightblue" d="M934.292,-56.4435C911.645,-47.5171 875.928,-33.4387 850.248,-23.3168"/>
<polygon fill="midnightblue" stroke="midnightblue" points="851.193,-19.9273 840.606,-19.5164 848.626,-26.4397 851.193,-19.9273"/>
</g>
<!-- Node8 -->
<g id="node8" class="node"><title>Node8</title>
<polygon fill="white" stroke="#bfbfbf" points="863.5,-0.5 863.5,-19.5 908.5,-19.5 908.5,-0.5 863.5,-0.5"/>
<text text-anchor="middle" x="886" y="-7.5" font-family="Helvetica,sans-Serif" font-size="10.00">cstdio</text>
</g>
<!-- Node6&#45;&gt;Node8 -->
<g id="edge7" class="edge"><title>Node6&#45;&gt;Node8</title>
<path fill="none" stroke="midnightblue" d="M944.753,-56.324C934.203,-48.1849 918.199,-35.8395 905.558,-26.0874"/>
<polygon fill="midnightblue" stroke="midnightblue" points="907.507,-23.1707 897.451,-19.8339 903.231,-28.7132 907.507,-23.1707"/>
</g>
<!-- Node9 -->
<g id="node9" class="node"><title>Node9</title>
<polygon fill="white" stroke="#bfbfbf" points="926.5,-0.5 926.5,-19.5 985.5,-19.5 985.5,-0.5 926.5,-0.5"/>
<text text-anchor="middle" x="956" y="-7.5" font-family="Helvetica,sans-Serif" font-size="10.00">iostream</text>
</g>
<!-- Node6&#45;&gt;Node9 -->
<g id="edge8" class="edge"><title>Node6&#45;&gt;Node9</title>
<path fill="none" stroke="midnightblue" d="M956,-56.083C956,-49.0059 956,-38.8611 956,-29.9865"/>
<polygon fill="midnightblue" stroke="midnightblue" points="959.5,-29.751 956,-19.7511 952.5,-29.7511 959.5,-29.751"/>
</g>
<!-- Node10 -->
<g id="node10" class="node"><title>Node10</title>
<polygon fill="white" stroke="#bfbfbf" points="1004,-0.5 1004,-19.5 1060,-19.5 1060,-0.5 1004,-0.5"/>
<text text-anchor="middle" x="1032" y="-7.5" font-family="Helvetica,sans-Serif" font-size="10.00">sstream</text>
</g>
<!-- Node6&#45;&gt;Node10 -->
<g id="edge9" class="edge"><title>Node6&#45;&gt;Node10</title>
<path fill="none" stroke="midnightblue" d="M968.211,-56.324C979.776,-48.1066 997.375,-35.6017 1011.16,-25.8069"/>
<polygon fill="midnightblue" stroke="midnightblue" points="1013.44,-28.4791 1019.57,-19.8339 1009.39,-22.7729 1013.44,-28.4791"/>
</g>
<!-- Node11 -->
<g id="node11" class="node"><title>Node11</title>
<polygon fill="white" stroke="#bfbfbf" points="1078,-0.5 1078,-19.5 1126,-19.5 1126,-0.5 1078,-0.5"/>
<text text-anchor="middle" x="1102" y="-7.5" font-family="Helvetica,sans-Serif" font-size="10.00">thread</text>
</g>
<!-- Node6&#45;&gt;Node11 -->
<g id="edge10" class="edge"><title>Node6&#45;&gt;Node11</title>
<path fill="none" stroke="midnightblue" d="M979.134,-56.4435C1003.48,-47.4381 1042.01,-33.1891 1069.42,-23.049"/>
<polygon fill="midnightblue" stroke="midnightblue" points="1070.81,-26.2681 1078.97,-19.5164 1068.38,-19.7028 1070.81,-26.2681"/>
</g>
<!-- Node14&#45;&gt;Node5 -->
<g id="edge14" class="edge"><title>Node14&#45;&gt;Node5</title>
<path fill="none" stroke="midnightblue" d="M657.795,-246.645C614.892,-241.44 563.05,-228.769 526,-199 507.982,-184.523 498.13,-159.093 493.215,-141.666"/>
<polygon fill="midnightblue" stroke="midnightblue" points="496.507,-140.404 490.663,-131.566 489.72,-142.119 496.507,-140.404"/>
</g>
<!-- Node15 -->
<g id="node15" class="node"><title>Node15</title>
<polygon fill="white" stroke="#bfbfbf" points="702,-174 702,-193 770,-193 770,-174 702,-174"/>
<text text-anchor="middle" x="736" y="-181" font-family="Helvetica,sans-Serif" font-size="10.00">Eigen/Core</text>
</g>
<!-- Node14&#45;&gt;Node15 -->
<g id="edge15" class="edge"><title>Node14&#45;&gt;Node15</title>
<path fill="none" stroke="midnightblue" d="M736,-240.734C736,-231.183 736,-215.618 736,-203.283"/>
<polygon fill="midnightblue" stroke="midnightblue" points="739.5,-203.127 736,-193.127 732.5,-203.127 739.5,-203.127"/>
</g>
<!-- Node16 -->
<g id="node16" class="node"><title>Node16</title>
<polygon fill="white" stroke="#bfbfbf" points="788,-174 788,-193 882,-193 882,-174 788,-174"/>
<text text-anchor="middle" x="835" y="-181" font-family="Helvetica,sans-Serif" font-size="10.00">Eigen/Geometry</text>
</g>
<!-- Node14&#45;&gt;Node16 -->
<g id="edge16" class="edge"><title>Node14&#45;&gt;Node16</title>
<path fill="none" stroke="midnightblue" d="M749.352,-240.734C765.754,-229.964 793.801,-211.55 813.312,-198.739"/>
<polygon fill="midnightblue" stroke="midnightblue" points="815.422,-201.542 821.86,-193.127 811.58,-195.69 815.422,-201.542"/>
</g>
<!-- Node17 -->
<g id="node17" class="node"><title>Node17</title>
<polygon fill="white" stroke="#bfbfbf" points="900,-174 900,-193 980,-193 980,-174 900,-174"/>
<text text-anchor="middle" x="940" y="-181" font-family="Helvetica,sans-Serif" font-size="10.00">Eigen/Sparse</text>
</g>
<!-- Node14&#45;&gt;Node17 -->
<g id="edge17" class="edge"><title>Node14&#45;&gt;Node17</title>
<path fill="none" stroke="midnightblue" d="M763.09,-240.869C799.159,-229.376 863.082,-209.008 903.41,-196.159"/>
<polygon fill="midnightblue" stroke="midnightblue" points="904.658,-199.434 913.123,-193.064 902.533,-192.765 904.658,-199.434"/>
</g>
<!-- Node18 -->
<g id="node18" class="node"><title>Node18</title>
<polygon fill="white" stroke="#bfbfbf" points="998.5,-174 998.5,-193 1061.5,-193 1061.5,-174 998.5,-174"/>
<text text-anchor="middle" x="1030" y="-181" font-family="Helvetica,sans-Serif" font-size="10.00">functional</text>
</g>
<!-- Node14&#45;&gt;Node18 -->
<g id="edge18" class="edge"><title>Node14&#45;&gt;Node18</title>
<path fill="none" stroke="midnightblue" d="M790.32,-240.97C841.911,-232.327 921.415,-217.594 989,-199 991.962,-198.185 995.018,-197.263 998.063,-196.288"/>
<polygon fill="midnightblue" stroke="midnightblue" points="999.27,-199.575 1007.63,-193.063 997.033,-192.942 999.27,-199.575"/>
</g>
<!-- Node19 -->
<g id="node19" class="node"><title>Node19</title>
<polygon fill="white" stroke="#bfbfbf" points="1079.5,-168.5 1079.5,-198.5 1224.5,-198.5 1224.5,-168.5 1079.5,-168.5"/>
<text text-anchor="start" x="1087.5" y="-186.5" font-family="Helvetica,sans-Serif" font-size="10.00">unsupported/Eigen/Aligned</text>
<text text-anchor="middle" x="1152" y="-175.5" font-family="Helvetica,sans-Serif" font-size="10.00">Vector3</text>
</g>
<!-- Node14&#45;&gt;Node19 -->
<g id="edge19" class="edge"><title>Node14&#45;&gt;Node19</title>
<path fill="none" stroke="midnightblue" d="M795.988,-240.965C860.92,-231.612 967.79,-215.887 1069.06,-199.297"/>
<polygon fill="midnightblue" stroke="midnightblue" points="1069.86,-202.713 1079.16,-197.637 1068.72,-195.806 1069.86,-202.713"/>
</g>
<!-- Node20 -->
<g id="node20" class="node"><title>Node20</title>
<g id="a_node20"><a xlink:href="Math_8hpp.html" target="_top" xlink:title="Core/Math/Math.hpp">
<polygon fill="white" stroke="black" points="1243,-174 1243,-193 1357,-193 1357,-174 1243,-174"/>
<text text-anchor="middle" x="1300" y="-181" font-family="Helvetica,sans-Serif" font-size="10.00">Core/Math/Math.hpp</text>
</a>
</g>
</g>
<!-- Node14&#45;&gt;Node20 -->
<g id="edge20" class="edge"><title>Node14&#45;&gt;Node20</title>
<path fill="none" stroke="midnightblue" d="M814.423,-244.354C912.842,-237.252 1086.62,-222.581 1234,-199 1240.77,-197.917 1247.89,-196.572 1254.85,-195.142"/>
<polygon fill="midnightblue" stroke="midnightblue" points="1255.81,-198.515 1264.86,-193.006 1254.35,-191.669 1255.81,-198.515"/>
</g>
<!-- Node24 -->
<g id="node24" class="node"><title>Node24</title>
<g id="a_node24"><a xlink:href="LinearAlgebra_8inl.html" target="_top" xlink:title="Core/Math/LinearAlgebra.inl">
<polygon fill="white" stroke="black" points="535.5,-174 535.5,-193 684.5,-193 684.5,-174 535.5,-174"/>
<text text-anchor="middle" x="610" y="-181" font-family="Helvetica,sans-Serif" font-size="10.00">Core/Math/LinearAlgebra.inl</text>
</a>
</g>
</g>
<!-- Node14&#45;&gt;Node24 -->
<g id="edge26" class="edge"><title>Node14&#45;&gt;Node24</title>
<path fill="none" stroke="midnightblue" d="M719.268,-240.869C697.899,-229.845 660.701,-210.655 635.719,-197.768"/>
<polygon fill="midnightblue" stroke="midnightblue" points="637.293,-194.641 626.801,-193.167 634.084,-200.862 637.293,-194.641"/>
</g>
<!-- Node20&#45;&gt;Node5 -->
<g id="edge21" class="edge"><title>Node20&#45;&gt;Node5</title>
<path fill="none" stroke="midnightblue" d="M1265.93,-173.952C1255.72,-171.68 1244.46,-169.456 1234,-168 980.596,-132.73 674.899,-125.097 548.32,-123.45"/>
<polygon fill="midnightblue" stroke="midnightblue" points="548.116,-119.948 538.074,-123.325 548.031,-126.947 548.116,-119.948"/>
</g>
<!-- Node21 -->
<g id="node21" class="node"><title>Node21</title>
<polygon fill="white" stroke="#bfbfbf" points="1249,-112.5 1249,-131.5 1311,-131.5 1311,-112.5 1249,-112.5"/>
<text text-anchor="middle" x="1280" y="-119.5" font-family="Helvetica,sans-Serif" font-size="10.00">algorithm</text>
</g>
<!-- Node20&#45;&gt;Node21 -->
<g id="edge22" class="edge"><title>Node20&#45;&gt;Node21</title>
<path fill="none" stroke="midnightblue" d="M1297.13,-173.975C1294.28,-165.492 1289.82,-152.204 1286.16,-141.322"/>
<polygon fill="midnightblue" stroke="midnightblue" points="1289.36,-139.873 1282.86,-131.509 1282.73,-142.103 1289.36,-139.873"/>
</g>
<!-- Node22 -->
<g id="node22" class="node"><title>Node22</title>
<polygon fill="white" stroke="#bfbfbf" points="1329.5,-112.5 1329.5,-131.5 1376.5,-131.5 1376.5,-112.5 1329.5,-112.5"/>
<text text-anchor="middle" x="1353" y="-119.5" font-family="Helvetica,sans-Serif" font-size="10.00">cmath</text>
</g>
<!-- Node20&#45;&gt;Node22 -->
<g id="edge23" class="edge"><title>Node20&#45;&gt;Node22</title>
<path fill="none" stroke="midnightblue" d="M1307.59,-173.975C1315.7,-164.873 1328.73,-150.241 1338.76,-138.983"/>
<polygon fill="midnightblue" stroke="midnightblue" points="1341.38,-141.304 1345.42,-131.509 1336.16,-136.648 1341.38,-141.304"/>
</g>
<!-- Node23 -->
<g id="node23" class="node"><title>Node23</title>
<g id="a_node23"><a xlink:href="Math_8inl.html" target="_top" xlink:title="Core/Math/Math.inl">
<polygon fill="white" stroke="black" points="1124.5,-112.5 1124.5,-131.5 1231.5,-131.5 1231.5,-112.5 1124.5,-112.5"/>
<text text-anchor="middle" x="1178" y="-119.5" font-family="Helvetica,sans-Serif" font-size="10.00">Core/Math/Math.inl</text>
</a>
</g>
</g>
<!-- Node20&#45;&gt;Node23 -->
<g id="edge24" class="edge"><title>Node20&#45;&gt;Node23</title>
<path fill="none" stroke="midnightblue" d="M1277.62,-173.975C1255.27,-164.122 1221.5,-147.788 1199.48,-136.27"/>
<polygon fill="midnightblue" stroke="midnightblue" points="1201.02,-133.125 1190.55,-131.509 1197.73,-139.302 1201.02,-133.125"/>
</g>
<!-- Node23&#45;&gt;Node20 -->
<g id="edge25" class="edge"><title>Node23&#45;&gt;Node20</title>
<path fill="none" stroke="midnightblue" d="M1200.34,-131.509C1222.68,-141.355 1256.45,-157.688 1278.49,-169.212"/>
<polygon fill="midnightblue" stroke="midnightblue" points="1276.95,-172.36 1287.42,-173.975 1280.24,-166.182 1276.95,-172.36"/>
</g>
<!-- Node25&#45;&gt;Node5 -->
<g id="edge35" class="edge"><title>Node25&#45;&gt;Node5</title>
<path fill="none" stroke="midnightblue" d="M249.915,-302.367C236.321,-278.045 202.384,-208.122 236,-168 260.254,-139.051 363.089,-128.71 429.955,-125.027"/>
<polygon fill="midnightblue" stroke="midnightblue" points="430.147,-128.522 439.953,-124.511 429.786,-121.531 430.147,-128.522"/>
</g>
<!-- Node25&#45;&gt;Node14 -->
<g id="edge34" class="edge"><title>Node25&#45;&gt;Node14</title>
<path fill="none" stroke="midnightblue" d="M323.916,-302.475C412.05,-291.573 564.331,-272.736 657.043,-261.267"/>
<polygon fill="midnightblue" stroke="midnightblue" points="657.718,-264.71 667.212,-260.009 656.858,-257.763 657.718,-264.71"/>
</g>
<!-- Node26 -->
<g id="node26" class="node"><title>Node26</title>
<g id="a_node26"><a xlink:href="Index_8hpp.html" target="_top" xlink:title="Core/Index/Index.hpp">
<polygon fill="white" stroke="black" points="71.5,-241 71.5,-260 188.5,-260 188.5,-241 71.5,-241"/>
<text text-anchor="middle" x="130" y="-248" font-family="Helvetica,sans-Serif" font-size="10.00">Core/Index/Index.hpp</text>
</a>
</g>
</g>
<!-- Node25&#45;&gt;Node26 -->
<g id="edge31" class="edge"><title>Node25&#45;&gt;Node26</title>
<path fill="none" stroke="midnightblue" d="M237.091,-302.475C216.113,-292.49 181.15,-275.848 156.907,-264.307"/>
<polygon fill="midnightblue" stroke="midnightblue" points="158.41,-261.147 147.876,-260.009 155.401,-267.467 158.41,-261.147"/>
</g>
<!-- Node27 -->
<g id="node27" class="node"><title>Node27</title>
<polygon fill="white" stroke="#bfbfbf" points="128,-174 128,-193 170,-193 170,-174 128,-174"/>
<text text-anchor="middle" x="149" y="-181" font-family="Helvetica,sans-Serif" font-size="10.00">limits</text>
</g>
<!-- Node26&#45;&gt;Node27 -->
<g id="edge32" class="edge"><title>Node26&#45;&gt;Node27</title>
<path fill="none" stroke="midnightblue" d="M132.562,-240.734C135.383,-231.085 139.997,-215.3 143.62,-202.906"/>
<polygon fill="midnightblue" stroke="midnightblue" points="147.032,-203.708 146.478,-193.127 140.313,-201.744 147.032,-203.708"/>
</g>
<!-- Node28 -->
<g id="node28" class="node"><title>Node28</title>
<g id="a_node28"><a xlink:href="Index_8inl.html" target="_top" xlink:title="Core/Index/Index.inl">
<polygon fill="white" stroke="black" points="0,-174 0,-193 110,-193 110,-174 0,-174"/>
<text text-anchor="middle" x="55" y="-181" font-family="Helvetica,sans-Serif" font-size="10.00">Core/Index/Index.inl</text>
</a>
</g>
</g>
<!-- Node26&#45;&gt;Node28 -->
<g id="edge33" class="edge"><title>Node26&#45;&gt;Node28</title>
<path fill="none" stroke="midnightblue" d="M119.885,-240.734C107.852,-230.305 87.5487,-212.709 72.8537,-199.973"/>
<polygon fill="midnightblue" stroke="midnightblue" points="74.8038,-197.032 64.9546,-193.127 70.2192,-202.322 74.8038,-197.032"/>
</g>
<!-- Node29&#45;&gt;Node6 -->
<g id="edge37" class="edge"><title>Node29&#45;&gt;Node6</title>
<path fill="none" stroke="midnightblue" d="M1448.67,-363.903C1435.21,-344.758 1405,-296.732 1405,-251.5 1405,-251.5 1405,-251.5 1405,-182.5 1405,-150.049 1410.7,-133.052 1386,-112 1359.25,-89.1936 1141.36,-75.6674 1026.42,-70.0527"/>
<polygon fill="midnightblue" stroke="midnightblue" points="1026.46,-66.5506 1016.3,-69.5659 1026.12,-73.5425 1026.46,-66.5506"/>
</g>
<!-- Node30 -->
<g id="node30" class="node"><title>Node30</title>
<g id="a_node30"><a xlink:href="CircularIndex_8inl.html" target="_top" xlink:title="Core/Index/CircularIndex.inl">
<polygon fill="white" stroke="black" points="1433,-302.5 1433,-321.5 1579,-321.5 1579,-302.5 1433,-302.5"/>
<text text-anchor="middle" x="1506" y="-309.5" font-family="Helvetica,sans-Serif" font-size="10.00">Core/Index/CircularIndex.inl</text>
</a>
</g>
</g>
<!-- Node29&#45;&gt;Node30 -->
<g id="edge38" class="edge"><title>Node29&#45;&gt;Node30</title>
<path fill="none" stroke="midnightblue" d="M1457.41,-363.975C1463.28,-354.785 1475.61,-339.956 1486.55,-328.656"/>
<polygon fill="midnightblue" stroke="midnightblue" points="1489.14,-331.02 1493.81,-321.509 1484.23,-326.034 1489.14,-331.02"/>
</g>
<!-- Node30&#45;&gt;Node29 -->
<g id="edge39" class="edge"><title>Node30&#45;&gt;Node29</title>
<path fill="none" stroke="midnightblue" d="M1503.6,-321.509C1497.74,-330.693 1485.41,-345.52 1474.46,-356.825"/>
<polygon fill="midnightblue" stroke="midnightblue" points="1471.87,-354.463 1467.21,-363.975 1476.79,-359.449 1471.87,-354.463"/>
</g>
<!-- Node31&#45;&gt;Node14 -->
<g id="edge41" class="edge"><title>Node31&#45;&gt;Node14</title>
<path fill="none" stroke="midnightblue" d="M736,-358.145C736,-336.203 736,-294.327 736,-270.091"/>
<polygon fill="midnightblue" stroke="midnightblue" points="739.5,-270.052 736,-260.052 732.5,-270.052 739.5,-270.052"/>
</g>
</g>
</svg>
