<?xml version="1.0" encoding="UTF-8" standalone="no"?>
<!DOCTYPE svg PUBLIC "-//W3C//DTD SVG 1.1//EN"
 "http://www.w3.org/Graphics/SVG/1.1/DTD/svg11.dtd">
<!-- Generated by graphviz version 2.38.0 (20140413.2041)
 -->
<!-- Title: /home/travis/build/STORM&#45;IRIT/Radium&#45;Engine/src/IO/AssimpLoader/AssimpAnimationDataLoader.hpp Pages: 1 -->
<svg width="409pt" height="240pt"
 viewBox="0.00 0.00 408.50 240.00" xmlns="http://www.w3.org/2000/svg" xmlns:xlink="http://www.w3.org/1999/xlink">
<g id="graph0" class="graph" transform="scale(1 1) rotate(0) translate(4 236)">
<title>/home/travis/build/STORM&#45;IRIT/Radium&#45;Engine/src/IO/AssimpLoader/AssimpAnimationDataLoader.hpp</title>
<polygon fill="white" stroke="none" points="-4,4 -4,-236 404.5,-236 404.5,4 -4,4"/>
<!-- Node1 -->
<g id="node1" class="node"><title>Node1</title>
<polygon fill="#bfbfbf" stroke="black" points="108,-179.5 108,-231.5 313,-231.5 313,-179.5 108,-179.5"/>
<text text-anchor="start" x="116" y="-219.5" font-family="Helvetica,sans-Serif" font-size="10.00">/home/travis/build</text>
<text text-anchor="start" x="116" y="-208.5" font-family="Helvetica,sans-Serif" font-size="10.00">/STORM&#45;IRIT/Radium&#45;Engine</text>
<text text-anchor="start" x="116" y="-197.5" font-family="Helvetica,sans-Serif" font-size="10.00">/src/IO/AssimpLoader/AssimpAnimation</text>
<text text-anchor="middle" x="210.5" y="-186.5" font-family="Helvetica,sans-Serif" font-size="10.00">DataLoader.hpp</text>
</g>
<!-- Node2 -->
<g id="node2" class="node"><title>Node2</title>
<g id="a_node2"><a xlink:href="DataLoader_8hpp.html" target="_top" xlink:title="Core/File/DataLoader.hpp">
<polygon fill="white" stroke="black" points="20,-118 20,-137 157,-137 157,-118 20,-118"/>
<text text-anchor="middle" x="88.5" y="-125" font-family="Helvetica,sans-Serif" font-size="10.00">Core/File/DataLoader.hpp</text>
</a>
</g>
</g>
<!-- Node1&#45;&gt;Node2 -->
<g id="edge1" class="edge"><title>Node1&#45;&gt;Node2</title>
<path fill="none" stroke="midnightblue" d="M170.215,-179.404C150.604,-167.188 127.752,-152.952 111.209,-142.647"/>
<polygon fill="midnightblue" stroke="midnightblue" points="112.608,-139.395 102.27,-137.078 108.907,-145.336 112.608,-139.395"/>
</g>
<!-- Node5 -->
<g id="node5" class="node"><title>Node5</title>
<g id="a_node5"><a xlink:href="AnimationTime_8hpp.html" target="_top" xlink:title="Core/File/KeyFrame\l/AnimationTime.hpp">
<polygon fill="white" stroke="black" points="264,-112.5 264,-142.5 377,-142.5 377,-112.5 264,-112.5"/>
<text text-anchor="start" x="272" y="-130.5" font-family="Helvetica,sans-Serif" font-size="10.00">Core/File/KeyFrame</text>
<text text-anchor="middle" x="320.5" y="-119.5" font-family="Helvetica,sans-Serif" font-size="10.00">/AnimationTime.hpp</text>
</a>
</g>
</g>
<!-- Node1&#45;&gt;Node5 -->
<g id="edge4" class="edge"><title>Node1&#45;&gt;Node5</title>
<path fill="none" stroke="midnightblue" d="M246.823,-179.404C261.299,-169.402 277.734,-158.047 291.403,-148.603"/>
<polygon fill="midnightblue" stroke="midnightblue" points="293.7,-151.27 299.938,-142.707 289.721,-145.511 293.7,-151.27"/>
</g>
<!-- Node14 -->
<g id="node14" class="node"><title>Node14</title>
<g id="a_node14"><a xlink:href="RaIO_8hpp.html" target="_top" xlink:title="IO/RaIO.hpp">
<polygon fill="white" stroke="black" points="175,-118 175,-137 246,-137 246,-118 175,-118"/>
<text text-anchor="middle" x="210.5" y="-125" font-family="Helvetica,sans-Serif" font-size="10.00">IO/RaIO.hpp</text>
</a>
</g>
</g>
<!-- Node1&#45;&gt;Node14 -->
<g id="edge13" class="edge"><title>Node1&#45;&gt;Node14</title>
<path fill="none" stroke="midnightblue" d="M210.5,-179.193C210.5,-168.765 210.5,-156.896 210.5,-147.266"/>
<polygon fill="midnightblue" stroke="midnightblue" points="214,-147.209 210.5,-137.209 207,-147.209 214,-147.209"/>
</g>
<!-- Node3 -->
<g id="node3" class="node"><title>Node3</title>
<polygon fill="white" stroke="#bfbfbf" points="0,-56.5 0,-75.5 57,-75.5 57,-56.5 0,-56.5"/>
<text text-anchor="middle" x="28.5" y="-63.5" font-family="Helvetica,sans-Serif" font-size="10.00">memory</text>
</g>
<!-- Node2&#45;&gt;Node3 -->
<g id="edge2" class="edge"><title>Node2&#45;&gt;Node3</title>
<path fill="none" stroke="midnightblue" d="M79.9035,-117.975C70.6361,-108.785 55.6828,-93.9563 44.2876,-82.656"/>
<polygon fill="midnightblue" stroke="midnightblue" points="46.6457,-80.0653 37.0806,-75.5091 41.7167,-85.0358 46.6457,-80.0653"/>
</g>
<!-- Node4 -->
<g id="node4" class="node"><title>Node4</title>
<polygon fill="white" stroke="#bfbfbf" points="75,-56.5 75,-75.5 122,-75.5 122,-56.5 75,-56.5"/>
<text text-anchor="middle" x="98.5" y="-63.5" font-family="Helvetica,sans-Serif" font-size="10.00">vector</text>
</g>
<!-- Node2&#45;&gt;Node4 -->
<g id="edge3" class="edge"><title>Node2&#45;&gt;Node4</title>
<path fill="none" stroke="midnightblue" d="M89.9328,-117.975C91.3437,-109.58 93.5453,-96.4806 95.3633,-85.6631"/>
<polygon fill="midnightblue" stroke="midnightblue" points="98.864,-85.9509 97.0699,-75.5091 91.9608,-84.7906 98.864,-85.9509"/>
</g>
<!-- Node6 -->
<g id="node6" class="node"><title>Node6</title>
<g id="a_node6"><a xlink:href="CoreMacros_8hpp.html" target="_top" xlink:title="Core/CoreMacros.hpp">
<polygon fill="white" stroke="black" points="152.5,-56.5 152.5,-75.5 272.5,-75.5 272.5,-56.5 152.5,-56.5"/>
<text text-anchor="middle" x="212.5" y="-63.5" font-family="Helvetica,sans-Serif" font-size="10.00">Core/CoreMacros.hpp</text>
</a>
</g>
</g>
<!-- Node5&#45;&gt;Node6 -->
<g id="edge5" class="edge"><title>Node5&#45;&gt;Node6</title>
<path fill="none" stroke="midnightblue" d="M294.906,-112.399C277.432,-102.773 254.412,-90.0902 237.144,-80.5772"/>
<polygon fill="midnightblue" stroke="midnightblue" points="238.663,-77.4177 228.215,-75.6578 235.285,-83.5488 238.663,-77.4177"/>
</g>
<!-- Node12 -->
<g id="node12" class="node"><title>Node12</title>
<polygon fill="white" stroke="#bfbfbf" points="293,-56.5 293,-75.5 340,-75.5 340,-56.5 293,-56.5"/>
<text text-anchor="middle" x="316.5" y="-63.5" font-family="Helvetica,sans-Serif" font-size="10.00">cmath</text>
</g>
<!-- Node5&#45;&gt;Node12 -->
<g id="edge11" class="edge"><title>Node5&#45;&gt;Node12</title>
<path fill="none" stroke="midnightblue" d="M319.552,-112.399C319.019,-104.466 318.346,-94.458 317.768,-85.8583"/>
<polygon fill="midnightblue" stroke="midnightblue" points="321.245,-85.4005 317.082,-75.6578 314.261,-85.8701 321.245,-85.4005"/>
</g>
<!-- Node13 -->
<g id="node13" class="node"><title>Node13</title>
<polygon fill="white" stroke="#bfbfbf" points="358.5,-56.5 358.5,-75.5 400.5,-75.5 400.5,-56.5 358.5,-56.5"/>
<text text-anchor="middle" x="379.5" y="-63.5" font-family="Helvetica,sans-Serif" font-size="10.00">limits</text>
</g>
<!-- Node5&#45;&gt;Node13 -->
<g id="edge12" class="edge"><title>Node5&#45;&gt;Node13</title>
<path fill="none" stroke="midnightblue" d="M334.482,-112.399C343.232,-103.575 354.529,-92.1827 363.617,-83.0178"/>
<polygon fill="midnightblue" stroke="midnightblue" points="366.359,-85.2231 370.915,-75.6578 361.388,-80.2942 366.359,-85.2231"/>
</g>
<!-- Node7 -->
<g id="node7" class="node"><title>Node7</title>
<polygon fill="white" stroke="#bfbfbf" points="49.5,-0.5 49.5,-19.5 101.5,-19.5 101.5,-0.5 49.5,-0.5"/>
<text text-anchor="middle" x="75.5" y="-7.5" font-family="Helvetica,sans-Serif" font-size="10.00">cassert</text>
</g>
<!-- Node6&#45;&gt;Node7 -->
<g id="edge6" class="edge"><title>Node6&#45;&gt;Node7</title>
<path fill="none" stroke="midnightblue" d="M190.792,-56.4435C168.145,-47.5171 132.428,-33.4387 106.748,-23.3168"/>
<polygon fill="midnightblue" stroke="midnightblue" points="107.693,-19.9273 97.1065,-19.5164 105.126,-26.4397 107.693,-19.9273"/>
</g>
<!-- Node8 -->
<g id="node8" class="node"><title>Node8</title>
<polygon fill="white" stroke="#bfbfbf" points="120,-0.5 120,-19.5 165,-19.5 165,-0.5 120,-0.5"/>
<text text-anchor="middle" x="142.5" y="-7.5" font-family="Helvetica,sans-Serif" font-size="10.00">cstdio</text>
</g>
<!-- Node6&#45;&gt;Node8 -->
<g id="edge7" class="edge"><title>Node6&#45;&gt;Node8</title>
<path fill="none" stroke="midnightblue" d="M201.253,-56.324C190.703,-48.1849 174.699,-35.8395 162.058,-26.0874"/>
<polygon fill="midnightblue" stroke="midnightblue" points="164.007,-23.1707 153.951,-19.8339 159.731,-28.7132 164.007,-23.1707"/>
</g>
<!-- Node9 -->
<g id="node9" class="node"><title>Node9</title>
<polygon fill="white" stroke="#bfbfbf" points="183,-0.5 183,-19.5 242,-19.5 242,-0.5 183,-0.5"/>
<text text-anchor="middle" x="212.5" y="-7.5" font-family="Helvetica,sans-Serif" font-size="10.00">iostream</text>
</g>
<!-- Node6&#45;&gt;Node9 -->
<g id="edge8" class="edge"><title>Node6&#45;&gt;Node9</title>
<path fill="none" stroke="midnightblue" d="M212.5,-56.083C212.5,-49.0059 212.5,-38.8611 212.5,-29.9865"/>
<polygon fill="midnightblue" stroke="midnightblue" points="216,-29.751 212.5,-19.7511 209,-29.7511 216,-29.751"/>
</g>
<!-- Node10 -->
<g id="node10" class="node"><title>Node10</title>
<polygon fill="white" stroke="#bfbfbf" points="260.5,-0.5 260.5,-19.5 316.5,-19.5 316.5,-0.5 260.5,-0.5"/>
<text text-anchor="middle" x="288.5" y="-7.5" font-family="Helvetica,sans-Serif" font-size="10.00">sstream</text>
</g>
<!-- Node6&#45;&gt;Node10 -->
<g id="edge9" class="edge"><title>Node6&#45;&gt;Node10</title>
<path fill="none" stroke="midnightblue" d="M224.711,-56.324C236.276,-48.1066 253.875,-35.6017 267.661,-25.8069"/>
<polygon fill="midnightblue" stroke="midnightblue" points="269.943,-28.4791 276.067,-19.8339 265.888,-22.7729 269.943,-28.4791"/>
</g>
<!-- Node11 -->
<g id="node11" class="node"><title>Node11</title>
<polygon fill="white" stroke="#bfbfbf" points="334.5,-0.5 334.5,-19.5 382.5,-19.5 382.5,-0.5 334.5,-0.5"/>
<text text-anchor="middle" x="358.5" y="-7.5" font-family="Helvetica,sans-Serif" font-size="10.00">thread</text>
</g>
<!-- Node6&#45;&gt;Node11 -->
<g id="edge10" class="edge"><title>Node6&#45;&gt;Node11</title>
<path fill="none" stroke="midnightblue" d="M235.634,-56.4435C259.982,-47.4381 298.507,-33.1891 325.923,-23.049"/>
<polygon fill="midnightblue" stroke="midnightblue" points="327.309,-26.2681 335.474,-19.5164 324.881,-19.7028 327.309,-26.2681"/>
</g>
<!-- Node14&#45;&gt;Node6 -->
<g id="edge14" class="edge"><title>Node14&#45;&gt;Node6</title>
<path fill="none" stroke="midnightblue" d="M210.787,-117.975C211.069,-109.58 211.509,-96.4806 211.873,-85.6631"/>
<polygon fill="midnightblue" stroke="midnightblue" points="215.376,-85.6211 212.214,-75.5091 208.38,-85.3858 215.376,-85.6211"/>
</g>
</g>
</svg>
