<?xml version="1.0" encoding="UTF-8" standalone="no"?>
<!DOCTYPE svg PUBLIC "-//W3C//DTD SVG 1.1//EN"
 "http://www.w3.org/Graphics/SVG/1.1/DTD/svg11.dtd">
<!-- Generated by graphviz version 2.38.0 (20140413.2041)
 -->
<!-- Title: /home/travis/build/STORM&#45;IRIT/Radium&#45;Engine/src/IO/AssimpLoader/AssimpCameraDataLoader.cpp Pages: 1 -->
<svg width="1900pt" height="475pt"
 viewBox="0.00 0.00 1900.06 475.00" xmlns="http://www.w3.org/2000/svg" xmlns:xlink="http://www.w3.org/1999/xlink">
<g id="graph0" class="graph" transform="scale(1 1) rotate(0) translate(4 471)">
<title>/home/travis/build/STORM&#45;IRIT/Radium&#45;Engine/src/IO/AssimpLoader/AssimpCameraDataLoader.cpp</title>
<polygon fill="white" stroke="none" points="-4,4 -4,-471 1896.06,-471 1896.06,4 -4,4"/>
<!-- Node1 -->
<g id="node1" class="node"><title>Node1</title>
<polygon fill="#bfbfbf" stroke="black" points="1211.06,-414.5 1211.06,-466.5 1405.06,-466.5 1405.06,-414.5 1211.06,-414.5"/>
<text text-anchor="start" x="1219.06" y="-454.5" font-family="Helvetica,sans-Serif" font-size="10.00">/home/travis/build</text>
<text text-anchor="start" x="1219.06" y="-443.5" font-family="Helvetica,sans-Serif" font-size="10.00">/STORM&#45;IRIT/Radium&#45;Engine</text>
<text text-anchor="start" x="1219.06" y="-432.5" font-family="Helvetica,sans-Serif" font-size="10.00">/src/IO/AssimpLoader/AssimpCamera</text>
<text text-anchor="middle" x="1308.06" y="-421.5" font-family="Helvetica,sans-Serif" font-size="10.00">DataLoader.cpp</text>
</g>
<!-- Node2 -->
<g id="node2" class="node"><title>Node2</title>
<g id="a_node2"><a xlink:href="AssimpCameraDataLoader_8hpp.html" target="_top" xlink:title="IO/AssimpLoader/AssimpCamera\lDataLoader.hpp">
<polygon fill="white" stroke="black" points="1718.06,-291.5 1718.06,-321.5 1892.06,-321.5 1892.06,-291.5 1718.06,-291.5"/>
<text text-anchor="start" x="1726.06" y="-309.5" font-family="Helvetica,sans-Serif" font-size="10.00">IO/AssimpLoader/AssimpCamera</text>
<text text-anchor="middle" x="1805.06" y="-298.5" font-family="Helvetica,sans-Serif" font-size="10.00">DataLoader.hpp</text>
</a>
</g>
</g>
<!-- Node1&#45;&gt;Node2 -->
<g id="edge1" class="edge"><title>Node1&#45;&gt;Node2</title>
<path fill="none" stroke="midnightblue" d="M1351.33,-414.492C1391.73,-391.22 1446.62,-359.846 1452.06,-358 1558.19,-321.992 1592.96,-337.656 1707.71,-322.138"/>
<polygon fill="midnightblue" stroke="midnightblue" points="1708.53,-325.557 1717.95,-320.7 1707.56,-318.625 1708.53,-325.557"/>
</g>
<!-- Node26 -->
<g id="node26" class="node"><title>Node26</title>
<polygon fill="white" stroke="#bfbfbf" points="1461.06,-358.5 1461.06,-377.5 1553.06,-377.5 1553.06,-358.5 1461.06,-358.5"/>
<text text-anchor="middle" x="1507.06" y="-365.5" font-family="Helvetica,sans-Serif" font-size="10.00">assimp/scene.h</text>
</g>
<!-- Node1&#45;&gt;Node26 -->
<g id="edge28" class="edge"><title>Node1&#45;&gt;Node26</title>
<path fill="none" stroke="midnightblue" d="M1378.78,-414.446C1410.93,-403.056 1447.47,-390.111 1473.31,-380.959"/>
<polygon fill="midnightblue" stroke="midnightblue" points="1474.74,-384.165 1482.99,-377.527 1472.4,-377.567 1474.74,-384.165"/>
</g>
<!-- Node27 -->
<g id="node27" class="node"><title>Node27</title>
<g id="a_node27"><a xlink:href="CameraData_8hpp.html" target="_top" xlink:title="Core/File/CameraData.hpp">
<polygon fill="white" stroke="black" points="486.563,-358.5 486.563,-377.5 629.563,-377.5 629.563,-358.5 486.563,-358.5"/>
<text text-anchor="middle" x="558.063" y="-365.5" font-family="Helvetica,sans-Serif" font-size="10.00">Core/File/CameraData.hpp</text>
</a>
</g>
</g>
<!-- Node1&#45;&gt;Node27 -->
<g id="edge29" class="edge"><title>Node1&#45;&gt;Node27</title>
<path fill="none" stroke="midnightblue" d="M1210.78,-430.356C1061.62,-416.335 779.096,-389.777 639.844,-376.687"/>
<polygon fill="midnightblue" stroke="midnightblue" points="639.947,-373.182 629.663,-375.73 639.292,-380.151 639.947,-373.182"/>
</g>
<!-- Node34 -->
<g id="node34" class="node"><title>Node34</title>
<g id="a_node34"><a xlink:href="Log_8hpp.html" target="_top" xlink:title="Core/Log/Log.hpp">
<polygon fill="white" stroke="black" points="93.5628,-235.5 93.5628,-254.5 194.563,-254.5 194.563,-235.5 93.5628,-235.5"/>
<text text-anchor="middle" x="144.063" y="-242.5" font-family="Helvetica,sans-Serif" font-size="10.00">Core/Log/Log.hpp</text>
</a>
</g>
</g>
<!-- Node1&#45;&gt;Node34 -->
<g id="edge58" class="edge"><title>Node1&#45;&gt;Node34</title>
<path fill="none" stroke="midnightblue" d="M1211.05,-440.063C1054.88,-439.244 738.766,-430.454 477.063,-378 356.229,-353.781 222.93,-287.962 168.869,-259.459"/>
<polygon fill="midnightblue" stroke="midnightblue" points="170.19,-256.197 159.717,-254.589 166.901,-262.376 170.19,-256.197"/>
</g>
<!-- Node38 -->
<g id="node38" class="node"><title>Node38</title>
<g id="a_node38"><a xlink:href="AssimpWrapper_8hpp.html" target="_top" xlink:title="IO/AssimpLoader/AssimpWrapper.hpp">
<polygon fill="white" stroke="black" points="1210.56,-358.5 1210.56,-377.5 1405.56,-377.5 1405.56,-358.5 1210.56,-358.5"/>
<text text-anchor="middle" x="1308.06" y="-365.5" font-family="Helvetica,sans-Serif" font-size="10.00">IO/AssimpLoader/AssimpWrapper.hpp</text>
</a>
</g>
</g>
<!-- Node1&#45;&gt;Node38 -->
<g id="edge59" class="edge"><title>Node1&#45;&gt;Node38</title>
<path fill="none" stroke="midnightblue" d="M1308.06,-414.446C1308.06,-405.73 1308.06,-396.104 1308.06,-387.964"/>
<polygon fill="midnightblue" stroke="midnightblue" points="1311.56,-387.695 1308.06,-377.695 1304.56,-387.696 1311.56,-387.695"/>
</g>
<!-- Node3 -->
<g id="node3" class="node"><title>Node3</title>
<g id="a_node3"><a xlink:href="DataLoader_8hpp.html" target="_top" xlink:title="Core/File/DataLoader.hpp">
<polygon fill="white" stroke="black" points="1590.56,-235.5 1590.56,-254.5 1727.56,-254.5 1727.56,-235.5 1590.56,-235.5"/>
<text text-anchor="middle" x="1659.06" y="-242.5" font-family="Helvetica,sans-Serif" font-size="10.00">Core/File/DataLoader.hpp</text>
</a>
</g>
</g>
<!-- Node2&#45;&gt;Node3 -->
<g id="edge2" class="edge"><title>Node2&#45;&gt;Node3</title>
<path fill="none" stroke="midnightblue" d="M1770.46,-291.399C1745.97,-281.416 1713.41,-268.147 1689.82,-258.534"/>
<polygon fill="midnightblue" stroke="midnightblue" points="1690.89,-255.191 1680.31,-254.658 1688.25,-261.673 1690.89,-255.191"/>
</g>
<!-- Node6 -->
<g id="node6" class="node"><title>Node6</title>
<g id="a_node6"><a xlink:href="LinearAlgebra_8hpp.html" target="_top" xlink:title="Core/Math/LinearAlgebra.hpp">
<polygon fill="white" stroke="black" points="977.063,-235.5 977.063,-254.5 1133.06,-254.5 1133.06,-235.5 977.063,-235.5"/>
<text text-anchor="middle" x="1055.06" y="-242.5" font-family="Helvetica,sans-Serif" font-size="10.00">Core/Math/LinearAlgebra.hpp</text>
</a>
</g>
</g>
<!-- Node2&#45;&gt;Node6 -->
<g id="edge5" class="edge"><title>Node2&#45;&gt;Node6</title>
<path fill="none" stroke="midnightblue" d="M1717.98,-292.032C1714.97,-291.667 1711.99,-291.322 1709.06,-291 1507.42,-268.871 1269.53,-255.743 1143.62,-249.808"/>
<polygon fill="midnightblue" stroke="midnightblue" points="1143.42,-246.295 1133.27,-249.325 1143.09,-253.288 1143.42,-246.295"/>
</g>
<!-- Node24 -->
<g id="node24" class="node"><title>Node24</title>
<g id="a_node24"><a xlink:href="RaIO_8hpp.html" target="_top" xlink:title="IO/RaIO.hpp">
<polygon fill="white" stroke="black" points="1769.56,-235.5 1769.56,-254.5 1840.56,-254.5 1840.56,-235.5 1769.56,-235.5"/>
<text text-anchor="middle" x="1805.06" y="-242.5" font-family="Helvetica,sans-Serif" font-size="10.00">IO/RaIO.hpp</text>
</a>
</g>
</g>
<!-- Node2&#45;&gt;Node24 -->
<g id="edge25" class="edge"><title>Node2&#45;&gt;Node24</title>
<path fill="none" stroke="midnightblue" d="M1805.06,-291.399C1805.06,-283.466 1805.06,-273.458 1805.06,-264.858"/>
<polygon fill="midnightblue" stroke="midnightblue" points="1808.56,-264.658 1805.06,-254.658 1801.56,-264.658 1808.56,-264.658"/>
</g>
<!-- Node25 -->
<g id="node25" class="node"><title>Node25</title>
<polygon fill="white" stroke="#bfbfbf" points="1859.06,-235.5 1859.06,-254.5 1891.06,-254.5 1891.06,-235.5 1859.06,-235.5"/>
<text text-anchor="middle" x="1875.06" y="-242.5" font-family="Helvetica,sans-Serif" font-size="10.00">set</text>
</g>
<!-- Node2&#45;&gt;Node25 -->
<g id="edge27" class="edge"><title>Node2&#45;&gt;Node25</title>
<path fill="none" stroke="midnightblue" d="M1821.65,-291.399C1832.35,-282.308 1846.25,-270.49 1857.19,-261.191"/>
<polygon fill="midnightblue" stroke="midnightblue" points="1859.52,-263.801 1864.88,-254.658 1854.99,-258.468 1859.52,-263.801"/>
</g>
<!-- Node4 -->
<g id="node4" class="node"><title>Node4</title>
<polygon fill="white" stroke="#bfbfbf" points="1573.56,-174 1573.56,-193 1630.56,-193 1630.56,-174 1573.56,-174"/>
<text text-anchor="middle" x="1602.06" y="-181" font-family="Helvetica,sans-Serif" font-size="10.00">memory</text>
</g>
<!-- Node3&#45;&gt;Node4 -->
<g id="edge3" class="edge"><title>Node3&#45;&gt;Node4</title>
<path fill="none" stroke="midnightblue" d="M1650.9,-235.475C1642.18,-226.373 1628.16,-211.741 1617.37,-200.483"/>
<polygon fill="midnightblue" stroke="midnightblue" points="1619.66,-197.809 1610.21,-193.009 1614.6,-202.651 1619.66,-197.809"/>
</g>
<!-- Node5 -->
<g id="node5" class="node"><title>Node5</title>
<polygon fill="white" stroke="#bfbfbf" points="648.563,-112.5 648.563,-131.5 695.563,-131.5 695.563,-112.5 648.563,-112.5"/>
<text text-anchor="middle" x="672.063" y="-119.5" font-family="Helvetica,sans-Serif" font-size="10.00">vector</text>
</g>
<!-- Node3&#45;&gt;Node5 -->
<g id="edge4" class="edge"><title>Node3&#45;&gt;Node5</title>
<path fill="none" stroke="midnightblue" d="M1659.77,-235.199C1660.53,-218.948 1659.49,-184.396 1639.06,-168 1599.13,-135.951 768.924,-137.934 718.063,-132 714.085,-131.536 709.936,-130.918 705.829,-130.221"/>
<polygon fill="midnightblue" stroke="midnightblue" points="706.297,-126.749 695.828,-128.375 705.026,-133.632 706.297,-126.749"/>
</g>
<!-- Node7 -->
<g id="node7" class="node"><title>Node7</title>
<g id="a_node7"><a xlink:href="RaCore_8hpp.html" target="_top" xlink:title="Core/RaCore.hpp">
<polygon fill="white" stroke="black" points="490.063,-112.5 490.063,-131.5 588.063,-131.5 588.063,-112.5 490.063,-112.5"/>
<text text-anchor="middle" x="539.063" y="-119.5" font-family="Helvetica,sans-Serif" font-size="10.00">Core/RaCore.hpp</text>
</a>
</g>
</g>
<!-- Node6&#45;&gt;Node7 -->
<g id="edge6" class="edge"><title>Node6&#45;&gt;Node7</title>
<path fill="none" stroke="midnightblue" d="M976.919,-242.086C901.905,-238.461 786.142,-228.141 690.063,-199 641.364,-184.23 589.359,-154.601 560.87,-137.018"/>
<polygon fill="midnightblue" stroke="midnightblue" points="562.481,-133.897 552.148,-131.556 558.766,-139.83 562.481,-133.897"/>
</g>
<!-- Node14 -->
<g id="node14" class="node"><title>Node14</title>
<polygon fill="white" stroke="#bfbfbf" points="1196.06,-174 1196.06,-193 1264.06,-193 1264.06,-174 1196.06,-174"/>
<text text-anchor="middle" x="1230.06" y="-181" font-family="Helvetica,sans-Serif" font-size="10.00">Eigen/Core</text>
</g>
<!-- Node6&#45;&gt;Node14 -->
<g id="edge13" class="edge"><title>Node6&#45;&gt;Node14</title>
<path fill="none" stroke="midnightblue" d="M1080.14,-235.475C1110.41,-225.18 1161.5,-207.81 1195.5,-196.25"/>
<polygon fill="midnightblue" stroke="midnightblue" points="1196.7,-199.542 1205.04,-193.009 1194.44,-192.914 1196.7,-199.542"/>
</g>
<!-- Node15 -->
<g id="node15" class="node"><title>Node15</title>
<polygon fill="white" stroke="#bfbfbf" points="1282.06,-174 1282.06,-193 1376.06,-193 1376.06,-174 1282.06,-174"/>
<text text-anchor="middle" x="1329.06" y="-181" font-family="Helvetica,sans-Serif" font-size="10.00">Eigen/Geometry</text>
</g>
<!-- Node6&#45;&gt;Node15 -->
<g id="edge14" class="edge"><title>Node6&#45;&gt;Node15</title>
<path fill="none" stroke="midnightblue" d="M1099.88,-235.427C1144.05,-226.817 1213.4,-212.873 1273.06,-199 1277.71,-197.92 1282.56,-196.741 1287.38,-195.538"/>
<polygon fill="midnightblue" stroke="midnightblue" points="1288.32,-198.91 1297.15,-193.057 1286.59,-192.126 1288.32,-198.91"/>
</g>
<!-- Node16 -->
<g id="node16" class="node"><title>Node16</title>
<polygon fill="white" stroke="#bfbfbf" points="1394.06,-174 1394.06,-193 1474.06,-193 1474.06,-174 1394.06,-174"/>
<text text-anchor="middle" x="1434.06" y="-181" font-family="Helvetica,sans-Serif" font-size="10.00">Eigen/Sparse</text>
</g>
<!-- Node6&#45;&gt;Node16 -->
<g id="edge15" class="edge"><title>Node6&#45;&gt;Node16</title>
<path fill="none" stroke="midnightblue" d="M1126.95,-235.497C1208.78,-225.587 1337.29,-209.263 1385.06,-199 1389.26,-198.099 1393.62,-197.02 1397.93,-195.864"/>
<polygon fill="midnightblue" stroke="midnightblue" points="1399.14,-199.16 1407.81,-193.07 1397.23,-192.424 1399.14,-199.16"/>
</g>
<!-- Node17 -->
<g id="node17" class="node"><title>Node17</title>
<polygon fill="white" stroke="#bfbfbf" points="1492.56,-174 1492.56,-193 1555.56,-193 1555.56,-174 1492.56,-174"/>
<text text-anchor="middle" x="1524.06" y="-181" font-family="Helvetica,sans-Serif" font-size="10.00">functional</text>
</g>
<!-- Node6&#45;&gt;Node17 -->
<g id="edge16" class="edge"><title>Node6&#45;&gt;Node17</title>
<path fill="none" stroke="midnightblue" d="M1133.12,-236.271C1251.95,-224.437 1466.28,-202.795 1483.06,-199 1486.3,-198.267 1489.64,-197.358 1492.95,-196.355"/>
<polygon fill="midnightblue" stroke="midnightblue" points="1494.25,-199.612 1502.64,-193.145 1492.05,-192.966 1494.25,-199.612"/>
</g>
<!-- Node18 -->
<g id="node18" class="node"><title>Node18</title>
<polygon fill="white" stroke="#bfbfbf" points="866.563,-168.5 866.563,-198.5 1011.56,-198.5 1011.56,-168.5 866.563,-168.5"/>
<text text-anchor="start" x="874.563" y="-186.5" font-family="Helvetica,sans-Serif" font-size="10.00">unsupported/Eigen/Aligned</text>
<text text-anchor="middle" x="939.063" y="-175.5" font-family="Helvetica,sans-Serif" font-size="10.00">Vector3</text>
</g>
<!-- Node6&#45;&gt;Node18 -->
<g id="edge17" class="edge"><title>Node6&#45;&gt;Node18</title>
<path fill="none" stroke="midnightblue" d="M1038.44,-235.475C1022.07,-227.078 996.522,-213.973 975.429,-203.153"/>
<polygon fill="midnightblue" stroke="midnightblue" points="976.897,-199.973 966.402,-198.523 973.702,-206.201 976.897,-199.973"/>
</g>
<!-- Node19 -->
<g id="node19" class="node"><title>Node19</title>
<g id="a_node19"><a xlink:href="Math_8hpp.html" target="_top" xlink:title="Core/Math/Math.hpp">
<polygon fill="white" stroke="black" points="1687.06,-174 1687.06,-193 1801.06,-193 1801.06,-174 1687.06,-174"/>
<text text-anchor="middle" x="1744.06" y="-181" font-family="Helvetica,sans-Serif" font-size="10.00">Core/Math/Math.hpp</text>
</a>
</g>
</g>
<!-- Node6&#45;&gt;Node19 -->
<g id="edge18" class="edge"><title>Node6&#45;&gt;Node19</title>
<path fill="none" stroke="midnightblue" d="M1133.13,-239.486C1245.27,-232.662 1458.33,-218.424 1639.06,-199 1651.33,-197.681 1664.38,-196.058 1676.96,-194.381"/>
<polygon fill="midnightblue" stroke="midnightblue" points="1677.48,-197.842 1686.92,-193.029 1676.54,-190.905 1677.48,-197.842"/>
</g>
<!-- Node23 -->
<g id="node23" class="node"><title>Node23</title>
<g id="a_node23"><a xlink:href="LinearAlgebra_8inl.html" target="_top" xlink:title="Core/Math/LinearAlgebra.inl">
<polygon fill="white" stroke="black" points="1029.56,-174 1029.56,-193 1178.56,-193 1178.56,-174 1029.56,-174"/>
<text text-anchor="middle" x="1104.06" y="-181" font-family="Helvetica,sans-Serif" font-size="10.00">Core/Math/LinearAlgebra.inl</text>
</a>
</g>
</g>
<!-- Node6&#45;&gt;Node23 -->
<g id="edge24" class="edge"><title>Node6&#45;&gt;Node23</title>
<path fill="none" stroke="midnightblue" d="M1062.08,-235.475C1069.51,-226.462 1081.4,-212.025 1090.63,-200.812"/>
<polygon fill="midnightblue" stroke="midnightblue" points="1093.4,-202.953 1097.06,-193.009 1088,-198.503 1093.4,-202.953"/>
</g>
<!-- Node8 -->
<g id="node8" class="node"><title>Node8</title>
<g id="a_node8"><a xlink:href="CoreMacros_8hpp.html" target="_top" xlink:title="Core/CoreMacros.hpp">
<polygon fill="white" stroke="black" points="479.063,-56.5 479.063,-75.5 599.063,-75.5 599.063,-56.5 479.063,-56.5"/>
<text text-anchor="middle" x="539.063" y="-63.5" font-family="Helvetica,sans-Serif" font-size="10.00">Core/CoreMacros.hpp</text>
</a>
</g>
</g>
<!-- Node7&#45;&gt;Node8 -->
<g id="edge7" class="edge"><title>Node7&#45;&gt;Node8</title>
<path fill="none" stroke="midnightblue" d="M539.063,-112.083C539.063,-105.006 539.063,-94.8611 539.063,-85.9865"/>
<polygon fill="midnightblue" stroke="midnightblue" points="542.563,-85.751 539.063,-75.7511 535.563,-85.7511 542.563,-85.751"/>
</g>
<!-- Node9 -->
<g id="node9" class="node"><title>Node9</title>
<polygon fill="white" stroke="#bfbfbf" points="547.063,-0.5 547.063,-19.5 599.063,-19.5 599.063,-0.5 547.063,-0.5"/>
<text text-anchor="middle" x="573.063" y="-7.5" font-family="Helvetica,sans-Serif" font-size="10.00">cassert</text>
</g>
<!-- Node8&#45;&gt;Node9 -->
<g id="edge8" class="edge"><title>Node8&#45;&gt;Node9</title>
<path fill="none" stroke="midnightblue" d="M544.677,-56.083C549.43,-48.5341 556.381,-37.4948 562.214,-28.2298"/>
<polygon fill="midnightblue" stroke="midnightblue" points="565.187,-30.0783 567.553,-19.7511 559.263,-26.3486 565.187,-30.0783"/>
</g>
<!-- Node10 -->
<g id="node10" class="node"><title>Node10</title>
<polygon fill="white" stroke="#bfbfbf" points="617.563,-0.5 617.563,-19.5 662.563,-19.5 662.563,-0.5 617.563,-0.5"/>
<text text-anchor="middle" x="640.063" y="-7.5" font-family="Helvetica,sans-Serif" font-size="10.00">cstdio</text>
</g>
<!-- Node8&#45;&gt;Node10 -->
<g id="edge9" class="edge"><title>Node8&#45;&gt;Node10</title>
<path fill="none" stroke="midnightblue" d="M555.29,-56.324C571.414,-47.7034 596.363,-34.3643 615.027,-24.3855"/>
<polygon fill="midnightblue" stroke="midnightblue" points="616.707,-27.456 623.876,-19.6545 613.407,-21.283 616.707,-27.456"/>
</g>
<!-- Node11 -->
<g id="node11" class="node"><title>Node11</title>
<polygon fill="white" stroke="#bfbfbf" points="403.563,-0.5 403.563,-19.5 462.563,-19.5 462.563,-0.5 403.563,-0.5"/>
<text text-anchor="middle" x="433.063" y="-7.5" font-family="Helvetica,sans-Serif" font-size="10.00">iostream</text>
</g>
<!-- Node8&#45;&gt;Node11 -->
<g id="edge10" class="edge"><title>Node8&#45;&gt;Node11</title>
<path fill="none" stroke="midnightblue" d="M522.032,-56.324C505.033,-47.6641 478.687,-34.2424 459.07,-24.249"/>
<polygon fill="midnightblue" stroke="midnightblue" points="460.55,-21.0752 450.051,-19.6545 457.373,-27.3125 460.55,-21.0752"/>
</g>
<!-- Node12 -->
<g id="node12" class="node"><title>Node12</title>
<polygon fill="white" stroke="#bfbfbf" points="114.063,-0.5 114.063,-19.5 170.063,-19.5 170.063,-0.5 114.063,-0.5"/>
<text text-anchor="middle" x="142.063" y="-7.5" font-family="Helvetica,sans-Serif" font-size="10.00">sstream</text>
</g>
<!-- Node8&#45;&gt;Node12 -->
<g id="edge11" class="edge"><title>Node8&#45;&gt;Node12</title>
<path fill="none" stroke="midnightblue" d="M478.767,-56.7986C396.032,-45.5449 249.706,-25.6417 180.45,-16.2214"/>
<polygon fill="midnightblue" stroke="midnightblue" points="180.793,-12.7359 170.413,-14.8561 179.85,-19.6721 180.793,-12.7359"/>
</g>
<!-- Node13 -->
<g id="node13" class="node"><title>Node13</title>
<polygon fill="white" stroke="#bfbfbf" points="481.063,-0.5 481.063,-19.5 529.063,-19.5 529.063,-0.5 481.063,-0.5"/>
<text text-anchor="middle" x="505.063" y="-7.5" font-family="Helvetica,sans-Serif" font-size="10.00">thread</text>
</g>
<!-- Node8&#45;&gt;Node13 -->
<g id="edge12" class="edge"><title>Node8&#45;&gt;Node13</title>
<path fill="none" stroke="midnightblue" d="M533.448,-56.083C528.695,-48.5341 521.745,-37.4948 515.911,-28.2298"/>
<polygon fill="midnightblue" stroke="midnightblue" points="518.863,-26.3486 510.573,-19.7511 512.939,-30.0783 518.863,-26.3486"/>
</g>
<!-- Node19&#45;&gt;Node7 -->
<g id="edge19" class="edge"><title>Node19&#45;&gt;Node7</title>
<path fill="none" stroke="midnightblue" d="M1690.22,-173.999C1673.84,-171.699 1655.75,-169.448 1639.06,-168 1196,-129.532 1082.92,-159.942 639.063,-132 625.824,-131.167 611.619,-130.033 598.192,-128.852"/>
<polygon fill="midnightblue" stroke="midnightblue" points="598.379,-125.355 588.105,-127.944 597.751,-132.327 598.379,-125.355"/>
</g>
<!-- Node20 -->
<g id="node20" class="node"><title>Node20</title>
<polygon fill="white" stroke="#bfbfbf" points="1693.06,-112.5 1693.06,-131.5 1755.06,-131.5 1755.06,-112.5 1693.06,-112.5"/>
<text text-anchor="middle" x="1724.06" y="-119.5" font-family="Helvetica,sans-Serif" font-size="10.00">algorithm</text>
</g>
<!-- Node19&#45;&gt;Node20 -->
<g id="edge20" class="edge"><title>Node19&#45;&gt;Node20</title>
<path fill="none" stroke="midnightblue" d="M1741.2,-173.975C1738.35,-165.492 1733.88,-152.204 1730.22,-141.322"/>
<polygon fill="midnightblue" stroke="midnightblue" points="1733.43,-139.873 1726.92,-131.509 1726.79,-142.103 1733.43,-139.873"/>
</g>
<!-- Node21 -->
<g id="node21" class="node"><title>Node21</title>
<polygon fill="white" stroke="#bfbfbf" points="1773.56,-112.5 1773.56,-131.5 1820.56,-131.5 1820.56,-112.5 1773.56,-112.5"/>
<text text-anchor="middle" x="1797.06" y="-119.5" font-family="Helvetica,sans-Serif" font-size="10.00">cmath</text>
</g>
<!-- Node19&#45;&gt;Node21 -->
<g id="edge21" class="edge"><title>Node19&#45;&gt;Node21</title>
<path fill="none" stroke="midnightblue" d="M1751.66,-173.975C1759.76,-164.873 1772.8,-150.241 1782.83,-138.983"/>
<polygon fill="midnightblue" stroke="midnightblue" points="1785.45,-141.304 1789.48,-131.509 1780.22,-136.648 1785.45,-141.304"/>
</g>
<!-- Node22 -->
<g id="node22" class="node"><title>Node22</title>
<g id="a_node22"><a xlink:href="Math_8inl.html" target="_top" xlink:title="Core/Math/Math.inl">
<polygon fill="white" stroke="black" points="1568.56,-112.5 1568.56,-131.5 1675.56,-131.5 1675.56,-112.5 1568.56,-112.5"/>
<text text-anchor="middle" x="1622.06" y="-119.5" font-family="Helvetica,sans-Serif" font-size="10.00">Core/Math/Math.inl</text>
</a>
</g>
</g>
<!-- Node19&#45;&gt;Node22 -->
<g id="edge22" class="edge"><title>Node19&#45;&gt;Node22</title>
<path fill="none" stroke="midnightblue" d="M1721.68,-173.975C1699.33,-164.122 1665.56,-147.788 1643.54,-136.27"/>
<polygon fill="midnightblue" stroke="midnightblue" points="1645.08,-133.125 1634.61,-131.509 1641.79,-139.302 1645.08,-133.125"/>
</g>
<!-- Node22&#45;&gt;Node19 -->
<g id="edge23" class="edge"><title>Node22&#45;&gt;Node19</title>
<path fill="none" stroke="midnightblue" d="M1644.41,-131.509C1666.75,-141.355 1700.51,-157.688 1722.55,-169.212"/>
<polygon fill="midnightblue" stroke="midnightblue" points="1721.01,-172.36 1731.48,-173.975 1724.31,-166.182 1721.01,-172.36"/>
</g>
<!-- Node24&#45;&gt;Node8 -->
<g id="edge26" class="edge"><title>Node24&#45;&gt;Node8</title>
<path fill="none" stroke="midnightblue" d="M1810.83,-235.494C1825.84,-212.209 1862.72,-146.85 1829.06,-112 1786.46,-67.8823 873.106,-66.3128 609.625,-66.7826"/>
<polygon fill="midnightblue" stroke="midnightblue" points="609.41,-63.2829 599.417,-66.8024 609.423,-70.2829 609.41,-63.2829"/>
</g>
<!-- Node27&#45;&gt;Node4 -->
<g id="edge30" class="edge"><title>Node27&#45;&gt;Node4</title>
<path fill="none" stroke="midnightblue" d="M623.334,-358.469C687.69,-349.892 788.797,-335.97 876.063,-322 1182.78,-272.897 1264.75,-282.069 1564.06,-199 1566.71,-198.264 1569.44,-197.416 1572.15,-196.508"/>
<polygon fill="midnightblue" stroke="midnightblue" points="1573.56,-199.72 1581.79,-193.042 1571.19,-193.133 1573.56,-199.72"/>
</g>
<!-- Node27&#45;&gt;Node5 -->
<g id="edge32" class="edge"><title>Node27&#45;&gt;Node5</title>
<path fill="none" stroke="midnightblue" d="M562.12,-358.316C578.638,-322.962 641.02,-189.443 663.73,-140.836"/>
<polygon fill="midnightblue" stroke="midnightblue" points="666.992,-142.122 668.054,-131.58 660.65,-139.158 666.992,-142.122"/>
</g>
<!-- Node27&#45;&gt;Node6 -->
<g id="edge44" class="edge"><title>Node27&#45;&gt;Node6</title>
<path fill="none" stroke="midnightblue" d="M615.842,-358.475C666.361,-350.556 741.529,-337.647 806.063,-322 883.979,-303.109 973.467,-273.908 1021.08,-257.755"/>
<polygon fill="midnightblue" stroke="midnightblue" points="1022.25,-261.054 1030.59,-254.515 1019.99,-254.429 1022.25,-261.054"/>
</g>
<!-- Node27&#45;&gt;Node7 -->
<g id="edge45" class="edge"><title>Node27&#45;&gt;Node7</title>
<path fill="none" stroke="midnightblue" d="M557.387,-358.316C554.651,-323.185 544.367,-191.119 540.524,-141.763"/>
<polygon fill="midnightblue" stroke="midnightblue" points="543.997,-141.278 539.731,-131.58 537.018,-141.822 543.997,-141.278"/>
</g>
<!-- Node28 -->
<g id="node28" class="node"><title>Node28</title>
<polygon fill="white" stroke="#bfbfbf" points="111.063,-112.5 111.063,-131.5 155.063,-131.5 155.063,-112.5 111.063,-112.5"/>
<text text-anchor="middle" x="133.063" y="-119.5" font-family="Helvetica,sans-Serif" font-size="10.00">string</text>
</g>
<!-- Node27&#45;&gt;Node28 -->
<g id="edge31" class="edge"><title>Node27&#45;&gt;Node28</title>
<path fill="none" stroke="midnightblue" d="M492.299,-358.474C356.701,-339.201 55.0919,-286.979 12.0628,-199 6.00954,-186.623 4.19969,-179.314 12.0628,-168 31.8851,-139.479 72.0485,-128.998 100.662,-125.168"/>
<polygon fill="midnightblue" stroke="midnightblue" points="101.082,-128.643 110.623,-124.036 100.292,-121.688 101.082,-128.643"/>
</g>
<!-- Node29 -->
<g id="node29" class="node"><title>Node29</title>
<g id="a_node29"><a xlink:href="VectorArray_8hpp.html" target="_top" xlink:title="Core/Containers/VectorArray.hpp">
<polygon fill="white" stroke="black" points="624.563,-297 624.563,-316 797.563,-316 797.563,-297 624.563,-297"/>
<text text-anchor="middle" x="711.063" y="-304" font-family="Helvetica,sans-Serif" font-size="10.00">Core/Containers/VectorArray.hpp</text>
</a>
</g>
</g>
<!-- Node27&#45;&gt;Node29 -->
<g id="edge33" class="edge"><title>Node27&#45;&gt;Node29</title>
<path fill="none" stroke="midnightblue" d="M579.984,-358.475C606.115,-348.313 649.975,-331.256 679.692,-319.7"/>
<polygon fill="midnightblue" stroke="midnightblue" points="681.131,-322.896 689.182,-316.009 678.594,-316.372 681.131,-322.896"/>
</g>
<!-- Node32 -->
<g id="node32" class="node"><title>Node32</title>
<g id="a_node32"><a xlink:href="AssetData_8hpp.html" target="_top" xlink:title="Core/File/AssetData.hpp">
<polygon fill="white" stroke="black" points="198.563,-174 198.563,-193 329.563,-193 329.563,-174 198.563,-174"/>
<text text-anchor="middle" x="264.063" y="-181" font-family="Helvetica,sans-Serif" font-size="10.00">Core/File/AssetData.hpp</text>
</a>
</g>
</g>
<!-- Node27&#45;&gt;Node32 -->
<g id="edge41" class="edge"><title>Node27&#45;&gt;Node32</title>
<path fill="none" stroke="midnightblue" d="M548.409,-358.409C531.577,-343.65 495.457,-312.953 462.063,-291 403.883,-252.752 330.646,-216.097 291.585,-197.386"/>
<polygon fill="midnightblue" stroke="midnightblue" points="292.954,-194.161 282.42,-193.025 289.947,-200.482 292.954,-194.161"/>
</g>
<!-- Node33 -->
<g id="node33" class="node"><title>Node33</title>
<g id="a_node33"><a xlink:href="CameraData_8inl.html" target="_top" xlink:title="Core/File/CameraData.inl">
<polygon fill="white" stroke="black" points="318.563,-297 318.563,-316 453.563,-316 453.563,-297 318.563,-297"/>
<text text-anchor="middle" x="386.063" y="-304" font-family="Helvetica,sans-Serif" font-size="10.00">Core/File/CameraData.inl</text>
</a>
</g>
</g>
<!-- Node27&#45;&gt;Node33 -->
<g id="edge46" class="edge"><title>Node27&#45;&gt;Node33</title>
<path fill="none" stroke="midnightblue" d="M528.519,-358.475C496.789,-348.269 446.965,-331.108 415.344,-319.549"/>
<polygon fill="midnightblue" stroke="midnightblue" points="416.357,-316.192 405.763,-316.009 413.93,-322.758 416.357,-316.192"/>
</g>
<!-- Node29&#45;&gt;Node5 -->
<g id="edge40" class="edge"><title>Node29&#45;&gt;Node5</title>
<path fill="none" stroke="midnightblue" d="M709.182,-296.698C703.171,-268.573 684.341,-180.458 676.05,-141.657"/>
<polygon fill="midnightblue" stroke="midnightblue" points="679.438,-140.762 673.925,-131.714 672.592,-142.225 679.438,-140.762"/>
</g>
<!-- Node29&#45;&gt;Node6 -->
<g id="edge38" class="edge"><title>Node29&#45;&gt;Node6</title>
<path fill="none" stroke="midnightblue" d="M760.35,-296.975C822.551,-286.216 929.428,-267.73 995.953,-256.224"/>
<polygon fill="midnightblue" stroke="midnightblue" points="996.61,-259.662 1005.87,-254.509 995.417,-252.765 996.61,-259.662"/>
</g>
<!-- Node29&#45;&gt;Node7 -->
<g id="edge39" class="edge"><title>Node29&#45;&gt;Node7</title>
<path fill="none" stroke="midnightblue" d="M702.767,-296.698C675.691,-267.969 589.624,-176.648 554.358,-139.229"/>
<polygon fill="midnightblue" stroke="midnightblue" points="556.681,-136.591 547.276,-131.714 551.587,-141.392 556.681,-136.591"/>
</g>
<!-- Node30 -->
<g id="node30" class="node"><title>Node30</title>
<g id="a_node30"><a xlink:href="AlignedStdVector_8hpp.html" target="_top" xlink:title="Core/Containers/AlignedStd\lVector.hpp">
<polygon fill="white" stroke="black" points="699.563,-168.5 699.563,-198.5 848.563,-198.5 848.563,-168.5 699.563,-168.5"/>
<text text-anchor="start" x="707.563" y="-186.5" font-family="Helvetica,sans-Serif" font-size="10.00">Core/Containers/AlignedStd</text>
<text text-anchor="middle" x="774.063" y="-175.5" font-family="Helvetica,sans-Serif" font-size="10.00">Vector.hpp</text>
</a>
</g>
</g>
<!-- Node29&#45;&gt;Node30 -->
<g id="edge34" class="edge"><title>Node29&#45;&gt;Node30</title>
<path fill="none" stroke="midnightblue" d="M715.594,-296.798C725.192,-278.362 747.851,-234.842 761.976,-207.715"/>
<polygon fill="midnightblue" stroke="midnightblue" points="765.239,-209.025 766.753,-198.539 759.031,-205.793 765.239,-209.025"/>
</g>
<!-- Node30&#45;&gt;Node5 -->
<g id="edge37" class="edge"><title>Node30&#45;&gt;Node5</title>
<path fill="none" stroke="midnightblue" d="M749.89,-168.399C733.54,-158.862 712.048,-146.325 695.792,-136.842"/>
<polygon fill="midnightblue" stroke="midnightblue" points="697.306,-133.673 686.905,-131.658 693.779,-139.72 697.306,-133.673"/>
</g>
<!-- Node30&#45;&gt;Node7 -->
<g id="edge35" class="edge"><title>Node30&#45;&gt;Node7</title>
<path fill="none" stroke="midnightblue" d="M718.669,-168.475C677.064,-157.941 620.881,-143.716 582.499,-133.998"/>
<polygon fill="midnightblue" stroke="midnightblue" points="583.213,-130.568 572.659,-131.506 581.494,-137.354 583.213,-130.568"/>
</g>
<!-- Node31 -->
<g id="node31" class="node"><title>Node31</title>
<polygon fill="white" stroke="#bfbfbf" points="727.563,-112.5 727.563,-131.5 820.563,-131.5 820.563,-112.5 727.563,-112.5"/>
<text text-anchor="middle" x="774.063" y="-119.5" font-family="Helvetica,sans-Serif" font-size="10.00">Eigen/StdVector</text>
</g>
<!-- Node30&#45;&gt;Node31 -->
<g id="edge36" class="edge"><title>Node30&#45;&gt;Node31</title>
<path fill="none" stroke="midnightblue" d="M774.063,-168.399C774.063,-160.466 774.063,-150.458 774.063,-141.858"/>
<polygon fill="midnightblue" stroke="midnightblue" points="777.563,-141.658 774.063,-131.658 770.563,-141.658 777.563,-141.658"/>
</g>
<!-- Node32&#45;&gt;Node7 -->
<g id="edge42" class="edge"><title>Node32&#45;&gt;Node7</title>
<path fill="none" stroke="midnightblue" d="M303.464,-173.975C352.576,-163.349 436.528,-145.185 489.829,-133.652"/>
<polygon fill="midnightblue" stroke="midnightblue" points="490.701,-137.045 499.735,-131.509 489.221,-130.203 490.701,-137.045"/>
</g>
<!-- Node32&#45;&gt;Node28 -->
<g id="edge43" class="edge"><title>Node32&#45;&gt;Node28</title>
<path fill="none" stroke="midnightblue" d="M245.294,-173.975C223.212,-163.945 186.344,-147.2 160.924,-135.655"/>
<polygon fill="midnightblue" stroke="midnightblue" points="162.349,-132.458 151.797,-131.509 159.455,-138.831 162.349,-132.458"/>
</g>
<!-- Node33&#45;&gt;Node27 -->
<g id="edge47" class="edge"><title>Node33&#45;&gt;Node27</title>
<path fill="none" stroke="midnightblue" d="M415.558,-316.009C447.269,-326.208 497.093,-343.368 528.733,-354.933"/>
<polygon fill="midnightblue" stroke="midnightblue" points="527.727,-358.292 538.32,-358.475 530.153,-351.726 527.727,-358.292"/>
</g>
<!-- Node33&#45;&gt;Node34 -->
<g id="edge48" class="edge"><title>Node33&#45;&gt;Node34</title>
<path fill="none" stroke="midnightblue" d="M351.39,-296.975C308.531,-286.437 235.52,-268.486 188.564,-256.941"/>
<polygon fill="midnightblue" stroke="midnightblue" points="189.218,-253.498 178.671,-254.509 187.546,-260.296 189.218,-253.498"/>
</g>
<!-- Node34&#45;&gt;Node7 -->
<g id="edge49" class="edge"><title>Node34&#45;&gt;Node7</title>
<path fill="none" stroke="midnightblue" d="M146.483,-235.16C151.454,-218.842 164.469,-184.185 189.063,-168 235.597,-137.377 392.641,-127.553 479.704,-124.431"/>
<polygon fill="midnightblue" stroke="midnightblue" points="480.087,-127.92 489.963,-124.083 479.85,-120.924 480.087,-127.92"/>
</g>
<!-- Node34&#45;&gt;Node12 -->
<g id="edge50" class="edge"><title>Node34&#45;&gt;Node12</title>
<path fill="none" stroke="midnightblue" d="M93.2533,-240.685C64.3928,-235.887 30.4502,-224.695 12.0628,-199 -33.93,-134.729 70.3244,-56.6726 118.884,-25.1814"/>
<polygon fill="midnightblue" stroke="midnightblue" points="120.962,-28.0076 127.523,-19.689 117.206,-22.1002 120.962,-28.0076"/>
</g>
<!-- Node34&#45;&gt;Node28 -->
<g id="edge52" class="edge"><title>Node34&#45;&gt;Node28</title>
<path fill="none" stroke="midnightblue" d="M93.5064,-239.075C67.2913,-233.661 37.4114,-222.39 21.0628,-199 13.1696,-187.707 13.3474,-179.415 21.0628,-168 38.7777,-141.791 74.5464,-130.844 100.916,-126.274"/>
<polygon fill="midnightblue" stroke="midnightblue" points="101.493,-129.726 110.857,-124.77 100.446,-122.805 101.493,-129.726"/>
</g>
<!-- Node35 -->
<g id="node35" class="node"><title>Node35</title>
<polygon fill="white" stroke="#bfbfbf" points="92.5628,-174 92.5628,-193 141.563,-193 141.563,-174 92.5628,-174"/>
<text text-anchor="middle" x="117.063" y="-181" font-family="Helvetica,sans-Serif" font-size="10.00">stdio.h</text>
</g>
<!-- Node34&#45;&gt;Node35 -->
<g id="edge51" class="edge"><title>Node34&#45;&gt;Node35</title>
<path fill="none" stroke="midnightblue" d="M140.194,-235.475C136.265,-226.815 130.063,-213.149 125.07,-202.145"/>
<polygon fill="midnightblue" stroke="midnightblue" points="128.244,-200.669 120.924,-193.009 121.869,-203.562 128.244,-200.669"/>
</g>
<!-- Node36 -->
<g id="node36" class="node"><title>Node36</title>
<g id="a_node36"><a xlink:href="StringUtils_8hpp.html" target="_top" xlink:title="Core/String/StringUtils.hpp">
<polygon fill="white" stroke="black" points="348.063,-174 348.063,-193 492.063,-193 492.063,-174 348.063,-174"/>
<text text-anchor="middle" x="420.063" y="-181" font-family="Helvetica,sans-Serif" font-size="10.00">Core/String/StringUtils.hpp</text>
</a>
</g>
</g>
<!-- Node34&#45;&gt;Node36 -->
<g id="edge53" class="edge"><title>Node34&#45;&gt;Node36</title>
<path fill="none" stroke="midnightblue" d="M183.607,-235.475C232.898,-224.849 317.156,-206.685 370.65,-195.152"/>
<polygon fill="midnightblue" stroke="midnightblue" points="371.554,-198.538 380.592,-193.009 370.079,-191.695 371.554,-198.538"/>
</g>
<!-- Node37 -->
<g id="node37" class="node"><title>Node37</title>
<polygon fill="white" stroke="#bfbfbf" points="30.0628,-174 30.0628,-193 74.0628,-193 74.0628,-174 30.0628,-174"/>
<text text-anchor="middle" x="52.0628" y="-181" font-family="Helvetica,sans-Serif" font-size="10.00">ctime</text>
</g>
<!-- Node34&#45;&gt;Node37 -->
<g id="edge57" class="edge"><title>Node34&#45;&gt;Node37</title>
<path fill="none" stroke="midnightblue" d="M130.881,-235.475C115.988,-225.843 91.5184,-210.017 73.7898,-198.552"/>
<polygon fill="midnightblue" stroke="midnightblue" points="75.5174,-195.501 65.2197,-193.009 71.7159,-201.379 75.5174,-195.501"/>
</g>
<!-- Node36&#45;&gt;Node5 -->
<g id="edge56" class="edge"><title>Node36&#45;&gt;Node5</title>
<path fill="none" stroke="midnightblue" d="M456.168,-173.975C504.983,-162.449 591.358,-142.055 638.711,-130.875"/>
<polygon fill="midnightblue" stroke="midnightblue" points="639.546,-134.274 648.474,-128.57 637.937,-127.461 639.546,-134.274"/>
</g>
<!-- Node36&#45;&gt;Node7 -->
<g id="edge54" class="edge"><title>Node36&#45;&gt;Node7</title>
<path fill="none" stroke="midnightblue" d="M437.113,-173.975C456.907,-164.078 489.78,-147.642 512.833,-136.115"/>
<polygon fill="midnightblue" stroke="midnightblue" points="514.666,-139.112 522.045,-131.509 511.535,-132.851 514.666,-139.112"/>
</g>
<!-- Node36&#45;&gt;Node28 -->
<g id="edge55" class="edge"><title>Node36&#45;&gt;Node28</title>
<path fill="none" stroke="midnightblue" d="M378.943,-173.975C321.375,-162.04 217.94,-140.596 165.477,-129.72"/>
<polygon fill="midnightblue" stroke="midnightblue" points="165.893,-126.232 155.391,-127.629 164.472,-133.086 165.893,-126.232"/>
</g>
<!-- Node38&#45;&gt;Node6 -->
<g id="edge65" class="edge"><title>Node38&#45;&gt;Node6</title>
<path fill="none" stroke="midnightblue" d="M1211.28,-358.483C1177.83,-352.115 1141.41,-341.078 1112.06,-322 1089.87,-307.571 1073.1,-281.361 1063.68,-263.814"/>
<polygon fill="midnightblue" stroke="midnightblue" points="1066.66,-261.953 1058.99,-254.639 1060.42,-265.136 1066.66,-261.953"/>
</g>
<!-- Node39 -->
<g id="node39" class="node"><title>Node39</title>
<polygon fill="white" stroke="#bfbfbf" points="1608.06,-297 1608.06,-316 1700.06,-316 1700.06,-297 1608.06,-297"/>
<text text-anchor="middle" x="1654.06" y="-304" font-family="Helvetica,sans-Serif" font-size="10.00">assimp/color4.h</text>
</g>
<!-- Node38&#45;&gt;Node39 -->
<g id="edge60" class="edge"><title>Node38&#45;&gt;Node39</title>
<path fill="none" stroke="midnightblue" d="M1375.5,-358.47C1434.49,-350.548 1522.34,-337.637 1598.06,-322 1603.1,-320.96 1608.36,-319.757 1613.55,-318.496"/>
<polygon fill="midnightblue" stroke="midnightblue" points="1614.53,-321.858 1623.38,-316.03 1612.83,-315.069 1614.53,-321.858"/>
</g>
<!-- Node40 -->
<g id="node40" class="node"><title>Node40</title>
<polygon fill="white" stroke="#bfbfbf" points="1121.56,-297 1121.56,-316 1232.56,-316 1232.56,-297 1121.56,-297"/>
<text text-anchor="middle" x="1177.06" y="-304" font-family="Helvetica,sans-Serif" font-size="10.00">assimp/matrix4x4.h</text>
</g>
<!-- Node38&#45;&gt;Node40 -->
<g id="edge61" class="edge"><title>Node38&#45;&gt;Node40</title>
<path fill="none" stroke="midnightblue" d="M1289.29,-358.475C1267.21,-348.445 1230.34,-331.7 1204.92,-320.155"/>
<polygon fill="midnightblue" stroke="midnightblue" points="1206.35,-316.958 1195.8,-316.009 1203.45,-323.331 1206.35,-316.958"/>
</g>
<!-- Node41 -->
<g id="node41" class="node"><title>Node41</title>
<polygon fill="white" stroke="#bfbfbf" points="1250.56,-297 1250.56,-316 1365.56,-316 1365.56,-297 1250.56,-297"/>
<text text-anchor="middle" x="1308.06" y="-304" font-family="Helvetica,sans-Serif" font-size="10.00">assimp/quaternion.h</text>
</g>
<!-- Node38&#45;&gt;Node41 -->
<g id="edge62" class="edge"><title>Node38&#45;&gt;Node41</title>
<path fill="none" stroke="midnightblue" d="M1308.06,-358.475C1308.06,-350.08 1308.06,-336.981 1308.06,-326.163"/>
<polygon fill="midnightblue" stroke="midnightblue" points="1311.56,-326.009 1308.06,-316.009 1304.56,-326.009 1311.56,-326.009"/>
</g>
<!-- Node42 -->
<g id="node42" class="node"><title>Node42</title>
<polygon fill="white" stroke="#bfbfbf" points="1383.56,-297 1383.56,-316 1472.56,-316 1472.56,-297 1383.56,-297"/>
<text text-anchor="middle" x="1428.06" y="-304" font-family="Helvetica,sans-Serif" font-size="10.00">assimp/types.h</text>
</g>
<!-- Node38&#45;&gt;Node42 -->
<g id="edge63" class="edge"><title>Node38&#45;&gt;Node42</title>
<path fill="none" stroke="midnightblue" d="M1325.26,-358.475C1345.31,-348.534 1378.66,-331.995 1401.92,-320.461"/>
<polygon fill="midnightblue" stroke="midnightblue" points="1403.5,-323.587 1410.9,-316.009 1400.39,-317.316 1403.5,-323.587"/>
</g>
<!-- Node43 -->
<g id="node43" class="node"><title>Node43</title>
<polygon fill="white" stroke="#bfbfbf" points="1490.56,-297 1490.56,-316 1589.56,-316 1589.56,-297 1490.56,-297"/>
<text text-anchor="middle" x="1540.06" y="-304" font-family="Helvetica,sans-Serif" font-size="10.00">assimp/vector3.h</text>
</g>
<!-- Node38&#45;&gt;Node43 -->
<g id="edge64" class="edge"><title>Node38&#45;&gt;Node43</title>
<path fill="none" stroke="midnightblue" d="M1341.3,-358.475C1382.3,-347.959 1452.09,-330.062 1497.12,-318.514"/>
<polygon fill="midnightblue" stroke="midnightblue" points="1498.07,-321.884 1506.88,-316.009 1496.33,-315.103 1498.07,-321.884"/>
</g>
</g>
</svg>
