<?xml version="1.0" encoding="UTF-8" standalone="no"?>
<!DOCTYPE svg PUBLIC "-//W3C//DTD SVG 1.1//EN"
 "http://www.w3.org/Graphics/SVG/1.1/DTD/svg11.dtd">
<!-- Generated by graphviz version 2.38.0 (20140413.2041)
 -->
<!-- Title: /home/travis/build/STORM&#45;IRIT/Radium&#45;Engine/src/IO/AssimpLoader/AssimpLightDataLoader.hpp Pages: 1 -->
<svg width="1725pt" height="464pt"
 viewBox="0.00 0.00 1725.00 464.00" xmlns="http://www.w3.org/2000/svg" xmlns:xlink="http://www.w3.org/1999/xlink">
<g id="graph0" class="graph" transform="scale(1 1) rotate(0) translate(4 460)">
<title>/home/travis/build/STORM&#45;IRIT/Radium&#45;Engine/src/IO/AssimpLoader/AssimpLightDataLoader.hpp</title>
<polygon fill="white" stroke="none" points="-4,4 -4,-460 1721,-460 1721,4 -4,4"/>
<!-- Node1 -->
<g id="node1" class="node"><title>Node1</title>
<polygon fill="#bfbfbf" stroke="black" points="659,-403.5 659,-455.5 838,-455.5 838,-403.5 659,-403.5"/>
<text text-anchor="start" x="667" y="-443.5" font-family="Helvetica,sans-Serif" font-size="10.00">/home/travis/build</text>
<text text-anchor="start" x="667" y="-432.5" font-family="Helvetica,sans-Serif" font-size="10.00">/STORM&#45;IRIT/Radium&#45;Engine</text>
<text text-anchor="start" x="667" y="-421.5" font-family="Helvetica,sans-Serif" font-size="10.00">/src/IO/AssimpLoader/AssimpLight</text>
<text text-anchor="middle" x="748.5" y="-410.5" font-family="Helvetica,sans-Serif" font-size="10.00">DataLoader.hpp</text>
</g>
<!-- Node2 -->
<g id="node2" class="node"><title>Node2</title>
<g id="a_node2"><a xlink:href="DataLoader_8hpp.html" target="_top" xlink:title="Core/File/DataLoader.hpp">
<polygon fill="white" stroke="black" points="0,-347.5 0,-366.5 137,-366.5 137,-347.5 0,-347.5"/>
<text text-anchor="middle" x="68.5" y="-354.5" font-family="Helvetica,sans-Serif" font-size="10.00">Core/File/DataLoader.hpp</text>
</a>
</g>
</g>
<!-- Node1&#45;&gt;Node2 -->
<g id="edge1" class="edge"><title>Node1&#45;&gt;Node2</title>
<path fill="none" stroke="midnightblue" d="M658.903,-419.211C524.945,-405.323 274.619,-379.37 147.271,-366.167"/>
<polygon fill="midnightblue" stroke="midnightblue" points="147.507,-362.673 137.2,-365.123 146.785,-369.635 147.507,-362.673"/>
</g>
<!-- Node5 -->
<g id="node5" class="node"><title>Node5</title>
<g id="a_node5"><a xlink:href="LinearAlgebra_8hpp.html" target="_top" xlink:title="Core/Math/LinearAlgebra.hpp">
<polygon fill="white" stroke="black" points="1119.5,-291.5 1119.5,-310.5 1275.5,-310.5 1275.5,-291.5 1119.5,-291.5"/>
<text text-anchor="middle" x="1197.5" y="-298.5" font-family="Helvetica,sans-Serif" font-size="10.00">Core/Math/LinearAlgebra.hpp</text>
</a>
</g>
</g>
<!-- Node1&#45;&gt;Node5 -->
<g id="edge4" class="edge"><title>Node1&#45;&gt;Node5</title>
<path fill="none" stroke="midnightblue" d="M759.033,-403.437C768.35,-384.598 783.844,-359.904 805.5,-347 855.139,-317.421 1009.6,-307.284 1109.16,-303.811"/>
<polygon fill="midnightblue" stroke="midnightblue" points="1109.34,-307.307 1119.22,-303.476 1109.11,-300.311 1109.34,-307.307"/>
</g>
<!-- Node23 -->
<g id="node23" class="node"><title>Node23</title>
<g id="a_node23"><a xlink:href="LightData_8hpp.html" target="_top" xlink:title="Core/File/LightData.hpp">
<polygon fill="white" stroke="black" points="418.5,-347.5 418.5,-366.5 546.5,-366.5 546.5,-347.5 418.5,-347.5"/>
<text text-anchor="middle" x="482.5" y="-354.5" font-family="Helvetica,sans-Serif" font-size="10.00">Core/File/LightData.hpp</text>
</a>
</g>
</g>
<!-- Node1&#45;&gt;Node23 -->
<g id="edge24" class="edge"><title>Node1&#45;&gt;Node23</title>
<path fill="none" stroke="midnightblue" d="M658.815,-404.73C613.515,-392.724 560.688,-378.723 524.754,-369.199"/>
<polygon fill="midnightblue" stroke="midnightblue" points="525.193,-365.695 514.63,-366.516 523.4,-372.461 525.193,-365.695"/>
</g>
<!-- Node31 -->
<g id="node31" class="node"><title>Node31</title>
<g id="a_node31"><a xlink:href="RaIO_8hpp.html" target="_top" xlink:title="IO/RaIO.hpp">
<polygon fill="white" stroke="black" points="857,-291.5 857,-310.5 928,-310.5 928,-291.5 857,-291.5"/>
<text text-anchor="middle" x="892.5" y="-298.5" font-family="Helvetica,sans-Serif" font-size="10.00">IO/RaIO.hpp</text>
</a>
</g>
</g>
<!-- Node1&#45;&gt;Node31 -->
<g id="edge45" class="edge"><title>Node1&#45;&gt;Node31</title>
<path fill="none" stroke="midnightblue" d="M750.103,-403.156C752.494,-385.406 758.336,-362.229 772.5,-347 791.812,-326.237 821.635,-314.994 846.718,-308.939"/>
<polygon fill="midnightblue" stroke="midnightblue" points="847.764,-312.292 856.776,-306.72 846.256,-305.457 847.764,-312.292"/>
</g>
<!-- Node32 -->
<g id="node32" class="node"><title>Node32</title>
<polygon fill="white" stroke="#bfbfbf" points="814.5,-347.5 814.5,-366.5 846.5,-366.5 846.5,-347.5 814.5,-347.5"/>
<text text-anchor="middle" x="830.5" y="-354.5" font-family="Helvetica,sans-Serif" font-size="10.00">set</text>
</g>
<!-- Node1&#45;&gt;Node32 -->
<g id="edge47" class="edge"><title>Node1&#45;&gt;Node32</title>
<path fill="none" stroke="midnightblue" d="M777.641,-403.446C789.293,-393.428 802.344,-382.208 812.562,-373.422"/>
<polygon fill="midnightblue" stroke="midnightblue" points="815.085,-375.869 820.386,-366.695 810.522,-370.561 815.085,-375.869"/>
</g>
<!-- Node3 -->
<g id="node3" class="node"><title>Node3</title>
<polygon fill="white" stroke="#bfbfbf" points="40,-291.5 40,-310.5 97,-310.5 97,-291.5 40,-291.5"/>
<text text-anchor="middle" x="68.5" y="-298.5" font-family="Helvetica,sans-Serif" font-size="10.00">memory</text>
</g>
<!-- Node2&#45;&gt;Node3 -->
<g id="edge2" class="edge"><title>Node2&#45;&gt;Node3</title>
<path fill="none" stroke="midnightblue" d="M68.5,-347.083C68.5,-340.006 68.5,-329.861 68.5,-320.986"/>
<polygon fill="midnightblue" stroke="midnightblue" points="72.0001,-320.751 68.5,-310.751 65.0001,-320.751 72.0001,-320.751"/>
</g>
<!-- Node4 -->
<g id="node4" class="node"><title>Node4</title>
<polygon fill="white" stroke="#bfbfbf" points="102,-112.5 102,-131.5 149,-131.5 149,-112.5 102,-112.5"/>
<text text-anchor="middle" x="125.5" y="-119.5" font-family="Helvetica,sans-Serif" font-size="10.00">vector</text>
</g>
<!-- Node2&#45;&gt;Node4 -->
<g id="edge3" class="edge"><title>Node2&#45;&gt;Node4</title>
<path fill="none" stroke="midnightblue" d="M57.7855,-347.305C48.5616,-339.069 35.909,-325.789 30.5,-311 27.4468,-302.652 28.2378,-299.596 30.5,-291 46.4277,-230.475 89.6869,-168.835 111.915,-139.929"/>
<polygon fill="midnightblue" stroke="midnightblue" points="114.92,-141.767 118.331,-131.736 109.409,-137.451 114.92,-141.767"/>
</g>
<!-- Node6 -->
<g id="node6" class="node"><title>Node6</title>
<g id="a_node6"><a xlink:href="RaCore_8hpp.html" target="_top" xlink:title="Core/RaCore.hpp">
<polygon fill="white" stroke="black" points="661.5,-112.5 661.5,-131.5 759.5,-131.5 759.5,-112.5 661.5,-112.5"/>
<text text-anchor="middle" x="710.5" y="-119.5" font-family="Helvetica,sans-Serif" font-size="10.00">Core/RaCore.hpp</text>
</a>
</g>
</g>
<!-- Node5&#45;&gt;Node6 -->
<g id="edge5" class="edge"><title>Node5&#45;&gt;Node6</title>
<path fill="none" stroke="midnightblue" d="M1193.46,-291.266C1181.3,-266.174 1142.26,-194.016 1084.5,-168 1029.67,-143.303 860.594,-130.866 769.723,-125.82"/>
<polygon fill="midnightblue" stroke="midnightblue" points="769.751,-122.317 759.576,-125.269 769.371,-129.306 769.751,-122.317"/>
</g>
<!-- Node13 -->
<g id="node13" class="node"><title>Node13</title>
<polygon fill="white" stroke="#bfbfbf" points="1194.5,-230 1194.5,-249 1262.5,-249 1262.5,-230 1194.5,-230"/>
<text text-anchor="middle" x="1228.5" y="-237" font-family="Helvetica,sans-Serif" font-size="10.00">Eigen/Core</text>
</g>
<!-- Node5&#45;&gt;Node13 -->
<g id="edge12" class="edge"><title>Node5&#45;&gt;Node13</title>
<path fill="none" stroke="midnightblue" d="M1201.94,-291.475C1206.45,-282.815 1213.57,-269.149 1219.31,-258.145"/>
<polygon fill="midnightblue" stroke="midnightblue" points="1222.55,-259.495 1224.07,-249.009 1216.34,-256.26 1222.55,-259.495"/>
</g>
<!-- Node14 -->
<g id="node14" class="node"><title>Node14</title>
<polygon fill="white" stroke="#bfbfbf" points="1280.5,-230 1280.5,-249 1374.5,-249 1374.5,-230 1280.5,-230"/>
<text text-anchor="middle" x="1327.5" y="-237" font-family="Helvetica,sans-Serif" font-size="10.00">Eigen/Geometry</text>
</g>
<!-- Node5&#45;&gt;Node14 -->
<g id="edge13" class="edge"><title>Node5&#45;&gt;Node14</title>
<path fill="none" stroke="midnightblue" d="M1216.13,-291.475C1237.94,-281.49 1274.3,-264.848 1299.52,-253.307"/>
<polygon fill="midnightblue" stroke="midnightblue" points="1301.27,-256.353 1308.91,-249.009 1298.36,-249.988 1301.27,-256.353"/>
</g>
<!-- Node15 -->
<g id="node15" class="node"><title>Node15</title>
<polygon fill="white" stroke="#bfbfbf" points="1392.5,-230 1392.5,-249 1472.5,-249 1472.5,-230 1392.5,-230"/>
<text text-anchor="middle" x="1432.5" y="-237" font-family="Helvetica,sans-Serif" font-size="10.00">Eigen/Sparse</text>
</g>
<!-- Node5&#45;&gt;Node15 -->
<g id="edge14" class="edge"><title>Node5&#45;&gt;Node15</title>
<path fill="none" stroke="midnightblue" d="M1235.4,-291.419C1273.09,-282.749 1332.49,-268.71 1383.5,-255 1387.14,-254.021 1390.92,-252.968 1394.7,-251.892"/>
<polygon fill="midnightblue" stroke="midnightblue" points="1395.95,-255.173 1404.58,-249.025 1394,-248.45 1395.95,-255.173"/>
</g>
<!-- Node16 -->
<g id="node16" class="node"><title>Node16</title>
<polygon fill="white" stroke="#bfbfbf" points="1491,-230 1491,-249 1554,-249 1554,-230 1491,-230"/>
<text text-anchor="middle" x="1522.5" y="-237" font-family="Helvetica,sans-Serif" font-size="10.00">functional</text>
</g>
<!-- Node5&#45;&gt;Node16 -->
<g id="edge15" class="edge"><title>Node5&#45;&gt;Node16</title>
<path fill="none" stroke="midnightblue" d="M1275.72,-291.512C1333.21,-284.334 1412.91,-272.407 1481.5,-255 1484.55,-254.226 1487.69,-253.321 1490.81,-252.346"/>
<polygon fill="midnightblue" stroke="midnightblue" points="1492.22,-255.566 1500.6,-249.077 1490,-248.927 1492.22,-255.566"/>
</g>
<!-- Node17 -->
<g id="node17" class="node"><title>Node17</title>
<polygon fill="white" stroke="#bfbfbf" points="1572,-224.5 1572,-254.5 1717,-254.5 1717,-224.5 1572,-224.5"/>
<text text-anchor="start" x="1580" y="-242.5" font-family="Helvetica,sans-Serif" font-size="10.00">unsupported/Eigen/Aligned</text>
<text text-anchor="middle" x="1644.5" y="-231.5" font-family="Helvetica,sans-Serif" font-size="10.00">Vector3</text>
</g>
<!-- Node5&#45;&gt;Node17 -->
<g id="edge16" class="edge"><title>Node5&#45;&gt;Node17</title>
<path fill="none" stroke="midnightblue" d="M1275.85,-291.625C1347.75,-283.65 1457.47,-270.759 1561.61,-255.241"/>
<polygon fill="midnightblue" stroke="midnightblue" points="1562.3,-258.677 1571.67,-253.731 1561.26,-251.754 1562.3,-258.677"/>
</g>
<!-- Node18 -->
<g id="node18" class="node"><title>Node18</title>
<g id="a_node18"><a xlink:href="Math_8hpp.html" target="_top" xlink:title="Core/Math/Math.hpp">
<polygon fill="white" stroke="black" points="820.5,-230 820.5,-249 934.5,-249 934.5,-230 820.5,-230"/>
<text text-anchor="middle" x="877.5" y="-237" font-family="Helvetica,sans-Serif" font-size="10.00">Core/Math/Math.hpp</text>
</a>
</g>
</g>
<!-- Node5&#45;&gt;Node18 -->
<g id="edge17" class="edge"><title>Node5&#45;&gt;Node18</title>
<path fill="none" stroke="midnightblue" d="M1151.65,-291.475C1094.03,-280.761 995.185,-262.382 933.25,-250.866"/>
<polygon fill="midnightblue" stroke="midnightblue" points="933.734,-247.396 923.263,-249.009 932.455,-254.278 933.734,-247.396"/>
</g>
<!-- Node22 -->
<g id="node22" class="node"><title>Node22</title>
<g id="a_node22"><a xlink:href="LinearAlgebra_8inl.html" target="_top" xlink:title="Core/Math/LinearAlgebra.inl">
<polygon fill="white" stroke="black" points="990,-230 990,-249 1139,-249 1139,-230 990,-230"/>
<text text-anchor="middle" x="1064.5" y="-237" font-family="Helvetica,sans-Serif" font-size="10.00">Core/Math/LinearAlgebra.inl</text>
</a>
</g>
</g>
<!-- Node5&#45;&gt;Node22 -->
<g id="edge23" class="edge"><title>Node5&#45;&gt;Node22</title>
<path fill="none" stroke="midnightblue" d="M1178.44,-291.475C1156.03,-281.445 1118.59,-264.7 1092.79,-253.155"/>
<polygon fill="midnightblue" stroke="midnightblue" points="1094.08,-249.898 1083.52,-249.009 1091.22,-256.288 1094.08,-249.898"/>
</g>
<!-- Node7 -->
<g id="node7" class="node"><title>Node7</title>
<g id="a_node7"><a xlink:href="CoreMacros_8hpp.html" target="_top" xlink:title="Core/CoreMacros.hpp">
<polygon fill="white" stroke="black" points="650.5,-56.5 650.5,-75.5 770.5,-75.5 770.5,-56.5 650.5,-56.5"/>
<text text-anchor="middle" x="710.5" y="-63.5" font-family="Helvetica,sans-Serif" font-size="10.00">Core/CoreMacros.hpp</text>
</a>
</g>
</g>
<!-- Node6&#45;&gt;Node7 -->
<g id="edge6" class="edge"><title>Node6&#45;&gt;Node7</title>
<path fill="none" stroke="midnightblue" d="M710.5,-112.083C710.5,-105.006 710.5,-94.8611 710.5,-85.9865"/>
<polygon fill="midnightblue" stroke="midnightblue" points="714,-85.751 710.5,-75.7511 707,-85.7511 714,-85.751"/>
</g>
<!-- Node8 -->
<g id="node8" class="node"><title>Node8</title>
<polygon fill="white" stroke="#bfbfbf" points="586.5,-0.5 586.5,-19.5 638.5,-19.5 638.5,-0.5 586.5,-0.5"/>
<text text-anchor="middle" x="612.5" y="-7.5" font-family="Helvetica,sans-Serif" font-size="10.00">cassert</text>
</g>
<!-- Node7&#45;&gt;Node8 -->
<g id="edge7" class="edge"><title>Node7&#45;&gt;Node8</title>
<path fill="none" stroke="midnightblue" d="M694.755,-56.324C679.181,-47.7428 655.123,-34.486 637.041,-24.5224"/>
<polygon fill="midnightblue" stroke="midnightblue" points="638.654,-21.4152 628.206,-19.6545 635.276,-27.546 638.654,-21.4152"/>
</g>
<!-- Node9 -->
<g id="node9" class="node"><title>Node9</title>
<polygon fill="white" stroke="#bfbfbf" points="657,-0.5 657,-19.5 702,-19.5 702,-0.5 657,-0.5"/>
<text text-anchor="middle" x="679.5" y="-7.5" font-family="Helvetica,sans-Serif" font-size="10.00">cstdio</text>
</g>
<!-- Node7&#45;&gt;Node9 -->
<g id="edge8" class="edge"><title>Node7&#45;&gt;Node9</title>
<path fill="none" stroke="midnightblue" d="M705.381,-56.083C701.092,-48.6127 694.842,-37.7244 689.558,-28.5199"/>
<polygon fill="midnightblue" stroke="midnightblue" points="692.538,-26.6811 684.524,-19.7511 686.467,-30.1662 692.538,-26.6811"/>
</g>
<!-- Node10 -->
<g id="node10" class="node"><title>Node10</title>
<polygon fill="white" stroke="#bfbfbf" points="720,-0.5 720,-19.5 779,-19.5 779,-0.5 720,-0.5"/>
<text text-anchor="middle" x="749.5" y="-7.5" font-family="Helvetica,sans-Serif" font-size="10.00">iostream</text>
</g>
<!-- Node7&#45;&gt;Node10 -->
<g id="edge9" class="edge"><title>Node7&#45;&gt;Node10</title>
<path fill="none" stroke="midnightblue" d="M716.94,-56.083C722.449,-48.4554 730.531,-37.2645 737.265,-27.9408"/>
<polygon fill="midnightblue" stroke="midnightblue" points="740.162,-29.9071 743.18,-19.7511 734.487,-25.8087 740.162,-29.9071"/>
</g>
<!-- Node11 -->
<g id="node11" class="node"><title>Node11</title>
<polygon fill="white" stroke="#bfbfbf" points="451.5,-0.5 451.5,-19.5 507.5,-19.5 507.5,-0.5 451.5,-0.5"/>
<text text-anchor="middle" x="479.5" y="-7.5" font-family="Helvetica,sans-Serif" font-size="10.00">sstream</text>
</g>
<!-- Node7&#45;&gt;Node11 -->
<g id="edge10" class="edge"><title>Node7&#45;&gt;Node11</title>
<path fill="none" stroke="midnightblue" d="M673.897,-56.4435C631.145,-46.4494 560.765,-29.9971 517.444,-19.8701"/>
<polygon fill="midnightblue" stroke="midnightblue" points="518.109,-16.4313 507.575,-17.5631 516.516,-23.2475 518.109,-16.4313"/>
</g>
<!-- Node12 -->
<g id="node12" class="node"><title>Node12</title>
<polygon fill="white" stroke="#bfbfbf" points="797.5,-0.5 797.5,-19.5 845.5,-19.5 845.5,-0.5 797.5,-0.5"/>
<text text-anchor="middle" x="821.5" y="-7.5" font-family="Helvetica,sans-Serif" font-size="10.00">thread</text>
</g>
<!-- Node7&#45;&gt;Node12 -->
<g id="edge11" class="edge"><title>Node7&#45;&gt;Node12</title>
<path fill="none" stroke="midnightblue" d="M728.334,-56.324C746.216,-47.6247 773.975,-34.1202 794.546,-24.113"/>
<polygon fill="midnightblue" stroke="midnightblue" points="796.249,-27.1765 803.71,-19.6545 793.187,-20.8819 796.249,-27.1765"/>
</g>
<!-- Node18&#45;&gt;Node6 -->
<g id="edge18" class="edge"><title>Node18&#45;&gt;Node6</title>
<path fill="none" stroke="midnightblue" d="M864.948,-229.819C836.538,-210.17 767.047,-162.109 731.779,-137.717"/>
<polygon fill="midnightblue" stroke="midnightblue" points="733.413,-134.592 723.198,-131.782 729.431,-140.349 733.413,-134.592"/>
</g>
<!-- Node19 -->
<g id="node19" class="node"><title>Node19</title>
<polygon fill="white" stroke="#bfbfbf" points="948.5,-168.5 948.5,-187.5 1010.5,-187.5 1010.5,-168.5 948.5,-168.5"/>
<text text-anchor="middle" x="979.5" y="-175.5" font-family="Helvetica,sans-Serif" font-size="10.00">algorithm</text>
</g>
<!-- Node18&#45;&gt;Node19 -->
<g id="edge19" class="edge"><title>Node18&#45;&gt;Node19</title>
<path fill="none" stroke="midnightblue" d="M892.114,-229.975C908.853,-220.211 936.504,-204.081 956.219,-192.581"/>
<polygon fill="midnightblue" stroke="midnightblue" points="958.039,-195.571 964.913,-187.509 954.512,-189.525 958.039,-195.571"/>
</g>
<!-- Node20 -->
<g id="node20" class="node"><title>Node20</title>
<polygon fill="white" stroke="#bfbfbf" points="1029,-168.5 1029,-187.5 1076,-187.5 1076,-168.5 1029,-168.5"/>
<text text-anchor="middle" x="1052.5" y="-175.5" font-family="Helvetica,sans-Serif" font-size="10.00">cmath</text>
</g>
<!-- Node18&#45;&gt;Node20 -->
<g id="edge20" class="edge"><title>Node18&#45;&gt;Node20</title>
<path fill="none" stroke="midnightblue" d="M902.573,-229.975C933.282,-219.534 985.396,-201.815 1019.38,-190.261"/>
<polygon fill="midnightblue" stroke="midnightblue" points="1020.53,-193.565 1028.87,-187.033 1018.28,-186.938 1020.53,-193.565"/>
</g>
<!-- Node21 -->
<g id="node21" class="node"><title>Node21</title>
<g id="a_node21"><a xlink:href="Math_8inl.html" target="_top" xlink:title="Core/Math/Math.inl">
<polygon fill="white" stroke="black" points="824,-168.5 824,-187.5 931,-187.5 931,-168.5 824,-168.5"/>
<text text-anchor="middle" x="877.5" y="-175.5" font-family="Helvetica,sans-Serif" font-size="10.00">Core/Math/Math.inl</text>
</a>
</g>
</g>
<!-- Node18&#45;&gt;Node21 -->
<g id="edge21" class="edge"><title>Node18&#45;&gt;Node21</title>
<path fill="none" stroke="midnightblue" d="M872.599,-229.975C870.768,-221.58 870.297,-208.481 871.185,-197.663"/>
<polygon fill="midnightblue" stroke="midnightblue" points="874.686,-197.897 872.603,-187.509 867.754,-196.929 874.686,-197.897"/>
</g>
<!-- Node21&#45;&gt;Node18 -->
<g id="edge22" class="edge"><title>Node21&#45;&gt;Node18</title>
<path fill="none" stroke="midnightblue" d="M882.397,-187.509C884.23,-195.898 884.703,-208.996 883.817,-219.817"/>
<polygon fill="midnightblue" stroke="midnightblue" points="880.315,-219.588 882.401,-229.975 887.248,-220.554 880.315,-219.588"/>
</g>
<!-- Node23&#45;&gt;Node3 -->
<g id="edge25" class="edge"><title>Node23&#45;&gt;Node3</title>
<path fill="none" stroke="midnightblue" d="M418.253,-349.894C344.089,-342.455 218.567,-328.665 111.5,-311 110.042,-310.759 108.558,-310.504 107.061,-310.237"/>
<polygon fill="midnightblue" stroke="midnightblue" points="107.595,-306.775 97.117,-308.346 106.287,-313.652 107.595,-306.775"/>
</g>
<!-- Node23&#45;&gt;Node4 -->
<g id="edge27" class="edge"><title>Node23&#45;&gt;Node4</title>
<path fill="none" stroke="midnightblue" d="M418.222,-348.334C356.197,-337.678 263.543,-312.688 206.5,-255 172.119,-220.231 145.709,-168.247 133.295,-141.053"/>
<polygon fill="midnightblue" stroke="midnightblue" points="136.367,-139.347 129.106,-131.632 129.971,-142.191 136.367,-139.347"/>
</g>
<!-- Node23&#45;&gt;Node5 -->
<g id="edge32" class="edge"><title>Node23&#45;&gt;Node5</title>
<path fill="none" stroke="midnightblue" d="M546.581,-351.16C674.784,-341.478 963.043,-319.707 1109.1,-308.677"/>
<polygon fill="midnightblue" stroke="midnightblue" points="1109.65,-312.145 1119.36,-307.901 1109.13,-305.165 1109.65,-312.145"/>
</g>
<!-- Node23&#45;&gt;Node6 -->
<g id="edge28" class="edge"><title>Node23&#45;&gt;Node6</title>
<path fill="none" stroke="midnightblue" d="M512.08,-347.422C568.911,-329.103 691.776,-280.126 737.5,-188 745.521,-171.838 735.307,-152.696 725.225,-139.388"/>
<polygon fill="midnightblue" stroke="midnightblue" points="727.862,-137.084 718.811,-131.576 722.451,-141.526 727.862,-137.084"/>
</g>
<!-- Node24 -->
<g id="node24" class="node"><title>Node24</title>
<polygon fill="white" stroke="#bfbfbf" points="285.5,-112.5 285.5,-131.5 329.5,-131.5 329.5,-112.5 285.5,-112.5"/>
<text text-anchor="middle" x="307.5" y="-119.5" font-family="Helvetica,sans-Serif" font-size="10.00">string</text>
</g>
<!-- Node23&#45;&gt;Node24 -->
<g id="edge26" class="edge"><title>Node23&#45;&gt;Node24</title>
<path fill="none" stroke="midnightblue" d="M443.064,-347.435C375.519,-330.399 239.475,-285.206 182.5,-188 160.171,-149.904 231.495,-133.214 275.49,-126.684"/>
<polygon fill="midnightblue" stroke="midnightblue" points="276.055,-130.139 285.482,-125.304 275.097,-123.205 276.055,-130.139"/>
</g>
<!-- Node25 -->
<g id="node25" class="node"><title>Node25</title>
<g id="a_node25"><a xlink:href="AssetData_8hpp.html" target="_top" xlink:title="Core/File/AssetData.hpp">
<polygon fill="white" stroke="black" points="598,-168.5 598,-187.5 729,-187.5 729,-168.5 598,-168.5"/>
<text text-anchor="middle" x="663.5" y="-175.5" font-family="Helvetica,sans-Serif" font-size="10.00">Core/File/AssetData.hpp</text>
</a>
</g>
</g>
<!-- Node23&#45;&gt;Node25 -->
<g id="edge29" class="edge"><title>Node23&#45;&gt;Node25</title>
<path fill="none" stroke="midnightblue" d="M498.481,-347.359C513.084,-339.064 534.872,-325.659 551.5,-311 592.842,-274.554 632.425,-222.59 651.555,-196.042"/>
<polygon fill="midnightblue" stroke="midnightblue" points="654.49,-197.954 657.439,-187.778 648.788,-193.895 654.49,-197.954"/>
</g>
<!-- Node26 -->
<g id="node26" class="node"><title>Node26</title>
<g id="a_node26"><a xlink:href="LightData_8inl.html" target="_top" xlink:title="Core/File/LightData.inl">
<polygon fill="white" stroke="black" points="422.5,-291.5 422.5,-310.5 542.5,-310.5 542.5,-291.5 422.5,-291.5"/>
<text text-anchor="middle" x="482.5" y="-298.5" font-family="Helvetica,sans-Serif" font-size="10.00">Core/File/LightData.inl</text>
</a>
</g>
</g>
<!-- Node23&#45;&gt;Node26 -->
<g id="edge33" class="edge"><title>Node23&#45;&gt;Node26</title>
<path fill="none" stroke="midnightblue" d="M477.334,-347.083C475.824,-339.927 475.394,-329.635 476.042,-320.691"/>
<polygon fill="midnightblue" stroke="midnightblue" points="479.515,-321.126 477.369,-310.751 472.577,-320.2 479.515,-321.126"/>
</g>
<!-- Node25&#45;&gt;Node6 -->
<g id="edge30" class="edge"><title>Node25&#45;&gt;Node6</title>
<path fill="none" stroke="midnightblue" d="M671.261,-168.083C678.037,-160.298 688.043,-148.801 696.255,-139.367"/>
<polygon fill="midnightblue" stroke="midnightblue" points="698.958,-141.592 702.883,-131.751 693.678,-136.996 698.958,-141.592"/>
</g>
<!-- Node25&#45;&gt;Node24 -->
<g id="edge31" class="edge"><title>Node25&#45;&gt;Node24</title>
<path fill="none" stroke="midnightblue" d="M607.091,-168.444C531.629,-156.997 400.32,-137.079 339.773,-127.895"/>
<polygon fill="midnightblue" stroke="midnightblue" points="340.072,-124.401 329.66,-126.361 339.022,-131.322 340.072,-124.401"/>
</g>
<!-- Node26&#45;&gt;Node23 -->
<g id="edge34" class="edge"><title>Node26&#45;&gt;Node23</title>
<path fill="none" stroke="midnightblue" d="M487.631,-310.751C489.157,-317.858 489.604,-328.136 488.972,-337.101"/>
<polygon fill="midnightblue" stroke="midnightblue" points="485.493,-336.713 487.666,-347.083 492.434,-337.622 485.493,-336.713"/>
</g>
<!-- Node27 -->
<g id="node27" class="node"><title>Node27</title>
<g id="a_node27"><a xlink:href="Log_8hpp.html" target="_top" xlink:title="Core/Log/Log.hpp">
<polygon fill="white" stroke="black" points="401,-230 401,-249 502,-249 502,-230 401,-230"/>
<text text-anchor="middle" x="451.5" y="-237" font-family="Helvetica,sans-Serif" font-size="10.00">Core/Log/Log.hpp</text>
</a>
</g>
</g>
<!-- Node26&#45;&gt;Node27 -->
<g id="edge35" class="edge"><title>Node26&#45;&gt;Node27</title>
<path fill="none" stroke="midnightblue" d="M478.058,-291.475C473.547,-282.815 466.426,-269.149 460.693,-258.145"/>
<polygon fill="midnightblue" stroke="midnightblue" points="463.658,-256.26 455.933,-249.009 457.45,-259.495 463.658,-256.26"/>
</g>
<!-- Node27&#45;&gt;Node6 -->
<g id="edge36" class="edge"><title>Node27&#45;&gt;Node6</title>
<path fill="none" stroke="midnightblue" d="M468.079,-229.952C504.212,-211.324 586.97,-168.673 588.5,-168 617.016,-155.46 650.236,-143.364 674.805,-134.877"/>
<polygon fill="midnightblue" stroke="midnightblue" points="676.104,-138.132 684.432,-131.583 673.838,-131.509 676.104,-138.132"/>
</g>
<!-- Node27&#45;&gt;Node11 -->
<g id="edge37" class="edge"><title>Node27&#45;&gt;Node11</title>
<path fill="none" stroke="midnightblue" d="M444.143,-229.912C436.518,-220.395 425.086,-204.236 420.5,-188 418.084,-179.446 418.911,-176.746 420.5,-168 430.097,-115.183 456.47,-57.0151 470.479,-28.5953"/>
<polygon fill="midnightblue" stroke="midnightblue" points="473.669,-30.0432 475.027,-19.5358 467.413,-26.9026 473.669,-30.0432"/>
</g>
<!-- Node27&#45;&gt;Node24 -->
<g id="edge39" class="edge"><title>Node27&#45;&gt;Node24</title>
<path fill="none" stroke="midnightblue" d="M440.591,-229.969C427.823,-219.966 406.061,-202.862 387.5,-188 366.402,-171.107 342.354,-151.523 326.179,-138.302"/>
<polygon fill="midnightblue" stroke="midnightblue" points="328.028,-135.293 318.072,-131.67 323.596,-140.711 328.028,-135.293"/>
</g>
<!-- Node28 -->
<g id="node28" class="node"><title>Node28</title>
<polygon fill="white" stroke="#bfbfbf" points="492,-168.5 492,-187.5 541,-187.5 541,-168.5 492,-168.5"/>
<text text-anchor="middle" x="516.5" y="-175.5" font-family="Helvetica,sans-Serif" font-size="10.00">stdio.h</text>
</g>
<!-- Node27&#45;&gt;Node28 -->
<g id="edge38" class="edge"><title>Node27&#45;&gt;Node28</title>
<path fill="none" stroke="midnightblue" d="M460.813,-229.975C470.949,-220.697 487.364,-205.671 499.752,-194.331"/>
<polygon fill="midnightblue" stroke="midnightblue" points="502.191,-196.843 507.204,-187.509 497.465,-191.68 502.191,-196.843"/>
</g>
<!-- Node29 -->
<g id="node29" class="node"><title>Node29</title>
<g id="a_node29"><a xlink:href="StringUtils_8hpp.html" target="_top" xlink:title="Core/String/StringUtils.hpp">
<polygon fill="white" stroke="black" points="191.5,-168.5 191.5,-187.5 335.5,-187.5 335.5,-168.5 191.5,-168.5"/>
<text text-anchor="middle" x="263.5" y="-175.5" font-family="Helvetica,sans-Serif" font-size="10.00">Core/String/StringUtils.hpp</text>
</a>
</g>
</g>
<!-- Node27&#45;&gt;Node29 -->
<g id="edge40" class="edge"><title>Node27&#45;&gt;Node29</title>
<path fill="none" stroke="midnightblue" d="M424.564,-229.975C391.897,-219.636 336.681,-202.161 300.157,-190.602"/>
<polygon fill="midnightblue" stroke="midnightblue" points="300.976,-187.19 290.386,-187.509 298.864,-193.863 300.976,-187.19"/>
</g>
<!-- Node30 -->
<g id="node30" class="node"><title>Node30</title>
<polygon fill="white" stroke="#bfbfbf" points="429.5,-168.5 429.5,-187.5 473.5,-187.5 473.5,-168.5 429.5,-168.5"/>
<text text-anchor="middle" x="451.5" y="-175.5" font-family="Helvetica,sans-Serif" font-size="10.00">ctime</text>
</g>
<!-- Node27&#45;&gt;Node30 -->
<g id="edge44" class="edge"><title>Node27&#45;&gt;Node30</title>
<path fill="none" stroke="midnightblue" d="M451.5,-229.975C451.5,-221.58 451.5,-208.481 451.5,-197.663"/>
<polygon fill="midnightblue" stroke="midnightblue" points="455,-197.509 451.5,-187.509 448,-197.509 455,-197.509"/>
</g>
<!-- Node29&#45;&gt;Node4 -->
<g id="edge43" class="edge"><title>Node29&#45;&gt;Node4</title>
<path fill="none" stroke="midnightblue" d="M241.633,-168.444C218.721,-159.478 182.525,-145.314 156.634,-135.183"/>
<polygon fill="midnightblue" stroke="midnightblue" points="157.852,-131.901 147.264,-131.516 155.301,-138.42 157.852,-131.901"/>
</g>
<!-- Node29&#45;&gt;Node6 -->
<g id="edge41" class="edge"><title>Node29&#45;&gt;Node6</title>
<path fill="none" stroke="midnightblue" d="M334.328,-168.444C421.914,-157.863 569.417,-140.044 651.273,-130.155"/>
<polygon fill="midnightblue" stroke="midnightblue" points="651.898,-133.605 661.406,-128.931 651.059,-126.655 651.898,-133.605"/>
</g>
<!-- Node29&#45;&gt;Node24 -->
<g id="edge42" class="edge"><title>Node29&#45;&gt;Node24</title>
<path fill="none" stroke="midnightblue" d="M270.766,-168.083C277.045,-160.377 286.288,-149.033 293.931,-139.653"/>
<polygon fill="midnightblue" stroke="midnightblue" points="296.766,-141.714 300.369,-131.751 291.339,-137.293 296.766,-141.714"/>
</g>
<!-- Node31&#45;&gt;Node7 -->
<g id="edge46" class="edge"><title>Node31&#45;&gt;Node7</title>
<path fill="none" stroke="midnightblue" d="M902.332,-291.334C924.362,-271.94 976.106,-226.532 980.5,-224 1025.98,-197.788 1116.42,-209.68 1084.5,-168 1047.77,-120.037 878.423,-89.6532 780.668,-75.7951"/>
<polygon fill="midnightblue" stroke="midnightblue" points="780.955,-72.3014 770.567,-74.3859 779.988,-79.2343 780.955,-72.3014"/>
</g>
</g>
</svg>
