<?xml version="1.0" encoding="UTF-8" standalone="no"?>
<!DOCTYPE svg PUBLIC "-//W3C//DTD SVG 1.1//EN"
 "http://www.w3.org/Graphics/SVG/1.1/DTD/svg11.dtd">
<!-- Generated by graphviz version 2.38.0 (20140413.2041)
 -->
<!-- Title: /home/travis/build/STORM&#45;IRIT/Radium&#45;Engine/src/Core/File/CameraData.inl Pages: 1 -->
<svg width="1792pt" height="464pt"
 viewBox="0.00 0.00 1792.01 464.00" xmlns="http://www.w3.org/2000/svg" xmlns:xlink="http://www.w3.org/1999/xlink">
<g id="graph0" class="graph" transform="scale(1 1) rotate(0) translate(4 460)">
<title>/home/travis/build/STORM&#45;IRIT/Radium&#45;Engine/src/Core/File/CameraData.inl</title>
<polygon fill="white" stroke="none" points="-4,4 -4,-460 1788.01,-460 1788.01,4 -4,4"/>
<!-- Node1 -->
<g id="node1" class="node"><title>Node1</title>
<polygon fill="#bfbfbf" stroke="black" points="1139,-414.5 1139,-455.5 1294,-455.5 1294,-414.5 1139,-414.5"/>
<text text-anchor="start" x="1147" y="-443.5" font-family="Helvetica,sans-Serif" font-size="10.00">/home/travis/build</text>
<text text-anchor="start" x="1147" y="-432.5" font-family="Helvetica,sans-Serif" font-size="10.00">/STORM&#45;IRIT/Radium&#45;Engine</text>
<text text-anchor="middle" x="1216.5" y="-421.5" font-family="Helvetica,sans-Serif" font-size="10.00">/src/Core/File/CameraData.inl</text>
</g>
<!-- Node2 -->
<g id="node2" class="node"><title>Node2</title>
<g id="a_node2"><a xlink:href="CameraData_8hpp.html" target="_top" xlink:title="Core/File/CameraData.hpp">
<polygon fill="white" stroke="black" points="1145,-358.5 1145,-377.5 1288,-377.5 1288,-358.5 1145,-358.5"/>
<text text-anchor="middle" x="1216.5" y="-365.5" font-family="Helvetica,sans-Serif" font-size="10.00">Core/File/CameraData.hpp</text>
</a>
</g>
</g>
<!-- Node1&#45;&gt;Node2 -->
<g id="edge1" class="edge"><title>Node1&#45;&gt;Node2</title>
<path fill="none" stroke="midnightblue" d="M1210.25,-414.498C1209.56,-405.969 1209.58,-396.011 1210.33,-387.59"/>
<polygon fill="midnightblue" stroke="midnightblue" points="1213.8,-388.044 1211.74,-377.652 1206.87,-387.065 1213.8,-388.044"/>
</g>
<!-- Node28 -->
<g id="node28" class="node"><title>Node28</title>
<g id="a_node28"><a xlink:href="Log_8hpp.html" target="_top" xlink:title="Core/Log/Log.hpp">
<polygon fill="white" stroke="black" points="1579,-302.5 1579,-321.5 1680,-321.5 1680,-302.5 1579,-302.5"/>
<text text-anchor="middle" x="1629.5" y="-309.5" font-family="Helvetica,sans-Serif" font-size="10.00">Core/Log/Log.hpp</text>
</a>
</g>
</g>
<!-- Node1&#45;&gt;Node28 -->
<g id="edge38" class="edge"><title>Node1&#45;&gt;Node28</title>
<path fill="none" stroke="midnightblue" d="M1283.31,-414.425C1370.35,-388.924 1519.72,-345.163 1590.33,-324.476"/>
<polygon fill="midnightblue" stroke="midnightblue" points="1591.55,-327.766 1600.16,-321.596 1589.58,-321.049 1591.55,-327.766"/>
</g>
<!-- Node2&#45;&gt;Node1 -->
<g id="edge37" class="edge"><title>Node2&#45;&gt;Node1</title>
<path fill="none" stroke="midnightblue" d="M1221.26,-377.652C1222.73,-384.524 1223.38,-394.559 1223.23,-404.263"/>
<polygon fill="midnightblue" stroke="midnightblue" points="1219.72,-404.344 1222.75,-414.498 1226.71,-404.674 1219.72,-404.344"/>
</g>
<!-- Node3 -->
<g id="node3" class="node"><title>Node3</title>
<polygon fill="white" stroke="#bfbfbf" points="1217,-302.5 1217,-321.5 1274,-321.5 1274,-302.5 1217,-302.5"/>
<text text-anchor="middle" x="1245.5" y="-309.5" font-family="Helvetica,sans-Serif" font-size="10.00">memory</text>
</g>
<!-- Node2&#45;&gt;Node3 -->
<g id="edge2" class="edge"><title>Node2&#45;&gt;Node3</title>
<path fill="none" stroke="midnightblue" d="M1221.29,-358.083C1225.26,-350.691 1231.03,-339.953 1235.93,-330.811"/>
<polygon fill="midnightblue" stroke="midnightblue" points="1239.15,-332.217 1240.8,-321.751 1232.99,-328.905 1239.15,-332.217"/>
</g>
<!-- Node4 -->
<g id="node4" class="node"><title>Node4</title>
<polygon fill="white" stroke="#bfbfbf" points="1373.5,-174 1373.5,-193 1417.5,-193 1417.5,-174 1373.5,-174"/>
<text text-anchor="middle" x="1395.5" y="-181" font-family="Helvetica,sans-Serif" font-size="10.00">string</text>
</g>
<!-- Node2&#45;&gt;Node4 -->
<g id="edge3" class="edge"><title>Node2&#45;&gt;Node4</title>
<path fill="none" stroke="midnightblue" d="M1235.86,-358.409C1253.29,-350.244 1279.2,-337.007 1299.5,-322 1328.06,-300.886 1335.86,-294.898 1356.5,-266 1370.85,-245.917 1382.29,-219.733 1388.98,-202.535"/>
<polygon fill="midnightblue" stroke="midnightblue" points="1392.28,-203.714 1392.51,-193.122 1385.72,-201.254 1392.28,-203.714"/>
</g>
<!-- Node5 -->
<g id="node5" class="node"><title>Node5</title>
<polygon fill="white" stroke="#bfbfbf" points="1165,-174 1165,-193 1212,-193 1212,-174 1165,-174"/>
<text text-anchor="middle" x="1188.5" y="-181" font-family="Helvetica,sans-Serif" font-size="10.00">vector</text>
</g>
<!-- Node2&#45;&gt;Node5 -->
<g id="edge4" class="edge"><title>Node2&#45;&gt;Node5</title>
<path fill="none" stroke="midnightblue" d="M1214.62,-358.402C1212.68,-349.366 1209.65,-334.727 1207.5,-322 1200.37,-279.775 1193.98,-229.917 1190.74,-203.369"/>
<polygon fill="midnightblue" stroke="midnightblue" points="1194.19,-202.724 1189.52,-193.215 1187.24,-203.562 1194.19,-202.724"/>
</g>
<!-- Node6 -->
<g id="node6" class="node"><title>Node6</title>
<g id="a_node6"><a xlink:href="VectorArray_8hpp.html" target="_top" xlink:title="Core/Containers/VectorArray.hpp">
<polygon fill="white" stroke="black" points="987,-302.5 987,-321.5 1160,-321.5 1160,-302.5 987,-302.5"/>
<text text-anchor="middle" x="1073.5" y="-309.5" font-family="Helvetica,sans-Serif" font-size="10.00">Core/Containers/VectorArray.hpp</text>
</a>
</g>
</g>
<!-- Node2&#45;&gt;Node6 -->
<g id="edge5" class="edge"><title>Node2&#45;&gt;Node6</title>
<path fill="none" stroke="midnightblue" d="M1193.84,-358.444C1170.1,-349.478 1132.59,-335.314 1105.76,-325.183"/>
<polygon fill="midnightblue" stroke="midnightblue" points="1106.64,-321.775 1096.05,-321.516 1104.17,-328.324 1106.64,-321.775"/>
</g>
<!-- Node8 -->
<g id="node8" class="node"><title>Node8</title>
<g id="a_node8"><a xlink:href="RaCore_8hpp.html" target="_top" xlink:title="Core/RaCore.hpp">
<polygon fill="white" stroke="black" points="1087.5,-112.5 1087.5,-131.5 1185.5,-131.5 1185.5,-112.5 1087.5,-112.5"/>
<text text-anchor="middle" x="1136.5" y="-119.5" font-family="Helvetica,sans-Serif" font-size="10.00">Core/RaCore.hpp</text>
</a>
</g>
</g>
<!-- Node2&#45;&gt;Node8 -->
<g id="edge36" class="edge"><title>Node2&#45;&gt;Node8</title>
<path fill="none" stroke="midnightblue" d="M1144.63,-366.379C936.47,-362.901 340.39,-340.54 222.5,-199 213.682,-188.413 213,-177.979 222.5,-168 251.994,-137.018 878.912,-126.315 1077.04,-123.699"/>
<polygon fill="midnightblue" stroke="midnightblue" points="1077.3,-127.196 1087.26,-123.566 1077.21,-120.196 1077.3,-127.196"/>
</g>
<!-- Node16 -->
<g id="node16" class="node"><title>Node16</title>
<g id="a_node16"><a xlink:href="LinearAlgebra_8hpp.html" target="_top" xlink:title="Core/Math/LinearAlgebra.hpp">
<polygon fill="white" stroke="black" points="599.5,-241 599.5,-260 755.5,-260 755.5,-241 599.5,-241"/>
<text text-anchor="middle" x="677.5" y="-248" font-family="Helvetica,sans-Serif" font-size="10.00">Core/Math/LinearAlgebra.hpp</text>
</a>
</g>
</g>
<!-- Node2&#45;&gt;Node16 -->
<g id="edge35" class="edge"><title>Node2&#45;&gt;Node16</title>
<path fill="none" stroke="midnightblue" d="M1167.85,-358.498C1119.47,-349.888 1043.18,-335.893 977.5,-322 886.149,-302.676 779.926,-276.935 721.563,-262.506"/>
<polygon fill="midnightblue" stroke="midnightblue" points="722.13,-259.041 711.582,-260.034 720.447,-265.836 722.13,-259.041"/>
</g>
<!-- Node27 -->
<g id="node27" class="node"><title>Node27</title>
<g id="a_node27"><a xlink:href="AssetData_8hpp.html" target="_top" xlink:title="Core/File/AssetData.hpp">
<polygon fill="white" stroke="black" points="1217,-241 1217,-260 1348,-260 1348,-241 1217,-241"/>
<text text-anchor="middle" x="1282.5" y="-248" font-family="Helvetica,sans-Serif" font-size="10.00">Core/File/AssetData.hpp</text>
</a>
</g>
</g>
<!-- Node2&#45;&gt;Node27 -->
<g id="edge32" class="edge"><title>Node2&#45;&gt;Node27</title>
<path fill="none" stroke="midnightblue" d="M1238.96,-358.382C1254.27,-351.184 1273.36,-339.288 1282.5,-322 1290.89,-306.133 1289.67,-285.315 1287.09,-270.422"/>
<polygon fill="midnightblue" stroke="midnightblue" points="1290.46,-269.444 1285,-260.368 1283.61,-270.872 1290.46,-269.444"/>
</g>
<!-- Node6&#45;&gt;Node5 -->
<g id="edge31" class="edge"><title>Node6&#45;&gt;Node5</title>
<path fill="none" stroke="midnightblue" d="M1085.09,-302.351C1096.27,-293.739 1113.38,-279.842 1126.5,-266 1146.11,-245.314 1165.47,-218.576 1177.21,-201.477"/>
<polygon fill="midnightblue" stroke="midnightblue" points="1180.19,-203.313 1182.9,-193.069 1174.39,-199.39 1180.19,-203.313"/>
</g>
<!-- Node7 -->
<g id="node7" class="node"><title>Node7</title>
<g id="a_node7"><a xlink:href="AlignedStdVector_8hpp.html" target="_top" xlink:title="Core/Containers/AlignedStd\lVector.hpp">
<polygon fill="white" stroke="black" points="936,-235.5 936,-265.5 1085,-265.5 1085,-235.5 936,-235.5"/>
<text text-anchor="start" x="944" y="-253.5" font-family="Helvetica,sans-Serif" font-size="10.00">Core/Containers/AlignedStd</text>
<text text-anchor="middle" x="1010.5" y="-242.5" font-family="Helvetica,sans-Serif" font-size="10.00">Vector.hpp</text>
</a>
</g>
</g>
<!-- Node6&#45;&gt;Node7 -->
<g id="edge6" class="edge"><title>Node6&#45;&gt;Node7</title>
<path fill="none" stroke="midnightblue" d="M1064.47,-302.475C1056.26,-294.718 1043.79,-282.943 1032.91,-272.665"/>
<polygon fill="midnightblue" stroke="midnightblue" points="1035.02,-269.845 1025.35,-265.523 1030.21,-274.934 1035.02,-269.845"/>
</g>
<!-- Node6&#45;&gt;Node8 -->
<g id="edge30" class="edge"><title>Node6&#45;&gt;Node8</title>
<path fill="none" stroke="midnightblue" d="M1077.82,-302.172C1082.12,-293.197 1088.74,-278.825 1093.5,-266 1109.82,-221.992 1124.57,-168.705 1131.8,-141.276"/>
<polygon fill="midnightblue" stroke="midnightblue" points="1135.21,-142.063 1134.35,-131.504 1128.44,-140.298 1135.21,-142.063"/>
</g>
<!-- Node6&#45;&gt;Node16 -->
<g id="edge16" class="edge"><title>Node6&#45;&gt;Node16</title>
<path fill="none" stroke="midnightblue" d="M1016.76,-302.475C944.718,-291.65 820.608,-273.002 744.135,-261.512"/>
<polygon fill="midnightblue" stroke="midnightblue" points="744.541,-258.034 734.132,-260.009 743.501,-264.956 744.541,-258.034"/>
</g>
<!-- Node7&#45;&gt;Node5 -->
<g id="edge15" class="edge"><title>Node7&#45;&gt;Node5</title>
<path fill="none" stroke="midnightblue" d="M1049.12,-235.396C1080.91,-223.789 1125.48,-207.515 1155.59,-196.519"/>
<polygon fill="midnightblue" stroke="midnightblue" points="1157.01,-199.725 1165.2,-193.007 1154.61,-193.15 1157.01,-199.725"/>
</g>
<!-- Node7&#45;&gt;Node8 -->
<g id="edge7" class="edge"><title>Node7&#45;&gt;Node8</title>
<path fill="none" stroke="midnightblue" d="M1032.56,-235.455C1046.5,-226.029 1064.48,-212.842 1078.5,-199 1097.06,-180.677 1114.69,-156.209 1125.54,-140.046"/>
<polygon fill="midnightblue" stroke="midnightblue" points="1128.53,-141.876 1131.1,-131.598 1122.68,-138.029 1128.53,-141.876"/>
</g>
<!-- Node15 -->
<g id="node15" class="node"><title>Node15</title>
<polygon fill="white" stroke="#bfbfbf" points="977,-174 977,-193 1070,-193 1070,-174 977,-174"/>
<text text-anchor="middle" x="1023.5" y="-181" font-family="Helvetica,sans-Serif" font-size="10.00">Eigen/StdVector</text>
</g>
<!-- Node7&#45;&gt;Node15 -->
<g id="edge14" class="edge"><title>Node7&#45;&gt;Node15</title>
<path fill="none" stroke="midnightblue" d="M1013.32,-235.396C1015.21,-225.963 1017.71,-213.448 1019.76,-203.189"/>
<polygon fill="midnightblue" stroke="midnightblue" points="1023.23,-203.687 1021.76,-193.195 1016.37,-202.314 1023.23,-203.687"/>
</g>
<!-- Node9 -->
<g id="node9" class="node"><title>Node9</title>
<g id="a_node9"><a xlink:href="CoreMacros_8hpp.html" target="_top" xlink:title="Core/CoreMacros.hpp">
<polygon fill="white" stroke="black" points="1221.5,-56.5 1221.5,-75.5 1341.5,-75.5 1341.5,-56.5 1221.5,-56.5"/>
<text text-anchor="middle" x="1281.5" y="-63.5" font-family="Helvetica,sans-Serif" font-size="10.00">Core/CoreMacros.hpp</text>
</a>
</g>
</g>
<!-- Node8&#45;&gt;Node9 -->
<g id="edge8" class="edge"><title>Node8&#45;&gt;Node9</title>
<path fill="none" stroke="midnightblue" d="M1159.48,-112.444C1183.66,-103.438 1221.92,-89.1891 1249.15,-79.049"/>
<polygon fill="midnightblue" stroke="midnightblue" points="1250.48,-82.2864 1258.63,-75.5164 1248.04,-75.7265 1250.48,-82.2864"/>
</g>
<!-- Node10 -->
<g id="node10" class="node"><title>Node10</title>
<polygon fill="white" stroke="#bfbfbf" points="1289.5,-0.5 1289.5,-19.5 1341.5,-19.5 1341.5,-0.5 1289.5,-0.5"/>
<text text-anchor="middle" x="1315.5" y="-7.5" font-family="Helvetica,sans-Serif" font-size="10.00">cassert</text>
</g>
<!-- Node9&#45;&gt;Node10 -->
<g id="edge9" class="edge"><title>Node9&#45;&gt;Node10</title>
<path fill="none" stroke="midnightblue" d="M1287.11,-56.083C1291.87,-48.5341 1298.82,-37.4948 1304.65,-28.2298"/>
<polygon fill="midnightblue" stroke="midnightblue" points="1307.62,-30.0783 1309.99,-19.7511 1301.7,-26.3486 1307.62,-30.0783"/>
</g>
<!-- Node11 -->
<g id="node11" class="node"><title>Node11</title>
<polygon fill="white" stroke="#bfbfbf" points="1360,-0.5 1360,-19.5 1405,-19.5 1405,-0.5 1360,-0.5"/>
<text text-anchor="middle" x="1382.5" y="-7.5" font-family="Helvetica,sans-Serif" font-size="10.00">cstdio</text>
</g>
<!-- Node9&#45;&gt;Node11 -->
<g id="edge10" class="edge"><title>Node9&#45;&gt;Node11</title>
<path fill="none" stroke="midnightblue" d="M1297.73,-56.324C1313.85,-47.7034 1338.8,-34.3643 1357.46,-24.3855"/>
<polygon fill="midnightblue" stroke="midnightblue" points="1359.14,-27.456 1366.31,-19.6545 1355.84,-21.283 1359.14,-27.456"/>
</g>
<!-- Node12 -->
<g id="node12" class="node"><title>Node12</title>
<polygon fill="white" stroke="#bfbfbf" points="1146,-0.5 1146,-19.5 1205,-19.5 1205,-0.5 1146,-0.5"/>
<text text-anchor="middle" x="1175.5" y="-7.5" font-family="Helvetica,sans-Serif" font-size="10.00">iostream</text>
</g>
<!-- Node9&#45;&gt;Node12 -->
<g id="edge11" class="edge"><title>Node9&#45;&gt;Node12</title>
<path fill="none" stroke="midnightblue" d="M1264.47,-56.324C1247.47,-47.6641 1221.12,-34.2424 1201.51,-24.249"/>
<polygon fill="midnightblue" stroke="midnightblue" points="1202.99,-21.0752 1192.49,-19.6545 1199.81,-27.3125 1202.99,-21.0752"/>
</g>
<!-- Node13 -->
<g id="node13" class="node"><title>Node13</title>
<polygon fill="white" stroke="#bfbfbf" points="1533.5,-0.5 1533.5,-19.5 1589.5,-19.5 1589.5,-0.5 1533.5,-0.5"/>
<text text-anchor="middle" x="1561.5" y="-7.5" font-family="Helvetica,sans-Serif" font-size="10.00">sstream</text>
</g>
<!-- Node9&#45;&gt;Node13 -->
<g id="edge12" class="edge"><title>Node9&#45;&gt;Node13</title>
<path fill="none" stroke="midnightblue" d="M1325.87,-56.4435C1380.25,-45.9544 1471.53,-28.3518 1523.06,-18.4137"/>
<polygon fill="midnightblue" stroke="midnightblue" points="1523.96,-21.804 1533.12,-16.4736 1522.64,-14.9307 1523.96,-21.804"/>
</g>
<!-- Node14 -->
<g id="node14" class="node"><title>Node14</title>
<polygon fill="white" stroke="#bfbfbf" points="1223.5,-0.5 1223.5,-19.5 1271.5,-19.5 1271.5,-0.5 1223.5,-0.5"/>
<text text-anchor="middle" x="1247.5" y="-7.5" font-family="Helvetica,sans-Serif" font-size="10.00">thread</text>
</g>
<!-- Node9&#45;&gt;Node14 -->
<g id="edge13" class="edge"><title>Node9&#45;&gt;Node14</title>
<path fill="none" stroke="midnightblue" d="M1275.89,-56.083C1271.13,-48.5341 1264.18,-37.4948 1258.35,-28.2298"/>
<polygon fill="midnightblue" stroke="midnightblue" points="1261.3,-26.3486 1253.01,-19.7511 1255.38,-30.0783 1261.3,-26.3486"/>
</g>
<!-- Node16&#45;&gt;Node8 -->
<g id="edge17" class="edge"><title>Node16&#45;&gt;Node8</title>
<path fill="none" stroke="midnightblue" d="M755.53,-243.69C806.932,-237.538 874.624,-224.904 929.5,-199 949.21,-189.696 948.09,-177.915 967.5,-168 1001.81,-150.476 1043.62,-139.269 1077.07,-132.422"/>
<polygon fill="midnightblue" stroke="midnightblue" points="1078.03,-135.8 1087.17,-130.434 1076.68,-128.932 1078.03,-135.8"/>
</g>
<!-- Node17 -->
<g id="node17" class="node"><title>Node17</title>
<polygon fill="white" stroke="#bfbfbf" points="852.5,-174 852.5,-193 920.5,-193 920.5,-174 852.5,-174"/>
<text text-anchor="middle" x="886.5" y="-181" font-family="Helvetica,sans-Serif" font-size="10.00">Eigen/Core</text>
</g>
<!-- Node16&#45;&gt;Node17 -->
<g id="edge18" class="edge"><title>Node16&#45;&gt;Node17</title>
<path fill="none" stroke="midnightblue" d="M706.669,-240.914C739.886,-231.07 795.739,-214.314 843.5,-199 846.243,-198.121 849.08,-197.196 851.927,-196.259"/>
<polygon fill="midnightblue" stroke="midnightblue" points="853.148,-199.541 861.53,-193.061 850.937,-192.899 853.148,-199.541"/>
</g>
<!-- Node18 -->
<g id="node18" class="node"><title>Node18</title>
<polygon fill="white" stroke="#bfbfbf" points="231.5,-174 231.5,-193 325.5,-193 325.5,-174 231.5,-174"/>
<text text-anchor="middle" x="278.5" y="-181" font-family="Helvetica,sans-Serif" font-size="10.00">Eigen/Geometry</text>
</g>
<!-- Node16&#45;&gt;Node18 -->
<g id="edge19" class="edge"><title>Node16&#45;&gt;Node18</title>
<path fill="none" stroke="midnightblue" d="M603.839,-240.974C534.111,-232.357 426.677,-217.663 334.5,-199 329.462,-197.98 324.199,-196.788 319.004,-195.534"/>
<polygon fill="midnightblue" stroke="midnightblue" points="319.722,-192.106 309.172,-193.074 318.023,-198.896 319.722,-192.106"/>
</g>
<!-- Node19 -->
<g id="node19" class="node"><title>Node19</title>
<polygon fill="white" stroke="#bfbfbf" points="343.5,-174 343.5,-193 423.5,-193 423.5,-174 343.5,-174"/>
<text text-anchor="middle" x="383.5" y="-181" font-family="Helvetica,sans-Serif" font-size="10.00">Eigen/Sparse</text>
</g>
<!-- Node16&#45;&gt;Node19 -->
<g id="edge20" class="edge"><title>Node16&#45;&gt;Node19</title>
<path fill="none" stroke="midnightblue" d="M630.265,-240.99C580.728,-231.78 500.745,-216.099 432.5,-199 428.641,-198.033 424.63,-196.96 420.64,-195.848"/>
<polygon fill="midnightblue" stroke="midnightblue" points="421.436,-192.435 410.859,-193.04 419.504,-199.163 421.436,-192.435"/>
</g>
<!-- Node20 -->
<g id="node20" class="node"><title>Node20</title>
<polygon fill="white" stroke="#bfbfbf" points="442,-174 442,-193 505,-193 505,-174 442,-174"/>
<text text-anchor="middle" x="473.5" y="-181" font-family="Helvetica,sans-Serif" font-size="10.00">functional</text>
</g>
<!-- Node16&#45;&gt;Node20 -->
<g id="edge21" class="edge"><title>Node16&#45;&gt;Node20</title>
<path fill="none" stroke="midnightblue" d="M648.33,-240.988C615.429,-231.279 560.393,-214.709 513.5,-199 511.11,-198.199 508.646,-197.354 506.171,-196.491"/>
<polygon fill="midnightblue" stroke="midnightblue" points="507.294,-193.176 496.699,-193.128 504.951,-199.772 507.294,-193.176"/>
</g>
<!-- Node21 -->
<g id="node21" class="node"><title>Node21</title>
<polygon fill="white" stroke="#bfbfbf" points="523,-168.5 523,-198.5 668,-198.5 668,-168.5 523,-168.5"/>
<text text-anchor="start" x="531" y="-186.5" font-family="Helvetica,sans-Serif" font-size="10.00">unsupported/Eigen/Aligned</text>
<text text-anchor="middle" x="595.5" y="-175.5" font-family="Helvetica,sans-Serif" font-size="10.00">Vector3</text>
</g>
<!-- Node16&#45;&gt;Node21 -->
<g id="edge22" class="edge"><title>Node16&#45;&gt;Node21</title>
<path fill="none" stroke="midnightblue" d="M666.441,-240.734C654.933,-231.611 636.505,-217.004 621.315,-204.963"/>
<polygon fill="midnightblue" stroke="midnightblue" points="623.285,-202.058 613.274,-198.589 618.936,-207.544 623.285,-202.058"/>
</g>
<!-- Node22 -->
<g id="node22" class="node"><title>Node22</title>
<g id="a_node22"><a xlink:href="Math_8hpp.html" target="_top" xlink:title="Core/Math/Math.hpp">
<polygon fill="white" stroke="black" points="61.5,-174 61.5,-193 175.5,-193 175.5,-174 61.5,-174"/>
<text text-anchor="middle" x="118.5" y="-181" font-family="Helvetica,sans-Serif" font-size="10.00">Core/Math/Math.hpp</text>
</a>
</g>
</g>
<!-- Node16&#45;&gt;Node22 -->
<g id="edge23" class="edge"><title>Node16&#45;&gt;Node22</title>
<path fill="none" stroke="midnightblue" d="M599.325,-241.496C508.619,-232.052 354.595,-215.536 222.5,-199 210.629,-197.514 198.01,-195.837 185.807,-194.165"/>
<polygon fill="midnightblue" stroke="midnightblue" points="186.064,-190.667 175.679,-192.765 185.106,-197.601 186.064,-190.667"/>
</g>
<!-- Node26 -->
<g id="node26" class="node"><title>Node26</title>
<g id="a_node26"><a xlink:href="LinearAlgebra_8inl.html" target="_top" xlink:title="Core/Math/LinearAlgebra.inl">
<polygon fill="white" stroke="black" points="686,-174 686,-193 835,-193 835,-174 686,-174"/>
<text text-anchor="middle" x="760.5" y="-181" font-family="Helvetica,sans-Serif" font-size="10.00">Core/Math/LinearAlgebra.inl</text>
</a>
</g>
</g>
<!-- Node16&#45;&gt;Node26 -->
<g id="edge29" class="edge"><title>Node16&#45;&gt;Node26</title>
<path fill="none" stroke="midnightblue" d="M688.694,-240.734C702.134,-230.208 724.9,-212.379 741.196,-199.617"/>
<polygon fill="midnightblue" stroke="midnightblue" points="743.769,-202.049 749.484,-193.127 739.453,-196.537 743.769,-202.049"/>
</g>
<!-- Node22&#45;&gt;Node8 -->
<g id="edge24" class="edge"><title>Node22&#45;&gt;Node8</title>
<path fill="none" stroke="midnightblue" d="M154.806,-173.965C165.885,-171.664 178.14,-169.421 189.5,-168 523.241,-126.244 927.575,-122.477 1077.16,-122.657"/>
<polygon fill="midnightblue" stroke="midnightblue" points="1077.47,-126.157 1087.48,-122.676 1077.49,-119.157 1077.47,-126.157"/>
</g>
<!-- Node23 -->
<g id="node23" class="node"><title>Node23</title>
<polygon fill="white" stroke="#bfbfbf" points="189.5,-112.5 189.5,-131.5 251.5,-131.5 251.5,-112.5 189.5,-112.5"/>
<text text-anchor="middle" x="220.5" y="-119.5" font-family="Helvetica,sans-Serif" font-size="10.00">algorithm</text>
</g>
<!-- Node22&#45;&gt;Node23 -->
<g id="edge25" class="edge"><title>Node22&#45;&gt;Node23</title>
<path fill="none" stroke="midnightblue" d="M133.114,-173.975C149.853,-164.211 177.504,-148.081 197.219,-136.581"/>
<polygon fill="midnightblue" stroke="midnightblue" points="199.039,-139.571 205.913,-131.509 195.512,-133.525 199.039,-139.571"/>
</g>
<!-- Node24 -->
<g id="node24" class="node"><title>Node24</title>
<polygon fill="white" stroke="#bfbfbf" points="0,-112.5 0,-131.5 47,-131.5 47,-112.5 0,-112.5"/>
<text text-anchor="middle" x="23.5" y="-119.5" font-family="Helvetica,sans-Serif" font-size="10.00">cmath</text>
</g>
<!-- Node22&#45;&gt;Node24 -->
<g id="edge26" class="edge"><title>Node22&#45;&gt;Node24</title>
<path fill="none" stroke="midnightblue" d="M104.889,-173.975C89.4395,-164.299 64.0101,-148.372 45.6839,-136.894"/>
<polygon fill="midnightblue" stroke="midnightblue" points="47.4187,-133.851 37.0859,-131.509 43.7031,-139.783 47.4187,-133.851"/>
</g>
<!-- Node25 -->
<g id="node25" class="node"><title>Node25</title>
<g id="a_node25"><a xlink:href="Math_8inl.html" target="_top" xlink:title="Core/Math/Math.inl">
<polygon fill="white" stroke="black" points="65,-112.5 65,-131.5 172,-131.5 172,-112.5 65,-112.5"/>
<text text-anchor="middle" x="118.5" y="-119.5" font-family="Helvetica,sans-Serif" font-size="10.00">Core/Math/Math.inl</text>
</a>
</g>
</g>
<!-- Node22&#45;&gt;Node25 -->
<g id="edge27" class="edge"><title>Node22&#45;&gt;Node25</title>
<path fill="none" stroke="midnightblue" d="M113.599,-173.975C111.768,-165.58 111.297,-152.481 112.185,-141.663"/>
<polygon fill="midnightblue" stroke="midnightblue" points="115.686,-141.897 113.603,-131.509 108.754,-140.929 115.686,-141.897"/>
</g>
<!-- Node25&#45;&gt;Node22 -->
<g id="edge28" class="edge"><title>Node25&#45;&gt;Node22</title>
<path fill="none" stroke="midnightblue" d="M123.397,-131.509C125.23,-139.898 125.703,-152.996 124.817,-163.817"/>
<polygon fill="midnightblue" stroke="midnightblue" points="121.315,-163.588 123.401,-173.975 128.248,-164.554 121.315,-163.588"/>
</g>
<!-- Node27&#45;&gt;Node4 -->
<g id="edge34" class="edge"><title>Node27&#45;&gt;Node4</title>
<path fill="none" stroke="midnightblue" d="M1297.74,-240.734C1316.72,-229.818 1349.35,-211.049 1371.65,-198.221"/>
<polygon fill="midnightblue" stroke="midnightblue" points="1373.58,-201.147 1380.5,-193.127 1370.09,-195.08 1373.58,-201.147"/>
</g>
<!-- Node27&#45;&gt;Node8 -->
<g id="edge33" class="edge"><title>Node27&#45;&gt;Node8</title>
<path fill="none" stroke="midnightblue" d="M1277.68,-240.919C1268.36,-224.919 1246.47,-190.15 1220.5,-168 1204.82,-154.628 1184.51,-143.616 1167.79,-135.832"/>
<polygon fill="midnightblue" stroke="midnightblue" points="1168.98,-132.53 1158.43,-131.629 1166.12,-138.916 1168.98,-132.53"/>
</g>
<!-- Node28&#45;&gt;Node4 -->
<g id="edge42" class="edge"><title>Node28&#45;&gt;Node4</title>
<path fill="none" stroke="midnightblue" d="M1578.74,-311.254C1535.72,-308.916 1474.63,-299.263 1433.5,-266 1413.91,-250.153 1403.91,-221.889 1399.21,-203.166"/>
<polygon fill="midnightblue" stroke="midnightblue" points="1402.57,-202.165 1396.96,-193.174 1395.74,-203.698 1402.57,-202.165"/>
</g>
<!-- Node28&#45;&gt;Node8 -->
<g id="edge39" class="edge"><title>Node28&#45;&gt;Node8</title>
<path fill="none" stroke="midnightblue" d="M1638.59,-302.408C1653.09,-287.648 1678.3,-256.95 1662.5,-235 1608.39,-159.814 1322.16,-133.894 1196.15,-126.038"/>
<polygon fill="midnightblue" stroke="midnightblue" points="1196.1,-122.529 1185.91,-125.418 1195.68,-129.516 1196.1,-122.529"/>
</g>
<!-- Node28&#45;&gt;Node13 -->
<g id="edge40" class="edge"><title>Node28&#45;&gt;Node13</title>
<path fill="none" stroke="midnightblue" d="M1680.32,-305.994C1708.61,-300.578 1742.28,-289.332 1763.5,-266 1788.52,-238.482 1782.5,-221.694 1782.5,-184.5 1782.5,-184.5 1782.5,-184.5 1782.5,-121 1782.5,-40.4131 1663.27,-18.8644 1599.96,-13.1027"/>
<polygon fill="midnightblue" stroke="midnightblue" points="1600.19,-9.60984 1589.94,-12.2797 1599.62,-16.5864 1600.19,-9.60984"/>
</g>
<!-- Node29 -->
<g id="node29" class="node"><title>Node29</title>
<polygon fill="white" stroke="#bfbfbf" points="1605,-241 1605,-260 1654,-260 1654,-241 1605,-241"/>
<text text-anchor="middle" x="1629.5" y="-248" font-family="Helvetica,sans-Serif" font-size="10.00">stdio.h</text>
</g>
<!-- Node28&#45;&gt;Node29 -->
<g id="edge41" class="edge"><title>Node28&#45;&gt;Node29</title>
<path fill="none" stroke="midnightblue" d="M1629.5,-302.475C1629.5,-294.08 1629.5,-280.981 1629.5,-270.163"/>
<polygon fill="midnightblue" stroke="midnightblue" points="1633,-270.009 1629.5,-260.009 1626,-270.009 1633,-270.009"/>
</g>
<!-- Node30 -->
<g id="node30" class="node"><title>Node30</title>
<g id="a_node30"><a xlink:href="StringUtils_8hpp.html" target="_top" xlink:title="Core/String/StringUtils.hpp">
<polygon fill="white" stroke="black" points="1442.5,-241 1442.5,-260 1586.5,-260 1586.5,-241 1442.5,-241"/>
<text text-anchor="middle" x="1514.5" y="-248" font-family="Helvetica,sans-Serif" font-size="10.00">Core/String/StringUtils.hpp</text>
</a>
</g>
</g>
<!-- Node28&#45;&gt;Node30 -->
<g id="edge43" class="edge"><title>Node28&#45;&gt;Node30</title>
<path fill="none" stroke="midnightblue" d="M1613.02,-302.475C1593.89,-292.578 1562.13,-276.142 1539.85,-264.615"/>
<polygon fill="midnightblue" stroke="midnightblue" points="1541.44,-261.496 1530.95,-260.009 1538.22,-267.713 1541.44,-261.496"/>
</g>
<!-- Node31 -->
<g id="node31" class="node"><title>Node31</title>
<polygon fill="white" stroke="#bfbfbf" points="1710.5,-241 1710.5,-260 1754.5,-260 1754.5,-241 1710.5,-241"/>
<text text-anchor="middle" x="1732.5" y="-248" font-family="Helvetica,sans-Serif" font-size="10.00">ctime</text>
</g>
<!-- Node28&#45;&gt;Node31 -->
<g id="edge47" class="edge"><title>Node28&#45;&gt;Node31</title>
<path fill="none" stroke="midnightblue" d="M1644.26,-302.475C1661.16,-292.711 1689.08,-276.581 1708.99,-265.081"/>
<polygon fill="midnightblue" stroke="midnightblue" points="1710.86,-268.042 1717.77,-260.009 1707.36,-261.981 1710.86,-268.042"/>
</g>
<!-- Node30&#45;&gt;Node4 -->
<g id="edge45" class="edge"><title>Node30&#45;&gt;Node4</title>
<path fill="none" stroke="midnightblue" d="M1498.45,-240.734C1478.38,-229.769 1443.8,-210.881 1420.31,-198.049"/>
<polygon fill="midnightblue" stroke="midnightblue" points="1421.75,-194.849 1411.29,-193.127 1418.39,-200.993 1421.75,-194.849"/>
</g>
<!-- Node30&#45;&gt;Node5 -->
<g id="edge46" class="edge"><title>Node30&#45;&gt;Node5</title>
<path fill="none" stroke="midnightblue" d="M1471.55,-240.936C1405.82,-227.83 1281.64,-203.071 1222.06,-191.191"/>
<polygon fill="midnightblue" stroke="midnightblue" points="1222.54,-187.718 1212.05,-189.195 1221.17,-194.583 1222.54,-187.718"/>
</g>
<!-- Node30&#45;&gt;Node8 -->
<g id="edge44" class="edge"><title>Node30&#45;&gt;Node8</title>
<path fill="none" stroke="midnightblue" d="M1508.12,-240.835C1494.98,-223.713 1463.05,-185.681 1426.5,-168 1386.88,-148.838 1268.67,-135.045 1195.98,-128.102"/>
<polygon fill="midnightblue" stroke="midnightblue" points="1195.89,-124.577 1185.6,-127.127 1195.23,-131.547 1195.89,-124.577"/>
</g>
</g>
</svg>
