<?xml version="1.0" encoding="UTF-8" standalone="no"?>
<!DOCTYPE svg PUBLIC "-//W3C//DTD SVG 1.1//EN"
 "http://www.w3.org/Graphics/SVG/1.1/DTD/svg11.dtd">
<!-- Generated by graphviz version 2.38.0 (20140413.2041)
 -->
<!-- Title: /home/travis/build/STORM&#45;IRIT/Radium&#45;Engine/src/Core/File/CameraData.cpp Pages: 1 -->
<svg width="1762pt" height="453pt"
 viewBox="0.00 0.00 1761.73 453.00" xmlns="http://www.w3.org/2000/svg" xmlns:xlink="http://www.w3.org/1999/xlink">
<g id="graph0" class="graph" transform="scale(1 1) rotate(0) translate(4 449)">
<title>/home/travis/build/STORM&#45;IRIT/Radium&#45;Engine/src/Core/File/CameraData.cpp</title>
<polygon fill="white" stroke="none" points="-4,4 -4,-449 1757.73,-449 1757.73,4 -4,4"/>
<!-- Node1 -->
<g id="node1" class="node"><title>Node1</title>
<polygon fill="#bfbfbf" stroke="black" points="1032.23,-403.5 1032.23,-444.5 1194.23,-444.5 1194.23,-403.5 1032.23,-403.5"/>
<text text-anchor="start" x="1040.23" y="-432.5" font-family="Helvetica,sans-Serif" font-size="10.00">/home/travis/build</text>
<text text-anchor="start" x="1040.23" y="-421.5" font-family="Helvetica,sans-Serif" font-size="10.00">/STORM&#45;IRIT/Radium&#45;Engine</text>
<text text-anchor="middle" x="1113.23" y="-410.5" font-family="Helvetica,sans-Serif" font-size="10.00">/src/Core/File/CameraData.cpp</text>
</g>
<!-- Node2 -->
<g id="node2" class="node"><title>Node2</title>
<g id="a_node2"><a xlink:href="CameraData_8hpp.html" target="_top" xlink:title="Core/File/CameraData.hpp">
<polygon fill="white" stroke="black" points="498.734,-347.5 498.734,-366.5 641.734,-366.5 641.734,-347.5 498.734,-347.5"/>
<text text-anchor="middle" x="570.234" y="-354.5" font-family="Helvetica,sans-Serif" font-size="10.00">Core/File/CameraData.hpp</text>
</a>
</g>
</g>
<!-- Node1&#45;&gt;Node2 -->
<g id="edge1" class="edge"><title>Node1&#45;&gt;Node2</title>
<path fill="none" stroke="midnightblue" d="M1031.94,-413.269C929.295,-400.981 753.753,-379.968 651.241,-367.697"/>
<polygon fill="midnightblue" stroke="midnightblue" points="651.594,-364.214 641.249,-366.501 650.762,-371.165 651.594,-364.214"/>
</g>
<!-- Node22 -->
<g id="node22" class="node"><title>Node22</title>
<g id="a_node22"><a xlink:href="Math_8hpp.html" target="_top" xlink:title="Core/Math/Math.hpp">
<polygon fill="white" stroke="black" points="1596.23,-174 1596.23,-193 1710.23,-193 1710.23,-174 1596.23,-174"/>
<text text-anchor="middle" x="1653.23" y="-181" font-family="Helvetica,sans-Serif" font-size="10.00">Core/Math/Math.hpp</text>
</a>
</g>
</g>
<!-- Node1&#45;&gt;Node22 -->
<g id="edge49" class="edge"><title>Node1&#45;&gt;Node22</title>
<path fill="none" stroke="midnightblue" d="M1159.25,-403.416C1231.9,-372.407 1377.55,-309.888 1500.23,-255 1544.32,-235.278 1595.19,-211.666 1625.75,-197.388"/>
<polygon fill="midnightblue" stroke="midnightblue" points="1627.35,-200.504 1634.92,-193.097 1624.38,-194.163 1627.35,-200.504"/>
</g>
<!-- Node3 -->
<g id="node3" class="node"><title>Node3</title>
<polygon fill="white" stroke="#bfbfbf" points="570.734,-291.5 570.734,-310.5 627.734,-310.5 627.734,-291.5 570.734,-291.5"/>
<text text-anchor="middle" x="599.234" y="-298.5" font-family="Helvetica,sans-Serif" font-size="10.00">memory</text>
</g>
<!-- Node2&#45;&gt;Node3 -->
<g id="edge2" class="edge"><title>Node2&#45;&gt;Node3</title>
<path fill="none" stroke="midnightblue" d="M575.023,-347.083C578.992,-339.691 584.759,-328.953 589.669,-319.811"/>
<polygon fill="midnightblue" stroke="midnightblue" points="592.886,-321.217 594.534,-310.751 586.719,-317.905 592.886,-321.217"/>
</g>
<!-- Node4 -->
<g id="node4" class="node"><title>Node4</title>
<polygon fill="white" stroke="#bfbfbf" points="164.234,-112.5 164.234,-131.5 208.234,-131.5 208.234,-112.5 164.234,-112.5"/>
<text text-anchor="middle" x="186.234" y="-119.5" font-family="Helvetica,sans-Serif" font-size="10.00">string</text>
</g>
<!-- Node2&#45;&gt;Node4 -->
<g id="edge3" class="edge"><title>Node2&#45;&gt;Node4</title>
<path fill="none" stroke="midnightblue" d="M498.723,-348.861C356.859,-332.849 49.6318,-288.277 5.23375,-199 -24.1147,-139.985 94.1685,-126.762 153.782,-123.824"/>
<polygon fill="midnightblue" stroke="midnightblue" points="153.998,-127.318 163.841,-123.399 153.702,-120.325 153.998,-127.318"/>
</g>
<!-- Node5 -->
<g id="node5" class="node"><title>Node5</title>
<polygon fill="white" stroke="#bfbfbf" points="628.734,-112.5 628.734,-131.5 675.734,-131.5 675.734,-112.5 628.734,-112.5"/>
<text text-anchor="middle" x="652.234" y="-119.5" font-family="Helvetica,sans-Serif" font-size="10.00">vector</text>
</g>
<!-- Node2&#45;&gt;Node5 -->
<g id="edge4" class="edge"><title>Node2&#45;&gt;Node5</title>
<path fill="none" stroke="midnightblue" d="M642.019,-355.976C847.772,-354.23 1432.34,-336.993 1549.23,-199 1558.14,-188.487 1558.77,-177.947 1549.23,-168 1516.65,-133.997 749.046,-137.184 702.234,-132 696.945,-131.414 691.372,-130.605 685.943,-129.71"/>
<polygon fill="midnightblue" stroke="midnightblue" points="686.248,-126.21 675.792,-127.919 685.032,-133.103 686.248,-126.21"/>
</g>
<!-- Node6 -->
<g id="node6" class="node"><title>Node6</title>
<g id="a_node6"><a xlink:href="VectorArray_8hpp.html" target="_top" xlink:title="Core/Containers/VectorArray.hpp">
<polygon fill="white" stroke="black" points="645.734,-291.5 645.734,-310.5 818.734,-310.5 818.734,-291.5 645.734,-291.5"/>
<text text-anchor="middle" x="732.234" y="-298.5" font-family="Helvetica,sans-Serif" font-size="10.00">Core/Containers/VectorArray.hpp</text>
</a>
</g>
</g>
<!-- Node2&#45;&gt;Node6 -->
<g id="edge5" class="edge"><title>Node2&#45;&gt;Node6</title>
<path fill="none" stroke="midnightblue" d="M595.903,-347.444C623.156,-338.359 666.417,-323.939 696.884,-313.783"/>
<polygon fill="midnightblue" stroke="midnightblue" points="698.304,-316.999 706.684,-310.516 696.091,-310.358 698.304,-316.999"/>
</g>
<!-- Node8 -->
<g id="node8" class="node"><title>Node8</title>
<g id="a_node8"><a xlink:href="RaCore_8hpp.html" target="_top" xlink:title="Core/RaCore.hpp">
<polygon fill="white" stroke="black" points="493.234,-112.5 493.234,-131.5 591.234,-131.5 591.234,-112.5 493.234,-112.5"/>
<text text-anchor="middle" x="542.234" y="-119.5" font-family="Helvetica,sans-Serif" font-size="10.00">Core/RaCore.hpp</text>
</a>
</g>
</g>
<!-- Node2&#45;&gt;Node8 -->
<g id="edge36" class="edge"><title>Node2&#45;&gt;Node8</title>
<path fill="none" stroke="midnightblue" d="M568.26,-347.417C566.245,-338.394 563.151,-323.764 561.234,-311 551.995,-249.478 546.018,-175.938 543.54,-141.946"/>
<polygon fill="midnightblue" stroke="midnightblue" points="547.009,-141.384 542.809,-131.657 540.026,-141.88 547.009,-141.384"/>
</g>
<!-- Node16 -->
<g id="node16" class="node"><title>Node16</title>
<g id="a_node16"><a xlink:href="LinearAlgebra_8hpp.html" target="_top" xlink:title="Core/Math/LinearAlgebra.hpp">
<polygon fill="white" stroke="black" points="964.234,-235.5 964.234,-254.5 1120.23,-254.5 1120.23,-235.5 964.234,-235.5"/>
<text text-anchor="middle" x="1042.23" y="-242.5" font-family="Helvetica,sans-Serif" font-size="10.00">Core/Math/LinearAlgebra.hpp</text>
</a>
</g>
</g>
<!-- Node2&#45;&gt;Node16 -->
<g id="edge35" class="edge"><title>Node2&#45;&gt;Node16</title>
<path fill="none" stroke="midnightblue" d="M630.889,-347.485C683.234,-339.637 760.691,-326.824 827.234,-311 891.857,-295.633 965.673,-271.937 1007.84,-257.8"/>
<polygon fill="midnightblue" stroke="midnightblue" points="1008.99,-261.105 1017.34,-254.594 1006.75,-254.472 1008.99,-261.105"/>
</g>
<!-- Node27 -->
<g id="node27" class="node"><title>Node27</title>
<g id="a_node27"><a xlink:href="AssetData_8hpp.html" target="_top" xlink:title="Core/File/AssetData.hpp">
<polygon fill="white" stroke="black" points="220.734,-174 220.734,-193 351.734,-193 351.734,-174 220.734,-174"/>
<text text-anchor="middle" x="286.234" y="-181" font-family="Helvetica,sans-Serif" font-size="10.00">Core/File/AssetData.hpp</text>
</a>
</g>
</g>
<!-- Node2&#45;&gt;Node27 -->
<g id="edge32" class="edge"><title>Node2&#45;&gt;Node27</title>
<path fill="none" stroke="midnightblue" d="M560.017,-347.456C544.276,-334.485 512.904,-309.391 484.234,-291 425.477,-253.31 352.181,-216.303 313.337,-197.42"/>
<polygon fill="midnightblue" stroke="midnightblue" points="314.761,-194.22 304.234,-193.02 311.715,-200.523 314.761,-194.22"/>
</g>
<!-- Node28 -->
<g id="node28" class="node"><title>Node28</title>
<g id="a_node28"><a xlink:href="CameraData_8inl.html" target="_top" xlink:title="Core/File/CameraData.inl">
<polygon fill="white" stroke="black" points="340.734,-291.5 340.734,-310.5 475.734,-310.5 475.734,-291.5 340.734,-291.5"/>
<text text-anchor="middle" x="408.234" y="-298.5" font-family="Helvetica,sans-Serif" font-size="10.00">Core/File/CameraData.inl</text>
</a>
</g>
</g>
<!-- Node2&#45;&gt;Node28 -->
<g id="edge37" class="edge"><title>Node2&#45;&gt;Node28</title>
<path fill="none" stroke="midnightblue" d="M539.476,-347.444C510.357,-338.399 467.146,-324.064 438.272,-313.916"/>
<polygon fill="midnightblue" stroke="midnightblue" points="439.298,-310.566 428.703,-310.516 436.954,-317.162 439.298,-310.566"/>
</g>
<!-- Node6&#45;&gt;Node5 -->
<g id="edge31" class="edge"><title>Node6&#45;&gt;Node5</title>
<path fill="none" stroke="midnightblue" d="M726.373,-291.451C714.968,-274.492 689.565,-235.107 674.234,-199 666.199,-180.076 660.039,-157.302 656.308,-141.648"/>
<polygon fill="midnightblue" stroke="midnightblue" points="659.667,-140.635 654.029,-131.665 652.843,-142.193 659.667,-140.635"/>
</g>
<!-- Node7 -->
<g id="node7" class="node"><title>Node7</title>
<g id="a_node7"><a xlink:href="AlignedStdVector_8hpp.html" target="_top" xlink:title="Core/Containers/AlignedStd\lVector.hpp">
<polygon fill="white" stroke="black" points="683.734,-168.5 683.734,-198.5 832.734,-198.5 832.734,-168.5 683.734,-168.5"/>
<text text-anchor="start" x="691.734" y="-186.5" font-family="Helvetica,sans-Serif" font-size="10.00">Core/Containers/AlignedStd</text>
<text text-anchor="middle" x="758.234" y="-175.5" font-family="Helvetica,sans-Serif" font-size="10.00">Vector.hpp</text>
</a>
</g>
</g>
<!-- Node6&#45;&gt;Node7 -->
<g id="edge6" class="edge"><title>Node6&#45;&gt;Node7</title>
<path fill="none" stroke="midnightblue" d="M734.188,-291.319C738.111,-273.889 747.068,-234.104 752.873,-208.313"/>
<polygon fill="midnightblue" stroke="midnightblue" points="756.29,-209.07 755.072,-198.545 749.461,-207.532 756.29,-209.07"/>
</g>
<!-- Node6&#45;&gt;Node8 -->
<g id="edge30" class="edge"><title>Node6&#45;&gt;Node8</title>
<path fill="none" stroke="midnightblue" d="M723.07,-291.463C693.173,-263.612 598.168,-175.107 559.179,-138.786"/>
<polygon fill="midnightblue" stroke="midnightblue" points="561.456,-136.124 551.753,-131.868 556.685,-141.246 561.456,-136.124"/>
</g>
<!-- Node6&#45;&gt;Node16 -->
<g id="edge16" class="edge"><title>Node6&#45;&gt;Node16</title>
<path fill="none" stroke="midnightblue" d="M781.354,-291.444C836.113,-281.905 924.644,-266.483 983.144,-256.293"/>
<polygon fill="midnightblue" stroke="midnightblue" points="984.092,-259.681 993.343,-254.516 982.891,-252.785 984.092,-259.681"/>
</g>
<!-- Node7&#45;&gt;Node5 -->
<g id="edge15" class="edge"><title>Node7&#45;&gt;Node5</title>
<path fill="none" stroke="midnightblue" d="M733.113,-168.399C715.963,-158.773 693.369,-146.09 676.422,-136.577"/>
<polygon fill="midnightblue" stroke="midnightblue" points="678.091,-133.501 667.658,-131.658 674.665,-139.605 678.091,-133.501"/>
</g>
<!-- Node7&#45;&gt;Node8 -->
<g id="edge7" class="edge"><title>Node7&#45;&gt;Node8</title>
<path fill="none" stroke="midnightblue" d="M707.318,-168.475C669.403,-158.03 618.315,-143.958 583.063,-134.247"/>
<polygon fill="midnightblue" stroke="midnightblue" points="583.684,-130.788 573.114,-131.506 581.825,-137.536 583.684,-130.788"/>
</g>
<!-- Node15 -->
<g id="node15" class="node"><title>Node15</title>
<polygon fill="white" stroke="#bfbfbf" points="711.734,-112.5 711.734,-131.5 804.734,-131.5 804.734,-112.5 711.734,-112.5"/>
<text text-anchor="middle" x="758.234" y="-119.5" font-family="Helvetica,sans-Serif" font-size="10.00">Eigen/StdVector</text>
</g>
<!-- Node7&#45;&gt;Node15 -->
<g id="edge14" class="edge"><title>Node7&#45;&gt;Node15</title>
<path fill="none" stroke="midnightblue" d="M758.234,-168.399C758.234,-160.466 758.234,-150.458 758.234,-141.858"/>
<polygon fill="midnightblue" stroke="midnightblue" points="761.734,-141.658 758.234,-131.658 754.734,-141.658 761.734,-141.658"/>
</g>
<!-- Node9 -->
<g id="node9" class="node"><title>Node9</title>
<g id="a_node9"><a xlink:href="CoreMacros_8hpp.html" target="_top" xlink:title="Core/CoreMacros.hpp">
<polygon fill="white" stroke="black" points="388.234,-56.5 388.234,-75.5 508.234,-75.5 508.234,-56.5 388.234,-56.5"/>
<text text-anchor="middle" x="448.234" y="-63.5" font-family="Helvetica,sans-Serif" font-size="10.00">Core/CoreMacros.hpp</text>
</a>
</g>
</g>
<!-- Node8&#45;&gt;Node9 -->
<g id="edge8" class="edge"><title>Node8&#45;&gt;Node9</title>
<path fill="none" stroke="midnightblue" d="M527.131,-112.324C512.33,-103.822 489.54,-90.7288 472.252,-80.7975"/>
<polygon fill="midnightblue" stroke="midnightblue" points="473.714,-77.6009 463.299,-75.6545 470.227,-83.6707 473.714,-77.6009"/>
</g>
<!-- Node10 -->
<g id="node10" class="node"><title>Node10</title>
<polygon fill="white" stroke="#bfbfbf" points="456.234,-0.5 456.234,-19.5 508.234,-19.5 508.234,-0.5 456.234,-0.5"/>
<text text-anchor="middle" x="482.234" y="-7.5" font-family="Helvetica,sans-Serif" font-size="10.00">cassert</text>
</g>
<!-- Node9&#45;&gt;Node10 -->
<g id="edge9" class="edge"><title>Node9&#45;&gt;Node10</title>
<path fill="none" stroke="midnightblue" d="M453.848,-56.083C458.601,-48.5341 465.552,-37.4948 471.385,-28.2298"/>
<polygon fill="midnightblue" stroke="midnightblue" points="474.357,-30.0783 476.724,-19.7511 468.434,-26.3486 474.357,-30.0783"/>
</g>
<!-- Node11 -->
<g id="node11" class="node"><title>Node11</title>
<polygon fill="white" stroke="#bfbfbf" points="526.734,-0.5 526.734,-19.5 571.734,-19.5 571.734,-0.5 526.734,-0.5"/>
<text text-anchor="middle" x="549.234" y="-7.5" font-family="Helvetica,sans-Serif" font-size="10.00">cstdio</text>
</g>
<!-- Node9&#45;&gt;Node11 -->
<g id="edge10" class="edge"><title>Node9&#45;&gt;Node11</title>
<path fill="none" stroke="midnightblue" d="M464.461,-56.324C480.585,-47.7034 505.534,-34.3643 524.198,-24.3855"/>
<polygon fill="midnightblue" stroke="midnightblue" points="525.878,-27.456 533.047,-19.6545 522.578,-21.283 525.878,-27.456"/>
</g>
<!-- Node12 -->
<g id="node12" class="node"><title>Node12</title>
<polygon fill="white" stroke="#bfbfbf" points="312.734,-0.5 312.734,-19.5 371.734,-19.5 371.734,-0.5 312.734,-0.5"/>
<text text-anchor="middle" x="342.234" y="-7.5" font-family="Helvetica,sans-Serif" font-size="10.00">iostream</text>
</g>
<!-- Node9&#45;&gt;Node12 -->
<g id="edge11" class="edge"><title>Node9&#45;&gt;Node12</title>
<path fill="none" stroke="midnightblue" d="M431.203,-56.324C414.204,-47.6641 387.858,-34.2424 368.241,-24.249"/>
<polygon fill="midnightblue" stroke="midnightblue" points="369.721,-21.0752 359.222,-19.6545 366.544,-27.3125 369.721,-21.0752"/>
</g>
<!-- Node13 -->
<g id="node13" class="node"><title>Node13</title>
<polygon fill="white" stroke="#bfbfbf" points="145.234,-0.5 145.234,-19.5 201.234,-19.5 201.234,-0.5 145.234,-0.5"/>
<text text-anchor="middle" x="173.234" y="-7.5" font-family="Helvetica,sans-Serif" font-size="10.00">sstream</text>
</g>
<!-- Node9&#45;&gt;Node13 -->
<g id="edge12" class="edge"><title>Node9&#45;&gt;Node13</title>
<path fill="none" stroke="midnightblue" d="M404.659,-56.4435C351.384,-45.9823 262.074,-28.4451 211.392,-18.4929"/>
<polygon fill="midnightblue" stroke="midnightblue" points="211.978,-15.0413 201.491,-16.5488 210.63,-21.9101 211.978,-15.0413"/>
</g>
<!-- Node14 -->
<g id="node14" class="node"><title>Node14</title>
<polygon fill="white" stroke="#bfbfbf" points="390.234,-0.5 390.234,-19.5 438.234,-19.5 438.234,-0.5 390.234,-0.5"/>
<text text-anchor="middle" x="414.234" y="-7.5" font-family="Helvetica,sans-Serif" font-size="10.00">thread</text>
</g>
<!-- Node9&#45;&gt;Node14 -->
<g id="edge13" class="edge"><title>Node9&#45;&gt;Node14</title>
<path fill="none" stroke="midnightblue" d="M442.619,-56.083C437.866,-48.5341 430.916,-37.4948 425.082,-28.2298"/>
<polygon fill="midnightblue" stroke="midnightblue" points="428.034,-26.3486 419.744,-19.7511 422.11,-30.0783 428.034,-26.3486"/>
</g>
<!-- Node16&#45;&gt;Node8 -->
<g id="edge17" class="edge"><title>Node16&#45;&gt;Node8</title>
<path fill="none" stroke="midnightblue" d="M964.148,-243.416C888.271,-240.785 770.702,-231.187 674.234,-199 631.116,-184.614 586.39,-155.283 561.654,-137.562"/>
<polygon fill="midnightblue" stroke="midnightblue" points="563.629,-134.67 553.486,-131.608 559.505,-140.327 563.629,-134.67"/>
</g>
<!-- Node17 -->
<g id="node17" class="node"><title>Node17</title>
<polygon fill="white" stroke="#bfbfbf" points="1360.23,-174 1360.23,-193 1428.23,-193 1428.23,-174 1360.23,-174"/>
<text text-anchor="middle" x="1394.23" y="-181" font-family="Helvetica,sans-Serif" font-size="10.00">Eigen/Core</text>
</g>
<!-- Node16&#45;&gt;Node17 -->
<g id="edge18" class="edge"><title>Node16&#45;&gt;Node17</title>
<path fill="none" stroke="midnightblue" d="M1120.4,-236.771C1183.56,-229.948 1274.42,-217.902 1352.23,-199 1355.46,-198.217 1358.78,-197.288 1362.08,-196.284"/>
<polygon fill="midnightblue" stroke="midnightblue" points="1363.37,-199.545 1371.8,-193.119 1361.2,-192.89 1363.37,-199.545"/>
</g>
<!-- Node18 -->
<g id="node18" class="node"><title>Node18</title>
<polygon fill="white" stroke="#bfbfbf" points="1446.23,-174 1446.23,-193 1540.23,-193 1540.23,-174 1446.23,-174"/>
<text text-anchor="middle" x="1493.23" y="-181" font-family="Helvetica,sans-Serif" font-size="10.00">Eigen/Geometry</text>
</g>
<!-- Node16&#45;&gt;Node18 -->
<g id="edge19" class="edge"><title>Node16&#45;&gt;Node18</title>
<path fill="none" stroke="midnightblue" d="M1120.28,-238.35C1200.31,-231.8 1328.14,-219.234 1437.23,-199 1442.6,-198.004 1448.22,-196.777 1453.73,-195.462"/>
<polygon fill="midnightblue" stroke="midnightblue" points="1454.62,-198.848 1463.47,-193.031 1452.92,-192.057 1454.62,-198.848"/>
</g>
<!-- Node19 -->
<g id="node19" class="node"><title>Node19</title>
<polygon fill="white" stroke="#bfbfbf" points="851.234,-174 851.234,-193 931.234,-193 931.234,-174 851.234,-174"/>
<text text-anchor="middle" x="891.234" y="-181" font-family="Helvetica,sans-Serif" font-size="10.00">Eigen/Sparse</text>
</g>
<!-- Node16&#45;&gt;Node19 -->
<g id="edge20" class="edge"><title>Node16&#45;&gt;Node19</title>
<path fill="none" stroke="midnightblue" d="M1020.6,-235.475C994.809,-225.313 951.523,-208.256 922.194,-196.7"/>
<polygon fill="midnightblue" stroke="midnightblue" points="923.415,-193.419 912.828,-193.009 920.849,-199.932 923.415,-193.419"/>
</g>
<!-- Node20 -->
<g id="node20" class="node"><title>Node20</title>
<polygon fill="white" stroke="#bfbfbf" points="949.734,-174 949.734,-193 1012.73,-193 1012.73,-174 949.734,-174"/>
<text text-anchor="middle" x="981.234" y="-181" font-family="Helvetica,sans-Serif" font-size="10.00">functional</text>
</g>
<!-- Node16&#45;&gt;Node20 -->
<g id="edge21" class="edge"><title>Node16&#45;&gt;Node20</title>
<path fill="none" stroke="midnightblue" d="M1033.49,-235.475C1024.07,-226.285 1008.87,-211.456 997.284,-200.156"/>
<polygon fill="midnightblue" stroke="midnightblue" points="999.56,-197.486 989.957,-193.009 994.672,-202.497 999.56,-197.486"/>
</g>
<!-- Node21 -->
<g id="node21" class="node"><title>Node21</title>
<polygon fill="white" stroke="#bfbfbf" points="1030.73,-168.5 1030.73,-198.5 1175.73,-198.5 1175.73,-168.5 1030.73,-168.5"/>
<text text-anchor="start" x="1038.73" y="-186.5" font-family="Helvetica,sans-Serif" font-size="10.00">unsupported/Eigen/Aligned</text>
<text text-anchor="middle" x="1103.23" y="-175.5" font-family="Helvetica,sans-Serif" font-size="10.00">Vector3</text>
</g>
<!-- Node16&#45;&gt;Node21 -->
<g id="edge22" class="edge"><title>Node16&#45;&gt;Node21</title>
<path fill="none" stroke="midnightblue" d="M1050.97,-235.475C1058.93,-227.718 1071,-215.943 1081.54,-205.665"/>
<polygon fill="midnightblue" stroke="midnightblue" points="1084.14,-208.011 1088.86,-198.523 1079.25,-203 1084.14,-208.011"/>
</g>
<!-- Node16&#45;&gt;Node22 -->
<g id="edge23" class="edge"><title>Node16&#45;&gt;Node22</title>
<path fill="none" stroke="midnightblue" d="M1120.53,-238.272C1220.23,-230.697 1397.78,-216.268 1549.23,-199 1561.12,-197.645 1573.75,-196.031 1585.95,-194.381"/>
<polygon fill="midnightblue" stroke="midnightblue" points="1586.65,-197.819 1596.08,-192.992 1585.7,-190.884 1586.65,-197.819"/>
</g>
<!-- Node26 -->
<g id="node26" class="node"><title>Node26</title>
<g id="a_node26"><a xlink:href="LinearAlgebra_8inl.html" target="_top" xlink:title="Core/Math/LinearAlgebra.inl">
<polygon fill="white" stroke="black" points="1193.73,-174 1193.73,-193 1342.73,-193 1342.73,-174 1193.73,-174"/>
<text text-anchor="middle" x="1268.23" y="-181" font-family="Helvetica,sans-Serif" font-size="10.00">Core/Math/LinearAlgebra.inl</text>
</a>
</g>
</g>
<!-- Node16&#45;&gt;Node26 -->
<g id="edge29" class="edge"><title>Node16&#45;&gt;Node26</title>
<path fill="none" stroke="midnightblue" d="M1074.61,-235.475C1114.47,-224.982 1182.25,-207.137 1226.12,-195.587"/>
<polygon fill="midnightblue" stroke="midnightblue" points="1227.13,-198.94 1235.91,-193.009 1225.35,-192.17 1227.13,-198.94"/>
</g>
<!-- Node22&#45;&gt;Node8 -->
<g id="edge24" class="edge"><title>Node22&#45;&gt;Node8</title>
<path fill="none" stroke="midnightblue" d="M1599.64,-173.986C1583.48,-171.7 1565.67,-169.46 1549.23,-168 1137.21,-131.395 1031.63,-164.035 619.234,-132 613.474,-131.553 607.481,-131.002 601.496,-130.396"/>
<polygon fill="midnightblue" stroke="midnightblue" points="601.784,-126.907 591.471,-129.331 601.045,-133.868 601.784,-126.907"/>
</g>
<!-- Node23 -->
<g id="node23" class="node"><title>Node23</title>
<polygon fill="white" stroke="#bfbfbf" points="1501.23,-112.5 1501.23,-131.5 1563.23,-131.5 1563.23,-112.5 1501.23,-112.5"/>
<text text-anchor="middle" x="1532.23" y="-119.5" font-family="Helvetica,sans-Serif" font-size="10.00">algorithm</text>
</g>
<!-- Node22&#45;&gt;Node23 -->
<g id="edge25" class="edge"><title>Node22&#45;&gt;Node23</title>
<path fill="none" stroke="midnightblue" d="M1635.9,-173.975C1615.68,-164.034 1582.05,-147.495 1558.59,-135.961"/>
<polygon fill="midnightblue" stroke="midnightblue" points="1560.06,-132.781 1549.54,-131.509 1556.97,-139.063 1560.06,-132.781"/>
</g>
<!-- Node24 -->
<g id="node24" class="node"><title>Node24</title>
<polygon fill="white" stroke="#bfbfbf" points="1581.73,-112.5 1581.73,-131.5 1628.73,-131.5 1628.73,-112.5 1581.73,-112.5"/>
<text text-anchor="middle" x="1605.23" y="-119.5" font-family="Helvetica,sans-Serif" font-size="10.00">cmath</text>
</g>
<!-- Node22&#45;&gt;Node24 -->
<g id="edge26" class="edge"><title>Node22&#45;&gt;Node24</title>
<path fill="none" stroke="midnightblue" d="M1646.36,-173.975C1639.09,-164.962 1627.44,-150.525 1618.39,-139.312"/>
<polygon fill="midnightblue" stroke="midnightblue" points="1621.1,-137.095 1612.1,-131.509 1615.65,-141.49 1621.1,-137.095"/>
</g>
<!-- Node25 -->
<g id="node25" class="node"><title>Node25</title>
<g id="a_node25"><a xlink:href="Math_8inl.html" target="_top" xlink:title="Core/Math/Math.inl">
<polygon fill="white" stroke="black" points="1646.73,-112.5 1646.73,-131.5 1753.73,-131.5 1753.73,-112.5 1646.73,-112.5"/>
<text text-anchor="middle" x="1700.23" y="-119.5" font-family="Helvetica,sans-Serif" font-size="10.00">Core/Math/Math.inl</text>
</a>
</g>
</g>
<!-- Node22&#45;&gt;Node25 -->
<g id="edge27" class="edge"><title>Node22&#45;&gt;Node25</title>
<path fill="none" stroke="midnightblue" d="M1655.07,-173.975C1660.27,-164.873 1671.44,-150.241 1681.55,-138.983"/>
<polygon fill="midnightblue" stroke="midnightblue" points="1684.29,-141.18 1688.62,-131.509 1679.2,-136.37 1684.29,-141.18"/>
</g>
<!-- Node25&#45;&gt;Node22 -->
<g id="edge28" class="edge"><title>Node25&#45;&gt;Node22</title>
<path fill="none" stroke="midnightblue" d="M1698.41,-131.509C1693.21,-140.604 1682.04,-155.236 1671.94,-166.497"/>
<polygon fill="midnightblue" stroke="midnightblue" points="1669.2,-164.304 1664.87,-173.975 1674.28,-169.113 1669.2,-164.304"/>
</g>
<!-- Node27&#45;&gt;Node4 -->
<g id="edge34" class="edge"><title>Node27&#45;&gt;Node4</title>
<path fill="none" stroke="midnightblue" d="M271.906,-173.975C255.569,-164.255 228.631,-148.227 209.321,-136.737"/>
<polygon fill="midnightblue" stroke="midnightblue" points="210.918,-133.615 200.535,-131.509 207.339,-139.63 210.918,-133.615"/>
</g>
<!-- Node27&#45;&gt;Node8 -->
<g id="edge33" class="edge"><title>Node27&#45;&gt;Node8</title>
<path fill="none" stroke="midnightblue" d="M322.912,-173.975C368.441,-163.393 446.134,-145.336 495.781,-133.797"/>
<polygon fill="midnightblue" stroke="midnightblue" points="496.675,-137.182 505.623,-131.509 495.09,-130.364 496.675,-137.182"/>
</g>
<!-- Node28&#45;&gt;Node2 -->
<g id="edge38" class="edge"><title>Node28&#45;&gt;Node2</title>
<path fill="none" stroke="midnightblue" d="M438.863,-310.516C467.94,-319.546 511.151,-333.879 540.068,-344.039"/>
<polygon fill="midnightblue" stroke="midnightblue" points="539.058,-347.395 549.653,-347.444 541.401,-340.799 539.058,-347.395"/>
</g>
<!-- Node29 -->
<g id="node29" class="node"><title>Node29</title>
<g id="a_node29"><a xlink:href="Log_8hpp.html" target="_top" xlink:title="Core/Log/Log.hpp">
<polygon fill="white" stroke="black" points="88.7337,-235.5 88.7337,-254.5 189.734,-254.5 189.734,-235.5 88.7337,-235.5"/>
<text text-anchor="middle" x="139.234" y="-242.5" font-family="Helvetica,sans-Serif" font-size="10.00">Core/Log/Log.hpp</text>
</a>
</g>
</g>
<!-- Node28&#45;&gt;Node29 -->
<g id="edge39" class="edge"><title>Node28&#45;&gt;Node29</title>
<path fill="none" stroke="midnightblue" d="M365.61,-291.444C318.487,-281.984 242.542,-266.738 191.775,-256.547"/>
<polygon fill="midnightblue" stroke="midnightblue" points="192.151,-253.053 181.658,-254.516 190.774,-259.916 192.151,-253.053"/>
</g>
<!-- Node29&#45;&gt;Node4 -->
<g id="edge43" class="edge"><title>Node29&#45;&gt;Node4</title>
<path fill="none" stroke="midnightblue" d="M129.939,-235.258C115.726,-220.792 91.5993,-191.172 105.234,-168 115.834,-149.984 136.541,-138.664 154.365,-131.883"/>
<polygon fill="midnightblue" stroke="midnightblue" points="155.593,-135.162 163.887,-128.57 153.293,-128.551 155.593,-135.162"/>
</g>
<!-- Node29&#45;&gt;Node8 -->
<g id="edge40" class="edge"><title>Node29&#45;&gt;Node8</title>
<path fill="none" stroke="midnightblue" d="M144.661,-235.11C155.207,-218.711 180.181,-183.921 211.234,-168 257.383,-144.339 400.607,-131.774 482.742,-126.351"/>
<polygon fill="midnightblue" stroke="midnightblue" points="483.179,-129.83 492.933,-125.694 482.728,-122.844 483.179,-129.83"/>
</g>
<!-- Node29&#45;&gt;Node13 -->
<g id="edge41" class="edge"><title>Node29&#45;&gt;Node13</title>
<path fill="none" stroke="midnightblue" d="M88.6844,-241.066C59.1807,-236.443 24.1452,-225.3 5.23375,-199 -2.80975,-187.814 -0.253346,-180.638 5.23375,-168 34.7445,-100.03 109.783,-48.0866 148.813,-24.6628"/>
<polygon fill="midnightblue" stroke="midnightblue" points="150.611,-27.666 157.464,-19.5856 147.068,-21.629 150.611,-27.666"/>
</g>
<!-- Node30 -->
<g id="node30" class="node"><title>Node30</title>
<polygon fill="white" stroke="#bfbfbf" points="114.734,-174 114.734,-193 163.734,-193 163.734,-174 114.734,-174"/>
<text text-anchor="middle" x="139.234" y="-181" font-family="Helvetica,sans-Serif" font-size="10.00">stdio.h</text>
</g>
<!-- Node29&#45;&gt;Node30 -->
<g id="edge42" class="edge"><title>Node29&#45;&gt;Node30</title>
<path fill="none" stroke="midnightblue" d="M139.234,-235.475C139.234,-227.08 139.234,-213.981 139.234,-203.163"/>
<polygon fill="midnightblue" stroke="midnightblue" points="142.734,-203.009 139.234,-193.009 135.734,-203.009 142.734,-203.009"/>
</g>
<!-- Node31 -->
<g id="node31" class="node"><title>Node31</title>
<g id="a_node31"><a xlink:href="StringUtils_8hpp.html" target="_top" xlink:title="Core/String/StringUtils.hpp">
<polygon fill="white" stroke="black" points="370.234,-174 370.234,-193 514.234,-193 514.234,-174 370.234,-174"/>
<text text-anchor="middle" x="442.234" y="-181" font-family="Helvetica,sans-Serif" font-size="10.00">Core/String/StringUtils.hpp</text>
</a>
</g>
</g>
<!-- Node29&#45;&gt;Node31 -->
<g id="edge44" class="edge"><title>Node29&#45;&gt;Node31</title>
<path fill="none" stroke="midnightblue" d="M182.646,-235.475C237.097,-224.783 330.415,-206.458 389.082,-194.937"/>
<polygon fill="midnightblue" stroke="midnightblue" points="389.764,-198.37 398.902,-193.009 388.415,-191.502 389.764,-198.37"/>
</g>
<!-- Node32 -->
<g id="node32" class="node"><title>Node32</title>
<polygon fill="white" stroke="#bfbfbf" points="14.2337,-174 14.2337,-193 58.2337,-193 58.2337,-174 14.2337,-174"/>
<text text-anchor="middle" x="36.2337" y="-181" font-family="Helvetica,sans-Serif" font-size="10.00">ctime</text>
</g>
<!-- Node29&#45;&gt;Node32 -->
<g id="edge48" class="edge"><title>Node29&#45;&gt;Node32</title>
<path fill="none" stroke="midnightblue" d="M124.476,-235.475C107.573,-225.711 79.6508,-209.581 59.7434,-198.081"/>
<polygon fill="midnightblue" stroke="midnightblue" points="61.3736,-194.981 50.9638,-193.009 57.8721,-201.042 61.3736,-194.981"/>
</g>
<!-- Node31&#45;&gt;Node4 -->
<g id="edge46" class="edge"><title>Node31&#45;&gt;Node4</title>
<path fill="none" stroke="midnightblue" d="M405.555,-173.975C355.322,-162.3 265.934,-141.524 218.261,-130.444"/>
<polygon fill="midnightblue" stroke="midnightblue" points="219.006,-127.024 208.473,-128.169 217.421,-133.842 219.006,-127.024"/>
</g>
<!-- Node31&#45;&gt;Node5 -->
<g id="edge47" class="edge"><title>Node31&#45;&gt;Node5</title>
<path fill="none" stroke="midnightblue" d="M472.322,-173.975C511.215,-162.955 578.721,-143.829 619.061,-132.399"/>
<polygon fill="midnightblue" stroke="midnightblue" points="620.031,-135.762 628.698,-129.668 618.123,-129.027 620.031,-135.762"/>
</g>
<!-- Node31&#45;&gt;Node8 -->
<g id="edge45" class="edge"><title>Node31&#45;&gt;Node8</title>
<path fill="none" stroke="midnightblue" d="M456.561,-173.975C472.898,-164.255 499.836,-148.227 519.146,-136.737"/>
<polygon fill="midnightblue" stroke="midnightblue" points="521.129,-139.63 527.933,-131.509 517.549,-133.615 521.129,-139.63"/>
</g>
</g>
</svg>
