<?xml version="1.0" encoding="UTF-8" standalone="no"?>
<!DOCTYPE svg PUBLIC "-//W3C//DTD SVG 1.1//EN"
 "http://www.w3.org/Graphics/SVG/1.1/DTD/svg11.dtd">
<!-- Generated by graphviz version 2.38.0 (20140413.2041)
 -->
<!-- Title: /home/travis/build/STORM&#45;IRIT/Radium&#45;Engine/src/Core/Index/CircularIndex.hpp Pages: 1 -->
<svg width="1324pt" height="228pt"
 viewBox="0.00 0.00 1324.00 228.00" xmlns="http://www.w3.org/2000/svg" xmlns:xlink="http://www.w3.org/1999/xlink">
<g id="graph0" class="graph" transform="scale(1 1) rotate(0) translate(4 224)">
<title>/home/travis/build/STORM&#45;IRIT/Radium&#45;Engine/src/Core/Index/CircularIndex.hpp</title>
<polygon fill="white" stroke="none" points="-4,4 -4,-224 1320,-224 1320,4 -4,4"/>
<!-- Node1 -->
<g id="node1" class="node"><title>Node1</title>
<polygon fill="#bfbfbf" stroke="black" points="693.5,-178.5 693.5,-219.5 866.5,-219.5 866.5,-178.5 693.5,-178.5"/>
<text text-anchor="start" x="701.5" y="-207.5" font-family="Helvetica,sans-Serif" font-size="10.00">/home/travis/build</text>
<text text-anchor="start" x="701.5" y="-196.5" font-family="Helvetica,sans-Serif" font-size="10.00">/STORM&#45;IRIT/Radium&#45;Engine</text>
<text text-anchor="middle" x="780" y="-185.5" font-family="Helvetica,sans-Serif" font-size="10.00">/src/Core/Index/CircularIndex.hpp</text>
</g>
<!-- Node2 -->
<g id="node2" class="node"><title>Node2</title>
<g id="a_node2"><a xlink:href="Sequence_8hpp.html" target="_top" xlink:title="/home/travis/build\l/STORM&#45;IRIT/Radium&#45;Engine\l/src/Core/Animation/Sequence\l/Sequence.hpp">
<polygon fill="white" stroke="black" points="90,-89.5 90,-141.5 252,-141.5 252,-89.5 90,-89.5"/>
<text text-anchor="start" x="98" y="-129.5" font-family="Helvetica,sans-Serif" font-size="10.00">/home/travis/build</text>
<text text-anchor="start" x="98" y="-118.5" font-family="Helvetica,sans-Serif" font-size="10.00">/STORM&#45;IRIT/Radium&#45;Engine</text>
<text text-anchor="start" x="98" y="-107.5" font-family="Helvetica,sans-Serif" font-size="10.00">/src/Core/Animation/Sequence</text>
<text text-anchor="middle" x="171" y="-96.5" font-family="Helvetica,sans-Serif" font-size="10.00">/Sequence.hpp</text>
</a>
</g>
</g>
<!-- Node1&#45;&gt;Node2 -->
<g id="edge1" class="edge"><title>Node1&#45;&gt;Node2</title>
<path fill="none" stroke="midnightblue" d="M683.229,-192.451C578.437,-185.308 406.722,-170.296 261,-142 258.13,-141.443 255.219,-140.838 252.287,-140.195"/>
<polygon fill="midnightblue" stroke="midnightblue" points="683.259,-195.961 693.471,-193.139 683.728,-188.977 683.259,-195.961"/>
</g>
<!-- Node5 -->
<g id="node5" class="node"><title>Node5</title>
<g id="a_node5"><a xlink:href="Area_8cpp.html" target="_top" xlink:title="/home/travis/build\l/STORM&#45;IRIT/Radium&#45;Engine\l/src/Core/Geometry/Area\l/Area.cpp">
<polygon fill="white" stroke="black" points="270,-89.5 270,-141.5 418,-141.5 418,-89.5 270,-89.5"/>
<text text-anchor="start" x="278" y="-129.5" font-family="Helvetica,sans-Serif" font-size="10.00">/home/travis/build</text>
<text text-anchor="start" x="278" y="-118.5" font-family="Helvetica,sans-Serif" font-size="10.00">/STORM&#45;IRIT/Radium&#45;Engine</text>
<text text-anchor="start" x="278" y="-107.5" font-family="Helvetica,sans-Serif" font-size="10.00">/src/Core/Geometry/Area</text>
<text text-anchor="middle" x="344" y="-96.5" font-family="Helvetica,sans-Serif" font-size="10.00">/Area.cpp</text>
</a>
</g>
</g>
<!-- Node1&#45;&gt;Node5 -->
<g id="edge4" class="edge"><title>Node1&#45;&gt;Node5</title>
<path fill="none" stroke="midnightblue" d="M683.008,-186.209C611.925,-176.687 513.352,-161.647 428,-142 424.733,-141.248 421.406,-140.437 418.056,-139.582"/>
<polygon fill="midnightblue" stroke="midnightblue" points="682.918,-189.728 693.292,-187.574 683.839,-182.788 682.918,-189.728"/>
</g>
<!-- Node6 -->
<g id="node6" class="node"><title>Node6</title>
<g id="a_node6"><a xlink:href="Curvature_8cpp.html" target="_top" xlink:title="/home/travis/build\l/STORM&#45;IRIT/Radium&#45;Engine\l/src/Core/Geometry/Curvature\l/Curvature.cpp">
<polygon fill="white" stroke="black" points="436.5,-89.5 436.5,-141.5 597.5,-141.5 597.5,-89.5 436.5,-89.5"/>
<text text-anchor="start" x="444.5" y="-129.5" font-family="Helvetica,sans-Serif" font-size="10.00">/home/travis/build</text>
<text text-anchor="start" x="444.5" y="-118.5" font-family="Helvetica,sans-Serif" font-size="10.00">/STORM&#45;IRIT/Radium&#45;Engine</text>
<text text-anchor="start" x="444.5" y="-107.5" font-family="Helvetica,sans-Serif" font-size="10.00">/src/Core/Geometry/Curvature</text>
<text text-anchor="middle" x="517" y="-96.5" font-family="Helvetica,sans-Serif" font-size="10.00">/Curvature.cpp</text>
</a>
</g>
</g>
<!-- Node1&#45;&gt;Node6 -->
<g id="edge5" class="edge"><title>Node1&#45;&gt;Node6</title>
<path fill="none" stroke="midnightblue" d="M707.165,-175.429C673.25,-164.92 632.788,-152.381 597.922,-141.576"/>
<polygon fill="midnightblue" stroke="midnightblue" points="706.417,-178.862 717.005,-178.479 708.489,-172.175 706.417,-178.862"/>
</g>
<!-- Node7 -->
<g id="node7" class="node"><title>Node7</title>
<g id="a_node7"><a xlink:href="Laplacian_8cpp.html" target="_top" xlink:title="/home/travis/build\l/STORM&#45;IRIT/Radium&#45;Engine\l/src/Core/Geometry/Laplacian\l/Laplacian.cpp">
<polygon fill="white" stroke="black" points="616,-89.5 616,-141.5 774,-141.5 774,-89.5 616,-89.5"/>
<text text-anchor="start" x="624" y="-129.5" font-family="Helvetica,sans-Serif" font-size="10.00">/home/travis/build</text>
<text text-anchor="start" x="624" y="-118.5" font-family="Helvetica,sans-Serif" font-size="10.00">/STORM&#45;IRIT/Radium&#45;Engine</text>
<text text-anchor="start" x="624" y="-107.5" font-family="Helvetica,sans-Serif" font-size="10.00">/src/Core/Geometry/Laplacian</text>
<text text-anchor="middle" x="695" y="-96.5" font-family="Helvetica,sans-Serif" font-size="10.00">/Laplacian.cpp</text>
</a>
</g>
</g>
<!-- Node1&#45;&gt;Node7 -->
<g id="edge6" class="edge"><title>Node1&#45;&gt;Node7</title>
<path fill="none" stroke="midnightblue" d="M752.096,-171.245C742.147,-161.706 730.984,-151.003 721.186,-141.607"/>
<polygon fill="midnightblue" stroke="midnightblue" points="749.783,-173.877 759.424,-178.271 754.628,-168.824 749.783,-173.877"/>
</g>
<!-- Node8 -->
<g id="node8" class="node"><title>Node8</title>
<g id="a_node8"><a xlink:href="Normal_8cpp.html" target="_top" xlink:title="/home/travis/build\l/STORM&#45;IRIT/Radium&#45;Engine\l/src/Core/Geometry/Normal\l/Normal.cpp">
<polygon fill="white" stroke="black" points="791.5,-89.5 791.5,-141.5 940.5,-141.5 940.5,-89.5 791.5,-89.5"/>
<text text-anchor="start" x="799.5" y="-129.5" font-family="Helvetica,sans-Serif" font-size="10.00">/home/travis/build</text>
<text text-anchor="start" x="799.5" y="-118.5" font-family="Helvetica,sans-Serif" font-size="10.00">/STORM&#45;IRIT/Radium&#45;Engine</text>
<text text-anchor="start" x="799.5" y="-107.5" font-family="Helvetica,sans-Serif" font-size="10.00">/src/Core/Geometry/Normal</text>
<text text-anchor="middle" x="866" y="-96.5" font-family="Helvetica,sans-Serif" font-size="10.00">/Normal.cpp</text>
</a>
</g>
</g>
<!-- Node1&#45;&gt;Node8 -->
<g id="edge7" class="edge"><title>Node1&#45;&gt;Node8</title>
<path fill="none" stroke="midnightblue" d="M808.233,-171.245C818.298,-161.706 829.592,-151.003 839.506,-141.607"/>
<polygon fill="midnightblue" stroke="midnightblue" points="805.669,-168.852 800.818,-178.271 810.484,-173.933 805.669,-168.852"/>
</g>
<!-- Node9 -->
<g id="node9" class="node"><title>Node9</title>
<g id="a_node9"><a xlink:href="CircularIndex_8cpp.html" target="_top" xlink:title="/home/travis/build\l/STORM&#45;IRIT/Radium&#45;Engine\l/src/Core/Index/CircularIndex.cpp">
<polygon fill="white" stroke="black" points="958.5,-95 958.5,-136 1131.5,-136 1131.5,-95 958.5,-95"/>
<text text-anchor="start" x="966.5" y="-124" font-family="Helvetica,sans-Serif" font-size="10.00">/home/travis/build</text>
<text text-anchor="start" x="966.5" y="-113" font-family="Helvetica,sans-Serif" font-size="10.00">/STORM&#45;IRIT/Radium&#45;Engine</text>
<text text-anchor="middle" x="1045" y="-102" font-family="Helvetica,sans-Serif" font-size="10.00">/src/Core/Index/CircularIndex.cpp</text>
</a>
</g>
</g>
<!-- Node1&#45;&gt;Node9 -->
<g id="edge8" class="edge"><title>Node1&#45;&gt;Node9</title>
<path fill="none" stroke="midnightblue" d="M853.237,-175.476C893.508,-163.091 942.978,-147.876 981.585,-136.003"/>
<polygon fill="midnightblue" stroke="midnightblue" points="852.003,-172.194 843.474,-178.479 854.061,-178.884 852.003,-172.194"/>
</g>
<!-- Node10 -->
<g id="node10" class="node"><title>Node10</title>
<g id="a_node10"><a xlink:href="CircularIndex_8inl.html" target="_top" xlink:title="/home/travis/build\l/STORM&#45;IRIT/Radium&#45;Engine\l/src/Core/Index/CircularIndex.inl">
<polygon fill="white" stroke="black" points="1150,-95 1150,-136 1316,-136 1316,-95 1150,-95"/>
<text text-anchor="start" x="1158" y="-124" font-family="Helvetica,sans-Serif" font-size="10.00">/home/travis/build</text>
<text text-anchor="start" x="1158" y="-113" font-family="Helvetica,sans-Serif" font-size="10.00">/STORM&#45;IRIT/Radium&#45;Engine</text>
<text text-anchor="middle" x="1233" y="-102" font-family="Helvetica,sans-Serif" font-size="10.00">/src/Core/Index/CircularIndex.inl</text>
</a>
</g>
</g>
<!-- Node1&#45;&gt;Node10 -->
<g id="edge9" class="edge"><title>Node1&#45;&gt;Node10</title>
<path fill="none" stroke="midnightblue" d="M876.951,-185.064C947.931,-175.305 1046.31,-160.456 1132,-142 1140.18,-140.238 1148.72,-138.178 1157.21,-136.008"/>
<polygon fill="midnightblue" stroke="midnightblue" points="876.116,-181.645 866.682,-186.466 877.064,-188.581 876.116,-181.645"/>
</g>
<!-- Node3 -->
<g id="node3" class="node"><title>Node3</title>
<g id="a_node3"><a xlink:href="Sequence_8cpp.html" target="_top" xlink:title="/home/travis/build\l/STORM&#45;IRIT/Radium&#45;Engine\l/src/Core/Animation/Sequence\l/Sequence.cpp">
<polygon fill="white" stroke="black" points="0,-0.5 0,-52.5 162,-52.5 162,-0.5 0,-0.5"/>
<text text-anchor="start" x="8" y="-40.5" font-family="Helvetica,sans-Serif" font-size="10.00">/home/travis/build</text>
<text text-anchor="start" x="8" y="-29.5" font-family="Helvetica,sans-Serif" font-size="10.00">/STORM&#45;IRIT/Radium&#45;Engine</text>
<text text-anchor="start" x="8" y="-18.5" font-family="Helvetica,sans-Serif" font-size="10.00">/src/Core/Animation/Sequence</text>
<text text-anchor="middle" x="81" y="-7.5" font-family="Helvetica,sans-Serif" font-size="10.00">/Sequence.cpp</text>
</a>
</g>
</g>
<!-- Node2&#45;&gt;Node3 -->
<g id="edge2" class="edge"><title>Node2&#45;&gt;Node3</title>
<path fill="none" stroke="midnightblue" d="M137.755,-82.3631C127.595,-72.542 116.576,-61.8899 106.973,-52.6075"/>
<polygon fill="midnightblue" stroke="midnightblue" points="135.346,-84.9022 144.968,-89.336 140.211,-79.8693 135.346,-84.9022"/>
</g>
<!-- Node4 -->
<g id="node4" class="node"><title>Node4</title>
<g id="a_node4"><a xlink:href="Sequence_8inl.html" target="_top" xlink:title="/home/travis/build\l/STORM&#45;IRIT/Radium&#45;Engine\l/src/Core/Animation/Sequence\l/Sequence.inl">
<polygon fill="white" stroke="black" points="180,-0.5 180,-52.5 342,-52.5 342,-0.5 180,-0.5"/>
<text text-anchor="start" x="188" y="-40.5" font-family="Helvetica,sans-Serif" font-size="10.00">/home/travis/build</text>
<text text-anchor="start" x="188" y="-29.5" font-family="Helvetica,sans-Serif" font-size="10.00">/STORM&#45;IRIT/Radium&#45;Engine</text>
<text text-anchor="start" x="188" y="-18.5" font-family="Helvetica,sans-Serif" font-size="10.00">/src/Core/Animation/Sequence</text>
<text text-anchor="middle" x="261" y="-7.5" font-family="Helvetica,sans-Serif" font-size="10.00">/Sequence.inl</text>
</a>
</g>
</g>
<!-- Node2&#45;&gt;Node4 -->
<g id="edge3" class="edge"><title>Node2&#45;&gt;Node4</title>
<path fill="none" stroke="midnightblue" d="M204.245,-82.3631C214.405,-72.542 225.424,-61.8899 235.027,-52.6075"/>
<polygon fill="midnightblue" stroke="midnightblue" points="201.789,-79.8693 197.032,-89.336 206.654,-84.9022 201.789,-79.8693"/>
</g>
<!-- Node10&#45;&gt;Node1 -->
<g id="edge10" class="edge"><title>Node10&#45;&gt;Node1</title>
<path fill="none" stroke="midnightblue" d="M1165.08,-138.527C1160,-139.765 1154.94,-140.937 1150,-142 1054.05,-162.665 942.191,-178.81 866.727,-188.347"/>
<polygon fill="midnightblue" stroke="midnightblue" points="1165.99,-141.908 1174.83,-136.072 1164.28,-135.12 1165.99,-141.908"/>
</g>
</g>
</svg>
