<?xml version="1.0" encoding="UTF-8" standalone="no"?>
<!DOCTYPE svg PUBLIC "-//W3C//DTD SVG 1.1//EN"
 "http://www.w3.org/Graphics/SVG/1.1/DTD/svg11.dtd">
<!-- Generated by graphviz version 2.38.0 (20140413.2041)
 -->
<!-- Title: Ra::Asset::AnimationData Pages: 1 -->
<svg width="956pt" height="1877pt"
 viewBox="0.00 0.00 956.00 1877.00" xmlns="http://www.w3.org/2000/svg" xmlns:xlink="http://www.w3.org/1999/xlink">
<g id="graph0" class="graph" transform="scale(1 1) rotate(0) translate(4 1873)">
<title>Ra::Asset::AnimationData</title>
<polygon fill="white" stroke="none" points="-4,4 -4,-1873 952,-1873 952,4 -4,4"/>
<!-- Node1 -->
<g id="node1" class="node"><title>Node1</title>
<polygon fill="#bfbfbf" stroke="black" points="570,-0.5 570,-167.5 710,-167.5 710,-0.5 570,-0.5"/>
<text text-anchor="middle" x="640" y="-155.5" font-family="Helvetica,sans-Serif" font-size="10.00">Ra::Asset::AnimationData</text>
<polyline fill="none" stroke="black" points="570,-148.5 710,-148.5 "/>
<text text-anchor="middle" x="640" y="-136.5" font-family="Helvetica,sans-Serif" font-size="10.00"> </text>
<polyline fill="none" stroke="black" points="570,-129.5 710,-129.5 "/>
<text text-anchor="start" x="578" y="-117.5" font-family="Helvetica,sans-Serif" font-size="10.00">+ AnimationData()</text>
<text text-anchor="start" x="578" y="-106.5" font-family="Helvetica,sans-Serif" font-size="10.00">+ ~AnimationData()</text>
<text text-anchor="start" x="578" y="-95.5" font-family="Helvetica,sans-Serif" font-size="10.00">+ setName()</text>
<text text-anchor="start" x="578" y="-84.5" font-family="Helvetica,sans-Serif" font-size="10.00">+ getTime()</text>
<text text-anchor="start" x="578" y="-73.5" font-family="Helvetica,sans-Serif" font-size="10.00">+ setTime()</text>
<text text-anchor="start" x="578" y="-62.5" font-family="Helvetica,sans-Serif" font-size="10.00">+ getTimeStep()</text>
<text text-anchor="start" x="578" y="-51.5" font-family="Helvetica,sans-Serif" font-size="10.00">+ setTimeStep()</text>
<text text-anchor="start" x="578" y="-40.5" font-family="Helvetica,sans-Serif" font-size="10.00">+ getFramesSize()</text>
<text text-anchor="start" x="578" y="-29.5" font-family="Helvetica,sans-Serif" font-size="10.00">+ getFrames()</text>
<text text-anchor="start" x="578" y="-18.5" font-family="Helvetica,sans-Serif" font-size="10.00">+ setFrames()</text>
<text text-anchor="start" x="578" y="-7.5" font-family="Helvetica,sans-Serif" font-size="10.00">+ displayInfo()</text>
</g>
<!-- Node2 -->
<g id="node2" class="node"><title>Node2</title>
<g id="a_node2"><a xlink:href="classRa_1_1Asset_1_1AssetData.html" target="_top" xlink:title="General interface of an asset data. ">
<polygon fill="white" stroke="black" points="526,-302.5 526,-392.5 644,-392.5 644,-302.5 526,-302.5"/>
<text text-anchor="middle" x="585" y="-380.5" font-family="Helvetica,sans-Serif" font-size="10.00">Ra::Asset::AssetData</text>
<polyline fill="none" stroke="black" points="526,-373.5 644,-373.5 "/>
<text text-anchor="middle" x="585" y="-361.5" font-family="Helvetica,sans-Serif" font-size="10.00"> </text>
<polyline fill="none" stroke="black" points="526,-354.5 644,-354.5 "/>
<text text-anchor="start" x="534" y="-342.5" font-family="Helvetica,sans-Serif" font-size="10.00">+ AssetData()</text>
<text text-anchor="start" x="534" y="-331.5" font-family="Helvetica,sans-Serif" font-size="10.00">+ AssetData()</text>
<text text-anchor="start" x="534" y="-320.5" font-family="Helvetica,sans-Serif" font-size="10.00">+ ~AssetData()</text>
<text text-anchor="start" x="534" y="-309.5" font-family="Helvetica,sans-Serif" font-size="10.00">+ getName()</text>
</a>
</g>
</g>
<!-- Node2&#45;&gt;Node1 -->
<g id="edge1" class="edge"><title>Node2&#45;&gt;Node1</title>
<path fill="none" stroke="midnightblue" d="M599.973,-292.468C600.679,-289.609 601.359,-286.773 602,-284 610.792,-245.961 619.103,-203.496 625.698,-167.595"/>
<polygon fill="none" stroke="midnightblue" points="596.565,-291.666 597.496,-302.22 603.35,-293.39 596.565,-291.666"/>
</g>
<!-- Node3 -->
<g id="node3" class="node"><title>Node3</title>
<g id="a_node3"><a xlink:title="STL class. ">
<polygon fill="white" stroke="#bfbfbf" points="539.5,-538.5 539.5,-595.5 604.5,-595.5 604.5,-538.5 539.5,-538.5"/>
<text text-anchor="middle" x="572" y="-583.5" font-family="Helvetica,sans-Serif" font-size="10.00">std::string</text>
<polyline fill="none" stroke="#bfbfbf" points="539.5,-576.5 604.5,-576.5 "/>
<text text-anchor="middle" x="572" y="-564.5" font-family="Helvetica,sans-Serif" font-size="10.00"> </text>
<polyline fill="none" stroke="#bfbfbf" points="539.5,-557.5 604.5,-557.5 "/>
<text text-anchor="middle" x="572" y="-545.5" font-family="Helvetica,sans-Serif" font-size="10.00"> </text>
</a>
</g>
</g>
<!-- Node3&#45;&gt;Node2 -->
<g id="edge2" class="edge"><title>Node3&#45;&gt;Node2</title>
<path fill="none" stroke="#404040" d="M573.646,-538.453C575.643,-505.057 579.057,-447.923 581.622,-405.016"/>
<polygon fill="none" stroke="#404040" points="581.638,-404.741 578.004,-398.513 582.354,-392.762 585.989,-398.99 581.638,-404.741"/>
<text text-anchor="middle" x="604.5" y="-490" font-family="Helvetica,sans-Serif" font-size="10.00"> #m_name</text>
</g>
<!-- Node7 -->
<g id="node7" class="node"><title>Node7</title>
<g id="a_node7"><a xlink:href="structRa_1_1Asset_1_1HandleAnimation.html" target="_top" xlink:title="{Ra::Asset::HandleAnimation\n||+ HandleAnimation()\l}">
<polygon fill="white" stroke="black" points="389,-411.5 389,-468.5 539,-468.5 539,-411.5 389,-411.5"/>
<text text-anchor="middle" x="464" y="-456.5" font-family="Helvetica,sans-Serif" font-size="10.00">Ra::Asset::HandleAnimation</text>
<polyline fill="none" stroke="black" points="389,-449.5 539,-449.5 "/>
<text text-anchor="middle" x="464" y="-437.5" font-family="Helvetica,sans-Serif" font-size="10.00"> </text>
<polyline fill="none" stroke="black" points="389,-430.5 539,-430.5 "/>
<text text-anchor="start" x="397" y="-418.5" font-family="Helvetica,sans-Serif" font-size="10.00">+ HandleAnimation()</text>
</a>
</g>
</g>
<!-- Node3&#45;&gt;Node7 -->
<g id="edge23" class="edge"><title>Node3&#45;&gt;Node7</title>
<path fill="none" stroke="#404040" d="M544.903,-538.443C533.262,-526.293 519.679,-511.691 508,-498 502.658,-491.738 497.153,-484.926 491.923,-478.262"/>
<polygon fill="none" stroke="#404040" points="491.854,-478.173 485.018,-475.878 484.507,-468.685 491.343,-470.98 491.854,-478.173"/>
<text text-anchor="middle" x="535.5" y="-490" font-family="Helvetica,sans-Serif" font-size="10.00"> +m_name</text>
</g>
<!-- Node4 -->
<g id="node4" class="node"><title>Node4</title>
<g id="a_node4"><a xlink:title="STL class. ">
<polygon fill="white" stroke="#bfbfbf" points="520.5,-781 520.5,-849 623.5,-849 623.5,-781 520.5,-781"/>
<text text-anchor="start" x="528.5" y="-837" font-family="Helvetica,sans-Serif" font-size="10.00">std::basic_string&lt;</text>
<text text-anchor="middle" x="572" y="-826" font-family="Helvetica,sans-Serif" font-size="10.00"> char &gt;</text>
<polyline fill="none" stroke="#bfbfbf" points="520.5,-819 623.5,-819 "/>
<text text-anchor="middle" x="572" y="-807" font-family="Helvetica,sans-Serif" font-size="10.00"> </text>
<polyline fill="none" stroke="#bfbfbf" points="520.5,-800 623.5,-800 "/>
<text text-anchor="middle" x="572" y="-788" font-family="Helvetica,sans-Serif" font-size="10.00"> </text>
</a>
</g>
</g>
<!-- Node4&#45;&gt;Node3 -->
<g id="edge3" class="edge"><title>Node4&#45;&gt;Node3</title>
<path fill="none" stroke="midnightblue" d="M572,-770.552C572,-720.072 572,-638.282 572,-595.724"/>
<polygon fill="none" stroke="midnightblue" points="568.5,-770.823 572,-780.823 575.5,-770.823 568.5,-770.823"/>
</g>
<!-- Node5 -->
<g id="node5" class="node"><title>Node5</title>
<polygon fill="white" stroke="#bfbfbf" points="675,-1706.5 675,-1763.5 713,-1763.5 713,-1706.5 675,-1706.5"/>
<text text-anchor="middle" x="694" y="-1751.5" font-family="Helvetica,sans-Serif" font-size="10.00">float</text>
<polyline fill="none" stroke="#bfbfbf" points="675,-1744.5 713,-1744.5 "/>
<text text-anchor="middle" x="694" y="-1732.5" font-family="Helvetica,sans-Serif" font-size="10.00"> </text>
<polyline fill="none" stroke="#bfbfbf" points="675,-1725.5 713,-1725.5 "/>
<text text-anchor="middle" x="694" y="-1713.5" font-family="Helvetica,sans-Serif" font-size="10.00"> </text>
</g>
<!-- Node5&#45;&gt;Node1 -->
<g id="edge4" class="edge"><title>Node5&#45;&gt;Node1</title>
<path fill="none" stroke="#404040" d="M713.16,-1707.31C716.684,-1701.22 719.907,-1694.59 722,-1688 749.7,-1600.75 736,-1574.05 736,-1482.5 736,-1482.5 736,-1482.5 736,-248.5 736,-223.748 727.717,-199.431 716.018,-177.428"/>
<polygon fill="none" stroke="#404040" points="715.927,-177.267 709.492,-174.012 710.021,-166.821 716.456,-170.075 715.927,-177.267"/>
<text text-anchor="middle" x="754.5" y="-639" font-family="Helvetica,sans-Serif" font-size="10.00"> #m_dt</text>
</g>
<!-- Node10 -->
<g id="node10" class="node"><title>Node10</title>
<g id="a_node10"><a xlink:href="classRa_1_1Asset_1_1AnimationTime.html" target="_top" xlink:title="{Ra::Asset::AnimationTime\n||+ AnimationTime()\l+ AnimationTime()\l+ ~AnimationTime()\l+ getStart()\l+ setStart()\l+ getEnd()\l+ setEnd()\l+ duration()\l+ merge()\l+ contain()\l+ intersect()\l+ isValid()\l+ operator==()\l+ operator!=()\l+ operator\&lt;()\l+ operator==()\l+ operator\&lt;()\l+ operator\&gt;()\l}">
<polygon fill="white" stroke="black" points="541,-1359.5 541,-1603.5 681,-1603.5 681,-1359.5 541,-1359.5"/>
<text text-anchor="middle" x="611" y="-1591.5" font-family="Helvetica,sans-Serif" font-size="10.00">Ra::Asset::AnimationTime</text>
<polyline fill="none" stroke="black" points="541,-1584.5 681,-1584.5 "/>
<text text-anchor="middle" x="611" y="-1572.5" font-family="Helvetica,sans-Serif" font-size="10.00"> </text>
<polyline fill="none" stroke="black" points="541,-1565.5 681,-1565.5 "/>
<text text-anchor="start" x="549" y="-1553.5" font-family="Helvetica,sans-Serif" font-size="10.00">+ AnimationTime()</text>
<text text-anchor="start" x="549" y="-1542.5" font-family="Helvetica,sans-Serif" font-size="10.00">+ AnimationTime()</text>
<text text-anchor="start" x="549" y="-1531.5" font-family="Helvetica,sans-Serif" font-size="10.00">+ ~AnimationTime()</text>
<text text-anchor="start" x="549" y="-1520.5" font-family="Helvetica,sans-Serif" font-size="10.00">+ getStart()</text>
<text text-anchor="start" x="549" y="-1509.5" font-family="Helvetica,sans-Serif" font-size="10.00">+ setStart()</text>
<text text-anchor="start" x="549" y="-1498.5" font-family="Helvetica,sans-Serif" font-size="10.00">+ getEnd()</text>
<text text-anchor="start" x="549" y="-1487.5" font-family="Helvetica,sans-Serif" font-size="10.00">+ setEnd()</text>
<text text-anchor="start" x="549" y="-1476.5" font-family="Helvetica,sans-Serif" font-size="10.00">+ duration()</text>
<text text-anchor="start" x="549" y="-1465.5" font-family="Helvetica,sans-Serif" font-size="10.00">+ merge()</text>
<text text-anchor="start" x="549" y="-1454.5" font-family="Helvetica,sans-Serif" font-size="10.00">+ contain()</text>
<text text-anchor="start" x="549" y="-1443.5" font-family="Helvetica,sans-Serif" font-size="10.00">+ intersect()</text>
<text text-anchor="start" x="549" y="-1432.5" font-family="Helvetica,sans-Serif" font-size="10.00">+ isValid()</text>
<text text-anchor="start" x="549" y="-1421.5" font-family="Helvetica,sans-Serif" font-size="10.00">+ operator==()</text>
<text text-anchor="start" x="549" y="-1410.5" font-family="Helvetica,sans-Serif" font-size="10.00">+ operator!=()</text>
<text text-anchor="start" x="549" y="-1399.5" font-family="Helvetica,sans-Serif" font-size="10.00">+ operator&lt;()</text>
<text text-anchor="start" x="549" y="-1388.5" font-family="Helvetica,sans-Serif" font-size="10.00">+ operator==()</text>
<text text-anchor="start" x="549" y="-1377.5" font-family="Helvetica,sans-Serif" font-size="10.00">+ operator&lt;()</text>
<text text-anchor="start" x="549" y="-1366.5" font-family="Helvetica,sans-Serif" font-size="10.00">+ operator&gt;()</text>
</a>
</g>
</g>
<!-- Node5&#45;&gt;Node10 -->
<g id="edge10" class="edge"><title>Node5&#45;&gt;Node10</title>
<path fill="none" stroke="#404040" d="M682.849,-1706.38C680.51,-1700.35 678.114,-1693.98 676,-1688 667.713,-1664.55 659.347,-1639.42 651.502,-1615.07"/>
<polygon fill="none" stroke="#404040" points="651.478,-1614.99 645.838,-1610.5 647.816,-1603.56 653.456,-1608.06 651.478,-1614.99"/>
<text text-anchor="middle" x="699" y="-1658" font-family="Helvetica,sans-Serif" font-size="10.00"> #m_end</text>
<text text-anchor="middle" x="699" y="-1647" font-family="Helvetica,sans-Serif" font-size="10.00">#m_start</text>
</g>
<!-- Node6 -->
<g id="node6" class="node"><title>Node6</title>
<polygon fill="white" stroke="#bfbfbf" points="469,-215.5 469,-283.5 593,-283.5 593,-215.5 469,-215.5"/>
<text text-anchor="start" x="477" y="-271.5" font-family="Helvetica,sans-Serif" font-size="10.00">std::vector&lt; Ra::Asset</text>
<text text-anchor="middle" x="531" y="-260.5" font-family="Helvetica,sans-Serif" font-size="10.00">::HandleAnimation &gt;</text>
<polyline fill="none" stroke="#bfbfbf" points="469,-253.5 593,-253.5 "/>
<text text-anchor="middle" x="531" y="-241.5" font-family="Helvetica,sans-Serif" font-size="10.00"> </text>
<polyline fill="none" stroke="#bfbfbf" points="469,-234.5 593,-234.5 "/>
<text text-anchor="middle" x="531" y="-222.5" font-family="Helvetica,sans-Serif" font-size="10.00"> </text>
</g>
<!-- Node6&#45;&gt;Node1 -->
<g id="edge5" class="edge"><title>Node6&#45;&gt;Node1</title>
<path fill="none" stroke="#404040" d="M528.01,-215.282C528.323,-205.487 529.89,-194.991 534,-186 540.611,-171.538 550.32,-158.114 561.218,-146.083"/>
<polygon fill="none" stroke="#404040" points="561.458,-145.832 562.715,-138.731 569.753,-137.16 568.496,-144.261 561.458,-145.832"/>
<text text-anchor="middle" x="570.5" y="-189" font-family="Helvetica,sans-Serif" font-size="10.00"> #m_keyFrame</text>
</g>
<!-- Node7&#45;&gt;Node6 -->
<g id="edge6" class="edge"><title>Node7&#45;&gt;Node6</title>
<path fill="none" stroke="#404040" d="M455.759,-411.308C448.779,-382.362 442.432,-336.445 460,-302 461.622,-298.821 463.541,-295.792 465.691,-292.913"/>
<polygon fill="none" stroke="#404040" points="465.867,-292.713 466.822,-285.565 473.787,-283.698 472.832,-290.846 465.867,-292.713"/>
<text text-anchor="middle" x="488.5" y="-345" font-family="Helvetica,sans-Serif" font-size="10.00"> +elements</text>
</g>
<!-- Node8 -->
<g id="node8" class="node"><title>Node8</title>
<g id="a_node8"><a xlink:href="classRa_1_1Asset_1_1KeyTransform.html" target="_top" xlink:title="{Ra::Asset::KeyTransform\n||+ KeyTransform()\l+ KeyTransform()\l+ ~KeyTransform()\l# defaultFrame()\l# interpolate()\l}">
<polygon fill="white" stroke="black" points="367.5,-516.5 367.5,-617.5 498.5,-617.5 498.5,-516.5 367.5,-516.5"/>
<text text-anchor="middle" x="433" y="-605.5" font-family="Helvetica,sans-Serif" font-size="10.00">Ra::Asset::KeyTransform</text>
<polyline fill="none" stroke="black" points="367.5,-598.5 498.5,-598.5 "/>
<text text-anchor="middle" x="433" y="-586.5" font-family="Helvetica,sans-Serif" font-size="10.00"> </text>
<polyline fill="none" stroke="black" points="367.5,-579.5 498.5,-579.5 "/>
<text text-anchor="start" x="375.5" y="-567.5" font-family="Helvetica,sans-Serif" font-size="10.00">+ KeyTransform()</text>
<text text-anchor="start" x="375.5" y="-556.5" font-family="Helvetica,sans-Serif" font-size="10.00">+ KeyTransform()</text>
<text text-anchor="start" x="375.5" y="-545.5" font-family="Helvetica,sans-Serif" font-size="10.00">+ ~KeyTransform()</text>
<text text-anchor="start" x="375.5" y="-534.5" font-family="Helvetica,sans-Serif" font-size="10.00"># defaultFrame()</text>
<text text-anchor="start" x="375.5" y="-523.5" font-family="Helvetica,sans-Serif" font-size="10.00"># interpolate()</text>
</a>
</g>
</g>
<!-- Node8&#45;&gt;Node7 -->
<g id="edge7" class="edge"><title>Node8&#45;&gt;Node7</title>
<path fill="none" stroke="#404040" d="M429.372,-516.456C429.827,-506.543 431.166,-496.317 434,-487 434.778,-484.443 435.745,-481.895 436.851,-479.383"/>
<polygon fill="none" stroke="#404040" points="436.874,-479.338 436.105,-472.168 442.428,-468.701 443.197,-475.871 436.874,-479.338"/>
<text text-anchor="middle" x="459.5" y="-490" font-family="Helvetica,sans-Serif" font-size="10.00"> +m_anim</text>
</g>
<!-- Node9 -->
<g id="node9" class="node"><title>Node9</title>
<g id="a_node9"><a xlink:href="classRa_1_1Asset_1_1KeyFrame.html" target="_top" xlink:title="{Ra::Asset::KeyFrame\l\&lt; Core::Transform \&gt;\n||+ KeyFrame()\l+ KeyFrame()\l+ ~KeyFrame()\l+ getAnimationTime()\l+ setAnimationTime()\l+ getKeyFrame()\l+ getKeyFrame()\l+ at()\l+ setKeyFrame()\l+ setKeyFrame()\l+ insertKeyFrame()\l+ size()\l+ clear()\l+ empty()\l+ timeSchedule()\l+ reset()\l+ operator=()\l+ operator==()\l+ operator!=()\l# defaultFrame()\l# findRange()\l# interpolate()\l}">
<polygon fill="white" stroke="black" points="371.5,-665.5 371.5,-964.5 494.5,-964.5 494.5,-665.5 371.5,-665.5"/>
<text text-anchor="start" x="379.5" y="-952.5" font-family="Helvetica,sans-Serif" font-size="10.00">Ra::Asset::KeyFrame</text>
<text text-anchor="middle" x="433" y="-941.5" font-family="Helvetica,sans-Serif" font-size="10.00">&lt; Core::Transform &gt;</text>
<polyline fill="none" stroke="black" points="371.5,-934.5 494.5,-934.5 "/>
<text text-anchor="middle" x="433" y="-922.5" font-family="Helvetica,sans-Serif" font-size="10.00"> </text>
<polyline fill="none" stroke="black" points="371.5,-915.5 494.5,-915.5 "/>
<text text-anchor="start" x="379.5" y="-903.5" font-family="Helvetica,sans-Serif" font-size="10.00">+ KeyFrame()</text>
<text text-anchor="start" x="379.5" y="-892.5" font-family="Helvetica,sans-Serif" font-size="10.00">+ KeyFrame()</text>
<text text-anchor="start" x="379.5" y="-881.5" font-family="Helvetica,sans-Serif" font-size="10.00">+ ~KeyFrame()</text>
<text text-anchor="start" x="379.5" y="-870.5" font-family="Helvetica,sans-Serif" font-size="10.00">+ getAnimationTime()</text>
<text text-anchor="start" x="379.5" y="-859.5" font-family="Helvetica,sans-Serif" font-size="10.00">+ setAnimationTime()</text>
<text text-anchor="start" x="379.5" y="-848.5" font-family="Helvetica,sans-Serif" font-size="10.00">+ getKeyFrame()</text>
<text text-anchor="start" x="379.5" y="-837.5" font-family="Helvetica,sans-Serif" font-size="10.00">+ getKeyFrame()</text>
<text text-anchor="start" x="379.5" y="-826.5" font-family="Helvetica,sans-Serif" font-size="10.00">+ at()</text>
<text text-anchor="start" x="379.5" y="-815.5" font-family="Helvetica,sans-Serif" font-size="10.00">+ setKeyFrame()</text>
<text text-anchor="start" x="379.5" y="-804.5" font-family="Helvetica,sans-Serif" font-size="10.00">+ setKeyFrame()</text>
<text text-anchor="start" x="379.5" y="-793.5" font-family="Helvetica,sans-Serif" font-size="10.00">+ insertKeyFrame()</text>
<text text-anchor="start" x="379.5" y="-782.5" font-family="Helvetica,sans-Serif" font-size="10.00">+ size()</text>
<text text-anchor="start" x="379.5" y="-771.5" font-family="Helvetica,sans-Serif" font-size="10.00">+ clear()</text>
<text text-anchor="start" x="379.5" y="-760.5" font-family="Helvetica,sans-Serif" font-size="10.00">+ empty()</text>
<text text-anchor="start" x="379.5" y="-749.5" font-family="Helvetica,sans-Serif" font-size="10.00">+ timeSchedule()</text>
<text text-anchor="start" x="379.5" y="-738.5" font-family="Helvetica,sans-Serif" font-size="10.00">+ reset()</text>
<text text-anchor="start" x="379.5" y="-727.5" font-family="Helvetica,sans-Serif" font-size="10.00">+ operator=()</text>
<text text-anchor="start" x="379.5" y="-716.5" font-family="Helvetica,sans-Serif" font-size="10.00">+ operator==()</text>
<text text-anchor="start" x="379.5" y="-705.5" font-family="Helvetica,sans-Serif" font-size="10.00">+ operator!=()</text>
<text text-anchor="start" x="379.5" y="-694.5" font-family="Helvetica,sans-Serif" font-size="10.00"># defaultFrame()</text>
<text text-anchor="start" x="379.5" y="-683.5" font-family="Helvetica,sans-Serif" font-size="10.00"># findRange()</text>
<text text-anchor="start" x="379.5" y="-672.5" font-family="Helvetica,sans-Serif" font-size="10.00"># interpolate()</text>
</a>
</g>
</g>
<!-- Node9&#45;&gt;Node8 -->
<g id="edge8" class="edge"><title>Node9&#45;&gt;Node8</title>
<path fill="none" stroke="midnightblue" d="M433,-654.964C433,-641.686 433,-629.022 433,-617.671"/>
<polygon fill="none" stroke="midnightblue" points="429.5,-655.226 433,-665.226 436.5,-655.226 429.5,-655.226"/>
</g>
<!-- Node10&#45;&gt;Node1 -->
<g id="edge26" class="edge"><title>Node10&#45;&gt;Node1</title>
<path fill="none" stroke="#404040" d="M638.016,-1359.4C648.931,-1300.46 659,-1228.36 659,-1163 659,-1163 659,-1163 659,-248.5 659,-226.094 657.218,-202.075 654.745,-179.533"/>
<polygon fill="none" stroke="#404040" points="654.736,-179.461 650.07,-173.963 653.351,-167.541 658.017,-173.039 654.736,-179.461"/>
<text text-anchor="middle" x="683.5" y="-564.5" font-family="Helvetica,sans-Serif" font-size="10.00"> #m_time</text>
</g>
<!-- Node10&#45;&gt;Node9 -->
<g id="edge9" class="edge"><title>Node10&#45;&gt;Node9</title>
<path fill="none" stroke="#404040" d="M598.779,-1359.44C584.121,-1222.42 559.021,-1014.13 539,-983 530.997,-970.558 520.985,-975.916 511,-965 507.964,-961.681 505.011,-958.221 502.142,-954.651"/>
<polygon fill="none" stroke="#404040" points="502.025,-954.498 495.205,-952.155 494.744,-944.959 501.564,-947.301 502.025,-954.498"/>
<text text-anchor="middle" x="618.5" y="-1159.5" font-family="Helvetica,sans-Serif" font-size="10.00"> #m_time</text>
</g>
<!-- Node17 -->
<g id="node17" class="node"><title>Node17</title>
<g id="a_node17"><a xlink:href="classRa_1_1Asset_1_1KeyFrame.html" target="_top" xlink:title="{Ra::Asset::KeyFrame\l\&lt; FRAME \&gt;\n||+ KeyFrame()\l+ KeyFrame()\l+ ~KeyFrame()\l+ getAnimationTime()\l+ setAnimationTime()\l+ getKeyFrame()\l+ getKeyFrame()\l+ at()\l+ setKeyFrame()\l+ setKeyFrame()\l+ insertKeyFrame()\l+ size()\l+ clear()\l+ empty()\l+ timeSchedule()\l+ reset()\l+ operator=()\l+ operator==()\l+ operator!=()\l# defaultFrame()\l# findRange()\l# interpolate()\l}">
<polygon fill="white" stroke="black" points="371.5,-1012.5 371.5,-1311.5 494.5,-1311.5 494.5,-1012.5 371.5,-1012.5"/>
<text text-anchor="start" x="379.5" y="-1299.5" font-family="Helvetica,sans-Serif" font-size="10.00">Ra::Asset::KeyFrame</text>
<text text-anchor="middle" x="433" y="-1288.5" font-family="Helvetica,sans-Serif" font-size="10.00">&lt; FRAME &gt;</text>
<polyline fill="none" stroke="black" points="371.5,-1281.5 494.5,-1281.5 "/>
<text text-anchor="middle" x="433" y="-1269.5" font-family="Helvetica,sans-Serif" font-size="10.00"> </text>
<polyline fill="none" stroke="black" points="371.5,-1262.5 494.5,-1262.5 "/>
<text text-anchor="start" x="379.5" y="-1250.5" font-family="Helvetica,sans-Serif" font-size="10.00">+ KeyFrame()</text>
<text text-anchor="start" x="379.5" y="-1239.5" font-family="Helvetica,sans-Serif" font-size="10.00">+ KeyFrame()</text>
<text text-anchor="start" x="379.5" y="-1228.5" font-family="Helvetica,sans-Serif" font-size="10.00">+ ~KeyFrame()</text>
<text text-anchor="start" x="379.5" y="-1217.5" font-family="Helvetica,sans-Serif" font-size="10.00">+ getAnimationTime()</text>
<text text-anchor="start" x="379.5" y="-1206.5" font-family="Helvetica,sans-Serif" font-size="10.00">+ setAnimationTime()</text>
<text text-anchor="start" x="379.5" y="-1195.5" font-family="Helvetica,sans-Serif" font-size="10.00">+ getKeyFrame()</text>
<text text-anchor="start" x="379.5" y="-1184.5" font-family="Helvetica,sans-Serif" font-size="10.00">+ getKeyFrame()</text>
<text text-anchor="start" x="379.5" y="-1173.5" font-family="Helvetica,sans-Serif" font-size="10.00">+ at()</text>
<text text-anchor="start" x="379.5" y="-1162.5" font-family="Helvetica,sans-Serif" font-size="10.00">+ setKeyFrame()</text>
<text text-anchor="start" x="379.5" y="-1151.5" font-family="Helvetica,sans-Serif" font-size="10.00">+ setKeyFrame()</text>
<text text-anchor="start" x="379.5" y="-1140.5" font-family="Helvetica,sans-Serif" font-size="10.00">+ insertKeyFrame()</text>
<text text-anchor="start" x="379.5" y="-1129.5" font-family="Helvetica,sans-Serif" font-size="10.00">+ size()</text>
<text text-anchor="start" x="379.5" y="-1118.5" font-family="Helvetica,sans-Serif" font-size="10.00">+ clear()</text>
<text text-anchor="start" x="379.5" y="-1107.5" font-family="Helvetica,sans-Serif" font-size="10.00">+ empty()</text>
<text text-anchor="start" x="379.5" y="-1096.5" font-family="Helvetica,sans-Serif" font-size="10.00">+ timeSchedule()</text>
<text text-anchor="start" x="379.5" y="-1085.5" font-family="Helvetica,sans-Serif" font-size="10.00">+ reset()</text>
<text text-anchor="start" x="379.5" y="-1074.5" font-family="Helvetica,sans-Serif" font-size="10.00">+ operator=()</text>
<text text-anchor="start" x="379.5" y="-1063.5" font-family="Helvetica,sans-Serif" font-size="10.00">+ operator==()</text>
<text text-anchor="start" x="379.5" y="-1052.5" font-family="Helvetica,sans-Serif" font-size="10.00">+ operator!=()</text>
<text text-anchor="start" x="379.5" y="-1041.5" font-family="Helvetica,sans-Serif" font-size="10.00"># defaultFrame()</text>
<text text-anchor="start" x="379.5" y="-1030.5" font-family="Helvetica,sans-Serif" font-size="10.00"># findRange()</text>
<text text-anchor="start" x="379.5" y="-1019.5" font-family="Helvetica,sans-Serif" font-size="10.00"># interpolate()</text>
</a>
</g>
</g>
<!-- Node10&#45;&gt;Node17 -->
<g id="edge18" class="edge"><title>Node10&#45;&gt;Node17</title>
<path fill="none" stroke="#404040" d="M540.965,-1389.72C529.995,-1373.87 519.244,-1357.24 510,-1341 506.586,-1335 503.224,-1328.82 499.929,-1322.53"/>
<polygon fill="none" stroke="#404040" points="499.925,-1322.52 493.628,-1319.01 494.449,-1311.84 500.746,-1315.36 499.925,-1322.52"/>
<text text-anchor="middle" x="534.5" y="-1333" font-family="Helvetica,sans-Serif" font-size="10.00"> #m_time</text>
</g>
<!-- Node11 -->
<g id="node11" class="node"><title>Node11</title>
<polygon fill="white" stroke="#bfbfbf" points="41.5,-1431 41.5,-1532 238.5,-1532 238.5,-1431 41.5,-1431"/>
<text text-anchor="start" x="49.5" y="-1520" font-family="Helvetica,sans-Serif" font-size="10.00">std::map&lt; Time, Core</text>
<text text-anchor="start" x="49.5" y="-1509" font-family="Helvetica,sans-Serif" font-size="10.00">::Transform, std::less</text>
<text text-anchor="start" x="49.5" y="-1498" font-family="Helvetica,sans-Serif" font-size="10.00">&lt; Time &gt;, Ra::Core::AlignedAllocator</text>
<text text-anchor="start" x="49.5" y="-1487" font-family="Helvetica,sans-Serif" font-size="10.00">&lt; std::pair&lt; const Time, Core::</text>
<text text-anchor="middle" x="140" y="-1476" font-family="Helvetica,sans-Serif" font-size="10.00">Transform &gt;, RA_DEFAULT_ALIGN &gt; &gt;</text>
<polyline fill="none" stroke="#bfbfbf" points="41.5,-1469 238.5,-1469 "/>
<text text-anchor="middle" x="140" y="-1457" font-family="Helvetica,sans-Serif" font-size="10.00"> </text>
<polyline fill="none" stroke="#bfbfbf" points="41.5,-1450 238.5,-1450 "/>
<text text-anchor="middle" x="140" y="-1438" font-family="Helvetica,sans-Serif" font-size="10.00"> </text>
</g>
<!-- Node11&#45;&gt;Node9 -->
<g id="edge11" class="edge"><title>Node11&#45;&gt;Node9</title>
<path fill="none" stroke="#404040" d="M150.344,-1430.94C169.846,-1343.18 216.789,-1156.1 290,-1012 310.144,-972.352 337.995,-932.071 363.769,-898.421"/>
<polygon fill="none" stroke="#404040" points="363.984,-898.144 364.496,-890.951 371.332,-888.657 370.82,-895.85 363.984,-898.144"/>
<text text-anchor="middle" x="326" y="-1159.5" font-family="Helvetica,sans-Serif" font-size="10.00"> #m_keyframe</text>
</g>
<!-- Node12 -->
<g id="node12" class="node"><title>Node12</title>
<g id="a_node12"><a xlink:href="classCore_1_1Transform.html" target="_top" xlink:title="{Transform\n||}">
<polygon fill="white" stroke="black" points="0,-1706.5 0,-1763.5 64,-1763.5 64,-1706.5 0,-1706.5"/>
<text text-anchor="middle" x="32" y="-1751.5" font-family="Helvetica,sans-Serif" font-size="10.00">Transform</text>
<polyline fill="none" stroke="black" points="0,-1744.5 64,-1744.5 "/>
<text text-anchor="middle" x="32" y="-1732.5" font-family="Helvetica,sans-Serif" font-size="10.00"> </text>
<polyline fill="none" stroke="black" points="0,-1725.5 64,-1725.5 "/>
<text text-anchor="middle" x="32" y="-1713.5" font-family="Helvetica,sans-Serif" font-size="10.00"> </text>
</a>
</g>
</g>
<!-- Node12&#45;&gt;Node11 -->
<g id="edge12" class="edge"><title>Node12&#45;&gt;Node11</title>
<path fill="none" stroke="#404040" d="M28.5094,-1706.46C26.6085,-1683.25 26.3176,-1649.53 36,-1622 46.2616,-1592.82 64.9521,-1564.67 83.6872,-1541.38"/>
<polygon fill="none" stroke="#404040" points="83.7616,-1541.3 84.5049,-1534.12 91.4117,-1532.05 90.6685,-1539.22 83.7616,-1541.3"/>
<text text-anchor="middle" x="64.5" y="-1652.5" font-family="Helvetica,sans-Serif" font-size="10.00"> +elements</text>
</g>
<!-- Node13 -->
<g id="node13" class="node"><title>Node13</title>
<polygon fill="white" stroke="#bfbfbf" points="194,-1706.5 194,-1763.5 234,-1763.5 234,-1706.5 194,-1706.5"/>
<text text-anchor="middle" x="214" y="-1751.5" font-family="Helvetica,sans-Serif" font-size="10.00">Time</text>
<polyline fill="none" stroke="#bfbfbf" points="194,-1744.5 234,-1744.5 "/>
<text text-anchor="middle" x="214" y="-1732.5" font-family="Helvetica,sans-Serif" font-size="10.00"> </text>
<polyline fill="none" stroke="#bfbfbf" points="194,-1725.5 234,-1725.5 "/>
<text text-anchor="middle" x="214" y="-1713.5" font-family="Helvetica,sans-Serif" font-size="10.00"> </text>
</g>
<!-- Node13&#45;&gt;Node11 -->
<g id="edge13" class="edge"><title>Node13&#45;&gt;Node11</title>
<path fill="none" stroke="#404040" d="M193.886,-1731.32C169.903,-1726.92 130.827,-1715.71 113,-1688 85.4761,-1645.22 96.5839,-1587.02 112.051,-1543.48"/>
<polygon fill="none" stroke="#404040" points="112.073,-1543.42 110.428,-1536.4 116.277,-1532.18 117.922,-1539.2 112.073,-1543.42"/>
<text text-anchor="middle" x="130" y="-1652.5" font-family="Helvetica,sans-Serif" font-size="10.00"> +keys</text>
</g>
<!-- Node18 -->
<g id="node18" class="node"><title>Node18</title>
<polygon fill="white" stroke="#bfbfbf" points="313,-1431 313,-1532 497,-1532 497,-1431 313,-1431"/>
<text text-anchor="start" x="321" y="-1520" font-family="Helvetica,sans-Serif" font-size="10.00">std::map&lt; Time, FRAME,</text>
<text text-anchor="start" x="321" y="-1509" font-family="Helvetica,sans-Serif" font-size="10.00"> std::less&lt; Time &gt;, Ra</text>
<text text-anchor="start" x="321" y="-1498" font-family="Helvetica,sans-Serif" font-size="10.00">::Core::AlignedAllocator</text>
<text text-anchor="start" x="321" y="-1487" font-family="Helvetica,sans-Serif" font-size="10.00">&lt; std::pair&lt; const Time,</text>
<text text-anchor="middle" x="405" y="-1476" font-family="Helvetica,sans-Serif" font-size="10.00"> FRAME &gt;, RA_DEFAULT_ALIGN &gt; &gt;</text>
<polyline fill="none" stroke="#bfbfbf" points="313,-1469 497,-1469 "/>
<text text-anchor="middle" x="405" y="-1457" font-family="Helvetica,sans-Serif" font-size="10.00"> </text>
<polyline fill="none" stroke="#bfbfbf" points="313,-1450 497,-1450 "/>
<text text-anchor="middle" x="405" y="-1438" font-family="Helvetica,sans-Serif" font-size="10.00"> </text>
</g>
<!-- Node13&#45;&gt;Node18 -->
<g id="edge21" class="edge"><title>Node13&#45;&gt;Node18</title>
<path fill="none" stroke="#404040" d="M234.334,-1730.59C258.906,-1725.45 300.051,-1713.49 325,-1688 345.663,-1666.89 370.486,-1596.55 386.945,-1544"/>
<polygon fill="none" stroke="#404040" points="386.983,-1543.88 384.935,-1536.97 390.53,-1532.42 392.578,-1539.33 386.983,-1543.88"/>
<text text-anchor="middle" x="377" y="-1652.5" font-family="Helvetica,sans-Serif" font-size="10.00"> +keys</text>
</g>
<!-- Node14 -->
<g id="node14" class="node"><title>Node14</title>
<g id="a_node14"><a xlink:title="STL class. ">
<polygon fill="white" stroke="#bfbfbf" points="354.5,-1706.5 354.5,-1763.5 453.5,-1763.5 453.5,-1706.5 354.5,-1706.5"/>
<text text-anchor="middle" x="404" y="-1751.5" font-family="Helvetica,sans-Serif" font-size="10.00">std::map&lt; K, T &gt;</text>
<polyline fill="none" stroke="#bfbfbf" points="354.5,-1744.5 453.5,-1744.5 "/>
<text text-anchor="middle" x="404" y="-1732.5" font-family="Helvetica,sans-Serif" font-size="10.00"> </text>
<polyline fill="none" stroke="#bfbfbf" points="354.5,-1725.5 453.5,-1725.5 "/>
<text text-anchor="middle" x="404" y="-1713.5" font-family="Helvetica,sans-Serif" font-size="10.00"> </text>
</a>
</g>
</g>
<!-- Node14&#45;&gt;Node11 -->
<g id="edge14" class="edge"><title>Node14&#45;&gt;Node11</title>
<path fill="none" stroke="orange" d="M344.411,-1723.36C274.926,-1710.83 169.085,-1691.29 166,-1688 155.519,-1676.81 147.466,-1589.37 143.256,-1532.21"/>
<polygon fill="orange" stroke="orange" points="343.92,-1726.83 354.382,-1725.16 345.161,-1719.94 343.92,-1726.83"/>
<text text-anchor="start" x="166" y="-1680" font-family="Helvetica,sans-Serif" font-size="10.00"> &lt; Time, Core::Transform,</text>
<text text-anchor="start" x="166" y="-1669" font-family="Helvetica,sans-Serif" font-size="10.00"> std::less&lt; Time &gt;, Ra</text>
<text text-anchor="start" x="166" y="-1658" font-family="Helvetica,sans-Serif" font-size="10.00">::Core::AlignedAllocator</text>
<text text-anchor="start" x="166" y="-1647" font-family="Helvetica,sans-Serif" font-size="10.00">&lt; std::pair&lt; const Time,</text>
<text text-anchor="start" x="166" y="-1636" font-family="Helvetica,sans-Serif" font-size="10.00"> Core::Transform &gt;, RA_DEFAULT</text>
<text text-anchor="middle" x="243.5" y="-1625" font-family="Helvetica,sans-Serif" font-size="10.00">_ALIGN &gt; &gt;</text>
</g>
<!-- Node14&#45;&gt;Node18 -->
<g id="edge22" class="edge"><title>Node14&#45;&gt;Node18</title>
<path fill="none" stroke="orange" d="M404.151,-1695.91C404.325,-1652.15 404.611,-1580.23 404.803,-1532.13"/>
<polygon fill="orange" stroke="orange" points="400.651,-1696.11 404.111,-1706.12 407.651,-1696.14 400.651,-1696.11"/>
<text text-anchor="start" x="405" y="-1674.5" font-family="Helvetica,sans-Serif" font-size="10.00"> &lt; Time, FRAME, std</text>
<text text-anchor="start" x="405" y="-1663.5" font-family="Helvetica,sans-Serif" font-size="10.00">::less&lt; Time &gt;, Ra::</text>
<text text-anchor="start" x="405" y="-1652.5" font-family="Helvetica,sans-Serif" font-size="10.00">Core::AlignedAllocator</text>
<text text-anchor="start" x="405" y="-1641.5" font-family="Helvetica,sans-Serif" font-size="10.00">&lt; std::pair&lt; const Time,</text>
<text text-anchor="middle" x="489" y="-1630.5" font-family="Helvetica,sans-Serif" font-size="10.00"> FRAME &gt;, RA_DEFAULT_ALIGN &gt; &gt;</text>
</g>
<!-- Node15 -->
<g id="node15" class="node"><title>Node15</title>
<polygon fill="white" stroke="#bfbfbf" points="389.5,-1811.5 389.5,-1868.5 418.5,-1868.5 418.5,-1811.5 389.5,-1811.5"/>
<text text-anchor="middle" x="404" y="-1856.5" font-family="Helvetica,sans-Serif" font-size="10.00">K</text>
<polyline fill="none" stroke="#bfbfbf" points="389.5,-1849.5 418.5,-1849.5 "/>
<text text-anchor="middle" x="404" y="-1837.5" font-family="Helvetica,sans-Serif" font-size="10.00"> </text>
<polyline fill="none" stroke="#bfbfbf" points="389.5,-1830.5 418.5,-1830.5 "/>
<text text-anchor="middle" x="404" y="-1818.5" font-family="Helvetica,sans-Serif" font-size="10.00"> </text>
</g>
<!-- Node15&#45;&gt;Node14 -->
<g id="edge15" class="edge"><title>Node15&#45;&gt;Node14</title>
<path fill="none" stroke="#404040" d="M404,-1811.4C404,-1800.55 404,-1787.87 404,-1776.05"/>
<polygon fill="none" stroke="#404040" points="404,-1775.68 400,-1769.68 404,-1763.68 408,-1769.68 404,-1775.68"/>
<text text-anchor="middle" x="421" y="-1785" font-family="Helvetica,sans-Serif" font-size="10.00"> +keys</text>
</g>
<!-- Node16 -->
<g id="node16" class="node"><title>Node16</title>
<polygon fill="white" stroke="#bfbfbf" points="664.5,-1811.5 664.5,-1868.5 693.5,-1868.5 693.5,-1811.5 664.5,-1811.5"/>
<text text-anchor="middle" x="679" y="-1856.5" font-family="Helvetica,sans-Serif" font-size="10.00">T</text>
<polyline fill="none" stroke="#bfbfbf" points="664.5,-1849.5 693.5,-1849.5 "/>
<text text-anchor="middle" x="679" y="-1837.5" font-family="Helvetica,sans-Serif" font-size="10.00"> </text>
<polyline fill="none" stroke="#bfbfbf" points="664.5,-1830.5 693.5,-1830.5 "/>
<text text-anchor="middle" x="679" y="-1818.5" font-family="Helvetica,sans-Serif" font-size="10.00"> </text>
</g>
<!-- Node16&#45;&gt;Node14 -->
<g id="edge16" class="edge"><title>Node16&#45;&gt;Node14</title>
<path fill="none" stroke="#404040" d="M664.215,-1833.46C627.327,-1819.65 529.56,-1783.03 464.929,-1758.82"/>
<polygon fill="none" stroke="#404040" points="464.904,-1758.81 457.882,-1760.45 453.666,-1754.6 460.688,-1752.96 464.904,-1758.81"/>
<text text-anchor="middle" x="578.5" y="-1785" font-family="Helvetica,sans-Serif" font-size="10.00"> +elements</text>
</g>
<!-- Node20 -->
<g id="node20" class="node"><title>Node20</title>
<g id="a_node20"><a xlink:title="STL class. ">
<polygon fill="white" stroke="#bfbfbf" points="751.5,-1626.5 751.5,-1683.5 846.5,-1683.5 846.5,-1626.5 751.5,-1626.5"/>
<text text-anchor="middle" x="799" y="-1671.5" font-family="Helvetica,sans-Serif" font-size="10.00">std::vector&lt; T &gt;</text>
<polyline fill="none" stroke="#bfbfbf" points="751.5,-1664.5 846.5,-1664.5 "/>
<text text-anchor="middle" x="799" y="-1652.5" font-family="Helvetica,sans-Serif" font-size="10.00"> </text>
<polyline fill="none" stroke="#bfbfbf" points="751.5,-1645.5 846.5,-1645.5 "/>
<text text-anchor="middle" x="799" y="-1633.5" font-family="Helvetica,sans-Serif" font-size="10.00"> </text>
</a>
</g>
</g>
<!-- Node16&#45;&gt;Node20 -->
<g id="edge25" class="edge"><title>Node16&#45;&gt;Node20</title>
<path fill="none" stroke="#404040" d="M693.714,-1816.56C713.708,-1786.07 749.741,-1731.12 774.014,-1694.1"/>
<polygon fill="none" stroke="#404040" points="774.251,-1693.74 774.196,-1686.53 780.832,-1683.71 780.886,-1690.92 774.251,-1693.74"/>
<text text-anchor="middle" x="745.5" y="-1785" font-family="Helvetica,sans-Serif" font-size="10.00"> +elements</text>
</g>
<!-- Node17&#45;&gt;Node9 -->
<g id="edge17" class="edge"><title>Node17&#45;&gt;Node9</title>
<path fill="none" stroke="orange" d="M433,-1002.36C433,-989.756 433,-977.056 433,-964.528"/>
<polygon fill="orange" stroke="orange" points="429.5,-1002.44 433,-1012.44 436.5,-1002.44 429.5,-1002.44"/>
<text text-anchor="middle" x="484" y="-986" font-family="Helvetica,sans-Serif" font-size="10.00"> &lt; Core::Transform &gt;</text>
</g>
<!-- Node18&#45;&gt;Node17 -->
<g id="edge19" class="edge"><title>Node18&#45;&gt;Node17</title>
<path fill="none" stroke="#404040" d="M406.809,-1430.96C408.087,-1401.58 410.096,-1363.63 413,-1330 413.177,-1327.95 413.36,-1325.89 413.547,-1323.81"/>
<polygon fill="none" stroke="#404040" points="413.551,-1323.77 410.129,-1317.42 414.672,-1311.82 418.094,-1318.17 413.551,-1323.77"/>
<text text-anchor="middle" x="449" y="-1333" font-family="Helvetica,sans-Serif" font-size="10.00"> #m_keyframe</text>
</g>
<!-- Node19 -->
<g id="node19" class="node"><title>Node19</title>
<polygon fill="white" stroke="#bfbfbf" points="571,-1706.5 571,-1763.5 619,-1763.5 619,-1706.5 571,-1706.5"/>
<text text-anchor="middle" x="595" y="-1751.5" font-family="Helvetica,sans-Serif" font-size="10.00">FRAME</text>
<polyline fill="none" stroke="#bfbfbf" points="571,-1744.5 619,-1744.5 "/>
<text text-anchor="middle" x="595" y="-1732.5" font-family="Helvetica,sans-Serif" font-size="10.00"> </text>
<polyline fill="none" stroke="#bfbfbf" points="571,-1725.5 619,-1725.5 "/>
<text text-anchor="middle" x="595" y="-1713.5" font-family="Helvetica,sans-Serif" font-size="10.00"> </text>
</g>
<!-- Node19&#45;&gt;Node18 -->
<g id="edge20" class="edge"><title>Node19&#45;&gt;Node18</title>
<path fill="none" stroke="#404040" d="M592.512,-1706.44C589.407,-1677.6 583.223,-1634.76 573,-1622 560.556,-1606.47 548.553,-1615.05 532,-1604 505.343,-1586.21 479.182,-1562.57 457.597,-1540.87"/>
<polygon fill="none" stroke="#404040" points="457.341,-1540.6 450.285,-1539.11 448.947,-1532.03 456.002,-1533.52 457.341,-1540.6"/>
<text text-anchor="middle" x="618.5" y="-1652.5" font-family="Helvetica,sans-Serif" font-size="10.00"> +elements</text>
</g>
<!-- Node20&#45;&gt;Node6 -->
<g id="edge24" class="edge"><title>Node20&#45;&gt;Node6</title>
<path fill="none" stroke="orange" d="M796.852,-1616.36C793.651,-1556.93 788,-1437.7 788,-1336.5 788,-1336.5 788,-1336.5 788,-814 788,-578.667 821.565,-466.217 653,-302 636.45,-285.877 614.092,-274.476 593.037,-266.574"/>
<polygon fill="orange" stroke="orange" points="793.36,-1616.61 797.401,-1626.41 800.35,-1616.23 793.36,-1616.61"/>
<text text-anchor="middle" x="868" y="-812.5" font-family="Helvetica,sans-Serif" font-size="10.00"> &lt; Ra::Asset::HandleAnimation &gt;</text>
</g>
</g>
</svg>
