<?xml version="1.0" encoding="UTF-8" standalone="no"?>
<!DOCTYPE svg PUBLIC "-//W3C//DTD SVG 1.1//EN"
 "http://www.w3.org/Graphics/SVG/1.1/DTD/svg11.dtd">
<!-- Generated by graphviz version 2.38.0 (20140413.2041)
 -->
<!-- Title: Ra::GuiBase::EngineTreeItem::getName Pages: 1 -->
<svg width="1030pt" height="411pt"
 viewBox="0.00 0.00 1030.00 411.00" xmlns="http://www.w3.org/2000/svg" xmlns:xlink="http://www.w3.org/1999/xlink">
<g id="graph0" class="graph" transform="scale(1 1) rotate(0) translate(4 407)">
<title>Ra::GuiBase::EngineTreeItem::getName</title>
<polygon fill="white" stroke="none" points="-4,4 -4,-407 1026,-407 1026,4 -4,4"/>
<!-- Node1 -->
<g id="node1" class="node"><title>Node1</title>
<polygon fill="#bfbfbf" stroke="black" points="0,-156.5 0,-186.5 154,-186.5 154,-156.5 0,-156.5"/>
<text text-anchor="start" x="8" y="-174.5" font-family="Helvetica,sans-Serif" font-size="10.00">Ra::GuiBase::EngineTreeItem</text>
<text text-anchor="middle" x="77" y="-163.5" font-family="Helvetica,sans-Serif" font-size="10.00">::getName</text>
</g>
<!-- Node2 -->
<g id="node2" class="node"><title>Node2</title>
<g id="a_node2"><a xlink:href="namespaceRa_1_1Engine.html#a318db0d77f9e9b965c12bd100fb8de50" target="_top" xlink:title="Returns the name associated to the given item. ">
<polygon fill="white" stroke="black" points="190,-162 190,-181 333,-181 333,-162 190,-162"/>
<text text-anchor="middle" x="261.5" y="-169" font-family="Helvetica,sans-Serif" font-size="10.00">Ra::Engine::getEntryName</text>
</a>
</g>
</g>
<!-- Node1&#45;&gt;Node2 -->
<g id="edge1" class="edge"><title>Node1&#45;&gt;Node2</title>
<path fill="none" stroke="midnightblue" d="M154.075,-171.5C162.488,-171.5 171.079,-171.5 179.55,-171.5"/>
<polygon fill="midnightblue" stroke="midnightblue" points="179.803,-175 189.802,-171.5 179.802,-168 179.803,-175"/>
</g>
<!-- Node3 -->
<g id="node3" class="node"><title>Node3</title>
<g id="a_node3"><a xlink:href="structRa_1_1Engine_1_1ItemEntry.html#aceafc81a73631955b64999dd39a639da" target="_top" xlink:title="Returns true if the item represents any valid object. ">
<polygon fill="white" stroke="black" points="381.5,-222.5 381.5,-252.5 500.5,-252.5 500.5,-222.5 381.5,-222.5"/>
<text text-anchor="start" x="389.5" y="-240.5" font-family="Helvetica,sans-Serif" font-size="10.00">Ra::Engine::ItemEntry</text>
<text text-anchor="middle" x="441" y="-229.5" font-family="Helvetica,sans-Serif" font-size="10.00">::isValid</text>
</a>
</g>
</g>
<!-- Node2&#45;&gt;Node3 -->
<g id="edge2" class="edge"><title>Node2&#45;&gt;Node3</title>
<path fill="none" stroke="midnightblue" d="M288.31,-181.097C314.826,-190.957 356.786,-206.558 389.86,-218.856"/>
<polygon fill="midnightblue" stroke="midnightblue" points="388.778,-222.188 399.371,-222.393 391.218,-215.627 388.778,-222.188"/>
</g>
<!-- Node8 -->
<g id="node8" class="node"><title>Node8</title>
<g id="a_node8"><a xlink:href="classRa_1_1Engine_1_1Entity.html#aaf256bea44bbc5bff6aa504aca05ca35" target="_top" xlink:title="Ra::Engine::Entity\l::getName">
<polygon fill="white" stroke="black" points="571,-323.5 571,-353.5 671,-353.5 671,-323.5 571,-323.5"/>
<text text-anchor="start" x="579" y="-341.5" font-family="Helvetica,sans-Serif" font-size="10.00">Ra::Engine::Entity</text>
<text text-anchor="middle" x="621" y="-330.5" font-family="Helvetica,sans-Serif" font-size="10.00">::getName</text>
</a>
</g>
</g>
<!-- Node2&#45;&gt;Node8 -->
<g id="edge24" class="edge"><title>Node2&#45;&gt;Node8</title>
<path fill="none" stroke="midnightblue" d="M271.224,-181.102C288.284,-199.329 327.991,-239.116 369,-261.5 430.454,-295.044 508.523,-316.055 561.146,-327.497"/>
<polygon fill="midnightblue" stroke="midnightblue" points="560.483,-330.934 570.992,-329.591 561.939,-324.087 560.483,-330.934"/>
</g>
<!-- Node9 -->
<g id="node9" class="node"><title>Node9</title>
<g id="a_node9"><a xlink:href="structRa_1_1Engine_1_1ItemEntry.html#a898047549069e5b64d3a9a65c058af56" target="_top" xlink:title="Returns true if the item represents a render object. ">
<polygon fill="white" stroke="black" points="561.5,-137.5 561.5,-167.5 680.5,-167.5 680.5,-137.5 561.5,-137.5"/>
<text text-anchor="start" x="569.5" y="-155.5" font-family="Helvetica,sans-Serif" font-size="10.00">Ra::Engine::ItemEntry</text>
<text text-anchor="middle" x="621" y="-144.5" font-family="Helvetica,sans-Serif" font-size="10.00">::isRoNode</text>
</a>
</g>
</g>
<!-- Node2&#45;&gt;Node9 -->
<g id="edge14" class="edge"><title>Node2&#45;&gt;Node9</title>
<path fill="none" stroke="midnightblue" d="M333.052,-172.162C383.296,-172.128 452.382,-171.057 513,-166.5 525.383,-165.569 538.526,-164.182 551.206,-162.637"/>
<polygon fill="midnightblue" stroke="midnightblue" points="551.769,-166.094 561.253,-161.37 550.893,-159.149 551.769,-166.094"/>
</g>
<!-- Node11 -->
<g id="node11" class="node"><title>Node11</title>
<g id="a_node11"><a xlink:href="classRa_1_1Engine_1_1RadiumEngine.html#a58b27bc600ea769f68b0e2938abc7862" target="_top" xlink:title="Manager getters. ">
<polygon fill="white" stroke="black" points="549,-88.5 549,-118.5 693,-118.5 693,-88.5 549,-88.5"/>
<text text-anchor="start" x="557" y="-106.5" font-family="Helvetica,sans-Serif" font-size="10.00">Ra::Engine::RadiumEngine</text>
<text text-anchor="middle" x="621" y="-95.5" font-family="Helvetica,sans-Serif" font-size="10.00">::getRenderObjectManager</text>
</a>
</g>
</g>
<!-- Node2&#45;&gt;Node11 -->
<g id="edge15" class="edge"><title>Node2&#45;&gt;Node11</title>
<path fill="none" stroke="midnightblue" d="M333.063,-162.63C383.462,-155.781 452.729,-145.319 513,-132.5 528.134,-129.281 544.315,-125.224 559.392,-121.173"/>
<polygon fill="midnightblue" stroke="midnightblue" points="560.392,-124.528 569.119,-118.52 558.55,-117.775 560.392,-124.528"/>
</g>
<!-- Node13 -->
<g id="node13" class="node"><title>Node13</title>
<g id="a_node13"><a xlink:href="classRa_1_1Engine_1_1RenderObjectManager.html#a32bd0db0d9620bb7e3f0fe50b541dae3" target="_top" xlink:title="Returns the render object corresponding to the given index. ">
<polygon fill="white" stroke="black" points="369,-355.5 369,-385.5 513,-385.5 513,-355.5 369,-355.5"/>
<text text-anchor="start" x="377" y="-373.5" font-family="Helvetica,sans-Serif" font-size="10.00">Ra::Engine::RenderObject</text>
<text text-anchor="middle" x="441" y="-362.5" font-family="Helvetica,sans-Serif" font-size="10.00">Manager::getRenderObject</text>
</a>
</g>
</g>
<!-- Node2&#45;&gt;Node13 -->
<g id="edge16" class="edge"><title>Node2&#45;&gt;Node13</title>
<path fill="none" stroke="midnightblue" d="M267.659,-181.33C281.464,-206.986 321.449,-277.189 369,-323.5 379.211,-333.445 391.802,-342.566 403.533,-350.073"/>
<polygon fill="midnightblue" stroke="midnightblue" points="401.936,-353.2 412.281,-355.486 405.619,-347.248 401.936,-353.2"/>
</g>
<!-- Node14 -->
<g id="node14" class="node"><title>Node14</title>
<g id="a_node14"><a xlink:href="structRa_1_1Engine_1_1ItemEntry.html#ac78e7430338c62ed664a16da7e3ea206" target="_top" xlink:title="Returns true if the item represents a component. ">
<polygon fill="white" stroke="black" points="561.5,-0.5 561.5,-30.5 680.5,-30.5 680.5,-0.5 561.5,-0.5"/>
<text text-anchor="start" x="569.5" y="-18.5" font-family="Helvetica,sans-Serif" font-size="10.00">Ra::Engine::ItemEntry</text>
<text text-anchor="middle" x="621" y="-7.5" font-family="Helvetica,sans-Serif" font-size="10.00">::isComponentNode</text>
</a>
</g>
</g>
<!-- Node2&#45;&gt;Node14 -->
<g id="edge18" class="edge"><title>Node2&#45;&gt;Node14</title>
<path fill="none" stroke="midnightblue" d="M266.506,-161.983C277.991,-136.058 313.793,-64.144 369,-34.5 425.064,-4.39559 498.558,-2.39119 551.514,-6.2598"/>
<polygon fill="midnightblue" stroke="midnightblue" points="551.235,-9.74857 561.487,-7.07502 551.806,-2.77184 551.235,-9.74857"/>
</g>
<!-- Node15 -->
<g id="node15" class="node"><title>Node15</title>
<g id="a_node15"><a xlink:href="classRa_1_1Engine_1_1Component.html#aa3e5cb90432a9a49e4362b673652ff76" target="_top" xlink:title="Return the component&#39;s name. ">
<polygon fill="white" stroke="black" points="376.5,-44.5 376.5,-74.5 505.5,-74.5 505.5,-44.5 376.5,-44.5"/>
<text text-anchor="start" x="384.5" y="-62.5" font-family="Helvetica,sans-Serif" font-size="10.00">Ra::Engine::Component</text>
<text text-anchor="middle" x="441" y="-51.5" font-family="Helvetica,sans-Serif" font-size="10.00">::getName</text>
</a>
</g>
</g>
<!-- Node2&#45;&gt;Node15 -->
<g id="edge21" class="edge"><title>Node2&#45;&gt;Node15</title>
<path fill="none" stroke="midnightblue" d="M271.598,-161.952C288.979,-144.206 328.77,-105.911 369,-83.5 372.2,-81.7171 375.556,-80.036 378.993,-78.456"/>
<polygon fill="midnightblue" stroke="midnightblue" points="380.413,-81.6557 388.234,-74.5089 377.663,-75.2183 380.413,-81.6557"/>
</g>
<!-- Node16 -->
<g id="node16" class="node"><title>Node16</title>
<g id="a_node16"><a xlink:href="structRa_1_1Engine_1_1ItemEntry.html#a4823dfa3c113db71733979f1719f3b28" target="_top" xlink:title="Returns true if the item represents an entity. ">
<polygon fill="white" stroke="black" points="381.5,-93.5 381.5,-123.5 500.5,-123.5 500.5,-93.5 381.5,-93.5"/>
<text text-anchor="start" x="389.5" y="-111.5" font-family="Helvetica,sans-Serif" font-size="10.00">Ra::Engine::ItemEntry</text>
<text text-anchor="middle" x="441" y="-100.5" font-family="Helvetica,sans-Serif" font-size="10.00">::isEntityNode</text>
</a>
</g>
</g>
<!-- Node2&#45;&gt;Node16 -->
<g id="edge22" class="edge"><title>Node2&#45;&gt;Node16</title>
<path fill="none" stroke="midnightblue" d="M289.458,-161.932C315.474,-152.698 355.553,-138.473 387.817,-127.021"/>
<polygon fill="midnightblue" stroke="midnightblue" points="389.302,-130.208 397.555,-123.565 386.96,-123.612 389.302,-130.208"/>
</g>
<!-- Node4 -->
<g id="node4" class="node"><title>Node4</title>
<g id="a_node4"><a xlink:href="structRa_1_1Engine_1_1ItemEntry.html#a1fb9fdd74413a1fa5878f53c1cfcf8fd" target="_top" xlink:title="Debug checks. ">
<polygon fill="white" stroke="black" points="732,-44.5 732,-74.5 851,-74.5 851,-44.5 732,-44.5"/>
<text text-anchor="start" x="740" y="-62.5" font-family="Helvetica,sans-Serif" font-size="10.00">Ra::Engine::ItemEntry</text>
<text text-anchor="middle" x="791.5" y="-51.5" font-family="Helvetica,sans-Serif" font-size="10.00">::checkConsistency</text>
</a>
</g>
</g>
<!-- Node3&#45;&gt;Node4 -->
<g id="edge3" class="edge"><title>Node3&#45;&gt;Node4</title>
<path fill="none" stroke="midnightblue" d="M500.654,-225.273C569.58,-210.589 676.681,-186.668 693,-176.5 730.539,-153.11 760.649,-110.332 777.011,-83.4902"/>
<polygon fill="midnightblue" stroke="midnightblue" points="780.123,-85.1047 782.215,-74.7185 774.102,-81.5332 780.123,-85.1047"/>
</g>
<!-- Node6 -->
<g id="node6" class="node"><title>Node6</title>
<g id="a_node6"><a xlink:href="classRa_1_1Engine_1_1RadiumEngine.html#a79f6626ce468268791bc5bdfe17b5586" target="_top" xlink:title="Get the entity manager attached to the engine. ">
<polygon fill="white" stroke="black" points="550.5,-274.5 550.5,-304.5 691.5,-304.5 691.5,-274.5 550.5,-274.5"/>
<text text-anchor="start" x="558.5" y="-292.5" font-family="Helvetica,sans-Serif" font-size="10.00">Ra::Engine::RadiumEngine</text>
<text text-anchor="middle" x="621" y="-281.5" font-family="Helvetica,sans-Serif" font-size="10.00">::getEntityManager</text>
</a>
</g>
</g>
<!-- Node3&#45;&gt;Node6 -->
<g id="edge5" class="edge"><title>Node3&#45;&gt;Node6</title>
<path fill="none" stroke="midnightblue" d="M493.485,-252.541C513.964,-258.523 537.687,-265.453 559.018,-271.685"/>
<polygon fill="midnightblue" stroke="midnightblue" points="558.05,-275.049 568.631,-274.493 560.013,-268.329 558.05,-275.049"/>
</g>
<!-- Node7 -->
<g id="node7" class="node"><title>Node7</title>
<g id="a_node7"><a xlink:href="classRa_1_1Engine_1_1EntityManager.html#a5115cccae6aaef614ad4bd08e64d8185" target="_top" xlink:title="Check wether an entity with a given name exists or not. ">
<polygon fill="white" stroke="black" points="550,-225.5 550,-255.5 692,-255.5 692,-225.5 550,-225.5"/>
<text text-anchor="start" x="558" y="-243.5" font-family="Helvetica,sans-Serif" font-size="10.00">Ra::Engine::EntityManager</text>
<text text-anchor="middle" x="621" y="-232.5" font-family="Helvetica,sans-Serif" font-size="10.00">::entityExists</text>
</a>
</g>
</g>
<!-- Node3&#45;&gt;Node7 -->
<g id="edge6" class="edge"><title>Node3&#45;&gt;Node7</title>
<path fill="none" stroke="midnightblue" d="M500.777,-238.491C513.162,-238.699 526.433,-238.923 539.461,-239.143"/>
<polygon fill="midnightblue" stroke="midnightblue" points="539.777,-242.648 549.834,-239.317 539.895,-235.649 539.777,-242.648"/>
</g>
<!-- Node3&#45;&gt;Node8 -->
<g id="edge7" class="edge"><title>Node3&#45;&gt;Node8</title>
<path fill="none" stroke="midnightblue" d="M459.923,-252.623C480.396,-269.309 515.417,-296.098 549,-313.5 553.202,-315.678 557.637,-317.739 562.154,-319.675"/>
<polygon fill="midnightblue" stroke="midnightblue" points="560.91,-322.947 571.493,-323.466 563.543,-316.461 560.91,-322.947"/>
</g>
<!-- Node3&#45;&gt;Node9 -->
<g id="edge8" class="edge"><title>Node3&#45;&gt;Node9</title>
<path fill="none" stroke="midnightblue" d="M476.334,-222.494C488.101,-217.101 501.258,-210.791 513,-204.5 529.529,-195.645 532.318,-191.062 549,-182.5 556.364,-178.721 564.314,-175.017 572.137,-171.572"/>
<polygon fill="midnightblue" stroke="midnightblue" points="573.768,-174.68 581.568,-167.511 570.999,-168.251 573.768,-174.68"/>
</g>
<!-- Node3&#45;&gt;Node11 -->
<g id="edge11" class="edge"><title>Node3&#45;&gt;Node11</title>
<path fill="none" stroke="midnightblue" d="M457.413,-222.439C471.916,-208.185 494.159,-186.11 513,-166.5 529.343,-149.49 529.213,-140.342 549,-127.5 551.456,-125.906 554.028,-124.407 556.678,-122.999"/>
<polygon fill="midnightblue" stroke="midnightblue" points="558.432,-126.039 565.928,-118.551 555.399,-119.73 558.432,-126.039"/>
</g>
<!-- Node12 -->
<g id="node12" class="node"><title>Node12</title>
<g id="a_node12"><a xlink:href="classRa_1_1Engine_1_1RenderObjectManager.html#a4077b9cf9e1e4d62fd5456386f2d72c8" target="_top" xlink:title="Returns true if the index points to a valid render object. ">
<polygon fill="white" stroke="black" points="552.5,-372.5 552.5,-402.5 689.5,-402.5 689.5,-372.5 552.5,-372.5"/>
<text text-anchor="start" x="560.5" y="-390.5" font-family="Helvetica,sans-Serif" font-size="10.00">Ra::Engine::RenderObject</text>
<text text-anchor="middle" x="621" y="-379.5" font-family="Helvetica,sans-Serif" font-size="10.00">Manager::exists</text>
</a>
</g>
</g>
<!-- Node3&#45;&gt;Node12 -->
<g id="edge12" class="edge"><title>Node3&#45;&gt;Node12</title>
<path fill="none" stroke="midnightblue" d="M450.929,-252.614C467.188,-278.877 504.123,-333.037 549,-363.5 551.372,-365.11 553.861,-366.621 556.43,-368.037"/>
<polygon fill="midnightblue" stroke="midnightblue" points="554.905,-371.187 565.418,-372.498 558.017,-364.917 554.905,-371.187"/>
</g>
<!-- Node5 -->
<g id="node5" class="node"><title>Node5</title>
<g id="a_node5"><a xlink:href="classRa_1_1Core_1_1Index.html#a7283e7fb9cc134e04ef3cde8877f8fe2" target="_top" xlink:title="INVALID. ">
<polygon fill="white" stroke="black" points="890,-28 890,-47 1022,-47 1022,-28 890,-28"/>
<text text-anchor="middle" x="956" y="-35" font-family="Helvetica,sans-Serif" font-size="10.00">Ra::Core::Index::isInvalid</text>
</a>
</g>
</g>
<!-- Node4&#45;&gt;Node5 -->
<g id="edge4" class="edge"><title>Node4&#45;&gt;Node5</title>
<path fill="none" stroke="midnightblue" d="M851.166,-51.5575C860.477,-50.2969 870.219,-48.9781 879.845,-47.6749"/>
<polygon fill="midnightblue" stroke="midnightblue" points="880.372,-51.1355 889.812,-46.3254 879.433,-44.1988 880.372,-51.1355"/>
</g>
<!-- Node9&#45;&gt;Node4 -->
<g id="edge9" class="edge"><title>Node9&#45;&gt;Node4</title>
<path fill="none" stroke="midnightblue" d="M670.48,-137.413C678.162,-134.46 685.906,-131.137 693,-127.5 718.48,-114.436 744.981,-95.5574 763.912,-81.0052"/>
<polygon fill="midnightblue" stroke="midnightblue" points="766.314,-83.5703 772.046,-74.66 762.009,-78.051 766.314,-83.5703"/>
</g>
<!-- Node10 -->
<g id="node10" class="node"><title>Node10</title>
<g id="a_node10"><a xlink:href="classRa_1_1Core_1_1Index.html#a87c70243f30c65c1a24834d1829bda01" target="_top" xlink:title="DESTRUCTOR: Must not be defined, we need it trivial to be constexpr. ">
<polygon fill="white" stroke="black" points="729,-260 729,-279 854,-279 854,-260 729,-260"/>
<text text-anchor="middle" x="791.5" y="-267" font-family="Helvetica,sans-Serif" font-size="10.00">Ra::Core::Index::isValid</text>
</a>
</g>
</g>
<!-- Node9&#45;&gt;Node10 -->
<g id="edge10" class="edge"><title>Node9&#45;&gt;Node10</title>
<path fill="none" stroke="midnightblue" d="M643.683,-167.556C675.857,-189.896 735.919,-231.601 768.356,-254.124"/>
<polygon fill="midnightblue" stroke="midnightblue" points="766.516,-257.108 776.727,-259.936 770.509,-251.358 766.516,-257.108"/>
</g>
<!-- Node12&#45;&gt;Node10 -->
<g id="edge13" class="edge"><title>Node12&#45;&gt;Node10</title>
<path fill="none" stroke="midnightblue" d="M675.136,-372.457C681.347,-369.857 687.442,-366.881 693,-363.5 727.251,-342.663 759.129,-307.883 776.601,-286.977"/>
<polygon fill="midnightblue" stroke="midnightblue" points="779.343,-289.153 782.971,-279.198 773.927,-284.718 779.343,-289.153"/>
</g>
<!-- Node13&#45;&gt;Node12 -->
<g id="edge17" class="edge"><title>Node13&#45;&gt;Node12</title>
<path fill="none" stroke="midnightblue" d="M513.118,-377.292C522.748,-378.212 532.67,-379.16 542.407,-380.089"/>
<polygon fill="midnightblue" stroke="midnightblue" points="542.179,-383.584 552.467,-381.05 542.845,-376.615 542.179,-383.584"/>
</g>
<!-- Node14&#45;&gt;Node4 -->
<g id="edge19" class="edge"><title>Node14&#45;&gt;Node4</title>
<path fill="none" stroke="midnightblue" d="M679.517,-30.5192C693.538,-34.1804 708.66,-38.1294 723.095,-41.8987"/>
<polygon fill="midnightblue" stroke="midnightblue" points="722.397,-45.3336 732.956,-44.4738 724.165,-38.5607 722.397,-45.3336"/>
</g>
<!-- Node14&#45;&gt;Node5 -->
<g id="edge20" class="edge"><title>Node14&#45;&gt;Node5</title>
<path fill="none" stroke="midnightblue" d="M680.767,-19.3825C736.189,-23.044 819.52,-28.5494 879.773,-32.53"/>
<polygon fill="midnightblue" stroke="midnightblue" points="879.779,-36.038 889.988,-33.2049 880.241,-29.0532 879.779,-36.038"/>
</g>
<!-- Node16&#45;&gt;Node4 -->
<g id="edge23" class="edge"><title>Node16&#45;&gt;Node4</title>
<path fill="none" stroke="midnightblue" d="M488.156,-93.4356C506.854,-87.8924 528.77,-82.0963 549,-78.5 606.6,-68.2603 672.908,-63.5387 721.454,-61.3618"/>
<polygon fill="midnightblue" stroke="midnightblue" points="721.691,-64.855 731.534,-60.9348 721.395,-57.8613 721.691,-64.855"/>
</g>
</g>
</svg>
