<?xml version="1.0" encoding="UTF-8" standalone="no"?>
<!DOCTYPE svg PUBLIC "-//W3C//DTD SVG 1.1//EN"
 "http://www.w3.org/Graphics/SVG/1.1/DTD/svg11.dtd">
<!-- Generated by graphviz version 2.38.0 (20140413.2041)
 -->
<!-- Title: AnimationPlugin::AnimationComponent Pages: 1 -->
<svg width="698pt" height="1571pt"
 viewBox="0.00 0.00 698.00 1571.00" xmlns="http://www.w3.org/2000/svg" xmlns:xlink="http://www.w3.org/1999/xlink">
<g id="graph0" class="graph" transform="scale(1 1) rotate(0) translate(4 1567)">
<title>AnimationPlugin::AnimationComponent</title>
<polygon fill="white" stroke="none" points="-4,4 -4,-1567 694,-1567 694,4 -4,4"/>
<!-- Node1 -->
<g id="node1" class="node"><title>Node1</title>
<polygon fill="#bfbfbf" stroke="black" points="337.5,-0.5 337.5,-343.5 497.5,-343.5 497.5,-0.5 337.5,-0.5"/>
<text text-anchor="start" x="345.5" y="-331.5" font-family="Helvetica,sans-Serif" font-size="10.00">AnimationPlugin::Animation</text>
<text text-anchor="middle" x="417.5" y="-320.5" font-family="Helvetica,sans-Serif" font-size="10.00">Component</text>
<polyline fill="none" stroke="black" points="337.5,-313.5 497.5,-313.5 "/>
<text text-anchor="middle" x="417.5" y="-301.5" font-family="Helvetica,sans-Serif" font-size="10.00"> </text>
<polyline fill="none" stroke="black" points="337.5,-294.5 497.5,-294.5 "/>
<text text-anchor="start" x="345.5" y="-282.5" font-family="Helvetica,sans-Serif" font-size="10.00">+ AnimationComponent()</text>
<text text-anchor="start" x="345.5" y="-271.5" font-family="Helvetica,sans-Serif" font-size="10.00">+ ~AnimationComponent()</text>
<text text-anchor="start" x="345.5" y="-260.5" font-family="Helvetica,sans-Serif" font-size="10.00">+ AnimationComponent()</text>
<text text-anchor="start" x="345.5" y="-249.5" font-family="Helvetica,sans-Serif" font-size="10.00">+ operator=()</text>
<text text-anchor="start" x="345.5" y="-238.5" font-family="Helvetica,sans-Serif" font-size="10.00">+ initialize()</text>
<text text-anchor="start" x="345.5" y="-227.5" font-family="Helvetica,sans-Serif" font-size="10.00">+ handleSkeletonLoading()</text>
<text text-anchor="start" x="345.5" y="-216.5" font-family="Helvetica,sans-Serif" font-size="10.00">+ handleAnimationLoading()</text>
<text text-anchor="start" x="345.5" y="-205.5" font-family="Helvetica,sans-Serif" font-size="10.00">+ setSkeleton()</text>
<text text-anchor="start" x="345.5" y="-194.5" font-family="Helvetica,sans-Serif" font-size="10.00">+ getSkeleton()</text>
<text text-anchor="start" x="345.5" y="-183.5" font-family="Helvetica,sans-Serif" font-size="10.00">+ update()</text>
<text text-anchor="start" x="345.5" y="-172.5" font-family="Helvetica,sans-Serif" font-size="10.00">+ reset()</text>
<text text-anchor="start" x="345.5" y="-161.5" font-family="Helvetica,sans-Serif" font-size="10.00">+ cacheFrame()</text>
<text text-anchor="start" x="345.5" y="-150.5" font-family="Helvetica,sans-Serif" font-size="10.00">+ restoreFrame()</text>
<text text-anchor="start" x="345.5" y="-139.5" font-family="Helvetica,sans-Serif" font-size="10.00">+ toggleAnimationTimeStep()</text>
<text text-anchor="start" x="345.5" y="-128.5" font-family="Helvetica,sans-Serif" font-size="10.00">+ setSpeed()</text>
<text text-anchor="start" x="345.5" y="-117.5" font-family="Helvetica,sans-Serif" font-size="10.00">+ toggleSlowMotion()</text>
<text text-anchor="start" x="345.5" y="-106.5" font-family="Helvetica,sans-Serif" font-size="10.00">+ setAnimation()</text>
<text text-anchor="start" x="345.5" y="-95.5" font-family="Helvetica,sans-Serif" font-size="10.00">+ getTime()</text>
<text text-anchor="start" x="345.5" y="-84.5" font-family="Helvetica,sans-Serif" font-size="10.00">+ getDuration()</text>
<text text-anchor="start" x="345.5" y="-73.5" font-family="Helvetica,sans-Serif" font-size="10.00">+ getMaxFrame()</text>
<text text-anchor="start" x="345.5" y="-62.5" font-family="Helvetica,sans-Serif" font-size="10.00">+ setXray()</text>
<text text-anchor="start" x="345.5" y="-51.5" font-family="Helvetica,sans-Serif" font-size="10.00">+ toggleSkeleton()</text>
<text text-anchor="start" x="345.5" y="-40.5" font-family="Helvetica,sans-Serif" font-size="10.00">+ getBoneIdx()</text>
<text text-anchor="start" x="345.5" y="-29.5" font-family="Helvetica,sans-Serif" font-size="10.00">+ canEdit()</text>
<text text-anchor="start" x="345.5" y="-18.5" font-family="Helvetica,sans-Serif" font-size="10.00">+ getTransform()</text>
<text text-anchor="start" x="345.5" y="-7.5" font-family="Helvetica,sans-Serif" font-size="10.00">+ setTransform()</text>
</g>
<!-- Node2 -->
<g id="node2" class="node"><title>Node2</title>
<g id="a_node2"><a xlink:href="classRa_1_1Engine_1_1Component.html" target="_top" xlink:title="A component is an element that can be updated by a system. ">
<polygon fill="white" stroke="black" points="337,-381.5 337,-603.5 498,-603.5 498,-381.5 337,-381.5"/>
<text text-anchor="middle" x="417.5" y="-591.5" font-family="Helvetica,sans-Serif" font-size="10.00">Ra::Engine::Component</text>
<polyline fill="none" stroke="black" points="337,-584.5 498,-584.5 "/>
<text text-anchor="middle" x="417.5" y="-572.5" font-family="Helvetica,sans-Serif" font-size="10.00"> </text>
<polyline fill="none" stroke="black" points="337,-565.5 498,-565.5 "/>
<text text-anchor="start" x="345" y="-553.5" font-family="Helvetica,sans-Serif" font-size="10.00">+ Component()</text>
<text text-anchor="start" x="345" y="-542.5" font-family="Helvetica,sans-Serif" font-size="10.00">+ ~Component()</text>
<text text-anchor="start" x="345" y="-531.5" font-family="Helvetica,sans-Serif" font-size="10.00">+ initialize()</text>
<text text-anchor="start" x="345" y="-520.5" font-family="Helvetica,sans-Serif" font-size="10.00">+ setEntity()</text>
<text text-anchor="start" x="345" y="-509.5" font-family="Helvetica,sans-Serif" font-size="10.00">+ getEntity()</text>
<text text-anchor="start" x="345" y="-498.5" font-family="Helvetica,sans-Serif" font-size="10.00">+ getName()</text>
<text text-anchor="start" x="345" y="-487.5" font-family="Helvetica,sans-Serif" font-size="10.00">+ setSystem()</text>
<text text-anchor="start" x="345" y="-476.5" font-family="Helvetica,sans-Serif" font-size="10.00">+ getSystem()</text>
<text text-anchor="start" x="345" y="-465.5" font-family="Helvetica,sans-Serif" font-size="10.00">+ addRenderObject()</text>
<text text-anchor="start" x="345" y="-454.5" font-family="Helvetica,sans-Serif" font-size="10.00">+ removeRenderObject()</text>
<text text-anchor="start" x="345" y="-443.5" font-family="Helvetica,sans-Serif" font-size="10.00">+ rayCastQuery()</text>
<text text-anchor="start" x="345" y="-432.5" font-family="Helvetica,sans-Serif" font-size="10.00">+ canEdit()</text>
<text text-anchor="start" x="345" y="-421.5" font-family="Helvetica,sans-Serif" font-size="10.00">+ getTransform()</text>
<text text-anchor="start" x="345" y="-410.5" font-family="Helvetica,sans-Serif" font-size="10.00">+ setTransform()</text>
<text text-anchor="start" x="345" y="-399.5" font-family="Helvetica,sans-Serif" font-size="10.00">+ notifyRenderObjectExpired()</text>
<text text-anchor="start" x="345" y="-388.5" font-family="Helvetica,sans-Serif" font-size="10.00"># getRoMgr()</text>
</a>
</g>
</g>
<!-- Node2&#45;&gt;Node1 -->
<g id="edge1" class="edge"><title>Node2&#45;&gt;Node1</title>
<path fill="none" stroke="midnightblue" d="M417.5,-371.25C417.5,-362.146 417.5,-352.862 417.5,-343.525"/>
<polygon fill="none" stroke="midnightblue" points="414,-371.444 417.5,-381.444 421,-371.444 414,-371.444"/>
</g>
<!-- Node3 -->
<g id="node3" class="node"><title>Node3</title>
<polygon fill="white" stroke="#bfbfbf" points="73,-949 73,-1017 180,-1017 180,-949 73,-949"/>
<text text-anchor="start" x="81" y="-1005" font-family="Helvetica,sans-Serif" font-size="10.00">std::vector&lt; Core::</text>
<text text-anchor="middle" x="126.5" y="-994" font-family="Helvetica,sans-Serif" font-size="10.00">Index &gt;</text>
<polyline fill="none" stroke="#bfbfbf" points="73,-987 180,-987 "/>
<text text-anchor="middle" x="126.5" y="-975" font-family="Helvetica,sans-Serif" font-size="10.00"> </text>
<polyline fill="none" stroke="#bfbfbf" points="73,-968 180,-968 "/>
<text text-anchor="middle" x="126.5" y="-956" font-family="Helvetica,sans-Serif" font-size="10.00"> </text>
</g>
<!-- Node3&#45;&gt;Node2 -->
<g id="edge2" class="edge"><title>Node3&#45;&gt;Node2</title>
<path fill="none" stroke="#404040" d="M119.635,-948.894C108.407,-885.635 92.8163,-745.483 151.5,-651 190.672,-587.933 265.181,-547.035 325.398,-522.763"/>
<polygon fill="none" stroke="#404040" points="325.677,-522.653 329.804,-516.74 336.85,-518.275 332.723,-524.189 325.677,-522.653"/>
<text text-anchor="middle" x="198.5" y="-771" font-family="Helvetica,sans-Serif" font-size="10.00"> +m_renderObjects</text>
</g>
<!-- Node4 -->
<g id="node4" class="node"><title>Node4</title>
<g id="a_node4"><a xlink:href="classRa_1_1Core_1_1Index.html" target="_top" xlink:title="{Ra::Core::Index\n||+ Index()\l+ Index()\l+ isValid()\l+ isInvalid()\l+ setInvalid()\l+ getValue()\l+ setValue()\l+ operator int()\l+ operator=()\l+ operator++()\l+ operator&#45;&#45;()\l+ operator+()\l+ operator+()\l+ operator&#45;()\l+ operator&#45;()\l+ operator==()\l+ operator==()\l+ operator!=()\l+ operator!=()\l+ operator\&lt;()\l+ operator\&lt;()\l+ operator\&lt;=()\l+ operator\&lt;=()\l+ operator\&gt;()\l+ operator\&gt;()\l+ operator\&gt;=()\l+ operator\&gt;=()\l+ Invalid()\l+ Max()\l}">
<polygon fill="white" stroke="black" points="0,-1092.5 0,-1457.5 93,-1457.5 93,-1092.5 0,-1092.5"/>
<text text-anchor="middle" x="46.5" y="-1445.5" font-family="Helvetica,sans-Serif" font-size="10.00">Ra::Core::Index</text>
<polyline fill="none" stroke="black" points="0,-1438.5 93,-1438.5 "/>
<text text-anchor="middle" x="46.5" y="-1426.5" font-family="Helvetica,sans-Serif" font-size="10.00"> </text>
<polyline fill="none" stroke="black" points="0,-1419.5 93,-1419.5 "/>
<text text-anchor="start" x="8" y="-1407.5" font-family="Helvetica,sans-Serif" font-size="10.00">+ Index()</text>
<text text-anchor="start" x="8" y="-1396.5" font-family="Helvetica,sans-Serif" font-size="10.00">+ Index()</text>
<text text-anchor="start" x="8" y="-1385.5" font-family="Helvetica,sans-Serif" font-size="10.00">+ isValid()</text>
<text text-anchor="start" x="8" y="-1374.5" font-family="Helvetica,sans-Serif" font-size="10.00">+ isInvalid()</text>
<text text-anchor="start" x="8" y="-1363.5" font-family="Helvetica,sans-Serif" font-size="10.00">+ setInvalid()</text>
<text text-anchor="start" x="8" y="-1352.5" font-family="Helvetica,sans-Serif" font-size="10.00">+ getValue()</text>
<text text-anchor="start" x="8" y="-1341.5" font-family="Helvetica,sans-Serif" font-size="10.00">+ setValue()</text>
<text text-anchor="start" x="8" y="-1330.5" font-family="Helvetica,sans-Serif" font-size="10.00">+ operator int()</text>
<text text-anchor="start" x="8" y="-1319.5" font-family="Helvetica,sans-Serif" font-size="10.00">+ operator=()</text>
<text text-anchor="start" x="8" y="-1308.5" font-family="Helvetica,sans-Serif" font-size="10.00">+ operator++()</text>
<text text-anchor="start" x="8" y="-1297.5" font-family="Helvetica,sans-Serif" font-size="10.00">+ operator&#45;&#45;()</text>
<text text-anchor="start" x="8" y="-1286.5" font-family="Helvetica,sans-Serif" font-size="10.00">+ operator+()</text>
<text text-anchor="start" x="8" y="-1275.5" font-family="Helvetica,sans-Serif" font-size="10.00">+ operator+()</text>
<text text-anchor="start" x="8" y="-1264.5" font-family="Helvetica,sans-Serif" font-size="10.00">+ operator&#45;()</text>
<text text-anchor="start" x="8" y="-1253.5" font-family="Helvetica,sans-Serif" font-size="10.00">+ operator&#45;()</text>
<text text-anchor="start" x="8" y="-1242.5" font-family="Helvetica,sans-Serif" font-size="10.00">+ operator==()</text>
<text text-anchor="start" x="8" y="-1231.5" font-family="Helvetica,sans-Serif" font-size="10.00">+ operator==()</text>
<text text-anchor="start" x="8" y="-1220.5" font-family="Helvetica,sans-Serif" font-size="10.00">+ operator!=()</text>
<text text-anchor="start" x="8" y="-1209.5" font-family="Helvetica,sans-Serif" font-size="10.00">+ operator!=()</text>
<text text-anchor="start" x="8" y="-1198.5" font-family="Helvetica,sans-Serif" font-size="10.00">+ operator&lt;()</text>
<text text-anchor="start" x="8" y="-1187.5" font-family="Helvetica,sans-Serif" font-size="10.00">+ operator&lt;()</text>
<text text-anchor="start" x="8" y="-1176.5" font-family="Helvetica,sans-Serif" font-size="10.00">+ operator&lt;=()</text>
<text text-anchor="start" x="8" y="-1165.5" font-family="Helvetica,sans-Serif" font-size="10.00">+ operator&lt;=()</text>
<text text-anchor="start" x="8" y="-1154.5" font-family="Helvetica,sans-Serif" font-size="10.00">+ operator&gt;()</text>
<text text-anchor="start" x="8" y="-1143.5" font-family="Helvetica,sans-Serif" font-size="10.00">+ operator&gt;()</text>
<text text-anchor="start" x="8" y="-1132.5" font-family="Helvetica,sans-Serif" font-size="10.00">+ operator&gt;=()</text>
<text text-anchor="start" x="8" y="-1121.5" font-family="Helvetica,sans-Serif" font-size="10.00">+ operator&gt;=()</text>
<text text-anchor="start" x="8" y="-1110.5" font-family="Helvetica,sans-Serif" font-size="10.00">+ Invalid()</text>
<text text-anchor="start" x="8" y="-1099.5" font-family="Helvetica,sans-Serif" font-size="10.00">+ Max()</text>
</a>
</g>
</g>
<!-- Node4&#45;&gt;Node3 -->
<g id="edge3" class="edge"><title>Node4&#45;&gt;Node3</title>
<path fill="none" stroke="#404040" d="M47.0382,-1092.32C51.048,-1074.48 56.6991,-1057.06 64.5,-1041 67.0038,-1035.85 70.1939,-1030.93 73.8015,-1026.31"/>
<polygon fill="none" stroke="#404040" points="73.8213,-1026.29 74.7489,-1019.14 81.7068,-1017.24 80.7792,-1024.39 73.8213,-1026.29"/>
<text text-anchor="middle" x="93" y="-1055" font-family="Helvetica,sans-Serif" font-size="10.00"> +elements</text>
</g>
<!-- Node5 -->
<g id="node5" class="node"><title>Node5</title>
<polygon fill="white" stroke="#bfbfbf" points="32,-1505.5 32,-1562.5 61,-1562.5 61,-1505.5 32,-1505.5"/>
<text text-anchor="middle" x="46.5" y="-1550.5" font-family="Helvetica,sans-Serif" font-size="10.00">int</text>
<polyline fill="none" stroke="#bfbfbf" points="32,-1543.5 61,-1543.5 "/>
<text text-anchor="middle" x="46.5" y="-1531.5" font-family="Helvetica,sans-Serif" font-size="10.00"> </text>
<polyline fill="none" stroke="#bfbfbf" points="32,-1524.5 61,-1524.5 "/>
<text text-anchor="middle" x="46.5" y="-1512.5" font-family="Helvetica,sans-Serif" font-size="10.00"> </text>
</g>
<!-- Node5&#45;&gt;Node4 -->
<g id="edge4" class="edge"><title>Node5&#45;&gt;Node4</title>
<path fill="none" stroke="#404040" d="M46.5,-1505.5C46.5,-1495.53 46.5,-1483.38 46.5,-1469.92"/>
<polygon fill="none" stroke="#404040" points="46.5001,-1469.77 42.5,-1463.77 46.5,-1457.77 50.5,-1463.77 46.5001,-1469.77"/>
<text text-anchor="middle" x="66.5" y="-1479" font-family="Helvetica,sans-Serif" font-size="10.00"> #m_idx</text>
</g>
<!-- Node6 -->
<g id="node6" class="node"><title>Node6</title>
<g id="a_node6"><a xlink:title="STL class. ">
<polygon fill="white" stroke="#bfbfbf" points="146,-1246.5 146,-1303.5 241,-1303.5 241,-1246.5 146,-1246.5"/>
<text text-anchor="middle" x="193.5" y="-1291.5" font-family="Helvetica,sans-Serif" font-size="10.00">std::vector&lt; T &gt;</text>
<polyline fill="none" stroke="#bfbfbf" points="146,-1284.5 241,-1284.5 "/>
<text text-anchor="middle" x="193.5" y="-1272.5" font-family="Helvetica,sans-Serif" font-size="10.00"> </text>
<polyline fill="none" stroke="#bfbfbf" points="146,-1265.5 241,-1265.5 "/>
<text text-anchor="middle" x="193.5" y="-1253.5" font-family="Helvetica,sans-Serif" font-size="10.00"> </text>
</a>
</g>
</g>
<!-- Node6&#45;&gt;Node3 -->
<g id="edge5" class="edge"><title>Node6&#45;&gt;Node3</title>
<path fill="none" stroke="orange" d="M177.348,-1236.72C161.145,-1197.2 137.24,-1132.52 127.5,-1074 124.396,-1055.35 124.003,-1034.22 124.451,-1017.13"/>
<polygon fill="orange" stroke="orange" points="174.22,-1238.32 181.288,-1246.21 180.685,-1235.63 174.22,-1238.32"/>
<text text-anchor="middle" x="167.5" y="-1055" font-family="Helvetica,sans-Serif" font-size="10.00"> &lt; Core::Index &gt;</text>
</g>
<!-- Node9 -->
<g id="node9" class="node"><title>Node9</title>
<polygon fill="white" stroke="#bfbfbf" points="245.5,-943.5 245.5,-1022.5 419.5,-1022.5 419.5,-943.5 245.5,-943.5"/>
<text text-anchor="start" x="253.5" y="-1010.5" font-family="Helvetica,sans-Serif" font-size="10.00">std::vector&lt; std::pair</text>
<text text-anchor="start" x="253.5" y="-999.5" font-family="Helvetica,sans-Serif" font-size="10.00">&lt; const Ra::Engine::Entity</text>
<text text-anchor="middle" x="332.5" y="-988.5" font-family="Helvetica,sans-Serif" font-size="10.00"> *, Ra::Engine::Component * &gt; &gt;</text>
<polyline fill="none" stroke="#bfbfbf" points="245.5,-981.5 419.5,-981.5 "/>
<text text-anchor="middle" x="332.5" y="-969.5" font-family="Helvetica,sans-Serif" font-size="10.00"> </text>
<polyline fill="none" stroke="#bfbfbf" points="245.5,-962.5 419.5,-962.5 "/>
<text text-anchor="middle" x="332.5" y="-950.5" font-family="Helvetica,sans-Serif" font-size="10.00"> </text>
</g>
<!-- Node6&#45;&gt;Node9 -->
<g id="edge10" class="edge"><title>Node6&#45;&gt;Node9</title>
<path fill="none" stroke="orange" d="M189.015,-1236.13C185.197,-1186.67 185.672,-1099.53 226.5,-1041 231.64,-1033.63 238.044,-1027.13 245.142,-1021.41"/>
<polygon fill="orange" stroke="orange" points="185.553,-1236.72 189.911,-1246.38 192.527,-1236.11 185.553,-1236.72"/>
<text text-anchor="start" x="226.5" y="-1066" font-family="Helvetica,sans-Serif" font-size="10.00"> &lt; std::pair&lt; const</text>
<text text-anchor="start" x="226.5" y="-1055" font-family="Helvetica,sans-Serif" font-size="10.00"> Ra::Engine::Entity</text>
<text text-anchor="middle" x="305.5" y="-1044" font-family="Helvetica,sans-Serif" font-size="10.00"> *, Ra::Engine::Component * &gt; &gt;</text>
</g>
<!-- Node7 -->
<g id="node7" class="node"><title>Node7</title>
<polygon fill="white" stroke="#bfbfbf" points="179,-1505.5 179,-1562.5 208,-1562.5 208,-1505.5 179,-1505.5"/>
<text text-anchor="middle" x="193.5" y="-1550.5" font-family="Helvetica,sans-Serif" font-size="10.00">T</text>
<polyline fill="none" stroke="#bfbfbf" points="179,-1543.5 208,-1543.5 "/>
<text text-anchor="middle" x="193.5" y="-1531.5" font-family="Helvetica,sans-Serif" font-size="10.00"> </text>
<polyline fill="none" stroke="#bfbfbf" points="179,-1524.5 208,-1524.5 "/>
<text text-anchor="middle" x="193.5" y="-1512.5" font-family="Helvetica,sans-Serif" font-size="10.00"> </text>
</g>
<!-- Node7&#45;&gt;Node6 -->
<g id="edge6" class="edge"><title>Node7&#45;&gt;Node6</title>
<path fill="none" stroke="#404040" d="M193.5,-1505.5C193.5,-1459.92 193.5,-1368.55 193.5,-1315.88"/>
<polygon fill="none" stroke="#404040" points="193.5,-1315.69 189.5,-1309.69 193.5,-1303.69 197.5,-1309.69 193.5,-1315.69"/>
<text text-anchor="middle" x="222" y="-1479" font-family="Helvetica,sans-Serif" font-size="10.00"> +elements</text>
</g>
<!-- Node8 -->
<g id="node8" class="node"><title>Node8</title>
<g id="a_node8"><a xlink:href="classRa_1_1Engine_1_1System.html" target="_top" xlink:title="Systems are responsible of updating a specific subset of the components of each entity. ">
<polygon fill="white" stroke="black" points="255,-706.5 255,-840.5 412,-840.5 412,-706.5 255,-706.5"/>
<text text-anchor="middle" x="333.5" y="-828.5" font-family="Helvetica,sans-Serif" font-size="10.00">Ra::Engine::System</text>
<polyline fill="none" stroke="black" points="255,-821.5 412,-821.5 "/>
<text text-anchor="middle" x="333.5" y="-809.5" font-family="Helvetica,sans-Serif" font-size="10.00"> </text>
<polyline fill="none" stroke="black" points="255,-802.5 412,-802.5 "/>
<text text-anchor="start" x="263" y="-790.5" font-family="Helvetica,sans-Serif" font-size="10.00">+ System()</text>
<text text-anchor="start" x="263" y="-779.5" font-family="Helvetica,sans-Serif" font-size="10.00">+ ~System()</text>
<text text-anchor="start" x="263" y="-768.5" font-family="Helvetica,sans-Serif" font-size="10.00">+ handleAssetLoading()</text>
<text text-anchor="start" x="263" y="-757.5" font-family="Helvetica,sans-Serif" font-size="10.00">+ generateTasks()</text>
<text text-anchor="start" x="263" y="-746.5" font-family="Helvetica,sans-Serif" font-size="10.00">+ getEntityComponents()</text>
<text text-anchor="start" x="263" y="-735.5" font-family="Helvetica,sans-Serif" font-size="10.00"># registerComponent()</text>
<text text-anchor="start" x="263" y="-724.5" font-family="Helvetica,sans-Serif" font-size="10.00"># unregisterComponent()</text>
<text text-anchor="start" x="263" y="-713.5" font-family="Helvetica,sans-Serif" font-size="10.00"># unregisterAllComponents()</text>
</a>
</g>
</g>
<!-- Node8&#45;&gt;Node2 -->
<g id="edge7" class="edge"><title>Node8&#45;&gt;Node2</title>
<path fill="none" stroke="#404040" d="M353.407,-706.381C361.602,-679.161 371.366,-646.73 380.772,-615.49"/>
<polygon fill="none" stroke="#404040" points="380.896,-615.079 378.795,-608.18 384.355,-603.588 386.456,-610.487 380.896,-615.079"/>
<text text-anchor="middle" x="409.5" y="-625" font-family="Helvetica,sans-Serif" font-size="10.00"> #m_system</text>
</g>
<!-- Node9&#45;&gt;Node8 -->
<g id="edge8" class="edge"><title>Node9&#45;&gt;Node8</title>
<path fill="none" stroke="#404040" d="M332.686,-943.457C332.808,-918.004 332.974,-883.746 333.123,-852.731"/>
<polygon fill="none" stroke="#404040" points="333.124,-852.58 329.153,-846.56 333.182,-840.58 337.153,-846.599 333.124,-852.58"/>
<text text-anchor="middle" x="377" y="-917" font-family="Helvetica,sans-Serif" font-size="10.00"> #m_components</text>
</g>
<!-- Node10 -->
<g id="node10" class="node"><title>Node10</title>
<polygon fill="white" stroke="#bfbfbf" points="348,-1235.5 348,-1314.5 473,-1314.5 473,-1235.5 348,-1235.5"/>
<text text-anchor="start" x="356" y="-1302.5" font-family="Helvetica,sans-Serif" font-size="10.00">pair&lt; const Ra::Engine</text>
<text text-anchor="start" x="356" y="-1291.5" font-family="Helvetica,sans-Serif" font-size="10.00">::Entity *, Ra::Engine</text>
<text text-anchor="middle" x="410.5" y="-1280.5" font-family="Helvetica,sans-Serif" font-size="10.00">::Component * &gt;</text>
<polyline fill="none" stroke="#bfbfbf" points="348,-1273.5 473,-1273.5 "/>
<text text-anchor="middle" x="410.5" y="-1261.5" font-family="Helvetica,sans-Serif" font-size="10.00"> </text>
<polyline fill="none" stroke="#bfbfbf" points="348,-1254.5 473,-1254.5 "/>
<text text-anchor="middle" x="410.5" y="-1242.5" font-family="Helvetica,sans-Serif" font-size="10.00"> </text>
</g>
<!-- Node10&#45;&gt;Node9 -->
<g id="edge9" class="edge"><title>Node10&#45;&gt;Node9</title>
<path fill="none" stroke="#404040" d="M414.497,-1235.25C417.773,-1187.28 417.887,-1104.18 388.5,-1041 387.195,-1038.19 385.691,-1035.44 384.035,-1032.76"/>
<polygon fill="none" stroke="#404040" points="383.903,-1032.57 377.174,-1029.98 376.978,-1022.77 383.707,-1025.37 383.903,-1032.57"/>
<text text-anchor="middle" x="429" y="-1055" font-family="Helvetica,sans-Serif" font-size="10.00"> +elements</text>
</g>
<!-- Node11 -->
<g id="node11" class="node"><title>Node11</title>
<g id="a_node11"><a xlink:href="classRa_1_1Engine_1_1Entity.html" target="_top" xlink:title="An entity is an scene element. It ties together components with a transform. ">
<polygon fill="white" stroke="black" points="431.5,-651.5 431.5,-895.5 571.5,-895.5 571.5,-651.5 431.5,-651.5"/>
<text text-anchor="middle" x="501.5" y="-883.5" font-family="Helvetica,sans-Serif" font-size="10.00">Ra::Engine::Entity</text>
<polyline fill="none" stroke="black" points="431.5,-876.5 571.5,-876.5 "/>
<text text-anchor="middle" x="501.5" y="-864.5" font-family="Helvetica,sans-Serif" font-size="10.00"> </text>
<polyline fill="none" stroke="black" points="431.5,-857.5 571.5,-857.5 "/>
<text text-anchor="start" x="439.5" y="-845.5" font-family="Helvetica,sans-Serif" font-size="10.00">+ Entity()</text>
<text text-anchor="start" x="439.5" y="-834.5" font-family="Helvetica,sans-Serif" font-size="10.00">+ Entity()</text>
<text text-anchor="start" x="439.5" y="-823.5" font-family="Helvetica,sans-Serif" font-size="10.00">+ operator=()</text>
<text text-anchor="start" x="439.5" y="-812.5" font-family="Helvetica,sans-Serif" font-size="10.00">+ ~Entity()</text>
<text text-anchor="start" x="439.5" y="-801.5" font-family="Helvetica,sans-Serif" font-size="10.00">+ getName()</text>
<text text-anchor="start" x="439.5" y="-790.5" font-family="Helvetica,sans-Serif" font-size="10.00">+ rename()</text>
<text text-anchor="start" x="439.5" y="-779.5" font-family="Helvetica,sans-Serif" font-size="10.00">+ setTransform()</text>
<text text-anchor="start" x="439.5" y="-768.5" font-family="Helvetica,sans-Serif" font-size="10.00">+ setTransform()</text>
<text text-anchor="start" x="439.5" y="-757.5" font-family="Helvetica,sans-Serif" font-size="10.00">+ getTransform()</text>
<text text-anchor="start" x="439.5" y="-746.5" font-family="Helvetica,sans-Serif" font-size="10.00">+ getTransformAsMatrix()</text>
<text text-anchor="start" x="439.5" y="-735.5" font-family="Helvetica,sans-Serif" font-size="10.00">+ swapTransformBuffers()</text>
<text text-anchor="start" x="439.5" y="-724.5" font-family="Helvetica,sans-Serif" font-size="10.00">+ addComponent()</text>
<text text-anchor="start" x="439.5" y="-713.5" font-family="Helvetica,sans-Serif" font-size="10.00">+ removeComponent()</text>
<text text-anchor="start" x="439.5" y="-702.5" font-family="Helvetica,sans-Serif" font-size="10.00">+ getComponent()</text>
<text text-anchor="start" x="439.5" y="-691.5" font-family="Helvetica,sans-Serif" font-size="10.00">+ getComponent()</text>
<text text-anchor="start" x="439.5" y="-680.5" font-family="Helvetica,sans-Serif" font-size="10.00">+ getComponents()</text>
<text text-anchor="start" x="439.5" y="-669.5" font-family="Helvetica,sans-Serif" font-size="10.00">+ getNumComponents()</text>
<text text-anchor="start" x="439.5" y="-658.5" font-family="Helvetica,sans-Serif" font-size="10.00">+ rayCastQuery()</text>
</a>
</g>
</g>
<!-- Node11&#45;&gt;Node2 -->
<g id="edge11" class="edge"><title>Node11&#45;&gt;Node2</title>
<path fill="none" stroke="#404040" d="M465.023,-651.344C461.437,-639.432 457.795,-627.339 454.207,-615.419"/>
<polygon fill="none" stroke="#404040" points="454.099,-615.062 448.539,-610.469 450.64,-603.571 456.2,-608.163 454.099,-615.062"/>
<text text-anchor="middle" x="486.5" y="-625" font-family="Helvetica,sans-Serif" font-size="10.00"> #m_entity</text>
</g>
<!-- Node12 -->
<g id="node12" class="node"><title>Node12</title>
<g id="a_node12"><a xlink:href="classRa_1_1Core_1_1IndexedObject.html" target="_top" xlink:title="{Ra::Core::IndexedObject\n||+ IndexedObject()\l+ IndexedObject()\l+ ~IndexedObject()\l}">
<polygon fill="white" stroke="black" points="438,-943.5 438,-1022.5 569,-1022.5 569,-943.5 438,-943.5"/>
<text text-anchor="middle" x="503.5" y="-1010.5" font-family="Helvetica,sans-Serif" font-size="10.00">Ra::Core::IndexedObject</text>
<polyline fill="none" stroke="black" points="438,-1003.5 569,-1003.5 "/>
<text text-anchor="middle" x="503.5" y="-991.5" font-family="Helvetica,sans-Serif" font-size="10.00"> </text>
<polyline fill="none" stroke="black" points="438,-984.5 569,-984.5 "/>
<text text-anchor="start" x="446" y="-972.5" font-family="Helvetica,sans-Serif" font-size="10.00">+ IndexedObject()</text>
<text text-anchor="start" x="446" y="-961.5" font-family="Helvetica,sans-Serif" font-size="10.00">+ IndexedObject()</text>
<text text-anchor="start" x="446" y="-950.5" font-family="Helvetica,sans-Serif" font-size="10.00">+ ~IndexedObject()</text>
</a>
</g>
</g>
<!-- Node12&#45;&gt;Node11 -->
<g id="edge12" class="edge"><title>Node12&#45;&gt;Node11</title>
<path fill="none" stroke="midnightblue" d="M503.03,-933.24C502.919,-921.697 502.795,-908.876 502.668,-895.667"/>
<polygon fill="none" stroke="midnightblue" points="499.532,-933.491 503.129,-943.457 506.532,-933.424 499.532,-933.491"/>
</g>
<!-- Node13 -->
<g id="node13" class="node"><title>Node13</title>
<polygon fill="white" stroke="#bfbfbf" points="491,-1246.5 491,-1303.5 526,-1303.5 526,-1246.5 491,-1246.5"/>
<text text-anchor="middle" x="508.5" y="-1291.5" font-family="Helvetica,sans-Serif" font-size="10.00">uint</text>
<polyline fill="none" stroke="#bfbfbf" points="491,-1284.5 526,-1284.5 "/>
<text text-anchor="middle" x="508.5" y="-1272.5" font-family="Helvetica,sans-Serif" font-size="10.00"> </text>
<polyline fill="none" stroke="#bfbfbf" points="491,-1265.5 526,-1265.5 "/>
<text text-anchor="middle" x="508.5" y="-1253.5" font-family="Helvetica,sans-Serif" font-size="10.00"> </text>
</g>
<!-- Node13&#45;&gt;Node12 -->
<g id="edge13" class="edge"><title>Node13&#45;&gt;Node12</title>
<path fill="none" stroke="#404040" d="M508.025,-1246.46C507.188,-1197.91 505.439,-1096.45 504.377,-1034.87"/>
<polygon fill="none" stroke="#404040" points="504.375,-1034.74 500.272,-1028.81 504.168,-1022.74 508.271,-1028.67 504.375,-1034.74"/>
<text text-anchor="middle" x="518" y="-1055" font-family="Helvetica,sans-Serif" font-size="10.00"> +idx</text>
</g>
<!-- Node14 -->
<g id="node14" class="node"><title>Node14</title>
<g id="a_node14"><a xlink:title="STL class. ">
<polygon fill="white" stroke="#bfbfbf" points="598,-745 598,-802 663,-802 663,-745 598,-745"/>
<text text-anchor="middle" x="630.5" y="-790" font-family="Helvetica,sans-Serif" font-size="10.00">std::string</text>
<polyline fill="none" stroke="#bfbfbf" points="598,-783 663,-783 "/>
<text text-anchor="middle" x="630.5" y="-771" font-family="Helvetica,sans-Serif" font-size="10.00"> </text>
<polyline fill="none" stroke="#bfbfbf" points="598,-764 663,-764 "/>
<text text-anchor="middle" x="630.5" y="-752" font-family="Helvetica,sans-Serif" font-size="10.00"> </text>
</a>
</g>
</g>
<!-- Node14&#45;&gt;Node2 -->
<g id="edge14" class="edge"><title>Node14&#45;&gt;Node2</title>
<path fill="none" stroke="#404040" d="M622.722,-744.842C614.683,-719.117 600.489,-680.439 580.5,-651 560.045,-620.873 533.079,-591.947 506.982,-567.289"/>
<polygon fill="none" stroke="#404040" points="506.961,-567.27 499.844,-566.111 498.176,-559.095 505.293,-560.254 506.961,-567.27"/>
<text text-anchor="middle" x="594" y="-625" font-family="Helvetica,sans-Serif" font-size="10.00"> #m_name</text>
</g>
<!-- Node15 -->
<g id="node15" class="node"><title>Node15</title>
<g id="a_node15"><a xlink:title="STL class. ">
<polygon fill="white" stroke="#bfbfbf" points="587,-949 587,-1017 690,-1017 690,-949 587,-949"/>
<text text-anchor="start" x="595" y="-1005" font-family="Helvetica,sans-Serif" font-size="10.00">std::basic_string&lt;</text>
<text text-anchor="middle" x="638.5" y="-994" font-family="Helvetica,sans-Serif" font-size="10.00"> char &gt;</text>
<polyline fill="none" stroke="#bfbfbf" points="587,-987 690,-987 "/>
<text text-anchor="middle" x="638.5" y="-975" font-family="Helvetica,sans-Serif" font-size="10.00"> </text>
<polyline fill="none" stroke="#bfbfbf" points="587,-968 690,-968 "/>
<text text-anchor="middle" x="638.5" y="-956" font-family="Helvetica,sans-Serif" font-size="10.00"> </text>
</a>
</g>
</g>
<!-- Node15&#45;&gt;Node14 -->
<g id="edge15" class="edge"><title>Node15&#45;&gt;Node14</title>
<path fill="none" stroke="midnightblue" d="M636.829,-938.657C635.244,-897.551 632.911,-837.033 631.565,-802.113"/>
<polygon fill="none" stroke="midnightblue" points="633.332,-938.804 637.215,-948.662 640.327,-938.534 633.332,-938.804"/>
</g>
</g>
</svg>
