<?xml version="1.0" encoding="UTF-8" standalone="no"?>
<!DOCTYPE svg PUBLIC "-//W3C//DTD SVG 1.1//EN"
 "http://www.w3.org/Graphics/SVG/1.1/DTD/svg11.dtd">
<!-- Generated by graphviz version 2.38.0 (20140413.2041)
 -->
<!-- Title: SkinningPlugin::SkinningDisplayComponent::display Pages: 1 -->
<svg width="735pt" height="445pt"
 viewBox="0.00 0.00 735.00 444.50" xmlns="http://www.w3.org/2000/svg" xmlns:xlink="http://www.w3.org/1999/xlink">
<g id="graph0" class="graph" transform="scale(1 1) rotate(0) translate(4 440.5)">
<title>SkinningPlugin::SkinningDisplayComponent::display</title>
<polygon fill="white" stroke="none" points="-4,4 -4,-440.5 731,-440.5 731,4 -4,4"/>
<!-- Node1 -->
<g id="node1" class="node"><title>Node1</title>
<polygon fill="#bfbfbf" stroke="black" points="0,-171.5 0,-201.5 146,-201.5 146,-171.5 0,-171.5"/>
<text text-anchor="start" x="8" y="-189.5" font-family="Helvetica,sans-Serif" font-size="10.00">SkinningPlugin::Skinning</text>
<text text-anchor="middle" x="73" y="-178.5" font-family="Helvetica,sans-Serif" font-size="10.00">DisplayComponent::display</text>
</g>
<!-- Node2 -->
<g id="node2" class="node"><title>Node2</title>
<g id="a_node2"><a xlink:href="classRa_1_1Core_1_1TriangleMesh.html#a495116f40cfec8bb6504698d786d4b8c" target="_top" xlink:title="Access the vertices positions. ">
<polygon fill="white" stroke="black" points="412,-367.5 412,-397.5 537,-397.5 537,-367.5 412,-367.5"/>
<text text-anchor="start" x="420" y="-385.5" font-family="Helvetica,sans-Serif" font-size="10.00">Ra::Core::TriangleMesh</text>
<text text-anchor="middle" x="474.5" y="-374.5" font-family="Helvetica,sans-Serif" font-size="10.00">::vertices</text>
</a>
</g>
</g>
<!-- Node1&#45;&gt;Node2 -->
<g id="edge1" class="edge"><title>Node1&#45;&gt;Node2</title>
<path fill="none" stroke="midnightblue" d="M86.8387,-201.623C105.713,-223.005 142.96,-262.072 182,-285.5 251.206,-327.031 340.45,-353.356 401.86,-367.941"/>
<polygon fill="midnightblue" stroke="midnightblue" points="401.316,-371.408 411.849,-370.268 402.904,-364.59 401.316,-371.408"/>
</g>
<!-- Node4 -->
<g id="node4" class="node"><title>Node4</title>
<g id="a_node4"><a xlink:href="namespaceRa_1_1Core_1_1Colors.html#a7b99d6d60a6fe356e854cc7253ec8bb7" target="_top" xlink:title="Ra::Core::Colors::fromHSV">
<polygon fill="white" stroke="black" points="196,-376 196,-395 339,-395 339,-376 196,-376"/>
<text text-anchor="middle" x="267.5" y="-383" font-family="Helvetica,sans-Serif" font-size="10.00">Ra::Core::Colors::fromHSV</text>
</a>
</g>
</g>
<!-- Node1&#45;&gt;Node4 -->
<g id="edge3" class="edge"><title>Node1&#45;&gt;Node4</title>
<path fill="none" stroke="midnightblue" d="M80.8299,-201.598C95.4047,-232.356 132.32,-302.96 182,-345.5 195.147,-356.758 212.004,-365.577 227.199,-372.037"/>
<polygon fill="midnightblue" stroke="midnightblue" points="226.304,-375.45 236.888,-375.942 228.922,-368.957 226.304,-375.45"/>
</g>
<!-- Node6 -->
<g id="node6" class="node"><title>Node6</title>
<g id="a_node6"><a xlink:href="namespaceRa_1_1Core_1_1Geometry.html#ad9078d959578384d153104cd11c9a02c" target="_top" xlink:title="Ra::Core::Geometry\l::partition">
<polygon fill="white" stroke="black" points="212,-245.5 212,-275.5 323,-275.5 323,-245.5 212,-245.5"/>
<text text-anchor="start" x="220" y="-263.5" font-family="Helvetica,sans-Serif" font-size="10.00">Ra::Core::Geometry</text>
<text text-anchor="middle" x="267.5" y="-252.5" font-family="Helvetica,sans-Serif" font-size="10.00">::partition</text>
</a>
</g>
</g>
<!-- Node1&#45;&gt;Node6 -->
<g id="edge5" class="edge"><title>Node1&#45;&gt;Node6</title>
<path fill="none" stroke="midnightblue" d="M103.265,-201.571C124.696,-212.23 154.685,-226.369 182,-236.5 188.437,-238.887 195.222,-241.177 202.035,-243.33"/>
<polygon fill="midnightblue" stroke="midnightblue" points="201.413,-246.8 211.999,-246.381 203.463,-240.106 201.413,-246.8"/>
</g>
<!-- Node12 -->
<g id="node12" class="node"><title>Node12</title>
<g id="a_node12"><a xlink:href="namespaceRa_1_1Core_1_1Geometry.html#a37e391d761a6361d940c03b5213f16ea" target="_top" xlink:title="GLOBAL MATRIX ///. ">
<polygon fill="white" stroke="black" points="212,-196.5 212,-226.5 323,-226.5 323,-196.5 212,-196.5"/>
<text text-anchor="start" x="220" y="-214.5" font-family="Helvetica,sans-Serif" font-size="10.00">Ra::Core::Geometry</text>
<text text-anchor="middle" x="267.5" y="-203.5" font-family="Helvetica,sans-Serif" font-size="10.00">::uniformAdjacency</text>
</a>
</g>
</g>
<!-- Node1&#45;&gt;Node12 -->
<g id="edge13" class="edge"><title>Node1&#45;&gt;Node12</title>
<path fill="none" stroke="midnightblue" d="M146.228,-195.88C164.421,-198.243 183.837,-200.765 201.644,-203.077"/>
<polygon fill="midnightblue" stroke="midnightblue" points="201.553,-206.595 211.92,-204.412 202.454,-199.653 201.553,-206.595"/>
</g>
<!-- Node13 -->
<g id="node13" class="node"><title>Node13</title>
<g id="a_node13"><a xlink:href="namespaceRa_1_1Engine_1_1ShaderConfigurationFactory.html#a0bc60f21dbabd745961037f3d2f019c8" target="_top" xlink:title="Get a configuration from the factory. ">
<polygon fill="white" stroke="black" points="182,-147.5 182,-177.5 353,-177.5 353,-147.5 182,-147.5"/>
<text text-anchor="start" x="190" y="-165.5" font-family="Helvetica,sans-Serif" font-size="10.00">Ra::Engine::ShaderConfiguration</text>
<text text-anchor="middle" x="267.5" y="-154.5" font-family="Helvetica,sans-Serif" font-size="10.00">Factory::getConfiguration</text>
</a>
</g>
</g>
<!-- Node1&#45;&gt;Node13 -->
<g id="edge15" class="edge"><title>Node1&#45;&gt;Node13</title>
<path fill="none" stroke="midnightblue" d="M146.228,-177.495C154.586,-176.453 163.202,-175.379 171.802,-174.307"/>
<polygon fill="midnightblue" stroke="midnightblue" points="172.383,-177.761 181.873,-173.051 171.517,-170.815 172.383,-177.761"/>
</g>
<!-- Node15 -->
<g id="node15" class="node"><title>Node15</title>
<g id="a_node15"><a xlink:href="classRa_1_1Engine_1_1RenderObject.html#a62e0eb3a7de5a7d352b565a28260cc06" target="_top" xlink:title="Ra::Engine::RenderObject\l::setVisible">
<polygon fill="white" stroke="black" points="199,-98.5 199,-128.5 336,-128.5 336,-98.5 199,-98.5"/>
<text text-anchor="start" x="207" y="-116.5" font-family="Helvetica,sans-Serif" font-size="10.00">Ra::Engine::RenderObject</text>
<text text-anchor="middle" x="267.5" y="-105.5" font-family="Helvetica,sans-Serif" font-size="10.00">::setVisible</text>
</a>
</g>
</g>
<!-- Node1&#45;&gt;Node15 -->
<g id="edge17" class="edge"><title>Node1&#45;&gt;Node15</title>
<path fill="none" stroke="midnightblue" d="M105.215,-171.326C126.547,-161.28 155.622,-148.217 182,-138.5 188.366,-136.155 195.062,-133.872 201.782,-131.701"/>
<polygon fill="midnightblue" stroke="midnightblue" points="203.125,-134.947 211.611,-128.604 201.021,-128.271 203.125,-134.947"/>
</g>
<!-- Node16 -->
<g id="node16" class="node"><title>Node16</title>
<g id="a_node16"><a xlink:href="classRa_1_1Engine_1_1RenderObject.html#ae1ea453e2b698cda9956586d11b9cfbd" target="_top" xlink:title="Ra::Engine::RenderObject\l::setRenderTechnique">
<polygon fill="white" stroke="black" points="199,-49.5 199,-79.5 336,-79.5 336,-49.5 199,-49.5"/>
<text text-anchor="start" x="207" y="-67.5" font-family="Helvetica,sans-Serif" font-size="10.00">Ra::Engine::RenderObject</text>
<text text-anchor="middle" x="267.5" y="-56.5" font-family="Helvetica,sans-Serif" font-size="10.00">::setRenderTechnique</text>
</a>
</g>
</g>
<!-- Node1&#45;&gt;Node16 -->
<g id="edge18" class="edge"><title>Node1&#45;&gt;Node16</title>
<path fill="none" stroke="midnightblue" d="M86.6803,-171.206C105.362,-149.646 142.377,-110.498 182,-88.5 185.258,-86.691 188.665,-85.0087 192.161,-83.4454"/>
<polygon fill="midnightblue" stroke="midnightblue" points="193.662,-86.6127 201.586,-79.5797 191.006,-80.1362 193.662,-86.6127"/>
</g>
<!-- Node17 -->
<g id="node17" class="node"><title>Node17</title>
<g id="a_node17"><a xlink:href="classRa_1_1Engine_1_1RenderObject.html#ae8e94954e783a2012fd774598af1eb52" target="_top" xlink:title="Ra::Engine::RenderObject\l::setMesh">
<polygon fill="white" stroke="black" points="199,-0.5 199,-30.5 336,-30.5 336,-0.5 199,-0.5"/>
<text text-anchor="start" x="207" y="-18.5" font-family="Helvetica,sans-Serif" font-size="10.00">Ra::Engine::RenderObject</text>
<text text-anchor="middle" x="267.5" y="-7.5" font-family="Helvetica,sans-Serif" font-size="10.00">::setMesh</text>
</a>
</g>
</g>
<!-- Node1&#45;&gt;Node17 -->
<g id="edge19" class="edge"><title>Node1&#45;&gt;Node17</title>
<path fill="none" stroke="midnightblue" d="M80.8339,-171.438C95.1639,-141.577 131.277,-74.7217 182,-39.5 184.407,-37.8283 186.93,-36.2723 189.536,-34.8242"/>
<polygon fill="midnightblue" stroke="midnightblue" points="191.263,-37.8744 198.676,-30.3041 188.16,-31.5998 191.263,-37.8744"/>
</g>
<!-- Node3 -->
<g id="node3" class="node"><title>Node3</title>
<g id="a_node3"><a xlink:href="classRa_1_1Core_1_1AttribManager.html#aaa6088620425c1e1d74b50f1b50eb596" target="_top" xlink:title="Get attribute by handle. ">
<polygon fill="white" stroke="black" points="596,-269.5 596,-299.5 727,-299.5 727,-269.5 596,-269.5"/>
<text text-anchor="start" x="604" y="-287.5" font-family="Helvetica,sans-Serif" font-size="10.00">Ra::Core::AttribManager</text>
<text text-anchor="middle" x="661.5" y="-276.5" font-family="Helvetica,sans-Serif" font-size="10.00">::getAttrib</text>
</a>
</g>
</g>
<!-- Node2&#45;&gt;Node3 -->
<g id="edge2" class="edge"><title>Node2&#45;&gt;Node3</title>
<path fill="none" stroke="midnightblue" d="M537.391,-367.717C545.165,-365.053 552.879,-361.99 560,-358.5 588.26,-344.649 616.805,-322.693 636.214,-306.289"/>
<polygon fill="midnightblue" stroke="midnightblue" points="638.647,-308.813 643.945,-299.638 634.082,-303.506 638.647,-308.813"/>
</g>
<!-- Node5 -->
<g id="node5" class="node"><title>Node5</title>
<g id="a_node5"><a xlink:href="namespaceRa_1_1Core_1_1Vector.html#af564521564244ea832d4b66d9cff6fcc" target="_top" xlink:title="Component&#45;wise floor() function on a floating&#45;point vector. ">
<polygon fill="white" stroke="black" points="414,-417 414,-436 535,-436 535,-417 414,-417"/>
<text text-anchor="middle" x="474.5" y="-424" font-family="Helvetica,sans-Serif" font-size="10.00">Ra::Core::Vector::floor</text>
</a>
</g>
</g>
<!-- Node4&#45;&gt;Node5 -->
<g id="edge4" class="edge"><title>Node4&#45;&gt;Node5</title>
<path fill="none" stroke="midnightblue" d="M316.046,-395.009C345.824,-400.965 384.386,-408.677 415.895,-414.979"/>
<polygon fill="midnightblue" stroke="midnightblue" points="415.365,-418.442 425.857,-416.971 416.737,-411.578 415.365,-418.442"/>
</g>
<!-- Node6&#45;&gt;Node2 -->
<g id="edge6" class="edge"><title>Node6&#45;&gt;Node2</title>
<path fill="none" stroke="midnightblue" d="M294.505,-275.615C311.883,-286.283 334.803,-301.481 353,-317.5 371.202,-333.523 368.499,-345.547 389,-358.5 393.134,-361.112 397.557,-363.446 402.134,-365.531"/>
<polygon fill="midnightblue" stroke="midnightblue" points="401.118,-368.897 411.697,-369.469 403.784,-362.425 401.118,-368.897"/>
</g>
<!-- Node7 -->
<g id="node7" class="node"><title>Node7</title>
<g id="a_node7"><a xlink:href="namespaceRa_1_1Core_1_1Geometry.html#a559688ce2ea83e95725208d799d07a80" target="_top" xlink:title="Ra::Core::Geometry\l::extractVertexSegment">
<polygon fill="white" stroke="black" points="409,-318.5 409,-348.5 540,-348.5 540,-318.5 409,-318.5"/>
<text text-anchor="start" x="417" y="-336.5" font-family="Helvetica,sans-Serif" font-size="10.00">Ra::Core::Geometry</text>
<text text-anchor="middle" x="474.5" y="-325.5" font-family="Helvetica,sans-Serif" font-size="10.00">::extractVertexSegment</text>
</a>
</g>
</g>
<!-- Node6&#45;&gt;Node7 -->
<g id="edge7" class="edge"><title>Node6&#45;&gt;Node7</title>
<path fill="none" stroke="midnightblue" d="M302.661,-275.559C326.58,-285.814 359.424,-299.321 389,-309.5 394.962,-311.552 401.202,-313.567 407.475,-315.504"/>
<polygon fill="midnightblue" stroke="midnightblue" points="406.74,-318.938 417.324,-318.477 408.762,-312.236 406.74,-318.938"/>
</g>
<!-- Node8 -->
<g id="node8" class="node"><title>Node8</title>
<g id="a_node8"><a xlink:href="namespaceRa_1_1Core_1_1Geometry.html#ac9ed208c21d64b54f845c6ef259e7fa5" target="_top" xlink:title="Ra::Core::Geometry\l::extractBitSet">
<polygon fill="white" stroke="black" points="419,-269.5 419,-299.5 530,-299.5 530,-269.5 419,-269.5"/>
<text text-anchor="start" x="427" y="-287.5" font-family="Helvetica,sans-Serif" font-size="10.00">Ra::Core::Geometry</text>
<text text-anchor="middle" x="474.5" y="-276.5" font-family="Helvetica,sans-Serif" font-size="10.00">::extractBitSet</text>
</a>
</g>
</g>
<!-- Node6&#45;&gt;Node8 -->
<g id="edge8" class="edge"><title>Node6&#45;&gt;Node8</title>
<path fill="none" stroke="midnightblue" d="M323.167,-266.9C349.576,-269.992 381.446,-273.723 409.034,-276.953"/>
<polygon fill="midnightblue" stroke="midnightblue" points="408.646,-280.431 418.985,-278.118 409.46,-273.479 408.646,-280.431"/>
</g>
<!-- Node9 -->
<g id="node9" class="node"><title>Node9</title>
<g id="a_node9"><a xlink:href="namespaceRa_1_1Core_1_1Algorithm.html#aea294cdb6f4f0d85955bdcccb22886ec" target="_top" xlink:title="Ra::Core::Algorithm::t">
<polygon fill="white" stroke="black" points="415,-133 415,-152 534,-152 534,-133 415,-133"/>
<text text-anchor="middle" x="474.5" y="-140" font-family="Helvetica,sans-Serif" font-size="10.00">Ra::Core::Algorithm::t</text>
</a>
</g>
</g>
<!-- Node6&#45;&gt;Node9 -->
<g id="edge9" class="edge"><title>Node6&#45;&gt;Node9</title>
<path fill="none" stroke="midnightblue" d="M323.223,-252.202C333.929,-248.673 344.466,-243.65 353,-236.5 381.035,-213.012 360.451,-185.361 389,-162.5 393.942,-158.542 399.537,-155.345 405.438,-152.765"/>
<polygon fill="midnightblue" stroke="midnightblue" points="406.786,-155.997 414.912,-149.198 404.32,-149.446 406.786,-155.997"/>
</g>
<!-- Node10 -->
<g id="node10" class="node"><title>Node10</title>
<g id="a_node10"><a xlink:href="namespaceRa_1_1Core_1_1Geometry.html#a410504fc421a43d2f5b139211db1a67e" target="_top" xlink:title="Ra::Core::Geometry\l::extractTriangleSegment">
<polygon fill="white" stroke="black" points="406,-220.5 406,-250.5 543,-250.5 543,-220.5 406,-220.5"/>
<text text-anchor="start" x="414" y="-238.5" font-family="Helvetica,sans-Serif" font-size="10.00">Ra::Core::Geometry</text>
<text text-anchor="middle" x="474.5" y="-227.5" font-family="Helvetica,sans-Serif" font-size="10.00">::extractTriangleSegment</text>
</a>
</g>
</g>
<!-- Node6&#45;&gt;Node10 -->
<g id="edge10" class="edge"><title>Node6&#45;&gt;Node10</title>
<path fill="none" stroke="midnightblue" d="M323.167,-253.833C345.377,-251.125 371.449,-247.945 395.587,-245.002"/>
<polygon fill="midnightblue" stroke="midnightblue" points="396.294,-248.441 405.797,-243.756 395.447,-241.493 396.294,-248.441"/>
</g>
<!-- Node11 -->
<g id="node11" class="node"><title>Node11</title>
<g id="a_node11"><a xlink:href="classRa_1_1Core_1_1TriangleMesh.html#a40d31b7b2943947d6eac5d906f0182fd" target="_top" xlink:title="Access the vertices normals. ">
<polygon fill="white" stroke="black" points="412,-171.5 412,-201.5 537,-201.5 537,-171.5 412,-171.5"/>
<text text-anchor="start" x="420" y="-189.5" font-family="Helvetica,sans-Serif" font-size="10.00">Ra::Core::TriangleMesh</text>
<text text-anchor="middle" x="474.5" y="-178.5" font-family="Helvetica,sans-Serif" font-size="10.00">::normals</text>
</a>
</g>
</g>
<!-- Node6&#45;&gt;Node11 -->
<g id="edge11" class="edge"><title>Node6&#45;&gt;Node11</title>
<path fill="none" stroke="midnightblue" d="M323.114,-247.855C333.27,-244.707 343.626,-240.935 353,-236.5 370.609,-228.17 371.437,-219.926 389,-211.5 393.828,-209.184 398.915,-207.034 404.1,-205.048"/>
<polygon fill="midnightblue" stroke="midnightblue" points="405.29,-208.339 413.505,-201.649 402.911,-201.756 405.29,-208.339"/>
</g>
<!-- Node11&#45;&gt;Node3 -->
<g id="edge12" class="edge"><title>Node11&#45;&gt;Node3</title>
<path fill="none" stroke="midnightblue" d="M536.017,-201.654C544.248,-204.505 552.453,-207.78 560,-211.5 587.927,-225.264 616.319,-246.722 635.769,-262.817"/>
<polygon fill="midnightblue" stroke="midnightblue" points="633.625,-265.587 643.53,-269.348 638.133,-260.231 633.625,-265.587"/>
</g>
<!-- Node12&#45;&gt;Node9 -->
<g id="edge14" class="edge"><title>Node12&#45;&gt;Node9</title>
<path fill="none" stroke="midnightblue" d="M323.114,-198.855C333.27,-195.707 343.626,-191.935 353,-187.5 370.609,-179.17 371.211,-170.438 389,-162.5 395.625,-159.544 402.746,-156.992 409.941,-154.797"/>
<polygon fill="midnightblue" stroke="midnightblue" points="411.09,-158.11 419.76,-152.022 409.185,-151.374 411.09,-158.11"/>
</g>
<!-- Node14 -->
<g id="node14" class="node"><title>Node14</title>
<g id="a_node14"><a xlink:href="classRa_1_1Engine_1_1ShaderConfiguration.html#a7e20a600c78e8627f0238b342f4b42f2" target="_top" xlink:title="Ra::Engine::ShaderConfiguration\l::getDefaultShaderConfig">
<polygon fill="white" stroke="black" points="389,-83.5 389,-113.5 560,-113.5 560,-83.5 389,-83.5"/>
<text text-anchor="start" x="397" y="-101.5" font-family="Helvetica,sans-Serif" font-size="10.00">Ra::Engine::ShaderConfiguration</text>
<text text-anchor="middle" x="474.5" y="-90.5" font-family="Helvetica,sans-Serif" font-size="10.00">::getDefaultShaderConfig</text>
</a>
</g>
</g>
<!-- Node13&#45;&gt;Node14 -->
<g id="edge16" class="edge"><title>Node13&#45;&gt;Node14</title>
<path fill="none" stroke="midnightblue" d="M321.903,-147.433C332.268,-144.303 343.011,-140.913 353,-137.5 369.245,-131.949 372.755,-129.051 389,-123.5 395.867,-121.153 403.091,-118.818 410.304,-116.57"/>
<polygon fill="midnightblue" stroke="midnightblue" points="411.563,-119.845 420.097,-113.567 409.51,-113.153 411.563,-119.845"/>
</g>
</g>
</svg>
