<?xml version="1.0" encoding="UTF-8" standalone="no"?>
<!DOCTYPE svg PUBLIC "-//W3C//DTD SVG 1.1//EN"
 "http://www.w3.org/Graphics/SVG/1.1/DTD/svg11.dtd">
<!-- Generated by graphviz version 2.38.0 (20140413.2041)
 -->
<!-- Title: Super4PCS::TriangleKdTree::doQueryRestrictedClosestIndex Pages: 1 -->
<svg width="715pt" height="112pt"
 viewBox="0.00 0.00 715.00 112.00" xmlns="http://www.w3.org/2000/svg" xmlns:xlink="http://www.w3.org/1999/xlink">
<g id="graph0" class="graph" transform="scale(1 1) rotate(0) translate(4 108)">
<title>Super4PCS::TriangleKdTree::doQueryRestrictedClosestIndex</title>
<polygon fill="white" stroke="none" points="-4,4 -4,-108 711,-108 711,4 -4,4"/>
<!-- Node1 -->
<g id="node1" class="node"><title>Node1</title>
<polygon fill="#bfbfbf" stroke="black" points="0,-48.5 0,-78.5 171,-78.5 171,-48.5 0,-48.5"/>
<text text-anchor="start" x="8" y="-66.5" font-family="Helvetica,sans-Serif" font-size="10.00">Super4PCS::TriangleKdTree</text>
<text text-anchor="middle" x="85.5" y="-55.5" font-family="Helvetica,sans-Serif" font-size="10.00">::doQueryRestrictedClosestIndex</text>
</g>
<!-- Node2 -->
<g id="node2" class="node"><title>Node2</title>
<g id="a_node2"><a xlink:href="classSuper4PCS_1_1TriangleKdTree.html#aa3026fbd404902673eb00ad8db17b687" target="_top" xlink:title="Super4PCS::TriangleKdTree\l::invalidIndex">
<polygon fill="white" stroke="black" points="207,-73.5 207,-103.5 351,-103.5 351,-73.5 207,-73.5"/>
<text text-anchor="start" x="215" y="-91.5" font-family="Helvetica,sans-Serif" font-size="10.00">Super4PCS::TriangleKdTree</text>
<text text-anchor="middle" x="279" y="-80.5" font-family="Helvetica,sans-Serif" font-size="10.00">::invalidIndex</text>
</a>
</g>
</g>
<!-- Node1&#45;&gt;Node2 -->
<g id="edge1" class="edge"><title>Node1&#45;&gt;Node2</title>
<path fill="none" stroke="midnightblue" d="M171.052,-74.5381C179.622,-75.6569 188.313,-76.7915 196.846,-77.9055"/>
<polygon fill="midnightblue" stroke="midnightblue" points="196.404,-81.3774 206.773,-79.2015 197.311,-74.4363 196.404,-81.3774"/>
</g>
<!-- Node3 -->
<g id="node3" class="node"><title>Node3</title>
<g id="a_node3"><a xlink:href="namespaceRa_1_1Core_1_1DistanceQueries.html#ac80249cc4426604d1febb5b186e8175e" target="_top" xlink:title="Computes the squared distance from a query segment to the triangle v. ">
<polygon fill="white" stroke="black" points="208,-24.5 208,-54.5 350,-54.5 350,-24.5 208,-24.5"/>
<text text-anchor="start" x="216" y="-42.5" font-family="Helvetica,sans-Serif" font-size="10.00">Ra::Core::DistanceQueries</text>
<text text-anchor="middle" x="279" y="-31.5" font-family="Helvetica,sans-Serif" font-size="10.00">::segmentToTriSq</text>
</a>
</g>
</g>
<!-- Node1&#45;&gt;Node3 -->
<g id="edge2" class="edge"><title>Node1&#45;&gt;Node3</title>
<path fill="none" stroke="midnightblue" d="M171.052,-52.9034C180.006,-51.7812 189.093,-50.6424 197.993,-49.527"/>
<polygon fill="midnightblue" stroke="midnightblue" points="198.458,-52.9962 207.945,-48.2797 197.588,-46.0505 198.458,-52.9962"/>
</g>
<!-- Node4 -->
<g id="node4" class="node"><title>Node4</title>
<g id="a_node4"><a xlink:href="namespaceRa_1_1Core_1_1DistanceQueries.html#a69de99ca80dd56c39c37e8f604da3ddb" target="_top" xlink:title="Computes the squared distance from a query line to the triangle v. ">
<polygon fill="white" stroke="black" points="387,-49.5 387,-79.5 529,-79.5 529,-49.5 387,-49.5"/>
<text text-anchor="start" x="395" y="-67.5" font-family="Helvetica,sans-Serif" font-size="10.00">Ra::Core::DistanceQueries</text>
<text text-anchor="middle" x="458" y="-56.5" font-family="Helvetica,sans-Serif" font-size="10.00">::lineToTriSq</text>
</a>
</g>
</g>
<!-- Node3&#45;&gt;Node4 -->
<g id="edge3" class="edge"><title>Node3&#45;&gt;Node4</title>
<path fill="none" stroke="midnightblue" d="M350.209,-49.4166C358.975,-50.6547 367.991,-51.9281 376.893,-53.1855"/>
<polygon fill="midnightblue" stroke="midnightblue" points="376.484,-56.6624 386.876,-54.5954 377.463,-49.7312 376.484,-56.6624"/>
</g>
<!-- Node7 -->
<g id="node7" class="node"><title>Node7</title>
<g id="a_node7"><a xlink:href="namespaceRa_1_1Core_1_1DistanceQueries.html#afc2a145fc94c30b5945a7e1d12305c79" target="_top" xlink:title="Computes the squared distance from a query point Q to the triangle ABC. ">
<polygon fill="white" stroke="black" points="387,-0.5 387,-30.5 529,-30.5 529,-0.5 387,-0.5"/>
<text text-anchor="start" x="395" y="-18.5" font-family="Helvetica,sans-Serif" font-size="10.00">Ra::Core::DistanceQueries</text>
<text text-anchor="middle" x="458" y="-7.5" font-family="Helvetica,sans-Serif" font-size="10.00">::pointToTriSq</text>
</a>
</g>
</g>
<!-- Node3&#45;&gt;Node7 -->
<g id="edge6" class="edge"><title>Node3&#45;&gt;Node7</title>
<path fill="none" stroke="midnightblue" d="M350.209,-29.9801C358.975,-28.7915 367.991,-27.569 376.893,-26.3619"/>
<polygon fill="midnightblue" stroke="midnightblue" points="377.437,-29.8204 386.876,-25.0084 376.496,-22.8839 377.437,-29.8204"/>
</g>
<!-- Node5 -->
<g id="node5" class="node"><title>Node5</title>
<g id="a_node5"><a xlink:href="namespaceOpenMesh.html#a575b338f0fc9ecb5393d23e977e6ac38" target="_top" xlink:title="OpenMesh::dot">
<polygon fill="white" stroke="black" points="591.5,-77 591.5,-96 680.5,-96 680.5,-77 591.5,-77"/>
<text text-anchor="middle" x="636" y="-84" font-family="Helvetica,sans-Serif" font-size="10.00">OpenMesh::dot</text>
</a>
</g>
</g>
<!-- Node4&#45;&gt;Node5 -->
<g id="edge4" class="edge"><title>Node4&#45;&gt;Node5</title>
<path fill="none" stroke="midnightblue" d="M529.066,-73.2582C546.451,-75.4314 564.811,-77.7264 581.275,-79.7844"/>
<polygon fill="midnightblue" stroke="midnightblue" points="580.898,-83.2644 591.255,-81.0319 581.766,-76.3185 580.898,-83.2644"/>
</g>
<!-- Node6 -->
<g id="node6" class="node"><title>Node6</title>
<g id="a_node6"><a xlink:href="namespaceRa_1_1Core_1_1DistanceQueries.html#aac62676101f136df40b1f238e3db48be" target="_top" xlink:title="Computes the squared distance from a query line to a segment. ">
<polygon fill="white" stroke="black" points="565,-27.5 565,-57.5 707,-57.5 707,-27.5 565,-27.5"/>
<text text-anchor="start" x="573" y="-45.5" font-family="Helvetica,sans-Serif" font-size="10.00">Ra::Core::DistanceQueries</text>
<text text-anchor="middle" x="636" y="-34.5" font-family="Helvetica,sans-Serif" font-size="10.00">::lineToSegSq</text>
</a>
</g>
</g>
<!-- Node4&#45;&gt;Node6 -->
<g id="edge5" class="edge"><title>Node4&#45;&gt;Node6</title>
<path fill="none" stroke="midnightblue" d="M529.066,-55.7418C537.54,-54.6825 546.247,-53.5942 554.852,-52.5185"/>
<polygon fill="midnightblue" stroke="midnightblue" points="555.399,-55.9774 564.888,-51.264 554.531,-49.0315 555.399,-55.9774"/>
</g>
</g>
</svg>
