<?xml version="1.0" encoding="UTF-8" standalone="no"?>
<!DOCTYPE svg PUBLIC "-//W3C//DTD SVG 1.1//EN"
 "http://www.w3.org/Graphics/SVG/1.1/DTD/svg11.dtd">
<!-- Generated by graphviz version 2.38.0 (20140413.2041)
 -->
<!-- Title: Ra::Gui::GizmoManager::updateValues Pages: 1 -->
<svg width="1224pt" height="450pt"
 viewBox="0.00 0.00 1224.00 450.00" xmlns="http://www.w3.org/2000/svg" xmlns:xlink="http://www.w3.org/1999/xlink">
<g id="graph0" class="graph" transform="scale(1 1) rotate(0) translate(4 446)">
<title>Ra::Gui::GizmoManager::updateValues</title>
<polygon fill="white" stroke="none" points="-4,4 -4,-446 1220,-446 1220,4 -4,4"/>
<!-- Node1 -->
<g id="node1" class="node"><title>Node1</title>
<polygon fill="#bfbfbf" stroke="black" points="0,-117.5 0,-147.5 129,-147.5 129,-117.5 0,-117.5"/>
<text text-anchor="start" x="8" y="-135.5" font-family="Helvetica,sans-Serif" font-size="10.00">Ra::Gui::GizmoManager</text>
<text text-anchor="middle" x="64.5" y="-124.5" font-family="Helvetica,sans-Serif" font-size="10.00">::updateValues</text>
</g>
<!-- Node2 -->
<g id="node2" class="node"><title>Node2</title>
<g id="a_node2"><a xlink:href="classRa_1_1GuiBase_1_1TransformEditor.html#ad21b8c46ad2d5c62e309eb16b104ee2f" target="_top" xlink:title="Ra::GuiBase::TransformEditor\l::canEdit">
<polygon fill="white" stroke="black" points="375,-239.5 375,-269.5 530,-269.5 530,-239.5 375,-239.5"/>
<text text-anchor="start" x="383" y="-257.5" font-family="Helvetica,sans-Serif" font-size="10.00">Ra::GuiBase::TransformEditor</text>
<text text-anchor="middle" x="452.5" y="-246.5" font-family="Helvetica,sans-Serif" font-size="10.00">::canEdit</text>
</a>
</g>
</g>
<!-- Node1&#45;&gt;Node2 -->
<g id="edge1" class="edge"><title>Node1&#45;&gt;Node2</title>
<path fill="none" stroke="midnightblue" d="M87.0291,-147.687C106.542,-160.794 136.52,-179.33 165,-190.5 229.677,-215.867 306.709,-232.365 364.6,-242.247"/>
<polygon fill="midnightblue" stroke="midnightblue" points="364.373,-245.758 374.813,-243.956 365.528,-238.854 364.373,-245.758"/>
</g>
<!-- Node17 -->
<g id="node17" class="node"><title>Node17</title>
<g id="a_node17"><a xlink:href="classRa_1_1GuiBase_1_1TransformEditor.html#aecdcc853ebf6b4ae1dab2c9ee56c96ef" target="_top" xlink:title="Ra::GuiBase::TransformEditor\l::getTransform">
<polygon fill="white" stroke="black" points="174.5,-151.5 174.5,-181.5 329.5,-181.5 329.5,-151.5 174.5,-151.5"/>
<text text-anchor="start" x="182.5" y="-169.5" font-family="Helvetica,sans-Serif" font-size="10.00">Ra::GuiBase::TransformEditor</text>
<text text-anchor="middle" x="252" y="-158.5" font-family="Helvetica,sans-Serif" font-size="10.00">::getTransform</text>
</a>
</g>
</g>
<!-- Node1&#45;&gt;Node17 -->
<g id="edge22" class="edge"><title>Node1&#45;&gt;Node17</title>
<path fill="none" stroke="midnightblue" d="M129.079,-144.153C140.468,-146.241 152.511,-148.448 164.418,-150.63"/>
<polygon fill="midnightblue" stroke="midnightblue" points="163.902,-154.094 174.37,-152.455 165.165,-147.209 163.902,-154.094"/>
</g>
<!-- Node21 -->
<g id="node21" class="node"><title>Node21</title>
<g id="a_node21"><a xlink:href="classRa_1_1Gui_1_1Gizmo.html#a2fc380738268508ca2d46ac856c2f98a" target="_top" xlink:title="Called every time the underlying transform may have changed. ">
<polygon fill="white" stroke="black" points="165,-45 165,-64 339,-64 339,-45 165,-45"/>
<text text-anchor="middle" x="252" y="-52" font-family="Helvetica,sans-Serif" font-size="10.00">Ra::Gui::Gizmo::updateTransform</text>
</a>
</g>
</g>
<!-- Node1&#45;&gt;Node21 -->
<g id="edge31" class="edge"><title>Node1&#45;&gt;Node21</title>
<path fill="none" stroke="midnightblue" d="M86.6016,-117.278C106.072,-103.908 136.237,-84.8663 165,-73.5 171.648,-70.8729 178.736,-68.5716 185.882,-66.5649"/>
<polygon fill="midnightblue" stroke="midnightblue" points="186.841,-69.9317 195.625,-64.008 185.064,-63.1609 186.841,-69.9317"/>
</g>
<!-- Node22 -->
<g id="node22" class="node"><title>Node22</title>
<g id="a_node22"><a xlink:href="classRa_1_1GuiBase_1_1TransformEditor.html#a6c8c6e18c8b92a92a53f6c035aa6c241" target="_top" xlink:title="Ra::GuiBase::TransformEditor\l::getWorldTransform">
<polygon fill="white" stroke="black" points="174.5,-83.5 174.5,-113.5 329.5,-113.5 329.5,-83.5 174.5,-83.5"/>
<text text-anchor="start" x="182.5" y="-101.5" font-family="Helvetica,sans-Serif" font-size="10.00">Ra::GuiBase::TransformEditor</text>
<text text-anchor="middle" x="252" y="-90.5" font-family="Helvetica,sans-Serif" font-size="10.00">::getWorldTransform</text>
</a>
</g>
</g>
<!-- Node1&#45;&gt;Node22 -->
<g id="edge32" class="edge"><title>Node1&#45;&gt;Node22</title>
<path fill="none" stroke="midnightblue" d="M129.079,-120.847C140.468,-118.759 152.511,-116.552 164.418,-114.37"/>
<polygon fill="midnightblue" stroke="midnightblue" points="165.165,-117.791 174.37,-112.545 163.902,-110.906 165.165,-117.791"/>
</g>
<!-- Node3 -->
<g id="node3" class="node"><title>Node3</title>
<g id="a_node3"><a xlink:href="structRa_1_1Engine_1_1ItemEntry.html#aceafc81a73631955b64999dd39a639da" target="_top" xlink:title="Returns true if the item represents any valid object. ">
<polygon fill="white" stroke="black" points="571,-220.5 571,-250.5 690,-250.5 690,-220.5 571,-220.5"/>
<text text-anchor="start" x="579" y="-238.5" font-family="Helvetica,sans-Serif" font-size="10.00">Ra::Engine::ItemEntry</text>
<text text-anchor="middle" x="630.5" y="-227.5" font-family="Helvetica,sans-Serif" font-size="10.00">::isValid</text>
</a>
</g>
</g>
<!-- Node2&#45;&gt;Node3 -->
<g id="edge2" class="edge"><title>Node2&#45;&gt;Node3</title>
<path fill="none" stroke="midnightblue" d="M530.184,-246.222C540.291,-245.131 550.6,-244.018 560.566,-242.942"/>
<polygon fill="midnightblue" stroke="midnightblue" points="561.238,-246.39 570.805,-241.836 560.487,-239.43 561.238,-246.39"/>
</g>
<!-- Node13 -->
<g id="node13" class="node"><title>Node13</title>
<g id="a_node13"><a xlink:href="structRa_1_1Engine_1_1ItemEntry.html#a09e294208d0896596a42a7a6c7e78f75" target="_top" xlink:title="Returns true if the item can be selected. ">
<polygon fill="white" stroke="black" points="571,-318.5 571,-348.5 690,-348.5 690,-318.5 571,-318.5"/>
<text text-anchor="start" x="579" y="-336.5" font-family="Helvetica,sans-Serif" font-size="10.00">Ra::Engine::ItemEntry</text>
<text text-anchor="middle" x="630.5" y="-325.5" font-family="Helvetica,sans-Serif" font-size="10.00">::isSelectable</text>
</a>
</g>
</g>
<!-- Node2&#45;&gt;Node13 -->
<g id="edge14" class="edge"><title>Node2&#45;&gt;Node13</title>
<path fill="none" stroke="midnightblue" d="M482.757,-269.737C505.26,-281.228 537.264,-297.077 566,-309.5 570.065,-311.257 574.305,-313.016 578.581,-314.737"/>
<polygon fill="midnightblue" stroke="midnightblue" points="577.358,-318.018 587.945,-318.432 579.928,-311.506 577.358,-318.018"/>
</g>
<!-- Node15 -->
<g id="node15" class="node"><title>Node15</title>
<g id="a_node15"><a xlink:href="structRa_1_1Engine_1_1ItemEntry.html#a4823dfa3c113db71733979f1719f3b28" target="_top" xlink:title="Returns true if the item represents an entity. ">
<polygon fill="white" stroke="black" points="571,-161.5 571,-191.5 690,-191.5 690,-161.5 571,-161.5"/>
<text text-anchor="start" x="579" y="-179.5" font-family="Helvetica,sans-Serif" font-size="10.00">Ra::Engine::ItemEntry</text>
<text text-anchor="middle" x="630.5" y="-168.5" font-family="Helvetica,sans-Serif" font-size="10.00">::isEntityNode</text>
</a>
</g>
</g>
<!-- Node2&#45;&gt;Node15 -->
<g id="edge19" class="edge"><title>Node2&#45;&gt;Node15</title>
<path fill="none" stroke="midnightblue" d="M493.44,-239.496C505.284,-234.87 518.233,-229.637 530,-224.5 550.207,-215.679 572.331,-205.1 590.575,-196.122"/>
<polygon fill="midnightblue" stroke="midnightblue" points="592.321,-199.163 599.731,-191.591 589.216,-192.889 592.321,-199.163"/>
</g>
<!-- Node16 -->
<g id="node16" class="node"><title>Node16</title>
<g id="a_node16"><a xlink:href="classRa_1_1Engine_1_1Component.html#acf64b8eb5eccf40d1ef61fef5a137c01" target="_top" xlink:title="Returns true if a transform can be edited with the render object index given as a key...">
<polygon fill="white" stroke="black" points="566,-269.5 566,-299.5 695,-299.5 695,-269.5 566,-269.5"/>
<text text-anchor="start" x="574" y="-287.5" font-family="Helvetica,sans-Serif" font-size="10.00">Ra::Engine::Component</text>
<text text-anchor="middle" x="630.5" y="-276.5" font-family="Helvetica,sans-Serif" font-size="10.00">::canEdit</text>
</a>
</g>
</g>
<!-- Node2&#45;&gt;Node16 -->
<g id="edge21" class="edge"><title>Node2&#45;&gt;Node16</title>
<path fill="none" stroke="midnightblue" d="M530.184,-267.571C538.773,-269.035 547.508,-270.524 556.055,-271.981"/>
<polygon fill="midnightblue" stroke="midnightblue" points="555.535,-275.443 565.981,-273.673 556.712,-268.542 555.535,-275.443"/>
</g>
<!-- Node4 -->
<g id="node4" class="node"><title>Node4</title>
<g id="a_node4"><a xlink:href="structRa_1_1Engine_1_1ItemEntry.html#a1fb9fdd74413a1fa5878f53c1cfcf8fd" target="_top" xlink:title="Debug checks. ">
<polygon fill="white" stroke="black" points="920,-44.5 920,-74.5 1039,-74.5 1039,-44.5 920,-44.5"/>
<text text-anchor="start" x="928" y="-62.5" font-family="Helvetica,sans-Serif" font-size="10.00">Ra::Engine::ItemEntry</text>
<text text-anchor="middle" x="979.5" y="-51.5" font-family="Helvetica,sans-Serif" font-size="10.00">::checkConsistency</text>
</a>
</g>
</g>
<!-- Node3&#45;&gt;Node4 -->
<g id="edge3" class="edge"><title>Node3&#45;&gt;Node4</title>
<path fill="none" stroke="midnightblue" d="M690.115,-223.228C756.982,-208.926 859.164,-186.038 875,-176.5 914.03,-152.991 946.408,-109.947 964.056,-83.1337"/>
<polygon fill="midnightblue" stroke="midnightblue" points="967.004,-85.0198 969.464,-74.7145 961.115,-81.2365 967.004,-85.0198"/>
</g>
<!-- Node6 -->
<g id="node6" class="node"><title>Node6</title>
<g id="a_node6"><a xlink:href="classRa_1_1Engine_1_1RadiumEngine.html#a79f6626ce468268791bc5bdfe17b5586" target="_top" xlink:title="Get the entity manager attached to the engine. ">
<polygon fill="white" stroke="black" points="732.5,-225.5 732.5,-255.5 873.5,-255.5 873.5,-225.5 732.5,-225.5"/>
<text text-anchor="start" x="740.5" y="-243.5" font-family="Helvetica,sans-Serif" font-size="10.00">Ra::Engine::RadiumEngine</text>
<text text-anchor="middle" x="803" y="-232.5" font-family="Helvetica,sans-Serif" font-size="10.00">::getEntityManager</text>
</a>
</g>
</g>
<!-- Node3&#45;&gt;Node6 -->
<g id="edge5" class="edge"><title>Node3&#45;&gt;Node6</title>
<path fill="none" stroke="midnightblue" d="M690.176,-237.221C700.469,-237.523 711.336,-237.841 722.089,-238.157"/>
<polygon fill="midnightblue" stroke="midnightblue" points="722.243,-241.663 732.342,-238.457 722.449,-234.666 722.243,-241.663"/>
</g>
<!-- Node7 -->
<g id="node7" class="node"><title>Node7</title>
<g id="a_node7"><a xlink:href="classRa_1_1Engine_1_1EntityManager.html#a5115cccae6aaef614ad4bd08e64d8185" target="_top" xlink:title="Check wether an entity with a given name exists or not. ">
<polygon fill="white" stroke="black" points="732,-137.5 732,-167.5 874,-167.5 874,-137.5 732,-137.5"/>
<text text-anchor="start" x="740" y="-155.5" font-family="Helvetica,sans-Serif" font-size="10.00">Ra::Engine::EntityManager</text>
<text text-anchor="middle" x="803" y="-144.5" font-family="Helvetica,sans-Serif" font-size="10.00">::entityExists</text>
</a>
</g>
</g>
<!-- Node3&#45;&gt;Node7 -->
<g id="edge6" class="edge"><title>Node3&#45;&gt;Node7</title>
<path fill="none" stroke="midnightblue" d="M658.194,-220.442C678.04,-209.453 705.91,-194.454 731,-182.5 738.728,-178.818 747.027,-175.103 755.129,-171.602"/>
<polygon fill="midnightblue" stroke="midnightblue" points="756.678,-174.746 764.504,-167.604 753.932,-168.307 756.678,-174.746"/>
</g>
<!-- Node8 -->
<g id="node8" class="node"><title>Node8</title>
<g id="a_node8"><a xlink:href="classRa_1_1Engine_1_1Entity.html#aaf256bea44bbc5bff6aa504aca05ca35" target="_top" xlink:title="Ra::Engine::Entity\l::getName">
<polygon fill="white" stroke="black" points="753,-88.5 753,-118.5 853,-118.5 853,-88.5 753,-88.5"/>
<text text-anchor="start" x="761" y="-106.5" font-family="Helvetica,sans-Serif" font-size="10.00">Ra::Engine::Entity</text>
<text text-anchor="middle" x="803" y="-95.5" font-family="Helvetica,sans-Serif" font-size="10.00">::getName</text>
</a>
</g>
</g>
<!-- Node3&#45;&gt;Node8 -->
<g id="edge7" class="edge"><title>Node3&#45;&gt;Node8</title>
<path fill="none" stroke="midnightblue" d="M667.762,-220.412C677.453,-215.148 687.348,-208.509 695,-200.5 719.99,-174.344 703.787,-151.334 731,-127.5 734.719,-124.242 738.899,-121.423 743.32,-118.984"/>
<polygon fill="midnightblue" stroke="midnightblue" points="745.169,-121.978 752.665,-114.491 742.136,-115.67 745.169,-121.978"/>
</g>
<!-- Node9 -->
<g id="node9" class="node"><title>Node9</title>
<g id="a_node9"><a xlink:href="structRa_1_1Engine_1_1ItemEntry.html#a898047549069e5b64d3a9a65c058af56" target="_top" xlink:title="Returns true if the item represents a render object. ">
<polygon fill="white" stroke="black" points="743.5,-362.5 743.5,-392.5 862.5,-392.5 862.5,-362.5 743.5,-362.5"/>
<text text-anchor="start" x="751.5" y="-380.5" font-family="Helvetica,sans-Serif" font-size="10.00">Ra::Engine::ItemEntry</text>
<text text-anchor="middle" x="803" y="-369.5" font-family="Helvetica,sans-Serif" font-size="10.00">::isRoNode</text>
</a>
</g>
</g>
<!-- Node3&#45;&gt;Node9 -->
<g id="edge8" class="edge"><title>Node3&#45;&gt;Node9</title>
<path fill="none" stroke="midnightblue" d="M681.829,-250.567C686.645,-253.352 691.157,-256.635 695,-260.5 726.25,-291.93 698.987,-322.846 731,-353.5 732.26,-354.706 733.583,-355.852 734.958,-356.941"/>
<polygon fill="midnightblue" stroke="midnightblue" points="733.088,-359.901 743.342,-362.566 736.988,-354.088 733.088,-359.901"/>
</g>
<!-- Node11 -->
<g id="node11" class="node"><title>Node11</title>
<g id="a_node11"><a xlink:href="classRa_1_1Engine_1_1RadiumEngine.html#a58b27bc600ea769f68b0e2938abc7862" target="_top" xlink:title="Manager getters. ">
<polygon fill="white" stroke="black" points="731,-313.5 731,-343.5 875,-343.5 875,-313.5 731,-313.5"/>
<text text-anchor="start" x="739" y="-331.5" font-family="Helvetica,sans-Serif" font-size="10.00">Ra::Engine::RadiumEngine</text>
<text text-anchor="middle" x="803" y="-320.5" font-family="Helvetica,sans-Serif" font-size="10.00">::getRenderObjectManager</text>
</a>
</g>
</g>
<!-- Node3&#45;&gt;Node11 -->
<g id="edge11" class="edge"><title>Node3&#45;&gt;Node11</title>
<path fill="none" stroke="midnightblue" d="M677.144,-250.638C683.369,-253.504 689.501,-256.788 695,-260.5 714.283,-273.516 711.88,-285.247 731,-298.5 736.616,-302.393 742.816,-305.926 749.144,-309.088"/>
<polygon fill="midnightblue" stroke="midnightblue" points="747.914,-312.377 758.454,-313.455 750.887,-306.04 747.914,-312.377"/>
</g>
<!-- Node12 -->
<g id="node12" class="node"><title>Node12</title>
<g id="a_node12"><a xlink:href="classRa_1_1Engine_1_1RenderObjectManager.html#a4077b9cf9e1e4d62fd5456386f2d72c8" target="_top" xlink:title="Returns true if the index points to a valid render object. ">
<polygon fill="white" stroke="black" points="911,-406.5 911,-436.5 1048,-436.5 1048,-406.5 911,-406.5"/>
<text text-anchor="start" x="919" y="-424.5" font-family="Helvetica,sans-Serif" font-size="10.00">Ra::Engine::RenderObject</text>
<text text-anchor="middle" x="979.5" y="-413.5" font-family="Helvetica,sans-Serif" font-size="10.00">Manager::exists</text>
</a>
</g>
</g>
<!-- Node3&#45;&gt;Node12 -->
<g id="edge12" class="edge"><title>Node3&#45;&gt;Node12</title>
<path fill="none" stroke="midnightblue" d="M680.256,-250.501C696.381,-255.382 714.434,-260.76 731,-265.5 794.748,-283.739 818.665,-269.532 875,-304.5 913.543,-328.425 945.907,-371.038 963.711,-397.702"/>
<polygon fill="midnightblue" stroke="midnightblue" points="960.994,-399.945 969.387,-406.412 966.859,-396.123 960.994,-399.945"/>
</g>
<!-- Node5 -->
<g id="node5" class="node"><title>Node5</title>
<g id="a_node5"><a xlink:href="classRa_1_1Core_1_1Index.html#a7283e7fb9cc134e04ef3cde8877f8fe2" target="_top" xlink:title="INVALID. ">
<polygon fill="white" stroke="black" points="1084,-28 1084,-47 1216,-47 1216,-28 1084,-28"/>
<text text-anchor="middle" x="1150" y="-35" font-family="Helvetica,sans-Serif" font-size="10.00">Ra::Core::Index::isInvalid</text>
</a>
</g>
</g>
<!-- Node4&#45;&gt;Node5 -->
<g id="edge4" class="edge"><title>Node4&#45;&gt;Node5</title>
<path fill="none" stroke="midnightblue" d="M1039.43,-51.8055C1050.52,-50.3583 1062.24,-48.8271 1073.75,-47.3253"/>
<polygon fill="midnightblue" stroke="midnightblue" points="1074.31,-50.7814 1083.77,-46.0161 1073.41,-43.8403 1074.31,-50.7814"/>
</g>
<!-- Node9&#45;&gt;Node4 -->
<g id="edge9" class="edge"><title>Node9&#45;&gt;Node4</title>
<path fill="none" stroke="midnightblue" d="M862.776,-362.687C867.231,-360.102 871.389,-357.066 875,-353.5 951.883,-277.573 971.798,-141.214 976.84,-84.8973"/>
<polygon fill="midnightblue" stroke="midnightblue" points="980.343,-84.9928 977.662,-74.7429 973.366,-84.4277 980.343,-84.9928"/>
</g>
<!-- Node10 -->
<g id="node10" class="node"><title>Node10</title>
<g id="a_node10"><a xlink:href="classRa_1_1Core_1_1Index.html#a87c70243f30c65c1a24834d1829bda01" target="_top" xlink:title="DESTRUCTOR: Must not be defined, we need it trivial to be constexpr. ">
<polygon fill="white" stroke="black" points="1087.5,-390 1087.5,-409 1212.5,-409 1212.5,-390 1087.5,-390"/>
<text text-anchor="middle" x="1150" y="-397" font-family="Helvetica,sans-Serif" font-size="10.00">Ra::Core::Index::isValid</text>
</a>
</g>
</g>
<!-- Node9&#45;&gt;Node10 -->
<g id="edge10" class="edge"><title>Node9&#45;&gt;Node10</title>
<path fill="none" stroke="midnightblue" d="M862.525,-381.232C921.71,-385.006 1013.3,-390.846 1076.92,-394.904"/>
<polygon fill="midnightblue" stroke="midnightblue" points="1077.07,-398.42 1087.27,-395.564 1077.52,-391.434 1077.07,-398.42"/>
</g>
<!-- Node12&#45;&gt;Node10 -->
<g id="edge13" class="edge"><title>Node12&#45;&gt;Node10</title>
<path fill="none" stroke="midnightblue" d="M1048.06,-412.679C1057.71,-411.419 1067.67,-410.119 1077.39,-408.85"/>
<polygon fill="midnightblue" stroke="midnightblue" points="1077.96,-412.306 1087.42,-407.54 1077.05,-405.364 1077.96,-412.306"/>
</g>
<!-- Node13&#45;&gt;Node9 -->
<g id="edge15" class="edge"><title>Node13&#45;&gt;Node9</title>
<path fill="none" stroke="midnightblue" d="M689.7,-348.519C703.887,-352.18 719.189,-356.129 733.795,-359.899"/>
<polygon fill="midnightblue" stroke="midnightblue" points="733.216,-363.364 743.773,-362.474 734.965,-356.586 733.216,-363.364"/>
</g>
<!-- Node13&#45;&gt;Node11 -->
<g id="edge16" class="edge"><title>Node13&#45;&gt;Node11</title>
<path fill="none" stroke="midnightblue" d="M690.176,-331.779C700.002,-331.491 710.35,-331.188 720.624,-330.886"/>
<polygon fill="midnightblue" stroke="midnightblue" points="720.957,-334.378 730.85,-330.587 720.752,-327.381 720.957,-334.378"/>
</g>
<!-- Node14 -->
<g id="node14" class="node"><title>Node14</title>
<g id="a_node14"><a xlink:href="classRa_1_1Engine_1_1RenderObjectManager.html#a32bd0db0d9620bb7e3f0fe50b541dae3" target="_top" xlink:title="Returns the render object corresponding to the given index. ">
<polygon fill="white" stroke="black" points="731,-411.5 731,-441.5 875,-441.5 875,-411.5 731,-411.5"/>
<text text-anchor="start" x="739" y="-429.5" font-family="Helvetica,sans-Serif" font-size="10.00">Ra::Engine::RenderObject</text>
<text text-anchor="middle" x="803" y="-418.5" font-family="Helvetica,sans-Serif" font-size="10.00">Manager::getRenderObject</text>
</a>
</g>
</g>
<!-- Node13&#45;&gt;Node14 -->
<g id="edge17" class="edge"><title>Node13&#45;&gt;Node14</title>
<path fill="none" stroke="midnightblue" d="M649.947,-348.669C669.206,-363.919 700.766,-387.289 731,-402.5 734.56,-404.291 738.284,-405.997 742.082,-407.612"/>
<polygon fill="midnightblue" stroke="midnightblue" points="741.04,-410.966 751.624,-411.439 743.646,-404.469 741.04,-410.966"/>
</g>
<!-- Node14&#45;&gt;Node12 -->
<g id="edge18" class="edge"><title>Node14&#45;&gt;Node12</title>
<path fill="none" stroke="midnightblue" d="M875.228,-424.459C883.602,-424.219 892.181,-423.973 900.641,-423.731"/>
<polygon fill="midnightblue" stroke="midnightblue" points="900.984,-427.223 910.879,-423.438 900.783,-420.226 900.984,-427.223"/>
</g>
<!-- Node15&#45;&gt;Node4 -->
<g id="edge20" class="edge"><title>Node15&#45;&gt;Node4</title>
<path fill="none" stroke="midnightblue" d="M661.33,-161.486C672.707,-154.84 685.267,-146.298 695,-136.5 716.382,-114.976 705.071,-94.2535 731,-78.5 784.519,-45.9839 857.025,-44.26 909.719,-48.8481"/>
<polygon fill="midnightblue" stroke="midnightblue" points="909.691,-52.3617 919.982,-49.8426 910.366,-45.3943 909.691,-52.3617"/>
</g>
<!-- Node17&#45;&gt;Node2 -->
<g id="edge23" class="edge"><title>Node17&#45;&gt;Node2</title>
<path fill="none" stroke="midnightblue" d="M283.063,-181.515C307.593,-193.591 343.258,-210.751 375,-224.5 383.744,-228.288 393.133,-232.141 402.236,-235.768"/>
<polygon fill="midnightblue" stroke="midnightblue" points="400.992,-239.04 411.579,-239.454 403.561,-232.528 400.992,-239.04"/>
</g>
<!-- Node17&#45;&gt;Node9 -->
<g id="edge29" class="edge"><title>Node17&#45;&gt;Node9</title>
<path fill="none" stroke="midnightblue" d="M266.25,-181.874C287.285,-205.506 330.511,-251.005 375,-279.5 452.357,-329.046 476.688,-336.998 566,-358.5 621.288,-371.811 685.744,-376.284 733.311,-377.584"/>
<polygon fill="midnightblue" stroke="midnightblue" points="733.42,-381.087 743.499,-377.821 733.583,-374.089 733.42,-381.087"/>
</g>
<!-- Node17&#45;&gt;Node15 -->
<g id="edge24" class="edge"><title>Node17&#45;&gt;Node15</title>
<path fill="none" stroke="midnightblue" d="M317.236,-181.562C335.769,-185.246 356.093,-188.658 375,-190.5 443.564,-197.18 461.279,-195.311 530,-190.5 539.984,-189.801 550.491,-188.712 560.785,-187.443"/>
<polygon fill="midnightblue" stroke="midnightblue" points="561.513,-190.878 570.98,-186.122 560.613,-183.936 561.513,-190.878"/>
</g>
<!-- Node18 -->
<g id="node18" class="node"><title>Node18</title>
<g id="a_node18"><a xlink:href="classRa_1_1Engine_1_1Entity.html#adfcfb0c0eb4e1663cd66473e74d83aa3" target="_top" xlink:title="Ra::Engine::Entity\l::getTransform">
<polygon fill="white" stroke="black" points="402.5,-63.5 402.5,-93.5 502.5,-93.5 502.5,-63.5 402.5,-63.5"/>
<text text-anchor="start" x="410.5" y="-81.5" font-family="Helvetica,sans-Serif" font-size="10.00">Ra::Engine::Entity</text>
<text text-anchor="middle" x="452.5" y="-70.5" font-family="Helvetica,sans-Serif" font-size="10.00">::getTransform</text>
</a>
</g>
</g>
<!-- Node17&#45;&gt;Node18 -->
<g id="edge25" class="edge"><title>Node17&#45;&gt;Node18</title>
<path fill="none" stroke="midnightblue" d="M283.063,-151.485C307.593,-139.409 343.258,-122.249 375,-108.5 383.744,-104.712 393.133,-100.859 402.236,-97.2318"/>
<polygon fill="midnightblue" stroke="midnightblue" points="403.561,-100.472 411.579,-93.5462 400.992,-93.9601 403.561,-100.472"/>
</g>
<!-- Node19 -->
<g id="node19" class="node"><title>Node19</title>
<g id="a_node19"><a xlink:href="structRa_1_1Engine_1_1ItemEntry.html#ac78e7430338c62ed664a16da7e3ea206" target="_top" xlink:title="Returns true if the item represents a component. ">
<polygon fill="white" stroke="black" points="743.5,-0.5 743.5,-30.5 862.5,-30.5 862.5,-0.5 743.5,-0.5"/>
<text text-anchor="start" x="751.5" y="-18.5" font-family="Helvetica,sans-Serif" font-size="10.00">Ra::Engine::ItemEntry</text>
<text text-anchor="middle" x="803" y="-7.5" font-family="Helvetica,sans-Serif" font-size="10.00">::isComponentNode</text>
</a>
</g>
</g>
<!-- Node17&#45;&gt;Node19 -->
<g id="edge26" class="edge"><title>Node17&#45;&gt;Node19</title>
<path fill="none" stroke="midnightblue" d="M325.44,-151.476C381.567,-139.423 461.112,-121.441 530,-102.5 606.732,-81.4029 694.171,-52.56 748.727,-33.9779"/>
<polygon fill="midnightblue" stroke="midnightblue" points="750.189,-37.1769 758.521,-30.6319 747.926,-30.5529 750.189,-37.1769"/>
</g>
<!-- Node20 -->
<g id="node20" class="node"><title>Node20</title>
<g id="a_node20"><a xlink:href="classRa_1_1Engine_1_1Component.html#aa03c2f2bbddaf75b62ed0182359a2b2d" target="_top" xlink:title="Get the transform associated with the given RO index key. ">
<polygon fill="white" stroke="black" points="388,-151.5 388,-181.5 517,-181.5 517,-151.5 388,-151.5"/>
<text text-anchor="start" x="396" y="-169.5" font-family="Helvetica,sans-Serif" font-size="10.00">Ra::Engine::Component</text>
<text text-anchor="middle" x="452.5" y="-158.5" font-family="Helvetica,sans-Serif" font-size="10.00">::getTransform</text>
</a>
</g>
</g>
<!-- Node17&#45;&gt;Node20 -->
<g id="edge30" class="edge"><title>Node17&#45;&gt;Node20</title>
<path fill="none" stroke="midnightblue" d="M329.745,-166.5C345.496,-166.5 362.045,-166.5 377.69,-166.5"/>
<polygon fill="midnightblue" stroke="midnightblue" points="377.823,-170 387.823,-166.5 377.823,-163 377.823,-170"/>
</g>
<!-- Node19&#45;&gt;Node4 -->
<g id="edge27" class="edge"><title>Node19&#45;&gt;Node4</title>
<path fill="none" stroke="midnightblue" d="M862.591,-30.2738C877.698,-34.083 894.095,-38.2174 909.671,-42.1448"/>
<polygon fill="midnightblue" stroke="midnightblue" points="909.214,-45.6391 919.766,-44.6903 910.925,-38.8515 909.214,-45.6391"/>
</g>
<!-- Node19&#45;&gt;Node5 -->
<g id="edge28" class="edge"><title>Node19&#45;&gt;Node5</title>
<path fill="none" stroke="midnightblue" d="M862.525,-19.232C920.617,-22.9364 1009.92,-28.6314 1073.37,-32.677"/>
<polygon fill="midnightblue" stroke="midnightblue" points="1073.51,-36.1931 1083.71,-33.3367 1073.96,-29.2073 1073.51,-36.1931"/>
</g>
<!-- Node22&#45;&gt;Node15 -->
<g id="edge33" class="edge"><title>Node22&#45;&gt;Node15</title>
<path fill="none" stroke="midnightblue" d="M311.44,-83.4349C320.78,-80.4796 330.246,-77.1498 339,-73.5 355.894,-66.4567 357.282,-58.0912 375,-53.5 441.686,-36.2198 467.829,-23.8268 530,-53.5 572.536,-73.802 602.755,-122.154 618.057,-151.828"/>
<polygon fill="midnightblue" stroke="midnightblue" points="615.084,-153.712 622.67,-161.108 621.352,-150.596 615.084,-153.712"/>
</g>
<!-- Node22&#45;&gt;Node18 -->
<g id="edge34" class="edge"><title>Node22&#45;&gt;Node18</title>
<path fill="none" stroke="midnightblue" d="M329.745,-90.7675C350.556,-88.6707 372.759,-86.4336 392.43,-84.4517"/>
<polygon fill="midnightblue" stroke="midnightblue" points="392.866,-87.9256 402.464,-83.4406 392.164,-80.9608 392.866,-87.9256"/>
</g>
</g>
</svg>
