<?xml version="1.0" encoding="UTF-8" standalone="no"?>
<!DOCTYPE svg PUBLIC "-//W3C//DTD SVG 1.1//EN"
 "http://www.w3.org/Graphics/SVG/1.1/DTD/svg11.dtd">
<!-- Generated by graphviz version 2.38.0 (20140413.2041)
 -->
<!-- Title: Ra::GuiBase::EngineTreeItem Pages: 1 -->
<svg width="1136pt" height="1510pt"
 viewBox="0.00 0.00 1136.00 1510.00" xmlns="http://www.w3.org/2000/svg" xmlns:xlink="http://www.w3.org/1999/xlink">
<g id="graph0" class="graph" transform="scale(1 1) rotate(0) translate(4 1506)">
<title>Ra::GuiBase::EngineTreeItem</title>
<polygon fill="white" stroke="none" points="-4,4 -4,-1506 1132,-1506 1132,4 -4,4"/>
<!-- Node1 -->
<g id="node1" class="node"><title>Node1</title>
<polygon fill="#bfbfbf" stroke="black" points="169,-0.5 169,-79.5 323,-79.5 323,-0.5 169,-0.5"/>
<text text-anchor="middle" x="246" y="-67.5" font-family="Helvetica,sans-Serif" font-size="10.00">Ra::GuiBase::EngineTreeItem</text>
<polyline fill="none" stroke="black" points="169,-60.5 323,-60.5 "/>
<text text-anchor="middle" x="246" y="-48.5" font-family="Helvetica,sans-Serif" font-size="10.00"> </text>
<polyline fill="none" stroke="black" points="169,-41.5 323,-41.5 "/>
<text text-anchor="start" x="177" y="-29.5" font-family="Helvetica,sans-Serif" font-size="10.00">+ getName()</text>
<text text-anchor="start" x="177" y="-18.5" font-family="Helvetica,sans-Serif" font-size="10.00">+ isValid()</text>
<text text-anchor="start" x="177" y="-7.5" font-family="Helvetica,sans-Serif" font-size="10.00">+ isSelectable()</text>
</g>
<!-- Node2 -->
<g id="node2" class="node"><title>Node2</title>
<g id="a_node2"><a xlink:href="classRa_1_1GuiBase_1_1TreeItem.html" target="_top" xlink:title="Base class for element of the tree representation. ">
<polygon fill="white" stroke="black" points="0,-1147 0,-1281 122,-1281 122,-1147 0,-1147"/>
<text text-anchor="middle" x="61" y="-1269" font-family="Helvetica,sans-Serif" font-size="10.00">Ra::GuiBase::TreeItem</text>
<polyline fill="none" stroke="black" points="0,-1262 122,-1262 "/>
<text text-anchor="middle" x="61" y="-1250" font-family="Helvetica,sans-Serif" font-size="10.00"> </text>
<polyline fill="none" stroke="black" points="0,-1243 122,-1243 "/>
<text text-anchor="start" x="8" y="-1231" font-family="Helvetica,sans-Serif" font-size="10.00">+ TreeItem()</text>
<text text-anchor="start" x="8" y="-1220" font-family="Helvetica,sans-Serif" font-size="10.00">+ ~TreeItem()</text>
<text text-anchor="start" x="8" y="-1209" font-family="Helvetica,sans-Serif" font-size="10.00">+ TreeItem()</text>
<text text-anchor="start" x="8" y="-1198" font-family="Helvetica,sans-Serif" font-size="10.00">+ operator=()</text>
<text text-anchor="start" x="8" y="-1187" font-family="Helvetica,sans-Serif" font-size="10.00">+ getName()</text>
<text text-anchor="start" x="8" y="-1176" font-family="Helvetica,sans-Serif" font-size="10.00">+ isValid()</text>
<text text-anchor="start" x="8" y="-1165" font-family="Helvetica,sans-Serif" font-size="10.00">+ isSelectable()</text>
<text text-anchor="start" x="8" y="-1154" font-family="Helvetica,sans-Serif" font-size="10.00">+ getIndexInParent()</text>
</a>
</g>
</g>
<!-- Node2&#45;&gt;Node1 -->
<g id="edge1" class="edge"><title>Node2&#45;&gt;Node1</title>
<path fill="none" stroke="midnightblue" d="M44.7129,-1136.98C33.6429,-1078.71 21,-996.148 21,-923 21,-923 21,-923 21,-199 21,-124.897 103.75,-82.5639 168.883,-60.721"/>
<polygon fill="none" stroke="midnightblue" points="41.2846,-1137.69 46.6156,-1146.84 48.1579,-1136.36 41.2846,-1137.69"/>
</g>
<!-- Node2&#45;&gt;Node2 -->
<g id="edge9" class="edge"><title>Node2&#45;&gt;Node2</title>
<path fill="none" stroke="#404040" d="M122.279,-1250.06C132.747,-1245.13 140,-1233.11 140,-1214 140,-1201.46 136.876,-1191.97 131.77,-1185.54"/>
<polygon fill="none" stroke="#404040" points="131.648,-1185.44 124.464,-1184.81 122.279,-1177.94 129.463,-1178.57 131.648,-1185.44"/>
<text text-anchor="middle" x="169" y="-1211.5" font-family="Helvetica,sans-Serif" font-size="10.00"> +m_parent</text>
</g>
<!-- Node4 -->
<g id="node4" class="node"><title>Node4</title>
<polygon fill="white" stroke="#bfbfbf" points="149.5,-888 149.5,-956 270.5,-956 270.5,-888 149.5,-888"/>
<text text-anchor="start" x="157.5" y="-944" font-family="Helvetica,sans-Serif" font-size="10.00">std::unique_ptr&lt; Ra</text>
<text text-anchor="middle" x="210" y="-933" font-family="Helvetica,sans-Serif" font-size="10.00">::GuiBase::TreeItem &gt;</text>
<polyline fill="none" stroke="#bfbfbf" points="149.5,-926 270.5,-926 "/>
<text text-anchor="middle" x="210" y="-914" font-family="Helvetica,sans-Serif" font-size="10.00"> </text>
<polyline fill="none" stroke="#bfbfbf" points="149.5,-907 270.5,-907 "/>
<text text-anchor="start" x="157.5" y="-895" font-family="Helvetica,sans-Serif" font-size="10.00">+ operator&#45;&gt;()</text>
</g>
<!-- Node2&#45;&gt;Node4 -->
<g id="edge4" class="edge"><title>Node2&#45;&gt;Node4</title>
<path fill="none" stroke="#404040" d="M72.6145,-1146.91C83.6576,-1097.58 103.937,-1030.31 139,-980 142.785,-974.57 147.231,-969.391 152.021,-964.526"/>
<polygon fill="none" stroke="#404040" points="152.209,-964.349 153.836,-957.324 160.946,-956.123 159.32,-963.148 152.209,-964.349"/>
<text text-anchor="middle" x="151.5" y="-994" font-family="Helvetica,sans-Serif" font-size="10.00"> +ptr</text>
</g>
<!-- Node3 -->
<g id="node3" class="node"><title>Node3</title>
<polygon fill="white" stroke="#bfbfbf" points="123,-678.5 123,-746.5 297,-746.5 297,-678.5 123,-678.5"/>
<text text-anchor="start" x="131" y="-734.5" font-family="Helvetica,sans-Serif" font-size="10.00">std::vector&lt; std::unique</text>
<text text-anchor="middle" x="210" y="-723.5" font-family="Helvetica,sans-Serif" font-size="10.00">_ptr&lt; Ra::GuiBase::TreeItem &gt; &gt;</text>
<polyline fill="none" stroke="#bfbfbf" points="123,-716.5 297,-716.5 "/>
<text text-anchor="middle" x="210" y="-704.5" font-family="Helvetica,sans-Serif" font-size="10.00"> </text>
<polyline fill="none" stroke="#bfbfbf" points="123,-697.5 297,-697.5 "/>
<text text-anchor="middle" x="210" y="-685.5" font-family="Helvetica,sans-Serif" font-size="10.00"> </text>
</g>
<!-- Node3&#45;&gt;Node2 -->
<g id="edge2" class="edge"><title>Node3&#45;&gt;Node2</title>
<path fill="none" stroke="#404040" d="M172.753,-746.764C140.588,-778.073 96.1992,-828.101 76,-882 45.1971,-964.193 45.7851,-1066 51.2865,-1134.84"/>
<polygon fill="none" stroke="#404040" points="51.293,-1134.91 55.7941,-1140.55 52.3249,-1146.87 47.8237,-1141.24 51.293,-1134.91"/>
<text text-anchor="middle" x="108" y="-919.5" font-family="Helvetica,sans-Serif" font-size="10.00"> +m_children</text>
</g>
<!-- Node4&#45;&gt;Node3 -->
<g id="edge3" class="edge"><title>Node4&#45;&gt;Node3</title>
<path fill="none" stroke="#404040" d="M210,-887.662C210,-852.797 210,-797.846 210,-759.006"/>
<polygon fill="none" stroke="#404040" points="210,-758.756 206,-752.756 210,-746.756 214,-752.756 210,-758.756"/>
<text text-anchor="middle" x="238.5" y="-856" font-family="Helvetica,sans-Serif" font-size="10.00"> +elements</text>
</g>
<!-- Node5 -->
<g id="node5" class="node"><title>Node5</title>
<g id="a_node5"><a xlink:title="STL class. ">
<polygon fill="white" stroke="#bfbfbf" points="216,-1185.5 216,-1242.5 332,-1242.5 332,-1185.5 216,-1185.5"/>
<text text-anchor="middle" x="274" y="-1230.5" font-family="Helvetica,sans-Serif" font-size="10.00">std::unique_ptr&lt; T &gt;</text>
<polyline fill="none" stroke="#bfbfbf" points="216,-1223.5 332,-1223.5 "/>
<text text-anchor="middle" x="274" y="-1211.5" font-family="Helvetica,sans-Serif" font-size="10.00"> </text>
<polyline fill="none" stroke="#bfbfbf" points="216,-1204.5 332,-1204.5 "/>
<text text-anchor="start" x="224" y="-1192.5" font-family="Helvetica,sans-Serif" font-size="10.00">+ operator&#45;&gt;()</text>
</a>
</g>
</g>
<!-- Node5&#45;&gt;Node4 -->
<g id="edge5" class="edge"><title>Node5&#45;&gt;Node4</title>
<path fill="none" stroke="orange" d="M268.305,-1175.3C260.563,-1135.38 243.285,-1072.51 207,-1031 195.747,-1018.13 181.819,-1027.65 173,-1013 162.282,-995.198 170.405,-973.726 181.738,-956.221"/>
<polygon fill="orange" stroke="orange" points="264.869,-1175.97 270.116,-1185.18 271.754,-1174.71 264.869,-1175.97"/>
<text text-anchor="middle" x="238.5" y="-994" font-family="Helvetica,sans-Serif" font-size="10.00"> &lt; Ra::GuiBase::TreeItem &gt;</text>
</g>
<!-- Node6 -->
<g id="node6" class="node"><title>Node6</title>
<polygon fill="white" stroke="#bfbfbf" points="312.5,-1444.5 312.5,-1501.5 341.5,-1501.5 341.5,-1444.5 312.5,-1444.5"/>
<text text-anchor="middle" x="327" y="-1489.5" font-family="Helvetica,sans-Serif" font-size="10.00">T</text>
<polyline fill="none" stroke="#bfbfbf" points="312.5,-1482.5 341.5,-1482.5 "/>
<text text-anchor="middle" x="327" y="-1470.5" font-family="Helvetica,sans-Serif" font-size="10.00"> </text>
<polyline fill="none" stroke="#bfbfbf" points="312.5,-1463.5 341.5,-1463.5 "/>
<text text-anchor="middle" x="327" y="-1451.5" font-family="Helvetica,sans-Serif" font-size="10.00"> </text>
</g>
<!-- Node6&#45;&gt;Node5 -->
<g id="edge6" class="edge"><title>Node6&#45;&gt;Node5</title>
<path fill="none" stroke="#404040" d="M318.051,-1444.41C316.25,-1438.38 314.463,-1432 313,-1426 298.577,-1366.83 286.671,-1297.19 279.949,-1254.58"/>
<polygon fill="none" stroke="#404040" points="279.918,-1254.38 275.043,-1249.07 278.072,-1242.52 282.947,-1247.84 279.918,-1254.38"/>
<text text-anchor="middle" x="325.5" y="-1418" font-family="Helvetica,sans-Serif" font-size="10.00"> +ptr</text>
</g>
<!-- Node7 -->
<g id="node7" class="node"><title>Node7</title>
<g id="a_node7"><a xlink:title="STL class. ">
<polygon fill="white" stroke="#bfbfbf" points="350.5,-1185.5 350.5,-1242.5 445.5,-1242.5 445.5,-1185.5 350.5,-1185.5"/>
<text text-anchor="middle" x="398" y="-1230.5" font-family="Helvetica,sans-Serif" font-size="10.00">std::vector&lt; T &gt;</text>
<polyline fill="none" stroke="#bfbfbf" points="350.5,-1223.5 445.5,-1223.5 "/>
<text text-anchor="middle" x="398" y="-1211.5" font-family="Helvetica,sans-Serif" font-size="10.00"> </text>
<polyline fill="none" stroke="#bfbfbf" points="350.5,-1204.5 445.5,-1204.5 "/>
<text text-anchor="middle" x="398" y="-1192.5" font-family="Helvetica,sans-Serif" font-size="10.00"> </text>
</a>
</g>
</g>
<!-- Node6&#45;&gt;Node7 -->
<g id="edge8" class="edge"><title>Node6&#45;&gt;Node7</title>
<path fill="none" stroke="#404040" d="M334.598,-1444.5C347.216,-1398.82 372.539,-1307.16 387.074,-1254.55"/>
<polygon fill="none" stroke="#404040" points="387.154,-1254.26 384.896,-1247.41 390.349,-1242.69 392.607,-1249.54 387.154,-1254.26"/>
<text text-anchor="middle" x="371.5" y="-1418" font-family="Helvetica,sans-Serif" font-size="10.00"> +elements</text>
</g>
<!-- Node7&#45;&gt;Node3 -->
<g id="edge7" class="edge"><title>Node7&#45;&gt;Node3</title>
<path fill="none" stroke="orange" d="M387.109,-1175.51C376.167,-1138.53 358.467,-1080.52 341,-1031 312.723,-950.832 303.591,-931.513 271,-853 255.799,-816.38 237.469,-774.781 224.896,-746.609"/>
<polygon fill="orange" stroke="orange" points="383.827,-1176.75 390.01,-1185.36 390.541,-1174.78 383.827,-1176.75"/>
<text text-anchor="start" x="316" y="-925" font-family="Helvetica,sans-Serif" font-size="10.00"> &lt; std::unique_ptr&lt;</text>
<text text-anchor="middle" x="381.5" y="-914" font-family="Helvetica,sans-Serif" font-size="10.00"> Ra::GuiBase::TreeItem &gt; &gt;</text>
</g>
<!-- Node10 -->
<g id="node10" class="node"><title>Node10</title>
<polygon fill="white" stroke="#bfbfbf" points="781.5,-888 781.5,-956 888.5,-956 888.5,-888 781.5,-888"/>
<text text-anchor="start" x="789.5" y="-944" font-family="Helvetica,sans-Serif" font-size="10.00">std::vector&lt; Core::</text>
<text text-anchor="middle" x="835" y="-933" font-family="Helvetica,sans-Serif" font-size="10.00">Index &gt;</text>
<polyline fill="none" stroke="#bfbfbf" points="781.5,-926 888.5,-926 "/>
<text text-anchor="middle" x="835" y="-914" font-family="Helvetica,sans-Serif" font-size="10.00"> </text>
<polyline fill="none" stroke="#bfbfbf" points="781.5,-907 888.5,-907 "/>
<text text-anchor="middle" x="835" y="-895" font-family="Helvetica,sans-Serif" font-size="10.00"> </text>
</g>
<!-- Node7&#45;&gt;Node10 -->
<g id="edge15" class="edge"><title>Node7&#45;&gt;Node10</title>
<path fill="none" stroke="orange" d="M425.594,-1177.31C474.128,-1114.98 571.748,-991.758 594,-980 664.303,-942.852 696.713,-987.581 772,-962 776.75,-960.386 781.515,-958.359 786.18,-956.081"/>
<polygon fill="orange" stroke="orange" points="422.74,-1175.27 419.365,-1185.32 428.267,-1179.57 422.74,-1175.27"/>
<text text-anchor="middle" x="634" y="-994" font-family="Helvetica,sans-Serif" font-size="10.00"> &lt; Core::Index &gt;</text>
</g>
<!-- Node14 -->
<g id="node14" class="node"><title>Node14</title>
<polygon fill="white" stroke="#bfbfbf" points="589,-882.5 589,-961.5 763,-961.5 763,-882.5 589,-882.5"/>
<text text-anchor="start" x="597" y="-949.5" font-family="Helvetica,sans-Serif" font-size="10.00">std::vector&lt; std::pair</text>
<text text-anchor="start" x="597" y="-938.5" font-family="Helvetica,sans-Serif" font-size="10.00">&lt; const Ra::Engine::Entity</text>
<text text-anchor="middle" x="676" y="-927.5" font-family="Helvetica,sans-Serif" font-size="10.00"> *, Ra::Engine::Component * &gt; &gt;</text>
<polyline fill="none" stroke="#bfbfbf" points="589,-920.5 763,-920.5 "/>
<text text-anchor="middle" x="676" y="-908.5" font-family="Helvetica,sans-Serif" font-size="10.00"> </text>
<polyline fill="none" stroke="#bfbfbf" points="589,-901.5 763,-901.5 "/>
<text text-anchor="middle" x="676" y="-889.5" font-family="Helvetica,sans-Serif" font-size="10.00"> </text>
</g>
<!-- Node7&#45;&gt;Node14 -->
<g id="edge19" class="edge"><title>Node7&#45;&gt;Node14</title>
<path fill="none" stroke="orange" d="M384.643,-1175.83C368.934,-1124.76 350.664,-1033.18 399,-980 426.038,-950.252 539.962,-971.594 579,-962 582.261,-961.199 585.557,-960.309 588.866,-959.349"/>
<polygon fill="orange" stroke="orange" points="381.35,-1177.03 387.73,-1185.48 388.017,-1174.89 381.35,-1177.03"/>
<text text-anchor="start" x="399" y="-1005" font-family="Helvetica,sans-Serif" font-size="10.00"> &lt; std::pair&lt; const</text>
<text text-anchor="start" x="399" y="-994" font-family="Helvetica,sans-Serif" font-size="10.00"> Ra::Engine::Entity</text>
<text text-anchor="middle" x="478" y="-983" font-family="Helvetica,sans-Serif" font-size="10.00"> *, Ra::Engine::Component * &gt; &gt;</text>
</g>
<!-- Node8 -->
<g id="node8" class="node"><title>Node8</title>
<g id="a_node8"><a xlink:href="structRa_1_1Engine_1_1ItemEntry.html" target="_top" xlink:title="This represent a handle for an entity, component or render object. ">
<polygon fill="white" stroke="black" points="828.5,-127.5 828.5,-272.5 953.5,-272.5 953.5,-127.5 828.5,-127.5"/>
<text text-anchor="middle" x="891" y="-260.5" font-family="Helvetica,sans-Serif" font-size="10.00">Ra::Engine::ItemEntry</text>
<polyline fill="none" stroke="black" points="828.5,-253.5 953.5,-253.5 "/>
<text text-anchor="middle" x="891" y="-241.5" font-family="Helvetica,sans-Serif" font-size="10.00"> </text>
<polyline fill="none" stroke="black" points="828.5,-234.5 953.5,-234.5 "/>
<text text-anchor="start" x="836.5" y="-222.5" font-family="Helvetica,sans-Serif" font-size="10.00">+ ItemEntry()</text>
<text text-anchor="start" x="836.5" y="-211.5" font-family="Helvetica,sans-Serif" font-size="10.00">+ ItemEntry()</text>
<text text-anchor="start" x="836.5" y="-200.5" font-family="Helvetica,sans-Serif" font-size="10.00">+ operator==()</text>
<text text-anchor="start" x="836.5" y="-189.5" font-family="Helvetica,sans-Serif" font-size="10.00">+ isValid()</text>
<text text-anchor="start" x="836.5" y="-178.5" font-family="Helvetica,sans-Serif" font-size="10.00">+ isSelectable()</text>
<text text-anchor="start" x="836.5" y="-167.5" font-family="Helvetica,sans-Serif" font-size="10.00">+ isEntityNode()</text>
<text text-anchor="start" x="836.5" y="-156.5" font-family="Helvetica,sans-Serif" font-size="10.00">+ isComponentNode()</text>
<text text-anchor="start" x="836.5" y="-145.5" font-family="Helvetica,sans-Serif" font-size="10.00">+ isRoNode()</text>
<text text-anchor="start" x="836.5" y="-134.5" font-family="Helvetica,sans-Serif" font-size="10.00">+ checkConsistency()</text>
</a>
</g>
</g>
<!-- Node8&#45;&gt;Node1 -->
<g id="edge10" class="edge"><title>Node8&#45;&gt;Node1</title>
<path fill="none" stroke="#404040" d="M828.275,-183.635C712.961,-155.387 467.01,-95.1388 334.667,-62.72"/>
<polygon fill="none" stroke="#404040" points="334.657,-62.7176 327.877,-65.1751 323.001,-59.8624 329.781,-57.4048 334.657,-62.7176"/>
<text text-anchor="middle" x="537" y="-101" font-family="Helvetica,sans-Serif" font-size="10.00"> +m_entry</text>
</g>
<!-- Node9 -->
<g id="node9" class="node"><title>Node9</title>
<g id="a_node9"><a xlink:href="classRa_1_1Engine_1_1Component.html" target="_top" xlink:title="A component is an element that can be updated by a system. ">
<polygon fill="white" stroke="black" points="697.5,-320.5 697.5,-542.5 858.5,-542.5 858.5,-320.5 697.5,-320.5"/>
<text text-anchor="middle" x="778" y="-530.5" font-family="Helvetica,sans-Serif" font-size="10.00">Ra::Engine::Component</text>
<polyline fill="none" stroke="black" points="697.5,-523.5 858.5,-523.5 "/>
<text text-anchor="middle" x="778" y="-511.5" font-family="Helvetica,sans-Serif" font-size="10.00"> </text>
<polyline fill="none" stroke="black" points="697.5,-504.5 858.5,-504.5 "/>
<text text-anchor="start" x="705.5" y="-492.5" font-family="Helvetica,sans-Serif" font-size="10.00">+ Component()</text>
<text text-anchor="start" x="705.5" y="-481.5" font-family="Helvetica,sans-Serif" font-size="10.00">+ ~Component()</text>
<text text-anchor="start" x="705.5" y="-470.5" font-family="Helvetica,sans-Serif" font-size="10.00">+ initialize()</text>
<text text-anchor="start" x="705.5" y="-459.5" font-family="Helvetica,sans-Serif" font-size="10.00">+ setEntity()</text>
<text text-anchor="start" x="705.5" y="-448.5" font-family="Helvetica,sans-Serif" font-size="10.00">+ getEntity()</text>
<text text-anchor="start" x="705.5" y="-437.5" font-family="Helvetica,sans-Serif" font-size="10.00">+ getName()</text>
<text text-anchor="start" x="705.5" y="-426.5" font-family="Helvetica,sans-Serif" font-size="10.00">+ setSystem()</text>
<text text-anchor="start" x="705.5" y="-415.5" font-family="Helvetica,sans-Serif" font-size="10.00">+ getSystem()</text>
<text text-anchor="start" x="705.5" y="-404.5" font-family="Helvetica,sans-Serif" font-size="10.00">+ addRenderObject()</text>
<text text-anchor="start" x="705.5" y="-393.5" font-family="Helvetica,sans-Serif" font-size="10.00">+ removeRenderObject()</text>
<text text-anchor="start" x="705.5" y="-382.5" font-family="Helvetica,sans-Serif" font-size="10.00">+ rayCastQuery()</text>
<text text-anchor="start" x="705.5" y="-371.5" font-family="Helvetica,sans-Serif" font-size="10.00">+ canEdit()</text>
<text text-anchor="start" x="705.5" y="-360.5" font-family="Helvetica,sans-Serif" font-size="10.00">+ getTransform()</text>
<text text-anchor="start" x="705.5" y="-349.5" font-family="Helvetica,sans-Serif" font-size="10.00">+ setTransform()</text>
<text text-anchor="start" x="705.5" y="-338.5" font-family="Helvetica,sans-Serif" font-size="10.00">+ notifyRenderObjectExpired()</text>
<text text-anchor="start" x="705.5" y="-327.5" font-family="Helvetica,sans-Serif" font-size="10.00"># getRoMgr()</text>
</a>
</g>
</g>
<!-- Node9&#45;&gt;Node8 -->
<g id="edge11" class="edge"><title>Node9&#45;&gt;Node8</title>
<path fill="none" stroke="#404040" d="M829.658,-320.27C834.456,-310.348 839.287,-300.475 844,-291 845.259,-288.47 846.544,-285.904 847.847,-283.316"/>
<polygon fill="none" stroke="#404040" points="847.859,-283.293 847.007,-276.133 853.289,-272.593 854.141,-279.753 847.859,-283.293"/>
<text text-anchor="middle" x="885" y="-294" font-family="Helvetica,sans-Serif" font-size="10.00"> +m_component</text>
</g>
<!-- Node10&#45;&gt;Node9 -->
<g id="edge12" class="edge"><title>Node10&#45;&gt;Node9</title>
<path fill="none" stroke="#404040" d="M811.55,-887.928C802.021,-872.584 792.074,-853.643 787,-835 762.078,-743.426 761.061,-635.763 765.602,-554.839"/>
<polygon fill="none" stroke="#404040" points="765.618,-554.572 761.988,-548.341 766.343,-542.594 769.973,-548.825 765.618,-554.572"/>
<text text-anchor="middle" x="834" y="-710" font-family="Helvetica,sans-Serif" font-size="10.00"> +m_renderObjects</text>
</g>
<!-- Node11 -->
<g id="node11" class="node"><title>Node11</title>
<g id="a_node11"><a xlink:href="classRa_1_1Core_1_1Index.html" target="_top" xlink:title="{Ra::Core::Index\n||+ Index()\l+ Index()\l+ isValid()\l+ isInvalid()\l+ setInvalid()\l+ getValue()\l+ setValue()\l+ operator int()\l+ operator=()\l+ operator++()\l+ operator&#45;&#45;()\l+ operator+()\l+ operator+()\l+ operator&#45;()\l+ operator&#45;()\l+ operator==()\l+ operator==()\l+ operator!=()\l+ operator!=()\l+ operator\&lt;()\l+ operator\&lt;()\l+ operator\&lt;=()\l+ operator\&lt;=()\l+ operator\&gt;()\l+ operator\&gt;()\l+ operator\&gt;=()\l+ operator\&gt;=()\l+ Invalid()\l+ Max()\l}">
<polygon fill="white" stroke="black" points="788.5,-1031.5 788.5,-1396.5 881.5,-1396.5 881.5,-1031.5 788.5,-1031.5"/>
<text text-anchor="middle" x="835" y="-1384.5" font-family="Helvetica,sans-Serif" font-size="10.00">Ra::Core::Index</text>
<polyline fill="none" stroke="black" points="788.5,-1377.5 881.5,-1377.5 "/>
<text text-anchor="middle" x="835" y="-1365.5" font-family="Helvetica,sans-Serif" font-size="10.00"> </text>
<polyline fill="none" stroke="black" points="788.5,-1358.5 881.5,-1358.5 "/>
<text text-anchor="start" x="796.5" y="-1346.5" font-family="Helvetica,sans-Serif" font-size="10.00">+ Index()</text>
<text text-anchor="start" x="796.5" y="-1335.5" font-family="Helvetica,sans-Serif" font-size="10.00">+ Index()</text>
<text text-anchor="start" x="796.5" y="-1324.5" font-family="Helvetica,sans-Serif" font-size="10.00">+ isValid()</text>
<text text-anchor="start" x="796.5" y="-1313.5" font-family="Helvetica,sans-Serif" font-size="10.00">+ isInvalid()</text>
<text text-anchor="start" x="796.5" y="-1302.5" font-family="Helvetica,sans-Serif" font-size="10.00">+ setInvalid()</text>
<text text-anchor="start" x="796.5" y="-1291.5" font-family="Helvetica,sans-Serif" font-size="10.00">+ getValue()</text>
<text text-anchor="start" x="796.5" y="-1280.5" font-family="Helvetica,sans-Serif" font-size="10.00">+ setValue()</text>
<text text-anchor="start" x="796.5" y="-1269.5" font-family="Helvetica,sans-Serif" font-size="10.00">+ operator int()</text>
<text text-anchor="start" x="796.5" y="-1258.5" font-family="Helvetica,sans-Serif" font-size="10.00">+ operator=()</text>
<text text-anchor="start" x="796.5" y="-1247.5" font-family="Helvetica,sans-Serif" font-size="10.00">+ operator++()</text>
<text text-anchor="start" x="796.5" y="-1236.5" font-family="Helvetica,sans-Serif" font-size="10.00">+ operator&#45;&#45;()</text>
<text text-anchor="start" x="796.5" y="-1225.5" font-family="Helvetica,sans-Serif" font-size="10.00">+ operator+()</text>
<text text-anchor="start" x="796.5" y="-1214.5" font-family="Helvetica,sans-Serif" font-size="10.00">+ operator+()</text>
<text text-anchor="start" x="796.5" y="-1203.5" font-family="Helvetica,sans-Serif" font-size="10.00">+ operator&#45;()</text>
<text text-anchor="start" x="796.5" y="-1192.5" font-family="Helvetica,sans-Serif" font-size="10.00">+ operator&#45;()</text>
<text text-anchor="start" x="796.5" y="-1181.5" font-family="Helvetica,sans-Serif" font-size="10.00">+ operator==()</text>
<text text-anchor="start" x="796.5" y="-1170.5" font-family="Helvetica,sans-Serif" font-size="10.00">+ operator==()</text>
<text text-anchor="start" x="796.5" y="-1159.5" font-family="Helvetica,sans-Serif" font-size="10.00">+ operator!=()</text>
<text text-anchor="start" x="796.5" y="-1148.5" font-family="Helvetica,sans-Serif" font-size="10.00">+ operator!=()</text>
<text text-anchor="start" x="796.5" y="-1137.5" font-family="Helvetica,sans-Serif" font-size="10.00">+ operator&lt;()</text>
<text text-anchor="start" x="796.5" y="-1126.5" font-family="Helvetica,sans-Serif" font-size="10.00">+ operator&lt;()</text>
<text text-anchor="start" x="796.5" y="-1115.5" font-family="Helvetica,sans-Serif" font-size="10.00">+ operator&lt;=()</text>
<text text-anchor="start" x="796.5" y="-1104.5" font-family="Helvetica,sans-Serif" font-size="10.00">+ operator&lt;=()</text>
<text text-anchor="start" x="796.5" y="-1093.5" font-family="Helvetica,sans-Serif" font-size="10.00">+ operator&gt;()</text>
<text text-anchor="start" x="796.5" y="-1082.5" font-family="Helvetica,sans-Serif" font-size="10.00">+ operator&gt;()</text>
<text text-anchor="start" x="796.5" y="-1071.5" font-family="Helvetica,sans-Serif" font-size="10.00">+ operator&gt;=()</text>
<text text-anchor="start" x="796.5" y="-1060.5" font-family="Helvetica,sans-Serif" font-size="10.00">+ operator&gt;=()</text>
<text text-anchor="start" x="796.5" y="-1049.5" font-family="Helvetica,sans-Serif" font-size="10.00">+ Invalid()</text>
<text text-anchor="start" x="796.5" y="-1038.5" font-family="Helvetica,sans-Serif" font-size="10.00">+ Max()</text>
</a>
</g>
</g>
<!-- Node11&#45;&gt;Node10 -->
<g id="edge13" class="edge"><title>Node11&#45;&gt;Node10</title>
<path fill="none" stroke="#404040" d="M835,-1031.4C835,-1008.14 835,-986.224 835,-968.267"/>
<polygon fill="none" stroke="#404040" points="835,-968.216 831,-962.216 835,-956.216 839,-962.216 835,-968.216"/>
<text text-anchor="middle" x="863.5" y="-994" font-family="Helvetica,sans-Serif" font-size="10.00"> +elements</text>
</g>
<!-- Node12 -->
<g id="node12" class="node"><title>Node12</title>
<polygon fill="white" stroke="#bfbfbf" points="820.5,-1444.5 820.5,-1501.5 849.5,-1501.5 849.5,-1444.5 820.5,-1444.5"/>
<text text-anchor="middle" x="835" y="-1489.5" font-family="Helvetica,sans-Serif" font-size="10.00">int</text>
<polyline fill="none" stroke="#bfbfbf" points="820.5,-1482.5 849.5,-1482.5 "/>
<text text-anchor="middle" x="835" y="-1470.5" font-family="Helvetica,sans-Serif" font-size="10.00"> </text>
<polyline fill="none" stroke="#bfbfbf" points="820.5,-1463.5 849.5,-1463.5 "/>
<text text-anchor="middle" x="835" y="-1451.5" font-family="Helvetica,sans-Serif" font-size="10.00"> </text>
</g>
<!-- Node12&#45;&gt;Node11 -->
<g id="edge14" class="edge"><title>Node12&#45;&gt;Node11</title>
<path fill="none" stroke="#404040" d="M835,-1444.5C835,-1434.53 835,-1422.38 835,-1408.92"/>
<polygon fill="none" stroke="#404040" points="835,-1408.77 831,-1402.77 835,-1396.77 839,-1402.77 835,-1408.77"/>
<text text-anchor="middle" x="855" y="-1418" font-family="Helvetica,sans-Serif" font-size="10.00"> #m_idx</text>
</g>
<!-- Node13 -->
<g id="node13" class="node"><title>Node13</title>
<g id="a_node13"><a xlink:href="classRa_1_1Engine_1_1System.html" target="_top" xlink:title="Systems are responsible of updating a specific subset of the components of each entity. ">
<polygon fill="white" stroke="black" points="584.5,-645.5 584.5,-779.5 741.5,-779.5 741.5,-645.5 584.5,-645.5"/>
<text text-anchor="middle" x="663" y="-767.5" font-family="Helvetica,sans-Serif" font-size="10.00">Ra::Engine::System</text>
<polyline fill="none" stroke="black" points="584.5,-760.5 741.5,-760.5 "/>
<text text-anchor="middle" x="663" y="-748.5" font-family="Helvetica,sans-Serif" font-size="10.00"> </text>
<polyline fill="none" stroke="black" points="584.5,-741.5 741.5,-741.5 "/>
<text text-anchor="start" x="592.5" y="-729.5" font-family="Helvetica,sans-Serif" font-size="10.00">+ System()</text>
<text text-anchor="start" x="592.5" y="-718.5" font-family="Helvetica,sans-Serif" font-size="10.00">+ ~System()</text>
<text text-anchor="start" x="592.5" y="-707.5" font-family="Helvetica,sans-Serif" font-size="10.00">+ handleAssetLoading()</text>
<text text-anchor="start" x="592.5" y="-696.5" font-family="Helvetica,sans-Serif" font-size="10.00">+ generateTasks()</text>
<text text-anchor="start" x="592.5" y="-685.5" font-family="Helvetica,sans-Serif" font-size="10.00">+ getEntityComponents()</text>
<text text-anchor="start" x="592.5" y="-674.5" font-family="Helvetica,sans-Serif" font-size="10.00"># registerComponent()</text>
<text text-anchor="start" x="592.5" y="-663.5" font-family="Helvetica,sans-Serif" font-size="10.00"># unregisterComponent()</text>
<text text-anchor="start" x="592.5" y="-652.5" font-family="Helvetica,sans-Serif" font-size="10.00"># unregisterAllComponents()</text>
</a>
</g>
</g>
<!-- Node13&#45;&gt;Node9 -->
<g id="edge16" class="edge"><title>Node13&#45;&gt;Node9</title>
<path fill="none" stroke="#404040" d="M675.905,-645.375C682.206,-618.624 690.866,-587.795 702,-561 703.03,-558.521 704.102,-556.031 705.209,-553.537"/>
<polygon fill="none" stroke="#404040" points="705.238,-553.474 704.129,-546.349 710.28,-542.585 711.389,-549.71 705.238,-553.474"/>
<text text-anchor="middle" x="733" y="-564" font-family="Helvetica,sans-Serif" font-size="10.00"> #m_system</text>
</g>
<!-- Node14&#45;&gt;Node13 -->
<g id="edge17" class="edge"><title>Node14&#45;&gt;Node13</title>
<path fill="none" stroke="#404040" d="M673.585,-882.457C671.991,-857.004 669.844,-822.746 667.901,-791.731"/>
<polygon fill="none" stroke="#404040" points="667.89,-791.556 663.523,-785.818 667.14,-779.58 671.507,-785.318 667.89,-791.556"/>
<text text-anchor="middle" x="716.5" y="-856" font-family="Helvetica,sans-Serif" font-size="10.00"> #m_components</text>
</g>
<!-- Node15 -->
<g id="node15" class="node"><title>Node15</title>
<polygon fill="white" stroke="#bfbfbf" points="619.5,-1174.5 619.5,-1253.5 744.5,-1253.5 744.5,-1174.5 619.5,-1174.5"/>
<text text-anchor="start" x="627.5" y="-1241.5" font-family="Helvetica,sans-Serif" font-size="10.00">pair&lt; const Ra::Engine</text>
<text text-anchor="start" x="627.5" y="-1230.5" font-family="Helvetica,sans-Serif" font-size="10.00">::Entity *, Ra::Engine</text>
<text text-anchor="middle" x="682" y="-1219.5" font-family="Helvetica,sans-Serif" font-size="10.00">::Component * &gt;</text>
<polyline fill="none" stroke="#bfbfbf" points="619.5,-1212.5 744.5,-1212.5 "/>
<text text-anchor="middle" x="682" y="-1200.5" font-family="Helvetica,sans-Serif" font-size="10.00"> </text>
<polyline fill="none" stroke="#bfbfbf" points="619.5,-1193.5 744.5,-1193.5 "/>
<text text-anchor="middle" x="682" y="-1181.5" font-family="Helvetica,sans-Serif" font-size="10.00"> </text>
</g>
<!-- Node15&#45;&gt;Node14 -->
<g id="edge18" class="edge"><title>Node15&#45;&gt;Node14</title>
<path fill="none" stroke="#404040" d="M681.203,-1174.49C680.134,-1122.82 678.233,-1030.93 677.049,-973.681"/>
<polygon fill="none" stroke="#404040" points="677.048,-973.666 672.925,-967.751 676.8,-961.669 680.923,-967.585 677.048,-973.666"/>
<text text-anchor="middle" x="706.5" y="-994" font-family="Helvetica,sans-Serif" font-size="10.00"> +elements</text>
</g>
<!-- Node16 -->
<g id="node16" class="node"><title>Node16</title>
<g id="a_node16"><a xlink:href="classRa_1_1Engine_1_1Entity.html" target="_top" xlink:title="An entity is an scene element. It ties together components with a transform. ">
<polygon fill="white" stroke="black" points="890,-590.5 890,-834.5 1030,-834.5 1030,-590.5 890,-590.5"/>
<text text-anchor="middle" x="960" y="-822.5" font-family="Helvetica,sans-Serif" font-size="10.00">Ra::Engine::Entity</text>
<polyline fill="none" stroke="black" points="890,-815.5 1030,-815.5 "/>
<text text-anchor="middle" x="960" y="-803.5" font-family="Helvetica,sans-Serif" font-size="10.00"> </text>
<polyline fill="none" stroke="black" points="890,-796.5 1030,-796.5 "/>
<text text-anchor="start" x="898" y="-784.5" font-family="Helvetica,sans-Serif" font-size="10.00">+ Entity()</text>
<text text-anchor="start" x="898" y="-773.5" font-family="Helvetica,sans-Serif" font-size="10.00">+ Entity()</text>
<text text-anchor="start" x="898" y="-762.5" font-family="Helvetica,sans-Serif" font-size="10.00">+ operator=()</text>
<text text-anchor="start" x="898" y="-751.5" font-family="Helvetica,sans-Serif" font-size="10.00">+ ~Entity()</text>
<text text-anchor="start" x="898" y="-740.5" font-family="Helvetica,sans-Serif" font-size="10.00">+ getName()</text>
<text text-anchor="start" x="898" y="-729.5" font-family="Helvetica,sans-Serif" font-size="10.00">+ rename()</text>
<text text-anchor="start" x="898" y="-718.5" font-family="Helvetica,sans-Serif" font-size="10.00">+ setTransform()</text>
<text text-anchor="start" x="898" y="-707.5" font-family="Helvetica,sans-Serif" font-size="10.00">+ setTransform()</text>
<text text-anchor="start" x="898" y="-696.5" font-family="Helvetica,sans-Serif" font-size="10.00">+ getTransform()</text>
<text text-anchor="start" x="898" y="-685.5" font-family="Helvetica,sans-Serif" font-size="10.00">+ getTransformAsMatrix()</text>
<text text-anchor="start" x="898" y="-674.5" font-family="Helvetica,sans-Serif" font-size="10.00">+ swapTransformBuffers()</text>
<text text-anchor="start" x="898" y="-663.5" font-family="Helvetica,sans-Serif" font-size="10.00">+ addComponent()</text>
<text text-anchor="start" x="898" y="-652.5" font-family="Helvetica,sans-Serif" font-size="10.00">+ removeComponent()</text>
<text text-anchor="start" x="898" y="-641.5" font-family="Helvetica,sans-Serif" font-size="10.00">+ getComponent()</text>
<text text-anchor="start" x="898" y="-630.5" font-family="Helvetica,sans-Serif" font-size="10.00">+ getComponent()</text>
<text text-anchor="start" x="898" y="-619.5" font-family="Helvetica,sans-Serif" font-size="10.00">+ getComponents()</text>
<text text-anchor="start" x="898" y="-608.5" font-family="Helvetica,sans-Serif" font-size="10.00">+ getNumComponents()</text>
<text text-anchor="start" x="898" y="-597.5" font-family="Helvetica,sans-Serif" font-size="10.00">+ rayCastQuery()</text>
</a>
</g>
</g>
<!-- Node16&#45;&gt;Node8 -->
<g id="edge25" class="edge"><title>Node16&#45;&gt;Node8</title>
<path fill="none" stroke="#404040" d="M959.468,-590.462C956.857,-505.665 948.792,-390.222 926,-291 925.501,-288.827 924.959,-286.638 924.381,-284.438"/>
<polygon fill="none" stroke="#404040" points="924.3,-284.159 918.792,-279.505 920.969,-272.63 926.477,-277.284 924.3,-284.159"/>
<text text-anchor="middle" x="984" y="-429" font-family="Helvetica,sans-Serif" font-size="10.00"> +m_entity</text>
</g>
<!-- Node16&#45;&gt;Node9 -->
<g id="edge20" class="edge"><title>Node16&#45;&gt;Node9</title>
<path fill="none" stroke="#404040" d="M889.894,-604.03C879.031,-587.377 867.748,-570.08 856.71,-553.16"/>
<polygon fill="none" stroke="#404040" points="856.432,-552.734 849.804,-549.894 849.876,-542.683 856.504,-545.523 856.432,-552.734"/>
<text text-anchor="middle" x="896" y="-564" font-family="Helvetica,sans-Serif" font-size="10.00"> #m_entity</text>
</g>
<!-- Node17 -->
<g id="node17" class="node"><title>Node17</title>
<g id="a_node17"><a xlink:href="classRa_1_1Core_1_1IndexedObject.html" target="_top" xlink:title="{Ra::Core::IndexedObject\n||+ IndexedObject()\l+ IndexedObject()\l+ ~IndexedObject()\l}">
<polygon fill="white" stroke="black" points="906.5,-882.5 906.5,-961.5 1037.5,-961.5 1037.5,-882.5 906.5,-882.5"/>
<text text-anchor="middle" x="972" y="-949.5" font-family="Helvetica,sans-Serif" font-size="10.00">Ra::Core::IndexedObject</text>
<polyline fill="none" stroke="black" points="906.5,-942.5 1037.5,-942.5 "/>
<text text-anchor="middle" x="972" y="-930.5" font-family="Helvetica,sans-Serif" font-size="10.00"> </text>
<polyline fill="none" stroke="black" points="906.5,-923.5 1037.5,-923.5 "/>
<text text-anchor="start" x="914.5" y="-911.5" font-family="Helvetica,sans-Serif" font-size="10.00">+ IndexedObject()</text>
<text text-anchor="start" x="914.5" y="-900.5" font-family="Helvetica,sans-Serif" font-size="10.00">+ IndexedObject()</text>
<text text-anchor="start" x="914.5" y="-889.5" font-family="Helvetica,sans-Serif" font-size="10.00">+ ~IndexedObject()</text>
</a>
</g>
</g>
<!-- Node17&#45;&gt;Node16 -->
<g id="edge21" class="edge"><title>Node17&#45;&gt;Node16</title>
<path fill="none" stroke="midnightblue" d="M969.18,-872.24C968.513,-860.697 967.771,-847.876 967.007,-834.667"/>
<polygon fill="none" stroke="midnightblue" points="965.699,-872.676 969.771,-882.457 972.688,-872.272 965.699,-872.676"/>
</g>
<!-- Node18 -->
<g id="node18" class="node"><title>Node18</title>
<polygon fill="white" stroke="#bfbfbf" points="1014.5,-1185.5 1014.5,-1242.5 1049.5,-1242.5 1049.5,-1185.5 1014.5,-1185.5"/>
<text text-anchor="middle" x="1032" y="-1230.5" font-family="Helvetica,sans-Serif" font-size="10.00">uint</text>
<polyline fill="none" stroke="#bfbfbf" points="1014.5,-1223.5 1049.5,-1223.5 "/>
<text text-anchor="middle" x="1032" y="-1211.5" font-family="Helvetica,sans-Serif" font-size="10.00"> </text>
<polyline fill="none" stroke="#bfbfbf" points="1014.5,-1204.5 1049.5,-1204.5 "/>
<text text-anchor="middle" x="1032" y="-1192.5" font-family="Helvetica,sans-Serif" font-size="10.00"> </text>
</g>
<!-- Node18&#45;&gt;Node8 -->
<g id="edge26" class="edge"><title>Node18&#45;&gt;Node8</title>
<path fill="none" stroke="#404040" d="M1037.46,-1185.13C1047.07,-1133.6 1066,-1019.82 1066,-923 1066,-923 1066,-923 1066,-430.5 1066,-358.715 1011.19,-295.4 962.92,-253.556"/>
<polygon fill="none" stroke="#404040" points="962.843,-253.491 955.679,-252.667 953.685,-245.737 960.849,-246.561 962.843,-253.491"/>
<text text-anchor="middle" x="1097" y="-710" font-family="Helvetica,sans-Serif" font-size="10.00"> +m_roIndex</text>
</g>
<!-- Node18&#45;&gt;Node17 -->
<g id="edge22" class="edge"><title>Node18&#45;&gt;Node17</title>
<path fill="none" stroke="#404040" d="M1026.3,-1185.46C1016.26,-1136.91 995.265,-1035.45 982.525,-973.871"/>
<polygon fill="none" stroke="#404040" points="982.447,-973.493 977.314,-968.428 980.016,-961.742 985.148,-966.807 982.447,-973.493"/>
<text text-anchor="middle" x="1001.5" y="-994" font-family="Helvetica,sans-Serif" font-size="10.00"> +idx</text>
</g>
<!-- Node19 -->
<g id="node19" class="node"><title>Node19</title>
<g id="a_node19"><a xlink:title="STL class. ">
<polygon fill="white" stroke="#bfbfbf" points="493.5,-684 493.5,-741 558.5,-741 558.5,-684 493.5,-684"/>
<text text-anchor="middle" x="526" y="-729" font-family="Helvetica,sans-Serif" font-size="10.00">std::string</text>
<polyline fill="none" stroke="#bfbfbf" points="493.5,-722 558.5,-722 "/>
<text text-anchor="middle" x="526" y="-710" font-family="Helvetica,sans-Serif" font-size="10.00"> </text>
<polyline fill="none" stroke="#bfbfbf" points="493.5,-703 558.5,-703 "/>
<text text-anchor="middle" x="526" y="-691" font-family="Helvetica,sans-Serif" font-size="10.00"> </text>
</a>
</g>
</g>
<!-- Node19&#45;&gt;Node9 -->
<g id="edge23" class="edge"><title>Node19&#45;&gt;Node9</title>
<path fill="none" stroke="#404040" d="M532.657,-683.824C539.919,-657.732 553.471,-618.489 575,-590 605.366,-549.818 648.435,-514.443 687.095,-487.45"/>
<polygon fill="none" stroke="#404040" points="687.448,-487.208 690.131,-480.515 697.341,-480.417 694.658,-487.111 687.448,-487.208"/>
<text text-anchor="middle" x="625.5" y="-564" font-family="Helvetica,sans-Serif" font-size="10.00"> #m_name</text>
</g>
<!-- Node20 -->
<g id="node20" class="node"><title>Node20</title>
<g id="a_node20"><a xlink:title="STL class. ">
<polygon fill="white" stroke="#bfbfbf" points="467.5,-888 467.5,-956 570.5,-956 570.5,-888 467.5,-888"/>
<text text-anchor="start" x="475.5" y="-944" font-family="Helvetica,sans-Serif" font-size="10.00">std::basic_string&lt;</text>
<text text-anchor="middle" x="519" y="-933" font-family="Helvetica,sans-Serif" font-size="10.00"> char &gt;</text>
<polyline fill="none" stroke="#bfbfbf" points="467.5,-926 570.5,-926 "/>
<text text-anchor="middle" x="519" y="-914" font-family="Helvetica,sans-Serif" font-size="10.00"> </text>
<polyline fill="none" stroke="#bfbfbf" points="467.5,-907 570.5,-907 "/>
<text text-anchor="middle" x="519" y="-895" font-family="Helvetica,sans-Serif" font-size="10.00"> </text>
</a>
</g>
</g>
<!-- Node20&#45;&gt;Node19 -->
<g id="edge24" class="edge"><title>Node20&#45;&gt;Node19</title>
<path fill="none" stroke="midnightblue" d="M520.462,-877.657C521.849,-836.551 523.89,-776.033 525.068,-741.113"/>
<polygon fill="none" stroke="midnightblue" points="516.964,-877.549 520.125,-887.662 523.96,-877.785 516.964,-877.549"/>
</g>
</g>
</svg>
