<?xml version="1.0" encoding="UTF-8" standalone="no"?>
<!DOCTYPE svg PUBLIC "-//W3C//DTD SVG 1.1//EN"
 "http://www.w3.org/Graphics/SVG/1.1/DTD/svg11.dtd">
<!-- Generated by graphviz version 2.38.0 (20140413.2041)
 -->
<!-- Title: Ra::Core::TriangleMesh::removeAttrib Pages: 1 -->
<svg width="634pt" height="313pt"
 viewBox="0.00 0.00 634.00 312.50" xmlns="http://www.w3.org/2000/svg" xmlns:xlink="http://www.w3.org/1999/xlink">
<g id="graph0" class="graph" transform="scale(1 1) rotate(0) translate(4 308.5)">
<title>Ra::Core::TriangleMesh::removeAttrib</title>
<polygon fill="white" stroke="none" points="-4,4 -4,-308.5 630,-308.5 630,4 -4,4"/>
<!-- Node1 -->
<g id="node1" class="node"><title>Node1</title>
<polygon fill="#bfbfbf" stroke="black" points="0,-144.5 0,-174.5 125,-174.5 125,-144.5 0,-144.5"/>
<text text-anchor="start" x="8" y="-162.5" font-family="Helvetica,sans-Serif" font-size="10.00">Ra::Core::TriangleMesh</text>
<text text-anchor="middle" x="62.5" y="-151.5" font-family="Helvetica,sans-Serif" font-size="10.00">::removeAttrib</text>
</g>
<!-- Node2 -->
<g id="node2" class="node"><title>Node2</title>
<g id="a_node2"><a xlink:href="classRa_1_1Core_1_1AttribManager.html#a22afbf5c345b9b8bf3ee10cbab4e4fd8" target="_top" xlink:title="Remove attribute by handle, invalidates the handle. ">
<polygon fill="white" stroke="black" points="161,-261.5 161,-291.5 292,-291.5 292,-261.5 161,-261.5"/>
<text text-anchor="start" x="169" y="-279.5" font-family="Helvetica,sans-Serif" font-size="10.00">Ra::Core::AttribManager</text>
<text text-anchor="middle" x="226.5" y="-268.5" font-family="Helvetica,sans-Serif" font-size="10.00">::removeAttrib</text>
</a>
</g>
</g>
<!-- Node1&#45;&gt;Node2 -->
<g id="edge1" class="edge"><title>Node1&#45;&gt;Node2</title>
<path fill="none" stroke="midnightblue" d="M83.1059,-174.577C102.662,-189.522 133.649,-212.946 161,-232.5 171.769,-240.199 183.707,-248.427 194.357,-255.66"/>
<polygon fill="midnightblue" stroke="midnightblue" points="192.7,-258.765 202.945,-261.468 196.622,-252.966 192.7,-258.765"/>
</g>
<!-- Node5 -->
<g id="node5" class="node"><title>Node5</title>
<g id="a_node5"><a xlink:href="classRa_1_1Core_1_1TriangleMesh.html#ae1a7885bbe20b759a8f247ed8c194ba0" target="_top" xlink:title="Erases all attributes, leaving the mesh with faces and geometry only. ">
<polygon fill="white" stroke="black" points="164,-193.5 164,-223.5 289,-223.5 289,-193.5 164,-193.5"/>
<text text-anchor="start" x="172" y="-211.5" font-family="Helvetica,sans-Serif" font-size="10.00">Ra::Core::TriangleMesh</text>
<text text-anchor="middle" x="226.5" y="-200.5" font-family="Helvetica,sans-Serif" font-size="10.00">::clearAttributes</text>
</a>
</g>
</g>
<!-- Node1&#45;&gt;Node5 -->
<g id="edge4" class="edge"><title>Node1&#45;&gt;Node5</title>
<path fill="none" stroke="midnightblue" d="M113.427,-174.601C129.981,-179.608 148.575,-185.232 165.788,-190.439"/>
<polygon fill="midnightblue" stroke="midnightblue" points="165.153,-193.903 175.738,-193.448 167.179,-187.203 165.153,-193.903"/>
</g>
<!-- Node10 -->
<g id="node10" class="node"><title>Node10</title>
<g id="a_node10"><a xlink:href="classRa_1_1Core_1_1TriangleMesh.html#a21ae39474fd85af3bfbcceb34e29d8ad" target="_top" xlink:title="Copy only the mesh faces and geometry. ">
<polygon fill="white" stroke="black" points="164,-46.5 164,-76.5 289,-76.5 289,-46.5 164,-46.5"/>
<text text-anchor="start" x="172" y="-64.5" font-family="Helvetica,sans-Serif" font-size="10.00">Ra::Core::TriangleMesh</text>
<text text-anchor="middle" x="226.5" y="-53.5" font-family="Helvetica,sans-Serif" font-size="10.00">::copyBaseGeometry</text>
</a>
</g>
</g>
<!-- Node1&#45;&gt;Node10 -->
<g id="edge10" class="edge"><title>Node1&#45;&gt;Node10</title>
<path fill="none" stroke="midnightblue" d="M80.3936,-144.204C99.0363,-127.938 130.461,-102.291 161,-85.5 164.077,-83.8081 167.298,-82.1883 170.589,-80.6464"/>
<polygon fill="midnightblue" stroke="midnightblue" points="172.243,-83.7424 179.987,-76.5121 169.424,-77.3349 172.243,-83.7424"/>
</g>
<!-- Node13 -->
<g id="node13" class="node"><title>Node13</title>
<g id="a_node13"><a xlink:href="classRa_1_1Core_1_1TriangleMesh.html#a391aa3f08c16c91690e218623940d016" target="_top" xlink:title="Copy only the required attributes from input. ">
<polygon fill="white" stroke="black" points="164,-95.5 164,-125.5 289,-125.5 289,-95.5 164,-95.5"/>
<text text-anchor="start" x="172" y="-113.5" font-family="Helvetica,sans-Serif" font-size="10.00">Ra::Core::TriangleMesh</text>
<text text-anchor="middle" x="226.5" y="-102.5" font-family="Helvetica,sans-Serif" font-size="10.00">::copyAttributes</text>
</a>
</g>
</g>
<!-- Node1&#45;&gt;Node13 -->
<g id="edge14" class="edge"><title>Node1&#45;&gt;Node13</title>
<path fill="none" stroke="midnightblue" d="M113.427,-144.399C129.981,-139.392 148.575,-133.768 165.788,-128.561"/>
<polygon fill="midnightblue" stroke="midnightblue" points="167.179,-131.797 175.738,-125.552 165.153,-125.097 167.179,-131.797"/>
</g>
<!-- Node14 -->
<g id="node14" class="node"><title>Node14</title>
<g id="a_node14"><a xlink:href="classRa_1_1Core_1_1TriangleMesh.html#af39b39306b38252ba87dc545aeabe927" target="_top" xlink:title="Copy all the attributes from input. ">
<polygon fill="white" stroke="black" points="164,-144.5 164,-174.5 289,-174.5 289,-144.5 164,-144.5"/>
<text text-anchor="start" x="172" y="-162.5" font-family="Helvetica,sans-Serif" font-size="10.00">Ra::Core::TriangleMesh</text>
<text text-anchor="middle" x="226.5" y="-151.5" font-family="Helvetica,sans-Serif" font-size="10.00">::copyAllAttributes</text>
</a>
</g>
</g>
<!-- Node1&#45;&gt;Node14 -->
<g id="edge17" class="edge"><title>Node1&#45;&gt;Node14</title>
<path fill="none" stroke="midnightblue" d="M125.207,-159.5C134.532,-159.5 144.218,-159.5 153.733,-159.5"/>
<polygon fill="midnightblue" stroke="midnightblue" points="153.964,-163 163.964,-159.5 153.964,-156 153.964,-163"/>
</g>
<!-- Node3 -->
<g id="node3" class="node"><title>Node3</title>
<g id="a_node3"><a xlink:href="classRa_1_1Core_1_1Index.html#a16f988512f9ef442cc97b6bc4809ba45" target="_top" xlink:title="Ra::Core::Index::Invalid">
<polygon fill="white" stroke="black" points="331,-285 331,-304 456,-304 456,-285 331,-285"/>
<text text-anchor="middle" x="393.5" y="-292" font-family="Helvetica,sans-Serif" font-size="10.00">Ra::Core::Index::Invalid</text>
</a>
</g>
</g>
<!-- Node2&#45;&gt;Node3 -->
<g id="edge2" class="edge"><title>Node2&#45;&gt;Node3</title>
<path fill="none" stroke="midnightblue" d="M292.239,-283.562C301.587,-284.582 311.256,-285.637 320.732,-286.671"/>
<polygon fill="midnightblue" stroke="midnightblue" points="320.594,-290.176 330.914,-287.782 321.353,-283.218 320.594,-290.176"/>
</g>
<!-- Node4 -->
<g id="node4" class="node"><title>Node4</title>
<g id="a_node4"><a xlink:href="classRa_1_1Core_1_1Index.html#af6afe563ad57a4ab82f3706987e684ef" target="_top" xlink:title="CONSTRUCTOR Default constructor that allow implicit conversion from integer to Index. ">
<polygon fill="white" stroke="black" points="500.5,-285 500.5,-304 620.5,-304 620.5,-285 500.5,-285"/>
<text text-anchor="middle" x="560.5" y="-292" font-family="Helvetica,sans-Serif" font-size="10.00">Ra::Core::Index::Index</text>
</a>
</g>
</g>
<!-- Node3&#45;&gt;Node4 -->
<g id="edge3" class="edge"><title>Node3&#45;&gt;Node4</title>
<path fill="none" stroke="midnightblue" d="M456.409,-294.5C467.401,-294.5 478.914,-294.5 490.097,-294.5"/>
<polygon fill="midnightblue" stroke="midnightblue" points="490.251,-298 500.251,-294.5 490.251,-291 490.251,-298"/>
</g>
<!-- Node6 -->
<g id="node6" class="node"><title>Node6</title>
<g id="a_node6"><a xlink:href="classRa_1_1Core_1_1TriangleMesh.html#a495116f40cfec8bb6504698d786d4b8c" target="_top" xlink:title="Access the vertices positions. ">
<polygon fill="white" stroke="black" points="331,-98.5 331,-128.5 456,-128.5 456,-98.5 331,-98.5"/>
<text text-anchor="start" x="339" y="-116.5" font-family="Helvetica,sans-Serif" font-size="10.00">Ra::Core::TriangleMesh</text>
<text text-anchor="middle" x="393.5" y="-105.5" font-family="Helvetica,sans-Serif" font-size="10.00">::vertices</text>
</a>
</g>
</g>
<!-- Node5&#45;&gt;Node6 -->
<g id="edge5" class="edge"><title>Node5&#45;&gt;Node6</title>
<path fill="none" stroke="midnightblue" d="M275.208,-193.425C281.128,-190.586 286.888,-187.292 292,-183.5 312.85,-168.032 307.046,-152.826 328,-137.5 329.881,-136.125 331.849,-134.819 333.881,-133.582"/>
<polygon fill="midnightblue" stroke="midnightblue" points="335.992,-136.419 343.12,-128.58 332.66,-130.263 335.992,-136.419"/>
</g>
<!-- Node8 -->
<g id="node8" class="node"><title>Node8</title>
<g id="a_node8"><a xlink:href="classRa_1_1Core_1_1TriangleMesh.html#a40d31b7b2943947d6eac5d906f0182fd" target="_top" xlink:title="Access the vertices normals. ">
<polygon fill="white" stroke="black" points="331,-235.5 331,-265.5 456,-265.5 456,-235.5 331,-235.5"/>
<text text-anchor="start" x="339" y="-253.5" font-family="Helvetica,sans-Serif" font-size="10.00">Ra::Core::TriangleMesh</text>
<text text-anchor="middle" x="393.5" y="-242.5" font-family="Helvetica,sans-Serif" font-size="10.00">::normals</text>
</a>
</g>
</g>
<!-- Node5&#45;&gt;Node8 -->
<g id="edge7" class="edge"><title>Node5&#45;&gt;Node8</title>
<path fill="none" stroke="midnightblue" d="M286.603,-223.544C298.642,-226.609 311.406,-229.858 323.748,-232.999"/>
<polygon fill="midnightblue" stroke="midnightblue" points="322.978,-236.415 333.533,-235.49 324.705,-229.631 322.978,-236.415"/>
</g>
<!-- Node9 -->
<g id="node9" class="node"><title>Node9</title>
<g id="a_node9"><a xlink:href="classRa_1_1Core_1_1AttribManager.html#ae53b7e22a2098c6151c6b2702569a3be" target="_top" xlink:title="clear all attribs, invalidate handles. ">
<polygon fill="white" stroke="black" points="495,-93.5 495,-123.5 626,-123.5 626,-93.5 495,-93.5"/>
<text text-anchor="start" x="503" y="-111.5" font-family="Helvetica,sans-Serif" font-size="10.00">Ra::Core::AttribManager</text>
<text text-anchor="middle" x="560.5" y="-100.5" font-family="Helvetica,sans-Serif" font-size="10.00">::clear</text>
</a>
</g>
</g>
<!-- Node5&#45;&gt;Node9 -->
<g id="edge9" class="edge"><title>Node5&#45;&gt;Node9</title>
<path fill="none" stroke="midnightblue" d="M289.352,-212.368C337.408,-213.108 404.776,-209.09 459,-186.5 478.226,-178.49 478.64,-169.389 495,-156.5 506.446,-147.483 519.282,-137.838 530.472,-129.577"/>
<polygon fill="midnightblue" stroke="midnightblue" points="532.671,-132.304 538.657,-123.563 528.526,-126.663 532.671,-132.304"/>
</g>
<!-- Node7 -->
<g id="node7" class="node"><title>Node7</title>
<g id="a_node7"><a xlink:href="classRa_1_1Core_1_1AttribManager.html#aaa6088620425c1e1d74b50f1b50eb596" target="_top" xlink:title="Get attribute by handle. ">
<polygon fill="white" stroke="black" points="495,-166.5 495,-196.5 626,-196.5 626,-166.5 495,-166.5"/>
<text text-anchor="start" x="503" y="-184.5" font-family="Helvetica,sans-Serif" font-size="10.00">Ra::Core::AttribManager</text>
<text text-anchor="middle" x="560.5" y="-173.5" font-family="Helvetica,sans-Serif" font-size="10.00">::getAttrib</text>
</a>
</g>
</g>
<!-- Node6&#45;&gt;Node7 -->
<g id="edge6" class="edge"><title>Node6&#45;&gt;Node7</title>
<path fill="none" stroke="midnightblue" d="M435.924,-128.519C443.625,-131.423 451.579,-134.498 459,-137.5 478.069,-145.215 498.935,-154.251 516.689,-162.121"/>
<polygon fill="midnightblue" stroke="midnightblue" points="515.641,-165.486 526.2,-166.358 518.489,-159.092 515.641,-165.486"/>
</g>
<!-- Node8&#45;&gt;Node7 -->
<g id="edge8" class="edge"><title>Node8&#45;&gt;Node7</title>
<path fill="none" stroke="midnightblue" d="M430.71,-235.358C455.212,-225.112 487.767,-211.497 514.016,-200.521"/>
<polygon fill="midnightblue" stroke="midnightblue" points="515.499,-203.694 523.375,-196.607 512.798,-197.236 515.499,-203.694"/>
</g>
<!-- Node11 -->
<g id="node11" class="node"><title>Node11</title>
<g id="a_node11"><a xlink:href="classRa_1_1Core_1_1TriangleMesh.html#aa838b995226a922fc10f2f8f4c6dec31" target="_top" xlink:title="Erases all data, making the mesh empty. ">
<polygon fill="white" stroke="black" points="331,-0.5 331,-30.5 456,-30.5 456,-0.5 331,-0.5"/>
<text text-anchor="start" x="339" y="-18.5" font-family="Helvetica,sans-Serif" font-size="10.00">Ra::Core::TriangleMesh</text>
<text text-anchor="middle" x="393.5" y="-7.5" font-family="Helvetica,sans-Serif" font-size="10.00">::clear</text>
</a>
</g>
</g>
<!-- Node10&#45;&gt;Node11 -->
<g id="edge11" class="edge"><title>Node10&#45;&gt;Node11</title>
<path fill="none" stroke="midnightblue" d="M281.527,-46.4379C296.561,-42.2465 313.033,-37.6544 328.577,-33.3209"/>
<polygon fill="midnightblue" stroke="midnightblue" points="329.941,-36.5743 338.633,-30.5174 328.061,-29.8315 329.941,-36.5743"/>
</g>
<!-- Node12 -->
<g id="node12" class="node"><title>Node12</title>
<g id="a_node12"><a xlink:href="classRa_1_1Core_1_1AttribManager.html#ab973dc08cbca7da7108c40bb56c4a708" target="_top" xlink:title="Base copy, does nothing. ">
<polygon fill="white" stroke="black" points="328,-49.5 328,-79.5 459,-79.5 459,-49.5 328,-49.5"/>
<text text-anchor="start" x="336" y="-67.5" font-family="Helvetica,sans-Serif" font-size="10.00">Ra::Core::AttribManager</text>
<text text-anchor="middle" x="393.5" y="-56.5" font-family="Helvetica,sans-Serif" font-size="10.00">::copyAttributes</text>
</a>
</g>
</g>
<!-- Node10&#45;&gt;Node12 -->
<g id="edge13" class="edge"><title>Node10&#45;&gt;Node12</title>
<path fill="none" stroke="midnightblue" d="M289.409,-62.6256C298.609,-62.7929 308.175,-62.9668 317.606,-63.1383"/>
<polygon fill="midnightblue" stroke="midnightblue" points="317.702,-66.6405 327.764,-63.323 317.829,-59.6417 317.702,-66.6405"/>
</g>
<!-- Node11&#45;&gt;Node9 -->
<g id="edge12" class="edge"><title>Node11&#45;&gt;Node9</title>
<path fill="none" stroke="midnightblue" d="M439.531,-30.6313C446.176,-33.3281 452.85,-36.3065 459,-39.5 485.179,-53.0937 512.641,-72.3378 532.23,-87.0505"/>
<polygon fill="midnightblue" stroke="midnightblue" points="530.302,-89.9814 540.38,-93.2514 534.541,-84.4106 530.302,-89.9814"/>
</g>
<!-- Node13&#45;&gt;Node6 -->
<g id="edge15" class="edge"><title>Node13&#45;&gt;Node6</title>
<path fill="none" stroke="midnightblue" d="M289.409,-111.626C299.56,-111.81 310.154,-112.003 320.523,-112.191"/>
<polygon fill="midnightblue" stroke="midnightblue" points="320.73,-115.696 330.792,-112.378 320.858,-108.697 320.73,-115.696"/>
</g>
<!-- Node13&#45;&gt;Node12 -->
<g id="edge16" class="edge"><title>Node13&#45;&gt;Node12</title>
<path fill="none" stroke="midnightblue" d="M281.527,-95.4379C296.561,-91.2465 313.033,-86.6544 328.577,-82.3209"/>
<polygon fill="midnightblue" stroke="midnightblue" points="329.941,-85.5743 338.633,-79.5174 328.061,-78.8315 329.941,-85.5743"/>
</g>
<!-- Node14&#45;&gt;Node6 -->
<g id="edge18" class="edge"><title>Node14&#45;&gt;Node6</title>
<path fill="none" stroke="midnightblue" d="M281.527,-144.438C296.561,-140.247 313.033,-135.654 328.577,-131.321"/>
<polygon fill="midnightblue" stroke="midnightblue" points="329.941,-134.574 338.633,-128.517 328.061,-127.831 329.941,-134.574"/>
</g>
<!-- Node15 -->
<g id="node15" class="node"><title>Node15</title>
<g id="a_node15"><a xlink:href="classRa_1_1Core_1_1AttribManager.html#a19855e5d5abcc6bd9201064e3502f9fa" target="_top" xlink:title="Copy all attributes from m. ">
<polygon fill="white" stroke="black" points="328,-147.5 328,-177.5 459,-177.5 459,-147.5 328,-147.5"/>
<text text-anchor="start" x="336" y="-165.5" font-family="Helvetica,sans-Serif" font-size="10.00">Ra::Core::AttribManager</text>
<text text-anchor="middle" x="393.5" y="-154.5" font-family="Helvetica,sans-Serif" font-size="10.00">::copyAllAttributes</text>
</a>
</g>
</g>
<!-- Node14&#45;&gt;Node15 -->
<g id="edge19" class="edge"><title>Node14&#45;&gt;Node15</title>
<path fill="none" stroke="midnightblue" d="M289.409,-160.626C298.609,-160.793 308.175,-160.967 317.606,-161.138"/>
<polygon fill="midnightblue" stroke="midnightblue" points="317.702,-164.641 327.764,-161.323 317.829,-157.642 317.702,-164.641"/>
</g>
</g>
</svg>
