<?xml version="1.0" encoding="UTF-8" standalone="no"?>
<!DOCTYPE svg PUBLIC "-//W3C//DTD SVG 1.1//EN"
 "http://www.w3.org/Graphics/SVG/1.1/DTD/svg11.dtd">
<!-- Generated by graphviz version 2.38.0 (20140413.2041)
 -->
<!-- Title: Ra::Asset::FileLoaderInterface Pages: 1 -->
<svg width="447pt" height="259pt"
 viewBox="0.00 0.00 446.50 259.00" xmlns="http://www.w3.org/2000/svg" xmlns:xlink="http://www.w3.org/1999/xlink">
<g id="graph0" class="graph" transform="scale(1 1) rotate(0) translate(4 255)">
<title>Ra::Asset::FileLoaderInterface</title>
<polygon fill="white" stroke="none" points="-4,4 -4,-255 442.5,-255 442.5,4 -4,4"/>
<!-- Node1 -->
<g id="node1" class="node"><title>Node1</title>
<polygon fill="#bfbfbf" stroke="black" points="142,-149.5 142,-250.5 300,-250.5 300,-149.5 142,-149.5"/>
<text text-anchor="middle" x="221" y="-238.5" font-family="Helvetica,sans-Serif" font-size="10.00">Ra::Asset::FileLoaderInterface</text>
<polyline fill="none" stroke="black" points="142,-231.5 300,-231.5 "/>
<text text-anchor="middle" x="221" y="-219.5" font-family="Helvetica,sans-Serif" font-size="10.00"> </text>
<polyline fill="none" stroke="black" points="142,-212.5 300,-212.5 "/>
<text text-anchor="start" x="150" y="-200.5" font-family="Helvetica,sans-Serif" font-size="10.00">+ ~FileLoaderInterface()</text>
<text text-anchor="start" x="150" y="-189.5" font-family="Helvetica,sans-Serif" font-size="10.00">+ getFileExtensions()</text>
<text text-anchor="start" x="150" y="-178.5" font-family="Helvetica,sans-Serif" font-size="10.00">+ handleFileExtension()</text>
<text text-anchor="start" x="150" y="-167.5" font-family="Helvetica,sans-Serif" font-size="10.00">+ loadFile()</text>
<text text-anchor="start" x="150" y="-156.5" font-family="Helvetica,sans-Serif" font-size="10.00">+ name()</text>
</g>
<!-- Node2 -->
<g id="node2" class="node"><title>Node2</title>
<g id="a_node2"><a xlink:href="classRa_1_1IO_1_1AssimpFileLoader.html" target="_top" xlink:title="This class loads scenes containing MESHES only (not point&#45;clouds) ">
<polygon fill="white" stroke="black" points="0,-0.5 0,-112.5 134,-112.5 134,-0.5 0,-0.5"/>
<text text-anchor="middle" x="67" y="-100.5" font-family="Helvetica,sans-Serif" font-size="10.00">Ra::IO::AssimpFileLoader</text>
<polyline fill="none" stroke="black" points="0,-93.5 134,-93.5 "/>
<text text-anchor="middle" x="67" y="-81.5" font-family="Helvetica,sans-Serif" font-size="10.00"> </text>
<polyline fill="none" stroke="black" points="0,-74.5 134,-74.5 "/>
<text text-anchor="start" x="8" y="-62.5" font-family="Helvetica,sans-Serif" font-size="10.00">+ AssimpFileLoader()</text>
<text text-anchor="start" x="8" y="-51.5" font-family="Helvetica,sans-Serif" font-size="10.00">+ ~AssimpFileLoader()</text>
<text text-anchor="start" x="8" y="-40.5" font-family="Helvetica,sans-Serif" font-size="10.00">+ getFileExtensions()</text>
<text text-anchor="start" x="8" y="-29.5" font-family="Helvetica,sans-Serif" font-size="10.00">+ handleFileExtension()</text>
<text text-anchor="start" x="8" y="-18.5" font-family="Helvetica,sans-Serif" font-size="10.00">+ loadFile()</text>
<text text-anchor="start" x="8" y="-7.5" font-family="Helvetica,sans-Serif" font-size="10.00">+ name()</text>
</a>
</g>
</g>
<!-- Node1&#45;&gt;Node2 -->
<g id="edge1" class="edge"><title>Node1&#45;&gt;Node2</title>
<path fill="none" stroke="midnightblue" d="M159.102,-142.126C148.549,-132.429 137.601,-122.37 127.095,-112.717"/>
<polygon fill="none" stroke="midnightblue" points="156.974,-144.924 166.705,-149.112 161.71,-139.769 156.974,-144.924"/>
</g>
<!-- Node3 -->
<g id="node3" class="node"><title>Node3</title>
<g id="a_node3"><a xlink:href="classRa_1_1IO_1_1CameraFileLoader.html" target="_top" xlink:title="{Ra::IO::CameraFileLoader\n||+ CameraFileLoader()\l+ ~CameraFileLoader()\l+ getFileExtensions()\l+ handleFileExtension()\l+ loadFile()\l+ name()\l}">
<polygon fill="white" stroke="black" points="152.5,-0.5 152.5,-112.5 289.5,-112.5 289.5,-0.5 152.5,-0.5"/>
<text text-anchor="middle" x="221" y="-100.5" font-family="Helvetica,sans-Serif" font-size="10.00">Ra::IO::CameraFileLoader</text>
<polyline fill="none" stroke="black" points="152.5,-93.5 289.5,-93.5 "/>
<text text-anchor="middle" x="221" y="-81.5" font-family="Helvetica,sans-Serif" font-size="10.00"> </text>
<polyline fill="none" stroke="black" points="152.5,-74.5 289.5,-74.5 "/>
<text text-anchor="start" x="160.5" y="-62.5" font-family="Helvetica,sans-Serif" font-size="10.00">+ CameraFileLoader()</text>
<text text-anchor="start" x="160.5" y="-51.5" font-family="Helvetica,sans-Serif" font-size="10.00">+ ~CameraFileLoader()</text>
<text text-anchor="start" x="160.5" y="-40.5" font-family="Helvetica,sans-Serif" font-size="10.00">+ getFileExtensions()</text>
<text text-anchor="start" x="160.5" y="-29.5" font-family="Helvetica,sans-Serif" font-size="10.00">+ handleFileExtension()</text>
<text text-anchor="start" x="160.5" y="-18.5" font-family="Helvetica,sans-Serif" font-size="10.00">+ loadFile()</text>
<text text-anchor="start" x="160.5" y="-7.5" font-family="Helvetica,sans-Serif" font-size="10.00">+ name()</text>
</a>
</g>
</g>
<!-- Node1&#45;&gt;Node3 -->
<g id="edge2" class="edge"><title>Node1&#45;&gt;Node3</title>
<path fill="none" stroke="midnightblue" d="M221,-139.008C221,-130.286 221,-121.34 221,-112.717"/>
<polygon fill="none" stroke="midnightblue" points="217.5,-139.112 221,-149.112 224.5,-139.112 217.5,-139.112"/>
</g>
<!-- Node4 -->
<g id="node4" class="node"><title>Node4</title>
<g id="a_node4"><a xlink:href="classRa_1_1IO_1_1TinyPlyFileLoader.html" target="_top" xlink:title="{Ra::IO::TinyPlyFileLoader\n||+ TinyPlyFileLoader()\l+ ~TinyPlyFileLoader()\l+ getFileExtensions()\l+ handleFileExtension()\l+ loadFile()\l+ name()\l}">
<polygon fill="white" stroke="black" points="307.5,-0.5 307.5,-112.5 438.5,-112.5 438.5,-0.5 307.5,-0.5"/>
<text text-anchor="middle" x="373" y="-100.5" font-family="Helvetica,sans-Serif" font-size="10.00">Ra::IO::TinyPlyFileLoader</text>
<polyline fill="none" stroke="black" points="307.5,-93.5 438.5,-93.5 "/>
<text text-anchor="middle" x="373" y="-81.5" font-family="Helvetica,sans-Serif" font-size="10.00"> </text>
<polyline fill="none" stroke="black" points="307.5,-74.5 438.5,-74.5 "/>
<text text-anchor="start" x="315.5" y="-62.5" font-family="Helvetica,sans-Serif" font-size="10.00">+ TinyPlyFileLoader()</text>
<text text-anchor="start" x="315.5" y="-51.5" font-family="Helvetica,sans-Serif" font-size="10.00">+ ~TinyPlyFileLoader()</text>
<text text-anchor="start" x="315.5" y="-40.5" font-family="Helvetica,sans-Serif" font-size="10.00">+ getFileExtensions()</text>
<text text-anchor="start" x="315.5" y="-29.5" font-family="Helvetica,sans-Serif" font-size="10.00">+ handleFileExtension()</text>
<text text-anchor="start" x="315.5" y="-18.5" font-family="Helvetica,sans-Serif" font-size="10.00">+ loadFile()</text>
<text text-anchor="start" x="315.5" y="-7.5" font-family="Helvetica,sans-Serif" font-size="10.00">+ name()</text>
</a>
</g>
</g>
<!-- Node1&#45;&gt;Node4 -->
<g id="edge3" class="edge"><title>Node1&#45;&gt;Node4</title>
<path fill="none" stroke="midnightblue" d="M282.094,-142.126C292.51,-132.429 303.316,-122.37 313.685,-112.717"/>
<polygon fill="none" stroke="midnightblue" points="279.524,-139.737 274.59,-149.112 284.294,-144.86 279.524,-139.737"/>
</g>
</g>
</svg>
