<?xml version="1.0" encoding="UTF-8" standalone="no"?>
<!DOCTYPE svg PUBLIC "-//W3C//DTD SVG 1.1//EN"
 "http://www.w3.org/Graphics/SVG/1.1/DTD/svg11.dtd">
<!-- Generated by graphviz version 2.38.0 (20140413.2041)
 -->
<!-- Title: Ra::IO::AssimpHandleDataLoader::loadHandleData Pages: 1 -->
<svg width="550pt" height="519pt"
 viewBox="0.00 0.00 550.00 519.00" xmlns="http://www.w3.org/2000/svg" xmlns:xlink="http://www.w3.org/1999/xlink">
<g id="graph0" class="graph" transform="scale(1 1) rotate(0) translate(4 515)">
<title>Ra::IO::AssimpHandleDataLoader::loadHandleData</title>
<polygon fill="white" stroke="none" points="-4,4 -4,-515 546,-515 546,4 -4,4"/>
<!-- Node1 -->
<g id="node1" class="node"><title>Node1</title>
<polygon fill="#bfbfbf" stroke="black" points="0,-193.5 0,-223.5 143,-223.5 143,-193.5 0,-193.5"/>
<text text-anchor="start" x="8" y="-211.5" font-family="Helvetica,sans-Serif" font-size="10.00">Ra::IO::AssimpHandleData</text>
<text text-anchor="middle" x="71.5" y="-200.5" font-family="Helvetica,sans-Serif" font-size="10.00">Loader::loadHandleData</text>
</g>
<!-- Node2 -->
<g id="node2" class="node"><title>Node2</title>
<g id="a_node2"><a xlink:href="classRa_1_1IO_1_1AssimpHandleDataLoader.html#a19b7ea207946b06952e15bff627d4887" target="_top" xlink:title="NAME. ">
<polygon fill="white" stroke="black" points="202,-340.5 202,-370.5 345,-370.5 345,-340.5 202,-340.5"/>
<text text-anchor="start" x="210" y="-358.5" font-family="Helvetica,sans-Serif" font-size="10.00">Ra::IO::AssimpHandleData</text>
<text text-anchor="middle" x="273.5" y="-347.5" font-family="Helvetica,sans-Serif" font-size="10.00">Loader::fetchName</text>
</a>
</g>
</g>
<!-- Node1&#45;&gt;Node2 -->
<g id="edge1" class="edge"><title>Node1&#45;&gt;Node2</title>
<path fill="none" stroke="midnightblue" d="M81.555,-223.834C97.7309,-249.855 134.138,-302.549 179,-330.5 183.149,-333.085 187.563,-335.406 192.127,-337.488"/>
<polygon fill="midnightblue" stroke="midnightblue" points="191.094,-340.848 201.672,-341.437 193.77,-334.38 191.094,-340.848"/>
</g>
<!-- Node5 -->
<g id="node5" class="node"><title>Node5</title>
<g id="a_node5"><a xlink:href="classRa_1_1IO_1_1AssimpHandleDataLoader.html#aba6ae2e060a45d0f6883cdbfa22cbee6" target="_top" xlink:title="TYPE. ">
<polygon fill="white" stroke="black" points="202,-435.5 202,-465.5 345,-465.5 345,-435.5 202,-435.5"/>
<text text-anchor="start" x="210" y="-453.5" font-family="Helvetica,sans-Serif" font-size="10.00">Ra::IO::AssimpHandleData</text>
<text text-anchor="middle" x="273.5" y="-442.5" font-family="Helvetica,sans-Serif" font-size="10.00">Loader::fetchType</text>
</a>
</g>
</g>
<!-- Node1&#45;&gt;Node5 -->
<g id="edge4" class="edge"><title>Node1&#45;&gt;Node5</title>
<path fill="none" stroke="midnightblue" d="M79.698,-223.928C94.9245,-255.516 132.819,-328.84 179,-379.5 196.742,-398.963 220.394,-416.866 239.469,-429.826"/>
<polygon fill="midnightblue" stroke="midnightblue" points="237.61,-432.793 247.874,-435.421 241.489,-426.966 237.61,-432.793"/>
</g>
<!-- Node7 -->
<g id="node7" class="node"><title>Node7</title>
<g id="a_node7"><a xlink:href="classRa_1_1IO_1_1AssimpHandleDataLoader.html#a46e6b0b9e109dd74e6bd619592678545" target="_top" xlink:title="Ra::IO::AssimpHandleData\lLoader::loadHandleComponentData">
<polygon fill="white" stroke="black" points="179,-291.5 179,-321.5 368,-321.5 368,-291.5 179,-291.5"/>
<text text-anchor="start" x="187" y="-309.5" font-family="Helvetica,sans-Serif" font-size="10.00">Ra::IO::AssimpHandleData</text>
<text text-anchor="middle" x="273.5" y="-298.5" font-family="Helvetica,sans-Serif" font-size="10.00">Loader::loadHandleComponentData</text>
</a>
</g>
</g>
<!-- Node1&#45;&gt;Node7 -->
<g id="edge6" class="edge"><title>Node1&#45;&gt;Node7</title>
<path fill="none" stroke="midnightblue" d="M90.5662,-223.756C110.868,-240.187 145.397,-266.045 179,-281.5 184.281,-283.929 189.842,-286.158 195.511,-288.197"/>
<polygon fill="midnightblue" stroke="midnightblue" points="194.529,-291.559 205.123,-291.45 196.773,-284.929 194.529,-291.559"/>
</g>
<!-- Node11 -->
<g id="node11" class="node"><title>Node11</title>
<g id="a_node11"><a xlink:href="classRa_1_1IO_1_1AssimpHandleDataLoader.html#af3185635871638d8bc19e85d0c978f80" target="_top" xlink:title="Ra::IO::AssimpHandleData\lLoader::loadHandleTopologyData">
<polygon fill="white" stroke="black" points="186.5,-193.5 186.5,-223.5 360.5,-223.5 360.5,-193.5 186.5,-193.5"/>
<text text-anchor="start" x="194.5" y="-211.5" font-family="Helvetica,sans-Serif" font-size="10.00">Ra::IO::AssimpHandleData</text>
<text text-anchor="middle" x="273.5" y="-200.5" font-family="Helvetica,sans-Serif" font-size="10.00">Loader::loadHandleTopologyData</text>
</a>
</g>
</g>
<!-- Node1&#45;&gt;Node11 -->
<g id="edge11" class="edge"><title>Node1&#45;&gt;Node11</title>
<path fill="none" stroke="midnightblue" d="M143.013,-208.5C153.776,-208.5 165.039,-208.5 176.24,-208.5"/>
<polygon fill="midnightblue" stroke="midnightblue" points="176.493,-212 186.493,-208.5 176.493,-205 176.493,-212"/>
</g>
<!-- Node16 -->
<g id="node16" class="node"><title>Node16</title>
<g id="a_node16"><a xlink:href="classRa_1_1IO_1_1AssimpHandleDataLoader.html#a6deb78de76d1650cbb521a7c9c85a86e" target="_top" xlink:title="VERTEX SIZE. ">
<polygon fill="white" stroke="black" points="202,-7.5 202,-37.5 345,-37.5 345,-7.5 202,-7.5"/>
<text text-anchor="start" x="210" y="-25.5" font-family="Helvetica,sans-Serif" font-size="10.00">Ra::IO::AssimpHandleData</text>
<text text-anchor="middle" x="273.5" y="-14.5" font-family="Helvetica,sans-Serif" font-size="10.00">Loader::fetchVertexSize</text>
</a>
</g>
</g>
<!-- Node1&#45;&gt;Node16 -->
<g id="edge17" class="edge"><title>Node1&#45;&gt;Node16</title>
<path fill="none" stroke="midnightblue" d="M78.072,-193.286C90.7181,-160.961 124.77,-85.2355 179,-46.5 183.155,-43.5321 187.646,-40.9307 192.333,-38.6506"/>
<polygon fill="midnightblue" stroke="midnightblue" points="193.772,-41.8413 201.553,-34.6499 190.986,-35.4198 193.772,-41.8413"/>
</g>
<!-- Node18 -->
<g id="node18" class="node"><title>Node18</title>
<g id="a_node18"><a xlink:href="classRa_1_1Asset_1_1HandleData.html#adeb89ae26f34f0878a089ed7ecd64e24" target="_top" xlink:title="Ra::Asset::HandleData\l::getComponentData">
<polygon fill="white" stroke="black" points="211,-144.5 211,-174.5 336,-174.5 336,-144.5 211,-144.5"/>
<text text-anchor="start" x="219" y="-162.5" font-family="Helvetica,sans-Serif" font-size="10.00">Ra::Asset::HandleData</text>
<text text-anchor="middle" x="273.5" y="-151.5" font-family="Helvetica,sans-Serif" font-size="10.00">::getComponentData</text>
</a>
</g>
</g>
<!-- Node1&#45;&gt;Node18 -->
<g id="edge21" class="edge"><title>Node1&#45;&gt;Node18</title>
<path fill="none" stroke="midnightblue" d="M133.866,-193.465C155.175,-188.245 179.25,-182.346 201.286,-176.947"/>
<polygon fill="midnightblue" stroke="midnightblue" points="202.37,-180.285 211.25,-174.506 200.705,-173.486 202.37,-180.285"/>
</g>
<!-- Node19 -->
<g id="node19" class="node"><title>Node19</title>
<g id="a_node19"><a xlink:href="namespaceRa_1_1Core_1_1Algorithm.html#aea294cdb6f4f0d85955bdcccb22886ec" target="_top" xlink:title="Ra::Core::Algorithm::t">
<polygon fill="white" stroke="black" points="214,-106 214,-125 333,-125 333,-106 214,-106"/>
<text text-anchor="middle" x="273.5" y="-113" font-family="Helvetica,sans-Serif" font-size="10.00">Ra::Core::Algorithm::t</text>
</a>
</g>
</g>
<!-- Node1&#45;&gt;Node19 -->
<g id="edge22" class="edge"><title>Node1&#45;&gt;Node19</title>
<path fill="none" stroke="midnightblue" d="M89.6296,-193.244C109.638,-176.265 144.425,-149.276 179,-134.5 186.773,-131.178 195.162,-128.426 203.614,-126.148"/>
<polygon fill="midnightblue" stroke="midnightblue" points="204.668,-129.492 213.53,-123.685 202.981,-122.698 204.668,-129.492"/>
</g>
<!-- Node20 -->
<g id="node20" class="node"><title>Node20</title>
<g id="a_node20"><a xlink:href="classRa_1_1Asset_1_1HandleData.html#a8d76fcc29440acb7fe3489f4c0fd9914" target="_top" xlink:title="DEBUG. ">
<polygon fill="white" stroke="black" points="211,-56.5 211,-86.5 336,-86.5 336,-56.5 211,-56.5"/>
<text text-anchor="start" x="219" y="-74.5" font-family="Helvetica,sans-Serif" font-size="10.00">Ra::Asset::HandleData</text>
<text text-anchor="middle" x="273.5" y="-63.5" font-family="Helvetica,sans-Serif" font-size="10.00">::displayInfo</text>
</a>
</g>
</g>
<!-- Node1&#45;&gt;Node20 -->
<g id="edge23" class="edge"><title>Node1&#45;&gt;Node20</title>
<path fill="none" stroke="midnightblue" d="M82.6831,-193.283C99.7084,-169.05 136.32,-121.847 179,-96.5 185.882,-92.4131 193.439,-88.9815 201.183,-86.1029"/>
<polygon fill="midnightblue" stroke="midnightblue" points="202.355,-89.4013 210.689,-82.8591 200.094,-82.7765 202.355,-89.4013"/>
</g>
<!-- Node21 -->
<g id="node21" class="node"><title>Node21</title>
<g id="a_node21"><a xlink:href="classRa_1_1IO_1_1AssimpHandleDataLoader.html#acc34e56d68b6b1094a993eaa8730cdb2" target="_top" xlink:title="Ra::IO::AssimpHandleData\lLoader::loadHandleFrame">
<polygon fill="white" stroke="black" points="202,-242.5 202,-272.5 345,-272.5 345,-242.5 202,-242.5"/>
<text text-anchor="start" x="210" y="-260.5" font-family="Helvetica,sans-Serif" font-size="10.00">Ra::IO::AssimpHandleData</text>
<text text-anchor="middle" x="273.5" y="-249.5" font-family="Helvetica,sans-Serif" font-size="10.00">Loader::loadHandleFrame</text>
</a>
</g>
</g>
<!-- Node1&#45;&gt;Node21 -->
<g id="edge24" class="edge"><title>Node1&#45;&gt;Node21</title>
<path fill="none" stroke="midnightblue" d="M133.866,-223.535C155.175,-228.755 179.25,-234.654 201.286,-240.053"/>
<polygon fill="midnightblue" stroke="midnightblue" points="200.705,-243.514 211.25,-242.494 202.37,-236.715 200.705,-243.514"/>
</g>
<!-- Node3 -->
<g id="node3" class="node"><title>Node3</title>
<g id="a_node3"><a xlink:href="namespaceRa_1_1IO.html#aef6c50424873964fcea0008be55d4a34" target="_top" xlink:title="Ra::IO::assimpToCore">
<polygon fill="white" stroke="black" points="414.5,-246 414.5,-265 531.5,-265 531.5,-246 414.5,-246"/>
<text text-anchor="middle" x="473" y="-253" font-family="Helvetica,sans-Serif" font-size="10.00">Ra::IO::assimpToCore</text>
</a>
</g>
</g>
<!-- Node2&#45;&gt;Node3 -->
<g id="edge2" class="edge"><title>Node2&#45;&gt;Node3</title>
<path fill="none" stroke="midnightblue" d="M345.029,-342.798C353.202,-339.582 361.077,-335.551 368,-330.5 391.902,-313.06 380.196,-292.074 404,-274.5 406.532,-272.631 409.239,-270.946 412.062,-269.426"/>
<polygon fill="midnightblue" stroke="midnightblue" points="413.785,-272.486 421.396,-265.115 410.85,-266.131 413.785,-272.486"/>
</g>
<!-- Node4 -->
<g id="node4" class="node"><title>Node4</title>
<g id="a_node4"><a xlink:href="classRa_1_1Asset_1_1HandleData.html#a3bfb8067f397b53e3d45d490e8ebfc20" target="_top" xlink:title="NAME. ">
<polygon fill="white" stroke="black" points="410.5,-431.5 410.5,-461.5 535.5,-461.5 535.5,-431.5 410.5,-431.5"/>
<text text-anchor="start" x="418.5" y="-449.5" font-family="Helvetica,sans-Serif" font-size="10.00">Ra::Asset::HandleData</text>
<text text-anchor="middle" x="473" y="-438.5" font-family="Helvetica,sans-Serif" font-size="10.00">::setName</text>
</a>
</g>
</g>
<!-- Node2&#45;&gt;Node4 -->
<g id="edge3" class="edge"><title>Node2&#45;&gt;Node4</title>
<path fill="none" stroke="midnightblue" d="M301.829,-370.632C327.729,-384.681 367.926,-405.743 404,-421.5 408.776,-423.586 413.788,-425.652 418.834,-427.65"/>
<polygon fill="midnightblue" stroke="midnightblue" points="417.937,-431.055 428.526,-431.394 420.459,-424.525 417.937,-431.055"/>
</g>
<!-- Node6 -->
<g id="node6" class="node"><title>Node6</title>
<g id="a_node6"><a xlink:href="classRa_1_1Asset_1_1HandleData.html#a41fe733034adf1db3901419f859bbffd" target="_top" xlink:title="Ra::Asset::HandleData\l::setType">
<polygon fill="white" stroke="black" points="410.5,-480.5 410.5,-510.5 535.5,-510.5 535.5,-480.5 410.5,-480.5"/>
<text text-anchor="start" x="418.5" y="-498.5" font-family="Helvetica,sans-Serif" font-size="10.00">Ra::Asset::HandleData</text>
<text text-anchor="middle" x="473" y="-487.5" font-family="Helvetica,sans-Serif" font-size="10.00">::setType</text>
</a>
</g>
</g>
<!-- Node5&#45;&gt;Node6 -->
<g id="edge5" class="edge"><title>Node5&#45;&gt;Node6</title>
<path fill="none" stroke="midnightblue" d="M340.539,-465.547C359.821,-469.94 380.979,-474.761 400.578,-479.227"/>
<polygon fill="midnightblue" stroke="midnightblue" points="399.834,-482.647 410.362,-481.456 401.389,-475.822 399.834,-482.647"/>
</g>
<!-- Node7&#45;&gt;Node3 -->
<g id="edge8" class="edge"><title>Node7&#45;&gt;Node3</title>
<path fill="none" stroke="midnightblue" d="M332.688,-291.474C362.178,-283.859 397.509,-274.736 425.211,-267.582"/>
<polygon fill="midnightblue" stroke="midnightblue" points="426.24,-270.931 435.047,-265.042 424.49,-264.154 426.24,-270.931"/>
</g>
<!-- Node8 -->
<g id="node8" class="node"><title>Node8</title>
<g id="a_node8"><a xlink:href="classRa_1_1Asset_1_1HandleData.html#ace178af654bd9751e7cc0122cf7e7a34" target="_top" xlink:title="Ra::Asset::HandleData\l::needEndNodes">
<polygon fill="white" stroke="black" points="410.5,-382.5 410.5,-412.5 535.5,-412.5 535.5,-382.5 410.5,-382.5"/>
<text text-anchor="start" x="418.5" y="-400.5" font-family="Helvetica,sans-Serif" font-size="10.00">Ra::Asset::HandleData</text>
<text text-anchor="middle" x="473" y="-389.5" font-family="Helvetica,sans-Serif" font-size="10.00">::needEndNodes</text>
</a>
</g>
</g>
<!-- Node7&#45;&gt;Node8 -->
<g id="edge7" class="edge"><title>Node7&#45;&gt;Node8</title>
<path fill="none" stroke="midnightblue" d="M350.19,-321.554C356.423,-324.088 362.451,-327.046 368,-330.5 388.873,-343.491 383.81,-358.471 404,-372.5 406.737,-374.402 409.637,-376.178 412.635,-377.834"/>
<polygon fill="midnightblue" stroke="midnightblue" points="411.355,-381.107 421.864,-382.447 414.484,-374.845 411.355,-381.107"/>
</g>
<!-- Node9 -->
<g id="node9" class="node"><title>Node9</title>
<g id="a_node9"><a xlink:href="classRa_1_1Asset_1_1HandleData.html#a5ba6a5c751773be688faae15b092359d" target="_top" xlink:title="Ra::Asset::HandleData\l::setComponents">
<polygon fill="white" stroke="black" points="410.5,-333.5 410.5,-363.5 535.5,-363.5 535.5,-333.5 410.5,-333.5"/>
<text text-anchor="start" x="418.5" y="-351.5" font-family="Helvetica,sans-Serif" font-size="10.00">Ra::Asset::HandleData</text>
<text text-anchor="middle" x="473" y="-340.5" font-family="Helvetica,sans-Serif" font-size="10.00">::setComponents</text>
</a>
</g>
</g>
<!-- Node7&#45;&gt;Node9 -->
<g id="edge9" class="edge"><title>Node7&#45;&gt;Node9</title>
<path fill="none" stroke="midnightblue" d="M345.244,-321.544C363.175,-325.357 382.449,-329.456 400.421,-333.278"/>
<polygon fill="midnightblue" stroke="midnightblue" points="399.745,-336.713 410.255,-335.369 401.201,-329.866 399.745,-336.713"/>
</g>
<!-- Node10 -->
<g id="node10" class="node"><title>Node10</title>
<g id="a_node10"><a xlink:href="classRa_1_1Asset_1_1HandleData.html#a713b25fdea78737ec5e664a6aabc9549" target="_top" xlink:title="NAME TABLE. ">
<polygon fill="white" stroke="black" points="410.5,-284.5 410.5,-314.5 535.5,-314.5 535.5,-284.5 410.5,-284.5"/>
<text text-anchor="start" x="418.5" y="-302.5" font-family="Helvetica,sans-Serif" font-size="10.00">Ra::Asset::HandleData</text>
<text text-anchor="middle" x="473" y="-291.5" font-family="Helvetica,sans-Serif" font-size="10.00">::setNameTable</text>
</a>
</g>
</g>
<!-- Node7&#45;&gt;Node10 -->
<g id="edge10" class="edge"><title>Node7&#45;&gt;Node10</title>
<path fill="none" stroke="midnightblue" d="M368.045,-303.184C378.812,-302.803 389.663,-302.418 400.082,-302.049"/>
<polygon fill="midnightblue" stroke="midnightblue" points="400.469,-305.538 410.339,-301.685 400.221,-298.542 400.469,-305.538"/>
</g>
<!-- Node11&#45;&gt;Node3 -->
<g id="edge14" class="edge"><title>Node11&#45;&gt;Node3</title>
<path fill="none" stroke="midnightblue" d="M337.533,-223.5C364.84,-229.999 396.359,-237.499 422.014,-243.605"/>
<polygon fill="midnightblue" stroke="midnightblue" points="421.359,-247.046 431.897,-245.957 422.979,-240.236 421.359,-247.046"/>
</g>
<!-- Node12 -->
<g id="node12" class="node"><title>Node12</title>
<g id="a_node12"><a xlink:href="classRa_1_1Asset_1_1HandleData.html#aac2741c32466647b58b76e8310d90ecb" target="_top" xlink:title="DATA. ">
<polygon fill="white" stroke="black" points="404,-49.5 404,-79.5 542,-79.5 542,-49.5 404,-49.5"/>
<text text-anchor="start" x="412" y="-67.5" font-family="Helvetica,sans-Serif" font-size="10.00">Ra::Asset::HandleData</text>
<text text-anchor="middle" x="473" y="-56.5" font-family="Helvetica,sans-Serif" font-size="10.00">::getComponentDataSize</text>
</a>
</g>
</g>
<!-- Node11&#45;&gt;Node12 -->
<g id="edge12" class="edge"><title>Node11&#45;&gt;Node12</title>
<path fill="none" stroke="midnightblue" d="M353.928,-193.348C359,-190.585 363.762,-187.331 368,-183.5 401.498,-153.224 371.709,-120.059 404,-88.5 405.091,-87.4335 406.233,-86.4142 407.417,-85.44"/>
<polygon fill="midnightblue" stroke="midnightblue" points="409.556,-88.216 415.781,-79.6425 405.568,-82.463 409.556,-88.216"/>
</g>
<!-- Node13 -->
<g id="node13" class="node"><title>Node13</title>
<g id="a_node13"><a xlink:href="classRa_1_1Asset_1_1HandleData.html#af6b0000a98985534b50a9817de5bfd58" target="_top" xlink:title="Ra::Asset::HandleData\l::getComponent">
<polygon fill="white" stroke="black" points="410.5,-98.5 410.5,-128.5 535.5,-128.5 535.5,-98.5 410.5,-98.5"/>
<text text-anchor="start" x="418.5" y="-116.5" font-family="Helvetica,sans-Serif" font-size="10.00">Ra::Asset::HandleData</text>
<text text-anchor="middle" x="473" y="-105.5" font-family="Helvetica,sans-Serif" font-size="10.00">::getComponent</text>
</a>
</g>
</g>
<!-- Node11&#45;&gt;Node13 -->
<g id="edge13" class="edge"><title>Node11&#45;&gt;Node13</title>
<path fill="none" stroke="midnightblue" d="M348.933,-193.455C355.64,-190.678 362.112,-187.391 368,-183.5 389.658,-169.186 382.917,-152.648 404,-137.5 406.091,-135.998 408.284,-134.582 410.55,-133.249"/>
<polygon fill="midnightblue" stroke="midnightblue" points="412.361,-136.251 419.59,-128.505 409.108,-130.053 412.361,-136.251"/>
</g>
<!-- Node14 -->
<g id="node14" class="node"><title>Node14</title>
<g id="a_node14"><a xlink:href="classRa_1_1Asset_1_1HandleData.html#aaee6cb0cd26f0745e444ac7bd0412454" target="_top" xlink:title="Ra::Asset::HandleData\l::getIndexOf">
<polygon fill="white" stroke="black" points="410.5,-147.5 410.5,-177.5 535.5,-177.5 535.5,-147.5 410.5,-147.5"/>
<text text-anchor="start" x="418.5" y="-165.5" font-family="Helvetica,sans-Serif" font-size="10.00">Ra::Asset::HandleData</text>
<text text-anchor="middle" x="473" y="-154.5" font-family="Helvetica,sans-Serif" font-size="10.00">::getIndexOf</text>
</a>
</g>
</g>
<!-- Node11&#45;&gt;Node14 -->
<g id="edge15" class="edge"><title>Node11&#45;&gt;Node14</title>
<path fill="none" stroke="midnightblue" d="M339.169,-193.438C358.705,-188.888 380.27,-183.865 400.24,-179.214"/>
<polygon fill="midnightblue" stroke="midnightblue" points="401.263,-182.569 410.208,-176.892 399.675,-175.752 401.263,-182.569"/>
</g>
<!-- Node15 -->
<g id="node15" class="node"><title>Node15</title>
<g id="a_node15"><a xlink:href="classRa_1_1Asset_1_1HandleData.html#ad54e901fb20565f1006b721ad17c375a" target="_top" xlink:title="Ra::Asset::HandleData\l::setEdges">
<polygon fill="white" stroke="black" points="410.5,-196.5 410.5,-226.5 535.5,-226.5 535.5,-196.5 410.5,-196.5"/>
<text text-anchor="start" x="418.5" y="-214.5" font-family="Helvetica,sans-Serif" font-size="10.00">Ra::Asset::HandleData</text>
<text text-anchor="middle" x="473" y="-203.5" font-family="Helvetica,sans-Serif" font-size="10.00">::setEdges</text>
</a>
</g>
</g>
<!-- Node11&#45;&gt;Node15 -->
<g id="edge16" class="edge"><title>Node11&#45;&gt;Node15</title>
<path fill="none" stroke="midnightblue" d="M360.552,-209.807C373.758,-210.008 387.271,-210.213 400.127,-210.408"/>
<polygon fill="midnightblue" stroke="midnightblue" points="400.226,-213.91 410.278,-210.562 400.332,-206.911 400.226,-213.91"/>
</g>
<!-- Node16&#45;&gt;Node12 -->
<g id="edge18" class="edge"><title>Node16&#45;&gt;Node12</title>
<path fill="none" stroke="midnightblue" d="M345.244,-37.5443C361.01,-40.897 377.814,-44.4705 393.858,-47.8825"/>
<polygon fill="midnightblue" stroke="midnightblue" points="393.224,-51.3259 403.734,-49.9826 394.68,-44.479 393.224,-51.3259"/>
</g>
<!-- Node16&#45;&gt;Node13 -->
<g id="edge19" class="edge"><title>Node16&#45;&gt;Node13</title>
<path fill="none" stroke="midnightblue" d="M345.36,-35.6877C353.3,-38.6035 361.028,-42.1609 368,-46.5 388.873,-59.491 383.81,-74.4715 404,-88.5 406.737,-90.4019 409.637,-92.178 412.635,-93.8339"/>
<polygon fill="midnightblue" stroke="midnightblue" points="411.355,-97.1067 421.864,-98.4466 414.484,-90.8452 411.355,-97.1067"/>
</g>
<!-- Node17 -->
<g id="node17" class="node"><title>Node17</title>
<g id="a_node17"><a xlink:href="classRa_1_1Asset_1_1HandleData.html#ade0d6afbabf40955b6d6b5c5214336e9" target="_top" xlink:title="Ra::Asset::HandleData\l::setVertexSize">
<polygon fill="white" stroke="black" points="410.5,-0.5 410.5,-30.5 535.5,-30.5 535.5,-0.5 410.5,-0.5"/>
<text text-anchor="start" x="418.5" y="-18.5" font-family="Helvetica,sans-Serif" font-size="10.00">Ra::Asset::HandleData</text>
<text text-anchor="middle" x="473" y="-7.5" font-family="Helvetica,sans-Serif" font-size="10.00">::setVertexSize</text>
</a>
</g>
</g>
<!-- Node16&#45;&gt;Node17 -->
<g id="edge20" class="edge"><title>Node16&#45;&gt;Node17</title>
<path fill="none" stroke="midnightblue" d="M345.244,-19.9926C363.092,-19.36 382.271,-18.6803 400.171,-18.0458"/>
<polygon fill="midnightblue" stroke="midnightblue" points="400.385,-21.5406 410.255,-17.6884 400.137,-14.5449 400.385,-21.5406"/>
</g>
<!-- Node21&#45;&gt;Node3 -->
<g id="edge25" class="edge"><title>Node21&#45;&gt;Node3</title>
<path fill="none" stroke="midnightblue" d="M345.244,-256.784C364.478,-256.589 385.257,-256.378 404.316,-256.185"/>
<polygon fill="midnightblue" stroke="midnightblue" points="404.443,-259.684 414.407,-256.083 404.372,-252.685 404.443,-259.684"/>
</g>
</g>
</svg>
