<?xml version="1.0" encoding="UTF-8" standalone="no"?>
<!DOCTYPE svg PUBLIC "-//W3C//DTD SVG 1.1//EN"
 "http://www.w3.org/Graphics/SVG/1.1/DTD/svg11.dtd">
<!-- Generated by graphviz version 2.38.0 (20140413.2041)
 -->
<!-- Title: Ra::IO::AssimpGeometryDataLoader::loadMeshData Pages: 1 -->
<svg width="548pt" height="676pt"
 viewBox="0.00 0.00 548.00 676.00" xmlns="http://www.w3.org/2000/svg" xmlns:xlink="http://www.w3.org/1999/xlink">
<g id="graph0" class="graph" transform="scale(1 1) rotate(0) translate(4 672)">
<title>Ra::IO::AssimpGeometryDataLoader::loadMeshData</title>
<polygon fill="white" stroke="none" points="-4,4 -4,-672 544,-672 544,4 -4,4"/>
<!-- Node1 -->
<g id="node1" class="node"><title>Node1</title>
<polygon fill="#bfbfbf" stroke="black" points="0,-343.5 0,-373.5 157,-373.5 157,-343.5 0,-343.5"/>
<text text-anchor="start" x="8" y="-361.5" font-family="Helvetica,sans-Serif" font-size="10.00">Ra::IO::AssimpGeometryData</text>
<text text-anchor="middle" x="78.5" y="-350.5" font-family="Helvetica,sans-Serif" font-size="10.00">Loader::loadMeshData</text>
</g>
<!-- Node2 -->
<g id="node2" class="node"><title>Node2</title>
<g id="a_node2"><a xlink:href="classRa_1_1IO_1_1AssimpGeometryDataLoader.html#a52df2ebcfac6c77d72d725f6833bccc8" target="_top" xlink:title="Fill data with the name from mesh. ">
<polygon fill="white" stroke="black" points="200.5,-588.5 200.5,-618.5 357.5,-618.5 357.5,-588.5 200.5,-588.5"/>
<text text-anchor="start" x="208.5" y="-606.5" font-family="Helvetica,sans-Serif" font-size="10.00">Ra::IO::AssimpGeometryData</text>
<text text-anchor="middle" x="279" y="-595.5" font-family="Helvetica,sans-Serif" font-size="10.00">Loader::fetchName</text>
</a>
</g>
</g>
<!-- Node1&#45;&gt;Node2 -->
<g id="edge1" class="edge"><title>Node1&#45;&gt;Node2</title>
<path fill="none" stroke="midnightblue" d="M82.9139,-373.657C92.6852,-413.499 124.568,-521.989 193,-578.5 195.024,-580.171 197.155,-581.731 199.371,-583.186"/>
<polygon fill="midnightblue" stroke="midnightblue" points="197.872,-586.361 208.288,-588.298 201.353,-580.288 197.872,-586.361"/>
</g>
<!-- Node5 -->
<g id="node5" class="node"><title>Node5</title>
<g id="a_node5"><a xlink:href="classRa_1_1IO_1_1AssimpGeometryDataLoader.html#a0da619e2173b7a422405fd1d2767af42" target="_top" xlink:title="Fill data with the GeometryType from mesh. ">
<polygon fill="white" stroke="black" points="200.5,-637.5 200.5,-667.5 357.5,-667.5 357.5,-637.5 200.5,-637.5"/>
<text text-anchor="start" x="208.5" y="-655.5" font-family="Helvetica,sans-Serif" font-size="10.00">Ra::IO::AssimpGeometryData</text>
<text text-anchor="middle" x="279" y="-644.5" font-family="Helvetica,sans-Serif" font-size="10.00">Loader::fetchType</text>
</a>
</g>
</g>
<!-- Node1&#45;&gt;Node5 -->
<g id="edge4" class="edge"><title>Node1&#45;&gt;Node5</title>
<path fill="none" stroke="midnightblue" d="M81.3468,-373.587C87.7262,-419.07 113.027,-556.105 193,-627.5 194.771,-629.081 196.638,-630.563 198.583,-631.951"/>
<polygon fill="midnightblue" stroke="midnightblue" points="197.196,-635.206 207.548,-637.457 200.859,-629.242 197.196,-635.206"/>
</g>
<!-- Node7 -->
<g id="node7" class="node"><title>Node7</title>
<g id="a_node7"><a xlink:href="classRa_1_1IO_1_1AssimpGeometryDataLoader.html#ad369689491711d63ac789df228f4db94" target="_top" xlink:title="Fill data with the vertices from mesh. ">
<polygon fill="white" stroke="black" points="200.5,-539.5 200.5,-569.5 357.5,-569.5 357.5,-539.5 200.5,-539.5"/>
<text text-anchor="start" x="208.5" y="-557.5" font-family="Helvetica,sans-Serif" font-size="10.00">Ra::IO::AssimpGeometryData</text>
<text text-anchor="middle" x="279" y="-546.5" font-family="Helvetica,sans-Serif" font-size="10.00">Loader::fetchVertices</text>
</a>
</g>
</g>
<!-- Node1&#45;&gt;Node7 -->
<g id="edge6" class="edge"><title>Node1&#45;&gt;Node7</title>
<path fill="none" stroke="midnightblue" d="M85.2852,-373.646C98.8179,-407.028 135.789,-487.309 193,-529.5 195.518,-531.357 198.173,-533.077 200.927,-534.67"/>
<polygon fill="midnightblue" stroke="midnightblue" points="199.519,-537.881 210.013,-539.336 202.717,-531.654 199.519,-537.881"/>
</g>
<!-- Node9 -->
<g id="node9" class="node"><title>Node9</title>
<g id="a_node9"><a xlink:href="classRa_1_1Asset_1_1GeometryData.html#aedb628595b4768888ea0c02c37242ef7" target="_top" xlink:title="Return true if the object is a Line Mesh. ">
<polygon fill="white" stroke="black" points="209.5,-490.5 209.5,-520.5 348.5,-520.5 348.5,-490.5 209.5,-490.5"/>
<text text-anchor="start" x="217.5" y="-508.5" font-family="Helvetica,sans-Serif" font-size="10.00">Ra::Asset::GeometryData</text>
<text text-anchor="middle" x="279" y="-497.5" font-family="Helvetica,sans-Serif" font-size="10.00">::isLineMesh</text>
</a>
</g>
</g>
<!-- Node1&#45;&gt;Node9 -->
<g id="edge9" class="edge"><title>Node1&#45;&gt;Node9</title>
<path fill="none" stroke="midnightblue" d="M89.4786,-373.697C107.214,-399.51 146.741,-451.898 193,-480.5 196.434,-482.623 200.058,-484.574 203.796,-486.366"/>
<polygon fill="midnightblue" stroke="midnightblue" points="202.716,-489.712 213.281,-490.497 205.511,-483.295 202.716,-489.712"/>
</g>
<!-- Node10 -->
<g id="node10" class="node"><title>Node10</title>
<g id="a_node10"><a xlink:href="classRa_1_1IO_1_1AssimpGeometryDataLoader.html#ae1a8d24d2eff35f746cfdb4c5dbb740f" target="_top" xlink:title="Fill data with the lines from mesh. ">
<polygon fill="white" stroke="black" points="200.5,-441.5 200.5,-471.5 357.5,-471.5 357.5,-441.5 200.5,-441.5"/>
<text text-anchor="start" x="208.5" y="-459.5" font-family="Helvetica,sans-Serif" font-size="10.00">Ra::IO::AssimpGeometryData</text>
<text text-anchor="middle" x="279" y="-448.5" font-family="Helvetica,sans-Serif" font-size="10.00">Loader::fetchEdges</text>
</a>
</g>
</g>
<!-- Node1&#45;&gt;Node10 -->
<g id="edge10" class="edge"><title>Node1&#45;&gt;Node10</title>
<path fill="none" stroke="midnightblue" d="M99.0017,-373.522C120.855,-389.747 157.843,-415.427 193,-431.5 198.071,-433.818 203.41,-435.982 208.84,-437.987"/>
<polygon fill="midnightblue" stroke="midnightblue" points="208.079,-441.428 218.673,-441.425 210.389,-434.821 208.079,-441.428"/>
</g>
<!-- Node12 -->
<g id="node12" class="node"><title>Node12</title>
<g id="a_node12"><a xlink:href="classRa_1_1IO_1_1AssimpGeometryDataLoader.html#a7f554a1a591245ed063fdb5539e4669e" target="_top" xlink:title="Fill data with the faces from mesh. ">
<polygon fill="white" stroke="black" points="200.5,-392.5 200.5,-422.5 357.5,-422.5 357.5,-392.5 200.5,-392.5"/>
<text text-anchor="start" x="208.5" y="-410.5" font-family="Helvetica,sans-Serif" font-size="10.00">Ra::IO::AssimpGeometryData</text>
<text text-anchor="middle" x="279" y="-399.5" font-family="Helvetica,sans-Serif" font-size="10.00">Loader::fetchFaces</text>
</a>
</g>
</g>
<!-- Node1&#45;&gt;Node12 -->
<g id="edge13" class="edge"><title>Node1&#45;&gt;Node12</title>
<path fill="none" stroke="midnightblue" d="M140.406,-373.535C161.555,-378.755 185.449,-384.654 207.32,-390.053"/>
<polygon fill="midnightblue" stroke="midnightblue" points="206.662,-393.495 217.21,-392.494 208.34,-386.699 206.662,-393.495"/>
</g>
<!-- Node14 -->
<g id="node14" class="node"><title>Node14</title>
<g id="a_node14"><a xlink:href="classRa_1_1Asset_1_1GeometryData.html#a2f6d8fbb107960e57e1986447cdff885" target="_top" xlink:title="Return true if the object is a Tetrahedron Mesh. ">
<polygon fill="white" stroke="black" points="209.5,-343.5 209.5,-373.5 348.5,-373.5 348.5,-343.5 209.5,-343.5"/>
<text text-anchor="start" x="217.5" y="-361.5" font-family="Helvetica,sans-Serif" font-size="10.00">Ra::Asset::GeometryData</text>
<text text-anchor="middle" x="279" y="-350.5" font-family="Helvetica,sans-Serif" font-size="10.00">::isTetraMesh</text>
</a>
</g>
</g>
<!-- Node1&#45;&gt;Node14 -->
<g id="edge16" class="edge"><title>Node1&#45;&gt;Node14</title>
<path fill="none" stroke="midnightblue" d="M157.098,-358.5C171.011,-358.5 185.52,-358.5 199.458,-358.5"/>
<polygon fill="midnightblue" stroke="midnightblue" points="199.491,-362 209.491,-358.5 199.49,-355 199.491,-362"/>
</g>
<!-- Node15 -->
<g id="node15" class="node"><title>Node15</title>
<g id="a_node15"><a xlink:href="classRa_1_1Asset_1_1GeometryData.html#acd7a4eb5fa51846e16a49d08a704a92d" target="_top" xlink:title="Return true if the object is a Hexahedron Mesh. ">
<polygon fill="white" stroke="black" points="209.5,-294.5 209.5,-324.5 348.5,-324.5 348.5,-294.5 209.5,-294.5"/>
<text text-anchor="start" x="217.5" y="-312.5" font-family="Helvetica,sans-Serif" font-size="10.00">Ra::Asset::GeometryData</text>
<text text-anchor="middle" x="279" y="-301.5" font-family="Helvetica,sans-Serif" font-size="10.00">::isHexMesh</text>
</a>
</g>
</g>
<!-- Node1&#45;&gt;Node15 -->
<g id="edge17" class="edge"><title>Node1&#45;&gt;Node15</title>
<path fill="none" stroke="midnightblue" d="M140.406,-343.465C161.555,-338.245 185.449,-332.346 207.32,-326.947"/>
<polygon fill="midnightblue" stroke="midnightblue" points="208.34,-330.301 217.21,-324.506 206.662,-323.505 208.34,-330.301"/>
</g>
<!-- Node16 -->
<g id="node16" class="node"><title>Node16</title>
<g id="a_node16"><a xlink:href="classRa_1_1IO_1_1AssimpGeometryDataLoader.html#a93585196c7817640e31447e229d83c6c" target="_top" xlink:title="Fill data with the polyhedra from mesh. ">
<polygon fill="white" stroke="black" points="200.5,-245.5 200.5,-275.5 357.5,-275.5 357.5,-245.5 200.5,-245.5"/>
<text text-anchor="start" x="208.5" y="-263.5" font-family="Helvetica,sans-Serif" font-size="10.00">Ra::IO::AssimpGeometryData</text>
<text text-anchor="middle" x="279" y="-252.5" font-family="Helvetica,sans-Serif" font-size="10.00">Loader::fetchPolyhedron</text>
</a>
</g>
</g>
<!-- Node1&#45;&gt;Node16 -->
<g id="edge18" class="edge"><title>Node1&#45;&gt;Node16</title>
<path fill="none" stroke="midnightblue" d="M98.5392,-343.482C120.28,-326.972 157.449,-300.653 193,-284.5 197.31,-282.542 201.817,-280.706 206.411,-278.993"/>
<polygon fill="midnightblue" stroke="midnightblue" points="207.653,-282.267 215.926,-275.648 205.331,-275.663 207.653,-282.267"/>
</g>
<!-- Node17 -->
<g id="node17" class="node"><title>Node17</title>
<g id="a_node17"><a xlink:href="classRa_1_1IO_1_1AssimpGeometryDataLoader.html#a104cc1f1ccf9e9ba3c11f506e8b4947e" target="_top" xlink:title="Fill data with the vertex normals from mesh. ">
<polygon fill="white" stroke="black" points="200.5,-98.5 200.5,-128.5 357.5,-128.5 357.5,-98.5 200.5,-98.5"/>
<text text-anchor="start" x="208.5" y="-116.5" font-family="Helvetica,sans-Serif" font-size="10.00">Ra::IO::AssimpGeometryData</text>
<text text-anchor="middle" x="279" y="-105.5" font-family="Helvetica,sans-Serif" font-size="10.00">Loader::fetchNormals</text>
</a>
</g>
</g>
<!-- Node1&#45;&gt;Node17 -->
<g id="edge19" class="edge"><title>Node1&#45;&gt;Node17</title>
<path fill="none" stroke="midnightblue" d="M82.8578,-343.234C92.4915,-303.11 124.067,-193.904 193,-137.5 194.558,-136.226 196.179,-135.019 197.853,-133.876"/>
<polygon fill="midnightblue" stroke="midnightblue" points="199.802,-136.789 206.618,-128.678 196.232,-130.768 199.802,-136.789"/>
</g>
<!-- Node20 -->
<g id="node20" class="node"><title>Node20</title>
<g id="a_node20"><a xlink:href="classRa_1_1IO_1_1AssimpGeometryDataLoader.html#a394b1ea37658c2e6c0150c987c6e4b9f" target="_top" xlink:title="Fill data with the vertex tangent vectors from mesh. ">
<polygon fill="white" stroke="black" points="200.5,-196.5 200.5,-226.5 357.5,-226.5 357.5,-196.5 200.5,-196.5"/>
<text text-anchor="start" x="208.5" y="-214.5" font-family="Helvetica,sans-Serif" font-size="10.00">Ra::IO::AssimpGeometryData</text>
<text text-anchor="middle" x="279" y="-203.5" font-family="Helvetica,sans-Serif" font-size="10.00">Loader::fetchTangents</text>
</a>
</g>
</g>
<!-- Node1&#45;&gt;Node20 -->
<g id="edge23" class="edge"><title>Node1&#45;&gt;Node20</title>
<path fill="none" stroke="midnightblue" d="M89.4149,-343.122C107.054,-317.012 146.44,-264.07 193,-235.5 195.81,-233.776 198.747,-232.172 201.771,-230.68"/>
<polygon fill="midnightblue" stroke="midnightblue" points="203.355,-233.806 211.06,-226.534 200.502,-227.414 203.355,-233.806"/>
</g>
<!-- Node22 -->
<g id="node22" class="node"><title>Node22</title>
<g id="a_node22"><a xlink:href="classRa_1_1IO_1_1AssimpGeometryDataLoader.html#a438274cd5cf254ab710431b59ddd3396" target="_top" xlink:title="Fill data with the vertex bitangent vectors from mesh. ">
<polygon fill="white" stroke="black" points="200.5,-147.5 200.5,-177.5 357.5,-177.5 357.5,-147.5 200.5,-147.5"/>
<text text-anchor="start" x="208.5" y="-165.5" font-family="Helvetica,sans-Serif" font-size="10.00">Ra::IO::AssimpGeometryData</text>
<text text-anchor="middle" x="279" y="-154.5" font-family="Helvetica,sans-Serif" font-size="10.00">Loader::fetchBitangents</text>
</a>
</g>
</g>
<!-- Node1&#45;&gt;Node22 -->
<g id="edge26" class="edge"><title>Node1&#45;&gt;Node22</title>
<path fill="none" stroke="midnightblue" d="M85.1256,-343.472C98.455,-309.957 135.24,-228.733 193,-186.5 195.058,-184.995 197.207,-183.585 199.427,-182.263"/>
<polygon fill="midnightblue" stroke="midnightblue" points="201.081,-185.347 208.295,-177.589 197.817,-179.155 201.081,-185.347"/>
</g>
<!-- Node24 -->
<g id="node24" class="node"><title>Node24</title>
<g id="a_node24"><a xlink:href="classRa_1_1IO_1_1AssimpGeometryDataLoader.html#afaae07a29263cd344435571cc964dac2" target="_top" xlink:title="Fill data with the vertex texture coordinates from mesh. ">
<polygon fill="white" stroke="black" points="193,-49.5 193,-79.5 365,-79.5 365,-49.5 193,-49.5"/>
<text text-anchor="start" x="201" y="-67.5" font-family="Helvetica,sans-Serif" font-size="10.00">Ra::IO::AssimpGeometryData</text>
<text text-anchor="middle" x="279" y="-56.5" font-family="Helvetica,sans-Serif" font-size="10.00">Loader::fetchTextureCoordinates</text>
</a>
</g>
</g>
<!-- Node1&#45;&gt;Node24 -->
<g id="edge29" class="edge"><title>Node1&#45;&gt;Node24</title>
<path fill="none" stroke="midnightblue" d="M81.2931,-343.319C87.52,-297.557 112.434,-159.737 193,-88.5 194.343,-87.3129 195.74,-86.1841 197.184,-85.1109"/>
<polygon fill="midnightblue" stroke="midnightblue" points="199.358,-87.876 205.911,-79.5513 195.597,-81.9721 199.358,-87.876"/>
</g>
<!-- Node3 -->
<g id="node3" class="node"><title>Node3</title>
<g id="a_node3"><a xlink:href="namespaceRa_1_1IO.html#aef6c50424873964fcea0008be55d4a34" target="_top" xlink:title="Ra::IO::assimpToCore">
<polygon fill="white" stroke="black" points="412,-300 412,-319 529,-319 529,-300 412,-300"/>
<text text-anchor="middle" x="470.5" y="-307" font-family="Helvetica,sans-Serif" font-size="10.00">Ra::IO::assimpToCore</text>
</a>
</g>
</g>
<!-- Node2&#45;&gt;Node3 -->
<g id="edge2" class="edge"><title>Node2&#45;&gt;Node3</title>
<path fill="none" stroke="midnightblue" d="M353.004,-588.473C357.43,-585.681 361.5,-582.386 365,-578.5 424.274,-512.69 361.076,-461.56 401,-382.5 412.435,-359.855 433.101,-339.3 448.752,-325.815"/>
<polygon fill="midnightblue" stroke="midnightblue" points="451.395,-328.169 456.841,-319.081 446.916,-322.789 451.395,-328.169"/>
</g>
<!-- Node4 -->
<g id="node4" class="node"><title>Node4</title>
<g id="a_node4"><a xlink:href="classRa_1_1Asset_1_1GeometryData.html#a243148184c6a5c3aeba47951f75fc73c" target="_top" xlink:title="Ra::Asset::GeometryData\l::setName">
<polygon fill="white" stroke="black" points="401,-588.5 401,-618.5 540,-618.5 540,-588.5 401,-588.5"/>
<text text-anchor="start" x="409" y="-606.5" font-family="Helvetica,sans-Serif" font-size="10.00">Ra::Asset::GeometryData</text>
<text text-anchor="middle" x="470.5" y="-595.5" font-family="Helvetica,sans-Serif" font-size="10.00">::setName</text>
</a>
</g>
</g>
<!-- Node2&#45;&gt;Node4 -->
<g id="edge3" class="edge"><title>Node2&#45;&gt;Node4</title>
<path fill="none" stroke="midnightblue" d="M357.624,-603.5C368.468,-603.5 379.622,-603.5 390.491,-603.5"/>
<polygon fill="midnightblue" stroke="midnightblue" points="390.806,-607 400.806,-603.5 390.806,-600 390.806,-607"/>
</g>
<!-- Node6 -->
<g id="node6" class="node"><title>Node6</title>
<g id="a_node6"><a xlink:href="classRa_1_1Asset_1_1GeometryData.html#a23f044c78e92cc740444a06ab9690e3b" target="_top" xlink:title="Set the type of geometry. ">
<polygon fill="white" stroke="black" points="401,-637.5 401,-667.5 540,-667.5 540,-637.5 401,-637.5"/>
<text text-anchor="start" x="409" y="-655.5" font-family="Helvetica,sans-Serif" font-size="10.00">Ra::Asset::GeometryData</text>
<text text-anchor="middle" x="470.5" y="-644.5" font-family="Helvetica,sans-Serif" font-size="10.00">::setType</text>
</a>
</g>
</g>
<!-- Node5&#45;&gt;Node6 -->
<g id="edge5" class="edge"><title>Node5&#45;&gt;Node6</title>
<path fill="none" stroke="midnightblue" d="M357.624,-652.5C368.468,-652.5 379.622,-652.5 390.491,-652.5"/>
<polygon fill="midnightblue" stroke="midnightblue" points="390.806,-656 400.806,-652.5 390.806,-649 390.806,-656"/>
</g>
<!-- Node7&#45;&gt;Node3 -->
<g id="edge8" class="edge"><title>Node7&#45;&gt;Node3</title>
<path fill="none" stroke="midnightblue" d="M352.354,-539.478C356.991,-536.689 361.281,-533.393 365,-529.5 411.459,-480.859 368.936,-441.63 401,-382.5 413.093,-360.199 433.666,-339.596 449.117,-326.005"/>
<polygon fill="midnightblue" stroke="midnightblue" points="451.748,-328.361 457.087,-319.21 447.207,-323.034 451.748,-328.361"/>
</g>
<!-- Node8 -->
<g id="node8" class="node"><title>Node8</title>
<g id="a_node8"><a xlink:href="classRa_1_1Asset_1_1GeometryData.html#a20394106458e5e8deade13af0bec3ebb" target="_top" xlink:title="Return the list of vertices. ">
<polygon fill="white" stroke="black" points="401,-539.5 401,-569.5 540,-569.5 540,-539.5 401,-539.5"/>
<text text-anchor="start" x="409" y="-557.5" font-family="Helvetica,sans-Serif" font-size="10.00">Ra::Asset::GeometryData</text>
<text text-anchor="middle" x="470.5" y="-546.5" font-family="Helvetica,sans-Serif" font-size="10.00">::getVertices</text>
</a>
</g>
</g>
<!-- Node7&#45;&gt;Node8 -->
<g id="edge7" class="edge"><title>Node7&#45;&gt;Node8</title>
<path fill="none" stroke="midnightblue" d="M357.624,-554.5C368.468,-554.5 379.622,-554.5 390.491,-554.5"/>
<polygon fill="midnightblue" stroke="midnightblue" points="390.806,-558 400.806,-554.5 390.806,-551 390.806,-558"/>
</g>
<!-- Node10&#45;&gt;Node3 -->
<g id="edge12" class="edge"><title>Node10&#45;&gt;Node3</title>
<path fill="none" stroke="midnightblue" d="M346.93,-441.457C353.311,-438.675 359.459,-435.386 365,-431.5 387.125,-415.984 383.723,-403.279 401,-382.5 417.688,-362.429 438.371,-340.783 452.619,-326.318"/>
<polygon fill="midnightblue" stroke="midnightblue" points="455.246,-328.64 459.806,-319.076 450.277,-323.709 455.246,-328.64"/>
</g>
<!-- Node11 -->
<g id="node11" class="node"><title>Node11</title>
<g id="a_node11"><a xlink:href="classRa_1_1Asset_1_1GeometryData.html#abe4083fd2256390f3d90734cc9003599" target="_top" xlink:title="Return the list of lines. ">
<polygon fill="white" stroke="black" points="401,-441.5 401,-471.5 540,-471.5 540,-441.5 401,-441.5"/>
<text text-anchor="start" x="409" y="-459.5" font-family="Helvetica,sans-Serif" font-size="10.00">Ra::Asset::GeometryData</text>
<text text-anchor="middle" x="470.5" y="-448.5" font-family="Helvetica,sans-Serif" font-size="10.00">::getEdges</text>
</a>
</g>
</g>
<!-- Node10&#45;&gt;Node11 -->
<g id="edge11" class="edge"><title>Node10&#45;&gt;Node11</title>
<path fill="none" stroke="midnightblue" d="M357.624,-456.5C368.468,-456.5 379.622,-456.5 390.491,-456.5"/>
<polygon fill="midnightblue" stroke="midnightblue" points="390.806,-460 400.806,-456.5 390.806,-453 390.806,-460"/>
</g>
<!-- Node12&#45;&gt;Node3 -->
<g id="edge15" class="edge"><title>Node12&#45;&gt;Node3</title>
<path fill="none" stroke="midnightblue" d="M340.361,-392.396C348.801,-389.525 357.236,-386.231 365,-382.5 397.29,-366.985 430.527,-341.903 450.603,-325.557"/>
<polygon fill="midnightblue" stroke="midnightblue" points="452.886,-328.21 458.36,-319.139 448.424,-322.817 452.886,-328.21"/>
</g>
<!-- Node13 -->
<g id="node13" class="node"><title>Node13</title>
<g id="a_node13"><a xlink:href="classRa_1_1Asset_1_1GeometryData.html#acdad9f2b09a7d942db229ace49a4fea0" target="_top" xlink:title="Return the list of faces. ">
<polygon fill="white" stroke="black" points="401,-392.5 401,-422.5 540,-422.5 540,-392.5 401,-392.5"/>
<text text-anchor="start" x="409" y="-410.5" font-family="Helvetica,sans-Serif" font-size="10.00">Ra::Asset::GeometryData</text>
<text text-anchor="middle" x="470.5" y="-399.5" font-family="Helvetica,sans-Serif" font-size="10.00">::getFaces</text>
</a>
</g>
</g>
<!-- Node12&#45;&gt;Node13 -->
<g id="edge14" class="edge"><title>Node12&#45;&gt;Node13</title>
<path fill="none" stroke="midnightblue" d="M357.624,-407.5C368.468,-407.5 379.622,-407.5 390.491,-407.5"/>
<polygon fill="midnightblue" stroke="midnightblue" points="390.806,-411 400.806,-407.5 390.806,-404 390.806,-411"/>
</g>
<!-- Node17&#45;&gt;Node3 -->
<g id="edge22" class="edge"><title>Node17&#45;&gt;Node3</title>
<path fill="none" stroke="midnightblue" d="M352.675,-128.58C357.119,-131.112 361.287,-134.062 365,-137.5 399.047,-169.026 376.769,-195.928 401,-235.5 414.499,-257.545 435.214,-278.778 450.331,-292.801"/>
<polygon fill="midnightblue" stroke="midnightblue" points="448.309,-295.693 458.071,-299.81 453.008,-290.504 448.309,-295.693"/>
</g>
<!-- Node18 -->
<g id="node18" class="node"><title>Node18</title>
<g id="a_node18"><a xlink:href="classRa_1_1Asset_1_1GeometryData.html#a3b706a2f7490107865f20c4cb71c5777" target="_top" xlink:title="Return the list of vertex normals. ">
<polygon fill="white" stroke="black" points="401,-98.5 401,-128.5 540,-128.5 540,-98.5 401,-98.5"/>
<text text-anchor="start" x="409" y="-116.5" font-family="Helvetica,sans-Serif" font-size="10.00">Ra::Asset::GeometryData</text>
<text text-anchor="middle" x="470.5" y="-105.5" font-family="Helvetica,sans-Serif" font-size="10.00">::getNormals</text>
</a>
</g>
</g>
<!-- Node17&#45;&gt;Node18 -->
<g id="edge20" class="edge"><title>Node17&#45;&gt;Node18</title>
<path fill="none" stroke="midnightblue" d="M357.624,-113.5C368.468,-113.5 379.622,-113.5 390.491,-113.5"/>
<polygon fill="midnightblue" stroke="midnightblue" points="390.806,-117 400.806,-113.5 390.806,-110 390.806,-117"/>
</g>
<!-- Node19 -->
<g id="node19" class="node"><title>Node19</title>
<g id="a_node19"><a xlink:href="classRa_1_1Asset_1_1GeometryData.html#ad31c0f120d5e88c40afefa79c29ae28a" target="_top" xlink:title="Return the number of vertices. ">
<polygon fill="white" stroke="black" points="401,-49.5 401,-79.5 540,-79.5 540,-49.5 401,-49.5"/>
<text text-anchor="start" x="409" y="-67.5" font-family="Helvetica,sans-Serif" font-size="10.00">Ra::Asset::GeometryData</text>
<text text-anchor="middle" x="470.5" y="-56.5" font-family="Helvetica,sans-Serif" font-size="10.00">::getVerticesSize</text>
</a>
</g>
</g>
<!-- Node17&#45;&gt;Node19 -->
<g id="edge21" class="edge"><title>Node17&#45;&gt;Node19</title>
<path fill="none" stroke="midnightblue" d="M338.144,-98.4654C358.244,-93.2682 380.94,-87.3994 401.743,-82.0204"/>
<polygon fill="midnightblue" stroke="midnightblue" points="402.661,-85.3982 411.466,-79.5062 400.908,-78.6211 402.661,-85.3982"/>
</g>
<!-- Node20&#45;&gt;Node3 -->
<g id="edge25" class="edge"><title>Node20&#45;&gt;Node3</title>
<path fill="none" stroke="midnightblue" d="M342.649,-226.537C350.325,-229.148 357.944,-232.129 365,-235.5 397.646,-251.096 431.019,-276.77 451,-293.405"/>
<polygon fill="midnightblue" stroke="midnightblue" points="448.808,-296.136 458.702,-299.925 453.331,-290.793 448.808,-296.136"/>
</g>
<!-- Node21 -->
<g id="node21" class="node"><title>Node21</title>
<g id="a_node21"><a xlink:href="classRa_1_1Asset_1_1GeometryData.html#a5090ec004b5ff8a9c0de0da4c049a5bc" target="_top" xlink:title="Return the list of vertex tangent vectors. ">
<polygon fill="white" stroke="black" points="401,-196.5 401,-226.5 540,-226.5 540,-196.5 401,-196.5"/>
<text text-anchor="start" x="409" y="-214.5" font-family="Helvetica,sans-Serif" font-size="10.00">Ra::Asset::GeometryData</text>
<text text-anchor="middle" x="470.5" y="-203.5" font-family="Helvetica,sans-Serif" font-size="10.00">::getTangents</text>
</a>
</g>
</g>
<!-- Node20&#45;&gt;Node21 -->
<g id="edge24" class="edge"><title>Node20&#45;&gt;Node21</title>
<path fill="none" stroke="midnightblue" d="M357.624,-211.5C368.468,-211.5 379.622,-211.5 390.491,-211.5"/>
<polygon fill="midnightblue" stroke="midnightblue" points="390.806,-215 400.806,-211.5 390.806,-208 390.806,-215"/>
</g>
<!-- Node22&#45;&gt;Node3 -->
<g id="edge28" class="edge"><title>Node22&#45;&gt;Node3</title>
<path fill="none" stroke="midnightblue" d="M349.089,-177.654C354.695,-180.167 360.085,-183.093 365,-186.5 387.209,-201.896 383.794,-214.662 401,-235.5 417.741,-255.774 438.415,-277.729 452.646,-292.415"/>
<polygon fill="midnightblue" stroke="midnightblue" points="450.334,-295.057 459.823,-299.769 455.344,-290.168 450.334,-295.057"/>
</g>
<!-- Node23 -->
<g id="node23" class="node"><title>Node23</title>
<g id="a_node23"><a xlink:href="classRa_1_1Asset_1_1GeometryData.html#a863b5b343ec5ea7af019eebbf859b7eb" target="_top" xlink:title="Return the list of vertex bitangent vectors. ">
<polygon fill="white" stroke="black" points="401,-147.5 401,-177.5 540,-177.5 540,-147.5 401,-147.5"/>
<text text-anchor="start" x="409" y="-165.5" font-family="Helvetica,sans-Serif" font-size="10.00">Ra::Asset::GeometryData</text>
<text text-anchor="middle" x="470.5" y="-154.5" font-family="Helvetica,sans-Serif" font-size="10.00">::getBiTangents</text>
</a>
</g>
</g>
<!-- Node22&#45;&gt;Node23 -->
<g id="edge27" class="edge"><title>Node22&#45;&gt;Node23</title>
<path fill="none" stroke="midnightblue" d="M357.624,-162.5C368.468,-162.5 379.622,-162.5 390.491,-162.5"/>
<polygon fill="midnightblue" stroke="midnightblue" points="390.806,-166 400.806,-162.5 390.806,-159 390.806,-166"/>
</g>
<!-- Node24&#45;&gt;Node3 -->
<g id="edge32" class="edge"><title>Node24&#45;&gt;Node3</title>
<path fill="none" stroke="midnightblue" d="M353.911,-79.6048C357.95,-82.1371 361.698,-85.0804 365,-88.5 411.723,-136.888 369.137,-176.262 401,-235.5 413.175,-258.135 433.914,-279.146 449.391,-292.951"/>
<polygon fill="midnightblue" stroke="midnightblue" points="447.507,-295.949 457.36,-299.844 452.086,-290.655 447.507,-295.949"/>
</g>
<!-- Node24&#45;&gt;Node19 -->
<g id="edge31" class="edge"><title>Node24&#45;&gt;Node19</title>
<path fill="none" stroke="midnightblue" d="M365.05,-64.5C373.584,-64.5 382.224,-64.5 390.689,-64.5"/>
<polygon fill="midnightblue" stroke="midnightblue" points="390.909,-68.0001 400.909,-64.5 390.909,-61.0001 390.909,-68.0001"/>
</g>
<!-- Node25 -->
<g id="node25" class="node"><title>Node25</title>
<g id="a_node25"><a xlink:href="classRa_1_1Asset_1_1GeometryData.html#a55dc4072ed4026280b5e124f35d5b550" target="_top" xlink:title="Return the list of vertex texture coordinates. ">
<polygon fill="white" stroke="black" points="401,-0.5 401,-30.5 540,-30.5 540,-0.5 401,-0.5"/>
<text text-anchor="start" x="409" y="-18.5" font-family="Helvetica,sans-Serif" font-size="10.00">Ra::Asset::GeometryData</text>
<text text-anchor="middle" x="470.5" y="-7.5" font-family="Helvetica,sans-Serif" font-size="10.00">::getTexCoords</text>
</a>
</g>
</g>
<!-- Node24&#45;&gt;Node25 -->
<g id="edge30" class="edge"><title>Node24&#45;&gt;Node25</title>
<path fill="none" stroke="midnightblue" d="M338.144,-49.4654C358.244,-44.2682 380.94,-38.3994 401.743,-33.0204"/>
<polygon fill="midnightblue" stroke="midnightblue" points="402.661,-36.3982 411.466,-30.5062 400.908,-29.6211 402.661,-36.3982"/>
</g>
</g>
</svg>
