<?xml version="1.0" encoding="UTF-8" standalone="no"?>
<!DOCTYPE svg PUBLIC "-//W3C//DTD SVG 1.1//EN"
 "http://www.w3.org/Graphics/SVG/1.1/DTD/svg11.dtd">
<!-- Generated by graphviz version 2.38.0 (20140413.2041)
 -->
<!-- Title: Ra::GuiBase::TransformEditor::setEditable Pages: 1 -->
<svg width="1231pt" height="460pt"
 viewBox="0.00 0.00 1231.00 460.00" xmlns="http://www.w3.org/2000/svg" xmlns:xlink="http://www.w3.org/1999/xlink">
<g id="graph0" class="graph" transform="scale(1 1) rotate(0) translate(4 456)">
<title>Ra::GuiBase::TransformEditor::setEditable</title>
<polygon fill="white" stroke="none" points="-4,4 -4,-456 1227,-456 1227,4 -4,4"/>
<!-- Node1 -->
<g id="node1" class="node"><title>Node1</title>
<polygon fill="#bfbfbf" stroke="black" points="0,-113.5 0,-143.5 155,-143.5 155,-113.5 0,-113.5"/>
<text text-anchor="start" x="8" y="-131.5" font-family="Helvetica,sans-Serif" font-size="10.00">Ra::GuiBase::TransformEditor</text>
<text text-anchor="middle" x="77.5" y="-120.5" font-family="Helvetica,sans-Serif" font-size="10.00">::setEditable</text>
</g>
<!-- Node2 -->
<g id="node2" class="node"><title>Node2</title>
<g id="a_node2"><a xlink:href="classRa_1_1GuiBase_1_1TransformEditor.html#aecdcc853ebf6b4ae1dab2c9ee56c96ef" target="_top" xlink:title="Ra::GuiBase::TransformEditor\l::getTransform">
<polygon fill="white" stroke="black" points="191,-113.5 191,-143.5 346,-143.5 346,-113.5 191,-113.5"/>
<text text-anchor="start" x="199" y="-131.5" font-family="Helvetica,sans-Serif" font-size="10.00">Ra::GuiBase::TransformEditor</text>
<text text-anchor="middle" x="268.5" y="-120.5" font-family="Helvetica,sans-Serif" font-size="10.00">::getTransform</text>
</a>
</g>
</g>
<!-- Node1&#45;&gt;Node2 -->
<g id="edge1" class="edge"><title>Node1&#45;&gt;Node2</title>
<path fill="none" stroke="midnightblue" d="M155.101,-128.5C163.559,-128.5 172.215,-128.5 180.786,-128.5"/>
<polygon fill="midnightblue" stroke="midnightblue" points="180.79,-132 190.79,-128.5 180.79,-125 180.79,-132"/>
</g>
<!-- Node3 -->
<g id="node3" class="node"><title>Node3</title>
<g id="a_node3"><a xlink:href="classRa_1_1GuiBase_1_1TransformEditor.html#ad21b8c46ad2d5c62e309eb16b104ee2f" target="_top" xlink:title="Ra::GuiBase::TransformEditor\l::canEdit">
<polygon fill="white" stroke="black" points="382,-186.5 382,-216.5 537,-216.5 537,-186.5 382,-186.5"/>
<text text-anchor="start" x="390" y="-204.5" font-family="Helvetica,sans-Serif" font-size="10.00">Ra::GuiBase::TransformEditor</text>
<text text-anchor="middle" x="459.5" y="-193.5" font-family="Helvetica,sans-Serif" font-size="10.00">::canEdit</text>
</a>
</g>
</g>
<!-- Node2&#45;&gt;Node3 -->
<g id="edge2" class="edge"><title>Node2&#45;&gt;Node3</title>
<path fill="none" stroke="midnightblue" d="M308.661,-143.626C338.057,-154.98 378.484,-170.594 409.938,-182.743"/>
<polygon fill="midnightblue" stroke="midnightblue" points="408.8,-186.056 419.389,-186.394 411.322,-179.526 408.8,-186.056"/>
</g>
<!-- Node10 -->
<g id="node10" class="node"><title>Node10</title>
<g id="a_node10"><a xlink:href="structRa_1_1Engine_1_1ItemEntry.html#a898047549069e5b64d3a9a65c058af56" target="_top" xlink:title="Returns true if the item represents a render object. ">
<polygon fill="white" stroke="black" points="750.5,-372.5 750.5,-402.5 869.5,-402.5 869.5,-372.5 750.5,-372.5"/>
<text text-anchor="start" x="758.5" y="-390.5" font-family="Helvetica,sans-Serif" font-size="10.00">Ra::Engine::ItemEntry</text>
<text text-anchor="middle" x="810" y="-379.5" font-family="Helvetica,sans-Serif" font-size="10.00">::isRoNode</text>
</a>
</g>
</g>
<!-- Node2&#45;&gt;Node10 -->
<g id="edge28" class="edge"><title>Node2&#45;&gt;Node10</title>
<path fill="none" stroke="midnightblue" d="M282.399,-143.507C321.08,-187.276 441.576,-314.819 573,-364.5 626.745,-384.817 692.036,-389.816 740.308,-390.162"/>
<polygon fill="midnightblue" stroke="midnightblue" points="740.338,-393.662 750.34,-390.169 740.343,-386.662 740.338,-393.662"/>
</g>
<!-- Node16 -->
<g id="node16" class="node"><title>Node16</title>
<g id="a_node16"><a xlink:href="structRa_1_1Engine_1_1ItemEntry.html#a4823dfa3c113db71733979f1719f3b28" target="_top" xlink:title="Returns true if the item represents an entity. ">
<polygon fill="white" stroke="black" points="578,-137.5 578,-167.5 697,-167.5 697,-137.5 578,-137.5"/>
<text text-anchor="start" x="586" y="-155.5" font-family="Helvetica,sans-Serif" font-size="10.00">Ra::Engine::ItemEntry</text>
<text text-anchor="middle" x="637.5" y="-144.5" font-family="Helvetica,sans-Serif" font-size="10.00">::isEntityNode</text>
</a>
</g>
</g>
<!-- Node2&#45;&gt;Node16 -->
<g id="edge23" class="edge"><title>Node2&#45;&gt;Node16</title>
<path fill="none" stroke="midnightblue" d="M346.435,-133.531C411.741,-137.802 504.605,-143.875 567.53,-147.99"/>
<polygon fill="midnightblue" stroke="midnightblue" points="567.544,-151.498 577.751,-148.658 568.001,-144.513 567.544,-151.498"/>
</g>
<!-- Node18 -->
<g id="node18" class="node"><title>Node18</title>
<g id="a_node18"><a xlink:href="classRa_1_1Engine_1_1Entity.html#adfcfb0c0eb4e1663cd66473e74d83aa3" target="_top" xlink:title="Ra::Engine::Entity\l::getTransform">
<polygon fill="white" stroke="black" points="409.5,-49.5 409.5,-79.5 509.5,-79.5 509.5,-49.5 409.5,-49.5"/>
<text text-anchor="start" x="417.5" y="-67.5" font-family="Helvetica,sans-Serif" font-size="10.00">Ra::Engine::Entity</text>
<text text-anchor="middle" x="459.5" y="-56.5" font-family="Helvetica,sans-Serif" font-size="10.00">::getTransform</text>
</a>
</g>
</g>
<!-- Node2&#45;&gt;Node18 -->
<g id="edge24" class="edge"><title>Node2&#45;&gt;Node18</title>
<path fill="none" stroke="midnightblue" d="M313.812,-113.495C340.965,-104.3 375.906,-92.4683 404.649,-82.7353"/>
<polygon fill="midnightblue" stroke="midnightblue" points="405.789,-86.0444 414.138,-79.5219 403.544,-79.4142 405.789,-86.0444"/>
</g>
<!-- Node19 -->
<g id="node19" class="node"><title>Node19</title>
<g id="a_node19"><a xlink:href="structRa_1_1Engine_1_1ItemEntry.html#ac78e7430338c62ed664a16da7e3ea206" target="_top" xlink:title="Returns true if the item represents a component. ">
<polygon fill="white" stroke="black" points="750.5,-10.5 750.5,-40.5 869.5,-40.5 869.5,-10.5 750.5,-10.5"/>
<text text-anchor="start" x="758.5" y="-28.5" font-family="Helvetica,sans-Serif" font-size="10.00">Ra::Engine::ItemEntry</text>
<text text-anchor="middle" x="810" y="-17.5" font-family="Helvetica,sans-Serif" font-size="10.00">::isComponentNode</text>
</a>
</g>
</g>
<!-- Node2&#45;&gt;Node19 -->
<g id="edge25" class="edge"><title>Node2&#45;&gt;Node19</title>
<path fill="none" stroke="midnightblue" d="M346.161,-118.677C399.791,-111.405 472.995,-100.678 537,-88.5 606.707,-75.237 685.635,-56.542 740.444,-42.9642"/>
<polygon fill="midnightblue" stroke="midnightblue" points="741.529,-46.3009 750.389,-40.491 739.84,-39.5078 741.529,-46.3009"/>
</g>
<!-- Node20 -->
<g id="node20" class="node"><title>Node20</title>
<g id="a_node20"><a xlink:href="classRa_1_1Engine_1_1Component.html#aa03c2f2bbddaf75b62ed0182359a2b2d" target="_top" xlink:title="Get the transform associated with the given RO index key. ">
<polygon fill="white" stroke="black" points="395,-0.5 395,-30.5 524,-30.5 524,-0.5 395,-0.5"/>
<text text-anchor="start" x="403" y="-18.5" font-family="Helvetica,sans-Serif" font-size="10.00">Ra::Engine::Component</text>
<text text-anchor="middle" x="459.5" y="-7.5" font-family="Helvetica,sans-Serif" font-size="10.00">::getTransform</text>
</a>
</g>
</g>
<!-- Node2&#45;&gt;Node20 -->
<g id="edge29" class="edge"><title>Node2&#45;&gt;Node20</title>
<path fill="none" stroke="midnightblue" d="M284.944,-113.193C305.49,-93.5984 343.698,-59.7655 382,-39.5 385.333,-37.7363 388.818,-36.0771 392.385,-34.52"/>
<polygon fill="midnightblue" stroke="midnightblue" points="394.017,-37.6352 401.97,-30.6352 391.387,-31.1478 394.017,-37.6352"/>
</g>
<!-- Node4 -->
<g id="node4" class="node"><title>Node4</title>
<g id="a_node4"><a xlink:href="structRa_1_1Engine_1_1ItemEntry.html#aceafc81a73631955b64999dd39a639da" target="_top" xlink:title="Returns true if the item represents any valid object. ">
<polygon fill="white" stroke="black" points="578,-235.5 578,-265.5 697,-265.5 697,-235.5 578,-235.5"/>
<text text-anchor="start" x="586" y="-253.5" font-family="Helvetica,sans-Serif" font-size="10.00">Ra::Engine::ItemEntry</text>
<text text-anchor="middle" x="637.5" y="-242.5" font-family="Helvetica,sans-Serif" font-size="10.00">::isValid</text>
</a>
</g>
</g>
<!-- Node3&#45;&gt;Node4 -->
<g id="edge3" class="edge"><title>Node3&#45;&gt;Node4</title>
<path fill="none" stroke="midnightblue" d="M514.742,-216.601C533.062,-221.702 553.683,-227.443 572.675,-232.73"/>
<polygon fill="midnightblue" stroke="midnightblue" points="571.865,-236.138 582.437,-235.448 573.742,-229.395 571.865,-236.138"/>
</g>
<!-- Node14 -->
<g id="node14" class="node"><title>Node14</title>
<g id="a_node14"><a xlink:href="structRa_1_1Engine_1_1ItemEntry.html#a09e294208d0896596a42a7a6c7e78f75" target="_top" xlink:title="Returns true if the item can be selected. ">
<polygon fill="white" stroke="black" points="578,-324.5 578,-354.5 697,-354.5 697,-324.5 578,-324.5"/>
<text text-anchor="start" x="586" y="-342.5" font-family="Helvetica,sans-Serif" font-size="10.00">Ra::Engine::ItemEntry</text>
<text text-anchor="middle" x="637.5" y="-331.5" font-family="Helvetica,sans-Serif" font-size="10.00">::isSelectable</text>
</a>
</g>
</g>
<!-- Node3&#45;&gt;Node14 -->
<g id="edge15" class="edge"><title>Node3&#45;&gt;Node14</title>
<path fill="none" stroke="midnightblue" d="M479.67,-216.531C511.013,-241.106 573.325,-289.965 609.251,-318.135"/>
<polygon fill="midnightblue" stroke="midnightblue" points="607.324,-321.071 617.354,-324.487 611.644,-315.563 607.324,-321.071"/>
</g>
<!-- Node3&#45;&gt;Node16 -->
<g id="edge20" class="edge"><title>Node3&#45;&gt;Node16</title>
<path fill="none" stroke="midnightblue" d="M514.742,-186.399C533.062,-181.298 553.683,-175.557 572.675,-170.27"/>
<polygon fill="midnightblue" stroke="midnightblue" points="573.742,-173.605 582.437,-167.552 571.865,-166.862 573.742,-173.605"/>
</g>
<!-- Node17 -->
<g id="node17" class="node"><title>Node17</title>
<g id="a_node17"><a xlink:href="classRa_1_1Engine_1_1Component.html#acf64b8eb5eccf40d1ef61fef5a137c01" target="_top" xlink:title="Returns true if a transform can be edited with the render object index given as a key...">
<polygon fill="white" stroke="black" points="573,-186.5 573,-216.5 702,-216.5 702,-186.5 573,-186.5"/>
<text text-anchor="start" x="581" y="-204.5" font-family="Helvetica,sans-Serif" font-size="10.00">Ra::Engine::Component</text>
<text text-anchor="middle" x="637.5" y="-193.5" font-family="Helvetica,sans-Serif" font-size="10.00">::canEdit</text>
</a>
</g>
</g>
<!-- Node3&#45;&gt;Node17 -->
<g id="edge22" class="edge"><title>Node3&#45;&gt;Node17</title>
<path fill="none" stroke="midnightblue" d="M537.184,-201.5C545.68,-201.5 554.318,-201.5 562.776,-201.5"/>
<polygon fill="midnightblue" stroke="midnightblue" points="562.981,-205 572.981,-201.5 562.981,-198 562.981,-205"/>
</g>
<!-- Node5 -->
<g id="node5" class="node"><title>Node5</title>
<g id="a_node5"><a xlink:href="structRa_1_1Engine_1_1ItemEntry.html#a1fb9fdd74413a1fa5878f53c1cfcf8fd" target="_top" xlink:title="Debug checks. ">
<polygon fill="white" stroke="black" points="927,-54.5 927,-84.5 1046,-84.5 1046,-54.5 927,-54.5"/>
<text text-anchor="start" x="935" y="-72.5" font-family="Helvetica,sans-Serif" font-size="10.00">Ra::Engine::ItemEntry</text>
<text text-anchor="middle" x="986.5" y="-61.5" font-family="Helvetica,sans-Serif" font-size="10.00">::checkConsistency</text>
</a>
</g>
</g>
<!-- Node4&#45;&gt;Node5 -->
<g id="edge4" class="edge"><title>Node4&#45;&gt;Node5</title>
<path fill="none" stroke="midnightblue" d="M687.216,-235.488C692.445,-232.902 697.494,-229.92 702,-226.5 723.525,-210.162 715.709,-192.777 738,-177.5 792.694,-140.016 821.627,-165.914 882,-138.5 909.873,-125.843 938.611,-106.048 958.711,-90.8997"/>
<polygon fill="midnightblue" stroke="midnightblue" points="960.959,-93.5865 966.769,-84.7265 956.702,-88.0298 960.959,-93.5865"/>
</g>
<!-- Node7 -->
<g id="node7" class="node"><title>Node7</title>
<g id="a_node7"><a xlink:href="classRa_1_1Engine_1_1RadiumEngine.html#a79f6626ce468268791bc5bdfe17b5586" target="_top" xlink:title="Get the entity manager attached to the engine. ">
<polygon fill="white" stroke="black" points="739.5,-186.5 739.5,-216.5 880.5,-216.5 880.5,-186.5 739.5,-186.5"/>
<text text-anchor="start" x="747.5" y="-204.5" font-family="Helvetica,sans-Serif" font-size="10.00">Ra::Engine::RadiumEngine</text>
<text text-anchor="middle" x="810" y="-193.5" font-family="Helvetica,sans-Serif" font-size="10.00">::getEntityManager</text>
</a>
</g>
</g>
<!-- Node4&#45;&gt;Node7 -->
<g id="edge6" class="edge"><title>Node4&#45;&gt;Node7</title>
<path fill="none" stroke="midnightblue" d="M691.047,-235.399C708.713,-230.321 728.587,-224.61 746.916,-219.342"/>
<polygon fill="midnightblue" stroke="midnightblue" points="747.982,-222.678 756.627,-216.552 746.049,-215.95 747.982,-222.678"/>
</g>
<!-- Node8 -->
<g id="node8" class="node"><title>Node8</title>
<g id="a_node8"><a xlink:href="classRa_1_1Engine_1_1EntityManager.html#a5115cccae6aaef614ad4bd08e64d8185" target="_top" xlink:title="Check wether an entity with a given name exists or not. ">
<polygon fill="white" stroke="black" points="739,-98.5 739,-128.5 881,-128.5 881,-98.5 739,-98.5"/>
<text text-anchor="start" x="747" y="-116.5" font-family="Helvetica,sans-Serif" font-size="10.00">Ra::Engine::EntityManager</text>
<text text-anchor="middle" x="810" y="-105.5" font-family="Helvetica,sans-Serif" font-size="10.00">::entityExists</text>
</a>
</g>
</g>
<!-- Node4&#45;&gt;Node8 -->
<g id="edge7" class="edge"><title>Node4&#45;&gt;Node8</title>
<path fill="none" stroke="midnightblue" d="M689.922,-235.386C694.301,-232.856 698.417,-229.915 702,-226.5 731.105,-198.757 709.433,-171.797 738,-143.5 741.708,-139.827 745.933,-136.577 750.434,-133.707"/>
<polygon fill="midnightblue" stroke="midnightblue" points="752.39,-136.62 759.361,-128.642 748.936,-130.532 752.39,-136.62"/>
</g>
<!-- Node9 -->
<g id="node9" class="node"><title>Node9</title>
<g id="a_node9"><a xlink:href="classRa_1_1Engine_1_1Entity.html#aaf256bea44bbc5bff6aa504aca05ca35" target="_top" xlink:title="Ra::Engine::Entity\l::getName">
<polygon fill="white" stroke="black" points="760,-235.5 760,-265.5 860,-265.5 860,-235.5 760,-235.5"/>
<text text-anchor="start" x="768" y="-253.5" font-family="Helvetica,sans-Serif" font-size="10.00">Ra::Engine::Entity</text>
<text text-anchor="middle" x="810" y="-242.5" font-family="Helvetica,sans-Serif" font-size="10.00">::getName</text>
</a>
</g>
</g>
<!-- Node4&#45;&gt;Node9 -->
<g id="edge8" class="edge"><title>Node4&#45;&gt;Node9</title>
<path fill="none" stroke="midnightblue" d="M697.176,-250.5C714.088,-250.5 732.55,-250.5 749.51,-250.5"/>
<polygon fill="midnightblue" stroke="midnightblue" points="749.849,-254 759.849,-250.5 749.849,-247 749.849,-254"/>
</g>
<!-- Node4&#45;&gt;Node10 -->
<g id="edge9" class="edge"><title>Node4&#45;&gt;Node10</title>
<path fill="none" stroke="midnightblue" d="M654.489,-265.72C667.701,-278.561 686.703,-297.653 702,-315.5 719.354,-335.747 716.4,-347.862 738,-363.5 740.075,-365.002 742.251,-366.415 744.499,-367.744"/>
<polygon fill="midnightblue" stroke="midnightblue" points="742.996,-370.908 753.476,-372.462 746.252,-364.711 742.996,-370.908"/>
</g>
<!-- Node12 -->
<g id="node12" class="node"><title>Node12</title>
<g id="a_node12"><a xlink:href="classRa_1_1Engine_1_1RadiumEngine.html#a58b27bc600ea769f68b0e2938abc7862" target="_top" xlink:title="Manager getters. ">
<polygon fill="white" stroke="black" points="738,-323.5 738,-353.5 882,-353.5 882,-323.5 738,-323.5"/>
<text text-anchor="start" x="746" y="-341.5" font-family="Helvetica,sans-Serif" font-size="10.00">Ra::Engine::RadiumEngine</text>
<text text-anchor="middle" x="810" y="-330.5" font-family="Helvetica,sans-Serif" font-size="10.00">::getRenderObjectManager</text>
</a>
</g>
</g>
<!-- Node4&#45;&gt;Node12 -->
<g id="edge12" class="edge"><title>Node4&#45;&gt;Node12</title>
<path fill="none" stroke="midnightblue" d="M662.553,-265.691C682.413,-277.946 711.533,-295.263 738,-308.5 745.402,-312.202 753.373,-315.867 761.204,-319.296"/>
<polygon fill="midnightblue" stroke="midnightblue" points="760.07,-322.618 770.64,-323.348 762.832,-316.186 760.07,-322.618"/>
</g>
<!-- Node13 -->
<g id="node13" class="node"><title>Node13</title>
<g id="a_node13"><a xlink:href="classRa_1_1Engine_1_1RenderObjectManager.html#a4077b9cf9e1e4d62fd5456386f2d72c8" target="_top" xlink:title="Returns true if the index points to a valid render object. ">
<polygon fill="white" stroke="black" points="918,-416.5 918,-446.5 1055,-446.5 1055,-416.5 918,-416.5"/>
<text text-anchor="start" x="926" y="-434.5" font-family="Helvetica,sans-Serif" font-size="10.00">Ra::Engine::RenderObject</text>
<text text-anchor="middle" x="986.5" y="-423.5" font-family="Helvetica,sans-Serif" font-size="10.00">Manager::exists</text>
</a>
</g>
</g>
<!-- Node4&#45;&gt;Node13 -->
<g id="edge13" class="edge"><title>Node4&#45;&gt;Node13</title>
<path fill="none" stroke="midnightblue" d="M697.115,-265.46C767.871,-283.584 877.969,-312.019 882,-314.5 920.632,-338.281 952.969,-380.939 970.743,-407.65"/>
<polygon fill="midnightblue" stroke="midnightblue" points="968.027,-409.895 976.409,-416.377 973.898,-406.083 968.027,-409.895"/>
</g>
<!-- Node6 -->
<g id="node6" class="node"><title>Node6</title>
<g id="a_node6"><a xlink:href="classRa_1_1Core_1_1Index.html#a7283e7fb9cc134e04ef3cde8877f8fe2" target="_top" xlink:title="INVALID. ">
<polygon fill="white" stroke="black" points="1091,-38 1091,-57 1223,-57 1223,-38 1091,-38"/>
<text text-anchor="middle" x="1157" y="-45" font-family="Helvetica,sans-Serif" font-size="10.00">Ra::Core::Index::isInvalid</text>
</a>
</g>
</g>
<!-- Node5&#45;&gt;Node6 -->
<g id="edge5" class="edge"><title>Node5&#45;&gt;Node6</title>
<path fill="none" stroke="midnightblue" d="M1046.43,-61.8055C1057.52,-60.3583 1069.24,-58.8271 1080.75,-57.3253"/>
<polygon fill="midnightblue" stroke="midnightblue" points="1081.31,-60.7814 1090.77,-56.0161 1080.41,-53.8403 1081.31,-60.7814"/>
</g>
<!-- Node10&#45;&gt;Node5 -->
<g id="edge10" class="edge"><title>Node10&#45;&gt;Node5</title>
<path fill="none" stroke="midnightblue" d="M869.776,-372.687C874.231,-370.102 878.389,-367.066 882,-363.5 958.883,-287.573 978.798,-151.214 983.84,-94.8973"/>
<polygon fill="midnightblue" stroke="midnightblue" points="987.343,-94.9928 984.662,-84.7429 980.366,-94.4277 987.343,-94.9928"/>
</g>
<!-- Node11 -->
<g id="node11" class="node"><title>Node11</title>
<g id="a_node11"><a xlink:href="classRa_1_1Core_1_1Index.html#a87c70243f30c65c1a24834d1829bda01" target="_top" xlink:title="DESTRUCTOR: Must not be defined, we need it trivial to be constexpr. ">
<polygon fill="white" stroke="black" points="1094.5,-400 1094.5,-419 1219.5,-419 1219.5,-400 1094.5,-400"/>
<text text-anchor="middle" x="1157" y="-407" font-family="Helvetica,sans-Serif" font-size="10.00">Ra::Core::Index::isValid</text>
</a>
</g>
</g>
<!-- Node10&#45;&gt;Node11 -->
<g id="edge11" class="edge"><title>Node10&#45;&gt;Node11</title>
<path fill="none" stroke="midnightblue" d="M869.525,-391.232C928.71,-395.006 1020.3,-400.846 1083.92,-404.904"/>
<polygon fill="midnightblue" stroke="midnightblue" points="1084.07,-408.42 1094.27,-405.564 1084.52,-401.434 1084.07,-408.42"/>
</g>
<!-- Node13&#45;&gt;Node11 -->
<g id="edge14" class="edge"><title>Node13&#45;&gt;Node11</title>
<path fill="none" stroke="midnightblue" d="M1055.06,-422.679C1064.71,-421.419 1074.67,-420.119 1084.39,-418.85"/>
<polygon fill="midnightblue" stroke="midnightblue" points="1084.96,-422.306 1094.42,-417.54 1084.05,-415.364 1084.96,-422.306"/>
</g>
<!-- Node14&#45;&gt;Node10 -->
<g id="edge16" class="edge"><title>Node14&#45;&gt;Node10</title>
<path fill="none" stroke="midnightblue" d="M691.979,-354.556C709.119,-359.381 728.258,-364.769 746.011,-369.767"/>
<polygon fill="midnightblue" stroke="midnightblue" points="745.136,-373.157 755.71,-372.498 747.033,-366.419 745.136,-373.157"/>
</g>
<!-- Node14&#45;&gt;Node12 -->
<g id="edge17" class="edge"><title>Node14&#45;&gt;Node12</title>
<path fill="none" stroke="midnightblue" d="M697.176,-339.156C707.002,-339.098 717.35,-339.038 727.624,-338.977"/>
<polygon fill="midnightblue" stroke="midnightblue" points="727.871,-342.476 737.85,-338.917 727.83,-335.476 727.871,-342.476"/>
</g>
<!-- Node15 -->
<g id="node15" class="node"><title>Node15</title>
<g id="a_node15"><a xlink:href="classRa_1_1Engine_1_1RenderObjectManager.html#a32bd0db0d9620bb7e3f0fe50b541dae3" target="_top" xlink:title="Returns the render object corresponding to the given index. ">
<polygon fill="white" stroke="black" points="738,-421.5 738,-451.5 882,-451.5 882,-421.5 738,-421.5"/>
<text text-anchor="start" x="746" y="-439.5" font-family="Helvetica,sans-Serif" font-size="10.00">Ra::Engine::RenderObject</text>
<text text-anchor="middle" x="810" y="-428.5" font-family="Helvetica,sans-Serif" font-size="10.00">Manager::getRenderObject</text>
</a>
</g>
</g>
<!-- Node14&#45;&gt;Node15 -->
<g id="edge18" class="edge"><title>Node14&#45;&gt;Node15</title>
<path fill="none" stroke="midnightblue" d="M655.736,-354.727C674.758,-370.891 706.825,-396.291 738,-412.5 741.472,-414.305 745.109,-416.018 748.823,-417.634"/>
<polygon fill="midnightblue" stroke="midnightblue" points="747.585,-420.909 758.166,-421.453 750.234,-414.43 747.585,-420.909"/>
</g>
<!-- Node15&#45;&gt;Node13 -->
<g id="edge19" class="edge"><title>Node15&#45;&gt;Node13</title>
<path fill="none" stroke="midnightblue" d="M882.228,-434.459C890.602,-434.219 899.181,-433.973 907.641,-433.731"/>
<polygon fill="midnightblue" stroke="midnightblue" points="907.984,-437.223 917.879,-433.438 907.783,-430.226 907.984,-437.223"/>
</g>
<!-- Node16&#45;&gt;Node5 -->
<g id="edge21" class="edge"><title>Node16&#45;&gt;Node5</title>
<path fill="none" stroke="midnightblue" d="M675.517,-137.417C684.492,-133.117 693.844,-128.069 702,-122.5 720.175,-110.09 717.876,-97.4081 738,-88.5 794.524,-63.4794 865.407,-60.5321 916.813,-62.7777"/>
<polygon fill="midnightblue" stroke="midnightblue" points="916.658,-66.2743 926.825,-63.2911 917.017,-59.2835 916.658,-66.2743"/>
</g>
<!-- Node19&#45;&gt;Node5 -->
<g id="edge26" class="edge"><title>Node19&#45;&gt;Node5</title>
<path fill="none" stroke="midnightblue" d="M869.591,-40.2738C884.698,-44.083 901.095,-48.2174 916.671,-52.1448"/>
<polygon fill="midnightblue" stroke="midnightblue" points="916.214,-55.6391 926.766,-54.6903 917.925,-48.8515 916.214,-55.6391"/>
</g>
<!-- Node19&#45;&gt;Node6 -->
<g id="edge27" class="edge"><title>Node19&#45;&gt;Node6</title>
<path fill="none" stroke="midnightblue" d="M869.525,-29.232C927.617,-32.9364 1016.92,-38.6314 1080.37,-42.677"/>
<polygon fill="midnightblue" stroke="midnightblue" points="1080.51,-46.1931 1090.71,-43.3367 1080.96,-39.2073 1080.51,-46.1931"/>
</g>
</g>
</svg>
