<?xml version="1.0" encoding="UTF-8" standalone="no"?>
<!DOCTYPE svg PUBLIC "-//W3C//DTD SVG 1.1//EN"
 "http://www.w3.org/Graphics/SVG/1.1/DTD/svg11.dtd">
<!-- Generated by graphviz version 2.38.0 (20140413.2041)
 -->
<!-- Title: Ra::Engine::ShaderProgramManager::addShaderProgram Pages: 1 -->
<svg width="575pt" height="88pt"
 viewBox="0.00 0.00 575.00 88.00" xmlns="http://www.w3.org/2000/svg" xmlns:xlink="http://www.w3.org/1999/xlink">
<g id="graph0" class="graph" transform="scale(1 1) rotate(0) translate(4 84)">
<title>Ra::Engine::ShaderProgramManager::addShaderProgram</title>
<polygon fill="white" stroke="none" points="-4,4 -4,-84 571,-84 571,4 -4,4"/>
<!-- Node1 -->
<g id="node1" class="node"><title>Node1</title>
<polygon fill="#bfbfbf" stroke="black" points="0,-24.5 0,-54.5 158,-54.5 158,-24.5 0,-24.5"/>
<text text-anchor="start" x="8" y="-42.5" font-family="Helvetica,sans-Serif" font-size="10.00">Ra::Engine::ShaderProgram</text>
<text text-anchor="middle" x="79" y="-31.5" font-family="Helvetica,sans-Serif" font-size="10.00">Manager::addShaderProgram</text>
</g>
<!-- Node2 -->
<g id="node2" class="node"><title>Node2</title>
<g id="a_node2"><a xlink:href="namespaceRa_1_1Core_1_1StringUtils.html#a63b10a7c14473b4aa762cf00e0432690" target="_top" xlink:title="Writes a formatted print into the given string, similarly to sprintf. ">
<polygon fill="white" stroke="black" points="233,-49.5 233,-79.5 346,-79.5 346,-49.5 233,-49.5"/>
<text text-anchor="start" x="241" y="-67.5" font-family="Helvetica,sans-Serif" font-size="10.00">Ra::Core::StringUtils</text>
<text text-anchor="middle" x="289.5" y="-56.5" font-family="Helvetica,sans-Serif" font-size="10.00">::stringPrintf</text>
</a>
</g>
</g>
<!-- Node1&#45;&gt;Node2 -->
<g id="edge1" class="edge"><title>Node1&#45;&gt;Node2</title>
<path fill="none" stroke="midnightblue" d="M158.231,-48.8802C179.484,-51.4285 202.278,-54.1617 222.764,-56.618"/>
<polygon fill="midnightblue" stroke="midnightblue" points="222.585,-60.1215 232.931,-57.837 223.419,-53.1713 222.585,-60.1215"/>
</g>
<!-- Node4 -->
<g id="node4" class="node"><title>Node4</title>
<g id="a_node4"><a xlink:href="classRa_1_1Engine_1_1ShaderProgramManager.html#afec9eb5d3df9d0d0ee97fc9404fcf0e5" target="_top" xlink:title="Get the system default program. ">
<polygon fill="white" stroke="black" points="194,-0.5 194,-30.5 385,-30.5 385,-0.5 194,-0.5"/>
<text text-anchor="start" x="202" y="-18.5" font-family="Helvetica,sans-Serif" font-size="10.00">Ra::Engine::ShaderProgram</text>
<text text-anchor="middle" x="289.5" y="-7.5" font-family="Helvetica,sans-Serif" font-size="10.00">Manager::getDefaultShaderProgram</text>
</a>
</g>
</g>
<!-- Node1&#45;&gt;Node4 -->
<g id="edge3" class="edge"><title>Node1&#45;&gt;Node4</title>
<path fill="none" stroke="midnightblue" d="M158.231,-30.495C166.536,-29.539 175.077,-28.5559 183.623,-27.5721"/>
<polygon fill="midnightblue" stroke="midnightblue" points="184.11,-31.0393 193.645,-26.4186 183.31,-24.0852 184.11,-31.0393"/>
</g>
<!-- Node3 -->
<g id="node3" class="node"><title>Node3</title>
<g id="a_node3"><a xlink:href="namespaceRa_1_1Core_1_1StringUtils.html#ac348328b878bb8f1b1c1a3335ea20c4b" target="_top" xlink:title="Ra::Core::StringUtils\l::stringvPrintf">
<polygon fill="white" stroke="black" points="437.5,-49.5 437.5,-79.5 550.5,-79.5 550.5,-49.5 437.5,-49.5"/>
<text text-anchor="start" x="445.5" y="-67.5" font-family="Helvetica,sans-Serif" font-size="10.00">Ra::Core::StringUtils</text>
<text text-anchor="middle" x="494" y="-56.5" font-family="Helvetica,sans-Serif" font-size="10.00">::stringvPrintf</text>
</a>
</g>
</g>
<!-- Node2&#45;&gt;Node3 -->
<g id="edge2" class="edge"><title>Node2&#45;&gt;Node3</title>
<path fill="none" stroke="midnightblue" d="M346.102,-64.5C371.116,-64.5 400.832,-64.5 426.97,-64.5"/>
<polygon fill="midnightblue" stroke="midnightblue" points="427.171,-68.0001 437.171,-64.5 427.171,-61.0001 427.171,-68.0001"/>
</g>
<!-- Node5 -->
<g id="node5" class="node"><title>Node5</title>
<g id="a_node5"><a xlink:href="namespaceRa_1_1Engine.html#a4d2c5e4a673763dfafc72cb74965b95f" target="_top" xlink:title="Ra::Engine::RA_SINGLETON\l_IMPLEMENTATION">
<polygon fill="white" stroke="black" points="421,-0.5 421,-30.5 567,-30.5 567,-0.5 421,-0.5"/>
<text text-anchor="start" x="429" y="-18.5" font-family="Helvetica,sans-Serif" font-size="10.00">Ra::Engine::RA_SINGLETON</text>
<text text-anchor="middle" x="494" y="-7.5" font-family="Helvetica,sans-Serif" font-size="10.00">_IMPLEMENTATION</text>
</a>
</g>
</g>
<!-- Node4&#45;&gt;Node5 -->
<g id="edge4" class="edge"><title>Node4&#45;&gt;Node5</title>
<path fill="none" stroke="midnightblue" d="M385.228,-15.5C393.717,-15.5 402.267,-15.5 410.639,-15.5"/>
<polygon fill="midnightblue" stroke="midnightblue" points="410.746,-19.0001 420.746,-15.5 410.746,-12.0001 410.746,-19.0001"/>
</g>
</g>
</svg>
