<?xml version="1.0" encoding="UTF-8" standalone="no"?>
<!DOCTYPE svg PUBLIC "-//W3C//DTD SVG 1.1//EN"
 "http://www.w3.org/Graphics/SVG/1.1/DTD/svg11.dtd">
<!-- Generated by graphviz version 2.38.0 (20140413.2041)
 -->
<!-- Title: Ra::Core::TriangleMesh::copyBaseGeometry Pages: 1 -->
<svg width="467pt" height="88pt"
 viewBox="0.00 0.00 467.00 88.00" xmlns="http://www.w3.org/2000/svg" xmlns:xlink="http://www.w3.org/1999/xlink">
<g id="graph0" class="graph" transform="scale(1 1) rotate(0) translate(4 84)">
<title>Ra::Core::TriangleMesh::copyBaseGeometry</title>
<polygon fill="white" stroke="none" points="-4,4 -4,-84 463,-84 463,4 -4,4"/>
<!-- Node1 -->
<g id="node1" class="node"><title>Node1</title>
<polygon fill="#bfbfbf" stroke="black" points="0,-24.5 0,-54.5 125,-54.5 125,-24.5 0,-24.5"/>
<text text-anchor="start" x="8" y="-42.5" font-family="Helvetica,sans-Serif" font-size="10.00">Ra::Core::TriangleMesh</text>
<text text-anchor="middle" x="62.5" y="-31.5" font-family="Helvetica,sans-Serif" font-size="10.00">::copyBaseGeometry</text>
</g>
<!-- Node2 -->
<g id="node2" class="node"><title>Node2</title>
<g id="a_node2"><a xlink:href="classRa_1_1Core_1_1TriangleMesh.html#aa838b995226a922fc10f2f8f4c6dec31" target="_top" xlink:title="Erases all data, making the mesh empty. ">
<polygon fill="white" stroke="black" points="164,-49.5 164,-79.5 289,-79.5 289,-49.5 164,-49.5"/>
<text text-anchor="start" x="172" y="-67.5" font-family="Helvetica,sans-Serif" font-size="10.00">Ra::Core::TriangleMesh</text>
<text text-anchor="middle" x="226.5" y="-56.5" font-family="Helvetica,sans-Serif" font-size="10.00">::clear</text>
</a>
</g>
</g>
<!-- Node1&#45;&gt;Node2 -->
<g id="edge1" class="edge"><title>Node1&#45;&gt;Node2</title>
<path fill="none" stroke="midnightblue" d="M125.207,-49.0227C134.631,-50.477 144.425,-51.9884 154.036,-53.4717"/>
<polygon fill="midnightblue" stroke="midnightblue" points="153.547,-56.9375 163.964,-55.0037 154.615,-50.0194 153.547,-56.9375"/>
</g>
<!-- Node4 -->
<g id="node4" class="node"><title>Node4</title>
<g id="a_node4"><a xlink:href="classRa_1_1Core_1_1AttribManager.html#ab973dc08cbca7da7108c40bb56c4a708" target="_top" xlink:title="Base copy, does nothing. ">
<polygon fill="white" stroke="black" points="161,-0.5 161,-30.5 292,-30.5 292,-0.5 161,-0.5"/>
<text text-anchor="start" x="169" y="-18.5" font-family="Helvetica,sans-Serif" font-size="10.00">Ra::Core::AttribManager</text>
<text text-anchor="middle" x="226.5" y="-7.5" font-family="Helvetica,sans-Serif" font-size="10.00">::copyAttributes</text>
</a>
</g>
</g>
<!-- Node1&#45;&gt;Node4 -->
<g id="edge3" class="edge"><title>Node1&#45;&gt;Node4</title>
<path fill="none" stroke="midnightblue" d="M125.207,-30.3582C133.562,-29.1204 142.208,-27.8396 150.76,-26.5726"/>
<polygon fill="midnightblue" stroke="midnightblue" points="151.354,-30.0229 160.733,-25.0951 150.328,-23.0985 151.354,-30.0229"/>
</g>
<!-- Node3 -->
<g id="node3" class="node"><title>Node3</title>
<g id="a_node3"><a xlink:href="classRa_1_1Core_1_1AttribManager.html#ae53b7e22a2098c6151c6b2702569a3be" target="_top" xlink:title="clear all attribs, invalidate handles. ">
<polygon fill="white" stroke="black" points="328,-49.5 328,-79.5 459,-79.5 459,-49.5 328,-49.5"/>
<text text-anchor="start" x="336" y="-67.5" font-family="Helvetica,sans-Serif" font-size="10.00">Ra::Core::AttribManager</text>
<text text-anchor="middle" x="393.5" y="-56.5" font-family="Helvetica,sans-Serif" font-size="10.00">::clear</text>
</a>
</g>
</g>
<!-- Node2&#45;&gt;Node3 -->
<g id="edge2" class="edge"><title>Node2&#45;&gt;Node3</title>
<path fill="none" stroke="midnightblue" d="M289.409,-64.5C298.609,-64.5 308.175,-64.5 317.606,-64.5"/>
<polygon fill="midnightblue" stroke="midnightblue" points="317.764,-68.0001 327.764,-64.5 317.764,-61.0001 317.764,-68.0001"/>
</g>
</g>
</svg>
