<?xml version="1.0" encoding="UTF-8" standalone="no"?>
<!DOCTYPE svg PUBLIC "-//W3C//DTD SVG 1.1//EN"
 "http://www.w3.org/Graphics/SVG/1.1/DTD/svg11.dtd">
<!-- Generated by graphviz version 2.38.0 (20140413.2041)
 -->
<!-- Title: Ra::Core::Obb::~Obb Pages: 1 -->
<svg width="306pt" height="142pt"
 viewBox="0.00 0.00 306.00 142.00" xmlns="http://www.w3.org/2000/svg" xmlns:xlink="http://www.w3.org/1999/xlink">
<g id="graph0" class="graph" transform="scale(1 1) rotate(0) translate(4 138)">
<title>Ra::Core::Obb::~Obb</title>
<polygon fill="white" stroke="none" points="-4,4 -4,-138 302,-138 302,4 -4,4"/>
<!-- Node1 -->
<g id="node1" class="node"><title>Node1</title>
<polygon fill="#bfbfbf" stroke="black" points="0,-57.5 0,-76.5 116,-76.5 116,-57.5 0,-57.5"/>
<text text-anchor="middle" x="58" y="-64.5" font-family="Helvetica,sans-Serif" font-size="10.00">Ra::Core::Obb::~Obb</text>
</g>
<!-- Node2 -->
<g id="node2" class="node"><title>Node2</title>
<g id="a_node2"><a xlink:href="classRa_1_1Core_1_1Obb.html#a436b8de325944f97cc31262e5c3d8fc0" target="_top" xlink:title="Return the AABB enclosing this. ">
<polygon fill="white" stroke="black" points="163.5,-114.5 163.5,-133.5 286.5,-133.5 286.5,-114.5 163.5,-114.5"/>
<text text-anchor="middle" x="225" y="-121.5" font-family="Helvetica,sans-Serif" font-size="10.00">Ra::Core::Obb::toAabb</text>
</a>
</g>
</g>
<!-- Node1&#45;&gt;Node2 -->
<g id="edge1" class="edge"><title>Node1&#45;&gt;Node2</title>
<path fill="none" stroke="midnightblue" d="M80.1275,-76.553C98.787,-84.7673 126.859,-96.5861 152,-105 159.16,-107.396 166.801,-109.688 174.331,-111.799"/>
<polygon fill="midnightblue" stroke="midnightblue" points="173.547,-115.212 184.115,-114.462 175.385,-108.458 173.547,-115.212"/>
</g>
<!-- Node3 -->
<g id="node3" class="node"><title>Node3</title>
<g id="a_node3"><a xlink:href="classRa_1_1Core_1_1Obb.html#a4c2ff00e7195a611f42d9c976819e879" target="_top" xlink:title="Extends the OBB with an new point. ">
<polygon fill="white" stroke="black" points="159.5,-76.5 159.5,-95.5 290.5,-95.5 290.5,-76.5 159.5,-76.5"/>
<text text-anchor="middle" x="225" y="-83.5" font-family="Helvetica,sans-Serif" font-size="10.00">Ra::Core::Obb::addPoint</text>
</a>
</g>
</g>
<!-- Node1&#45;&gt;Node3 -->
<g id="edge2" class="edge"><title>Node1&#45;&gt;Node3</title>
<path fill="none" stroke="midnightblue" d="M116.246,-73.592C126.864,-74.8147 138.1,-76.1085 149.151,-77.381"/>
<polygon fill="midnightblue" stroke="midnightblue" points="148.89,-80.8741 159.225,-78.5411 149.691,-73.92 148.89,-80.8741"/>
</g>
<!-- Node4 -->
<g id="node4" class="node"><title>Node4</title>
<g id="a_node4"><a xlink:href="classRa_1_1Core_1_1Obb.html#a7e8e2c7783d77b636f4433c6de6790f3" target="_top" xlink:title="Returns the position of the i^th corner of AABB (model space) ">
<polygon fill="white" stroke="black" points="165.5,-38.5 165.5,-57.5 284.5,-57.5 284.5,-38.5 165.5,-38.5"/>
<text text-anchor="middle" x="225" y="-45.5" font-family="Helvetica,sans-Serif" font-size="10.00">Ra::Core::Obb::corner</text>
</a>
</g>
</g>
<!-- Node1&#45;&gt;Node4 -->
<g id="edge3" class="edge"><title>Node1&#45;&gt;Node4</title>
<path fill="none" stroke="midnightblue" d="M116.246,-60.408C128.805,-58.9619 142.228,-57.4162 155.188,-55.9239"/>
<polygon fill="midnightblue" stroke="midnightblue" points="155.922,-59.3625 165.456,-54.7414 155.121,-52.4084 155.922,-59.3625"/>
</g>
<!-- Node5 -->
<g id="node5" class="node"><title>Node5</title>
<g id="a_node5"><a xlink:href="classRa_1_1Core_1_1Obb.html#a424c8f35cbab351ee9570f6b0f1db85a" target="_top" xlink:title="Returns the position of the ith corner of the OBB ( world space ) ">
<polygon fill="white" stroke="black" points="152,-0.5 152,-19.5 298,-19.5 298,-0.5 152,-0.5"/>
<text text-anchor="middle" x="225" y="-7.5" font-family="Helvetica,sans-Serif" font-size="10.00">Ra::Core::Obb::worldCorner</text>
</a>
</g>
</g>
<!-- Node1&#45;&gt;Node5 -->
<g id="edge4" class="edge"><title>Node1&#45;&gt;Node5</title>
<path fill="none" stroke="midnightblue" d="M80.1275,-57.447C98.787,-49.2327 126.859,-37.4139 152,-29 159.16,-26.6036 166.801,-24.3117 174.331,-22.2014"/>
<polygon fill="midnightblue" stroke="midnightblue" points="175.385,-25.5418 184.115,-19.5382 173.547,-18.7875 175.385,-25.5418"/>
</g>
</g>
</svg>
