<?xml version="1.0" encoding="UTF-8" standalone="no"?>
<!DOCTYPE svg PUBLIC "-//W3C//DTD SVG 1.1//EN"
 "http://www.w3.org/Graphics/SVG/1.1/DTD/svg11.dtd">
<!-- Generated by graphviz version 2.38.0 (20140413.2041)
 -->
<!-- Title: Ra::IO::AssimpCameraDataLoader::loadCameraData Pages: 1 -->
<svg width="503pt" height="523pt"
 viewBox="0.00 0.00 503.00 523.14" xmlns="http://www.w3.org/2000/svg" xmlns:xlink="http://www.w3.org/1999/xlink">
<g id="graph0" class="graph" transform="scale(1 1) rotate(0) translate(4 519.144)">
<title>Ra::IO::AssimpCameraDataLoader::loadCameraData</title>
<polygon fill="white" stroke="none" points="-4,4 -4,-519.144 499,-519.144 499,4 -4,4"/>
<!-- Node1 -->
<g id="node1" class="node"><title>Node1</title>
<polygon fill="#bfbfbf" stroke="black" points="0,-245.5 0,-275.5 147,-275.5 147,-245.5 0,-245.5"/>
<text text-anchor="start" x="8" y="-263.5" font-family="Helvetica,sans-Serif" font-size="10.00">Ra::IO::AssimpCameraData</text>
<text text-anchor="middle" x="73.5" y="-252.5" font-family="Helvetica,sans-Serif" font-size="10.00">Loader::loadCameraData</text>
</g>
<!-- Node2 -->
<g id="node2" class="node"><title>Node2</title>
<g id="a_node2"><a xlink:href="classRa_1_1IO_1_1AssimpCameraDataLoader.html#a5ca93e8ff210412d4f45933127bd1911" target="_top" xlink:title="Fill data with the camera name from camera. ">
<polygon fill="white" stroke="black" points="183,-441.5 183,-471.5 330,-471.5 330,-441.5 183,-441.5"/>
<text text-anchor="start" x="191" y="-459.5" font-family="Helvetica,sans-Serif" font-size="10.00">Ra::IO::AssimpCameraData</text>
<text text-anchor="middle" x="256.5" y="-448.5" font-family="Helvetica,sans-Serif" font-size="10.00">Loader::fetchName</text>
</a>
</g>
</g>
<!-- Node1&#45;&gt;Node2 -->
<g id="edge1" class="edge"><title>Node1&#45;&gt;Node2</title>
<path fill="none" stroke="midnightblue" d="M79.9154,-275.594C92.6198,-308.887 127.523,-389.101 183,-432.5 184.782,-433.894 186.648,-435.209 188.58,-436.448"/>
<polygon fill="midnightblue" stroke="midnightblue" points="186.978,-439.563 197.409,-441.419 190.412,-433.463 186.978,-439.563"/>
</g>
<!-- Node3 -->
<g id="node3" class="node"><title>Node3</title>
<g id="a_node3"><a xlink:href="namespaceRa_1_1IO.html#aef6c50424873964fcea0008be55d4a34" target="_top" xlink:title="Ra::IO::assimpToCore">
<polygon fill="white" stroke="black" points="372,-491 372,-510 489,-510 489,-491 372,-491"/>
<text text-anchor="middle" x="430.5" y="-498" font-family="Helvetica,sans-Serif" font-size="10.00">Ra::IO::assimpToCore</text>
</a>
</g>
</g>
<!-- Node1&#45;&gt;Node3 -->
<g id="edge6" class="edge"><title>Node1&#45;&gt;Node3</title>
<path fill="none" stroke="midnightblue" d="M76.7512,-275.634C83.7757,-316.9 109.407,-431.619 183,-481.5 238.075,-518.83 316.829,-517.919 370.395,-511.391"/>
<polygon fill="midnightblue" stroke="midnightblue" points="370.969,-514.845 380.425,-510.067 370.053,-507.905 370.969,-514.845"/>
</g>
<!-- Node5 -->
<g id="node5" class="node"><title>Node5</title>
<g id="a_node5"><a xlink:href="classRa_1_1IO_1_1AssimpCameraDataLoader.html#a96d4a726a53ae6044a374be9a3144b1f" target="_top" xlink:title="Return the Camera transformation, in world space, for data from the scene. ">
<polygon fill="white" stroke="black" points="183,-392.5 183,-422.5 330,-422.5 330,-392.5 183,-392.5"/>
<text text-anchor="start" x="191" y="-410.5" font-family="Helvetica,sans-Serif" font-size="10.00">Ra::IO::AssimpCameraData</text>
<text text-anchor="middle" x="256.5" y="-399.5" font-family="Helvetica,sans-Serif" font-size="10.00">Loader::loadCameraFrame</text>
</a>
</g>
</g>
<!-- Node1&#45;&gt;Node5 -->
<g id="edge4" class="edge"><title>Node1&#45;&gt;Node5</title>
<path fill="none" stroke="midnightblue" d="M83.9448,-275.679C100.756,-301.489 138.334,-353.992 183,-383.5 185.437,-385.11 187.992,-386.621 190.626,-388.037"/>
<polygon fill="midnightblue" stroke="midnightblue" points="189.305,-391.287 199.83,-392.498 192.358,-384.987 189.305,-391.287"/>
</g>
<!-- Node7 -->
<g id="node7" class="node"><title>Node7</title>
<g id="a_node7"><a xlink:href="namespaceRa_1_1Core_1_1MatrixUtils.html#acc2bdc892f1b307610612b0e53f407e3" target="_top" xlink:title="Ra::Core::MatrixUtils\l::lookAt">
<polygon fill="white" stroke="black" points="200,-343.5 200,-373.5 313,-373.5 313,-343.5 200,-343.5"/>
<text text-anchor="start" x="208" y="-361.5" font-family="Helvetica,sans-Serif" font-size="10.00">Ra::Core::MatrixUtils</text>
<text text-anchor="middle" x="256.5" y="-350.5" font-family="Helvetica,sans-Serif" font-size="10.00">::lookAt</text>
</a>
</g>
</g>
<!-- Node1&#45;&gt;Node7 -->
<g id="edge7" class="edge"><title>Node1&#45;&gt;Node7</title>
<path fill="none" stroke="midnightblue" d="M93.0983,-275.584C113.95,-291.906 149.275,-317.828 183,-334.5 186.744,-336.351 190.664,-338.11 194.661,-339.771"/>
<polygon fill="midnightblue" stroke="midnightblue" points="193.49,-343.071 204.077,-343.468 196.048,-336.555 193.49,-343.071"/>
</g>
<!-- Node8 -->
<g id="node8" class="node"><title>Node8</title>
<g id="a_node8"><a xlink:href="classRa_1_1Asset_1_1CameraData.html#a11c15054dc68f8cfc22ac86b63ddb346" target="_top" xlink:title="Set the transformation of the Camera. ">
<polygon fill="white" stroke="black" points="192,-294.5 192,-324.5 321,-324.5 321,-294.5 192,-294.5"/>
<text text-anchor="start" x="200" y="-312.5" font-family="Helvetica,sans-Serif" font-size="10.00">Ra::Asset::CameraData</text>
<text text-anchor="middle" x="256.5" y="-301.5" font-family="Helvetica,sans-Serif" font-size="10.00">::setFrame</text>
</a>
</g>
</g>
<!-- Node1&#45;&gt;Node8 -->
<g id="edge8" class="edge"><title>Node1&#45;&gt;Node8</title>
<path fill="none" stroke="midnightblue" d="M130.283,-275.601C149.21,-280.725 170.525,-286.496 190.13,-291.803"/>
<polygon fill="midnightblue" stroke="midnightblue" points="189.334,-295.214 199.901,-294.448 191.163,-288.457 189.334,-295.214"/>
</g>
<!-- Node9 -->
<g id="node9" class="node"><title>Node9</title>
<g id="a_node9"><a xlink:href="classRa_1_1Asset_1_1CameraData.html#a011347b07a736aede440b811615372bb" target="_top" xlink:title="Set the projection type of the Camera. ">
<polygon fill="white" stroke="black" points="192,-245.5 192,-275.5 321,-275.5 321,-245.5 192,-245.5"/>
<text text-anchor="start" x="200" y="-263.5" font-family="Helvetica,sans-Serif" font-size="10.00">Ra::Asset::CameraData</text>
<text text-anchor="middle" x="256.5" y="-252.5" font-family="Helvetica,sans-Serif" font-size="10.00">::setType</text>
</a>
</g>
</g>
<!-- Node1&#45;&gt;Node9 -->
<g id="edge9" class="edge"><title>Node1&#45;&gt;Node9</title>
<path fill="none" stroke="midnightblue" d="M147.077,-260.5C158.447,-260.5 170.21,-260.5 181.61,-260.5"/>
<polygon fill="midnightblue" stroke="midnightblue" points="181.955,-264 191.955,-260.5 181.955,-257 181.955,-264"/>
</g>
<!-- Node10 -->
<g id="node10" class="node"><title>Node10</title>
<g id="a_node10"><a xlink:href="classRa_1_1Asset_1_1CameraData.html#a5e68619eb8810cb1b98c8dc19987bc44" target="_top" xlink:title="Set the Field of View of the Camera. ">
<polygon fill="white" stroke="black" points="192,-196.5 192,-226.5 321,-226.5 321,-196.5 192,-196.5"/>
<text text-anchor="start" x="200" y="-214.5" font-family="Helvetica,sans-Serif" font-size="10.00">Ra::Asset::CameraData</text>
<text text-anchor="middle" x="256.5" y="-203.5" font-family="Helvetica,sans-Serif" font-size="10.00">::setFov</text>
</a>
</g>
</g>
<!-- Node1&#45;&gt;Node10 -->
<g id="edge10" class="edge"><title>Node1&#45;&gt;Node10</title>
<path fill="none" stroke="midnightblue" d="M130.283,-245.399C149.21,-240.275 170.525,-234.504 190.13,-229.197"/>
<polygon fill="midnightblue" stroke="midnightblue" points="191.163,-232.543 199.901,-226.552 189.334,-225.786 191.163,-232.543"/>
</g>
<!-- Node11 -->
<g id="node11" class="node"><title>Node11</title>
<g id="a_node11"><a xlink:href="classRa_1_1Asset_1_1CameraData.html#ab3db0bea8144a8e3de886c2bfad49e7d" target="_top" xlink:title="Set the distance from the near plane to the Camera. ">
<polygon fill="white" stroke="black" points="192,-147.5 192,-177.5 321,-177.5 321,-147.5 192,-147.5"/>
<text text-anchor="start" x="200" y="-165.5" font-family="Helvetica,sans-Serif" font-size="10.00">Ra::Asset::CameraData</text>
<text text-anchor="middle" x="256.5" y="-154.5" font-family="Helvetica,sans-Serif" font-size="10.00">::setZNear</text>
</a>
</g>
</g>
<!-- Node1&#45;&gt;Node11 -->
<g id="edge11" class="edge"><title>Node1&#45;&gt;Node11</title>
<path fill="none" stroke="midnightblue" d="M93.5539,-245.425C114.517,-229.392 149.672,-204.102 183,-187.5 187.316,-185.35 191.863,-183.308 196.487,-181.386"/>
<polygon fill="midnightblue" stroke="midnightblue" points="198.025,-184.542 206.041,-177.615 195.455,-178.031 198.025,-184.542"/>
</g>
<!-- Node12 -->
<g id="node12" class="node"><title>Node12</title>
<g id="a_node12"><a xlink:href="classRa_1_1Asset_1_1CameraData.html#a46fbb0c7521cb181974f155333339127" target="_top" xlink:title="Set the distance from the far plane to the Camera. ">
<polygon fill="white" stroke="black" points="192,-98.5 192,-128.5 321,-128.5 321,-98.5 192,-98.5"/>
<text text-anchor="start" x="200" y="-116.5" font-family="Helvetica,sans-Serif" font-size="10.00">Ra::Asset::CameraData</text>
<text text-anchor="middle" x="256.5" y="-105.5" font-family="Helvetica,sans-Serif" font-size="10.00">::setZFar</text>
</a>
</g>
</g>
<!-- Node1&#45;&gt;Node12 -->
<g id="edge12" class="edge"><title>Node1&#45;&gt;Node12</title>
<path fill="none" stroke="midnightblue" d="M84.2856,-245.097C101.331,-219.446 138.896,-167.901 183,-138.5 186.06,-136.46 189.304,-134.569 192.657,-132.819"/>
<polygon fill="midnightblue" stroke="midnightblue" points="194.201,-135.96 201.733,-128.509 191.198,-129.637 194.201,-135.96"/>
</g>
<!-- Node13 -->
<g id="node13" class="node"><title>Node13</title>
<g id="a_node13"><a xlink:href="classRa_1_1Asset_1_1CameraData.html#a9ebb267200d6c3d9fe57e501fbd1eb44" target="_top" xlink:title="Set the zoom factor of the Camera. ">
<polygon fill="white" stroke="black" points="192,-49.5 192,-79.5 321,-79.5 321,-49.5 192,-49.5"/>
<text text-anchor="start" x="200" y="-67.5" font-family="Helvetica,sans-Serif" font-size="10.00">Ra::Asset::CameraData</text>
<text text-anchor="middle" x="256.5" y="-56.5" font-family="Helvetica,sans-Serif" font-size="10.00">::setZoomFactor</text>
</a>
</g>
</g>
<!-- Node1&#45;&gt;Node13 -->
<g id="edge13" class="edge"><title>Node1&#45;&gt;Node13</title>
<path fill="none" stroke="midnightblue" d="M80.0769,-245.294C92.9912,-212.146 128.103,-132.879 183,-89.5 185.301,-87.6814 187.744,-85.9907 190.286,-84.4193"/>
<polygon fill="midnightblue" stroke="midnightblue" points="192.152,-87.3881 199.251,-79.5238 188.797,-81.2443 192.152,-87.3881"/>
</g>
<!-- Node14 -->
<g id="node14" class="node"><title>Node14</title>
<g id="a_node14"><a xlink:href="classRa_1_1Asset_1_1CameraData.html#a95343705f4b55c4e1737bbb2bb60770d" target="_top" xlink:title="Set the aspect ratio of the Camera. ">
<polygon fill="white" stroke="black" points="192,-0.5 192,-30.5 321,-30.5 321,-0.5 192,-0.5"/>
<text text-anchor="start" x="200" y="-18.5" font-family="Helvetica,sans-Serif" font-size="10.00">Ra::Asset::CameraData</text>
<text text-anchor="middle" x="256.5" y="-7.5" font-family="Helvetica,sans-Serif" font-size="10.00">::setAspect</text>
</a>
</g>
</g>
<!-- Node1&#45;&gt;Node14 -->
<g id="edge14" class="edge"><title>Node1&#45;&gt;Node14</title>
<path fill="none" stroke="midnightblue" d="M77.6389,-245.413C86.6746,-205.729 116.471,-97.5035 183,-39.5 184.34,-38.3319 185.738,-37.2203 187.185,-36.1626"/>
<polygon fill="midnightblue" stroke="midnightblue" points="189.324,-38.9523 195.937,-30.6739 185.605,-33.0221 189.324,-38.9523"/>
</g>
<!-- Node2&#45;&gt;Node3 -->
<g id="edge2" class="edge"><title>Node2&#45;&gt;Node3</title>
<path fill="none" stroke="midnightblue" d="M316.212,-471.519C337.873,-477.06 362.11,-483.261 382.591,-488.5"/>
<polygon fill="midnightblue" stroke="midnightblue" points="381.76,-491.9 392.315,-490.988 383.495,-485.118 381.76,-491.9"/>
</g>
<!-- Node4 -->
<g id="node4" class="node"><title>Node4</title>
<g id="a_node4"><a xlink:href="classRa_1_1Asset_1_1CameraData.html#a0b58cc07a81c63c980ae9ff2e961db3e" target="_top" xlink:title="Return the name of the Camera. ">
<polygon fill="white" stroke="black" points="366,-441.5 366,-471.5 495,-471.5 495,-441.5 366,-441.5"/>
<text text-anchor="start" x="374" y="-459.5" font-family="Helvetica,sans-Serif" font-size="10.00">Ra::Asset::CameraData</text>
<text text-anchor="middle" x="430.5" y="-448.5" font-family="Helvetica,sans-Serif" font-size="10.00">::setName</text>
</a>
</g>
</g>
<!-- Node2&#45;&gt;Node4 -->
<g id="edge3" class="edge"><title>Node2&#45;&gt;Node4</title>
<path fill="none" stroke="midnightblue" d="M330.443,-456.5C338.841,-456.5 347.408,-456.5 355.814,-456.5"/>
<polygon fill="midnightblue" stroke="midnightblue" points="355.967,-460 365.967,-456.5 355.967,-453 355.967,-460"/>
</g>
<!-- Node6 -->
<g id="node6" class="node"><title>Node6</title>
<g id="a_node6"><a xlink:href="classRa_1_1Asset_1_1AssetData.html#a8b107d2673623febe173f37f14ff777d" target="_top" xlink:title="Acces to the name of the asset. ">
<polygon fill="white" stroke="black" points="371.5,-392.5 371.5,-422.5 489.5,-422.5 489.5,-392.5 371.5,-392.5"/>
<text text-anchor="start" x="379.5" y="-410.5" font-family="Helvetica,sans-Serif" font-size="10.00">Ra::Asset::AssetData</text>
<text text-anchor="middle" x="430.5" y="-399.5" font-family="Helvetica,sans-Serif" font-size="10.00">::getName</text>
</a>
</g>
</g>
<!-- Node5&#45;&gt;Node6 -->
<g id="edge5" class="edge"><title>Node5&#45;&gt;Node6</title>
<path fill="none" stroke="midnightblue" d="M330.443,-407.5C340.675,-407.5 351.16,-407.5 361.299,-407.5"/>
<polygon fill="midnightblue" stroke="midnightblue" points="361.301,-411 371.301,-407.5 361.3,-404 361.301,-411"/>
</g>
</g>
</svg>
