<?xml version="1.0" encoding="UTF-8" standalone="no"?>
<!DOCTYPE svg PUBLIC "-//W3C//DTD SVG 1.1//EN"
 "http://www.w3.org/Graphics/SVG/1.1/DTD/svg11.dtd">
<!-- Generated by graphviz version 2.38.0 (20140413.2041)
 -->
<!-- Title: Ra::Engine::Mesh::updateGL Pages: 1 -->
<svg width="804pt" height="208pt"
 viewBox="0.00 0.00 804.00 208.00" xmlns="http://www.w3.org/2000/svg" xmlns:xlink="http://www.w3.org/1999/xlink">
<g id="graph0" class="graph" transform="scale(1 1) rotate(0) translate(4 204)">
<title>Ra::Engine::Mesh::updateGL</title>
<polygon fill="white" stroke="none" points="-4,4 -4,-204 800,-204 800,4 -4,4"/>
<!-- Node1 -->
<g id="node1" class="node"><title>Node1</title>
<polygon fill="#bfbfbf" stroke="black" points="0,-101 0,-120 151,-120 151,-101 0,-101"/>
<text text-anchor="middle" x="75.5" y="-108" font-family="Helvetica,sans-Serif" font-size="10.00">Ra::Engine::Mesh::updateGL</text>
</g>
<!-- Node2 -->
<g id="node2" class="node"><title>Node2</title>
<g id="a_node2"><a xlink:href="classRa_1_1Core_1_1TriangleMesh.html#a495116f40cfec8bb6504698d786d4b8c" target="_top" xlink:title="Access the vertices positions. ">
<polygon fill="white" stroke="black" points="187,-169.5 187,-199.5 312,-199.5 312,-169.5 187,-169.5"/>
<text text-anchor="start" x="195" y="-187.5" font-family="Helvetica,sans-Serif" font-size="10.00">Ra::Core::TriangleMesh</text>
<text text-anchor="middle" x="249.5" y="-176.5" font-family="Helvetica,sans-Serif" font-size="10.00">::vertices</text>
</a>
</g>
</g>
<!-- Node1&#45;&gt;Node2 -->
<g id="edge1" class="edge"><title>Node1&#45;&gt;Node2</title>
<path fill="none" stroke="midnightblue" d="M96.7246,-120.039C118.775,-130.349 155.173,-147.1 187,-160.5 191.092,-162.223 195.353,-163.973 199.639,-165.704"/>
<polygon fill="midnightblue" stroke="midnightblue" points="198.42,-168.986 209.005,-169.444 201.016,-162.485 198.42,-168.986"/>
</g>
<!-- Node4 -->
<g id="node4" class="node"><title>Node4</title>
<g id="a_node4"><a xlink:href="classRa_1_1Core_1_1TriangleMesh.html#a40d31b7b2943947d6eac5d906f0182fd" target="_top" xlink:title="Access the vertices normals. ">
<polygon fill="white" stroke="black" points="187,-120.5 187,-150.5 312,-150.5 312,-120.5 187,-120.5"/>
<text text-anchor="start" x="195" y="-138.5" font-family="Helvetica,sans-Serif" font-size="10.00">Ra::Core::TriangleMesh</text>
<text text-anchor="middle" x="249.5" y="-127.5" font-family="Helvetica,sans-Serif" font-size="10.00">::normals</text>
</a>
</g>
</g>
<!-- Node1&#45;&gt;Node4 -->
<g id="edge3" class="edge"><title>Node1&#45;&gt;Node4</title>
<path fill="none" stroke="midnightblue" d="M142.016,-120.023C153.398,-121.677 165.287,-123.405 176.823,-125.082"/>
<polygon fill="midnightblue" stroke="midnightblue" points="176.448,-128.564 186.847,-126.539 177.455,-121.637 176.448,-128.564"/>
</g>
<!-- Node5 -->
<g id="node5" class="node"><title>Node5</title>
<g id="a_node5"><a xlink:href="classRa_1_1Core_1_1TriangleMesh.html#a0df7987af00e205263fba7cd2a635692" target="_top" xlink:title="Return true if h refers to an existing attribute in *this. ">
<polygon fill="white" stroke="black" points="187,-22.5 187,-52.5 312,-52.5 312,-22.5 187,-22.5"/>
<text text-anchor="start" x="195" y="-40.5" font-family="Helvetica,sans-Serif" font-size="10.00">Ra::Core::TriangleMesh</text>
<text text-anchor="middle" x="249.5" y="-29.5" font-family="Helvetica,sans-Serif" font-size="10.00">::isValid</text>
</a>
</g>
</g>
<!-- Node1&#45;&gt;Node5 -->
<g id="edge5" class="edge"><title>Node1&#45;&gt;Node5</title>
<path fill="none" stroke="midnightblue" d="M98.0323,-100.967C120.255,-91.1705 155.957,-75.5498 187,-62.5 191.726,-60.5131 196.667,-58.4619 201.605,-56.4286"/>
<polygon fill="midnightblue" stroke="midnightblue" points="203.114,-59.5927 211.041,-52.5624 200.46,-53.1154 203.114,-59.5927"/>
</g>
<!-- Node10 -->
<g id="node10" class="node"><title>Node10</title>
<g id="a_node10"><a xlink:href="classRa_1_1Core_1_1TriangleMesh.html#a01e44dce5a80eae1220d9e7988d4fe03" target="_top" xlink:title="Get attribute by handle. ">
<polygon fill="white" stroke="black" points="187,-71.5 187,-101.5 312,-101.5 312,-71.5 187,-71.5"/>
<text text-anchor="start" x="195" y="-89.5" font-family="Helvetica,sans-Serif" font-size="10.00">Ra::Core::TriangleMesh</text>
<text text-anchor="middle" x="249.5" y="-78.5" font-family="Helvetica,sans-Serif" font-size="10.00">::getAttrib</text>
</a>
</g>
</g>
<!-- Node1&#45;&gt;Node10 -->
<g id="edge10" class="edge"><title>Node1&#45;&gt;Node10</title>
<path fill="none" stroke="midnightblue" d="M144.973,-100.946C155.48,-99.4795 166.352,-97.9625 176.924,-96.4874"/>
<polygon fill="midnightblue" stroke="midnightblue" points="177.526,-99.9373 186.947,-95.0888 176.559,-93.0045 177.526,-99.9373"/>
</g>
<!-- Node3 -->
<g id="node3" class="node"><title>Node3</title>
<g id="a_node3"><a xlink:href="classRa_1_1Core_1_1AttribManager.html#aaa6088620425c1e1d74b50f1b50eb596" target="_top" xlink:title="Get attribute by handle. ">
<polygon fill="white" stroke="black" points="348,-120.5 348,-150.5 479,-150.5 479,-120.5 348,-120.5"/>
<text text-anchor="start" x="356" y="-138.5" font-family="Helvetica,sans-Serif" font-size="10.00">Ra::Core::AttribManager</text>
<text text-anchor="middle" x="413.5" y="-127.5" font-family="Helvetica,sans-Serif" font-size="10.00">::getAttrib</text>
</a>
</g>
</g>
<!-- Node2&#45;&gt;Node3 -->
<g id="edge2" class="edge"><title>Node2&#45;&gt;Node3</title>
<path fill="none" stroke="midnightblue" d="M300.427,-169.399C316.981,-164.392 335.575,-158.768 352.788,-153.561"/>
<polygon fill="midnightblue" stroke="midnightblue" points="354.179,-156.797 362.738,-150.552 352.153,-150.097 354.179,-156.797"/>
</g>
<!-- Node4&#45;&gt;Node3 -->
<g id="edge4" class="edge"><title>Node4&#45;&gt;Node3</title>
<path fill="none" stroke="midnightblue" d="M312.207,-135.5C320.471,-135.5 329.02,-135.5 337.481,-135.5"/>
<polygon fill="midnightblue" stroke="midnightblue" points="337.733,-139 347.733,-135.5 337.733,-132 337.733,-139"/>
</g>
<!-- Node6 -->
<g id="node6" class="node"><title>Node6</title>
<g id="a_node6"><a xlink:href="classRa_1_1Core_1_1AttribManager.html#a60dbf6cd73f3de13bc1247435ce52a81" target="_top" xlink:title="Return true if h correspond to an existing attribute in *this. ">
<polygon fill="white" stroke="black" points="348,-22.5 348,-52.5 479,-52.5 479,-22.5 348,-22.5"/>
<text text-anchor="start" x="356" y="-40.5" font-family="Helvetica,sans-Serif" font-size="10.00">Ra::Core::AttribManager</text>
<text text-anchor="middle" x="413.5" y="-29.5" font-family="Helvetica,sans-Serif" font-size="10.00">::isValid</text>
</a>
</g>
</g>
<!-- Node5&#45;&gt;Node6 -->
<g id="edge6" class="edge"><title>Node5&#45;&gt;Node6</title>
<path fill="none" stroke="midnightblue" d="M312.207,-37.5C320.471,-37.5 329.02,-37.5 337.481,-37.5"/>
<polygon fill="midnightblue" stroke="midnightblue" points="337.733,-41.0001 347.733,-37.5 337.733,-34.0001 337.733,-41.0001"/>
</g>
<!-- Node7 -->
<g id="node7" class="node"><title>Node7</title>
<g id="a_node7"><a xlink:href="classRa_1_1Core_1_1Index.html#a16f988512f9ef442cc97b6bc4809ba45" target="_top" xlink:title="Ra::Core::Index::Invalid">
<polygon fill="white" stroke="black" points="515,-50 515,-69 640,-69 640,-50 515,-50"/>
<text text-anchor="middle" x="577.5" y="-57" font-family="Helvetica,sans-Serif" font-size="10.00">Ra::Core::Index::Invalid</text>
</a>
</g>
</g>
<!-- Node6&#45;&gt;Node7 -->
<g id="edge7" class="edge"><title>Node6&#45;&gt;Node7</title>
<path fill="none" stroke="midnightblue" d="M479.458,-46.3215C487.781,-47.4518 496.34,-48.6141 504.764,-49.758"/>
<polygon fill="midnightblue" stroke="midnightblue" points="504.566,-53.2632 514.946,-51.1408 505.508,-46.3269 504.566,-53.2632"/>
</g>
<!-- Node9 -->
<g id="node9" class="node"><title>Node9</title>
<g id="a_node9"><a xlink:href="classRa_1_1Core_1_1AttribHandle.html#a7e994151627b8847e1f6f03fd88ff093" target="_top" xlink:title="Ra::Core::AttribHandle\l::attribName">
<polygon fill="white" stroke="black" points="516,-0.5 516,-30.5 639,-30.5 639,-0.5 516,-0.5"/>
<text text-anchor="start" x="524" y="-18.5" font-family="Helvetica,sans-Serif" font-size="10.00">Ra::Core::AttribHandle</text>
<text text-anchor="middle" x="577.5" y="-7.5" font-family="Helvetica,sans-Serif" font-size="10.00">::attribName</text>
</a>
</g>
</g>
<!-- Node6&#45;&gt;Node9 -->
<g id="edge9" class="edge"><title>Node6&#45;&gt;Node9</title>
<path fill="none" stroke="midnightblue" d="M479.458,-28.6785C488.126,-27.5014 497.049,-26.2896 505.809,-25.1"/>
<polygon fill="midnightblue" stroke="midnightblue" points="506.554,-28.5311 515.992,-23.7172 505.612,-21.5948 506.554,-28.5311"/>
</g>
<!-- Node8 -->
<g id="node8" class="node"><title>Node8</title>
<g id="a_node8"><a xlink:href="classRa_1_1Core_1_1Index.html#af6afe563ad57a4ab82f3706987e684ef" target="_top" xlink:title="CONSTRUCTOR Default constructor that allow implicit conversion from integer to Index. ">
<polygon fill="white" stroke="black" points="676,-50 676,-69 796,-69 796,-50 676,-50"/>
<text text-anchor="middle" x="736" y="-57" font-family="Helvetica,sans-Serif" font-size="10.00">Ra::Core::Index::Index</text>
</a>
</g>
</g>
<!-- Node7&#45;&gt;Node8 -->
<g id="edge8" class="edge"><title>Node7&#45;&gt;Node8</title>
<path fill="none" stroke="midnightblue" d="M640.353,-59.5C648.675,-59.5 657.255,-59.5 665.695,-59.5"/>
<polygon fill="midnightblue" stroke="midnightblue" points="665.893,-63.0001 675.893,-59.5 665.893,-56.0001 665.893,-63.0001"/>
</g>
<!-- Node10&#45;&gt;Node3 -->
<g id="edge11" class="edge"><title>Node10&#45;&gt;Node3</title>
<path fill="none" stroke="midnightblue" d="M300.427,-101.601C316.981,-106.608 335.575,-112.232 352.788,-117.439"/>
<polygon fill="midnightblue" stroke="midnightblue" points="352.153,-120.903 362.738,-120.448 354.179,-114.203 352.153,-120.903"/>
</g>
</g>
</svg>
