<?xml version="1.0" encoding="UTF-8" standalone="no"?>
<!DOCTYPE svg PUBLIC "-//W3C//DTD SVG 1.1//EN"
 "http://www.w3.org/Graphics/SVG/1.1/DTD/svg11.dtd">
<!-- Generated by graphviz version 2.38.0 (20140413.2041)
 -->
<!-- Title: MeshPaintPlugin::MeshPaintPluginC::registerPlugin Pages: 1 -->
<svg width="1323pt" height="271pt"
 viewBox="0.00 0.00 1323.00 271.00" xmlns="http://www.w3.org/2000/svg" xmlns:xlink="http://www.w3.org/1999/xlink">
<g id="graph0" class="graph" transform="scale(1 1) rotate(0) translate(4 267)">
<title>MeshPaintPlugin::MeshPaintPluginC::registerPlugin</title>
<polygon fill="white" stroke="none" points="-4,4 -4,-267 1319,-267 1319,4 -4,4"/>
<!-- Node1 -->
<g id="node1" class="node"><title>Node1</title>
<polygon fill="#bfbfbf" stroke="black" points="0,-73.5 0,-103.5 149,-103.5 149,-73.5 0,-73.5"/>
<text text-anchor="start" x="8" y="-91.5" font-family="Helvetica,sans-Serif" font-size="10.00">MeshPaintPlugin::MeshPaint</text>
<text text-anchor="middle" x="74.5" y="-80.5" font-family="Helvetica,sans-Serif" font-size="10.00">PluginC::registerPlugin</text>
</g>
<!-- Node2 -->
<g id="node2" class="node"><title>Node2</title>
<g id="a_node2"><a xlink:href="classRa_1_1Engine_1_1RadiumEngine.html#a88d584c699f333ea93aff6b15f0f2341" target="_top" xlink:title="Ra::Engine::RadiumEngine\l::registerSystem">
<polygon fill="white" stroke="black" points="189,-147.5 189,-177.5 330,-177.5 330,-147.5 189,-147.5"/>
<text text-anchor="start" x="197" y="-165.5" font-family="Helvetica,sans-Serif" font-size="10.00">Ra::Engine::RadiumEngine</text>
<text text-anchor="middle" x="259.5" y="-154.5" font-family="Helvetica,sans-Serif" font-size="10.00">::registerSystem</text>
</a>
</g>
</g>
<!-- Node1&#45;&gt;Node2 -->
<g id="edge1" class="edge"><title>Node1&#45;&gt;Node2</title>
<path fill="none" stroke="midnightblue" d="M106.252,-103.669C127.981,-114.108 157.938,-127.942 185,-138.5 189.801,-140.373 194.815,-142.224 199.87,-144.018"/>
<polygon fill="midnightblue" stroke="midnightblue" points="199.002,-147.421 209.597,-147.386 201.293,-140.806 199.002,-147.421"/>
</g>
<!-- Node3 -->
<g id="node3" class="node"><title>Node3</title>
<g id="a_node3"><a xlink:href="classMeshPaintPlugin_1_1MeshPaintPluginC.html#a2b454d95ffea93f89a0599d023bf5755" target="_top" xlink:title="MeshPaintPlugin::MeshPaint\lPluginC::onCurrentChanged">
<polygon fill="white" stroke="black" points="185,-98.5 185,-128.5 334,-128.5 334,-98.5 185,-98.5"/>
<text text-anchor="start" x="193" y="-116.5" font-family="Helvetica,sans-Serif" font-size="10.00">MeshPaintPlugin::MeshPaint</text>
<text text-anchor="middle" x="259.5" y="-105.5" font-family="Helvetica,sans-Serif" font-size="10.00">PluginC::onCurrentChanged</text>
</a>
</g>
</g>
<!-- Node1&#45;&gt;Node3 -->
<g id="edge2" class="edge"><title>Node1&#45;&gt;Node3</title>
<path fill="none" stroke="midnightblue" d="M149.142,-98.5604C157.565,-99.7111 166.199,-100.891 174.742,-102.058"/>
<polygon fill="midnightblue" stroke="midnightblue" points="174.329,-105.534 184.711,-103.419 175.277,-98.5981 174.329,-105.534"/>
</g>
<!-- Node19 -->
<g id="node19" class="node"><title>Node19</title>
<g id="a_node19"><a xlink:href="classMeshPaintPlugin_1_1MeshPaintPluginC.html#a9037a6bb68e61ed08dade482730462c8" target="_top" xlink:title="MeshPaintPlugin::MeshPaint\lPluginC::activePaintColor">
<polygon fill="white" stroke="black" points="185,-49.5 185,-79.5 334,-79.5 334,-49.5 185,-49.5"/>
<text text-anchor="start" x="193" y="-67.5" font-family="Helvetica,sans-Serif" font-size="10.00">MeshPaintPlugin::MeshPaint</text>
<text text-anchor="middle" x="259.5" y="-56.5" font-family="Helvetica,sans-Serif" font-size="10.00">PluginC::activePaintColor</text>
</a>
</g>
</g>
<!-- Node1&#45;&gt;Node19 -->
<g id="edge18" class="edge"><title>Node1&#45;&gt;Node19</title>
<path fill="none" stroke="midnightblue" d="M149.142,-78.842C157.565,-77.7373 166.199,-76.6051 174.742,-75.4847"/>
<polygon fill="midnightblue" stroke="midnightblue" points="175.251,-78.948 184.711,-74.1773 174.34,-72.0074 175.251,-78.948"/>
</g>
<!-- Node24 -->
<g id="node24" class="node"><title>Node24</title>
<g id="a_node24"><a xlink:href="classMeshPaintPlugin_1_1MeshPaintPluginC.html#a08d032068a708eafea55997c7f02702f" target="_top" xlink:title="MeshPaintPlugin::MeshPaint\lPluginC::changePaintColor">
<polygon fill="white" stroke="black" points="185,-0.5 185,-30.5 334,-30.5 334,-0.5 185,-0.5"/>
<text text-anchor="start" x="193" y="-18.5" font-family="Helvetica,sans-Serif" font-size="10.00">MeshPaintPlugin::MeshPaint</text>
<text text-anchor="middle" x="259.5" y="-7.5" font-family="Helvetica,sans-Serif" font-size="10.00">PluginC::changePaintColor</text>
</a>
</g>
</g>
<!-- Node1&#45;&gt;Node24 -->
<g id="edge25" class="edge"><title>Node1&#45;&gt;Node24</title>
<path fill="none" stroke="midnightblue" d="M106.755,-73.4589C128.46,-63.2754 158.185,-49.8448 185,-39.5 190.01,-37.5674 195.248,-35.6528 200.522,-33.7978"/>
<polygon fill="midnightblue" stroke="midnightblue" points="201.694,-37.096 210.01,-30.532 199.415,-30.4771 201.694,-37.096"/>
</g>
<!-- Node4 -->
<g id="node4" class="node"><title>Node4</title>
<g id="a_node4"><a xlink:href="classRa_1_1Core_1_1Index.html#a16f988512f9ef442cc97b6bc4809ba45" target="_top" xlink:title="Ra::Core::Index::Invalid">
<polygon fill="white" stroke="black" points="391,-60 391,-79 516,-79 516,-60 391,-60"/>
<text text-anchor="middle" x="453.5" y="-67" font-family="Helvetica,sans-Serif" font-size="10.00">Ra::Core::Index::Invalid</text>
</a>
</g>
</g>
<!-- Node3&#45;&gt;Node4 -->
<g id="edge3" class="edge"><title>Node3&#45;&gt;Node4</title>
<path fill="none" stroke="midnightblue" d="M326.039,-98.4808C350.548,-92.864 378.013,-86.57 401.069,-81.2863"/>
<polygon fill="midnightblue" stroke="midnightblue" points="402.026,-84.6578 410.991,-79.0124 400.462,-77.8347 402.026,-84.6578"/>
</g>
<!-- Node6 -->
<g id="node6" class="node"><title>Node6</title>
<g id="a_node6"><a xlink:href="classRa_1_1GuiBase_1_1SelectionManager.html#a29cbd250208f1e18d2ab1e0f4d91105d" target="_top" xlink:title="Return the current selected item, or an invalid entry if there is no current item. ">
<polygon fill="white" stroke="black" points="370,-196.5 370,-226.5 537,-226.5 537,-196.5 370,-196.5"/>
<text text-anchor="start" x="378" y="-214.5" font-family="Helvetica,sans-Serif" font-size="10.00">Ra::GuiBase::SelectionManager</text>
<text text-anchor="middle" x="453.5" y="-203.5" font-family="Helvetica,sans-Serif" font-size="10.00">::currentItem</text>
</a>
</g>
</g>
<!-- Node3&#45;&gt;Node6 -->
<g id="edge5" class="edge"><title>Node3&#45;&gt;Node6</title>
<path fill="none" stroke="midnightblue" d="M316.883,-128.618C322.937,-131.406 328.782,-134.675 334,-138.5 355.796,-154.476 347.852,-172.016 370,-187.5 372.139,-188.996 374.372,-190.399 376.675,-191.716"/>
<polygon fill="midnightblue" stroke="midnightblue" points="375.356,-194.971 385.857,-196.376 378.524,-188.729 375.356,-194.971"/>
</g>
<!-- Node11 -->
<g id="node11" class="node"><title>Node11</title>
<g id="a_node11"><a xlink:href="classMeshPaintPlugin_1_1MeshPaintSystem.html#a7778723bd43c13d6b9db42ea8b1fbe09" target="_top" xlink:title="MeshPaintPlugin::MeshPaint\lSystem::paintMesh">
<polygon fill="white" stroke="black" points="379,-147.5 379,-177.5 528,-177.5 528,-147.5 379,-147.5"/>
<text text-anchor="start" x="387" y="-165.5" font-family="Helvetica,sans-Serif" font-size="10.00">MeshPaintPlugin::MeshPaint</text>
<text text-anchor="middle" x="453.5" y="-154.5" font-family="Helvetica,sans-Serif" font-size="10.00">System::paintMesh</text>
</a>
</g>
</g>
<!-- Node3&#45;&gt;Node11 -->
<g id="edge10" class="edge"><title>Node3&#45;&gt;Node11</title>
<path fill="none" stroke="midnightblue" d="M319.411,-128.535C339.776,-133.732 362.772,-139.601 383.849,-144.98"/>
<polygon fill="midnightblue" stroke="midnightblue" points="383.145,-148.412 393.7,-147.494 384.876,-141.63 383.145,-148.412"/>
</g>
<!-- Node18 -->
<g id="node18" class="node"><title>Node18</title>
<g id="a_node18"><a xlink:href="classRa_1_1Gui_1_1PickingManager.html#a93bbe7807a11b0aa423ddcc777dc1168" target="_top" xlink:title="Ra::Gui::PickingManager\l::getCurrent">
<polygon fill="white" stroke="black" points="388,-98.5 388,-128.5 519,-128.5 519,-98.5 388,-98.5"/>
<text text-anchor="start" x="396" y="-116.5" font-family="Helvetica,sans-Serif" font-size="10.00">Ra::Gui::PickingManager</text>
<text text-anchor="middle" x="453.5" y="-105.5" font-family="Helvetica,sans-Serif" font-size="10.00">::getCurrent</text>
</a>
</g>
</g>
<!-- Node3&#45;&gt;Node18 -->
<g id="edge17" class="edge"><title>Node3&#45;&gt;Node18</title>
<path fill="none" stroke="midnightblue" d="M334.183,-113.5C348.394,-113.5 363.296,-113.5 377.547,-113.5"/>
<polygon fill="midnightblue" stroke="midnightblue" points="377.79,-117 387.79,-113.5 377.79,-110 377.79,-117"/>
</g>
<!-- Node5 -->
<g id="node5" class="node"><title>Node5</title>
<g id="a_node5"><a xlink:href="classRa_1_1Core_1_1Index.html#af6afe563ad57a4ab82f3706987e684ef" target="_top" xlink:title="CONSTRUCTOR Default constructor that allow implicit conversion from integer to Index. ">
<polygon fill="white" stroke="black" points="596.5,-60 596.5,-79 716.5,-79 716.5,-60 596.5,-60"/>
<text text-anchor="middle" x="656.5" y="-67" font-family="Helvetica,sans-Serif" font-size="10.00">Ra::Core::Index::Index</text>
</a>
</g>
</g>
<!-- Node4&#45;&gt;Node5 -->
<g id="edge4" class="edge"><title>Node4&#45;&gt;Node5</title>
<path fill="none" stroke="midnightblue" d="M516.173,-69.5C538.289,-69.5 563.37,-69.5 586.097,-69.5"/>
<polygon fill="midnightblue" stroke="midnightblue" points="586.354,-73.0001 596.354,-69.5 586.354,-66.0001 586.354,-73.0001"/>
</g>
<!-- Node7 -->
<g id="node7" class="node"><title>Node7</title>
<g id="a_node7"><a xlink:href="classRa_1_1GuiBase_1_1SelectionManager.html#aec178a6b3de1c04e5e1d16ff72c6e966" target="_top" xlink:title="Ra::GuiBase::SelectionManager\l::itemModel">
<polygon fill="white" stroke="black" points="573,-183.5 573,-213.5 740,-213.5 740,-183.5 573,-183.5"/>
<text text-anchor="start" x="581" y="-201.5" font-family="Helvetica,sans-Serif" font-size="10.00">Ra::GuiBase::SelectionManager</text>
<text text-anchor="middle" x="656.5" y="-190.5" font-family="Helvetica,sans-Serif" font-size="10.00">::itemModel</text>
</a>
</g>
</g>
<!-- Node6&#45;&gt;Node7 -->
<g id="edge6" class="edge"><title>Node6&#45;&gt;Node7</title>
<path fill="none" stroke="midnightblue" d="M537.125,-206.156C545.607,-205.607 554.266,-205.047 562.848,-204.492"/>
<polygon fill="midnightblue" stroke="midnightblue" points="563.118,-207.982 572.872,-203.844 562.666,-200.997 563.118,-207.982"/>
</g>
<!-- Node8 -->
<g id="node8" class="node"><title>Node8</title>
<g id="a_node8"><a xlink:href="classRa_1_1GuiBase_1_1ItemModel.html#a3236433d461ad6cac5e9390b2685fa3f" target="_top" xlink:title="Returns the entry corresponding to a given index or an invalid entry if the index doesn&#39;t match any e...">
<polygon fill="white" stroke="black" points="591,-232.5 591,-262.5 722,-262.5 722,-232.5 591,-232.5"/>
<text text-anchor="start" x="599" y="-250.5" font-family="Helvetica,sans-Serif" font-size="10.00">Ra::GuiBase::ItemModel</text>
<text text-anchor="middle" x="656.5" y="-239.5" font-family="Helvetica,sans-Serif" font-size="10.00">::getEntry</text>
</a>
</g>
</g>
<!-- Node6&#45;&gt;Node8 -->
<g id="edge7" class="edge"><title>Node6&#45;&gt;Node8</title>
<path fill="none" stroke="midnightblue" d="M537.125,-226.298C551.501,-228.873 566.382,-231.539 580.538,-234.074"/>
<polygon fill="midnightblue" stroke="midnightblue" points="580.241,-237.576 590.701,-235.894 581.475,-230.686 580.241,-237.576"/>
</g>
<!-- Node9 -->
<g id="node9" class="node"><title>Node9</title>
<g id="a_node9"><a xlink:href="classRa_1_1GuiBase_1_1TreeModel.html#a5aa24ace72c1c3d29e268cb34dc576f2" target="_top" xlink:title="Get the tree item corresponding to the given index. ">
<polygon fill="white" stroke="black" points="797.5,-232.5 797.5,-262.5 925.5,-262.5 925.5,-232.5 797.5,-232.5"/>
<text text-anchor="start" x="805.5" y="-250.5" font-family="Helvetica,sans-Serif" font-size="10.00">Ra::GuiBase::TreeModel</text>
<text text-anchor="middle" x="861.5" y="-239.5" font-family="Helvetica,sans-Serif" font-size="10.00">::getItem</text>
</a>
</g>
</g>
<!-- Node8&#45;&gt;Node9 -->
<g id="edge8" class="edge"><title>Node8&#45;&gt;Node9</title>
<path fill="none" stroke="midnightblue" d="M722.009,-247.5C742.662,-247.5 765.681,-247.5 786.93,-247.5"/>
<polygon fill="midnightblue" stroke="midnightblue" points="787.201,-251 797.201,-247.5 787.201,-244 787.201,-251"/>
</g>
<!-- Node10 -->
<g id="node10" class="node"><title>Node10</title>
<g id="a_node10"><a xlink:href="classRa_1_1GuiBase_1_1TreeModel.html#a972106921da4c960f23f81722d3b4cf5" target="_top" xlink:title="Internal functions to check if an item is in the tree. ">
<polygon fill="white" stroke="black" points="1004.5,-232.5 1004.5,-262.5 1132.5,-262.5 1132.5,-232.5 1004.5,-232.5"/>
<text text-anchor="start" x="1012.5" y="-250.5" font-family="Helvetica,sans-Serif" font-size="10.00">Ra::GuiBase::TreeModel</text>
<text text-anchor="middle" x="1068.5" y="-239.5" font-family="Helvetica,sans-Serif" font-size="10.00">::findInTree</text>
</a>
</g>
</g>
<!-- Node9&#45;&gt;Node10 -->
<g id="edge9" class="edge"><title>Node9&#45;&gt;Node10</title>
<path fill="none" stroke="midnightblue" d="M925.679,-247.5C947.308,-247.5 971.689,-247.5 994.057,-247.5"/>
<polygon fill="midnightblue" stroke="midnightblue" points="994.176,-251 1004.18,-247.5 994.176,-244 994.176,-251"/>
</g>
<!-- Node12 -->
<g id="node12" class="node"><title>Node12</title>
<g id="a_node12"><a xlink:href="classMeshPaintPlugin_1_1MeshPaintComponent.html#af8ea91954674d7815f830ba3c280a1de" target="_top" xlink:title="MeshPaintPlugin::MeshPaint\lComponent::paintMesh">
<polygon fill="white" stroke="black" points="582,-115.5 582,-145.5 731,-145.5 731,-115.5 582,-115.5"/>
<text text-anchor="start" x="590" y="-133.5" font-family="Helvetica,sans-Serif" font-size="10.00">MeshPaintPlugin::MeshPaint</text>
<text text-anchor="middle" x="656.5" y="-122.5" font-family="Helvetica,sans-Serif" font-size="10.00">Component::paintMesh</text>
</a>
</g>
</g>
<!-- Node11&#45;&gt;Node12 -->
<g id="edge11" class="edge"><title>Node11&#45;&gt;Node12</title>
<path fill="none" stroke="midnightblue" d="M528.204,-150.766C542.405,-148.505 557.376,-146.122 571.866,-143.815"/>
<polygon fill="midnightblue" stroke="midnightblue" points="572.48,-147.261 581.805,-142.232 571.379,-140.348 572.48,-147.261"/>
</g>
<!-- Node13 -->
<g id="node13" class="node"><title>Node13</title>
<g id="a_node13"><a xlink:href="classRa_1_1Engine_1_1Component.html#a10b0bc182b76165744ebea603ae32dfe" target="_top" xlink:title="Shortcut to access the render object manager. ">
<polygon fill="white" stroke="black" points="797,-103.5 797,-133.5 926,-133.5 926,-103.5 797,-103.5"/>
<text text-anchor="start" x="805" y="-121.5" font-family="Helvetica,sans-Serif" font-size="10.00">Ra::Engine::Component</text>
<text text-anchor="middle" x="861.5" y="-110.5" font-family="Helvetica,sans-Serif" font-size="10.00">::getRoMgr</text>
</a>
</g>
</g>
<!-- Node12&#45;&gt;Node13 -->
<g id="edge12" class="edge"><title>Node12&#45;&gt;Node13</title>
<path fill="none" stroke="midnightblue" d="M731.075,-126.151C749.181,-125.08 768.572,-123.934 786.689,-122.863"/>
<polygon fill="midnightblue" stroke="midnightblue" points="787.121,-126.344 796.897,-122.26 786.708,-119.356 787.121,-126.344"/>
</g>
<!-- Node14 -->
<g id="node14" class="node"><title>Node14</title>
<g id="a_node14"><a xlink:href="classRa_1_1Engine_1_1RenderObjectManager.html#a32bd0db0d9620bb7e3f0fe50b541dae3" target="_top" xlink:title="Returns the render object corresponding to the given index. ">
<polygon fill="white" stroke="black" points="789.5,-54.5 789.5,-84.5 933.5,-84.5 933.5,-54.5 789.5,-54.5"/>
<text text-anchor="start" x="797.5" y="-72.5" font-family="Helvetica,sans-Serif" font-size="10.00">Ra::Engine::RenderObject</text>
<text text-anchor="middle" x="861.5" y="-61.5" font-family="Helvetica,sans-Serif" font-size="10.00">Manager::getRenderObject</text>
</a>
</g>
</g>
<!-- Node12&#45;&gt;Node14 -->
<g id="edge13" class="edge"><title>Node12&#45;&gt;Node14</title>
<path fill="none" stroke="midnightblue" d="M704.698,-115.455C726.38,-108.623 752.454,-100.518 776,-93.5 782.832,-91.4634 789.987,-89.3703 797.119,-87.3092"/>
<polygon fill="midnightblue" stroke="midnightblue" points="798.154,-90.6535 806.798,-84.5267 796.22,-83.926 798.154,-90.6535"/>
</g>
<!-- Node17 -->
<g id="node17" class="node"><title>Node17</title>
<g id="a_node17"><a xlink:href="namespaceRa_1_1Core_1_1Algorithm.html#aea294cdb6f4f0d85955bdcccb22886ec" target="_top" xlink:title="Ra::Core::Algorithm::t">
<polygon fill="white" stroke="black" points="802,-153 802,-172 921,-172 921,-153 802,-153"/>
<text text-anchor="middle" x="861.5" y="-160" font-family="Helvetica,sans-Serif" font-size="10.00">Ra::Core::Algorithm::t</text>
</a>
</g>
</g>
<!-- Node12&#45;&gt;Node17 -->
<g id="edge16" class="edge"><title>Node12&#45;&gt;Node17</title>
<path fill="none" stroke="midnightblue" d="M731.075,-142.098C750.883,-145.22 772.229,-148.585 791.762,-151.665"/>
<polygon fill="midnightblue" stroke="midnightblue" points="791.371,-155.146 801.794,-153.246 792.461,-148.231 791.371,-155.146"/>
</g>
<!-- Node15 -->
<g id="node15" class="node"><title>Node15</title>
<g id="a_node15"><a xlink:href="classRa_1_1Engine_1_1RenderObjectManager.html#a4077b9cf9e1e4d62fd5456386f2d72c8" target="_top" xlink:title="Returns true if the index points to a valid render object. ">
<polygon fill="white" stroke="black" points="1000,-54.5 1000,-84.5 1137,-84.5 1137,-54.5 1000,-54.5"/>
<text text-anchor="start" x="1008" y="-72.5" font-family="Helvetica,sans-Serif" font-size="10.00">Ra::Engine::RenderObject</text>
<text text-anchor="middle" x="1068.5" y="-61.5" font-family="Helvetica,sans-Serif" font-size="10.00">Manager::exists</text>
</a>
</g>
</g>
<!-- Node14&#45;&gt;Node15 -->
<g id="edge14" class="edge"><title>Node14&#45;&gt;Node15</title>
<path fill="none" stroke="midnightblue" d="M933.624,-69.5C951.772,-69.5 971.373,-69.5 989.831,-69.5"/>
<polygon fill="midnightblue" stroke="midnightblue" points="989.952,-73.0001 999.952,-69.5 989.952,-66.0001 989.952,-73.0001"/>
</g>
<!-- Node16 -->
<g id="node16" class="node"><title>Node16</title>
<g id="a_node16"><a xlink:href="classRa_1_1Core_1_1Index.html#a87c70243f30c65c1a24834d1829bda01" target="_top" xlink:title="DESTRUCTOR: Must not be defined, we need it trivial to be constexpr. ">
<polygon fill="white" stroke="black" points="1190,-60 1190,-79 1315,-79 1315,-60 1190,-60"/>
<text text-anchor="middle" x="1252.5" y="-67" font-family="Helvetica,sans-Serif" font-size="10.00">Ra::Core::Index::isValid</text>
</a>
</g>
</g>
<!-- Node15&#45;&gt;Node16 -->
<g id="edge15" class="edge"><title>Node15&#45;&gt;Node16</title>
<path fill="none" stroke="midnightblue" d="M1137.01,-69.5C1150.93,-69.5 1165.64,-69.5 1179.7,-69.5"/>
<polygon fill="midnightblue" stroke="midnightblue" points="1179.81,-73.0001 1189.81,-69.5 1179.81,-66.0001 1179.81,-73.0001"/>
</g>
<!-- Node20 -->
<g id="node20" class="node"><title>Node20</title>
<g id="a_node20"><a xlink:href="classMeshPaintPlugin_1_1MeshPaintSystem.html#aefa5e3a92bef793200ef4e32cda1fe80" target="_top" xlink:title="MeshPaintPlugin::MeshPaint\lSystem::startPaintMesh">
<polygon fill="white" stroke="black" points="379,-10.5 379,-40.5 528,-40.5 528,-10.5 379,-10.5"/>
<text text-anchor="start" x="387" y="-28.5" font-family="Helvetica,sans-Serif" font-size="10.00">MeshPaintPlugin::MeshPaint</text>
<text text-anchor="middle" x="453.5" y="-17.5" font-family="Helvetica,sans-Serif" font-size="10.00">System::startPaintMesh</text>
</a>
</g>
</g>
<!-- Node19&#45;&gt;Node20 -->
<g id="edge19" class="edge"><title>Node19&#45;&gt;Node20</title>
<path fill="none" stroke="midnightblue" d="M334.183,-49.5331C345.47,-47.2404 357.194,-44.8591 368.68,-42.5259"/>
<polygon fill="midnightblue" stroke="midnightblue" points="369.594,-45.9119 378.697,-40.4913 368.2,-39.052 369.594,-45.9119"/>
</g>
<!-- Node21 -->
<g id="node21" class="node"><title>Node21</title>
<g id="a_node21"><a xlink:href="classMeshPaintPlugin_1_1MeshPaintComponent.html#a0c13da0e237aef580f67ad5b900d1036" target="_top" xlink:title="MeshPaintPlugin::MeshPaint\lComponent::startPaint">
<polygon fill="white" stroke="black" points="582,-10.5 582,-40.5 731,-40.5 731,-10.5 582,-10.5"/>
<text text-anchor="start" x="590" y="-28.5" font-family="Helvetica,sans-Serif" font-size="10.00">MeshPaintPlugin::MeshPaint</text>
<text text-anchor="middle" x="656.5" y="-17.5" font-family="Helvetica,sans-Serif" font-size="10.00">Component::startPaint</text>
</a>
</g>
</g>
<!-- Node20&#45;&gt;Node21 -->
<g id="edge20" class="edge"><title>Node20&#45;&gt;Node21</title>
<path fill="none" stroke="midnightblue" d="M528.204,-25.5C542.268,-25.5 557.088,-25.5 571.448,-25.5"/>
<polygon fill="midnightblue" stroke="midnightblue" points="571.805,-29.0001 581.805,-25.5 571.805,-22.0001 571.805,-29.0001"/>
</g>
<!-- Node21&#45;&gt;Node13 -->
<g id="edge21" class="edge"><title>Node21&#45;&gt;Node13</title>
<path fill="none" stroke="midnightblue" d="M720.945,-40.5264C727.637,-43.3247 734.132,-46.6216 740,-50.5 760.794,-64.2426 755.161,-79.8259 776,-93.5 779.597,-95.8606 783.424,-98.0042 787.387,-99.9501"/>
<polygon fill="midnightblue" stroke="midnightblue" points="786.274,-103.285 796.835,-104.141 789.113,-96.8867 786.274,-103.285"/>
</g>
<!-- Node21&#45;&gt;Node14 -->
<g id="edge22" class="edge"><title>Node21&#45;&gt;Node14</title>
<path fill="none" stroke="midnightblue" d="M726.793,-40.5192C744.334,-44.3212 763.307,-48.4336 781.297,-52.3328"/>
<polygon fill="midnightblue" stroke="midnightblue" points="780.66,-55.776 791.175,-54.4738 782.143,-48.9348 780.66,-55.776"/>
</g>
<!-- Node22 -->
<g id="node22" class="node"><title>Node22</title>
<g id="a_node22"><a xlink:href="namespaceRa_1_1Engine_1_1ShaderConfigurationFactory.html#a0bc60f21dbabd745961037f3d2f019c8" target="_top" xlink:title="Get a configuration from the factory. ">
<polygon fill="white" stroke="black" points="776,-5.5 776,-35.5 947,-35.5 947,-5.5 776,-5.5"/>
<text text-anchor="start" x="784" y="-23.5" font-family="Helvetica,sans-Serif" font-size="10.00">Ra::Engine::ShaderConfiguration</text>
<text text-anchor="middle" x="861.5" y="-12.5" font-family="Helvetica,sans-Serif" font-size="10.00">Factory::getConfiguration</text>
</a>
</g>
</g>
<!-- Node21&#45;&gt;Node22 -->
<g id="edge23" class="edge"><title>Node21&#45;&gt;Node22</title>
<path fill="none" stroke="midnightblue" d="M731.075,-23.6878C742.308,-23.4111 754.036,-23.1223 765.648,-22.8363"/>
<polygon fill="midnightblue" stroke="midnightblue" points="765.896,-26.3313 775.806,-22.5861 765.723,-19.3334 765.896,-26.3313"/>
</g>
<!-- Node23 -->
<g id="node23" class="node"><title>Node23</title>
<g id="a_node23"><a xlink:href="classRa_1_1Engine_1_1ShaderConfiguration.html#a7e20a600c78e8627f0238b342f4b42f2" target="_top" xlink:title="Ra::Engine::ShaderConfiguration\l::getDefaultShaderConfig">
<polygon fill="white" stroke="black" points="983,-5.5 983,-35.5 1154,-35.5 1154,-5.5 983,-5.5"/>
<text text-anchor="start" x="991" y="-23.5" font-family="Helvetica,sans-Serif" font-size="10.00">Ra::Engine::ShaderConfiguration</text>
<text text-anchor="middle" x="1068.5" y="-12.5" font-family="Helvetica,sans-Serif" font-size="10.00">::getDefaultShaderConfig</text>
</a>
</g>
</g>
<!-- Node22&#45;&gt;Node23 -->
<g id="edge24" class="edge"><title>Node22&#45;&gt;Node23</title>
<path fill="none" stroke="midnightblue" d="M947.065,-20.5C955.547,-20.5 964.198,-20.5 972.777,-20.5"/>
<polygon fill="midnightblue" stroke="midnightblue" points="972.799,-24.0001 982.799,-20.5 972.799,-17.0001 972.799,-24.0001"/>
</g>
</g>
</svg>
