<?xml version="1.0" encoding="UTF-8" standalone="no"?>
<!DOCTYPE svg PUBLIC "-//W3C//DTD SVG 1.1//EN"
 "http://www.w3.org/Graphics/SVG/1.1/DTD/svg11.dtd">
<!-- Generated by graphviz version 2.38.0 (20140413.2041)
 -->
<!-- Title: Ra::IO::AssimpAnimationDataLoader::fetchAnimation Pages: 1 -->
<svg width="530pt" height="328pt"
 viewBox="0.00 0.00 530.00 328.00" xmlns="http://www.w3.org/2000/svg" xmlns:xlink="http://www.w3.org/1999/xlink">
<g id="graph0" class="graph" transform="scale(1 1) rotate(0) translate(4 324)">
<title>Ra::IO::AssimpAnimationDataLoader::fetchAnimation</title>
<polygon fill="white" stroke="none" points="-4,4 -4,-324 526,-324 526,4 -4,4"/>
<!-- Node1 -->
<g id="node1" class="node"><title>Node1</title>
<polygon fill="#bfbfbf" stroke="black" points="0,-122.5 0,-152.5 158,-152.5 158,-122.5 0,-122.5"/>
<text text-anchor="start" x="8" y="-140.5" font-family="Helvetica,sans-Serif" font-size="10.00">Ra::IO::AssimpAnimationData</text>
<text text-anchor="middle" x="79" y="-129.5" font-family="Helvetica,sans-Serif" font-size="10.00">Loader::fetchAnimation</text>
</g>
<!-- Node2 -->
<g id="node2" class="node"><title>Node2</title>
<g id="a_node2"><a xlink:href="classRa_1_1Asset_1_1AnimationData.html#abbf0364d025ccbeb3ae77ef211c1e855" target="_top" xlink:title="TIME. ">
<polygon fill="white" stroke="black" points="205,-245.5 205,-275.5 345,-275.5 345,-245.5 205,-245.5"/>
<text text-anchor="start" x="213" y="-263.5" font-family="Helvetica,sans-Serif" font-size="10.00">Ra::Asset::AnimationData</text>
<text text-anchor="middle" x="275" y="-252.5" font-family="Helvetica,sans-Serif" font-size="10.00">::getTime</text>
</a>
</g>
</g>
<!-- Node1&#45;&gt;Node2 -->
<g id="edge1" class="edge"><title>Node1&#45;&gt;Node2</title>
<path fill="none" stroke="midnightblue" d="M93.5805,-152.84C113.538,-174.485 152.897,-213.87 194,-236.5 197.239,-238.283 200.627,-239.95 204.101,-241.504"/>
<polygon fill="midnightblue" stroke="midnightblue" points="202.879,-244.786 213.458,-245.363 205.548,-238.315 202.879,-244.786"/>
</g>
<!-- Node3 -->
<g id="node3" class="node"><title>Node3</title>
<g id="a_node3"><a xlink:href="classRa_1_1IO_1_1AssimpAnimationDataLoader.html#a130765ba65955c0d5c3217f813c0a812" target="_top" xlink:title="Ra::IO::AssimpAnimationData\lLoader::fetchHandleAnimation">
<polygon fill="white" stroke="black" points="194,-196.5 194,-226.5 356,-226.5 356,-196.5 194,-196.5"/>
<text text-anchor="start" x="202" y="-214.5" font-family="Helvetica,sans-Serif" font-size="10.00">Ra::IO::AssimpAnimationData</text>
<text text-anchor="middle" x="275" y="-203.5" font-family="Helvetica,sans-Serif" font-size="10.00">Loader::fetchHandleAnimation</text>
</a>
</g>
</g>
<!-- Node1&#45;&gt;Node3 -->
<g id="edge2" class="edge"><title>Node1&#45;&gt;Node3</title>
<path fill="none" stroke="midnightblue" d="M111.516,-152.562C134.171,-163.083 165.603,-177.057 194,-187.5 199.405,-189.488 205.059,-191.437 210.754,-193.31"/>
<polygon fill="midnightblue" stroke="midnightblue" points="209.75,-196.664 220.341,-196.387 211.889,-189.999 209.75,-196.664"/>
</g>
<!-- Node9 -->
<g id="node9" class="node"><title>Node9</title>
<g id="a_node9"><a xlink:href="classRa_1_1Asset_1_1AnimationData.html#adf6d483b196fea688300b82fc0c3d185" target="_top" xlink:title="Ra::Asset::AnimationData\l::getTimeStep">
<polygon fill="white" stroke="black" points="205,-147.5 205,-177.5 345,-177.5 345,-147.5 205,-147.5"/>
<text text-anchor="start" x="213" y="-165.5" font-family="Helvetica,sans-Serif" font-size="10.00">Ra::Asset::AnimationData</text>
<text text-anchor="middle" x="275" y="-154.5" font-family="Helvetica,sans-Serif" font-size="10.00">::getTimeStep</text>
</a>
</g>
</g>
<!-- Node1&#45;&gt;Node9 -->
<g id="edge8" class="edge"><title>Node1&#45;&gt;Node9</title>
<path fill="none" stroke="midnightblue" d="M158.069,-147.56C170.16,-149.119 182.66,-150.729 194.777,-152.291"/>
<polygon fill="midnightblue" stroke="midnightblue" points="194.482,-155.782 204.848,-153.589 195.377,-148.839 194.482,-155.782"/>
</g>
<!-- Node10 -->
<g id="node10" class="node"><title>Node10</title>
<g id="a_node10"><a xlink:href="classRa_1_1Asset_1_1AnimationTime.html#a189ab9544e851ed6ab2d36a2b5d6a952" target="_top" xlink:title="Ra::Asset::AnimationTime\l::merge">
<polygon fill="white" stroke="black" points="205,-98.5 205,-128.5 345,-128.5 345,-98.5 205,-98.5"/>
<text text-anchor="start" x="213" y="-116.5" font-family="Helvetica,sans-Serif" font-size="10.00">Ra::Asset::AnimationTime</text>
<text text-anchor="middle" x="275" y="-105.5" font-family="Helvetica,sans-Serif" font-size="10.00">::merge</text>
</a>
</g>
</g>
<!-- Node1&#45;&gt;Node10 -->
<g id="edge9" class="edge"><title>Node1&#45;&gt;Node10</title>
<path fill="none" stroke="midnightblue" d="M158.069,-127.842C170.16,-126.346 182.66,-124.8 194.777,-123.301"/>
<polygon fill="midnightblue" stroke="midnightblue" points="195.353,-126.756 204.848,-122.055 194.494,-119.809 195.353,-126.756"/>
</g>
<!-- Node11 -->
<g id="node11" class="node"><title>Node11</title>
<g id="a_node11"><a xlink:href="classRa_1_1Asset_1_1AnimationData.html#ae05331a7e0461688bedfa79ce4e34b4e" target="_top" xlink:title="Ra::Asset::AnimationData\l::setFrames">
<polygon fill="white" stroke="black" points="205,-49.5 205,-79.5 345,-79.5 345,-49.5 205,-49.5"/>
<text text-anchor="start" x="213" y="-67.5" font-family="Helvetica,sans-Serif" font-size="10.00">Ra::Asset::AnimationData</text>
<text text-anchor="middle" x="275" y="-56.5" font-family="Helvetica,sans-Serif" font-size="10.00">::setFrames</text>
</a>
</g>
</g>
<!-- Node1&#45;&gt;Node11 -->
<g id="edge10" class="edge"><title>Node1&#45;&gt;Node11</title>
<path fill="none" stroke="midnightblue" d="M112.526,-122.34C135.116,-112.103 166.061,-98.6577 194,-88.5 199.5,-86.5004 205.254,-84.5348 211.046,-82.6421"/>
<polygon fill="midnightblue" stroke="midnightblue" points="212.327,-85.9072 220.79,-79.5327 210.199,-79.2386 212.327,-85.9072"/>
</g>
<!-- Node12 -->
<g id="node12" class="node"><title>Node12</title>
<g id="a_node12"><a xlink:href="classRa_1_1Asset_1_1AnimationData.html#ada0a04150c4c9051261d95fcad8b78db" target="_top" xlink:title="Ra::Asset::AnimationData\l::setTime">
<polygon fill="white" stroke="black" points="205,-0.5 205,-30.5 345,-30.5 345,-0.5 205,-0.5"/>
<text text-anchor="start" x="213" y="-18.5" font-family="Helvetica,sans-Serif" font-size="10.00">Ra::Asset::AnimationData</text>
<text text-anchor="middle" x="275" y="-7.5" font-family="Helvetica,sans-Serif" font-size="10.00">::setTime</text>
</a>
</g>
</g>
<!-- Node1&#45;&gt;Node12 -->
<g id="edge11" class="edge"><title>Node1&#45;&gt;Node12</title>
<path fill="none" stroke="midnightblue" d="M93.6135,-122.323C113.611,-100.905 153.018,-61.9291 194,-39.5 197.311,-37.6878 200.776,-35.996 204.329,-34.4189"/>
<polygon fill="midnightblue" stroke="midnightblue" points="205.964,-37.5317 213.896,-30.5079 203.315,-31.0523 205.964,-37.5317"/>
</g>
<!-- Node4 -->
<g id="node4" class="node"><title>Node4</title>
<g id="a_node4"><a xlink:href="classRa_1_1Asset_1_1KeyFrame.html#a42442ed8c9ee7f7c24ef52ff62ee30ae" target="_top" xlink:title="RESET. ">
<polygon fill="white" stroke="black" points="400,-289.5 400,-319.5 514,-319.5 514,-289.5 400,-289.5"/>
<text text-anchor="start" x="408" y="-307.5" font-family="Helvetica,sans-Serif" font-size="10.00">Ra::Asset::KeyFrame</text>
<text text-anchor="middle" x="457" y="-296.5" font-family="Helvetica,sans-Serif" font-size="10.00">::reset</text>
</a>
</g>
</g>
<!-- Node3&#45;&gt;Node4 -->
<g id="edge3" class="edge"><title>Node3&#45;&gt;Node4</title>
<path fill="none" stroke="midnightblue" d="M337.568,-226.628C344.049,-229.408 350.332,-232.672 356,-236.5 376.939,-250.641 371.464,-265.78 392,-280.5 394.068,-281.982 396.238,-283.384 398.479,-284.709"/>
<polygon fill="midnightblue" stroke="midnightblue" points="396.932,-287.851 407.406,-289.446 400.213,-281.667 396.932,-287.851"/>
</g>
<!-- Node5 -->
<g id="node5" class="node"><title>Node5</title>
<g id="a_node5"><a xlink:href="classRa_1_1Asset_1_1KeyFrame.html#aea56e20481b32c5a81ff6d9eb34f9e97" target="_top" xlink:title="Ra::Asset::KeyFrame\l::insertKeyFrame">
<polygon fill="white" stroke="black" points="400,-240.5 400,-270.5 514,-270.5 514,-240.5 400,-240.5"/>
<text text-anchor="start" x="408" y="-258.5" font-family="Helvetica,sans-Serif" font-size="10.00">Ra::Asset::KeyFrame</text>
<text text-anchor="middle" x="457" y="-247.5" font-family="Helvetica,sans-Serif" font-size="10.00">::insertKeyFrame</text>
</a>
</g>
</g>
<!-- Node3&#45;&gt;Node5 -->
<g id="edge4" class="edge"><title>Node3&#45;&gt;Node5</title>
<path fill="none" stroke="midnightblue" d="M337.442,-226.519C354.384,-230.661 372.833,-235.17 390.02,-239.372"/>
<polygon fill="midnightblue" stroke="midnightblue" points="389.428,-242.83 399.973,-241.805 391.09,-236.03 389.428,-242.83"/>
</g>
<!-- Node6 -->
<g id="node6" class="node"><title>Node6</title>
<g id="a_node6"><a xlink:href="namespaceRa_1_1IO.html#aef6c50424873964fcea0008be55d4a34" target="_top" xlink:title="Ra::IO::assimpToCore">
<polygon fill="white" stroke="black" points="398.5,-202 398.5,-221 515.5,-221 515.5,-202 398.5,-202"/>
<text text-anchor="middle" x="457" y="-209" font-family="Helvetica,sans-Serif" font-size="10.00">Ra::IO::assimpToCore</text>
</a>
</g>
</g>
<!-- Node3&#45;&gt;Node6 -->
<g id="edge5" class="edge"><title>Node3&#45;&gt;Node6</title>
<path fill="none" stroke="midnightblue" d="M356.261,-211.5C366.878,-211.5 377.678,-211.5 388.061,-211.5"/>
<polygon fill="midnightblue" stroke="midnightblue" points="388.282,-215 398.282,-211.5 388.282,-208 388.282,-215"/>
</g>
<!-- Node7 -->
<g id="node7" class="node"><title>Node7</title>
<g id="a_node7"><a xlink:href="classRa_1_1Asset_1_1KeyFrame.html#a11502b1be2a8476d891058748a4158be" target="_top" xlink:title="Ra::Asset::KeyFrame\l::setAnimationTime">
<polygon fill="white" stroke="black" points="400,-152.5 400,-182.5 514,-182.5 514,-152.5 400,-152.5"/>
<text text-anchor="start" x="408" y="-170.5" font-family="Helvetica,sans-Serif" font-size="10.00">Ra::Asset::KeyFrame</text>
<text text-anchor="middle" x="457" y="-159.5" font-family="Helvetica,sans-Serif" font-size="10.00">::setAnimationTime</text>
</a>
</g>
</g>
<!-- Node3&#45;&gt;Node7 -->
<g id="edge6" class="edge"><title>Node3&#45;&gt;Node7</title>
<path fill="none" stroke="midnightblue" d="M337.442,-196.481C354.384,-192.339 372.833,-187.83 390.02,-183.628"/>
<polygon fill="midnightblue" stroke="midnightblue" points="391.09,-186.97 399.973,-181.195 389.428,-180.17 391.09,-186.97"/>
</g>
<!-- Node8 -->
<g id="node8" class="node"><title>Node8</title>
<g id="a_node8"><a xlink:href="classRa_1_1Asset_1_1KeyFrame.html#a061bfb7750328282a1965eb2fee01915" target="_top" xlink:title="Ra::Asset::KeyFrame::at">
<polygon fill="white" stroke="black" points="392,-114 392,-133 522,-133 522,-114 392,-114"/>
<text text-anchor="middle" x="457" y="-121" font-family="Helvetica,sans-Serif" font-size="10.00">Ra::Asset::KeyFrame::at</text>
</a>
</g>
</g>
<!-- Node3&#45;&gt;Node8 -->
<g id="edge7" class="edge"><title>Node3&#45;&gt;Node8</title>
<path fill="none" stroke="midnightblue" d="M339.214,-196.49C345.111,-193.935 350.813,-190.96 356,-187.5 377.02,-173.479 371.061,-157.641 392,-143.5 395.681,-141.014 399.686,-138.825 403.838,-136.899"/>
<polygon fill="midnightblue" stroke="midnightblue" points="405.175,-140.134 413.09,-133.092 402.511,-133.661 405.175,-140.134"/>
</g>
</g>
</svg>
