<?xml version="1.0" encoding="UTF-8" standalone="no"?>
<!DOCTYPE svg PUBLIC "-//W3C//DTD SVG 1.1//EN"
 "http://www.w3.org/Graphics/SVG/1.1/DTD/svg11.dtd">
<!-- Generated by graphviz version 2.38.0 (20140413.2041)
 -->
<!-- Title: Ra::Core::IndexMap::index Pages: 1 -->
<svg width="434pt" height="39pt"
 viewBox="0.00 0.00 434.00 39.00" xmlns="http://www.w3.org/2000/svg" xmlns:xlink="http://www.w3.org/1999/xlink">
<g id="graph0" class="graph" transform="scale(1 1) rotate(0) translate(4 35)">
<title>Ra::Core::IndexMap::index</title>
<polygon fill="white" stroke="none" points="-4,4 -4,-35 430,-35 430,4 -4,4"/>
<!-- Node1 -->
<g id="node1" class="node"><title>Node1</title>
<polygon fill="#bfbfbf" stroke="black" points="0,-0.5 0,-30.5 109,-30.5 109,-0.5 0,-0.5"/>
<text text-anchor="start" x="8" y="-18.5" font-family="Helvetica,sans-Serif" font-size="10.00">Ra::Core::IndexMap</text>
<text text-anchor="middle" x="54.5" y="-7.5" font-family="Helvetica,sans-Serif" font-size="10.00">::index</text>
</g>
<!-- Node2 -->
<g id="node2" class="node"><title>Node2</title>
<g id="a_node2"><a xlink:href="classRa_1_1Core_1_1Index.html#a16f988512f9ef442cc97b6bc4809ba45" target="_top" xlink:title="Ra::Core::Index::Invalid">
<polygon fill="white" stroke="black" points="145,-6 145,-25 270,-25 270,-6 145,-6"/>
<text text-anchor="middle" x="207.5" y="-13" font-family="Helvetica,sans-Serif" font-size="10.00">Ra::Core::Index::Invalid</text>
</a>
</g>
</g>
<!-- Node1&#45;&gt;Node2 -->
<g id="edge1" class="edge"><title>Node1&#45;&gt;Node2</title>
<path fill="none" stroke="midnightblue" d="M109.162,-15.5C117.448,-15.5 126.118,-15.5 134.724,-15.5"/>
<polygon fill="midnightblue" stroke="midnightblue" points="134.769,-19.0001 144.769,-15.5 134.769,-12.0001 134.769,-19.0001"/>
</g>
<!-- Node3 -->
<g id="node3" class="node"><title>Node3</title>
<g id="a_node3"><a xlink:href="classRa_1_1Core_1_1Index.html#af6afe563ad57a4ab82f3706987e684ef" target="_top" xlink:title="CONSTRUCTOR Default constructor that allow implicit conversion from integer to Index. ">
<polygon fill="white" stroke="black" points="306,-6 306,-25 426,-25 426,-6 306,-6"/>
<text text-anchor="middle" x="366" y="-13" font-family="Helvetica,sans-Serif" font-size="10.00">Ra::Core::Index::Index</text>
</a>
</g>
</g>
<!-- Node2&#45;&gt;Node3 -->
<g id="edge2" class="edge"><title>Node2&#45;&gt;Node3</title>
<path fill="none" stroke="midnightblue" d="M270.353,-15.5C278.675,-15.5 287.255,-15.5 295.695,-15.5"/>
<polygon fill="midnightblue" stroke="midnightblue" points="295.893,-19.0001 305.893,-15.5 295.893,-12.0001 295.893,-19.0001"/>
</g>
</g>
</svg>
