<?xml version="1.0" encoding="UTF-8" standalone="no"?>
<!DOCTYPE svg PUBLIC "-//W3C//DTD SVG 1.1//EN"
 "http://www.w3.org/Graphics/SVG/1.1/DTD/svg11.dtd">
<!-- Generated by graphviz version 2.38.0 (20140413.2041)
 -->
<!-- Title: Ra::Core::Index::operator&#45; Pages: 1 -->
<svg width="471pt" height="85pt"
 viewBox="0.00 0.00 471.00 85.00" xmlns="http://www.w3.org/2000/svg" xmlns:xlink="http://www.w3.org/1999/xlink">
<g id="graph0" class="graph" transform="scale(1 1) rotate(0) translate(4 81)">
<title>Ra::Core::Index::operator&#45;</title>
<polygon fill="white" stroke="none" points="-4,4 -4,-81 467,-81 467,4 -4,4"/>
<!-- Node1 -->
<g id="node1" class="node"><title>Node1</title>
<polygon fill="#bfbfbf" stroke="black" points="0,-19.5 0,-38.5 139,-38.5 139,-19.5 0,-19.5"/>
<text text-anchor="middle" x="69.5" y="-26.5" font-family="Helvetica,sans-Serif" font-size="10.00">Ra::Core::Index::operator&#45;</text>
</g>
<!-- Node2 -->
<g id="node2" class="node"><title>Node2</title>
<g id="a_node2"><a xlink:href="classRa_1_1Core_1_1Index.html#a7283e7fb9cc134e04ef3cde8877f8fe2" target="_top" xlink:title="INVALID. ">
<polygon fill="white" stroke="black" points="175,-57.5 175,-76.5 307,-76.5 307,-57.5 175,-57.5"/>
<text text-anchor="middle" x="241" y="-64.5" font-family="Helvetica,sans-Serif" font-size="10.00">Ra::Core::Index::isInvalid</text>
</a>
</g>
</g>
<!-- Node1&#45;&gt;Node2 -->
<g id="edge1" class="edge"><title>Node1&#45;&gt;Node2</title>
<path fill="none" stroke="midnightblue" d="M113.272,-38.589C135.841,-43.6487 163.723,-49.8996 187.583,-55.2488"/>
<polygon fill="midnightblue" stroke="midnightblue" points="187.012,-58.7075 197.536,-57.4799 188.543,-51.8771 187.012,-58.7075"/>
</g>
<!-- Node3 -->
<g id="node3" class="node"><title>Node3</title>
<g id="a_node3"><a xlink:href="classRa_1_1Core_1_1Index.html#a16f988512f9ef442cc97b6bc4809ba45" target="_top" xlink:title="Ra::Core::Index::Invalid">
<polygon fill="white" stroke="black" points="178.5,-19.5 178.5,-38.5 303.5,-38.5 303.5,-19.5 178.5,-19.5"/>
<text text-anchor="middle" x="241" y="-26.5" font-family="Helvetica,sans-Serif" font-size="10.00">Ra::Core::Index::Invalid</text>
</a>
</g>
</g>
<!-- Node1&#45;&gt;Node3 -->
<g id="edge2" class="edge"><title>Node1&#45;&gt;Node3</title>
<path fill="none" stroke="midnightblue" d="M139.442,-29C148.933,-29 158.697,-29 168.237,-29"/>
<polygon fill="midnightblue" stroke="midnightblue" points="168.477,-32.5001 178.477,-29 168.477,-25.5001 168.477,-32.5001"/>
</g>
<!-- Node4 -->
<g id="node4" class="node"><title>Node4</title>
<g id="a_node4"><a xlink:href="classRa_1_1Core_1_1Index.html#af6afe563ad57a4ab82f3706987e684ef" target="_top" xlink:title="CONSTRUCTOR Default constructor that allow implicit conversion from integer to Index. ">
<polygon fill="white" stroke="black" points="343,-0.5 343,-19.5 463,-19.5 463,-0.5 343,-0.5"/>
<text text-anchor="middle" x="403" y="-7.5" font-family="Helvetica,sans-Serif" font-size="10.00">Ra::Core::Index::Index</text>
</a>
</g>
</g>
<!-- Node1&#45;&gt;Node4 -->
<g id="edge4" class="edge"><title>Node1&#45;&gt;Node4</title>
<path fill="none" stroke="midnightblue" d="M112.971,-19.4886C131.858,-15.7233 154.431,-11.8547 175,-10 227.618,-5.25541 287.377,-5.47995 332.368,-6.7704"/>
<polygon fill="midnightblue" stroke="midnightblue" points="332.498,-10.2761 342.603,-7.08951 332.716,-3.27947 332.498,-10.2761"/>
</g>
<!-- Node3&#45;&gt;Node4 -->
<g id="edge3" class="edge"><title>Node3&#45;&gt;Node4</title>
<path fill="none" stroke="midnightblue" d="M303.86,-21.6541C313.389,-20.5226 323.28,-19.348 332.954,-18.1992"/>
<polygon fill="midnightblue" stroke="midnightblue" points="333.414,-21.6693 342.931,-17.0144 332.589,-14.7181 333.414,-21.6693"/>
</g>
</g>
</svg>
