<?xml version="1.0" encoding="UTF-8" standalone="no"?>
<!DOCTYPE svg PUBLIC "-//W3C//DTD SVG 1.1//EN"
 "http://www.w3.org/Graphics/SVG/1.1/DTD/svg11.dtd">
<!-- Generated by graphviz version 2.38.0 (20140413.2041)
 -->
<!-- Title: Ra::Engine::LightManager::handleAssetLoading Pages: 1 -->
<svg width="637pt" height="137pt"
 viewBox="0.00 0.00 637.00 137.00" xmlns="http://www.w3.org/2000/svg" xmlns:xlink="http://www.w3.org/1999/xlink">
<g id="graph0" class="graph" transform="scale(1 1) rotate(0) translate(4 133)">
<title>Ra::Engine::LightManager::handleAssetLoading</title>
<polygon fill="white" stroke="none" points="-4,4 -4,-133 633,-133 633,4 -4,4"/>
<!-- Node1 -->
<g id="node1" class="node"><title>Node1</title>
<polygon fill="#bfbfbf" stroke="black" points="0,-49.5 0,-79.5 138,-79.5 138,-49.5 0,-49.5"/>
<text text-anchor="start" x="8" y="-67.5" font-family="Helvetica,sans-Serif" font-size="10.00">Ra::Engine::LightManager</text>
<text text-anchor="middle" x="69" y="-56.5" font-family="Helvetica,sans-Serif" font-size="10.00">::handleAssetLoading</text>
</g>
<!-- Node2 -->
<g id="node2" class="node"><title>Node2</title>
<g id="a_node2"><a xlink:href="classRa_1_1Asset_1_1FileData.html#a9b6da82f58991c291b3c094a00a1d6f5" target="_top" xlink:title="Ra::Asset::FileData\l::getLightData">
<polygon fill="white" stroke="black" points="190,-98.5 190,-128.5 296,-128.5 296,-98.5 190,-98.5"/>
<text text-anchor="start" x="198" y="-116.5" font-family="Helvetica,sans-Serif" font-size="10.00">Ra::Asset::FileData</text>
<text text-anchor="middle" x="243" y="-105.5" font-family="Helvetica,sans-Serif" font-size="10.00">::getLightData</text>
</a>
</g>
</g>
<!-- Node1&#45;&gt;Node2 -->
<g id="edge1" class="edge"><title>Node1&#45;&gt;Node2</title>
<path fill="none" stroke="midnightblue" d="M123.009,-79.6014C140.998,-84.7262 161.257,-90.4976 179.89,-95.8059"/>
<polygon fill="midnightblue" stroke="midnightblue" points="179.181,-99.2429 189.757,-98.6168 181.098,-92.5108 179.181,-99.2429"/>
</g>
<!-- Node3 -->
<g id="node3" class="node"><title>Node3</title>
<g id="a_node3"><a xlink:href="classRa_1_1Engine_1_1LightManager.html#a8b82623867e16ca07b4dd29afd539a8c" target="_top" xlink:title="Inherited method marked as final to ensure correct memory management even in child classes (e...">
<polygon fill="white" stroke="black" points="174,-49.5 174,-79.5 312,-79.5 312,-49.5 174,-49.5"/>
<text text-anchor="start" x="182" y="-67.5" font-family="Helvetica,sans-Serif" font-size="10.00">Ra::Engine::LightManager</text>
<text text-anchor="middle" x="243" y="-56.5" font-family="Helvetica,sans-Serif" font-size="10.00">::registerComponent</text>
</a>
</g>
</g>
<!-- Node1&#45;&gt;Node3 -->
<g id="edge2" class="edge"><title>Node1&#45;&gt;Node3</title>
<path fill="none" stroke="midnightblue" d="M138.473,-64.5C146.732,-64.5 155.216,-64.5 163.602,-64.5"/>
<polygon fill="midnightblue" stroke="midnightblue" points="163.762,-68.0001 173.762,-64.5 163.762,-61.0001 163.762,-68.0001"/>
</g>
<!-- Node8 -->
<g id="node8" class="node"><title>Node8</title>
<g id="a_node8"><a xlink:href="classRa_1_1Engine_1_1LightManager.html#ace71f23a756bd3f0f4e7c3e5ef55a848" target="_top" xlink:title="Number of lights. ">
<polygon fill="white" stroke="black" points="174,-0.5 174,-30.5 312,-30.5 312,-0.5 174,-0.5"/>
<text text-anchor="start" x="182" y="-18.5" font-family="Helvetica,sans-Serif" font-size="10.00">Ra::Engine::LightManager</text>
<text text-anchor="middle" x="243" y="-7.5" font-family="Helvetica,sans-Serif" font-size="10.00">::count</text>
</a>
</g>
</g>
<!-- Node1&#45;&gt;Node8 -->
<g id="edge7" class="edge"><title>Node1&#45;&gt;Node8</title>
<path fill="none" stroke="midnightblue" d="M123.009,-49.3986C140.831,-44.3215 160.88,-38.6098 179.37,-33.3423"/>
<polygon fill="midnightblue" stroke="midnightblue" points="180.508,-36.6575 189.166,-30.5516 178.59,-29.9254 180.508,-36.6575"/>
</g>
<!-- Node4 -->
<g id="node4" class="node"><title>Node4</title>
<g id="a_node4"><a xlink:href="classRa_1_1Engine_1_1System.html#ad7b2a746c42f08a729b4df9b991293a8" target="_top" xlink:title="Registers a component belonging to an entity, making it active within the system. ...">
<polygon fill="white" stroke="black" points="348,-49.5 348,-79.5 464,-79.5 464,-49.5 348,-49.5"/>
<text text-anchor="start" x="356" y="-67.5" font-family="Helvetica,sans-Serif" font-size="10.00">Ra::Engine::System</text>
<text text-anchor="middle" x="406" y="-56.5" font-family="Helvetica,sans-Serif" font-size="10.00">::registerComponent</text>
</a>
</g>
</g>
<!-- Node3&#45;&gt;Node4 -->
<g id="edge3" class="edge"><title>Node3&#45;&gt;Node4</title>
<path fill="none" stroke="midnightblue" d="M312.278,-64.5C320.687,-64.5 329.277,-64.5 337.672,-64.5"/>
<polygon fill="midnightblue" stroke="midnightblue" points="337.788,-68.0001 347.788,-64.5 337.788,-61.0001 337.788,-68.0001"/>
</g>
<!-- Node5 -->
<g id="node5" class="node"><title>Node5</title>
<g id="a_node5"><a xlink:href="classRa_1_1Engine_1_1Component.html#a207c1dc2e97856c22e0767fb77162933" target="_top" xlink:title="Return the entity the component belongs to. ">
<polygon fill="white" stroke="black" points="500,-98.5 500,-128.5 629,-128.5 629,-98.5 500,-98.5"/>
<text text-anchor="start" x="508" y="-116.5" font-family="Helvetica,sans-Serif" font-size="10.00">Ra::Engine::Component</text>
<text text-anchor="middle" x="564.5" y="-105.5" font-family="Helvetica,sans-Serif" font-size="10.00">::getEntity</text>
</a>
</g>
</g>
<!-- Node4&#45;&gt;Node5 -->
<g id="edge4" class="edge"><title>Node4&#45;&gt;Node5</title>
<path fill="none" stroke="midnightblue" d="M455.232,-79.6014C471.223,-84.6083 489.186,-90.2324 505.815,-95.439"/>
<polygon fill="midnightblue" stroke="midnightblue" points="504.838,-98.8005 515.427,-98.4484 506.93,-92.1203 504.838,-98.8005"/>
</g>
<!-- Node6 -->
<g id="node6" class="node"><title>Node6</title>
<g id="a_node6"><a xlink:href="classRa_1_1Engine_1_1Component.html#aa3e5cb90432a9a49e4362b673652ff76" target="_top" xlink:title="Return the component&#39;s name. ">
<polygon fill="white" stroke="black" points="500,-49.5 500,-79.5 629,-79.5 629,-49.5 500,-49.5"/>
<text text-anchor="start" x="508" y="-67.5" font-family="Helvetica,sans-Serif" font-size="10.00">Ra::Engine::Component</text>
<text text-anchor="middle" x="564.5" y="-56.5" font-family="Helvetica,sans-Serif" font-size="10.00">::getName</text>
</a>
</g>
</g>
<!-- Node4&#45;&gt;Node6 -->
<g id="edge5" class="edge"><title>Node4&#45;&gt;Node6</title>
<path fill="none" stroke="midnightblue" d="M464.386,-64.5C472.573,-64.5 481.088,-64.5 489.536,-64.5"/>
<polygon fill="midnightblue" stroke="midnightblue" points="489.782,-68.0001 499.782,-64.5 489.782,-61.0001 489.782,-68.0001"/>
</g>
<!-- Node7 -->
<g id="node7" class="node"><title>Node7</title>
<g id="a_node7"><a xlink:href="classRa_1_1Engine_1_1Component.html#aa9416af3319ba92aa7b532952c75e477" target="_top" xlink:title="Set the system to which the component belongs. ">
<polygon fill="white" stroke="black" points="500,-0.5 500,-30.5 629,-30.5 629,-0.5 500,-0.5"/>
<text text-anchor="start" x="508" y="-18.5" font-family="Helvetica,sans-Serif" font-size="10.00">Ra::Engine::Component</text>
<text text-anchor="middle" x="564.5" y="-7.5" font-family="Helvetica,sans-Serif" font-size="10.00">::setSystem</text>
</a>
</g>
</g>
<!-- Node4&#45;&gt;Node7 -->
<g id="edge6" class="edge"><title>Node4&#45;&gt;Node7</title>
<path fill="none" stroke="midnightblue" d="M455.232,-49.3986C471.223,-44.3917 489.186,-38.7676 505.815,-33.561"/>
<polygon fill="midnightblue" stroke="midnightblue" points="506.93,-36.8797 515.427,-30.5516 504.838,-30.1995 506.93,-36.8797"/>
</g>
</g>
</svg>
