<?xml version="1.0" encoding="UTF-8" standalone="no"?>
<!DOCTYPE svg PUBLIC "-//W3C//DTD SVG 1.1//EN"
 "http://www.w3.org/Graphics/SVG/1.1/DTD/svg11.dtd">
<!-- Generated by graphviz version 2.38.0 (20140413.2041)
 -->
<!-- Title: Ra::GuiBase::BaseApplication::setupScene Pages: 1 -->
<svg width="931pt" height="372pt"
 viewBox="0.00 0.00 931.00 372.00" xmlns="http://www.w3.org/2000/svg" xmlns:xlink="http://www.w3.org/1999/xlink">
<g id="graph0" class="graph" transform="scale(1 1) rotate(0) translate(4 368)">
<title>Ra::GuiBase::BaseApplication::setupScene</title>
<polygon fill="white" stroke="none" points="-4,4 -4,-368 927,-368 927,4 -4,4"/>
<!-- Node1 -->
<g id="node1" class="node"><title>Node1</title>
<polygon fill="#bfbfbf" stroke="black" points="0,-115.5 0,-145.5 157,-145.5 157,-115.5 0,-115.5"/>
<text text-anchor="start" x="8" y="-133.5" font-family="Helvetica,sans-Serif" font-size="10.00">Ra::GuiBase::BaseApplication</text>
<text text-anchor="middle" x="78.5" y="-122.5" font-family="Helvetica,sans-Serif" font-size="10.00">::setupScene</text>
</g>
<!-- Node2 -->
<g id="node2" class="node"><title>Node2</title>
<g id="a_node2"><a xlink:href="namespaceRa_1_1Engine_1_1DrawPrimitives.html#a70881604443264a7fceb751567eaa5b4" target="_top" xlink:title="Ra::Engine::DrawPrimitives\l::Primitive">
<polygon fill="white" stroke="black" points="193,-259.5 193,-289.5 336,-289.5 336,-259.5 193,-259.5"/>
<text text-anchor="start" x="201" y="-277.5" font-family="Helvetica,sans-Serif" font-size="10.00">Ra::Engine::DrawPrimitives</text>
<text text-anchor="middle" x="264.5" y="-266.5" font-family="Helvetica,sans-Serif" font-size="10.00">::Primitive</text>
</a>
</g>
</g>
<!-- Node1&#45;&gt;Node2 -->
<g id="edge1" class="edge"><title>Node1&#45;&gt;Node2</title>
<path fill="none" stroke="midnightblue" d="M96.7947,-145.809C118.712,-165.013 157.872,-198.677 193,-225.5 205.488,-235.036 219.645,-245.027 231.98,-253.481"/>
<polygon fill="midnightblue" stroke="midnightblue" points="230.352,-256.607 240.589,-259.337 234.289,-250.819 230.352,-256.607"/>
</g>
<!-- Node9 -->
<g id="node9" class="node"><title>Node9</title>
<g id="a_node9"><a xlink:href="classRa_1_1Engine_1_1SystemEntity.html#a2b341d35802bc8d3e1b7a49833db9730" target="_top" xlink:title="Access the UI Component. ">
<polygon fill="white" stroke="black" points="196,-186.5 196,-216.5 333,-216.5 333,-186.5 196,-186.5"/>
<text text-anchor="start" x="204" y="-204.5" font-family="Helvetica,sans-Serif" font-size="10.00">Ra::Engine::SystemEntity</text>
<text text-anchor="middle" x="264.5" y="-193.5" font-family="Helvetica,sans-Serif" font-size="10.00">::uiCmp</text>
</a>
</g>
</g>
<!-- Node1&#45;&gt;Node9 -->
<g id="edge8" class="edge"><title>Node1&#45;&gt;Node9</title>
<path fill="none" stroke="midnightblue" d="M115.377,-145.514C137.629,-154.708 166.862,-166.574 193,-176.5 198.6,-178.626 204.47,-180.798 210.332,-182.93"/>
<polygon fill="midnightblue" stroke="midnightblue" points="209.546,-186.367 220.14,-186.465 211.919,-179.781 209.546,-186.367"/>
</g>
<!-- Node12 -->
<g id="node12" class="node"><title>Node12</title>
<g id="a_node12"><a xlink:href="namespaceRa_1_1Engine_1_1DrawPrimitives.html#a64724cb608007bd81387f307ea47d0e3" target="_top" xlink:title="Create a res*res square grid centered on center, in plane normal to normal. ">
<polygon fill="white" stroke="black" points="193,-137.5 193,-167.5 336,-167.5 336,-137.5 193,-137.5"/>
<text text-anchor="start" x="201" y="-155.5" font-family="Helvetica,sans-Serif" font-size="10.00">Ra::Engine::DrawPrimitives</text>
<text text-anchor="middle" x="264.5" y="-144.5" font-family="Helvetica,sans-Serif" font-size="10.00">::Grid</text>
</a>
</g>
</g>
<!-- Node1&#45;&gt;Node12 -->
<g id="edge11" class="edge"><title>Node1&#45;&gt;Node12</title>
<path fill="none" stroke="midnightblue" d="M157.266,-139.798C165.633,-140.799 174.162,-141.818 182.566,-142.823"/>
<polygon fill="midnightblue" stroke="midnightblue" points="182.39,-146.327 192.735,-144.039 183.221,-139.376 182.39,-146.327"/>
</g>
<!-- Node13 -->
<g id="node13" class="node"><title>Node13</title>
<g id="a_node13"><a xlink:href="namespaceRa_1_1Core_1_1Colors.html#a9b6b3be86ee487b0a0e387566756b60d" target="_top" xlink:title="Ra::Core::Colors::Grey">
<polygon fill="white" stroke="black" points="203.5,-99 203.5,-118 325.5,-118 325.5,-99 203.5,-99"/>
<text text-anchor="middle" x="264.5" y="-106" font-family="Helvetica,sans-Serif" font-size="10.00">Ra::Core::Colors::Grey</text>
</a>
</g>
</g>
<!-- Node1&#45;&gt;Node13 -->
<g id="edge12" class="edge"><title>Node1&#45;&gt;Node13</title>
<path fill="none" stroke="midnightblue" d="M157.266,-121.202C169.176,-119.778 181.412,-118.315 193.15,-116.911"/>
<polygon fill="midnightblue" stroke="midnightblue" points="193.802,-120.358 203.316,-115.696 192.971,-113.408 193.802,-120.358"/>
</g>
<!-- Node14 -->
<g id="node14" class="node"><title>Node14</title>
<g id="a_node14"><a xlink:href="classRa_1_1Engine_1_1Component.html#a1fbe1a8c7052a8bf3fd2ad2f6ae34772" target="_top" xlink:title="Add a new render object to the component. This adds the RO to the manager for drawing. ">
<polygon fill="white" stroke="black" points="200,-49.5 200,-79.5 329,-79.5 329,-49.5 200,-49.5"/>
<text text-anchor="start" x="208" y="-67.5" font-family="Helvetica,sans-Serif" font-size="10.00">Ra::Engine::Component</text>
<text text-anchor="middle" x="264.5" y="-56.5" font-family="Helvetica,sans-Serif" font-size="10.00">::addRenderObject</text>
</a>
</g>
</g>
<!-- Node1&#45;&gt;Node14 -->
<g id="edge13" class="edge"><title>Node1&#45;&gt;Node14</title>
<path fill="none" stroke="midnightblue" d="M120.988,-115.447C142.47,-107.67 169.132,-98.0428 193,-89.5 198.938,-87.3748 205.16,-85.1563 211.344,-82.9563"/>
<polygon fill="midnightblue" stroke="midnightblue" points="212.735,-86.1766 220.986,-79.5305 210.391,-79.5806 212.735,-86.1766"/>
</g>
<!-- Node16 -->
<g id="node16" class="node"><title>Node16</title>
<g id="a_node16"><a xlink:href="classRa_1_1Engine_1_1Entity.html#ae48596d95b5dcb605e046d12461959e6" target="_top" xlink:title="Ra::Engine::Entity\l::getComponents">
<polygon fill="white" stroke="black" points="214.5,-0.5 214.5,-30.5 314.5,-30.5 314.5,-0.5 214.5,-0.5"/>
<text text-anchor="start" x="222.5" y="-18.5" font-family="Helvetica,sans-Serif" font-size="10.00">Ra::Engine::Entity</text>
<text text-anchor="middle" x="264.5" y="-7.5" font-family="Helvetica,sans-Serif" font-size="10.00">::getComponents</text>
</a>
</g>
</g>
<!-- Node1&#45;&gt;Node16 -->
<g id="edge15" class="edge"><title>Node1&#45;&gt;Node16</title>
<path fill="none" stroke="midnightblue" d="M94.761,-115.321C115.442,-95.4818 154.254,-60.7661 193,-39.5 196.866,-37.3781 200.954,-35.3955 205.135,-33.5529"/>
<polygon fill="midnightblue" stroke="midnightblue" points="206.474,-36.7866 214.388,-29.7427 203.809,-30.3138 206.474,-36.7866"/>
</g>
<!-- Node3 -->
<g id="node3" class="node"><title>Node3</title>
<g id="a_node3"><a xlink:href="namespaceRa_1_1Engine_1_1ShaderConfigurationFactory.html#a0bc60f21dbabd745961037f3d2f019c8" target="_top" xlink:title="Get a configuration from the factory. ">
<polygon fill="white" stroke="black" points="372,-333.5 372,-363.5 543,-363.5 543,-333.5 372,-333.5"/>
<text text-anchor="start" x="380" y="-351.5" font-family="Helvetica,sans-Serif" font-size="10.00">Ra::Engine::ShaderConfiguration</text>
<text text-anchor="middle" x="457.5" y="-340.5" font-family="Helvetica,sans-Serif" font-size="10.00">Factory::getConfiguration</text>
</a>
</g>
</g>
<!-- Node2&#45;&gt;Node3 -->
<g id="edge2" class="edge"><title>Node2&#45;&gt;Node3</title>
<path fill="none" stroke="midnightblue" d="M294.334,-289.598C315.456,-300.269 345.024,-314.413 372,-324.5 377.491,-326.553 383.237,-328.531 389.04,-330.409"/>
<polygon fill="midnightblue" stroke="midnightblue" points="388.232,-333.824 398.821,-333.473 390.324,-327.144 388.232,-333.824"/>
</g>
<!-- Node5 -->
<g id="node5" class="node"><title>Node5</title>
<g id="a_node5"><a xlink:href="classRa_1_1Engine_1_1RenderTechnique.html#a9bddcd20723ee582fd81c363b9148cf9" target="_top" xlink:title="Ra::Engine::RenderTechnique\l::setMaterial">
<polygon fill="white" stroke="black" points="381,-284.5 381,-314.5 534,-314.5 534,-284.5 381,-284.5"/>
<text text-anchor="start" x="389" y="-302.5" font-family="Helvetica,sans-Serif" font-size="10.00">Ra::Engine::RenderTechnique</text>
<text text-anchor="middle" x="457.5" y="-291.5" font-family="Helvetica,sans-Serif" font-size="10.00">::setMaterial</text>
</a>
</g>
</g>
<!-- Node2&#45;&gt;Node5 -->
<g id="edge4" class="edge"><title>Node2&#45;&gt;Node5</title>
<path fill="none" stroke="midnightblue" d="M336.079,-283.738C347.339,-285.212 359.096,-286.751 370.662,-288.265"/>
<polygon fill="midnightblue" stroke="midnightblue" points="370.39,-291.759 380.76,-289.586 371.299,-284.818 370.39,-291.759"/>
</g>
<!-- Node6 -->
<g id="node6" class="node"><title>Node6</title>
<g id="a_node6"><a xlink:href="classRa_1_1Engine_1_1RenderObject.html#ae9cb914f351555a60d29e8d6afedc06b" target="_top" xlink:title="Sort of factory method to easily create a render object. ">
<polygon fill="white" stroke="black" points="389,-235.5 389,-265.5 526,-265.5 526,-235.5 389,-235.5"/>
<text text-anchor="start" x="397" y="-253.5" font-family="Helvetica,sans-Serif" font-size="10.00">Ra::Engine::RenderObject</text>
<text text-anchor="middle" x="457.5" y="-242.5" font-family="Helvetica,sans-Serif" font-size="10.00">::createRenderObject</text>
</a>
</g>
</g>
<!-- Node2&#45;&gt;Node6 -->
<g id="edge5" class="edge"><title>Node2&#45;&gt;Node6</title>
<path fill="none" stroke="midnightblue" d="M336.079,-265.631C349.932,-263.891 364.537,-262.056 378.613,-260.287"/>
<polygon fill="midnightblue" stroke="midnightblue" points="379.265,-263.732 388.751,-259.013 378.393,-256.787 379.265,-263.732"/>
</g>
<!-- Node4 -->
<g id="node4" class="node"><title>Node4</title>
<g id="a_node4"><a xlink:href="classRa_1_1Engine_1_1ShaderConfiguration.html#a7e20a600c78e8627f0238b342f4b42f2" target="_top" xlink:title="Ra::Engine::ShaderConfiguration\l::getDefaultShaderConfig">
<polygon fill="white" stroke="black" points="579,-333.5 579,-363.5 750,-363.5 750,-333.5 579,-333.5"/>
<text text-anchor="start" x="587" y="-351.5" font-family="Helvetica,sans-Serif" font-size="10.00">Ra::Engine::ShaderConfiguration</text>
<text text-anchor="middle" x="664.5" y="-340.5" font-family="Helvetica,sans-Serif" font-size="10.00">::getDefaultShaderConfig</text>
</a>
</g>
</g>
<!-- Node3&#45;&gt;Node4 -->
<g id="edge3" class="edge"><title>Node3&#45;&gt;Node4</title>
<path fill="none" stroke="midnightblue" d="M543.065,-348.5C551.547,-348.5 560.198,-348.5 568.777,-348.5"/>
<polygon fill="midnightblue" stroke="midnightblue" points="568.799,-352 578.799,-348.5 568.799,-345 568.799,-352"/>
</g>
<!-- Node7 -->
<g id="node7" class="node"><title>Node7</title>
<g id="a_node7"><a xlink:href="classRa_1_1Engine_1_1RenderObject.html#acf300c8fdb55fee54d27b3fb46a1e523" target="_top" xlink:title="A &#45;1 (or any other negative value) lifetime is considered infinite, 0 is an &quot;invalid value&quot; (would me...">
<polygon fill="white" stroke="black" points="596,-235.5 596,-265.5 733,-265.5 733,-235.5 596,-235.5"/>
<text text-anchor="start" x="604" y="-253.5" font-family="Helvetica,sans-Serif" font-size="10.00">Ra::Engine::RenderObject</text>
<text text-anchor="middle" x="664.5" y="-242.5" font-family="Helvetica,sans-Serif" font-size="10.00">::RenderObject</text>
</a>
</g>
</g>
<!-- Node6&#45;&gt;Node7 -->
<g id="edge6" class="edge"><title>Node6&#45;&gt;Node7</title>
<path fill="none" stroke="midnightblue" d="M526.193,-250.5C545.261,-250.5 566.153,-250.5 585.759,-250.5"/>
<polygon fill="midnightblue" stroke="midnightblue" points="585.878,-254 595.878,-250.5 585.878,-247 585.878,-254"/>
</g>
<!-- Node8 -->
<g id="node8" class="node"><title>Node8</title>
<g id="a_node8"><a xlink:href="classRa_1_1Engine_1_1RenderObject.html#a8ea17931e62bea93890d44815bf7fcf5" target="_top" xlink:title="Ra::Engine::RenderObject\l::~RenderObject">
<polygon fill="white" stroke="black" points="786,-235.5 786,-265.5 923,-265.5 923,-235.5 786,-235.5"/>
<text text-anchor="start" x="794" y="-253.5" font-family="Helvetica,sans-Serif" font-size="10.00">Ra::Engine::RenderObject</text>
<text text-anchor="middle" x="854.5" y="-242.5" font-family="Helvetica,sans-Serif" font-size="10.00">::~RenderObject</text>
</a>
</g>
</g>
<!-- Node7&#45;&gt;Node8 -->
<g id="edge7" class="edge"><title>Node7&#45;&gt;Node8</title>
<path fill="none" stroke="midnightblue" d="M733.107,-250.5C746.914,-250.5 761.549,-250.5 775.68,-250.5"/>
<polygon fill="midnightblue" stroke="midnightblue" points="775.862,-254 785.862,-250.5 775.862,-247 775.862,-254"/>
</g>
<!-- Node10 -->
<g id="node10" class="node"><title>Node10</title>
<g id="a_node10"><a xlink:href="classRa_1_1Engine_1_1Entity.html#a92b52cd01334d5bbb6cc61f353a3dd99" target="_top" xlink:title="Ra::Engine::Entity\l::getTransformAsMatrix">
<polygon fill="white" stroke="black" points="394,-186.5 394,-216.5 521,-216.5 521,-186.5 394,-186.5"/>
<text text-anchor="start" x="402" y="-204.5" font-family="Helvetica,sans-Serif" font-size="10.00">Ra::Engine::Entity</text>
<text text-anchor="middle" x="457.5" y="-193.5" font-family="Helvetica,sans-Serif" font-size="10.00">::getTransformAsMatrix</text>
</a>
</g>
</g>
<!-- Node9&#45;&gt;Node10 -->
<g id="edge9" class="edge"><title>Node9&#45;&gt;Node10</title>
<path fill="none" stroke="midnightblue" d="M333.108,-201.5C349.46,-201.5 367.008,-201.5 383.592,-201.5"/>
<polygon fill="midnightblue" stroke="midnightblue" points="383.774,-205 393.773,-201.5 383.773,-198 383.774,-205"/>
</g>
<!-- Node11 -->
<g id="node11" class="node"><title>Node11</title>
<g id="a_node11"><a xlink:href="classRa_1_1Engine_1_1Entity.html#a524712805170bfce52ed0a98f7eee436" target="_top" xlink:title="Get component with a given name. ">
<polygon fill="white" stroke="black" points="407.5,-137.5 407.5,-167.5 507.5,-167.5 507.5,-137.5 407.5,-137.5"/>
<text text-anchor="start" x="415.5" y="-155.5" font-family="Helvetica,sans-Serif" font-size="10.00">Ra::Engine::Entity</text>
<text text-anchor="middle" x="457.5" y="-144.5" font-family="Helvetica,sans-Serif" font-size="10.00">::getComponent</text>
</a>
</g>
</g>
<!-- Node9&#45;&gt;Node11 -->
<g id="edge10" class="edge"><title>Node9&#45;&gt;Node11</title>
<path fill="none" stroke="midnightblue" d="M324.104,-186.465C347.421,-180.484 374.204,-173.613 397.554,-167.622"/>
<polygon fill="midnightblue" stroke="midnightblue" points="398.514,-170.989 407.331,-165.114 396.775,-164.209 398.514,-170.989"/>
</g>
<!-- Node15 -->
<g id="node15" class="node"><title>Node15</title>
<g id="a_node15"><a xlink:href="classRa_1_1Engine_1_1Component.html#a10b0bc182b76165744ebea603ae32dfe" target="_top" xlink:title="Shortcut to access the render object manager. ">
<polygon fill="white" stroke="black" points="393,-49.5 393,-79.5 522,-79.5 522,-49.5 393,-49.5"/>
<text text-anchor="start" x="401" y="-67.5" font-family="Helvetica,sans-Serif" font-size="10.00">Ra::Engine::Component</text>
<text text-anchor="middle" x="457.5" y="-56.5" font-family="Helvetica,sans-Serif" font-size="10.00">::getRoMgr</text>
</a>
</g>
</g>
<!-- Node14&#45;&gt;Node15 -->
<g id="edge14" class="edge"><title>Node14&#45;&gt;Node15</title>
<path fill="none" stroke="midnightblue" d="M329.1,-64.5C346.245,-64.5 364.941,-64.5 382.596,-64.5"/>
<polygon fill="midnightblue" stroke="midnightblue" points="382.852,-68.0001 392.852,-64.5 382.852,-61.0001 382.852,-68.0001"/>
</g>
</g>
</svg>
