<?xml version="1.0" encoding="UTF-8" standalone="no"?>
<!DOCTYPE svg PUBLIC "-//W3C//DTD SVG 1.1//EN"
 "http://www.w3.org/Graphics/SVG/1.1/DTD/svg11.dtd">
<!-- Generated by graphviz version 2.38.0 (20140413.2041)
 -->
<!-- Title: AnimationPlugin::AnimationSystem::getTime Pages: 1 -->
<svg width="851pt" height="315pt"
 viewBox="0.00 0.00 851.00 314.52" xmlns="http://www.w3.org/2000/svg" xmlns:xlink="http://www.w3.org/1999/xlink">
<g id="graph0" class="graph" transform="scale(1 1) rotate(0) translate(4 310.52)">
<title>AnimationPlugin::AnimationSystem::getTime</title>
<polygon fill="white" stroke="none" points="-4,4 -4,-310.52 847,-310.52 847,4 -4,4"/>
<!-- Node1 -->
<g id="node1" class="node"><title>Node1</title>
<polygon fill="#bfbfbf" stroke="black" points="0,-122.5 0,-152.5 149,-152.5 149,-122.5 0,-122.5"/>
<text text-anchor="start" x="8" y="-140.5" font-family="Helvetica,sans-Serif" font-size="10.00">AnimationPlugin::Animation</text>
<text text-anchor="middle" x="74.5" y="-129.5" font-family="Helvetica,sans-Serif" font-size="10.00">System::getTime</text>
</g>
<!-- Node2 -->
<g id="node2" class="node"><title>Node2</title>
<g id="a_node2"><a xlink:href="structRa_1_1Engine_1_1ItemEntry.html#aceafc81a73631955b64999dd39a639da" target="_top" xlink:title="Returns true if the item represents any valid object. ">
<polygon fill="white" stroke="black" points="200,-147.5 200,-177.5 319,-177.5 319,-147.5 200,-147.5"/>
<text text-anchor="start" x="208" y="-165.5" font-family="Helvetica,sans-Serif" font-size="10.00">Ra::Engine::ItemEntry</text>
<text text-anchor="middle" x="259.5" y="-154.5" font-family="Helvetica,sans-Serif" font-size="10.00">::isValid</text>
</a>
</g>
</g>
<!-- Node1&#45;&gt;Node2 -->
<g id="edge1" class="edge"><title>Node1&#45;&gt;Node2</title>
<path fill="none" stroke="midnightblue" d="M149.142,-147.56C162.597,-149.398 176.587,-151.31 189.888,-153.127"/>
<polygon fill="midnightblue" stroke="midnightblue" points="189.523,-156.609 199.905,-154.495 190.47,-149.674 189.523,-156.609"/>
</g>
<!-- Node12 -->
<g id="node12" class="node"><title>Node12</title>
<g id="a_node12"><a xlink:href="classAnimationPlugin_1_1AnimationComponent.html#a7bb9a09b3c704302420b1ec5e24ea59e" target="_top" xlink:title="AnimationPlugin::Animation\lComponent::getTime">
<polygon fill="white" stroke="black" points="185,-98.5 185,-128.5 334,-128.5 334,-98.5 185,-98.5"/>
<text text-anchor="start" x="193" y="-116.5" font-family="Helvetica,sans-Serif" font-size="10.00">AnimationPlugin::Animation</text>
<text text-anchor="middle" x="259.5" y="-105.5" font-family="Helvetica,sans-Serif" font-size="10.00">Component::getTime</text>
</a>
</g>
</g>
<!-- Node1&#45;&gt;Node12 -->
<g id="edge13" class="edge"><title>Node1&#45;&gt;Node12</title>
<path fill="none" stroke="midnightblue" d="M149.142,-127.842C157.565,-126.737 166.199,-125.605 174.742,-124.485"/>
<polygon fill="midnightblue" stroke="midnightblue" points="175.251,-127.948 184.711,-123.177 174.34,-121.007 175.251,-127.948"/>
</g>
<!-- Node3 -->
<g id="node3" class="node"><title>Node3</title>
<g id="a_node3"><a xlink:href="structRa_1_1Engine_1_1ItemEntry.html#a1fb9fdd74413a1fa5878f53c1cfcf8fd" target="_top" xlink:title="Debug checks. ">
<polygon fill="white" stroke="black" points="553,-133.5 553,-163.5 672,-163.5 672,-133.5 553,-133.5"/>
<text text-anchor="start" x="561" y="-151.5" font-family="Helvetica,sans-Serif" font-size="10.00">Ra::Engine::ItemEntry</text>
<text text-anchor="middle" x="612.5" y="-140.5" font-family="Helvetica,sans-Serif" font-size="10.00">::checkConsistency</text>
</a>
</g>
</g>
<!-- Node2&#45;&gt;Node3 -->
<g id="edge2" class="edge"><title>Node2&#45;&gt;Node3</title>
<path fill="none" stroke="midnightblue" d="M268.219,-177.506C283.364,-205.078 319.916,-263.032 370,-285.5 428.393,-311.696 457.119,-314.834 514,-285.5 559.852,-261.854 588.861,-205.57 602.431,-172.977"/>
<polygon fill="midnightblue" stroke="midnightblue" points="605.684,-174.269 606.149,-163.684 599.185,-171.669 605.684,-174.269"/>
</g>
<!-- Node5 -->
<g id="node5" class="node"><title>Node5</title>
<g id="a_node5"><a xlink:href="classRa_1_1Engine_1_1RadiumEngine.html#a79f6626ce468268791bc5bdfe17b5586" target="_top" xlink:title="Get the entity manager attached to the engine. ">
<polygon fill="white" stroke="black" points="371.5,-245.5 371.5,-275.5 512.5,-275.5 512.5,-245.5 371.5,-245.5"/>
<text text-anchor="start" x="379.5" y="-263.5" font-family="Helvetica,sans-Serif" font-size="10.00">Ra::Engine::RadiumEngine</text>
<text text-anchor="middle" x="442" y="-252.5" font-family="Helvetica,sans-Serif" font-size="10.00">::getEntityManager</text>
</a>
</g>
</g>
<!-- Node2&#45;&gt;Node5 -->
<g id="edge4" class="edge"><title>Node2&#45;&gt;Node5</title>
<path fill="none" stroke="midnightblue" d="M279.313,-177.531C300.396,-193.807 336.079,-219.688 370,-236.5 373.57,-238.27 377.303,-239.959 381.107,-241.563"/>
<polygon fill="midnightblue" stroke="midnightblue" points="380.075,-244.919 390.66,-245.368 382.665,-238.416 380.075,-244.919"/>
</g>
<!-- Node6 -->
<g id="node6" class="node"><title>Node6</title>
<g id="a_node6"><a xlink:href="classRa_1_1Engine_1_1EntityManager.html#a5115cccae6aaef614ad4bd08e64d8185" target="_top" xlink:title="Check wether an entity with a given name exists or not. ">
<polygon fill="white" stroke="black" points="371,-196.5 371,-226.5 513,-226.5 513,-196.5 371,-196.5"/>
<text text-anchor="start" x="379" y="-214.5" font-family="Helvetica,sans-Serif" font-size="10.00">Ra::Engine::EntityManager</text>
<text text-anchor="middle" x="442" y="-203.5" font-family="Helvetica,sans-Serif" font-size="10.00">::entityExists</text>
</a>
</g>
</g>
<!-- Node2&#45;&gt;Node6 -->
<g id="edge5" class="edge"><title>Node2&#45;&gt;Node6</title>
<path fill="none" stroke="midnightblue" d="M316.129,-177.601C335.003,-182.725 356.259,-188.496 375.811,-193.803"/>
<polygon fill="midnightblue" stroke="midnightblue" points="374.987,-197.206 385.555,-196.448 376.821,-190.451 374.987,-197.206"/>
</g>
<!-- Node7 -->
<g id="node7" class="node"><title>Node7</title>
<g id="a_node7"><a xlink:href="classRa_1_1Engine_1_1Entity.html#aaf256bea44bbc5bff6aa504aca05ca35" target="_top" xlink:title="Ra::Engine::Entity\l::getName">
<polygon fill="white" stroke="black" points="392,-147.5 392,-177.5 492,-177.5 492,-147.5 392,-147.5"/>
<text text-anchor="start" x="400" y="-165.5" font-family="Helvetica,sans-Serif" font-size="10.00">Ra::Engine::Entity</text>
<text text-anchor="middle" x="442" y="-154.5" font-family="Helvetica,sans-Serif" font-size="10.00">::getName</text>
</a>
</g>
</g>
<!-- Node2&#45;&gt;Node7 -->
<g id="edge6" class="edge"><title>Node2&#45;&gt;Node7</title>
<path fill="none" stroke="midnightblue" d="M319.103,-162.5C339.089,-162.5 361.447,-162.5 381.502,-162.5"/>
<polygon fill="midnightblue" stroke="midnightblue" points="381.756,-166 391.756,-162.5 381.756,-159 381.756,-166"/>
</g>
<!-- Node8 -->
<g id="node8" class="node"><title>Node8</title>
<g id="a_node8"><a xlink:href="structRa_1_1Engine_1_1ItemEntry.html#a898047549069e5b64d3a9a65c058af56" target="_top" xlink:title="Returns true if the item represents a render object. ">
<polygon fill="white" stroke="black" points="382.5,-98.5 382.5,-128.5 501.5,-128.5 501.5,-98.5 382.5,-98.5"/>
<text text-anchor="start" x="390.5" y="-116.5" font-family="Helvetica,sans-Serif" font-size="10.00">Ra::Engine::ItemEntry</text>
<text text-anchor="middle" x="442" y="-105.5" font-family="Helvetica,sans-Serif" font-size="10.00">::isRoNode</text>
</a>
</g>
</g>
<!-- Node2&#45;&gt;Node8 -->
<g id="edge7" class="edge"><title>Node2&#45;&gt;Node8</title>
<path fill="none" stroke="midnightblue" d="M316.129,-147.399C335.003,-142.275 356.259,-136.504 375.811,-131.197"/>
<polygon fill="midnightblue" stroke="midnightblue" points="376.821,-134.549 385.555,-128.552 374.987,-127.794 376.821,-134.549"/>
</g>
<!-- Node10 -->
<g id="node10" class="node"><title>Node10</title>
<g id="a_node10"><a xlink:href="classRa_1_1Engine_1_1RadiumEngine.html#a58b27bc600ea769f68b0e2938abc7862" target="_top" xlink:title="Manager getters. ">
<polygon fill="white" stroke="black" points="370,-49.5 370,-79.5 514,-79.5 514,-49.5 370,-49.5"/>
<text text-anchor="start" x="378" y="-67.5" font-family="Helvetica,sans-Serif" font-size="10.00">Ra::Engine::RadiumEngine</text>
<text text-anchor="middle" x="442" y="-56.5" font-family="Helvetica,sans-Serif" font-size="10.00">::getRenderObjectManager</text>
</a>
</g>
</g>
<!-- Node2&#45;&gt;Node10 -->
<g id="edge10" class="edge"><title>Node2&#45;&gt;Node10</title>
<path fill="none" stroke="midnightblue" d="M318.764,-147.331C324.145,-144.808 329.324,-141.884 334,-138.5 355.893,-122.658 348.29,-105.592 370,-89.5 372.492,-87.653 375.132,-85.9337 377.871,-84.3341"/>
<polygon fill="midnightblue" stroke="midnightblue" points="379.652,-87.3528 386.898,-79.6236 376.413,-81.1469 379.652,-87.3528"/>
</g>
<!-- Node11 -->
<g id="node11" class="node"><title>Node11</title>
<g id="a_node11"><a xlink:href="classRa_1_1Engine_1_1RenderObjectManager.html#a4077b9cf9e1e4d62fd5456386f2d72c8" target="_top" xlink:title="Returns true if the index points to a valid render object. ">
<polygon fill="white" stroke="black" points="373.5,-0.5 373.5,-30.5 510.5,-30.5 510.5,-0.5 373.5,-0.5"/>
<text text-anchor="start" x="381.5" y="-18.5" font-family="Helvetica,sans-Serif" font-size="10.00">Ra::Engine::RenderObject</text>
<text text-anchor="middle" x="442" y="-7.5" font-family="Helvetica,sans-Serif" font-size="10.00">Manager::exists</text>
</a>
</g>
</g>
<!-- Node2&#45;&gt;Node11 -->
<g id="edge11" class="edge"><title>Node2&#45;&gt;Node11</title>
<path fill="none" stroke="midnightblue" d="M319.137,-149.024C324.572,-146.165 329.658,-142.7 334,-138.5 367.65,-105.947 336.519,-72.2263 370,-39.5 371.105,-38.42 372.26,-37.3885 373.459,-36.4034"/>
<polygon fill="midnightblue" stroke="midnightblue" points="375.686,-39.1182 381.921,-30.5518 371.705,-33.3606 375.686,-39.1182"/>
</g>
<!-- Node4 -->
<g id="node4" class="node"><title>Node4</title>
<g id="a_node4"><a xlink:href="classRa_1_1Core_1_1Index.html#a7283e7fb9cc134e04ef3cde8877f8fe2" target="_top" xlink:title="INVALID. ">
<polygon fill="white" stroke="black" points="711,-139 711,-158 843,-158 843,-139 711,-139"/>
<text text-anchor="middle" x="777" y="-146" font-family="Helvetica,sans-Serif" font-size="10.00">Ra::Core::Index::isInvalid</text>
</a>
</g>
</g>
<!-- Node3&#45;&gt;Node4 -->
<g id="edge3" class="edge"><title>Node3&#45;&gt;Node4</title>
<path fill="none" stroke="midnightblue" d="M672.166,-148.5C681.379,-148.5 691.013,-148.5 700.541,-148.5"/>
<polygon fill="midnightblue" stroke="midnightblue" points="700.812,-152 710.812,-148.5 700.812,-145 700.812,-152"/>
</g>
<!-- Node8&#45;&gt;Node3 -->
<g id="edge8" class="edge"><title>Node8&#45;&gt;Node3</title>
<path fill="none" stroke="midnightblue" d="M501.933,-125.741C515.221,-128.501 529.435,-131.454 543.075,-134.287"/>
<polygon fill="midnightblue" stroke="midnightblue" points="542.382,-137.718 552.885,-136.325 543.806,-130.864 542.382,-137.718"/>
</g>
<!-- Node9 -->
<g id="node9" class="node"><title>Node9</title>
<g id="a_node9"><a xlink:href="classRa_1_1Core_1_1Index.html#a87c70243f30c65c1a24834d1829bda01" target="_top" xlink:title="DESTRUCTOR: Must not be defined, we need it trivial to be constexpr. ">
<polygon fill="white" stroke="black" points="550,-68 550,-87 675,-87 675,-68 550,-68"/>
<text text-anchor="middle" x="612.5" y="-75" font-family="Helvetica,sans-Serif" font-size="10.00">Ra::Core::Index::isValid</text>
</a>
</g>
</g>
<!-- Node8&#45;&gt;Node9 -->
<g id="edge9" class="edge"><title>Node8&#45;&gt;Node9</title>
<path fill="none" stroke="midnightblue" d="M501.933,-100.909C519.783,-97.0953 539.305,-92.9245 556.861,-89.1737"/>
<polygon fill="midnightblue" stroke="midnightblue" points="557.895,-92.5318 566.943,-87.0197 556.432,-85.6863 557.895,-92.5318"/>
</g>
<!-- Node11&#45;&gt;Node9 -->
<g id="edge12" class="edge"><title>Node11&#45;&gt;Node9</title>
<path fill="none" stroke="midnightblue" d="M488.559,-30.5567C497.04,-33.4567 505.807,-36.5205 514,-39.5 535.663,-47.3782 559.804,-56.7819 578.644,-64.2635"/>
<polygon fill="midnightblue" stroke="midnightblue" points="577.387,-67.5302 587.972,-67.9825 579.979,-61.0279 577.387,-67.5302"/>
</g>
</g>
</svg>
