<?xml version="1.0" encoding="UTF-8" standalone="no"?>
<!DOCTYPE svg PUBLIC "-//W3C//DTD SVG 1.1//EN"
 "http://www.w3.org/Graphics/SVG/1.1/DTD/svg11.dtd">
<!-- Generated by graphviz version 2.38.0 (20140413.2041)
 -->
<!-- Title: Ra::Gui::Viewer::mousePressEvent Pages: 1 -->
<svg width="1243pt" height="436pt"
 viewBox="0.00 0.00 1243.00 436.37" xmlns="http://www.w3.org/2000/svg" xmlns:xlink="http://www.w3.org/1999/xlink">
<g id="graph0" class="graph" transform="scale(1 1) rotate(0) translate(4 432.367)">
<title>Ra::Gui::Viewer::mousePressEvent</title>
<polygon fill="white" stroke="none" points="-4,4 -4,-432.367 1239,-432.367 1239,4 -4,4"/>
<!-- Node1 -->
<g id="node1" class="node"><title>Node1</title>
<polygon fill="#bfbfbf" stroke="black" points="0,-320.5 0,-350.5 153,-350.5 153,-320.5 0,-320.5"/>
<text text-anchor="start" x="8" y="-338.5" font-family="Helvetica,sans-Serif" font-size="10.00">Ra::Gui::Viewer::mousePress</text>
<text text-anchor="middle" x="76.5" y="-327.5" font-family="Helvetica,sans-Serif" font-size="10.00">Event</text>
</g>
<!-- Node2 -->
<g id="node2" class="node"><title>Node2</title>
<g id="a_node2"><a xlink:href="namespaceRa_1_1Gui.html#afe2329e48512356b2cce3d8add41c665" target="_top" xlink:title="Ra::Gui::isKeyPressed">
<polygon fill="white" stroke="black" points="412,-366 412,-385 531,-385 531,-366 412,-366"/>
<text text-anchor="middle" x="471.5" y="-373" font-family="Helvetica,sans-Serif" font-size="10.00">Ra::Gui::isKeyPressed</text>
</a>
</g>
</g>
<!-- Node1&#45;&gt;Node2 -->
<g id="edge1" class="edge"><title>Node1&#45;&gt;Node2</title>
<path fill="none" stroke="midnightblue" d="M92.3839,-350.769C112.291,-369.982 149.665,-401.978 189,-414.5 260.572,-437.285 283.932,-426.974 358,-414.5 386.766,-409.655 418.003,-398.301 440.246,-389.086"/>
<polygon fill="midnightblue" stroke="midnightblue" points="441.653,-392.291 449.492,-385.164 438.919,-385.847 441.653,-392.291"/>
</g>
<!-- Node3 -->
<g id="node3" class="node"><title>Node3</title>
<g id="a_node3"><a xlink:href="namespaceRa_1_1Core_1_1Colors.html#a21209933d9db2ed20826ba5f9e2b4d3a" target="_top" xlink:title="Ra::Core::Colors::Cyan">
<polygon fill="white" stroke="black" points="212,-386 212,-405 335,-405 335,-386 212,-386"/>
<text text-anchor="middle" x="273.5" y="-393" font-family="Helvetica,sans-Serif" font-size="10.00">Ra::Core::Colors::Cyan</text>
</a>
</g>
</g>
<!-- Node1&#45;&gt;Node3 -->
<g id="edge2" class="edge"><title>Node1&#45;&gt;Node3</title>
<path fill="none" stroke="midnightblue" d="M114.772,-350.572C136.248,-358.91 163.886,-369.059 189,-376.5 197.689,-379.074 206.973,-381.5 216.078,-383.702"/>
<polygon fill="midnightblue" stroke="midnightblue" points="215.314,-387.117 225.85,-385.999 216.916,-380.303 215.314,-387.117"/>
</g>
<!-- Node4 -->
<g id="node4" class="node"><title>Node4</title>
<g id="a_node4"><a xlink:href="namespaceRa_1_1Core_1_1Colors.html#a975b73de86593a6e603f16f819b5acd1" target="_top" xlink:title="Ra::Core::Colors::Yellow">
<polygon fill="white" stroke="black" points="210.5,-348 210.5,-367 336.5,-367 336.5,-348 210.5,-348"/>
<text text-anchor="middle" x="273.5" y="-355" font-family="Helvetica,sans-Serif" font-size="10.00">Ra::Core::Colors::Yellow</text>
</a>
</g>
</g>
<!-- Node1&#45;&gt;Node4 -->
<g id="edge3" class="edge"><title>Node1&#45;&gt;Node4</title>
<path fill="none" stroke="midnightblue" d="M153.171,-344.037C168.715,-345.791 185.04,-347.633 200.452,-349.371"/>
<polygon fill="midnightblue" stroke="midnightblue" points="200.101,-352.854 210.431,-350.497 200.886,-345.898 200.101,-352.854"/>
</g>
<!-- Node5 -->
<g id="node5" class="node"><title>Node5</title>
<g id="a_node5"><a xlink:href="classRa_1_1Engine_1_1Renderer.html#a4c25a5364a90acf6e55b122770a654a2" target="_top" xlink:title="Add a new picking query for the next rendering. ">
<polygon fill="white" stroke="black" points="215.5,-298.5 215.5,-328.5 331.5,-328.5 331.5,-298.5 215.5,-298.5"/>
<text text-anchor="start" x="223.5" y="-316.5" font-family="Helvetica,sans-Serif" font-size="10.00">Ra::Engine::Renderer</text>
<text text-anchor="middle" x="273.5" y="-305.5" font-family="Helvetica,sans-Serif" font-size="10.00">::addPickingRequest</text>
</a>
</g>
</g>
<!-- Node1&#45;&gt;Node5 -->
<g id="edge4" class="edge"><title>Node1&#45;&gt;Node5</title>
<path fill="none" stroke="midnightblue" d="M153.171,-326.963C170.282,-325.032 188.338,-322.995 205.082,-321.106"/>
<polygon fill="midnightblue" stroke="midnightblue" points="205.773,-324.55 215.318,-319.951 204.988,-317.595 205.773,-324.55"/>
</g>
<!-- Node6 -->
<g id="node6" class="node"><title>Node6</title>
<g id="a_node6"><a xlink:href="classRa_1_1Gui_1_1GizmoManager.html#ab8df00ce49dc392a7d839c4f4cf74445" target="_top" xlink:title="Receive mouse events and transmit them to the gizmos. ">
<polygon fill="white" stroke="black" points="203.5,-210.5 203.5,-240.5 343.5,-240.5 343.5,-210.5 203.5,-210.5"/>
<text text-anchor="start" x="211.5" y="-228.5" font-family="Helvetica,sans-Serif" font-size="10.00">Ra::Gui::GizmoManager</text>
<text text-anchor="middle" x="273.5" y="-217.5" font-family="Helvetica,sans-Serif" font-size="10.00">::handleMousePressEvent</text>
</a>
</g>
</g>
<!-- Node1&#45;&gt;Node6 -->
<g id="edge5" class="edge"><title>Node1&#45;&gt;Node6</title>
<path fill="none" stroke="midnightblue" d="M93.5866,-320.189C114.185,-301.341 151.694,-269.503 189,-250.5 193.519,-248.198 198.286,-246.07 203.159,-244.111"/>
<polygon fill="midnightblue" stroke="midnightblue" points="204.497,-247.347 212.622,-240.548 202.03,-240.796 204.497,-247.347"/>
</g>
<!-- Node24 -->
<g id="node24" class="node"><title>Node24</title>
<g id="a_node24"><a xlink:href="classRa_1_1Gui_1_1Viewer.html#a2a0edd535318fbc1a69b9345029b71bb" target="_top" xlink:title="Ra::Gui::Viewer::getPickingMode">
<polygon fill="white" stroke="black" points="189,-260 189,-279 358,-279 358,-260 189,-260"/>
<text text-anchor="middle" x="273.5" y="-267" font-family="Helvetica,sans-Serif" font-size="10.00">Ra::Gui::Viewer::getPickingMode</text>
</a>
</g>
</g>
<!-- Node1&#45;&gt;Node24 -->
<g id="edge29" class="edge"><title>Node1&#45;&gt;Node24</title>
<path fill="none" stroke="midnightblue" d="M109.141,-320.409C131.159,-310.344 161.404,-297.38 189,-288.5 197.036,-285.914 205.615,-283.541 214.101,-281.412"/>
<polygon fill="midnightblue" stroke="midnightblue" points="215.081,-284.776 223.982,-279.029 213.44,-277.972 215.081,-284.776"/>
</g>
<!-- Node7 -->
<g id="node7" class="node"><title>Node7</title>
<g id="a_node7"><a xlink:href="classRa_1_1GuiBase_1_1TransformEditor.html#ad21b8c46ad2d5c62e309eb16b104ee2f" target="_top" xlink:title="Ra::GuiBase::TransformEditor\l::canEdit">
<polygon fill="white" stroke="black" points="394,-161.5 394,-191.5 549,-191.5 549,-161.5 394,-161.5"/>
<text text-anchor="start" x="402" y="-179.5" font-family="Helvetica,sans-Serif" font-size="10.00">Ra::GuiBase::TransformEditor</text>
<text text-anchor="middle" x="471.5" y="-168.5" font-family="Helvetica,sans-Serif" font-size="10.00">::canEdit</text>
</a>
</g>
</g>
<!-- Node6&#45;&gt;Node7 -->
<g id="edge6" class="edge"><title>Node6&#45;&gt;Node7</title>
<path fill="none" stroke="midnightblue" d="M334.638,-210.465C355.521,-205.245 379.115,-199.346 400.71,-193.947"/>
<polygon fill="midnightblue" stroke="midnightblue" points="401.623,-197.327 410.475,-191.506 399.925,-190.536 401.623,-197.327"/>
</g>
<!-- Node22 -->
<g id="node22" class="node"><title>Node22</title>
<g id="a_node22"><a xlink:href="classRa_1_1Gui_1_1CameraInterface.html#ab0c85694c64d45f72de41ac62e1f4152" target="_top" xlink:title="Static method to get the Camera from the given viewer. ">
<polygon fill="white" stroke="black" points="403,-259.5 403,-289.5 540,-289.5 540,-259.5 403,-259.5"/>
<text text-anchor="start" x="411" y="-277.5" font-family="Helvetica,sans-Serif" font-size="10.00">Ra::Gui::CameraInterface</text>
<text text-anchor="middle" x="471.5" y="-266.5" font-family="Helvetica,sans-Serif" font-size="10.00">::getCameraFromViewer</text>
</a>
</g>
</g>
<!-- Node6&#45;&gt;Node22 -->
<g id="edge27" class="edge"><title>Node6&#45;&gt;Node22</title>
<path fill="none" stroke="midnightblue" d="M334.638,-240.535C355.521,-245.755 379.115,-251.654 400.71,-257.053"/>
<polygon fill="midnightblue" stroke="midnightblue" points="399.925,-260.464 410.475,-259.494 401.623,-253.673 399.925,-260.464"/>
</g>
<!-- Node23 -->
<g id="node23" class="node"><title>Node23</title>
<g id="a_node23"><a xlink:href="classRa_1_1Gui_1_1Gizmo.html#a14b8a47de88058ee0bd62e8c4de99086" target="_top" xlink:title="Called when the gizmo is first clicked, with the camera parameters and the initial pixel coordinates...">
<polygon fill="white" stroke="black" points="405,-210.5 405,-240.5 538,-240.5 538,-210.5 405,-210.5"/>
<text text-anchor="start" x="413" y="-228.5" font-family="Helvetica,sans-Serif" font-size="10.00">Ra::Gui::Gizmo::setInitial</text>
<text text-anchor="middle" x="471.5" y="-217.5" font-family="Helvetica,sans-Serif" font-size="10.00">State</text>
</a>
</g>
</g>
<!-- Node6&#45;&gt;Node23 -->
<g id="edge28" class="edge"><title>Node6&#45;&gt;Node23</title>
<path fill="none" stroke="midnightblue" d="M343.602,-225.5C360.122,-225.5 377.846,-225.5 394.652,-225.5"/>
<polygon fill="midnightblue" stroke="midnightblue" points="394.978,-229 404.978,-225.5 394.978,-222 394.978,-229"/>
</g>
<!-- Node8 -->
<g id="node8" class="node"><title>Node8</title>
<g id="a_node8"><a xlink:href="structRa_1_1Engine_1_1ItemEntry.html#aceafc81a73631955b64999dd39a639da" target="_top" xlink:title="Returns true if the item represents any valid object. ">
<polygon fill="white" stroke="black" points="590,-186.5 590,-216.5 709,-216.5 709,-186.5 590,-186.5"/>
<text text-anchor="start" x="598" y="-204.5" font-family="Helvetica,sans-Serif" font-size="10.00">Ra::Engine::ItemEntry</text>
<text text-anchor="middle" x="649.5" y="-193.5" font-family="Helvetica,sans-Serif" font-size="10.00">::isValid</text>
</a>
</g>
</g>
<!-- Node7&#45;&gt;Node8 -->
<g id="edge7" class="edge"><title>Node7&#45;&gt;Node8</title>
<path fill="none" stroke="midnightblue" d="M549.184,-187.393C559.397,-188.843 569.817,-190.323 579.88,-191.753"/>
<polygon fill="midnightblue" stroke="midnightblue" points="579.412,-195.221 589.805,-193.163 580.396,-188.291 579.412,-195.221"/>
</g>
<!-- Node18 -->
<g id="node18" class="node"><title>Node18</title>
<g id="a_node18"><a xlink:href="structRa_1_1Engine_1_1ItemEntry.html#a09e294208d0896596a42a7a6c7e78f75" target="_top" xlink:title="Returns true if the item can be selected. ">
<polygon fill="white" stroke="black" points="590,-137.5 590,-167.5 709,-167.5 709,-137.5 590,-137.5"/>
<text text-anchor="start" x="598" y="-155.5" font-family="Helvetica,sans-Serif" font-size="10.00">Ra::Engine::ItemEntry</text>
<text text-anchor="middle" x="649.5" y="-144.5" font-family="Helvetica,sans-Serif" font-size="10.00">::isSelectable</text>
</a>
</g>
</g>
<!-- Node7&#45;&gt;Node18 -->
<g id="edge19" class="edge"><title>Node7&#45;&gt;Node18</title>
<path fill="none" stroke="midnightblue" d="M549.184,-166.043C559.397,-164.65 569.817,-163.23 579.88,-161.857"/>
<polygon fill="midnightblue" stroke="midnightblue" points="580.369,-165.323 589.805,-160.504 579.423,-158.387 580.369,-165.323"/>
</g>
<!-- Node20 -->
<g id="node20" class="node"><title>Node20</title>
<g id="a_node20"><a xlink:href="structRa_1_1Engine_1_1ItemEntry.html#a4823dfa3c113db71733979f1719f3b28" target="_top" xlink:title="Returns true if the item represents an entity. ">
<polygon fill="white" stroke="black" points="590,-300.5 590,-330.5 709,-330.5 709,-300.5 590,-300.5"/>
<text text-anchor="start" x="598" y="-318.5" font-family="Helvetica,sans-Serif" font-size="10.00">Ra::Engine::ItemEntry</text>
<text text-anchor="middle" x="649.5" y="-307.5" font-family="Helvetica,sans-Serif" font-size="10.00">::isEntityNode</text>
</a>
</g>
</g>
<!-- Node7&#45;&gt;Node20 -->
<g id="edge24" class="edge"><title>Node7&#45;&gt;Node20</title>
<path fill="none" stroke="midnightblue" d="M532.067,-191.532C538.004,-194.093 543.763,-197.063 549,-200.5 585.725,-224.601 616.742,-265.951 633.958,-291.949"/>
<polygon fill="midnightblue" stroke="midnightblue" points="631.088,-293.956 639.459,-300.451 636.965,-290.153 631.088,-293.956"/>
</g>
<!-- Node21 -->
<g id="node21" class="node"><title>Node21</title>
<g id="a_node21"><a xlink:href="classRa_1_1Engine_1_1Component.html#acf64b8eb5eccf40d1ef61fef5a137c01" target="_top" xlink:title="Returns true if a transform can be edited with the render object index given as a key...">
<polygon fill="white" stroke="black" points="585,-88.5 585,-118.5 714,-118.5 714,-88.5 585,-88.5"/>
<text text-anchor="start" x="593" y="-106.5" font-family="Helvetica,sans-Serif" font-size="10.00">Ra::Engine::Component</text>
<text text-anchor="middle" x="649.5" y="-95.5" font-family="Helvetica,sans-Serif" font-size="10.00">::canEdit</text>
</a>
</g>
</g>
<!-- Node7&#45;&gt;Node21 -->
<g id="edge26" class="edge"><title>Node7&#45;&gt;Node21</title>
<path fill="none" stroke="midnightblue" d="M505.791,-161.485C528.087,-151.557 558.16,-138.41 585,-127.5 589.229,-125.781 593.632,-124.033 598.06,-122.304"/>
<polygon fill="midnightblue" stroke="midnightblue" points="599.666,-125.435 607.733,-118.567 597.144,-118.905 599.666,-125.435"/>
</g>
<!-- Node9 -->
<g id="node9" class="node"><title>Node9</title>
<g id="a_node9"><a xlink:href="structRa_1_1Engine_1_1ItemEntry.html#a1fb9fdd74413a1fa5878f53c1cfcf8fd" target="_top" xlink:title="Debug checks. ">
<polygon fill="white" stroke="black" points="939,-328.5 939,-358.5 1058,-358.5 1058,-328.5 939,-328.5"/>
<text text-anchor="start" x="947" y="-346.5" font-family="Helvetica,sans-Serif" font-size="10.00">Ra::Engine::ItemEntry</text>
<text text-anchor="middle" x="998.5" y="-335.5" font-family="Helvetica,sans-Serif" font-size="10.00">::checkConsistency</text>
</a>
</g>
</g>
<!-- Node8&#45;&gt;Node9 -->
<g id="edge8" class="edge"><title>Node8&#45;&gt;Node9</title>
<path fill="none" stroke="midnightblue" d="M660.737,-216.869C681.025,-246.808 726.408,-311.109 750,-323.5 805.1,-352.441 876.77,-355.099 928.796,-351.916"/>
<polygon fill="midnightblue" stroke="midnightblue" points="929.196,-355.396 938.928,-351.207 928.708,-348.413 929.196,-355.396"/>
</g>
<!-- Node11 -->
<g id="node11" class="node"><title>Node11</title>
<g id="a_node11"><a xlink:href="classRa_1_1Engine_1_1RadiumEngine.html#a79f6626ce468268791bc5bdfe17b5586" target="_top" xlink:title="Get the entity manager attached to the engine. ">
<polygon fill="white" stroke="black" points="751.5,-186.5 751.5,-216.5 892.5,-216.5 892.5,-186.5 751.5,-186.5"/>
<text text-anchor="start" x="759.5" y="-204.5" font-family="Helvetica,sans-Serif" font-size="10.00">Ra::Engine::RadiumEngine</text>
<text text-anchor="middle" x="822" y="-193.5" font-family="Helvetica,sans-Serif" font-size="10.00">::getEntityManager</text>
</a>
</g>
</g>
<!-- Node8&#45;&gt;Node11 -->
<g id="edge10" class="edge"><title>Node8&#45;&gt;Node11</title>
<path fill="none" stroke="midnightblue" d="M709.176,-201.5C719.469,-201.5 730.336,-201.5 741.089,-201.5"/>
<polygon fill="midnightblue" stroke="midnightblue" points="741.342,-205 751.342,-201.5 741.342,-198 741.342,-205"/>
</g>
<!-- Node12 -->
<g id="node12" class="node"><title>Node12</title>
<g id="a_node12"><a xlink:href="classRa_1_1Engine_1_1EntityManager.html#a5115cccae6aaef614ad4bd08e64d8185" target="_top" xlink:title="Check wether an entity with a given name exists or not. ">
<polygon fill="white" stroke="black" points="751,-284.5 751,-314.5 893,-314.5 893,-284.5 751,-284.5"/>
<text text-anchor="start" x="759" y="-302.5" font-family="Helvetica,sans-Serif" font-size="10.00">Ra::Engine::EntityManager</text>
<text text-anchor="middle" x="822" y="-291.5" font-family="Helvetica,sans-Serif" font-size="10.00">::entityExists</text>
</a>
</g>
</g>
<!-- Node8&#45;&gt;Node12 -->
<g id="edge11" class="edge"><title>Node8&#45;&gt;Node12</title>
<path fill="none" stroke="midnightblue" d="M667.776,-216.652C686.832,-232.75 718.928,-258.095 750,-274.5 754.009,-276.616 758.235,-278.618 762.545,-280.498"/>
<polygon fill="midnightblue" stroke="midnightblue" points="761.486,-283.847 772.066,-284.414 764.149,-277.373 761.486,-283.847"/>
</g>
<!-- Node13 -->
<g id="node13" class="node"><title>Node13</title>
<g id="a_node13"><a xlink:href="classRa_1_1Engine_1_1Entity.html#aaf256bea44bbc5bff6aa504aca05ca35" target="_top" xlink:title="Ra::Engine::Entity\l::getName">
<polygon fill="white" stroke="black" points="772,-235.5 772,-265.5 872,-265.5 872,-235.5 772,-235.5"/>
<text text-anchor="start" x="780" y="-253.5" font-family="Helvetica,sans-Serif" font-size="10.00">Ra::Engine::Entity</text>
<text text-anchor="middle" x="822" y="-242.5" font-family="Helvetica,sans-Serif" font-size="10.00">::getName</text>
</a>
</g>
</g>
<!-- Node8&#45;&gt;Node13 -->
<g id="edge12" class="edge"><title>Node8&#45;&gt;Node13</title>
<path fill="none" stroke="midnightblue" d="M703.047,-216.601C721.711,-221.965 742.84,-228.038 762.007,-233.546"/>
<polygon fill="midnightblue" stroke="midnightblue" points="761.25,-236.97 771.827,-236.368 763.183,-230.242 761.25,-236.97"/>
</g>
<!-- Node14 -->
<g id="node14" class="node"><title>Node14</title>
<g id="a_node14"><a xlink:href="structRa_1_1Engine_1_1ItemEntry.html#a898047549069e5b64d3a9a65c058af56" target="_top" xlink:title="Returns true if the item represents a render object. ">
<polygon fill="white" stroke="black" points="762.5,-137.5 762.5,-167.5 881.5,-167.5 881.5,-137.5 762.5,-137.5"/>
<text text-anchor="start" x="770.5" y="-155.5" font-family="Helvetica,sans-Serif" font-size="10.00">Ra::Engine::ItemEntry</text>
<text text-anchor="middle" x="822" y="-144.5" font-family="Helvetica,sans-Serif" font-size="10.00">::isRoNode</text>
</a>
</g>
</g>
<!-- Node8&#45;&gt;Node14 -->
<g id="edge13" class="edge"><title>Node8&#45;&gt;Node14</title>
<path fill="none" stroke="midnightblue" d="M703.047,-186.399C720.713,-181.321 740.587,-175.61 758.916,-170.342"/>
<polygon fill="midnightblue" stroke="midnightblue" points="759.982,-173.678 768.627,-167.552 758.049,-166.95 759.982,-173.678"/>
</g>
<!-- Node16 -->
<g id="node16" class="node"><title>Node16</title>
<g id="a_node16"><a xlink:href="classRa_1_1Engine_1_1RadiumEngine.html#a58b27bc600ea769f68b0e2938abc7862" target="_top" xlink:title="Manager getters. ">
<polygon fill="white" stroke="black" points="750,-49.5 750,-79.5 894,-79.5 894,-49.5 750,-49.5"/>
<text text-anchor="start" x="758" y="-67.5" font-family="Helvetica,sans-Serif" font-size="10.00">Ra::Engine::RadiumEngine</text>
<text text-anchor="middle" x="822" y="-56.5" font-family="Helvetica,sans-Serif" font-size="10.00">::getRenderObjectManager</text>
</a>
</g>
</g>
<!-- Node8&#45;&gt;Node16 -->
<g id="edge16" class="edge"><title>Node8&#45;&gt;Node16</title>
<path fill="none" stroke="midnightblue" d="M700.341,-186.438C705.307,-183.647 709.987,-180.361 714,-176.5 742.683,-148.905 721.661,-122.448 750,-94.5 753.716,-90.8355 757.947,-87.5913 762.451,-84.7243"/>
<polygon fill="midnightblue" stroke="midnightblue" points="764.408,-87.6386 771.384,-79.6646 760.958,-81.5478 764.408,-87.6386"/>
</g>
<!-- Node17 -->
<g id="node17" class="node"><title>Node17</title>
<g id="a_node17"><a xlink:href="classRa_1_1Engine_1_1RenderObjectManager.html#a4077b9cf9e1e4d62fd5456386f2d72c8" target="_top" xlink:title="Returns true if the index points to a valid render object. ">
<polygon fill="white" stroke="black" points="930,-93.5 930,-123.5 1067,-123.5 1067,-93.5 930,-93.5"/>
<text text-anchor="start" x="938" y="-111.5" font-family="Helvetica,sans-Serif" font-size="10.00">Ra::Engine::RenderObject</text>
<text text-anchor="middle" x="998.5" y="-100.5" font-family="Helvetica,sans-Serif" font-size="10.00">Manager::exists</text>
</a>
</g>
</g>
<!-- Node8&#45;&gt;Node17 -->
<g id="edge17" class="edge"><title>Node8&#45;&gt;Node17</title>
<path fill="none" stroke="midnightblue" d="M697.576,-186.497C703.387,-183.647 709.024,-180.331 714,-176.5 735.413,-160.015 726.374,-140.619 750,-127.5 801.481,-98.9134 868.517,-95.4302 919.836,-98.3965"/>
<polygon fill="midnightblue" stroke="midnightblue" points="919.669,-101.893 929.88,-99.0702 920.137,-94.9087 919.669,-101.893"/>
</g>
<!-- Node10 -->
<g id="node10" class="node"><title>Node10</title>
<g id="a_node10"><a xlink:href="classRa_1_1Core_1_1Index.html#a7283e7fb9cc134e04ef3cde8877f8fe2" target="_top" xlink:title="INVALID. ">
<polygon fill="white" stroke="black" points="1103,-334 1103,-353 1235,-353 1235,-334 1103,-334"/>
<text text-anchor="middle" x="1169" y="-341" font-family="Helvetica,sans-Serif" font-size="10.00">Ra::Core::Index::isInvalid</text>
</a>
</g>
</g>
<!-- Node9&#45;&gt;Node10 -->
<g id="edge9" class="edge"><title>Node9&#45;&gt;Node10</title>
<path fill="none" stroke="midnightblue" d="M1058.43,-343.5C1069.52,-343.5 1081.24,-343.5 1092.75,-343.5"/>
<polygon fill="midnightblue" stroke="midnightblue" points="1092.77,-347 1102.77,-343.5 1092.77,-340 1092.77,-347"/>
</g>
<!-- Node14&#45;&gt;Node9 -->
<g id="edge14" class="edge"><title>Node14&#45;&gt;Node9</title>
<path fill="none" stroke="midnightblue" d="M879.921,-167.651C884.933,-170.173 889.72,-173.102 894,-176.5 942.351,-214.883 974.066,-282.462 988.502,-318.772"/>
<polygon fill="midnightblue" stroke="midnightblue" points="985.249,-320.065 992.115,-328.134 991.78,-317.544 985.249,-320.065"/>
</g>
<!-- Node15 -->
<g id="node15" class="node"><title>Node15</title>
<g id="a_node15"><a xlink:href="classRa_1_1Core_1_1Index.html#a87c70243f30c65c1a24834d1829bda01" target="_top" xlink:title="DESTRUCTOR: Must not be defined, we need it trivial to be constexpr. ">
<polygon fill="white" stroke="black" points="1106.5,-121 1106.5,-140 1231.5,-140 1231.5,-121 1106.5,-121"/>
<text text-anchor="middle" x="1169" y="-128" font-family="Helvetica,sans-Serif" font-size="10.00">Ra::Core::Index::isValid</text>
</a>
</g>
</g>
<!-- Node14&#45;&gt;Node15 -->
<g id="edge15" class="edge"><title>Node14&#45;&gt;Node15</title>
<path fill="none" stroke="midnightblue" d="M881.525,-148.768C940.71,-144.994 1032.3,-139.154 1095.92,-135.096"/>
<polygon fill="midnightblue" stroke="midnightblue" points="1096.52,-138.566 1106.27,-134.436 1096.07,-131.58 1096.52,-138.566"/>
</g>
<!-- Node17&#45;&gt;Node15 -->
<g id="edge18" class="edge"><title>Node17&#45;&gt;Node15</title>
<path fill="none" stroke="midnightblue" d="M1067.06,-117.321C1076.71,-118.581 1086.67,-119.881 1096.39,-121.15"/>
<polygon fill="midnightblue" stroke="midnightblue" points="1096.05,-124.636 1106.42,-122.46 1096.96,-117.694 1096.05,-124.636"/>
</g>
<!-- Node18&#45;&gt;Node14 -->
<g id="edge20" class="edge"><title>Node18&#45;&gt;Node14</title>
<path fill="none" stroke="midnightblue" d="M709.176,-152.5C722.974,-152.5 737.803,-152.5 752.007,-152.5"/>
<polygon fill="midnightblue" stroke="midnightblue" points="752.215,-156 762.215,-152.5 752.215,-149 752.215,-156"/>
</g>
<!-- Node18&#45;&gt;Node16 -->
<g id="edge21" class="edge"><title>Node18&#45;&gt;Node16</title>
<path fill="none" stroke="midnightblue" d="M694.905,-137.452C701.503,-134.529 708.072,-131.204 714,-127.5 732.407,-115.998 731.737,-106.229 750,-94.5 756.115,-90.5727 762.832,-86.9615 769.619,-83.7091"/>
<polygon fill="midnightblue" stroke="midnightblue" points="771.216,-86.8279 778.868,-79.5003 768.316,-80.4565 771.216,-86.8279"/>
</g>
<!-- Node19 -->
<g id="node19" class="node"><title>Node19</title>
<g id="a_node19"><a xlink:href="classRa_1_1Engine_1_1RenderObjectManager.html#a32bd0db0d9620bb7e3f0fe50b541dae3" target="_top" xlink:title="Returns the render object corresponding to the given index. ">
<polygon fill="white" stroke="black" points="750,-0.5 750,-30.5 894,-30.5 894,-0.5 750,-0.5"/>
<text text-anchor="start" x="758" y="-18.5" font-family="Helvetica,sans-Serif" font-size="10.00">Ra::Engine::RenderObject</text>
<text text-anchor="middle" x="822" y="-7.5" font-family="Helvetica,sans-Serif" font-size="10.00">Manager::getRenderObject</text>
</a>
</g>
</g>
<!-- Node18&#45;&gt;Node19 -->
<g id="edge22" class="edge"><title>Node18&#45;&gt;Node19</title>
<path fill="none" stroke="midnightblue" d="M700.755,-137.359C705.585,-134.588 710.121,-131.328 714,-127.5 744.078,-97.8183 719.203,-68.4345 750,-39.5 751.271,-38.3056 752.604,-37.1705 753.989,-36.0917"/>
<polygon fill="midnightblue" stroke="midnightblue" points="756.011,-38.9504 762.413,-30.5089 752.144,-33.1153 756.011,-38.9504"/>
</g>
<!-- Node19&#45;&gt;Node17 -->
<g id="edge23" class="edge"><title>Node19&#45;&gt;Node17</title>
<path fill="none" stroke="midnightblue" d="M872.943,-30.528C880.133,-33.2224 887.344,-36.2275 894,-39.5 921.301,-52.924 949.897,-72.4685 970.096,-87.3322"/>
<polygon fill="midnightblue" stroke="midnightblue" points="968.101,-90.211 978.21,-93.3844 972.286,-84.5999 968.101,-90.211"/>
</g>
<!-- Node20&#45;&gt;Node9 -->
<g id="edge25" class="edge"><title>Node20&#45;&gt;Node9</title>
<path fill="none" stroke="midnightblue" d="M677.846,-330.56C697.316,-340.392 724.455,-352.33 750,-357.5 809.59,-369.561 878.78,-364.048 928.829,-356.683"/>
<polygon fill="midnightblue" stroke="midnightblue" points="929.538,-360.116 938.891,-355.14 928.476,-353.197 929.538,-360.116"/>
</g>
<!-- Node24&#45;&gt;Node2 -->
<g id="edge30" class="edge"><title>Node24&#45;&gt;Node2</title>
<path fill="none" stroke="midnightblue" d="M331.761,-279.04C340.765,-281.524 349.799,-284.629 358,-288.5 396.043,-306.456 433.28,-339.049 453.932,-358.841"/>
<polygon fill="midnightblue" stroke="midnightblue" points="451.644,-361.498 461.243,-365.982 456.535,-356.491 451.644,-361.498"/>
</g>
</g>
</svg>
