<?xml version="1.0" encoding="UTF-8" standalone="no"?>
<!DOCTYPE svg PUBLIC "-//W3C//DTD SVG 1.1//EN"
 "http://www.w3.org/Graphics/SVG/1.1/DTD/svg11.dtd">
<!-- Generated by graphviz version 2.38.0 (20140413.2041)
 -->
<!-- Title: Ra::Asset::HandleData Pages: 1 -->
<svg width="1144pt" height="984pt"
 viewBox="0.00 0.00 1144.00 984.00" xmlns="http://www.w3.org/2000/svg" xmlns:xlink="http://www.w3.org/1999/xlink">
<g id="graph0" class="graph" transform="scale(1 1) rotate(0) translate(4 980)">
<title>Ra::Asset::HandleData</title>
<polygon fill="white" stroke="none" points="-4,4 -4,-980 1140,-980 1140,4 -4,4"/>
<!-- Node1 -->
<g id="node1" class="node"><title>Node1</title>
<polygon fill="#bfbfbf" stroke="black" points="610.5,-0.5 610.5,-420.5 761.5,-420.5 761.5,-0.5 610.5,-0.5"/>
<text text-anchor="middle" x="686" y="-408.5" font-family="Helvetica,sans-Serif" font-size="10.00">Ra::Asset::HandleData</text>
<polyline fill="none" stroke="black" points="610.5,-401.5 761.5,-401.5 "/>
<text text-anchor="middle" x="686" y="-389.5" font-family="Helvetica,sans-Serif" font-size="10.00"> </text>
<polyline fill="none" stroke="black" points="610.5,-382.5 761.5,-382.5 "/>
<text text-anchor="start" x="618.5" y="-370.5" font-family="Helvetica,sans-Serif" font-size="10.00">+ HandleData()</text>
<text text-anchor="start" x="618.5" y="-359.5" font-family="Helvetica,sans-Serif" font-size="10.00">+ HandleData()</text>
<text text-anchor="start" x="618.5" y="-348.5" font-family="Helvetica,sans-Serif" font-size="10.00">+ ~HandleData()</text>
<text text-anchor="start" x="618.5" y="-337.5" font-family="Helvetica,sans-Serif" font-size="10.00">+ setName()</text>
<text text-anchor="start" x="618.5" y="-326.5" font-family="Helvetica,sans-Serif" font-size="10.00">+ getType()</text>
<text text-anchor="start" x="618.5" y="-315.5" font-family="Helvetica,sans-Serif" font-size="10.00">+ setType()</text>
<text text-anchor="start" x="618.5" y="-304.5" font-family="Helvetica,sans-Serif" font-size="10.00">+ getFrame()</text>
<text text-anchor="start" x="618.5" y="-293.5" font-family="Helvetica,sans-Serif" font-size="10.00">+ setFrame()</text>
<text text-anchor="start" x="618.5" y="-282.5" font-family="Helvetica,sans-Serif" font-size="10.00">+ getVertexSize()</text>
<text text-anchor="start" x="618.5" y="-271.5" font-family="Helvetica,sans-Serif" font-size="10.00">+ setVertexSize()</text>
<text text-anchor="start" x="618.5" y="-260.5" font-family="Helvetica,sans-Serif" font-size="10.00">+ setNameTable()</text>
<text text-anchor="start" x="618.5" y="-249.5" font-family="Helvetica,sans-Serif" font-size="10.00">+ getComponentDataSize()</text>
<text text-anchor="start" x="618.5" y="-238.5" font-family="Helvetica,sans-Serif" font-size="10.00">+ getComponentData()</text>
<text text-anchor="start" x="618.5" y="-227.5" font-family="Helvetica,sans-Serif" font-size="10.00">+ getComponentData()</text>
<text text-anchor="start" x="618.5" y="-216.5" font-family="Helvetica,sans-Serif" font-size="10.00">+ getComponent()</text>
<text text-anchor="start" x="618.5" y="-205.5" font-family="Helvetica,sans-Serif" font-size="10.00">+ getComponent()</text>
<text text-anchor="start" x="618.5" y="-194.5" font-family="Helvetica,sans-Serif" font-size="10.00">+ setComponents()</text>
<text text-anchor="start" x="618.5" y="-183.5" font-family="Helvetica,sans-Serif" font-size="10.00">+ getEdgeData()</text>
<text text-anchor="start" x="618.5" y="-172.5" font-family="Helvetica,sans-Serif" font-size="10.00">+ getEdgeData()</text>
<text text-anchor="start" x="618.5" y="-161.5" font-family="Helvetica,sans-Serif" font-size="10.00">+ setEdges()</text>
<text text-anchor="start" x="618.5" y="-150.5" font-family="Helvetica,sans-Serif" font-size="10.00">+ getFaceData()</text>
<text text-anchor="start" x="618.5" y="-139.5" font-family="Helvetica,sans-Serif" font-size="10.00">+ getFaceData()</text>
<text text-anchor="start" x="618.5" y="-128.5" font-family="Helvetica,sans-Serif" font-size="10.00">+ setFaces()</text>
<text text-anchor="start" x="618.5" y="-117.5" font-family="Helvetica,sans-Serif" font-size="10.00">+ recomputeAllIndices()</text>
<text text-anchor="start" x="618.5" y="-106.5" font-family="Helvetica,sans-Serif" font-size="10.00">+ isPointCloud()</text>
<text text-anchor="start" x="618.5" y="-95.5" font-family="Helvetica,sans-Serif" font-size="10.00">+ isSkeleton()</text>
<text text-anchor="start" x="618.5" y="-84.5" font-family="Helvetica,sans-Serif" font-size="10.00">+ isCage()</text>
<text text-anchor="start" x="618.5" y="-73.5" font-family="Helvetica,sans-Serif" font-size="10.00">+ hasComponents()</text>
<text text-anchor="start" x="618.5" y="-62.5" font-family="Helvetica,sans-Serif" font-size="10.00">+ hasEdges()</text>
<text text-anchor="start" x="618.5" y="-51.5" font-family="Helvetica,sans-Serif" font-size="10.00">+ hasFaces()</text>
<text text-anchor="start" x="618.5" y="-40.5" font-family="Helvetica,sans-Serif" font-size="10.00">+ needsEndNodes()</text>
<text text-anchor="start" x="618.5" y="-29.5" font-family="Helvetica,sans-Serif" font-size="10.00">+ getIndexOf()</text>
<text text-anchor="start" x="618.5" y="-18.5" font-family="Helvetica,sans-Serif" font-size="10.00">+ needEndNodes()</text>
<text text-anchor="start" x="618.5" y="-7.5" font-family="Helvetica,sans-Serif" font-size="10.00">+ displayInfo()</text>
</g>
<!-- Node2 -->
<g id="node2" class="node"><title>Node2</title>
<g id="a_node2"><a xlink:href="classRa_1_1Asset_1_1AssetData.html" target="_top" xlink:title="General interface of an asset data. ">
<polygon fill="white" stroke="black" points="0,-468.5 0,-558.5 118,-558.5 118,-468.5 0,-468.5"/>
<text text-anchor="middle" x="59" y="-546.5" font-family="Helvetica,sans-Serif" font-size="10.00">Ra::Asset::AssetData</text>
<polyline fill="none" stroke="black" points="0,-539.5 118,-539.5 "/>
<text text-anchor="middle" x="59" y="-527.5" font-family="Helvetica,sans-Serif" font-size="10.00"> </text>
<polyline fill="none" stroke="black" points="0,-520.5 118,-520.5 "/>
<text text-anchor="start" x="8" y="-508.5" font-family="Helvetica,sans-Serif" font-size="10.00">+ AssetData()</text>
<text text-anchor="start" x="8" y="-497.5" font-family="Helvetica,sans-Serif" font-size="10.00">+ AssetData()</text>
<text text-anchor="start" x="8" y="-486.5" font-family="Helvetica,sans-Serif" font-size="10.00">+ ~AssetData()</text>
<text text-anchor="start" x="8" y="-475.5" font-family="Helvetica,sans-Serif" font-size="10.00">+ getName()</text>
</a>
</g>
</g>
<!-- Node2&#45;&gt;Node1 -->
<g id="edge1" class="edge"><title>Node2&#45;&gt;Node1</title>
<path fill="none" stroke="midnightblue" d="M126.804,-470.817C128.548,-469.858 130.282,-468.918 132,-468 298.883,-378.874 502.386,-289.332 610.306,-243.285"/>
<polygon fill="none" stroke="midnightblue" points="125.041,-467.793 118.034,-475.739 128.468,-473.897 125.041,-467.793"/>
</g>
<!-- Node3 -->
<g id="node3" class="node"><title>Node3</title>
<g id="a_node3"><a xlink:title="STL class. ">
<polygon fill="white" stroke="#bfbfbf" points="55.5,-617.5 55.5,-674.5 120.5,-674.5 120.5,-617.5 55.5,-617.5"/>
<text text-anchor="middle" x="88" y="-662.5" font-family="Helvetica,sans-Serif" font-size="10.00">std::string</text>
<polyline fill="none" stroke="#bfbfbf" points="55.5,-655.5 120.5,-655.5 "/>
<text text-anchor="middle" x="88" y="-643.5" font-family="Helvetica,sans-Serif" font-size="10.00"> </text>
<polyline fill="none" stroke="#bfbfbf" points="55.5,-636.5 120.5,-636.5 "/>
<text text-anchor="middle" x="88" y="-624.5" font-family="Helvetica,sans-Serif" font-size="10.00"> </text>
</a>
</g>
</g>
<!-- Node3&#45;&gt;Node2 -->
<g id="edge2" class="edge"><title>Node3&#45;&gt;Node2</title>
<path fill="none" stroke="#404040" d="M64.0587,-617.307C60.3337,-611.591 57.0462,-605.363 55,-599 52.123,-590.054 50.9341,-580.301 50.769,-570.704"/>
<polygon fill="none" stroke="#404040" points="50.7691,-570.699 46.9145,-564.605 51.0576,-558.703 54.9122,-564.797 50.7691,-570.699"/>
<text text-anchor="middle" x="82.5" y="-585.5" font-family="Helvetica,sans-Serif" font-size="10.00"> #m_name</text>
</g>
<!-- Node10 -->
<g id="node10" class="node"><title>Node10</title>
<polygon fill="white" stroke="#bfbfbf" points="141,-479.5 141,-547.5 263,-547.5 263,-479.5 141,-479.5"/>
<text text-anchor="start" x="149" y="-535.5" font-family="Helvetica,sans-Serif" font-size="10.00">std::map&lt; std::string,</text>
<text text-anchor="middle" x="202" y="-524.5" font-family="Helvetica,sans-Serif" font-size="10.00"> uint &gt;</text>
<polyline fill="none" stroke="#bfbfbf" points="141,-517.5 263,-517.5 "/>
<text text-anchor="middle" x="202" y="-505.5" font-family="Helvetica,sans-Serif" font-size="10.00"> </text>
<polyline fill="none" stroke="#bfbfbf" points="141,-498.5 263,-498.5 "/>
<text text-anchor="middle" x="202" y="-486.5" font-family="Helvetica,sans-Serif" font-size="10.00"> </text>
</g>
<!-- Node3&#45;&gt;Node10 -->
<g id="edge11" class="edge"><title>Node3&#45;&gt;Node10</title>
<path fill="none" stroke="#404040" d="M112.176,-617.324C127.524,-599.756 147.686,-576.675 165.02,-556.833"/>
<polygon fill="none" stroke="#404040" points="165.117,-556.721 166.052,-549.571 173.012,-547.684 172.077,-554.834 165.117,-556.721"/>
<text text-anchor="middle" x="162" y="-585.5" font-family="Helvetica,sans-Serif" font-size="10.00"> +keys</text>
</g>
<!-- Node4 -->
<g id="node4" class="node"><title>Node4</title>
<g id="a_node4"><a xlink:title="STL class. ">
<polygon fill="white" stroke="#bfbfbf" points="36.5,-802.5 36.5,-870.5 139.5,-870.5 139.5,-802.5 36.5,-802.5"/>
<text text-anchor="start" x="44.5" y="-858.5" font-family="Helvetica,sans-Serif" font-size="10.00">std::basic_string&lt;</text>
<text text-anchor="middle" x="88" y="-847.5" font-family="Helvetica,sans-Serif" font-size="10.00"> char &gt;</text>
<polyline fill="none" stroke="#bfbfbf" points="36.5,-840.5 139.5,-840.5 "/>
<text text-anchor="middle" x="88" y="-828.5" font-family="Helvetica,sans-Serif" font-size="10.00"> </text>
<polyline fill="none" stroke="#bfbfbf" points="36.5,-821.5 139.5,-821.5 "/>
<text text-anchor="middle" x="88" y="-809.5" font-family="Helvetica,sans-Serif" font-size="10.00"> </text>
</a>
</g>
</g>
<!-- Node4&#45;&gt;Node3 -->
<g id="edge3" class="edge"><title>Node4&#45;&gt;Node3</title>
<path fill="none" stroke="midnightblue" d="M88,-791.984C88,-755.866 88,-705.587 88,-674.724"/>
<polygon fill="none" stroke="midnightblue" points="84.5001,-792.234 88,-802.234 91.5001,-792.234 84.5001,-792.234"/>
</g>
<!-- Node5 -->
<g id="node5" class="node"><title>Node5</title>
<g id="a_node5"><a xlink:href="structRa_1_1Core_1_1AlignedStdVector.html" target="_top" xlink:title="{Ra::Core::AlignedStdVector\l\&lt; Core::VectorNi \&gt;\n||}">
<polygon fill="white" stroke="black" points="507,-479.5 507,-547.5 653,-547.5 653,-479.5 507,-479.5"/>
<text text-anchor="start" x="515" y="-535.5" font-family="Helvetica,sans-Serif" font-size="10.00">Ra::Core::AlignedStdVector</text>
<text text-anchor="middle" x="580" y="-524.5" font-family="Helvetica,sans-Serif" font-size="10.00">&lt; Core::VectorNi &gt;</text>
<polyline fill="none" stroke="black" points="507,-517.5 653,-517.5 "/>
<text text-anchor="middle" x="580" y="-505.5" font-family="Helvetica,sans-Serif" font-size="10.00"> </text>
<polyline fill="none" stroke="black" points="507,-498.5 653,-498.5 "/>
<text text-anchor="middle" x="580" y="-486.5" font-family="Helvetica,sans-Serif" font-size="10.00"> </text>
</a>
</g>
</g>
<!-- Node5&#45;&gt;Node1 -->
<g id="edge4" class="edge"><title>Node5&#45;&gt;Node1</title>
<path fill="none" stroke="#404040" d="M591.647,-479.427C596.257,-466.337 601.967,-450.122 608.281,-432.194"/>
<polygon fill="none" stroke="#404040" points="608.299,-432.141 606.519,-425.153 612.285,-420.822 614.065,-427.81 608.299,-432.141"/>
<text text-anchor="middle" x="629.5" y="-442" font-family="Helvetica,sans-Serif" font-size="10.00"> #m_face</text>
</g>
<!-- Node6 -->
<g id="node6" class="node"><title>Node6</title>
<g id="a_node6"><a xlink:title="STL class. ">
<polygon fill="white" stroke="#bfbfbf" points="512,-699 512,-778 678,-778 678,-699 512,-699"/>
<text text-anchor="start" x="520" y="-766" font-family="Helvetica,sans-Serif" font-size="10.00">std::vector&lt; Core::</text>
<text text-anchor="start" x="520" y="-755" font-family="Helvetica,sans-Serif" font-size="10.00">VectorNi, Eigen::aligned</text>
<text text-anchor="middle" x="595" y="-744" font-family="Helvetica,sans-Serif" font-size="10.00">_allocator&lt; Core::VectorNi &gt; &gt;</text>
<polyline fill="none" stroke="#bfbfbf" points="512,-737 678,-737 "/>
<text text-anchor="middle" x="595" y="-725" font-family="Helvetica,sans-Serif" font-size="10.00"> </text>
<polyline fill="none" stroke="#bfbfbf" points="512,-718 678,-718 "/>
<text text-anchor="middle" x="595" y="-706" font-family="Helvetica,sans-Serif" font-size="10.00"> </text>
</a>
</g>
</g>
<!-- Node6&#45;&gt;Node5 -->
<g id="edge5" class="edge"><title>Node6&#45;&gt;Node5</title>
<path fill="none" stroke="midnightblue" d="M591.719,-688.72C588.84,-645.92 584.732,-584.845 582.222,-547.536"/>
<polygon fill="none" stroke="midnightblue" points="588.241,-689.168 592.404,-698.911 595.225,-688.699 588.241,-689.168"/>
</g>
<!-- Node7 -->
<g id="node7" class="node"><title>Node7</title>
<polygon fill="white" stroke="#bfbfbf" points="580.5,-918.5 580.5,-975.5 609.5,-975.5 609.5,-918.5 580.5,-918.5"/>
<text text-anchor="middle" x="595" y="-963.5" font-family="Helvetica,sans-Serif" font-size="10.00">T</text>
<polyline fill="none" stroke="#bfbfbf" points="580.5,-956.5 609.5,-956.5 "/>
<text text-anchor="middle" x="595" y="-944.5" font-family="Helvetica,sans-Serif" font-size="10.00"> </text>
<polyline fill="none" stroke="#bfbfbf" points="580.5,-937.5 609.5,-937.5 "/>
<text text-anchor="middle" x="595" y="-925.5" font-family="Helvetica,sans-Serif" font-size="10.00"> </text>
</g>
<!-- Node7&#45;&gt;Node6 -->
<g id="edge6" class="edge"><title>Node7&#45;&gt;Node6</title>
<path fill="none" stroke="#404040" d="M595,-918.15C595,-885.426 595,-830.484 595,-790.151"/>
<polygon fill="none" stroke="#404040" points="595,-790.144 591,-784.144 595,-778.144 599,-784.144 595,-790.144"/>
<text text-anchor="middle" x="623.5" y="-892" font-family="Helvetica,sans-Serif" font-size="10.00"> +elements</text>
</g>
<!-- Node9 -->
<g id="node9" class="node"><title>Node9</title>
<g id="a_node9"><a xlink:title="STL class. ">
<polygon fill="white" stroke="#bfbfbf" points="624.5,-802.5 624.5,-870.5 767.5,-870.5 767.5,-802.5 624.5,-802.5"/>
<text text-anchor="start" x="632.5" y="-858.5" font-family="Helvetica,sans-Serif" font-size="10.00">std::vector&lt; T, Eigen</text>
<text text-anchor="middle" x="696" y="-847.5" font-family="Helvetica,sans-Serif" font-size="10.00">::aligned_allocator&lt; T &gt; &gt;</text>
<polyline fill="none" stroke="#bfbfbf" points="624.5,-840.5 767.5,-840.5 "/>
<text text-anchor="middle" x="696" y="-828.5" font-family="Helvetica,sans-Serif" font-size="10.00"> </text>
<polyline fill="none" stroke="#bfbfbf" points="624.5,-821.5 767.5,-821.5 "/>
<text text-anchor="middle" x="696" y="-809.5" font-family="Helvetica,sans-Serif" font-size="10.00"> </text>
</a>
</g>
</g>
<!-- Node7&#45;&gt;Node9 -->
<g id="edge9" class="edge"><title>Node7&#45;&gt;Node9</title>
<path fill="none" stroke="#404040" d="M609.725,-937.049C622.866,-928.59 642.122,-914.988 656,-900 661.342,-894.231 666.41,-887.661 671.032,-880.998"/>
<polygon fill="none" stroke="#404040" points="671.306,-880.581 671.262,-873.37 677.902,-870.556 677.946,-877.767 671.306,-880.581"/>
<text text-anchor="middle" x="694.5" y="-892" font-family="Helvetica,sans-Serif" font-size="10.00"> +elements</text>
</g>
<!-- Node12 -->
<g id="node12" class="node"><title>Node12</title>
<g id="a_node12"><a xlink:title="STL class. ">
<polygon fill="white" stroke="#bfbfbf" points="224.5,-617.5 224.5,-674.5 323.5,-674.5 323.5,-617.5 224.5,-617.5"/>
<text text-anchor="middle" x="274" y="-662.5" font-family="Helvetica,sans-Serif" font-size="10.00">std::map&lt; K, T &gt;</text>
<polyline fill="none" stroke="#bfbfbf" points="224.5,-655.5 323.5,-655.5 "/>
<text text-anchor="middle" x="274" y="-643.5" font-family="Helvetica,sans-Serif" font-size="10.00"> </text>
<polyline fill="none" stroke="#bfbfbf" points="224.5,-636.5 323.5,-636.5 "/>
<text text-anchor="middle" x="274" y="-624.5" font-family="Helvetica,sans-Serif" font-size="10.00"> </text>
</a>
</g>
</g>
<!-- Node7&#45;&gt;Node12 -->
<g id="edge15" class="edge"><title>Node7&#45;&gt;Node12</title>
<path fill="none" stroke="#404040" d="M580.45,-943.967C528.202,-935.765 349.985,-899.792 290,-784 274.478,-754.037 271.196,-715.549 271.383,-687"/>
<polygon fill="none" stroke="#404040" points="271.391,-686.646 267.537,-680.551 271.681,-674.649 275.535,-680.744 271.391,-686.646"/>
<text text-anchor="middle" x="398.5" y="-834" font-family="Helvetica,sans-Serif" font-size="10.00"> +elements</text>
</g>
<!-- Node15 -->
<g id="node15" class="node"><title>Node15</title>
<g id="a_node15"><a xlink:title="STL class. ">
<polygon fill="white" stroke="#bfbfbf" points="717,-699 717,-778 881,-778 881,-699 717,-699"/>
<text text-anchor="start" x="725" y="-766" font-family="Helvetica,sans-Serif" font-size="10.00">std::vector&lt; Core::</text>
<text text-anchor="start" x="725" y="-755" font-family="Helvetica,sans-Serif" font-size="10.00">Vector2i, Eigen::aligned</text>
<text text-anchor="middle" x="799" y="-744" font-family="Helvetica,sans-Serif" font-size="10.00">_allocator&lt; Core::Vector2i &gt; &gt;</text>
<polyline fill="none" stroke="#bfbfbf" points="717,-737 881,-737 "/>
<text text-anchor="middle" x="799" y="-725" font-family="Helvetica,sans-Serif" font-size="10.00"> </text>
<polyline fill="none" stroke="#bfbfbf" points="717,-718 881,-718 "/>
<text text-anchor="middle" x="799" y="-706" font-family="Helvetica,sans-Serif" font-size="10.00"> </text>
</a>
</g>
</g>
<!-- Node7&#45;&gt;Node15 -->
<g id="edge18" class="edge"><title>Node7&#45;&gt;Node15</title>
<path fill="none" stroke="#404040" d="M609.749,-945.015C645.484,-941.748 736.643,-927.942 776,-871 792.211,-847.546 798.153,-816.268 799.952,-790.1"/>
<polygon fill="none" stroke="#404040" points="799.952,-790.091 796.24,-783.908 800.519,-778.104 804.231,-784.286 799.952,-790.091"/>
<text text-anchor="middle" x="787.5" y="-892" font-family="Helvetica,sans-Serif" font-size="10.00"> +elements</text>
</g>
<!-- Node18 -->
<g id="node18" class="node"><title>Node18</title>
<g id="a_node18"><a xlink:title="STL class. ">
<polygon fill="white" stroke="#bfbfbf" points="291.5,-693.5 291.5,-783.5 506.5,-783.5 506.5,-693.5 291.5,-693.5"/>
<text text-anchor="start" x="299.5" y="-771.5" font-family="Helvetica,sans-Serif" font-size="10.00">std::vector&lt; Ra::Asset</text>
<text text-anchor="start" x="299.5" y="-760.5" font-family="Helvetica,sans-Serif" font-size="10.00">::HandleComponentData,</text>
<text text-anchor="start" x="299.5" y="-749.5" font-family="Helvetica,sans-Serif" font-size="10.00"> Eigen::aligned_allocator</text>
<text text-anchor="middle" x="399" y="-738.5" font-family="Helvetica,sans-Serif" font-size="10.00">&lt; Ra::Asset::HandleComponentData &gt; &gt;</text>
<polyline fill="none" stroke="#bfbfbf" points="291.5,-731.5 506.5,-731.5 "/>
<text text-anchor="middle" x="399" y="-719.5" font-family="Helvetica,sans-Serif" font-size="10.00"> </text>
<polyline fill="none" stroke="#bfbfbf" points="291.5,-712.5 506.5,-712.5 "/>
<text text-anchor="middle" x="399" y="-700.5" font-family="Helvetica,sans-Serif" font-size="10.00"> </text>
</a>
</g>
</g>
<!-- Node7&#45;&gt;Node18 -->
<g id="edge23" class="edge"><title>Node7&#45;&gt;Node18</title>
<path fill="none" stroke="#404040" d="M580.221,-936.261C567.392,-927.488 548.63,-913.872 534,-900 499.4,-867.193 464.873,-825.952 439.398,-793.49"/>
<polygon fill="none" stroke="#404040" points="439.162,-793.187 432.32,-790.909 431.792,-783.717 438.634,-785.995 439.162,-793.187"/>
<text text-anchor="middle" x="562.5" y="-892" font-family="Helvetica,sans-Serif" font-size="10.00"> +elements</text>
</g>
<!-- Node8 -->
<g id="node8" class="node"><title>Node8</title>
<g id="a_node8"><a xlink:href="structRa_1_1Core_1_1AlignedStdVector.html" target="_top" xlink:title="Shortcut for the ubiquitous aligned std::vector Uses Eigen&#39;s aligned allocator, as stated in http://e...">
<polygon fill="white" stroke="black" points="614.5,-617.5 614.5,-674.5 787.5,-674.5 787.5,-617.5 614.5,-617.5"/>
<text text-anchor="middle" x="701" y="-662.5" font-family="Helvetica,sans-Serif" font-size="10.00">Ra::Core::AlignedStdVector&lt; T &gt;</text>
<polyline fill="none" stroke="black" points="614.5,-655.5 787.5,-655.5 "/>
<text text-anchor="middle" x="701" y="-643.5" font-family="Helvetica,sans-Serif" font-size="10.00"> </text>
<polyline fill="none" stroke="black" points="614.5,-636.5 787.5,-636.5 "/>
<text text-anchor="middle" x="701" y="-624.5" font-family="Helvetica,sans-Serif" font-size="10.00"> </text>
</a>
</g>
</g>
<!-- Node8&#45;&gt;Node5 -->
<g id="edge7" class="edge"><title>Node8&#45;&gt;Node5</title>
<path fill="none" stroke="orange" d="M639.563,-611.212C634.714,-607.407 630.11,-603.328 626,-599 611.968,-584.224 600.863,-564.34 593.082,-547.573"/>
<polygon fill="orange" stroke="orange" points="637.784,-614.248 647.914,-617.351 641.93,-608.608 637.784,-614.248"/>
<text text-anchor="middle" x="673.5" y="-585.5" font-family="Helvetica,sans-Serif" font-size="10.00"> &lt; Core::VectorNi &gt;</text>
</g>
<!-- Node14 -->
<g id="node14" class="node"><title>Node14</title>
<g id="a_node14"><a xlink:href="structRa_1_1Core_1_1AlignedStdVector.html" target="_top" xlink:title="{Ra::Core::AlignedStdVector\l\&lt; Core::Vector2i \&gt;\n||}">
<polygon fill="white" stroke="black" points="719,-479.5 719,-547.5 865,-547.5 865,-479.5 719,-479.5"/>
<text text-anchor="start" x="727" y="-535.5" font-family="Helvetica,sans-Serif" font-size="10.00">Ra::Core::AlignedStdVector</text>
<text text-anchor="middle" x="792" y="-524.5" font-family="Helvetica,sans-Serif" font-size="10.00">&lt; Core::Vector2i &gt;</text>
<polyline fill="none" stroke="black" points="719,-517.5 865,-517.5 "/>
<text text-anchor="middle" x="792" y="-505.5" font-family="Helvetica,sans-Serif" font-size="10.00"> </text>
<polyline fill="none" stroke="black" points="719,-498.5 865,-498.5 "/>
<text text-anchor="middle" x="792" y="-486.5" font-family="Helvetica,sans-Serif" font-size="10.00"> </text>
</a>
</g>
</g>
<!-- Node8&#45;&gt;Node14 -->
<g id="edge19" class="edge"><title>Node8&#45;&gt;Node14</title>
<path fill="none" stroke="orange" d="M719.013,-608.479C724.654,-598.037 731.197,-586.829 738,-577 744.855,-567.096 753.026,-556.962 760.91,-547.816"/>
<polygon fill="orange" stroke="orange" points="715.875,-606.926 714.303,-617.404 722.066,-610.193 715.875,-606.926"/>
<text text-anchor="middle" x="785" y="-585.5" font-family="Helvetica,sans-Serif" font-size="10.00"> &lt; Core::Vector2i &gt;</text>
</g>
<!-- Node17 -->
<g id="node17" class="node"><title>Node17</title>
<g id="a_node17"><a xlink:href="structRa_1_1Core_1_1AlignedStdVector.html" target="_top" xlink:title="{Ra::Core::AlignedStdVector\l\&lt; Ra::Asset::HandleComponentData \&gt;\n||}">
<polygon fill="white" stroke="black" points="285.5,-479.5 285.5,-547.5 488.5,-547.5 488.5,-479.5 285.5,-479.5"/>
<text text-anchor="start" x="293.5" y="-535.5" font-family="Helvetica,sans-Serif" font-size="10.00">Ra::Core::AlignedStdVector</text>
<text text-anchor="middle" x="387" y="-524.5" font-family="Helvetica,sans-Serif" font-size="10.00">&lt; Ra::Asset::HandleComponentData &gt;</text>
<polyline fill="none" stroke="black" points="285.5,-517.5 488.5,-517.5 "/>
<text text-anchor="middle" x="387" y="-505.5" font-family="Helvetica,sans-Serif" font-size="10.00"> </text>
<polyline fill="none" stroke="black" points="285.5,-498.5 488.5,-498.5 "/>
<text text-anchor="middle" x="387" y="-486.5" font-family="Helvetica,sans-Serif" font-size="10.00"> </text>
</a>
</g>
</g>
<!-- Node8&#45;&gt;Node17 -->
<g id="edge24" class="edge"><title>Node8&#45;&gt;Node17</title>
<path fill="none" stroke="orange" d="M604.284,-634.651C544.959,-626.903 475.616,-614.907 450,-599 430.257,-586.74 414.598,-565.848 403.83,-547.906"/>
<polygon fill="orange" stroke="orange" points="604.106,-638.156 614.469,-635.952 604.993,-631.213 604.106,-638.156"/>
<text text-anchor="start" x="450" y="-591" font-family="Helvetica,sans-Serif" font-size="10.00"> &lt; Ra::Asset::HandleComponent</text>
<text text-anchor="middle" x="528" y="-580" font-family="Helvetica,sans-Serif" font-size="10.00">Data &gt;</text>
</g>
<!-- Node9&#45;&gt;Node8 -->
<g id="edge8" class="edge"><title>Node9&#45;&gt;Node8</title>
<path fill="none" stroke="midnightblue" d="M697.154,-791.984C698.112,-755.866 699.446,-705.587 700.265,-674.724"/>
<polygon fill="none" stroke="midnightblue" points="693.649,-792.145 696.882,-802.234 700.646,-792.33 693.649,-792.145"/>
</g>
<!-- Node10&#45;&gt;Node1 -->
<g id="edge10" class="edge"><title>Node10&#45;&gt;Node1</title>
<path fill="none" stroke="#404040" d="M255.181,-479.427C338.31,-427.729 499.846,-327.269 599.768,-265.128"/>
<polygon fill="none" stroke="#404040" points="599.948,-265.016 602.931,-258.45 610.139,-258.678 607.156,-265.244 599.948,-265.016"/>
<text text-anchor="middle" x="358.5" y="-442" font-family="Helvetica,sans-Serif" font-size="10.00"> #m_nameTable</text>
</g>
<!-- Node11 -->
<g id="node11" class="node"><title>Node11</title>
<polygon fill="white" stroke="#bfbfbf" points="171.5,-617.5 171.5,-674.5 206.5,-674.5 206.5,-617.5 171.5,-617.5"/>
<text text-anchor="middle" x="189" y="-662.5" font-family="Helvetica,sans-Serif" font-size="10.00">uint</text>
<polyline fill="none" stroke="#bfbfbf" points="171.5,-655.5 206.5,-655.5 "/>
<text text-anchor="middle" x="189" y="-643.5" font-family="Helvetica,sans-Serif" font-size="10.00"> </text>
<polyline fill="none" stroke="#bfbfbf" points="171.5,-636.5 206.5,-636.5 "/>
<text text-anchor="middle" x="189" y="-624.5" font-family="Helvetica,sans-Serif" font-size="10.00"> </text>
</g>
<!-- Node11&#45;&gt;Node10 -->
<g id="edge12" class="edge"><title>Node11&#45;&gt;Node10</title>
<path fill="none" stroke="#404040" d="M188.313,-617.475C188.285,-605.077 188.639,-590.272 190,-577 190.567,-571.472 191.374,-565.703 192.306,-560.002"/>
<polygon fill="none" stroke="#404040" points="192.385,-559.562 189.504,-552.951 194.498,-547.749 197.379,-554.36 192.385,-559.562"/>
<text text-anchor="middle" x="218.5" y="-585.5" font-family="Helvetica,sans-Serif" font-size="10.00"> +elements</text>
</g>
<!-- Node12&#45;&gt;Node10 -->
<g id="edge13" class="edge"><title>Node12&#45;&gt;Node10</title>
<path fill="none" stroke="orange" d="M261.196,-607.948C257.143,-597.688 252.317,-586.709 247,-577 241.541,-567.032 234.747,-556.793 228.105,-547.562"/>
<polygon fill="orange" stroke="orange" points="258.004,-609.4 264.835,-617.498 264.545,-606.907 258.004,-609.4"/>
<text text-anchor="middle" x="307" y="-585.5" font-family="Helvetica,sans-Serif" font-size="10.00"> &lt; std::string, uint &gt;</text>
</g>
<!-- Node13 -->
<g id="node13" class="node"><title>Node13</title>
<polygon fill="white" stroke="#bfbfbf" points="210.5,-808 210.5,-865 239.5,-865 239.5,-808 210.5,-808"/>
<text text-anchor="middle" x="225" y="-853" font-family="Helvetica,sans-Serif" font-size="10.00">K</text>
<polyline fill="none" stroke="#bfbfbf" points="210.5,-846 239.5,-846 "/>
<text text-anchor="middle" x="225" y="-834" font-family="Helvetica,sans-Serif" font-size="10.00"> </text>
<polyline fill="none" stroke="#bfbfbf" points="210.5,-827 239.5,-827 "/>
<text text-anchor="middle" x="225" y="-815" font-family="Helvetica,sans-Serif" font-size="10.00"> </text>
</g>
<!-- Node13&#45;&gt;Node12 -->
<g id="edge14" class="edge"><title>Node13&#45;&gt;Node12</title>
<path fill="none" stroke="#404040" d="M219.714,-807.979C215.324,-778.311 212.076,-730.327 228,-693 229.285,-689.987 230.869,-687.067 232.669,-684.257"/>
<polygon fill="none" stroke="#404040" points="232.737,-684.166 233.165,-676.967 239.974,-674.593 239.546,-681.792 232.737,-684.166"/>
<text text-anchor="middle" x="245" y="-736" font-family="Helvetica,sans-Serif" font-size="10.00"> +keys</text>
</g>
<!-- Node14&#45;&gt;Node1 -->
<g id="edge16" class="edge"><title>Node14&#45;&gt;Node1</title>
<path fill="none" stroke="#404040" d="M780.775,-479.17C776.502,-466.57 771.564,-452.111 767,-439 766.212,-436.736 765.418,-434.459 764.621,-432.172"/>
<polygon fill="none" stroke="#404040" points="764.554,-431.982 758.799,-427.637 760.596,-420.653 766.351,-424.998 764.554,-431.982"/>
<text text-anchor="middle" x="796.5" y="-442" font-family="Helvetica,sans-Serif" font-size="10.00"> #m_edge</text>
</g>
<!-- Node15&#45;&gt;Node14 -->
<g id="edge17" class="edge"><title>Node15&#45;&gt;Node14</title>
<path fill="none" stroke="midnightblue" d="M821.133,-689.196C832.881,-657.069 842.86,-614.115 832,-577 829.033,-566.861 823.863,-556.805 818.206,-547.819"/>
<polygon fill="none" stroke="midnightblue" points="817.763,-688.21 817.451,-698.8 824.299,-690.716 817.763,-688.21"/>
</g>
<!-- Node16 -->
<g id="node16" class="node"><title>Node16</title>
<polygon fill="white" stroke="#bfbfbf" points="671.5,-485 671.5,-542 700.5,-542 700.5,-485 671.5,-485"/>
<text text-anchor="middle" x="686" y="-530" font-family="Helvetica,sans-Serif" font-size="10.00">int</text>
<polyline fill="none" stroke="#bfbfbf" points="671.5,-523 700.5,-523 "/>
<text text-anchor="middle" x="686" y="-511" font-family="Helvetica,sans-Serif" font-size="10.00"> </text>
<polyline fill="none" stroke="#bfbfbf" points="671.5,-504 700.5,-504 "/>
<text text-anchor="middle" x="686" y="-492" font-family="Helvetica,sans-Serif" font-size="10.00"> </text>
</g>
<!-- Node16&#45;&gt;Node1 -->
<g id="edge20" class="edge"><title>Node16&#45;&gt;Node1</title>
<path fill="none" stroke="#404040" d="M686,-484.99C686,-471.221 686,-453.163 686,-432.879"/>
<polygon fill="none" stroke="#404040" points="686,-432.694 682,-426.694 686,-420.694 690,-426.694 686,-432.694"/>
<text text-anchor="middle" x="724.5" y="-442" font-family="Helvetica,sans-Serif" font-size="10.00"> #m_vertexSize</text>
</g>
<!-- Node17&#45;&gt;Node1 -->
<g id="edge21" class="edge"><title>Node17&#45;&gt;Node1</title>
<path fill="none" stroke="#404040" d="M419.854,-479.427C463.231,-435.759 541.167,-357.302 601.532,-296.533"/>
<polygon fill="none" stroke="#404040" points="601.848,-296.215 603.239,-289.139 610.305,-287.701 608.915,-294.777 601.848,-296.215"/>
<text text-anchor="middle" x="501" y="-442" font-family="Helvetica,sans-Serif" font-size="10.00"> #m_component</text>
</g>
<!-- Node18&#45;&gt;Node17 -->
<g id="edge22" class="edge"><title>Node18&#45;&gt;Node17</title>
<path fill="none" stroke="midnightblue" d="M396.083,-683.288C393.802,-640.901 390.705,-583.349 388.781,-547.588"/>
<polygon fill="none" stroke="midnightblue" points="392.597,-683.645 396.629,-693.442 399.587,-683.269 392.597,-683.645"/>
</g>
<!-- Node19 -->
<g id="node19" class="node"><title>Node19</title>
<g id="a_node19"><a xlink:href="classbool.html" target="_top" xlink:title="{bool\n||}">
<polygon fill="white" stroke="black" points="883.5,-485 883.5,-542 920.5,-542 920.5,-485 883.5,-485"/>
<text text-anchor="middle" x="902" y="-530" font-family="Helvetica,sans-Serif" font-size="10.00">bool</text>
<polyline fill="none" stroke="black" points="883.5,-523 920.5,-523 "/>
<text text-anchor="middle" x="902" y="-511" font-family="Helvetica,sans-Serif" font-size="10.00"> </text>
<polyline fill="none" stroke="black" points="883.5,-504 920.5,-504 "/>
<text text-anchor="middle" x="902" y="-492" font-family="Helvetica,sans-Serif" font-size="10.00"> </text>
</a>
</g>
</g>
<!-- Node19&#45;&gt;Node1 -->
<g id="edge25" class="edge"><title>Node19&#45;&gt;Node1</title>
<path fill="none" stroke="#404040" d="M884.825,-484.53C881.313,-479.006 877.592,-473.284 874,-468 840.671,-418.975 802.228,-365.952 768.824,-320.909"/>
<polygon fill="none" stroke="#404040" points="768.713,-320.76 761.924,-318.33 761.556,-311.128 768.345,-313.558 768.713,-320.76"/>
<text text-anchor="middle" x="895" y="-442" font-family="Helvetica,sans-Serif" font-size="10.00"> #m_endNode</text>
</g>
<!-- Node20 -->
<g id="node20" class="node"><title>Node20</title>
<polygon fill="white" stroke="#bfbfbf" points="938.5,-485 938.5,-542 1009.5,-542 1009.5,-485 938.5,-485"/>
<text text-anchor="middle" x="974" y="-530" font-family="Helvetica,sans-Serif" font-size="10.00">HandleType</text>
<polyline fill="none" stroke="#bfbfbf" points="938.5,-523 1009.5,-523 "/>
<text text-anchor="middle" x="974" y="-511" font-family="Helvetica,sans-Serif" font-size="10.00"> </text>
<polyline fill="none" stroke="#bfbfbf" points="938.5,-504 1009.5,-504 "/>
<text text-anchor="middle" x="974" y="-492" font-family="Helvetica,sans-Serif" font-size="10.00"> </text>
</g>
<!-- Node20&#45;&gt;Node1 -->
<g id="edge26" class="edge"><title>Node20&#45;&gt;Node1</title>
<path fill="none" stroke="#404040" d="M961.739,-484.998C954.668,-470.596 945.004,-453.079 934,-439 886.578,-378.329 822.252,-319.829 770.996,-277.346"/>
<polygon fill="none" stroke="#404040" points="770.852,-277.228 763.677,-276.504 761.585,-269.603 768.76,-270.327 770.852,-277.228"/>
<text text-anchor="middle" x="965" y="-442" font-family="Helvetica,sans-Serif" font-size="10.00"> #m_type</text>
</g>
<!-- Node21 -->
<g id="node21" class="node"><title>Node21</title>
<polygon fill="white" stroke="#bfbfbf" points="1028,-479.5 1028,-547.5 1136,-547.5 1136,-479.5 1028,-479.5"/>
<text text-anchor="start" x="1036" y="-535.5" font-family="Helvetica,sans-Serif" font-size="10.00">Transform&lt; Scalar,</text>
<text text-anchor="middle" x="1082" y="-524.5" font-family="Helvetica,sans-Serif" font-size="10.00"> 3, Eigen::Affine &gt;</text>
<polyline fill="none" stroke="#bfbfbf" points="1028,-517.5 1136,-517.5 "/>
<text text-anchor="middle" x="1082" y="-505.5" font-family="Helvetica,sans-Serif" font-size="10.00"> </text>
<polyline fill="none" stroke="#bfbfbf" points="1028,-498.5 1136,-498.5 "/>
<text text-anchor="middle" x="1082" y="-486.5" font-family="Helvetica,sans-Serif" font-size="10.00"> </text>
</g>
<!-- Node21&#45;&gt;Node1 -->
<g id="edge27" class="edge"><title>Node21&#45;&gt;Node1</title>
<path fill="none" stroke="#404040" d="M1042.93,-479.486C1027.52,-466.662 1009.57,-451.968 993,-439 919.236,-381.274 833.449,-318.019 771.342,-272.894"/>
<polygon fill="none" stroke="#404040" points="771.295,-272.86 764.089,-272.573 761.583,-265.811 768.789,-266.098 771.295,-272.86"/>
<text text-anchor="middle" x="1033.5" y="-442" font-family="Helvetica,sans-Serif" font-size="10.00"> #m_frame</text>
</g>
</g>
</svg>
