<?xml version="1.0" encoding="UTF-8" standalone="no"?>
<!DOCTYPE svg PUBLIC "-//W3C//DTD SVG 1.1//EN"
 "http://www.w3.org/Graphics/SVG/1.1/DTD/svg11.dtd">
<!-- Generated by graphviz version 2.38.0 (20140413.2041)
 -->
<!-- Title: Ra::GuiBase::SelectionManager::isSelected Pages: 1 -->
<svg width="1045pt" height="315pt"
 viewBox="0.00 0.00 1045.00 315.11" xmlns="http://www.w3.org/2000/svg" xmlns:xlink="http://www.w3.org/1999/xlink">
<g id="graph0" class="graph" transform="scale(1 1) rotate(0) translate(4 311.106)">
<title>Ra::GuiBase::SelectionManager::isSelected</title>
<polygon fill="white" stroke="none" points="-4,4 -4,-311.106 1041,-311.106 1041,4 -4,4"/>
<!-- Node1 -->
<g id="node1" class="node"><title>Node1</title>
<polygon fill="#bfbfbf" stroke="black" points="0,-146.5 0,-176.5 167,-176.5 167,-146.5 0,-146.5"/>
<text text-anchor="start" x="8" y="-164.5" font-family="Helvetica,sans-Serif" font-size="10.00">Ra::GuiBase::SelectionManager</text>
<text text-anchor="middle" x="83.5" y="-153.5" font-family="Helvetica,sans-Serif" font-size="10.00">::isSelected</text>
</g>
<!-- Node2 -->
<g id="node2" class="node"><title>Node2</title>
<g id="a_node2"><a xlink:href="classRa_1_1GuiBase_1_1SelectionManager.html#aec178a6b3de1c04e5e1d16ff72c6e966" target="_top" xlink:title="Ra::GuiBase::SelectionManager\l::itemModel">
<polygon fill="white" stroke="black" points="203,-171.5 203,-201.5 370,-201.5 370,-171.5 203,-171.5"/>
<text text-anchor="start" x="211" y="-189.5" font-family="Helvetica,sans-Serif" font-size="10.00">Ra::GuiBase::SelectionManager</text>
<text text-anchor="middle" x="286.5" y="-178.5" font-family="Helvetica,sans-Serif" font-size="10.00">::itemModel</text>
</a>
</g>
</g>
<!-- Node1&#45;&gt;Node2 -->
<g id="edge1" class="edge"><title>Node1&#45;&gt;Node2</title>
<path fill="none" stroke="midnightblue" d="M167.125,-171.777C175.607,-172.832 184.266,-173.909 192.848,-174.976"/>
<polygon fill="midnightblue" stroke="midnightblue" points="192.516,-178.462 202.872,-176.223 193.38,-171.515 192.516,-178.462"/>
</g>
<!-- Node3 -->
<g id="node3" class="node"><title>Node3</title>
<g id="a_node3"><a xlink:href="classRa_1_1GuiBase_1_1ItemModel.html#a2b2715ecaecaadeb1e9a110b8d5f05b3" target="_top" xlink:title="Returns the index corresponding to the given entry if it exists in the model, or an invalid index if ...">
<polygon fill="white" stroke="black" points="221,-122.5 221,-152.5 352,-152.5 352,-122.5 221,-122.5"/>
<text text-anchor="start" x="229" y="-140.5" font-family="Helvetica,sans-Serif" font-size="10.00">Ra::GuiBase::ItemModel</text>
<text text-anchor="middle" x="286.5" y="-129.5" font-family="Helvetica,sans-Serif" font-size="10.00">::findEntryIndex</text>
</a>
</g>
</g>
<!-- Node1&#45;&gt;Node3 -->
<g id="edge2" class="edge"><title>Node1&#45;&gt;Node3</title>
<path fill="none" stroke="midnightblue" d="M167.125,-151.634C181.501,-149.918 196.382,-148.141 210.538,-146.451"/>
<polygon fill="midnightblue" stroke="midnightblue" points="211.187,-149.898 220.701,-145.237 210.357,-142.948 211.187,-149.898"/>
</g>
<!-- Node4 -->
<g id="node4" class="node"><title>Node4</title>
<g id="a_node4"><a xlink:href="structRa_1_1Engine_1_1ItemEntry.html#aceafc81a73631955b64999dd39a639da" target="_top" xlink:title="Returns true if the item represents any valid object. ">
<polygon fill="white" stroke="black" points="407.5,-147.5 407.5,-177.5 526.5,-177.5 526.5,-147.5 407.5,-147.5"/>
<text text-anchor="start" x="415.5" y="-165.5" font-family="Helvetica,sans-Serif" font-size="10.00">Ra::Engine::ItemEntry</text>
<text text-anchor="middle" x="467" y="-154.5" font-family="Helvetica,sans-Serif" font-size="10.00">::isValid</text>
</a>
</g>
</g>
<!-- Node3&#45;&gt;Node4 -->
<g id="edge3" class="edge"><title>Node3&#45;&gt;Node4</title>
<path fill="none" stroke="midnightblue" d="M352.195,-146.561C366.868,-148.616 382.501,-150.805 397.332,-152.883"/>
<polygon fill="midnightblue" stroke="midnightblue" points="397.061,-156.379 407.45,-154.3 398.032,-149.446 397.061,-156.379"/>
</g>
<!-- Node14 -->
<g id="node14" class="node"><title>Node14</title>
<g id="a_node14"><a xlink:href="classRa_1_1GuiBase_1_1TreeItem.html#ac9e22ded576062a19560fe7bf5318d55" target="_top" xlink:title="Ra::GuiBase::TreeItem\l::getIndexInParent">
<polygon fill="white" stroke="black" points="406,-98.5 406,-128.5 528,-128.5 528,-98.5 406,-98.5"/>
<text text-anchor="start" x="414" y="-116.5" font-family="Helvetica,sans-Serif" font-size="10.00">Ra::GuiBase::TreeItem</text>
<text text-anchor="middle" x="467" y="-105.5" font-family="Helvetica,sans-Serif" font-size="10.00">::getIndexInParent</text>
</a>
</g>
</g>
<!-- Node3&#45;&gt;Node14 -->
<g id="edge15" class="edge"><title>Node3&#45;&gt;Node14</title>
<path fill="none" stroke="midnightblue" d="M352.195,-128.802C366.325,-126.902 381.346,-124.882 395.683,-122.954"/>
<polygon fill="midnightblue" stroke="midnightblue" points="396.536,-126.371 405.98,-121.57 395.603,-119.434 396.536,-126.371"/>
</g>
<!-- Node5 -->
<g id="node5" class="node"><title>Node5</title>
<g id="a_node5"><a xlink:href="structRa_1_1Engine_1_1ItemEntry.html#a1fb9fdd74413a1fa5878f53c1cfcf8fd" target="_top" xlink:title="Debug checks. ">
<polygon fill="white" stroke="black" points="747,-133.5 747,-163.5 866,-163.5 866,-133.5 747,-133.5"/>
<text text-anchor="start" x="755" y="-151.5" font-family="Helvetica,sans-Serif" font-size="10.00">Ra::Engine::ItemEntry</text>
<text text-anchor="middle" x="806.5" y="-140.5" font-family="Helvetica,sans-Serif" font-size="10.00">::checkConsistency</text>
</a>
</g>
</g>
<!-- Node4&#45;&gt;Node5 -->
<g id="edge4" class="edge"><title>Node4&#45;&gt;Node5</title>
<path fill="none" stroke="midnightblue" d="M474.431,-177.873C486.949,-205.508 517.503,-262.808 564,-285.5 621.516,-313.57 651.119,-314.834 708,-285.5 753.852,-261.854 782.861,-205.57 796.431,-172.977"/>
<polygon fill="midnightblue" stroke="midnightblue" points="799.684,-174.269 800.149,-163.684 793.185,-171.669 799.684,-174.269"/>
</g>
<!-- Node7 -->
<g id="node7" class="node"><title>Node7</title>
<g id="a_node7"><a xlink:href="classRa_1_1Engine_1_1RadiumEngine.html#a79f6626ce468268791bc5bdfe17b5586" target="_top" xlink:title="Get the entity manager attached to the engine. ">
<polygon fill="white" stroke="black" points="565.5,-245.5 565.5,-275.5 706.5,-275.5 706.5,-245.5 565.5,-245.5"/>
<text text-anchor="start" x="573.5" y="-263.5" font-family="Helvetica,sans-Serif" font-size="10.00">Ra::Engine::RadiumEngine</text>
<text text-anchor="middle" x="636" y="-252.5" font-family="Helvetica,sans-Serif" font-size="10.00">::getEntityManager</text>
</a>
</g>
</g>
<!-- Node4&#45;&gt;Node7 -->
<g id="edge6" class="edge"><title>Node4&#45;&gt;Node7</title>
<path fill="none" stroke="midnightblue" d="M484.162,-177.694C502.355,-194.112 533.386,-220.118 564,-236.5 567.291,-238.261 570.736,-239.929 574.259,-241.502"/>
<polygon fill="midnightblue" stroke="midnightblue" points="573.139,-244.827 583.716,-245.445 575.833,-238.366 573.139,-244.827"/>
</g>
<!-- Node8 -->
<g id="node8" class="node"><title>Node8</title>
<g id="a_node8"><a xlink:href="classRa_1_1Engine_1_1EntityManager.html#a5115cccae6aaef614ad4bd08e64d8185" target="_top" xlink:title="Check wether an entity with a given name exists or not. ">
<polygon fill="white" stroke="black" points="565,-196.5 565,-226.5 707,-226.5 707,-196.5 565,-196.5"/>
<text text-anchor="start" x="573" y="-214.5" font-family="Helvetica,sans-Serif" font-size="10.00">Ra::Engine::EntityManager</text>
<text text-anchor="middle" x="636" y="-203.5" font-family="Helvetica,sans-Serif" font-size="10.00">::entityExists</text>
</a>
</g>
</g>
<!-- Node4&#45;&gt;Node8 -->
<g id="edge7" class="edge"><title>Node4&#45;&gt;Node8</title>
<path fill="none" stroke="midnightblue" d="M519.468,-177.601C536.692,-182.655 556.059,-188.338 573.942,-193.585"/>
<polygon fill="midnightblue" stroke="midnightblue" points="573.121,-196.991 583.702,-196.448 575.092,-190.274 573.121,-196.991"/>
</g>
<!-- Node9 -->
<g id="node9" class="node"><title>Node9</title>
<g id="a_node9"><a xlink:href="classRa_1_1Engine_1_1Entity.html#aaf256bea44bbc5bff6aa504aca05ca35" target="_top" xlink:title="Ra::Engine::Entity\l::getName">
<polygon fill="white" stroke="black" points="586,-147.5 586,-177.5 686,-177.5 686,-147.5 586,-147.5"/>
<text text-anchor="start" x="594" y="-165.5" font-family="Helvetica,sans-Serif" font-size="10.00">Ra::Engine::Entity</text>
<text text-anchor="middle" x="636" y="-154.5" font-family="Helvetica,sans-Serif" font-size="10.00">::getName</text>
</a>
</g>
</g>
<!-- Node4&#45;&gt;Node9 -->
<g id="edge8" class="edge"><title>Node4&#45;&gt;Node9</title>
<path fill="none" stroke="midnightblue" d="M526.878,-162.5C542.67,-162.5 559.752,-162.5 575.573,-162.5"/>
<polygon fill="midnightblue" stroke="midnightblue" points="575.762,-166 585.762,-162.5 575.762,-159 575.762,-166"/>
</g>
<!-- Node10 -->
<g id="node10" class="node"><title>Node10</title>
<g id="a_node10"><a xlink:href="structRa_1_1Engine_1_1ItemEntry.html#a898047549069e5b64d3a9a65c058af56" target="_top" xlink:title="Returns true if the item represents a render object. ">
<polygon fill="white" stroke="black" points="576.5,-98.5 576.5,-128.5 695.5,-128.5 695.5,-98.5 576.5,-98.5"/>
<text text-anchor="start" x="584.5" y="-116.5" font-family="Helvetica,sans-Serif" font-size="10.00">Ra::Engine::ItemEntry</text>
<text text-anchor="middle" x="636" y="-105.5" font-family="Helvetica,sans-Serif" font-size="10.00">::isRoNode</text>
</a>
</g>
</g>
<!-- Node4&#45;&gt;Node10 -->
<g id="edge9" class="edge"><title>Node4&#45;&gt;Node10</title>
<path fill="none" stroke="midnightblue" d="M519.468,-147.399C536.692,-142.345 556.059,-136.662 573.942,-131.415"/>
<polygon fill="midnightblue" stroke="midnightblue" points="575.092,-134.726 583.702,-128.552 573.121,-128.009 575.092,-134.726"/>
</g>
<!-- Node12 -->
<g id="node12" class="node"><title>Node12</title>
<g id="a_node12"><a xlink:href="classRa_1_1Engine_1_1RadiumEngine.html#a58b27bc600ea769f68b0e2938abc7862" target="_top" xlink:title="Manager getters. ">
<polygon fill="white" stroke="black" points="564,-49.5 564,-79.5 708,-79.5 708,-49.5 564,-49.5"/>
<text text-anchor="start" x="572" y="-67.5" font-family="Helvetica,sans-Serif" font-size="10.00">Ra::Engine::RadiumEngine</text>
<text text-anchor="middle" x="636" y="-56.5" font-family="Helvetica,sans-Serif" font-size="10.00">::getRenderObjectManager</text>
</a>
</g>
</g>
<!-- Node4&#45;&gt;Node12 -->
<g id="edge12" class="edge"><title>Node4&#45;&gt;Node12</title>
<path fill="none" stroke="midnightblue" d="M513.721,-147.402C518.772,-144.822 523.653,-141.865 528,-138.5 549.368,-121.956 542.29,-105.592 564,-89.5 566.492,-87.653 569.132,-85.9337 571.871,-84.3341"/>
<polygon fill="midnightblue" stroke="midnightblue" points="573.652,-87.3528 580.898,-79.6236 570.413,-81.1469 573.652,-87.3528"/>
</g>
<!-- Node13 -->
<g id="node13" class="node"><title>Node13</title>
<g id="a_node13"><a xlink:href="classRa_1_1Engine_1_1RenderObjectManager.html#a4077b9cf9e1e4d62fd5456386f2d72c8" target="_top" xlink:title="Returns true if the index points to a valid render object. ">
<polygon fill="white" stroke="black" points="567.5,-0.5 567.5,-30.5 704.5,-30.5 704.5,-0.5 567.5,-0.5"/>
<text text-anchor="start" x="575.5" y="-18.5" font-family="Helvetica,sans-Serif" font-size="10.00">Ra::Engine::RenderObject</text>
<text text-anchor="middle" x="636" y="-7.5" font-family="Helvetica,sans-Serif" font-size="10.00">Manager::exists</text>
</a>
</g>
</g>
<!-- Node4&#45;&gt;Node13 -->
<g id="edge13" class="edge"><title>Node4&#45;&gt;Node13</title>
<path fill="none" stroke="midnightblue" d="M516.519,-147.5C520.721,-144.943 524.643,-141.965 528,-138.5 560.576,-104.873 530.519,-72.2263 564,-39.5 565.105,-38.42 566.26,-37.3885 567.459,-36.4034"/>
<polygon fill="midnightblue" stroke="midnightblue" points="569.686,-39.1182 575.921,-30.5518 565.705,-33.3606 569.686,-39.1182"/>
</g>
<!-- Node6 -->
<g id="node6" class="node"><title>Node6</title>
<g id="a_node6"><a xlink:href="classRa_1_1Core_1_1Index.html#a7283e7fb9cc134e04ef3cde8877f8fe2" target="_top" xlink:title="INVALID. ">
<polygon fill="white" stroke="black" points="905,-139 905,-158 1037,-158 1037,-139 905,-139"/>
<text text-anchor="middle" x="971" y="-146" font-family="Helvetica,sans-Serif" font-size="10.00">Ra::Core::Index::isInvalid</text>
</a>
</g>
</g>
<!-- Node5&#45;&gt;Node6 -->
<g id="edge5" class="edge"><title>Node5&#45;&gt;Node6</title>
<path fill="none" stroke="midnightblue" d="M866.166,-148.5C875.379,-148.5 885.013,-148.5 894.541,-148.5"/>
<polygon fill="midnightblue" stroke="midnightblue" points="894.812,-152 904.812,-148.5 894.812,-145 894.812,-152"/>
</g>
<!-- Node10&#45;&gt;Node5 -->
<g id="edge10" class="edge"><title>Node10&#45;&gt;Node5</title>
<path fill="none" stroke="midnightblue" d="M695.933,-125.741C709.221,-128.501 723.435,-131.454 737.075,-134.287"/>
<polygon fill="midnightblue" stroke="midnightblue" points="736.382,-137.718 746.885,-136.325 737.806,-130.864 736.382,-137.718"/>
</g>
<!-- Node11 -->
<g id="node11" class="node"><title>Node11</title>
<g id="a_node11"><a xlink:href="classRa_1_1Core_1_1Index.html#a87c70243f30c65c1a24834d1829bda01" target="_top" xlink:title="DESTRUCTOR: Must not be defined, we need it trivial to be constexpr. ">
<polygon fill="white" stroke="black" points="744,-68 744,-87 869,-87 869,-68 744,-68"/>
<text text-anchor="middle" x="806.5" y="-75" font-family="Helvetica,sans-Serif" font-size="10.00">Ra::Core::Index::isValid</text>
</a>
</g>
</g>
<!-- Node10&#45;&gt;Node11 -->
<g id="edge11" class="edge"><title>Node10&#45;&gt;Node11</title>
<path fill="none" stroke="midnightblue" d="M695.933,-100.909C713.783,-97.0953 733.305,-92.9245 750.861,-89.1737"/>
<polygon fill="midnightblue" stroke="midnightblue" points="751.895,-92.5318 760.943,-87.0197 750.432,-85.6863 751.895,-92.5318"/>
</g>
<!-- Node13&#45;&gt;Node11 -->
<g id="edge14" class="edge"><title>Node13&#45;&gt;Node11</title>
<path fill="none" stroke="midnightblue" d="M682.559,-30.5567C691.04,-33.4567 699.807,-36.5205 708,-39.5 729.663,-47.3782 753.804,-56.7819 772.644,-64.2635"/>
<polygon fill="midnightblue" stroke="midnightblue" points="771.387,-67.5302 781.972,-67.9825 773.979,-61.0279 771.387,-67.5302"/>
</g>
</g>
</svg>
