<?xml version="1.0" encoding="UTF-8" standalone="no"?>
<!DOCTYPE svg PUBLIC "-//W3C//DTD SVG 1.1//EN"
 "http://www.w3.org/Graphics/SVG/1.1/DTD/svg11.dtd">
<!-- Generated by graphviz version 2.38.0 (20140413.2041)
 -->
<!-- Title: Ra::Core::SplineCurve::SplineCurve Pages: 1 -->
<svg width="286pt" height="192pt"
 viewBox="0.00 0.00 286.00 191.50" xmlns="http://www.w3.org/2000/svg" xmlns:xlink="http://www.w3.org/1999/xlink">
<g id="graph0" class="graph" transform="scale(1 1) rotate(0) translate(4 187.5)">
<title>Ra::Core::SplineCurve::SplineCurve</title>
<polygon fill="white" stroke="none" points="-4,4 -4,-187.5 282,-187.5 282,4 -4,4"/>
<!-- Node1 -->
<g id="node1" class="node"><title>Node1</title>
<polygon fill="#bfbfbf" stroke="black" points="0,-71 0,-101 120,-101 120,-71 0,-71"/>
<text text-anchor="start" x="8" y="-89" font-family="Helvetica,sans-Serif" font-size="10.00">Ra::Core::SplineCurve</text>
<text text-anchor="middle" x="60" y="-78" font-family="Helvetica,sans-Serif" font-size="10.00">::SplineCurve</text>
</g>
<!-- Node2 -->
<g id="node2" class="node"><title>Node2</title>
<g id="a_node2"><a xlink:href="classRa_1_1Core_1_1Curve2D.html#a3330cd162c6173792b077135c09d3de7" target="_top" xlink:title="Ra::Core::Curve2D::\laddPoint">
<polygon fill="white" stroke="black" points="162,-153 162,-183 272,-183 272,-153 162,-153"/>
<text text-anchor="start" x="170" y="-171" font-family="Helvetica,sans-Serif" font-size="10.00">Ra::Core::Curve2D::</text>
<text text-anchor="middle" x="217" y="-160" font-family="Helvetica,sans-Serif" font-size="10.00">addPoint</text>
</a>
</g>
</g>
<!-- Node1&#45;&gt;Node2 -->
<g id="edge1" class="edge"><title>Node1&#45;&gt;Node2</title>
<path fill="none" stroke="midnightblue" d="M83.8902,-101.024C102.808,-113.123 130.589,-130.169 156,-143 159.96,-145 164.119,-146.975 168.322,-148.886"/>
<polygon fill="midnightblue" stroke="midnightblue" points="166.972,-152.115 177.534,-152.951 169.798,-145.711 166.972,-152.115"/>
</g>
<!-- Node3 -->
<g id="node3" class="node"><title>Node3</title>
<g id="a_node3"><a xlink:href="classRa_1_1Core_1_1Curve2D.html#aacb0519a398646bd414c34f17b228f85" target="_top" xlink:title="Ra::Core::Curve2D::f">
<polygon fill="white" stroke="black" points="160.5,-114.5 160.5,-133.5 273.5,-133.5 273.5,-114.5 160.5,-114.5"/>
<text text-anchor="middle" x="217" y="-121.5" font-family="Helvetica,sans-Serif" font-size="10.00">Ra::Core::Curve2D::f</text>
</a>
</g>
</g>
<!-- Node1&#45;&gt;Node3 -->
<g id="edge2" class="edge"><title>Node1&#45;&gt;Node3</title>
<path fill="none" stroke="midnightblue" d="M120.041,-100.475C135.473,-104.258 151.941,-108.295 166.8,-111.938"/>
<polygon fill="midnightblue" stroke="midnightblue" points="166.252,-115.407 176.798,-114.389 167.919,-108.609 166.252,-115.407"/>
</g>
<!-- Node4 -->
<g id="node4" class="node"><title>Node4</title>
<g id="a_node4"><a xlink:href="classRa_1_1Core_1_1Curve2D.html#ae75adef03007861ba249b4fb9dc83c4b" target="_top" xlink:title="Ra::Core::Curve2D::df">
<polygon fill="white" stroke="black" points="157.5,-76.5 157.5,-95.5 276.5,-95.5 276.5,-76.5 157.5,-76.5"/>
<text text-anchor="middle" x="217" y="-83.5" font-family="Helvetica,sans-Serif" font-size="10.00">Ra::Core::Curve2D::df</text>
</a>
</g>
</g>
<!-- Node1&#45;&gt;Node4 -->
<g id="edge3" class="edge"><title>Node1&#45;&gt;Node4</title>
<path fill="none" stroke="midnightblue" d="M120.041,-86C128.93,-86 138.163,-86 147.234,-86"/>
<polygon fill="midnightblue" stroke="midnightblue" points="147.38,-89.5001 157.38,-86 147.38,-82.5001 147.38,-89.5001"/>
</g>
<!-- Node5 -->
<g id="node5" class="node"><title>Node5</title>
<g id="a_node5"><a xlink:href="classRa_1_1Core_1_1Curve2D.html#a01294ddfb352aff37a1d9d1bfd9061ed" target="_top" xlink:title="Ra::Core::Curve2D::fdf">
<polygon fill="white" stroke="black" points="156,-38.5 156,-57.5 278,-57.5 278,-38.5 156,-38.5"/>
<text text-anchor="middle" x="217" y="-45.5" font-family="Helvetica,sans-Serif" font-size="10.00">Ra::Core::Curve2D::fdf</text>
</a>
</g>
</g>
<!-- Node1&#45;&gt;Node5 -->
<g id="edge4" class="edge"><title>Node1&#45;&gt;Node5</title>
<path fill="none" stroke="midnightblue" d="M120.041,-71.5254C135.473,-67.7422 151.941,-63.7048 166.8,-60.0619"/>
<polygon fill="midnightblue" stroke="midnightblue" points="167.919,-63.3914 176.798,-57.6109 166.252,-56.5927 167.919,-63.3914"/>
</g>
<!-- Node6 -->
<g id="node6" class="node"><title>Node6</title>
<g id="a_node6"><a xlink:href="namespaceRa_1_1Core_1_1Algorithm.html#aea294cdb6f4f0d85955bdcccb22886ec" target="_top" xlink:title="Ra::Core::Algorithm::t">
<polygon fill="white" stroke="black" points="157.5,-0.5 157.5,-19.5 276.5,-19.5 276.5,-0.5 157.5,-0.5"/>
<text text-anchor="middle" x="217" y="-7.5" font-family="Helvetica,sans-Serif" font-size="10.00">Ra::Core::Algorithm::t</text>
</a>
</g>
</g>
<!-- Node1&#45;&gt;Node6 -->
<g id="edge5" class="edge"><title>Node1&#45;&gt;Node6</title>
<path fill="none" stroke="midnightblue" d="M82.8464,-70.8742C101.603,-58.3891 129.698,-40.8577 156,-29 160.795,-26.8381 165.909,-24.8174 171.051,-22.9613"/>
<polygon fill="midnightblue" stroke="midnightblue" points="172.566,-26.1426 180.9,-19.6008 170.306,-19.5176 172.566,-26.1426"/>
</g>
</g>
</svg>
