<?xml version="1.0" encoding="UTF-8" standalone="no"?>
<!DOCTYPE svg PUBLIC "-//W3C//DTD SVG 1.1//EN"
 "http://www.w3.org/Graphics/SVG/1.1/DTD/svg11.dtd">
<!-- Generated by graphviz version 2.38.0 (20140413.2041)
 -->
<!-- Title: Ra::GuiBase::BaseApplication::radiumFrame Pages: 1 -->
<svg width="922pt" height="665pt"
 viewBox="0.00 0.00 922.00 665.00" xmlns="http://www.w3.org/2000/svg" xmlns:xlink="http://www.w3.org/1999/xlink">
<g id="graph0" class="graph" transform="scale(1 1) rotate(0) translate(4 661)">
<title>Ra::GuiBase::BaseApplication::radiumFrame</title>
<polygon fill="white" stroke="none" points="-4,4 -4,-661 918,-661 918,4 -4,4"/>
<!-- Node1 -->
<g id="node1" class="node"><title>Node1</title>
<polygon fill="#bfbfbf" stroke="black" points="0,-329.5 0,-359.5 157,-359.5 157,-329.5 0,-329.5"/>
<text text-anchor="start" x="8" y="-347.5" font-family="Helvetica,sans-Serif" font-size="10.00">Ra::GuiBase::BaseApplication</text>
<text text-anchor="middle" x="78.5" y="-336.5" font-family="Helvetica,sans-Serif" font-size="10.00">::radiumFrame</text>
</g>
<!-- Node2 -->
<g id="node2" class="node"><title>Node2</title>
<g id="a_node2"><a xlink:href="namespaceRa_1_1Core_1_1Timer.html#a8e59666de14b600e25746573c1710318" target="_top" xlink:title="Ra::Core::Timer::getInterval\lSeconds">
<polygon fill="white" stroke="black" points="201.5,-577.5 201.5,-607.5 348.5,-607.5 348.5,-577.5 201.5,-577.5"/>
<text text-anchor="start" x="209.5" y="-595.5" font-family="Helvetica,sans-Serif" font-size="10.00">Ra::Core::Timer::getInterval</text>
<text text-anchor="middle" x="275" y="-584.5" font-family="Helvetica,sans-Serif" font-size="10.00">Seconds</text>
</a>
</g>
</g>
<!-- Node1&#45;&gt;Node2 -->
<g id="edge1" class="edge"><title>Node1&#45;&gt;Node2</title>
<path fill="none" stroke="midnightblue" d="M82.7644,-359.627C92.2558,-399.922 123.684,-510.714 193,-568.5 194.563,-569.803 196.195,-571.035 197.883,-572.201"/>
<polygon fill="midnightblue" stroke="midnightblue" points="196.358,-575.367 206.738,-577.488 199.947,-569.357 196.358,-575.367"/>
</g>
<!-- Node3 -->
<g id="node3" class="node"><title>Node3</title>
<g id="a_node3"><a xlink:href="classRa_1_1Gui_1_1Viewer.html#aeee8e169e5cdca89d16cde152a7f4657" target="_top" xlink:title="Emits signals corresponding to picking requests. ">
<polygon fill="white" stroke="black" points="209.5,-528.5 209.5,-558.5 340.5,-558.5 340.5,-528.5 209.5,-528.5"/>
<text text-anchor="start" x="217.5" y="-546.5" font-family="Helvetica,sans-Serif" font-size="10.00">Ra::Gui::Viewer::process</text>
<text text-anchor="middle" x="275" y="-535.5" font-family="Helvetica,sans-Serif" font-size="10.00">Picking</text>
</a>
</g>
</g>
<!-- Node1&#45;&gt;Node3 -->
<g id="edge2" class="edge"><title>Node1&#45;&gt;Node3</title>
<path fill="none" stroke="midnightblue" d="M94.4391,-359.785C128.535,-394.67 212.214,-480.285 252.129,-521.123"/>
<polygon fill="midnightblue" stroke="midnightblue" points="249.783,-523.73 259.276,-528.436 254.789,-518.838 249.783,-523.73"/>
</g>
<!-- Node7 -->
<g id="node7" class="node"><title>Node7</title>
<g id="a_node7"><a xlink:href="classRa_1_1Gui_1_1Viewer.html#a0bc8019968c23fd6ca0d1c27c0d6ec0d" target="_top" xlink:title="Start rendering (potentially asynchronously in a separate thread) ">
<polygon fill="white" stroke="black" points="193,-423 193,-442 357,-442 357,-423 193,-423"/>
<text text-anchor="middle" x="275" y="-430" font-family="Helvetica,sans-Serif" font-size="10.00">Ra::Gui::Viewer::startRendering</text>
</a>
</g>
</g>
<!-- Node1&#45;&gt;Node7 -->
<g id="edge6" class="edge"><title>Node1&#45;&gt;Node7</title>
<path fill="none" stroke="midnightblue" d="M99.7797,-359.567C121.709,-375.186 158.21,-399.268 193,-413.5 199.198,-416.035 205.807,-418.276 212.476,-420.244"/>
<polygon fill="midnightblue" stroke="midnightblue" points="211.677,-423.655 222.247,-422.937 213.537,-416.906 211.677,-423.655"/>
</g>
<!-- Node23 -->
<g id="node23" class="node"><title>Node23</title>
<g id="a_node23"><a xlink:href="classRa_1_1Gui_1_1Viewer.html#aabb347c672746b38052bbd9c7e726c24" target="_top" xlink:title="Blocks until rendering is finished. ">
<polygon fill="white" stroke="black" points="211,-373.5 211,-403.5 339,-403.5 339,-373.5 211,-373.5"/>
<text text-anchor="start" x="219" y="-391.5" font-family="Helvetica,sans-Serif" font-size="10.00">Ra::Gui::Viewer::waitFor</text>
<text text-anchor="middle" x="275" y="-380.5" font-family="Helvetica,sans-Serif" font-size="10.00">Rendering</text>
</a>
</g>
</g>
<!-- Node1&#45;&gt;Node23 -->
<g id="edge22" class="edge"><title>Node1&#45;&gt;Node23</title>
<path fill="none" stroke="midnightblue" d="M145.892,-359.519C163.627,-363.531 182.89,-367.889 200.961,-371.977"/>
<polygon fill="midnightblue" stroke="midnightblue" points="200.335,-375.424 210.861,-374.217 201.88,-368.596 200.335,-375.424"/>
</g>
<!-- Node24 -->
<g id="node24" class="node"><title>Node24</title>
<g id="a_node24"><a xlink:href="classRa_1_1Gui_1_1Viewer.html#af27bf06c9bd7d133b81dde4c34469d1e" target="_top" xlink:title="Read&#45;only access to renderer. ">
<polygon fill="white" stroke="black" points="199,-335 199,-354 351,-354 351,-335 199,-335"/>
<text text-anchor="middle" x="275" y="-342" font-family="Helvetica,sans-Serif" font-size="10.00">Ra::Gui::Viewer::getRenderer</text>
</a>
</g>
</g>
<!-- Node1&#45;&gt;Node24 -->
<g id="edge23" class="edge"><title>Node1&#45;&gt;Node24</title>
<path fill="none" stroke="midnightblue" d="M157.21,-344.5C167.634,-344.5 178.371,-344.5 188.914,-344.5"/>
<polygon fill="midnightblue" stroke="midnightblue" points="188.946,-348 198.946,-344.5 188.946,-341 188.946,-348"/>
</g>
<!-- Node25 -->
<g id="node25" class="node"><title>Node25</title>
<g id="a_node25"><a xlink:href="classRa_1_1Engine_1_1Renderer.html#af8db8153a92d948aefbe0158273e4626" target="_top" xlink:title="Extract the timings from las render. ">
<polygon fill="white" stroke="black" points="217,-285.5 217,-315.5 333,-315.5 333,-285.5 217,-285.5"/>
<text text-anchor="start" x="225" y="-303.5" font-family="Helvetica,sans-Serif" font-size="10.00">Ra::Engine::Renderer</text>
<text text-anchor="middle" x="275" y="-292.5" font-family="Helvetica,sans-Serif" font-size="10.00">::getTimerData</text>
</a>
</g>
</g>
<!-- Node1&#45;&gt;Node25 -->
<g id="edge24" class="edge"><title>Node1&#45;&gt;Node25</title>
<path fill="none" stroke="midnightblue" d="M145.892,-329.481C165.662,-325.008 187.33,-320.107 207.131,-315.627"/>
<polygon fill="midnightblue" stroke="midnightblue" points="208.007,-319.017 216.988,-313.397 206.463,-312.19 208.007,-319.017"/>
</g>
<!-- Node26 -->
<g id="node26" class="node"><title>Node26</title>
<g id="a_node26"><a xlink:href="structRa_1_1FrameTimerData.html#a7e5a2022b84cf7abf32c4813137d7a89" target="_top" xlink:title="Ra::FrameTimerData\l::print">
<polygon fill="white" stroke="black" points="217.5,-236.5 217.5,-266.5 332.5,-266.5 332.5,-236.5 217.5,-236.5"/>
<text text-anchor="start" x="225.5" y="-254.5" font-family="Helvetica,sans-Serif" font-size="10.00">Ra::FrameTimerData</text>
<text text-anchor="middle" x="275" y="-243.5" font-family="Helvetica,sans-Serif" font-size="10.00">::print</text>
</a>
</g>
</g>
<!-- Node1&#45;&gt;Node26 -->
<g id="edge25" class="edge"><title>Node1&#45;&gt;Node26</title>
<path fill="none" stroke="midnightblue" d="M101.252,-329.301C123.49,-314.291 159.435,-291.472 193,-276.5 198.252,-274.157 203.789,-271.947 209.4,-269.884"/>
<polygon fill="midnightblue" stroke="midnightblue" points="210.603,-273.171 218.876,-266.552 208.282,-266.567 210.603,-273.171"/>
</g>
<!-- Node28 -->
<g id="node28" class="node"><title>Node28</title>
<g id="a_node28"><a xlink:href="classRa_1_1GuiBase_1_1BaseApplication.html#a38543f32547a83e36ca0c678ac11be57" target="_top" xlink:title="Ra::GuiBase::BaseApplication\l::recordFrame">
<polygon fill="white" stroke="black" points="196.5,-160.5 196.5,-190.5 353.5,-190.5 353.5,-160.5 196.5,-160.5"/>
<text text-anchor="start" x="204.5" y="-178.5" font-family="Helvetica,sans-Serif" font-size="10.00">Ra::GuiBase::BaseApplication</text>
<text text-anchor="middle" x="275" y="-167.5" font-family="Helvetica,sans-Serif" font-size="10.00">::recordFrame</text>
</a>
</g>
</g>
<!-- Node1&#45;&gt;Node28 -->
<g id="edge27" class="edge"><title>Node1&#45;&gt;Node28</title>
<path fill="none" stroke="midnightblue" d="M92.1455,-329.384C112.14,-305.988 152.915,-260.291 193,-227.5 207.032,-216.021 223.717,-204.933 238.287,-195.966"/>
<polygon fill="midnightblue" stroke="midnightblue" points="240.296,-198.841 247.043,-190.672 236.675,-192.851 240.296,-198.841"/>
</g>
<!-- Node38 -->
<g id="node38" class="node"><title>Node38</title>
<g id="a_node38"><a xlink:href="classRa_1_1GuiBase_1_1BaseApplication.html#aa19a984e0783e70237b8050feb1a3d2a" target="_top" xlink:title="Ra::GuiBase::BaseApplication\l::appNeedsToQuit">
<polygon fill="white" stroke="black" points="196.5,-111.5 196.5,-141.5 353.5,-141.5 353.5,-111.5 196.5,-111.5"/>
<text text-anchor="start" x="204.5" y="-129.5" font-family="Helvetica,sans-Serif" font-size="10.00">Ra::GuiBase::BaseApplication</text>
<text text-anchor="middle" x="275" y="-118.5" font-family="Helvetica,sans-Serif" font-size="10.00">::appNeedsToQuit</text>
</a>
</g>
</g>
<!-- Node1&#45;&gt;Node38 -->
<g id="edge37" class="edge"><title>Node1&#45;&gt;Node38</title>
<path fill="none" stroke="midnightblue" d="M84.1225,-329.403C96.0065,-293.129 131.114,-200.457 193,-151.5 195.272,-149.702 197.674,-148.033 200.172,-146.484"/>
<polygon fill="midnightblue" stroke="midnightblue" points="201.894,-149.532 208.988,-141.663 198.535,-143.39 201.894,-149.532"/>
</g>
<!-- Node4 -->
<g id="node4" class="node"><title>Node4</title>
<g id="a_node4"><a xlink:href="classRa_1_1Engine_1_1Renderer.html#a08c269858a2f3603f7417ba6ed649bde" target="_top" xlink:title="Get the vector of picking queries. ">
<polygon fill="white" stroke="black" points="408.5,-626.5 408.5,-656.5 524.5,-656.5 524.5,-626.5 408.5,-626.5"/>
<text text-anchor="start" x="416.5" y="-644.5" font-family="Helvetica,sans-Serif" font-size="10.00">Ra::Engine::Renderer</text>
<text text-anchor="middle" x="466.5" y="-633.5" font-family="Helvetica,sans-Serif" font-size="10.00">::getPickingQueries</text>
</a>
</g>
</g>
<!-- Node3&#45;&gt;Node4 -->
<g id="edge3" class="edge"><title>Node3&#45;&gt;Node4</title>
<path fill="none" stroke="midnightblue" d="M339.373,-558.631C345.601,-561.4 351.603,-564.661 357,-568.5 379.021,-584.163 371.139,-601.614 393,-617.5 395.065,-619 397.229,-620.411 399.466,-621.736"/>
<polygon fill="midnightblue" stroke="midnightblue" points="397.919,-624.878 408.398,-626.439 401.18,-618.683 397.919,-624.878"/>
</g>
<!-- Node5 -->
<g id="node5" class="node"><title>Node5</title>
<g id="a_node5"><a xlink:href="classRa_1_1Engine_1_1Renderer.html#a0508dbc35d4ab5ff766a209925fca359" target="_top" xlink:title="Get the vector of picking results. ">
<polygon fill="white" stroke="black" points="408.5,-577.5 408.5,-607.5 524.5,-607.5 524.5,-577.5 408.5,-577.5"/>
<text text-anchor="start" x="416.5" y="-595.5" font-family="Helvetica,sans-Serif" font-size="10.00">Ra::Engine::Renderer</text>
<text text-anchor="middle" x="466.5" y="-584.5" font-family="Helvetica,sans-Serif" font-size="10.00">::getPickingResults</text>
</a>
</g>
</g>
<!-- Node3&#45;&gt;Node5 -->
<g id="edge4" class="edge"><title>Node3&#45;&gt;Node5</title>
<path fill="none" stroke="midnightblue" d="M334.144,-558.535C354.525,-563.805 377.577,-569.765 398.616,-575.206"/>
<polygon fill="midnightblue" stroke="midnightblue" points="397.885,-578.631 408.443,-577.746 399.637,-571.854 397.885,-578.631"/>
</g>
<!-- Node6 -->
<g id="node6" class="node"><title>Node6</title>
<g id="a_node6"><a xlink:href="classRa_1_1Gui_1_1PickingManager.html#acc32a270073f0496c3f96f880521b07e" target="_top" xlink:title="Ra::Gui::PickingManager\l::setCurrent">
<polygon fill="white" stroke="black" points="401,-528.5 401,-558.5 532,-558.5 532,-528.5 401,-528.5"/>
<text text-anchor="start" x="409" y="-546.5" font-family="Helvetica,sans-Serif" font-size="10.00">Ra::Gui::PickingManager</text>
<text text-anchor="middle" x="466.5" y="-535.5" font-family="Helvetica,sans-Serif" font-size="10.00">::setCurrent</text>
</a>
</g>
</g>
<!-- Node3&#45;&gt;Node6 -->
<g id="edge5" class="edge"><title>Node3&#45;&gt;Node6</title>
<path fill="none" stroke="midnightblue" d="M340.685,-543.5C356.756,-543.5 374.115,-543.5 390.63,-543.5"/>
<polygon fill="midnightblue" stroke="midnightblue" points="390.785,-547 400.785,-543.5 390.785,-540 390.785,-547"/>
</g>
<!-- Node8 -->
<g id="node8" class="node"><title>Node8</title>
<g id="a_node8"><a xlink:href="classRa_1_1Gui_1_1PickingManager.html#a0e09b5c72c23cfc60f0c1d2f0d00a809" target="_top" xlink:title="Ra::Gui::PickingManager\l::clear">
<polygon fill="white" stroke="black" points="401,-479.5 401,-509.5 532,-509.5 532,-479.5 401,-479.5"/>
<text text-anchor="start" x="409" y="-497.5" font-family="Helvetica,sans-Serif" font-size="10.00">Ra::Gui::PickingManager</text>
<text text-anchor="middle" x="466.5" y="-486.5" font-family="Helvetica,sans-Serif" font-size="10.00">::clear</text>
</a>
</g>
</g>
<!-- Node7&#45;&gt;Node8 -->
<g id="edge7" class="edge"><title>Node7&#45;&gt;Node8</title>
<path fill="none" stroke="midnightblue" d="M305.194,-442.052C332.881,-451.11 375.215,-464.961 409.427,-476.154"/>
<polygon fill="midnightblue" stroke="midnightblue" points="408.707,-479.601 419.299,-479.384 410.883,-472.948 408.707,-479.601"/>
</g>
<!-- Node11 -->
<g id="node11" class="node"><title>Node11</title>
<g id="a_node11"><a xlink:href="classRa_1_1Engine_1_1Renderer.html#aae06e80b86860b118f7d4a8970fa883f" target="_top" xlink:title="Tell if the renderer has an usable light. ">
<polygon fill="white" stroke="black" points="408.5,-430.5 408.5,-460.5 524.5,-460.5 524.5,-430.5 408.5,-430.5"/>
<text text-anchor="start" x="416.5" y="-448.5" font-family="Helvetica,sans-Serif" font-size="10.00">Ra::Engine::Renderer</text>
<text text-anchor="middle" x="466.5" y="-437.5" font-family="Helvetica,sans-Serif" font-size="10.00">::hasLight</text>
</a>
</g>
</g>
<!-- Node7&#45;&gt;Node11 -->
<g id="edge10" class="edge"><title>Node7&#45;&gt;Node11</title>
<path fill="none" stroke="midnightblue" d="M357.19,-438.07C370.878,-439.009 384.953,-439.974 398.238,-440.886"/>
<polygon fill="midnightblue" stroke="midnightblue" points="398.007,-444.378 408.223,-441.571 398.487,-437.394 398.007,-444.378"/>
</g>
<!-- Node12 -->
<g id="node12" class="node"><title>Node12</title>
<g id="a_node12"><a xlink:href="classRa_1_1Engine_1_1Renderer.html#ad8e27588477d7e65666598cdfd1d4fbb" target="_top" xlink:title="Add a light to the renderer. ">
<polygon fill="white" stroke="black" points="408.5,-381.5 408.5,-411.5 524.5,-411.5 524.5,-381.5 408.5,-381.5"/>
<text text-anchor="start" x="416.5" y="-399.5" font-family="Helvetica,sans-Serif" font-size="10.00">Ra::Engine::Renderer</text>
<text text-anchor="middle" x="466.5" y="-388.5" font-family="Helvetica,sans-Serif" font-size="10.00">::addLight</text>
</a>
</g>
</g>
<!-- Node7&#45;&gt;Node12 -->
<g id="edge11" class="edge"><title>Node7&#45;&gt;Node12</title>
<path fill="none" stroke="midnightblue" d="M326.285,-422.947C348.352,-418.755 374.58,-413.772 398.289,-409.268"/>
<polygon fill="midnightblue" stroke="midnightblue" points="399.105,-412.676 408.276,-407.371 397.799,-405.799 399.105,-412.676"/>
</g>
<!-- Node13 -->
<g id="node13" class="node"><title>Node13</title>
<g id="a_node13"><a xlink:href="classRa_1_1Engine_1_1Renderer.html#affc431edcc808c4bd5ca80bfe03a2c55" target="_top" xlink:title="Tell the renderer it needs to render. ">
<polygon fill="white" stroke="black" points="408.5,-332.5 408.5,-362.5 524.5,-362.5 524.5,-332.5 408.5,-332.5"/>
<text text-anchor="start" x="416.5" y="-350.5" font-family="Helvetica,sans-Serif" font-size="10.00">Ra::Engine::Renderer</text>
<text text-anchor="middle" x="466.5" y="-339.5" font-family="Helvetica,sans-Serif" font-size="10.00">::render</text>
</a>
</g>
</g>
<!-- Node7&#45;&gt;Node13 -->
<g id="edge12" class="edge"><title>Node7&#45;&gt;Node13</title>
<path fill="none" stroke="midnightblue" d="M336.061,-422.894C343.393,-420.442 350.559,-417.364 357,-413.5 377.795,-401.026 372.865,-386.015 393,-372.5 395.907,-370.549 398.982,-368.735 402.159,-367.05"/>
<polygon fill="midnightblue" stroke="midnightblue" points="403.837,-370.127 411.332,-362.639 400.803,-363.819 403.837,-370.127"/>
</g>
<!-- Node9 -->
<g id="node9" class="node"><title>Node9</title>
<g id="a_node9"><a xlink:href="classRa_1_1Core_1_1Index.html#a16f988512f9ef442cc97b6bc4809ba45" target="_top" xlink:title="Ra::Core::Index::Invalid">
<polygon fill="white" stroke="black" points="604.5,-603 604.5,-622 729.5,-622 729.5,-603 604.5,-603"/>
<text text-anchor="middle" x="667" y="-610" font-family="Helvetica,sans-Serif" font-size="10.00">Ra::Core::Index::Invalid</text>
</a>
</g>
</g>
<!-- Node8&#45;&gt;Node9 -->
<g id="edge8" class="edge"><title>Node8&#45;&gt;Node9</title>
<path fill="none" stroke="midnightblue" d="M525.29,-509.545C530.596,-512.327 535.615,-515.615 540,-519.5 567.375,-543.755 547.175,-570.988 576,-593.5 581.496,-597.793 587.737,-601.174 594.307,-603.829"/>
<polygon fill="midnightblue" stroke="midnightblue" points="593.527,-607.263 604.122,-607.222 595.814,-600.647 593.527,-607.263"/>
</g>
<!-- Node10 -->
<g id="node10" class="node"><title>Node10</title>
<g id="a_node10"><a xlink:href="classRa_1_1Core_1_1Index.html#af6afe563ad57a4ab82f3706987e684ef" target="_top" xlink:title="CONSTRUCTOR Default constructor that allow implicit conversion from integer to Index. ">
<polygon fill="white" stroke="black" points="794,-603 794,-622 914,-622 914,-603 794,-603"/>
<text text-anchor="middle" x="854" y="-610" font-family="Helvetica,sans-Serif" font-size="10.00">Ra::Core::Index::Index</text>
</a>
</g>
</g>
<!-- Node9&#45;&gt;Node10 -->
<g id="edge9" class="edge"><title>Node9&#45;&gt;Node10</title>
<path fill="none" stroke="midnightblue" d="M729.602,-612.5C746.912,-612.5 765.852,-612.5 783.584,-612.5"/>
<polygon fill="midnightblue" stroke="midnightblue" points="783.863,-616 793.863,-612.5 783.863,-609 783.863,-616"/>
</g>
<!-- Node14 -->
<g id="node14" class="node"><title>Node14</title>
<g id="a_node14"><a xlink:href="classRa_1_1Engine_1_1Renderer.html#a54631e8470c2638009457f53628dac57" target="_top" xlink:title="Update the renderer dependent resources for the next frame. ">
<polygon fill="white" stroke="black" points="609,-553.5 609,-583.5 725,-583.5 725,-553.5 609,-553.5"/>
<text text-anchor="start" x="617" y="-571.5" font-family="Helvetica,sans-Serif" font-size="10.00">Ra::Engine::Renderer</text>
<text text-anchor="middle" x="667" y="-560.5" font-family="Helvetica,sans-Serif" font-size="10.00">::updateStepInternal</text>
</a>
</g>
</g>
<!-- Node13&#45;&gt;Node14 -->
<g id="edge13" class="edge"><title>Node13&#45;&gt;Node14</title>
<path fill="none" stroke="midnightblue" d="M524.586,-360.504C530.367,-363.67 535.686,-367.606 540,-372.5 591.647,-431.086 522.293,-487.796 576,-544.5 582.37,-551.225 590.395,-556.142 599.016,-559.724"/>
<polygon fill="midnightblue" stroke="midnightblue" points="597.959,-563.063 608.554,-563.109 600.3,-556.466 597.959,-563.063"/>
</g>
<!-- Node15 -->
<g id="node15" class="node"><title>Node15</title>
<g id="a_node15"><a xlink:href="classRa_1_1Engine_1_1Renderer.html#a0991bff12be739a189f5a173458b6623" target="_top" xlink:title="All the scene rendering magics basically happens here. ">
<polygon fill="white" stroke="black" points="609,-504.5 609,-534.5 725,-534.5 725,-504.5 609,-504.5"/>
<text text-anchor="start" x="617" y="-522.5" font-family="Helvetica,sans-Serif" font-size="10.00">Ra::Engine::Renderer</text>
<text text-anchor="middle" x="667" y="-511.5" font-family="Helvetica,sans-Serif" font-size="10.00">::renderInternal</text>
</a>
</g>
</g>
<!-- Node13&#45;&gt;Node15 -->
<g id="edge14" class="edge"><title>Node13&#45;&gt;Node15</title>
<path fill="none" stroke="midnightblue" d="M524.574,-361.034C530.284,-364.106 535.589,-367.875 540,-372.5 579.313,-413.719 535.24,-455.712 576,-495.5 582.543,-501.887 590.587,-506.624 599.15,-510.128"/>
<polygon fill="midnightblue" stroke="midnightblue" points="598.003,-513.434 608.597,-513.465 600.334,-506.834 598.003,-513.434"/>
</g>
<!-- Node16 -->
<g id="node16" class="node"><title>Node16</title>
<g id="a_node16"><a xlink:href="classRa_1_1Engine_1_1Renderer.html#a75b434244e669f4be43889a820011b79" target="_top" xlink:title="Do all post processing stuff. ">
<polygon fill="white" stroke="black" points="608.5,-455.5 608.5,-485.5 725.5,-485.5 725.5,-455.5 608.5,-455.5"/>
<text text-anchor="start" x="616.5" y="-473.5" font-family="Helvetica,sans-Serif" font-size="10.00">Ra::Engine::Renderer</text>
<text text-anchor="middle" x="667" y="-462.5" font-family="Helvetica,sans-Serif" font-size="10.00">::postProcessInternal</text>
</a>
</g>
</g>
<!-- Node13&#45;&gt;Node16 -->
<g id="edge15" class="edge"><title>Node13&#45;&gt;Node16</title>
<path fill="none" stroke="midnightblue" d="M524.565,-362.169C530.138,-365.029 535.416,-368.438 540,-372.5 567.375,-396.755 547.776,-423.239 576,-446.5 582.637,-451.97 590.401,-456.203 598.538,-459.477"/>
<polygon fill="midnightblue" stroke="midnightblue" points="597.62,-462.865 608.215,-462.897 599.952,-456.265 597.62,-462.865"/>
</g>
<!-- Node17 -->
<g id="node17" class="node"><title>Node17</title>
<g id="a_node17"><a xlink:href="classRa_1_1Engine_1_1Renderer.html#a4bf7ab27df3a206bcb0b759f28dab716" target="_top" xlink:title="Add the debug layer with useful informations. ">
<polygon fill="white" stroke="black" points="609,-406.5 609,-436.5 725,-436.5 725,-406.5 609,-406.5"/>
<text text-anchor="start" x="617" y="-424.5" font-family="Helvetica,sans-Serif" font-size="10.00">Ra::Engine::Renderer</text>
<text text-anchor="middle" x="667" y="-413.5" font-family="Helvetica,sans-Serif" font-size="10.00">::debugInternal</text>
</a>
</g>
</g>
<!-- Node13&#45;&gt;Node17 -->
<g id="edge16" class="edge"><title>Node13&#45;&gt;Node17</title>
<path fill="none" stroke="midnightblue" d="M517.005,-362.522C524.85,-365.482 532.757,-368.825 540,-372.5 557.372,-381.314 558.325,-389.312 576,-397.5 583.302,-400.883 591.166,-403.857 599.098,-406.454"/>
<polygon fill="midnightblue" stroke="midnightblue" points="598.186,-409.835 608.774,-409.437 600.249,-403.146 598.186,-409.835"/>
</g>
<!-- Node18 -->
<g id="node18" class="node"><title>Node18</title>
<g id="a_node18"><a xlink:href="classRa_1_1Engine_1_1Renderer.html#a02f80a1fa78786ad58d68393225aed64" target="_top" xlink:title="Draw the UI data. ">
<polygon fill="white" stroke="black" points="609,-357.5 609,-387.5 725,-387.5 725,-357.5 609,-357.5"/>
<text text-anchor="start" x="617" y="-375.5" font-family="Helvetica,sans-Serif" font-size="10.00">Ra::Engine::Renderer</text>
<text text-anchor="middle" x="667" y="-364.5" font-family="Helvetica,sans-Serif" font-size="10.00">::uiInternal</text>
</a>
</g>
</g>
<!-- Node13&#45;&gt;Node18 -->
<g id="edge17" class="edge"><title>Node13&#45;&gt;Node18</title>
<path fill="none" stroke="midnightblue" d="M524.648,-354.697C547.798,-357.613 574.699,-361.001 598.782,-364.034"/>
<polygon fill="midnightblue" stroke="midnightblue" points="598.553,-367.533 608.912,-365.31 599.427,-360.588 598.553,-367.533"/>
</g>
<!-- Node19 -->
<g id="node19" class="node"><title>Node19</title>
<g id="a_node19"><a xlink:href="classRa_1_1Engine_1_1RenderObjectManager.html#a3375e7e622402ff6781497c3b0610128" target="_top" xlink:title="Get all render objects of the given type, the vector is assumed to be empty whan called. ">
<polygon fill="white" stroke="black" points="576,-308.5 576,-338.5 758,-338.5 758,-308.5 576,-308.5"/>
<text text-anchor="start" x="584" y="-326.5" font-family="Helvetica,sans-Serif" font-size="10.00">Ra::Engine::RenderObject</text>
<text text-anchor="middle" x="667" y="-315.5" font-family="Helvetica,sans-Serif" font-size="10.00">Manager::getRenderObjectsByType</text>
</a>
</g>
</g>
<!-- Node13&#45;&gt;Node19 -->
<g id="edge18" class="edge"><title>Node13&#45;&gt;Node19</title>
<path fill="none" stroke="midnightblue" d="M524.648,-340.59C537.551,-339.03 551.619,-337.329 565.715,-335.625"/>
<polygon fill="midnightblue" stroke="midnightblue" points="566.46,-339.061 575.968,-334.385 565.62,-332.111 566.46,-339.061"/>
</g>
<!-- Node20 -->
<g id="node20" class="node"><title>Node20</title>
<g id="a_node20"><a xlink:href="namespaceOpenMesh.html#a8205f789ce08919bc11c58383574596c" target="_top" xlink:title="OpenMesh::norm">
<polygon fill="white" stroke="black" points="617.5,-270 617.5,-289 716.5,-289 716.5,-270 617.5,-270"/>
<text text-anchor="middle" x="667" y="-277" font-family="Helvetica,sans-Serif" font-size="10.00">OpenMesh::norm</text>
</a>
</g>
</g>
<!-- Node13&#45;&gt;Node20 -->
<g id="edge19" class="edge"><title>Node13&#45;&gt;Node20</title>
<path fill="none" stroke="midnightblue" d="M497.269,-332.412C518.724,-322.016 548.605,-308.505 576,-299.5 586.025,-296.205 596.856,-293.28 607.412,-290.754"/>
<polygon fill="midnightblue" stroke="midnightblue" points="608.452,-294.106 617.414,-288.455 606.884,-287.284 608.452,-294.106"/>
</g>
<!-- Node21 -->
<g id="node21" class="node"><title>Node21</title>
<g id="a_node21"><a xlink:href="classRa_1_1Engine_1_1ShaderProgramManager.html#a5ddf7b2a65b82380204c6bb5da2127d2" target="_top" xlink:title="Get the shader programm corresponding to the given id. ">
<polygon fill="white" stroke="black" points="589,-220.5 589,-250.5 745,-250.5 745,-220.5 589,-220.5"/>
<text text-anchor="start" x="597" y="-238.5" font-family="Helvetica,sans-Serif" font-size="10.00">Ra::Engine::ShaderProgram</text>
<text text-anchor="middle" x="667" y="-227.5" font-family="Helvetica,sans-Serif" font-size="10.00">Manager::getShaderProgram</text>
</a>
</g>
</g>
<!-- Node13&#45;&gt;Node21 -->
<g id="edge20" class="edge"><title>Node13&#45;&gt;Node21</title>
<path fill="none" stroke="midnightblue" d="M482.256,-332.335C501.922,-312.962 538.609,-279.654 576,-260.5 580.573,-258.157 585.394,-256.011 590.329,-254.05"/>
<polygon fill="midnightblue" stroke="midnightblue" points="591.763,-257.251 599.929,-250.5 589.336,-250.685 591.763,-257.251"/>
</g>
<!-- Node22 -->
<g id="node22" class="node"><title>Node22</title>
<g id="a_node22"><a xlink:href="classRa_1_1Engine_1_1ShaderProgram.html#a63faeab38c95dbcb4514a94c1e785890" target="_top" xlink:title="Ra::Engine::ShaderProgram\l::bind">
<polygon fill="white" stroke="black" points="592.5,-171.5 592.5,-201.5 741.5,-201.5 741.5,-171.5 592.5,-171.5"/>
<text text-anchor="start" x="600.5" y="-189.5" font-family="Helvetica,sans-Serif" font-size="10.00">Ra::Engine::ShaderProgram</text>
<text text-anchor="middle" x="667" y="-178.5" font-family="Helvetica,sans-Serif" font-size="10.00">::bind</text>
</a>
</g>
</g>
<!-- Node13&#45;&gt;Node22 -->
<g id="edge21" class="edge"><title>Node13&#45;&gt;Node22</title>
<path fill="none" stroke="midnightblue" d="M485.642,-332.416C501.259,-318.84 523.777,-297.804 540,-276.5 560.007,-250.227 550.074,-231.955 576,-211.5 578.327,-209.664 580.781,-207.962 583.332,-206.386"/>
<polygon fill="midnightblue" stroke="midnightblue" points="585.219,-209.344 592.333,-201.492 581.875,-203.194 585.219,-209.344"/>
</g>
<!-- Node27 -->
<g id="node27" class="node"><title>Node27</title>
<g id="a_node27"><a xlink:href="namespaceRa_1_1Core_1_1Timer.html#a8a58c8045968d22bd4cefa1177fc6205" target="_top" xlink:title="Ra::Core::Timer::getInterval\lMicro">
<polygon fill="white" stroke="black" points="393,-236.5 393,-266.5 540,-266.5 540,-236.5 393,-236.5"/>
<text text-anchor="start" x="401" y="-254.5" font-family="Helvetica,sans-Serif" font-size="10.00">Ra::Core::Timer::getInterval</text>
<text text-anchor="middle" x="466.5" y="-243.5" font-family="Helvetica,sans-Serif" font-size="10.00">Micro</text>
</a>
</g>
</g>
<!-- Node26&#45;&gt;Node27 -->
<g id="edge26" class="edge"><title>Node26&#45;&gt;Node27</title>
<path fill="none" stroke="midnightblue" d="M332.6,-251.5C348.224,-251.5 365.511,-251.5 382.305,-251.5"/>
<polygon fill="midnightblue" stroke="midnightblue" points="382.68,-255 392.68,-251.5 382.679,-248 382.68,-255"/>
</g>
<!-- Node29 -->
<g id="node29" class="node"><title>Node29</title>
<g id="a_node29"><a xlink:href="namespaceRa_1_1Core_1_1StringUtils.html#a63b10a7c14473b4aa762cf00e0432690" target="_top" xlink:title="Writes a formatted print into the given string, similarly to sprintf. ">
<polygon fill="white" stroke="black" points="410,-141.5 410,-171.5 523,-171.5 523,-141.5 410,-141.5"/>
<text text-anchor="start" x="418" y="-159.5" font-family="Helvetica,sans-Serif" font-size="10.00">Ra::Core::StringUtils</text>
<text text-anchor="middle" x="466.5" y="-148.5" font-family="Helvetica,sans-Serif" font-size="10.00">::stringPrintf</text>
</a>
</g>
</g>
<!-- Node28&#45;&gt;Node29 -->
<g id="edge28" class="edge"><title>Node28&#45;&gt;Node29</title>
<path fill="none" stroke="midnightblue" d="M353.624,-167.717C368.905,-166.185 384.8,-164.591 399.649,-163.103"/>
<polygon fill="midnightblue" stroke="midnightblue" points="400.14,-166.571 409.741,-162.091 399.441,-159.606 400.14,-166.571"/>
</g>
<!-- Node31 -->
<g id="node31" class="node"><title>Node31</title>
<g id="a_node31"><a xlink:href="classRa_1_1Gui_1_1Viewer.html#ab3854bf1c656d1f6bf7e12e61251e9dc" target="_top" xlink:title="Write the current frame as an image. Supports either BMP or PNG file names. ">
<polygon fill="white" stroke="black" points="393.5,-79 393.5,-98 539.5,-98 539.5,-79 393.5,-79"/>
<text text-anchor="middle" x="466.5" y="-86" font-family="Helvetica,sans-Serif" font-size="10.00">Ra::Gui::Viewer::grabFrame</text>
</a>
</g>
</g>
<!-- Node28&#45;&gt;Node31 -->
<g id="edge30" class="edge"><title>Node28&#45;&gt;Node31</title>
<path fill="none" stroke="midnightblue" d="M333.257,-160.397C341.339,-157.729 349.458,-154.752 357,-151.5 373.73,-144.287 414.922,-119.602 441.465,-103.357"/>
<polygon fill="midnightblue" stroke="midnightblue" points="443.489,-106.222 450.178,-98.0058 439.825,-100.257 443.489,-106.222"/>
</g>
<!-- Node30 -->
<g id="node30" class="node"><title>Node30</title>
<g id="a_node30"><a xlink:href="namespaceRa_1_1Core_1_1StringUtils.html#ac348328b878bb8f1b1c1a3335ea20c4b" target="_top" xlink:title="Ra::Core::StringUtils\l::stringvPrintf">
<polygon fill="white" stroke="black" points="610.5,-122.5 610.5,-152.5 723.5,-152.5 723.5,-122.5 610.5,-122.5"/>
<text text-anchor="start" x="618.5" y="-140.5" font-family="Helvetica,sans-Serif" font-size="10.00">Ra::Core::StringUtils</text>
<text text-anchor="middle" x="667" y="-129.5" font-family="Helvetica,sans-Serif" font-size="10.00">::stringvPrintf</text>
</a>
</g>
</g>
<!-- Node29&#45;&gt;Node30 -->
<g id="edge29" class="edge"><title>Node29&#45;&gt;Node30</title>
<path fill="none" stroke="midnightblue" d="M523.057,-151.182C547.049,-148.886 575.296,-146.182 600.317,-143.787"/>
<polygon fill="midnightblue" stroke="midnightblue" points="600.835,-147.254 610.456,-142.817 600.168,-140.285 600.835,-147.254"/>
</g>
<!-- Node32 -->
<g id="node32" class="node"><title>Node32</title>
<g id="a_node32"><a xlink:href="classRa_1_1Engine_1_1Renderer.html#a584cc744ee0f15884f5f853209c055cd" target="_top" xlink:title="Ra::Engine::Renderer\l::grabFrame">
<polygon fill="white" stroke="black" points="609,-73.5 609,-103.5 725,-103.5 725,-73.5 609,-73.5"/>
<text text-anchor="start" x="617" y="-91.5" font-family="Helvetica,sans-Serif" font-size="10.00">Ra::Engine::Renderer</text>
<text text-anchor="middle" x="667" y="-80.5" font-family="Helvetica,sans-Serif" font-size="10.00">::grabFrame</text>
</a>
</g>
</g>
<!-- Node31&#45;&gt;Node32 -->
<g id="edge31" class="edge"><title>Node31&#45;&gt;Node32</title>
<path fill="none" stroke="midnightblue" d="M539.725,-88.5C558.987,-88.5 579.72,-88.5 598.706,-88.5"/>
<polygon fill="midnightblue" stroke="midnightblue" points="598.755,-92.0001 608.755,-88.5 598.755,-85.0001 598.755,-92.0001"/>
</g>
<!-- Node37 -->
<g id="node37" class="node"><title>Node37</title>
<g id="a_node37"><a xlink:href="namespaceRa_1_1Core_1_1StringUtils.html#a30480ab8fa5ba3ac2824bf91bcddf7bf" target="_top" xlink:title="Ra::Core::StringUtils\l::getFileExt">
<polygon fill="white" stroke="black" points="610.5,-24.5 610.5,-54.5 723.5,-54.5 723.5,-24.5 610.5,-24.5"/>
<text text-anchor="start" x="618.5" y="-42.5" font-family="Helvetica,sans-Serif" font-size="10.00">Ra::Core::StringUtils</text>
<text text-anchor="middle" x="667" y="-31.5" font-family="Helvetica,sans-Serif" font-size="10.00">::getFileExt</text>
</a>
</g>
</g>
<!-- Node31&#45;&gt;Node37 -->
<g id="edge36" class="edge"><title>Node31&#45;&gt;Node37</title>
<path fill="none" stroke="midnightblue" d="M506.244,-78.936C533.02,-72.3264 569.296,-63.3716 600.513,-55.6656"/>
<polygon fill="midnightblue" stroke="midnightblue" points="601.582,-59.0067 610.452,-53.2121 599.905,-52.2107 601.582,-59.0067"/>
</g>
<!-- Node33 -->
<g id="node33" class="node"><title>Node33</title>
<g id="a_node33"><a xlink:href="classRa_1_1Engine_1_1Renderer.html#a8a68ecdea83da2148ef303176bcffac8" target="_top" xlink:title="Get the currently displayed texture. ">
<polygon fill="white" stroke="black" points="796,-147.5 796,-177.5 912,-177.5 912,-147.5 796,-147.5"/>
<text text-anchor="start" x="804" y="-165.5" font-family="Helvetica,sans-Serif" font-size="10.00">Ra::Engine::Renderer</text>
<text text-anchor="middle" x="854" y="-154.5" font-family="Helvetica,sans-Serif" font-size="10.00">::getDisplayTexture</text>
</a>
</g>
</g>
<!-- Node32&#45;&gt;Node33 -->
<g id="edge32" class="edge"><title>Node32&#45;&gt;Node33</title>
<path fill="none" stroke="midnightblue" d="M725.22,-101.274C736.339,-104.62 747.725,-108.676 758,-113.5 775.633,-121.779 776.874,-129.218 794,-138.5 797.008,-140.13 800.15,-141.717 803.351,-143.247"/>
<polygon fill="midnightblue" stroke="midnightblue" points="801.91,-146.436 812.462,-147.397 804.812,-140.066 801.91,-146.436"/>
</g>
<!-- Node34 -->
<g id="node34" class="node"><title>Node34</title>
<g id="a_node34"><a xlink:href="classRa_1_1Engine_1_1Texture.html#a9ba7fb88d2b2b023ad5e68f2d4f3f1bb" target="_top" xlink:title="Bind the texture to enable its use in a shader. ">
<polygon fill="white" stroke="black" points="800.5,-98.5 800.5,-128.5 907.5,-128.5 907.5,-98.5 800.5,-98.5"/>
<text text-anchor="start" x="808.5" y="-116.5" font-family="Helvetica,sans-Serif" font-size="10.00">Ra::Engine::Texture</text>
<text text-anchor="middle" x="854" y="-105.5" font-family="Helvetica,sans-Serif" font-size="10.00">::bind</text>
</a>
</g>
</g>
<!-- Node32&#45;&gt;Node34 -->
<g id="edge33" class="edge"><title>Node32&#45;&gt;Node34</title>
<path fill="none" stroke="midnightblue" d="M725.016,-96.2048C745.635,-98.9912 769.028,-102.152 790.122,-105.003"/>
<polygon fill="midnightblue" stroke="midnightblue" points="789.892,-108.504 800.271,-106.374 790.83,-101.567 789.892,-108.504"/>
</g>
<!-- Node35 -->
<g id="node35" class="node"><title>Node35</title>
<g id="a_node35"><a xlink:href="classRa_1_1Engine_1_1Texture.html#a5fb64b92e7a9025f6ad315f84eba2dca" target="_top" xlink:title="Ra::Engine::Texture\l::width">
<polygon fill="white" stroke="black" points="800.5,-49.5 800.5,-79.5 907.5,-79.5 907.5,-49.5 800.5,-49.5"/>
<text text-anchor="start" x="808.5" y="-67.5" font-family="Helvetica,sans-Serif" font-size="10.00">Ra::Engine::Texture</text>
<text text-anchor="middle" x="854" y="-56.5" font-family="Helvetica,sans-Serif" font-size="10.00">::width</text>
</a>
</g>
</g>
<!-- Node32&#45;&gt;Node35 -->
<g id="edge34" class="edge"><title>Node32&#45;&gt;Node35</title>
<path fill="none" stroke="midnightblue" d="M725.016,-81.1034C745.635,-78.4284 769.028,-75.3937 790.122,-72.6571"/>
<polygon fill="midnightblue" stroke="midnightblue" points="790.804,-76.0981 800.271,-71.3406 789.904,-69.1562 790.804,-76.0981"/>
</g>
<!-- Node36 -->
<g id="node36" class="node"><title>Node36</title>
<g id="a_node36"><a xlink:href="classRa_1_1Engine_1_1Texture.html#a42c27099c6aa960f13485a4477517296" target="_top" xlink:title="Ra::Engine::Texture\l::height">
<polygon fill="white" stroke="black" points="800.5,-0.5 800.5,-30.5 907.5,-30.5 907.5,-0.5 800.5,-0.5"/>
<text text-anchor="start" x="808.5" y="-18.5" font-family="Helvetica,sans-Serif" font-size="10.00">Ra::Engine::Texture</text>
<text text-anchor="middle" x="854" y="-7.5" font-family="Helvetica,sans-Serif" font-size="10.00">::height</text>
</a>
</g>
</g>
<!-- Node32&#45;&gt;Node36 -->
<g id="edge35" class="edge"><title>Node32&#45;&gt;Node36</title>
<path fill="none" stroke="midnightblue" d="M725.148,-75.571C736.274,-72.2378 747.679,-68.2267 758,-63.5 775.483,-55.4929 777.008,-48.5019 794,-39.5 797.073,-37.8718 800.282,-36.2814 803.547,-34.7441"/>
<polygon fill="midnightblue" stroke="midnightblue" points="805.147,-37.862 812.829,-30.5649 802.273,-31.4792 805.147,-37.862"/>
</g>
</g>
</svg>
