<?xml version="1.0" encoding="UTF-8" standalone="no"?>
<!DOCTYPE svg PUBLIC "-//W3C//DTD SVG 1.1//EN"
 "http://www.w3.org/Graphics/SVG/1.1/DTD/svg11.dtd">
<!-- Generated by graphviz version 2.38.0 (20140413.2041)
 -->
<!-- Title: Ra::Core::CatmullClarkSubdivider Pages: 1 -->
<svg width="182pt" height="259pt"
 viewBox="0.00 0.00 182.00 259.00" xmlns="http://www.w3.org/2000/svg" xmlns:xlink="http://www.w3.org/1999/xlink">
<g id="graph0" class="graph" transform="scale(1 1) rotate(0) translate(4 255)">
<title>Ra::Core::CatmullClarkSubdivider</title>
<polygon fill="white" stroke="none" points="-4,4 -4,-255 178,-255 178,4 -4,4"/>
<!-- Node1 -->
<g id="node1" class="node"><title>Node1</title>
<polygon fill="#bfbfbf" stroke="black" points="0,-0.5 0,-134.5 174,-134.5 174,-0.5 0,-0.5"/>
<text text-anchor="middle" x="87" y="-122.5" font-family="Helvetica,sans-Serif" font-size="10.00">Ra::Core::CatmullClarkSubdivider</text>
<polyline fill="none" stroke="black" points="0,-115.5 174,-115.5 "/>
<text text-anchor="middle" x="87" y="-103.5" font-family="Helvetica,sans-Serif" font-size="10.00"> </text>
<polyline fill="none" stroke="black" points="0,-96.5 174,-96.5 "/>
<text text-anchor="start" x="8" y="-84.5" font-family="Helvetica,sans-Serif" font-size="10.00">+ CatmullClarkSubdivider()</text>
<text text-anchor="start" x="8" y="-73.5" font-family="Helvetica,sans-Serif" font-size="10.00">+ CatmullClarkSubdivider()</text>
<text text-anchor="start" x="8" y="-62.5" font-family="Helvetica,sans-Serif" font-size="10.00">+ ~CatmullClarkSubdivider()</text>
<text text-anchor="start" x="8" y="-51.5" font-family="Helvetica,sans-Serif" font-size="10.00">+ name()</text>
<text text-anchor="start" x="8" y="-40.5" font-family="Helvetica,sans-Serif" font-size="10.00">+ recompute()</text>
<text text-anchor="start" x="8" y="-29.5" font-family="Helvetica,sans-Serif" font-size="10.00"># prepare()</text>
<text text-anchor="start" x="8" y="-18.5" font-family="Helvetica,sans-Serif" font-size="10.00"># cleanup()</text>
<text text-anchor="start" x="8" y="-7.5" font-family="Helvetica,sans-Serif" font-size="10.00"># subdivide()</text>
</g>
<!-- Node2 -->
<g id="node2" class="node"><title>Node2</title>
<polygon fill="white" stroke="#bfbfbf" points="11,-171.5 11,-250.5 163,-250.5 163,-171.5 11,-171.5"/>
<text text-anchor="start" x="19" y="-238.5" font-family="Helvetica,sans-Serif" font-size="10.00">OpenMesh::Subdivider</text>
<text text-anchor="start" x="19" y="-227.5" font-family="Helvetica,sans-Serif" font-size="10.00">::Uniform::SubdividerT</text>
<text text-anchor="middle" x="87" y="-216.5" font-family="Helvetica,sans-Serif" font-size="10.00">&lt; TopologicalMesh, Scalar &gt;</text>
<polyline fill="none" stroke="#bfbfbf" points="11,-209.5 163,-209.5 "/>
<text text-anchor="middle" x="87" y="-197.5" font-family="Helvetica,sans-Serif" font-size="10.00"> </text>
<polyline fill="none" stroke="#bfbfbf" points="11,-190.5 163,-190.5 "/>
<text text-anchor="middle" x="87" y="-178.5" font-family="Helvetica,sans-Serif" font-size="10.00"> </text>
</g>
<!-- Node2&#45;&gt;Node1 -->
<g id="edge1" class="edge"><title>Node2&#45;&gt;Node1</title>
<path fill="none" stroke="midnightblue" d="M87,-161.158C87,-152.59 87,-143.546 87,-134.602"/>
<polygon fill="none" stroke="midnightblue" points="83.5001,-161.334 87,-171.335 90.5001,-161.335 83.5001,-161.334"/>
</g>
</g>
</svg>
