<?xml version="1.0" encoding="UTF-8" standalone="no"?>
<!DOCTYPE svg PUBLIC "-//W3C//DTD SVG 1.1//EN"
 "http://www.w3.org/Graphics/SVG/1.1/DTD/svg11.dtd">
<!-- Generated by graphviz version 2.38.0 (20140413.2041)
 -->
<!-- Title: Ra::Core::Animation::Animation::getPose Pages: 1 -->
<svg width="427pt" height="61pt"
 viewBox="0.00 0.00 427.00 61.00" xmlns="http://www.w3.org/2000/svg" xmlns:xlink="http://www.w3.org/1999/xlink">
<g id="graph0" class="graph" transform="scale(1 1) rotate(0) translate(4 57)">
<title>Ra::Core::Animation::Animation::getPose</title>
<polygon fill="white" stroke="none" points="-4,4 -4,-57 423,-57 423,4 -4,4"/>
<!-- Node1 -->
<g id="node1" class="node"><title>Node1</title>
<polygon fill="#bfbfbf" stroke="black" points="0,-22.5 0,-52.5 116,-52.5 116,-22.5 0,-22.5"/>
<text text-anchor="start" x="8" y="-40.5" font-family="Helvetica,sans-Serif" font-size="10.00">Ra::Core::Animation</text>
<text text-anchor="middle" x="58" y="-29.5" font-family="Helvetica,sans-Serif" font-size="10.00">::Animation::getPose</text>
</g>
<!-- Node2 -->
<g id="node2" class="node"><title>Node2</title>
<g id="a_node2"><a xlink:href="namespaceRa_1_1Core_1_1Algorithm.html#aea294cdb6f4f0d85955bdcccb22886ec" target="_top" xlink:title="Ra::Core::Algorithm::t">
<polygon fill="white" stroke="black" points="300,-28 300,-47 419,-47 419,-28 300,-28"/>
<text text-anchor="middle" x="359.5" y="-35" font-family="Helvetica,sans-Serif" font-size="10.00">Ra::Core::Algorithm::t</text>
</a>
</g>
</g>
<!-- Node1&#45;&gt;Node2 -->
<g id="edge1" class="edge"><title>Node1&#45;&gt;Node2</title>
<path fill="none" stroke="midnightblue" d="M116.045,-39.6309C127.926,-39.9931 140.37,-40.3125 152,-40.5 201.771,-41.3026 214.228,-41.2898 264,-40.5 272.316,-40.368 281.043,-40.1708 289.692,-39.9392"/>
<polygon fill="midnightblue" stroke="midnightblue" points="289.882,-43.4353 299.779,-39.6535 289.684,-36.4381 289.882,-43.4353"/>
</g>
<!-- Node3 -->
<g id="node3" class="node"><title>Node3</title>
<g id="a_node3"><a xlink:href="namespaceRa_1_1Core_1_1Animation.html#aa5e2e11d79318fd2777aaa259f8210db" target="_top" xlink:title="Ra::Core::Animation\l::interpolatePoses">
<polygon fill="white" stroke="black" points="152,-0.5 152,-30.5 264,-30.5 264,-0.5 152,-0.5"/>
<text text-anchor="start" x="160" y="-18.5" font-family="Helvetica,sans-Serif" font-size="10.00">Ra::Core::Animation</text>
<text text-anchor="middle" x="208" y="-7.5" font-family="Helvetica,sans-Serif" font-size="10.00">::interpolatePoses</text>
</a>
</g>
</g>
<!-- Node1&#45;&gt;Node3 -->
<g id="edge2" class="edge"><title>Node1&#45;&gt;Node3</title>
<path fill="none" stroke="midnightblue" d="M116.221,-28.9942C124.64,-27.7428 133.364,-26.4458 141.927,-25.173"/>
<polygon fill="midnightblue" stroke="midnightblue" points="142.5,-28.6263 151.877,-23.6939 141.471,-21.7024 142.5,-28.6263"/>
</g>
<!-- Node3&#45;&gt;Node2 -->
<g id="edge3" class="edge"><title>Node3&#45;&gt;Node2</title>
<path fill="none" stroke="midnightblue" d="M264.244,-23.6295C272.613,-24.8612 281.334,-26.1444 289.944,-27.4115"/>
<polygon fill="midnightblue" stroke="midnightblue" points="289.57,-30.8941 299.973,-28.8874 290.59,-23.9687 289.57,-30.8941"/>
</g>
</g>
</svg>
