<?xml version="1.0" encoding="UTF-8" standalone="no"?>
<!DOCTYPE svg PUBLIC "-//W3C//DTD SVG 1.1//EN"
 "http://www.w3.org/Graphics/SVG/1.1/DTD/svg11.dtd">
<!-- Generated by graphviz version 2.38.0 (20140413.2041)
 -->
<!-- Title: Ra::IO::AssimpHandleDataLoader::loadData Pages: 1 -->
<svg width="729pt" height="617pt"
 viewBox="0.00 0.00 729.00 617.00" xmlns="http://www.w3.org/2000/svg" xmlns:xlink="http://www.w3.org/1999/xlink">
<g id="graph0" class="graph" transform="scale(1 1) rotate(0) translate(4 613)">
<title>Ra::IO::AssimpHandleDataLoader::loadData</title>
<polygon fill="white" stroke="none" points="-4,4 -4,-613 725,-613 725,4 -4,4"/>
<!-- Node1 -->
<g id="node1" class="node"><title>Node1</title>
<polygon fill="#bfbfbf" stroke="black" points="0,-438.5 0,-468.5 143,-468.5 143,-438.5 0,-438.5"/>
<text text-anchor="start" x="8" y="-456.5" font-family="Helvetica,sans-Serif" font-size="10.00">Ra::IO::AssimpHandleData</text>
<text text-anchor="middle" x="71.5" y="-445.5" font-family="Helvetica,sans-Serif" font-size="10.00">Loader::loadData</text>
</g>
<!-- Node2 -->
<g id="node2" class="node"><title>Node2</title>
<g id="a_node2"><a xlink:href="classRa_1_1IO_1_1AssimpHandleDataLoader.html#adb8537824f65bbf5681e3c412865aafa" target="_top" xlink:title="QUERY. ">
<polygon fill="white" stroke="black" points="179,-509.5 179,-539.5 322,-539.5 322,-509.5 179,-509.5"/>
<text text-anchor="start" x="187" y="-527.5" font-family="Helvetica,sans-Serif" font-size="10.00">Ra::IO::AssimpHandleData</text>
<text text-anchor="middle" x="250.5" y="-516.5" font-family="Helvetica,sans-Serif" font-size="10.00">Loader::sceneHasHandle</text>
</a>
</g>
</g>
<!-- Node1&#45;&gt;Node2 -->
<g id="edge1" class="edge"><title>Node1&#45;&gt;Node2</title>
<path fill="none" stroke="midnightblue" d="M110.037,-468.557C137.024,-479.382 173.601,-494.055 202.526,-505.657"/>
<polygon fill="midnightblue" stroke="midnightblue" points="201.433,-508.99 212.017,-509.464 204.039,-502.493 201.433,-508.99"/>
</g>
<!-- Node4 -->
<g id="node4" class="node"><title>Node4</title>
<g id="a_node4"><a xlink:href="classRa_1_1IO_1_1AssimpHandleDataLoader.html#a5658fd82502d36f0d8e9e935a2cb7ae6" target="_top" xlink:title="LOAD. ">
<polygon fill="white" stroke="black" points="179,-367.5 179,-397.5 322,-397.5 322,-367.5 179,-367.5"/>
<text text-anchor="start" x="187" y="-385.5" font-family="Helvetica,sans-Serif" font-size="10.00">Ra::IO::AssimpHandleData</text>
<text text-anchor="middle" x="250.5" y="-374.5" font-family="Helvetica,sans-Serif" font-size="10.00">Loader::loadHandleData</text>
</a>
</g>
</g>
<!-- Node1&#45;&gt;Node4 -->
<g id="edge3" class="edge"><title>Node1&#45;&gt;Node4</title>
<path fill="none" stroke="midnightblue" d="M110.037,-438.443C137.024,-427.618 173.601,-412.945 202.526,-401.343"/>
<polygon fill="midnightblue" stroke="midnightblue" points="204.039,-404.507 212.017,-397.536 201.433,-398.01 204.039,-404.507"/>
</g>
<!-- Node3 -->
<g id="node3" class="node"><title>Node3</title>
<g id="a_node3"><a xlink:href="classRa_1_1IO_1_1AssimpHandleDataLoader.html#a490e0e5bd008f42af1cf31af678bec27" target="_top" xlink:title="Ra::IO::AssimpHandleData\lLoader::sceneHandleSize">
<polygon fill="white" stroke="black" points="381,-578.5 381,-608.5 524,-608.5 524,-578.5 381,-578.5"/>
<text text-anchor="start" x="389" y="-596.5" font-family="Helvetica,sans-Serif" font-size="10.00">Ra::IO::AssimpHandleData</text>
<text text-anchor="middle" x="452.5" y="-585.5" font-family="Helvetica,sans-Serif" font-size="10.00">Loader::sceneHandleSize</text>
</a>
</g>
</g>
<!-- Node2&#45;&gt;Node3 -->
<g id="edge2" class="edge"><title>Node2&#45;&gt;Node3</title>
<path fill="none" stroke="midnightblue" d="M284.65,-539.507C305.455,-548.596 332.988,-560.03 358,-568.5 365.274,-570.963 372.93,-573.344 380.601,-575.593"/>
<polygon fill="midnightblue" stroke="midnightblue" points="379.721,-578.981 390.298,-578.367 381.646,-572.251 379.721,-578.981"/>
</g>
<!-- Node5 -->
<g id="node5" class="node"><title>Node5</title>
<g id="a_node5"><a xlink:href="classRa_1_1IO_1_1AssimpHandleDataLoader.html#a19b7ea207946b06952e15bff627d4887" target="_top" xlink:title="NAME. ">
<polygon fill="white" stroke="black" points="381,-392.5 381,-422.5 524,-422.5 524,-392.5 381,-392.5"/>
<text text-anchor="start" x="389" y="-410.5" font-family="Helvetica,sans-Serif" font-size="10.00">Ra::IO::AssimpHandleData</text>
<text text-anchor="middle" x="452.5" y="-399.5" font-family="Helvetica,sans-Serif" font-size="10.00">Loader::fetchName</text>
</a>
</g>
</g>
<!-- Node4&#45;&gt;Node5 -->
<g id="edge4" class="edge"><title>Node4&#45;&gt;Node5</title>
<path fill="none" stroke="midnightblue" d="M322.013,-391.314C337.845,-393.293 354.761,-395.408 370.967,-397.433"/>
<polygon fill="midnightblue" stroke="midnightblue" points="370.593,-400.914 380.95,-398.681 371.461,-393.968 370.593,-400.914"/>
</g>
<!-- Node8 -->
<g id="node8" class="node"><title>Node8</title>
<g id="a_node8"><a xlink:href="classRa_1_1IO_1_1AssimpHandleDataLoader.html#aba6ae2e060a45d0f6883cdbfa22cbee6" target="_top" xlink:title="TYPE. ">
<polygon fill="white" stroke="black" points="381,-441.5 381,-471.5 524,-471.5 524,-441.5 381,-441.5"/>
<text text-anchor="start" x="389" y="-459.5" font-family="Helvetica,sans-Serif" font-size="10.00">Ra::IO::AssimpHandleData</text>
<text text-anchor="middle" x="452.5" y="-448.5" font-family="Helvetica,sans-Serif" font-size="10.00">Loader::fetchType</text>
</a>
</g>
</g>
<!-- Node4&#45;&gt;Node8 -->
<g id="edge7" class="edge"><title>Node4&#45;&gt;Node8</title>
<path fill="none" stroke="midnightblue" d="M280.774,-397.609C301.859,-408.082 331.197,-421.83 358,-431.5 364.9,-433.989 372.166,-436.357 379.472,-438.571"/>
<polygon fill="midnightblue" stroke="midnightblue" points="378.849,-442.036 389.43,-441.494 380.82,-435.319 378.849,-442.036"/>
</g>
<!-- Node10 -->
<g id="node10" class="node"><title>Node10</title>
<g id="a_node10"><a xlink:href="classRa_1_1IO_1_1AssimpHandleDataLoader.html#a46e6b0b9e109dd74e6bd619592678545" target="_top" xlink:title="Ra::IO::AssimpHandleData\lLoader::loadHandleComponentData">
<polygon fill="white" stroke="black" points="358,-294.5 358,-324.5 547,-324.5 547,-294.5 358,-294.5"/>
<text text-anchor="start" x="366" y="-312.5" font-family="Helvetica,sans-Serif" font-size="10.00">Ra::IO::AssimpHandleData</text>
<text text-anchor="middle" x="452.5" y="-301.5" font-family="Helvetica,sans-Serif" font-size="10.00">Loader::loadHandleComponentData</text>
</a>
</g>
</g>
<!-- Node4&#45;&gt;Node10 -->
<g id="edge9" class="edge"><title>Node4&#45;&gt;Node10</title>
<path fill="none" stroke="midnightblue" d="M280.744,-367.309C301.815,-356.796 331.149,-343.036 358,-333.5 364.011,-331.365 370.302,-329.335 376.656,-327.425"/>
<polygon fill="midnightblue" stroke="midnightblue" points="378.031,-330.67 386.662,-324.525 376.083,-323.947 378.031,-330.67"/>
</g>
<!-- Node14 -->
<g id="node14" class="node"><title>Node14</title>
<g id="a_node14"><a xlink:href="classRa_1_1IO_1_1AssimpHandleDataLoader.html#af3185635871638d8bc19e85d0c978f80" target="_top" xlink:title="Ra::IO::AssimpHandleData\lLoader::loadHandleTopologyData">
<polygon fill="white" stroke="black" points="365.5,-172.5 365.5,-202.5 539.5,-202.5 539.5,-172.5 365.5,-172.5"/>
<text text-anchor="start" x="373.5" y="-190.5" font-family="Helvetica,sans-Serif" font-size="10.00">Ra::IO::AssimpHandleData</text>
<text text-anchor="middle" x="452.5" y="-179.5" font-family="Helvetica,sans-Serif" font-size="10.00">Loader::loadHandleTopologyData</text>
</a>
</g>
</g>
<!-- Node4&#45;&gt;Node14 -->
<g id="edge14" class="edge"><title>Node4&#45;&gt;Node14</title>
<path fill="none" stroke="midnightblue" d="M267.194,-367.199C302.317,-332.953 387.392,-250.005 428.504,-209.922"/>
<polygon fill="midnightblue" stroke="midnightblue" points="431.163,-212.217 435.879,-202.73 426.276,-207.205 431.163,-212.217"/>
</g>
<!-- Node19 -->
<g id="node19" class="node"><title>Node19</title>
<g id="a_node19"><a xlink:href="classRa_1_1IO_1_1AssimpHandleDataLoader.html#a6deb78de76d1650cbb521a7c9c85a86e" target="_top" xlink:title="VERTEX SIZE. ">
<polygon fill="white" stroke="black" points="381,-98.5 381,-128.5 524,-128.5 524,-98.5 381,-98.5"/>
<text text-anchor="start" x="389" y="-116.5" font-family="Helvetica,sans-Serif" font-size="10.00">Ra::IO::AssimpHandleData</text>
<text text-anchor="middle" x="452.5" y="-105.5" font-family="Helvetica,sans-Serif" font-size="10.00">Loader::fetchVertexSize</text>
</a>
</g>
</g>
<!-- Node4&#45;&gt;Node19 -->
<g id="edge20" class="edge"><title>Node4&#45;&gt;Node19</title>
<path fill="none" stroke="midnightblue" d="M255.29,-367.224C265.592,-328.471 297.476,-224.984 358,-162.5 369.826,-150.291 385.356,-140.496 400.354,-132.97"/>
<polygon fill="midnightblue" stroke="midnightblue" points="402.061,-136.034 409.586,-128.575 399.052,-129.713 402.061,-136.034"/>
</g>
<!-- Node21 -->
<g id="node21" class="node"><title>Node21</title>
<g id="a_node21"><a xlink:href="classRa_1_1Asset_1_1HandleData.html#adeb89ae26f34f0878a089ed7ecd64e24" target="_top" xlink:title="Ra::Asset::HandleData\l::getComponentData">
<polygon fill="white" stroke="black" points="390,-49.5 390,-79.5 515,-79.5 515,-49.5 390,-49.5"/>
<text text-anchor="start" x="398" y="-67.5" font-family="Helvetica,sans-Serif" font-size="10.00">Ra::Asset::HandleData</text>
<text text-anchor="middle" x="452.5" y="-56.5" font-family="Helvetica,sans-Serif" font-size="10.00">::getComponentData</text>
</a>
</g>
</g>
<!-- Node4&#45;&gt;Node21 -->
<g id="edge24" class="edge"><title>Node4&#45;&gt;Node21</title>
<path fill="none" stroke="midnightblue" d="M252.237,-367.324C255.436,-318.857 272.195,-166.417 358,-88.5 364.49,-82.6063 372.232,-78.1191 380.444,-74.7098"/>
<polygon fill="midnightblue" stroke="midnightblue" points="381.658,-77.9926 389.872,-71.3009 379.278,-71.4096 381.658,-77.9926"/>
</g>
<!-- Node22 -->
<g id="node22" class="node"><title>Node22</title>
<g id="a_node22"><a xlink:href="namespaceRa_1_1Core_1_1Algorithm.html#aea294cdb6f4f0d85955bdcccb22886ec" target="_top" xlink:title="Ra::Core::Algorithm::t">
<polygon fill="white" stroke="black" points="393,-540 393,-559 512,-559 512,-540 393,-540"/>
<text text-anchor="middle" x="452.5" y="-547" font-family="Helvetica,sans-Serif" font-size="10.00">Ra::Core::Algorithm::t</text>
</a>
</g>
</g>
<!-- Node4&#45;&gt;Node22 -->
<g id="edge25" class="edge"><title>Node4&#45;&gt;Node22</title>
<path fill="none" stroke="midnightblue" d="M257.721,-397.529C271.145,-427.959 305.891,-496.823 358,-530.5 365.48,-535.334 373.942,-538.976 382.644,-541.713"/>
<polygon fill="midnightblue" stroke="midnightblue" points="381.961,-545.155 392.531,-544.433 383.818,-538.406 381.961,-545.155"/>
</g>
<!-- Node23 -->
<g id="node23" class="node"><title>Node23</title>
<g id="a_node23"><a xlink:href="classRa_1_1Asset_1_1HandleData.html#a8d76fcc29440acb7fe3489f4c0fd9914" target="_top" xlink:title="DEBUG. ">
<polygon fill="white" stroke="black" points="390,-490.5 390,-520.5 515,-520.5 515,-490.5 390,-490.5"/>
<text text-anchor="start" x="398" y="-508.5" font-family="Helvetica,sans-Serif" font-size="10.00">Ra::Asset::HandleData</text>
<text text-anchor="middle" x="452.5" y="-497.5" font-family="Helvetica,sans-Serif" font-size="10.00">::displayInfo</text>
</a>
</g>
</g>
<!-- Node4&#45;&gt;Node23 -->
<g id="edge26" class="edge"><title>Node4&#45;&gt;Node23</title>
<path fill="none" stroke="midnightblue" d="M263.543,-397.734C281.672,-419.619 318.125,-459.711 358,-481.5 365.005,-485.328 372.64,-488.562 380.429,-491.291"/>
<polygon fill="midnightblue" stroke="midnightblue" points="379.381,-494.631 389.973,-494.375 381.534,-487.97 379.381,-494.631"/>
</g>
<!-- Node24 -->
<g id="node24" class="node"><title>Node24</title>
<g id="a_node24"><a xlink:href="classRa_1_1IO_1_1AssimpHandleDataLoader.html#acc34e56d68b6b1094a993eaa8730cdb2" target="_top" xlink:title="Ra::IO::AssimpHandleData\lLoader::loadHandleFrame">
<polygon fill="white" stroke="black" points="381,-343.5 381,-373.5 524,-373.5 524,-343.5 381,-343.5"/>
<text text-anchor="start" x="389" y="-361.5" font-family="Helvetica,sans-Serif" font-size="10.00">Ra::IO::AssimpHandleData</text>
<text text-anchor="middle" x="452.5" y="-350.5" font-family="Helvetica,sans-Serif" font-size="10.00">Loader::loadHandleFrame</text>
</a>
</g>
</g>
<!-- Node4&#45;&gt;Node24 -->
<g id="edge27" class="edge"><title>Node4&#45;&gt;Node24</title>
<path fill="none" stroke="midnightblue" d="M322.013,-374.038C337.845,-372.139 354.761,-370.109 370.967,-368.164"/>
<polygon fill="midnightblue" stroke="midnightblue" points="371.438,-371.633 380.95,-366.966 370.604,-364.682 371.438,-371.633"/>
</g>
<!-- Node6 -->
<g id="node6" class="node"><title>Node6</title>
<g id="a_node6"><a xlink:href="namespaceRa_1_1IO.html#aef6c50424873964fcea0008be55d4a34" target="_top" xlink:title="Ra::IO::assimpToCore">
<polygon fill="white" stroke="black" points="593.5,-393 593.5,-412 710.5,-412 710.5,-393 593.5,-393"/>
<text text-anchor="middle" x="652" y="-400" font-family="Helvetica,sans-Serif" font-size="10.00">Ra::IO::assimpToCore</text>
</a>
</g>
</g>
<!-- Node5&#45;&gt;Node6 -->
<g id="edge5" class="edge"><title>Node5&#45;&gt;Node6</title>
<path fill="none" stroke="midnightblue" d="M524.244,-405.709C543.478,-405.222 564.257,-404.696 583.316,-404.214"/>
<polygon fill="midnightblue" stroke="midnightblue" points="583.499,-407.71 593.407,-403.958 583.322,-400.712 583.499,-407.71"/>
</g>
<!-- Node7 -->
<g id="node7" class="node"><title>Node7</title>
<g id="a_node7"><a xlink:href="classRa_1_1Asset_1_1HandleData.html#a3bfb8067f397b53e3d45d490e8ebfc20" target="_top" xlink:title="NAME. ">
<polygon fill="white" stroke="black" points="589.5,-431.5 589.5,-461.5 714.5,-461.5 714.5,-431.5 589.5,-431.5"/>
<text text-anchor="start" x="597.5" y="-449.5" font-family="Helvetica,sans-Serif" font-size="10.00">Ra::Asset::HandleData</text>
<text text-anchor="middle" x="652" y="-438.5" font-family="Helvetica,sans-Serif" font-size="10.00">::setName</text>
</a>
</g>
</g>
<!-- Node5&#45;&gt;Node7 -->
<g id="edge6" class="edge"><title>Node5&#45;&gt;Node7</title>
<path fill="none" stroke="midnightblue" d="M524.244,-421.47C542.175,-425.011 561.449,-428.817 579.421,-432.365"/>
<polygon fill="midnightblue" stroke="midnightblue" points="578.766,-435.804 589.255,-434.307 580.122,-428.936 578.766,-435.804"/>
</g>
<!-- Node9 -->
<g id="node9" class="node"><title>Node9</title>
<g id="a_node9"><a xlink:href="classRa_1_1Asset_1_1HandleData.html#a41fe733034adf1db3901419f859bbffd" target="_top" xlink:title="Ra::Asset::HandleData\l::setType">
<polygon fill="white" stroke="black" points="589.5,-480.5 589.5,-510.5 714.5,-510.5 714.5,-480.5 589.5,-480.5"/>
<text text-anchor="start" x="597.5" y="-498.5" font-family="Helvetica,sans-Serif" font-size="10.00">Ra::Asset::HandleData</text>
<text text-anchor="middle" x="652" y="-487.5" font-family="Helvetica,sans-Serif" font-size="10.00">::setType</text>
</a>
</g>
</g>
<!-- Node8&#45;&gt;Node9 -->
<g id="edge8" class="edge"><title>Node8&#45;&gt;Node9</title>
<path fill="none" stroke="midnightblue" d="M524.244,-470.47C542.175,-474.011 561.449,-477.817 579.421,-481.365"/>
<polygon fill="midnightblue" stroke="midnightblue" points="578.766,-484.804 589.255,-483.307 580.122,-477.936 578.766,-484.804"/>
</g>
<!-- Node10&#45;&gt;Node6 -->
<g id="edge11" class="edge"><title>Node10&#45;&gt;Node6</title>
<path fill="none" stroke="midnightblue" d="M530.425,-324.519C536.256,-327.059 541.862,-330.028 547,-333.5 569.391,-348.629 560.875,-366.984 583,-382.5 586.514,-384.964 590.332,-387.128 594.307,-389.028"/>
<polygon fill="midnightblue" stroke="midnightblue" points="593.219,-392.367 603.795,-392.998 595.921,-385.909 593.219,-392.367"/>
</g>
<!-- Node11 -->
<g id="node11" class="node"><title>Node11</title>
<g id="a_node11"><a xlink:href="classRa_1_1Asset_1_1HandleData.html#ace178af654bd9751e7cc0122cf7e7a34" target="_top" xlink:title="Ra::Asset::HandleData\l::needEndNodes">
<polygon fill="white" stroke="black" points="589.5,-245.5 589.5,-275.5 714.5,-275.5 714.5,-245.5 589.5,-245.5"/>
<text text-anchor="start" x="597.5" y="-263.5" font-family="Helvetica,sans-Serif" font-size="10.00">Ra::Asset::HandleData</text>
<text text-anchor="middle" x="652" y="-252.5" font-family="Helvetica,sans-Serif" font-size="10.00">::needEndNodes</text>
</a>
</g>
</g>
<!-- Node10&#45;&gt;Node11 -->
<g id="edge10" class="edge"><title>Node10&#45;&gt;Node11</title>
<path fill="none" stroke="midnightblue" d="M514.099,-294.465C535.142,-289.245 558.916,-283.346 580.676,-277.947"/>
<polygon fill="midnightblue" stroke="midnightblue" points="581.653,-281.311 590.516,-275.506 579.967,-274.517 581.653,-281.311"/>
</g>
<!-- Node12 -->
<g id="node12" class="node"><title>Node12</title>
<g id="a_node12"><a xlink:href="classRa_1_1Asset_1_1HandleData.html#a5ba6a5c751773be688faae15b092359d" target="_top" xlink:title="Ra::Asset::HandleData\l::setComponents">
<polygon fill="white" stroke="black" points="589.5,-343.5 589.5,-373.5 714.5,-373.5 714.5,-343.5 589.5,-343.5"/>
<text text-anchor="start" x="597.5" y="-361.5" font-family="Helvetica,sans-Serif" font-size="10.00">Ra::Asset::HandleData</text>
<text text-anchor="middle" x="652" y="-350.5" font-family="Helvetica,sans-Serif" font-size="10.00">::setComponents</text>
</a>
</g>
</g>
<!-- Node10&#45;&gt;Node12 -->
<g id="edge12" class="edge"><title>Node10&#45;&gt;Node12</title>
<path fill="none" stroke="midnightblue" d="M514.099,-324.535C535.142,-329.755 558.916,-335.654 580.676,-341.053"/>
<polygon fill="midnightblue" stroke="midnightblue" points="579.967,-344.483 590.516,-343.494 581.653,-337.689 579.967,-344.483"/>
</g>
<!-- Node13 -->
<g id="node13" class="node"><title>Node13</title>
<g id="a_node13"><a xlink:href="classRa_1_1Asset_1_1HandleData.html#a713b25fdea78737ec5e664a6aabc9549" target="_top" xlink:title="NAME TABLE. ">
<polygon fill="white" stroke="black" points="589.5,-294.5 589.5,-324.5 714.5,-324.5 714.5,-294.5 589.5,-294.5"/>
<text text-anchor="start" x="597.5" y="-312.5" font-family="Helvetica,sans-Serif" font-size="10.00">Ra::Asset::HandleData</text>
<text text-anchor="middle" x="652" y="-301.5" font-family="Helvetica,sans-Serif" font-size="10.00">::setNameTable</text>
</a>
</g>
</g>
<!-- Node10&#45;&gt;Node13 -->
<g id="edge13" class="edge"><title>Node10&#45;&gt;Node13</title>
<path fill="none" stroke="midnightblue" d="M547.045,-309.5C557.812,-309.5 568.663,-309.5 579.082,-309.5"/>
<polygon fill="midnightblue" stroke="midnightblue" points="579.339,-313 589.339,-309.5 579.339,-306 579.339,-313"/>
</g>
<!-- Node14&#45;&gt;Node6 -->
<g id="edge17" class="edge"><title>Node14&#45;&gt;Node6</title>
<path fill="none" stroke="midnightblue" d="M472.027,-202.516C492.795,-220.203 526.267,-251.395 547,-284.5 571.63,-323.825 549.125,-350.79 583,-382.5 585.263,-384.618 587.739,-386.513 590.363,-388.208"/>
<polygon fill="midnightblue" stroke="midnightblue" points="588.715,-391.296 599.177,-392.971 592.043,-385.138 588.715,-391.296"/>
</g>
<!-- Node15 -->
<g id="node15" class="node"><title>Node15</title>
<g id="a_node15"><a xlink:href="classRa_1_1Asset_1_1HandleData.html#aac2741c32466647b58b76e8310d90ecb" target="_top" xlink:title="DATA. ">
<polygon fill="white" stroke="black" points="583,-98.5 583,-128.5 721,-128.5 721,-98.5 583,-98.5"/>
<text text-anchor="start" x="591" y="-116.5" font-family="Helvetica,sans-Serif" font-size="10.00">Ra::Asset::HandleData</text>
<text text-anchor="middle" x="652" y="-105.5" font-family="Helvetica,sans-Serif" font-size="10.00">::getComponentDataSize</text>
</a>
</g>
</g>
<!-- Node14&#45;&gt;Node15 -->
<g id="edge15" class="edge"><title>Node14&#45;&gt;Node15</title>
<path fill="none" stroke="midnightblue" d="M491.638,-172.439C517.373,-162.358 552.142,-148.9 583,-137.5 587.866,-135.702 592.939,-133.858 598.023,-132.029"/>
<polygon fill="midnightblue" stroke="midnightblue" points="599.526,-135.208 607.765,-128.546 597.17,-128.617 599.526,-135.208"/>
</g>
<!-- Node16 -->
<g id="node16" class="node"><title>Node16</title>
<g id="a_node16"><a xlink:href="classRa_1_1Asset_1_1HandleData.html#af6b0000a98985534b50a9817de5bfd58" target="_top" xlink:title="Ra::Asset::HandleData\l::getComponent">
<polygon fill="white" stroke="black" points="589.5,-49.5 589.5,-79.5 714.5,-79.5 714.5,-49.5 589.5,-49.5"/>
<text text-anchor="start" x="597.5" y="-67.5" font-family="Helvetica,sans-Serif" font-size="10.00">Ra::Asset::HandleData</text>
<text text-anchor="middle" x="652" y="-56.5" font-family="Helvetica,sans-Serif" font-size="10.00">::getComponent</text>
</a>
</g>
</g>
<!-- Node14&#45;&gt;Node16 -->
<g id="edge16" class="edge"><title>Node14&#45;&gt;Node16</title>
<path fill="none" stroke="midnightblue" d="M490.494,-172.409C508.72,-163.858 530.308,-151.967 547,-137.5 567.421,-119.801 561.296,-104.6 583,-88.5 584.879,-87.1062 586.846,-85.7879 588.878,-84.5417"/>
<polygon fill="midnightblue" stroke="midnightblue" points="591.009,-87.3681 598.135,-79.5275 587.675,-81.2131 591.009,-87.3681"/>
</g>
<!-- Node17 -->
<g id="node17" class="node"><title>Node17</title>
<g id="a_node17"><a xlink:href="classRa_1_1Asset_1_1HandleData.html#aaee6cb0cd26f0745e444ac7bd0412454" target="_top" xlink:title="Ra::Asset::HandleData\l::getIndexOf">
<polygon fill="white" stroke="black" points="589.5,-147.5 589.5,-177.5 714.5,-177.5 714.5,-147.5 589.5,-147.5"/>
<text text-anchor="start" x="597.5" y="-165.5" font-family="Helvetica,sans-Serif" font-size="10.00">Ra::Asset::HandleData</text>
<text text-anchor="middle" x="652" y="-154.5" font-family="Helvetica,sans-Serif" font-size="10.00">::getIndexOf</text>
</a>
</g>
</g>
<!-- Node14&#45;&gt;Node17 -->
<g id="edge18" class="edge"><title>Node14&#45;&gt;Node17</title>
<path fill="none" stroke="midnightblue" d="M539.552,-176.607C552.758,-174.936 566.271,-173.225 579.127,-171.598"/>
<polygon fill="midnightblue" stroke="midnightblue" points="579.797,-175.041 589.278,-170.313 578.917,-168.097 579.797,-175.041"/>
</g>
<!-- Node18 -->
<g id="node18" class="node"><title>Node18</title>
<g id="a_node18"><a xlink:href="classRa_1_1Asset_1_1HandleData.html#ad54e901fb20565f1006b721ad17c375a" target="_top" xlink:title="Ra::Asset::HandleData\l::setEdges">
<polygon fill="white" stroke="black" points="589.5,-196.5 589.5,-226.5 714.5,-226.5 714.5,-196.5 589.5,-196.5"/>
<text text-anchor="start" x="597.5" y="-214.5" font-family="Helvetica,sans-Serif" font-size="10.00">Ra::Asset::HandleData</text>
<text text-anchor="middle" x="652" y="-203.5" font-family="Helvetica,sans-Serif" font-size="10.00">::setEdges</text>
</a>
</g>
</g>
<!-- Node14&#45;&gt;Node18 -->
<g id="edge19" class="edge"><title>Node14&#45;&gt;Node18</title>
<path fill="none" stroke="midnightblue" d="M539.552,-197.957C552.758,-199.562 566.271,-201.204 579.127,-202.766"/>
<polygon fill="midnightblue" stroke="midnightblue" points="578.929,-206.268 589.278,-204 579.773,-199.319 578.929,-206.268"/>
</g>
<!-- Node19&#45;&gt;Node15 -->
<g id="edge21" class="edge"><title>Node19&#45;&gt;Node15</title>
<path fill="none" stroke="midnightblue" d="M524.244,-113.5C539.861,-113.5 556.497,-113.5 572.404,-113.5"/>
<polygon fill="midnightblue" stroke="midnightblue" points="572.734,-117 582.734,-113.5 572.734,-110 572.734,-117"/>
</g>
<!-- Node19&#45;&gt;Node16 -->
<g id="edge22" class="edge"><title>Node19&#45;&gt;Node16</title>
<path fill="none" stroke="midnightblue" d="M514.099,-98.4654C535.142,-93.2446 558.916,-87.3463 580.676,-81.9474"/>
<polygon fill="midnightblue" stroke="midnightblue" points="581.653,-85.3113 590.516,-79.5062 579.967,-78.5173 581.653,-85.3113"/>
</g>
<!-- Node20 -->
<g id="node20" class="node"><title>Node20</title>
<g id="a_node20"><a xlink:href="classRa_1_1Asset_1_1HandleData.html#ade0d6afbabf40955b6d6b5c5214336e9" target="_top" xlink:title="Ra::Asset::HandleData\l::setVertexSize">
<polygon fill="white" stroke="black" points="589.5,-0.5 589.5,-30.5 714.5,-30.5 714.5,-0.5 589.5,-0.5"/>
<text text-anchor="start" x="597.5" y="-18.5" font-family="Helvetica,sans-Serif" font-size="10.00">Ra::Asset::HandleData</text>
<text text-anchor="middle" x="652" y="-7.5" font-family="Helvetica,sans-Serif" font-size="10.00">::setVertexSize</text>
</a>
</g>
</g>
<!-- Node19&#45;&gt;Node20 -->
<g id="edge23" class="edge"><title>Node19&#45;&gt;Node20</title>
<path fill="none" stroke="midnightblue" d="M524.216,-100.193C532.268,-97.0795 540.062,-93.2384 547,-88.5 569.315,-73.2589 561.296,-55.5999 583,-39.5 584.879,-38.1062 586.846,-36.7879 588.878,-35.5417"/>
<polygon fill="midnightblue" stroke="midnightblue" points="591.009,-38.3681 598.135,-30.5275 587.675,-32.2131 591.009,-38.3681"/>
</g>
<!-- Node24&#45;&gt;Node6 -->
<g id="edge28" class="edge"><title>Node24&#45;&gt;Node6</title>
<path fill="none" stroke="midnightblue" d="M520.916,-373.519C546.24,-379.161 574.632,-385.486 598.414,-390.785"/>
<polygon fill="midnightblue" stroke="midnightblue" points="597.78,-394.229 608.302,-392.988 599.303,-387.397 597.78,-394.229"/>
</g>
</g>
</svg>
