<?xml version="1.0" encoding="UTF-8" standalone="no"?>
<!DOCTYPE svg PUBLIC "-//W3C//DTD SVG 1.1//EN"
 "http://www.w3.org/Graphics/SVG/1.1/DTD/svg11.dtd">
<!-- Generated by graphviz version 2.38.0 (20140413.2041)
 -->
<!-- Title: Ra::IO::AssimpGeometryDataLoader::fetchTextureCoordinates Pages: 1 -->
<svg width="355pt" height="127pt"
 viewBox="0.00 0.00 355.00 126.50" xmlns="http://www.w3.org/2000/svg" xmlns:xlink="http://www.w3.org/1999/xlink">
<g id="graph0" class="graph" transform="scale(1 1) rotate(0) translate(4 122.5)">
<title>Ra::IO::AssimpGeometryDataLoader::fetchTextureCoordinates</title>
<polygon fill="white" stroke="none" points="-4,4 -4,-122.5 351,-122.5 351,4 -4,4"/>
<!-- Node1 -->
<g id="node1" class="node"><title>Node1</title>
<polygon fill="#bfbfbf" stroke="black" points="0,-39 0,-69 172,-69 172,-39 0,-39"/>
<text text-anchor="start" x="8" y="-57" font-family="Helvetica,sans-Serif" font-size="10.00">Ra::IO::AssimpGeometryData</text>
<text text-anchor="middle" x="86" y="-46" font-family="Helvetica,sans-Serif" font-size="10.00">Loader::fetchTextureCoordinates</text>
</g>
<!-- Node2 -->
<g id="node2" class="node"><title>Node2</title>
<g id="a_node2"><a xlink:href="classRa_1_1Asset_1_1GeometryData.html#a55dc4072ed4026280b5e124f35d5b550" target="_top" xlink:title="Return the list of vertex texture coordinates. ">
<polygon fill="white" stroke="black" points="208,-88 208,-118 347,-118 347,-88 208,-88"/>
<text text-anchor="start" x="216" y="-106" font-family="Helvetica,sans-Serif" font-size="10.00">Ra::Asset::GeometryData</text>
<text text-anchor="middle" x="277.5" y="-95" font-family="Helvetica,sans-Serif" font-size="10.00">::getTexCoords</text>
</a>
</g>
</g>
<!-- Node1&#45;&gt;Node2 -->
<g id="edge1" class="edge"><title>Node1&#45;&gt;Node2</title>
<path fill="none" stroke="midnightblue" d="M145.144,-69.0346C165.244,-74.2318 187.94,-80.1006 208.743,-85.4796"/>
<polygon fill="midnightblue" stroke="midnightblue" points="207.908,-88.8789 218.466,-87.9938 209.661,-82.1018 207.908,-88.8789"/>
</g>
<!-- Node3 -->
<g id="node3" class="node"><title>Node3</title>
<g id="a_node3"><a xlink:href="classRa_1_1Asset_1_1GeometryData.html#ad31c0f120d5e88c40afefa79c29ae28a" target="_top" xlink:title="Return the number of vertices. ">
<polygon fill="white" stroke="black" points="208,-39 208,-69 347,-69 347,-39 208,-39"/>
<text text-anchor="start" x="216" y="-57" font-family="Helvetica,sans-Serif" font-size="10.00">Ra::Asset::GeometryData</text>
<text text-anchor="middle" x="277.5" y="-46" font-family="Helvetica,sans-Serif" font-size="10.00">::getVerticesSize</text>
</a>
</g>
</g>
<!-- Node1&#45;&gt;Node3 -->
<g id="edge2" class="edge"><title>Node1&#45;&gt;Node3</title>
<path fill="none" stroke="midnightblue" d="M172.05,-54C180.584,-54 189.224,-54 197.689,-54"/>
<polygon fill="midnightblue" stroke="midnightblue" points="197.909,-57.5001 207.909,-54 197.909,-50.5001 197.909,-57.5001"/>
</g>
<!-- Node4 -->
<g id="node4" class="node"><title>Node4</title>
<g id="a_node4"><a xlink:href="namespaceRa_1_1IO.html#aef6c50424873964fcea0008be55d4a34" target="_top" xlink:title="Ra::IO::assimpToCore">
<polygon fill="white" stroke="black" points="219,-0.5 219,-19.5 336,-19.5 336,-0.5 219,-0.5"/>
<text text-anchor="middle" x="277.5" y="-7.5" font-family="Helvetica,sans-Serif" font-size="10.00">Ra::IO::assimpToCore</text>
</a>
</g>
</g>
<!-- Node1&#45;&gt;Node4 -->
<g id="edge3" class="edge"><title>Node1&#45;&gt;Node4</title>
<path fill="none" stroke="midnightblue" d="M151.685,-38.9808C175.875,-33.364 202.982,-27.07 225.739,-21.7863"/>
<polygon fill="midnightblue" stroke="midnightblue" points="226.583,-25.1835 235.532,-19.5124 224.999,-18.3649 226.583,-25.1835"/>
</g>
</g>
</svg>
