<?xml version="1.0" encoding="UTF-8" standalone="no"?>
<!DOCTYPE svg PUBLIC "-//W3C//DTD SVG 1.1//EN"
 "http://www.w3.org/Graphics/SVG/1.1/DTD/svg11.dtd">
<!-- Generated by graphviz version 2.38.0 (20140413.2041)
 -->
<!-- Title: Ra::Core::CatmullClarkSubdivider::subdivide Pages: 1 -->
<svg width="740pt" height="754pt"
 viewBox="0.00 0.00 740.00 754.00" xmlns="http://www.w3.org/2000/svg" xmlns:xlink="http://www.w3.org/1999/xlink">
<g id="graph0" class="graph" transform="scale(1 1) rotate(0) translate(4 750)">
<title>Ra::Core::CatmullClarkSubdivider::subdivide</title>
<polygon fill="white" stroke="none" points="-4,4 -4,-750 736,-750 736,4 -4,4"/>
<!-- Node1 -->
<g id="node1" class="node"><title>Node1</title>
<polygon fill="#bfbfbf" stroke="black" points="0,-382.5 0,-412.5 174,-412.5 174,-382.5 0,-382.5"/>
<text text-anchor="start" x="8" y="-400.5" font-family="Helvetica,sans-Serif" font-size="10.00">Ra::Core::CatmullClarkSubdivider</text>
<text text-anchor="middle" x="87" y="-389.5" font-family="Helvetica,sans-Serif" font-size="10.00">::subdivide</text>
</g>
<!-- Node2 -->
<g id="node2" class="node"><title>Node2</title>
<g id="a_node2"><a xlink:href="namespaceRa_1_1Engine_1_1DrawPrimitives.html#a2eff9774611ef4e9cdfb2ac969182123" target="_top" xlink:title="Displays given point shown as the crossing of 3 lines of length &#39;scale&#39;. ">
<polygon fill="white" stroke="black" points="215,-715.5 215,-745.5 358,-745.5 358,-715.5 215,-715.5"/>
<text text-anchor="start" x="223" y="-733.5" font-family="Helvetica,sans-Serif" font-size="10.00">Ra::Engine::DrawPrimitives</text>
<text text-anchor="middle" x="286.5" y="-722.5" font-family="Helvetica,sans-Serif" font-size="10.00">::Point</text>
</a>
</g>
</g>
<!-- Node1&#45;&gt;Node2 -->
<g id="edge1" class="edge"><title>Node1&#45;&gt;Node2</title>
<path fill="none" stroke="midnightblue" d="M89.8762,-412.718C96.6552,-461.394 124.194,-615.085 210,-700.5 213.716,-704.199 217.944,-707.456 222.458,-710.322"/>
<polygon fill="midnightblue" stroke="midnightblue" points="220.999,-713.516 231.431,-715.364 224.428,-707.414 220.999,-713.516"/>
</g>
<!-- Node3 -->
<g id="node3" class="node"><title>Node3</title>
<g id="a_node3"><a xlink:href="classRa_1_1Core_1_1TopologicalMesh.html#a94c32854d7aa51edc42d5d1dd70856f3" target="_top" xlink:title="Return the half&#45;edge associated with a given vertex and face. ">
<polygon fill="white" stroke="black" points="588.5,-627.5 588.5,-657.5 728.5,-657.5 728.5,-627.5 588.5,-627.5"/>
<text text-anchor="start" x="596.5" y="-645.5" font-family="Helvetica,sans-Serif" font-size="10.00">Ra::Core::TopologicalMesh</text>
<text text-anchor="middle" x="658.5" y="-634.5" font-family="Helvetica,sans-Serif" font-size="10.00">::halfedge_handle</text>
</a>
</g>
</g>
<!-- Node1&#45;&gt;Node3 -->
<g id="edge2" class="edge"><title>Node1&#45;&gt;Node3</title>
<path fill="none" stroke="midnightblue" d="M98.7916,-412.594C134.642,-461.258 255.659,-613.959 399,-667.5 467.392,-693.046 552.684,-676.274 606.136,-660.497"/>
<polygon fill="midnightblue" stroke="midnightblue" points="607.189,-663.835 615.735,-657.573 605.149,-657.139 607.189,-663.835"/>
</g>
<!-- Node4 -->
<g id="node4" class="node"><title>Node4</title>
<g id="a_node4"><a xlink:href="classRa_1_1Core_1_1TopologicalMesh.html#a01a8febca452611147267e173ce5b03a" target="_top" xlink:title="Interpolate hprops on face center. ">
<polygon fill="white" stroke="black" points="210,-431.5 210,-461.5 363,-461.5 363,-431.5 210,-431.5"/>
<text text-anchor="start" x="218" y="-449.5" font-family="Helvetica,sans-Serif" font-size="10.00">Ra::Core::TopologicalMesh</text>
<text text-anchor="middle" x="286.5" y="-438.5" font-family="Helvetica,sans-Serif" font-size="10.00">::interpolateAllPropsOnFaces</text>
</a>
</g>
</g>
<!-- Node1&#45;&gt;Node4 -->
<g id="edge3" class="edge"><title>Node1&#45;&gt;Node4</title>
<path fill="none" stroke="midnightblue" d="M148.599,-412.535C169.642,-417.755 193.416,-423.654 215.176,-429.053"/>
<polygon fill="midnightblue" stroke="midnightblue" points="214.467,-432.483 225.016,-431.494 216.153,-425.689 214.467,-432.483"/>
</g>
<!-- Node11 -->
<g id="node11" class="node"><title>Node11</title>
<g id="a_node11"><a xlink:href="namespaceRa_1_1Core_1_1Graph.html#a3b2b602f627a47463a09d850e1781760" target="_top" xlink:title="Ra::Core::Graph::check">
<polygon fill="white" stroke="black" points="223.5,-50 223.5,-69 349.5,-69 349.5,-50 223.5,-50"/>
<text text-anchor="middle" x="286.5" y="-57" font-family="Helvetica,sans-Serif" font-size="10.00">Ra::Core::Graph::check</text>
</a>
</g>
</g>
<!-- Node1&#45;&gt;Node11 -->
<g id="edge12" class="edge"><title>Node1&#45;&gt;Node11</title>
<path fill="none" stroke="midnightblue" d="M96.9994,-382.099C129.381,-326.681 239.892,-137.554 274.824,-77.77"/>
<polygon fill="midnightblue" stroke="midnightblue" points="277.906,-79.4333 279.929,-69.0335 271.862,-75.9018 277.906,-79.4333"/>
</g>
<!-- Node14 -->
<g id="node14" class="node"><title>Node14</title>
<g id="a_node14"><a xlink:href="classRa_1_1Core_1_1TopologicalMesh.html#ab8adf0e20463e4e4a4eb1b4624eb5b40" target="_top" xlink:title="Copy all properties from input_heh to copy_heh. ">
<polygon fill="white" stroke="black" points="216.5,-333.5 216.5,-363.5 356.5,-363.5 356.5,-333.5 216.5,-333.5"/>
<text text-anchor="start" x="224.5" y="-351.5" font-family="Helvetica,sans-Serif" font-size="10.00">Ra::Core::TopologicalMesh</text>
<text text-anchor="middle" x="286.5" y="-340.5" font-family="Helvetica,sans-Serif" font-size="10.00">::copyAllProps</text>
</a>
</g>
</g>
<!-- Node1&#45;&gt;Node14 -->
<g id="edge16" class="edge"><title>Node1&#45;&gt;Node14</title>
<path fill="none" stroke="midnightblue" d="M148.599,-382.465C169.642,-377.245 193.416,-371.346 215.176,-365.947"/>
<polygon fill="midnightblue" stroke="midnightblue" points="216.153,-369.311 225.016,-363.506 214.467,-362.517 216.153,-369.311"/>
</g>
<!-- Node17 -->
<g id="node17" class="node"><title>Node17</title>
<g id="a_node17"><a xlink:href="classRa_1_1Core_1_1TopologicalMesh.html#a951221559aec8feb0d16d28109897483" target="_top" xlink:title="Copy all given face properties from fh to heh. ">
<polygon fill="white" stroke="black" points="216.5,-284.5 216.5,-314.5 356.5,-314.5 356.5,-284.5 216.5,-284.5"/>
<text text-anchor="start" x="224.5" y="-302.5" font-family="Helvetica,sans-Serif" font-size="10.00">Ra::Core::TopologicalMesh</text>
<text text-anchor="middle" x="286.5" y="-291.5" font-family="Helvetica,sans-Serif" font-size="10.00">::copyAllPropsFromFace</text>
</a>
</g>
</g>
<!-- Node1&#45;&gt;Node17 -->
<g id="edge23" class="edge"><title>Node1&#45;&gt;Node17</title>
<path fill="none" stroke="midnightblue" d="M110.122,-382.23C133.963,-366.267 173.421,-341.253 210,-324.5 214.943,-322.236 220.151,-320.077 225.427,-318.045"/>
<polygon fill="midnightblue" stroke="midnightblue" points="226.784,-321.275 234.952,-314.527 224.359,-314.708 226.784,-321.275"/>
</g>
<!-- Node20 -->
<g id="node20" class="node"><title>Node20</title>
<g id="a_node20"><a xlink:href="classRa_1_1Core_1_1TopologicalMesh.html#a42aa050397dd07b26bed2b35f3748246" target="_top" xlink:title="Interpolate all properties on edge center (after edge split). ">
<polygon fill="white" stroke="black" points="216.5,-382.5 216.5,-412.5 356.5,-412.5 356.5,-382.5 216.5,-382.5"/>
<text text-anchor="start" x="224.5" y="-400.5" font-family="Helvetica,sans-Serif" font-size="10.00">Ra::Core::TopologicalMesh</text>
<text text-anchor="middle" x="286.5" y="-389.5" font-family="Helvetica,sans-Serif" font-size="10.00">::interpolateAllProps</text>
</a>
</g>
</g>
<!-- Node1&#45;&gt;Node20 -->
<g id="edge30" class="edge"><title>Node1&#45;&gt;Node20</title>
<path fill="none" stroke="midnightblue" d="M174.052,-397.5C184.765,-397.5 195.681,-397.5 206.284,-397.5"/>
<polygon fill="midnightblue" stroke="midnightblue" points="206.337,-401 216.337,-397.5 206.337,-394 206.337,-401"/>
</g>
<!-- Node5 -->
<g id="node5" class="node"><title>Node5</title>
<g id="a_node5"><a xlink:href="classRa_1_1Core_1_1TopologicalMesh.html#a0294459ae0b252566b228c8caa6f9d8b" target="_top" xlink:title="Interpolate normal property on face center. ">
<polygon fill="white" stroke="black" points="399,-578.5 399,-608.5 549,-608.5 549,-578.5 399,-578.5"/>
<text text-anchor="start" x="407" y="-596.5" font-family="Helvetica,sans-Serif" font-size="10.00">Ra::Core::TopologicalMesh</text>
<text text-anchor="middle" x="474" y="-585.5" font-family="Helvetica,sans-Serif" font-size="10.00">::interpolateNormalOnFaces</text>
</a>
</g>
</g>
<!-- Node4&#45;&gt;Node5 -->
<g id="edge4" class="edge"><title>Node4&#45;&gt;Node5</title>
<path fill="none" stroke="midnightblue" d="M297.291,-461.697C314.695,-487.534 353.499,-540.077 399,-569.5 401.445,-571.081 404.004,-572.567 406.639,-573.961"/>
<polygon fill="midnightblue" stroke="midnightblue" points="405.309,-577.204 415.841,-578.357 408.326,-570.888 405.309,-577.204"/>
</g>
<!-- Node6 -->
<g id="node6" class="node"><title>Node6</title>
<g id="a_node6"><a xlink:href="classRa_1_1Core_1_1TopologicalMesh.html#aea2f723e3af4a564d62715713f416d08" target="_top" xlink:title="Interpolate hprops on face center. ">
<polygon fill="white" stroke="black" points="403,-627.5 403,-657.5 545,-657.5 545,-627.5 403,-627.5"/>
<text text-anchor="start" x="411" y="-645.5" font-family="Helvetica,sans-Serif" font-size="10.00">Ra::Core::TopologicalMesh</text>
<text text-anchor="middle" x="474" y="-634.5" font-family="Helvetica,sans-Serif" font-size="10.00">::interpolatePropsOnFaces</text>
</a>
</g>
</g>
<!-- Node4&#45;&gt;Node6 -->
<g id="edge6" class="edge"><title>Node4&#45;&gt;Node6</title>
<path fill="none" stroke="midnightblue" d="M293.166,-461.619C306.426,-494.963 342.682,-575.273 399,-618.5 400.828,-619.903 402.741,-621.226 404.72,-622.473"/>
<polygon fill="midnightblue" stroke="midnightblue" points="403.31,-625.692 413.755,-627.467 406.696,-619.566 403.31,-625.692"/>
</g>
<!-- Node7 -->
<g id="node7" class="node"><title>Node7</title>
<g id="a_node7"><a xlink:href="classRa_1_1Core_1_1TopologicalMesh.html#aa1016df75edb65e69fcdec5465e49245" target="_top" xlink:title="Ra::Core::TopologicalMesh\l::getFloatPropsHandles">
<polygon fill="white" stroke="black" points="404,-333.5 404,-363.5 544,-363.5 544,-333.5 404,-333.5"/>
<text text-anchor="start" x="412" y="-351.5" font-family="Helvetica,sans-Serif" font-size="10.00">Ra::Core::TopologicalMesh</text>
<text text-anchor="middle" x="474" y="-340.5" font-family="Helvetica,sans-Serif" font-size="10.00">::getFloatPropsHandles</text>
</a>
</g>
</g>
<!-- Node4&#45;&gt;Node7 -->
<g id="edge8" class="edge"><title>Node4&#45;&gt;Node7</title>
<path fill="none" stroke="midnightblue" d="M347.346,-431.465C352.874,-428.915 358.195,-425.948 363,-422.5 384.955,-406.744 377.188,-389.453 399,-373.5 401.627,-371.579 404.412,-369.798 407.302,-368.148"/>
<polygon fill="midnightblue" stroke="midnightblue" points="408.923,-371.25 416.234,-363.583 405.737,-365.017 408.923,-371.25"/>
</g>
<!-- Node8 -->
<g id="node8" class="node"><title>Node8</title>
<g id="a_node8"><a xlink:href="classRa_1_1Core_1_1TopologicalMesh.html#acf1e58078add6e5cc9ce13b30fb3baf3" target="_top" xlink:title="Ra::Core::TopologicalMesh\l::getVector2PropsHandles">
<polygon fill="white" stroke="black" points="403.5,-284.5 403.5,-314.5 544.5,-314.5 544.5,-284.5 403.5,-284.5"/>
<text text-anchor="start" x="411.5" y="-302.5" font-family="Helvetica,sans-Serif" font-size="10.00">Ra::Core::TopologicalMesh</text>
<text text-anchor="middle" x="474" y="-291.5" font-family="Helvetica,sans-Serif" font-size="10.00">::getVector2PropsHandles</text>
</a>
</g>
</g>
<!-- Node4&#45;&gt;Node8 -->
<g id="edge9" class="edge"><title>Node4&#45;&gt;Node8</title>
<path fill="none" stroke="midnightblue" d="M351.014,-431.374C355.358,-428.858 359.422,-425.923 363,-422.5 396.529,-390.423 365.762,-356.877 399,-324.5 400.618,-322.924 402.339,-321.447 404.142,-320.063"/>
<polygon fill="midnightblue" stroke="midnightblue" points="406.071,-322.984 412.514,-314.573 402.232,-317.13 406.071,-322.984"/>
</g>
<!-- Node9 -->
<g id="node9" class="node"><title>Node9</title>
<g id="a_node9"><a xlink:href="classRa_1_1Core_1_1TopologicalMesh.html#a6865aee84eb0d92f6acc12081bf8a6f8" target="_top" xlink:title="Ra::Core::TopologicalMesh\l::getVector3PropsHandles">
<polygon fill="white" stroke="black" points="403.5,-431.5 403.5,-461.5 544.5,-461.5 544.5,-431.5 403.5,-431.5"/>
<text text-anchor="start" x="411.5" y="-449.5" font-family="Helvetica,sans-Serif" font-size="10.00">Ra::Core::TopologicalMesh</text>
<text text-anchor="middle" x="474" y="-438.5" font-family="Helvetica,sans-Serif" font-size="10.00">::getVector3PropsHandles</text>
</a>
</g>
</g>
<!-- Node4&#45;&gt;Node9 -->
<g id="edge10" class="edge"><title>Node4&#45;&gt;Node9</title>
<path fill="none" stroke="midnightblue" d="M363.217,-446.5C373.106,-446.5 383.263,-446.5 393.216,-446.5"/>
<polygon fill="midnightblue" stroke="midnightblue" points="393.495,-450 403.495,-446.5 393.495,-443 393.495,-450"/>
</g>
<!-- Node10 -->
<g id="node10" class="node"><title>Node10</title>
<g id="a_node10"><a xlink:href="classRa_1_1Core_1_1TopologicalMesh.html#a938483e7f6900eeb3914d662b9aac21c" target="_top" xlink:title="Ra::Core::TopologicalMesh\l::getVector4PropsHandles">
<polygon fill="white" stroke="black" points="403.5,-382.5 403.5,-412.5 544.5,-412.5 544.5,-382.5 403.5,-382.5"/>
<text text-anchor="start" x="411.5" y="-400.5" font-family="Helvetica,sans-Serif" font-size="10.00">Ra::Core::TopologicalMesh</text>
<text text-anchor="middle" x="474" y="-389.5" font-family="Helvetica,sans-Serif" font-size="10.00">::getVector4PropsHandles</text>
</a>
</g>
</g>
<!-- Node4&#45;&gt;Node10 -->
<g id="edge11" class="edge"><title>Node4&#45;&gt;Node10</title>
<path fill="none" stroke="midnightblue" d="M344.417,-431.465C364.003,-426.292 386.108,-420.452 406.396,-415.093"/>
<polygon fill="midnightblue" stroke="midnightblue" points="407.416,-418.444 416.191,-412.506 405.629,-411.676 407.416,-418.444"/>
</g>
<!-- Node5&#45;&gt;Node3 -->
<g id="edge5" class="edge"><title>Node5&#45;&gt;Node3</title>
<path fill="none" stroke="midnightblue" d="M531.245,-608.601C550.329,-613.725 571.82,-619.496 591.589,-624.803"/>
<polygon fill="midnightblue" stroke="midnightblue" points="590.875,-628.236 601.441,-627.448 592.69,-621.475 590.875,-628.236"/>
</g>
<!-- Node6&#45;&gt;Node3 -->
<g id="edge7" class="edge"><title>Node6&#45;&gt;Node3</title>
<path fill="none" stroke="midnightblue" d="M545.037,-642.5C555.889,-642.5 567.164,-642.5 578.202,-642.5"/>
<polygon fill="midnightblue" stroke="midnightblue" points="578.253,-646 588.252,-642.5 578.252,-639 578.253,-646"/>
</g>
<!-- Node12 -->
<g id="node12" class="node"><title>Node12</title>
<g id="a_node12"><a xlink:href="classRa_1_1Core_1_1Graph_1_1AdjacencyList.html#a63e089f5da2ddc2da39dfd5bd6adb410" target="_top" xlink:title="SIZE. ">
<polygon fill="white" stroke="black" points="585,-22.5 585,-52.5 732,-52.5 732,-22.5 585,-22.5"/>
<text text-anchor="start" x="593" y="-40.5" font-family="Helvetica,sans-Serif" font-size="10.00">Ra::Core::Graph::Adjacency</text>
<text text-anchor="middle" x="658.5" y="-29.5" font-family="Helvetica,sans-Serif" font-size="10.00">List::size</text>
</a>
</g>
</g>
<!-- Node11&#45;&gt;Node12 -->
<g id="edge13" class="edge"><title>Node11&#45;&gt;Node12</title>
<path fill="none" stroke="midnightblue" d="M349.847,-55.7929C411.554,-52.1238 506.396,-46.4845 574.461,-42.4375"/>
<polygon fill="midnightblue" stroke="midnightblue" points="574.949,-45.9147 584.723,-41.8273 574.533,-38.9271 574.949,-45.9147"/>
</g>
<!-- Node13 -->
<g id="node13" class="node"><title>Node13</title>
<g id="a_node13"><a xlink:href="classRa_1_1Core_1_1Graph_1_1AdjacencyList.html#a209e8c037a722c617b3feebdbb85c044" target="_top" xlink:title="Ra::Core::Graph::Adjacency\lList::isLeaf">
<polygon fill="white" stroke="black" points="400.5,-0.5 400.5,-30.5 547.5,-30.5 547.5,-0.5 400.5,-0.5"/>
<text text-anchor="start" x="408.5" y="-18.5" font-family="Helvetica,sans-Serif" font-size="10.00">Ra::Core::Graph::Adjacency</text>
<text text-anchor="middle" x="474" y="-7.5" font-family="Helvetica,sans-Serif" font-size="10.00">List::isLeaf</text>
</a>
</g>
</g>
<!-- Node11&#45;&gt;Node13 -->
<g id="edge14" class="edge"><title>Node11&#45;&gt;Node13</title>
<path fill="none" stroke="midnightblue" d="M327.751,-49.9527C348.729,-44.9767 375.05,-38.7334 399.504,-32.9331"/>
<polygon fill="midnightblue" stroke="midnightblue" points="400.564,-36.2789 409.486,-30.5654 398.948,-29.4679 400.564,-36.2789"/>
</g>
<!-- Node13&#45;&gt;Node12 -->
<g id="edge15" class="edge"><title>Node13&#45;&gt;Node12</title>
<path fill="none" stroke="midnightblue" d="M547.653,-24.2582C556.536,-25.329 565.665,-26.4295 574.683,-27.5166"/>
<polygon fill="midnightblue" stroke="midnightblue" points="574.452,-31.0139 584.799,-28.736 575.289,-24.0643 574.452,-31.0139"/>
</g>
<!-- Node14&#45;&gt;Node7 -->
<g id="edge19" class="edge"><title>Node14&#45;&gt;Node7</title>
<path fill="none" stroke="midnightblue" d="M356.573,-348.5C368.645,-348.5 381.289,-348.5 393.613,-348.5"/>
<polygon fill="midnightblue" stroke="midnightblue" points="393.869,-352 403.869,-348.5 393.869,-345 393.869,-352"/>
</g>
<!-- Node14&#45;&gt;Node8 -->
<g id="edge20" class="edge"><title>Node14&#45;&gt;Node8</title>
<path fill="none" stroke="midnightblue" d="M344.417,-333.465C364.003,-328.292 386.108,-322.452 406.396,-317.093"/>
<polygon fill="midnightblue" stroke="midnightblue" points="407.416,-320.444 416.191,-314.506 405.629,-313.676 407.416,-320.444"/>
</g>
<!-- Node14&#45;&gt;Node9 -->
<g id="edge21" class="edge"><title>Node14&#45;&gt;Node9</title>
<path fill="none" stroke="midnightblue" d="M345.803,-363.653C351.884,-366.428 357.75,-369.685 363,-373.5 384.86,-389.387 377.091,-406.68 399,-422.5 401.06,-423.987 403.217,-425.386 405.445,-426.7"/>
<polygon fill="midnightblue" stroke="midnightblue" points="403.859,-429.821 414.341,-431.365 407.11,-423.621 403.859,-429.821"/>
</g>
<!-- Node14&#45;&gt;Node10 -->
<g id="edge22" class="edge"><title>Node14&#45;&gt;Node10</title>
<path fill="none" stroke="midnightblue" d="M344.417,-363.535C364.003,-368.708 386.108,-374.548 406.396,-379.907"/>
<polygon fill="midnightblue" stroke="midnightblue" points="405.629,-383.324 416.191,-382.494 407.416,-376.556 405.629,-383.324"/>
</g>
<!-- Node15 -->
<g id="node15" class="node"><title>Node15</title>
<g id="a_node15"><a xlink:href="classRa_1_1Core_1_1TopologicalMesh.html#afc2c2977da4b6cc4a76a044a580cfacf" target="_top" xlink:title="Copy the normal property from input_heh to copy_heh. ">
<polygon fill="white" stroke="black" points="404,-186.5 404,-216.5 544,-216.5 544,-186.5 404,-186.5"/>
<text text-anchor="start" x="412" y="-204.5" font-family="Helvetica,sans-Serif" font-size="10.00">Ra::Core::TopologicalMesh</text>
<text text-anchor="middle" x="474" y="-193.5" font-family="Helvetica,sans-Serif" font-size="10.00">::copyNormal</text>
</a>
</g>
</g>
<!-- Node14&#45;&gt;Node15 -->
<g id="edge17" class="edge"><title>Node14&#45;&gt;Node15</title>
<path fill="none" stroke="midnightblue" d="M351.026,-333.387C355.367,-330.868 359.428,-327.929 363,-324.5 396.777,-292.08 365.317,-258.019 399,-225.5 400.123,-224.415 401.296,-223.38 402.512,-222.391"/>
<polygon fill="midnightblue" stroke="midnightblue" points="404.811,-225.059 411.084,-216.521 400.855,-219.283 404.811,-225.059"/>
</g>
<!-- Node16 -->
<g id="node16" class="node"><title>Node16</title>
<g id="a_node16"><a xlink:href="classRa_1_1Core_1_1TopologicalMesh.html#a7550874ffae2f25bcf60826dc2ff948e" target="_top" xlink:title="Copy props properties from input_heh to copy_heh. ">
<polygon fill="white" stroke="black" points="404,-235.5 404,-265.5 544,-265.5 544,-235.5 404,-235.5"/>
<text text-anchor="start" x="412" y="-253.5" font-family="Helvetica,sans-Serif" font-size="10.00">Ra::Core::TopologicalMesh</text>
<text text-anchor="middle" x="474" y="-242.5" font-family="Helvetica,sans-Serif" font-size="10.00">::copyProps</text>
</a>
</g>
</g>
<!-- Node14&#45;&gt;Node16 -->
<g id="edge18" class="edge"><title>Node14&#45;&gt;Node16</title>
<path fill="none" stroke="midnightblue" d="M347.346,-333.465C352.874,-330.915 358.195,-327.948 363,-324.5 384.955,-308.744 377.188,-291.453 399,-275.5 401.627,-273.579 404.412,-271.798 407.302,-270.148"/>
<polygon fill="midnightblue" stroke="midnightblue" points="408.923,-273.25 416.234,-265.583 405.737,-267.017 408.923,-273.25"/>
</g>
<!-- Node17&#45;&gt;Node7 -->
<g id="edge26" class="edge"><title>Node17&#45;&gt;Node7</title>
<path fill="none" stroke="midnightblue" d="M344.417,-314.535C364.003,-319.708 386.108,-325.548 406.396,-330.907"/>
<polygon fill="midnightblue" stroke="midnightblue" points="405.629,-334.324 416.191,-333.494 407.416,-327.556 405.629,-334.324"/>
</g>
<!-- Node17&#45;&gt;Node8 -->
<g id="edge27" class="edge"><title>Node17&#45;&gt;Node8</title>
<path fill="none" stroke="midnightblue" d="M356.573,-299.5C368.484,-299.5 380.952,-299.5 393.12,-299.5"/>
<polygon fill="midnightblue" stroke="midnightblue" points="393.25,-303 403.25,-299.5 393.25,-296 393.25,-303"/>
</g>
<!-- Node17&#45;&gt;Node9 -->
<g id="edge28" class="edge"><title>Node17&#45;&gt;Node9</title>
<path fill="none" stroke="midnightblue" d="M349.572,-314.655C354.461,-317.407 359.032,-320.658 363,-324.5 396.336,-356.777 365.565,-390.326 399,-422.5 400.125,-423.583 401.3,-424.617 402.517,-425.604"/>
<polygon fill="midnightblue" stroke="midnightblue" points="400.865,-428.714 411.096,-431.467 404.814,-422.935 400.865,-428.714"/>
</g>
<!-- Node17&#45;&gt;Node10 -->
<g id="edge29" class="edge"><title>Node17&#45;&gt;Node10</title>
<path fill="none" stroke="midnightblue" d="M345.803,-314.653C351.884,-317.428 357.75,-320.685 363,-324.5 384.86,-340.387 377.091,-357.68 399,-373.5 401.06,-374.987 403.217,-376.386 405.445,-377.7"/>
<polygon fill="midnightblue" stroke="midnightblue" points="403.859,-380.821 414.341,-382.365 407.11,-374.621 403.859,-380.821"/>
</g>
<!-- Node18 -->
<g id="node18" class="node"><title>Node18</title>
<g id="a_node18"><a xlink:href="classRa_1_1Core_1_1TopologicalMesh.html#a70c7e90c0573f96764cea91ca4f27aee" target="_top" xlink:title="Copy the face normal property fProp from fh to heh. ">
<polygon fill="white" stroke="black" points="404,-88.5 404,-118.5 544,-118.5 544,-88.5 404,-88.5"/>
<text text-anchor="start" x="412" y="-106.5" font-family="Helvetica,sans-Serif" font-size="10.00">Ra::Core::TopologicalMesh</text>
<text text-anchor="middle" x="474" y="-95.5" font-family="Helvetica,sans-Serif" font-size="10.00">::copyNormalFromFace</text>
</a>
</g>
</g>
<!-- Node17&#45;&gt;Node18 -->
<g id="edge24" class="edge"><title>Node17&#45;&gt;Node18</title>
<path fill="none" stroke="midnightblue" d="M293.166,-284.381C306.426,-251.037 342.682,-170.727 399,-127.5 400.828,-126.097 402.741,-124.774 404.72,-123.527"/>
<polygon fill="midnightblue" stroke="midnightblue" points="406.696,-126.434 413.755,-118.533 403.31,-120.308 406.696,-126.434"/>
</g>
<!-- Node19 -->
<g id="node19" class="node"><title>Node19</title>
<g id="a_node19"><a xlink:href="classRa_1_1Core_1_1TopologicalMesh.html#a2e0d393fe7ec44d1327702c49b2b3e2b" target="_top" xlink:title="Copy face properties props from fh to heh. ">
<polygon fill="white" stroke="black" points="404,-137.5 404,-167.5 544,-167.5 544,-137.5 404,-137.5"/>
<text text-anchor="start" x="412" y="-155.5" font-family="Helvetica,sans-Serif" font-size="10.00">Ra::Core::TopologicalMesh</text>
<text text-anchor="middle" x="474" y="-144.5" font-family="Helvetica,sans-Serif" font-size="10.00">::copyPropsFromFace</text>
</a>
</g>
</g>
<!-- Node17&#45;&gt;Node19 -->
<g id="edge25" class="edge"><title>Node17&#45;&gt;Node19</title>
<path fill="none" stroke="midnightblue" d="M297.291,-284.303C314.695,-258.466 353.499,-205.923 399,-176.5 401.445,-174.919 404.004,-173.433 406.639,-172.039"/>
<polygon fill="midnightblue" stroke="midnightblue" points="408.326,-175.112 415.841,-167.643 405.309,-168.796 408.326,-175.112"/>
</g>
<!-- Node20&#45;&gt;Node7 -->
<g id="edge33" class="edge"><title>Node20&#45;&gt;Node7</title>
<path fill="none" stroke="midnightblue" d="M344.417,-382.465C364.003,-377.292 386.108,-371.452 406.396,-366.093"/>
<polygon fill="midnightblue" stroke="midnightblue" points="407.416,-369.444 416.191,-363.506 405.629,-362.676 407.416,-369.444"/>
</g>
<!-- Node20&#45;&gt;Node8 -->
<g id="edge34" class="edge"><title>Node20&#45;&gt;Node8</title>
<path fill="none" stroke="midnightblue" d="M347.346,-382.465C352.874,-379.915 358.195,-376.948 363,-373.5 384.955,-357.744 377.188,-340.453 399,-324.5 401.627,-322.579 404.412,-320.798 407.302,-319.148"/>
<polygon fill="midnightblue" stroke="midnightblue" points="408.923,-322.25 416.234,-314.583 405.737,-316.017 408.923,-322.25"/>
</g>
<!-- Node20&#45;&gt;Node9 -->
<g id="edge35" class="edge"><title>Node20&#45;&gt;Node9</title>
<path fill="none" stroke="midnightblue" d="M344.417,-412.535C364.003,-417.708 386.108,-423.548 406.396,-428.907"/>
<polygon fill="midnightblue" stroke="midnightblue" points="405.629,-432.324 416.191,-431.494 407.416,-425.556 405.629,-432.324"/>
</g>
<!-- Node20&#45;&gt;Node10 -->
<g id="edge36" class="edge"><title>Node20&#45;&gt;Node10</title>
<path fill="none" stroke="midnightblue" d="M356.573,-397.5C368.484,-397.5 380.952,-397.5 393.12,-397.5"/>
<polygon fill="midnightblue" stroke="midnightblue" points="393.25,-401 403.25,-397.5 393.25,-394 393.25,-401"/>
</g>
<!-- Node21 -->
<g id="node21" class="node"><title>Node21</title>
<g id="a_node21"><a xlink:href="classRa_1_1Core_1_1TopologicalMesh.html#ada6b93df0b80c67c28eec20876a14eab" target="_top" xlink:title="Interpolate normal property on edge center (after edge split). ">
<polygon fill="white" stroke="black" points="404,-480.5 404,-510.5 544,-510.5 544,-480.5 404,-480.5"/>
<text text-anchor="start" x="412" y="-498.5" font-family="Helvetica,sans-Serif" font-size="10.00">Ra::Core::TopologicalMesh</text>
<text text-anchor="middle" x="474" y="-487.5" font-family="Helvetica,sans-Serif" font-size="10.00">::interpolateNormal</text>
</a>
</g>
</g>
<!-- Node20&#45;&gt;Node21 -->
<g id="edge31" class="edge"><title>Node20&#45;&gt;Node21</title>
<path fill="none" stroke="midnightblue" d="M345.803,-412.653C351.884,-415.428 357.75,-418.685 363,-422.5 384.86,-438.387 377.091,-455.68 399,-471.5 401.06,-472.987 403.217,-474.386 405.445,-475.7"/>
<polygon fill="midnightblue" stroke="midnightblue" points="403.859,-478.821 414.341,-480.365 407.11,-472.621 403.859,-478.821"/>
</g>
<!-- Node22 -->
<g id="node22" class="node"><title>Node22</title>
<g id="a_node22"><a xlink:href="classRa_1_1Core_1_1TopologicalMesh.html#ace05f7289e356f433519904221ea94be" target="_top" xlink:title="Interpolate props on edge center (after edge split). ">
<polygon fill="white" stroke="black" points="404,-529.5 404,-559.5 544,-559.5 544,-529.5 404,-529.5"/>
<text text-anchor="start" x="412" y="-547.5" font-family="Helvetica,sans-Serif" font-size="10.00">Ra::Core::TopologicalMesh</text>
<text text-anchor="middle" x="474" y="-536.5" font-family="Helvetica,sans-Serif" font-size="10.00">::interpolateProps</text>
</a>
</g>
</g>
<!-- Node20&#45;&gt;Node22 -->
<g id="edge32" class="edge"><title>Node20&#45;&gt;Node22</title>
<path fill="none" stroke="midnightblue" d="M349.572,-412.655C354.461,-415.407 359.032,-418.658 363,-422.5 396.336,-454.777 365.565,-488.326 399,-520.5 400.125,-521.583 401.3,-522.617 402.517,-523.604"/>
<polygon fill="midnightblue" stroke="midnightblue" points="400.865,-526.714 411.096,-529.467 404.814,-520.935 400.865,-526.714"/>
</g>
</g>
</svg>
