<?xml version="1.0" encoding="UTF-8" standalone="no"?>
<!DOCTYPE svg PUBLIC "-//W3C//DTD SVG 1.1//EN"
 "http://www.w3.org/Graphics/SVG/1.1/DTD/svg11.dtd">
<!-- Generated by graphviz version 2.38.0 (20140413.2041)
 -->
<!-- Title: Ra::Engine::DebugRender::addTriangle Pages: 1 -->
<svg width="324pt" height="88pt"
 viewBox="0.00 0.00 324.00 88.00" xmlns="http://www.w3.org/2000/svg" xmlns:xlink="http://www.w3.org/1999/xlink">
<g id="graph0" class="graph" transform="scale(1 1) rotate(0) translate(4 84)">
<title>Ra::Engine::DebugRender::addTriangle</title>
<polygon fill="white" stroke="none" points="-4,4 -4,-84 320,-84 320,4 -4,4"/>
<!-- Node1 -->
<g id="node1" class="node"><title>Node1</title>
<polygon fill="#bfbfbf" stroke="black" points="0,-24.5 0,-54.5 137,-54.5 137,-24.5 0,-24.5"/>
<text text-anchor="start" x="8" y="-42.5" font-family="Helvetica,sans-Serif" font-size="10.00">Ra::Engine::DebugRender</text>
<text text-anchor="middle" x="68.5" y="-31.5" font-family="Helvetica,sans-Serif" font-size="10.00">::addTriangle</text>
</g>
<!-- Node2 -->
<g id="node2" class="node"><title>Node2</title>
<g id="a_node2"><a xlink:href="classRa_1_1Engine_1_1DebugRender.html#a35b2c4a2e8776d9465881c27f3dacdf8" target="_top" xlink:title="Ra::Engine::DebugRender\l::addMesh">
<polygon fill="white" stroke="black" points="176,-49.5 176,-79.5 313,-79.5 313,-49.5 176,-49.5"/>
<text text-anchor="start" x="184" y="-67.5" font-family="Helvetica,sans-Serif" font-size="10.00">Ra::Engine::DebugRender</text>
<text text-anchor="middle" x="244.5" y="-56.5" font-family="Helvetica,sans-Serif" font-size="10.00">::addMesh</text>
</a>
</g>
</g>
<!-- Node1&#45;&gt;Node2 -->
<g id="edge1" class="edge"><title>Node1&#45;&gt;Node2</title>
<path fill="none" stroke="midnightblue" d="M137.271,-49.2372C146.69,-50.5906 156.426,-51.9894 166.006,-53.3659"/>
<polygon fill="midnightblue" stroke="midnightblue" points="165.518,-56.8315 175.914,-54.7893 166.513,-49.9026 165.518,-56.8315"/>
</g>
<!-- Node3 -->
<g id="node3" class="node"><title>Node3</title>
<g id="a_node3"><a xlink:href="namespaceRa_1_1Engine_1_1DrawPrimitives.html#ad18a07d4e4b90cce51bba1daa6f4d158" target="_top" xlink:title="Displays given triangle ABC, either in wireframe (fill = false) or filled with the color(fill = true)...">
<polygon fill="white" stroke="black" points="173,-0.5 173,-30.5 316,-30.5 316,-0.5 173,-0.5"/>
<text text-anchor="start" x="181" y="-18.5" font-family="Helvetica,sans-Serif" font-size="10.00">Ra::Engine::DrawPrimitives</text>
<text text-anchor="middle" x="244.5" y="-7.5" font-family="Helvetica,sans-Serif" font-size="10.00">::Triangle</text>
</a>
</g>
</g>
<!-- Node1&#45;&gt;Node3 -->
<g id="edge2" class="edge"><title>Node1&#45;&gt;Node3</title>
<path fill="none" stroke="midnightblue" d="M137.271,-30.1523C145.639,-28.9981 154.256,-27.8096 162.792,-26.6322"/>
<polygon fill="midnightblue" stroke="midnightblue" points="163.327,-30.0916 172.755,-25.2579 162.371,-23.1572 163.327,-30.0916"/>
</g>
</g>
</svg>
