<?xml version="1.0" encoding="UTF-8" standalone="no"?>
<!DOCTYPE svg PUBLIC "-//W3C//DTD SVG 1.1//EN"
 "http://www.w3.org/Graphics/SVG/1.1/DTD/svg11.dtd">
<!-- Generated by graphviz version 2.38.0 (20140413.2041)
 -->
<!-- Title: Ra::IO::AssimpAnimationDataLoader Pages: 1 -->
<svg width="299pt" height="591pt"
 viewBox="0.00 0.00 299.00 591.00" xmlns="http://www.w3.org/2000/svg" xmlns:xlink="http://www.w3.org/1999/xlink">
<g id="graph0" class="graph" transform="scale(1 1) rotate(0) translate(4 587)">
<title>Ra::IO::AssimpAnimationDataLoader</title>
<polygon fill="white" stroke="none" points="-4,4 -4,-587 295,-587 295,4 -4,4"/>
<!-- Node1 -->
<g id="node1" class="node"><title>Node1</title>
<polygon fill="#bfbfbf" stroke="black" points="0,-0.5 0,-167.5 184,-167.5 184,-0.5 0,-0.5"/>
<text text-anchor="start" x="8" y="-155.5" font-family="Helvetica,sans-Serif" font-size="10.00">Ra::IO::AssimpAnimationData</text>
<text text-anchor="middle" x="92" y="-144.5" font-family="Helvetica,sans-Serif" font-size="10.00">Loader</text>
<polyline fill="none" stroke="black" points="0,-137.5 184,-137.5 "/>
<text text-anchor="middle" x="92" y="-125.5" font-family="Helvetica,sans-Serif" font-size="10.00"> </text>
<polyline fill="none" stroke="black" points="0,-118.5 184,-118.5 "/>
<text text-anchor="start" x="8" y="-106.5" font-family="Helvetica,sans-Serif" font-size="10.00">+ AssimpAnimationDataLoader()</text>
<text text-anchor="start" x="8" y="-95.5" font-family="Helvetica,sans-Serif" font-size="10.00">+ ~AssimpAnimationDataLoader()</text>
<text text-anchor="start" x="8" y="-84.5" font-family="Helvetica,sans-Serif" font-size="10.00">+ loadData()</text>
<text text-anchor="start" x="8" y="-73.5" font-family="Helvetica,sans-Serif" font-size="10.00"># sceneHasAnimation()</text>
<text text-anchor="start" x="8" y="-62.5" font-family="Helvetica,sans-Serif" font-size="10.00"># sceneAnimationSize()</text>
<text text-anchor="start" x="8" y="-51.5" font-family="Helvetica,sans-Serif" font-size="10.00"># fetchName()</text>
<text text-anchor="start" x="8" y="-40.5" font-family="Helvetica,sans-Serif" font-size="10.00"># fetchTime()</text>
<text text-anchor="start" x="8" y="-29.5" font-family="Helvetica,sans-Serif" font-size="10.00"># loadAnimationData()</text>
<text text-anchor="start" x="8" y="-18.5" font-family="Helvetica,sans-Serif" font-size="10.00"># fetchAnimation()</text>
<text text-anchor="start" x="8" y="-7.5" font-family="Helvetica,sans-Serif" font-size="10.00"># fetchHandleAnimation()</text>
</g>
<!-- Node2 -->
<g id="node2" class="node"><title>Node2</title>
<g id="a_node2"><a xlink:href="classRa_1_1Asset_1_1DataLoader.html" target="_top" xlink:title="{Ra::Asset::DataLoader\l\&lt; Asset::AnimationData \&gt;\n||+ DataLoader()\l+ ~DataLoader()\l+ loadData()\l+ isVerbose()\l+ setVerbose()\l}">
<polygon fill="white" stroke="black" points="20,-205.5 20,-317.5 164,-317.5 164,-205.5 20,-205.5"/>
<text text-anchor="start" x="28" y="-305.5" font-family="Helvetica,sans-Serif" font-size="10.00">Ra::Asset::DataLoader</text>
<text text-anchor="middle" x="92" y="-294.5" font-family="Helvetica,sans-Serif" font-size="10.00">&lt; Asset::AnimationData &gt;</text>
<polyline fill="none" stroke="black" points="20,-287.5 164,-287.5 "/>
<text text-anchor="middle" x="92" y="-275.5" font-family="Helvetica,sans-Serif" font-size="10.00"> </text>
<polyline fill="none" stroke="black" points="20,-268.5 164,-268.5 "/>
<text text-anchor="start" x="28" y="-256.5" font-family="Helvetica,sans-Serif" font-size="10.00">+ DataLoader()</text>
<text text-anchor="start" x="28" y="-245.5" font-family="Helvetica,sans-Serif" font-size="10.00">+ ~DataLoader()</text>
<text text-anchor="start" x="28" y="-234.5" font-family="Helvetica,sans-Serif" font-size="10.00">+ loadData()</text>
<text text-anchor="start" x="28" y="-223.5" font-family="Helvetica,sans-Serif" font-size="10.00">+ isVerbose()</text>
<text text-anchor="start" x="28" y="-212.5" font-family="Helvetica,sans-Serif" font-size="10.00">+ setVerbose()</text>
</a>
</g>
</g>
<!-- Node2&#45;&gt;Node1 -->
<g id="edge1" class="edge"><title>Node2&#45;&gt;Node1</title>
<path fill="none" stroke="midnightblue" d="M92,-195.449C92,-186.441 92,-177.09 92,-167.813"/>
<polygon fill="none" stroke="midnightblue" points="88.5001,-195.452 92,-205.452 95.5001,-195.452 88.5001,-195.452"/>
</g>
<!-- Node3 -->
<g id="node3" class="node"><title>Node3</title>
<g id="a_node3"><a xlink:href="classbool.html" target="_top" xlink:title="{bool\n||}">
<polygon fill="white" stroke="black" points="101.5,-525.5 101.5,-582.5 138.5,-582.5 138.5,-525.5 101.5,-525.5"/>
<text text-anchor="middle" x="120" y="-570.5" font-family="Helvetica,sans-Serif" font-size="10.00">bool</text>
<polyline fill="none" stroke="black" points="101.5,-563.5 138.5,-563.5 "/>
<text text-anchor="middle" x="120" y="-551.5" font-family="Helvetica,sans-Serif" font-size="10.00"> </text>
<polyline fill="none" stroke="black" points="101.5,-544.5 138.5,-544.5 "/>
<text text-anchor="middle" x="120" y="-532.5" font-family="Helvetica,sans-Serif" font-size="10.00"> </text>
</a>
</g>
</g>
<!-- Node3&#45;&gt;Node2 -->
<g id="edge2" class="edge"><title>Node3&#45;&gt;Node2</title>
<path fill="none" stroke="#404040" d="M103.47,-525.194C96.2647,-511.489 88.6411,-494.413 85,-478 74.1666,-429.168 76.5498,-372.6 81.3038,-329.677"/>
<polygon fill="none" stroke="#404040" points="81.3148,-329.583 78.0527,-323.152 82.7344,-317.668 85.9965,-324.099 81.3148,-329.583"/>
<text text-anchor="middle" x="117.5" y="-419" font-family="Helvetica,sans-Serif" font-size="10.00"> #m_verbose</text>
</g>
<!-- Node4 -->
<g id="node4" class="node"><title>Node4</title>
<g id="a_node4"><a xlink:href="classRa_1_1Asset_1_1DataLoader.html" target="_top" xlink:title="{Ra::Asset::DataLoader\l\&lt; DATA \&gt;\n||+ DataLoader()\l+ ~DataLoader()\l+ loadData()\l+ isVerbose()\l+ setVerbose()\l}">
<polygon fill="white" stroke="black" points="159,-365.5 159,-477.5 283,-477.5 283,-365.5 159,-365.5"/>
<text text-anchor="start" x="167" y="-465.5" font-family="Helvetica,sans-Serif" font-size="10.00">Ra::Asset::DataLoader</text>
<text text-anchor="middle" x="221" y="-454.5" font-family="Helvetica,sans-Serif" font-size="10.00">&lt; DATA &gt;</text>
<polyline fill="none" stroke="black" points="159,-447.5 283,-447.5 "/>
<text text-anchor="middle" x="221" y="-435.5" font-family="Helvetica,sans-Serif" font-size="10.00"> </text>
<polyline fill="none" stroke="black" points="159,-428.5 283,-428.5 "/>
<text text-anchor="start" x="167" y="-416.5" font-family="Helvetica,sans-Serif" font-size="10.00">+ DataLoader()</text>
<text text-anchor="start" x="167" y="-405.5" font-family="Helvetica,sans-Serif" font-size="10.00">+ ~DataLoader()</text>
<text text-anchor="start" x="167" y="-394.5" font-family="Helvetica,sans-Serif" font-size="10.00">+ loadData()</text>
<text text-anchor="start" x="167" y="-383.5" font-family="Helvetica,sans-Serif" font-size="10.00">+ isVerbose()</text>
<text text-anchor="start" x="167" y="-372.5" font-family="Helvetica,sans-Serif" font-size="10.00">+ setVerbose()</text>
</a>
</g>
</g>
<!-- Node3&#45;&gt;Node4 -->
<g id="edge4" class="edge"><title>Node3&#45;&gt;Node4</title>
<path fill="none" stroke="#404040" d="M138.525,-529.064C147.681,-517.234 159.22,-502.325 170.742,-487.437"/>
<polygon fill="none" stroke="#404040" points="170.941,-487.18 171.45,-479.987 178.286,-477.69 177.777,-484.883 170.941,-487.18"/>
<text text-anchor="middle" x="193.5" y="-499" font-family="Helvetica,sans-Serif" font-size="10.00"> #m_verbose</text>
</g>
<!-- Node4&#45;&gt;Node2 -->
<g id="edge3" class="edge"><title>Node4&#45;&gt;Node2</title>
<path fill="none" stroke="orange" d="M169.316,-357.197C158.652,-344.135 147.5,-330.477 137.092,-317.73"/>
<polygon fill="orange" stroke="orange" points="166.847,-359.707 175.882,-365.239 172.269,-355.28 166.847,-359.707"/>
<text text-anchor="middle" x="225.5" y="-339" font-family="Helvetica,sans-Serif" font-size="10.00"> &lt; Asset::AnimationData &gt;</text>
</g>
</g>
</svg>
