<?xml version="1.0" encoding="UTF-8" standalone="no"?>
<!DOCTYPE svg PUBLIC "-//W3C//DTD SVG 1.1//EN"
 "http://www.w3.org/Graphics/SVG/1.1/DTD/svg11.dtd">
<!-- Generated by graphviz version 2.38.0 (20140413.2041)
 -->
<!-- Title: Ra::Core::TopologicalMesh::interpolateAllPropsOnFaces Pages: 1 -->
<svg width="523pt" height="284pt"
 viewBox="0.00 0.00 523.00 284.00" xmlns="http://www.w3.org/2000/svg" xmlns:xlink="http://www.w3.org/1999/xlink">
<g id="graph0" class="graph" transform="scale(1 1) rotate(0) translate(4 280)">
<title>Ra::Core::TopologicalMesh::interpolateAllPropsOnFaces</title>
<polygon fill="white" stroke="none" points="-4,4 -4,-280 519,-280 519,4 -4,4"/>
<!-- Node1 -->
<g id="node1" class="node"><title>Node1</title>
<polygon fill="#bfbfbf" stroke="black" points="0,-122.5 0,-152.5 153,-152.5 153,-122.5 0,-122.5"/>
<text text-anchor="start" x="8" y="-140.5" font-family="Helvetica,sans-Serif" font-size="10.00">Ra::Core::TopologicalMesh</text>
<text text-anchor="middle" x="76.5" y="-129.5" font-family="Helvetica,sans-Serif" font-size="10.00">::interpolateAllPropsOnFaces</text>
</g>
<!-- Node2 -->
<g id="node2" class="node"><title>Node2</title>
<g id="a_node2"><a xlink:href="classRa_1_1Core_1_1TopologicalMesh.html#a0294459ae0b252566b228c8caa6f9d8b" target="_top" xlink:title="Interpolate normal property on face center. ">
<polygon fill="white" stroke="black" points="189,-245.5 189,-275.5 339,-275.5 339,-245.5 189,-245.5"/>
<text text-anchor="start" x="197" y="-263.5" font-family="Helvetica,sans-Serif" font-size="10.00">Ra::Core::TopologicalMesh</text>
<text text-anchor="middle" x="264" y="-252.5" font-family="Helvetica,sans-Serif" font-size="10.00">::interpolateNormalOnFaces</text>
</a>
</g>
</g>
<!-- Node1&#45;&gt;Node2 -->
<g id="edge1" class="edge"><title>Node1&#45;&gt;Node2</title>
<path fill="none" stroke="midnightblue" d="M90.7789,-152.734C110.295,-174.251 148.784,-213.482 189,-236.5 192.022,-238.23 195.186,-239.854 198.432,-241.378"/>
<polygon fill="midnightblue" stroke="midnightblue" points="197.183,-244.651 207.751,-245.405 199.96,-238.225 197.183,-244.651"/>
</g>
<!-- Node4 -->
<g id="node4" class="node"><title>Node4</title>
<g id="a_node4"><a xlink:href="classRa_1_1Core_1_1TopologicalMesh.html#aea2f723e3af4a564d62715713f416d08" target="_top" xlink:title="Interpolate hprops on face center. ">
<polygon fill="white" stroke="black" points="193,-196.5 193,-226.5 335,-226.5 335,-196.5 193,-196.5"/>
<text text-anchor="start" x="201" y="-214.5" font-family="Helvetica,sans-Serif" font-size="10.00">Ra::Core::TopologicalMesh</text>
<text text-anchor="middle" x="264" y="-203.5" font-family="Helvetica,sans-Serif" font-size="10.00">::interpolatePropsOnFaces</text>
</a>
</g>
</g>
<!-- Node1&#45;&gt;Node4 -->
<g id="edge3" class="edge"><title>Node1&#45;&gt;Node4</title>
<path fill="none" stroke="midnightblue" d="M108.837,-152.645C130.974,-163.073 161.481,-176.903 189,-187.5 194.042,-189.441 199.314,-191.362 204.623,-193.221"/>
<polygon fill="midnightblue" stroke="midnightblue" points="203.58,-196.563 214.175,-196.492 205.848,-189.941 203.58,-196.563"/>
</g>
<!-- Node5 -->
<g id="node5" class="node"><title>Node5</title>
<g id="a_node5"><a xlink:href="classRa_1_1Core_1_1TopologicalMesh.html#aa1016df75edb65e69fcdec5465e49245" target="_top" xlink:title="Ra::Core::TopologicalMesh\l::getFloatPropsHandles">
<polygon fill="white" stroke="black" points="194,-147.5 194,-177.5 334,-177.5 334,-147.5 194,-147.5"/>
<text text-anchor="start" x="202" y="-165.5" font-family="Helvetica,sans-Serif" font-size="10.00">Ra::Core::TopologicalMesh</text>
<text text-anchor="middle" x="264" y="-154.5" font-family="Helvetica,sans-Serif" font-size="10.00">::getFloatPropsHandles</text>
</a>
</g>
</g>
<!-- Node1&#45;&gt;Node5 -->
<g id="edge5" class="edge"><title>Node1&#45;&gt;Node5</title>
<path fill="none" stroke="midnightblue" d="M153.217,-147.705C163.286,-149.061 173.631,-150.456 183.757,-151.82"/>
<polygon fill="midnightblue" stroke="midnightblue" points="183.414,-155.306 193.792,-153.173 184.349,-148.368 183.414,-155.306"/>
</g>
<!-- Node6 -->
<g id="node6" class="node"><title>Node6</title>
<g id="a_node6"><a xlink:href="classRa_1_1Core_1_1TopologicalMesh.html#acf1e58078add6e5cc9ce13b30fb3baf3" target="_top" xlink:title="Ra::Core::TopologicalMesh\l::getVector2PropsHandles">
<polygon fill="white" stroke="black" points="193.5,-98.5 193.5,-128.5 334.5,-128.5 334.5,-98.5 193.5,-98.5"/>
<text text-anchor="start" x="201.5" y="-116.5" font-family="Helvetica,sans-Serif" font-size="10.00">Ra::Core::TopologicalMesh</text>
<text text-anchor="middle" x="264" y="-105.5" font-family="Helvetica,sans-Serif" font-size="10.00">::getVector2PropsHandles</text>
</a>
</g>
</g>
<!-- Node1&#45;&gt;Node6 -->
<g id="edge6" class="edge"><title>Node1&#45;&gt;Node6</title>
<path fill="none" stroke="midnightblue" d="M153.217,-127.704C163.211,-126.411 173.477,-125.083 183.53,-123.782"/>
<polygon fill="midnightblue" stroke="midnightblue" points="184.027,-127.247 193.495,-122.493 183.129,-120.305 184.027,-127.247"/>
</g>
<!-- Node7 -->
<g id="node7" class="node"><title>Node7</title>
<g id="a_node7"><a xlink:href="classRa_1_1Core_1_1TopologicalMesh.html#a6865aee84eb0d92f6acc12081bf8a6f8" target="_top" xlink:title="Ra::Core::TopologicalMesh\l::getVector3PropsHandles">
<polygon fill="white" stroke="black" points="193.5,-49.5 193.5,-79.5 334.5,-79.5 334.5,-49.5 193.5,-49.5"/>
<text text-anchor="start" x="201.5" y="-67.5" font-family="Helvetica,sans-Serif" font-size="10.00">Ra::Core::TopologicalMesh</text>
<text text-anchor="middle" x="264" y="-56.5" font-family="Helvetica,sans-Serif" font-size="10.00">::getVector3PropsHandles</text>
</a>
</g>
</g>
<!-- Node1&#45;&gt;Node7 -->
<g id="edge7" class="edge"><title>Node1&#45;&gt;Node7</title>
<path fill="none" stroke="midnightblue" d="M110.877,-122.294C132.88,-112.478 162.435,-99.6865 189,-89.5 194.816,-87.2697 200.928,-85.0348 207.042,-82.8688"/>
<polygon fill="midnightblue" stroke="midnightblue" points="208.319,-86.1302 216.609,-79.5324 206.014,-79.5206 208.319,-86.1302"/>
</g>
<!-- Node8 -->
<g id="node8" class="node"><title>Node8</title>
<g id="a_node8"><a xlink:href="classRa_1_1Core_1_1TopologicalMesh.html#a938483e7f6900eeb3914d662b9aac21c" target="_top" xlink:title="Ra::Core::TopologicalMesh\l::getVector4PropsHandles">
<polygon fill="white" stroke="black" points="193.5,-0.5 193.5,-30.5 334.5,-30.5 334.5,-0.5 193.5,-0.5"/>
<text text-anchor="start" x="201.5" y="-18.5" font-family="Helvetica,sans-Serif" font-size="10.00">Ra::Core::TopologicalMesh</text>
<text text-anchor="middle" x="264" y="-7.5" font-family="Helvetica,sans-Serif" font-size="10.00">::getVector4PropsHandles</text>
</a>
</g>
</g>
<!-- Node1&#45;&gt;Node8 -->
<g id="edge8" class="edge"><title>Node1&#45;&gt;Node8</title>
<path fill="none" stroke="midnightblue" d="M91.2129,-122.302C110.955,-101.245 149.386,-63.2278 189,-40.5 192.705,-38.3743 196.619,-36.3931 200.634,-34.5532"/>
<polygon fill="midnightblue" stroke="midnightblue" points="202.301,-37.6478 210.135,-30.5148 199.562,-31.2056 202.301,-37.6478"/>
</g>
<!-- Node3 -->
<g id="node3" class="node"><title>Node3</title>
<g id="a_node3"><a xlink:href="classRa_1_1Core_1_1TopologicalMesh.html#a94c32854d7aa51edc42d5d1dd70856f3" target="_top" xlink:title="Return the half&#45;edge associated with a given vertex and face. ">
<polygon fill="white" stroke="black" points="375,-220.5 375,-250.5 515,-250.5 515,-220.5 375,-220.5"/>
<text text-anchor="start" x="383" y="-238.5" font-family="Helvetica,sans-Serif" font-size="10.00">Ra::Core::TopologicalMesh</text>
<text text-anchor="middle" x="445" y="-227.5" font-family="Helvetica,sans-Serif" font-size="10.00">::halfedge_handle</text>
</a>
</g>
</g>
<!-- Node2&#45;&gt;Node3 -->
<g id="edge2" class="edge"><title>Node2&#45;&gt;Node3</title>
<path fill="none" stroke="midnightblue" d="M339.098,-250.151C347.601,-248.964 356.295,-247.749 364.861,-246.553"/>
<polygon fill="midnightblue" stroke="midnightblue" points="365.419,-250.009 374.838,-245.159 364.45,-243.076 365.419,-250.009"/>
</g>
<!-- Node4&#45;&gt;Node3 -->
<g id="edge4" class="edge"><title>Node4&#45;&gt;Node3</title>
<path fill="none" stroke="midnightblue" d="M335.232,-220.917C344.9,-222.213 354.883,-223.551 364.7,-224.868"/>
<polygon fill="midnightblue" stroke="midnightblue" points="364.474,-228.369 374.851,-226.229 365.405,-221.431 364.474,-228.369"/>
</g>
</g>
</svg>
