<?xml version="1.0" encoding="UTF-8" standalone="no"?>
<!DOCTYPE svg PUBLIC "-//W3C//DTD SVG 1.1//EN"
 "http://www.w3.org/Graphics/SVG/1.1/DTD/svg11.dtd">
<!-- Generated by graphviz version 2.38.0 (20140413.2041)
 -->
<!-- Title: Ra::Core::Task::~Task Pages: 1 -->
<svg width="296pt" height="66pt"
 viewBox="0.00 0.00 296.00 66.00" xmlns="http://www.w3.org/2000/svg" xmlns:xlink="http://www.w3.org/1999/xlink">
<g id="graph0" class="graph" transform="scale(1 1) rotate(0) translate(4 62)">
<title>Ra::Core::Task::~Task</title>
<polygon fill="white" stroke="none" points="-4,4 -4,-62 292,-62 292,4 -4,4"/>
<!-- Node1 -->
<g id="node1" class="node"><title>Node1</title>
<polygon fill="#bfbfbf" stroke="black" points="0,-19.5 0,-38.5 118,-38.5 118,-19.5 0,-19.5"/>
<text text-anchor="middle" x="59" y="-26.5" font-family="Helvetica,sans-Serif" font-size="10.00">Ra::Core::Task::~Task</text>
</g>
<!-- Node2 -->
<g id="node2" class="node"><title>Node2</title>
<g id="a_node2"><a xlink:href="classRa_1_1Core_1_1Task.html#a6c1ba13f4d8a2965f8b0b371c83efb69" target="_top" xlink:title="Return the name of the task. ">
<polygon fill="white" stroke="black" points="154,-38.5 154,-57.5 288,-57.5 288,-38.5 154,-38.5"/>
<text text-anchor="middle" x="221" y="-45.5" font-family="Helvetica,sans-Serif" font-size="10.00">Ra::Core::Task::getName</text>
</a>
</g>
</g>
<!-- Node1&#45;&gt;Node2 -->
<g id="edge1" class="edge"><title>Node1&#45;&gt;Node2</title>
<path fill="none" stroke="midnightblue" d="M118.216,-35.9132C126.565,-36.9046 135.256,-37.9367 143.887,-38.9616"/>
<polygon fill="midnightblue" stroke="midnightblue" points="143.624,-42.4549 153.967,-40.1586 144.45,-35.5037 143.624,-42.4549"/>
</g>
<!-- Node3 -->
<g id="node3" class="node"><title>Node3</title>
<g id="a_node3"><a xlink:href="classRa_1_1Core_1_1Task.html#a949ed1549444f19d3e74e044e0166a07" target="_top" xlink:title="Do the task job. Will be called from the task queue threads. ">
<polygon fill="white" stroke="black" points="157.5,-0.5 157.5,-19.5 284.5,-19.5 284.5,-0.5 157.5,-0.5"/>
<text text-anchor="middle" x="221" y="-7.5" font-family="Helvetica,sans-Serif" font-size="10.00">Ra::Core::Task::process</text>
</a>
</g>
</g>
<!-- Node1&#45;&gt;Node3 -->
<g id="edge2" class="edge"><title>Node1&#45;&gt;Node3</title>
<path fill="none" stroke="midnightblue" d="M118.216,-22.0868C127.633,-20.9686 137.486,-19.7986 147.196,-18.6455"/>
<polygon fill="midnightblue" stroke="midnightblue" points="147.722,-22.1077 157.239,-17.4529 146.896,-15.1566 147.722,-22.1077"/>
</g>
</g>
</svg>
