<?xml version="1.0" encoding="UTF-8" standalone="no"?>
<!DOCTYPE svg PUBLIC "-//W3C//DTD SVG 1.1//EN"
 "http://www.w3.org/Graphics/SVG/1.1/DTD/svg11.dtd">
<!-- Generated by graphviz version 2.38.0 (20140413.2041)
 -->
<!-- Title: Ra::Core::TopologicalMesh::TopologicalMesh Pages: 1 -->
<svg width="683pt" height="302pt"
 viewBox="0.00 0.00 683.00 301.50" xmlns="http://www.w3.org/2000/svg" xmlns:xlink="http://www.w3.org/1999/xlink">
<g id="graph0" class="graph" transform="scale(1 1) rotate(0) translate(4 297.5)">
<title>Ra::Core::TopologicalMesh::TopologicalMesh</title>
<polygon fill="white" stroke="none" points="-4,4 -4,-297.5 679,-297.5 679,4 -4,4"/>
<!-- Node1 -->
<g id="node1" class="node"><title>Node1</title>
<polygon fill="#bfbfbf" stroke="black" points="0,-105 0,-135 140,-135 140,-105 0,-105"/>
<text text-anchor="start" x="8" y="-123" font-family="Helvetica,sans-Serif" font-size="10.00">Ra::Core::TopologicalMesh</text>
<text text-anchor="middle" x="70" y="-112" font-family="Helvetica,sans-Serif" font-size="10.00">::TopologicalMesh</text>
</g>
<!-- Node2 -->
<g id="node2" class="node"><title>Node2</title>
<g id="a_node2"><a xlink:href="namespaceRa_1_1Core.html#abb46c5a60ddd6094b40710dcb9e745f5" target="_top" xlink:title="Ra::Core::addAttribPairToTopo">
<polygon fill="white" stroke="black" points="176,-219.5 176,-238.5 332,-238.5 332,-219.5 176,-219.5"/>
<text text-anchor="middle" x="254" y="-226.5" font-family="Helvetica,sans-Serif" font-size="10.00">Ra::Core::addAttribPairToTopo</text>
</a>
</g>
</g>
<!-- Node1&#45;&gt;Node2 -->
<g id="edge1" class="edge"><title>Node1&#45;&gt;Node2</title>
<path fill="none" stroke="midnightblue" d="M87.7512,-135.25C107.623,-152.726 142.317,-181.351 176,-200 187.13,-206.162 199.836,-211.547 211.673,-215.949"/>
<polygon fill="midnightblue" stroke="midnightblue" points="210.765,-219.341 221.359,-219.411 213.121,-212.749 210.765,-219.341"/>
</g>
<!-- Node6 -->
<g id="node6" class="node"><title>Node6</title>
<g id="a_node6"><a xlink:href="classRa_1_1Core_1_1TriangleMesh.html#a495116f40cfec8bb6504698d786d4b8c" target="_top" xlink:title="Access the vertices positions. ">
<polygon fill="white" stroke="black" points="375.5,-165 375.5,-195 500.5,-195 500.5,-165 375.5,-165"/>
<text text-anchor="start" x="383.5" y="-183" font-family="Helvetica,sans-Serif" font-size="10.00">Ra::Core::TriangleMesh</text>
<text text-anchor="middle" x="438" y="-172" font-family="Helvetica,sans-Serif" font-size="10.00">::vertices</text>
</a>
</g>
</g>
<!-- Node1&#45;&gt;Node6 -->
<g id="edge5" class="edge"><title>Node1&#45;&gt;Node6</title>
<path fill="none" stroke="midnightblue" d="M98.1291,-135.13C118.793,-145.839 148.311,-159.422 176,-166 238.705,-180.897 312.171,-183.573 365.155,-183.004"/>
<polygon fill="midnightblue" stroke="midnightblue" points="365.524,-186.499 375.47,-182.849 365.419,-179.5 365.524,-186.499"/>
</g>
<!-- Node8 -->
<g id="node8" class="node"><title>Node8</title>
<g id="a_node8"><a xlink:href="classRa_1_1Core_1_1TriangleMesh.html#a40d31b7b2943947d6eac5d906f0182fd" target="_top" xlink:title="Access the vertices normals. ">
<polygon fill="white" stroke="black" points="191.5,-127 191.5,-157 316.5,-157 316.5,-127 191.5,-127"/>
<text text-anchor="start" x="199.5" y="-145" font-family="Helvetica,sans-Serif" font-size="10.00">Ra::Core::TriangleMesh</text>
<text text-anchor="middle" x="254" y="-134" font-family="Helvetica,sans-Serif" font-size="10.00">::normals</text>
</a>
</g>
</g>
<!-- Node1&#45;&gt;Node8 -->
<g id="edge7" class="edge"><title>Node1&#45;&gt;Node8</title>
<path fill="none" stroke="midnightblue" d="M140.066,-128.349C153.528,-129.976 167.672,-131.686 181.22,-133.323"/>
<polygon fill="midnightblue" stroke="midnightblue" points="181.095,-136.834 191.443,-134.559 181.935,-129.884 181.095,-136.834"/>
</g>
<!-- Node9 -->
<g id="node9" class="node"><title>Node9</title>
<g id="a_node9"><a xlink:href="classRa_1_1Core_1_1TopologicalMesh.html#a94c32854d7aa51edc42d5d1dd70856f3" target="_top" xlink:title="Return the half&#45;edge associated with a given vertex and face. ">
<polygon fill="white" stroke="black" points="368,-69 368,-99 508,-99 508,-69 368,-69"/>
<text text-anchor="start" x="376" y="-87" font-family="Helvetica,sans-Serif" font-size="10.00">Ra::Core::TopologicalMesh</text>
<text text-anchor="middle" x="438" y="-76" font-family="Helvetica,sans-Serif" font-size="10.00">::halfedge_handle</text>
</a>
</g>
</g>
<!-- Node1&#45;&gt;Node9 -->
<g id="edge9" class="edge"><title>Node1&#45;&gt;Node9</title>
<path fill="none" stroke="midnightblue" d="M140.272,-113.186C202.139,-107.101 292.739,-98.1897 357.532,-91.8166"/>
<polygon fill="midnightblue" stroke="midnightblue" points="358.091,-95.2785 367.701,-90.8163 357.406,-88.3121 358.091,-95.2785"/>
</g>
<!-- Node10 -->
<g id="node10" class="node"><title>Node10</title>
<g id="a_node10"><a xlink:href="classRa_1_1Core_1_1TopologicalMesh.html#a5c4e128a2964b81044fc1a97063cf4d2" target="_top" xlink:title="Set normal of the vertex vh, when member of fh. ">
<polygon fill="white" stroke="black" points="184,-39 184,-69 324,-69 324,-39 184,-39"/>
<text text-anchor="start" x="192" y="-57" font-family="Helvetica,sans-Serif" font-size="10.00">Ra::Core::TopologicalMesh</text>
<text text-anchor="middle" x="254" y="-46" font-family="Helvetica,sans-Serif" font-size="10.00">::set_normal</text>
</a>
</g>
</g>
<!-- Node1&#45;&gt;Node10 -->
<g id="edge10" class="edge"><title>Node1&#45;&gt;Node10</title>
<path fill="none" stroke="midnightblue" d="M112.754,-104.858C139.228,-95.258 173.659,-82.7721 201.78,-72.5744"/>
<polygon fill="midnightblue" stroke="midnightblue" points="203.232,-75.7708 211.44,-69.0713 200.846,-69.1901 203.232,-75.7708"/>
</g>
<!-- Node11 -->
<g id="node11" class="node"><title>Node11</title>
<g id="a_node11"><a xlink:href="namespaceRa_1_1Core.html#aadbec8ca5a459657864d0f6be0a21b72" target="_top" xlink:title="Ra::Core::copyAttribToTopo">
<polygon fill="white" stroke="black" points="182.5,-0.5 182.5,-19.5 325.5,-19.5 325.5,-0.5 182.5,-0.5"/>
<text text-anchor="middle" x="254" y="-7.5" font-family="Helvetica,sans-Serif" font-size="10.00">Ra::Core::copyAttribToTopo</text>
</a>
</g>
</g>
<!-- Node1&#45;&gt;Node11 -->
<g id="edge12" class="edge"><title>Node1&#45;&gt;Node11</title>
<path fill="none" stroke="midnightblue" d="M83.9953,-104.962C102.407,-84.6241 138.089,-48.641 176,-29 180.545,-26.6456 185.393,-24.5743 190.361,-22.7536"/>
<polygon fill="midnightblue" stroke="midnightblue" points="191.623,-26.0223 200.013,-19.5525 189.42,-19.3781 191.623,-26.0223"/>
</g>
<!-- Node3 -->
<g id="node3" class="node"><title>Node3</title>
<g id="a_node3"><a xlink:href="classRa_1_1Core_1_1TriangleMesh.html#a2050187a77536bb43bfa2e25c25389c6" target="_top" xlink:title="Return the Handle to the attribute with the given name if it exists, an invalid handle otherwise...">
<polygon fill="white" stroke="black" points="375.5,-263 375.5,-293 500.5,-293 500.5,-263 375.5,-263"/>
<text text-anchor="start" x="383.5" y="-281" font-family="Helvetica,sans-Serif" font-size="10.00">Ra::Core::TriangleMesh</text>
<text text-anchor="middle" x="438" y="-270" font-family="Helvetica,sans-Serif" font-size="10.00">::getAttribHandle</text>
</a>
</g>
</g>
<!-- Node2&#45;&gt;Node3 -->
<g id="edge2" class="edge"><title>Node2&#45;&gt;Node3</title>
<path fill="none" stroke="midnightblue" d="M290.523,-238.564C313.465,-244.74 344.013,-252.965 371.274,-260.304"/>
<polygon fill="midnightblue" stroke="midnightblue" points="370.582,-263.743 381.148,-262.963 372.402,-256.984 370.582,-263.743"/>
</g>
<!-- Node5 -->
<g id="node5" class="node"><title>Node5</title>
<g id="a_node5"><a xlink:href="classRa_1_1Core_1_1AttribBase.html#a8bc2827bfe23f9c6def2647a946ebdc8" target="_top" xlink:title="Ra::Core::AttribBase\l::getName">
<polygon fill="white" stroke="black" points="381.5,-214 381.5,-244 494.5,-244 494.5,-214 381.5,-214"/>
<text text-anchor="start" x="389.5" y="-232" font-family="Helvetica,sans-Serif" font-size="10.00">Ra::Core::AttribBase</text>
<text text-anchor="middle" x="438" y="-221" font-family="Helvetica,sans-Serif" font-size="10.00">::getName</text>
</a>
</g>
</g>
<!-- Node2&#45;&gt;Node5 -->
<g id="edge4" class="edge"><title>Node2&#45;&gt;Node5</title>
<path fill="none" stroke="midnightblue" d="M332.184,-229C345.257,-229 358.719,-229 371.457,-229"/>
<polygon fill="midnightblue" stroke="midnightblue" points="371.496,-232.5 381.496,-229 371.496,-225.5 371.496,-232.5"/>
</g>
<!-- Node4 -->
<g id="node4" class="node"><title>Node4</title>
<g id="a_node4"><a xlink:href="classRa_1_1Core_1_1AttribManager.html#a83cb9e1c9e687d161a3070ffbdf07b22" target="_top" xlink:title="findAttrib Grab an attribute handler by name. ">
<polygon fill="white" stroke="black" points="544,-263 544,-293 675,-293 675,-263 544,-263"/>
<text text-anchor="start" x="552" y="-281" font-family="Helvetica,sans-Serif" font-size="10.00">Ra::Core::AttribManager</text>
<text text-anchor="middle" x="609.5" y="-270" font-family="Helvetica,sans-Serif" font-size="10.00">::findAttrib</text>
</a>
</g>
</g>
<!-- Node3&#45;&gt;Node4 -->
<g id="edge3" class="edge"><title>Node3&#45;&gt;Node4</title>
<path fill="none" stroke="midnightblue" d="M500.673,-278C511.399,-278 522.658,-278 533.69,-278"/>
<polygon fill="midnightblue" stroke="midnightblue" points="533.735,-281.5 543.735,-278 533.735,-274.5 533.735,-281.5"/>
</g>
<!-- Node7 -->
<g id="node7" class="node"><title>Node7</title>
<g id="a_node7"><a xlink:href="classRa_1_1Core_1_1AttribManager.html#aaa6088620425c1e1d74b50f1b50eb596" target="_top" xlink:title="Get attribute by handle. ">
<polygon fill="white" stroke="black" points="544,-121 544,-151 675,-151 675,-121 544,-121"/>
<text text-anchor="start" x="552" y="-139" font-family="Helvetica,sans-Serif" font-size="10.00">Ra::Core::AttribManager</text>
<text text-anchor="middle" x="609.5" y="-128" font-family="Helvetica,sans-Serif" font-size="10.00">::getAttrib</text>
</a>
</g>
</g>
<!-- Node6&#45;&gt;Node7 -->
<g id="edge6" class="edge"><title>Node6&#45;&gt;Node7</title>
<path fill="none" stroke="midnightblue" d="M496.858,-164.981C510.962,-161.32 526.174,-157.371 540.695,-153.601"/>
<polygon fill="midnightblue" stroke="midnightblue" points="541.815,-156.927 550.615,-151.026 540.056,-150.151 541.815,-156.927"/>
</g>
<!-- Node8&#45;&gt;Node7 -->
<g id="edge8" class="edge"><title>Node8&#45;&gt;Node7</title>
<path fill="none" stroke="midnightblue" d="M316.575,-140.955C376.942,-139.93 469.058,-138.367 533.629,-137.271"/>
<polygon fill="midnightblue" stroke="midnightblue" points="533.807,-140.768 543.746,-137.099 533.688,-133.769 533.807,-140.768"/>
</g>
<!-- Node10&#45;&gt;Node9 -->
<g id="edge11" class="edge"><title>Node10&#45;&gt;Node9</title>
<path fill="none" stroke="midnightblue" d="M324.066,-65.3845C335.188,-67.2178 346.775,-69.1277 358.107,-70.9956"/>
<polygon fill="midnightblue" stroke="midnightblue" points="357.545,-74.4502 367.981,-72.6233 358.684,-67.5434 357.545,-74.4502"/>
</g>
<!-- Node12 -->
<g id="node12" class="node"><title>Node12</title>
<g id="a_node12"><a xlink:href="classRa_1_1Core_1_1TriangleMesh.html#a01e44dce5a80eae1220d9e7988d4fe03" target="_top" xlink:title="Get attribute by handle. ">
<polygon fill="white" stroke="black" points="375.5,-4 375.5,-34 500.5,-34 500.5,-4 375.5,-4"/>
<text text-anchor="start" x="383.5" y="-22" font-family="Helvetica,sans-Serif" font-size="10.00">Ra::Core::TriangleMesh</text>
<text text-anchor="middle" x="438" y="-11" font-family="Helvetica,sans-Serif" font-size="10.00">::getAttrib</text>
</a>
</g>
</g>
<!-- Node11&#45;&gt;Node12 -->
<g id="edge13" class="edge"><title>Node11&#45;&gt;Node12</title>
<path fill="none" stroke="midnightblue" d="M325.626,-13.4925C338.557,-14.1319 352.065,-14.7999 365.034,-15.4413"/>
<polygon fill="midnightblue" stroke="midnightblue" points="365.137,-18.9505 375.298,-15.9488 365.483,-11.9591 365.137,-18.9505"/>
</g>
<!-- Node12&#45;&gt;Node7 -->
<g id="edge14" class="edge"><title>Node12&#45;&gt;Node7</title>
<path fill="none" stroke="midnightblue" d="M467.027,-34.1671C479.762,-41.3314 494.88,-50.2235 508,-59 534.057,-76.4304 562.274,-98.339 582.157,-114.326"/>
<polygon fill="midnightblue" stroke="midnightblue" points="580.162,-117.214 590.137,-120.784 584.566,-111.773 580.162,-117.214"/>
</g>
</g>
</svg>
