<?xml version="1.0" encoding="UTF-8" standalone="no"?>
<!DOCTYPE svg PUBLIC "-//W3C//DTD SVG 1.1//EN"
 "http://www.w3.org/Graphics/SVG/1.1/DTD/svg11.dtd">
<!-- Generated by graphviz version 2.38.0 (20140413.2041)
 -->
<!-- Title: FILELog Pages: 1 -->
<svg width="208pt" height="883pt"
 viewBox="0.00 0.00 207.50 883.00" xmlns="http://www.w3.org/2000/svg" xmlns:xlink="http://www.w3.org/1999/xlink">
<g id="graph0" class="graph" transform="scale(1 1) rotate(0) translate(4 879)">
<title>FILELog</title>
<polygon fill="white" stroke="none" points="-4,4 -4,-879 203.5,-879 203.5,4 -4,4"/>
<!-- Node1 -->
<g id="node1" class="node"><title>Node1</title>
<polygon fill="#bfbfbf" stroke="black" points="56,-0.5 56,-57.5 109,-57.5 109,-0.5 56,-0.5"/>
<text text-anchor="middle" x="82.5" y="-45.5" font-family="Helvetica,sans-Serif" font-size="10.00">FILELog</text>
<polyline fill="none" stroke="black" points="56,-38.5 109,-38.5 "/>
<text text-anchor="middle" x="82.5" y="-26.5" font-family="Helvetica,sans-Serif" font-size="10.00"> </text>
<polyline fill="none" stroke="black" points="56,-19.5 109,-19.5 "/>
<text text-anchor="middle" x="82.5" y="-7.5" font-family="Helvetica,sans-Serif" font-size="10.00"> </text>
</g>
<!-- Node2 -->
<g id="node2" class="node"><title>Node2</title>
<g id="a_node2"><a xlink:href="classLog.html" target="_top" xlink:title="{Log\&lt; Output2FILE \&gt;\n||+ Log()\l+ ~Log()\l+ Get()\l+ ReportingLevel()\l+ ToString()\l+ FromString()\l}">
<polygon fill="white" stroke="black" points="25.5,-95.5 25.5,-207.5 139.5,-207.5 139.5,-95.5 25.5,-95.5"/>
<text text-anchor="middle" x="82.5" y="-195.5" font-family="Helvetica,sans-Serif" font-size="10.00">Log&lt; Output2FILE &gt;</text>
<polyline fill="none" stroke="black" points="25.5,-188.5 139.5,-188.5 "/>
<text text-anchor="middle" x="82.5" y="-176.5" font-family="Helvetica,sans-Serif" font-size="10.00"> </text>
<polyline fill="none" stroke="black" points="25.5,-169.5 139.5,-169.5 "/>
<text text-anchor="start" x="33.5" y="-157.5" font-family="Helvetica,sans-Serif" font-size="10.00">+ Log()</text>
<text text-anchor="start" x="33.5" y="-146.5" font-family="Helvetica,sans-Serif" font-size="10.00">+ ~Log()</text>
<text text-anchor="start" x="33.5" y="-135.5" font-family="Helvetica,sans-Serif" font-size="10.00">+ Get()</text>
<text text-anchor="start" x="33.5" y="-124.5" font-family="Helvetica,sans-Serif" font-size="10.00">+ ReportingLevel()</text>
<text text-anchor="start" x="33.5" y="-113.5" font-family="Helvetica,sans-Serif" font-size="10.00">+ ToString()</text>
<text text-anchor="start" x="33.5" y="-102.5" font-family="Helvetica,sans-Serif" font-size="10.00">+ FromString()</text>
</a>
</g>
</g>
<!-- Node2&#45;&gt;Node1 -->
<g id="edge1" class="edge"><title>Node2&#45;&gt;Node1</title>
<path fill="none" stroke="midnightblue" d="M82.5,-85.1187C82.5,-75.478 82.5,-66.0138 82.5,-57.7231"/>
<polygon fill="none" stroke="midnightblue" points="79.0001,-85.1874 82.5,-95.1875 86.0001,-85.1875 79.0001,-85.1874"/>
</g>
<!-- Node3 -->
<g id="node3" class="node"><title>Node3</title>
<g id="a_node3"><a xlink:title="STL class. ">
<polygon fill="white" stroke="#bfbfbf" points="15,-415.5 15,-472.5 120,-472.5 120,-415.5 15,-415.5"/>
<text text-anchor="middle" x="67.5" y="-460.5" font-family="Helvetica,sans-Serif" font-size="10.00">std::ostringstream</text>
<polyline fill="none" stroke="#bfbfbf" points="15,-453.5 120,-453.5 "/>
<text text-anchor="middle" x="67.5" y="-441.5" font-family="Helvetica,sans-Serif" font-size="10.00"> </text>
<polyline fill="none" stroke="#bfbfbf" points="15,-434.5 120,-434.5 "/>
<text text-anchor="middle" x="67.5" y="-422.5" font-family="Helvetica,sans-Serif" font-size="10.00"> </text>
</a>
</g>
</g>
<!-- Node3&#45;&gt;Node2 -->
<g id="edge2" class="edge"><title>Node3&#45;&gt;Node2</title>
<path fill="none" stroke="#404040" d="M64.2903,-415.261C62.8137,-401.135 61.23,-383.676 60.5,-368 58.1639,-317.832 55.2007,-304.942 60.5,-255 61.7187,-243.515 63.6849,-231.426 65.9533,-219.738"/>
<polygon fill="none" stroke="#404040" points="66.0017,-219.501 63.286,-212.821 68.4078,-207.745 71.1235,-214.425 66.0017,-219.501"/>
<text text-anchor="middle" x="72" y="-309" font-family="Helvetica,sans-Serif" font-size="10.00"> #os</text>
</g>
<!-- Node8 -->
<g id="node8" class="node"><title>Node8</title>
<g id="a_node8"><a xlink:href="classLog.html" target="_top" xlink:title="{Log\&lt; T \&gt;\n||+ Log()\l+ ~Log()\l+ Get()\l+ ReportingLevel()\l+ ToString()\l+ FromString()\l}">
<polygon fill="white" stroke="black" points="93,-255.5 93,-367.5 198,-367.5 198,-255.5 93,-255.5"/>
<text text-anchor="middle" x="145.5" y="-355.5" font-family="Helvetica,sans-Serif" font-size="10.00">Log&lt; T &gt;</text>
<polyline fill="none" stroke="black" points="93,-348.5 198,-348.5 "/>
<text text-anchor="middle" x="145.5" y="-336.5" font-family="Helvetica,sans-Serif" font-size="10.00"> </text>
<polyline fill="none" stroke="black" points="93,-329.5 198,-329.5 "/>
<text text-anchor="start" x="101" y="-317.5" font-family="Helvetica,sans-Serif" font-size="10.00">+ Log()</text>
<text text-anchor="start" x="101" y="-306.5" font-family="Helvetica,sans-Serif" font-size="10.00">+ ~Log()</text>
<text text-anchor="start" x="101" y="-295.5" font-family="Helvetica,sans-Serif" font-size="10.00">+ Get()</text>
<text text-anchor="start" x="101" y="-284.5" font-family="Helvetica,sans-Serif" font-size="10.00">+ ReportingLevel()</text>
<text text-anchor="start" x="101" y="-273.5" font-family="Helvetica,sans-Serif" font-size="10.00">+ ToString()</text>
<text text-anchor="start" x="101" y="-262.5" font-family="Helvetica,sans-Serif" font-size="10.00">+ FromString()</text>
</a>
</g>
</g>
<!-- Node3&#45;&gt;Node8 -->
<g id="edge8" class="edge"><title>Node3&#45;&gt;Node8</title>
<path fill="none" stroke="#404040" d="M84.0418,-415.324C90.605,-404.344 98.4555,-391.209 106.316,-378.058"/>
<polygon fill="none" stroke="#404040" points="106.441,-377.849 106.086,-370.646 112.598,-367.548 112.953,-374.751 106.441,-377.849"/>
<text text-anchor="middle" x="111" y="-389" font-family="Helvetica,sans-Serif" font-size="10.00"> #os</text>
</g>
<!-- Node4 -->
<g id="node4" class="node"><title>Node4</title>
<g id="a_node4"><a xlink:title="STL class. ">
<polygon fill="white" stroke="#bfbfbf" points="0,-510.5 0,-578.5 135,-578.5 135,-510.5 0,-510.5"/>
<text text-anchor="start" x="8" y="-566.5" font-family="Helvetica,sans-Serif" font-size="10.00">std::basic_ostringstream</text>
<text text-anchor="middle" x="67.5" y="-555.5" font-family="Helvetica,sans-Serif" font-size="10.00">&lt; char &gt;</text>
<polyline fill="none" stroke="#bfbfbf" points="0,-548.5 135,-548.5 "/>
<text text-anchor="middle" x="67.5" y="-536.5" font-family="Helvetica,sans-Serif" font-size="10.00"> </text>
<polyline fill="none" stroke="#bfbfbf" points="0,-529.5 135,-529.5 "/>
<text text-anchor="middle" x="67.5" y="-517.5" font-family="Helvetica,sans-Serif" font-size="10.00"> </text>
</a>
</g>
</g>
<!-- Node4&#45;&gt;Node3 -->
<g id="edge3" class="edge"><title>Node4&#45;&gt;Node3</title>
<path fill="none" stroke="midnightblue" d="M67.5,-500.375C67.5,-490.94 67.5,-481.201 67.5,-472.571"/>
<polygon fill="none" stroke="midnightblue" points="64.0001,-500.427 67.5,-510.427 71.0001,-500.427 64.0001,-500.427"/>
</g>
<!-- Node5 -->
<g id="node5" class="node"><title>Node5</title>
<g id="a_node5"><a xlink:title="STL class. ">
<polygon fill="white" stroke="#bfbfbf" points="13.5,-616.5 13.5,-684.5 121.5,-684.5 121.5,-616.5 13.5,-616.5"/>
<text text-anchor="start" x="21.5" y="-672.5" font-family="Helvetica,sans-Serif" font-size="10.00">std::basic_ostream</text>
<text text-anchor="middle" x="67.5" y="-661.5" font-family="Helvetica,sans-Serif" font-size="10.00">&lt; Char &gt;</text>
<polyline fill="none" stroke="#bfbfbf" points="13.5,-654.5 121.5,-654.5 "/>
<text text-anchor="middle" x="67.5" y="-642.5" font-family="Helvetica,sans-Serif" font-size="10.00"> </text>
<polyline fill="none" stroke="#bfbfbf" points="13.5,-635.5 121.5,-635.5 "/>
<text text-anchor="middle" x="67.5" y="-623.5" font-family="Helvetica,sans-Serif" font-size="10.00"> </text>
</a>
</g>
</g>
<!-- Node5&#45;&gt;Node4 -->
<g id="edge4" class="edge"><title>Node5&#45;&gt;Node4</title>
<path fill="none" stroke="midnightblue" d="M67.5,-606.174C67.5,-597.002 67.5,-587.461 67.5,-578.734"/>
<polygon fill="none" stroke="midnightblue" points="64.0001,-606.308 67.5,-616.308 71.0001,-606.308 64.0001,-606.308"/>
</g>
<!-- Node6 -->
<g id="node6" class="node"><title>Node6</title>
<g id="a_node6"><a xlink:title="STL class. ">
<polygon fill="white" stroke="#bfbfbf" points="4.5,-722.5 4.5,-779.5 130.5,-779.5 130.5,-722.5 4.5,-722.5"/>
<text text-anchor="middle" x="67.5" y="-767.5" font-family="Helvetica,sans-Serif" font-size="10.00">std::basic_ios&lt; Char &gt;</text>
<polyline fill="none" stroke="#bfbfbf" points="4.5,-760.5 130.5,-760.5 "/>
<text text-anchor="middle" x="67.5" y="-748.5" font-family="Helvetica,sans-Serif" font-size="10.00"> </text>
<polyline fill="none" stroke="#bfbfbf" points="4.5,-741.5 130.5,-741.5 "/>
<text text-anchor="middle" x="67.5" y="-729.5" font-family="Helvetica,sans-Serif" font-size="10.00"> </text>
</a>
</g>
</g>
<!-- Node6&#45;&gt;Node5 -->
<g id="edge5" class="edge"><title>Node6&#45;&gt;Node5</title>
<path fill="none" stroke="midnightblue" d="M67.5,-712.007C67.5,-702.962 67.5,-693.383 67.5,-684.578"/>
<polygon fill="none" stroke="midnightblue" points="64.0001,-712.3 67.5,-722.3 71.0001,-712.3 64.0001,-712.3"/>
</g>
<!-- Node7 -->
<g id="node7" class="node"><title>Node7</title>
<g id="a_node7"><a xlink:title="STL class. ">
<polygon fill="white" stroke="#bfbfbf" points="27.5,-817.5 27.5,-874.5 107.5,-874.5 107.5,-817.5 27.5,-817.5"/>
<text text-anchor="middle" x="67.5" y="-862.5" font-family="Helvetica,sans-Serif" font-size="10.00">std::ios_base</text>
<polyline fill="none" stroke="#bfbfbf" points="27.5,-855.5 107.5,-855.5 "/>
<text text-anchor="middle" x="67.5" y="-843.5" font-family="Helvetica,sans-Serif" font-size="10.00"> </text>
<polyline fill="none" stroke="#bfbfbf" points="27.5,-836.5 107.5,-836.5 "/>
<text text-anchor="middle" x="67.5" y="-824.5" font-family="Helvetica,sans-Serif" font-size="10.00"> </text>
</a>
</g>
</g>
<!-- Node7&#45;&gt;Node6 -->
<g id="edge6" class="edge"><title>Node7&#45;&gt;Node6</title>
<path fill="none" stroke="midnightblue" d="M67.5,-807.235C67.5,-798.028 67.5,-788.346 67.5,-779.705"/>
<polygon fill="none" stroke="midnightblue" points="64.0001,-807.349 67.5,-817.349 71.0001,-807.349 64.0001,-807.349"/>
</g>
<!-- Node8&#45;&gt;Node2 -->
<g id="edge7" class="edge"><title>Node8&#45;&gt;Node2</title>
<path fill="none" stroke="orange" d="M119.668,-245.716C114.64,-233.106 109.413,-219.996 104.522,-207.73"/>
<polygon fill="orange" stroke="orange" points="116.511,-247.247 123.466,-255.239 123.013,-244.654 116.511,-247.247"/>
<text text-anchor="middle" x="157.5" y="-229" font-family="Helvetica,sans-Serif" font-size="10.00"> &lt; Output2FILE &gt;</text>
</g>
</g>
</svg>
