<?xml version="1.0" encoding="UTF-8" standalone="no"?>
<!DOCTYPE svg PUBLIC "-//W3C//DTD SVG 1.1//EN"
 "http://www.w3.org/Graphics/SVG/1.1/DTD/svg11.dtd">
<!-- Generated by graphviz version 2.38.0 (20140413.2041)
 -->
<!-- Title: Ra::IO::AssimpAnimationDataLoader::loadData Pages: 1 -->
<svg width="918pt" height="605pt"
 viewBox="0.00 0.00 918.00 604.62" xmlns="http://www.w3.org/2000/svg" xmlns:xlink="http://www.w3.org/1999/xlink">
<g id="graph0" class="graph" transform="scale(1 1) rotate(0) translate(4 600.623)">
<title>Ra::IO::AssimpAnimationDataLoader::loadData</title>
<polygon fill="white" stroke="none" points="-4,4 -4,-600.623 914,-600.623 914,4 -4,4"/>
<!-- Node1 -->
<g id="node1" class="node"><title>Node1</title>
<polygon fill="#bfbfbf" stroke="black" points="0,-394.123 0,-424.123 158,-424.123 158,-394.123 0,-394.123"/>
<text text-anchor="start" x="8" y="-412.123" font-family="Helvetica,sans-Serif" font-size="10.00">Ra::IO::AssimpAnimationData</text>
<text text-anchor="middle" x="79" y="-401.123" font-family="Helvetica,sans-Serif" font-size="10.00">Loader::loadData</text>
</g>
<!-- Node2 -->
<g id="node2" class="node"><title>Node2</title>
<g id="a_node2"><a xlink:href="classRa_1_1IO_1_1AssimpAnimationDataLoader.html#a055e8ed9642a4a6131e6342e0855ef2b" target="_top" xlink:title="QUERY. ">
<polygon fill="white" stroke="black" points="194,-443.123 194,-473.123 352,-473.123 352,-443.123 194,-443.123"/>
<text text-anchor="start" x="202" y="-461.123" font-family="Helvetica,sans-Serif" font-size="10.00">Ra::IO::AssimpAnimationData</text>
<text text-anchor="middle" x="273" y="-450.123" font-family="Helvetica,sans-Serif" font-size="10.00">Loader::sceneHasAnimation</text>
</a>
</g>
</g>
<!-- Node1&#45;&gt;Node2 -->
<g id="edge1" class="edge"><title>Node1&#45;&gt;Node2</title>
<path fill="none" stroke="midnightblue" d="M138.911,-424.158C159.276,-429.355 182.272,-435.224 203.349,-440.603"/>
<polygon fill="midnightblue" stroke="midnightblue" points="202.645,-444.035 213.2,-443.117 204.376,-437.253 202.645,-444.035"/>
</g>
<!-- Node4 -->
<g id="node4" class="node"><title>Node4</title>
<g id="a_node4"><a xlink:href="classRa_1_1IO_1_1AssimpAnimationDataLoader.html#adf29077c0960683885c150703e49740f" target="_top" xlink:title="KEY FRAME. ">
<polygon fill="white" stroke="black" points="194,-345.123 194,-375.123 352,-375.123 352,-345.123 194,-345.123"/>
<text text-anchor="start" x="202" y="-363.123" font-family="Helvetica,sans-Serif" font-size="10.00">Ra::IO::AssimpAnimationData</text>
<text text-anchor="middle" x="273" y="-352.123" font-family="Helvetica,sans-Serif" font-size="10.00">Loader::loadAnimationData</text>
</a>
</g>
</g>
<!-- Node1&#45;&gt;Node4 -->
<g id="edge3" class="edge"><title>Node1&#45;&gt;Node4</title>
<path fill="none" stroke="midnightblue" d="M138.911,-394.088C159.276,-388.891 182.272,-383.022 203.349,-377.643"/>
<polygon fill="midnightblue" stroke="midnightblue" points="204.376,-380.993 213.2,-375.129 202.645,-374.211 204.376,-380.993"/>
</g>
<!-- Node3 -->
<g id="node3" class="node"><title>Node3</title>
<g id="a_node3"><a xlink:href="classRa_1_1IO_1_1AssimpAnimationDataLoader.html#ab0bc77b937a09f8e770b8826d526f980" target="_top" xlink:title="Ra::IO::AssimpAnimationData\lLoader::sceneAnimationSize">
<polygon fill="white" stroke="black" points="388,-468.123 388,-498.123 546,-498.123 546,-468.123 388,-468.123"/>
<text text-anchor="start" x="396" y="-486.123" font-family="Helvetica,sans-Serif" font-size="10.00">Ra::IO::AssimpAnimationData</text>
<text text-anchor="middle" x="467" y="-475.123" font-family="Helvetica,sans-Serif" font-size="10.00">Loader::sceneAnimationSize</text>
</a>
</g>
</g>
<!-- Node2&#45;&gt;Node3 -->
<g id="edge2" class="edge"><title>Node2&#45;&gt;Node3</title>
<path fill="none" stroke="midnightblue" d="M352.094,-468.291C360.601,-469.399 369.302,-470.532 377.918,-471.654"/>
<polygon fill="midnightblue" stroke="midnightblue" points="377.607,-475.143 387.975,-472.963 378.511,-468.201 377.607,-475.143"/>
</g>
<!-- Node4&#45;&gt;Node3 -->
<g id="edge4" class="edge"><title>Node4&#45;&gt;Node3</title>
<path fill="none" stroke="midnightblue" d="M289.711,-375.229C315.62,-399.885 366.572,-447.227 388,-459.123 391.225,-460.913 394.6,-462.587 398.062,-464.151"/>
<polygon fill="midnightblue" stroke="midnightblue" points="396.808,-467.42 407.385,-468.034 399.499,-460.958 396.808,-467.42"/>
</g>
<!-- Node5 -->
<g id="node5" class="node"><title>Node5</title>
<g id="a_node5"><a xlink:href="classRa_1_1IO_1_1AssimpAnimationDataLoader.html#ae6d5be5f9895033f807047b305b79ef8" target="_top" xlink:title="NAME. ">
<polygon fill="white" stroke="black" points="388,-27.1229 388,-57.1229 546,-57.1229 546,-27.1229 388,-27.1229"/>
<text text-anchor="start" x="396" y="-45.1229" font-family="Helvetica,sans-Serif" font-size="10.00">Ra::IO::AssimpAnimationData</text>
<text text-anchor="middle" x="467" y="-34.1229" font-family="Helvetica,sans-Serif" font-size="10.00">Loader::fetchName</text>
</a>
</g>
</g>
<!-- Node4&#45;&gt;Node5 -->
<g id="edge5" class="edge"><title>Node4&#45;&gt;Node5</title>
<path fill="none" stroke="midnightblue" d="M278.763,-344.984C291.843,-304.875 331.16,-193.573 388,-115.123 402.085,-95.6823 421.868,-77.2384 437.985,-63.7533"/>
<polygon fill="midnightblue" stroke="midnightblue" points="440.504,-66.2144 446.03,-57.1744 436.073,-60.7956 440.504,-66.2144"/>
</g>
<!-- Node8 -->
<g id="node8" class="node"><title>Node8</title>
<g id="a_node8"><a xlink:href="classRa_1_1IO_1_1AssimpAnimationDataLoader.html#a27689dc210ccf9597f87e330a97f8e9a" target="_top" xlink:title="TIME. ">
<polygon fill="white" stroke="black" points="388,-419.123 388,-449.123 546,-449.123 546,-419.123 388,-419.123"/>
<text text-anchor="start" x="396" y="-437.123" font-family="Helvetica,sans-Serif" font-size="10.00">Ra::IO::AssimpAnimationData</text>
<text text-anchor="middle" x="467" y="-426.123" font-family="Helvetica,sans-Serif" font-size="10.00">Loader::fetchTime</text>
</a>
</g>
</g>
<!-- Node4&#45;&gt;Node8 -->
<g id="edge8" class="edge"><title>Node4&#45;&gt;Node8</title>
<path fill="none" stroke="midnightblue" d="M313.317,-375.276C343.443,-386.888 385.172,-402.97 417.393,-415.389"/>
<polygon fill="midnightblue" stroke="midnightblue" points="416.474,-418.786 427.064,-419.116 418.991,-412.254 416.474,-418.786"/>
</g>
<!-- Node14 -->
<g id="node14" class="node"><title>Node14</title>
<g id="a_node14"><a xlink:href="classRa_1_1IO_1_1AssimpAnimationDataLoader.html#aa0ff91f44c0889489ef1370d4d041bfd" target="_top" xlink:title="Ra::IO::AssimpAnimationData\lLoader::fetchAnimation">
<polygon fill="white" stroke="black" points="388,-321.123 388,-351.123 546,-351.123 546,-321.123 388,-321.123"/>
<text text-anchor="start" x="396" y="-339.123" font-family="Helvetica,sans-Serif" font-size="10.00">Ra::IO::AssimpAnimationData</text>
<text text-anchor="middle" x="467" y="-328.123" font-family="Helvetica,sans-Serif" font-size="10.00">Loader::fetchAnimation</text>
</a>
</g>
</g>
<!-- Node4&#45;&gt;Node14 -->
<g id="edge14" class="edge"><title>Node4&#45;&gt;Node14</title>
<path fill="none" stroke="midnightblue" d="M352.094,-350.361C360.601,-349.298 369.302,-348.21 377.918,-347.133"/>
<polygon fill="midnightblue" stroke="midnightblue" points="378.487,-350.589 387.975,-345.876 377.619,-343.643 378.487,-350.589"/>
</g>
<!-- Node24 -->
<g id="node24" class="node"><title>Node24</title>
<g id="a_node24"><a xlink:href="classRa_1_1Asset_1_1AnimationData.html#a69850f70524d5c5b7d549a8837edd28b" target="_top" xlink:title="DEBUG. ">
<polygon fill="white" stroke="black" points="397,-125.123 397,-155.123 537,-155.123 537,-125.123 397,-125.123"/>
<text text-anchor="start" x="405" y="-143.123" font-family="Helvetica,sans-Serif" font-size="10.00">Ra::Asset::AnimationData</text>
<text text-anchor="middle" x="467" y="-132.123" font-family="Helvetica,sans-Serif" font-size="10.00">::displayInfo</text>
</a>
</g>
</g>
<!-- Node4&#45;&gt;Node24 -->
<g id="edge26" class="edge"><title>Node4&#45;&gt;Node24</title>
<path fill="none" stroke="midnightblue" d="M287.197,-345.001C320.217,-307.166 406.574,-208.216 445.932,-163.117"/>
<polygon fill="midnightblue" stroke="midnightblue" points="448.772,-165.186 452.711,-155.35 443.498,-160.583 448.772,-165.186"/>
</g>
<!-- Node6 -->
<g id="node6" class="node"><title>Node6</title>
<g id="a_node6"><a xlink:href="classRa_1_1Asset_1_1AnimationData.html#af45d542d021bbfcf85c60284bb649714" target="_top" xlink:title="NAME. ">
<polygon fill="white" stroke="black" points="593,-27.1229 593,-57.1229 733,-57.1229 733,-27.1229 593,-27.1229"/>
<text text-anchor="start" x="601" y="-45.1229" font-family="Helvetica,sans-Serif" font-size="10.00">Ra::Asset::AnimationData</text>
<text text-anchor="middle" x="663" y="-34.1229" font-family="Helvetica,sans-Serif" font-size="10.00">::setName</text>
</a>
</g>
</g>
<!-- Node5&#45;&gt;Node6 -->
<g id="edge6" class="edge"><title>Node5&#45;&gt;Node6</title>
<path fill="none" stroke="midnightblue" d="M546.069,-42.1229C558.16,-42.1229 570.66,-42.1229 582.777,-42.1229"/>
<polygon fill="midnightblue" stroke="midnightblue" points="582.848,-45.623 592.848,-42.1229 582.848,-38.623 582.848,-45.623"/>
</g>
<!-- Node7 -->
<g id="node7" class="node"><title>Node7</title>
<g id="a_node7"><a xlink:href="namespaceRa_1_1IO.html#aef6c50424873964fcea0008be55d4a34" target="_top" xlink:title="Ra::IO::assimpToCore">
<polygon fill="white" stroke="black" points="786.5,-116.623 786.5,-135.623 903.5,-135.623 903.5,-116.623 786.5,-116.623"/>
<text text-anchor="middle" x="845" y="-123.623" font-family="Helvetica,sans-Serif" font-size="10.00">Ra::IO::assimpToCore</text>
</a>
</g>
</g>
<!-- Node5&#45;&gt;Node7 -->
<g id="edge7" class="edge"><title>Node5&#45;&gt;Node7</title>
<path fill="none" stroke="midnightblue" d="M507.419,-26.9751C562.791,-8.20538 665.602,17.3452 744,-17.1229 786.109,-35.6363 818.247,-81.6036 833.753,-107.544"/>
<polygon fill="midnightblue" stroke="midnightblue" points="830.838,-109.494 838.868,-116.406 836.901,-105.996 830.838,-109.494"/>
</g>
<!-- Node9 -->
<g id="node9" class="node"><title>Node9</title>
<g id="a_node9"><a xlink:href="classRa_1_1Asset_1_1AnimationTime.html#a3d66a6bbd2d5bbcc7e69326bd00c820a" target="_top" xlink:title="Ra::Asset::AnimationTime\l::setStart">
<polygon fill="white" stroke="black" points="593,-517.123 593,-547.123 733,-547.123 733,-517.123 593,-517.123"/>
<text text-anchor="start" x="601" y="-535.123" font-family="Helvetica,sans-Serif" font-size="10.00">Ra::Asset::AnimationTime</text>
<text text-anchor="middle" x="663" y="-524.123" font-family="Helvetica,sans-Serif" font-size="10.00">::setStart</text>
</a>
</g>
</g>
<!-- Node8&#45;&gt;Node9 -->
<g id="edge9" class="edge"><title>Node8&#45;&gt;Node9</title>
<path fill="none" stroke="midnightblue" d="M528.631,-449.279C534.77,-452.048 540.69,-455.303 546,-459.123 567.936,-474.905 559.917,-492.547 582,-508.123 584.125,-509.622 586.346,-511.029 588.637,-512.349"/>
<polygon fill="midnightblue" stroke="midnightblue" points="587.282,-515.587 597.779,-517.024 590.469,-509.355 587.282,-515.587"/>
</g>
<!-- Node10 -->
<g id="node10" class="node"><title>Node10</title>
<g id="a_node10"><a xlink:href="classRa_1_1Asset_1_1AnimationTime.html#a99e02d1a87c8a6b61d1826592e191e50" target="_top" xlink:title="Ra::Asset::AnimationTime\l::setEnd">
<polygon fill="white" stroke="black" points="593,-566.123 593,-596.123 733,-596.123 733,-566.123 593,-566.123"/>
<text text-anchor="start" x="601" y="-584.123" font-family="Helvetica,sans-Serif" font-size="10.00">Ra::Asset::AnimationTime</text>
<text text-anchor="middle" x="663" y="-573.123" font-family="Helvetica,sans-Serif" font-size="10.00">::setEnd</text>
</a>
</g>
</g>
<!-- Node8&#45;&gt;Node10 -->
<g id="edge10" class="edge"><title>Node8&#45;&gt;Node10</title>
<path fill="none" stroke="midnightblue" d="M532.493,-449.285C537.404,-452.035 541.997,-455.284 546,-459.123 579.49,-491.239 548.211,-525.321 582,-557.123 583.27,-558.319 584.598,-559.455 585.975,-560.535"/>
<polygon fill="midnightblue" stroke="midnightblue" points="584.08,-563.478 594.34,-566.123 587.969,-557.658 584.08,-563.478"/>
</g>
<!-- Node11 -->
<g id="node11" class="node"><title>Node11</title>
<g id="a_node11"><a xlink:href="classRa_1_1Asset_1_1AnimationData.html#ada0a04150c4c9051261d95fcad8b78db" target="_top" xlink:title="Ra::Asset::AnimationData\l::setTime">
<polygon fill="white" stroke="black" points="593,-419.123 593,-449.123 733,-449.123 733,-419.123 593,-419.123"/>
<text text-anchor="start" x="601" y="-437.123" font-family="Helvetica,sans-Serif" font-size="10.00">Ra::Asset::AnimationData</text>
<text text-anchor="middle" x="663" y="-426.123" font-family="Helvetica,sans-Serif" font-size="10.00">::setTime</text>
</a>
</g>
</g>
<!-- Node8&#45;&gt;Node11 -->
<g id="edge11" class="edge"><title>Node8&#45;&gt;Node11</title>
<path fill="none" stroke="midnightblue" d="M546.069,-434.123C558.16,-434.123 570.66,-434.123 582.777,-434.123"/>
<polygon fill="midnightblue" stroke="midnightblue" points="582.848,-437.623 592.848,-434.123 582.848,-430.623 582.848,-437.623"/>
</g>
<!-- Node12 -->
<g id="node12" class="node"><title>Node12</title>
<g id="a_node12"><a xlink:href="classRa_1_1Asset_1_1AnimationData.html#a7a56f036e3a6b2a7db50ae0bd3a0fb32" target="_top" xlink:title="Ra::Asset::AnimationData\l::setTimeStep">
<polygon fill="white" stroke="black" points="593,-468.123 593,-498.123 733,-498.123 733,-468.123 593,-468.123"/>
<text text-anchor="start" x="601" y="-486.123" font-family="Helvetica,sans-Serif" font-size="10.00">Ra::Asset::AnimationData</text>
<text text-anchor="middle" x="663" y="-475.123" font-family="Helvetica,sans-Serif" font-size="10.00">::setTimeStep</text>
</a>
</g>
</g>
<!-- Node8&#45;&gt;Node12 -->
<g id="edge12" class="edge"><title>Node8&#45;&gt;Node12</title>
<path fill="none" stroke="midnightblue" d="M527.525,-449.158C548.102,-454.355 571.337,-460.224 592.634,-465.603"/>
<polygon fill="midnightblue" stroke="midnightblue" points="592.035,-469.061 602.588,-468.117 593.749,-462.274 592.035,-469.061"/>
</g>
<!-- Node13 -->
<g id="node13" class="node"><title>Node13</title>
<g id="a_node13"><a xlink:href="namespaceRa_1_1Core_1_1Algorithm.html#abebfe08bb2303204bea2baea8195439d" target="_top" xlink:title="Ra::Core::Algorithm\l::delta">
<polygon fill="white" stroke="black" points="790,-468.123 790,-498.123 900,-498.123 900,-468.123 790,-468.123"/>
<text text-anchor="start" x="798" y="-486.123" font-family="Helvetica,sans-Serif" font-size="10.00">Ra::Core::Algorithm</text>
<text text-anchor="middle" x="845" y="-475.123" font-family="Helvetica,sans-Serif" font-size="10.00">::delta</text>
</a>
</g>
</g>
<!-- Node12&#45;&gt;Node13 -->
<g id="edge13" class="edge"><title>Node12&#45;&gt;Node13</title>
<path fill="none" stroke="midnightblue" d="M733.078,-483.123C748.383,-483.123 764.543,-483.123 779.65,-483.123"/>
<polygon fill="midnightblue" stroke="midnightblue" points="779.918,-486.623 789.918,-483.123 779.918,-479.623 779.918,-486.623"/>
</g>
<!-- Node14&#45;&gt;Node11 -->
<g id="edge25" class="edge"><title>Node14&#45;&gt;Node11</title>
<path fill="none" stroke="midnightblue" d="M487.581,-351.326C509.525,-367.753 546.67,-393.765 582,-410.123 586.108,-412.025 590.404,-413.82 594.78,-415.506"/>
<polygon fill="midnightblue" stroke="midnightblue" points="593.855,-418.893 604.449,-419.021 596.247,-412.315 593.855,-418.893"/>
</g>
<!-- Node15 -->
<g id="node15" class="node"><title>Node15</title>
<g id="a_node15"><a xlink:href="classRa_1_1Asset_1_1AnimationData.html#abbf0364d025ccbeb3ae77ef211c1e855" target="_top" xlink:title="TIME. ">
<polygon fill="white" stroke="black" points="593,-174.123 593,-204.123 733,-204.123 733,-174.123 593,-174.123"/>
<text text-anchor="start" x="601" y="-192.123" font-family="Helvetica,sans-Serif" font-size="10.00">Ra::Asset::AnimationData</text>
<text text-anchor="middle" x="663" y="-181.123" font-family="Helvetica,sans-Serif" font-size="10.00">::getTime</text>
</a>
</g>
</g>
<!-- Node14&#45;&gt;Node15 -->
<g id="edge15" class="edge"><title>Node14&#45;&gt;Node15</title>
<path fill="none" stroke="midnightblue" d="M478.025,-320.827C495.842,-294.84 535.548,-242.078 582,-213.123 584.769,-211.397 587.669,-209.789 590.656,-208.292"/>
<polygon fill="midnightblue" stroke="midnightblue" points="592.174,-211.446 599.832,-204.124 589.28,-205.073 592.174,-211.446"/>
</g>
<!-- Node16 -->
<g id="node16" class="node"><title>Node16</title>
<g id="a_node16"><a xlink:href="classRa_1_1IO_1_1AssimpAnimationDataLoader.html#a130765ba65955c0d5c3217f813c0a812" target="_top" xlink:title="Ra::IO::AssimpAnimationData\lLoader::fetchHandleAnimation">
<polygon fill="white" stroke="black" points="582,-321.123 582,-351.123 744,-351.123 744,-321.123 582,-321.123"/>
<text text-anchor="start" x="590" y="-339.123" font-family="Helvetica,sans-Serif" font-size="10.00">Ra::IO::AssimpAnimationData</text>
<text text-anchor="middle" x="663" y="-328.123" font-family="Helvetica,sans-Serif" font-size="10.00">Loader::fetchHandleAnimation</text>
</a>
</g>
</g>
<!-- Node14&#45;&gt;Node16 -->
<g id="edge16" class="edge"><title>Node14&#45;&gt;Node16</title>
<path fill="none" stroke="midnightblue" d="M546.069,-336.123C554.544,-336.123 563.221,-336.123 571.825,-336.123"/>
<polygon fill="midnightblue" stroke="midnightblue" points="571.876,-339.623 581.876,-336.123 571.876,-332.623 571.876,-339.623"/>
</g>
<!-- Node21 -->
<g id="node21" class="node"><title>Node21</title>
<g id="a_node21"><a xlink:href="classRa_1_1Asset_1_1AnimationData.html#adf6d483b196fea688300b82fc0c3d185" target="_top" xlink:title="Ra::Asset::AnimationData\l::getTimeStep">
<polygon fill="white" stroke="black" points="593,-370.123 593,-400.123 733,-400.123 733,-370.123 593,-370.123"/>
<text text-anchor="start" x="601" y="-388.123" font-family="Helvetica,sans-Serif" font-size="10.00">Ra::Asset::AnimationData</text>
<text text-anchor="middle" x="663" y="-377.123" font-family="Helvetica,sans-Serif" font-size="10.00">::getTimeStep</text>
</a>
</g>
</g>
<!-- Node14&#45;&gt;Node21 -->
<g id="edge22" class="edge"><title>Node14&#45;&gt;Node21</title>
<path fill="none" stroke="midnightblue" d="M527.525,-351.158C548.102,-356.355 571.337,-362.224 592.634,-367.603"/>
<polygon fill="midnightblue" stroke="midnightblue" points="592.035,-371.061 602.588,-370.117 593.749,-364.274 592.035,-371.061"/>
</g>
<!-- Node22 -->
<g id="node22" class="node"><title>Node22</title>
<g id="a_node22"><a xlink:href="classRa_1_1Asset_1_1AnimationTime.html#a189ab9544e851ed6ab2d36a2b5d6a952" target="_top" xlink:title="Ra::Asset::AnimationTime\l::merge">
<polygon fill="white" stroke="black" points="593,-272.123 593,-302.123 733,-302.123 733,-272.123 593,-272.123"/>
<text text-anchor="start" x="601" y="-290.123" font-family="Helvetica,sans-Serif" font-size="10.00">Ra::Asset::AnimationTime</text>
<text text-anchor="middle" x="663" y="-279.123" font-family="Helvetica,sans-Serif" font-size="10.00">::merge</text>
</a>
</g>
</g>
<!-- Node14&#45;&gt;Node22 -->
<g id="edge23" class="edge"><title>Node14&#45;&gt;Node22</title>
<path fill="none" stroke="midnightblue" d="M527.525,-321.088C548.102,-315.891 571.337,-310.022 592.634,-304.643"/>
<polygon fill="midnightblue" stroke="midnightblue" points="593.749,-307.971 602.588,-302.129 592.035,-301.185 593.749,-307.971"/>
</g>
<!-- Node23 -->
<g id="node23" class="node"><title>Node23</title>
<g id="a_node23"><a xlink:href="classRa_1_1Asset_1_1AnimationData.html#ae05331a7e0461688bedfa79ce4e34b4e" target="_top" xlink:title="Ra::Asset::AnimationData\l::setFrames">
<polygon fill="white" stroke="black" points="593,-223.123 593,-253.123 733,-253.123 733,-223.123 593,-223.123"/>
<text text-anchor="start" x="601" y="-241.123" font-family="Helvetica,sans-Serif" font-size="10.00">Ra::Asset::AnimationData</text>
<text text-anchor="middle" x="663" y="-230.123" font-family="Helvetica,sans-Serif" font-size="10.00">::setFrames</text>
</a>
</g>
</g>
<!-- Node14&#45;&gt;Node23 -->
<g id="edge24" class="edge"><title>Node14&#45;&gt;Node23</title>
<path fill="none" stroke="midnightblue" d="M488.052,-320.925C510.106,-304.787 547.067,-279.408 582,-263.123 586.946,-260.817 592.159,-258.651 597.456,-256.632"/>
<polygon fill="midnightblue" stroke="midnightblue" points="598.83,-259.857 607.039,-253.16 596.445,-253.276 598.83,-259.857"/>
</g>
<!-- Node16&#45;&gt;Node7 -->
<g id="edge19" class="edge"><title>Node16&#45;&gt;Node7</title>
<path fill="none" stroke="midnightblue" d="M730.344,-320.93C735.217,-318.428 739.843,-315.515 744,-312.123 747.639,-309.153 809.552,-191.712 834.094,-145.001"/>
<polygon fill="midnightblue" stroke="midnightblue" points="837.305,-146.415 838.855,-135.934 831.107,-143.16 837.305,-146.415"/>
</g>
<!-- Node17 -->
<g id="node17" class="node"><title>Node17</title>
<g id="a_node17"><a xlink:href="classRa_1_1Asset_1_1KeyFrame.html#a42442ed8c9ee7f7c24ef52ff62ee30ae" target="_top" xlink:title="RESET. ">
<polygon fill="white" stroke="black" points="788,-394.123 788,-424.123 902,-424.123 902,-394.123 788,-394.123"/>
<text text-anchor="start" x="796" y="-412.123" font-family="Helvetica,sans-Serif" font-size="10.00">Ra::Asset::KeyFrame</text>
<text text-anchor="middle" x="845" y="-401.123" font-family="Helvetica,sans-Serif" font-size="10.00">::reset</text>
</a>
</g>
</g>
<!-- Node16&#45;&gt;Node17 -->
<g id="edge17" class="edge"><title>Node16&#45;&gt;Node17</title>
<path fill="none" stroke="midnightblue" d="M719.447,-351.18C727.827,-354.102 736.253,-357.424 744,-361.123 761.353,-369.408 762.885,-376.356 780,-385.123 783.31,-386.819 786.77,-388.459 790.292,-390.032"/>
<polygon fill="midnightblue" stroke="midnightblue" points="789.129,-393.341 799.702,-394.03 791.867,-386.898 789.129,-393.341"/>
</g>
<!-- Node18 -->
<g id="node18" class="node"><title>Node18</title>
<g id="a_node18"><a xlink:href="classRa_1_1Asset_1_1KeyFrame.html#aea56e20481b32c5a81ff6d9eb34f9e97" target="_top" xlink:title="Ra::Asset::KeyFrame\l::insertKeyFrame">
<polygon fill="white" stroke="black" points="788,-345.123 788,-375.123 902,-375.123 902,-345.123 788,-345.123"/>
<text text-anchor="start" x="796" y="-363.123" font-family="Helvetica,sans-Serif" font-size="10.00">Ra::Asset::KeyFrame</text>
<text text-anchor="middle" x="845" y="-352.123" font-family="Helvetica,sans-Serif" font-size="10.00">::insertKeyFrame</text>
</a>
</g>
</g>
<!-- Node16&#45;&gt;Node18 -->
<g id="edge18" class="edge"><title>Node16&#45;&gt;Node18</title>
<path fill="none" stroke="midnightblue" d="M744.261,-346.824C755.415,-348.312 766.771,-349.826 777.633,-351.274"/>
<polygon fill="midnightblue" stroke="midnightblue" points="777.498,-354.787 787.872,-352.639 778.423,-347.848 777.498,-354.787"/>
</g>
<!-- Node19 -->
<g id="node19" class="node"><title>Node19</title>
<g id="a_node19"><a xlink:href="classRa_1_1Asset_1_1KeyFrame.html#a11502b1be2a8476d891058748a4158be" target="_top" xlink:title="Ra::Asset::KeyFrame\l::setAnimationTime">
<polygon fill="white" stroke="black" points="788,-296.123 788,-326.123 902,-326.123 902,-296.123 788,-296.123"/>
<text text-anchor="start" x="796" y="-314.123" font-family="Helvetica,sans-Serif" font-size="10.00">Ra::Asset::KeyFrame</text>
<text text-anchor="middle" x="845" y="-303.123" font-family="Helvetica,sans-Serif" font-size="10.00">::setAnimationTime</text>
</a>
</g>
</g>
<!-- Node16&#45;&gt;Node19 -->
<g id="edge20" class="edge"><title>Node16&#45;&gt;Node19</title>
<path fill="none" stroke="midnightblue" d="M744.261,-324.976C755.415,-323.426 766.771,-321.849 777.633,-320.341"/>
<polygon fill="midnightblue" stroke="midnightblue" points="778.449,-323.761 787.872,-318.918 777.486,-316.827 778.449,-323.761"/>
</g>
<!-- Node20 -->
<g id="node20" class="node"><title>Node20</title>
<g id="a_node20"><a xlink:href="classRa_1_1Asset_1_1KeyFrame.html#a061bfb7750328282a1965eb2fee01915" target="_top" xlink:title="Ra::Asset::KeyFrame::at">
<polygon fill="white" stroke="black" points="780,-257.623 780,-276.623 910,-276.623 910,-257.623 780,-257.623"/>
<text text-anchor="middle" x="845" y="-264.623" font-family="Helvetica,sans-Serif" font-size="10.00">Ra::Asset::KeyFrame::at</text>
</a>
</g>
</g>
<!-- Node16&#45;&gt;Node20 -->
<g id="edge21" class="edge"><title>Node16&#45;&gt;Node20</title>
<path fill="none" stroke="midnightblue" d="M722.074,-321.079C729.592,-318.445 737.077,-315.46 744,-312.123 761.547,-303.664 762.502,-295.682 780,-287.123 785.359,-284.501 791.138,-282.128 796.953,-280.008"/>
<polygon fill="midnightblue" stroke="midnightblue" points="798.371,-283.223 806.706,-276.682 796.111,-276.597 798.371,-283.223"/>
</g>
<!-- Node25 -->
<g id="node25" class="node"><title>Node25</title>
<g id="a_node25"><a xlink:href="classRa_1_1Asset_1_1AnimationTime.html#adab2c237d3d61b3dac6189cc2a66155a" target="_top" xlink:title="TIME. ">
<polygon fill="white" stroke="black" points="593,-125.123 593,-155.123 733,-155.123 733,-125.123 593,-125.123"/>
<text text-anchor="start" x="601" y="-143.123" font-family="Helvetica,sans-Serif" font-size="10.00">Ra::Asset::AnimationTime</text>
<text text-anchor="middle" x="663" y="-132.123" font-family="Helvetica,sans-Serif" font-size="10.00">::getStart</text>
</a>
</g>
</g>
<!-- Node24&#45;&gt;Node25 -->
<g id="edge27" class="edge"><title>Node24&#45;&gt;Node25</title>
<path fill="none" stroke="midnightblue" d="M537.217,-140.123C551.893,-140.123 567.497,-140.123 582.52,-140.123"/>
<polygon fill="midnightblue" stroke="midnightblue" points="582.81,-143.623 592.81,-140.123 582.81,-136.623 582.81,-143.623"/>
</g>
<!-- Node26 -->
<g id="node26" class="node"><title>Node26</title>
<g id="a_node26"><a xlink:href="classRa_1_1Asset_1_1AnimationTime.html#a80aac004bfc4237dec4a36a83fe8466a" target="_top" xlink:title="Ra::Asset::AnimationTime\l::getEnd">
<polygon fill="white" stroke="black" points="593,-76.1229 593,-106.123 733,-106.123 733,-76.1229 593,-76.1229"/>
<text text-anchor="start" x="601" y="-94.1229" font-family="Helvetica,sans-Serif" font-size="10.00">Ra::Asset::AnimationTime</text>
<text text-anchor="middle" x="663" y="-83.1229" font-family="Helvetica,sans-Serif" font-size="10.00">::getEnd</text>
</a>
</g>
</g>
<!-- Node24&#45;&gt;Node26 -->
<g id="edge28" class="edge"><title>Node24&#45;&gt;Node26</title>
<path fill="none" stroke="midnightblue" d="M527.525,-125.088C548.102,-119.891 571.337,-114.022 592.634,-108.643"/>
<polygon fill="midnightblue" stroke="midnightblue" points="593.749,-111.971 602.588,-106.129 592.035,-105.185 593.749,-111.971"/>
</g>
</g>
</svg>
