<?xml version="1.0" encoding="UTF-8" standalone="no"?>
<!DOCTYPE svg PUBLIC "-//W3C//DTD SVG 1.1//EN"
 "http://www.w3.org/Graphics/SVG/1.1/DTD/svg11.dtd">
<!-- Generated by graphviz version 2.38.0 (20140413.2041)
 -->
<!-- Title: SkinningPlugin::SkinningComponent::setSkinningType Pages: 1 -->
<svg width="1035pt" height="480pt"
 viewBox="0.00 0.00 1035.00 480.00" xmlns="http://www.w3.org/2000/svg" xmlns:xlink="http://www.w3.org/1999/xlink">
<g id="graph0" class="graph" transform="scale(1 1) rotate(0) translate(4 476)">
<title>SkinningPlugin::SkinningComponent::setSkinningType</title>
<polygon fill="white" stroke="none" points="-4,4 -4,-476 1031,-476 1031,4 -4,4"/>
<!-- Node1 -->
<g id="node1" class="node"><title>Node1</title>
<polygon fill="#bfbfbf" stroke="black" points="0,-269.5 0,-299.5 155,-299.5 155,-269.5 0,-269.5"/>
<text text-anchor="start" x="8" y="-287.5" font-family="Helvetica,sans-Serif" font-size="10.00">SkinningPlugin::Skinning</text>
<text text-anchor="middle" x="77.5" y="-276.5" font-family="Helvetica,sans-Serif" font-size="10.00">Component::setSkinningType</text>
</g>
<!-- Node2 -->
<g id="node2" class="node"><title>Node2</title>
<g id="a_node2"><a xlink:href="classSkinningPlugin_1_1SkinningComponent.html#a0ba759710b12a03a59faca912566d328" target="_top" xlink:title="Computes internal data related to the Skinning method. ">
<polygon fill="white" stroke="black" points="191,-269.5 191,-299.5 358,-299.5 358,-269.5 191,-269.5"/>
<text text-anchor="start" x="199" y="-287.5" font-family="Helvetica,sans-Serif" font-size="10.00">SkinningPlugin::Skinning</text>
<text text-anchor="middle" x="274.5" y="-276.5" font-family="Helvetica,sans-Serif" font-size="10.00">Component::setupSkinningType</text>
</a>
</g>
</g>
<!-- Node1&#45;&gt;Node2 -->
<g id="edge1" class="edge"><title>Node1&#45;&gt;Node2</title>
<path fill="none" stroke="midnightblue" d="M155.009,-284.5C163.445,-284.5 172.102,-284.5 180.709,-284.5"/>
<polygon fill="midnightblue" stroke="midnightblue" points="180.774,-288 190.774,-284.5 180.774,-281 180.774,-288"/>
</g>
<!-- Node3 -->
<g id="node3" class="node"><title>Node3</title>
<g id="a_node3"><a xlink:href="namespaceRa_1_1Core_1_1Animation.html#a40700cdabdd47fdb360f6bbfe692b36d" target="_top" xlink:title="Compute the optimal center of rotations (1 per vertex) based on weight similarity. ">
<polygon fill="white" stroke="black" points="394,-269.5 394,-299.5 506,-299.5 506,-269.5 394,-269.5"/>
<text text-anchor="start" x="402" y="-287.5" font-family="Helvetica,sans-Serif" font-size="10.00">Ra::Core::Animation</text>
<text text-anchor="middle" x="450" y="-276.5" font-family="Helvetica,sans-Serif" font-size="10.00">::computeCoR</text>
</a>
</g>
</g>
<!-- Node2&#45;&gt;Node3 -->
<g id="edge2" class="edge"><title>Node2&#45;&gt;Node3</title>
<path fill="none" stroke="midnightblue" d="M358.185,-284.5C366.748,-284.5 375.364,-284.5 383.698,-284.5"/>
<polygon fill="midnightblue" stroke="midnightblue" points="383.701,-288 393.701,-284.5 383.701,-281 383.701,-288"/>
</g>
<!-- Node4 -->
<g id="node4" class="node"><title>Node4</title>
<g id="a_node4"><a xlink:href="classRa_1_1Core_1_1TriangleMesh.html#a21ae39474fd85af3bfbcceb34e29d8ad" target="_top" xlink:title="Copy only the mesh faces and geometry. ">
<polygon fill="white" stroke="black" points="544,-392.5 544,-422.5 669,-422.5 669,-392.5 544,-392.5"/>
<text text-anchor="start" x="552" y="-410.5" font-family="Helvetica,sans-Serif" font-size="10.00">Ra::Core::TriangleMesh</text>
<text text-anchor="middle" x="606.5" y="-399.5" font-family="Helvetica,sans-Serif" font-size="10.00">::copyBaseGeometry</text>
</a>
</g>
</g>
<!-- Node3&#45;&gt;Node4 -->
<g id="edge3" class="edge"><title>Node3&#45;&gt;Node4</title>
<path fill="none" stroke="midnightblue" d="M462.54,-299.544C478.581,-319.655 509.349,-355.435 542,-378.5 546.756,-381.86 551.964,-384.98 557.286,-387.832"/>
<polygon fill="midnightblue" stroke="midnightblue" points="555.786,-390.996 566.291,-392.374 558.939,-384.745 555.786,-390.996"/>
</g>
<!-- Node8 -->
<g id="node8" class="node"><title>Node8</title>
<g id="a_node8"><a xlink:href="classRa_1_1Core_1_1TriangleMesh.html#a495116f40cfec8bb6504698d786d4b8c" target="_top" xlink:title="Access the vertices positions. ">
<polygon fill="white" stroke="black" points="544,-338.5 544,-368.5 669,-368.5 669,-338.5 544,-338.5"/>
<text text-anchor="start" x="552" y="-356.5" font-family="Helvetica,sans-Serif" font-size="10.00">Ra::Core::TriangleMesh</text>
<text text-anchor="middle" x="606.5" y="-345.5" font-family="Helvetica,sans-Serif" font-size="10.00">::vertices</text>
</a>
</g>
</g>
<!-- Node3&#45;&gt;Node8 -->
<g id="edge7" class="edge"><title>Node3&#45;&gt;Node8</title>
<path fill="none" stroke="midnightblue" d="M484.906,-299.642C507.647,-309.799 537.798,-323.264 562.262,-334.19"/>
<polygon fill="midnightblue" stroke="midnightblue" points="561.115,-337.511 571.673,-338.393 563.97,-331.119 561.115,-337.511"/>
</g>
<!-- Node10 -->
<g id="node10" class="node"><title>Node10</title>
<g id="a_node10"><a xlink:href="classRa_1_1Core_1_1TopologicalMesh.html#a94c32854d7aa51edc42d5d1dd70856f3" target="_top" xlink:title="Return the half&#45;edge associated with a given vertex and face. ">
<polygon fill="white" stroke="black" points="708.5,-294.5 708.5,-324.5 848.5,-324.5 848.5,-294.5 708.5,-294.5"/>
<text text-anchor="start" x="716.5" y="-312.5" font-family="Helvetica,sans-Serif" font-size="10.00">Ra::Core::TopologicalMesh</text>
<text text-anchor="middle" x="778.5" y="-301.5" font-family="Helvetica,sans-Serif" font-size="10.00">::halfedge_handle</text>
</a>
</g>
</g>
<!-- Node3&#45;&gt;Node10 -->
<g id="edge9" class="edge"><title>Node3&#45;&gt;Node10</title>
<path fill="none" stroke="midnightblue" d="M506.017,-288.713C558.674,-292.745 638.673,-298.87 698.206,-303.428"/>
<polygon fill="midnightblue" stroke="midnightblue" points="698.086,-306.929 708.324,-304.203 698.62,-299.95 698.086,-306.929"/>
</g>
<!-- Node11 -->
<g id="node11" class="node"><title>Node11</title>
<g id="a_node11"><a xlink:href="classRa_1_1Core_1_1TMOperations.html#aeaa56702c9396dd93a0748e9a8a54b36" target="_top" xlink:title="Apply a 2&#45;4 edge split. ">
<polygon fill="white" stroke="black" points="542,-245.5 542,-275.5 671,-275.5 671,-245.5 542,-245.5"/>
<text text-anchor="start" x="550" y="-263.5" font-family="Helvetica,sans-Serif" font-size="10.00">Ra::Core::TMOperations</text>
<text text-anchor="middle" x="606.5" y="-252.5" font-family="Helvetica,sans-Serif" font-size="10.00">::splitEdge</text>
</a>
</g>
</g>
<!-- Node3&#45;&gt;Node11 -->
<g id="edge10" class="edge"><title>Node3&#45;&gt;Node11</title>
<path fill="none" stroke="midnightblue" d="M506.342,-275.903C514.619,-274.617 523.262,-273.275 531.845,-271.942"/>
<polygon fill="midnightblue" stroke="midnightblue" points="532.525,-275.378 541.869,-270.384 531.45,-268.461 532.525,-275.378"/>
</g>
<!-- Node23 -->
<g id="node23" class="node"><title>Node23</title>
<g id="a_node23"><a xlink:href="namespaceRa_1_1Core_1_1Geometry.html#a178f2b7309fe2ea5bc31a3abcb25368e" target="_top" xlink:title="Ra::Core::Geometry\l::triangleArea">
<polygon fill="white" stroke="black" points="551,-150.5 551,-180.5 662,-180.5 662,-150.5 551,-150.5"/>
<text text-anchor="start" x="559" y="-168.5" font-family="Helvetica,sans-Serif" font-size="10.00">Ra::Core::Geometry</text>
<text text-anchor="middle" x="606.5" y="-157.5" font-family="Helvetica,sans-Serif" font-size="10.00">::triangleArea</text>
</a>
</g>
</g>
<!-- Node3&#45;&gt;Node23 -->
<g id="edge27" class="edge"><title>Node3&#45;&gt;Node23</title>
<path fill="none" stroke="midnightblue" d="M470.568,-269.429C497.584,-248.62 546.469,-210.967 577.391,-187.15"/>
<polygon fill="midnightblue" stroke="midnightblue" points="579.817,-189.7 585.603,-180.825 575.545,-184.154 579.817,-189.7"/>
</g>
<!-- Node26 -->
<g id="node26" class="node"><title>Node26</title>
<g id="a_node26"><a xlink:href="namespaceRa_1_1Core_1_1Animation.html#a71236244c5603a8a5bc63595db9b7717" target="_top" xlink:title="Computes the similarity between two weights vector. ">
<polygon fill="white" stroke="black" points="550.5,-101.5 550.5,-131.5 662.5,-131.5 662.5,-101.5 550.5,-101.5"/>
<text text-anchor="start" x="558.5" y="-119.5" font-family="Helvetica,sans-Serif" font-size="10.00">Ra::Core::Animation</text>
<text text-anchor="middle" x="606.5" y="-108.5" font-family="Helvetica,sans-Serif" font-size="10.00">::weightSimilarity</text>
</a>
</g>
</g>
<!-- Node3&#45;&gt;Node26 -->
<g id="edge30" class="edge"><title>Node3&#45;&gt;Node26</title>
<path fill="none" stroke="midnightblue" d="M456.785,-269.185C468.51,-240.104 497.773,-176.58 542,-140.5 543.575,-139.215 545.227,-137.994 546.937,-136.835"/>
<polygon fill="midnightblue" stroke="midnightblue" points="549.069,-139.639 555.894,-131.536 545.505,-133.615 549.069,-139.639"/>
</g>
<!-- Node5 -->
<g id="node5" class="node"><title>Node5</title>
<g id="a_node5"><a xlink:href="classRa_1_1Core_1_1TriangleMesh.html#aa838b995226a922fc10f2f8f4c6dec31" target="_top" xlink:title="Erases all data, making the mesh empty. ">
<polygon fill="white" stroke="black" points="716,-392.5 716,-422.5 841,-422.5 841,-392.5 716,-392.5"/>
<text text-anchor="start" x="724" y="-410.5" font-family="Helvetica,sans-Serif" font-size="10.00">Ra::Core::TriangleMesh</text>
<text text-anchor="middle" x="778.5" y="-399.5" font-family="Helvetica,sans-Serif" font-size="10.00">::clear</text>
</a>
</g>
</g>
<!-- Node4&#45;&gt;Node5 -->
<g id="edge4" class="edge"><title>Node4&#45;&gt;Node5</title>
<path fill="none" stroke="midnightblue" d="M669.355,-407.5C681.222,-407.5 693.74,-407.5 705.885,-407.5"/>
<polygon fill="midnightblue" stroke="midnightblue" points="705.976,-411 715.976,-407.5 705.976,-404 705.976,-411"/>
</g>
<!-- Node7 -->
<g id="node7" class="node"><title>Node7</title>
<g id="a_node7"><a xlink:href="classRa_1_1Core_1_1AttribManager.html#ab973dc08cbca7da7108c40bb56c4a708" target="_top" xlink:title="Base copy, does nothing. ">
<polygon fill="white" stroke="black" points="713,-441.5 713,-471.5 844,-471.5 844,-441.5 713,-441.5"/>
<text text-anchor="start" x="721" y="-459.5" font-family="Helvetica,sans-Serif" font-size="10.00">Ra::Core::AttribManager</text>
<text text-anchor="middle" x="778.5" y="-448.5" font-family="Helvetica,sans-Serif" font-size="10.00">::copyAttributes</text>
</a>
</g>
</g>
<!-- Node4&#45;&gt;Node7 -->
<g id="edge6" class="edge"><title>Node4&#45;&gt;Node7</title>
<path fill="none" stroke="midnightblue" d="M659.893,-422.601C677.507,-427.679 697.323,-433.39 715.598,-438.658"/>
<polygon fill="midnightblue" stroke="midnightblue" points="714.702,-442.042 725.28,-441.448 716.641,-435.316 714.702,-442.042"/>
</g>
<!-- Node6 -->
<g id="node6" class="node"><title>Node6</title>
<g id="a_node6"><a xlink:href="classRa_1_1Core_1_1AttribManager.html#ae53b7e22a2098c6151c6b2702569a3be" target="_top" xlink:title="clear all attribs, invalidate handles. ">
<polygon fill="white" stroke="black" points="891,-392.5 891,-422.5 1022,-422.5 1022,-392.5 891,-392.5"/>
<text text-anchor="start" x="899" y="-410.5" font-family="Helvetica,sans-Serif" font-size="10.00">Ra::Core::AttribManager</text>
<text text-anchor="middle" x="956.5" y="-399.5" font-family="Helvetica,sans-Serif" font-size="10.00">::clear</text>
</a>
</g>
</g>
<!-- Node5&#45;&gt;Node6 -->
<g id="edge5" class="edge"><title>Node5&#45;&gt;Node6</title>
<path fill="none" stroke="midnightblue" d="M841.056,-407.5C853.932,-407.5 867.64,-407.5 880.93,-407.5"/>
<polygon fill="midnightblue" stroke="midnightblue" points="880.991,-411 890.991,-407.5 880.991,-404 880.991,-411"/>
</g>
<!-- Node9 -->
<g id="node9" class="node"><title>Node9</title>
<g id="a_node9"><a xlink:href="classRa_1_1Core_1_1AttribManager.html#aaa6088620425c1e1d74b50f1b50eb596" target="_top" xlink:title="Get attribute by handle. ">
<polygon fill="white" stroke="black" points="713,-343.5 713,-373.5 844,-373.5 844,-343.5 713,-343.5"/>
<text text-anchor="start" x="721" y="-361.5" font-family="Helvetica,sans-Serif" font-size="10.00">Ra::Core::AttribManager</text>
<text text-anchor="middle" x="778.5" y="-350.5" font-family="Helvetica,sans-Serif" font-size="10.00">::getAttrib</text>
</a>
</g>
</g>
<!-- Node8&#45;&gt;Node9 -->
<g id="edge8" class="edge"><title>Node8&#45;&gt;Node9</title>
<path fill="none" stroke="midnightblue" d="M669.355,-355.319C680.185,-355.638 691.558,-355.972 702.694,-356.3"/>
<polygon fill="midnightblue" stroke="midnightblue" points="702.733,-359.802 712.832,-356.598 702.939,-352.805 702.733,-359.802"/>
</g>
<!-- Node11&#45;&gt;Node10 -->
<g id="edge12" class="edge"><title>Node11&#45;&gt;Node10</title>
<path fill="none" stroke="midnightblue" d="M659.893,-275.601C677.507,-280.679 697.323,-286.39 715.598,-291.658"/>
<polygon fill="midnightblue" stroke="midnightblue" points="714.702,-295.042 725.28,-294.448 716.641,-288.316 714.702,-295.042"/>
</g>
<!-- Node12 -->
<g id="node12" class="node"><title>Node12</title>
<g id="a_node12"><a xlink:href="namespaceRa_1_1Engine_1_1DrawPrimitives.html#a2eff9774611ef4e9cdfb2ac969182123" target="_top" xlink:title="Displays given point shown as the crossing of 3 lines of length &#39;scale&#39;. ">
<polygon fill="white" stroke="black" points="707,-245.5 707,-275.5 850,-275.5 850,-245.5 707,-245.5"/>
<text text-anchor="start" x="715" y="-263.5" font-family="Helvetica,sans-Serif" font-size="10.00">Ra::Engine::DrawPrimitives</text>
<text text-anchor="middle" x="778.5" y="-252.5" font-family="Helvetica,sans-Serif" font-size="10.00">::Point</text>
</a>
</g>
</g>
<!-- Node11&#45;&gt;Node12 -->
<g id="edge11" class="edge"><title>Node11&#45;&gt;Node12</title>
<path fill="none" stroke="midnightblue" d="M671.285,-260.5C679.615,-260.5 688.234,-260.5 696.795,-260.5"/>
<polygon fill="midnightblue" stroke="midnightblue" points="696.798,-264 706.798,-260.5 696.798,-257 696.798,-264"/>
</g>
<!-- Node13 -->
<g id="node13" class="node"><title>Node13</title>
<g id="a_node13"><a xlink:href="classRa_1_1Core_1_1TopologicalMesh.html#a42aa050397dd07b26bed2b35f3748246" target="_top" xlink:title="Interpolate all properties on edge center (after edge split). ">
<polygon fill="white" stroke="black" points="708.5,-196.5 708.5,-226.5 848.5,-226.5 848.5,-196.5 708.5,-196.5"/>
<text text-anchor="start" x="716.5" y="-214.5" font-family="Helvetica,sans-Serif" font-size="10.00">Ra::Core::TopologicalMesh</text>
<text text-anchor="middle" x="778.5" y="-203.5" font-family="Helvetica,sans-Serif" font-size="10.00">::interpolateAllProps</text>
</a>
</g>
</g>
<!-- Node11&#45;&gt;Node13 -->
<g id="edge13" class="edge"><title>Node11&#45;&gt;Node13</title>
<path fill="none" stroke="midnightblue" d="M659.893,-245.399C677.507,-240.321 697.323,-234.61 715.598,-229.342"/>
<polygon fill="midnightblue" stroke="midnightblue" points="716.641,-232.684 725.28,-226.552 714.702,-225.958 716.641,-232.684"/>
</g>
<!-- Node20 -->
<g id="node20" class="node"><title>Node20</title>
<g id="a_node20"><a xlink:href="classRa_1_1Core_1_1TopologicalMesh.html#ab8adf0e20463e4e4a4eb1b4624eb5b40" target="_top" xlink:title="Copy all properties from input_heh to copy_heh. ">
<polygon fill="white" stroke="black" points="708.5,-147.5 708.5,-177.5 848.5,-177.5 848.5,-147.5 708.5,-147.5"/>
<text text-anchor="start" x="716.5" y="-165.5" font-family="Helvetica,sans-Serif" font-size="10.00">Ra::Core::TopologicalMesh</text>
<text text-anchor="middle" x="778.5" y="-154.5" font-family="Helvetica,sans-Serif" font-size="10.00">::copyAllProps</text>
</a>
</g>
</g>
<!-- Node11&#45;&gt;Node20 -->
<g id="edge20" class="edge"><title>Node11&#45;&gt;Node20</title>
<path fill="none" stroke="midnightblue" d="M624.36,-245.359C643.311,-228.987 675.555,-203.022 707,-186.5 710.443,-184.691 714.049,-182.976 717.734,-181.358"/>
<polygon fill="midnightblue" stroke="midnightblue" points="719.095,-184.582 727.006,-177.535 716.427,-178.111 719.095,-184.582"/>
</g>
<!-- Node14 -->
<g id="node14" class="node"><title>Node14</title>
<g id="a_node14"><a xlink:href="classRa_1_1Core_1_1TopologicalMesh.html#ada6b93df0b80c67c28eec20876a14eab" target="_top" xlink:title="Interpolate normal property on edge center (after edge split). ">
<polygon fill="white" stroke="black" points="886.5,-294.5 886.5,-324.5 1026.5,-324.5 1026.5,-294.5 886.5,-294.5"/>
<text text-anchor="start" x="894.5" y="-312.5" font-family="Helvetica,sans-Serif" font-size="10.00">Ra::Core::TopologicalMesh</text>
<text text-anchor="middle" x="956.5" y="-301.5" font-family="Helvetica,sans-Serif" font-size="10.00">::interpolateNormal</text>
</a>
</g>
</g>
<!-- Node13&#45;&gt;Node14 -->
<g id="edge14" class="edge"><title>Node13&#45;&gt;Node14</title>
<path fill="none" stroke="midnightblue" d="M833.221,-226.659C839.157,-229.447 844.892,-232.705 850,-236.5 871.692,-252.616 864.241,-269.474 886,-285.5 887.879,-286.884 889.844,-288.193 891.873,-289.43"/>
<polygon fill="midnightblue" stroke="midnightblue" points="890.65,-292.746 901.114,-294.407 893.969,-286.583 890.65,-292.746"/>
</g>
<!-- Node15 -->
<g id="node15" class="node"><title>Node15</title>
<g id="a_node15"><a xlink:href="classRa_1_1Core_1_1TopologicalMesh.html#ace05f7289e356f433519904221ea94be" target="_top" xlink:title="Interpolate props on edge center (after edge split). ">
<polygon fill="white" stroke="black" points="886.5,-343.5 886.5,-373.5 1026.5,-373.5 1026.5,-343.5 886.5,-343.5"/>
<text text-anchor="start" x="894.5" y="-361.5" font-family="Helvetica,sans-Serif" font-size="10.00">Ra::Core::TopologicalMesh</text>
<text text-anchor="middle" x="956.5" y="-350.5" font-family="Helvetica,sans-Serif" font-size="10.00">::interpolateProps</text>
</a>
</g>
</g>
<!-- Node13&#45;&gt;Node15 -->
<g id="edge15" class="edge"><title>Node13&#45;&gt;Node15</title>
<path fill="none" stroke="midnightblue" d="M836.799,-226.663C841.618,-229.416 846.122,-232.665 850,-236.5 882.995,-269.125 852.87,-302.011 886,-334.5 887.082,-335.561 888.214,-336.576 889.387,-337.546"/>
<polygon fill="midnightblue" stroke="midnightblue" points="887.468,-340.474 897.674,-343.318 891.469,-334.73 887.468,-340.474"/>
</g>
<!-- Node16 -->
<g id="node16" class="node"><title>Node16</title>
<g id="a_node16"><a xlink:href="classRa_1_1Core_1_1TopologicalMesh.html#aa1016df75edb65e69fcdec5465e49245" target="_top" xlink:title="Ra::Core::TopologicalMesh\l::getFloatPropsHandles">
<polygon fill="white" stroke="black" points="886.5,-196.5 886.5,-226.5 1026.5,-226.5 1026.5,-196.5 886.5,-196.5"/>
<text text-anchor="start" x="894.5" y="-214.5" font-family="Helvetica,sans-Serif" font-size="10.00">Ra::Core::TopologicalMesh</text>
<text text-anchor="middle" x="956.5" y="-203.5" font-family="Helvetica,sans-Serif" font-size="10.00">::getFloatPropsHandles</text>
</a>
</g>
</g>
<!-- Node13&#45;&gt;Node16 -->
<g id="edge16" class="edge"><title>Node13&#45;&gt;Node16</title>
<path fill="none" stroke="midnightblue" d="M848.555,-211.5C857.581,-211.5 866.886,-211.5 876.066,-211.5"/>
<polygon fill="midnightblue" stroke="midnightblue" points="876.356,-215 886.356,-211.5 876.356,-208 876.356,-215"/>
</g>
<!-- Node17 -->
<g id="node17" class="node"><title>Node17</title>
<g id="a_node17"><a xlink:href="classRa_1_1Core_1_1TopologicalMesh.html#acf1e58078add6e5cc9ce13b30fb3baf3" target="_top" xlink:title="Ra::Core::TopologicalMesh\l::getVector2PropsHandles">
<polygon fill="white" stroke="black" points="886,-147.5 886,-177.5 1027,-177.5 1027,-147.5 886,-147.5"/>
<text text-anchor="start" x="894" y="-165.5" font-family="Helvetica,sans-Serif" font-size="10.00">Ra::Core::TopologicalMesh</text>
<text text-anchor="middle" x="956.5" y="-154.5" font-family="Helvetica,sans-Serif" font-size="10.00">::getVector2PropsHandles</text>
</a>
</g>
</g>
<!-- Node13&#45;&gt;Node17 -->
<g id="edge17" class="edge"><title>Node13&#45;&gt;Node17</title>
<path fill="none" stroke="midnightblue" d="M833.742,-196.399C852.062,-191.298 872.683,-185.557 891.675,-180.27"/>
<polygon fill="midnightblue" stroke="midnightblue" points="892.742,-183.605 901.437,-177.552 890.865,-176.862 892.742,-183.605"/>
</g>
<!-- Node18 -->
<g id="node18" class="node"><title>Node18</title>
<g id="a_node18"><a xlink:href="classRa_1_1Core_1_1TopologicalMesh.html#a6865aee84eb0d92f6acc12081bf8a6f8" target="_top" xlink:title="Ra::Core::TopologicalMesh\l::getVector3PropsHandles">
<polygon fill="white" stroke="black" points="886,-98.5 886,-128.5 1027,-128.5 1027,-98.5 886,-98.5"/>
<text text-anchor="start" x="894" y="-116.5" font-family="Helvetica,sans-Serif" font-size="10.00">Ra::Core::TopologicalMesh</text>
<text text-anchor="middle" x="956.5" y="-105.5" font-family="Helvetica,sans-Serif" font-size="10.00">::getVector3PropsHandles</text>
</a>
</g>
</g>
<!-- Node13&#45;&gt;Node18 -->
<g id="edge18" class="edge"><title>Node13&#45;&gt;Node18</title>
<path fill="none" stroke="midnightblue" d="M833.221,-196.341C839.157,-193.553 844.892,-190.295 850,-186.5 871.692,-170.384 864.241,-153.526 886,-137.5 887.879,-136.116 889.844,-134.807 891.873,-133.57"/>
<polygon fill="midnightblue" stroke="midnightblue" points="893.969,-136.417 901.114,-128.593 890.65,-130.254 893.969,-136.417"/>
</g>
<!-- Node19 -->
<g id="node19" class="node"><title>Node19</title>
<g id="a_node19"><a xlink:href="classRa_1_1Core_1_1TopologicalMesh.html#a938483e7f6900eeb3914d662b9aac21c" target="_top" xlink:title="Ra::Core::TopologicalMesh\l::getVector4PropsHandles">
<polygon fill="white" stroke="black" points="886,-245.5 886,-275.5 1027,-275.5 1027,-245.5 886,-245.5"/>
<text text-anchor="start" x="894" y="-263.5" font-family="Helvetica,sans-Serif" font-size="10.00">Ra::Core::TopologicalMesh</text>
<text text-anchor="middle" x="956.5" y="-252.5" font-family="Helvetica,sans-Serif" font-size="10.00">::getVector4PropsHandles</text>
</a>
</g>
</g>
<!-- Node13&#45;&gt;Node19 -->
<g id="edge19" class="edge"><title>Node13&#45;&gt;Node19</title>
<path fill="none" stroke="midnightblue" d="M833.742,-226.601C852.062,-231.702 872.683,-237.443 891.675,-242.73"/>
<polygon fill="midnightblue" stroke="midnightblue" points="890.865,-246.138 901.437,-245.448 892.742,-239.395 890.865,-246.138"/>
</g>
<!-- Node20&#45;&gt;Node16 -->
<g id="edge23" class="edge"><title>Node20&#45;&gt;Node16</title>
<path fill="none" stroke="midnightblue" d="M833.742,-177.601C852.062,-182.702 872.683,-188.443 891.675,-193.73"/>
<polygon fill="midnightblue" stroke="midnightblue" points="890.865,-197.138 901.437,-196.448 892.742,-190.395 890.865,-197.138"/>
</g>
<!-- Node20&#45;&gt;Node17 -->
<g id="edge24" class="edge"><title>Node20&#45;&gt;Node17</title>
<path fill="none" stroke="midnightblue" d="M848.555,-162.5C857.441,-162.5 866.598,-162.5 875.639,-162.5"/>
<polygon fill="midnightblue" stroke="midnightblue" points="875.777,-166 885.777,-162.5 875.777,-159 875.777,-166"/>
</g>
<!-- Node20&#45;&gt;Node18 -->
<g id="edge25" class="edge"><title>Node20&#45;&gt;Node18</title>
<path fill="none" stroke="midnightblue" d="M833.742,-147.399C852.062,-142.298 872.683,-136.557 891.675,-131.27"/>
<polygon fill="midnightblue" stroke="midnightblue" points="892.742,-134.605 901.437,-128.552 890.865,-127.862 892.742,-134.605"/>
</g>
<!-- Node20&#45;&gt;Node19 -->
<g id="edge26" class="edge"><title>Node20&#45;&gt;Node19</title>
<path fill="none" stroke="midnightblue" d="M834.668,-177.525C840.087,-180.088 845.308,-183.06 850,-186.5 871.794,-202.478 864.344,-219.335 886,-235.5 888.489,-237.358 891.128,-239.088 893.869,-240.697"/>
<polygon fill="midnightblue" stroke="midnightblue" points="892.418,-243.889 902.899,-245.439 895.672,-237.691 892.418,-243.889"/>
</g>
<!-- Node21 -->
<g id="node21" class="node"><title>Node21</title>
<g id="a_node21"><a xlink:href="classRa_1_1Core_1_1TopologicalMesh.html#afc2c2977da4b6cc4a76a044a580cfacf" target="_top" xlink:title="Copy the normal property from input_heh to copy_heh. ">
<polygon fill="white" stroke="black" points="886.5,-0.5 886.5,-30.5 1026.5,-30.5 1026.5,-0.5 886.5,-0.5"/>
<text text-anchor="start" x="894.5" y="-18.5" font-family="Helvetica,sans-Serif" font-size="10.00">Ra::Core::TopologicalMesh</text>
<text text-anchor="middle" x="956.5" y="-7.5" font-family="Helvetica,sans-Serif" font-size="10.00">::copyNormal</text>
</a>
</g>
</g>
<!-- Node20&#45;&gt;Node21 -->
<g id="edge21" class="edge"><title>Node20&#45;&gt;Node21</title>
<path fill="none" stroke="midnightblue" d="M836.799,-147.337C841.618,-144.584 846.122,-141.335 850,-137.5 882.995,-104.875 852.87,-71.9886 886,-39.5 887.082,-38.4386 888.214,-37.4241 889.387,-36.4544"/>
<polygon fill="midnightblue" stroke="midnightblue" points="891.469,-39.2698 897.674,-30.6819 887.468,-33.526 891.469,-39.2698"/>
</g>
<!-- Node22 -->
<g id="node22" class="node"><title>Node22</title>
<g id="a_node22"><a xlink:href="classRa_1_1Core_1_1TopologicalMesh.html#a7550874ffae2f25bcf60826dc2ff948e" target="_top" xlink:title="Copy props properties from input_heh to copy_heh. ">
<polygon fill="white" stroke="black" points="886.5,-49.5 886.5,-79.5 1026.5,-79.5 1026.5,-49.5 886.5,-49.5"/>
<text text-anchor="start" x="894.5" y="-67.5" font-family="Helvetica,sans-Serif" font-size="10.00">Ra::Core::TopologicalMesh</text>
<text text-anchor="middle" x="956.5" y="-56.5" font-family="Helvetica,sans-Serif" font-size="10.00">::copyProps</text>
</a>
</g>
</g>
<!-- Node20&#45;&gt;Node22 -->
<g id="edge22" class="edge"><title>Node20&#45;&gt;Node22</title>
<path fill="none" stroke="midnightblue" d="M833.221,-147.341C839.157,-144.553 844.892,-141.295 850,-137.5 871.692,-121.384 864.241,-104.526 886,-88.5 887.879,-87.1161 889.844,-85.8074 891.873,-84.5703"/>
<polygon fill="midnightblue" stroke="midnightblue" points="893.969,-87.4168 901.114,-79.5932 890.65,-81.2539 893.969,-87.4168"/>
</g>
<!-- Node24 -->
<g id="node24" class="node"><title>Node24</title>
<g id="a_node24"><a xlink:href="namespaceOpenMesh.html#a71e7f1dd3eac016d2b8245ac408a291c" target="_top" xlink:title="OpenMesh::cross">
<polygon fill="white" stroke="black" points="729,-71 729,-90 828,-90 828,-71 729,-71"/>
<text text-anchor="middle" x="778.5" y="-78" font-family="Helvetica,sans-Serif" font-size="10.00">OpenMesh::cross</text>
</a>
</g>
</g>
<!-- Node23&#45;&gt;Node24 -->
<g id="edge28" class="edge"><title>Node23&#45;&gt;Node24</title>
<path fill="none" stroke="midnightblue" d="M653.607,-150.396C659.697,-147.538 665.669,-144.247 671,-140.5 690.839,-126.555 686.412,-112.314 707,-99.5 710.857,-97.099 715.017,-94.9979 719.318,-93.1597"/>
<polygon fill="midnightblue" stroke="midnightblue" points="720.78,-96.349 728.898,-89.5414 718.306,-89.8006 720.78,-96.349"/>
</g>
<!-- Node25 -->
<g id="node25" class="node"><title>Node25</title>
<g id="a_node25"><a xlink:href="namespaceOpenMesh.html#a8205f789ce08919bc11c58383574596c" target="_top" xlink:title="OpenMesh::norm">
<polygon fill="white" stroke="black" points="729,-109 729,-128 828,-128 828,-109 729,-109"/>
<text text-anchor="middle" x="778.5" y="-116" font-family="Helvetica,sans-Serif" font-size="10.00">OpenMesh::norm</text>
</a>
</g>
</g>
<!-- Node23&#45;&gt;Node25 -->
<g id="edge29" class="edge"><title>Node23&#45;&gt;Node25</title>
<path fill="none" stroke="midnightblue" d="M660.399,-150.497C675.448,-146.26 691.862,-141.67 707,-137.5 714.993,-135.298 723.504,-132.981 731.746,-130.752"/>
<polygon fill="midnightblue" stroke="midnightblue" points="732.871,-134.074 741.614,-128.089 731.047,-127.315 732.871,-134.074"/>
</g>
</g>
</svg>
