<?xml version="1.0" encoding="UTF-8" standalone="no"?>
<!DOCTYPE svg PUBLIC "-//W3C//DTD SVG 1.1//EN"
 "http://www.w3.org/Graphics/SVG/1.1/DTD/svg11.dtd">
<!-- Generated by graphviz version 2.38.0 (20140413.2041)
 -->
<!-- Title: Ra::GuiBase::TransformEditor Pages: 1 -->
<svg width="171pt" height="358pt"
 viewBox="0.00 0.00 171.00 358.00" xmlns="http://www.w3.org/2000/svg" xmlns:xlink="http://www.w3.org/1999/xlink">
<g id="graph0" class="graph" transform="scale(1 1) rotate(0) translate(4 354)">
<title>Ra::GuiBase::TransformEditor</title>
<polygon fill="white" stroke="none" points="-4,4 -4,-354 167,-354 167,4 -4,4"/>
<!-- Node1 -->
<g id="node1" class="node"><title>Node1</title>
<polygon fill="#bfbfbf" stroke="black" points="4,-204.5 4,-349.5 159,-349.5 159,-204.5 4,-204.5"/>
<text text-anchor="middle" x="81.5" y="-337.5" font-family="Helvetica,sans-Serif" font-size="10.00">Ra::GuiBase::TransformEditor</text>
<polyline fill="none" stroke="black" points="4,-330.5 159,-330.5 "/>
<text text-anchor="start" x="12" y="-318.5" font-family="Helvetica,sans-Serif" font-size="10.00"># m_transform</text>
<text text-anchor="start" x="12" y="-307.5" font-family="Helvetica,sans-Serif" font-size="10.00"># m_currentEdit</text>
<polyline fill="none" stroke="black" points="4,-300.5 159,-300.5 "/>
<text text-anchor="start" x="12" y="-288.5" font-family="Helvetica,sans-Serif" font-size="10.00">+ TransformEditor()</text>
<text text-anchor="start" x="12" y="-277.5" font-family="Helvetica,sans-Serif" font-size="10.00">+ ~TransformEditor()</text>
<text text-anchor="start" x="12" y="-266.5" font-family="Helvetica,sans-Serif" font-size="10.00">+ setEditable()</text>
<text text-anchor="start" x="12" y="-255.5" font-family="Helvetica,sans-Serif" font-size="10.00">+ updateValues()</text>
<text text-anchor="start" x="12" y="-244.5" font-family="Helvetica,sans-Serif" font-size="10.00"># getTransform()</text>
<text text-anchor="start" x="12" y="-233.5" font-family="Helvetica,sans-Serif" font-size="10.00"># setTransform()</text>
<text text-anchor="start" x="12" y="-222.5" font-family="Helvetica,sans-Serif" font-size="10.00"># canEdit()</text>
<text text-anchor="start" x="12" y="-211.5" font-family="Helvetica,sans-Serif" font-size="10.00"># getWorldTransform()</text>
</g>
<!-- Node2 -->
<g id="node2" class="node"><title>Node2</title>
<g id="a_node2"><a xlink:href="classRa_1_1Gui_1_1GizmoManager.html" target="_top" xlink:title="This class interfaces the gizmos with the ui commands. ">
<polygon fill="white" stroke="black" points="0,-0.5 0,-167.5 163,-167.5 163,-0.5 0,-0.5"/>
<text text-anchor="middle" x="81.5" y="-155.5" font-family="Helvetica,sans-Serif" font-size="10.00">Ra::Gui::GizmoManager</text>
<polyline fill="none" stroke="black" points="0,-148.5 163,-148.5 "/>
<text text-anchor="start" x="8" y="-136.5" font-family="Helvetica,sans-Serif" font-size="10.00">+ RA_CORE_ALIGNED_NEW</text>
<polyline fill="none" stroke="black" points="0,-129.5 163,-129.5 "/>
<text text-anchor="start" x="8" y="-117.5" font-family="Helvetica,sans-Serif" font-size="10.00">+ GizmoManager()</text>
<text text-anchor="start" x="8" y="-106.5" font-family="Helvetica,sans-Serif" font-size="10.00">+ ~GizmoManager()</text>
<text text-anchor="start" x="8" y="-95.5" font-family="Helvetica,sans-Serif" font-size="10.00">+ handleMousePressEvent()</text>
<text text-anchor="start" x="8" y="-84.5" font-family="Helvetica,sans-Serif" font-size="10.00">+ handleMouseReleaseEvent()</text>
<text text-anchor="start" x="8" y="-73.5" font-family="Helvetica,sans-Serif" font-size="10.00">+ handleMouseMoveEvent()</text>
<text text-anchor="start" x="8" y="-62.5" font-family="Helvetica,sans-Serif" font-size="10.00">+ setEditable()</text>
<text text-anchor="start" x="8" y="-51.5" font-family="Helvetica,sans-Serif" font-size="10.00">+ cleanup()</text>
<text text-anchor="start" x="8" y="-40.5" font-family="Helvetica,sans-Serif" font-size="10.00">+ handlePickingResult()</text>
<text text-anchor="start" x="8" y="-29.5" font-family="Helvetica,sans-Serif" font-size="10.00">+ setLocal()</text>
<text text-anchor="start" x="8" y="-18.5" font-family="Helvetica,sans-Serif" font-size="10.00">+ changeGizmoType()</text>
<text text-anchor="start" x="8" y="-7.5" font-family="Helvetica,sans-Serif" font-size="10.00">+ updateValues()</text>
</a>
</g>
</g>
<!-- Node1&#45;&gt;Node2 -->
<g id="edge1" class="edge"><title>Node1&#45;&gt;Node2</title>
<path fill="none" stroke="midnightblue" d="M81.5,-194.134C81.5,-185.368 81.5,-176.445 81.5,-167.67"/>
<polygon fill="none" stroke="midnightblue" points="78.0001,-194.335 81.5,-204.335 85.0001,-194.335 78.0001,-194.335"/>
</g>
</g>
</svg>
