<?xml version="1.0" encoding="UTF-8" standalone="no"?>
<!DOCTYPE svg PUBLIC "-//W3C//DTD SVG 1.1//EN"
 "http://www.w3.org/Graphics/SVG/1.1/DTD/svg11.dtd">
<!-- Generated by graphviz version 2.38.0 (20140413.2041)
 -->
<!-- Title: Ra::IO::AssimpAnimationDataLoader::loadAnimationData Pages: 1 -->
<svg width="724pt" height="617pt"
 viewBox="0.00 0.00 724.00 617.00" xmlns="http://www.w3.org/2000/svg" xmlns:xlink="http://www.w3.org/1999/xlink">
<g id="graph0" class="graph" transform="scale(1 1) rotate(0) translate(4 613)">
<title>Ra::IO::AssimpAnimationDataLoader::loadAnimationData</title>
<polygon fill="white" stroke="none" points="-4,4 -4,-613 720,-613 720,4 -4,4"/>
<!-- Node1 -->
<g id="node1" class="node"><title>Node1</title>
<polygon fill="#bfbfbf" stroke="black" points="0,-415.5 0,-445.5 158,-445.5 158,-415.5 0,-415.5"/>
<text text-anchor="start" x="8" y="-433.5" font-family="Helvetica,sans-Serif" font-size="10.00">Ra::IO::AssimpAnimationData</text>
<text text-anchor="middle" x="79" y="-422.5" font-family="Helvetica,sans-Serif" font-size="10.00">Loader::loadAnimationData</text>
</g>
<!-- Node2 -->
<g id="node2" class="node"><title>Node2</title>
<g id="a_node2"><a xlink:href="classRa_1_1IO_1_1AssimpAnimationDataLoader.html#ab0bc77b937a09f8e770b8826d526f980" target="_top" xlink:title="Ra::IO::AssimpAnimationData\lLoader::sceneAnimationSize">
<polygon fill="white" stroke="black" points="194,-559.5 194,-589.5 352,-589.5 352,-559.5 194,-559.5"/>
<text text-anchor="start" x="202" y="-577.5" font-family="Helvetica,sans-Serif" font-size="10.00">Ra::IO::AssimpAnimationData</text>
<text text-anchor="middle" x="273" y="-566.5" font-family="Helvetica,sans-Serif" font-size="10.00">Loader::sceneAnimationSize</text>
</a>
</g>
</g>
<!-- Node1&#45;&gt;Node2 -->
<g id="edge1" class="edge"><title>Node1&#45;&gt;Node2</title>
<path fill="none" stroke="midnightblue" d="M90.4261,-445.785C108.549,-471.212 148.323,-522.195 194,-550.5 196.77,-552.216 199.672,-553.818 202.659,-555.312"/>
<polygon fill="midnightblue" stroke="midnightblue" points="201.281,-558.53 211.834,-559.477 204.175,-552.156 201.281,-558.53"/>
</g>
<!-- Node3 -->
<g id="node3" class="node"><title>Node3</title>
<g id="a_node3"><a xlink:href="classRa_1_1IO_1_1AssimpAnimationDataLoader.html#ae6d5be5f9895033f807047b305b79ef8" target="_top" xlink:title="NAME. ">
<polygon fill="white" stroke="black" points="194,-510.5 194,-540.5 352,-540.5 352,-510.5 194,-510.5"/>
<text text-anchor="start" x="202" y="-528.5" font-family="Helvetica,sans-Serif" font-size="10.00">Ra::IO::AssimpAnimationData</text>
<text text-anchor="middle" x="273" y="-517.5" font-family="Helvetica,sans-Serif" font-size="10.00">Loader::fetchName</text>
</a>
</g>
</g>
<!-- Node1&#45;&gt;Node3 -->
<g id="edge2" class="edge"><title>Node1&#45;&gt;Node3</title>
<path fill="none" stroke="midnightblue" d="M110.423,-445.553C143.328,-461.834 195.923,-487.858 232.118,-505.767"/>
<polygon fill="midnightblue" stroke="midnightblue" points="230.887,-509.063 241.402,-510.36 233.991,-502.789 230.887,-509.063"/>
</g>
<!-- Node6 -->
<g id="node6" class="node"><title>Node6</title>
<g id="a_node6"><a xlink:href="classRa_1_1IO_1_1AssimpAnimationDataLoader.html#a27689dc210ccf9597f87e330a97f8e9a" target="_top" xlink:title="TIME. ">
<polygon fill="white" stroke="black" points="194,-415.5 194,-445.5 352,-445.5 352,-415.5 194,-415.5"/>
<text text-anchor="start" x="202" y="-433.5" font-family="Helvetica,sans-Serif" font-size="10.00">Ra::IO::AssimpAnimationData</text>
<text text-anchor="middle" x="273" y="-422.5" font-family="Helvetica,sans-Serif" font-size="10.00">Loader::fetchTime</text>
</a>
</g>
</g>
<!-- Node1&#45;&gt;Node6 -->
<g id="edge5" class="edge"><title>Node1&#45;&gt;Node6</title>
<path fill="none" stroke="midnightblue" d="M158.094,-430.5C166.601,-430.5 175.302,-430.5 183.918,-430.5"/>
<polygon fill="midnightblue" stroke="midnightblue" points="183.975,-434 193.975,-430.5 183.975,-427 183.975,-434"/>
</g>
<!-- Node12 -->
<g id="node12" class="node"><title>Node12</title>
<g id="a_node12"><a xlink:href="classRa_1_1IO_1_1AssimpAnimationDataLoader.html#aa0ff91f44c0889489ef1370d4d041bfd" target="_top" xlink:title="Ra::IO::AssimpAnimationData\lLoader::fetchAnimation">
<polygon fill="white" stroke="black" points="194,-245.5 194,-275.5 352,-275.5 352,-245.5 194,-245.5"/>
<text text-anchor="start" x="202" y="-263.5" font-family="Helvetica,sans-Serif" font-size="10.00">Ra::IO::AssimpAnimationData</text>
<text text-anchor="middle" x="273" y="-252.5" font-family="Helvetica,sans-Serif" font-size="10.00">Loader::fetchAnimation</text>
</a>
</g>
</g>
<!-- Node1&#45;&gt;Node12 -->
<g id="edge11" class="edge"><title>Node1&#45;&gt;Node12</title>
<path fill="none" stroke="midnightblue" d="M97.0387,-415.414C131.054,-385.296 207.507,-317.603 247.132,-282.519"/>
<polygon fill="midnightblue" stroke="midnightblue" points="249.833,-284.802 254.999,-275.553 245.192,-279.561 249.833,-284.802"/>
</g>
<!-- Node22 -->
<g id="node22" class="node"><title>Node22</title>
<g id="a_node22"><a xlink:href="classRa_1_1Asset_1_1AnimationData.html#a69850f70524d5c5b7d549a8837edd28b" target="_top" xlink:title="DEBUG. ">
<polygon fill="white" stroke="black" points="203,-49.5 203,-79.5 343,-79.5 343,-49.5 203,-49.5"/>
<text text-anchor="start" x="211" y="-67.5" font-family="Helvetica,sans-Serif" font-size="10.00">Ra::Asset::AnimationData</text>
<text text-anchor="middle" x="273" y="-56.5" font-family="Helvetica,sans-Serif" font-size="10.00">::displayInfo</text>
</a>
</g>
</g>
<!-- Node1&#45;&gt;Node22 -->
<g id="edge23" class="edge"><title>Node1&#45;&gt;Node22</title>
<path fill="none" stroke="midnightblue" d="M88.0056,-415.239C117.83,-358.386 222.647,-158.579 259.261,-88.783"/>
<polygon fill="midnightblue" stroke="midnightblue" points="262.414,-90.3072 263.96,-79.8257 256.215,-87.0553 262.414,-90.3072"/>
</g>
<!-- Node4 -->
<g id="node4" class="node"><title>Node4</title>
<g id="a_node4"><a xlink:href="classRa_1_1Asset_1_1AnimationData.html#af45d542d021bbfcf85c60284bb649714" target="_top" xlink:title="NAME. ">
<polygon fill="white" stroke="black" points="399,-578.5 399,-608.5 539,-608.5 539,-578.5 399,-578.5"/>
<text text-anchor="start" x="407" y="-596.5" font-family="Helvetica,sans-Serif" font-size="10.00">Ra::Asset::AnimationData</text>
<text text-anchor="middle" x="469" y="-585.5" font-family="Helvetica,sans-Serif" font-size="10.00">::setName</text>
</a>
</g>
</g>
<!-- Node3&#45;&gt;Node4 -->
<g id="edge3" class="edge"><title>Node3&#45;&gt;Node4</title>
<path fill="none" stroke="midnightblue" d="M322.378,-540.633C332.207,-543.813 342.457,-547.204 352,-550.5 364.781,-554.915 393.052,-565.389 418.483,-574.894"/>
<polygon fill="midnightblue" stroke="midnightblue" points="417.46,-578.248 428.053,-578.475 419.913,-571.692 417.46,-578.248"/>
</g>
<!-- Node5 -->
<g id="node5" class="node"><title>Node5</title>
<g id="a_node5"><a xlink:href="namespaceRa_1_1IO.html#aef6c50424873964fcea0008be55d4a34" target="_top" xlink:title="Ra::IO::assimpToCore">
<polygon fill="white" stroke="black" points="592.5,-540 592.5,-559 709.5,-559 709.5,-540 592.5,-540"/>
<text text-anchor="middle" x="651" y="-547" font-family="Helvetica,sans-Serif" font-size="10.00">Ra::IO::assimpToCore</text>
</a>
</g>
</g>
<!-- Node3&#45;&gt;Node5 -->
<g id="edge4" class="edge"><title>Node3&#45;&gt;Node5</title>
<path fill="none" stroke="midnightblue" d="M352.364,-530.502C420.292,-534.838 517.573,-541.047 582.207,-545.173"/>
<polygon fill="midnightblue" stroke="midnightblue" points="582.087,-548.672 592.29,-545.816 582.533,-541.686 582.087,-548.672"/>
</g>
<!-- Node7 -->
<g id="node7" class="node"><title>Node7</title>
<g id="a_node7"><a xlink:href="classRa_1_1Asset_1_1AnimationTime.html#a3d66a6bbd2d5bbcc7e69326bd00c820a" target="_top" xlink:title="Ra::Asset::AnimationTime\l::setStart">
<polygon fill="white" stroke="black" points="399,-441.5 399,-471.5 539,-471.5 539,-441.5 399,-441.5"/>
<text text-anchor="start" x="407" y="-459.5" font-family="Helvetica,sans-Serif" font-size="10.00">Ra::Asset::AnimationTime</text>
<text text-anchor="middle" x="469" y="-448.5" font-family="Helvetica,sans-Serif" font-size="10.00">::setStart</text>
</a>
</g>
</g>
<!-- Node6&#45;&gt;Node7 -->
<g id="edge6" class="edge"><title>Node6&#45;&gt;Node7</title>
<path fill="none" stroke="midnightblue" d="M352.069,-440.963C364.16,-442.583 376.66,-444.259 388.777,-445.883"/>
<polygon fill="midnightblue" stroke="midnightblue" points="388.471,-449.373 398.848,-447.232 389.401,-442.435 388.471,-449.373"/>
</g>
<!-- Node8 -->
<g id="node8" class="node"><title>Node8</title>
<g id="a_node8"><a xlink:href="classRa_1_1Asset_1_1AnimationTime.html#a99e02d1a87c8a6b61d1826592e191e50" target="_top" xlink:title="Ra::Asset::AnimationTime\l::setEnd">
<polygon fill="white" stroke="black" points="399,-392.5 399,-422.5 539,-422.5 539,-392.5 399,-392.5"/>
<text text-anchor="start" x="407" y="-410.5" font-family="Helvetica,sans-Serif" font-size="10.00">Ra::Asset::AnimationTime</text>
<text text-anchor="middle" x="469" y="-399.5" font-family="Helvetica,sans-Serif" font-size="10.00">::setEnd</text>
</a>
</g>
</g>
<!-- Node6&#45;&gt;Node8 -->
<g id="edge7" class="edge"><title>Node6&#45;&gt;Node8</title>
<path fill="none" stroke="midnightblue" d="M352.069,-421.244C364.16,-419.811 376.66,-418.329 388.777,-416.892"/>
<polygon fill="midnightblue" stroke="midnightblue" points="389.329,-420.352 398.848,-415.698 388.505,-413.4 389.329,-420.352"/>
</g>
<!-- Node9 -->
<g id="node9" class="node"><title>Node9</title>
<g id="a_node9"><a xlink:href="classRa_1_1Asset_1_1AnimationData.html#ada0a04150c4c9051261d95fcad8b78db" target="_top" xlink:title="Ra::Asset::AnimationData\l::setTime">
<polygon fill="white" stroke="black" points="399,-343.5 399,-373.5 539,-373.5 539,-343.5 399,-343.5"/>
<text text-anchor="start" x="407" y="-361.5" font-family="Helvetica,sans-Serif" font-size="10.00">Ra::Asset::AnimationData</text>
<text text-anchor="middle" x="469" y="-350.5" font-family="Helvetica,sans-Serif" font-size="10.00">::setTime</text>
</a>
</g>
</g>
<!-- Node6&#45;&gt;Node9 -->
<g id="edge8" class="edge"><title>Node6&#45;&gt;Node9</title>
<path fill="none" stroke="midnightblue" d="M307.051,-415.477C329.611,-405.497 360.313,-392.449 388,-382.5 393.507,-380.521 399.267,-378.569 405.062,-376.686"/>
<polygon fill="midnightblue" stroke="midnightblue" points="406.339,-379.952 414.809,-373.587 404.219,-373.281 406.339,-379.952"/>
</g>
<!-- Node10 -->
<g id="node10" class="node"><title>Node10</title>
<g id="a_node10"><a xlink:href="classRa_1_1Asset_1_1AnimationData.html#a7a56f036e3a6b2a7db50ae0bd3a0fb32" target="_top" xlink:title="Ra::Asset::AnimationData\l::setTimeStep">
<polygon fill="white" stroke="black" points="399,-490.5 399,-520.5 539,-520.5 539,-490.5 399,-490.5"/>
<text text-anchor="start" x="407" y="-508.5" font-family="Helvetica,sans-Serif" font-size="10.00">Ra::Asset::AnimationData</text>
<text text-anchor="middle" x="469" y="-497.5" font-family="Helvetica,sans-Serif" font-size="10.00">::setTimeStep</text>
</a>
</g>
</g>
<!-- Node6&#45;&gt;Node10 -->
<g id="edge9" class="edge"><title>Node6&#45;&gt;Node10</title>
<path fill="none" stroke="midnightblue" d="M306.04,-445.687C328.674,-456.135 359.866,-469.971 388,-480.5 394.226,-482.83 400.778,-485.125 407.341,-487.323"/>
<polygon fill="midnightblue" stroke="midnightblue" points="406.336,-490.676 416.928,-490.466 408.517,-484.024 406.336,-490.676"/>
</g>
<!-- Node11 -->
<g id="node11" class="node"><title>Node11</title>
<g id="a_node11"><a xlink:href="namespaceRa_1_1Core_1_1Algorithm.html#abebfe08bb2303204bea2baea8195439d" target="_top" xlink:title="Ra::Core::Algorithm\l::delta">
<polygon fill="white" stroke="black" points="596,-490.5 596,-520.5 706,-520.5 706,-490.5 596,-490.5"/>
<text text-anchor="start" x="604" y="-508.5" font-family="Helvetica,sans-Serif" font-size="10.00">Ra::Core::Algorithm</text>
<text text-anchor="middle" x="651" y="-497.5" font-family="Helvetica,sans-Serif" font-size="10.00">::delta</text>
</a>
</g>
</g>
<!-- Node10&#45;&gt;Node11 -->
<g id="edge10" class="edge"><title>Node10&#45;&gt;Node11</title>
<path fill="none" stroke="midnightblue" d="M539.078,-505.5C554.383,-505.5 570.543,-505.5 585.65,-505.5"/>
<polygon fill="midnightblue" stroke="midnightblue" points="585.918,-509 595.918,-505.5 585.918,-502 585.918,-509"/>
</g>
<!-- Node12&#45;&gt;Node9 -->
<g id="edge22" class="edge"><title>Node12&#45;&gt;Node9</title>
<path fill="none" stroke="midnightblue" d="M294.052,-275.698C316.106,-291.836 353.067,-317.215 388,-333.5 392.946,-335.806 398.159,-337.972 403.456,-339.991"/>
<polygon fill="midnightblue" stroke="midnightblue" points="402.445,-343.347 413.039,-343.463 404.83,-336.766 402.445,-343.347"/>
</g>
<!-- Node13 -->
<g id="node13" class="node"><title>Node13</title>
<g id="a_node13"><a xlink:href="classRa_1_1Asset_1_1AnimationData.html#abbf0364d025ccbeb3ae77ef211c1e855" target="_top" xlink:title="TIME. ">
<polygon fill="white" stroke="black" points="399,-294.5 399,-324.5 539,-324.5 539,-294.5 399,-294.5"/>
<text text-anchor="start" x="407" y="-312.5" font-family="Helvetica,sans-Serif" font-size="10.00">Ra::Asset::AnimationData</text>
<text text-anchor="middle" x="469" y="-301.5" font-family="Helvetica,sans-Serif" font-size="10.00">::getTime</text>
</a>
</g>
</g>
<!-- Node12&#45;&gt;Node13 -->
<g id="edge12" class="edge"><title>Node12&#45;&gt;Node13</title>
<path fill="none" stroke="midnightblue" d="M333.525,-275.535C354.102,-280.732 377.337,-286.601 398.634,-291.98"/>
<polygon fill="midnightblue" stroke="midnightblue" points="398.035,-295.438 408.588,-294.494 399.749,-288.651 398.035,-295.438"/>
</g>
<!-- Node14 -->
<g id="node14" class="node"><title>Node14</title>
<g id="a_node14"><a xlink:href="classRa_1_1IO_1_1AssimpAnimationDataLoader.html#a130765ba65955c0d5c3217f813c0a812" target="_top" xlink:title="Ra::IO::AssimpAnimationData\lLoader::fetchHandleAnimation">
<polygon fill="white" stroke="black" points="388,-196.5 388,-226.5 550,-226.5 550,-196.5 388,-196.5"/>
<text text-anchor="start" x="396" y="-214.5" font-family="Helvetica,sans-Serif" font-size="10.00">Ra::IO::AssimpAnimationData</text>
<text text-anchor="middle" x="469" y="-203.5" font-family="Helvetica,sans-Serif" font-size="10.00">Loader::fetchHandleAnimation</text>
</a>
</g>
</g>
<!-- Node12&#45;&gt;Node14 -->
<g id="edge13" class="edge"><title>Node12&#45;&gt;Node14</title>
<path fill="none" stroke="midnightblue" d="M333.525,-245.465C354.102,-240.268 377.337,-234.399 398.634,-229.02"/>
<polygon fill="midnightblue" stroke="midnightblue" points="399.749,-232.349 408.588,-226.506 398.035,-225.562 399.749,-232.349"/>
</g>
<!-- Node19 -->
<g id="node19" class="node"><title>Node19</title>
<g id="a_node19"><a xlink:href="classRa_1_1Asset_1_1AnimationData.html#adf6d483b196fea688300b82fc0c3d185" target="_top" xlink:title="Ra::Asset::AnimationData\l::getTimeStep">
<polygon fill="white" stroke="black" points="399,-245.5 399,-275.5 539,-275.5 539,-245.5 399,-245.5"/>
<text text-anchor="start" x="407" y="-263.5" font-family="Helvetica,sans-Serif" font-size="10.00">Ra::Asset::AnimationData</text>
<text text-anchor="middle" x="469" y="-252.5" font-family="Helvetica,sans-Serif" font-size="10.00">::getTimeStep</text>
</a>
</g>
</g>
<!-- Node12&#45;&gt;Node19 -->
<g id="edge19" class="edge"><title>Node12&#45;&gt;Node19</title>
<path fill="none" stroke="midnightblue" d="M352.069,-260.5C364.16,-260.5 376.66,-260.5 388.777,-260.5"/>
<polygon fill="midnightblue" stroke="midnightblue" points="388.848,-264 398.848,-260.5 388.848,-257 388.848,-264"/>
</g>
<!-- Node20 -->
<g id="node20" class="node"><title>Node20</title>
<g id="a_node20"><a xlink:href="classRa_1_1Asset_1_1AnimationTime.html#a189ab9544e851ed6ab2d36a2b5d6a952" target="_top" xlink:title="Ra::Asset::AnimationTime\l::merge">
<polygon fill="white" stroke="black" points="399,-147.5 399,-177.5 539,-177.5 539,-147.5 399,-147.5"/>
<text text-anchor="start" x="407" y="-165.5" font-family="Helvetica,sans-Serif" font-size="10.00">Ra::Asset::AnimationTime</text>
<text text-anchor="middle" x="469" y="-154.5" font-family="Helvetica,sans-Serif" font-size="10.00">::merge</text>
</a>
</g>
</g>
<!-- Node12&#45;&gt;Node20 -->
<g id="edge20" class="edge"><title>Node12&#45;&gt;Node20</title>
<path fill="none" stroke="midnightblue" d="M293.581,-245.297C315.525,-228.87 352.67,-202.858 388,-186.5 392.108,-184.598 396.404,-182.803 400.78,-181.117"/>
<polygon fill="midnightblue" stroke="midnightblue" points="402.247,-184.308 410.449,-177.602 399.855,-177.729 402.247,-184.308"/>
</g>
<!-- Node21 -->
<g id="node21" class="node"><title>Node21</title>
<g id="a_node21"><a xlink:href="classRa_1_1Asset_1_1AnimationData.html#ae05331a7e0461688bedfa79ce4e34b4e" target="_top" xlink:title="Ra::Asset::AnimationData\l::setFrames">
<polygon fill="white" stroke="black" points="399,-98.5 399,-128.5 539,-128.5 539,-98.5 399,-98.5"/>
<text text-anchor="start" x="407" y="-116.5" font-family="Helvetica,sans-Serif" font-size="10.00">Ra::Asset::AnimationData</text>
<text text-anchor="middle" x="469" y="-105.5" font-family="Helvetica,sans-Serif" font-size="10.00">::setFrames</text>
</a>
</g>
</g>
<!-- Node12&#45;&gt;Node21 -->
<g id="edge21" class="edge"><title>Node12&#45;&gt;Node21</title>
<path fill="none" stroke="midnightblue" d="M284.025,-245.204C301.842,-219.217 341.548,-166.455 388,-137.5 390.769,-135.774 393.669,-134.166 396.656,-132.669"/>
<polygon fill="midnightblue" stroke="midnightblue" points="398.174,-135.823 405.832,-128.501 395.28,-129.45 398.174,-135.823"/>
</g>
<!-- Node14&#45;&gt;Node5 -->
<g id="edge16" class="edge"><title>Node14&#45;&gt;Node5</title>
<path fill="none" stroke="midnightblue" d="M540.051,-226.565C543.734,-229.107 547.103,-232.063 550,-235.5 635.13,-336.49 500.725,-429.632 586,-530.5 587.006,-531.689 588.082,-532.806 589.219,-533.855"/>
<polygon fill="midnightblue" stroke="midnightblue" points="587.337,-536.814 597.493,-539.833 591.437,-531.139 587.337,-536.814"/>
</g>
<!-- Node15 -->
<g id="node15" class="node"><title>Node15</title>
<g id="a_node15"><a xlink:href="classRa_1_1Asset_1_1KeyFrame.html#a42442ed8c9ee7f7c24ef52ff62ee30ae" target="_top" xlink:title="RESET. ">
<polygon fill="white" stroke="black" points="594,-221.5 594,-251.5 708,-251.5 708,-221.5 594,-221.5"/>
<text text-anchor="start" x="602" y="-239.5" font-family="Helvetica,sans-Serif" font-size="10.00">Ra::Asset::KeyFrame</text>
<text text-anchor="middle" x="651" y="-228.5" font-family="Helvetica,sans-Serif" font-size="10.00">::reset</text>
</a>
</g>
</g>
<!-- Node14&#45;&gt;Node15 -->
<g id="edge14" class="edge"><title>Node14&#45;&gt;Node15</title>
<path fill="none" stroke="midnightblue" d="M550.261,-222.647C561.415,-224.197 572.771,-225.774 583.633,-227.282"/>
<polygon fill="midnightblue" stroke="midnightblue" points="583.486,-230.795 593.872,-228.705 584.449,-223.862 583.486,-230.795"/>
</g>
<!-- Node16 -->
<g id="node16" class="node"><title>Node16</title>
<g id="a_node16"><a xlink:href="classRa_1_1Asset_1_1KeyFrame.html#aea56e20481b32c5a81ff6d9eb34f9e97" target="_top" xlink:title="Ra::Asset::KeyFrame\l::insertKeyFrame">
<polygon fill="white" stroke="black" points="594,-172.5 594,-202.5 708,-202.5 708,-172.5 594,-172.5"/>
<text text-anchor="start" x="602" y="-190.5" font-family="Helvetica,sans-Serif" font-size="10.00">Ra::Asset::KeyFrame</text>
<text text-anchor="middle" x="651" y="-179.5" font-family="Helvetica,sans-Serif" font-size="10.00">::insertKeyFrame</text>
</a>
</g>
</g>
<!-- Node14&#45;&gt;Node16 -->
<g id="edge15" class="edge"><title>Node14&#45;&gt;Node16</title>
<path fill="none" stroke="midnightblue" d="M550.261,-200.799C561.415,-199.311 572.771,-197.797 583.633,-196.349"/>
<polygon fill="midnightblue" stroke="midnightblue" points="584.423,-199.775 593.872,-194.984 583.498,-192.836 584.423,-199.775"/>
</g>
<!-- Node17 -->
<g id="node17" class="node"><title>Node17</title>
<g id="a_node17"><a xlink:href="classRa_1_1Asset_1_1KeyFrame.html#a11502b1be2a8476d891058748a4158be" target="_top" xlink:title="Ra::Asset::KeyFrame\l::setAnimationTime">
<polygon fill="white" stroke="black" points="594,-123.5 594,-153.5 708,-153.5 708,-123.5 594,-123.5"/>
<text text-anchor="start" x="602" y="-141.5" font-family="Helvetica,sans-Serif" font-size="10.00">Ra::Asset::KeyFrame</text>
<text text-anchor="middle" x="651" y="-130.5" font-family="Helvetica,sans-Serif" font-size="10.00">::setAnimationTime</text>
</a>
</g>
</g>
<!-- Node14&#45;&gt;Node17 -->
<g id="edge17" class="edge"><title>Node14&#45;&gt;Node17</title>
<path fill="none" stroke="midnightblue" d="M525.447,-196.443C533.827,-193.521 542.253,-190.199 550,-186.5 567.353,-178.215 568.885,-171.267 586,-162.5 589.31,-160.804 592.77,-159.164 596.292,-157.591"/>
<polygon fill="midnightblue" stroke="midnightblue" points="597.867,-160.725 605.702,-153.593 595.129,-154.282 597.867,-160.725"/>
</g>
<!-- Node18 -->
<g id="node18" class="node"><title>Node18</title>
<g id="a_node18"><a xlink:href="classRa_1_1Asset_1_1KeyFrame.html#a061bfb7750328282a1965eb2fee01915" target="_top" xlink:title="Ra::Asset::KeyFrame::at">
<polygon fill="white" stroke="black" points="586,-271 586,-290 716,-290 716,-271 586,-271"/>
<text text-anchor="middle" x="651" y="-278" font-family="Helvetica,sans-Serif" font-size="10.00">Ra::Asset::KeyFrame::at</text>
</a>
</g>
</g>
<!-- Node14&#45;&gt;Node18 -->
<g id="edge18" class="edge"><title>Node14&#45;&gt;Node18</title>
<path fill="none" stroke="midnightblue" d="M528.074,-226.544C535.592,-229.178 543.077,-232.163 550,-235.5 567.547,-243.959 568.502,-251.941 586,-260.5 591.359,-263.121 597.138,-265.495 602.953,-267.615"/>
<polygon fill="midnightblue" stroke="midnightblue" points="602.111,-271.026 612.706,-270.941 604.371,-264.4 602.111,-271.026"/>
</g>
<!-- Node23 -->
<g id="node23" class="node"><title>Node23</title>
<g id="a_node23"><a xlink:href="classRa_1_1Asset_1_1AnimationTime.html#adab2c237d3d61b3dac6189cc2a66155a" target="_top" xlink:title="TIME. ">
<polygon fill="white" stroke="black" points="399,-0.5 399,-30.5 539,-30.5 539,-0.5 399,-0.5"/>
<text text-anchor="start" x="407" y="-18.5" font-family="Helvetica,sans-Serif" font-size="10.00">Ra::Asset::AnimationTime</text>
<text text-anchor="middle" x="469" y="-7.5" font-family="Helvetica,sans-Serif" font-size="10.00">::getStart</text>
</a>
</g>
</g>
<!-- Node22&#45;&gt;Node23 -->
<g id="edge24" class="edge"><title>Node22&#45;&gt;Node23</title>
<path fill="none" stroke="midnightblue" d="M333.525,-49.4654C354.102,-44.2682 377.337,-38.3994 398.634,-33.0204"/>
<polygon fill="midnightblue" stroke="midnightblue" points="399.749,-36.3486 408.588,-30.5062 398.035,-29.5617 399.749,-36.3486"/>
</g>
<!-- Node24 -->
<g id="node24" class="node"><title>Node24</title>
<g id="a_node24"><a xlink:href="classRa_1_1Asset_1_1AnimationTime.html#a80aac004bfc4237dec4a36a83fe8466a" target="_top" xlink:title="Ra::Asset::AnimationTime\l::getEnd">
<polygon fill="white" stroke="black" points="399,-49.5 399,-79.5 539,-79.5 539,-49.5 399,-49.5"/>
<text text-anchor="start" x="407" y="-67.5" font-family="Helvetica,sans-Serif" font-size="10.00">Ra::Asset::AnimationTime</text>
<text text-anchor="middle" x="469" y="-56.5" font-family="Helvetica,sans-Serif" font-size="10.00">::getEnd</text>
</a>
</g>
</g>
<!-- Node22&#45;&gt;Node24 -->
<g id="edge25" class="edge"><title>Node22&#45;&gt;Node24</title>
<path fill="none" stroke="midnightblue" d="M343.217,-64.5C357.893,-64.5 373.497,-64.5 388.52,-64.5"/>
<polygon fill="midnightblue" stroke="midnightblue" points="388.81,-68.0001 398.81,-64.5 388.81,-61.0001 388.81,-68.0001"/>
</g>
</g>
</svg>
