<?xml version="1.0" encoding="UTF-8" standalone="no"?>
<!DOCTYPE svg PUBLIC "-//W3C//DTD SVG 1.1//EN"
 "http://www.w3.org/Graphics/SVG/1.1/DTD/svg11.dtd">
<!-- Generated by graphviz version 2.38.0 (20140413.2041)
 -->
<!-- Title: Ra::Core::SplineCurve Pages: 1 -->
<svg width="128pt" height="248pt"
 viewBox="0.00 0.00 128.00 248.00" xmlns="http://www.w3.org/2000/svg" xmlns:xlink="http://www.w3.org/1999/xlink">
<g id="graph0" class="graph" transform="scale(1 1) rotate(0) translate(4 244)">
<title>Ra::Core::SplineCurve</title>
<polygon fill="white" stroke="none" points="-4,4 -4,-244 124,-244 124,4 -4,4"/>
<!-- Node1 -->
<g id="node1" class="node"><title>Node1</title>
<polygon fill="#bfbfbf" stroke="black" points="-7.10543e-15,-0.5 -7.10543e-15,-112.5 120,-112.5 120,-0.5 -7.10543e-15,-0.5"/>
<text text-anchor="middle" x="60" y="-100.5" font-family="Helvetica,sans-Serif" font-size="10.00">Ra::Core::SplineCurve</text>
<polyline fill="none" stroke="black" points="-7.10543e-15,-93.5 120,-93.5 "/>
<text text-anchor="middle" x="60" y="-81.5" font-family="Helvetica,sans-Serif" font-size="10.00"> </text>
<polyline fill="none" stroke="black" points="-7.10543e-15,-74.5 120,-74.5 "/>
<text text-anchor="start" x="8" y="-62.5" font-family="Helvetica,sans-Serif" font-size="10.00">+ SplineCurve()</text>
<text text-anchor="start" x="8" y="-51.5" font-family="Helvetica,sans-Serif" font-size="10.00">+ SplineCurve()</text>
<text text-anchor="start" x="8" y="-40.5" font-family="Helvetica,sans-Serif" font-size="10.00">+ addPoint()</text>
<text text-anchor="start" x="8" y="-29.5" font-family="Helvetica,sans-Serif" font-size="10.00">+ f()</text>
<text text-anchor="start" x="8" y="-18.5" font-family="Helvetica,sans-Serif" font-size="10.00">+ df()</text>
<text text-anchor="start" x="8" y="-7.5" font-family="Helvetica,sans-Serif" font-size="10.00">+ fdf()</text>
</g>
<!-- Node2 -->
<g id="node2" class="node"><title>Node2</title>
<g id="a_node2"><a xlink:href="classRa_1_1Core_1_1Curve2D.html" target="_top" xlink:title="{Ra::Core::Curve2D\n|# size\l|+ addPoint()\l+ f()\l+ df()\l+ fdf()\l}">
<polygon fill="white" stroke="black" points="8,-149.5 8,-239.5 112,-239.5 112,-149.5 8,-149.5"/>
<text text-anchor="middle" x="60" y="-227.5" font-family="Helvetica,sans-Serif" font-size="10.00">Ra::Core::Curve2D</text>
<polyline fill="none" stroke="black" points="8,-220.5 112,-220.5 "/>
<text text-anchor="start" x="16" y="-208.5" font-family="Helvetica,sans-Serif" font-size="10.00"># size</text>
<polyline fill="none" stroke="black" points="8,-201.5 112,-201.5 "/>
<text text-anchor="start" x="16" y="-189.5" font-family="Helvetica,sans-Serif" font-size="10.00">+ addPoint()</text>
<text text-anchor="start" x="16" y="-178.5" font-family="Helvetica,sans-Serif" font-size="10.00">+ f()</text>
<text text-anchor="start" x="16" y="-167.5" font-family="Helvetica,sans-Serif" font-size="10.00">+ df()</text>
<text text-anchor="start" x="16" y="-156.5" font-family="Helvetica,sans-Serif" font-size="10.00">+ fdf()</text>
</a>
</g>
</g>
<!-- Node2&#45;&gt;Node1 -->
<g id="edge1" class="edge"><title>Node2&#45;&gt;Node1</title>
<path fill="none" stroke="midnightblue" d="M60,-139.312C60,-130.611 60,-121.595 60,-112.867"/>
<polygon fill="none" stroke="midnightblue" points="56.5001,-139.345 60,-149.345 63.5001,-139.345 56.5001,-139.345"/>
</g>
</g>
</svg>
