<?xml version="1.0" encoding="UTF-8" standalone="no"?>
<!DOCTYPE svg PUBLIC "-//W3C//DTD SVG 1.1//EN"
 "http://www.w3.org/Graphics/SVG/1.1/DTD/svg11.dtd">
<!-- Generated by graphviz version 2.38.0 (20140413.2041)
 -->
<!-- Title: MeshPaintPlugin::MeshPaintPluginC::onCurrentChanged Pages: 1 -->
<svg width="1077pt" height="250pt"
 viewBox="0.00 0.00 1077.00 250.00" xmlns="http://www.w3.org/2000/svg" xmlns:xlink="http://www.w3.org/1999/xlink">
<g id="graph0" class="graph" transform="scale(1 1) rotate(0) translate(4 246)">
<title>MeshPaintPlugin::MeshPaintPluginC::onCurrentChanged</title>
<polygon fill="white" stroke="none" points="-4,4 -4,-246 1073,-246 1073,4 -4,4"/>
<!-- Node1 -->
<g id="node1" class="node"><title>Node1</title>
<polygon fill="#bfbfbf" stroke="black" points="0,-99 0,-129 149,-129 149,-99 0,-99"/>
<text text-anchor="start" x="8" y="-117" font-family="Helvetica,sans-Serif" font-size="10.00">MeshPaintPlugin::MeshPaint</text>
<text text-anchor="middle" x="74.5" y="-106" font-family="Helvetica,sans-Serif" font-size="10.00">PluginC::onCurrentChanged</text>
</g>
<!-- Node2 -->
<g id="node2" class="node"><title>Node2</title>
<g id="a_node2"><a xlink:href="classRa_1_1Core_1_1Index.html#a16f988512f9ef442cc97b6bc4809ba45" target="_top" xlink:title="Ra::Core::Index::Invalid">
<polygon fill="white" stroke="black" points="206,-197.5 206,-216.5 331,-216.5 331,-197.5 206,-197.5"/>
<text text-anchor="middle" x="268.5" y="-204.5" font-family="Helvetica,sans-Serif" font-size="10.00">Ra::Core::Index::Invalid</text>
</a>
</g>
</g>
<!-- Node1&#45;&gt;Node2 -->
<g id="edge1" class="edge"><title>Node1&#45;&gt;Node2</title>
<path fill="none" stroke="midnightblue" d="M106.775,-129.149C143.199,-146.792 202.89,-175.705 238.369,-192.89"/>
<polygon fill="midnightblue" stroke="midnightblue" points="237.169,-196.197 247.695,-197.407 240.221,-189.898 237.169,-196.197"/>
</g>
<!-- Node4 -->
<g id="node4" class="node"><title>Node4</title>
<g id="a_node4"><a xlink:href="classRa_1_1GuiBase_1_1SelectionManager.html#a29cbd250208f1e18d2ab1e0f4d91105d" target="_top" xlink:title="Return the current selected item, or an invalid entry if there is no current item. ">
<polygon fill="white" stroke="black" points="185,-124 185,-154 352,-154 352,-124 185,-124"/>
<text text-anchor="start" x="193" y="-142" font-family="Helvetica,sans-Serif" font-size="10.00">Ra::GuiBase::SelectionManager</text>
<text text-anchor="middle" x="268.5" y="-131" font-family="Helvetica,sans-Serif" font-size="10.00">::currentItem</text>
</a>
</g>
</g>
<!-- Node1&#45;&gt;Node4 -->
<g id="edge3" class="edge"><title>Node1&#45;&gt;Node4</title>
<path fill="none" stroke="midnightblue" d="M149.183,-123.594C157.544,-124.683 166.144,-125.803 174.71,-126.918"/>
<polygon fill="midnightblue" stroke="midnightblue" points="174.366,-130.403 184.734,-128.223 175.27,-123.461 174.366,-130.403"/>
</g>
<!-- Node9 -->
<g id="node9" class="node"><title>Node9</title>
<g id="a_node9"><a xlink:href="classMeshPaintPlugin_1_1MeshPaintSystem.html#a7778723bd43c13d6b9db42ea8b1fbe09" target="_top" xlink:title="MeshPaintPlugin::MeshPaint\lSystem::paintMesh">
<polygon fill="white" stroke="black" points="194,-75 194,-105 343,-105 343,-75 194,-75"/>
<text text-anchor="start" x="202" y="-93" font-family="Helvetica,sans-Serif" font-size="10.00">MeshPaintPlugin::MeshPaint</text>
<text text-anchor="middle" x="268.5" y="-82" font-family="Helvetica,sans-Serif" font-size="10.00">System::paintMesh</text>
</a>
</g>
</g>
<!-- Node1&#45;&gt;Node9 -->
<g id="edge8" class="edge"><title>Node1&#45;&gt;Node9</title>
<path fill="none" stroke="midnightblue" d="M149.183,-104.79C160.47,-103.379 172.194,-101.913 183.68,-100.477"/>
<polygon fill="midnightblue" stroke="midnightblue" points="184.208,-103.939 193.697,-99.2254 183.34,-96.9929 184.208,-103.939"/>
</g>
<!-- Node16 -->
<g id="node16" class="node"><title>Node16</title>
<g id="a_node16"><a xlink:href="classRa_1_1Gui_1_1PickingManager.html#a93bbe7807a11b0aa423ddcc777dc1168" target="_top" xlink:title="Ra::Gui::PickingManager\l::getCurrent">
<polygon fill="white" stroke="black" points="203,-26 203,-56 334,-56 334,-26 203,-26"/>
<text text-anchor="start" x="211" y="-44" font-family="Helvetica,sans-Serif" font-size="10.00">Ra::Gui::PickingManager</text>
<text text-anchor="middle" x="268.5" y="-33" font-family="Helvetica,sans-Serif" font-size="10.00">::getCurrent</text>
</a>
</g>
</g>
<!-- Node1&#45;&gt;Node16 -->
<g id="edge15" class="edge"><title>Node1&#45;&gt;Node16</title>
<path fill="none" stroke="midnightblue" d="M106.181,-98.9037C127.878,-88.5675 157.825,-74.9792 185,-65 190.472,-62.9906 196.196,-61.0355 201.967,-59.1648"/>
<polygon fill="midnightblue" stroke="midnightblue" points="203.202,-62.4453 211.688,-56.1017 201.098,-55.7689 203.202,-62.4453"/>
</g>
<!-- Node3 -->
<g id="node3" class="node"><title>Node3</title>
<g id="a_node3"><a xlink:href="classRa_1_1Core_1_1Index.html#af6afe563ad57a4ab82f3706987e684ef" target="_top" xlink:title="CONSTRUCTOR Default constructor that allow implicit conversion from integer to Index. ">
<polygon fill="white" stroke="black" points="411.5,-222.5 411.5,-241.5 531.5,-241.5 531.5,-222.5 411.5,-222.5"/>
<text text-anchor="middle" x="471.5" y="-229.5" font-family="Helvetica,sans-Serif" font-size="10.00">Ra::Core::Index::Index</text>
</a>
</g>
</g>
<!-- Node2&#45;&gt;Node3 -->
<g id="edge2" class="edge"><title>Node2&#45;&gt;Node3</title>
<path fill="none" stroke="midnightblue" d="M331.173,-214.671C353.388,-217.434 378.596,-220.569 401.404,-223.406"/>
<polygon fill="midnightblue" stroke="midnightblue" points="400.999,-226.882 411.354,-224.644 401.863,-219.936 400.999,-226.882"/>
</g>
<!-- Node5 -->
<g id="node5" class="node"><title>Node5</title>
<g id="a_node5"><a xlink:href="classRa_1_1GuiBase_1_1SelectionManager.html#aec178a6b3de1c04e5e1d16ff72c6e966" target="_top" xlink:title="Ra::GuiBase::SelectionManager\l::itemModel">
<polygon fill="white" stroke="black" points="388,-173 388,-203 555,-203 555,-173 388,-173"/>
<text text-anchor="start" x="396" y="-191" font-family="Helvetica,sans-Serif" font-size="10.00">Ra::GuiBase::SelectionManager</text>
<text text-anchor="middle" x="471.5" y="-180" font-family="Helvetica,sans-Serif" font-size="10.00">::itemModel</text>
</a>
</g>
</g>
<!-- Node4&#45;&gt;Node5 -->
<g id="edge4" class="edge"><title>Node4&#45;&gt;Node5</title>
<path fill="none" stroke="midnightblue" d="M331.173,-154.035C352.588,-159.255 376.784,-165.154 398.93,-170.553"/>
<polygon fill="midnightblue" stroke="midnightblue" points="398.4,-174.026 408.944,-172.994 400.058,-167.225 398.4,-174.026"/>
</g>
<!-- Node6 -->
<g id="node6" class="node"><title>Node6</title>
<g id="a_node6"><a xlink:href="classRa_1_1GuiBase_1_1ItemModel.html#a3236433d461ad6cac5e9390b2685fa3f" target="_top" xlink:title="Returns the entry corresponding to a given index or an invalid entry if the index doesn&#39;t match any e...">
<polygon fill="white" stroke="black" points="406,-124 406,-154 537,-154 537,-124 406,-124"/>
<text text-anchor="start" x="414" y="-142" font-family="Helvetica,sans-Serif" font-size="10.00">Ra::GuiBase::ItemModel</text>
<text text-anchor="middle" x="471.5" y="-131" font-family="Helvetica,sans-Serif" font-size="10.00">::getEntry</text>
</a>
</g>
</g>
<!-- Node4&#45;&gt;Node6 -->
<g id="edge5" class="edge"><title>Node4&#45;&gt;Node6</title>
<path fill="none" stroke="midnightblue" d="M352.125,-139C366.501,-139 381.382,-139 395.538,-139"/>
<polygon fill="midnightblue" stroke="midnightblue" points="395.701,-142.5 405.701,-139 395.701,-135.5 395.701,-142.5"/>
</g>
<!-- Node7 -->
<g id="node7" class="node"><title>Node7</title>
<g id="a_node7"><a xlink:href="classRa_1_1GuiBase_1_1TreeModel.html#a5aa24ace72c1c3d29e268cb34dc576f2" target="_top" xlink:title="Get the tree item corresponding to the given index. ">
<polygon fill="white" stroke="black" points="599,-137 599,-167 727,-167 727,-137 599,-137"/>
<text text-anchor="start" x="607" y="-155" font-family="Helvetica,sans-Serif" font-size="10.00">Ra::GuiBase::TreeModel</text>
<text text-anchor="middle" x="663" y="-144" font-family="Helvetica,sans-Serif" font-size="10.00">::getItem</text>
</a>
</g>
</g>
<!-- Node6&#45;&gt;Node7 -->
<g id="edge6" class="edge"><title>Node6&#45;&gt;Node7</title>
<path fill="none" stroke="midnightblue" d="M537.185,-143.438C553.7,-144.57 571.575,-145.797 588.497,-146.958"/>
<polygon fill="midnightblue" stroke="midnightblue" points="588.673,-150.478 598.889,-147.67 589.152,-143.494 588.673,-150.478"/>
</g>
<!-- Node8 -->
<g id="node8" class="node"><title>Node8</title>
<g id="a_node8"><a xlink:href="classRa_1_1GuiBase_1_1TreeModel.html#a972106921da4c960f23f81722d3b4cf5" target="_top" xlink:title="Internal functions to check if an item is in the tree. ">
<polygon fill="white" stroke="black" points="775.5,-137 775.5,-167 903.5,-167 903.5,-137 775.5,-137"/>
<text text-anchor="start" x="783.5" y="-155" font-family="Helvetica,sans-Serif" font-size="10.00">Ra::GuiBase::TreeModel</text>
<text text-anchor="middle" x="839.5" y="-144" font-family="Helvetica,sans-Serif" font-size="10.00">::findInTree</text>
</a>
</g>
</g>
<!-- Node7&#45;&gt;Node8 -->
<g id="edge7" class="edge"><title>Node7&#45;&gt;Node8</title>
<path fill="none" stroke="midnightblue" d="M727.492,-152C739.673,-152 752.523,-152 764.989,-152"/>
<polygon fill="midnightblue" stroke="midnightblue" points="765.347,-155.5 775.347,-152 765.347,-148.5 765.347,-155.5"/>
</g>
<!-- Node10 -->
<g id="node10" class="node"><title>Node10</title>
<g id="a_node10"><a xlink:href="classMeshPaintPlugin_1_1MeshPaintComponent.html#af8ea91954674d7815f830ba3c280a1de" target="_top" xlink:title="MeshPaintPlugin::MeshPaint\lComponent::paintMesh">
<polygon fill="white" stroke="black" points="397,-51 397,-81 546,-81 546,-51 397,-51"/>
<text text-anchor="start" x="405" y="-69" font-family="Helvetica,sans-Serif" font-size="10.00">MeshPaintPlugin::MeshPaint</text>
<text text-anchor="middle" x="471.5" y="-58" font-family="Helvetica,sans-Serif" font-size="10.00">Component::paintMesh</text>
</a>
</g>
</g>
<!-- Node9&#45;&gt;Node10 -->
<g id="edge9" class="edge"><title>Node9&#45;&gt;Node10</title>
<path fill="none" stroke="midnightblue" d="M343.204,-81.1996C357.405,-79.5039 372.376,-77.7163 386.866,-75.9861"/>
<polygon fill="midnightblue" stroke="midnightblue" points="387.291,-79.4604 396.805,-74.7994 386.461,-72.5098 387.291,-79.4604"/>
</g>
<!-- Node11 -->
<g id="node11" class="node"><title>Node11</title>
<g id="a_node11"><a xlink:href="classRa_1_1Engine_1_1Component.html#a10b0bc182b76165744ebea603ae32dfe" target="_top" xlink:title="Shortcut to access the render object manager. ">
<polygon fill="white" stroke="black" points="598.5,-88 598.5,-118 727.5,-118 727.5,-88 598.5,-88"/>
<text text-anchor="start" x="606.5" y="-106" font-family="Helvetica,sans-Serif" font-size="10.00">Ra::Engine::Component</text>
<text text-anchor="middle" x="663" y="-95" font-family="Helvetica,sans-Serif" font-size="10.00">::getRoMgr</text>
</a>
</g>
</g>
<!-- Node10&#45;&gt;Node11 -->
<g id="edge10" class="edge"><title>Node10&#45;&gt;Node11</title>
<path fill="none" stroke="midnightblue" d="M546.037,-80.3581C559.934,-83.0715 574.473,-85.9103 588.373,-88.6242"/>
<polygon fill="midnightblue" stroke="midnightblue" points="587.877,-92.0935 598.363,-90.5748 589.219,-85.2233 587.877,-92.0935"/>
</g>
<!-- Node12 -->
<g id="node12" class="node"><title>Node12</title>
<g id="a_node12"><a xlink:href="classRa_1_1Engine_1_1RenderObjectManager.html#a32bd0db0d9620bb7e3f0fe50b541dae3" target="_top" xlink:title="Returns the render object corresponding to the given index. ">
<polygon fill="white" stroke="black" points="591,-39 591,-69 735,-69 735,-39 591,-39"/>
<text text-anchor="start" x="599" y="-57" font-family="Helvetica,sans-Serif" font-size="10.00">Ra::Engine::RenderObject</text>
<text text-anchor="middle" x="663" y="-46" font-family="Helvetica,sans-Serif" font-size="10.00">Manager::getRenderObject</text>
</a>
</g>
</g>
<!-- Node10&#45;&gt;Node12 -->
<g id="edge11" class="edge"><title>Node10&#45;&gt;Node12</title>
<path fill="none" stroke="midnightblue" d="M546.037,-61.3433C557.463,-60.6198 569.323,-59.8687 580.905,-59.1353"/>
<polygon fill="midnightblue" stroke="midnightblue" points="581.235,-62.6215 590.994,-58.4964 580.793,-55.6355 581.235,-62.6215"/>
</g>
<!-- Node15 -->
<g id="node15" class="node"><title>Node15</title>
<g id="a_node15"><a xlink:href="namespaceRa_1_1Core_1_1Algorithm.html#aea294cdb6f4f0d85955bdcccb22886ec" target="_top" xlink:title="Ra::Core::Algorithm::t">
<polygon fill="white" stroke="black" points="603.5,-0.5 603.5,-19.5 722.5,-19.5 722.5,-0.5 603.5,-0.5"/>
<text text-anchor="middle" x="663" y="-7.5" font-family="Helvetica,sans-Serif" font-size="10.00">Ra::Core::Algorithm::t</text>
</a>
</g>
</g>
<!-- Node10&#45;&gt;Node15 -->
<g id="edge14" class="edge"><title>Node10&#45;&gt;Node15</title>
<path fill="none" stroke="midnightblue" d="M519.08,-50.9697C540.863,-44.0658 567.194,-35.8987 591,-29 598.842,-26.7275 607.199,-24.4041 615.324,-22.1971"/>
<polygon fill="midnightblue" stroke="midnightblue" points="616.323,-25.5529 625.07,-19.5741 614.504,-18.7935 616.323,-25.5529"/>
</g>
<!-- Node13 -->
<g id="node13" class="node"><title>Node13</title>
<g id="a_node13"><a xlink:href="classRa_1_1Engine_1_1RenderObjectManager.html#a4077b9cf9e1e4d62fd5456386f2d72c8" target="_top" xlink:title="Returns true if the index points to a valid render object. ">
<polygon fill="white" stroke="black" points="771,-39 771,-69 908,-69 908,-39 771,-39"/>
<text text-anchor="start" x="779" y="-57" font-family="Helvetica,sans-Serif" font-size="10.00">Ra::Engine::RenderObject</text>
<text text-anchor="middle" x="839.5" y="-46" font-family="Helvetica,sans-Serif" font-size="10.00">Manager::exists</text>
</a>
</g>
</g>
<!-- Node12&#45;&gt;Node13 -->
<g id="edge12" class="edge"><title>Node12&#45;&gt;Node13</title>
<path fill="none" stroke="midnightblue" d="M735.228,-54C743.602,-54 752.181,-54 760.641,-54"/>
<polygon fill="midnightblue" stroke="midnightblue" points="760.879,-57.5001 770.879,-54 760.879,-50.5001 760.879,-57.5001"/>
</g>
<!-- Node14 -->
<g id="node14" class="node"><title>Node14</title>
<g id="a_node14"><a xlink:href="classRa_1_1Core_1_1Index.html#a87c70243f30c65c1a24834d1829bda01" target="_top" xlink:title="DESTRUCTOR: Must not be defined, we need it trivial to be constexpr. ">
<polygon fill="white" stroke="black" points="944,-44.5 944,-63.5 1069,-63.5 1069,-44.5 944,-44.5"/>
<text text-anchor="middle" x="1006.5" y="-51.5" font-family="Helvetica,sans-Serif" font-size="10.00">Ra::Core::Index::isValid</text>
</a>
</g>
</g>
<!-- Node13&#45;&gt;Node14 -->
<g id="edge13" class="edge"><title>Node13&#45;&gt;Node14</title>
<path fill="none" stroke="midnightblue" d="M908.088,-54C916.503,-54 925.132,-54 933.61,-54"/>
<polygon fill="midnightblue" stroke="midnightblue" points="933.85,-57.5001 943.85,-54 933.85,-50.5001 933.85,-57.5001"/>
</g>
</g>
</svg>
