<?xml version="1.0" encoding="UTF-8" standalone="no"?>
<!DOCTYPE svg PUBLIC "-//W3C//DTD SVG 1.1//EN"
 "http://www.w3.org/Graphics/SVG/1.1/DTD/svg11.dtd">
<!-- Generated by graphviz version 2.38.0 (20140413.2041)
 -->
<!-- Title: Ra::Core::Obb::Obb Pages: 1 -->
<svg width="290pt" height="66pt"
 viewBox="0.00 0.00 290.00 66.00" xmlns="http://www.w3.org/2000/svg" xmlns:xlink="http://www.w3.org/1999/xlink">
<g id="graph0" class="graph" transform="scale(1 1) rotate(0) translate(4 62)">
<title>Ra::Core::Obb::Obb</title>
<polygon fill="white" stroke="none" points="-4,4 -4,-62 286,-62 286,4 -4,4"/>
<!-- Node1 -->
<g id="node1" class="node"><title>Node1</title>
<polygon fill="#bfbfbf" stroke="black" points="0,-19.5 0,-38.5 108,-38.5 108,-19.5 0,-19.5"/>
<text text-anchor="middle" x="54" y="-26.5" font-family="Helvetica,sans-Serif" font-size="10.00">Ra::Core::Obb::Obb</text>
</g>
<!-- Node2 -->
<g id="node2" class="node"><title>Node2</title>
<g id="a_node2"><a xlink:href="classRa_1_1Core_1_1Obb.html#a359df33d91fa1bf8929949afd945eb0d" target="_top" xlink:title="Constructors and destructor. ">
<polygon fill="white" stroke="black" points="159,-38.5 159,-57.5 267,-57.5 267,-38.5 159,-38.5"/>
<text text-anchor="middle" x="213" y="-45.5" font-family="Helvetica,sans-Serif" font-size="10.00">Ra::Core::Obb::Obb</text>
</a>
</g>
</g>
<!-- Node1&#45;&gt;Node2 -->
<g id="edge1" class="edge"><title>Node1&#45;&gt;Node2</title>
<path fill="none" stroke="midnightblue" d="M108.153,-35.4325C121.197,-37.0111 135.286,-38.7162 148.753,-40.3459"/>
<polygon fill="midnightblue" stroke="midnightblue" points="148.554,-43.8472 158.902,-41.5741 149.395,-36.8979 148.554,-43.8472"/>
</g>
<!-- Node3 -->
<g id="node3" class="node"><title>Node3</title>
<g id="a_node3"><a xlink:href="classRa_1_1Core_1_1Obb.html#ae06b8f7a24071cba0f98a4b7570d3f9d" target="_top" xlink:title="Ra::Core::Obb::operator=">
<polygon fill="white" stroke="black" points="144,-0.5 144,-19.5 282,-19.5 282,-0.5 144,-0.5"/>
<text text-anchor="middle" x="213" y="-7.5" font-family="Helvetica,sans-Serif" font-size="10.00">Ra::Core::Obb::operator=</text>
</a>
</g>
</g>
<!-- Node1&#45;&gt;Node3 -->
<g id="edge2" class="edge"><title>Node1&#45;&gt;Node3</title>
<path fill="none" stroke="midnightblue" d="M108.153,-22.5675C116.401,-21.5693 125.068,-20.5205 133.73,-19.4721"/>
<polygon fill="midnightblue" stroke="midnightblue" points="134.365,-22.9209 143.872,-18.2447 133.524,-15.9716 134.365,-22.9209"/>
</g>
</g>
</svg>
