<?xml version="1.0" encoding="UTF-8" standalone="no"?>
<!DOCTYPE svg PUBLIC "-//W3C//DTD SVG 1.1//EN"
 "http://www.w3.org/Graphics/SVG/1.1/DTD/svg11.dtd">
<!-- Generated by graphviz version 2.38.0 (20140413.2041)
 -->
<!-- Title: Ra::Core::FileManager&lt; DATA, Binary &gt; Pages: 1 -->
<svg width="461pt" height="585pt"
 viewBox="0.00 0.00 460.50 585.00" xmlns="http://www.w3.org/2000/svg" xmlns:xlink="http://www.w3.org/1999/xlink">
<g id="graph0" class="graph" transform="scale(1 1) rotate(0) translate(4 581)">
<title>Ra::Core::FileManager&lt; DATA, Binary &gt;</title>
<polygon fill="white" stroke="none" points="-4,4 -4,-581 456.5,-581 456.5,4 -4,4"/>
<!-- Node1 -->
<g id="node1" class="node"><title>Node1</title>
<polygon fill="#bfbfbf" stroke="black" points="87,-387.5 87,-576.5 220,-576.5 220,-387.5 87,-387.5"/>
<text text-anchor="start" x="95" y="-564.5" font-family="Helvetica,sans-Serif" font-size="10.00">Ra::Core::FileManager</text>
<text text-anchor="middle" x="153.5" y="-553.5" font-family="Helvetica,sans-Serif" font-size="10.00">&lt; DATA, Binary &gt;</text>
<polyline fill="none" stroke="black" points="87,-546.5 220,-546.5 "/>
<text text-anchor="middle" x="153.5" y="-534.5" font-family="Helvetica,sans-Serif" font-size="10.00"> </text>
<polyline fill="none" stroke="black" points="87,-527.5 220,-527.5 "/>
<text text-anchor="start" x="95" y="-515.5" font-family="Helvetica,sans-Serif" font-size="10.00">+ FileManager()</text>
<text text-anchor="start" x="95" y="-504.5" font-family="Helvetica,sans-Serif" font-size="10.00">+ ~FileManager()</text>
<text text-anchor="start" x="95" y="-493.5" font-family="Helvetica,sans-Serif" font-size="10.00">+ load()</text>
<text text-anchor="start" x="95" y="-482.5" font-family="Helvetica,sans-Serif" font-size="10.00">+ save()</text>
<text text-anchor="start" x="95" y="-471.5" font-family="Helvetica,sans-Serif" font-size="10.00">+ log()</text>
<text text-anchor="start" x="95" y="-460.5" font-family="Helvetica,sans-Serif" font-size="10.00"># addLogEntry()</text>
<text text-anchor="start" x="95" y="-449.5" font-family="Helvetica,sans-Serif" font-size="10.00"># addLogWarningEntry()</text>
<text text-anchor="start" x="95" y="-438.5" font-family="Helvetica,sans-Serif" font-size="10.00"># addLogErrorEntry()</text>
<text text-anchor="start" x="95" y="-427.5" font-family="Helvetica,sans-Serif" font-size="10.00"># addLogEntry()</text>
<text text-anchor="start" x="95" y="-416.5" font-family="Helvetica,sans-Serif" font-size="10.00"># fileExtension()</text>
<text text-anchor="start" x="95" y="-405.5" font-family="Helvetica,sans-Serif" font-size="10.00"># importData()</text>
<text text-anchor="start" x="95" y="-394.5" font-family="Helvetica,sans-Serif" font-size="10.00"># exportData()</text>
</g>
<!-- Node2 -->
<g id="node2" class="node"><title>Node2</title>
<g id="a_node2"><a xlink:href="classRa_1_1Core_1_1FileManager.html" target="_top" xlink:title="{Ra::Core::FileManager\l\&lt; Parametrization \&gt;\n||+ FileManager()\l+ ~FileManager()\l+ load()\l+ save()\l+ log()\l# addLogEntry()\l# addLogEntry()\l# addLogWarningEntry()\l# addLogErrorEntry()\l# fileExtension()\l# importData()\l# exportData()\l}">
<polygon fill="white" stroke="black" points="7,-150.5 7,-339.5 140,-339.5 140,-150.5 7,-150.5"/>
<text text-anchor="start" x="15" y="-327.5" font-family="Helvetica,sans-Serif" font-size="10.00">Ra::Core::FileManager</text>
<text text-anchor="middle" x="73.5" y="-316.5" font-family="Helvetica,sans-Serif" font-size="10.00">&lt; Parametrization &gt;</text>
<polyline fill="none" stroke="black" points="7,-309.5 140,-309.5 "/>
<text text-anchor="middle" x="73.5" y="-297.5" font-family="Helvetica,sans-Serif" font-size="10.00"> </text>
<polyline fill="none" stroke="black" points="7,-290.5 140,-290.5 "/>
<text text-anchor="start" x="15" y="-278.5" font-family="Helvetica,sans-Serif" font-size="10.00">+ FileManager()</text>
<text text-anchor="start" x="15" y="-267.5" font-family="Helvetica,sans-Serif" font-size="10.00">+ ~FileManager()</text>
<text text-anchor="start" x="15" y="-256.5" font-family="Helvetica,sans-Serif" font-size="10.00">+ load()</text>
<text text-anchor="start" x="15" y="-245.5" font-family="Helvetica,sans-Serif" font-size="10.00">+ save()</text>
<text text-anchor="start" x="15" y="-234.5" font-family="Helvetica,sans-Serif" font-size="10.00">+ log()</text>
<text text-anchor="start" x="15" y="-223.5" font-family="Helvetica,sans-Serif" font-size="10.00"># addLogEntry()</text>
<text text-anchor="start" x="15" y="-212.5" font-family="Helvetica,sans-Serif" font-size="10.00"># addLogEntry()</text>
<text text-anchor="start" x="15" y="-201.5" font-family="Helvetica,sans-Serif" font-size="10.00"># addLogWarningEntry()</text>
<text text-anchor="start" x="15" y="-190.5" font-family="Helvetica,sans-Serif" font-size="10.00"># addLogErrorEntry()</text>
<text text-anchor="start" x="15" y="-179.5" font-family="Helvetica,sans-Serif" font-size="10.00"># fileExtension()</text>
<text text-anchor="start" x="15" y="-168.5" font-family="Helvetica,sans-Serif" font-size="10.00"># importData()</text>
<text text-anchor="start" x="15" y="-157.5" font-family="Helvetica,sans-Serif" font-size="10.00"># exportData()</text>
</a>
</g>
</g>
<!-- Node1&#45;&gt;Node2 -->
<g id="edge1" class="edge"><title>Node1&#45;&gt;Node2</title>
<path fill="none" stroke="orange" d="M90.7099,-377.876C89.5627,-374.916 88.4887,-371.955 87.5,-369 84.3627,-359.625 81.9009,-349.647 79.973,-339.587"/>
<polygon fill="orange" stroke="orange" points="87.5536,-379.402 94.6079,-387.307 94.0229,-376.728 87.5536,-379.402"/>
<text text-anchor="middle" x="138.5" y="-361" font-family="Helvetica,sans-Serif" font-size="10.00"> &lt; Parametrization &gt;</text>
</g>
<!-- Node4 -->
<g id="node4" class="node"><title>Node4</title>
<g id="a_node4"><a xlink:href="classRa_1_1Core_1_1FileManager.html" target="_top" xlink:title="{Ra::Core::FileManager\l\&lt; TriangleMesh \&gt;\n||+ FileManager()\l+ ~FileManager()\l+ load()\l+ save()\l+ log()\l# addLogEntry()\l# addLogEntry()\l# addLogWarningEntry()\l# addLogErrorEntry()\l# fileExtension()\l# importData()\l# exportData()\l}">
<polygon fill="white" stroke="black" points="161,-150.5 161,-339.5 294,-339.5 294,-150.5 161,-150.5"/>
<text text-anchor="start" x="169" y="-327.5" font-family="Helvetica,sans-Serif" font-size="10.00">Ra::Core::FileManager</text>
<text text-anchor="middle" x="227.5" y="-316.5" font-family="Helvetica,sans-Serif" font-size="10.00">&lt; TriangleMesh &gt;</text>
<polyline fill="none" stroke="black" points="161,-309.5 294,-309.5 "/>
<text text-anchor="middle" x="227.5" y="-297.5" font-family="Helvetica,sans-Serif" font-size="10.00"> </text>
<polyline fill="none" stroke="black" points="161,-290.5 294,-290.5 "/>
<text text-anchor="start" x="169" y="-278.5" font-family="Helvetica,sans-Serif" font-size="10.00">+ FileManager()</text>
<text text-anchor="start" x="169" y="-267.5" font-family="Helvetica,sans-Serif" font-size="10.00">+ ~FileManager()</text>
<text text-anchor="start" x="169" y="-256.5" font-family="Helvetica,sans-Serif" font-size="10.00">+ load()</text>
<text text-anchor="start" x="169" y="-245.5" font-family="Helvetica,sans-Serif" font-size="10.00">+ save()</text>
<text text-anchor="start" x="169" y="-234.5" font-family="Helvetica,sans-Serif" font-size="10.00">+ log()</text>
<text text-anchor="start" x="169" y="-223.5" font-family="Helvetica,sans-Serif" font-size="10.00"># addLogEntry()</text>
<text text-anchor="start" x="169" y="-212.5" font-family="Helvetica,sans-Serif" font-size="10.00"># addLogEntry()</text>
<text text-anchor="start" x="169" y="-201.5" font-family="Helvetica,sans-Serif" font-size="10.00"># addLogWarningEntry()</text>
<text text-anchor="start" x="169" y="-190.5" font-family="Helvetica,sans-Serif" font-size="10.00"># addLogErrorEntry()</text>
<text text-anchor="start" x="169" y="-179.5" font-family="Helvetica,sans-Serif" font-size="10.00"># fileExtension()</text>
<text text-anchor="start" x="169" y="-168.5" font-family="Helvetica,sans-Serif" font-size="10.00"># importData()</text>
<text text-anchor="start" x="169" y="-157.5" font-family="Helvetica,sans-Serif" font-size="10.00"># exportData()</text>
</a>
</g>
</g>
<!-- Node1&#45;&gt;Node4 -->
<g id="edge3" class="edge"><title>Node1&#45;&gt;Node4</title>
<path fill="none" stroke="orange" d="M190.665,-377.823C191.633,-374.854 192.58,-371.908 193.5,-369 196.507,-359.494 199.507,-349.53 202.41,-339.562"/>
<polygon fill="orange" stroke="orange" points="187.326,-376.774 187.511,-387.367 193.972,-378.97 187.326,-376.774"/>
<text text-anchor="middle" x="241.5" y="-361" font-family="Helvetica,sans-Serif" font-size="10.00"> &lt; TriangleMesh &gt;</text>
</g>
<!-- Node3 -->
<g id="node3" class="node"><title>Node3</title>
<g id="a_node3"><a xlink:href="classRa_1_1Core_1_1MAPFileManager.html" target="_top" xlink:title="{Ra::Core::MAPFileManager\n||+ MAPFileManager()\l+ ~MAPFileManager()\l# header()\l# fileExtension()\l# importData()\l# exportData()\l}">
<polygon fill="white" stroke="black" points="0,-0.5 0,-112.5 141,-112.5 141,-0.5 0,-0.5"/>
<text text-anchor="middle" x="70.5" y="-100.5" font-family="Helvetica,sans-Serif" font-size="10.00">Ra::Core::MAPFileManager</text>
<polyline fill="none" stroke="black" points="0,-93.5 141,-93.5 "/>
<text text-anchor="middle" x="70.5" y="-81.5" font-family="Helvetica,sans-Serif" font-size="10.00"> </text>
<polyline fill="none" stroke="black" points="0,-74.5 141,-74.5 "/>
<text text-anchor="start" x="8" y="-62.5" font-family="Helvetica,sans-Serif" font-size="10.00">+ MAPFileManager()</text>
<text text-anchor="start" x="8" y="-51.5" font-family="Helvetica,sans-Serif" font-size="10.00">+ ~MAPFileManager()</text>
<text text-anchor="start" x="8" y="-40.5" font-family="Helvetica,sans-Serif" font-size="10.00"># header()</text>
<text text-anchor="start" x="8" y="-29.5" font-family="Helvetica,sans-Serif" font-size="10.00"># fileExtension()</text>
<text text-anchor="start" x="8" y="-18.5" font-family="Helvetica,sans-Serif" font-size="10.00"># importData()</text>
<text text-anchor="start" x="8" y="-7.5" font-family="Helvetica,sans-Serif" font-size="10.00"># exportData()</text>
</a>
</g>
</g>
<!-- Node2&#45;&gt;Node3 -->
<g id="edge2" class="edge"><title>Node2&#45;&gt;Node3</title>
<path fill="none" stroke="midnightblue" d="M71.8342,-140.443C71.6799,-130.85 71.5279,-121.404 71.385,-112.518"/>
<polygon fill="none" stroke="midnightblue" points="68.3351,-140.534 71.9956,-150.477 75.3342,-140.422 68.3351,-140.534"/>
</g>
<!-- Node5 -->
<g id="node5" class="node"><title>Node5</title>
<g id="a_node5"><a xlink:href="classRa_1_1Core_1_1OBJFileManager.html" target="_top" xlink:title="{Ra::Core::OBJFileManager\n||+ OBJFileManager()\l+ ~OBJFileManager()\l+ fileExtension()\l+ importData()\l+ exportData()\l}">
<polygon fill="white" stroke="black" points="159,-6 159,-107 296,-107 296,-6 159,-6"/>
<text text-anchor="middle" x="227.5" y="-95" font-family="Helvetica,sans-Serif" font-size="10.00">Ra::Core::OBJFileManager</text>
<polyline fill="none" stroke="black" points="159,-88 296,-88 "/>
<text text-anchor="middle" x="227.5" y="-76" font-family="Helvetica,sans-Serif" font-size="10.00"> </text>
<polyline fill="none" stroke="black" points="159,-69 296,-69 "/>
<text text-anchor="start" x="167" y="-57" font-family="Helvetica,sans-Serif" font-size="10.00">+ OBJFileManager()</text>
<text text-anchor="start" x="167" y="-46" font-family="Helvetica,sans-Serif" font-size="10.00">+ ~OBJFileManager()</text>
<text text-anchor="start" x="167" y="-35" font-family="Helvetica,sans-Serif" font-size="10.00">+ fileExtension()</text>
<text text-anchor="start" x="167" y="-24" font-family="Helvetica,sans-Serif" font-size="10.00">+ importData()</text>
<text text-anchor="start" x="167" y="-13" font-family="Helvetica,sans-Serif" font-size="10.00">+ exportData()</text>
</a>
</g>
</g>
<!-- Node4&#45;&gt;Node5 -->
<g id="edge4" class="edge"><title>Node4&#45;&gt;Node5</title>
<path fill="none" stroke="midnightblue" d="M227.5,-140.365C227.5,-128.9 227.5,-117.648 227.5,-107.312"/>
<polygon fill="none" stroke="midnightblue" points="224,-140.477 227.5,-150.477 231,-140.477 224,-140.477"/>
</g>
<!-- Node6 -->
<g id="node6" class="node"><title>Node6</title>
<g id="a_node6"><a xlink:href="classRa_1_1Core_1_1OFFFileManager.html" target="_top" xlink:title="{Ra::Core::OFFFileManager\n||+ OFFFileManager()\l+ ~OFFFileManager()\l# header()\l# fileExtension()\l# importData()\l# exportData()\l}">
<polygon fill="white" stroke="black" points="314.5,-0.5 314.5,-112.5 452.5,-112.5 452.5,-0.5 314.5,-0.5"/>
<text text-anchor="middle" x="383.5" y="-100.5" font-family="Helvetica,sans-Serif" font-size="10.00">Ra::Core::OFFFileManager</text>
<polyline fill="none" stroke="black" points="314.5,-93.5 452.5,-93.5 "/>
<text text-anchor="middle" x="383.5" y="-81.5" font-family="Helvetica,sans-Serif" font-size="10.00"> </text>
<polyline fill="none" stroke="black" points="314.5,-74.5 452.5,-74.5 "/>
<text text-anchor="start" x="322.5" y="-62.5" font-family="Helvetica,sans-Serif" font-size="10.00">+ OFFFileManager()</text>
<text text-anchor="start" x="322.5" y="-51.5" font-family="Helvetica,sans-Serif" font-size="10.00">+ ~OFFFileManager()</text>
<text text-anchor="start" x="322.5" y="-40.5" font-family="Helvetica,sans-Serif" font-size="10.00"># header()</text>
<text text-anchor="start" x="322.5" y="-29.5" font-family="Helvetica,sans-Serif" font-size="10.00"># fileExtension()</text>
<text text-anchor="start" x="322.5" y="-18.5" font-family="Helvetica,sans-Serif" font-size="10.00"># importData()</text>
<text text-anchor="start" x="322.5" y="-7.5" font-family="Helvetica,sans-Serif" font-size="10.00"># exportData()</text>
</a>
</g>
</g>
<!-- Node4&#45;&gt;Node6 -->
<g id="edge5" class="edge"><title>Node4&#45;&gt;Node6</title>
<path fill="none" stroke="midnightblue" d="M300.63,-156.572C313.139,-141.617 325.816,-126.461 337.368,-112.652"/>
<polygon fill="none" stroke="midnightblue" points="297.842,-154.45 294.111,-164.366 303.211,-158.941 297.842,-154.45"/>
</g>
</g>
</svg>
