<?xml version="1.0" encoding="UTF-8" standalone="no"?>
<!DOCTYPE svg PUBLIC "-//W3C//DTD SVG 1.1//EN"
 "http://www.w3.org/Graphics/SVG/1.1/DTD/svg11.dtd">
<!-- Generated by graphviz version 2.38.0 (20140413.2041)
 -->
<!-- Title: AnimationPlugin::AnimationPluginC::registerPlugin Pages: 1 -->
<svg width="1260pt" height="360pt"
 viewBox="0.00 0.00 1260.00 360.30" xmlns="http://www.w3.org/2000/svg" xmlns:xlink="http://www.w3.org/1999/xlink">
<g id="graph0" class="graph" transform="scale(1 1) rotate(0) translate(4 356.301)">
<title>AnimationPlugin::AnimationPluginC::registerPlugin</title>
<polygon fill="white" stroke="none" points="-4,4 -4,-356.301 1256,-356.301 1256,4 -4,4"/>
<!-- Node1 -->
<g id="node1" class="node"><title>Node1</title>
<polygon fill="#bfbfbf" stroke="black" points="0,-140.5 0,-170.5 149,-170.5 149,-140.5 0,-140.5"/>
<text text-anchor="start" x="8" y="-158.5" font-family="Helvetica,sans-Serif" font-size="10.00">AnimationPlugin::Animation</text>
<text text-anchor="middle" x="74.5" y="-147.5" font-family="Helvetica,sans-Serif" font-size="10.00">PluginC::registerPlugin</text>
</g>
<!-- Node2 -->
<g id="node2" class="node"><title>Node2</title>
<g id="a_node2"><a xlink:href="classRa_1_1Engine_1_1RadiumEngine.html#a88d584c699f333ea93aff6b15f0f2341" target="_top" xlink:title="Ra::Engine::RadiumEngine\l::registerSystem">
<polygon fill="white" stroke="black" points="189,-189.5 189,-219.5 330,-219.5 330,-189.5 189,-189.5"/>
<text text-anchor="start" x="197" y="-207.5" font-family="Helvetica,sans-Serif" font-size="10.00">Ra::Engine::RadiumEngine</text>
<text text-anchor="middle" x="259.5" y="-196.5" font-family="Helvetica,sans-Serif" font-size="10.00">::registerSystem</text>
</a>
</g>
</g>
<!-- Node1&#45;&gt;Node2 -->
<g id="edge1" class="edge"><title>Node1&#45;&gt;Node2</title>
<path fill="none" stroke="midnightblue" d="M131.899,-170.601C151.035,-175.725 172.586,-181.496 192.408,-186.803"/>
<polygon fill="midnightblue" stroke="midnightblue" points="191.722,-190.243 202.287,-189.448 193.533,-183.481 191.722,-190.243"/>
</g>
<!-- Node3 -->
<g id="node3" class="node"><title>Node3</title>
<g id="a_node3"><a xlink:href="classRa_1_1Engine_1_1RadiumEngine.html#abe7b493d6e9806ff7edff0f755f936f2" target="_top" xlink:title="Get the signal manager attached to the engine. ">
<polygon fill="white" stroke="black" points="189,-140.5 189,-170.5 330,-170.5 330,-140.5 189,-140.5"/>
<text text-anchor="start" x="197" y="-158.5" font-family="Helvetica,sans-Serif" font-size="10.00">Ra::Engine::RadiumEngine</text>
<text text-anchor="middle" x="259.5" y="-147.5" font-family="Helvetica,sans-Serif" font-size="10.00">::getSignalManager</text>
</a>
</g>
</g>
<!-- Node1&#45;&gt;Node3 -->
<g id="edge2" class="edge"><title>Node1&#45;&gt;Node3</title>
<path fill="none" stroke="midnightblue" d="M149.142,-155.5C158.872,-155.5 168.883,-155.5 178.71,-155.5"/>
<polygon fill="midnightblue" stroke="midnightblue" points="178.865,-159 188.865,-155.5 178.865,-152 178.865,-159"/>
</g>
<!-- Node4 -->
<g id="node4" class="node"><title>Node4</title>
<g id="a_node4"><a xlink:href="classAnimationPlugin_1_1AnimationPluginC.html#a848f15219c0581689310f9a7277ee273" target="_top" xlink:title="Updates the displayed animation time. ">
<polygon fill="white" stroke="black" points="185,-91.5 185,-121.5 334,-121.5 334,-91.5 185,-91.5"/>
<text text-anchor="start" x="193" y="-109.5" font-family="Helvetica,sans-Serif" font-size="10.00">AnimationPlugin::Animation</text>
<text text-anchor="middle" x="259.5" y="-98.5" font-family="Helvetica,sans-Serif" font-size="10.00">PluginC::updateAnimTime</text>
</a>
</g>
</g>
<!-- Node1&#45;&gt;Node4 -->
<g id="edge3" class="edge"><title>Node1&#45;&gt;Node4</title>
<path fill="none" stroke="midnightblue" d="M131.899,-140.399C151.035,-135.275 172.586,-129.504 192.408,-124.197"/>
<polygon fill="midnightblue" stroke="midnightblue" points="193.533,-127.519 202.287,-121.552 191.722,-120.757 193.533,-127.519"/>
</g>
<!-- Node5 -->
<g id="node5" class="node"><title>Node5</title>
<g id="a_node5"><a xlink:href="classAnimationPlugin_1_1AnimationSystem.html#a7bc07bee3ce43e27b9ddc72fb0184478" target="_top" xlink:title="AnimationPlugin::Animation\lSystem::getMaxFrame">
<polygon fill="white" stroke="black" points="379,-165.5 379,-195.5 528,-195.5 528,-165.5 379,-165.5"/>
<text text-anchor="start" x="387" y="-183.5" font-family="Helvetica,sans-Serif" font-size="10.00">AnimationPlugin::Animation</text>
<text text-anchor="middle" x="453.5" y="-172.5" font-family="Helvetica,sans-Serif" font-size="10.00">System::getMaxFrame</text>
</a>
</g>
</g>
<!-- Node4&#45;&gt;Node5 -->
<g id="edge4" class="edge"><title>Node4&#45;&gt;Node5</title>
<path fill="none" stroke="midnightblue" d="M311.084,-121.616C318.908,-124.547 326.78,-127.856 334,-131.5 351.39,-140.277 352.418,-148.114 370,-156.5 374.048,-158.43 378.282,-160.239 382.604,-161.926"/>
<polygon fill="midnightblue" stroke="midnightblue" points="381.573,-165.276 392.166,-165.43 383.981,-158.703 381.573,-165.276"/>
</g>
<!-- Node6 -->
<g id="node6" class="node"><title>Node6</title>
<g id="a_node6"><a xlink:href="classAnimationPlugin_1_1AnimationSystem.html#aab1ae3308916ce53c43eb6520640824f" target="_top" xlink:title="AnimationPlugin::Animation\lSystem::getTime">
<polygon fill="white" stroke="black" points="379,-116.5 379,-146.5 528,-146.5 528,-116.5 379,-116.5"/>
<text text-anchor="start" x="387" y="-134.5" font-family="Helvetica,sans-Serif" font-size="10.00">AnimationPlugin::Animation</text>
<text text-anchor="middle" x="453.5" y="-123.5" font-family="Helvetica,sans-Serif" font-size="10.00">System::getTime</text>
</a>
</g>
</g>
<!-- Node4&#45;&gt;Node6 -->
<g id="edge5" class="edge"><title>Node4&#45;&gt;Node6</title>
<path fill="none" stroke="midnightblue" d="M334.183,-116.094C345.47,-117.564 357.194,-119.09 368.68,-120.586"/>
<polygon fill="midnightblue" stroke="midnightblue" points="368.329,-124.07 378.697,-121.89 369.232,-117.128 368.329,-124.07"/>
</g>
<!-- Node18 -->
<g id="node18" class="node"><title>Node18</title>
<g id="a_node18"><a xlink:href="classRa_1_1GuiBase_1_1SelectionManager.html#a29cbd250208f1e18d2ab1e0f4d91105d" target="_top" xlink:title="Return the current selected item, or an invalid entry if there is no current item. ">
<polygon fill="white" stroke="black" points="370,-67.5 370,-97.5 537,-97.5 537,-67.5 370,-67.5"/>
<text text-anchor="start" x="378" y="-85.5" font-family="Helvetica,sans-Serif" font-size="10.00">Ra::GuiBase::SelectionManager</text>
<text text-anchor="middle" x="453.5" y="-74.5" font-family="Helvetica,sans-Serif" font-size="10.00">::currentItem</text>
</a>
</g>
</g>
<!-- Node4&#45;&gt;Node18 -->
<g id="edge19" class="edge"><title>Node4&#45;&gt;Node18</title>
<path fill="none" stroke="midnightblue" d="M334.183,-97.2896C342.544,-96.2445 351.144,-95.1695 359.71,-94.0987"/>
<polygon fill="midnightblue" stroke="midnightblue" points="360.245,-97.5592 369.734,-92.8458 359.377,-90.6132 360.245,-97.5592"/>
</g>
<!-- Node23 -->
<g id="node23" class="node"><title>Node23</title>
<g id="a_node23"><a xlink:href="classAnimationPlugin_1_1AnimationSystem.html#ac50ad27ef6e9aa174b0f9695cabf0454" target="_top" xlink:title="AnimationPlugin::Animation\lSystem::getAnimFrame">
<polygon fill="white" stroke="black" points="379,-18.5 379,-48.5 528,-48.5 528,-18.5 379,-18.5"/>
<text text-anchor="start" x="387" y="-36.5" font-family="Helvetica,sans-Serif" font-size="10.00">AnimationPlugin::Animation</text>
<text text-anchor="middle" x="453.5" y="-25.5" font-family="Helvetica,sans-Serif" font-size="10.00">System::getAnimFrame</text>
</a>
</g>
</g>
<!-- Node4&#45;&gt;Node23 -->
<g id="edge24" class="edge"><title>Node4&#45;&gt;Node23</title>
<path fill="none" stroke="midnightblue" d="M292.192,-91.4117C313.839,-81.4035 343.323,-68.3492 370,-58.5 376.32,-56.1666 382.968,-53.8808 389.634,-51.698"/>
<polygon fill="midnightblue" stroke="midnightblue" points="390.919,-54.9617 399.377,-48.5801 388.786,-48.2948 390.919,-54.9617"/>
</g>
<!-- Node7 -->
<g id="node7" class="node"><title>Node7</title>
<g id="a_node7"><a xlink:href="structRa_1_1Engine_1_1ItemEntry.html#aceafc81a73631955b64999dd39a639da" target="_top" xlink:title="Returns true if the item represents any valid object. ">
<polygon fill="white" stroke="black" points="597,-189.5 597,-219.5 716,-219.5 716,-189.5 597,-189.5"/>
<text text-anchor="start" x="605" y="-207.5" font-family="Helvetica,sans-Serif" font-size="10.00">Ra::Engine::ItemEntry</text>
<text text-anchor="middle" x="656.5" y="-196.5" font-family="Helvetica,sans-Serif" font-size="10.00">::isValid</text>
</a>
</g>
</g>
<!-- Node6&#45;&gt;Node7 -->
<g id="edge6" class="edge"><title>Node6&#45;&gt;Node7</title>
<path fill="none" stroke="midnightblue" d="M506.664,-146.525C516.781,-149.659 527.263,-153.061 537,-156.5 561.886,-165.29 589.218,-176.27 611.356,-185.509"/>
<polygon fill="midnightblue" stroke="midnightblue" points="610.243,-188.838 620.818,-189.484 612.954,-182.384 610.243,-188.838"/>
</g>
<!-- Node17 -->
<g id="node17" class="node"><title>Node17</title>
<g id="a_node17"><a xlink:href="classAnimationPlugin_1_1AnimationComponent.html#a7bb9a09b3c704302420b1ec5e24ea59e" target="_top" xlink:title="AnimationPlugin::Animation\lComponent::getTime">
<polygon fill="white" stroke="black" points="582,-116.5 582,-146.5 731,-146.5 731,-116.5 582,-116.5"/>
<text text-anchor="start" x="590" y="-134.5" font-family="Helvetica,sans-Serif" font-size="10.00">AnimationPlugin::Animation</text>
<text text-anchor="middle" x="656.5" y="-123.5" font-family="Helvetica,sans-Serif" font-size="10.00">Component::getTime</text>
</a>
</g>
</g>
<!-- Node6&#45;&gt;Node17 -->
<g id="edge18" class="edge"><title>Node6&#45;&gt;Node17</title>
<path fill="none" stroke="midnightblue" d="M528.204,-131.5C542.268,-131.5 557.088,-131.5 571.448,-131.5"/>
<polygon fill="midnightblue" stroke="midnightblue" points="571.805,-135 581.805,-131.5 571.805,-128 571.805,-135"/>
</g>
<!-- Node8 -->
<g id="node8" class="node"><title>Node8</title>
<g id="a_node8"><a xlink:href="structRa_1_1Engine_1_1ItemEntry.html#a1fb9fdd74413a1fa5878f53c1cfcf8fd" target="_top" xlink:title="Debug checks. ">
<polygon fill="white" stroke="black" points="960.5,-242.5 960.5,-272.5 1079.5,-272.5 1079.5,-242.5 960.5,-242.5"/>
<text text-anchor="start" x="968.5" y="-260.5" font-family="Helvetica,sans-Serif" font-size="10.00">Ra::Engine::ItemEntry</text>
<text text-anchor="middle" x="1020" y="-249.5" font-family="Helvetica,sans-Serif" font-size="10.00">::checkConsistency</text>
</a>
</g>
</g>
<!-- Node7&#45;&gt;Node8 -->
<g id="edge7" class="edge"><title>Node7&#45;&gt;Node8</title>
<path fill="none" stroke="midnightblue" d="M665.702,-219.919C682.11,-248.893 722.083,-310.692 776,-334.5 834.546,-360.352 859.464,-355.27 920,-334.5 951.177,-323.803 980.098,-298.834 998.531,-280.211"/>
<polygon fill="midnightblue" stroke="midnightblue" points="1001.36,-282.316 1005.76,-272.678 996.313,-277.467 1001.36,-282.316"/>
</g>
<!-- Node10 -->
<g id="node10" class="node"><title>Node10</title>
<g id="a_node10"><a xlink:href="classRa_1_1Engine_1_1RadiumEngine.html#a79f6626ce468268791bc5bdfe17b5586" target="_top" xlink:title="Get the entity manager attached to the engine. ">
<polygon fill="white" stroke="black" points="777.5,-294.5 777.5,-324.5 918.5,-324.5 918.5,-294.5 777.5,-294.5"/>
<text text-anchor="start" x="785.5" y="-312.5" font-family="Helvetica,sans-Serif" font-size="10.00">Ra::Engine::RadiumEngine</text>
<text text-anchor="middle" x="848" y="-301.5" font-family="Helvetica,sans-Serif" font-size="10.00">::getEntityManager</text>
</a>
</g>
</g>
<!-- Node7&#45;&gt;Node10 -->
<g id="edge9" class="edge"><title>Node7&#45;&gt;Node10</title>
<path fill="none" stroke="midnightblue" d="M676.199,-219.692C698.743,-237.42 738.315,-266.698 776,-285.5 779.566,-287.279 783.294,-288.976 787.096,-290.585"/>
<polygon fill="midnightblue" stroke="midnightblue" points="786.06,-293.94 796.645,-294.399 788.657,-287.439 786.06,-293.94"/>
</g>
<!-- Node11 -->
<g id="node11" class="node"><title>Node11</title>
<g id="a_node11"><a xlink:href="classRa_1_1Engine_1_1EntityManager.html#a5115cccae6aaef614ad4bd08e64d8185" target="_top" xlink:title="Check wether an entity with a given name exists or not. ">
<polygon fill="white" stroke="black" points="777,-245.5 777,-275.5 919,-275.5 919,-245.5 777,-245.5"/>
<text text-anchor="start" x="785" y="-263.5" font-family="Helvetica,sans-Serif" font-size="10.00">Ra::Engine::EntityManager</text>
<text text-anchor="middle" x="848" y="-252.5" font-family="Helvetica,sans-Serif" font-size="10.00">::entityExists</text>
</a>
</g>
</g>
<!-- Node7&#45;&gt;Node11 -->
<g id="edge10" class="edge"><title>Node7&#45;&gt;Node11</title>
<path fill="none" stroke="midnightblue" d="M708.283,-219.507C732.285,-226.6 761.125,-235.123 786.276,-242.555"/>
<polygon fill="midnightblue" stroke="midnightblue" points="785.495,-245.974 796.077,-245.452 787.479,-239.261 785.495,-245.974"/>
</g>
<!-- Node12 -->
<g id="node12" class="node"><title>Node12</title>
<g id="a_node12"><a xlink:href="classRa_1_1Engine_1_1Entity.html#aaf256bea44bbc5bff6aa504aca05ca35" target="_top" xlink:title="Ra::Engine::Entity\l::getName">
<polygon fill="white" stroke="black" points="798,-196.5 798,-226.5 898,-226.5 898,-196.5 798,-196.5"/>
<text text-anchor="start" x="806" y="-214.5" font-family="Helvetica,sans-Serif" font-size="10.00">Ra::Engine::Entity</text>
<text text-anchor="middle" x="848" y="-203.5" font-family="Helvetica,sans-Serif" font-size="10.00">::getName</text>
</a>
</g>
</g>
<!-- Node7&#45;&gt;Node12 -->
<g id="edge11" class="edge"><title>Node7&#45;&gt;Node12</title>
<path fill="none" stroke="midnightblue" d="M716.161,-206.667C738.879,-207.506 764.85,-208.465 787.634,-209.307"/>
<polygon fill="midnightblue" stroke="midnightblue" points="787.732,-212.813 797.855,-209.685 787.991,-205.818 787.732,-212.813"/>
</g>
<!-- Node13 -->
<g id="node13" class="node"><title>Node13</title>
<g id="a_node13"><a xlink:href="structRa_1_1Engine_1_1ItemEntry.html#a898047549069e5b64d3a9a65c058af56" target="_top" xlink:title="Returns true if the item represents a render object. ">
<polygon fill="white" stroke="black" points="788.5,-147.5 788.5,-177.5 907.5,-177.5 907.5,-147.5 788.5,-147.5"/>
<text text-anchor="start" x="796.5" y="-165.5" font-family="Helvetica,sans-Serif" font-size="10.00">Ra::Engine::ItemEntry</text>
<text text-anchor="middle" x="848" y="-154.5" font-family="Helvetica,sans-Serif" font-size="10.00">::isRoNode</text>
</a>
</g>
</g>
<!-- Node7&#45;&gt;Node13 -->
<g id="edge12" class="edge"><title>Node7&#45;&gt;Node13</title>
<path fill="none" stroke="midnightblue" d="M716.161,-191.499C735.872,-187.13 758.031,-182.219 778.434,-177.697"/>
<polygon fill="midnightblue" stroke="midnightblue" points="779.284,-181.093 788.29,-175.512 777.769,-174.259 779.284,-181.093"/>
</g>
<!-- Node15 -->
<g id="node15" class="node"><title>Node15</title>
<g id="a_node15"><a xlink:href="classRa_1_1Engine_1_1RadiumEngine.html#a58b27bc600ea769f68b0e2938abc7862" target="_top" xlink:title="Manager getters. ">
<polygon fill="white" stroke="black" points="776,-98.5 776,-128.5 920,-128.5 920,-98.5 776,-98.5"/>
<text text-anchor="start" x="784" y="-116.5" font-family="Helvetica,sans-Serif" font-size="10.00">Ra::Engine::RadiumEngine</text>
<text text-anchor="middle" x="848" y="-105.5" font-family="Helvetica,sans-Serif" font-size="10.00">::getRenderObjectManager</text>
</a>
</g>
</g>
<!-- Node7&#45;&gt;Node15 -->
<g id="edge15" class="edge"><title>Node7&#45;&gt;Node15</title>
<path fill="none" stroke="midnightblue" d="M683.228,-189.496C712.297,-172.665 757.912,-146.651 776,-138.5 780.915,-136.285 786.089,-134.135 791.312,-132.087"/>
<polygon fill="midnightblue" stroke="midnightblue" points="792.612,-135.337 800.719,-128.516 790.128,-128.792 792.612,-135.337"/>
</g>
<!-- Node16 -->
<g id="node16" class="node"><title>Node16</title>
<g id="a_node16"><a xlink:href="classRa_1_1Engine_1_1RenderObjectManager.html#a4077b9cf9e1e4d62fd5456386f2d72c8" target="_top" xlink:title="Returns true if the index points to a valid render object. ">
<polygon fill="white" stroke="black" points="779.5,-49.5 779.5,-79.5 916.5,-79.5 916.5,-49.5 779.5,-49.5"/>
<text text-anchor="start" x="787.5" y="-67.5" font-family="Helvetica,sans-Serif" font-size="10.00">Ra::Engine::RenderObject</text>
<text text-anchor="middle" x="848" y="-56.5" font-family="Helvetica,sans-Serif" font-size="10.00">Manager::exists</text>
</a>
</g>
</g>
<!-- Node7&#45;&gt;Node16 -->
<g id="edge16" class="edge"><title>Node7&#45;&gt;Node16</title>
<path fill="none" stroke="midnightblue" d="M692.959,-189.326C708.762,-181.279 726.755,-170.201 740,-156.5 763.495,-132.195 750.324,-111.487 776,-89.5 777.954,-87.8266 780.028,-86.2627 782.191,-84.8014"/>
<polygon fill="midnightblue" stroke="midnightblue" points="784.077,-87.7525 790.914,-79.6588 780.522,-81.7224 784.077,-87.7525"/>
</g>
<!-- Node9 -->
<g id="node9" class="node"><title>Node9</title>
<g id="a_node9"><a xlink:href="classRa_1_1Core_1_1Index.html#a7283e7fb9cc134e04ef3cde8877f8fe2" target="_top" xlink:title="INVALID. ">
<polygon fill="white" stroke="black" points="1120,-248 1120,-267 1252,-267 1252,-248 1120,-248"/>
<text text-anchor="middle" x="1186" y="-255" font-family="Helvetica,sans-Serif" font-size="10.00">Ra::Core::Index::isInvalid</text>
</a>
</g>
</g>
<!-- Node8&#45;&gt;Node9 -->
<g id="edge8" class="edge"><title>Node8&#45;&gt;Node9</title>
<path fill="none" stroke="midnightblue" d="M1079.74,-257.5C1089.53,-257.5 1099.8,-257.5 1109.93,-257.5"/>
<polygon fill="midnightblue" stroke="midnightblue" points="1109.99,-261 1119.99,-257.5 1109.99,-254 1109.99,-261"/>
</g>
<!-- Node13&#45;&gt;Node8 -->
<g id="edge13" class="edge"><title>Node13&#45;&gt;Node8</title>
<path fill="none" stroke="midnightblue" d="M897.501,-177.547C905.18,-180.505 912.918,-183.84 920,-187.5 946.389,-201.138 973.767,-221.011 993.026,-236.101"/>
<polygon fill="midnightblue" stroke="midnightblue" points="991.006,-238.967 1001.01,-242.45 995.362,-233.487 991.006,-238.967"/>
</g>
<!-- Node14 -->
<g id="node14" class="node"><title>Node14</title>
<g id="a_node14"><a xlink:href="classRa_1_1Core_1_1Index.html#a87c70243f30c65c1a24834d1829bda01" target="_top" xlink:title="DESTRUCTOR: Must not be defined, we need it trivial to be constexpr. ">
<polygon fill="white" stroke="black" points="957.5,-104 957.5,-123 1082.5,-123 1082.5,-104 957.5,-104"/>
<text text-anchor="middle" x="1020" y="-111" font-family="Helvetica,sans-Serif" font-size="10.00">Ra::Core::Index::isValid</text>
</a>
</g>
</g>
<!-- Node13&#45;&gt;Node14 -->
<g id="edge14" class="edge"><title>Node13&#45;&gt;Node14</title>
<path fill="none" stroke="midnightblue" d="M901.393,-147.399C925.443,-140.466 953.598,-132.351 976.33,-125.799"/>
<polygon fill="midnightblue" stroke="midnightblue" points="977.395,-129.135 986.034,-123.002 975.456,-122.409 977.395,-129.135"/>
</g>
<!-- Node16&#45;&gt;Node14 -->
<g id="edge17" class="edge"><title>Node16&#45;&gt;Node14</title>
<path fill="none" stroke="midnightblue" d="M901.393,-79.6014C925.443,-86.5335 953.598,-94.6488 976.33,-101.201"/>
<polygon fill="midnightblue" stroke="midnightblue" points="975.456,-104.591 986.034,-103.998 977.395,-97.8653 975.456,-104.591"/>
</g>
<!-- Node19 -->
<g id="node19" class="node"><title>Node19</title>
<g id="a_node19"><a xlink:href="classRa_1_1GuiBase_1_1SelectionManager.html#aec178a6b3de1c04e5e1d16ff72c6e966" target="_top" xlink:title="Ra::GuiBase::SelectionManager\l::itemModel">
<polygon fill="white" stroke="black" points="573,-67.5 573,-97.5 740,-97.5 740,-67.5 573,-67.5"/>
<text text-anchor="start" x="581" y="-85.5" font-family="Helvetica,sans-Serif" font-size="10.00">Ra::GuiBase::SelectionManager</text>
<text text-anchor="middle" x="656.5" y="-74.5" font-family="Helvetica,sans-Serif" font-size="10.00">::itemModel</text>
</a>
</g>
</g>
<!-- Node18&#45;&gt;Node19 -->
<g id="edge20" class="edge"><title>Node18&#45;&gt;Node19</title>
<path fill="none" stroke="midnightblue" d="M537.125,-82.5C545.607,-82.5 554.266,-82.5 562.848,-82.5"/>
<polygon fill="midnightblue" stroke="midnightblue" points="562.872,-86.0001 572.872,-82.5 562.871,-79.0001 562.872,-86.0001"/>
</g>
<!-- Node20 -->
<g id="node20" class="node"><title>Node20</title>
<g id="a_node20"><a xlink:href="classRa_1_1GuiBase_1_1ItemModel.html#a3236433d461ad6cac5e9390b2685fa3f" target="_top" xlink:title="Returns the entry corresponding to a given index or an invalid entry if the index doesn&#39;t match any e...">
<polygon fill="white" stroke="black" points="591,-6.5 591,-36.5 722,-36.5 722,-6.5 591,-6.5"/>
<text text-anchor="start" x="599" y="-24.5" font-family="Helvetica,sans-Serif" font-size="10.00">Ra::GuiBase::ItemModel</text>
<text text-anchor="middle" x="656.5" y="-13.5" font-family="Helvetica,sans-Serif" font-size="10.00">::getEntry</text>
</a>
</g>
</g>
<!-- Node18&#45;&gt;Node20 -->
<g id="edge21" class="edge"><title>Node18&#45;&gt;Node20</title>
<path fill="none" stroke="midnightblue" d="M504.235,-67.4348C515.038,-64.161 526.402,-60.7155 537,-57.5 556.273,-51.6523 577.308,-45.2641 596.234,-39.5138"/>
<polygon fill="midnightblue" stroke="midnightblue" points="597.368,-42.8273 605.919,-36.5712 595.333,-36.1296 597.368,-42.8273"/>
</g>
<!-- Node21 -->
<g id="node21" class="node"><title>Node21</title>
<g id="a_node21"><a xlink:href="classRa_1_1GuiBase_1_1TreeModel.html#a5aa24ace72c1c3d29e268cb34dc576f2" target="_top" xlink:title="Get the tree item corresponding to the given index. ">
<polygon fill="white" stroke="black" points="784,-0.5 784,-30.5 912,-30.5 912,-0.5 784,-0.5"/>
<text text-anchor="start" x="792" y="-18.5" font-family="Helvetica,sans-Serif" font-size="10.00">Ra::GuiBase::TreeModel</text>
<text text-anchor="middle" x="848" y="-7.5" font-family="Helvetica,sans-Serif" font-size="10.00">::getItem</text>
</a>
</g>
</g>
<!-- Node20&#45;&gt;Node21 -->
<g id="edge22" class="edge"><title>Node20&#45;&gt;Node21</title>
<path fill="none" stroke="midnightblue" d="M722.185,-19.4519C738.7,-18.929 756.575,-18.3631 773.497,-17.8273"/>
<polygon fill="midnightblue" stroke="midnightblue" points="774.005,-21.313 783.889,-17.4982 773.783,-14.3165 774.005,-21.313"/>
</g>
<!-- Node22 -->
<g id="node22" class="node"><title>Node22</title>
<g id="a_node22"><a xlink:href="classRa_1_1GuiBase_1_1TreeModel.html#a972106921da4c960f23f81722d3b4cf5" target="_top" xlink:title="Internal functions to check if an item is in the tree. ">
<polygon fill="white" stroke="black" points="956,-0.5 956,-30.5 1084,-30.5 1084,-0.5 956,-0.5"/>
<text text-anchor="start" x="964" y="-18.5" font-family="Helvetica,sans-Serif" font-size="10.00">Ra::GuiBase::TreeModel</text>
<text text-anchor="middle" x="1020" y="-7.5" font-family="Helvetica,sans-Serif" font-size="10.00">::findInTree</text>
</a>
</g>
</g>
<!-- Node21&#45;&gt;Node22 -->
<g id="edge23" class="edge"><title>Node21&#45;&gt;Node22</title>
<path fill="none" stroke="midnightblue" d="M912.302,-15.5C923.215,-15.5 934.641,-15.5 945.79,-15.5"/>
<polygon fill="midnightblue" stroke="midnightblue" points="945.929,-19.0001 955.929,-15.5 945.929,-12.0001 945.929,-19.0001"/>
</g>
</g>
</svg>
