<?xml version="1.0" encoding="UTF-8" standalone="no"?>
<!DOCTYPE svg PUBLIC "-//W3C//DTD SVG 1.1//EN"
 "http://www.w3.org/Graphics/SVG/1.1/DTD/svg11.dtd">
<!-- Generated by graphviz version 2.38.0 (20140413.2041)
 -->
<!-- Title: Ra::Core::TriangleMesh::isValid Pages: 1 -->
<svg width="617pt" height="78pt"
 viewBox="0.00 0.00 617.00 77.50" xmlns="http://www.w3.org/2000/svg" xmlns:xlink="http://www.w3.org/1999/xlink">
<g id="graph0" class="graph" transform="scale(1 1) rotate(0) translate(4 73.5)">
<title>Ra::Core::TriangleMesh::isValid</title>
<polygon fill="white" stroke="none" points="-4,4 -4,-73.5 613,-73.5 613,4 -4,4"/>
<!-- Node1 -->
<g id="node1" class="node"><title>Node1</title>
<polygon fill="#bfbfbf" stroke="black" points="0,-22.5 0,-52.5 125,-52.5 125,-22.5 0,-22.5"/>
<text text-anchor="start" x="8" y="-40.5" font-family="Helvetica,sans-Serif" font-size="10.00">Ra::Core::TriangleMesh</text>
<text text-anchor="middle" x="62.5" y="-29.5" font-family="Helvetica,sans-Serif" font-size="10.00">::isValid</text>
</g>
<!-- Node2 -->
<g id="node2" class="node"><title>Node2</title>
<g id="a_node2"><a xlink:href="classRa_1_1Core_1_1AttribManager.html#a60dbf6cd73f3de13bc1247435ce52a81" target="_top" xlink:title="Return true if h correspond to an existing attribute in *this. ">
<polygon fill="white" stroke="black" points="161,-22.5 161,-52.5 292,-52.5 292,-22.5 161,-22.5"/>
<text text-anchor="start" x="169" y="-40.5" font-family="Helvetica,sans-Serif" font-size="10.00">Ra::Core::AttribManager</text>
<text text-anchor="middle" x="226.5" y="-29.5" font-family="Helvetica,sans-Serif" font-size="10.00">::isValid</text>
</a>
</g>
</g>
<!-- Node1&#45;&gt;Node2 -->
<g id="edge1" class="edge"><title>Node1&#45;&gt;Node2</title>
<path fill="none" stroke="midnightblue" d="M125.207,-37.5C133.471,-37.5 142.02,-37.5 150.481,-37.5"/>
<polygon fill="midnightblue" stroke="midnightblue" points="150.733,-41.0001 160.733,-37.5 150.733,-34.0001 150.733,-41.0001"/>
</g>
<!-- Node3 -->
<g id="node3" class="node"><title>Node3</title>
<g id="a_node3"><a xlink:href="classRa_1_1Core_1_1Index.html#a16f988512f9ef442cc97b6bc4809ba45" target="_top" xlink:title="Ra::Core::Index::Invalid">
<polygon fill="white" stroke="black" points="328,-50 328,-69 453,-69 453,-50 328,-50"/>
<text text-anchor="middle" x="390.5" y="-57" font-family="Helvetica,sans-Serif" font-size="10.00">Ra::Core::Index::Invalid</text>
</a>
</g>
</g>
<!-- Node2&#45;&gt;Node3 -->
<g id="edge2" class="edge"><title>Node2&#45;&gt;Node3</title>
<path fill="none" stroke="midnightblue" d="M292.458,-46.3215C300.781,-47.4518 309.34,-48.6141 317.764,-49.758"/>
<polygon fill="midnightblue" stroke="midnightblue" points="317.566,-53.2632 327.946,-51.1408 318.508,-46.3269 317.566,-53.2632"/>
</g>
<!-- Node5 -->
<g id="node5" class="node"><title>Node5</title>
<g id="a_node5"><a xlink:href="classRa_1_1Core_1_1AttribHandle.html#a7e994151627b8847e1f6f03fd88ff093" target="_top" xlink:title="Ra::Core::AttribHandle\l::attribName">
<polygon fill="white" stroke="black" points="329,-0.5 329,-30.5 452,-30.5 452,-0.5 329,-0.5"/>
<text text-anchor="start" x="337" y="-18.5" font-family="Helvetica,sans-Serif" font-size="10.00">Ra::Core::AttribHandle</text>
<text text-anchor="middle" x="390.5" y="-7.5" font-family="Helvetica,sans-Serif" font-size="10.00">::attribName</text>
</a>
</g>
</g>
<!-- Node2&#45;&gt;Node5 -->
<g id="edge4" class="edge"><title>Node2&#45;&gt;Node5</title>
<path fill="none" stroke="midnightblue" d="M292.458,-28.6785C301.126,-27.5014 310.049,-26.2896 318.809,-25.1"/>
<polygon fill="midnightblue" stroke="midnightblue" points="319.554,-28.5311 328.992,-23.7172 318.612,-21.5948 319.554,-28.5311"/>
</g>
<!-- Node4 -->
<g id="node4" class="node"><title>Node4</title>
<g id="a_node4"><a xlink:href="classRa_1_1Core_1_1Index.html#af6afe563ad57a4ab82f3706987e684ef" target="_top" xlink:title="CONSTRUCTOR Default constructor that allow implicit conversion from integer to Index. ">
<polygon fill="white" stroke="black" points="489,-50 489,-69 609,-69 609,-50 489,-50"/>
<text text-anchor="middle" x="549" y="-57" font-family="Helvetica,sans-Serif" font-size="10.00">Ra::Core::Index::Index</text>
</a>
</g>
</g>
<!-- Node3&#45;&gt;Node4 -->
<g id="edge3" class="edge"><title>Node3&#45;&gt;Node4</title>
<path fill="none" stroke="midnightblue" d="M453.353,-59.5C461.675,-59.5 470.255,-59.5 478.695,-59.5"/>
<polygon fill="midnightblue" stroke="midnightblue" points="478.893,-63.0001 488.893,-59.5 478.893,-56.0001 478.893,-63.0001"/>
</g>
</g>
</svg>
