<?xml version="1.0" encoding="UTF-8" standalone="no"?>
<!DOCTYPE svg PUBLIC "-//W3C//DTD SVG 1.1//EN"
 "http://www.w3.org/Graphics/SVG/1.1/DTD/svg11.dtd">
<!-- Generated by graphviz version 2.38.0 (20140413.2041)
 -->
<!-- Title: Ra::Core::IndexMap&lt; T &gt; Pages: 1 -->
<svg width="260pt" height="634pt"
 viewBox="0.00 0.00 260.00 634.00" xmlns="http://www.w3.org/2000/svg" xmlns:xlink="http://www.w3.org/1999/xlink">
<g id="graph0" class="graph" transform="scale(1 1) rotate(0) translate(4 630)">
<title>Ra::Core::IndexMap&lt; T &gt;</title>
<polygon fill="white" stroke="none" points="-4,4 -4,-630 256,-630 256,4 -4,4"/>
<!-- Node1 -->
<g id="node1" class="node"><title>Node1</title>
<polygon fill="#bfbfbf" stroke="black" points="14.5,-0.5 14.5,-310.5 151.5,-310.5 151.5,-0.5 14.5,-0.5"/>
<text text-anchor="middle" x="83" y="-298.5" font-family="Helvetica,sans-Serif" font-size="10.00">Ra::Core::IndexMap&lt; T &gt;</text>
<polyline fill="none" stroke="black" points="14.5,-291.5 151.5,-291.5 "/>
<text text-anchor="middle" x="83" y="-279.5" font-family="Helvetica,sans-Serif" font-size="10.00"> </text>
<polyline fill="none" stroke="black" points="14.5,-272.5 151.5,-272.5 "/>
<text text-anchor="start" x="22.5" y="-260.5" font-family="Helvetica,sans-Serif" font-size="10.00">+ IndexMap()</text>
<text text-anchor="start" x="22.5" y="-249.5" font-family="Helvetica,sans-Serif" font-size="10.00">+ IndexMap()</text>
<text text-anchor="start" x="22.5" y="-238.5" font-family="Helvetica,sans-Serif" font-size="10.00">+ ~IndexMap()</text>
<text text-anchor="start" x="22.5" y="-227.5" font-family="Helvetica,sans-Serif" font-size="10.00">+ insert()</text>
<text text-anchor="start" x="22.5" y="-216.5" font-family="Helvetica,sans-Serif" font-size="10.00">+ emplace()</text>
<text text-anchor="start" x="22.5" y="-205.5" font-family="Helvetica,sans-Serif" font-size="10.00">+ remove()</text>
<text text-anchor="start" x="22.5" y="-194.5" font-family="Helvetica,sans-Serif" font-size="10.00">+ at()</text>
<text text-anchor="start" x="22.5" y="-183.5" font-family="Helvetica,sans-Serif" font-size="10.00">+ access()</text>
<text text-anchor="start" x="22.5" y="-172.5" font-family="Helvetica,sans-Serif" font-size="10.00">+ size()</text>
<text text-anchor="start" x="22.5" y="-161.5" font-family="Helvetica,sans-Serif" font-size="10.00">+ clear()</text>
<text text-anchor="start" x="22.5" y="-150.5" font-family="Helvetica,sans-Serif" font-size="10.00">+ empty()</text>
<text text-anchor="start" x="22.5" y="-139.5" font-family="Helvetica,sans-Serif" font-size="10.00">+ full()</text>
<text text-anchor="start" x="22.5" y="-128.5" font-family="Helvetica,sans-Serif" font-size="10.00">+ contains()</text>
<text text-anchor="start" x="22.5" y="-117.5" font-family="Helvetica,sans-Serif" font-size="10.00">+ index()</text>
<text text-anchor="start" x="22.5" y="-106.5" font-family="Helvetica,sans-Serif" font-size="10.00">+ operator[]()</text>
<text text-anchor="start" x="22.5" y="-95.5" font-family="Helvetica,sans-Serif" font-size="10.00">+ operator[]()</text>
<text text-anchor="start" x="22.5" y="-84.5" font-family="Helvetica,sans-Serif" font-size="10.00">+ cbegin_index()</text>
<text text-anchor="start" x="22.5" y="-73.5" font-family="Helvetica,sans-Serif" font-size="10.00">+ cend_index()</text>
<text text-anchor="start" x="22.5" y="-62.5" font-family="Helvetica,sans-Serif" font-size="10.00">+ begin()</text>
<text text-anchor="start" x="22.5" y="-51.5" font-family="Helvetica,sans-Serif" font-size="10.00">+ end()</text>
<text text-anchor="start" x="22.5" y="-40.5" font-family="Helvetica,sans-Serif" font-size="10.00">+ begin()</text>
<text text-anchor="start" x="22.5" y="-29.5" font-family="Helvetica,sans-Serif" font-size="10.00">+ end()</text>
<text text-anchor="start" x="22.5" y="-18.5" font-family="Helvetica,sans-Serif" font-size="10.00">+ cbegin()</text>
<text text-anchor="start" x="22.5" y="-7.5" font-family="Helvetica,sans-Serif" font-size="10.00">+ cend()</text>
</g>
<!-- Node2 -->
<g id="node2" class="node"><title>Node2</title>
<polygon fill="white" stroke="#bfbfbf" points="0,-358.5 0,-415.5 74,-415.5 74,-358.5 0,-358.5"/>
<text text-anchor="middle" x="37" y="-403.5" font-family="Helvetica,sans-Serif" font-size="10.00">deque&lt; T &gt;</text>
<polyline fill="none" stroke="#bfbfbf" points="0,-396.5 74,-396.5 "/>
<text text-anchor="middle" x="37" y="-384.5" font-family="Helvetica,sans-Serif" font-size="10.00"> </text>
<polyline fill="none" stroke="#bfbfbf" points="0,-377.5 74,-377.5 "/>
<text text-anchor="middle" x="37" y="-365.5" font-family="Helvetica,sans-Serif" font-size="10.00"> </text>
</g>
<!-- Node2&#45;&gt;Node1 -->
<g id="edge1" class="edge"><title>Node2&#45;&gt;Node1</title>
<path fill="none" stroke="#404040" d="M42.5487,-358.317C44.5632,-348.266 47.011,-336.054 49.6948,-322.664"/>
<polygon fill="none" stroke="#404040" points="49.7508,-322.384 47.008,-315.715 52.1092,-310.618 54.8519,-317.288 49.7508,-322.384"/>
<text text-anchor="middle" x="73.5" y="-332" font-family="Helvetica,sans-Serif" font-size="10.00"> #m_data</text>
</g>
<!-- Node3 -->
<g id="node3" class="node"><title>Node3</title>
<polygon fill="white" stroke="#bfbfbf" points="92,-358.5 92,-415.5 208,-415.5 208,-358.5 92,-358.5"/>
<text text-anchor="middle" x="150" y="-403.5" font-family="Helvetica,sans-Serif" font-size="10.00">std::deque&lt; Index &gt;</text>
<polyline fill="none" stroke="#bfbfbf" points="92,-396.5 208,-396.5 "/>
<text text-anchor="middle" x="150" y="-384.5" font-family="Helvetica,sans-Serif" font-size="10.00"> </text>
<polyline fill="none" stroke="#bfbfbf" points="92,-377.5 208,-377.5 "/>
<text text-anchor="middle" x="150" y="-365.5" font-family="Helvetica,sans-Serif" font-size="10.00"> </text>
</g>
<!-- Node3&#45;&gt;Node1 -->
<g id="edge2" class="edge"><title>Node3&#45;&gt;Node1</title>
<path fill="none" stroke="#404040" d="M141.918,-358.317C138.954,-348.165 135.347,-335.807 131.391,-322.258"/>
<polygon fill="none" stroke="#404040" points="131.356,-322.138 125.835,-317.499 127.993,-310.618 133.514,-315.257 131.356,-322.138"/>
<text text-anchor="middle" x="162" y="-332" font-family="Helvetica,sans-Serif" font-size="10.00"> #m_index</text>
</g>
<!-- Node4 -->
<g id="node4" class="node"><title>Node4</title>
<polygon fill="white" stroke="#bfbfbf" points="87,-463.5 87,-520.5 129,-520.5 129,-463.5 87,-463.5"/>
<text text-anchor="middle" x="108" y="-508.5" font-family="Helvetica,sans-Serif" font-size="10.00">Index</text>
<polyline fill="none" stroke="#bfbfbf" points="87,-501.5 129,-501.5 "/>
<text text-anchor="middle" x="108" y="-489.5" font-family="Helvetica,sans-Serif" font-size="10.00"> </text>
<polyline fill="none" stroke="#bfbfbf" points="87,-482.5 129,-482.5 "/>
<text text-anchor="middle" x="108" y="-470.5" font-family="Helvetica,sans-Serif" font-size="10.00"> </text>
</g>
<!-- Node4&#45;&gt;Node3 -->
<g id="edge3" class="edge"><title>Node4&#45;&gt;Node3</title>
<path fill="none" stroke="#404040" d="M106.555,-463.27C106.931,-453.71 108.355,-443.119 112,-434 113.127,-431.181 114.494,-428.404 116.032,-425.696"/>
<polygon fill="none" stroke="#404040" points="116.047,-425.673 116.014,-418.462 122.658,-415.659 122.691,-422.87 116.047,-425.673"/>
<text text-anchor="middle" x="140.5" y="-437" font-family="Helvetica,sans-Serif" font-size="10.00"> +elements</text>
</g>
<!-- Node5 -->
<g id="node5" class="node"><title>Node5</title>
<g id="a_node5"><a xlink:title="STL class. ">
<polygon fill="white" stroke="#bfbfbf" points="147.5,-463.5 147.5,-520.5 242.5,-520.5 242.5,-463.5 147.5,-463.5"/>
<text text-anchor="middle" x="195" y="-508.5" font-family="Helvetica,sans-Serif" font-size="10.00">std::deque&lt; T &gt;</text>
<polyline fill="none" stroke="#bfbfbf" points="147.5,-501.5 242.5,-501.5 "/>
<text text-anchor="middle" x="195" y="-489.5" font-family="Helvetica,sans-Serif" font-size="10.00"> </text>
<polyline fill="none" stroke="#bfbfbf" points="147.5,-482.5 242.5,-482.5 "/>
<text text-anchor="middle" x="195" y="-470.5" font-family="Helvetica,sans-Serif" font-size="10.00"> </text>
</a>
</g>
</g>
<!-- Node5&#45;&gt;Node3 -->
<g id="edge4" class="edge"><title>Node5&#45;&gt;Node3</title>
<path fill="none" stroke="orange" d="M178.849,-454.031C173.323,-441.384 167.242,-427.464 162.092,-415.678"/>
<polygon fill="orange" stroke="orange" points="175.73,-455.636 182.941,-463.398 182.145,-452.833 175.73,-455.636"/>
<text text-anchor="middle" x="199" y="-437" font-family="Helvetica,sans-Serif" font-size="10.00"> &lt; Index &gt;</text>
</g>
<!-- Node6 -->
<g id="node6" class="node"><title>Node6</title>
<polygon fill="white" stroke="#bfbfbf" points="180.5,-568.5 180.5,-625.5 209.5,-625.5 209.5,-568.5 180.5,-568.5"/>
<text text-anchor="middle" x="195" y="-613.5" font-family="Helvetica,sans-Serif" font-size="10.00">T</text>
<polyline fill="none" stroke="#bfbfbf" points="180.5,-606.5 209.5,-606.5 "/>
<text text-anchor="middle" x="195" y="-594.5" font-family="Helvetica,sans-Serif" font-size="10.00"> </text>
<polyline fill="none" stroke="#bfbfbf" points="180.5,-587.5 209.5,-587.5 "/>
<text text-anchor="middle" x="195" y="-575.5" font-family="Helvetica,sans-Serif" font-size="10.00"> </text>
</g>
<!-- Node6&#45;&gt;Node5 -->
<g id="edge5" class="edge"><title>Node6&#45;&gt;Node5</title>
<path fill="none" stroke="#404040" d="M195,-568.398C195,-557.545 195,-544.873 195,-533.049"/>
<polygon fill="none" stroke="#404040" points="195,-532.678 191,-526.678 195,-520.678 199,-526.678 195,-532.678"/>
<text text-anchor="middle" x="223.5" y="-542" font-family="Helvetica,sans-Serif" font-size="10.00"> +elements</text>
</g>
</g>
</svg>
