<?xml version="1.0" encoding="UTF-8" standalone="no"?>
<!DOCTYPE svg PUBLIC "-//W3C//DTD SVG 1.1//EN"
 "http://www.w3.org/Graphics/SVG/1.1/DTD/svg11.dtd">
<!-- Generated by graphviz version 2.38.0 (20140413.2041)
 -->
<!-- Title: Ra::Gui::Gizmo::~Gizmo Pages: 1 -->
<svg width="840pt" height="88pt"
 viewBox="0.00 0.00 840.00 88.00" xmlns="http://www.w3.org/2000/svg" xmlns:xlink="http://www.w3.org/1999/xlink">
<g id="graph0" class="graph" transform="scale(1 1) rotate(0) translate(4 84)">
<title>Ra::Gui::Gizmo::~Gizmo</title>
<polygon fill="white" stroke="none" points="-4,4 -4,-84 836,-84 836,4 -4,4"/>
<!-- Node1 -->
<g id="node1" class="node"><title>Node1</title>
<polygon fill="#bfbfbf" stroke="black" points="0,-30 0,-49 132,-49 132,-30 0,-30"/>
<text text-anchor="middle" x="66" y="-37" font-family="Helvetica,sans-Serif" font-size="10.00">Ra::Gui::Gizmo::~Gizmo</text>
</g>
<!-- Node2 -->
<g id="node2" class="node"><title>Node2</title>
<g id="a_node2"><a xlink:href="classRa_1_1Engine_1_1Component.html#aa1d987163bd5e3411b20ea834c995b25" target="_top" xlink:title="Remove the render object from the component. ">
<polygon fill="white" stroke="black" points="168,-24.5 168,-54.5 297,-54.5 297,-24.5 168,-24.5"/>
<text text-anchor="start" x="176" y="-42.5" font-family="Helvetica,sans-Serif" font-size="10.00">Ra::Engine::Component</text>
<text text-anchor="middle" x="232.5" y="-31.5" font-family="Helvetica,sans-Serif" font-size="10.00">::removeRenderObject</text>
</a>
</g>
</g>
<!-- Node1&#45;&gt;Node2 -->
<g id="edge1" class="edge"><title>Node1&#45;&gt;Node2</title>
<path fill="none" stroke="midnightblue" d="M132.015,-39.5C140.379,-39.5 148.991,-39.5 157.486,-39.5"/>
<polygon fill="midnightblue" stroke="midnightblue" points="157.764,-43.0001 167.764,-39.5 157.764,-36.0001 157.764,-43.0001"/>
</g>
<!-- Node3 -->
<g id="node3" class="node"><title>Node3</title>
<g id="a_node3"><a xlink:href="classRa_1_1Engine_1_1Component.html#a10b0bc182b76165744ebea603ae32dfe" target="_top" xlink:title="Shortcut to access the render object manager. ">
<polygon fill="white" stroke="black" points="351,-49.5 351,-79.5 480,-79.5 480,-49.5 351,-49.5"/>
<text text-anchor="start" x="359" y="-67.5" font-family="Helvetica,sans-Serif" font-size="10.00">Ra::Engine::Component</text>
<text text-anchor="middle" x="415.5" y="-56.5" font-family="Helvetica,sans-Serif" font-size="10.00">::getRoMgr</text>
</a>
</g>
</g>
<!-- Node2&#45;&gt;Node3 -->
<g id="edge2" class="edge"><title>Node2&#45;&gt;Node3</title>
<path fill="none" stroke="midnightblue" d="M297.059,-48.2789C311.212,-50.2337 326.331,-52.322 340.851,-54.3275"/>
<polygon fill="midnightblue" stroke="midnightblue" points="340.403,-57.7988 350.788,-55.7 341.361,-50.8646 340.403,-57.7988"/>
</g>
<!-- Node4 -->
<g id="node4" class="node"><title>Node4</title>
<g id="a_node4"><a xlink:href="classRa_1_1Engine_1_1RenderObjectManager.html#a95309666be383bc25eed4dad71d06310" target="_top" xlink:title="Ra::Engine::RenderObject\lManager::removeRenderObject">
<polygon fill="white" stroke="black" points="333,-0.5 333,-30.5 498,-30.5 498,-0.5 333,-0.5"/>
<text text-anchor="start" x="341" y="-18.5" font-family="Helvetica,sans-Serif" font-size="10.00">Ra::Engine::RenderObject</text>
<text text-anchor="middle" x="415.5" y="-7.5" font-family="Helvetica,sans-Serif" font-size="10.00">Manager::removeRenderObject</text>
</a>
</g>
</g>
<!-- Node2&#45;&gt;Node4 -->
<g id="edge3" class="edge"><title>Node2&#45;&gt;Node4</title>
<path fill="none" stroke="midnightblue" d="M297.059,-31.0722C305.496,-29.9535 314.277,-28.7892 323.07,-27.6234"/>
<polygon fill="midnightblue" stroke="midnightblue" points="323.531,-31.0929 332.984,-26.3088 322.611,-24.1537 323.531,-31.0929"/>
</g>
<!-- Node5 -->
<g id="node5" class="node"><title>Node5</title>
<g id="a_node5"><a xlink:href="classRa_1_1Engine_1_1RenderObjectManager.html#a4077b9cf9e1e4d62fd5456386f2d72c8" target="_top" xlink:title="Returns true if the index points to a valid render object. ">
<polygon fill="white" stroke="black" points="534,-0.5 534,-30.5 671,-30.5 671,-0.5 534,-0.5"/>
<text text-anchor="start" x="542" y="-18.5" font-family="Helvetica,sans-Serif" font-size="10.00">Ra::Engine::RenderObject</text>
<text text-anchor="middle" x="602.5" y="-7.5" font-family="Helvetica,sans-Serif" font-size="10.00">Manager::exists</text>
</a>
</g>
</g>
<!-- Node4&#45;&gt;Node5 -->
<g id="edge4" class="edge"><title>Node4&#45;&gt;Node5</title>
<path fill="none" stroke="midnightblue" d="M498.182,-15.5C506.646,-15.5 515.233,-15.5 523.654,-15.5"/>
<polygon fill="midnightblue" stroke="midnightblue" points="523.823,-19.0001 533.823,-15.5 523.823,-12.0001 523.823,-19.0001"/>
</g>
<!-- Node6 -->
<g id="node6" class="node"><title>Node6</title>
<g id="a_node6"><a xlink:href="classRa_1_1Core_1_1Index.html#a87c70243f30c65c1a24834d1829bda01" target="_top" xlink:title="DESTRUCTOR: Must not be defined, we need it trivial to be constexpr. ">
<polygon fill="white" stroke="black" points="707,-6 707,-25 832,-25 832,-6 707,-6"/>
<text text-anchor="middle" x="769.5" y="-13" font-family="Helvetica,sans-Serif" font-size="10.00">Ra::Core::Index::isValid</text>
</a>
</g>
</g>
<!-- Node5&#45;&gt;Node6 -->
<g id="edge5" class="edge"><title>Node5&#45;&gt;Node6</title>
<path fill="none" stroke="midnightblue" d="M671.088,-15.5C679.503,-15.5 688.132,-15.5 696.61,-15.5"/>
<polygon fill="midnightblue" stroke="midnightblue" points="696.85,-19.0001 706.85,-15.5 696.85,-12.0001 696.85,-19.0001"/>
</g>
</g>
</svg>
