<?xml version="1.0" encoding="UTF-8" standalone="no"?>
<!DOCTYPE svg PUBLIC "-//W3C//DTD SVG 1.1//EN"
 "http://www.w3.org/Graphics/SVG/1.1/DTD/svg11.dtd">
<!-- Generated by graphviz version 2.38.0 (20140413.2041)
 -->
<!-- Title: Ra::Core::QuadraSpline::df Pages: 1 -->
<svg width="475pt" height="78pt"
 viewBox="0.00 0.00 475.00 77.50" xmlns="http://www.w3.org/2000/svg" xmlns:xlink="http://www.w3.org/1999/xlink">
<g id="graph0" class="graph" transform="scale(1 1) rotate(0) translate(4 73.5)">
<title>Ra::Core::QuadraSpline::df</title>
<polygon fill="white" stroke="none" points="-4,4 -4,-73.5 471,-73.5 471,4 -4,4"/>
<!-- Node1 -->
<g id="node1" class="node"><title>Node1</title>
<polygon fill="#bfbfbf" stroke="black" points="0,-22.5 0,-41.5 143,-41.5 143,-22.5 0,-22.5"/>
<text text-anchor="middle" x="71.5" y="-29.5" font-family="Helvetica,sans-Serif" font-size="10.00">Ra::Core::QuadraSpline::df</text>
</g>
<!-- Node2 -->
<g id="node2" class="node"><title>Node2</title>
<g id="a_node2"><a xlink:href="classRa_1_1Core_1_1Spline.html#aa40f2b7095d2abea6e7453f3e473f089" target="_top" xlink:title="Set the position of the spline control points. ">
<polygon fill="white" stroke="black" points="179,-39 179,-69 309,-69 309,-39 179,-39"/>
<text text-anchor="start" x="187" y="-57" font-family="Helvetica,sans-Serif" font-size="10.00">Ra::Core::Spline::setCtrl</text>
<text text-anchor="middle" x="244" y="-46" font-family="Helvetica,sans-Serif" font-size="10.00">Points</text>
</a>
</g>
</g>
<!-- Node1&#45;&gt;Node2 -->
<g id="edge1" class="edge"><title>Node1&#45;&gt;Node2</title>
<path fill="none" stroke="midnightblue" d="M143.326,-41.1389C151.809,-42.2335 160.489,-43.3534 169.015,-44.4536"/>
<polygon fill="midnightblue" stroke="midnightblue" points="168.567,-47.9247 178.933,-45.7333 169.463,-40.9823 168.567,-47.9247"/>
</g>
<!-- Node3 -->
<g id="node3" class="node"><title>Node3</title>
<g id="a_node3"><a xlink:href="classRa_1_1Core_1_1Spline.html#a69a0b88c00f036c227259a9f0c8b5fc0" target="_top" xlink:title="Evaluate speed of the spline. ">
<polygon fill="white" stroke="black" points="190.5,-0.5 190.5,-19.5 297.5,-19.5 297.5,-0.5 190.5,-0.5"/>
<text text-anchor="middle" x="244" y="-7.5" font-family="Helvetica,sans-Serif" font-size="10.00">Ra::Core::Spline::df</text>
</a>
</g>
</g>
<!-- Node1&#45;&gt;Node3 -->
<g id="edge2" class="edge"><title>Node1&#45;&gt;Node3</title>
<path fill="none" stroke="midnightblue" d="M143.326,-22.8611C155.621,-21.2748 168.327,-19.6352 180.383,-18.0796"/>
<polygon fill="midnightblue" stroke="midnightblue" points="180.863,-21.5467 190.333,-16.7957 179.967,-14.6043 180.863,-21.5467"/>
</g>
<!-- Node4 -->
<g id="node4" class="node"><title>Node4</title>
<g id="a_node4"><a xlink:href="namespaceRa_1_1Core_1_1Math.html#a43a856c00d750c5f5c28f362b5df8664" target="_top" xlink:title="Returns value v clamped between bounds min and max. ">
<polygon fill="white" stroke="black" points="345,-0.5 345,-19.5 467,-19.5 467,-0.5 345,-0.5"/>
<text text-anchor="middle" x="406" y="-7.5" font-family="Helvetica,sans-Serif" font-size="10.00">Ra::Core::Math::clamp</text>
</a>
</g>
</g>
<!-- Node3&#45;&gt;Node4 -->
<g id="edge3" class="edge"><title>Node3&#45;&gt;Node4</title>
<path fill="none" stroke="midnightblue" d="M297.833,-10C309.567,-10 322.185,-10 334.499,-10"/>
<polygon fill="midnightblue" stroke="midnightblue" points="334.745,-13.5001 344.745,-10 334.745,-6.5001 334.745,-13.5001"/>
</g>
</g>
</svg>
