<?xml version="1.0" encoding="UTF-8" standalone="no"?>
<!DOCTYPE svg PUBLIC "-//W3C//DTD SVG 1.1//EN"
 "http://www.w3.org/Graphics/SVG/1.1/DTD/svg11.dtd">
<!-- Generated by graphviz version 2.38.0 (20140413.2041)
 -->
<!-- Title: Ra::Core::TriangleMesh::TriangleMesh Pages: 1 -->
<svg width="628pt" height="225pt"
 viewBox="0.00 0.00 628.00 224.50" xmlns="http://www.w3.org/2000/svg" xmlns:xlink="http://www.w3.org/1999/xlink">
<g id="graph0" class="graph" transform="scale(1 1) rotate(0) translate(4 220.5)">
<title>Ra::Core::TriangleMesh::TriangleMesh</title>
<polygon fill="white" stroke="none" points="-4,4 -4,-220.5 624,-220.5 624,4 -4,4"/>
<!-- Node1 -->
<g id="node1" class="node"><title>Node1</title>
<polygon fill="#bfbfbf" stroke="black" points="0,-137 0,-167 125,-167 125,-137 0,-137"/>
<text text-anchor="start" x="8" y="-155" font-family="Helvetica,sans-Serif" font-size="10.00">Ra::Core::TriangleMesh</text>
<text text-anchor="middle" x="62.5" y="-144" font-family="Helvetica,sans-Serif" font-size="10.00">::TriangleMesh</text>
</g>
<!-- Node2 -->
<g id="node2" class="node"><title>Node2</title>
<g id="a_node2"><a xlink:href="classRa_1_1Core_1_1TriangleMesh.html#a59a1fe573e3f604ce5e3094abb0dff44" target="_top" xlink:title="Assignment operator, copy all the mesh data (faces, geometry, attributes). ">
<polygon fill="white" stroke="black" points="161,-137 161,-167 286,-167 286,-137 161,-137"/>
<text text-anchor="start" x="169" y="-155" font-family="Helvetica,sans-Serif" font-size="10.00">Ra::Core::TriangleMesh</text>
<text text-anchor="middle" x="223.5" y="-144" font-family="Helvetica,sans-Serif" font-size="10.00">::operator=</text>
</a>
</g>
</g>
<!-- Node1&#45;&gt;Node2 -->
<g id="edge1" class="edge"><title>Node1&#45;&gt;Node2</title>
<path fill="none" stroke="midnightblue" d="M125.429,-152C133.674,-152 142.184,-152 150.58,-152"/>
<polygon fill="midnightblue" stroke="midnightblue" points="150.74,-155.5 160.74,-152 150.74,-148.5 150.74,-155.5"/>
</g>
<!-- Node5 -->
<g id="node5" class="node"><title>Node5</title>
<g id="a_node5"><a xlink:href="classRa_1_1Core_1_1TriangleMesh.html#af4ceca64fe85525529a75765c49eb80e" target="_top" xlink:title="Appends another mesh to this one, but only if they have the same attributes. ">
<polygon fill="white" stroke="black" points="161,-64 161,-94 286,-94 286,-64 161,-64"/>
<text text-anchor="start" x="169" y="-82" font-family="Helvetica,sans-Serif" font-size="10.00">Ra::Core::TriangleMesh</text>
<text text-anchor="middle" x="223.5" y="-71" font-family="Helvetica,sans-Serif" font-size="10.00">::append</text>
</a>
</g>
</g>
<!-- Node1&#45;&gt;Node5 -->
<g id="edge4" class="edge"><title>Node1&#45;&gt;Node5</title>
<path fill="none" stroke="midnightblue" d="M96.4449,-136.874C120.749,-125.716 154.015,-110.443 180.271,-98.3882"/>
<polygon fill="midnightblue" stroke="midnightblue" points="181.97,-101.46 189.597,-94.1063 179.049,-95.098 181.97,-101.46"/>
</g>
<!-- Node10 -->
<g id="node10" class="node"><title>Node10</title>
<g id="a_node10"><a xlink:href="classRa_1_1Core_1_1TriangleMesh.html#aa838b995226a922fc10f2f8f4c6dec31" target="_top" xlink:title="Erases all data, making the mesh empty. ">
<polygon fill="white" stroke="black" points="161,-186 161,-216 286,-216 286,-186 161,-186"/>
<text text-anchor="start" x="169" y="-204" font-family="Helvetica,sans-Serif" font-size="10.00">Ra::Core::TriangleMesh</text>
<text text-anchor="middle" x="223.5" y="-193" font-family="Helvetica,sans-Serif" font-size="10.00">::clear</text>
</a>
</g>
</g>
<!-- Node1&#45;&gt;Node10 -->
<g id="edge9" class="edge"><title>Node1&#45;&gt;Node10</title>
<path fill="none" stroke="midnightblue" d="M112.503,-167.101C128.749,-172.108 146.999,-177.732 163.894,-182.939"/>
<polygon fill="midnightblue" stroke="midnightblue" points="163.072,-186.348 173.659,-185.948 165.133,-179.659 163.072,-186.348"/>
</g>
<!-- Node3 -->
<g id="node3" class="node"><title>Node3</title>
<g id="a_node3"><a xlink:href="classRa_1_1Core_1_1AttribManager.html#ae53b7e22a2098c6151c6b2702569a3be" target="_top" xlink:title="clear all attribs, invalidate handles. ">
<polygon fill="white" stroke="black" points="322,-186 322,-216 453,-216 453,-186 322,-186"/>
<text text-anchor="start" x="330" y="-204" font-family="Helvetica,sans-Serif" font-size="10.00">Ra::Core::AttribManager</text>
<text text-anchor="middle" x="387.5" y="-193" font-family="Helvetica,sans-Serif" font-size="10.00">::clear</text>
</a>
</g>
</g>
<!-- Node2&#45;&gt;Node3 -->
<g id="edge2" class="edge"><title>Node2&#45;&gt;Node3</title>
<path fill="none" stroke="midnightblue" d="M274.427,-167.101C290.981,-172.108 309.575,-177.732 326.788,-182.939"/>
<polygon fill="midnightblue" stroke="midnightblue" points="326.153,-186.403 336.738,-185.948 328.179,-179.703 326.153,-186.403"/>
</g>
<!-- Node4 -->
<g id="node4" class="node"><title>Node4</title>
<g id="a_node4"><a xlink:href="classRa_1_1Core_1_1AttribManager.html#a19855e5d5abcc6bd9201064e3502f9fa" target="_top" xlink:title="Copy all attributes from m. ">
<polygon fill="white" stroke="black" points="322,-137 322,-167 453,-167 453,-137 322,-137"/>
<text text-anchor="start" x="330" y="-155" font-family="Helvetica,sans-Serif" font-size="10.00">Ra::Core::AttribManager</text>
<text text-anchor="middle" x="387.5" y="-144" font-family="Helvetica,sans-Serif" font-size="10.00">::copyAllAttributes</text>
</a>
</g>
</g>
<!-- Node2&#45;&gt;Node4 -->
<g id="edge3" class="edge"><title>Node2&#45;&gt;Node4</title>
<path fill="none" stroke="midnightblue" d="M286.207,-152C294.471,-152 303.02,-152 311.481,-152"/>
<polygon fill="midnightblue" stroke="midnightblue" points="311.733,-155.5 321.733,-152 311.733,-148.5 311.733,-155.5"/>
</g>
<!-- Node6 -->
<g id="node6" class="node"><title>Node6</title>
<g id="a_node6"><a xlink:href="classRa_1_1Core_1_1AttribManager.html#a9f7e8414913d3c39d553dbd359f2f62a" target="_top" xlink:title="Return true if *this and other have the same attributes, same amount and same names. ">
<polygon fill="white" stroke="black" points="322,-88 322,-118 453,-118 453,-88 322,-88"/>
<text text-anchor="start" x="330" y="-106" font-family="Helvetica,sans-Serif" font-size="10.00">Ra::Core::AttribManager</text>
<text text-anchor="middle" x="387.5" y="-95" font-family="Helvetica,sans-Serif" font-size="10.00">::hasSameAttribs</text>
</a>
</g>
</g>
<!-- Node5&#45;&gt;Node6 -->
<g id="edge5" class="edge"><title>Node5&#45;&gt;Node6</title>
<path fill="none" stroke="midnightblue" d="M286.207,-88.1418C294.562,-89.3796 303.208,-90.6604 311.76,-91.9274"/>
<polygon fill="midnightblue" stroke="midnightblue" points="311.328,-95.4015 321.733,-93.4049 312.354,-88.4771 311.328,-95.4015"/>
</g>
<!-- Node7 -->
<g id="node7" class="node"><title>Node7</title>
<g id="a_node7"><a xlink:href="classRa_1_1Core_1_1TriangleMesh.html#a495116f40cfec8bb6504698d786d4b8c" target="_top" xlink:title="Access the vertices positions. ">
<polygon fill="white" stroke="black" points="325,-39 325,-69 450,-69 450,-39 325,-39"/>
<text text-anchor="start" x="333" y="-57" font-family="Helvetica,sans-Serif" font-size="10.00">Ra::Core::TriangleMesh</text>
<text text-anchor="middle" x="387.5" y="-46" font-family="Helvetica,sans-Serif" font-size="10.00">::vertices</text>
</a>
</g>
</g>
<!-- Node5&#45;&gt;Node7 -->
<g id="edge6" class="edge"><title>Node5&#45;&gt;Node7</title>
<path fill="none" stroke="midnightblue" d="M286.207,-69.4773C295.631,-68.023 305.425,-66.5116 315.036,-65.0283"/>
<polygon fill="midnightblue" stroke="midnightblue" points="315.615,-68.4806 324.964,-63.4963 314.547,-61.5625 315.615,-68.4806"/>
</g>
<!-- Node9 -->
<g id="node9" class="node"><title>Node9</title>
<g id="a_node9"><a xlink:href="namespaceRa_1_1Core_1_1Algorithm.html#aea294cdb6f4f0d85955bdcccb22886ec" target="_top" xlink:title="Ra::Core::Algorithm::t">
<polygon fill="white" stroke="black" points="328,-0.5 328,-19.5 447,-19.5 447,-0.5 328,-0.5"/>
<text text-anchor="middle" x="387.5" y="-7.5" font-family="Helvetica,sans-Serif" font-size="10.00">Ra::Core::Algorithm::t</text>
</a>
</g>
</g>
<!-- Node5&#45;&gt;Node9 -->
<g id="edge8" class="edge"><title>Node5&#45;&gt;Node9</title>
<path fill="none" stroke="midnightblue" d="M250.77,-63.821C270.045,-53.1102 297.092,-38.9531 322,-29 327.762,-26.6974 333.912,-24.5319 340.041,-22.5457"/>
<polygon fill="midnightblue" stroke="midnightblue" points="341.083,-25.887 349.595,-19.5784 339.007,-19.202 341.083,-25.887"/>
</g>
<!-- Node8 -->
<g id="node8" class="node"><title>Node8</title>
<g id="a_node8"><a xlink:href="classRa_1_1Core_1_1AttribManager.html#aaa6088620425c1e1d74b50f1b50eb596" target="_top" xlink:title="Get attribute by handle. ">
<polygon fill="white" stroke="black" points="489,-39 489,-69 620,-69 620,-39 489,-39"/>
<text text-anchor="start" x="497" y="-57" font-family="Helvetica,sans-Serif" font-size="10.00">Ra::Core::AttribManager</text>
<text text-anchor="middle" x="554.5" y="-46" font-family="Helvetica,sans-Serif" font-size="10.00">::getAttrib</text>
</a>
</g>
</g>
<!-- Node7&#45;&gt;Node8 -->
<g id="edge7" class="edge"><title>Node7&#45;&gt;Node8</title>
<path fill="none" stroke="midnightblue" d="M450.409,-54C459.609,-54 469.175,-54 478.606,-54"/>
<polygon fill="midnightblue" stroke="midnightblue" points="478.764,-57.5001 488.764,-54 478.764,-50.5001 478.764,-57.5001"/>
</g>
<!-- Node10&#45;&gt;Node3 -->
<g id="edge10" class="edge"><title>Node10&#45;&gt;Node3</title>
<path fill="none" stroke="midnightblue" d="M286.207,-201C294.471,-201 303.02,-201 311.481,-201"/>
<polygon fill="midnightblue" stroke="midnightblue" points="311.733,-204.5 321.733,-201 311.733,-197.5 311.733,-204.5"/>
</g>
</g>
</svg>
