<?xml version="1.0" encoding="UTF-8" standalone="no"?>
<!DOCTYPE svg PUBLIC "-//W3C//DTD SVG 1.1//EN"
 "http://www.w3.org/Graphics/SVG/1.1/DTD/svg11.dtd">
<!-- Generated by graphviz version 2.38.0 (20140413.2041)
 -->
<!-- Title: Ra::Engine::RenderObject::getMeshAabb Pages: 1 -->
<svg width="619pt" height="88pt"
 viewBox="0.00 0.00 619.00 88.00" xmlns="http://www.w3.org/2000/svg" xmlns:xlink="http://www.w3.org/1999/xlink">
<g id="graph0" class="graph" transform="scale(1 1) rotate(0) translate(4 84)">
<title>Ra::Engine::RenderObject::getMeshAabb</title>
<polygon fill="white" stroke="none" points="-4,4 -4,-84 615,-84 615,4 -4,4"/>
<!-- Node1 -->
<g id="node1" class="node"><title>Node1</title>
<polygon fill="#bfbfbf" stroke="black" points="0,-24.5 0,-54.5 137,-54.5 137,-24.5 0,-24.5"/>
<text text-anchor="start" x="8" y="-42.5" font-family="Helvetica,sans-Serif" font-size="10.00">Ra::Engine::RenderObject</text>
<text text-anchor="middle" x="68.5" y="-31.5" font-family="Helvetica,sans-Serif" font-size="10.00">::getMeshAabb</text>
</g>
<!-- Node2 -->
<g id="node2" class="node"><title>Node2</title>
<g id="a_node2"><a xlink:href="namespaceRa_1_1Core_1_1MeshUtils.html#aeac734f3451b397f845a3e99e66bc2b8" target="_top" xlink:title="Ra::Core::MeshUtils\l::getAabb">
<polygon fill="white" stroke="black" points="173,-24.5 173,-54.5 283,-54.5 283,-24.5 173,-24.5"/>
<text text-anchor="start" x="181" y="-42.5" font-family="Helvetica,sans-Serif" font-size="10.00">Ra::Core::MeshUtils</text>
<text text-anchor="middle" x="228" y="-31.5" font-family="Helvetica,sans-Serif" font-size="10.00">::getAabb</text>
</a>
</g>
</g>
<!-- Node1&#45;&gt;Node2 -->
<g id="edge1" class="edge"><title>Node1&#45;&gt;Node2</title>
<path fill="none" stroke="midnightblue" d="M137.208,-39.5C145.625,-39.5 154.214,-39.5 162.579,-39.5"/>
<polygon fill="midnightblue" stroke="midnightblue" points="162.646,-43.0001 172.646,-39.5 162.646,-36.0001 162.646,-43.0001"/>
</g>
<!-- Node3 -->
<g id="node3" class="node"><title>Node3</title>
<g id="a_node3"><a xlink:href="namespaceRa_1_1Core_1_1PointCloud.html#a28a01328c4602562cb1901d6cc618635" target="_top" xlink:title="Returns the axis&#45;aligned bounding box of a set of points. ">
<polygon fill="white" stroke="black" points="324.5,-49.5 324.5,-79.5 438.5,-79.5 438.5,-49.5 324.5,-49.5"/>
<text text-anchor="start" x="332.5" y="-67.5" font-family="Helvetica,sans-Serif" font-size="10.00">Ra::Core::PointCloud</text>
<text text-anchor="middle" x="381.5" y="-56.5" font-family="Helvetica,sans-Serif" font-size="10.00">::aabb</text>
</a>
</g>
</g>
<!-- Node2&#45;&gt;Node3 -->
<g id="edge2" class="edge"><title>Node2&#45;&gt;Node3</title>
<path fill="none" stroke="midnightblue" d="M283.267,-48.455C293.369,-50.1219 304.026,-51.8805 314.435,-53.5983"/>
<polygon fill="midnightblue" stroke="midnightblue" points="313.877,-57.0533 324.313,-55.2283 315.017,-50.1467 313.877,-57.0533"/>
</g>
<!-- Node5 -->
<g id="node5" class="node"><title>Node5</title>
<g id="a_node5"><a xlink:href="classRa_1_1Core_1_1TriangleMesh.html#a495116f40cfec8bb6504698d786d4b8c" target="_top" xlink:title="Access the vertices positions. ">
<polygon fill="white" stroke="black" points="319,-0.5 319,-30.5 444,-30.5 444,-0.5 319,-0.5"/>
<text text-anchor="start" x="327" y="-18.5" font-family="Helvetica,sans-Serif" font-size="10.00">Ra::Core::TriangleMesh</text>
<text text-anchor="middle" x="381.5" y="-7.5" font-family="Helvetica,sans-Serif" font-size="10.00">::vertices</text>
</a>
</g>
</g>
<!-- Node2&#45;&gt;Node5 -->
<g id="edge4" class="edge"><title>Node2&#45;&gt;Node5</title>
<path fill="none" stroke="midnightblue" d="M283.267,-30.9032C291.567,-29.5885 300.241,-28.2143 308.845,-26.8513"/>
<polygon fill="midnightblue" stroke="midnightblue" points="309.557,-30.2823 318.886,-25.2606 308.461,-23.3685 309.557,-30.2823"/>
</g>
<!-- Node4 -->
<g id="node4" class="node"><title>Node4</title>
<g id="a_node4"><a xlink:href="classRa_1_1Core_1_1VectorArray.html#a33438b558d38baf22e7975d26b5c61ca" target="_top" xlink:title="Returns the array as an Eigen Matrix Map. ">
<polygon fill="white" stroke="black" points="486,-49.5 486,-79.5 605,-79.5 605,-49.5 486,-49.5"/>
<text text-anchor="start" x="494" y="-67.5" font-family="Helvetica,sans-Serif" font-size="10.00">Ra::Core::VectorArray</text>
<text text-anchor="middle" x="545.5" y="-56.5" font-family="Helvetica,sans-Serif" font-size="10.00">::getMap</text>
</a>
</g>
</g>
<!-- Node3&#45;&gt;Node4 -->
<g id="edge3" class="edge"><title>Node3&#45;&gt;Node4</title>
<path fill="none" stroke="midnightblue" d="M438.705,-64.5C450.628,-64.5 463.344,-64.5 475.675,-64.5"/>
<polygon fill="midnightblue" stroke="midnightblue" points="475.917,-68.0001 485.917,-64.5 475.917,-61.0001 475.917,-68.0001"/>
</g>
<!-- Node6 -->
<g id="node6" class="node"><title>Node6</title>
<g id="a_node6"><a xlink:href="classRa_1_1Core_1_1AttribManager.html#aaa6088620425c1e1d74b50f1b50eb596" target="_top" xlink:title="Get attribute by handle. ">
<polygon fill="white" stroke="black" points="480,-0.5 480,-30.5 611,-30.5 611,-0.5 480,-0.5"/>
<text text-anchor="start" x="488" y="-18.5" font-family="Helvetica,sans-Serif" font-size="10.00">Ra::Core::AttribManager</text>
<text text-anchor="middle" x="545.5" y="-7.5" font-family="Helvetica,sans-Serif" font-size="10.00">::getAttrib</text>
</a>
</g>
</g>
<!-- Node5&#45;&gt;Node6 -->
<g id="edge5" class="edge"><title>Node5&#45;&gt;Node6</title>
<path fill="none" stroke="midnightblue" d="M444.207,-15.5C452.471,-15.5 461.02,-15.5 469.481,-15.5"/>
<polygon fill="midnightblue" stroke="midnightblue" points="469.733,-19.0001 479.733,-15.5 469.733,-12.0001 469.733,-19.0001"/>
</g>
</g>
</svg>
