<?xml version="1.0" encoding="UTF-8" standalone="no"?>
<!DOCTYPE svg PUBLIC "-//W3C//DTD SVG 1.1//EN"
 "http://www.w3.org/Graphics/SVG/1.1/DTD/svg11.dtd">
<!-- Generated by graphviz version 2.38.0 (20140413.2041)
 -->
<!-- Title: Ra::Gui::ScaleGizmo::selectConstraint Pages: 1 -->
<svg width="285pt" height="142pt"
 viewBox="0.00 0.00 285.00 142.00" xmlns="http://www.w3.org/2000/svg" xmlns:xlink="http://www.w3.org/1999/xlink">
<g id="graph0" class="graph" transform="scale(1 1) rotate(0) translate(4 138)">
<title>Ra::Gui::ScaleGizmo::selectConstraint</title>
<polygon fill="white" stroke="none" points="-4,4 -4,-138 281,-138 281,4 -4,4"/>
<!-- Node1 -->
<g id="node1" class="node"><title>Node1</title>
<polygon fill="#bfbfbf" stroke="black" points="0,-52 0,-82 113,-82 113,-52 0,-52"/>
<text text-anchor="start" x="8" y="-70" font-family="Helvetica,sans-Serif" font-size="10.00">Ra::Gui::ScaleGizmo</text>
<text text-anchor="middle" x="56.5" y="-59" font-family="Helvetica,sans-Serif" font-size="10.00">::selectConstraint</text>
</g>
<!-- Node2 -->
<g id="node2" class="node"><title>Node2</title>
<g id="a_node2"><a xlink:href="namespaceRa_1_1Core_1_1Colors.html#a5106b4a3ae9cf36ed9f57b733062346c" target="_top" xlink:title="Ra::Core::Colors::Red">
<polygon fill="white" stroke="black" points="155,-114.5 155,-133.5 271,-133.5 271,-114.5 155,-114.5"/>
<text text-anchor="middle" x="213" y="-121.5" font-family="Helvetica,sans-Serif" font-size="10.00">Ra::Core::Colors::Red</text>
</a>
</g>
</g>
<!-- Node1&#45;&gt;Node2 -->
<g id="edge1" class="edge"><title>Node1&#45;&gt;Node2</title>
<path fill="none" stroke="midnightblue" d="M91.5067,-82.0816C108.599,-89.4154 129.725,-98.1108 149,-105 155.142,-107.195 161.678,-109.356 168.126,-111.389"/>
<polygon fill="midnightblue" stroke="midnightblue" points="167.532,-114.868 178.119,-114.465 169.591,-108.178 167.532,-114.868"/>
</g>
<!-- Node3 -->
<g id="node3" class="node"><title>Node3</title>
<g id="a_node3"><a xlink:href="namespaceRa_1_1Core_1_1Colors.html#ac6dad1afb4fbb6af3fb605e380dfe34b" target="_top" xlink:title="Ra::Core::Colors::Green">
<polygon fill="white" stroke="black" points="149,-76.5 149,-95.5 277,-95.5 277,-76.5 149,-76.5"/>
<text text-anchor="middle" x="213" y="-83.5" font-family="Helvetica,sans-Serif" font-size="10.00">Ra::Core::Colors::Green</text>
</a>
</g>
</g>
<!-- Node1&#45;&gt;Node3 -->
<g id="edge2" class="edge"><title>Node1&#45;&gt;Node3</title>
<path fill="none" stroke="midnightblue" d="M113.278,-73.8594C121.603,-74.8832 130.289,-75.9514 138.906,-77.0111"/>
<polygon fill="midnightblue" stroke="midnightblue" points="138.611,-80.5012 148.964,-78.248 139.466,-73.5535 138.611,-80.5012"/>
</g>
<!-- Node4 -->
<g id="node4" class="node"><title>Node4</title>
<g id="a_node4"><a xlink:href="namespaceRa_1_1Core_1_1Colors.html#a749b34eb900efbaade04345f6eea99db" target="_top" xlink:title="Ra::Core::Colors::Blue">
<polygon fill="white" stroke="black" points="153,-38.5 153,-57.5 273,-57.5 273,-38.5 153,-38.5"/>
<text text-anchor="middle" x="213" y="-45.5" font-family="Helvetica,sans-Serif" font-size="10.00">Ra::Core::Colors::Blue</text>
</a>
</g>
</g>
<!-- Node1&#45;&gt;Node4 -->
<g id="edge3" class="edge"><title>Node1&#45;&gt;Node4</title>
<path fill="none" stroke="midnightblue" d="M113.278,-60.1406C122.837,-58.9651 132.871,-57.731 142.731,-56.5185"/>
<polygon fill="midnightblue" stroke="midnightblue" points="143.417,-59.9606 152.915,-55.2661 142.563,-53.0129 143.417,-59.9606"/>
</g>
<!-- Node5 -->
<g id="node5" class="node"><title>Node5</title>
<g id="a_node5"><a xlink:href="namespaceRa_1_1Core_1_1Colors.html#a975b73de86593a6e603f16f819b5acd1" target="_top" xlink:title="Ra::Core::Colors::Yellow">
<polygon fill="white" stroke="black" points="150,-0.5 150,-19.5 276,-19.5 276,-0.5 150,-0.5"/>
<text text-anchor="middle" x="213" y="-7.5" font-family="Helvetica,sans-Serif" font-size="10.00">Ra::Core::Colors::Yellow</text>
</a>
</g>
</g>
<!-- Node1&#45;&gt;Node5 -->
<g id="edge4" class="edge"><title>Node1&#45;&gt;Node5</title>
<path fill="none" stroke="midnightblue" d="M91.5067,-51.9184C108.599,-44.5846 129.725,-35.8892 149,-29 155.142,-26.8048 161.678,-24.6437 168.126,-22.6106"/>
<polygon fill="midnightblue" stroke="midnightblue" points="169.591,-25.8219 178.119,-19.5349 167.532,-19.1316 169.591,-25.8219"/>
</g>
</g>
</svg>
