<?xml version="1.0" encoding="UTF-8" standalone="no"?>
<!DOCTYPE svg PUBLIC "-//W3C//DTD SVG 1.1//EN"
 "http://www.w3.org/Graphics/SVG/1.1/DTD/svg11.dtd">
<!-- Generated by graphviz version 2.38.0 (20140413.2041)
 -->
<!-- Title: SkinningPlugin::SkinningPluginC::getAction Pages: 1 -->
<svg width="1434pt" height="480pt"
 viewBox="0.00 0.00 1434.00 480.00" xmlns="http://www.w3.org/2000/svg" xmlns:xlink="http://www.w3.org/1999/xlink">
<g id="graph0" class="graph" transform="scale(1 1) rotate(0) translate(4 476)">
<title>SkinningPlugin::SkinningPluginC::getAction</title>
<polygon fill="white" stroke="none" points="-4,4 -4,-476 1430,-476 1430,4 -4,4"/>
<!-- Node1 -->
<g id="node1" class="node"><title>Node1</title>
<polygon fill="#bfbfbf" stroke="black" points="0,-342.5 0,-372.5 132,-372.5 132,-342.5 0,-342.5"/>
<text text-anchor="start" x="8" y="-360.5" font-family="Helvetica,sans-Serif" font-size="10.00">SkinningPlugin::Skinning</text>
<text text-anchor="middle" x="66" y="-349.5" font-family="Helvetica,sans-Serif" font-size="10.00">PluginC::getAction</text>
</g>
<!-- Node2 -->
<g id="node2" class="node"><title>Node2</title>
<g id="a_node2"><a xlink:href="classRa_1_1GuiBase_1_1SelectionManager.html#a29cbd250208f1e18d2ab1e0f4d91105d" target="_top" xlink:title="Return the current selected item, or an invalid entry if there is no current item. ">
<polygon fill="white" stroke="black" points="168,-391.5 168,-421.5 335,-421.5 335,-391.5 168,-391.5"/>
<text text-anchor="start" x="176" y="-409.5" font-family="Helvetica,sans-Serif" font-size="10.00">Ra::GuiBase::SelectionManager</text>
<text text-anchor="middle" x="251.5" y="-398.5" font-family="Helvetica,sans-Serif" font-size="10.00">::currentItem</text>
</a>
</g>
</g>
<!-- Node1&#45;&gt;Node2 -->
<g id="edge1" class="edge"><title>Node1&#45;&gt;Node2</title>
<path fill="none" stroke="midnightblue" d="M123.303,-372.535C142.678,-377.708 164.545,-383.548 184.614,-388.907"/>
<polygon fill="midnightblue" stroke="midnightblue" points="183.739,-392.295 194.303,-391.494 185.545,-385.532 183.739,-392.295"/>
</g>
<!-- Node7 -->
<g id="node7" class="node"><title>Node7</title>
<g id="a_node7"><a xlink:href="classRa_1_1Engine_1_1System.html#aafa5a9505889509fc498bfe61344199e" target="_top" xlink:title="Returns the components stored for the given entity. ">
<polygon fill="white" stroke="black" points="188,-342.5 188,-372.5 315,-372.5 315,-342.5 188,-342.5"/>
<text text-anchor="start" x="196" y="-360.5" font-family="Helvetica,sans-Serif" font-size="10.00">Ra::Engine::System</text>
<text text-anchor="middle" x="251.5" y="-349.5" font-family="Helvetica,sans-Serif" font-size="10.00">::getEntityComponents</text>
</a>
</g>
</g>
<!-- Node1&#45;&gt;Node7 -->
<g id="edge6" class="edge"><title>Node1&#45;&gt;Node7</title>
<path fill="none" stroke="midnightblue" d="M132.212,-357.5C146.943,-357.5 162.673,-357.5 177.694,-357.5"/>
<polygon fill="midnightblue" stroke="midnightblue" points="177.959,-361 187.959,-357.5 177.959,-354 177.959,-361"/>
</g>
<!-- Node8 -->
<g id="node8" class="node"><title>Node8</title>
<g id="a_node8"><a xlink:href="classSkinningPlugin_1_1SkinningWidget.html#a82b3a8d0f4cbc8dbf049283174caaf6e" target="_top" xlink:title="SkinningPlugin::Skinning\lWidget::setCurrent">
<polygon fill="white" stroke="black" points="185.5,-293.5 185.5,-323.5 317.5,-323.5 317.5,-293.5 185.5,-293.5"/>
<text text-anchor="start" x="193.5" y="-311.5" font-family="Helvetica,sans-Serif" font-size="10.00">SkinningPlugin::Skinning</text>
<text text-anchor="middle" x="251.5" y="-300.5" font-family="Helvetica,sans-Serif" font-size="10.00">Widget::setCurrent</text>
</a>
</g>
</g>
<!-- Node1&#45;&gt;Node8 -->
<g id="edge7" class="edge"><title>Node1&#45;&gt;Node8</title>
<path fill="none" stroke="midnightblue" d="M123.303,-342.465C142.678,-337.292 164.545,-331.452 184.614,-326.093"/>
<polygon fill="midnightblue" stroke="midnightblue" points="185.545,-329.468 194.303,-323.506 183.739,-322.705 185.545,-329.468"/>
</g>
<!-- Node3 -->
<g id="node3" class="node"><title>Node3</title>
<g id="a_node3"><a xlink:href="classRa_1_1GuiBase_1_1SelectionManager.html#aec178a6b3de1c04e5e1d16ff72c6e966" target="_top" xlink:title="Ra::GuiBase::SelectionManager\l::itemModel">
<polygon fill="white" stroke="black" points="371,-416.5 371,-446.5 538,-446.5 538,-416.5 371,-416.5"/>
<text text-anchor="start" x="379" y="-434.5" font-family="Helvetica,sans-Serif" font-size="10.00">Ra::GuiBase::SelectionManager</text>
<text text-anchor="middle" x="454.5" y="-423.5" font-family="Helvetica,sans-Serif" font-size="10.00">::itemModel</text>
</a>
</g>
</g>
<!-- Node2&#45;&gt;Node3 -->
<g id="edge2" class="edge"><title>Node2&#45;&gt;Node3</title>
<path fill="none" stroke="midnightblue" d="M335.125,-416.777C343.607,-417.832 352.266,-418.909 360.848,-419.976"/>
<polygon fill="midnightblue" stroke="midnightblue" points="360.516,-423.462 370.872,-421.223 361.38,-416.515 360.516,-423.462"/>
</g>
<!-- Node4 -->
<g id="node4" class="node"><title>Node4</title>
<g id="a_node4"><a xlink:href="classRa_1_1GuiBase_1_1ItemModel.html#a3236433d461ad6cac5e9390b2685fa3f" target="_top" xlink:title="Returns the entry corresponding to a given index or an invalid entry if the index doesn&#39;t match any e...">
<polygon fill="white" stroke="black" points="389,-367.5 389,-397.5 520,-397.5 520,-367.5 389,-367.5"/>
<text text-anchor="start" x="397" y="-385.5" font-family="Helvetica,sans-Serif" font-size="10.00">Ra::GuiBase::ItemModel</text>
<text text-anchor="middle" x="454.5" y="-374.5" font-family="Helvetica,sans-Serif" font-size="10.00">::getEntry</text>
</a>
</g>
</g>
<!-- Node2&#45;&gt;Node4 -->
<g id="edge3" class="edge"><title>Node2&#45;&gt;Node4</title>
<path fill="none" stroke="midnightblue" d="M335.125,-396.634C349.501,-394.918 364.382,-393.141 378.538,-391.451"/>
<polygon fill="midnightblue" stroke="midnightblue" points="379.187,-394.898 388.701,-390.237 378.357,-387.948 379.187,-394.898"/>
</g>
<!-- Node5 -->
<g id="node5" class="node"><title>Node5</title>
<g id="a_node5"><a xlink:href="classRa_1_1GuiBase_1_1TreeModel.html#a5aa24ace72c1c3d29e268cb34dc576f2" target="_top" xlink:title="Get the tree item corresponding to the given index. ">
<polygon fill="white" stroke="black" points="593.5,-367.5 593.5,-397.5 721.5,-397.5 721.5,-367.5 593.5,-367.5"/>
<text text-anchor="start" x="601.5" y="-385.5" font-family="Helvetica,sans-Serif" font-size="10.00">Ra::GuiBase::TreeModel</text>
<text text-anchor="middle" x="657.5" y="-374.5" font-family="Helvetica,sans-Serif" font-size="10.00">::getItem</text>
</a>
</g>
</g>
<!-- Node4&#45;&gt;Node5 -->
<g id="edge4" class="edge"><title>Node4&#45;&gt;Node5</title>
<path fill="none" stroke="midnightblue" d="M520.204,-382.5C540.232,-382.5 562.442,-382.5 583.019,-382.5"/>
<polygon fill="midnightblue" stroke="midnightblue" points="583.29,-386 593.29,-382.5 583.29,-379 583.29,-386"/>
</g>
<!-- Node6 -->
<g id="node6" class="node"><title>Node6</title>
<g id="a_node6"><a xlink:href="classRa_1_1GuiBase_1_1TreeModel.html#a972106921da4c960f23f81722d3b4cf5" target="_top" xlink:title="Internal functions to check if an item is in the tree. ">
<polygon fill="white" stroke="black" points="777,-367.5 777,-397.5 905,-397.5 905,-367.5 777,-367.5"/>
<text text-anchor="start" x="785" y="-385.5" font-family="Helvetica,sans-Serif" font-size="10.00">Ra::GuiBase::TreeModel</text>
<text text-anchor="middle" x="841" y="-374.5" font-family="Helvetica,sans-Serif" font-size="10.00">::findInTree</text>
</a>
</g>
</g>
<!-- Node5&#45;&gt;Node6 -->
<g id="edge5" class="edge"><title>Node5&#45;&gt;Node6</title>
<path fill="none" stroke="midnightblue" d="M721.725,-382.5C736.189,-382.5 751.682,-382.5 766.535,-382.5"/>
<polygon fill="midnightblue" stroke="midnightblue" points="766.694,-386 776.694,-382.5 766.694,-379 766.694,-386"/>
</g>
<!-- Node9 -->
<g id="node9" class="node"><title>Node9</title>
<g id="a_node9"><a xlink:href="classSkinningPlugin_1_1SkinningComponent.html#a412042af255abac6143f258152167a44" target="_top" xlink:title="SkinningPlugin::Skinning\lComponent::getSkinningType">
<polygon fill="white" stroke="black" points="376.5,-318.5 376.5,-348.5 532.5,-348.5 532.5,-318.5 376.5,-318.5"/>
<text text-anchor="start" x="384.5" y="-336.5" font-family="Helvetica,sans-Serif" font-size="10.00">SkinningPlugin::Skinning</text>
<text text-anchor="middle" x="454.5" y="-325.5" font-family="Helvetica,sans-Serif" font-size="10.00">Component::getSkinningType</text>
</a>
</g>
</g>
<!-- Node8&#45;&gt;Node9 -->
<g id="edge8" class="edge"><title>Node8&#45;&gt;Node9</title>
<path fill="none" stroke="midnightblue" d="M317.759,-316.617C333.232,-318.541 349.982,-320.625 366.259,-322.649"/>
<polygon fill="midnightblue" stroke="midnightblue" points="365.961,-326.139 376.317,-323.9 366.825,-319.193 365.961,-326.139"/>
</g>
<!-- Node10 -->
<g id="node10" class="node"><title>Node10</title>
<g id="a_node10"><a xlink:href="classSkinningPlugin_1_1SkinningComponent.html#a9da330b1356de267daf5ac3ba1400d22" target="_top" xlink:title="Sets the Skinning method to use. ">
<polygon fill="white" stroke="black" points="377,-269.5 377,-299.5 532,-299.5 532,-269.5 377,-269.5"/>
<text text-anchor="start" x="385" y="-287.5" font-family="Helvetica,sans-Serif" font-size="10.00">SkinningPlugin::Skinning</text>
<text text-anchor="middle" x="454.5" y="-276.5" font-family="Helvetica,sans-Serif" font-size="10.00">Component::setSkinningType</text>
</a>
</g>
</g>
<!-- Node8&#45;&gt;Node10 -->
<g id="edge9" class="edge"><title>Node8&#45;&gt;Node10</title>
<path fill="none" stroke="midnightblue" d="M317.759,-300.708C333.327,-298.849 350.187,-296.836 366.558,-294.881"/>
<polygon fill="midnightblue" stroke="midnightblue" points="367.158,-298.334 376.673,-293.673 366.328,-291.384 367.158,-298.334"/>
</g>
<!-- Node11 -->
<g id="node11" class="node"><title>Node11</title>
<g id="a_node11"><a xlink:href="classSkinningPlugin_1_1SkinningComponent.html#a0ba759710b12a03a59faca912566d328" target="_top" xlink:title="Computes internal data related to the Skinning method. ">
<polygon fill="white" stroke="black" points="574,-269.5 574,-299.5 741,-299.5 741,-269.5 574,-269.5"/>
<text text-anchor="start" x="582" y="-287.5" font-family="Helvetica,sans-Serif" font-size="10.00">SkinningPlugin::Skinning</text>
<text text-anchor="middle" x="657.5" y="-276.5" font-family="Helvetica,sans-Serif" font-size="10.00">Component::setupSkinningType</text>
</a>
</g>
</g>
<!-- Node10&#45;&gt;Node11 -->
<g id="edge10" class="edge"><title>Node10&#45;&gt;Node11</title>
<path fill="none" stroke="midnightblue" d="M532.063,-284.5C542.404,-284.5 553.104,-284.5 563.69,-284.5"/>
<polygon fill="midnightblue" stroke="midnightblue" points="563.788,-288 573.788,-284.5 563.788,-281 563.788,-288"/>
</g>
<!-- Node12 -->
<g id="node12" class="node"><title>Node12</title>
<g id="a_node12"><a xlink:href="namespaceRa_1_1Core_1_1Animation.html#a40700cdabdd47fdb360f6bbfe692b36d" target="_top" xlink:title="Compute the optimal center of rotations (1 per vertex) based on weight similarity. ">
<polygon fill="white" stroke="black" points="785,-269.5 785,-299.5 897,-299.5 897,-269.5 785,-269.5"/>
<text text-anchor="start" x="793" y="-287.5" font-family="Helvetica,sans-Serif" font-size="10.00">Ra::Core::Animation</text>
<text text-anchor="middle" x="841" y="-276.5" font-family="Helvetica,sans-Serif" font-size="10.00">::computeCoR</text>
</a>
</g>
</g>
<!-- Node11&#45;&gt;Node12 -->
<g id="edge11" class="edge"><title>Node11&#45;&gt;Node12</title>
<path fill="none" stroke="midnightblue" d="M741.018,-284.5C752.302,-284.5 763.756,-284.5 774.676,-284.5"/>
<polygon fill="midnightblue" stroke="midnightblue" points="774.96,-288 784.959,-284.5 774.959,-281 774.96,-288"/>
</g>
<!-- Node13 -->
<g id="node13" class="node"><title>Node13</title>
<g id="a_node13"><a xlink:href="classRa_1_1Core_1_1TriangleMesh.html#a21ae39474fd85af3bfbcceb34e29d8ad" target="_top" xlink:title="Copy only the mesh faces and geometry. ">
<polygon fill="white" stroke="black" points="943,-392.5 943,-422.5 1068,-422.5 1068,-392.5 943,-392.5"/>
<text text-anchor="start" x="951" y="-410.5" font-family="Helvetica,sans-Serif" font-size="10.00">Ra::Core::TriangleMesh</text>
<text text-anchor="middle" x="1005.5" y="-399.5" font-family="Helvetica,sans-Serif" font-size="10.00">::copyBaseGeometry</text>
</a>
</g>
</g>
<!-- Node12&#45;&gt;Node13 -->
<g id="edge12" class="edge"><title>Node12&#45;&gt;Node13</title>
<path fill="none" stroke="midnightblue" d="M855.138,-299.805C872.985,-319.885 906.627,-355.288 941,-378.5 945.954,-381.846 951.357,-384.979 956.852,-387.857"/>
<polygon fill="midnightblue" stroke="midnightblue" points="955.608,-391.147 966.122,-392.453 958.717,-384.875 955.608,-391.147"/>
</g>
<!-- Node17 -->
<g id="node17" class="node"><title>Node17</title>
<g id="a_node17"><a xlink:href="classRa_1_1Core_1_1TriangleMesh.html#a495116f40cfec8bb6504698d786d4b8c" target="_top" xlink:title="Access the vertices positions. ">
<polygon fill="white" stroke="black" points="943,-338.5 943,-368.5 1068,-368.5 1068,-338.5 943,-338.5"/>
<text text-anchor="start" x="951" y="-356.5" font-family="Helvetica,sans-Serif" font-size="10.00">Ra::Core::TriangleMesh</text>
<text text-anchor="middle" x="1005.5" y="-345.5" font-family="Helvetica,sans-Serif" font-size="10.00">::vertices</text>
</a>
</g>
</g>
<!-- Node12&#45;&gt;Node17 -->
<g id="edge16" class="edge"><title>Node12&#45;&gt;Node17</title>
<path fill="none" stroke="midnightblue" d="M877.661,-299.642C901.792,-309.888 933.854,-323.503 959.705,-334.479"/>
<polygon fill="midnightblue" stroke="midnightblue" points="958.349,-337.706 968.922,-338.393 961.085,-331.263 958.349,-337.706"/>
</g>
<!-- Node19 -->
<g id="node19" class="node"><title>Node19</title>
<g id="a_node19"><a xlink:href="classRa_1_1Core_1_1TopologicalMesh.html#a94c32854d7aa51edc42d5d1dd70856f3" target="_top" xlink:title="Return the half&#45;edge associated with a given vertex and face. ">
<polygon fill="white" stroke="black" points="1107.5,-294.5 1107.5,-324.5 1247.5,-324.5 1247.5,-294.5 1107.5,-294.5"/>
<text text-anchor="start" x="1115.5" y="-312.5" font-family="Helvetica,sans-Serif" font-size="10.00">Ra::Core::TopologicalMesh</text>
<text text-anchor="middle" x="1177.5" y="-301.5" font-family="Helvetica,sans-Serif" font-size="10.00">::halfedge_handle</text>
</a>
</g>
</g>
<!-- Node12&#45;&gt;Node19 -->
<g id="edge18" class="edge"><title>Node12&#45;&gt;Node19</title>
<path fill="none" stroke="midnightblue" d="M897.236,-288.628C951.726,-292.701 1035.58,-298.968 1097.18,-303.572"/>
<polygon fill="midnightblue" stroke="midnightblue" points="1097.02,-307.07 1107.25,-304.325 1097.54,-300.089 1097.02,-307.07"/>
</g>
<!-- Node20 -->
<g id="node20" class="node"><title>Node20</title>
<g id="a_node20"><a xlink:href="classRa_1_1Core_1_1TMOperations.html#aeaa56702c9396dd93a0748e9a8a54b36" target="_top" xlink:title="Apply a 2&#45;4 edge split. ">
<polygon fill="white" stroke="black" points="941,-245.5 941,-275.5 1070,-275.5 1070,-245.5 941,-245.5"/>
<text text-anchor="start" x="949" y="-263.5" font-family="Helvetica,sans-Serif" font-size="10.00">Ra::Core::TMOperations</text>
<text text-anchor="middle" x="1005.5" y="-252.5" font-family="Helvetica,sans-Serif" font-size="10.00">::splitEdge</text>
</a>
</g>
</g>
<!-- Node12&#45;&gt;Node20 -->
<g id="edge19" class="edge"><title>Node12&#45;&gt;Node20</title>
<path fill="none" stroke="midnightblue" d="M897.015,-276.375C907.911,-274.765 919.512,-273.052 930.91,-271.369"/>
<polygon fill="midnightblue" stroke="midnightblue" points="931.47,-274.824 940.851,-269.9 930.447,-267.899 931.47,-274.824"/>
</g>
<!-- Node32 -->
<g id="node32" class="node"><title>Node32</title>
<g id="a_node32"><a xlink:href="namespaceRa_1_1Core_1_1Geometry.html#a178f2b7309fe2ea5bc31a3abcb25368e" target="_top" xlink:title="Ra::Core::Geometry\l::triangleArea">
<polygon fill="white" stroke="black" points="950,-150.5 950,-180.5 1061,-180.5 1061,-150.5 950,-150.5"/>
<text text-anchor="start" x="958" y="-168.5" font-family="Helvetica,sans-Serif" font-size="10.00">Ra::Core::Geometry</text>
<text text-anchor="middle" x="1005.5" y="-157.5" font-family="Helvetica,sans-Serif" font-size="10.00">::triangleArea</text>
</a>
</g>
</g>
<!-- Node12&#45;&gt;Node32 -->
<g id="edge36" class="edge"><title>Node12&#45;&gt;Node32</title>
<path fill="none" stroke="midnightblue" d="M862.581,-269.429C891.196,-248.474 943.136,-210.437 975.619,-186.65"/>
<polygon fill="midnightblue" stroke="midnightblue" points="977.83,-189.369 983.83,-180.637 973.694,-183.721 977.83,-189.369"/>
</g>
<!-- Node35 -->
<g id="node35" class="node"><title>Node35</title>
<g id="a_node35"><a xlink:href="namespaceRa_1_1Core_1_1Animation.html#a71236244c5603a8a5bc63595db9b7717" target="_top" xlink:title="Computes the similarity between two weights vector. ">
<polygon fill="white" stroke="black" points="949.5,-101.5 949.5,-131.5 1061.5,-131.5 1061.5,-101.5 949.5,-101.5"/>
<text text-anchor="start" x="957.5" y="-119.5" font-family="Helvetica,sans-Serif" font-size="10.00">Ra::Core::Animation</text>
<text text-anchor="middle" x="1005.5" y="-108.5" font-family="Helvetica,sans-Serif" font-size="10.00">::weightSimilarity</text>
</a>
</g>
</g>
<!-- Node12&#45;&gt;Node35 -->
<g id="edge39" class="edge"><title>Node12&#45;&gt;Node35</title>
<path fill="none" stroke="midnightblue" d="M848.664,-269.193C862.052,-240.127 894.921,-176.627 941,-140.5 942.771,-139.112 944.631,-137.797 946.557,-136.552"/>
<polygon fill="midnightblue" stroke="midnightblue" points="948.399,-139.531 955.351,-131.536 944.931,-133.45 948.399,-139.531"/>
</g>
<!-- Node14 -->
<g id="node14" class="node"><title>Node14</title>
<g id="a_node14"><a xlink:href="classRa_1_1Core_1_1TriangleMesh.html#aa838b995226a922fc10f2f8f4c6dec31" target="_top" xlink:title="Erases all data, making the mesh empty. ">
<polygon fill="white" stroke="black" points="1115,-392.5 1115,-422.5 1240,-422.5 1240,-392.5 1115,-392.5"/>
<text text-anchor="start" x="1123" y="-410.5" font-family="Helvetica,sans-Serif" font-size="10.00">Ra::Core::TriangleMesh</text>
<text text-anchor="middle" x="1177.5" y="-399.5" font-family="Helvetica,sans-Serif" font-size="10.00">::clear</text>
</a>
</g>
</g>
<!-- Node13&#45;&gt;Node14 -->
<g id="edge13" class="edge"><title>Node13&#45;&gt;Node14</title>
<path fill="none" stroke="midnightblue" d="M1068.35,-407.5C1080.22,-407.5 1092.74,-407.5 1104.88,-407.5"/>
<polygon fill="midnightblue" stroke="midnightblue" points="1104.98,-411 1114.98,-407.5 1104.98,-404 1104.98,-411"/>
</g>
<!-- Node16 -->
<g id="node16" class="node"><title>Node16</title>
<g id="a_node16"><a xlink:href="classRa_1_1Core_1_1AttribManager.html#ab973dc08cbca7da7108c40bb56c4a708" target="_top" xlink:title="Base copy, does nothing. ">
<polygon fill="white" stroke="black" points="1112,-441.5 1112,-471.5 1243,-471.5 1243,-441.5 1112,-441.5"/>
<text text-anchor="start" x="1120" y="-459.5" font-family="Helvetica,sans-Serif" font-size="10.00">Ra::Core::AttribManager</text>
<text text-anchor="middle" x="1177.5" y="-448.5" font-family="Helvetica,sans-Serif" font-size="10.00">::copyAttributes</text>
</a>
</g>
</g>
<!-- Node13&#45;&gt;Node16 -->
<g id="edge15" class="edge"><title>Node13&#45;&gt;Node16</title>
<path fill="none" stroke="midnightblue" d="M1058.89,-422.601C1076.51,-427.679 1096.32,-433.39 1114.6,-438.658"/>
<polygon fill="midnightblue" stroke="midnightblue" points="1113.7,-442.042 1124.28,-441.448 1115.64,-435.316 1113.7,-442.042"/>
</g>
<!-- Node15 -->
<g id="node15" class="node"><title>Node15</title>
<g id="a_node15"><a xlink:href="classRa_1_1Core_1_1AttribManager.html#ae53b7e22a2098c6151c6b2702569a3be" target="_top" xlink:title="clear all attribs, invalidate handles. ">
<polygon fill="white" stroke="black" points="1290,-392.5 1290,-422.5 1421,-422.5 1421,-392.5 1290,-392.5"/>
<text text-anchor="start" x="1298" y="-410.5" font-family="Helvetica,sans-Serif" font-size="10.00">Ra::Core::AttribManager</text>
<text text-anchor="middle" x="1355.5" y="-399.5" font-family="Helvetica,sans-Serif" font-size="10.00">::clear</text>
</a>
</g>
</g>
<!-- Node14&#45;&gt;Node15 -->
<g id="edge14" class="edge"><title>Node14&#45;&gt;Node15</title>
<path fill="none" stroke="midnightblue" d="M1240.06,-407.5C1252.93,-407.5 1266.64,-407.5 1279.93,-407.5"/>
<polygon fill="midnightblue" stroke="midnightblue" points="1279.99,-411 1289.99,-407.5 1279.99,-404 1279.99,-411"/>
</g>
<!-- Node18 -->
<g id="node18" class="node"><title>Node18</title>
<g id="a_node18"><a xlink:href="classRa_1_1Core_1_1AttribManager.html#aaa6088620425c1e1d74b50f1b50eb596" target="_top" xlink:title="Get attribute by handle. ">
<polygon fill="white" stroke="black" points="1112,-343.5 1112,-373.5 1243,-373.5 1243,-343.5 1112,-343.5"/>
<text text-anchor="start" x="1120" y="-361.5" font-family="Helvetica,sans-Serif" font-size="10.00">Ra::Core::AttribManager</text>
<text text-anchor="middle" x="1177.5" y="-350.5" font-family="Helvetica,sans-Serif" font-size="10.00">::getAttrib</text>
</a>
</g>
</g>
<!-- Node17&#45;&gt;Node18 -->
<g id="edge17" class="edge"><title>Node17&#45;&gt;Node18</title>
<path fill="none" stroke="midnightblue" d="M1068.35,-355.319C1079.18,-355.638 1090.56,-355.972 1101.69,-356.3"/>
<polygon fill="midnightblue" stroke="midnightblue" points="1101.73,-359.802 1111.83,-356.598 1101.94,-352.805 1101.73,-359.802"/>
</g>
<!-- Node20&#45;&gt;Node19 -->
<g id="edge21" class="edge"><title>Node20&#45;&gt;Node19</title>
<path fill="none" stroke="midnightblue" d="M1058.89,-275.601C1076.51,-280.679 1096.32,-286.39 1114.6,-291.658"/>
<polygon fill="midnightblue" stroke="midnightblue" points="1113.7,-295.042 1124.28,-294.448 1115.64,-288.316 1113.7,-295.042"/>
</g>
<!-- Node21 -->
<g id="node21" class="node"><title>Node21</title>
<g id="a_node21"><a xlink:href="namespaceRa_1_1Engine_1_1DrawPrimitives.html#a2eff9774611ef4e9cdfb2ac969182123" target="_top" xlink:title="Displays given point shown as the crossing of 3 lines of length &#39;scale&#39;. ">
<polygon fill="white" stroke="black" points="1106,-245.5 1106,-275.5 1249,-275.5 1249,-245.5 1106,-245.5"/>
<text text-anchor="start" x="1114" y="-263.5" font-family="Helvetica,sans-Serif" font-size="10.00">Ra::Engine::DrawPrimitives</text>
<text text-anchor="middle" x="1177.5" y="-252.5" font-family="Helvetica,sans-Serif" font-size="10.00">::Point</text>
</a>
</g>
</g>
<!-- Node20&#45;&gt;Node21 -->
<g id="edge20" class="edge"><title>Node20&#45;&gt;Node21</title>
<path fill="none" stroke="midnightblue" d="M1070.29,-260.5C1078.61,-260.5 1087.23,-260.5 1095.8,-260.5"/>
<polygon fill="midnightblue" stroke="midnightblue" points="1095.8,-264 1105.8,-260.5 1095.8,-257 1095.8,-264"/>
</g>
<!-- Node22 -->
<g id="node22" class="node"><title>Node22</title>
<g id="a_node22"><a xlink:href="classRa_1_1Core_1_1TopologicalMesh.html#a42aa050397dd07b26bed2b35f3748246" target="_top" xlink:title="Interpolate all properties on edge center (after edge split). ">
<polygon fill="white" stroke="black" points="1107.5,-196.5 1107.5,-226.5 1247.5,-226.5 1247.5,-196.5 1107.5,-196.5"/>
<text text-anchor="start" x="1115.5" y="-214.5" font-family="Helvetica,sans-Serif" font-size="10.00">Ra::Core::TopologicalMesh</text>
<text text-anchor="middle" x="1177.5" y="-203.5" font-family="Helvetica,sans-Serif" font-size="10.00">::interpolateAllProps</text>
</a>
</g>
</g>
<!-- Node20&#45;&gt;Node22 -->
<g id="edge22" class="edge"><title>Node20&#45;&gt;Node22</title>
<path fill="none" stroke="midnightblue" d="M1058.89,-245.399C1076.51,-240.321 1096.32,-234.61 1114.6,-229.342"/>
<polygon fill="midnightblue" stroke="midnightblue" points="1115.64,-232.684 1124.28,-226.552 1113.7,-225.958 1115.64,-232.684"/>
</g>
<!-- Node29 -->
<g id="node29" class="node"><title>Node29</title>
<g id="a_node29"><a xlink:href="classRa_1_1Core_1_1TopologicalMesh.html#ab8adf0e20463e4e4a4eb1b4624eb5b40" target="_top" xlink:title="Copy all properties from input_heh to copy_heh. ">
<polygon fill="white" stroke="black" points="1107.5,-147.5 1107.5,-177.5 1247.5,-177.5 1247.5,-147.5 1107.5,-147.5"/>
<text text-anchor="start" x="1115.5" y="-165.5" font-family="Helvetica,sans-Serif" font-size="10.00">Ra::Core::TopologicalMesh</text>
<text text-anchor="middle" x="1177.5" y="-154.5" font-family="Helvetica,sans-Serif" font-size="10.00">::copyAllProps</text>
</a>
</g>
</g>
<!-- Node20&#45;&gt;Node29 -->
<g id="edge29" class="edge"><title>Node20&#45;&gt;Node29</title>
<path fill="none" stroke="midnightblue" d="M1023.36,-245.359C1042.31,-228.987 1074.56,-203.022 1106,-186.5 1109.44,-184.691 1113.05,-182.976 1116.73,-181.358"/>
<polygon fill="midnightblue" stroke="midnightblue" points="1118.09,-184.582 1126.01,-177.535 1115.43,-178.111 1118.09,-184.582"/>
</g>
<!-- Node23 -->
<g id="node23" class="node"><title>Node23</title>
<g id="a_node23"><a xlink:href="classRa_1_1Core_1_1TopologicalMesh.html#ada6b93df0b80c67c28eec20876a14eab" target="_top" xlink:title="Interpolate normal property on edge center (after edge split). ">
<polygon fill="white" stroke="black" points="1285.5,-294.5 1285.5,-324.5 1425.5,-324.5 1425.5,-294.5 1285.5,-294.5"/>
<text text-anchor="start" x="1293.5" y="-312.5" font-family="Helvetica,sans-Serif" font-size="10.00">Ra::Core::TopologicalMesh</text>
<text text-anchor="middle" x="1355.5" y="-301.5" font-family="Helvetica,sans-Serif" font-size="10.00">::interpolateNormal</text>
</a>
</g>
</g>
<!-- Node22&#45;&gt;Node23 -->
<g id="edge23" class="edge"><title>Node22&#45;&gt;Node23</title>
<path fill="none" stroke="midnightblue" d="M1233.67,-226.525C1239.09,-229.088 1244.31,-232.06 1249,-235.5 1270.79,-251.478 1263.34,-268.335 1285,-284.5 1287.49,-286.358 1290.13,-288.088 1292.87,-289.697"/>
<polygon fill="midnightblue" stroke="midnightblue" points="1291.42,-292.889 1301.9,-294.439 1294.67,-286.691 1291.42,-292.889"/>
</g>
<!-- Node24 -->
<g id="node24" class="node"><title>Node24</title>
<g id="a_node24"><a xlink:href="classRa_1_1Core_1_1TopologicalMesh.html#ace05f7289e356f433519904221ea94be" target="_top" xlink:title="Interpolate props on edge center (after edge split). ">
<polygon fill="white" stroke="black" points="1285.5,-343.5 1285.5,-373.5 1425.5,-373.5 1425.5,-343.5 1285.5,-343.5"/>
<text text-anchor="start" x="1293.5" y="-361.5" font-family="Helvetica,sans-Serif" font-size="10.00">Ra::Core::TopologicalMesh</text>
<text text-anchor="middle" x="1355.5" y="-350.5" font-family="Helvetica,sans-Serif" font-size="10.00">::interpolateProps</text>
</a>
</g>
</g>
<!-- Node22&#45;&gt;Node24 -->
<g id="edge24" class="edge"><title>Node22&#45;&gt;Node24</title>
<path fill="none" stroke="midnightblue" d="M1237.15,-226.604C1241.46,-229.126 1245.48,-232.068 1249,-235.5 1282.2,-267.916 1252.08,-300.8 1285,-333.5 1286.47,-334.957 1288.02,-336.33 1289.66,-337.623"/>
<polygon fill="midnightblue" stroke="midnightblue" points="1288.09,-340.789 1298.35,-343.449 1291.99,-334.974 1288.09,-340.789"/>
</g>
<!-- Node25 -->
<g id="node25" class="node"><title>Node25</title>
<g id="a_node25"><a xlink:href="classRa_1_1Core_1_1TopologicalMesh.html#aa1016df75edb65e69fcdec5465e49245" target="_top" xlink:title="Ra::Core::TopologicalMesh\l::getFloatPropsHandles">
<polygon fill="white" stroke="black" points="1285.5,-196.5 1285.5,-226.5 1425.5,-226.5 1425.5,-196.5 1285.5,-196.5"/>
<text text-anchor="start" x="1293.5" y="-214.5" font-family="Helvetica,sans-Serif" font-size="10.00">Ra::Core::TopologicalMesh</text>
<text text-anchor="middle" x="1355.5" y="-203.5" font-family="Helvetica,sans-Serif" font-size="10.00">::getFloatPropsHandles</text>
</a>
</g>
</g>
<!-- Node22&#45;&gt;Node25 -->
<g id="edge25" class="edge"><title>Node22&#45;&gt;Node25</title>
<path fill="none" stroke="midnightblue" d="M1247.55,-211.5C1256.58,-211.5 1265.89,-211.5 1275.07,-211.5"/>
<polygon fill="midnightblue" stroke="midnightblue" points="1275.36,-215 1285.36,-211.5 1275.36,-208 1275.36,-215"/>
</g>
<!-- Node26 -->
<g id="node26" class="node"><title>Node26</title>
<g id="a_node26"><a xlink:href="classRa_1_1Core_1_1TopologicalMesh.html#acf1e58078add6e5cc9ce13b30fb3baf3" target="_top" xlink:title="Ra::Core::TopologicalMesh\l::getVector2PropsHandles">
<polygon fill="white" stroke="black" points="1285,-147.5 1285,-177.5 1426,-177.5 1426,-147.5 1285,-147.5"/>
<text text-anchor="start" x="1293" y="-165.5" font-family="Helvetica,sans-Serif" font-size="10.00">Ra::Core::TopologicalMesh</text>
<text text-anchor="middle" x="1355.5" y="-154.5" font-family="Helvetica,sans-Serif" font-size="10.00">::getVector2PropsHandles</text>
</a>
</g>
</g>
<!-- Node22&#45;&gt;Node26 -->
<g id="edge26" class="edge"><title>Node22&#45;&gt;Node26</title>
<path fill="none" stroke="midnightblue" d="M1232.74,-196.399C1251.06,-191.298 1271.68,-185.557 1290.67,-180.27"/>
<polygon fill="midnightblue" stroke="midnightblue" points="1291.74,-183.605 1300.44,-177.552 1289.86,-176.862 1291.74,-183.605"/>
</g>
<!-- Node27 -->
<g id="node27" class="node"><title>Node27</title>
<g id="a_node27"><a xlink:href="classRa_1_1Core_1_1TopologicalMesh.html#a6865aee84eb0d92f6acc12081bf8a6f8" target="_top" xlink:title="Ra::Core::TopologicalMesh\l::getVector3PropsHandles">
<polygon fill="white" stroke="black" points="1285,-98.5 1285,-128.5 1426,-128.5 1426,-98.5 1285,-98.5"/>
<text text-anchor="start" x="1293" y="-116.5" font-family="Helvetica,sans-Serif" font-size="10.00">Ra::Core::TopologicalMesh</text>
<text text-anchor="middle" x="1355.5" y="-105.5" font-family="Helvetica,sans-Serif" font-size="10.00">::getVector3PropsHandles</text>
</a>
</g>
</g>
<!-- Node22&#45;&gt;Node27 -->
<g id="edge27" class="edge"><title>Node22&#45;&gt;Node27</title>
<path fill="none" stroke="midnightblue" d="M1232.22,-196.341C1238.16,-193.553 1243.89,-190.295 1249,-186.5 1270.69,-170.384 1263.24,-153.526 1285,-137.5 1286.88,-136.116 1288.84,-134.807 1290.87,-133.57"/>
<polygon fill="midnightblue" stroke="midnightblue" points="1292.97,-136.417 1300.11,-128.593 1289.65,-130.254 1292.97,-136.417"/>
</g>
<!-- Node28 -->
<g id="node28" class="node"><title>Node28</title>
<g id="a_node28"><a xlink:href="classRa_1_1Core_1_1TopologicalMesh.html#a938483e7f6900eeb3914d662b9aac21c" target="_top" xlink:title="Ra::Core::TopologicalMesh\l::getVector4PropsHandles">
<polygon fill="white" stroke="black" points="1285,-245.5 1285,-275.5 1426,-275.5 1426,-245.5 1285,-245.5"/>
<text text-anchor="start" x="1293" y="-263.5" font-family="Helvetica,sans-Serif" font-size="10.00">Ra::Core::TopologicalMesh</text>
<text text-anchor="middle" x="1355.5" y="-252.5" font-family="Helvetica,sans-Serif" font-size="10.00">::getVector4PropsHandles</text>
</a>
</g>
</g>
<!-- Node22&#45;&gt;Node28 -->
<g id="edge28" class="edge"><title>Node22&#45;&gt;Node28</title>
<path fill="none" stroke="midnightblue" d="M1232.74,-226.601C1251.06,-231.702 1271.68,-237.443 1290.67,-242.73"/>
<polygon fill="midnightblue" stroke="midnightblue" points="1289.86,-246.138 1300.44,-245.448 1291.74,-239.395 1289.86,-246.138"/>
</g>
<!-- Node29&#45;&gt;Node25 -->
<g id="edge32" class="edge"><title>Node29&#45;&gt;Node25</title>
<path fill="none" stroke="midnightblue" d="M1232.74,-177.601C1251.06,-182.702 1271.68,-188.443 1290.67,-193.73"/>
<polygon fill="midnightblue" stroke="midnightblue" points="1289.86,-197.138 1300.44,-196.448 1291.74,-190.395 1289.86,-197.138"/>
</g>
<!-- Node29&#45;&gt;Node26 -->
<g id="edge33" class="edge"><title>Node29&#45;&gt;Node26</title>
<path fill="none" stroke="midnightblue" d="M1247.55,-162.5C1256.44,-162.5 1265.6,-162.5 1274.64,-162.5"/>
<polygon fill="midnightblue" stroke="midnightblue" points="1274.78,-166 1284.78,-162.5 1274.78,-159 1274.78,-166"/>
</g>
<!-- Node29&#45;&gt;Node27 -->
<g id="edge34" class="edge"><title>Node29&#45;&gt;Node27</title>
<path fill="none" stroke="midnightblue" d="M1232.74,-147.399C1251.06,-142.298 1271.68,-136.557 1290.67,-131.27"/>
<polygon fill="midnightblue" stroke="midnightblue" points="1291.74,-134.605 1300.44,-128.552 1289.86,-127.862 1291.74,-134.605"/>
</g>
<!-- Node29&#45;&gt;Node28 -->
<g id="edge35" class="edge"><title>Node29&#45;&gt;Node28</title>
<path fill="none" stroke="midnightblue" d="M1233.67,-177.525C1239.09,-180.088 1244.31,-183.06 1249,-186.5 1270.79,-202.478 1263.34,-219.335 1285,-235.5 1287.49,-237.358 1290.13,-239.088 1292.87,-240.697"/>
<polygon fill="midnightblue" stroke="midnightblue" points="1291.42,-243.889 1301.9,-245.439 1294.67,-237.691 1291.42,-243.889"/>
</g>
<!-- Node30 -->
<g id="node30" class="node"><title>Node30</title>
<g id="a_node30"><a xlink:href="classRa_1_1Core_1_1TopologicalMesh.html#afc2c2977da4b6cc4a76a044a580cfacf" target="_top" xlink:title="Copy the normal property from input_heh to copy_heh. ">
<polygon fill="white" stroke="black" points="1285.5,-0.5 1285.5,-30.5 1425.5,-30.5 1425.5,-0.5 1285.5,-0.5"/>
<text text-anchor="start" x="1293.5" y="-18.5" font-family="Helvetica,sans-Serif" font-size="10.00">Ra::Core::TopologicalMesh</text>
<text text-anchor="middle" x="1355.5" y="-7.5" font-family="Helvetica,sans-Serif" font-size="10.00">::copyNormal</text>
</a>
</g>
</g>
<!-- Node29&#45;&gt;Node30 -->
<g id="edge30" class="edge"><title>Node29&#45;&gt;Node30</title>
<path fill="none" stroke="midnightblue" d="M1235.8,-147.337C1240.62,-144.584 1245.12,-141.335 1249,-137.5 1282,-104.875 1251.87,-71.9886 1285,-39.5 1286.08,-38.4386 1287.21,-37.4241 1288.39,-36.4544"/>
<polygon fill="midnightblue" stroke="midnightblue" points="1290.47,-39.2698 1296.67,-30.6819 1286.47,-33.526 1290.47,-39.2698"/>
</g>
<!-- Node31 -->
<g id="node31" class="node"><title>Node31</title>
<g id="a_node31"><a xlink:href="classRa_1_1Core_1_1TopologicalMesh.html#a7550874ffae2f25bcf60826dc2ff948e" target="_top" xlink:title="Copy props properties from input_heh to copy_heh. ">
<polygon fill="white" stroke="black" points="1285.5,-49.5 1285.5,-79.5 1425.5,-79.5 1425.5,-49.5 1285.5,-49.5"/>
<text text-anchor="start" x="1293.5" y="-67.5" font-family="Helvetica,sans-Serif" font-size="10.00">Ra::Core::TopologicalMesh</text>
<text text-anchor="middle" x="1355.5" y="-56.5" font-family="Helvetica,sans-Serif" font-size="10.00">::copyProps</text>
</a>
</g>
</g>
<!-- Node29&#45;&gt;Node31 -->
<g id="edge31" class="edge"><title>Node29&#45;&gt;Node31</title>
<path fill="none" stroke="midnightblue" d="M1232.22,-147.341C1238.16,-144.553 1243.89,-141.295 1249,-137.5 1270.69,-121.384 1263.24,-104.526 1285,-88.5 1286.88,-87.1161 1288.84,-85.8074 1290.87,-84.5703"/>
<polygon fill="midnightblue" stroke="midnightblue" points="1292.97,-87.4168 1300.11,-79.5932 1289.65,-81.2539 1292.97,-87.4168"/>
</g>
<!-- Node33 -->
<g id="node33" class="node"><title>Node33</title>
<g id="a_node33"><a xlink:href="namespaceOpenMesh.html#a71e7f1dd3eac016d2b8245ac408a291c" target="_top" xlink:title="OpenMesh::cross">
<polygon fill="white" stroke="black" points="1128,-71 1128,-90 1227,-90 1227,-71 1128,-71"/>
<text text-anchor="middle" x="1177.5" y="-78" font-family="Helvetica,sans-Serif" font-size="10.00">OpenMesh::cross</text>
</a>
</g>
</g>
<!-- Node32&#45;&gt;Node33 -->
<g id="edge37" class="edge"><title>Node32&#45;&gt;Node33</title>
<path fill="none" stroke="midnightblue" d="M1052.61,-150.396C1058.7,-147.538 1064.67,-144.247 1070,-140.5 1089.84,-126.555 1085.41,-112.314 1106,-99.5 1109.86,-97.099 1114.02,-94.9979 1118.32,-93.1597"/>
<polygon fill="midnightblue" stroke="midnightblue" points="1119.78,-96.349 1127.9,-89.5414 1117.31,-89.8006 1119.78,-96.349"/>
</g>
<!-- Node34 -->
<g id="node34" class="node"><title>Node34</title>
<g id="a_node34"><a xlink:href="namespaceOpenMesh.html#a8205f789ce08919bc11c58383574596c" target="_top" xlink:title="OpenMesh::norm">
<polygon fill="white" stroke="black" points="1128,-109 1128,-128 1227,-128 1227,-109 1128,-109"/>
<text text-anchor="middle" x="1177.5" y="-116" font-family="Helvetica,sans-Serif" font-size="10.00">OpenMesh::norm</text>
</a>
</g>
</g>
<!-- Node32&#45;&gt;Node34 -->
<g id="edge38" class="edge"><title>Node32&#45;&gt;Node34</title>
<path fill="none" stroke="midnightblue" d="M1059.4,-150.497C1074.45,-146.26 1090.86,-141.67 1106,-137.5 1113.99,-135.298 1122.5,-132.981 1130.75,-130.752"/>
<polygon fill="midnightblue" stroke="midnightblue" points="1131.87,-134.074 1140.61,-128.089 1130.05,-127.315 1131.87,-134.074"/>
</g>
</g>
</svg>
