<?xml version="1.0" encoding="UTF-8" standalone="no"?>
<!DOCTYPE svg PUBLIC "-//W3C//DTD SVG 1.1//EN"
 "http://www.w3.org/Graphics/SVG/1.1/DTD/svg11.dtd">
<!-- Generated by graphviz version 2.38.0 (20140413.2041)
 -->
<!-- Title: AnimationPlugin::AnimationPluginC::getWidget Pages: 1 -->
<svg width="1590pt" height="676pt"
 viewBox="0.00 0.00 1590.00 676.00" xmlns="http://www.w3.org/2000/svg" xmlns:xlink="http://www.w3.org/1999/xlink">
<g id="graph0" class="graph" transform="scale(1 1) rotate(0) translate(4 672)">
<title>AnimationPlugin::AnimationPluginC::getWidget</title>
<polygon fill="white" stroke="none" points="-4,4 -4,-672 1586,-672 1586,4 -4,4"/>
<!-- Node1 -->
<g id="node1" class="node"><title>Node1</title>
<polygon fill="#bfbfbf" stroke="black" points="0,-344.5 0,-374.5 149,-374.5 149,-344.5 0,-344.5"/>
<text text-anchor="start" x="8" y="-362.5" font-family="Helvetica,sans-Serif" font-size="10.00">AnimationPlugin::Animation</text>
<text text-anchor="middle" x="74.5" y="-351.5" font-family="Helvetica,sans-Serif" font-size="10.00">PluginC::getWidget</text>
</g>
<!-- Node2 -->
<g id="node2" class="node"><title>Node2</title>
<g id="a_node2"><a xlink:href="classAnimationPlugin_1_1AnimationPluginC.html#a97ca430cba2863dc42ad9526ff6ac886" target="_top" xlink:title="Slot for the user activating xray display of bones. ">
<polygon fill="white" stroke="black" points="201.5,-635.5 201.5,-665.5 350.5,-665.5 350.5,-635.5 201.5,-635.5"/>
<text text-anchor="start" x="209.5" y="-653.5" font-family="Helvetica,sans-Serif" font-size="10.00">AnimationPlugin::Animation</text>
<text text-anchor="middle" x="276" y="-642.5" font-family="Helvetica,sans-Serif" font-size="10.00">PluginC::toggleXray</text>
</a>
</g>
</g>
<!-- Node1&#45;&gt;Node2 -->
<g id="edge1" class="edge"><title>Node1&#45;&gt;Node2</title>
<path fill="none" stroke="midnightblue" d="M77.0613,-374.557C82.5908,-419.935 105.413,-556.541 185,-626.5 187.353,-628.569 189.866,-630.461 192.5,-632.193"/>
<polygon fill="midnightblue" stroke="midnightblue" points="190.86,-635.287 201.281,-637.195 194.324,-629.205 190.86,-635.287"/>
</g>
<!-- Node4 -->
<g id="node4" class="node"><title>Node4</title>
<g id="a_node4"><a xlink:href="classAnimationPlugin_1_1AnimationPluginC.html#a5b502a290c624d5aab9ac37c9a992790" target="_top" xlink:title="Slot for the user activating display of bones. ">
<polygon fill="white" stroke="black" points="201.5,-586.5 201.5,-616.5 350.5,-616.5 350.5,-586.5 201.5,-586.5"/>
<text text-anchor="start" x="209.5" y="-604.5" font-family="Helvetica,sans-Serif" font-size="10.00">AnimationPlugin::Animation</text>
<text text-anchor="middle" x="276" y="-593.5" font-family="Helvetica,sans-Serif" font-size="10.00">PluginC::toggleSkeleton</text>
</a>
</g>
</g>
<!-- Node1&#45;&gt;Node4 -->
<g id="edge3" class="edge"><title>Node1&#45;&gt;Node4</title>
<path fill="none" stroke="midnightblue" d="M78.5892,-374.609C87.5155,-414.309 117.157,-522.305 185,-577.5 187.293,-579.366 189.718,-581.087 192.243,-582.676"/>
<polygon fill="midnightblue" stroke="midnightblue" points="190.725,-585.835 201.175,-587.581 194.095,-579.699 190.725,-585.835"/>
</g>
<!-- Node6 -->
<g id="node6" class="node"><title>Node6</title>
<g id="a_node6"><a xlink:href="classAnimationPlugin_1_1AnimationPluginC.html#aab33b0009a14705658c2f85c0a641490" target="_top" xlink:title="Slot for the user changing the animation to play. ">
<polygon fill="white" stroke="black" points="201.5,-537.5 201.5,-567.5 350.5,-567.5 350.5,-537.5 201.5,-537.5"/>
<text text-anchor="start" x="209.5" y="-555.5" font-family="Helvetica,sans-Serif" font-size="10.00">AnimationPlugin::Animation</text>
<text text-anchor="middle" x="276" y="-544.5" font-family="Helvetica,sans-Serif" font-size="10.00">PluginC::setAnimation</text>
</a>
</g>
</g>
<!-- Node1&#45;&gt;Node6 -->
<g id="edge5" class="edge"><title>Node1&#45;&gt;Node6</title>
<path fill="none" stroke="midnightblue" d="M80.9009,-374.572C93.592,-407.772 128.571,-487.508 185,-528.5 187.253,-530.136 189.61,-531.661 192.047,-533.082"/>
<polygon fill="midnightblue" stroke="midnightblue" points="190.684,-536.317 201.176,-537.786 193.89,-530.095 190.684,-536.317"/>
</g>
<!-- Node8 -->
<g id="node8" class="node"><title>Node8</title>
<g id="a_node8"><a xlink:href="classAnimationPlugin_1_1AnimationPluginC.html#a0bbb1274efd244218e419f829db8d862" target="_top" xlink:title="Slot for the user asking to use the animation timestep or the application&#39;s. ">
<polygon fill="white" stroke="black" points="185,-488.5 185,-518.5 367,-518.5 367,-488.5 185,-488.5"/>
<text text-anchor="start" x="193" y="-506.5" font-family="Helvetica,sans-Serif" font-size="10.00">AnimationPlugin::Animation</text>
<text text-anchor="middle" x="276" y="-495.5" font-family="Helvetica,sans-Serif" font-size="10.00">PluginC::toggleAnimationTimeStep</text>
</a>
</g>
</g>
<!-- Node1&#45;&gt;Node8 -->
<g id="edge7" class="edge"><title>Node1&#45;&gt;Node8</title>
<path fill="none" stroke="midnightblue" d="M84.9812,-374.576C101.871,-400.16 139.683,-451.973 185,-479.5 187.833,-481.221 190.79,-482.82 193.832,-484.306"/>
<polygon fill="midnightblue" stroke="midnightblue" points="192.615,-487.595 203.177,-488.433 195.443,-481.192 192.615,-487.595"/>
</g>
<!-- Node10 -->
<g id="node10" class="node"><title>Node10</title>
<g id="a_node10"><a xlink:href="classAnimationPlugin_1_1AnimationPluginC.html#ac065feb6531786d8196a1a0b88910520" target="_top" xlink:title="Slot for the user changing the animation speed. ">
<polygon fill="white" stroke="black" points="200,-439.5 200,-469.5 352,-469.5 352,-439.5 200,-439.5"/>
<text text-anchor="start" x="208" y="-457.5" font-family="Helvetica,sans-Serif" font-size="10.00">AnimationPlugin::Animation</text>
<text text-anchor="middle" x="276" y="-446.5" font-family="Helvetica,sans-Serif" font-size="10.00">PluginC::setAnimationSpeed</text>
</a>
</g>
</g>
<!-- Node1&#45;&gt;Node10 -->
<g id="edge9" class="edge"><title>Node1&#45;&gt;Node10</title>
<path fill="none" stroke="midnightblue" d="M95.0574,-374.567C116.207,-390.229 151.417,-414.508 185,-429.5 190.407,-431.914 196.103,-434.148 201.895,-436.204"/>
<polygon fill="midnightblue" stroke="midnightblue" points="201.106,-439.631 211.7,-439.497 203.334,-432.995 201.106,-439.631"/>
</g>
<!-- Node12 -->
<g id="node12" class="node"><title>Node12</title>
<g id="a_node12"><a xlink:href="classAnimationPlugin_1_1AnimationPluginC.html#a6dd4858b63b10ab4b524eca2754f04de" target="_top" xlink:title="Slot for the user asking for slow motion. ">
<polygon fill="white" stroke="black" points="201.5,-389.5 201.5,-419.5 350.5,-419.5 350.5,-389.5 201.5,-389.5"/>
<text text-anchor="start" x="209.5" y="-407.5" font-family="Helvetica,sans-Serif" font-size="10.00">AnimationPlugin::Animation</text>
<text text-anchor="middle" x="276" y="-396.5" font-family="Helvetica,sans-Serif" font-size="10.00">PluginC::toggleSlowMotion</text>
</a>
</g>
</g>
<!-- Node1&#45;&gt;Node12 -->
<g id="edge11" class="edge"><title>Node1&#45;&gt;Node12</title>
<path fill="none" stroke="midnightblue" d="M142.208,-374.547C160.259,-378.619 179.938,-383.057 198.482,-387.24"/>
<polygon fill="midnightblue" stroke="midnightblue" points="197.83,-390.681 208.355,-389.467 199.37,-383.853 197.83,-390.681"/>
</g>
<!-- Node14 -->
<g id="node14" class="node"><title>Node14</title>
<g id="a_node14"><a xlink:href="classAnimationPlugin_1_1AnimationPluginC.html#aa64fe12bbc21b24296918236d17b38c6" target="_top" xlink:title="Slot for the user asking to play the animation. ">
<polygon fill="white" stroke="black" points="420.5,-343.5 420.5,-373.5 569.5,-373.5 569.5,-343.5 420.5,-343.5"/>
<text text-anchor="start" x="428.5" y="-361.5" font-family="Helvetica,sans-Serif" font-size="10.00">AnimationPlugin::Animation</text>
<text text-anchor="middle" x="495" y="-350.5" font-family="Helvetica,sans-Serif" font-size="10.00">PluginC::play</text>
</a>
</g>
</g>
<!-- Node1&#45;&gt;Node14 -->
<g id="edge13" class="edge"><title>Node1&#45;&gt;Node14</title>
<path fill="none" stroke="midnightblue" d="M149.356,-359.324C222.342,-359.149 333.84,-358.883 410.124,-358.7"/>
<polygon fill="midnightblue" stroke="midnightblue" points="410.188,-362.2 420.18,-358.676 410.171,-355.2 410.188,-362.2"/>
</g>
<!-- Node16 -->
<g id="node16" class="node"><title>Node16</title>
<g id="a_node16"><a xlink:href="classAnimationPlugin_1_1AnimationPluginC.html#a2557c2abe774ff96f778edbb44a6362b" target="_top" xlink:title="Slot for the user asking to pause the animation. ">
<polygon fill="white" stroke="black" points="420.5,-245.5 420.5,-275.5 569.5,-275.5 569.5,-245.5 420.5,-245.5"/>
<text text-anchor="start" x="428.5" y="-263.5" font-family="Helvetica,sans-Serif" font-size="10.00">AnimationPlugin::Animation</text>
<text text-anchor="middle" x="495" y="-252.5" font-family="Helvetica,sans-Serif" font-size="10.00">PluginC::pause</text>
</a>
</g>
</g>
<!-- Node1&#45;&gt;Node16 -->
<g id="edge15" class="edge"><title>Node1&#45;&gt;Node16</title>
<path fill="none" stroke="midnightblue" d="M93.9208,-344.339C114.659,-328.202 150.043,-303.39 185,-291.5 258.253,-266.585 346.482,-259.862 409.877,-258.764"/>
<polygon fill="midnightblue" stroke="midnightblue" points="410.272,-262.26 420.227,-258.631 410.182,-255.26 410.272,-262.26"/>
</g>
<!-- Node17 -->
<g id="node17" class="node"><title>Node17</title>
<g id="a_node17"><a xlink:href="classAnimationPlugin_1_1AnimationPluginC.html#a28bbb03d595f947eacb89517592cfadf" target="_top" xlink:title="Slot for the user asking to step the animation once. ">
<polygon fill="white" stroke="black" points="201.5,-300.5 201.5,-330.5 350.5,-330.5 350.5,-300.5 201.5,-300.5"/>
<text text-anchor="start" x="209.5" y="-318.5" font-family="Helvetica,sans-Serif" font-size="10.00">AnimationPlugin::Animation</text>
<text text-anchor="middle" x="276" y="-307.5" font-family="Helvetica,sans-Serif" font-size="10.00">PluginC::step</text>
</a>
</g>
</g>
<!-- Node1&#45;&gt;Node17 -->
<g id="edge17" class="edge"><title>Node1&#45;&gt;Node17</title>
<path fill="none" stroke="midnightblue" d="M143.599,-344.481C160.678,-340.714 179.138,-336.643 196.671,-332.776"/>
<polygon fill="midnightblue" stroke="midnightblue" points="197.858,-336.098 206.87,-330.526 196.351,-329.262 197.858,-336.098"/>
</g>
<!-- Node19 -->
<g id="node19" class="node"><title>Node19</title>
<g id="a_node19"><a xlink:href="classAnimationPlugin_1_1AnimationPluginC.html#addc6eaa082def65b9330182a71e8cef8" target="_top" xlink:title="Slot for the user asking to reset the animation. ">
<polygon fill="white" stroke="black" points="201.5,-212.5 201.5,-242.5 350.5,-242.5 350.5,-212.5 201.5,-212.5"/>
<text text-anchor="start" x="209.5" y="-230.5" font-family="Helvetica,sans-Serif" font-size="10.00">AnimationPlugin::Animation</text>
<text text-anchor="middle" x="276" y="-219.5" font-family="Helvetica,sans-Serif" font-size="10.00">PluginC::reset</text>
</a>
</g>
</g>
<!-- Node1&#45;&gt;Node19 -->
<g id="edge20" class="edge"><title>Node1&#45;&gt;Node19</title>
<path fill="none" stroke="midnightblue" d="M88.0905,-344.182C106.99,-322.104 144.79,-281.377 185,-257.5 192.227,-253.209 200.149,-249.436 208.202,-246.146"/>
<polygon fill="midnightblue" stroke="midnightblue" points="209.602,-249.357 217.681,-242.503 207.091,-242.823 209.602,-249.357"/>
</g>
<!-- Node32 -->
<g id="node32" class="node"><title>Node32</title>
<g id="a_node32"><a xlink:href="classAnimationPlugin_1_1AnimationPluginC.html#ac26828c0f021b51540897a4b53feb7dc" target="_top" xlink:title="Save all animation data to a file (one per component). ">
<polygon fill="white" stroke="black" points="201.5,-163.5 201.5,-193.5 350.5,-193.5 350.5,-163.5 201.5,-163.5"/>
<text text-anchor="start" x="209.5" y="-181.5" font-family="Helvetica,sans-Serif" font-size="10.00">AnimationPlugin::Animation</text>
<text text-anchor="middle" x="276" y="-170.5" font-family="Helvetica,sans-Serif" font-size="10.00">PluginC::cacheFrame</text>
</a>
</g>
</g>
<!-- Node1&#45;&gt;Node32 -->
<g id="edge40" class="edge"><title>Node1&#45;&gt;Node32</title>
<path fill="none" stroke="midnightblue" d="M81.7828,-344.453C95.6128,-313.212 131.753,-241.102 185,-203.5 187.716,-201.582 190.573,-199.811 193.533,-198.176"/>
<polygon fill="midnightblue" stroke="midnightblue" points="195.258,-201.228 202.678,-193.666 192.162,-194.95 195.258,-201.228"/>
</g>
<!-- Node34 -->
<g id="node34" class="node"><title>Node34</title>
<g id="a_node34"><a xlink:href="classAnimationPlugin_1_1AnimationPluginC.html#ae0a9161e178ba6ddc9f64040b560aeb1" target="_top" xlink:title="Restore all animation from a file, if such a file exists. ">
<polygon fill="white" stroke="black" points="201.5,-114.5 201.5,-144.5 350.5,-144.5 350.5,-114.5 201.5,-114.5"/>
<text text-anchor="start" x="209.5" y="-132.5" font-family="Helvetica,sans-Serif" font-size="10.00">AnimationPlugin::Animation</text>
<text text-anchor="middle" x="276" y="-121.5" font-family="Helvetica,sans-Serif" font-size="10.00">PluginC::restoreFrame</text>
</a>
</g>
</g>
<!-- Node1&#45;&gt;Node34 -->
<g id="edge43" class="edge"><title>Node1&#45;&gt;Node34</title>
<path fill="none" stroke="midnightblue" d="M79.1207,-344.492C89.0651,-306.566 120.453,-206.226 185,-154.5 187.313,-152.646 189.755,-150.929 192.296,-149.34"/>
<polygon fill="midnightblue" stroke="midnightblue" points="194.189,-152.293 201.268,-144.411 190.818,-146.158 194.189,-152.293"/>
</g>
<!-- Node36 -->
<g id="node36" class="node"><title>Node36</title>
<g id="a_node36"><a xlink:href="classAnimationPlugin_1_1AnimationPluginC.html#a8c05fa57f31f946f259e2c191af74696" target="_top" xlink:title="Request changing the data file directory. ">
<polygon fill="white" stroke="black" points="201.5,-65.5 201.5,-95.5 350.5,-95.5 350.5,-65.5 201.5,-65.5"/>
<text text-anchor="start" x="209.5" y="-83.5" font-family="Helvetica,sans-Serif" font-size="10.00">AnimationPlugin::Animation</text>
<text text-anchor="middle" x="276" y="-72.5" font-family="Helvetica,sans-Serif" font-size="10.00">PluginC::changeDataDir</text>
</a>
</g>
</g>
<!-- Node1&#45;&gt;Node36 -->
<g id="edge46" class="edge"><title>Node1&#45;&gt;Node36</title>
<path fill="none" stroke="midnightblue" d="M77.4753,-344.265C84.0073,-300.244 109.01,-171.794 185,-105.5 187.368,-103.434 189.892,-101.538 192.537,-99.798"/>
<polygon fill="midnightblue" stroke="midnightblue" points="194.407,-102.76 201.345,-94.7522 190.928,-96.6862 194.407,-102.76"/>
</g>
<!-- Node3 -->
<g id="node3" class="node"><title>Node3</title>
<g id="a_node3"><a xlink:href="classAnimationPlugin_1_1AnimationSystem.html#a85ead7b8302c4c3fedf949fba52f259b" target="_top" xlink:title="Set on or off xray bone display. ">
<polygon fill="white" stroke="black" points="420.5,-637.5 420.5,-667.5 569.5,-667.5 569.5,-637.5 420.5,-637.5"/>
<text text-anchor="start" x="428.5" y="-655.5" font-family="Helvetica,sans-Serif" font-size="10.00">AnimationPlugin::Animation</text>
<text text-anchor="middle" x="495" y="-644.5" font-family="Helvetica,sans-Serif" font-size="10.00">System::setXray</text>
</a>
</g>
</g>
<!-- Node2&#45;&gt;Node3 -->
<g id="edge2" class="edge"><title>Node2&#45;&gt;Node3</title>
<path fill="none" stroke="midnightblue" d="M350.769,-651.18C369.916,-651.356 390.677,-651.548 410.295,-651.729"/>
<polygon fill="midnightblue" stroke="midnightblue" points="410.403,-655.23 420.435,-651.822 410.468,-648.23 410.403,-655.23"/>
</g>
<!-- Node5 -->
<g id="node5" class="node"><title>Node5</title>
<g id="a_node5"><a xlink:href="classAnimationPlugin_1_1AnimationSystem.html#a348e7b2e35cf9b1153882bba13101429" target="_top" xlink:title="Display the skeleton. ">
<polygon fill="white" stroke="black" points="420.5,-588.5 420.5,-618.5 569.5,-618.5 569.5,-588.5 420.5,-588.5"/>
<text text-anchor="start" x="428.5" y="-606.5" font-family="Helvetica,sans-Serif" font-size="10.00">AnimationPlugin::Animation</text>
<text text-anchor="middle" x="495" y="-595.5" font-family="Helvetica,sans-Serif" font-size="10.00">System::toggleSkeleton</text>
</a>
</g>
</g>
<!-- Node4&#45;&gt;Node5 -->
<g id="edge4" class="edge"><title>Node4&#45;&gt;Node5</title>
<path fill="none" stroke="midnightblue" d="M350.769,-602.18C369.916,-602.356 390.677,-602.548 410.295,-602.729"/>
<polygon fill="midnightblue" stroke="midnightblue" points="410.403,-606.23 420.435,-602.822 410.468,-599.23 410.403,-606.23"/>
</g>
<!-- Node7 -->
<g id="node7" class="node"><title>Node7</title>
<g id="a_node7"><a xlink:href="classAnimationPlugin_1_1AnimationSystem.html#a061c8e3776c63313092452c476bbd709" target="_top" xlink:title="Set the animation to play. ">
<polygon fill="white" stroke="black" points="420.5,-539.5 420.5,-569.5 569.5,-569.5 569.5,-539.5 420.5,-539.5"/>
<text text-anchor="start" x="428.5" y="-557.5" font-family="Helvetica,sans-Serif" font-size="10.00">AnimationPlugin::Animation</text>
<text text-anchor="middle" x="495" y="-546.5" font-family="Helvetica,sans-Serif" font-size="10.00">System::setAnimation</text>
</a>
</g>
</g>
<!-- Node6&#45;&gt;Node7 -->
<g id="edge6" class="edge"><title>Node6&#45;&gt;Node7</title>
<path fill="none" stroke="midnightblue" d="M350.769,-553.18C369.916,-553.356 390.677,-553.548 410.295,-553.729"/>
<polygon fill="midnightblue" stroke="midnightblue" points="410.403,-557.23 420.435,-553.822 410.468,-550.23 410.403,-557.23"/>
</g>
<!-- Node9 -->
<g id="node9" class="node"><title>Node9</title>
<g id="a_node9"><a xlink:href="classAnimationPlugin_1_1AnimationSystem.html#a0f87699a5865a84fdbb6c954adab016c" target="_top" xlink:title="If status is true, then use the animation time step if available; else, use the application timestep...">
<polygon fill="white" stroke="black" points="403,-490.5 403,-520.5 587,-520.5 587,-490.5 403,-490.5"/>
<text text-anchor="start" x="411" y="-508.5" font-family="Helvetica,sans-Serif" font-size="10.00">AnimationPlugin::Animation</text>
<text text-anchor="middle" x="495" y="-497.5" font-family="Helvetica,sans-Serif" font-size="10.00">System::toggleAnimationTimeStep</text>
</a>
</g>
</g>
<!-- Node8&#45;&gt;Node9 -->
<g id="edge8" class="edge"><title>Node8&#45;&gt;Node9</title>
<path fill="none" stroke="midnightblue" d="M367.142,-504.331C375.504,-504.408 384.015,-504.486 392.469,-504.564"/>
<polygon fill="midnightblue" stroke="midnightblue" points="392.708,-508.066 402.74,-504.659 392.773,-501.067 392.708,-508.066"/>
</g>
<!-- Node11 -->
<g id="node11" class="node"><title>Node11</title>
<g id="a_node11"><a xlink:href="classAnimationPlugin_1_1AnimationSystem.html#a0b0bc42c13d119be1b55d46d2164ee1f" target="_top" xlink:title="Set animation speed factor. ">
<polygon fill="white" stroke="black" points="418,-441.5 418,-471.5 572,-471.5 572,-441.5 418,-441.5"/>
<text text-anchor="start" x="426" y="-459.5" font-family="Helvetica,sans-Serif" font-size="10.00">AnimationPlugin::Animation</text>
<text text-anchor="middle" x="495" y="-448.5" font-family="Helvetica,sans-Serif" font-size="10.00">System::setAnimationSpeed</text>
</a>
</g>
</g>
<!-- Node10&#45;&gt;Node11 -->
<g id="edge10" class="edge"><title>Node10&#45;&gt;Node11</title>
<path fill="none" stroke="midnightblue" d="M352.287,-455.194C370.155,-455.359 389.354,-455.536 407.671,-455.704"/>
<polygon fill="midnightblue" stroke="midnightblue" points="407.711,-459.205 417.743,-455.797 407.776,-452.205 407.711,-459.205"/>
</g>
<!-- Node13 -->
<g id="node13" class="node"><title>Node13</title>
<g id="a_node13"><a xlink:href="classAnimationPlugin_1_1AnimationSystem.html#a3435b4f767b5240c6eb2fa78872b1f42" target="_top" xlink:title="Toggle the slow motion speed (speed x0.1). ">
<polygon fill="white" stroke="black" points="420.5,-392.5 420.5,-422.5 569.5,-422.5 569.5,-392.5 420.5,-392.5"/>
<text text-anchor="start" x="428.5" y="-410.5" font-family="Helvetica,sans-Serif" font-size="10.00">AnimationPlugin::Animation</text>
<text text-anchor="middle" x="495" y="-399.5" font-family="Helvetica,sans-Serif" font-size="10.00">System::toggleSlowMotion</text>
</a>
</g>
</g>
<!-- Node12&#45;&gt;Node13 -->
<g id="edge12" class="edge"><title>Node12&#45;&gt;Node13</title>
<path fill="none" stroke="midnightblue" d="M350.769,-405.52C369.916,-405.785 390.677,-406.072 410.295,-406.343"/>
<polygon fill="midnightblue" stroke="midnightblue" points="410.388,-409.844 420.435,-406.483 410.484,-402.845 410.388,-409.844"/>
</g>
<!-- Node15 -->
<g id="node15" class="node"><title>Node15</title>
<g id="a_node15"><a xlink:href="classAnimationPlugin_1_1AnimationSystem.html#a5212467a5429133988c38e8390459e2b" target="_top" xlink:title="Toggle on/off playing of animations. ">
<polygon fill="white" stroke="black" points="623,-294.5 623,-324.5 772,-324.5 772,-294.5 623,-294.5"/>
<text text-anchor="start" x="631" y="-312.5" font-family="Helvetica,sans-Serif" font-size="10.00">AnimationPlugin::Animation</text>
<text text-anchor="middle" x="697.5" y="-301.5" font-family="Helvetica,sans-Serif" font-size="10.00">System::play</text>
</a>
</g>
</g>
<!-- Node14&#45;&gt;Node15 -->
<g id="edge14" class="edge"><title>Node14&#45;&gt;Node15</title>
<path fill="none" stroke="midnightblue" d="M557.519,-343.465C578.882,-338.245 603.017,-332.346 625.108,-326.947"/>
<polygon fill="midnightblue" stroke="midnightblue" points="626.214,-330.28 635.097,-324.506 624.552,-323.48 626.214,-330.28"/>
</g>
<!-- Node16&#45;&gt;Node15 -->
<g id="edge16" class="edge"><title>Node16&#45;&gt;Node15</title>
<path fill="none" stroke="midnightblue" d="M557.519,-275.535C578.882,-280.755 603.017,-286.654 625.108,-292.053"/>
<polygon fill="midnightblue" stroke="midnightblue" points="624.552,-295.52 635.097,-294.494 626.214,-288.72 624.552,-295.52"/>
</g>
<!-- Node17&#45;&gt;Node16 -->
<g id="edge18" class="edge"><title>Node17&#45;&gt;Node16</title>
<path fill="none" stroke="midnightblue" d="M336.296,-300.471C363.686,-293.529 396.383,-285.242 424.885,-278.018"/>
<polygon fill="midnightblue" stroke="midnightblue" points="425.942,-281.36 434.775,-275.511 424.222,-274.575 425.942,-281.36"/>
</g>
<!-- Node18 -->
<g id="node18" class="node"><title>Node18</title>
<g id="a_node18"><a xlink:href="classAnimationPlugin_1_1AnimationSystem.html#a47edb32277314755d72534c3c1b25f77" target="_top" xlink:title="Advance the animation next frame, then pauses. ">
<polygon fill="white" stroke="black" points="420.5,-294.5 420.5,-324.5 569.5,-324.5 569.5,-294.5 420.5,-294.5"/>
<text text-anchor="start" x="428.5" y="-312.5" font-family="Helvetica,sans-Serif" font-size="10.00">AnimationPlugin::Animation</text>
<text text-anchor="middle" x="495" y="-301.5" font-family="Helvetica,sans-Serif" font-size="10.00">System::step</text>
</a>
</g>
</g>
<!-- Node17&#45;&gt;Node18 -->
<g id="edge19" class="edge"><title>Node17&#45;&gt;Node18</title>
<path fill="none" stroke="midnightblue" d="M350.769,-313.46C369.916,-312.931 390.677,-312.357 410.295,-311.814"/>
<polygon fill="midnightblue" stroke="midnightblue" points="410.536,-315.309 420.435,-311.534 410.342,-308.312 410.536,-315.309"/>
</g>
<!-- Node19&#45;&gt;Node16 -->
<g id="edge21" class="edge"><title>Node19&#45;&gt;Node16</title>
<path fill="none" stroke="midnightblue" d="M350.769,-238.718C369.916,-241.63 390.677,-244.787 410.295,-247.771"/>
<polygon fill="midnightblue" stroke="midnightblue" points="410.022,-251.269 420.435,-249.313 411.075,-244.349 410.022,-251.269"/>
</g>
<!-- Node20 -->
<g id="node20" class="node"><title>Node20</title>
<g id="a_node20"><a xlink:href="classAnimationPlugin_1_1AnimationSystem.html#a1e9c101f1e8be0dad61a362e6bb24534" target="_top" xlink:title="Resets the skeleton to its rest pose. ">
<polygon fill="white" stroke="black" points="420.5,-196.5 420.5,-226.5 569.5,-226.5 569.5,-196.5 420.5,-196.5"/>
<text text-anchor="start" x="428.5" y="-214.5" font-family="Helvetica,sans-Serif" font-size="10.00">AnimationPlugin::Animation</text>
<text text-anchor="middle" x="495" y="-203.5" font-family="Helvetica,sans-Serif" font-size="10.00">System::reset</text>
</a>
</g>
</g>
<!-- Node19&#45;&gt;Node20 -->
<g id="edge22" class="edge"><title>Node19&#45;&gt;Node20</title>
<path fill="none" stroke="midnightblue" d="M350.769,-222.061C369.916,-220.649 390.677,-219.118 410.295,-217.672"/>
<polygon fill="midnightblue" stroke="midnightblue" points="410.719,-221.15 420.435,-216.924 410.205,-214.169 410.719,-221.15"/>
</g>
<!-- Node21 -->
<g id="node21" class="node"><title>Node21</title>
<g id="a_node21"><a xlink:href="classAnimationPlugin_1_1AnimationComponent.html#a8003df2b5f3137642ec4698502a32666" target="_top" xlink:title="Resets the animation, thus posing the skeleton into the reference pose. ">
<polygon fill="white" stroke="black" points="623,-196.5 623,-226.5 772,-226.5 772,-196.5 623,-196.5"/>
<text text-anchor="start" x="631" y="-214.5" font-family="Helvetica,sans-Serif" font-size="10.00">AnimationPlugin::Animation</text>
<text text-anchor="middle" x="697.5" y="-203.5" font-family="Helvetica,sans-Serif" font-size="10.00">Component::reset</text>
</a>
</g>
</g>
<!-- Node20&#45;&gt;Node21 -->
<g id="edge23" class="edge"><title>Node20&#45;&gt;Node21</title>
<path fill="none" stroke="midnightblue" d="M569.52,-211.5C583.55,-211.5 598.333,-211.5 612.657,-211.5"/>
<polygon fill="midnightblue" stroke="midnightblue" points="612.989,-215 622.989,-211.5 612.989,-208 612.989,-215"/>
</g>
<!-- Node22 -->
<g id="node22" class="node"><title>Node22</title>
<g id="a_node22"><a xlink:href="classRa_1_1Core_1_1Animation_1_1Skeleton.html#a7aec08b57bfa9dbce1c5b47e96de81d9" target="_top" xlink:title="Set the current pose. ">
<polygon fill="white" stroke="black" points="808,-196.5 808,-226.5 920,-226.5 920,-196.5 808,-196.5"/>
<text text-anchor="start" x="816" y="-214.5" font-family="Helvetica,sans-Serif" font-size="10.00">Ra::Core::Animation</text>
<text text-anchor="middle" x="864" y="-203.5" font-family="Helvetica,sans-Serif" font-size="10.00">::Skeleton::setPose</text>
</a>
</g>
</g>
<!-- Node21&#45;&gt;Node22 -->
<g id="edge24" class="edge"><title>Node21&#45;&gt;Node22</title>
<path fill="none" stroke="midnightblue" d="M772.089,-211.5C780.604,-211.5 789.243,-211.5 797.638,-211.5"/>
<polygon fill="midnightblue" stroke="midnightblue" points="797.731,-215 807.73,-211.5 797.73,-208 797.731,-215"/>
</g>
<!-- Node23 -->
<g id="node23" class="node"><title>Node23</title>
<g id="a_node23"><a xlink:href="classRa_1_1Core_1_1Animation_1_1Skeleton.html#a5679e1beb544b515c4539ce48a2f2ba3" target="_top" xlink:title="Ra::Core::Animation\l::Skeleton::size">
<polygon fill="white" stroke="black" points="956,-123.5 956,-153.5 1068,-153.5 1068,-123.5 956,-123.5"/>
<text text-anchor="start" x="964" y="-141.5" font-family="Helvetica,sans-Serif" font-size="10.00">Ra::Core::Animation</text>
<text text-anchor="middle" x="1012" y="-130.5" font-family="Helvetica,sans-Serif" font-size="10.00">::Skeleton::size</text>
</a>
</g>
</g>
<!-- Node22&#45;&gt;Node23 -->
<g id="edge25" class="edge"><title>Node22&#45;&gt;Node23</title>
<path fill="none" stroke="midnightblue" d="M895.251,-196.374C917.372,-185.314 947.579,-170.211 971.588,-158.206"/>
<polygon fill="midnightblue" stroke="midnightblue" points="973.408,-161.209 980.787,-153.606 970.278,-154.948 973.408,-161.209"/>
</g>
<!-- Node27 -->
<g id="node27" class="node"><title>Node27</title>
<g id="a_node27"><a xlink:href="classRa_1_1Core_1_1Graph_1_1AdjacencyList.html#a8671f51516bd82a2ea4246bc0c1e34f1" target="_top" xlink:title="Ra::Core::Graph::Adjacency\lList::isRoot">
<polygon fill="white" stroke="black" points="1252,-196.5 1252,-226.5 1399,-226.5 1399,-196.5 1252,-196.5"/>
<text text-anchor="start" x="1260" y="-214.5" font-family="Helvetica,sans-Serif" font-size="10.00">Ra::Core::Graph::Adjacency</text>
<text text-anchor="middle" x="1325.5" y="-203.5" font-family="Helvetica,sans-Serif" font-size="10.00">List::isRoot</text>
</a>
</g>
</g>
<!-- Node22&#45;&gt;Node27 -->
<g id="edge39" class="edge"><title>Node22&#45;&gt;Node27</title>
<path fill="none" stroke="midnightblue" d="M920.426,-211.5C1000.38,-211.5 1148.65,-211.5 1241.64,-211.5"/>
<polygon fill="midnightblue" stroke="midnightblue" points="1241.86,-215 1251.86,-211.5 1241.86,-208 1241.86,-215"/>
</g>
<!-- Node28 -->
<g id="node28" class="node"><title>Node28</title>
<g id="a_node28"><a xlink:href="classRa_1_1Core_1_1Graph_1_1AdjacencyList.html#a63e089f5da2ddc2da39dfd5bd6adb410" target="_top" xlink:title="SIZE. ">
<polygon fill="white" stroke="black" points="1435,-147.5 1435,-177.5 1582,-177.5 1582,-147.5 1435,-147.5"/>
<text text-anchor="start" x="1443" y="-165.5" font-family="Helvetica,sans-Serif" font-size="10.00">Ra::Core::Graph::Adjacency</text>
<text text-anchor="middle" x="1508.5" y="-154.5" font-family="Helvetica,sans-Serif" font-size="10.00">List::size</text>
</a>
</g>
</g>
<!-- Node22&#45;&gt;Node28 -->
<g id="edge38" class="edge"><title>Node22&#45;&gt;Node28</title>
<path fill="none" stroke="midnightblue" d="M920.359,-226.181C1019.09,-249.741 1230.94,-288.354 1399,-236.5 1431.89,-226.352 1463.72,-202.44 1484.3,-184.526"/>
<polygon fill="midnightblue" stroke="midnightblue" points="1486.76,-187.028 1491.88,-177.755 1482.09,-181.807 1486.76,-187.028"/>
</g>
<!-- Node24 -->
<g id="node24" class="node"><title>Node24</title>
<g id="a_node24"><a xlink:href="namespaceRa_1_1Core_1_1Animation.html#a93d6305ed74ab59961969dce601714c2" target="_top" xlink:title="Ra::Core::Animation\l::operator\&lt;\&lt;">
<polygon fill="white" stroke="black" points="1104,-123.5 1104,-153.5 1216,-153.5 1216,-123.5 1104,-123.5"/>
<text text-anchor="start" x="1112" y="-141.5" font-family="Helvetica,sans-Serif" font-size="10.00">Ra::Core::Animation</text>
<text text-anchor="middle" x="1160" y="-130.5" font-family="Helvetica,sans-Serif" font-size="10.00">::operator&lt;&lt;</text>
</a>
</g>
</g>
<!-- Node23&#45;&gt;Node24 -->
<g id="edge26" class="edge"><title>Node23&#45;&gt;Node24</title>
<path fill="none" stroke="midnightblue" d="M1068.2,-131.932C1076.46,-131.76 1085.05,-131.71 1093.51,-131.782"/>
<polygon fill="midnightblue" stroke="midnightblue" points="1093.68,-135.285 1103.73,-131.93 1093.78,-128.285 1093.68,-135.285"/>
</g>
<!-- Node24&#45;&gt;Node23 -->
<g id="edge27" class="edge"><title>Node24&#45;&gt;Node23</title>
<path fill="none" stroke="midnightblue" d="M1103.73,-145.07C1095.46,-145.241 1086.86,-145.29 1078.41,-145.217"/>
<polygon fill="midnightblue" stroke="midnightblue" points="1078.25,-141.715 1068.2,-145.068 1078.14,-148.714 1078.25,-141.715"/>
</g>
<!-- Node25 -->
<g id="node25" class="node"><title>Node25</title>
<g id="a_node25"><a xlink:href="classRa_1_1Core_1_1Animation_1_1Handle.html#af2c003e7a85469470d5591b019e8ab80" target="_top" xlink:title="Ra::Core::Animation\l::Handle::getLabel">
<polygon fill="white" stroke="black" points="1269.5,-0.5 1269.5,-30.5 1381.5,-30.5 1381.5,-0.5 1269.5,-0.5"/>
<text text-anchor="start" x="1277.5" y="-18.5" font-family="Helvetica,sans-Serif" font-size="10.00">Ra::Core::Animation</text>
<text text-anchor="middle" x="1325.5" y="-7.5" font-family="Helvetica,sans-Serif" font-size="10.00">::Handle::getLabel</text>
</a>
</g>
</g>
<!-- Node24&#45;&gt;Node25 -->
<g id="edge28" class="edge"><title>Node24&#45;&gt;Node25</title>
<path fill="none" stroke="midnightblue" d="M1171.22,-123.173C1186.39,-101.543 1216.9,-62.176 1252,-39.5 1254.59,-37.8272 1257.31,-36.2604 1260.11,-34.7939"/>
<polygon fill="midnightblue" stroke="midnightblue" points="1261.74,-37.8924 1269.28,-30.4458 1258.74,-31.5673 1261.74,-37.8924"/>
</g>
<!-- Node24&#45;&gt;Node27 -->
<g id="edge30" class="edge"><title>Node24&#45;&gt;Node27</title>
<path fill="none" stroke="midnightblue" d="M1186.3,-153.665C1204.23,-164.033 1229.09,-177.631 1252,-187.5 1256.34,-189.369 1260.87,-191.183 1265.46,-192.92"/>
<polygon fill="midnightblue" stroke="midnightblue" points="1264.33,-196.233 1274.93,-196.372 1266.73,-189.657 1264.33,-196.233"/>
</g>
<!-- Node29 -->
<g id="node29" class="node"><title>Node29</title>
<g id="a_node29"><a xlink:href="classRa_1_1Core_1_1Graph_1_1AdjacencyList.html#a5ef43669e94471df3df312cb9b49d00b" target="_top" xlink:title="Ra::Core::Graph::Adjacency\lList::isJoint">
<polygon fill="white" stroke="black" points="1252,-98.5 1252,-128.5 1399,-128.5 1399,-98.5 1252,-98.5"/>
<text text-anchor="start" x="1260" y="-116.5" font-family="Helvetica,sans-Serif" font-size="10.00">Ra::Core::Graph::Adjacency</text>
<text text-anchor="middle" x="1325.5" y="-105.5" font-family="Helvetica,sans-Serif" font-size="10.00">List::isJoint</text>
</a>
</g>
</g>
<!-- Node24&#45;&gt;Node29 -->
<g id="edge32" class="edge"><title>Node24&#45;&gt;Node29</title>
<path fill="none" stroke="midnightblue" d="M1216.35,-130.036C1224.54,-128.784 1233.13,-127.471 1241.73,-126.156"/>
<polygon fill="midnightblue" stroke="midnightblue" points="1242.46,-129.586 1251.81,-124.614 1241.4,-122.666 1242.46,-129.586"/>
</g>
<!-- Node30 -->
<g id="node30" class="node"><title>Node30</title>
<g id="a_node30"><a xlink:href="classRa_1_1Core_1_1Graph_1_1AdjacencyList.html#a2812c8dd044a6595416cb05baf928777" target="_top" xlink:title="Ra::Core::Graph::Adjacency\lList::isBranch">
<polygon fill="white" stroke="black" points="1252,-49.5 1252,-79.5 1399,-79.5 1399,-49.5 1252,-49.5"/>
<text text-anchor="start" x="1260" y="-67.5" font-family="Helvetica,sans-Serif" font-size="10.00">Ra::Core::Graph::Adjacency</text>
<text text-anchor="middle" x="1325.5" y="-56.5" font-family="Helvetica,sans-Serif" font-size="10.00">List::isBranch</text>
</a>
</g>
</g>
<!-- Node24&#45;&gt;Node30 -->
<g id="edge34" class="edge"><title>Node24&#45;&gt;Node30</title>
<path fill="none" stroke="midnightblue" d="M1185.49,-123.444C1203.46,-112.793 1228.7,-98.656 1252,-88.5 1256.33,-86.6127 1260.86,-84.7859 1265.45,-83.0393"/>
<polygon fill="midnightblue" stroke="midnightblue" points="1266.72,-86.3005 1274.9,-79.5731 1264.31,-79.728 1266.72,-86.3005"/>
</g>
<!-- Node31 -->
<g id="node31" class="node"><title>Node31</title>
<g id="a_node31"><a xlink:href="classRa_1_1Core_1_1Graph_1_1AdjacencyList.html#a209e8c037a722c617b3feebdbb85c044" target="_top" xlink:title="Ra::Core::Graph::Adjacency\lList::isLeaf">
<polygon fill="white" stroke="black" points="1252,-147.5 1252,-177.5 1399,-177.5 1399,-147.5 1252,-147.5"/>
<text text-anchor="start" x="1260" y="-165.5" font-family="Helvetica,sans-Serif" font-size="10.00">Ra::Core::Graph::Adjacency</text>
<text text-anchor="middle" x="1325.5" y="-154.5" font-family="Helvetica,sans-Serif" font-size="10.00">List::isLeaf</text>
</a>
</g>
</g>
<!-- Node24&#45;&gt;Node31 -->
<g id="edge36" class="edge"><title>Node24&#45;&gt;Node31</title>
<path fill="none" stroke="midnightblue" d="M1216.35,-146.625C1224.54,-147.828 1233.13,-149.088 1241.73,-150.35"/>
<polygon fill="midnightblue" stroke="midnightblue" points="1241.41,-153.841 1251.81,-151.83 1242.43,-146.915 1241.41,-153.841"/>
</g>
<!-- Node26 -->
<g id="node26" class="node"><title>Node26</title>
<g id="a_node26"><a xlink:href="classRa_1_1Core_1_1Animation_1_1Handle.html#aba876355658e5f8953033d3bb8f18533" target="_top" xlink:title="Ra::Core::Animation\l::Handle::size">
<polygon fill="white" stroke="black" points="1452.5,-0.5 1452.5,-30.5 1564.5,-30.5 1564.5,-0.5 1452.5,-0.5"/>
<text text-anchor="start" x="1460.5" y="-18.5" font-family="Helvetica,sans-Serif" font-size="10.00">Ra::Core::Animation</text>
<text text-anchor="middle" x="1508.5" y="-7.5" font-family="Helvetica,sans-Serif" font-size="10.00">::Handle::size</text>
</a>
</g>
</g>
<!-- Node25&#45;&gt;Node26 -->
<g id="edge29" class="edge"><title>Node25&#45;&gt;Node26</title>
<path fill="none" stroke="midnightblue" d="M1381.79,-15.5C1400.82,-15.5 1422.32,-15.5 1442.08,-15.5"/>
<polygon fill="midnightblue" stroke="midnightblue" points="1442.24,-19.0001 1452.24,-15.5 1442.24,-12.0001 1442.24,-19.0001"/>
</g>
<!-- Node27&#45;&gt;Node28 -->
<g id="edge31" class="edge"><title>Node27&#45;&gt;Node28</title>
<path fill="none" stroke="midnightblue" d="M1382.28,-196.399C1401.21,-191.275 1422.52,-185.504 1442.13,-180.197"/>
<polygon fill="midnightblue" stroke="midnightblue" points="1443.16,-183.543 1451.9,-177.552 1441.33,-176.786 1443.16,-183.543"/>
</g>
<!-- Node29&#45;&gt;Node28 -->
<g id="edge33" class="edge"><title>Node29&#45;&gt;Node28</title>
<path fill="none" stroke="midnightblue" d="M1382.28,-128.601C1401.21,-133.725 1422.52,-139.496 1442.13,-144.803"/>
<polygon fill="midnightblue" stroke="midnightblue" points="1441.33,-148.214 1451.9,-147.448 1443.16,-141.457 1441.33,-148.214"/>
</g>
<!-- Node30&#45;&gt;Node28 -->
<g id="edge35" class="edge"><title>Node30&#45;&gt;Node28</title>
<path fill="none" stroke="midnightblue" d="M1377.92,-79.5323C1385.13,-82.2104 1392.34,-85.2096 1399,-88.5 1428.64,-103.153 1459.52,-124.952 1480.72,-141.098"/>
<polygon fill="midnightblue" stroke="midnightblue" points="1478.85,-144.075 1488.9,-147.416 1483.13,-138.534 1478.85,-144.075"/>
</g>
<!-- Node31&#45;&gt;Node28 -->
<g id="edge37" class="edge"><title>Node31&#45;&gt;Node28</title>
<path fill="none" stroke="midnightblue" d="M1399.08,-162.5C1407.56,-162.5 1416.26,-162.5 1424.87,-162.5"/>
<polygon fill="midnightblue" stroke="midnightblue" points="1424.91,-166 1434.91,-162.5 1424.91,-159 1424.91,-166"/>
</g>
<!-- Node33 -->
<g id="node33" class="node"><title>Node33</title>
<g id="a_node33"><a xlink:href="classAnimationPlugin_1_1AnimationSystem.html#abfbf09ff83a03cbbcb158d5c5bdcc065" target="_top" xlink:title="Saves all the state data related to the current frame into a cache file. ">
<polygon fill="white" stroke="black" points="623,-119.5 623,-149.5 772,-149.5 772,-119.5 623,-119.5"/>
<text text-anchor="start" x="631" y="-137.5" font-family="Helvetica,sans-Serif" font-size="10.00">AnimationPlugin::Animation</text>
<text text-anchor="middle" x="697.5" y="-126.5" font-family="Helvetica,sans-Serif" font-size="10.00">System::cacheFrame</text>
</a>
</g>
</g>
<!-- Node32&#45;&gt;Node33 -->
<g id="edge41" class="edge"><title>Node32&#45;&gt;Node33</title>
<path fill="none" stroke="midnightblue" d="M350.663,-172.013C413.515,-166.324 506.266,-157.565 587,-148.5 595.35,-147.562 604.052,-146.535 612.74,-145.477"/>
<polygon fill="midnightblue" stroke="midnightblue" points="613.414,-148.92 622.911,-144.223 612.558,-141.973 613.414,-148.92"/>
</g>
<!-- Node33&#45;&gt;Node33 -->
<g id="edge42" class="edge"><title>Node33&#45;&gt;Node33</title>
<path fill="none" stroke="midnightblue" d="M668.571,-149.659C661.595,-159.057 671.238,-168 697.5,-168 713.503,-168 723.335,-164.679 726.996,-159.958"/>
<polygon fill="midnightblue" stroke="midnightblue" points="730.474,-159.451 726.429,-149.659 723.484,-159.836 730.474,-159.451"/>
</g>
<!-- Node35 -->
<g id="node35" class="node"><title>Node35</title>
<g id="a_node35"><a xlink:href="classAnimationPlugin_1_1AnimationSystem.html#ab310b648e38b02e175e83966a5a80a39" target="_top" xlink:title="Restores the state data related to the frameID &#45;th frame from the cache file. ">
<polygon fill="white" stroke="black" points="420.5,-108.5 420.5,-138.5 569.5,-138.5 569.5,-108.5 420.5,-108.5"/>
<text text-anchor="start" x="428.5" y="-126.5" font-family="Helvetica,sans-Serif" font-size="10.00">AnimationPlugin::Animation</text>
<text text-anchor="middle" x="495" y="-115.5" font-family="Helvetica,sans-Serif" font-size="10.00">System::restoreFrame</text>
</a>
</g>
</g>
<!-- Node34&#45;&gt;Node35 -->
<g id="edge44" class="edge"><title>Node34&#45;&gt;Node35</title>
<path fill="none" stroke="midnightblue" d="M350.769,-127.46C369.916,-126.931 390.677,-126.357 410.295,-125.814"/>
<polygon fill="midnightblue" stroke="midnightblue" points="410.536,-129.309 420.435,-125.534 410.342,-122.312 410.536,-129.309"/>
</g>
<!-- Node35&#45;&gt;Node33 -->
<g id="edge45" class="edge"><title>Node35&#45;&gt;Node33</title>
<path fill="none" stroke="midnightblue" d="M569.52,-127.534C583.55,-128.303 598.333,-129.114 612.657,-129.9"/>
<polygon fill="midnightblue" stroke="midnightblue" points="612.812,-133.414 622.989,-130.467 613.195,-126.424 612.812,-133.414"/>
</g>
</g>
</svg>
