<?xml version="1.0" encoding="UTF-8" standalone="no"?>
<!DOCTYPE svg PUBLIC "-//W3C//DTD SVG 1.1//EN"
 "http://www.w3.org/Graphics/SVG/1.1/DTD/svg11.dtd">
<!-- Generated by graphviz version 2.38.0 (20140413.2041)
 -->
<!-- Title: Ra::GuiBase::TransformEditor Pages: 1 -->
<svg width="657pt" height="1565pt"
 viewBox="0.00 0.00 656.50 1565.00" xmlns="http://www.w3.org/2000/svg" xmlns:xlink="http://www.w3.org/1999/xlink">
<g id="graph0" class="graph" transform="scale(1 1) rotate(0) translate(4 1561)">
<title>Ra::GuiBase::TransformEditor</title>
<polygon fill="white" stroke="none" points="-4,4 -4,-1561 652.5,-1561 652.5,4 -4,4"/>
<!-- Node1 -->
<g id="node1" class="node"><title>Node1</title>
<polygon fill="#bfbfbf" stroke="black" points="115.5,-0.5 115.5,-134.5 270.5,-134.5 270.5,-0.5 115.5,-0.5"/>
<text text-anchor="middle" x="193" y="-122.5" font-family="Helvetica,sans-Serif" font-size="10.00">Ra::GuiBase::TransformEditor</text>
<polyline fill="none" stroke="black" points="115.5,-115.5 270.5,-115.5 "/>
<text text-anchor="middle" x="193" y="-103.5" font-family="Helvetica,sans-Serif" font-size="10.00"> </text>
<polyline fill="none" stroke="black" points="115.5,-96.5 270.5,-96.5 "/>
<text text-anchor="start" x="123.5" y="-84.5" font-family="Helvetica,sans-Serif" font-size="10.00">+ TransformEditor()</text>
<text text-anchor="start" x="123.5" y="-73.5" font-family="Helvetica,sans-Serif" font-size="10.00">+ ~TransformEditor()</text>
<text text-anchor="start" x="123.5" y="-62.5" font-family="Helvetica,sans-Serif" font-size="10.00">+ setEditable()</text>
<text text-anchor="start" x="123.5" y="-51.5" font-family="Helvetica,sans-Serif" font-size="10.00">+ updateValues()</text>
<text text-anchor="start" x="123.5" y="-40.5" font-family="Helvetica,sans-Serif" font-size="10.00"># getTransform()</text>
<text text-anchor="start" x="123.5" y="-29.5" font-family="Helvetica,sans-Serif" font-size="10.00"># setTransform()</text>
<text text-anchor="start" x="123.5" y="-18.5" font-family="Helvetica,sans-Serif" font-size="10.00"># canEdit()</text>
<text text-anchor="start" x="123.5" y="-7.5" font-family="Helvetica,sans-Serif" font-size="10.00"># getWorldTransform()</text>
</g>
<!-- Node2 -->
<g id="node2" class="node"><title>Node2</title>
<g id="a_node2"><a xlink:href="structRa_1_1Engine_1_1ItemEntry.html" target="_top" xlink:title="This represent a handle for an entity, component or render object. ">
<polygon fill="white" stroke="black" points="47.5,-182.5 47.5,-327.5 172.5,-327.5 172.5,-182.5 47.5,-182.5"/>
<text text-anchor="middle" x="110" y="-315.5" font-family="Helvetica,sans-Serif" font-size="10.00">Ra::Engine::ItemEntry</text>
<polyline fill="none" stroke="black" points="47.5,-308.5 172.5,-308.5 "/>
<text text-anchor="middle" x="110" y="-296.5" font-family="Helvetica,sans-Serif" font-size="10.00"> </text>
<polyline fill="none" stroke="black" points="47.5,-289.5 172.5,-289.5 "/>
<text text-anchor="start" x="55.5" y="-277.5" font-family="Helvetica,sans-Serif" font-size="10.00">+ ItemEntry()</text>
<text text-anchor="start" x="55.5" y="-266.5" font-family="Helvetica,sans-Serif" font-size="10.00">+ ItemEntry()</text>
<text text-anchor="start" x="55.5" y="-255.5" font-family="Helvetica,sans-Serif" font-size="10.00">+ operator==()</text>
<text text-anchor="start" x="55.5" y="-244.5" font-family="Helvetica,sans-Serif" font-size="10.00">+ isValid()</text>
<text text-anchor="start" x="55.5" y="-233.5" font-family="Helvetica,sans-Serif" font-size="10.00">+ isSelectable()</text>
<text text-anchor="start" x="55.5" y="-222.5" font-family="Helvetica,sans-Serif" font-size="10.00">+ isEntityNode()</text>
<text text-anchor="start" x="55.5" y="-211.5" font-family="Helvetica,sans-Serif" font-size="10.00">+ isComponentNode()</text>
<text text-anchor="start" x="55.5" y="-200.5" font-family="Helvetica,sans-Serif" font-size="10.00">+ isRoNode()</text>
<text text-anchor="start" x="55.5" y="-189.5" font-family="Helvetica,sans-Serif" font-size="10.00">+ checkConsistency()</text>
</a>
</g>
</g>
<!-- Node2&#45;&gt;Node1 -->
<g id="edge1" class="edge"><title>Node2&#45;&gt;Node1</title>
<path fill="none" stroke="#404040" d="M124.346,-182.281C127.329,-172.252 130.856,-162.228 135,-153 136.169,-150.398 137.418,-147.79 138.734,-145.188"/>
<polygon fill="none" stroke="#404040" points="138.778,-145.107 138.11,-137.927 144.48,-134.549 145.149,-141.729 138.778,-145.107"/>
<text text-anchor="middle" x="174.5" y="-156" font-family="Helvetica,sans-Serif" font-size="10.00"> #m_currentEdit</text>
</g>
<!-- Node3 -->
<g id="node3" class="node"><title>Node3</title>
<g id="a_node3"><a xlink:href="classRa_1_1Engine_1_1Component.html" target="_top" xlink:title="A component is an element that can be updated by a system. ">
<polygon fill="white" stroke="black" points="182.5,-375.5 182.5,-597.5 343.5,-597.5 343.5,-375.5 182.5,-375.5"/>
<text text-anchor="middle" x="263" y="-585.5" font-family="Helvetica,sans-Serif" font-size="10.00">Ra::Engine::Component</text>
<polyline fill="none" stroke="black" points="182.5,-578.5 343.5,-578.5 "/>
<text text-anchor="middle" x="263" y="-566.5" font-family="Helvetica,sans-Serif" font-size="10.00"> </text>
<polyline fill="none" stroke="black" points="182.5,-559.5 343.5,-559.5 "/>
<text text-anchor="start" x="190.5" y="-547.5" font-family="Helvetica,sans-Serif" font-size="10.00">+ Component()</text>
<text text-anchor="start" x="190.5" y="-536.5" font-family="Helvetica,sans-Serif" font-size="10.00">+ ~Component()</text>
<text text-anchor="start" x="190.5" y="-525.5" font-family="Helvetica,sans-Serif" font-size="10.00">+ initialize()</text>
<text text-anchor="start" x="190.5" y="-514.5" font-family="Helvetica,sans-Serif" font-size="10.00">+ setEntity()</text>
<text text-anchor="start" x="190.5" y="-503.5" font-family="Helvetica,sans-Serif" font-size="10.00">+ getEntity()</text>
<text text-anchor="start" x="190.5" y="-492.5" font-family="Helvetica,sans-Serif" font-size="10.00">+ getName()</text>
<text text-anchor="start" x="190.5" y="-481.5" font-family="Helvetica,sans-Serif" font-size="10.00">+ setSystem()</text>
<text text-anchor="start" x="190.5" y="-470.5" font-family="Helvetica,sans-Serif" font-size="10.00">+ getSystem()</text>
<text text-anchor="start" x="190.5" y="-459.5" font-family="Helvetica,sans-Serif" font-size="10.00">+ addRenderObject()</text>
<text text-anchor="start" x="190.5" y="-448.5" font-family="Helvetica,sans-Serif" font-size="10.00">+ removeRenderObject()</text>
<text text-anchor="start" x="190.5" y="-437.5" font-family="Helvetica,sans-Serif" font-size="10.00">+ rayCastQuery()</text>
<text text-anchor="start" x="190.5" y="-426.5" font-family="Helvetica,sans-Serif" font-size="10.00">+ canEdit()</text>
<text text-anchor="start" x="190.5" y="-415.5" font-family="Helvetica,sans-Serif" font-size="10.00">+ getTransform()</text>
<text text-anchor="start" x="190.5" y="-404.5" font-family="Helvetica,sans-Serif" font-size="10.00">+ setTransform()</text>
<text text-anchor="start" x="190.5" y="-393.5" font-family="Helvetica,sans-Serif" font-size="10.00">+ notifyRenderObjectExpired()</text>
<text text-anchor="start" x="190.5" y="-382.5" font-family="Helvetica,sans-Serif" font-size="10.00"># getRoMgr()</text>
</a>
</g>
</g>
<!-- Node3&#45;&gt;Node2 -->
<g id="edge2" class="edge"><title>Node3&#45;&gt;Node2</title>
<path fill="none" stroke="#404040" d="M189.637,-375.455C181.189,-362.783 172.69,-350.034 164.552,-337.828"/>
<polygon fill="none" stroke="#404040" points="164.468,-337.701 157.811,-334.928 157.811,-327.717 164.468,-330.49 164.468,-337.701"/>
<text text-anchor="middle" x="214" y="-349" font-family="Helvetica,sans-Serif" font-size="10.00"> +m_component</text>
</g>
<!-- Node4 -->
<g id="node4" class="node"><title>Node4</title>
<polygon fill="white" stroke="#bfbfbf" points="202.5,-943 202.5,-1011 309.5,-1011 309.5,-943 202.5,-943"/>
<text text-anchor="start" x="210.5" y="-999" font-family="Helvetica,sans-Serif" font-size="10.00">std::vector&lt; Core::</text>
<text text-anchor="middle" x="256" y="-988" font-family="Helvetica,sans-Serif" font-size="10.00">Index &gt;</text>
<polyline fill="none" stroke="#bfbfbf" points="202.5,-981 309.5,-981 "/>
<text text-anchor="middle" x="256" y="-969" font-family="Helvetica,sans-Serif" font-size="10.00"> </text>
<polyline fill="none" stroke="#bfbfbf" points="202.5,-962 309.5,-962 "/>
<text text-anchor="middle" x="256" y="-950" font-family="Helvetica,sans-Serif" font-size="10.00"> </text>
</g>
<!-- Node4&#45;&gt;Node3 -->
<g id="edge3" class="edge"><title>Node4&#45;&gt;Node3</title>
<path fill="none" stroke="#404040" d="M256.476,-942.807C257.439,-875.59 259.663,-720.385 261.246,-609.899"/>
<polygon fill="none" stroke="#404040" points="261.249,-609.668 257.336,-603.611 261.421,-597.669 265.335,-603.726 261.249,-609.668"/>
<text text-anchor="middle" x="308" y="-765" font-family="Helvetica,sans-Serif" font-size="10.00"> +m_renderObjects</text>
</g>
<!-- Node5 -->
<g id="node5" class="node"><title>Node5</title>
<g id="a_node5"><a xlink:href="classRa_1_1Core_1_1Index.html" target="_top" xlink:title="{Ra::Core::Index\n||+ Index()\l+ Index()\l+ isValid()\l+ isInvalid()\l+ setInvalid()\l+ getValue()\l+ setValue()\l+ operator int()\l+ operator=()\l+ operator++()\l+ operator&#45;&#45;()\l+ operator+()\l+ operator+()\l+ operator&#45;()\l+ operator&#45;()\l+ operator==()\l+ operator==()\l+ operator!=()\l+ operator!=()\l+ operator\&lt;()\l+ operator\&lt;()\l+ operator\&lt;=()\l+ operator\&lt;=()\l+ operator\&gt;()\l+ operator\&gt;()\l+ operator\&gt;=()\l+ operator\&gt;=()\l+ Invalid()\l+ Max()\l}">
<polygon fill="white" stroke="black" points="135.5,-1086.5 135.5,-1451.5 228.5,-1451.5 228.5,-1086.5 135.5,-1086.5"/>
<text text-anchor="middle" x="182" y="-1439.5" font-family="Helvetica,sans-Serif" font-size="10.00">Ra::Core::Index</text>
<polyline fill="none" stroke="black" points="135.5,-1432.5 228.5,-1432.5 "/>
<text text-anchor="middle" x="182" y="-1420.5" font-family="Helvetica,sans-Serif" font-size="10.00"> </text>
<polyline fill="none" stroke="black" points="135.5,-1413.5 228.5,-1413.5 "/>
<text text-anchor="start" x="143.5" y="-1401.5" font-family="Helvetica,sans-Serif" font-size="10.00">+ Index()</text>
<text text-anchor="start" x="143.5" y="-1390.5" font-family="Helvetica,sans-Serif" font-size="10.00">+ Index()</text>
<text text-anchor="start" x="143.5" y="-1379.5" font-family="Helvetica,sans-Serif" font-size="10.00">+ isValid()</text>
<text text-anchor="start" x="143.5" y="-1368.5" font-family="Helvetica,sans-Serif" font-size="10.00">+ isInvalid()</text>
<text text-anchor="start" x="143.5" y="-1357.5" font-family="Helvetica,sans-Serif" font-size="10.00">+ setInvalid()</text>
<text text-anchor="start" x="143.5" y="-1346.5" font-family="Helvetica,sans-Serif" font-size="10.00">+ getValue()</text>
<text text-anchor="start" x="143.5" y="-1335.5" font-family="Helvetica,sans-Serif" font-size="10.00">+ setValue()</text>
<text text-anchor="start" x="143.5" y="-1324.5" font-family="Helvetica,sans-Serif" font-size="10.00">+ operator int()</text>
<text text-anchor="start" x="143.5" y="-1313.5" font-family="Helvetica,sans-Serif" font-size="10.00">+ operator=()</text>
<text text-anchor="start" x="143.5" y="-1302.5" font-family="Helvetica,sans-Serif" font-size="10.00">+ operator++()</text>
<text text-anchor="start" x="143.5" y="-1291.5" font-family="Helvetica,sans-Serif" font-size="10.00">+ operator&#45;&#45;()</text>
<text text-anchor="start" x="143.5" y="-1280.5" font-family="Helvetica,sans-Serif" font-size="10.00">+ operator+()</text>
<text text-anchor="start" x="143.5" y="-1269.5" font-family="Helvetica,sans-Serif" font-size="10.00">+ operator+()</text>
<text text-anchor="start" x="143.5" y="-1258.5" font-family="Helvetica,sans-Serif" font-size="10.00">+ operator&#45;()</text>
<text text-anchor="start" x="143.5" y="-1247.5" font-family="Helvetica,sans-Serif" font-size="10.00">+ operator&#45;()</text>
<text text-anchor="start" x="143.5" y="-1236.5" font-family="Helvetica,sans-Serif" font-size="10.00">+ operator==()</text>
<text text-anchor="start" x="143.5" y="-1225.5" font-family="Helvetica,sans-Serif" font-size="10.00">+ operator==()</text>
<text text-anchor="start" x="143.5" y="-1214.5" font-family="Helvetica,sans-Serif" font-size="10.00">+ operator!=()</text>
<text text-anchor="start" x="143.5" y="-1203.5" font-family="Helvetica,sans-Serif" font-size="10.00">+ operator!=()</text>
<text text-anchor="start" x="143.5" y="-1192.5" font-family="Helvetica,sans-Serif" font-size="10.00">+ operator&lt;()</text>
<text text-anchor="start" x="143.5" y="-1181.5" font-family="Helvetica,sans-Serif" font-size="10.00">+ operator&lt;()</text>
<text text-anchor="start" x="143.5" y="-1170.5" font-family="Helvetica,sans-Serif" font-size="10.00">+ operator&lt;=()</text>
<text text-anchor="start" x="143.5" y="-1159.5" font-family="Helvetica,sans-Serif" font-size="10.00">+ operator&lt;=()</text>
<text text-anchor="start" x="143.5" y="-1148.5" font-family="Helvetica,sans-Serif" font-size="10.00">+ operator&gt;()</text>
<text text-anchor="start" x="143.5" y="-1137.5" font-family="Helvetica,sans-Serif" font-size="10.00">+ operator&gt;()</text>
<text text-anchor="start" x="143.5" y="-1126.5" font-family="Helvetica,sans-Serif" font-size="10.00">+ operator&gt;=()</text>
<text text-anchor="start" x="143.5" y="-1115.5" font-family="Helvetica,sans-Serif" font-size="10.00">+ operator&gt;=()</text>
<text text-anchor="start" x="143.5" y="-1104.5" font-family="Helvetica,sans-Serif" font-size="10.00">+ Invalid()</text>
<text text-anchor="start" x="143.5" y="-1093.5" font-family="Helvetica,sans-Serif" font-size="10.00">+ Max()</text>
</a>
</g>
</g>
<!-- Node5&#45;&gt;Node4 -->
<g id="edge4" class="edge"><title>Node5&#45;&gt;Node4</title>
<path fill="none" stroke="#404040" d="M181.464,-1086.32C185.235,-1068.53 190.584,-1051.11 198,-1035 200.286,-1030.03 203.209,-1025.26 206.522,-1020.75"/>
<polygon fill="none" stroke="#404040" points="206.684,-1020.55 207.405,-1013.37 214.305,-1011.28 213.584,-1018.45 206.684,-1020.55"/>
<text text-anchor="middle" x="226.5" y="-1049" font-family="Helvetica,sans-Serif" font-size="10.00"> +elements</text>
</g>
<!-- Node6 -->
<g id="node6" class="node"><title>Node6</title>
<polygon fill="white" stroke="#bfbfbf" points="167.5,-1499.5 167.5,-1556.5 196.5,-1556.5 196.5,-1499.5 167.5,-1499.5"/>
<text text-anchor="middle" x="182" y="-1544.5" font-family="Helvetica,sans-Serif" font-size="10.00">int</text>
<polyline fill="none" stroke="#bfbfbf" points="167.5,-1537.5 196.5,-1537.5 "/>
<text text-anchor="middle" x="182" y="-1525.5" font-family="Helvetica,sans-Serif" font-size="10.00"> </text>
<polyline fill="none" stroke="#bfbfbf" points="167.5,-1518.5 196.5,-1518.5 "/>
<text text-anchor="middle" x="182" y="-1506.5" font-family="Helvetica,sans-Serif" font-size="10.00"> </text>
</g>
<!-- Node6&#45;&gt;Node5 -->
<g id="edge5" class="edge"><title>Node6&#45;&gt;Node5</title>
<path fill="none" stroke="#404040" d="M182,-1499.5C182,-1489.53 182,-1477.38 182,-1463.92"/>
<polygon fill="none" stroke="#404040" points="182,-1463.77 178,-1457.77 182,-1451.77 186,-1457.77 182,-1463.77"/>
<text text-anchor="middle" x="202" y="-1473" font-family="Helvetica,sans-Serif" font-size="10.00"> #m_idx</text>
</g>
<!-- Node7 -->
<g id="node7" class="node"><title>Node7</title>
<g id="a_node7"><a xlink:title="STL class. ">
<polygon fill="white" stroke="#bfbfbf" points="281.5,-1240.5 281.5,-1297.5 376.5,-1297.5 376.5,-1240.5 281.5,-1240.5"/>
<text text-anchor="middle" x="329" y="-1285.5" font-family="Helvetica,sans-Serif" font-size="10.00">std::vector&lt; T &gt;</text>
<polyline fill="none" stroke="#bfbfbf" points="281.5,-1278.5 376.5,-1278.5 "/>
<text text-anchor="middle" x="329" y="-1266.5" font-family="Helvetica,sans-Serif" font-size="10.00"> </text>
<polyline fill="none" stroke="#bfbfbf" points="281.5,-1259.5 376.5,-1259.5 "/>
<text text-anchor="middle" x="329" y="-1247.5" font-family="Helvetica,sans-Serif" font-size="10.00"> </text>
</a>
</g>
</g>
<!-- Node7&#45;&gt;Node4 -->
<g id="edge6" class="edge"><title>Node7&#45;&gt;Node4</title>
<path fill="none" stroke="orange" d="M313.761,-1230.92C298.199,-1191.31 274.714,-1126.33 263,-1068 259.266,-1049.41 257.498,-1028.28 256.672,-1011.18"/>
<polygon fill="orange" stroke="orange" points="310.591,-1232.42 317.534,-1240.42 317.097,-1229.84 310.591,-1232.42"/>
<text text-anchor="middle" x="303" y="-1049" font-family="Helvetica,sans-Serif" font-size="10.00"> &lt; Core::Index &gt;</text>
</g>
<!-- Node10 -->
<g id="node10" class="node"><title>Node10</title>
<polygon fill="white" stroke="#bfbfbf" points="353,-937.5 353,-1016.5 527,-1016.5 527,-937.5 353,-937.5"/>
<text text-anchor="start" x="361" y="-1004.5" font-family="Helvetica,sans-Serif" font-size="10.00">std::vector&lt; std::pair</text>
<text text-anchor="start" x="361" y="-993.5" font-family="Helvetica,sans-Serif" font-size="10.00">&lt; const Ra::Engine::Entity</text>
<text text-anchor="middle" x="440" y="-982.5" font-family="Helvetica,sans-Serif" font-size="10.00"> *, Ra::Engine::Component * &gt; &gt;</text>
<polyline fill="none" stroke="#bfbfbf" points="353,-975.5 527,-975.5 "/>
<text text-anchor="middle" x="440" y="-963.5" font-family="Helvetica,sans-Serif" font-size="10.00"> </text>
<polyline fill="none" stroke="#bfbfbf" points="353,-956.5 527,-956.5 "/>
<text text-anchor="middle" x="440" y="-944.5" font-family="Helvetica,sans-Serif" font-size="10.00"> </text>
</g>
<!-- Node7&#45;&gt;Node10 -->
<g id="edge11" class="edge"><title>Node7&#45;&gt;Node10</title>
<path fill="none" stroke="orange" d="M325.724,-1230.15C323.339,-1181.45 325.491,-1095.88 362,-1035 365.968,-1028.38 371.028,-1022.3 376.661,-1016.78"/>
<polygon fill="orange" stroke="orange" points="322.237,-1230.47 326.311,-1240.25 329.225,-1230.07 322.237,-1230.47"/>
<text text-anchor="start" x="362" y="-1060" font-family="Helvetica,sans-Serif" font-size="10.00"> &lt; std::pair&lt; const</text>
<text text-anchor="start" x="362" y="-1049" font-family="Helvetica,sans-Serif" font-size="10.00"> Ra::Engine::Entity</text>
<text text-anchor="middle" x="441" y="-1038" font-family="Helvetica,sans-Serif" font-size="10.00"> *, Ra::Engine::Component * &gt; &gt;</text>
</g>
<!-- Node8 -->
<g id="node8" class="node"><title>Node8</title>
<polygon fill="white" stroke="#bfbfbf" points="314.5,-1499.5 314.5,-1556.5 343.5,-1556.5 343.5,-1499.5 314.5,-1499.5"/>
<text text-anchor="middle" x="329" y="-1544.5" font-family="Helvetica,sans-Serif" font-size="10.00">T</text>
<polyline fill="none" stroke="#bfbfbf" points="314.5,-1537.5 343.5,-1537.5 "/>
<text text-anchor="middle" x="329" y="-1525.5" font-family="Helvetica,sans-Serif" font-size="10.00"> </text>
<polyline fill="none" stroke="#bfbfbf" points="314.5,-1518.5 343.5,-1518.5 "/>
<text text-anchor="middle" x="329" y="-1506.5" font-family="Helvetica,sans-Serif" font-size="10.00"> </text>
</g>
<!-- Node8&#45;&gt;Node7 -->
<g id="edge7" class="edge"><title>Node8&#45;&gt;Node7</title>
<path fill="none" stroke="#404040" d="M329,-1499.5C329,-1453.92 329,-1362.55 329,-1309.88"/>
<polygon fill="none" stroke="#404040" points="329,-1309.69 325,-1303.69 329,-1297.69 333,-1303.69 329,-1309.69"/>
<text text-anchor="middle" x="357.5" y="-1473" font-family="Helvetica,sans-Serif" font-size="10.00"> +elements</text>
</g>
<!-- Node9 -->
<g id="node9" class="node"><title>Node9</title>
<g id="a_node9"><a xlink:href="classRa_1_1Engine_1_1System.html" target="_top" xlink:title="Systems are responsible of updating a specific subset of the components of each entity. ">
<polygon fill="white" stroke="black" points="368.5,-700.5 368.5,-834.5 525.5,-834.5 525.5,-700.5 368.5,-700.5"/>
<text text-anchor="middle" x="447" y="-822.5" font-family="Helvetica,sans-Serif" font-size="10.00">Ra::Engine::System</text>
<polyline fill="none" stroke="black" points="368.5,-815.5 525.5,-815.5 "/>
<text text-anchor="middle" x="447" y="-803.5" font-family="Helvetica,sans-Serif" font-size="10.00"> </text>
<polyline fill="none" stroke="black" points="368.5,-796.5 525.5,-796.5 "/>
<text text-anchor="start" x="376.5" y="-784.5" font-family="Helvetica,sans-Serif" font-size="10.00">+ System()</text>
<text text-anchor="start" x="376.5" y="-773.5" font-family="Helvetica,sans-Serif" font-size="10.00">+ ~System()</text>
<text text-anchor="start" x="376.5" y="-762.5" font-family="Helvetica,sans-Serif" font-size="10.00">+ handleAssetLoading()</text>
<text text-anchor="start" x="376.5" y="-751.5" font-family="Helvetica,sans-Serif" font-size="10.00">+ generateTasks()</text>
<text text-anchor="start" x="376.5" y="-740.5" font-family="Helvetica,sans-Serif" font-size="10.00">+ getEntityComponents()</text>
<text text-anchor="start" x="376.5" y="-729.5" font-family="Helvetica,sans-Serif" font-size="10.00"># registerComponent()</text>
<text text-anchor="start" x="376.5" y="-718.5" font-family="Helvetica,sans-Serif" font-size="10.00"># unregisterComponent()</text>
<text text-anchor="start" x="376.5" y="-707.5" font-family="Helvetica,sans-Serif" font-size="10.00"># unregisterAllComponents()</text>
</a>
</g>
</g>
<!-- Node9&#45;&gt;Node3 -->
<g id="edge8" class="edge"><title>Node9&#45;&gt;Node3</title>
<path fill="none" stroke="#404040" d="M403.395,-700.381C385.127,-672.681 363.3,-639.586 342.364,-607.839"/>
<polygon fill="none" stroke="#404040" points="342.21,-607.606 335.567,-604.799 335.603,-597.588 342.246,-600.395 342.21,-607.606"/>
<text text-anchor="middle" x="386" y="-619" font-family="Helvetica,sans-Serif" font-size="10.00"> #m_system</text>
</g>
<!-- Node10&#45;&gt;Node9 -->
<g id="edge9" class="edge"><title>Node10&#45;&gt;Node9</title>
<path fill="none" stroke="#404040" d="M441.3,-937.457C442.159,-912.004 443.315,-877.746 444.361,-846.731"/>
<polygon fill="none" stroke="#404040" points="444.366,-846.573 440.571,-840.442 444.771,-834.58 448.566,-840.711 444.366,-846.573"/>
<text text-anchor="middle" x="486.5" y="-911" font-family="Helvetica,sans-Serif" font-size="10.00"> #m_components</text>
</g>
<!-- Node11 -->
<g id="node11" class="node"><title>Node11</title>
<polygon fill="white" stroke="#bfbfbf" points="483.5,-1229.5 483.5,-1308.5 608.5,-1308.5 608.5,-1229.5 483.5,-1229.5"/>
<text text-anchor="start" x="491.5" y="-1296.5" font-family="Helvetica,sans-Serif" font-size="10.00">pair&lt; const Ra::Engine</text>
<text text-anchor="start" x="491.5" y="-1285.5" font-family="Helvetica,sans-Serif" font-size="10.00">::Entity *, Ra::Engine</text>
<text text-anchor="middle" x="546" y="-1274.5" font-family="Helvetica,sans-Serif" font-size="10.00">::Component * &gt;</text>
<polyline fill="none" stroke="#bfbfbf" points="483.5,-1267.5 608.5,-1267.5 "/>
<text text-anchor="middle" x="546" y="-1255.5" font-family="Helvetica,sans-Serif" font-size="10.00"> </text>
<polyline fill="none" stroke="#bfbfbf" points="483.5,-1248.5 608.5,-1248.5 "/>
<text text-anchor="middle" x="546" y="-1236.5" font-family="Helvetica,sans-Serif" font-size="10.00"> </text>
</g>
<!-- Node11&#45;&gt;Node10 -->
<g id="edge10" class="edge"><title>Node11&#45;&gt;Node10</title>
<path fill="none" stroke="#404040" d="M551.851,-1229.48C557.261,-1180.63 559.8,-1095.49 524,-1035 522.087,-1031.77 519.91,-1028.68 517.527,-1025.73"/>
<polygon fill="none" stroke="#404040" points="517.422,-1025.62 510.413,-1023.92 509.283,-1016.8 516.292,-1018.49 517.422,-1025.62"/>
<text text-anchor="middle" x="565.5" y="-1049" font-family="Helvetica,sans-Serif" font-size="10.00"> +elements</text>
</g>
<!-- Node12 -->
<g id="node12" class="node"><title>Node12</title>
<g id="a_node12"><a xlink:href="classRa_1_1Engine_1_1Entity.html" target="_top" xlink:title="An entity is an scene element. It ties together components with a transform. ">
<polygon fill="white" stroke="black" points="80,-645.5 80,-889.5 220,-889.5 220,-645.5 80,-645.5"/>
<text text-anchor="middle" x="150" y="-877.5" font-family="Helvetica,sans-Serif" font-size="10.00">Ra::Engine::Entity</text>
<polyline fill="none" stroke="black" points="80,-870.5 220,-870.5 "/>
<text text-anchor="middle" x="150" y="-858.5" font-family="Helvetica,sans-Serif" font-size="10.00"> </text>
<polyline fill="none" stroke="black" points="80,-851.5 220,-851.5 "/>
<text text-anchor="start" x="88" y="-839.5" font-family="Helvetica,sans-Serif" font-size="10.00">+ Entity()</text>
<text text-anchor="start" x="88" y="-828.5" font-family="Helvetica,sans-Serif" font-size="10.00">+ Entity()</text>
<text text-anchor="start" x="88" y="-817.5" font-family="Helvetica,sans-Serif" font-size="10.00">+ operator=()</text>
<text text-anchor="start" x="88" y="-806.5" font-family="Helvetica,sans-Serif" font-size="10.00">+ ~Entity()</text>
<text text-anchor="start" x="88" y="-795.5" font-family="Helvetica,sans-Serif" font-size="10.00">+ getName()</text>
<text text-anchor="start" x="88" y="-784.5" font-family="Helvetica,sans-Serif" font-size="10.00">+ rename()</text>
<text text-anchor="start" x="88" y="-773.5" font-family="Helvetica,sans-Serif" font-size="10.00">+ setTransform()</text>
<text text-anchor="start" x="88" y="-762.5" font-family="Helvetica,sans-Serif" font-size="10.00">+ setTransform()</text>
<text text-anchor="start" x="88" y="-751.5" font-family="Helvetica,sans-Serif" font-size="10.00">+ getTransform()</text>
<text text-anchor="start" x="88" y="-740.5" font-family="Helvetica,sans-Serif" font-size="10.00">+ getTransformAsMatrix()</text>
<text text-anchor="start" x="88" y="-729.5" font-family="Helvetica,sans-Serif" font-size="10.00">+ swapTransformBuffers()</text>
<text text-anchor="start" x="88" y="-718.5" font-family="Helvetica,sans-Serif" font-size="10.00">+ addComponent()</text>
<text text-anchor="start" x="88" y="-707.5" font-family="Helvetica,sans-Serif" font-size="10.00">+ removeComponent()</text>
<text text-anchor="start" x="88" y="-696.5" font-family="Helvetica,sans-Serif" font-size="10.00">+ getComponent()</text>
<text text-anchor="start" x="88" y="-685.5" font-family="Helvetica,sans-Serif" font-size="10.00">+ getComponent()</text>
<text text-anchor="start" x="88" y="-674.5" font-family="Helvetica,sans-Serif" font-size="10.00">+ getComponents()</text>
<text text-anchor="start" x="88" y="-663.5" font-family="Helvetica,sans-Serif" font-size="10.00">+ getNumComponents()</text>
<text text-anchor="start" x="88" y="-652.5" font-family="Helvetica,sans-Serif" font-size="10.00">+ rayCastQuery()</text>
</a>
</g>
</g>
<!-- Node12&#45;&gt;Node2 -->
<g id="edge17" class="edge"><title>Node12&#45;&gt;Node2</title>
<path fill="none" stroke="#404040" d="M125.38,-645.338C122.841,-629.469 120.608,-613.383 119,-598 109.828,-510.229 108.271,-409.138 108.579,-339.754"/>
<polygon fill="none" stroke="#404040" points="108.58,-339.608 104.617,-333.584 108.653,-327.609 112.617,-333.633 108.58,-339.608"/>
<text text-anchor="middle" x="146" y="-484" font-family="Helvetica,sans-Serif" font-size="10.00"> +m_entity</text>
</g>
<!-- Node12&#45;&gt;Node3 -->
<g id="edge12" class="edge"><title>Node12&#45;&gt;Node3</title>
<path fill="none" stroke="#404040" d="M177.441,-645.187C180.661,-635.199 184.178,-625.355 188,-616 189.012,-613.523 190.065,-611.036 191.154,-608.543"/>
<polygon fill="none" stroke="#404040" points="191.165,-608.518 190.014,-601.399 196.143,-597.599 197.294,-604.717 191.165,-608.518"/>
<text text-anchor="middle" x="215" y="-619" font-family="Helvetica,sans-Serif" font-size="10.00"> #m_entity</text>
</g>
<!-- Node13 -->
<g id="node13" class="node"><title>Node13</title>
<g id="a_node13"><a xlink:href="classRa_1_1Core_1_1IndexedObject.html" target="_top" xlink:title="{Ra::Core::IndexedObject\n||+ IndexedObject()\l+ IndexedObject()\l+ ~IndexedObject()\l}">
<polygon fill="white" stroke="black" points="41.5,-937.5 41.5,-1016.5 172.5,-1016.5 172.5,-937.5 41.5,-937.5"/>
<text text-anchor="middle" x="107" y="-1004.5" font-family="Helvetica,sans-Serif" font-size="10.00">Ra::Core::IndexedObject</text>
<polyline fill="none" stroke="black" points="41.5,-997.5 172.5,-997.5 "/>
<text text-anchor="middle" x="107" y="-985.5" font-family="Helvetica,sans-Serif" font-size="10.00"> </text>
<polyline fill="none" stroke="black" points="41.5,-978.5 172.5,-978.5 "/>
<text text-anchor="start" x="49.5" y="-966.5" font-family="Helvetica,sans-Serif" font-size="10.00">+ IndexedObject()</text>
<text text-anchor="start" x="49.5" y="-955.5" font-family="Helvetica,sans-Serif" font-size="10.00">+ IndexedObject()</text>
<text text-anchor="start" x="49.5" y="-944.5" font-family="Helvetica,sans-Serif" font-size="10.00">+ ~IndexedObject()</text>
</a>
</g>
</g>
<!-- Node13&#45;&gt;Node12 -->
<g id="edge13" class="edge"><title>Node13&#45;&gt;Node12</title>
<path fill="none" stroke="midnightblue" d="M117.031,-927.593C119.442,-915.958 122.126,-903.01 124.891,-889.667"/>
<polygon fill="none" stroke="midnightblue" points="113.589,-926.955 114.987,-937.457 120.444,-928.375 113.589,-926.955"/>
</g>
<!-- Node14 -->
<g id="node14" class="node"><title>Node14</title>
<polygon fill="white" stroke="#bfbfbf" points="32.5,-1240.5 32.5,-1297.5 67.5,-1297.5 67.5,-1240.5 32.5,-1240.5"/>
<text text-anchor="middle" x="50" y="-1285.5" font-family="Helvetica,sans-Serif" font-size="10.00">uint</text>
<polyline fill="none" stroke="#bfbfbf" points="32.5,-1278.5 67.5,-1278.5 "/>
<text text-anchor="middle" x="50" y="-1266.5" font-family="Helvetica,sans-Serif" font-size="10.00"> </text>
<polyline fill="none" stroke="#bfbfbf" points="32.5,-1259.5 67.5,-1259.5 "/>
<text text-anchor="middle" x="50" y="-1247.5" font-family="Helvetica,sans-Serif" font-size="10.00"> </text>
</g>
<!-- Node14&#45;&gt;Node2 -->
<g id="edge18" class="edge"><title>Node14&#45;&gt;Node2</title>
<path fill="none" stroke="#404040" d="M41.9666,-1240.28C27.8328,-1188.98 0,-1075.58 0,-978 0,-978 0,-978 0,-485.5 0,-433.057 23.6457,-379.91 49.0109,-337.985"/>
<polygon fill="none" stroke="#404040" points="49.1471,-337.766 48.9183,-330.558 55.4834,-327.575 55.7122,-334.782 49.1471,-337.766"/>
<text text-anchor="middle" x="31" y="-765" font-family="Helvetica,sans-Serif" font-size="10.00"> +m_roIndex</text>
</g>
<!-- Node14&#45;&gt;Node13 -->
<g id="edge14" class="edge"><title>Node14&#45;&gt;Node13</title>
<path fill="none" stroke="#404040" d="M55.4138,-1240.46C64.9552,-1191.91 84.898,-1090.45 97.0012,-1028.87"/>
<polygon fill="none" stroke="#404040" points="97.0707,-1028.52 94.303,-1021.86 99.3851,-1016.74 102.153,-1023.4 97.0707,-1028.52"/>
<text text-anchor="middle" x="107.5" y="-1049" font-family="Helvetica,sans-Serif" font-size="10.00"> +idx</text>
</g>
<!-- Node15 -->
<g id="node15" class="node"><title>Node15</title>
<g id="a_node15"><a xlink:title="STL class. ">
<polygon fill="white" stroke="#bfbfbf" points="557.5,-739 557.5,-796 622.5,-796 622.5,-739 557.5,-739"/>
<text text-anchor="middle" x="590" y="-784" font-family="Helvetica,sans-Serif" font-size="10.00">std::string</text>
<polyline fill="none" stroke="#bfbfbf" points="557.5,-777 622.5,-777 "/>
<text text-anchor="middle" x="590" y="-765" font-family="Helvetica,sans-Serif" font-size="10.00"> </text>
<polyline fill="none" stroke="#bfbfbf" points="557.5,-758 622.5,-758 "/>
<text text-anchor="middle" x="590" y="-746" font-family="Helvetica,sans-Serif" font-size="10.00"> </text>
</a>
</g>
</g>
<!-- Node15&#45;&gt;Node3 -->
<g id="edge15" class="edge"><title>Node15&#45;&gt;Node3</title>
<path fill="none" stroke="#404040" d="M582.858,-738.894C574.84,-712.304 559.624,-672.213 535,-645 485.556,-590.358 412.585,-549.537 354.669,-523.16"/>
<polygon fill="none" stroke="#404040" points="354.623,-523.14 347.513,-524.342 343.669,-518.241 350.779,-517.039 354.623,-523.14"/>
<text text-anchor="middle" x="545.5" y="-619" font-family="Helvetica,sans-Serif" font-size="10.00"> #m_name</text>
</g>
<!-- Node16 -->
<g id="node16" class="node"><title>Node16</title>
<g id="a_node16"><a xlink:title="STL class. ">
<polygon fill="white" stroke="#bfbfbf" points="545.5,-943 545.5,-1011 648.5,-1011 648.5,-943 545.5,-943"/>
<text text-anchor="start" x="553.5" y="-999" font-family="Helvetica,sans-Serif" font-size="10.00">std::basic_string&lt;</text>
<text text-anchor="middle" x="597" y="-988" font-family="Helvetica,sans-Serif" font-size="10.00"> char &gt;</text>
<polyline fill="none" stroke="#bfbfbf" points="545.5,-981 648.5,-981 "/>
<text text-anchor="middle" x="597" y="-969" font-family="Helvetica,sans-Serif" font-size="10.00"> </text>
<polyline fill="none" stroke="#bfbfbf" points="545.5,-962 648.5,-962 "/>
<text text-anchor="middle" x="597" y="-950" font-family="Helvetica,sans-Serif" font-size="10.00"> </text>
</a>
</g>
</g>
<!-- Node16&#45;&gt;Node15 -->
<g id="edge16" class="edge"><title>Node16&#45;&gt;Node15</title>
<path fill="none" stroke="midnightblue" d="M595.538,-932.657C594.151,-891.551 592.11,-831.033 590.932,-796.113"/>
<polygon fill="none" stroke="midnightblue" points="592.04,-932.785 595.875,-942.662 599.036,-932.549 592.04,-932.785"/>
</g>
<!-- Node17 -->
<g id="node17" class="node"><title>Node17</title>
<polygon fill="white" stroke="#bfbfbf" points="191,-221 191,-289 299,-289 299,-221 191,-221"/>
<text text-anchor="start" x="199" y="-277" font-family="Helvetica,sans-Serif" font-size="10.00">Transform&lt; Scalar,</text>
<text text-anchor="middle" x="245" y="-266" font-family="Helvetica,sans-Serif" font-size="10.00"> 3, Eigen::Affine &gt;</text>
<polyline fill="none" stroke="#bfbfbf" points="191,-259 299,-259 "/>
<text text-anchor="middle" x="245" y="-247" font-family="Helvetica,sans-Serif" font-size="10.00"> </text>
<polyline fill="none" stroke="#bfbfbf" points="191,-240 299,-240 "/>
<text text-anchor="middle" x="245" y="-228" font-family="Helvetica,sans-Serif" font-size="10.00"> </text>
</g>
<!-- Node17&#45;&gt;Node1 -->
<g id="edge19" class="edge"><title>Node17&#45;&gt;Node1</title>
<path fill="none" stroke="#404040" d="M235.703,-220.836C229.902,-200.141 222.177,-172.583 214.893,-146.598"/>
<polygon fill="none" stroke="#404040" points="214.825,-146.355 209.354,-141.658 211.586,-134.801 217.057,-139.498 214.825,-146.355"/>
<text text-anchor="middle" x="256" y="-156" font-family="Helvetica,sans-Serif" font-size="10.00"> #m_transform</text>
</g>
</g>
</svg>
