<?xml version="1.0" encoding="UTF-8" standalone="no"?>
<!DOCTYPE svg PUBLIC "-//W3C//DTD SVG 1.1//EN"
 "http://www.w3.org/Graphics/SVG/1.1/DTD/svg11.dtd">
<!-- Generated by graphviz version 2.38.0 (20140413.2041)
 -->
<!-- Title: Ra::Core::QuadraSpline::QuadraSpline Pages: 1 -->
<svg width="294pt" height="154pt"
 viewBox="0.00 0.00 294.00 153.50" xmlns="http://www.w3.org/2000/svg" xmlns:xlink="http://www.w3.org/1999/xlink">
<g id="graph0" class="graph" transform="scale(1 1) rotate(0) translate(4 149.5)">
<title>Ra::Core::QuadraSpline::QuadraSpline</title>
<polygon fill="white" stroke="none" points="-4,4 -4,-149.5 290,-149.5 290,4 -4,4"/>
<!-- Node1 -->
<g id="node1" class="node"><title>Node1</title>
<polygon fill="#bfbfbf" stroke="black" points="0,-52 0,-82 128,-82 128,-52 0,-52"/>
<text text-anchor="start" x="8" y="-70" font-family="Helvetica,sans-Serif" font-size="10.00">Ra::Core::QuadraSpline</text>
<text text-anchor="middle" x="64" y="-59" font-family="Helvetica,sans-Serif" font-size="10.00">::QuadraSpline</text>
</g>
<!-- Node2 -->
<g id="node2" class="node"><title>Node2</title>
<g id="a_node2"><a xlink:href="classRa_1_1Core_1_1Curve2D.html#a3330cd162c6173792b077135c09d3de7" target="_top" xlink:title="Ra::Core::Curve2D::\laddPoint">
<polygon fill="white" stroke="black" points="170,-115 170,-145 280,-145 280,-115 170,-115"/>
<text text-anchor="start" x="178" y="-133" font-family="Helvetica,sans-Serif" font-size="10.00">Ra::Core::Curve2D::</text>
<text text-anchor="middle" x="225" y="-122" font-family="Helvetica,sans-Serif" font-size="10.00">addPoint</text>
</a>
</g>
</g>
<!-- Node1&#45;&gt;Node2 -->
<g id="edge1" class="edge"><title>Node1&#45;&gt;Node2</title>
<path fill="none" stroke="midnightblue" d="M103.084,-82.0901C125.128,-90.8245 153.067,-101.894 176.533,-111.192"/>
<polygon fill="midnightblue" stroke="midnightblue" points="175.365,-114.494 185.951,-114.924 177.944,-107.986 175.365,-114.494"/>
</g>
<!-- Node3 -->
<g id="node3" class="node"><title>Node3</title>
<g id="a_node3"><a xlink:href="classRa_1_1Core_1_1Curve2D.html#aacb0519a398646bd414c34f17b228f85" target="_top" xlink:title="Ra::Core::Curve2D::f">
<polygon fill="white" stroke="black" points="168.5,-76.5 168.5,-95.5 281.5,-95.5 281.5,-76.5 168.5,-76.5"/>
<text text-anchor="middle" x="225" y="-83.5" font-family="Helvetica,sans-Serif" font-size="10.00">Ra::Core::Curve2D::f</text>
</a>
</g>
</g>
<!-- Node1&#45;&gt;Node3 -->
<g id="edge2" class="edge"><title>Node1&#45;&gt;Node3</title>
<path fill="none" stroke="midnightblue" d="M128.298,-74.5639C138.132,-75.739 148.311,-76.9554 158.199,-78.137"/>
<polygon fill="midnightblue" stroke="midnightblue" points="158.027,-81.6412 168.371,-79.3525 158.857,-74.6906 158.027,-81.6412"/>
</g>
<!-- Node4 -->
<g id="node4" class="node"><title>Node4</title>
<g id="a_node4"><a xlink:href="classRa_1_1Core_1_1Curve2D.html#ae75adef03007861ba249b4fb9dc83c4b" target="_top" xlink:title="Ra::Core::Curve2D::df">
<polygon fill="white" stroke="black" points="165.5,-38.5 165.5,-57.5 284.5,-57.5 284.5,-38.5 165.5,-38.5"/>
<text text-anchor="middle" x="225" y="-45.5" font-family="Helvetica,sans-Serif" font-size="10.00">Ra::Core::Curve2D::df</text>
</a>
</g>
</g>
<!-- Node1&#45;&gt;Node4 -->
<g id="edge3" class="edge"><title>Node1&#45;&gt;Node4</title>
<path fill="none" stroke="midnightblue" d="M128.298,-59.4361C137.17,-58.3759 146.323,-57.2822 155.289,-56.2107"/>
<polygon fill="midnightblue" stroke="midnightblue" points="155.795,-59.6753 165.309,-55.0134 154.964,-52.7248 155.795,-59.6753"/>
</g>
<!-- Node5 -->
<g id="node5" class="node"><title>Node5</title>
<g id="a_node5"><a xlink:href="classRa_1_1Core_1_1Curve2D.html#a01294ddfb352aff37a1d9d1bfd9061ed" target="_top" xlink:title="Ra::Core::Curve2D::fdf">
<polygon fill="white" stroke="black" points="164,-0.5 164,-19.5 286,-19.5 286,-0.5 164,-0.5"/>
<text text-anchor="middle" x="225" y="-7.5" font-family="Helvetica,sans-Serif" font-size="10.00">Ra::Core::Curve2D::fdf</text>
</a>
</g>
</g>
<!-- Node1&#45;&gt;Node5 -->
<g id="edge4" class="edge"><title>Node1&#45;&gt;Node5</title>
<path fill="none" stroke="midnightblue" d="M102.883,-51.8487C121.243,-44.6626 143.669,-36.1139 164,-29 170.091,-26.8686 176.566,-24.7094 182.922,-22.6486"/>
<polygon fill="midnightblue" stroke="midnightblue" points="184.282,-25.8883 192.742,-19.5094 182.151,-19.2208 184.282,-25.8883"/>
</g>
</g>
</svg>
