<?xml version="1.0" encoding="UTF-8" standalone="no"?>
<!DOCTYPE svg PUBLIC "-//W3C//DTD SVG 1.1//EN"
 "http://www.w3.org/Graphics/SVG/1.1/DTD/svg11.dtd">
<!-- Generated by graphviz version 2.38.0 (20140413.2041)
 -->
<!-- Title: Ra::Core::Geometry::VariationalShapeApproximationBase::init Pages: 1 -->
<svg width="680pt" height="187pt"
 viewBox="0.00 0.00 680.00 186.50" xmlns="http://www.w3.org/2000/svg" xmlns:xlink="http://www.w3.org/1999/xlink">
<g id="graph0" class="graph" transform="scale(1 1) rotate(0) translate(4 182.5)">
<title>Ra::Core::Geometry::VariationalShapeApproximationBase::init</title>
<polygon fill="white" stroke="none" points="-4,4 -4,-182.5 676,-182.5 676,4 -4,4"/>
<!-- Node1 -->
<g id="node1" class="node"><title>Node1</title>
<polygon fill="#bfbfbf" stroke="black" points="0,-107 0,-148 173,-148 173,-107 0,-107"/>
<text text-anchor="start" x="8" y="-136" font-family="Helvetica,sans-Serif" font-size="10.00">Ra::Core::Geometry</text>
<text text-anchor="start" x="8" y="-125" font-family="Helvetica,sans-Serif" font-size="10.00">::VariationalShapeApproximation</text>
<text text-anchor="middle" x="86.5" y="-114" font-family="Helvetica,sans-Serif" font-size="10.00">Base::init</text>
</g>
<!-- Node2 -->
<g id="node2" class="node"><title>Node2</title>
<g id="a_node2"><a xlink:href="classRa_1_1Core_1_1Geometry_1_1VariationalShapeApproximationBase.html#a5b90173c86e9f5a7b2c5e41632a5f309" target="_top" xlink:title="Initialize the mesh properties and the algorithm data. ">
<polygon fill="white" stroke="black" points="209,-77 209,-118 382,-118 382,-77 209,-77"/>
<text text-anchor="start" x="217" y="-106" font-family="Helvetica,sans-Serif" font-size="10.00">Ra::Core::Geometry</text>
<text text-anchor="start" x="217" y="-95" font-family="Helvetica,sans-Serif" font-size="10.00">::VariationalShapeApproximation</text>
<text text-anchor="middle" x="295.5" y="-84" font-family="Helvetica,sans-Serif" font-size="10.00">Base::compute_data</text>
</a>
</g>
</g>
<!-- Node1&#45;&gt;Node2 -->
<g id="edge1" class="edge"><title>Node1&#45;&gt;Node2</title>
<path fill="none" stroke="midnightblue" d="M173.189,-115.081C181.663,-113.853 190.301,-112.601 198.867,-111.36"/>
<polygon fill="midnightblue" stroke="midnightblue" points="199.481,-114.808 208.875,-109.909 198.477,-107.88 199.481,-114.808"/>
</g>
<!-- Node9 -->
<g id="node9" class="node"><title>Node9</title>
<g id="a_node9"><a xlink:href="classRa_1_1Core_1_1Geometry_1_1VariationalShapeApproximationBase.html#ae24c0e2e570295f414ca753ea6f4c005" target="_top" xlink:title="Computes the seed triangles in a randomized fashion way. ">
<polygon fill="white" stroke="black" points="209,-137 209,-178 382,-178 382,-137 209,-137"/>
<text text-anchor="start" x="217" y="-166" font-family="Helvetica,sans-Serif" font-size="10.00">Ra::Core::Geometry</text>
<text text-anchor="start" x="217" y="-155" font-family="Helvetica,sans-Serif" font-size="10.00">::VariationalShapeApproximation</text>
<text text-anchor="middle" x="295.5" y="-144" font-family="Helvetica,sans-Serif" font-size="10.00">Base::compute_seed</text>
</a>
</g>
</g>
<!-- Node1&#45;&gt;Node9 -->
<g id="edge9" class="edge"><title>Node1&#45;&gt;Node9</title>
<path fill="none" stroke="midnightblue" d="M173.189,-139.919C181.663,-141.147 190.301,-142.399 198.867,-143.64"/>
<polygon fill="midnightblue" stroke="midnightblue" points="198.477,-147.12 208.875,-145.091 199.481,-140.192 198.477,-147.12"/>
</g>
<!-- Node3 -->
<g id="node3" class="node"><title>Node3</title>
<g id="a_node3"><a xlink:href="namespaceRa_1_1Core_1_1Algorithm.html#aea294cdb6f4f0d85955bdcccb22886ec" target="_top" xlink:title="Ra::Core::Algorithm::t">
<polygon fill="white" stroke="black" points="418,-148 418,-167 537,-167 537,-148 418,-148"/>
<text text-anchor="middle" x="477.5" y="-155" font-family="Helvetica,sans-Serif" font-size="10.00">Ra::Core::Algorithm::t</text>
</a>
</g>
</g>
<!-- Node2&#45;&gt;Node3 -->
<g id="edge2" class="edge"><title>Node2&#45;&gt;Node3</title>
<path fill="none" stroke="midnightblue" d="M357.02,-118.074C376.476,-124.647 398.134,-131.922 418,-138.5 424.187,-140.549 430.749,-142.7 437.155,-144.789"/>
<polygon fill="midnightblue" stroke="midnightblue" points="436.426,-148.233 447.018,-147.997 438.591,-141.576 436.426,-148.233"/>
</g>
<!-- Node4 -->
<g id="node4" class="node"><title>Node4</title>
<g id="a_node4"><a xlink:href="namespaceRa_1_1Core_1_1Geometry.html#ad0460aa2e5611fa18161c285cfd6237e" target="_top" xlink:title="Ra::Core::Geometry\l::triangleBarycenter">
<polygon fill="white" stroke="black" points="422,-98.5 422,-128.5 533,-128.5 533,-98.5 422,-98.5"/>
<text text-anchor="start" x="430" y="-116.5" font-family="Helvetica,sans-Serif" font-size="10.00">Ra::Core::Geometry</text>
<text text-anchor="middle" x="477.5" y="-105.5" font-family="Helvetica,sans-Serif" font-size="10.00">::triangleBarycenter</text>
</a>
</g>
</g>
<!-- Node2&#45;&gt;Node4 -->
<g id="edge3" class="edge"><title>Node2&#45;&gt;Node4</title>
<path fill="none" stroke="midnightblue" d="M382.019,-105.102C391.945,-105.984 401.943,-106.873 411.53,-107.725"/>
<polygon fill="midnightblue" stroke="midnightblue" points="411.477,-111.234 421.748,-108.633 412.097,-104.261 411.477,-111.234"/>
</g>
<!-- Node5 -->
<g id="node5" class="node"><title>Node5</title>
<g id="a_node5"><a xlink:href="namespaceRa_1_1Core_1_1Geometry.html#a2ce97206423345716bf1b55f60c1c227" target="_top" xlink:title="Ra::Core::Geometry\l::triangleNormal">
<polygon fill="white" stroke="black" points="422,-49.5 422,-79.5 533,-79.5 533,-49.5 422,-49.5"/>
<text text-anchor="start" x="430" y="-67.5" font-family="Helvetica,sans-Serif" font-size="10.00">Ra::Core::Geometry</text>
<text text-anchor="middle" x="477.5" y="-56.5" font-family="Helvetica,sans-Serif" font-size="10.00">::triangleNormal</text>
</a>
</g>
</g>
<!-- Node2&#45;&gt;Node5 -->
<g id="edge4" class="edge"><title>Node2&#45;&gt;Node5</title>
<path fill="none" stroke="midnightblue" d="M382.019,-81.8215C392.05,-79.9824 402.156,-78.1298 411.836,-76.3551"/>
<polygon fill="midnightblue" stroke="midnightblue" points="412.543,-79.7838 421.748,-74.5379 411.281,-72.8986 412.543,-79.7838"/>
</g>
<!-- Node7 -->
<g id="node7" class="node"><title>Node7</title>
<g id="a_node7"><a xlink:href="namespaceRa_1_1Core_1_1Geometry.html#a178f2b7309fe2ea5bc31a3abcb25368e" target="_top" xlink:title="Ra::Core::Geometry\l::triangleArea">
<polygon fill="white" stroke="black" points="422,-0.5 422,-30.5 533,-30.5 533,-0.5 422,-0.5"/>
<text text-anchor="start" x="430" y="-18.5" font-family="Helvetica,sans-Serif" font-size="10.00">Ra::Core::Geometry</text>
<text text-anchor="middle" x="477.5" y="-7.5" font-family="Helvetica,sans-Serif" font-size="10.00">::triangleArea</text>
</a>
</g>
</g>
<!-- Node2&#45;&gt;Node7 -->
<g id="edge6" class="edge"><title>Node2&#45;&gt;Node7</title>
<path fill="none" stroke="midnightblue" d="M338.124,-76.9199C361.46,-65.5616 391.184,-51.3903 418,-39.5 421.782,-37.823 425.719,-36.1197 429.682,-34.434"/>
<polygon fill="midnightblue" stroke="midnightblue" points="431.054,-37.6538 438.918,-30.5538 428.343,-31.2001 431.054,-37.6538"/>
</g>
<!-- Node6 -->
<g id="node6" class="node"><title>Node6</title>
<g id="a_node6"><a xlink:href="namespaceOpenMesh.html#a71e7f1dd3eac016d2b8245ac408a291c" target="_top" xlink:title="OpenMesh::cross">
<polygon fill="white" stroke="black" points="573,-49 573,-68 672,-68 672,-49 573,-49"/>
<text text-anchor="middle" x="622.5" y="-56" font-family="Helvetica,sans-Serif" font-size="10.00">OpenMesh::cross</text>
</a>
</g>
</g>
<!-- Node5&#45;&gt;Node6 -->
<g id="edge5" class="edge"><title>Node5&#45;&gt;Node6</title>
<path fill="none" stroke="midnightblue" d="M533.379,-62.1974C542.865,-61.7994 552.764,-61.384 562.357,-60.9815"/>
<polygon fill="midnightblue" stroke="midnightblue" points="562.768,-64.4675 572.613,-60.5512 562.475,-57.4736 562.768,-64.4675"/>
</g>
<!-- Node7&#45;&gt;Node6 -->
<g id="edge7" class="edge"><title>Node7&#45;&gt;Node6</title>
<path fill="none" stroke="midnightblue" d="M528.514,-30.5393C545.322,-35.5934 563.877,-41.1727 579.961,-46.0093"/>
<polygon fill="midnightblue" stroke="midnightblue" points="579.035,-49.3856 589.619,-48.9135 581.051,-42.6821 579.035,-49.3856"/>
</g>
<!-- Node8 -->
<g id="node8" class="node"><title>Node8</title>
<g id="a_node8"><a xlink:href="namespaceOpenMesh.html#a8205f789ce08919bc11c58383574596c" target="_top" xlink:title="OpenMesh::norm">
<polygon fill="white" stroke="black" points="573,-6 573,-25 672,-25 672,-6 573,-6"/>
<text text-anchor="middle" x="622.5" y="-13" font-family="Helvetica,sans-Serif" font-size="10.00">OpenMesh::norm</text>
</a>
</g>
</g>
<!-- Node7&#45;&gt;Node8 -->
<g id="edge8" class="edge"><title>Node7&#45;&gt;Node8</title>
<path fill="none" stroke="midnightblue" d="M533.379,-15.5C542.865,-15.5 552.764,-15.5 562.357,-15.5"/>
<polygon fill="midnightblue" stroke="midnightblue" points="562.613,-19.0001 572.613,-15.5 562.612,-12.0001 562.613,-19.0001"/>
</g>
<!-- Node9&#45;&gt;Node3 -->
<g id="edge10" class="edge"><title>Node9&#45;&gt;Node3</title>
<path fill="none" stroke="midnightblue" d="M382.019,-157.5C390.661,-157.5 399.357,-157.5 407.789,-157.5"/>
<polygon fill="midnightblue" stroke="midnightblue" points="407.922,-161 417.922,-157.5 407.922,-154 407.922,-161"/>
</g>
</g>
</svg>
