<?xml version="1.0" encoding="UTF-8" standalone="no"?>
<!DOCTYPE svg PUBLIC "-//W3C//DTD SVG 1.1//EN"
 "http://www.w3.org/Graphics/SVG/1.1/DTD/svg11.dtd">
<!-- Generated by graphviz version 2.38.0 (20140413.2041)
 -->
<!-- Title: MeshFeatureTrackingPlugin::MeshFeatureTrackingComponent Pages: 1 -->
<svg width="941pt" height="1926pt"
 viewBox="0.00 0.00 940.73 1926.00" xmlns="http://www.w3.org/2000/svg" xmlns:xlink="http://www.w3.org/1999/xlink">
<g id="graph0" class="graph" transform="scale(1 1) rotate(0) translate(4 1922)">
<title>MeshFeatureTrackingPlugin::MeshFeatureTrackingComponent</title>
<polygon fill="white" stroke="none" points="-4,4 -4,-1922 936.727,-1922 936.727,4 -4,4"/>
<!-- Node1 -->
<g id="node1" class="node"><title>Node1</title>
<polygon fill="#bfbfbf" stroke="black" points="208.727,-0.5 208.727,-222.5 408.727,-222.5 408.727,-0.5 208.727,-0.5"/>
<text text-anchor="start" x="216.727" y="-210.5" font-family="Helvetica,sans-Serif" font-size="10.00">MeshFeatureTrackingPlugin</text>
<text text-anchor="middle" x="308.727" y="-199.5" font-family="Helvetica,sans-Serif" font-size="10.00">::MeshFeatureTrackingComponent</text>
<polyline fill="none" stroke="black" points="208.727,-192.5 408.727,-192.5 "/>
<text text-anchor="middle" x="308.727" y="-180.5" font-family="Helvetica,sans-Serif" font-size="10.00"> </text>
<polyline fill="none" stroke="black" points="208.727,-173.5 408.727,-173.5 "/>
<text text-anchor="start" x="216.727" y="-161.5" font-family="Helvetica,sans-Serif" font-size="10.00">+ MeshFeatureTrackingComponent()</text>
<text text-anchor="start" x="216.727" y="-150.5" font-family="Helvetica,sans-Serif" font-size="10.00">+ ~MeshFeatureTrackingComponent()</text>
<text text-anchor="start" x="216.727" y="-139.5" font-family="Helvetica,sans-Serif" font-size="10.00">+ initialize()</text>
<text text-anchor="start" x="216.727" y="-128.5" font-family="Helvetica,sans-Serif" font-size="10.00">+ setData()</text>
<text text-anchor="start" x="216.727" y="-117.5" font-family="Helvetica,sans-Serif" font-size="10.00">+ setVertexIdx()</text>
<text text-anchor="start" x="216.727" y="-106.5" font-family="Helvetica,sans-Serif" font-size="10.00">+ setTriangleIdx()</text>
<text text-anchor="start" x="216.727" y="-95.5" font-family="Helvetica,sans-Serif" font-size="10.00">+ update()</text>
<text text-anchor="start" x="216.727" y="-84.5" font-family="Helvetica,sans-Serif" font-size="10.00">+ getMaxV()</text>
<text text-anchor="start" x="216.727" y="-73.5" font-family="Helvetica,sans-Serif" font-size="10.00">+ getMaxT()</text>
<text text-anchor="start" x="216.727" y="-62.5" font-family="Helvetica,sans-Serif" font-size="10.00">+ getFeatureData()</text>
<text text-anchor="start" x="216.727" y="-51.5" font-family="Helvetica,sans-Serif" font-size="10.00">+ getFeatureScale()</text>
<text text-anchor="start" x="216.727" y="-40.5" font-family="Helvetica,sans-Serif" font-size="10.00">+ getFeatureVector()</text>
<text text-anchor="start" x="216.727" y="-29.5" font-family="Helvetica,sans-Serif" font-size="10.00">+ getFeaturePosition()</text>
<text text-anchor="start" x="216.727" y="-18.5" font-family="Helvetica,sans-Serif" font-size="10.00">+ setPosition()</text>
<text text-anchor="start" x="216.727" y="-7.5" font-family="Helvetica,sans-Serif" font-size="10.00">+ setScale()</text>
</g>
<!-- Node2 -->
<g id="node2" class="node"><title>Node2</title>
<g id="a_node2"><a xlink:href="classRa_1_1Engine_1_1Component.html" target="_top" xlink:title="A component is an element that can be updated by a system. ">
<polygon fill="white" stroke="black" points="375.227,-260.5 375.227,-482.5 536.227,-482.5 536.227,-260.5 375.227,-260.5"/>
<text text-anchor="middle" x="455.727" y="-470.5" font-family="Helvetica,sans-Serif" font-size="10.00">Ra::Engine::Component</text>
<polyline fill="none" stroke="black" points="375.227,-463.5 536.227,-463.5 "/>
<text text-anchor="middle" x="455.727" y="-451.5" font-family="Helvetica,sans-Serif" font-size="10.00"> </text>
<polyline fill="none" stroke="black" points="375.227,-444.5 536.227,-444.5 "/>
<text text-anchor="start" x="383.227" y="-432.5" font-family="Helvetica,sans-Serif" font-size="10.00">+ Component()</text>
<text text-anchor="start" x="383.227" y="-421.5" font-family="Helvetica,sans-Serif" font-size="10.00">+ ~Component()</text>
<text text-anchor="start" x="383.227" y="-410.5" font-family="Helvetica,sans-Serif" font-size="10.00">+ initialize()</text>
<text text-anchor="start" x="383.227" y="-399.5" font-family="Helvetica,sans-Serif" font-size="10.00">+ setEntity()</text>
<text text-anchor="start" x="383.227" y="-388.5" font-family="Helvetica,sans-Serif" font-size="10.00">+ getEntity()</text>
<text text-anchor="start" x="383.227" y="-377.5" font-family="Helvetica,sans-Serif" font-size="10.00">+ getName()</text>
<text text-anchor="start" x="383.227" y="-366.5" font-family="Helvetica,sans-Serif" font-size="10.00">+ setSystem()</text>
<text text-anchor="start" x="383.227" y="-355.5" font-family="Helvetica,sans-Serif" font-size="10.00">+ getSystem()</text>
<text text-anchor="start" x="383.227" y="-344.5" font-family="Helvetica,sans-Serif" font-size="10.00">+ addRenderObject()</text>
<text text-anchor="start" x="383.227" y="-333.5" font-family="Helvetica,sans-Serif" font-size="10.00">+ removeRenderObject()</text>
<text text-anchor="start" x="383.227" y="-322.5" font-family="Helvetica,sans-Serif" font-size="10.00">+ rayCastQuery()</text>
<text text-anchor="start" x="383.227" y="-311.5" font-family="Helvetica,sans-Serif" font-size="10.00">+ canEdit()</text>
<text text-anchor="start" x="383.227" y="-300.5" font-family="Helvetica,sans-Serif" font-size="10.00">+ getTransform()</text>
<text text-anchor="start" x="383.227" y="-289.5" font-family="Helvetica,sans-Serif" font-size="10.00">+ setTransform()</text>
<text text-anchor="start" x="383.227" y="-278.5" font-family="Helvetica,sans-Serif" font-size="10.00">+ notifyRenderObjectExpired()</text>
<text text-anchor="start" x="383.227" y="-267.5" font-family="Helvetica,sans-Serif" font-size="10.00"># getRoMgr()</text>
</a>
</g>
</g>
<!-- Node2&#45;&gt;Node1 -->
<g id="edge1" class="edge"><title>Node2&#45;&gt;Node1</title>
<path fill="none" stroke="midnightblue" d="M387.948,-251.54C382.473,-241.932 376.956,-232.249 371.519,-222.706"/>
<polygon fill="none" stroke="midnightblue" points="384.968,-253.38 392.96,-260.336 391.05,-249.915 384.968,-253.38"/>
</g>
<!-- Node3 -->
<g id="node3" class="node"><title>Node3</title>
<polygon fill="white" stroke="#bfbfbf" points="552.227,-1094.5 552.227,-1162.5 659.227,-1162.5 659.227,-1094.5 552.227,-1094.5"/>
<text text-anchor="start" x="560.227" y="-1150.5" font-family="Helvetica,sans-Serif" font-size="10.00">std::vector&lt; Core::</text>
<text text-anchor="middle" x="605.727" y="-1139.5" font-family="Helvetica,sans-Serif" font-size="10.00">Index &gt;</text>
<polyline fill="none" stroke="#bfbfbf" points="552.227,-1132.5 659.227,-1132.5 "/>
<text text-anchor="middle" x="605.727" y="-1120.5" font-family="Helvetica,sans-Serif" font-size="10.00"> </text>
<polyline fill="none" stroke="#bfbfbf" points="552.227,-1113.5 659.227,-1113.5 "/>
<text text-anchor="middle" x="605.727" y="-1101.5" font-family="Helvetica,sans-Serif" font-size="10.00"> </text>
</g>
<!-- Node3&#45;&gt;Node2 -->
<g id="edge2" class="edge"><title>Node3&#45;&gt;Node2</title>
<path fill="none" stroke="#404040" d="M601.172,-1094.24C597.308,-1065.98 591.627,-1024.33 586.727,-988 557.548,-771.594 587.006,-709.378 521.727,-501 521.01,-498.711 520.255,-496.415 519.465,-494.113"/>
<polygon fill="none" stroke="#404040" points="519.37,-493.854 513.551,-489.596 515.243,-482.586 521.063,-486.845 519.37,-493.854"/>
<text text-anchor="middle" x="633.727" y="-742" font-family="Helvetica,sans-Serif" font-size="10.00"> +m_renderObjects</text>
</g>
<!-- Node4 -->
<g id="node4" class="node"><title>Node4</title>
<g id="a_node4"><a xlink:href="classRa_1_1Core_1_1Index.html" target="_top" xlink:title="{Ra::Core::Index\n||+ Index()\l+ Index()\l+ isValid()\l+ isInvalid()\l+ setInvalid()\l+ getValue()\l+ setValue()\l+ operator int()\l+ operator=()\l+ operator++()\l+ operator&#45;&#45;()\l+ operator+()\l+ operator+()\l+ operator&#45;()\l+ operator&#45;()\l+ operator==()\l+ operator==()\l+ operator!=()\l+ operator!=()\l+ operator\&lt;()\l+ operator\&lt;()\l+ operator\&lt;=()\l+ operator\&lt;=()\l+ operator\&gt;()\l+ operator\&gt;()\l+ operator\&gt;=()\l+ operator\&gt;=()\l+ Invalid()\l+ Max()\l}">
<polygon fill="white" stroke="black" points="376.227,-1298.5 376.227,-1663.5 469.227,-1663.5 469.227,-1298.5 376.227,-1298.5"/>
<text text-anchor="middle" x="422.727" y="-1651.5" font-family="Helvetica,sans-Serif" font-size="10.00">Ra::Core::Index</text>
<polyline fill="none" stroke="black" points="376.227,-1644.5 469.227,-1644.5 "/>
<text text-anchor="middle" x="422.727" y="-1632.5" font-family="Helvetica,sans-Serif" font-size="10.00"> </text>
<polyline fill="none" stroke="black" points="376.227,-1625.5 469.227,-1625.5 "/>
<text text-anchor="start" x="384.227" y="-1613.5" font-family="Helvetica,sans-Serif" font-size="10.00">+ Index()</text>
<text text-anchor="start" x="384.227" y="-1602.5" font-family="Helvetica,sans-Serif" font-size="10.00">+ Index()</text>
<text text-anchor="start" x="384.227" y="-1591.5" font-family="Helvetica,sans-Serif" font-size="10.00">+ isValid()</text>
<text text-anchor="start" x="384.227" y="-1580.5" font-family="Helvetica,sans-Serif" font-size="10.00">+ isInvalid()</text>
<text text-anchor="start" x="384.227" y="-1569.5" font-family="Helvetica,sans-Serif" font-size="10.00">+ setInvalid()</text>
<text text-anchor="start" x="384.227" y="-1558.5" font-family="Helvetica,sans-Serif" font-size="10.00">+ getValue()</text>
<text text-anchor="start" x="384.227" y="-1547.5" font-family="Helvetica,sans-Serif" font-size="10.00">+ setValue()</text>
<text text-anchor="start" x="384.227" y="-1536.5" font-family="Helvetica,sans-Serif" font-size="10.00">+ operator int()</text>
<text text-anchor="start" x="384.227" y="-1525.5" font-family="Helvetica,sans-Serif" font-size="10.00">+ operator=()</text>
<text text-anchor="start" x="384.227" y="-1514.5" font-family="Helvetica,sans-Serif" font-size="10.00">+ operator++()</text>
<text text-anchor="start" x="384.227" y="-1503.5" font-family="Helvetica,sans-Serif" font-size="10.00">+ operator&#45;&#45;()</text>
<text text-anchor="start" x="384.227" y="-1492.5" font-family="Helvetica,sans-Serif" font-size="10.00">+ operator+()</text>
<text text-anchor="start" x="384.227" y="-1481.5" font-family="Helvetica,sans-Serif" font-size="10.00">+ operator+()</text>
<text text-anchor="start" x="384.227" y="-1470.5" font-family="Helvetica,sans-Serif" font-size="10.00">+ operator&#45;()</text>
<text text-anchor="start" x="384.227" y="-1459.5" font-family="Helvetica,sans-Serif" font-size="10.00">+ operator&#45;()</text>
<text text-anchor="start" x="384.227" y="-1448.5" font-family="Helvetica,sans-Serif" font-size="10.00">+ operator==()</text>
<text text-anchor="start" x="384.227" y="-1437.5" font-family="Helvetica,sans-Serif" font-size="10.00">+ operator==()</text>
<text text-anchor="start" x="384.227" y="-1426.5" font-family="Helvetica,sans-Serif" font-size="10.00">+ operator!=()</text>
<text text-anchor="start" x="384.227" y="-1415.5" font-family="Helvetica,sans-Serif" font-size="10.00">+ operator!=()</text>
<text text-anchor="start" x="384.227" y="-1404.5" font-family="Helvetica,sans-Serif" font-size="10.00">+ operator&lt;()</text>
<text text-anchor="start" x="384.227" y="-1393.5" font-family="Helvetica,sans-Serif" font-size="10.00">+ operator&lt;()</text>
<text text-anchor="start" x="384.227" y="-1382.5" font-family="Helvetica,sans-Serif" font-size="10.00">+ operator&lt;=()</text>
<text text-anchor="start" x="384.227" y="-1371.5" font-family="Helvetica,sans-Serif" font-size="10.00">+ operator&lt;=()</text>
<text text-anchor="start" x="384.227" y="-1360.5" font-family="Helvetica,sans-Serif" font-size="10.00">+ operator&gt;()</text>
<text text-anchor="start" x="384.227" y="-1349.5" font-family="Helvetica,sans-Serif" font-size="10.00">+ operator&gt;()</text>
<text text-anchor="start" x="384.227" y="-1338.5" font-family="Helvetica,sans-Serif" font-size="10.00">+ operator&gt;=()</text>
<text text-anchor="start" x="384.227" y="-1327.5" font-family="Helvetica,sans-Serif" font-size="10.00">+ operator&gt;=()</text>
<text text-anchor="start" x="384.227" y="-1316.5" font-family="Helvetica,sans-Serif" font-size="10.00">+ Invalid()</text>
<text text-anchor="start" x="384.227" y="-1305.5" font-family="Helvetica,sans-Serif" font-size="10.00">+ Max()</text>
</a>
</g>
</g>
<!-- Node4&#45;&gt;Node3 -->
<g id="edge3" class="edge"><title>Node4&#45;&gt;Node3</title>
<path fill="none" stroke="#404040" d="M469.409,-1307.57C472.33,-1304.21 475.433,-1301.01 478.727,-1298 507.231,-1271.95 535.569,-1306.43 563.727,-1280 592.317,-1253.17 602.012,-1208.66 605.034,-1174.99"/>
<polygon fill="none" stroke="#404040" points="605.058,-1174.65 601.484,-1168.38 605.891,-1162.68 609.465,-1168.94 605.058,-1174.65"/>
<text text-anchor="middle" x="601.227" y="-1272" font-family="Helvetica,sans-Serif" font-size="10.00"> +elements</text>
</g>
<!-- Node5 -->
<g id="node5" class="node"><title>Node5</title>
<polygon fill="white" stroke="#bfbfbf" points="151.227,-1744.5 151.227,-1801.5 180.227,-1801.5 180.227,-1744.5 151.227,-1744.5"/>
<text text-anchor="middle" x="165.727" y="-1789.5" font-family="Helvetica,sans-Serif" font-size="10.00">int</text>
<polyline fill="none" stroke="#bfbfbf" points="151.227,-1782.5 180.227,-1782.5 "/>
<text text-anchor="middle" x="165.727" y="-1770.5" font-family="Helvetica,sans-Serif" font-size="10.00"> </text>
<polyline fill="none" stroke="#bfbfbf" points="151.227,-1763.5 180.227,-1763.5 "/>
<text text-anchor="middle" x="165.727" y="-1751.5" font-family="Helvetica,sans-Serif" font-size="10.00"> </text>
</g>
<!-- Node5&#45;&gt;Node1 -->
<g id="edge22" class="edge"><title>Node5&#45;&gt;Node1</title>
<path fill="none" stroke="#404040" d="M152.26,-1744.36C149.257,-1740.12 145.747,-1736.12 141.727,-1733 120.405,-1716.45 107.379,-1728 83.7274,-1715 53.0589,-1698.14 40.0489,-1694.96 23.7274,-1664 -14.2002,-1592.06 4.72736,-1563.33 4.72736,-1482 4.72736,-1482 4.72736,-1482 4.72736,-370.5 4.72736,-265.946 110.55,-194.956 197.324,-154.32"/>
<polygon fill="none" stroke="#404040" points="197.434,-154.269 201.223,-148.134 208.344,-149.272 204.555,-155.407 197.434,-154.269"/>
<text text-anchor="middle" x="45.7274" y="-1126" font-family="Helvetica,sans-Serif" font-size="10.00"> +m_pickedRoIdx</text>
</g>
<!-- Node5&#45;&gt;Node4 -->
<g id="edge4" class="edge"><title>Node5&#45;&gt;Node4</title>
<path fill="none" stroke="#404040" d="M180.34,-1768.32C217.287,-1758.25 315.153,-1726.73 366.727,-1664 367.462,-1663.11 368.187,-1662.2 368.903,-1661.29"/>
<polygon fill="none" stroke="#404040" points="369.181,-1660.91 369.456,-1653.7 376.214,-1651.18 375.938,-1658.39 369.181,-1660.91"/>
<text text-anchor="middle" x="365.727" y="-1696" font-family="Helvetica,sans-Serif" font-size="10.00"> #m_idx</text>
</g>
<!-- Node17 -->
<g id="node17" class="node"><title>Node17</title>
<polygon fill="white" stroke="#bfbfbf" points="33.2274,-1452.5 33.2274,-1509.5 142.227,-1509.5 142.227,-1452.5 33.2274,-1452.5"/>
<text text-anchor="middle" x="87.7274" y="-1497.5" font-family="Helvetica,sans-Serif" font-size="10.00">std::array&lt; int, 4 &gt;</text>
<polyline fill="none" stroke="#bfbfbf" points="33.2274,-1490.5 142.227,-1490.5 "/>
<text text-anchor="middle" x="87.7274" y="-1478.5" font-family="Helvetica,sans-Serif" font-size="10.00"> </text>
<polyline fill="none" stroke="#bfbfbf" points="33.2274,-1471.5 142.227,-1471.5 "/>
<text text-anchor="middle" x="87.7274" y="-1459.5" font-family="Helvetica,sans-Serif" font-size="10.00"> </text>
</g>
<!-- Node5&#45;&gt;Node17 -->
<g id="edge18" class="edge"><title>Node5&#45;&gt;Node17</title>
<path fill="none" stroke="#404040" d="M158.319,-1744.46C144.438,-1692.85 114.467,-1581.42 98.4059,-1521.7"/>
<polygon fill="none" stroke="#404040" points="98.3173,-1521.37 92.8961,-1516.62 95.2004,-1509.78 100.622,-1514.54 98.3173,-1521.37"/>
<text text-anchor="middle" x="178.227" y="-1696" font-family="Helvetica,sans-Serif" font-size="10.00"> +elements</text>
</g>
<!-- Node6 -->
<g id="node6" class="node"><title>Node6</title>
<g id="a_node6"><a xlink:title="STL class. ">
<polygon fill="white" stroke="#bfbfbf" points="501.227,-1744.5 501.227,-1801.5 596.227,-1801.5 596.227,-1744.5 501.227,-1744.5"/>
<text text-anchor="middle" x="548.727" y="-1789.5" font-family="Helvetica,sans-Serif" font-size="10.00">std::vector&lt; T &gt;</text>
<polyline fill="none" stroke="#bfbfbf" points="501.227,-1782.5 596.227,-1782.5 "/>
<text text-anchor="middle" x="548.727" y="-1770.5" font-family="Helvetica,sans-Serif" font-size="10.00"> </text>
<polyline fill="none" stroke="#bfbfbf" points="501.227,-1763.5 596.227,-1763.5 "/>
<text text-anchor="middle" x="548.727" y="-1751.5" font-family="Helvetica,sans-Serif" font-size="10.00"> </text>
</a>
</g>
</g>
<!-- Node6&#45;&gt;Node3 -->
<g id="edge5" class="edge"><title>Node6&#45;&gt;Node3</title>
<path fill="none" stroke="orange" d="M606.176,-1762.95C634.592,-1755.25 666.431,-1741.08 683.727,-1715 687.177,-1709.8 708.662,-1484.18 670.727,-1298 660.774,-1249.15 638.11,-1195.98 622.364,-1162.7"/>
<polygon fill="orange" stroke="orange" points="605.156,-1759.59 596.298,-1765.41 606.847,-1766.39 605.156,-1759.59"/>
<text text-anchor="middle" x="732.727" y="-1478.5" font-family="Helvetica,sans-Serif" font-size="10.00"> &lt; Core::Index &gt;</text>
</g>
<!-- Node9 -->
<g id="node9" class="node"><title>Node9</title>
<polygon fill="white" stroke="#bfbfbf" points="487.727,-1441.5 487.727,-1520.5 661.727,-1520.5 661.727,-1441.5 487.727,-1441.5"/>
<text text-anchor="start" x="495.727" y="-1508.5" font-family="Helvetica,sans-Serif" font-size="10.00">std::vector&lt; std::pair</text>
<text text-anchor="start" x="495.727" y="-1497.5" font-family="Helvetica,sans-Serif" font-size="10.00">&lt; const Ra::Engine::Entity</text>
<text text-anchor="middle" x="574.727" y="-1486.5" font-family="Helvetica,sans-Serif" font-size="10.00"> *, Ra::Engine::Component * &gt; &gt;</text>
<polyline fill="none" stroke="#bfbfbf" points="487.727,-1479.5 661.727,-1479.5 "/>
<text text-anchor="middle" x="574.727" y="-1467.5" font-family="Helvetica,sans-Serif" font-size="10.00"> </text>
<polyline fill="none" stroke="#bfbfbf" points="487.727,-1460.5 661.727,-1460.5 "/>
<text text-anchor="middle" x="574.727" y="-1448.5" font-family="Helvetica,sans-Serif" font-size="10.00"> </text>
</g>
<!-- Node6&#45;&gt;Node9 -->
<g id="edge10" class="edge"><title>Node6&#45;&gt;Node9</title>
<path fill="none" stroke="orange" d="M531.259,-1734.5C528.967,-1728.12 526.982,-1721.46 525.727,-1715 522.932,-1700.6 523.97,-1696.56 525.727,-1682 532.625,-1624.86 550.227,-1560.49 562.342,-1520.58"/>
<polygon fill="orange" stroke="orange" points="528.16,-1736.19 535.05,-1744.24 534.683,-1733.65 528.16,-1736.19"/>
<text text-anchor="start" x="525.727" y="-1707" font-family="Helvetica,sans-Serif" font-size="10.00"> &lt; std::pair&lt; const</text>
<text text-anchor="start" x="525.727" y="-1696" font-family="Helvetica,sans-Serif" font-size="10.00"> Ra::Engine::Entity</text>
<text text-anchor="middle" x="604.727" y="-1685" font-family="Helvetica,sans-Serif" font-size="10.00"> *, Ra::Engine::Component * &gt; &gt;</text>
</g>
<!-- Node7 -->
<g id="node7" class="node"><title>Node7</title>
<polygon fill="white" stroke="#bfbfbf" points="350.227,-1860.5 350.227,-1917.5 379.227,-1917.5 379.227,-1860.5 350.227,-1860.5"/>
<text text-anchor="middle" x="364.727" y="-1905.5" font-family="Helvetica,sans-Serif" font-size="10.00">T</text>
<polyline fill="none" stroke="#bfbfbf" points="350.227,-1898.5 379.227,-1898.5 "/>
<text text-anchor="middle" x="364.727" y="-1886.5" font-family="Helvetica,sans-Serif" font-size="10.00"> </text>
<polyline fill="none" stroke="#bfbfbf" points="350.227,-1879.5 379.227,-1879.5 "/>
<text text-anchor="middle" x="364.727" y="-1867.5" font-family="Helvetica,sans-Serif" font-size="10.00"> </text>
</g>
<!-- Node7&#45;&gt;Node6 -->
<g id="edge6" class="edge"><title>Node7&#45;&gt;Node6</title>
<path fill="none" stroke="#404040" d="M379.393,-1879.76C403.236,-1866.27 451.762,-1838.43 491.727,-1813 494.117,-1811.48 496.551,-1809.91 499.001,-1808.31"/>
<polygon fill="none" stroke="#404040" points="499.088,-1808.25 501.878,-1801.6 509.089,-1801.62 506.299,-1808.27 499.088,-1808.25"/>
<text text-anchor="middle" x="490.227" y="-1834" font-family="Helvetica,sans-Serif" font-size="10.00"> +elements</text>
</g>
<!-- Node18 -->
<g id="node18" class="node"><title>Node18</title>
<g id="a_node18"><a xlink:title="STL class. ">
<polygon fill="white" stroke="#bfbfbf" points="42.7274,-1744.5 42.7274,-1801.5 132.727,-1801.5 132.727,-1744.5 42.7274,-1744.5"/>
<text text-anchor="middle" x="87.7274" y="-1789.5" font-family="Helvetica,sans-Serif" font-size="10.00">std::array&lt; T &gt;</text>
<polyline fill="none" stroke="#bfbfbf" points="42.7274,-1782.5 132.727,-1782.5 "/>
<text text-anchor="middle" x="87.7274" y="-1770.5" font-family="Helvetica,sans-Serif" font-size="10.00"> </text>
<polyline fill="none" stroke="#bfbfbf" points="42.7274,-1763.5 132.727,-1763.5 "/>
<text text-anchor="middle" x="87.7274" y="-1751.5" font-family="Helvetica,sans-Serif" font-size="10.00"> </text>
</a>
</g>
</g>
<!-- Node7&#45;&gt;Node18 -->
<g id="edge20" class="edge"><title>Node7&#45;&gt;Node18</title>
<path fill="none" stroke="#404040" d="M350.035,-1884.69C313.439,-1876.11 215.83,-1851.11 141.727,-1813 138.838,-1811.51 135.933,-1809.88 133.049,-1808.16"/>
<polygon fill="none" stroke="#404040" points="132.886,-1808.06 125.677,-1808.2 122.774,-1801.6 129.984,-1801.46 132.886,-1808.06"/>
<text text-anchor="middle" x="235.227" y="-1834" font-family="Helvetica,sans-Serif" font-size="10.00"> +elements</text>
</g>
<!-- Node8 -->
<g id="node8" class="node"><title>Node8</title>
<g id="a_node8"><a xlink:href="classRa_1_1Engine_1_1System.html" target="_top" xlink:title="Systems are responsible of updating a specific subset of the components of each entity. ">
<polygon fill="white" stroke="black" points="377.227,-1061.5 377.227,-1195.5 534.227,-1195.5 534.227,-1061.5 377.227,-1061.5"/>
<text text-anchor="middle" x="455.727" y="-1183.5" font-family="Helvetica,sans-Serif" font-size="10.00">Ra::Engine::System</text>
<polyline fill="none" stroke="black" points="377.227,-1176.5 534.227,-1176.5 "/>
<text text-anchor="middle" x="455.727" y="-1164.5" font-family="Helvetica,sans-Serif" font-size="10.00"> </text>
<polyline fill="none" stroke="black" points="377.227,-1157.5 534.227,-1157.5 "/>
<text text-anchor="start" x="385.227" y="-1145.5" font-family="Helvetica,sans-Serif" font-size="10.00">+ System()</text>
<text text-anchor="start" x="385.227" y="-1134.5" font-family="Helvetica,sans-Serif" font-size="10.00">+ ~System()</text>
<text text-anchor="start" x="385.227" y="-1123.5" font-family="Helvetica,sans-Serif" font-size="10.00">+ handleAssetLoading()</text>
<text text-anchor="start" x="385.227" y="-1112.5" font-family="Helvetica,sans-Serif" font-size="10.00">+ generateTasks()</text>
<text text-anchor="start" x="385.227" y="-1101.5" font-family="Helvetica,sans-Serif" font-size="10.00">+ getEntityComponents()</text>
<text text-anchor="start" x="385.227" y="-1090.5" font-family="Helvetica,sans-Serif" font-size="10.00"># registerComponent()</text>
<text text-anchor="start" x="385.227" y="-1079.5" font-family="Helvetica,sans-Serif" font-size="10.00"># unregisterComponent()</text>
<text text-anchor="start" x="385.227" y="-1068.5" font-family="Helvetica,sans-Serif" font-size="10.00"># unregisterAllComponents()</text>
</a>
</g>
</g>
<!-- Node8&#45;&gt;Node2 -->
<g id="edge7" class="edge"><title>Node8&#45;&gt;Node2</title>
<path fill="none" stroke="#404040" d="M455.727,-1061.49C455.727,-934.989 455.727,-656.666 455.727,-495.14"/>
<polygon fill="none" stroke="#404040" points="455.727,-494.759 451.727,-488.759 455.727,-482.759 459.727,-488.759 455.727,-494.759"/>
<text text-anchor="middle" x="486.727" y="-742" font-family="Helvetica,sans-Serif" font-size="10.00"> #m_system</text>
</g>
<!-- Node9&#45;&gt;Node8 -->
<g id="edge8" class="edge"><title>Node9&#45;&gt;Node8</title>
<path fill="none" stroke="#404040" d="M551.147,-1441.31C528.383,-1402.1 494.784,-1338.97 476.727,-1280 469.69,-1257.02 465.001,-1231.33 461.882,-1207.77"/>
<polygon fill="none" stroke="#404040" points="461.858,-1207.58 457.154,-1202.12 460.389,-1195.67 465.094,-1201.14 461.858,-1207.58"/>
<text text-anchor="middle" x="520.227" y="-1272" font-family="Helvetica,sans-Serif" font-size="10.00"> #m_components</text>
</g>
<!-- Node10 -->
<g id="node10" class="node"><title>Node10</title>
<polygon fill="white" stroke="#bfbfbf" points="358.227,-1733.5 358.227,-1812.5 483.227,-1812.5 483.227,-1733.5 358.227,-1733.5"/>
<text text-anchor="start" x="366.227" y="-1800.5" font-family="Helvetica,sans-Serif" font-size="10.00">pair&lt; const Ra::Engine</text>
<text text-anchor="start" x="366.227" y="-1789.5" font-family="Helvetica,sans-Serif" font-size="10.00">::Entity *, Ra::Engine</text>
<text text-anchor="middle" x="420.727" y="-1778.5" font-family="Helvetica,sans-Serif" font-size="10.00">::Component * &gt;</text>
<polyline fill="none" stroke="#bfbfbf" points="358.227,-1771.5 483.227,-1771.5 "/>
<text text-anchor="middle" x="420.727" y="-1759.5" font-family="Helvetica,sans-Serif" font-size="10.00"> </text>
<polyline fill="none" stroke="#bfbfbf" points="358.227,-1752.5 483.227,-1752.5 "/>
<text text-anchor="middle" x="420.727" y="-1740.5" font-family="Helvetica,sans-Serif" font-size="10.00"> </text>
</g>
<!-- Node10&#45;&gt;Node9 -->
<g id="edge9" class="edge"><title>Node10&#45;&gt;Node9</title>
<path fill="none" stroke="#404040" d="M436.964,-1733.38C444.369,-1717.1 453.716,-1698.21 463.727,-1682 469.054,-1673.38 472.213,-1672.5 477.727,-1664 505.624,-1620.99 532.66,-1569.15 551.071,-1531.82"/>
<polygon fill="none" stroke="#404040" points="551.225,-1531.51 550.269,-1524.36 556.499,-1520.73 557.455,-1527.87 551.225,-1531.51"/>
<text text-anchor="middle" x="492.227" y="-1696" font-family="Helvetica,sans-Serif" font-size="10.00"> +elements</text>
</g>
<!-- Node11 -->
<g id="node11" class="node"><title>Node11</title>
<g id="a_node11"><a xlink:href="classRa_1_1Engine_1_1Entity.html" target="_top" xlink:title="An entity is an scene element. It ties together components with a transform. ">
<polygon fill="white" stroke="black" points="686.727,-1006.5 686.727,-1250.5 826.727,-1250.5 826.727,-1006.5 686.727,-1006.5"/>
<text text-anchor="middle" x="756.727" y="-1238.5" font-family="Helvetica,sans-Serif" font-size="10.00">Ra::Engine::Entity</text>
<polyline fill="none" stroke="black" points="686.727,-1231.5 826.727,-1231.5 "/>
<text text-anchor="middle" x="756.727" y="-1219.5" font-family="Helvetica,sans-Serif" font-size="10.00"> </text>
<polyline fill="none" stroke="black" points="686.727,-1212.5 826.727,-1212.5 "/>
<text text-anchor="start" x="694.727" y="-1200.5" font-family="Helvetica,sans-Serif" font-size="10.00">+ Entity()</text>
<text text-anchor="start" x="694.727" y="-1189.5" font-family="Helvetica,sans-Serif" font-size="10.00">+ Entity()</text>
<text text-anchor="start" x="694.727" y="-1178.5" font-family="Helvetica,sans-Serif" font-size="10.00">+ operator=()</text>
<text text-anchor="start" x="694.727" y="-1167.5" font-family="Helvetica,sans-Serif" font-size="10.00">+ ~Entity()</text>
<text text-anchor="start" x="694.727" y="-1156.5" font-family="Helvetica,sans-Serif" font-size="10.00">+ getName()</text>
<text text-anchor="start" x="694.727" y="-1145.5" font-family="Helvetica,sans-Serif" font-size="10.00">+ rename()</text>
<text text-anchor="start" x="694.727" y="-1134.5" font-family="Helvetica,sans-Serif" font-size="10.00">+ setTransform()</text>
<text text-anchor="start" x="694.727" y="-1123.5" font-family="Helvetica,sans-Serif" font-size="10.00">+ setTransform()</text>
<text text-anchor="start" x="694.727" y="-1112.5" font-family="Helvetica,sans-Serif" font-size="10.00">+ getTransform()</text>
<text text-anchor="start" x="694.727" y="-1101.5" font-family="Helvetica,sans-Serif" font-size="10.00">+ getTransformAsMatrix()</text>
<text text-anchor="start" x="694.727" y="-1090.5" font-family="Helvetica,sans-Serif" font-size="10.00">+ swapTransformBuffers()</text>
<text text-anchor="start" x="694.727" y="-1079.5" font-family="Helvetica,sans-Serif" font-size="10.00">+ addComponent()</text>
<text text-anchor="start" x="694.727" y="-1068.5" font-family="Helvetica,sans-Serif" font-size="10.00">+ removeComponent()</text>
<text text-anchor="start" x="694.727" y="-1057.5" font-family="Helvetica,sans-Serif" font-size="10.00">+ getComponent()</text>
<text text-anchor="start" x="694.727" y="-1046.5" font-family="Helvetica,sans-Serif" font-size="10.00">+ getComponent()</text>
<text text-anchor="start" x="694.727" y="-1035.5" font-family="Helvetica,sans-Serif" font-size="10.00">+ getComponents()</text>
<text text-anchor="start" x="694.727" y="-1024.5" font-family="Helvetica,sans-Serif" font-size="10.00">+ getNumComponents()</text>
<text text-anchor="start" x="694.727" y="-1013.5" font-family="Helvetica,sans-Serif" font-size="10.00">+ rayCastQuery()</text>
</a>
</g>
</g>
<!-- Node11&#45;&gt;Node2 -->
<g id="edge11" class="edge"><title>Node11&#45;&gt;Node2</title>
<path fill="none" stroke="#404040" d="M710.031,-1006.39C708.414,-1000.22 706.962,-994.064 705.727,-988 694.916,-934.907 709.121,-547.147 680.727,-501 650.992,-452.673 595.934,-420.773 547.727,-400.845"/>
<polygon fill="none" stroke="#404040" points="547.428,-400.725 540.373,-402.218 536.282,-396.28 543.337,-394.787 547.428,-400.725"/>
<text text-anchor="middle" x="732.727" y="-742" font-family="Helvetica,sans-Serif" font-size="10.00"> #m_entity</text>
</g>
<!-- Node12 -->
<g id="node12" class="node"><title>Node12</title>
<g id="a_node12"><a xlink:href="classRa_1_1Core_1_1IndexedObject.html" target="_top" xlink:title="{Ra::Core::IndexedObject\n||+ IndexedObject()\l+ IndexedObject()\l+ ~IndexedObject()\l}">
<polygon fill="white" stroke="black" points="796.227,-1441.5 796.227,-1520.5 927.227,-1520.5 927.227,-1441.5 796.227,-1441.5"/>
<text text-anchor="middle" x="861.727" y="-1508.5" font-family="Helvetica,sans-Serif" font-size="10.00">Ra::Core::IndexedObject</text>
<polyline fill="none" stroke="black" points="796.227,-1501.5 927.227,-1501.5 "/>
<text text-anchor="middle" x="861.727" y="-1489.5" font-family="Helvetica,sans-Serif" font-size="10.00"> </text>
<polyline fill="none" stroke="black" points="796.227,-1482.5 927.227,-1482.5 "/>
<text text-anchor="start" x="804.227" y="-1470.5" font-family="Helvetica,sans-Serif" font-size="10.00">+ IndexedObject()</text>
<text text-anchor="start" x="804.227" y="-1459.5" font-family="Helvetica,sans-Serif" font-size="10.00">+ IndexedObject()</text>
<text text-anchor="start" x="804.227" y="-1448.5" font-family="Helvetica,sans-Serif" font-size="10.00">+ ~IndexedObject()</text>
</a>
</g>
</g>
<!-- Node12&#45;&gt;Node11 -->
<g id="edge12" class="edge"><title>Node12&#45;&gt;Node11</title>
<path fill="none" stroke="midnightblue" d="M847.249,-1431.67C833.303,-1385.12 811.636,-1312.79 792.997,-1250.57"/>
<polygon fill="none" stroke="midnightblue" points="843.968,-1432.91 850.19,-1441.49 850.673,-1430.9 843.968,-1432.91"/>
</g>
<!-- Node20 -->
<g id="node20" class="node"><title>Node20</title>
<g id="a_node20"><a xlink:href="classRa_1_1Engine_1_1RenderObject.html" target="_top" xlink:title="{Ra::Engine::RenderObject\n||+ RenderObject()\l+ ~RenderObject()\l+ updateGL()\l+ getName()\l+ getComponent()\l+ getComponent()\l+ getType()\l+ setType()\l+ setVisible()\l+ toggleVisible()\l+ isVisible()\l+ setPickable()\l+ togglePickable()\l+ isPickable()\l+ setXRay()\l+ toggleXRay()\l+ isXRay()\l+ setTransparent()\l+ toggleTransparent()\l+ isTransparent()\l+ isDirty()\l+ setRenderTechnique()\l+ getRenderTechnique()\l+ getRenderTechnique()\l+ setMesh()\l+ getMesh()\l+ getMesh()\l+ getTransform()\l+ getTransformAsMatrix()\l+ getAabb()\l+ getMeshAabb()\l+ setLocalTransform()\l+ setLocalTransform()\l+ getLocalTransform()\l+ getLocalTransformAsMatrix()\l+ hasBeenRenderedOnce()\l+ hasExpired()\l+ render()\l+ render()\l+ createRenderObject()\l}">
<polygon fill="white" stroke="black" points="768.727,-501.5 768.727,-987.5 932.727,-987.5 932.727,-501.5 768.727,-501.5"/>
<text text-anchor="middle" x="850.727" y="-975.5" font-family="Helvetica,sans-Serif" font-size="10.00">Ra::Engine::RenderObject</text>
<polyline fill="none" stroke="black" points="768.727,-968.5 932.727,-968.5 "/>
<text text-anchor="middle" x="850.727" y="-956.5" font-family="Helvetica,sans-Serif" font-size="10.00"> </text>
<polyline fill="none" stroke="black" points="768.727,-949.5 932.727,-949.5 "/>
<text text-anchor="start" x="776.727" y="-937.5" font-family="Helvetica,sans-Serif" font-size="10.00">+ RenderObject()</text>
<text text-anchor="start" x="776.727" y="-926.5" font-family="Helvetica,sans-Serif" font-size="10.00">+ ~RenderObject()</text>
<text text-anchor="start" x="776.727" y="-915.5" font-family="Helvetica,sans-Serif" font-size="10.00">+ updateGL()</text>
<text text-anchor="start" x="776.727" y="-904.5" font-family="Helvetica,sans-Serif" font-size="10.00">+ getName()</text>
<text text-anchor="start" x="776.727" y="-893.5" font-family="Helvetica,sans-Serif" font-size="10.00">+ getComponent()</text>
<text text-anchor="start" x="776.727" y="-882.5" font-family="Helvetica,sans-Serif" font-size="10.00">+ getComponent()</text>
<text text-anchor="start" x="776.727" y="-871.5" font-family="Helvetica,sans-Serif" font-size="10.00">+ getType()</text>
<text text-anchor="start" x="776.727" y="-860.5" font-family="Helvetica,sans-Serif" font-size="10.00">+ setType()</text>
<text text-anchor="start" x="776.727" y="-849.5" font-family="Helvetica,sans-Serif" font-size="10.00">+ setVisible()</text>
<text text-anchor="start" x="776.727" y="-838.5" font-family="Helvetica,sans-Serif" font-size="10.00">+ toggleVisible()</text>
<text text-anchor="start" x="776.727" y="-827.5" font-family="Helvetica,sans-Serif" font-size="10.00">+ isVisible()</text>
<text text-anchor="start" x="776.727" y="-816.5" font-family="Helvetica,sans-Serif" font-size="10.00">+ setPickable()</text>
<text text-anchor="start" x="776.727" y="-805.5" font-family="Helvetica,sans-Serif" font-size="10.00">+ togglePickable()</text>
<text text-anchor="start" x="776.727" y="-794.5" font-family="Helvetica,sans-Serif" font-size="10.00">+ isPickable()</text>
<text text-anchor="start" x="776.727" y="-783.5" font-family="Helvetica,sans-Serif" font-size="10.00">+ setXRay()</text>
<text text-anchor="start" x="776.727" y="-772.5" font-family="Helvetica,sans-Serif" font-size="10.00">+ toggleXRay()</text>
<text text-anchor="start" x="776.727" y="-761.5" font-family="Helvetica,sans-Serif" font-size="10.00">+ isXRay()</text>
<text text-anchor="start" x="776.727" y="-750.5" font-family="Helvetica,sans-Serif" font-size="10.00">+ setTransparent()</text>
<text text-anchor="start" x="776.727" y="-739.5" font-family="Helvetica,sans-Serif" font-size="10.00">+ toggleTransparent()</text>
<text text-anchor="start" x="776.727" y="-728.5" font-family="Helvetica,sans-Serif" font-size="10.00">+ isTransparent()</text>
<text text-anchor="start" x="776.727" y="-717.5" font-family="Helvetica,sans-Serif" font-size="10.00">+ isDirty()</text>
<text text-anchor="start" x="776.727" y="-706.5" font-family="Helvetica,sans-Serif" font-size="10.00">+ setRenderTechnique()</text>
<text text-anchor="start" x="776.727" y="-695.5" font-family="Helvetica,sans-Serif" font-size="10.00">+ getRenderTechnique()</text>
<text text-anchor="start" x="776.727" y="-684.5" font-family="Helvetica,sans-Serif" font-size="10.00">+ getRenderTechnique()</text>
<text text-anchor="start" x="776.727" y="-673.5" font-family="Helvetica,sans-Serif" font-size="10.00">+ setMesh()</text>
<text text-anchor="start" x="776.727" y="-662.5" font-family="Helvetica,sans-Serif" font-size="10.00">+ getMesh()</text>
<text text-anchor="start" x="776.727" y="-651.5" font-family="Helvetica,sans-Serif" font-size="10.00">+ getMesh()</text>
<text text-anchor="start" x="776.727" y="-640.5" font-family="Helvetica,sans-Serif" font-size="10.00">+ getTransform()</text>
<text text-anchor="start" x="776.727" y="-629.5" font-family="Helvetica,sans-Serif" font-size="10.00">+ getTransformAsMatrix()</text>
<text text-anchor="start" x="776.727" y="-618.5" font-family="Helvetica,sans-Serif" font-size="10.00">+ getAabb()</text>
<text text-anchor="start" x="776.727" y="-607.5" font-family="Helvetica,sans-Serif" font-size="10.00">+ getMeshAabb()</text>
<text text-anchor="start" x="776.727" y="-596.5" font-family="Helvetica,sans-Serif" font-size="10.00">+ setLocalTransform()</text>
<text text-anchor="start" x="776.727" y="-585.5" font-family="Helvetica,sans-Serif" font-size="10.00">+ setLocalTransform()</text>
<text text-anchor="start" x="776.727" y="-574.5" font-family="Helvetica,sans-Serif" font-size="10.00">+ getLocalTransform()</text>
<text text-anchor="start" x="776.727" y="-563.5" font-family="Helvetica,sans-Serif" font-size="10.00">+ getLocalTransformAsMatrix()</text>
<text text-anchor="start" x="776.727" y="-552.5" font-family="Helvetica,sans-Serif" font-size="10.00">+ hasBeenRenderedOnce()</text>
<text text-anchor="start" x="776.727" y="-541.5" font-family="Helvetica,sans-Serif" font-size="10.00">+ hasExpired()</text>
<text text-anchor="start" x="776.727" y="-530.5" font-family="Helvetica,sans-Serif" font-size="10.00">+ render()</text>
<text text-anchor="start" x="776.727" y="-519.5" font-family="Helvetica,sans-Serif" font-size="10.00">+ render()</text>
<text text-anchor="start" x="776.727" y="-508.5" font-family="Helvetica,sans-Serif" font-size="10.00">+ createRenderObject()</text>
</a>
</g>
</g>
<!-- Node12&#45;&gt;Node20 -->
<g id="edge24" class="edge"><title>Node12&#45;&gt;Node20</title>
<path fill="none" stroke="midnightblue" d="M860.996,-1431.2C859.661,-1341.99 856.742,-1147.14 854.357,-987.87"/>
<polygon fill="none" stroke="midnightblue" points="857.498,-1431.34 861.148,-1441.29 864.497,-1431.24 857.498,-1431.34"/>
</g>
<!-- Node13 -->
<g id="node13" class="node"><title>Node13</title>
<polygon fill="white" stroke="#bfbfbf" points="844.227,-1744.5 844.227,-1801.5 879.227,-1801.5 879.227,-1744.5 844.227,-1744.5"/>
<text text-anchor="middle" x="861.727" y="-1789.5" font-family="Helvetica,sans-Serif" font-size="10.00">uint</text>
<polyline fill="none" stroke="#bfbfbf" points="844.227,-1782.5 879.227,-1782.5 "/>
<text text-anchor="middle" x="861.727" y="-1770.5" font-family="Helvetica,sans-Serif" font-size="10.00"> </text>
<polyline fill="none" stroke="#bfbfbf" points="844.227,-1763.5 879.227,-1763.5 "/>
<text text-anchor="middle" x="861.727" y="-1751.5" font-family="Helvetica,sans-Serif" font-size="10.00"> </text>
</g>
<!-- Node13&#45;&gt;Node12 -->
<g id="edge13" class="edge"><title>Node13&#45;&gt;Node12</title>
<path fill="none" stroke="#404040" d="M861.727,-1744.46C861.727,-1695.91 861.727,-1594.45 861.727,-1532.87"/>
<polygon fill="none" stroke="#404040" points="861.727,-1532.74 857.727,-1526.74 861.727,-1520.74 865.727,-1526.74 861.727,-1532.74"/>
<text text-anchor="middle" x="874.227" y="-1696" font-family="Helvetica,sans-Serif" font-size="10.00"> +idx</text>
</g>
<!-- Node14 -->
<g id="node14" class="node"><title>Node14</title>
<g id="a_node14"><a xlink:title="STL class. ">
<polygon fill="white" stroke="#bfbfbf" points="276.227,-1100 276.227,-1157 341.227,-1157 341.227,-1100 276.227,-1100"/>
<text text-anchor="middle" x="308.727" y="-1145" font-family="Helvetica,sans-Serif" font-size="10.00">std::string</text>
<polyline fill="none" stroke="#bfbfbf" points="276.227,-1138 341.227,-1138 "/>
<text text-anchor="middle" x="308.727" y="-1126" font-family="Helvetica,sans-Serif" font-size="10.00"> </text>
<polyline fill="none" stroke="#bfbfbf" points="276.227,-1119 341.227,-1119 "/>
<text text-anchor="middle" x="308.727" y="-1107" font-family="Helvetica,sans-Serif" font-size="10.00"> </text>
</a>
</g>
</g>
<!-- Node14&#45;&gt;Node2 -->
<g id="edge14" class="edge"><title>Node14&#45;&gt;Node2</title>
<path fill="none" stroke="#404040" d="M309.761,-1099.73C313.671,-1010.8 330.876,-725.776 396.727,-501 397.387,-498.747 398.08,-496.484 398.803,-494.213"/>
<polygon fill="none" stroke="#404040" points="398.811,-494.189 396.939,-487.225 402.647,-482.819 404.519,-489.783 398.811,-494.189"/>
<text text-anchor="middle" x="424.227" y="-742" font-family="Helvetica,sans-Serif" font-size="10.00"> #m_name</text>
</g>
<!-- Node15 -->
<g id="node15" class="node"><title>Node15</title>
<g id="a_node15"><a xlink:title="STL class. ">
<polygon fill="white" stroke="#bfbfbf" points="255.227,-1447 255.227,-1515 358.227,-1515 358.227,-1447 255.227,-1447"/>
<text text-anchor="start" x="263.227" y="-1503" font-family="Helvetica,sans-Serif" font-size="10.00">std::basic_string&lt;</text>
<text text-anchor="middle" x="306.727" y="-1492" font-family="Helvetica,sans-Serif" font-size="10.00"> char &gt;</text>
<polyline fill="none" stroke="#bfbfbf" points="255.227,-1485 358.227,-1485 "/>
<text text-anchor="middle" x="306.727" y="-1473" font-family="Helvetica,sans-Serif" font-size="10.00"> </text>
<polyline fill="none" stroke="#bfbfbf" points="255.227,-1466 358.227,-1466 "/>
<text text-anchor="middle" x="306.727" y="-1454" font-family="Helvetica,sans-Serif" font-size="10.00"> </text>
</a>
</g>
</g>
<!-- Node15&#45;&gt;Node14 -->
<g id="edge15" class="edge"><title>Node15&#45;&gt;Node14</title>
<path fill="none" stroke="midnightblue" d="M306.976,-1436.46C307.393,-1363.33 308.223,-1217.88 308.57,-1157.15"/>
<polygon fill="none" stroke="midnightblue" points="303.475,-1436.69 306.917,-1446.71 310.474,-1436.73 303.475,-1436.69"/>
</g>
<!-- Node16 -->
<g id="node16" class="node"><title>Node16</title>
<g id="a_node16"><a xlink:href="structFeatureData.html" target="_top" xlink:title="{FeatureData\n||}">
<polygon fill="white" stroke="black" points="160.727,-1100 160.727,-1157 236.727,-1157 236.727,-1100 160.727,-1100"/>
<text text-anchor="middle" x="198.727" y="-1145" font-family="Helvetica,sans-Serif" font-size="10.00">FeatureData</text>
<polyline fill="none" stroke="black" points="160.727,-1138 236.727,-1138 "/>
<text text-anchor="middle" x="198.727" y="-1126" font-family="Helvetica,sans-Serif" font-size="10.00"> </text>
<polyline fill="none" stroke="black" points="160.727,-1119 236.727,-1119 "/>
<text text-anchor="middle" x="198.727" y="-1107" font-family="Helvetica,sans-Serif" font-size="10.00"> </text>
</a>
</g>
</g>
<!-- Node16&#45;&gt;Node1 -->
<g id="edge16" class="edge"><title>Node16&#45;&gt;Node1</title>
<path fill="none" stroke="#404040" d="M201.727,-1099.82C215.121,-976.234 269.924,-470.549 295.485,-234.691"/>
<polygon fill="none" stroke="#404040" points="295.498,-234.566 292.168,-228.17 296.791,-222.636 300.122,-229.032 295.498,-234.566"/>
<text text-anchor="middle" x="317.227" y="-369" font-family="Helvetica,sans-Serif" font-size="10.00"> +m_data</text>
</g>
<!-- Node17&#45;&gt;Node16 -->
<g id="edge17" class="edge"><title>Node17&#45;&gt;Node16</title>
<path fill="none" stroke="#404040" d="M94.4144,-1452.44C104.448,-1411.91 124.498,-1334 145.727,-1269 156.988,-1234.52 171.783,-1196.03 182.879,-1168.23"/>
<polygon fill="none" stroke="#404040" points="182.912,-1168.15 181.438,-1161.09 187.387,-1157.02 188.861,-1164.07 182.912,-1168.15"/>
<text text-anchor="middle" x="170.227" y="-1272" font-family="Helvetica,sans-Serif" font-size="10.00"> +m_data</text>
</g>
<!-- Node18&#45;&gt;Node17 -->
<g id="edge19" class="edge"><title>Node18&#45;&gt;Node17</title>
<path fill="none" stroke="orange" d="M87.7274,-1734.43C87.7274,-1675.36 87.7274,-1562.12 87.7274,-1509.78"/>
<polygon fill="orange" stroke="orange" points="84.2275,-1734.46 87.7274,-1744.46 91.2275,-1734.46 84.2275,-1734.46"/>
<text text-anchor="middle" x="112.727" y="-1696" font-family="Helvetica,sans-Serif" font-size="10.00"> &lt; int, 4 &gt;</text>
</g>
<!-- Node19 -->
<g id="node19" class="node"><title>Node19</title>
<polygon fill="white" stroke="#bfbfbf" points="160.727,-1452.5 160.727,-1509.5 236.727,-1509.5 236.727,-1452.5 160.727,-1452.5"/>
<text text-anchor="middle" x="198.727" y="-1497.5" font-family="Helvetica,sans-Serif" font-size="10.00">PickingMode</text>
<polyline fill="none" stroke="#bfbfbf" points="160.727,-1490.5 236.727,-1490.5 "/>
<text text-anchor="middle" x="198.727" y="-1478.5" font-family="Helvetica,sans-Serif" font-size="10.00"> </text>
<polyline fill="none" stroke="#bfbfbf" points="160.727,-1471.5 236.727,-1471.5 "/>
<text text-anchor="middle" x="198.727" y="-1459.5" font-family="Helvetica,sans-Serif" font-size="10.00"> </text>
</g>
<!-- Node19&#45;&gt;Node16 -->
<g id="edge21" class="edge"><title>Node19&#45;&gt;Node16</title>
<path fill="none" stroke="#404040" d="M198.727,-1452.5C198.727,-1390.84 198.727,-1241.35 198.727,-1169.44"/>
<polygon fill="none" stroke="#404040" points="198.727,-1169.36 194.727,-1163.36 198.727,-1157.36 202.727,-1163.36 198.727,-1169.36"/>
<text text-anchor="middle" x="226.227" y="-1272" font-family="Helvetica,sans-Serif" font-size="10.00"> +m_mode</text>
</g>
<!-- Node20&#45;&gt;Node1 -->
<g id="edge23" class="edge"><title>Node20&#45;&gt;Node1</title>
<path fill="none" stroke="#404040" d="M768.663,-509.446C767.043,-506.596 765.397,-503.78 763.727,-501 689.188,-376.941 655.804,-352.782 544.727,-260 506.269,-227.876 460.239,-197.572 419.083,-172.886"/>
<polygon fill="none" stroke="#404040" points="419.047,-172.865 411.846,-173.238 408.732,-166.733 415.933,-166.361 419.047,-172.865"/>
<text text-anchor="middle" x="770.727" y="-369" font-family="Helvetica,sans-Serif" font-size="10.00"> +m_RO</text>
</g>
</g>
</svg>
