<?xml version="1.0" encoding="UTF-8" standalone="no"?>
<!DOCTYPE svg PUBLIC "-//W3C//DTD SVG 1.1//EN"
 "http://www.w3.org/Graphics/SVG/1.1/DTD/svg11.dtd">
<!-- Generated by graphviz version 2.38.0 (20140413.2041)
 -->
<!-- Title: Ra::Engine::PointLight Pages: 1 -->
<svg width="698pt" height="1567pt"
 viewBox="0.00 0.00 698.00 1567.00" xmlns="http://www.w3.org/2000/svg" xmlns:xlink="http://www.w3.org/1999/xlink">
<g id="graph0" class="graph" transform="scale(1 1) rotate(0) translate(4 1563)">
<title>Ra::Engine::PointLight</title>
<polygon fill="white" stroke="none" points="-4,4 -4,-1563 694,-1563 694,4 -4,4"/>
<!-- Node1 -->
<g id="node1" class="node"><title>Node1</title>
<polygon fill="#bfbfbf" stroke="black" points="347.5,-0.5 347.5,-145.5 487.5,-145.5 487.5,-0.5 347.5,-0.5"/>
<text text-anchor="middle" x="417.5" y="-133.5" font-family="Helvetica,sans-Serif" font-size="10.00">Ra::Engine::PointLight</text>
<polyline fill="none" stroke="black" points="347.5,-126.5 487.5,-126.5 "/>
<text text-anchor="middle" x="417.5" y="-114.5" font-family="Helvetica,sans-Serif" font-size="10.00"> </text>
<polyline fill="none" stroke="black" points="347.5,-107.5 487.5,-107.5 "/>
<text text-anchor="start" x="355.5" y="-95.5" font-family="Helvetica,sans-Serif" font-size="10.00">+ PointLight()</text>
<text text-anchor="start" x="355.5" y="-84.5" font-family="Helvetica,sans-Serif" font-size="10.00">+ ~PointLight()</text>
<text text-anchor="start" x="355.5" y="-73.5" font-family="Helvetica,sans-Serif" font-size="10.00">+ getRenderParameters()</text>
<text text-anchor="start" x="355.5" y="-62.5" font-family="Helvetica,sans-Serif" font-size="10.00">+ setPosition()</text>
<text text-anchor="start" x="355.5" y="-51.5" font-family="Helvetica,sans-Serif" font-size="10.00">+ getPosition()</text>
<text text-anchor="start" x="355.5" y="-40.5" font-family="Helvetica,sans-Serif" font-size="10.00">+ setAttenuation()</text>
<text text-anchor="start" x="355.5" y="-29.5" font-family="Helvetica,sans-Serif" font-size="10.00">+ setAttenuation()</text>
<text text-anchor="start" x="355.5" y="-18.5" font-family="Helvetica,sans-Serif" font-size="10.00">+ getAttenuation()</text>
<text text-anchor="start" x="355.5" y="-7.5" font-family="Helvetica,sans-Serif" font-size="10.00">+ getShaderInclude()</text>
</g>
<!-- Node2 -->
<g id="node2" class="node"><title>Node2</title>
<g id="a_node2"><a xlink:href="classRa_1_1Engine_1_1Light.html" target="_top" xlink:title="Light base classe for rendering. ">
<polygon fill="white" stroke="black" points="347.5,-183.5 347.5,-339.5 487.5,-339.5 487.5,-183.5 347.5,-183.5"/>
<text text-anchor="middle" x="417.5" y="-327.5" font-family="Helvetica,sans-Serif" font-size="10.00">Ra::Engine::Light</text>
<polyline fill="none" stroke="black" points="347.5,-320.5 487.5,-320.5 "/>
<text text-anchor="middle" x="417.5" y="-308.5" font-family="Helvetica,sans-Serif" font-size="10.00"> </text>
<polyline fill="none" stroke="black" points="347.5,-301.5 487.5,-301.5 "/>
<text text-anchor="start" x="355.5" y="-289.5" font-family="Helvetica,sans-Serif" font-size="10.00">+ Light()</text>
<text text-anchor="start" x="355.5" y="-278.5" font-family="Helvetica,sans-Serif" font-size="10.00">+ ~Light()</text>
<text text-anchor="start" x="355.5" y="-267.5" font-family="Helvetica,sans-Serif" font-size="10.00">+ getColor()</text>
<text text-anchor="start" x="355.5" y="-256.5" font-family="Helvetica,sans-Serif" font-size="10.00">+ setColor()</text>
<text text-anchor="start" x="355.5" y="-245.5" font-family="Helvetica,sans-Serif" font-size="10.00">+ setDirection()</text>
<text text-anchor="start" x="355.5" y="-234.5" font-family="Helvetica,sans-Serif" font-size="10.00">+ setPosition()</text>
<text text-anchor="start" x="355.5" y="-223.5" font-family="Helvetica,sans-Serif" font-size="10.00">+ getType()</text>
<text text-anchor="start" x="355.5" y="-212.5" font-family="Helvetica,sans-Serif" font-size="10.00">+ getRenderParameters()</text>
<text text-anchor="start" x="355.5" y="-201.5" font-family="Helvetica,sans-Serif" font-size="10.00">+ getShaderInclude()</text>
<text text-anchor="start" x="355.5" y="-190.5" font-family="Helvetica,sans-Serif" font-size="10.00">+ initialize()</text>
</a>
</g>
</g>
<!-- Node2&#45;&gt;Node1 -->
<g id="edge1" class="edge"><title>Node2&#45;&gt;Node1</title>
<path fill="none" stroke="midnightblue" d="M417.5,-173.035C417.5,-163.901 417.5,-154.692 417.5,-145.762"/>
<polygon fill="none" stroke="midnightblue" points="414,-173.297 417.5,-183.297 421,-173.297 414,-173.297"/>
</g>
<!-- Node3 -->
<g id="node3" class="node"><title>Node3</title>
<g id="a_node3"><a xlink:href="classRa_1_1Engine_1_1Component.html" target="_top" xlink:title="A component is an element that can be updated by a system. ">
<polygon fill="white" stroke="black" points="337,-377.5 337,-599.5 498,-599.5 498,-377.5 337,-377.5"/>
<text text-anchor="middle" x="417.5" y="-587.5" font-family="Helvetica,sans-Serif" font-size="10.00">Ra::Engine::Component</text>
<polyline fill="none" stroke="black" points="337,-580.5 498,-580.5 "/>
<text text-anchor="middle" x="417.5" y="-568.5" font-family="Helvetica,sans-Serif" font-size="10.00"> </text>
<polyline fill="none" stroke="black" points="337,-561.5 498,-561.5 "/>
<text text-anchor="start" x="345" y="-549.5" font-family="Helvetica,sans-Serif" font-size="10.00">+ Component()</text>
<text text-anchor="start" x="345" y="-538.5" font-family="Helvetica,sans-Serif" font-size="10.00">+ ~Component()</text>
<text text-anchor="start" x="345" y="-527.5" font-family="Helvetica,sans-Serif" font-size="10.00">+ initialize()</text>
<text text-anchor="start" x="345" y="-516.5" font-family="Helvetica,sans-Serif" font-size="10.00">+ setEntity()</text>
<text text-anchor="start" x="345" y="-505.5" font-family="Helvetica,sans-Serif" font-size="10.00">+ getEntity()</text>
<text text-anchor="start" x="345" y="-494.5" font-family="Helvetica,sans-Serif" font-size="10.00">+ getName()</text>
<text text-anchor="start" x="345" y="-483.5" font-family="Helvetica,sans-Serif" font-size="10.00">+ setSystem()</text>
<text text-anchor="start" x="345" y="-472.5" font-family="Helvetica,sans-Serif" font-size="10.00">+ getSystem()</text>
<text text-anchor="start" x="345" y="-461.5" font-family="Helvetica,sans-Serif" font-size="10.00">+ addRenderObject()</text>
<text text-anchor="start" x="345" y="-450.5" font-family="Helvetica,sans-Serif" font-size="10.00">+ removeRenderObject()</text>
<text text-anchor="start" x="345" y="-439.5" font-family="Helvetica,sans-Serif" font-size="10.00">+ rayCastQuery()</text>
<text text-anchor="start" x="345" y="-428.5" font-family="Helvetica,sans-Serif" font-size="10.00">+ canEdit()</text>
<text text-anchor="start" x="345" y="-417.5" font-family="Helvetica,sans-Serif" font-size="10.00">+ getTransform()</text>
<text text-anchor="start" x="345" y="-406.5" font-family="Helvetica,sans-Serif" font-size="10.00">+ setTransform()</text>
<text text-anchor="start" x="345" y="-395.5" font-family="Helvetica,sans-Serif" font-size="10.00">+ notifyRenderObjectExpired()</text>
<text text-anchor="start" x="345" y="-384.5" font-family="Helvetica,sans-Serif" font-size="10.00"># getRoMgr()</text>
</a>
</g>
</g>
<!-- Node3&#45;&gt;Node2 -->
<g id="edge2" class="edge"><title>Node3&#45;&gt;Node2</title>
<path fill="none" stroke="midnightblue" d="M417.5,-367.196C417.5,-357.892 417.5,-348.661 417.5,-339.756"/>
<polygon fill="none" stroke="midnightblue" points="414,-367.307 417.5,-377.307 421,-367.307 414,-367.307"/>
</g>
<!-- Node4 -->
<g id="node4" class="node"><title>Node4</title>
<polygon fill="white" stroke="#bfbfbf" points="73,-945 73,-1013 180,-1013 180,-945 73,-945"/>
<text text-anchor="start" x="81" y="-1001" font-family="Helvetica,sans-Serif" font-size="10.00">std::vector&lt; Core::</text>
<text text-anchor="middle" x="126.5" y="-990" font-family="Helvetica,sans-Serif" font-size="10.00">Index &gt;</text>
<polyline fill="none" stroke="#bfbfbf" points="73,-983 180,-983 "/>
<text text-anchor="middle" x="126.5" y="-971" font-family="Helvetica,sans-Serif" font-size="10.00"> </text>
<polyline fill="none" stroke="#bfbfbf" points="73,-964 180,-964 "/>
<text text-anchor="middle" x="126.5" y="-952" font-family="Helvetica,sans-Serif" font-size="10.00"> </text>
</g>
<!-- Node4&#45;&gt;Node3 -->
<g id="edge3" class="edge"><title>Node4&#45;&gt;Node3</title>
<path fill="none" stroke="#404040" d="M119.635,-944.894C108.407,-881.635 92.8163,-741.483 151.5,-647 190.672,-583.933 265.181,-543.035 325.398,-518.763"/>
<polygon fill="none" stroke="#404040" points="325.677,-518.653 329.804,-512.74 336.85,-514.275 332.723,-520.189 325.677,-518.653"/>
<text text-anchor="middle" x="198.5" y="-767" font-family="Helvetica,sans-Serif" font-size="10.00"> +m_renderObjects</text>
</g>
<!-- Node5 -->
<g id="node5" class="node"><title>Node5</title>
<g id="a_node5"><a xlink:href="classRa_1_1Core_1_1Index.html" target="_top" xlink:title="{Ra::Core::Index\n||+ Index()\l+ Index()\l+ isValid()\l+ isInvalid()\l+ setInvalid()\l+ getValue()\l+ setValue()\l+ operator int()\l+ operator=()\l+ operator++()\l+ operator&#45;&#45;()\l+ operator+()\l+ operator+()\l+ operator&#45;()\l+ operator&#45;()\l+ operator==()\l+ operator==()\l+ operator!=()\l+ operator!=()\l+ operator\&lt;()\l+ operator\&lt;()\l+ operator\&lt;=()\l+ operator\&lt;=()\l+ operator\&gt;()\l+ operator\&gt;()\l+ operator\&gt;=()\l+ operator\&gt;=()\l+ Invalid()\l+ Max()\l}">
<polygon fill="white" stroke="black" points="0,-1088.5 0,-1453.5 93,-1453.5 93,-1088.5 0,-1088.5"/>
<text text-anchor="middle" x="46.5" y="-1441.5" font-family="Helvetica,sans-Serif" font-size="10.00">Ra::Core::Index</text>
<polyline fill="none" stroke="black" points="0,-1434.5 93,-1434.5 "/>
<text text-anchor="middle" x="46.5" y="-1422.5" font-family="Helvetica,sans-Serif" font-size="10.00"> </text>
<polyline fill="none" stroke="black" points="0,-1415.5 93,-1415.5 "/>
<text text-anchor="start" x="8" y="-1403.5" font-family="Helvetica,sans-Serif" font-size="10.00">+ Index()</text>
<text text-anchor="start" x="8" y="-1392.5" font-family="Helvetica,sans-Serif" font-size="10.00">+ Index()</text>
<text text-anchor="start" x="8" y="-1381.5" font-family="Helvetica,sans-Serif" font-size="10.00">+ isValid()</text>
<text text-anchor="start" x="8" y="-1370.5" font-family="Helvetica,sans-Serif" font-size="10.00">+ isInvalid()</text>
<text text-anchor="start" x="8" y="-1359.5" font-family="Helvetica,sans-Serif" font-size="10.00">+ setInvalid()</text>
<text text-anchor="start" x="8" y="-1348.5" font-family="Helvetica,sans-Serif" font-size="10.00">+ getValue()</text>
<text text-anchor="start" x="8" y="-1337.5" font-family="Helvetica,sans-Serif" font-size="10.00">+ setValue()</text>
<text text-anchor="start" x="8" y="-1326.5" font-family="Helvetica,sans-Serif" font-size="10.00">+ operator int()</text>
<text text-anchor="start" x="8" y="-1315.5" font-family="Helvetica,sans-Serif" font-size="10.00">+ operator=()</text>
<text text-anchor="start" x="8" y="-1304.5" font-family="Helvetica,sans-Serif" font-size="10.00">+ operator++()</text>
<text text-anchor="start" x="8" y="-1293.5" font-family="Helvetica,sans-Serif" font-size="10.00">+ operator&#45;&#45;()</text>
<text text-anchor="start" x="8" y="-1282.5" font-family="Helvetica,sans-Serif" font-size="10.00">+ operator+()</text>
<text text-anchor="start" x="8" y="-1271.5" font-family="Helvetica,sans-Serif" font-size="10.00">+ operator+()</text>
<text text-anchor="start" x="8" y="-1260.5" font-family="Helvetica,sans-Serif" font-size="10.00">+ operator&#45;()</text>
<text text-anchor="start" x="8" y="-1249.5" font-family="Helvetica,sans-Serif" font-size="10.00">+ operator&#45;()</text>
<text text-anchor="start" x="8" y="-1238.5" font-family="Helvetica,sans-Serif" font-size="10.00">+ operator==()</text>
<text text-anchor="start" x="8" y="-1227.5" font-family="Helvetica,sans-Serif" font-size="10.00">+ operator==()</text>
<text text-anchor="start" x="8" y="-1216.5" font-family="Helvetica,sans-Serif" font-size="10.00">+ operator!=()</text>
<text text-anchor="start" x="8" y="-1205.5" font-family="Helvetica,sans-Serif" font-size="10.00">+ operator!=()</text>
<text text-anchor="start" x="8" y="-1194.5" font-family="Helvetica,sans-Serif" font-size="10.00">+ operator&lt;()</text>
<text text-anchor="start" x="8" y="-1183.5" font-family="Helvetica,sans-Serif" font-size="10.00">+ operator&lt;()</text>
<text text-anchor="start" x="8" y="-1172.5" font-family="Helvetica,sans-Serif" font-size="10.00">+ operator&lt;=()</text>
<text text-anchor="start" x="8" y="-1161.5" font-family="Helvetica,sans-Serif" font-size="10.00">+ operator&lt;=()</text>
<text text-anchor="start" x="8" y="-1150.5" font-family="Helvetica,sans-Serif" font-size="10.00">+ operator&gt;()</text>
<text text-anchor="start" x="8" y="-1139.5" font-family="Helvetica,sans-Serif" font-size="10.00">+ operator&gt;()</text>
<text text-anchor="start" x="8" y="-1128.5" font-family="Helvetica,sans-Serif" font-size="10.00">+ operator&gt;=()</text>
<text text-anchor="start" x="8" y="-1117.5" font-family="Helvetica,sans-Serif" font-size="10.00">+ operator&gt;=()</text>
<text text-anchor="start" x="8" y="-1106.5" font-family="Helvetica,sans-Serif" font-size="10.00">+ Invalid()</text>
<text text-anchor="start" x="8" y="-1095.5" font-family="Helvetica,sans-Serif" font-size="10.00">+ Max()</text>
</a>
</g>
</g>
<!-- Node5&#45;&gt;Node4 -->
<g id="edge4" class="edge"><title>Node5&#45;&gt;Node4</title>
<path fill="none" stroke="#404040" d="M47.0382,-1088.32C51.048,-1070.48 56.6991,-1053.06 64.5,-1037 67.0038,-1031.85 70.1939,-1026.93 73.8015,-1022.31"/>
<polygon fill="none" stroke="#404040" points="73.8213,-1022.29 74.7489,-1015.14 81.7068,-1013.24 80.7792,-1020.39 73.8213,-1022.29"/>
<text text-anchor="middle" x="93" y="-1051" font-family="Helvetica,sans-Serif" font-size="10.00"> +elements</text>
</g>
<!-- Node6 -->
<g id="node6" class="node"><title>Node6</title>
<polygon fill="white" stroke="#bfbfbf" points="32,-1501.5 32,-1558.5 61,-1558.5 61,-1501.5 32,-1501.5"/>
<text text-anchor="middle" x="46.5" y="-1546.5" font-family="Helvetica,sans-Serif" font-size="10.00">int</text>
<polyline fill="none" stroke="#bfbfbf" points="32,-1539.5 61,-1539.5 "/>
<text text-anchor="middle" x="46.5" y="-1527.5" font-family="Helvetica,sans-Serif" font-size="10.00"> </text>
<polyline fill="none" stroke="#bfbfbf" points="32,-1520.5 61,-1520.5 "/>
<text text-anchor="middle" x="46.5" y="-1508.5" font-family="Helvetica,sans-Serif" font-size="10.00"> </text>
</g>
<!-- Node6&#45;&gt;Node5 -->
<g id="edge5" class="edge"><title>Node6&#45;&gt;Node5</title>
<path fill="none" stroke="#404040" d="M46.5,-1501.5C46.5,-1491.53 46.5,-1479.38 46.5,-1465.92"/>
<polygon fill="none" stroke="#404040" points="46.5001,-1465.77 42.5,-1459.77 46.5,-1453.77 50.5,-1459.77 46.5001,-1465.77"/>
<text text-anchor="middle" x="66.5" y="-1475" font-family="Helvetica,sans-Serif" font-size="10.00"> #m_idx</text>
</g>
<!-- Node7 -->
<g id="node7" class="node"><title>Node7</title>
<g id="a_node7"><a xlink:title="STL class. ">
<polygon fill="white" stroke="#bfbfbf" points="146,-1242.5 146,-1299.5 241,-1299.5 241,-1242.5 146,-1242.5"/>
<text text-anchor="middle" x="193.5" y="-1287.5" font-family="Helvetica,sans-Serif" font-size="10.00">std::vector&lt; T &gt;</text>
<polyline fill="none" stroke="#bfbfbf" points="146,-1280.5 241,-1280.5 "/>
<text text-anchor="middle" x="193.5" y="-1268.5" font-family="Helvetica,sans-Serif" font-size="10.00"> </text>
<polyline fill="none" stroke="#bfbfbf" points="146,-1261.5 241,-1261.5 "/>
<text text-anchor="middle" x="193.5" y="-1249.5" font-family="Helvetica,sans-Serif" font-size="10.00"> </text>
</a>
</g>
</g>
<!-- Node7&#45;&gt;Node4 -->
<g id="edge6" class="edge"><title>Node7&#45;&gt;Node4</title>
<path fill="none" stroke="orange" d="M177.348,-1232.72C161.145,-1193.2 137.24,-1128.52 127.5,-1070 124.396,-1051.35 124.003,-1030.22 124.451,-1013.13"/>
<polygon fill="orange" stroke="orange" points="174.22,-1234.32 181.288,-1242.21 180.685,-1231.63 174.22,-1234.32"/>
<text text-anchor="middle" x="167.5" y="-1051" font-family="Helvetica,sans-Serif" font-size="10.00"> &lt; Core::Index &gt;</text>
</g>
<!-- Node10 -->
<g id="node10" class="node"><title>Node10</title>
<polygon fill="white" stroke="#bfbfbf" points="245.5,-939.5 245.5,-1018.5 419.5,-1018.5 419.5,-939.5 245.5,-939.5"/>
<text text-anchor="start" x="253.5" y="-1006.5" font-family="Helvetica,sans-Serif" font-size="10.00">std::vector&lt; std::pair</text>
<text text-anchor="start" x="253.5" y="-995.5" font-family="Helvetica,sans-Serif" font-size="10.00">&lt; const Ra::Engine::Entity</text>
<text text-anchor="middle" x="332.5" y="-984.5" font-family="Helvetica,sans-Serif" font-size="10.00"> *, Ra::Engine::Component * &gt; &gt;</text>
<polyline fill="none" stroke="#bfbfbf" points="245.5,-977.5 419.5,-977.5 "/>
<text text-anchor="middle" x="332.5" y="-965.5" font-family="Helvetica,sans-Serif" font-size="10.00"> </text>
<polyline fill="none" stroke="#bfbfbf" points="245.5,-958.5 419.5,-958.5 "/>
<text text-anchor="middle" x="332.5" y="-946.5" font-family="Helvetica,sans-Serif" font-size="10.00"> </text>
</g>
<!-- Node7&#45;&gt;Node10 -->
<g id="edge11" class="edge"><title>Node7&#45;&gt;Node10</title>
<path fill="none" stroke="orange" d="M189.015,-1232.13C185.197,-1182.67 185.672,-1095.53 226.5,-1037 231.64,-1029.63 238.044,-1023.13 245.142,-1017.41"/>
<polygon fill="orange" stroke="orange" points="185.553,-1232.72 189.911,-1242.38 192.527,-1232.11 185.553,-1232.72"/>
<text text-anchor="start" x="226.5" y="-1062" font-family="Helvetica,sans-Serif" font-size="10.00"> &lt; std::pair&lt; const</text>
<text text-anchor="start" x="226.5" y="-1051" font-family="Helvetica,sans-Serif" font-size="10.00"> Ra::Engine::Entity</text>
<text text-anchor="middle" x="305.5" y="-1040" font-family="Helvetica,sans-Serif" font-size="10.00"> *, Ra::Engine::Component * &gt; &gt;</text>
</g>
<!-- Node8 -->
<g id="node8" class="node"><title>Node8</title>
<polygon fill="white" stroke="#bfbfbf" points="179,-1501.5 179,-1558.5 208,-1558.5 208,-1501.5 179,-1501.5"/>
<text text-anchor="middle" x="193.5" y="-1546.5" font-family="Helvetica,sans-Serif" font-size="10.00">T</text>
<polyline fill="none" stroke="#bfbfbf" points="179,-1539.5 208,-1539.5 "/>
<text text-anchor="middle" x="193.5" y="-1527.5" font-family="Helvetica,sans-Serif" font-size="10.00"> </text>
<polyline fill="none" stroke="#bfbfbf" points="179,-1520.5 208,-1520.5 "/>
<text text-anchor="middle" x="193.5" y="-1508.5" font-family="Helvetica,sans-Serif" font-size="10.00"> </text>
</g>
<!-- Node8&#45;&gt;Node7 -->
<g id="edge7" class="edge"><title>Node8&#45;&gt;Node7</title>
<path fill="none" stroke="#404040" d="M193.5,-1501.5C193.5,-1455.92 193.5,-1364.55 193.5,-1311.88"/>
<polygon fill="none" stroke="#404040" points="193.5,-1311.69 189.5,-1305.69 193.5,-1299.69 197.5,-1305.69 193.5,-1311.69"/>
<text text-anchor="middle" x="222" y="-1475" font-family="Helvetica,sans-Serif" font-size="10.00"> +elements</text>
</g>
<!-- Node9 -->
<g id="node9" class="node"><title>Node9</title>
<g id="a_node9"><a xlink:href="classRa_1_1Engine_1_1System.html" target="_top" xlink:title="Systems are responsible of updating a specific subset of the components of each entity. ">
<polygon fill="white" stroke="black" points="255,-702.5 255,-836.5 412,-836.5 412,-702.5 255,-702.5"/>
<text text-anchor="middle" x="333.5" y="-824.5" font-family="Helvetica,sans-Serif" font-size="10.00">Ra::Engine::System</text>
<polyline fill="none" stroke="black" points="255,-817.5 412,-817.5 "/>
<text text-anchor="middle" x="333.5" y="-805.5" font-family="Helvetica,sans-Serif" font-size="10.00"> </text>
<polyline fill="none" stroke="black" points="255,-798.5 412,-798.5 "/>
<text text-anchor="start" x="263" y="-786.5" font-family="Helvetica,sans-Serif" font-size="10.00">+ System()</text>
<text text-anchor="start" x="263" y="-775.5" font-family="Helvetica,sans-Serif" font-size="10.00">+ ~System()</text>
<text text-anchor="start" x="263" y="-764.5" font-family="Helvetica,sans-Serif" font-size="10.00">+ handleAssetLoading()</text>
<text text-anchor="start" x="263" y="-753.5" font-family="Helvetica,sans-Serif" font-size="10.00">+ generateTasks()</text>
<text text-anchor="start" x="263" y="-742.5" font-family="Helvetica,sans-Serif" font-size="10.00">+ getEntityComponents()</text>
<text text-anchor="start" x="263" y="-731.5" font-family="Helvetica,sans-Serif" font-size="10.00"># registerComponent()</text>
<text text-anchor="start" x="263" y="-720.5" font-family="Helvetica,sans-Serif" font-size="10.00"># unregisterComponent()</text>
<text text-anchor="start" x="263" y="-709.5" font-family="Helvetica,sans-Serif" font-size="10.00"># unregisterAllComponents()</text>
</a>
</g>
</g>
<!-- Node9&#45;&gt;Node3 -->
<g id="edge8" class="edge"><title>Node9&#45;&gt;Node3</title>
<path fill="none" stroke="#404040" d="M353.407,-702.381C361.602,-675.161 371.366,-642.73 380.772,-611.49"/>
<polygon fill="none" stroke="#404040" points="380.896,-611.079 378.795,-604.18 384.355,-599.588 386.456,-606.487 380.896,-611.079"/>
<text text-anchor="middle" x="409.5" y="-621" font-family="Helvetica,sans-Serif" font-size="10.00"> #m_system</text>
</g>
<!-- Node10&#45;&gt;Node9 -->
<g id="edge9" class="edge"><title>Node10&#45;&gt;Node9</title>
<path fill="none" stroke="#404040" d="M332.686,-939.457C332.808,-914.004 332.974,-879.746 333.123,-848.731"/>
<polygon fill="none" stroke="#404040" points="333.124,-848.58 329.153,-842.56 333.182,-836.58 337.153,-842.599 333.124,-848.58"/>
<text text-anchor="middle" x="377" y="-913" font-family="Helvetica,sans-Serif" font-size="10.00"> #m_components</text>
</g>
<!-- Node11 -->
<g id="node11" class="node"><title>Node11</title>
<polygon fill="white" stroke="#bfbfbf" points="348,-1231.5 348,-1310.5 473,-1310.5 473,-1231.5 348,-1231.5"/>
<text text-anchor="start" x="356" y="-1298.5" font-family="Helvetica,sans-Serif" font-size="10.00">pair&lt; const Ra::Engine</text>
<text text-anchor="start" x="356" y="-1287.5" font-family="Helvetica,sans-Serif" font-size="10.00">::Entity *, Ra::Engine</text>
<text text-anchor="middle" x="410.5" y="-1276.5" font-family="Helvetica,sans-Serif" font-size="10.00">::Component * &gt;</text>
<polyline fill="none" stroke="#bfbfbf" points="348,-1269.5 473,-1269.5 "/>
<text text-anchor="middle" x="410.5" y="-1257.5" font-family="Helvetica,sans-Serif" font-size="10.00"> </text>
<polyline fill="none" stroke="#bfbfbf" points="348,-1250.5 473,-1250.5 "/>
<text text-anchor="middle" x="410.5" y="-1238.5" font-family="Helvetica,sans-Serif" font-size="10.00"> </text>
</g>
<!-- Node11&#45;&gt;Node10 -->
<g id="edge10" class="edge"><title>Node11&#45;&gt;Node10</title>
<path fill="none" stroke="#404040" d="M414.497,-1231.25C417.773,-1183.28 417.887,-1100.18 388.5,-1037 387.195,-1034.19 385.691,-1031.44 384.035,-1028.76"/>
<polygon fill="none" stroke="#404040" points="383.903,-1028.57 377.174,-1025.98 376.978,-1018.77 383.707,-1021.37 383.903,-1028.57"/>
<text text-anchor="middle" x="429" y="-1051" font-family="Helvetica,sans-Serif" font-size="10.00"> +elements</text>
</g>
<!-- Node12 -->
<g id="node12" class="node"><title>Node12</title>
<g id="a_node12"><a xlink:href="classRa_1_1Engine_1_1Entity.html" target="_top" xlink:title="An entity is an scene element. It ties together components with a transform. ">
<polygon fill="white" stroke="black" points="431.5,-647.5 431.5,-891.5 571.5,-891.5 571.5,-647.5 431.5,-647.5"/>
<text text-anchor="middle" x="501.5" y="-879.5" font-family="Helvetica,sans-Serif" font-size="10.00">Ra::Engine::Entity</text>
<polyline fill="none" stroke="black" points="431.5,-872.5 571.5,-872.5 "/>
<text text-anchor="middle" x="501.5" y="-860.5" font-family="Helvetica,sans-Serif" font-size="10.00"> </text>
<polyline fill="none" stroke="black" points="431.5,-853.5 571.5,-853.5 "/>
<text text-anchor="start" x="439.5" y="-841.5" font-family="Helvetica,sans-Serif" font-size="10.00">+ Entity()</text>
<text text-anchor="start" x="439.5" y="-830.5" font-family="Helvetica,sans-Serif" font-size="10.00">+ Entity()</text>
<text text-anchor="start" x="439.5" y="-819.5" font-family="Helvetica,sans-Serif" font-size="10.00">+ operator=()</text>
<text text-anchor="start" x="439.5" y="-808.5" font-family="Helvetica,sans-Serif" font-size="10.00">+ ~Entity()</text>
<text text-anchor="start" x="439.5" y="-797.5" font-family="Helvetica,sans-Serif" font-size="10.00">+ getName()</text>
<text text-anchor="start" x="439.5" y="-786.5" font-family="Helvetica,sans-Serif" font-size="10.00">+ rename()</text>
<text text-anchor="start" x="439.5" y="-775.5" font-family="Helvetica,sans-Serif" font-size="10.00">+ setTransform()</text>
<text text-anchor="start" x="439.5" y="-764.5" font-family="Helvetica,sans-Serif" font-size="10.00">+ setTransform()</text>
<text text-anchor="start" x="439.5" y="-753.5" font-family="Helvetica,sans-Serif" font-size="10.00">+ getTransform()</text>
<text text-anchor="start" x="439.5" y="-742.5" font-family="Helvetica,sans-Serif" font-size="10.00">+ getTransformAsMatrix()</text>
<text text-anchor="start" x="439.5" y="-731.5" font-family="Helvetica,sans-Serif" font-size="10.00">+ swapTransformBuffers()</text>
<text text-anchor="start" x="439.5" y="-720.5" font-family="Helvetica,sans-Serif" font-size="10.00">+ addComponent()</text>
<text text-anchor="start" x="439.5" y="-709.5" font-family="Helvetica,sans-Serif" font-size="10.00">+ removeComponent()</text>
<text text-anchor="start" x="439.5" y="-698.5" font-family="Helvetica,sans-Serif" font-size="10.00">+ getComponent()</text>
<text text-anchor="start" x="439.5" y="-687.5" font-family="Helvetica,sans-Serif" font-size="10.00">+ getComponent()</text>
<text text-anchor="start" x="439.5" y="-676.5" font-family="Helvetica,sans-Serif" font-size="10.00">+ getComponents()</text>
<text text-anchor="start" x="439.5" y="-665.5" font-family="Helvetica,sans-Serif" font-size="10.00">+ getNumComponents()</text>
<text text-anchor="start" x="439.5" y="-654.5" font-family="Helvetica,sans-Serif" font-size="10.00">+ rayCastQuery()</text>
</a>
</g>
</g>
<!-- Node12&#45;&gt;Node3 -->
<g id="edge12" class="edge"><title>Node12&#45;&gt;Node3</title>
<path fill="none" stroke="#404040" d="M465.023,-647.344C461.437,-635.432 457.795,-623.339 454.207,-611.419"/>
<polygon fill="none" stroke="#404040" points="454.099,-611.062 448.539,-606.469 450.64,-599.571 456.2,-604.163 454.099,-611.062"/>
<text text-anchor="middle" x="486.5" y="-621" font-family="Helvetica,sans-Serif" font-size="10.00"> #m_entity</text>
</g>
<!-- Node13 -->
<g id="node13" class="node"><title>Node13</title>
<g id="a_node13"><a xlink:href="classRa_1_1Core_1_1IndexedObject.html" target="_top" xlink:title="{Ra::Core::IndexedObject\n||+ IndexedObject()\l+ IndexedObject()\l+ ~IndexedObject()\l}">
<polygon fill="white" stroke="black" points="438,-939.5 438,-1018.5 569,-1018.5 569,-939.5 438,-939.5"/>
<text text-anchor="middle" x="503.5" y="-1006.5" font-family="Helvetica,sans-Serif" font-size="10.00">Ra::Core::IndexedObject</text>
<polyline fill="none" stroke="black" points="438,-999.5 569,-999.5 "/>
<text text-anchor="middle" x="503.5" y="-987.5" font-family="Helvetica,sans-Serif" font-size="10.00"> </text>
<polyline fill="none" stroke="black" points="438,-980.5 569,-980.5 "/>
<text text-anchor="start" x="446" y="-968.5" font-family="Helvetica,sans-Serif" font-size="10.00">+ IndexedObject()</text>
<text text-anchor="start" x="446" y="-957.5" font-family="Helvetica,sans-Serif" font-size="10.00">+ IndexedObject()</text>
<text text-anchor="start" x="446" y="-946.5" font-family="Helvetica,sans-Serif" font-size="10.00">+ ~IndexedObject()</text>
</a>
</g>
</g>
<!-- Node13&#45;&gt;Node12 -->
<g id="edge13" class="edge"><title>Node13&#45;&gt;Node12</title>
<path fill="none" stroke="midnightblue" d="M503.03,-929.24C502.919,-917.697 502.795,-904.876 502.668,-891.667"/>
<polygon fill="none" stroke="midnightblue" points="499.532,-929.491 503.129,-939.457 506.532,-929.424 499.532,-929.491"/>
</g>
<!-- Node14 -->
<g id="node14" class="node"><title>Node14</title>
<polygon fill="white" stroke="#bfbfbf" points="491,-1242.5 491,-1299.5 526,-1299.5 526,-1242.5 491,-1242.5"/>
<text text-anchor="middle" x="508.5" y="-1287.5" font-family="Helvetica,sans-Serif" font-size="10.00">uint</text>
<polyline fill="none" stroke="#bfbfbf" points="491,-1280.5 526,-1280.5 "/>
<text text-anchor="middle" x="508.5" y="-1268.5" font-family="Helvetica,sans-Serif" font-size="10.00"> </text>
<polyline fill="none" stroke="#bfbfbf" points="491,-1261.5 526,-1261.5 "/>
<text text-anchor="middle" x="508.5" y="-1249.5" font-family="Helvetica,sans-Serif" font-size="10.00"> </text>
</g>
<!-- Node14&#45;&gt;Node13 -->
<g id="edge14" class="edge"><title>Node14&#45;&gt;Node13</title>
<path fill="none" stroke="#404040" d="M508.025,-1242.46C507.188,-1193.91 505.439,-1092.45 504.377,-1030.87"/>
<polygon fill="none" stroke="#404040" points="504.375,-1030.74 500.272,-1024.81 504.168,-1018.74 508.271,-1024.67 504.375,-1030.74"/>
<text text-anchor="middle" x="518" y="-1051" font-family="Helvetica,sans-Serif" font-size="10.00"> +idx</text>
</g>
<!-- Node15 -->
<g id="node15" class="node"><title>Node15</title>
<g id="a_node15"><a xlink:title="STL class. ">
<polygon fill="white" stroke="#bfbfbf" points="598,-741 598,-798 663,-798 663,-741 598,-741"/>
<text text-anchor="middle" x="630.5" y="-786" font-family="Helvetica,sans-Serif" font-size="10.00">std::string</text>
<polyline fill="none" stroke="#bfbfbf" points="598,-779 663,-779 "/>
<text text-anchor="middle" x="630.5" y="-767" font-family="Helvetica,sans-Serif" font-size="10.00"> </text>
<polyline fill="none" stroke="#bfbfbf" points="598,-760 663,-760 "/>
<text text-anchor="middle" x="630.5" y="-748" font-family="Helvetica,sans-Serif" font-size="10.00"> </text>
</a>
</g>
</g>
<!-- Node15&#45;&gt;Node3 -->
<g id="edge15" class="edge"><title>Node15&#45;&gt;Node3</title>
<path fill="none" stroke="#404040" d="M622.722,-740.842C614.683,-715.117 600.489,-676.439 580.5,-647 560.045,-616.873 533.079,-587.947 506.982,-563.289"/>
<polygon fill="none" stroke="#404040" points="506.961,-563.27 499.844,-562.111 498.176,-555.095 505.293,-556.254 506.961,-563.27"/>
<text text-anchor="middle" x="594" y="-621" font-family="Helvetica,sans-Serif" font-size="10.00"> #m_name</text>
</g>
<!-- Node16 -->
<g id="node16" class="node"><title>Node16</title>
<g id="a_node16"><a xlink:title="STL class. ">
<polygon fill="white" stroke="#bfbfbf" points="587,-945 587,-1013 690,-1013 690,-945 587,-945"/>
<text text-anchor="start" x="595" y="-1001" font-family="Helvetica,sans-Serif" font-size="10.00">std::basic_string&lt;</text>
<text text-anchor="middle" x="638.5" y="-990" font-family="Helvetica,sans-Serif" font-size="10.00"> char &gt;</text>
<polyline fill="none" stroke="#bfbfbf" points="587,-983 690,-983 "/>
<text text-anchor="middle" x="638.5" y="-971" font-family="Helvetica,sans-Serif" font-size="10.00"> </text>
<polyline fill="none" stroke="#bfbfbf" points="587,-964 690,-964 "/>
<text text-anchor="middle" x="638.5" y="-952" font-family="Helvetica,sans-Serif" font-size="10.00"> </text>
</a>
</g>
</g>
<!-- Node16&#45;&gt;Node15 -->
<g id="edge16" class="edge"><title>Node16&#45;&gt;Node15</title>
<path fill="none" stroke="midnightblue" d="M636.829,-934.657C635.244,-893.551 632.911,-833.033 631.565,-798.113"/>
<polygon fill="none" stroke="midnightblue" points="633.332,-934.804 637.215,-944.662 640.327,-934.534 633.332,-934.804"/>
</g>
</g>
</svg>
