<?xml version="1.0" encoding="UTF-8" standalone="no"?>
<!DOCTYPE svg PUBLIC "-//W3C//DTD SVG 1.1//EN"
 "http://www.w3.org/Graphics/SVG/1.1/DTD/svg11.dtd">
<!-- Generated by graphviz version 2.38.0 (20140413.2041)
 -->
<!-- Title: SkinningPlugin::SkinningComponent::setupSkinningType Pages: 1 -->
<svg width="844pt" height="480pt"
 viewBox="0.00 0.00 844.00 480.00" xmlns="http://www.w3.org/2000/svg" xmlns:xlink="http://www.w3.org/1999/xlink">
<g id="graph0" class="graph" transform="scale(1 1) rotate(0) translate(4 476)">
<title>SkinningPlugin::SkinningComponent::setupSkinningType</title>
<polygon fill="white" stroke="none" points="-4,4 -4,-476 840,-476 840,4 -4,4"/>
<!-- Node1 -->
<g id="node1" class="node"><title>Node1</title>
<polygon fill="#bfbfbf" stroke="black" points="0,-269.5 0,-299.5 167,-299.5 167,-269.5 0,-269.5"/>
<text text-anchor="start" x="8" y="-287.5" font-family="Helvetica,sans-Serif" font-size="10.00">SkinningPlugin::Skinning</text>
<text text-anchor="middle" x="83.5" y="-276.5" font-family="Helvetica,sans-Serif" font-size="10.00">Component::setupSkinningType</text>
</g>
<!-- Node2 -->
<g id="node2" class="node"><title>Node2</title>
<g id="a_node2"><a xlink:href="namespaceRa_1_1Core_1_1Animation.html#a40700cdabdd47fdb360f6bbfe692b36d" target="_top" xlink:title="Compute the optimal center of rotations (1 per vertex) based on weight similarity. ">
<polygon fill="white" stroke="black" points="203,-269.5 203,-299.5 315,-299.5 315,-269.5 203,-269.5"/>
<text text-anchor="start" x="211" y="-287.5" font-family="Helvetica,sans-Serif" font-size="10.00">Ra::Core::Animation</text>
<text text-anchor="middle" x="259" y="-276.5" font-family="Helvetica,sans-Serif" font-size="10.00">::computeCoR</text>
</a>
</g>
</g>
<!-- Node1&#45;&gt;Node2 -->
<g id="edge1" class="edge"><title>Node1&#45;&gt;Node2</title>
<path fill="none" stroke="midnightblue" d="M167.185,-284.5C175.748,-284.5 184.364,-284.5 192.698,-284.5"/>
<polygon fill="midnightblue" stroke="midnightblue" points="192.701,-288 202.701,-284.5 192.701,-281 192.701,-288"/>
</g>
<!-- Node3 -->
<g id="node3" class="node"><title>Node3</title>
<g id="a_node3"><a xlink:href="classRa_1_1Core_1_1TriangleMesh.html#a21ae39474fd85af3bfbcceb34e29d8ad" target="_top" xlink:title="Copy only the mesh faces and geometry. ">
<polygon fill="white" stroke="black" points="353,-392.5 353,-422.5 478,-422.5 478,-392.5 353,-392.5"/>
<text text-anchor="start" x="361" y="-410.5" font-family="Helvetica,sans-Serif" font-size="10.00">Ra::Core::TriangleMesh</text>
<text text-anchor="middle" x="415.5" y="-399.5" font-family="Helvetica,sans-Serif" font-size="10.00">::copyBaseGeometry</text>
</a>
</g>
</g>
<!-- Node2&#45;&gt;Node3 -->
<g id="edge2" class="edge"><title>Node2&#45;&gt;Node3</title>
<path fill="none" stroke="midnightblue" d="M271.54,-299.544C287.581,-319.655 318.349,-355.435 351,-378.5 355.756,-381.86 360.964,-384.98 366.286,-387.832"/>
<polygon fill="midnightblue" stroke="midnightblue" points="364.786,-390.996 375.291,-392.374 367.939,-384.745 364.786,-390.996"/>
</g>
<!-- Node7 -->
<g id="node7" class="node"><title>Node7</title>
<g id="a_node7"><a xlink:href="classRa_1_1Core_1_1TriangleMesh.html#a495116f40cfec8bb6504698d786d4b8c" target="_top" xlink:title="Access the vertices positions. ">
<polygon fill="white" stroke="black" points="353,-338.5 353,-368.5 478,-368.5 478,-338.5 353,-338.5"/>
<text text-anchor="start" x="361" y="-356.5" font-family="Helvetica,sans-Serif" font-size="10.00">Ra::Core::TriangleMesh</text>
<text text-anchor="middle" x="415.5" y="-345.5" font-family="Helvetica,sans-Serif" font-size="10.00">::vertices</text>
</a>
</g>
</g>
<!-- Node2&#45;&gt;Node7 -->
<g id="edge6" class="edge"><title>Node2&#45;&gt;Node7</title>
<path fill="none" stroke="midnightblue" d="M293.906,-299.642C316.647,-309.799 346.798,-323.264 371.262,-334.19"/>
<polygon fill="midnightblue" stroke="midnightblue" points="370.115,-337.511 380.673,-338.393 372.97,-331.119 370.115,-337.511"/>
</g>
<!-- Node9 -->
<g id="node9" class="node"><title>Node9</title>
<g id="a_node9"><a xlink:href="classRa_1_1Core_1_1TopologicalMesh.html#a94c32854d7aa51edc42d5d1dd70856f3" target="_top" xlink:title="Return the half&#45;edge associated with a given vertex and face. ">
<polygon fill="white" stroke="black" points="517.5,-294.5 517.5,-324.5 657.5,-324.5 657.5,-294.5 517.5,-294.5"/>
<text text-anchor="start" x="525.5" y="-312.5" font-family="Helvetica,sans-Serif" font-size="10.00">Ra::Core::TopologicalMesh</text>
<text text-anchor="middle" x="587.5" y="-301.5" font-family="Helvetica,sans-Serif" font-size="10.00">::halfedge_handle</text>
</a>
</g>
</g>
<!-- Node2&#45;&gt;Node9 -->
<g id="edge8" class="edge"><title>Node2&#45;&gt;Node9</title>
<path fill="none" stroke="midnightblue" d="M315.017,-288.713C367.674,-292.745 447.673,-298.87 507.206,-303.428"/>
<polygon fill="midnightblue" stroke="midnightblue" points="507.086,-306.929 517.324,-304.203 507.62,-299.95 507.086,-306.929"/>
</g>
<!-- Node10 -->
<g id="node10" class="node"><title>Node10</title>
<g id="a_node10"><a xlink:href="classRa_1_1Core_1_1TMOperations.html#aeaa56702c9396dd93a0748e9a8a54b36" target="_top" xlink:title="Apply a 2&#45;4 edge split. ">
<polygon fill="white" stroke="black" points="351,-245.5 351,-275.5 480,-275.5 480,-245.5 351,-245.5"/>
<text text-anchor="start" x="359" y="-263.5" font-family="Helvetica,sans-Serif" font-size="10.00">Ra::Core::TMOperations</text>
<text text-anchor="middle" x="415.5" y="-252.5" font-family="Helvetica,sans-Serif" font-size="10.00">::splitEdge</text>
</a>
</g>
</g>
<!-- Node2&#45;&gt;Node10 -->
<g id="edge9" class="edge"><title>Node2&#45;&gt;Node10</title>
<path fill="none" stroke="midnightblue" d="M315.342,-275.903C323.619,-274.617 332.262,-273.275 340.845,-271.942"/>
<polygon fill="midnightblue" stroke="midnightblue" points="341.525,-275.378 350.869,-270.384 340.45,-268.461 341.525,-275.378"/>
</g>
<!-- Node22 -->
<g id="node22" class="node"><title>Node22</title>
<g id="a_node22"><a xlink:href="namespaceRa_1_1Core_1_1Geometry.html#a178f2b7309fe2ea5bc31a3abcb25368e" target="_top" xlink:title="Ra::Core::Geometry\l::triangleArea">
<polygon fill="white" stroke="black" points="360,-150.5 360,-180.5 471,-180.5 471,-150.5 360,-150.5"/>
<text text-anchor="start" x="368" y="-168.5" font-family="Helvetica,sans-Serif" font-size="10.00">Ra::Core::Geometry</text>
<text text-anchor="middle" x="415.5" y="-157.5" font-family="Helvetica,sans-Serif" font-size="10.00">::triangleArea</text>
</a>
</g>
</g>
<!-- Node2&#45;&gt;Node22 -->
<g id="edge26" class="edge"><title>Node2&#45;&gt;Node22</title>
<path fill="none" stroke="midnightblue" d="M279.568,-269.429C306.584,-248.62 355.469,-210.967 386.391,-187.15"/>
<polygon fill="midnightblue" stroke="midnightblue" points="388.817,-189.7 394.603,-180.825 384.545,-184.154 388.817,-189.7"/>
</g>
<!-- Node25 -->
<g id="node25" class="node"><title>Node25</title>
<g id="a_node25"><a xlink:href="namespaceRa_1_1Core_1_1Animation.html#a71236244c5603a8a5bc63595db9b7717" target="_top" xlink:title="Computes the similarity between two weights vector. ">
<polygon fill="white" stroke="black" points="359.5,-101.5 359.5,-131.5 471.5,-131.5 471.5,-101.5 359.5,-101.5"/>
<text text-anchor="start" x="367.5" y="-119.5" font-family="Helvetica,sans-Serif" font-size="10.00">Ra::Core::Animation</text>
<text text-anchor="middle" x="415.5" y="-108.5" font-family="Helvetica,sans-Serif" font-size="10.00">::weightSimilarity</text>
</a>
</g>
</g>
<!-- Node2&#45;&gt;Node25 -->
<g id="edge29" class="edge"><title>Node2&#45;&gt;Node25</title>
<path fill="none" stroke="midnightblue" d="M265.785,-269.185C277.51,-240.104 306.773,-176.58 351,-140.5 352.575,-139.215 354.227,-137.994 355.937,-136.835"/>
<polygon fill="midnightblue" stroke="midnightblue" points="358.069,-139.639 364.894,-131.536 354.505,-133.615 358.069,-139.639"/>
</g>
<!-- Node4 -->
<g id="node4" class="node"><title>Node4</title>
<g id="a_node4"><a xlink:href="classRa_1_1Core_1_1TriangleMesh.html#aa838b995226a922fc10f2f8f4c6dec31" target="_top" xlink:title="Erases all data, making the mesh empty. ">
<polygon fill="white" stroke="black" points="525,-392.5 525,-422.5 650,-422.5 650,-392.5 525,-392.5"/>
<text text-anchor="start" x="533" y="-410.5" font-family="Helvetica,sans-Serif" font-size="10.00">Ra::Core::TriangleMesh</text>
<text text-anchor="middle" x="587.5" y="-399.5" font-family="Helvetica,sans-Serif" font-size="10.00">::clear</text>
</a>
</g>
</g>
<!-- Node3&#45;&gt;Node4 -->
<g id="edge3" class="edge"><title>Node3&#45;&gt;Node4</title>
<path fill="none" stroke="midnightblue" d="M478.355,-407.5C490.222,-407.5 502.74,-407.5 514.885,-407.5"/>
<polygon fill="midnightblue" stroke="midnightblue" points="514.976,-411 524.976,-407.5 514.976,-404 514.976,-411"/>
</g>
<!-- Node6 -->
<g id="node6" class="node"><title>Node6</title>
<g id="a_node6"><a xlink:href="classRa_1_1Core_1_1AttribManager.html#ab973dc08cbca7da7108c40bb56c4a708" target="_top" xlink:title="Base copy, does nothing. ">
<polygon fill="white" stroke="black" points="522,-441.5 522,-471.5 653,-471.5 653,-441.5 522,-441.5"/>
<text text-anchor="start" x="530" y="-459.5" font-family="Helvetica,sans-Serif" font-size="10.00">Ra::Core::AttribManager</text>
<text text-anchor="middle" x="587.5" y="-448.5" font-family="Helvetica,sans-Serif" font-size="10.00">::copyAttributes</text>
</a>
</g>
</g>
<!-- Node3&#45;&gt;Node6 -->
<g id="edge5" class="edge"><title>Node3&#45;&gt;Node6</title>
<path fill="none" stroke="midnightblue" d="M468.893,-422.601C486.507,-427.679 506.323,-433.39 524.598,-438.658"/>
<polygon fill="midnightblue" stroke="midnightblue" points="523.702,-442.042 534.28,-441.448 525.641,-435.316 523.702,-442.042"/>
</g>
<!-- Node5 -->
<g id="node5" class="node"><title>Node5</title>
<g id="a_node5"><a xlink:href="classRa_1_1Core_1_1AttribManager.html#ae53b7e22a2098c6151c6b2702569a3be" target="_top" xlink:title="clear all attribs, invalidate handles. ">
<polygon fill="white" stroke="black" points="700,-392.5 700,-422.5 831,-422.5 831,-392.5 700,-392.5"/>
<text text-anchor="start" x="708" y="-410.5" font-family="Helvetica,sans-Serif" font-size="10.00">Ra::Core::AttribManager</text>
<text text-anchor="middle" x="765.5" y="-399.5" font-family="Helvetica,sans-Serif" font-size="10.00">::clear</text>
</a>
</g>
</g>
<!-- Node4&#45;&gt;Node5 -->
<g id="edge4" class="edge"><title>Node4&#45;&gt;Node5</title>
<path fill="none" stroke="midnightblue" d="M650.056,-407.5C662.932,-407.5 676.64,-407.5 689.93,-407.5"/>
<polygon fill="midnightblue" stroke="midnightblue" points="689.991,-411 699.991,-407.5 689.991,-404 689.991,-411"/>
</g>
<!-- Node8 -->
<g id="node8" class="node"><title>Node8</title>
<g id="a_node8"><a xlink:href="classRa_1_1Core_1_1AttribManager.html#aaa6088620425c1e1d74b50f1b50eb596" target="_top" xlink:title="Get attribute by handle. ">
<polygon fill="white" stroke="black" points="522,-343.5 522,-373.5 653,-373.5 653,-343.5 522,-343.5"/>
<text text-anchor="start" x="530" y="-361.5" font-family="Helvetica,sans-Serif" font-size="10.00">Ra::Core::AttribManager</text>
<text text-anchor="middle" x="587.5" y="-350.5" font-family="Helvetica,sans-Serif" font-size="10.00">::getAttrib</text>
</a>
</g>
</g>
<!-- Node7&#45;&gt;Node8 -->
<g id="edge7" class="edge"><title>Node7&#45;&gt;Node8</title>
<path fill="none" stroke="midnightblue" d="M478.355,-355.319C489.185,-355.638 500.558,-355.972 511.694,-356.3"/>
<polygon fill="midnightblue" stroke="midnightblue" points="511.733,-359.802 521.832,-356.598 511.939,-352.805 511.733,-359.802"/>
</g>
<!-- Node10&#45;&gt;Node9 -->
<g id="edge11" class="edge"><title>Node10&#45;&gt;Node9</title>
<path fill="none" stroke="midnightblue" d="M468.893,-275.601C486.507,-280.679 506.323,-286.39 524.598,-291.658"/>
<polygon fill="midnightblue" stroke="midnightblue" points="523.702,-295.042 534.28,-294.448 525.641,-288.316 523.702,-295.042"/>
</g>
<!-- Node11 -->
<g id="node11" class="node"><title>Node11</title>
<g id="a_node11"><a xlink:href="namespaceRa_1_1Engine_1_1DrawPrimitives.html#a2eff9774611ef4e9cdfb2ac969182123" target="_top" xlink:title="Displays given point shown as the crossing of 3 lines of length &#39;scale&#39;. ">
<polygon fill="white" stroke="black" points="516,-245.5 516,-275.5 659,-275.5 659,-245.5 516,-245.5"/>
<text text-anchor="start" x="524" y="-263.5" font-family="Helvetica,sans-Serif" font-size="10.00">Ra::Engine::DrawPrimitives</text>
<text text-anchor="middle" x="587.5" y="-252.5" font-family="Helvetica,sans-Serif" font-size="10.00">::Point</text>
</a>
</g>
</g>
<!-- Node10&#45;&gt;Node11 -->
<g id="edge10" class="edge"><title>Node10&#45;&gt;Node11</title>
<path fill="none" stroke="midnightblue" d="M480.285,-260.5C488.615,-260.5 497.234,-260.5 505.795,-260.5"/>
<polygon fill="midnightblue" stroke="midnightblue" points="505.798,-264 515.798,-260.5 505.798,-257 505.798,-264"/>
</g>
<!-- Node12 -->
<g id="node12" class="node"><title>Node12</title>
<g id="a_node12"><a xlink:href="classRa_1_1Core_1_1TopologicalMesh.html#a42aa050397dd07b26bed2b35f3748246" target="_top" xlink:title="Interpolate all properties on edge center (after edge split). ">
<polygon fill="white" stroke="black" points="517.5,-196.5 517.5,-226.5 657.5,-226.5 657.5,-196.5 517.5,-196.5"/>
<text text-anchor="start" x="525.5" y="-214.5" font-family="Helvetica,sans-Serif" font-size="10.00">Ra::Core::TopologicalMesh</text>
<text text-anchor="middle" x="587.5" y="-203.5" font-family="Helvetica,sans-Serif" font-size="10.00">::interpolateAllProps</text>
</a>
</g>
</g>
<!-- Node10&#45;&gt;Node12 -->
<g id="edge12" class="edge"><title>Node10&#45;&gt;Node12</title>
<path fill="none" stroke="midnightblue" d="M468.893,-245.399C486.507,-240.321 506.323,-234.61 524.598,-229.342"/>
<polygon fill="midnightblue" stroke="midnightblue" points="525.641,-232.684 534.28,-226.552 523.702,-225.958 525.641,-232.684"/>
</g>
<!-- Node19 -->
<g id="node19" class="node"><title>Node19</title>
<g id="a_node19"><a xlink:href="classRa_1_1Core_1_1TopologicalMesh.html#ab8adf0e20463e4e4a4eb1b4624eb5b40" target="_top" xlink:title="Copy all properties from input_heh to copy_heh. ">
<polygon fill="white" stroke="black" points="517.5,-147.5 517.5,-177.5 657.5,-177.5 657.5,-147.5 517.5,-147.5"/>
<text text-anchor="start" x="525.5" y="-165.5" font-family="Helvetica,sans-Serif" font-size="10.00">Ra::Core::TopologicalMesh</text>
<text text-anchor="middle" x="587.5" y="-154.5" font-family="Helvetica,sans-Serif" font-size="10.00">::copyAllProps</text>
</a>
</g>
</g>
<!-- Node10&#45;&gt;Node19 -->
<g id="edge19" class="edge"><title>Node10&#45;&gt;Node19</title>
<path fill="none" stroke="midnightblue" d="M433.36,-245.359C452.311,-228.987 484.555,-203.022 516,-186.5 519.443,-184.691 523.049,-182.976 526.734,-181.358"/>
<polygon fill="midnightblue" stroke="midnightblue" points="528.095,-184.582 536.006,-177.535 525.427,-178.111 528.095,-184.582"/>
</g>
<!-- Node13 -->
<g id="node13" class="node"><title>Node13</title>
<g id="a_node13"><a xlink:href="classRa_1_1Core_1_1TopologicalMesh.html#ada6b93df0b80c67c28eec20876a14eab" target="_top" xlink:title="Interpolate normal property on edge center (after edge split). ">
<polygon fill="white" stroke="black" points="695.5,-294.5 695.5,-324.5 835.5,-324.5 835.5,-294.5 695.5,-294.5"/>
<text text-anchor="start" x="703.5" y="-312.5" font-family="Helvetica,sans-Serif" font-size="10.00">Ra::Core::TopologicalMesh</text>
<text text-anchor="middle" x="765.5" y="-301.5" font-family="Helvetica,sans-Serif" font-size="10.00">::interpolateNormal</text>
</a>
</g>
</g>
<!-- Node12&#45;&gt;Node13 -->
<g id="edge13" class="edge"><title>Node12&#45;&gt;Node13</title>
<path fill="none" stroke="midnightblue" d="M642.221,-226.659C648.157,-229.447 653.892,-232.705 659,-236.5 680.692,-252.616 673.241,-269.474 695,-285.5 696.879,-286.884 698.844,-288.193 700.873,-289.43"/>
<polygon fill="midnightblue" stroke="midnightblue" points="699.65,-292.746 710.114,-294.407 702.969,-286.583 699.65,-292.746"/>
</g>
<!-- Node14 -->
<g id="node14" class="node"><title>Node14</title>
<g id="a_node14"><a xlink:href="classRa_1_1Core_1_1TopologicalMesh.html#ace05f7289e356f433519904221ea94be" target="_top" xlink:title="Interpolate props on edge center (after edge split). ">
<polygon fill="white" stroke="black" points="695.5,-343.5 695.5,-373.5 835.5,-373.5 835.5,-343.5 695.5,-343.5"/>
<text text-anchor="start" x="703.5" y="-361.5" font-family="Helvetica,sans-Serif" font-size="10.00">Ra::Core::TopologicalMesh</text>
<text text-anchor="middle" x="765.5" y="-350.5" font-family="Helvetica,sans-Serif" font-size="10.00">::interpolateProps</text>
</a>
</g>
</g>
<!-- Node12&#45;&gt;Node14 -->
<g id="edge14" class="edge"><title>Node12&#45;&gt;Node14</title>
<path fill="none" stroke="midnightblue" d="M645.799,-226.663C650.618,-229.416 655.122,-232.665 659,-236.5 691.995,-269.125 661.87,-302.011 695,-334.5 696.082,-335.561 697.214,-336.576 698.387,-337.546"/>
<polygon fill="midnightblue" stroke="midnightblue" points="696.468,-340.474 706.674,-343.318 700.469,-334.73 696.468,-340.474"/>
</g>
<!-- Node15 -->
<g id="node15" class="node"><title>Node15</title>
<g id="a_node15"><a xlink:href="classRa_1_1Core_1_1TopologicalMesh.html#aa1016df75edb65e69fcdec5465e49245" target="_top" xlink:title="Ra::Core::TopologicalMesh\l::getFloatPropsHandles">
<polygon fill="white" stroke="black" points="695.5,-196.5 695.5,-226.5 835.5,-226.5 835.5,-196.5 695.5,-196.5"/>
<text text-anchor="start" x="703.5" y="-214.5" font-family="Helvetica,sans-Serif" font-size="10.00">Ra::Core::TopologicalMesh</text>
<text text-anchor="middle" x="765.5" y="-203.5" font-family="Helvetica,sans-Serif" font-size="10.00">::getFloatPropsHandles</text>
</a>
</g>
</g>
<!-- Node12&#45;&gt;Node15 -->
<g id="edge15" class="edge"><title>Node12&#45;&gt;Node15</title>
<path fill="none" stroke="midnightblue" d="M657.555,-211.5C666.581,-211.5 675.886,-211.5 685.066,-211.5"/>
<polygon fill="midnightblue" stroke="midnightblue" points="685.356,-215 695.356,-211.5 685.356,-208 685.356,-215"/>
</g>
<!-- Node16 -->
<g id="node16" class="node"><title>Node16</title>
<g id="a_node16"><a xlink:href="classRa_1_1Core_1_1TopologicalMesh.html#acf1e58078add6e5cc9ce13b30fb3baf3" target="_top" xlink:title="Ra::Core::TopologicalMesh\l::getVector2PropsHandles">
<polygon fill="white" stroke="black" points="695,-147.5 695,-177.5 836,-177.5 836,-147.5 695,-147.5"/>
<text text-anchor="start" x="703" y="-165.5" font-family="Helvetica,sans-Serif" font-size="10.00">Ra::Core::TopologicalMesh</text>
<text text-anchor="middle" x="765.5" y="-154.5" font-family="Helvetica,sans-Serif" font-size="10.00">::getVector2PropsHandles</text>
</a>
</g>
</g>
<!-- Node12&#45;&gt;Node16 -->
<g id="edge16" class="edge"><title>Node12&#45;&gt;Node16</title>
<path fill="none" stroke="midnightblue" d="M642.742,-196.399C661.062,-191.298 681.683,-185.557 700.675,-180.27"/>
<polygon fill="midnightblue" stroke="midnightblue" points="701.742,-183.605 710.437,-177.552 699.865,-176.862 701.742,-183.605"/>
</g>
<!-- Node17 -->
<g id="node17" class="node"><title>Node17</title>
<g id="a_node17"><a xlink:href="classRa_1_1Core_1_1TopologicalMesh.html#a6865aee84eb0d92f6acc12081bf8a6f8" target="_top" xlink:title="Ra::Core::TopologicalMesh\l::getVector3PropsHandles">
<polygon fill="white" stroke="black" points="695,-98.5 695,-128.5 836,-128.5 836,-98.5 695,-98.5"/>
<text text-anchor="start" x="703" y="-116.5" font-family="Helvetica,sans-Serif" font-size="10.00">Ra::Core::TopologicalMesh</text>
<text text-anchor="middle" x="765.5" y="-105.5" font-family="Helvetica,sans-Serif" font-size="10.00">::getVector3PropsHandles</text>
</a>
</g>
</g>
<!-- Node12&#45;&gt;Node17 -->
<g id="edge17" class="edge"><title>Node12&#45;&gt;Node17</title>
<path fill="none" stroke="midnightblue" d="M642.221,-196.341C648.157,-193.553 653.892,-190.295 659,-186.5 680.692,-170.384 673.241,-153.526 695,-137.5 696.879,-136.116 698.844,-134.807 700.873,-133.57"/>
<polygon fill="midnightblue" stroke="midnightblue" points="702.969,-136.417 710.114,-128.593 699.65,-130.254 702.969,-136.417"/>
</g>
<!-- Node18 -->
<g id="node18" class="node"><title>Node18</title>
<g id="a_node18"><a xlink:href="classRa_1_1Core_1_1TopologicalMesh.html#a938483e7f6900eeb3914d662b9aac21c" target="_top" xlink:title="Ra::Core::TopologicalMesh\l::getVector4PropsHandles">
<polygon fill="white" stroke="black" points="695,-245.5 695,-275.5 836,-275.5 836,-245.5 695,-245.5"/>
<text text-anchor="start" x="703" y="-263.5" font-family="Helvetica,sans-Serif" font-size="10.00">Ra::Core::TopologicalMesh</text>
<text text-anchor="middle" x="765.5" y="-252.5" font-family="Helvetica,sans-Serif" font-size="10.00">::getVector4PropsHandles</text>
</a>
</g>
</g>
<!-- Node12&#45;&gt;Node18 -->
<g id="edge18" class="edge"><title>Node12&#45;&gt;Node18</title>
<path fill="none" stroke="midnightblue" d="M642.742,-226.601C661.062,-231.702 681.683,-237.443 700.675,-242.73"/>
<polygon fill="midnightblue" stroke="midnightblue" points="699.865,-246.138 710.437,-245.448 701.742,-239.395 699.865,-246.138"/>
</g>
<!-- Node19&#45;&gt;Node15 -->
<g id="edge22" class="edge"><title>Node19&#45;&gt;Node15</title>
<path fill="none" stroke="midnightblue" d="M642.742,-177.601C661.062,-182.702 681.683,-188.443 700.675,-193.73"/>
<polygon fill="midnightblue" stroke="midnightblue" points="699.865,-197.138 710.437,-196.448 701.742,-190.395 699.865,-197.138"/>
</g>
<!-- Node19&#45;&gt;Node16 -->
<g id="edge23" class="edge"><title>Node19&#45;&gt;Node16</title>
<path fill="none" stroke="midnightblue" d="M657.555,-162.5C666.441,-162.5 675.598,-162.5 684.639,-162.5"/>
<polygon fill="midnightblue" stroke="midnightblue" points="684.777,-166 694.777,-162.5 684.777,-159 684.777,-166"/>
</g>
<!-- Node19&#45;&gt;Node17 -->
<g id="edge24" class="edge"><title>Node19&#45;&gt;Node17</title>
<path fill="none" stroke="midnightblue" d="M642.742,-147.399C661.062,-142.298 681.683,-136.557 700.675,-131.27"/>
<polygon fill="midnightblue" stroke="midnightblue" points="701.742,-134.605 710.437,-128.552 699.865,-127.862 701.742,-134.605"/>
</g>
<!-- Node19&#45;&gt;Node18 -->
<g id="edge25" class="edge"><title>Node19&#45;&gt;Node18</title>
<path fill="none" stroke="midnightblue" d="M643.668,-177.525C649.087,-180.088 654.308,-183.06 659,-186.5 680.794,-202.478 673.344,-219.335 695,-235.5 697.489,-237.358 700.128,-239.088 702.869,-240.697"/>
<polygon fill="midnightblue" stroke="midnightblue" points="701.418,-243.889 711.899,-245.439 704.672,-237.691 701.418,-243.889"/>
</g>
<!-- Node20 -->
<g id="node20" class="node"><title>Node20</title>
<g id="a_node20"><a xlink:href="classRa_1_1Core_1_1TopologicalMesh.html#afc2c2977da4b6cc4a76a044a580cfacf" target="_top" xlink:title="Copy the normal property from input_heh to copy_heh. ">
<polygon fill="white" stroke="black" points="695.5,-0.5 695.5,-30.5 835.5,-30.5 835.5,-0.5 695.5,-0.5"/>
<text text-anchor="start" x="703.5" y="-18.5" font-family="Helvetica,sans-Serif" font-size="10.00">Ra::Core::TopologicalMesh</text>
<text text-anchor="middle" x="765.5" y="-7.5" font-family="Helvetica,sans-Serif" font-size="10.00">::copyNormal</text>
</a>
</g>
</g>
<!-- Node19&#45;&gt;Node20 -->
<g id="edge20" class="edge"><title>Node19&#45;&gt;Node20</title>
<path fill="none" stroke="midnightblue" d="M645.799,-147.337C650.618,-144.584 655.122,-141.335 659,-137.5 691.995,-104.875 661.87,-71.9886 695,-39.5 696.082,-38.4386 697.214,-37.4241 698.387,-36.4544"/>
<polygon fill="midnightblue" stroke="midnightblue" points="700.469,-39.2698 706.674,-30.6819 696.468,-33.526 700.469,-39.2698"/>
</g>
<!-- Node21 -->
<g id="node21" class="node"><title>Node21</title>
<g id="a_node21"><a xlink:href="classRa_1_1Core_1_1TopologicalMesh.html#a7550874ffae2f25bcf60826dc2ff948e" target="_top" xlink:title="Copy props properties from input_heh to copy_heh. ">
<polygon fill="white" stroke="black" points="695.5,-49.5 695.5,-79.5 835.5,-79.5 835.5,-49.5 695.5,-49.5"/>
<text text-anchor="start" x="703.5" y="-67.5" font-family="Helvetica,sans-Serif" font-size="10.00">Ra::Core::TopologicalMesh</text>
<text text-anchor="middle" x="765.5" y="-56.5" font-family="Helvetica,sans-Serif" font-size="10.00">::copyProps</text>
</a>
</g>
</g>
<!-- Node19&#45;&gt;Node21 -->
<g id="edge21" class="edge"><title>Node19&#45;&gt;Node21</title>
<path fill="none" stroke="midnightblue" d="M642.221,-147.341C648.157,-144.553 653.892,-141.295 659,-137.5 680.692,-121.384 673.241,-104.526 695,-88.5 696.879,-87.1161 698.844,-85.8074 700.873,-84.5703"/>
<polygon fill="midnightblue" stroke="midnightblue" points="702.969,-87.4168 710.114,-79.5932 699.65,-81.2539 702.969,-87.4168"/>
</g>
<!-- Node23 -->
<g id="node23" class="node"><title>Node23</title>
<g id="a_node23"><a xlink:href="namespaceOpenMesh.html#a71e7f1dd3eac016d2b8245ac408a291c" target="_top" xlink:title="OpenMesh::cross">
<polygon fill="white" stroke="black" points="538,-71 538,-90 637,-90 637,-71 538,-71"/>
<text text-anchor="middle" x="587.5" y="-78" font-family="Helvetica,sans-Serif" font-size="10.00">OpenMesh::cross</text>
</a>
</g>
</g>
<!-- Node22&#45;&gt;Node23 -->
<g id="edge27" class="edge"><title>Node22&#45;&gt;Node23</title>
<path fill="none" stroke="midnightblue" d="M462.607,-150.396C468.697,-147.538 474.669,-144.247 480,-140.5 499.839,-126.555 495.412,-112.314 516,-99.5 519.857,-97.099 524.017,-94.9979 528.318,-93.1597"/>
<polygon fill="midnightblue" stroke="midnightblue" points="529.78,-96.349 537.898,-89.5414 527.306,-89.8006 529.78,-96.349"/>
</g>
<!-- Node24 -->
<g id="node24" class="node"><title>Node24</title>
<g id="a_node24"><a xlink:href="namespaceOpenMesh.html#a8205f789ce08919bc11c58383574596c" target="_top" xlink:title="OpenMesh::norm">
<polygon fill="white" stroke="black" points="538,-109 538,-128 637,-128 637,-109 538,-109"/>
<text text-anchor="middle" x="587.5" y="-116" font-family="Helvetica,sans-Serif" font-size="10.00">OpenMesh::norm</text>
</a>
</g>
</g>
<!-- Node22&#45;&gt;Node24 -->
<g id="edge28" class="edge"><title>Node22&#45;&gt;Node24</title>
<path fill="none" stroke="midnightblue" d="M469.399,-150.497C484.448,-146.26 500.862,-141.67 516,-137.5 523.993,-135.298 532.504,-132.981 540.746,-130.752"/>
<polygon fill="midnightblue" stroke="midnightblue" points="541.871,-134.074 550.614,-128.089 540.047,-127.315 541.871,-134.074"/>
</g>
</g>
</svg>
