<?xml version="1.0" encoding="UTF-8" standalone="no"?>
<!DOCTYPE svg PUBLIC "-//W3C//DTD SVG 1.1//EN"
 "http://www.w3.org/Graphics/SVG/1.1/DTD/svg11.dtd">
<!-- Generated by graphviz version 2.38.0 (20140413.2041)
 -->
<!-- Title: Ra::Core::Animation::Skeleton::setTransform Pages: 1 -->
<svg width="803pt" height="235pt"
 viewBox="0.00 0.00 803.00 235.00" xmlns="http://www.w3.org/2000/svg" xmlns:xlink="http://www.w3.org/1999/xlink">
<g id="graph0" class="graph" transform="scale(1 1) rotate(0) translate(4 231)">
<title>Ra::Core::Animation::Skeleton::setTransform</title>
<polygon fill="white" stroke="none" points="-4,4 -4,-231 799,-231 799,4 -4,4"/>
<!-- Node1 -->
<g id="node1" class="node"><title>Node1</title>
<polygon fill="#bfbfbf" stroke="black" points="0,-98.5 0,-128.5 133,-128.5 133,-98.5 0,-98.5"/>
<text text-anchor="start" x="8" y="-116.5" font-family="Helvetica,sans-Serif" font-size="10.00">Ra::Core::Animation</text>
<text text-anchor="middle" x="66.5" y="-105.5" font-family="Helvetica,sans-Serif" font-size="10.00">::Skeleton::setTransform</text>
</g>
<!-- Node2 -->
<g id="node2" class="node"><title>Node2</title>
<g id="a_node2"><a xlink:href="classRa_1_1Core_1_1Animation_1_1Skeleton.html#a5679e1beb544b515c4539ce48a2f2ba3" target="_top" xlink:title="Ra::Core::Animation\l::Skeleton::size">
<polygon fill="white" stroke="black" points="169,-98.5 169,-128.5 281,-128.5 281,-98.5 169,-98.5"/>
<text text-anchor="start" x="177" y="-116.5" font-family="Helvetica,sans-Serif" font-size="10.00">Ra::Core::Animation</text>
<text text-anchor="middle" x="225" y="-105.5" font-family="Helvetica,sans-Serif" font-size="10.00">::Skeleton::size</text>
</a>
</g>
</g>
<!-- Node1&#45;&gt;Node2 -->
<g id="edge1" class="edge"><title>Node1&#45;&gt;Node2</title>
<path fill="none" stroke="midnightblue" d="M133.417,-113.5C141.731,-113.5 150.236,-113.5 158.543,-113.5"/>
<polygon fill="midnightblue" stroke="midnightblue" points="158.552,-117 168.552,-113.5 158.552,-110 158.552,-117"/>
</g>
<!-- Node6 -->
<g id="node6" class="node"><title>Node6</title>
<g id="a_node6"><a xlink:href="classRa_1_1Core_1_1Graph_1_1AdjacencyList.html#a8671f51516bd82a2ea4246bc0c1e34f1" target="_top" xlink:title="Ra::Core::Graph::Adjacency\lList::isRoot">
<polygon fill="white" stroke="black" points="465,-196.5 465,-226.5 612,-226.5 612,-196.5 465,-196.5"/>
<text text-anchor="start" x="473" y="-214.5" font-family="Helvetica,sans-Serif" font-size="10.00">Ra::Core::Graph::Adjacency</text>
<text text-anchor="middle" x="538.5" y="-203.5" font-family="Helvetica,sans-Serif" font-size="10.00">List::isRoot</text>
</a>
</g>
</g>
<!-- Node1&#45;&gt;Node6 -->
<g id="edge14" class="edge"><title>Node1&#45;&gt;Node6</title>
<path fill="none" stroke="midnightblue" d="M129.69,-128.558C142.662,-131.6 156.263,-134.716 169,-137.5 267.072,-158.935 380.351,-181.332 455.142,-195.793"/>
<polygon fill="midnightblue" stroke="midnightblue" points="454.497,-199.233 464.979,-197.692 455.824,-192.36 454.497,-199.233"/>
</g>
<!-- Node10 -->
<g id="node10" class="node"><title>Node10</title>
<g id="a_node10"><a xlink:href="classRa_1_1Core_1_1Graph_1_1AdjacencyList.html#a209e8c037a722c617b3feebdbb85c044" target="_top" xlink:title="Ra::Core::Graph::Adjacency\lList::isLeaf">
<polygon fill="white" stroke="black" points="465,-0.5 465,-30.5 612,-30.5 612,-0.5 465,-0.5"/>
<text text-anchor="start" x="473" y="-18.5" font-family="Helvetica,sans-Serif" font-size="10.00">Ra::Core::Graph::Adjacency</text>
<text text-anchor="middle" x="538.5" y="-7.5" font-family="Helvetica,sans-Serif" font-size="10.00">List::isLeaf</text>
</a>
</g>
</g>
<!-- Node1&#45;&gt;Node10 -->
<g id="edge15" class="edge"><title>Node1&#45;&gt;Node10</title>
<path fill="none" stroke="midnightblue" d="M126.431,-98.4994C140.36,-95.0886 155.181,-91.5689 169,-88.5 266.948,-66.7476 380.253,-44.7762 455.084,-30.7047"/>
<polygon fill="midnightblue" stroke="midnightblue" points="455.742,-34.1422 464.925,-28.8578 454.451,-27.2623 455.742,-34.1422"/>
</g>
<!-- Node3 -->
<g id="node3" class="node"><title>Node3</title>
<g id="a_node3"><a xlink:href="namespaceRa_1_1Core_1_1Animation.html#a93d6305ed74ab59961969dce601714c2" target="_top" xlink:title="Ra::Core::Animation\l::operator\&lt;\&lt;">
<polygon fill="white" stroke="black" points="317,-98.5 317,-128.5 429,-128.5 429,-98.5 317,-98.5"/>
<text text-anchor="start" x="325" y="-116.5" font-family="Helvetica,sans-Serif" font-size="10.00">Ra::Core::Animation</text>
<text text-anchor="middle" x="373" y="-105.5" font-family="Helvetica,sans-Serif" font-size="10.00">::operator&lt;&lt;</text>
</a>
</g>
</g>
<!-- Node2&#45;&gt;Node3 -->
<g id="edge2" class="edge"><title>Node2&#45;&gt;Node3</title>
<path fill="none" stroke="midnightblue" d="M281.196,-106.932C289.463,-106.76 298.055,-106.71 306.51,-106.782"/>
<polygon fill="midnightblue" stroke="midnightblue" points="306.676,-110.285 316.726,-106.93 306.777,-103.285 306.676,-110.285"/>
</g>
<!-- Node3&#45;&gt;Node2 -->
<g id="edge3" class="edge"><title>Node3&#45;&gt;Node2</title>
<path fill="none" stroke="midnightblue" d="M316.726,-120.07C308.457,-120.241 299.865,-120.29 291.41,-120.217"/>
<polygon fill="midnightblue" stroke="midnightblue" points="291.246,-116.715 281.196,-120.068 291.144,-123.714 291.246,-116.715"/>
</g>
<!-- Node4 -->
<g id="node4" class="node"><title>Node4</title>
<g id="a_node4"><a xlink:href="classRa_1_1Core_1_1Animation_1_1Handle.html#af2c003e7a85469470d5591b019e8ab80" target="_top" xlink:title="Ra::Core::Animation\l::Handle::getLabel">
<polygon fill="white" stroke="black" points="482.5,-49.5 482.5,-79.5 594.5,-79.5 594.5,-49.5 482.5,-49.5"/>
<text text-anchor="start" x="490.5" y="-67.5" font-family="Helvetica,sans-Serif" font-size="10.00">Ra::Core::Animation</text>
<text text-anchor="middle" x="538.5" y="-56.5" font-family="Helvetica,sans-Serif" font-size="10.00">::Handle::getLabel</text>
</a>
</g>
</g>
<!-- Node3&#45;&gt;Node4 -->
<g id="edge4" class="edge"><title>Node3&#45;&gt;Node4</title>
<path fill="none" stroke="midnightblue" d="M424.389,-98.3986C441.096,-93.3917 459.862,-87.7676 477.235,-82.561"/>
<polygon fill="midnightblue" stroke="midnightblue" points="478.703,-85.7751 487.277,-79.5516 476.693,-79.0698 478.703,-85.7751"/>
</g>
<!-- Node3&#45;&gt;Node6 -->
<g id="edge6" class="edge"><title>Node3&#45;&gt;Node6</title>
<path fill="none" stroke="midnightblue" d="M389.542,-128.792C406.749,-145.01 435.915,-170.457 465,-186.5 468.909,-188.656 473.038,-190.677 477.262,-192.56"/>
<polygon fill="midnightblue" stroke="midnightblue" points="476.036,-195.84 486.613,-196.462 478.732,-189.38 476.036,-195.84"/>
</g>
<!-- Node8 -->
<g id="node8" class="node"><title>Node8</title>
<g id="a_node8"><a xlink:href="classRa_1_1Core_1_1Graph_1_1AdjacencyList.html#a5ef43669e94471df3df312cb9b49d00b" target="_top" xlink:title="Ra::Core::Graph::Adjacency\lList::isJoint">
<polygon fill="white" stroke="black" points="465,-147.5 465,-177.5 612,-177.5 612,-147.5 465,-147.5"/>
<text text-anchor="start" x="473" y="-165.5" font-family="Helvetica,sans-Serif" font-size="10.00">Ra::Core::Graph::Adjacency</text>
<text text-anchor="middle" x="538.5" y="-154.5" font-family="Helvetica,sans-Serif" font-size="10.00">List::isJoint</text>
</a>
</g>
</g>
<!-- Node3&#45;&gt;Node8 -->
<g id="edge8" class="edge"><title>Node3&#45;&gt;Node8</title>
<path fill="none" stroke="midnightblue" d="M424.389,-128.601C441.096,-133.608 459.862,-139.232 477.235,-144.439"/>
<polygon fill="midnightblue" stroke="midnightblue" points="476.693,-147.93 487.277,-147.448 478.703,-141.225 476.693,-147.93"/>
</g>
<!-- Node9 -->
<g id="node9" class="node"><title>Node9</title>
<g id="a_node9"><a xlink:href="classRa_1_1Core_1_1Graph_1_1AdjacencyList.html#a2812c8dd044a6595416cb05baf928777" target="_top" xlink:title="Ra::Core::Graph::Adjacency\lList::isBranch">
<polygon fill="white" stroke="black" points="465,-98.5 465,-128.5 612,-128.5 612,-98.5 465,-98.5"/>
<text text-anchor="start" x="473" y="-116.5" font-family="Helvetica,sans-Serif" font-size="10.00">Ra::Core::Graph::Adjacency</text>
<text text-anchor="middle" x="538.5" y="-105.5" font-family="Helvetica,sans-Serif" font-size="10.00">List::isBranch</text>
</a>
</g>
</g>
<!-- Node3&#45;&gt;Node9 -->
<g id="edge10" class="edge"><title>Node3&#45;&gt;Node9</title>
<path fill="none" stroke="midnightblue" d="M429.354,-113.5C437.544,-113.5 446.13,-113.5 454.731,-113.5"/>
<polygon fill="midnightblue" stroke="midnightblue" points="454.812,-117 464.812,-113.5 454.812,-110 454.812,-117"/>
</g>
<!-- Node3&#45;&gt;Node10 -->
<g id="edge12" class="edge"><title>Node3&#45;&gt;Node10</title>
<path fill="none" stroke="midnightblue" d="M389.151,-98.2158C406.248,-81.7182 435.534,-55.6436 465,-39.5 468.212,-37.7401 471.575,-36.0806 475.019,-34.5203"/>
<polygon fill="midnightblue" stroke="midnightblue" points="476.42,-37.7282 484.277,-30.6209 473.703,-31.2771 476.42,-37.7282"/>
</g>
<!-- Node5 -->
<g id="node5" class="node"><title>Node5</title>
<g id="a_node5"><a xlink:href="classRa_1_1Core_1_1Animation_1_1Handle.html#aba876355658e5f8953033d3bb8f18533" target="_top" xlink:title="Ra::Core::Animation\l::Handle::size">
<polygon fill="white" stroke="black" points="665.5,-49.5 665.5,-79.5 777.5,-79.5 777.5,-49.5 665.5,-49.5"/>
<text text-anchor="start" x="673.5" y="-67.5" font-family="Helvetica,sans-Serif" font-size="10.00">Ra::Core::Animation</text>
<text text-anchor="middle" x="721.5" y="-56.5" font-family="Helvetica,sans-Serif" font-size="10.00">::Handle::size</text>
</a>
</g>
</g>
<!-- Node4&#45;&gt;Node5 -->
<g id="edge5" class="edge"><title>Node4&#45;&gt;Node5</title>
<path fill="none" stroke="midnightblue" d="M594.789,-64.5C613.824,-64.5 635.319,-64.5 655.083,-64.5"/>
<polygon fill="midnightblue" stroke="midnightblue" points="655.238,-68.0001 665.237,-64.5 655.237,-61.0001 655.238,-68.0001"/>
</g>
<!-- Node7 -->
<g id="node7" class="node"><title>Node7</title>
<g id="a_node7"><a xlink:href="classRa_1_1Core_1_1Graph_1_1AdjacencyList.html#a63e089f5da2ddc2da39dfd5bd6adb410" target="_top" xlink:title="SIZE. ">
<polygon fill="white" stroke="black" points="648,-122.5 648,-152.5 795,-152.5 795,-122.5 648,-122.5"/>
<text text-anchor="start" x="656" y="-140.5" font-family="Helvetica,sans-Serif" font-size="10.00">Ra::Core::Graph::Adjacency</text>
<text text-anchor="middle" x="721.5" y="-129.5" font-family="Helvetica,sans-Serif" font-size="10.00">List::size</text>
</a>
</g>
</g>
<!-- Node6&#45;&gt;Node7 -->
<g id="edge7" class="edge"><title>Node6&#45;&gt;Node7</title>
<path fill="none" stroke="midnightblue" d="M585.372,-196.399C594.26,-193.271 603.462,-189.892 612,-186.5 634.718,-177.475 659.603,-166.331 679.803,-156.952"/>
<polygon fill="midnightblue" stroke="midnightblue" points="681.444,-160.049 689.021,-152.644 678.48,-153.707 681.444,-160.049"/>
</g>
<!-- Node8&#45;&gt;Node7 -->
<g id="edge9" class="edge"><title>Node8&#45;&gt;Node7</title>
<path fill="none" stroke="midnightblue" d="M612.077,-152.476C620.559,-151.304 629.261,-150.102 637.867,-148.913"/>
<polygon fill="midnightblue" stroke="midnightblue" points="638.48,-152.362 647.907,-147.527 637.522,-145.428 638.48,-152.362"/>
</g>
<!-- Node9&#45;&gt;Node7 -->
<g id="edge11" class="edge"><title>Node9&#45;&gt;Node7</title>
<path fill="none" stroke="midnightblue" d="M612.077,-123.123C620.559,-124.248 629.261,-125.402 637.867,-126.543"/>
<polygon fill="midnightblue" stroke="midnightblue" points="637.534,-130.029 647.907,-127.874 638.454,-123.09 637.534,-130.029"/>
</g>
<!-- Node10&#45;&gt;Node7 -->
<g id="edge13" class="edge"><title>Node10&#45;&gt;Node7</title>
<path fill="none" stroke="midnightblue" d="M596.602,-30.561C602.042,-33.1109 607.281,-36.0705 612,-39.5 633.861,-55.3863 628.52,-69.7705 648,-88.5 659.015,-99.0909 672.567,-108.924 684.962,-116.959"/>
<polygon fill="midnightblue" stroke="midnightblue" points="683.402,-120.113 693.73,-122.478 687.131,-114.189 683.402,-120.113"/>
</g>
</g>
</svg>
