<?xml version="1.0" encoding="UTF-8" standalone="no"?>
<!DOCTYPE svg PUBLIC "-//W3C//DTD SVG 1.1//EN"
 "http://www.w3.org/Graphics/SVG/1.1/DTD/svg11.dtd">
<!-- Generated by graphviz version 2.38.0 (20140413.2041)
 -->
<!-- Title: Ra::Core::Geometry::Mapping::getGamma Pages: 1 -->
<svg width="280pt" height="88pt"
 viewBox="0.00 0.00 280.00 88.00" xmlns="http://www.w3.org/2000/svg" xmlns:xlink="http://www.w3.org/1999/xlink">
<g id="graph0" class="graph" transform="scale(1 1) rotate(0) translate(4 84)">
<title>Ra::Core::Geometry::Mapping::getGamma</title>
<polygon fill="white" stroke="none" points="-4,4 -4,-84 276,-84 276,4 -4,4"/>
<!-- Node1 -->
<g id="node1" class="node"><title>Node1</title>
<polygon fill="#bfbfbf" stroke="black" points="0,-24.5 0,-54.5 124,-54.5 124,-24.5 0,-24.5"/>
<text text-anchor="start" x="8" y="-42.5" font-family="Helvetica,sans-Serif" font-size="10.00">Ra::Core::Geometry</text>
<text text-anchor="middle" x="62" y="-31.5" font-family="Helvetica,sans-Serif" font-size="10.00">::Mapping::getGamma</text>
</g>
<!-- Node2 -->
<g id="node2" class="node"><title>Node2</title>
<g id="a_node2"><a xlink:href="classRa_1_1Core_1_1Geometry_1_1Mapping.html#a763871f983029ce49872c463a7e9a6d4" target="_top" xlink:title="BARYCENTRIC COORDINATE. ">
<polygon fill="white" stroke="black" points="160,-49.5 160,-79.5 272,-79.5 272,-49.5 160,-49.5"/>
<text text-anchor="start" x="168" y="-67.5" font-family="Helvetica,sans-Serif" font-size="10.00">Ra::Core::Geometry</text>
<text text-anchor="middle" x="216" y="-56.5" font-family="Helvetica,sans-Serif" font-size="10.00">::Mapping::getAlpha</text>
</a>
</g>
</g>
<!-- Node1&#45;&gt;Node2 -->
<g id="edge1" class="edge"><title>Node1&#45;&gt;Node2</title>
<path fill="none" stroke="midnightblue" d="M124.386,-49.5964C132.704,-50.9645 141.265,-52.3725 149.649,-53.7515"/>
<polygon fill="midnightblue" stroke="midnightblue" points="149.325,-57.2451 159.76,-55.4145 150.461,-50.3379 149.325,-57.2451"/>
</g>
<!-- Node3 -->
<g id="node3" class="node"><title>Node3</title>
<g id="a_node3"><a xlink:href="classRa_1_1Core_1_1Geometry_1_1Mapping.html#a8d49ef820cb4bc114f9d044b634e546e" target="_top" xlink:title="Ra::Core::Geometry\l::Mapping::getBeta">
<polygon fill="white" stroke="black" points="160.5,-0.5 160.5,-30.5 271.5,-30.5 271.5,-0.5 160.5,-0.5"/>
<text text-anchor="start" x="168.5" y="-18.5" font-family="Helvetica,sans-Serif" font-size="10.00">Ra::Core::Geometry</text>
<text text-anchor="middle" x="216" y="-7.5" font-family="Helvetica,sans-Serif" font-size="10.00">::Mapping::getBeta</text>
</a>
</g>
</g>
<!-- Node1&#45;&gt;Node3 -->
<g id="edge2" class="edge"><title>Node1&#45;&gt;Node3</title>
<path fill="none" stroke="midnightblue" d="M124.386,-29.8075C132.914,-28.461 141.697,-27.0742 150.283,-25.7185"/>
<polygon fill="midnightblue" stroke="midnightblue" points="150.914,-29.1624 160.245,-24.1455 149.822,-22.248 150.914,-29.1624"/>
</g>
</g>
</svg>
