<?xml version="1.0" encoding="UTF-8" standalone="no"?>
<!DOCTYPE svg PUBLIC "-//W3C//DTD SVG 1.1//EN"
 "http://www.w3.org/Graphics/SVG/1.1/DTD/svg11.dtd">
<!-- Generated by graphviz version 2.38.0 (20140413.2041)
 -->
<!-- Title: Ra::Core::AttribManager::addAttrib Pages: 1 -->
<svg width="437pt" height="137pt"
 viewBox="0.00 0.00 437.00 137.00" xmlns="http://www.w3.org/2000/svg" xmlns:xlink="http://www.w3.org/1999/xlink">
<g id="graph0" class="graph" transform="scale(1 1) rotate(0) translate(4 133)">
<title>Ra::Core::AttribManager::addAttrib</title>
<polygon fill="white" stroke="none" points="-4,4 -4,-133 433,-133 433,4 -4,4"/>
<!-- Node1 -->
<g id="node1" class="node"><title>Node1</title>
<polygon fill="#bfbfbf" stroke="black" points="0,-49.5 0,-79.5 131,-79.5 131,-49.5 0,-49.5"/>
<text text-anchor="start" x="8" y="-67.5" font-family="Helvetica,sans-Serif" font-size="10.00">Ra::Core::AttribManager</text>
<text text-anchor="middle" x="65.5" y="-56.5" font-family="Helvetica,sans-Serif" font-size="10.00">::addAttrib</text>
</g>
<!-- Node2 -->
<g id="node2" class="node"><title>Node2</title>
<g id="a_node2"><a xlink:href="classRa_1_1Core_1_1AttribBase.html#a8f23218d034749f55d1984d1d852f507" target="_top" xlink:title="Ra::Core::AttribBase\l::setName">
<polygon fill="white" stroke="black" points="167,-49.5 167,-79.5 280,-79.5 280,-49.5 167,-49.5"/>
<text text-anchor="start" x="175" y="-67.5" font-family="Helvetica,sans-Serif" font-size="10.00">Ra::Core::AttribBase</text>
<text text-anchor="middle" x="223.5" y="-56.5" font-family="Helvetica,sans-Serif" font-size="10.00">::setName</text>
</a>
</g>
</g>
<!-- Node1&#45;&gt;Node2 -->
<g id="edge1" class="edge"><title>Node1&#45;&gt;Node2</title>
<path fill="none" stroke="midnightblue" d="M131.303,-64.5C139.635,-64.5 148.174,-64.5 156.524,-64.5"/>
<polygon fill="midnightblue" stroke="midnightblue" points="156.59,-68.0001 166.59,-64.5 156.59,-61.0001 156.59,-68.0001"/>
</g>
<!-- Node3 -->
<g id="node3" class="node"><title>Node3</title>
<g id="a_node3"><a xlink:href="classRa_1_1Core_1_1AttribBase.html#a3d9d6c2c919ec6131c4d5f2c604a4689" target="_top" xlink:title="Ra::Core::AttribBase\l::resize">
<polygon fill="white" stroke="black" points="316,-98.5 316,-128.5 429,-128.5 429,-98.5 316,-98.5"/>
<text text-anchor="start" x="324" y="-116.5" font-family="Helvetica,sans-Serif" font-size="10.00">Ra::Core::AttribBase</text>
<text text-anchor="middle" x="372.5" y="-105.5" font-family="Helvetica,sans-Serif" font-size="10.00">::resize</text>
</a>
</g>
</g>
<!-- Node2&#45;&gt;Node3 -->
<g id="edge2" class="edge"><title>Node2&#45;&gt;Node3</title>
<path fill="none" stroke="midnightblue" d="M269.804,-79.6014C284.544,-84.5147 301.067,-90.0224 316.44,-95.1466"/>
<polygon fill="midnightblue" stroke="midnightblue" points="315.752,-98.6065 326.345,-98.4484 317.965,-91.9657 315.752,-98.6065"/>
</g>
<!-- Node4 -->
<g id="node4" class="node"><title>Node4</title>
<g id="a_node4"><a xlink:href="classRa_1_1Core_1_1AttribBase.html#abb18b2b7de27f1cfaeb0a354350fc9b8" target="_top" xlink:title="Ra::Core::AttribBase\l::getSize">
<polygon fill="white" stroke="black" points="316,-49.5 316,-79.5 429,-79.5 429,-49.5 316,-49.5"/>
<text text-anchor="start" x="324" y="-67.5" font-family="Helvetica,sans-Serif" font-size="10.00">Ra::Core::AttribBase</text>
<text text-anchor="middle" x="372.5" y="-56.5" font-family="Helvetica,sans-Serif" font-size="10.00">::getSize</text>
</a>
</g>
</g>
<!-- Node2&#45;&gt;Node4 -->
<g id="edge3" class="edge"><title>Node2&#45;&gt;Node4</title>
<path fill="none" stroke="midnightblue" d="M280.074,-64.5C288.489,-64.5 297.238,-64.5 305.842,-64.5"/>
<polygon fill="midnightblue" stroke="midnightblue" points="305.847,-68.0001 315.847,-64.5 305.847,-61.0001 305.847,-68.0001"/>
</g>
<!-- Node5 -->
<g id="node5" class="node"><title>Node5</title>
<g id="a_node5"><a xlink:href="classRa_1_1Core_1_1AttribBase.html#aa4ec9628a8ac2c951a27ed2f3d785f95" target="_top" xlink:title="Ra::Core::AttribBase\l::getStride">
<polygon fill="white" stroke="black" points="316,-0.5 316,-30.5 429,-30.5 429,-0.5 316,-0.5"/>
<text text-anchor="start" x="324" y="-18.5" font-family="Helvetica,sans-Serif" font-size="10.00">Ra::Core::AttribBase</text>
<text text-anchor="middle" x="372.5" y="-7.5" font-family="Helvetica,sans-Serif" font-size="10.00">::getStride</text>
</a>
</g>
</g>
<!-- Node2&#45;&gt;Node5 -->
<g id="edge4" class="edge"><title>Node2&#45;&gt;Node5</title>
<path fill="none" stroke="midnightblue" d="M269.804,-49.3986C284.544,-44.4853 301.067,-38.9776 316.44,-33.8534"/>
<polygon fill="midnightblue" stroke="midnightblue" points="317.965,-37.0343 326.345,-30.5516 315.752,-30.3935 317.965,-37.0343"/>
</g>
</g>
</svg>
