<?xml version="1.0" encoding="UTF-8" standalone="no"?>
<!DOCTYPE svg PUBLIC "-//W3C//DTD SVG 1.1//EN"
 "http://www.w3.org/Graphics/SVG/1.1/DTD/svg11.dtd">
<!-- Generated by graphviz version 2.38.0 (20140413.2041)
 -->
<!-- Title: Ra::Engine::Mesh::loadGeometry Pages: 1 -->
<svg width="509pt" height="88pt"
 viewBox="0.00 0.00 509.00 88.00" xmlns="http://www.w3.org/2000/svg" xmlns:xlink="http://www.w3.org/1999/xlink">
<g id="graph0" class="graph" transform="scale(1 1) rotate(0) translate(4 84)">
<title>Ra::Engine::Mesh::loadGeometry</title>
<polygon fill="white" stroke="none" points="-4,4 -4,-84 505,-84 505,4 -4,4"/>
<!-- Node1 -->
<g id="node1" class="node"><title>Node1</title>
<polygon fill="#bfbfbf" stroke="black" points="0,-30 0,-49 173,-49 173,-30 0,-30"/>
<text text-anchor="middle" x="86.5" y="-37" font-family="Helvetica,sans-Serif" font-size="10.00">Ra::Engine::Mesh::loadGeometry</text>
</g>
<!-- Node2 -->
<g id="node2" class="node"><title>Node2</title>
<g id="a_node2"><a xlink:href="classRa_1_1Core_1_1TriangleMesh.html#a495116f40cfec8bb6504698d786d4b8c" target="_top" xlink:title="Access the vertices positions. ">
<polygon fill="white" stroke="black" points="209,-49.5 209,-79.5 334,-79.5 334,-49.5 209,-49.5"/>
<text text-anchor="start" x="217" y="-67.5" font-family="Helvetica,sans-Serif" font-size="10.00">Ra::Core::TriangleMesh</text>
<text text-anchor="middle" x="271.5" y="-56.5" font-family="Helvetica,sans-Serif" font-size="10.00">::vertices</text>
</a>
</g>
</g>
<!-- Node1&#45;&gt;Node2 -->
<g id="edge1" class="edge"><title>Node1&#45;&gt;Node2</title>
<path fill="none" stroke="midnightblue" d="M157.206,-49.0227C170.729,-50.8701 184.925,-52.8095 198.519,-54.6666"/>
<polygon fill="midnightblue" stroke="midnightblue" points="198.394,-58.1819 208.776,-56.0677 199.342,-51.2463 198.394,-58.1819"/>
</g>
<!-- Node4 -->
<g id="node4" class="node"><title>Node4</title>
<g id="a_node4"><a xlink:href="classRa_1_1Core_1_1TriangleMesh.html#a2050187a77536bb43bfa2e25c25389c6" target="_top" xlink:title="Return the Handle to the attribute with the given name if it exists, an invalid handle otherwise...">
<polygon fill="white" stroke="black" points="209,-0.5 209,-30.5 334,-30.5 334,-0.5 209,-0.5"/>
<text text-anchor="start" x="217" y="-18.5" font-family="Helvetica,sans-Serif" font-size="10.00">Ra::Core::TriangleMesh</text>
<text text-anchor="middle" x="271.5" y="-7.5" font-family="Helvetica,sans-Serif" font-size="10.00">::getAttribHandle</text>
</a>
</g>
</g>
<!-- Node1&#45;&gt;Node4 -->
<g id="edge3" class="edge"><title>Node1&#45;&gt;Node4</title>
<path fill="none" stroke="midnightblue" d="M160.089,-29.9801C172.845,-28.3072 186.114,-26.567 198.844,-24.8975"/>
<polygon fill="midnightblue" stroke="midnightblue" points="199.458,-28.347 208.918,-23.5763 198.548,-21.4064 199.458,-28.347"/>
</g>
<!-- Node3 -->
<g id="node3" class="node"><title>Node3</title>
<g id="a_node3"><a xlink:href="classRa_1_1Core_1_1AttribManager.html#aaa6088620425c1e1d74b50f1b50eb596" target="_top" xlink:title="Get attribute by handle. ">
<polygon fill="white" stroke="black" points="370,-49.5 370,-79.5 501,-79.5 501,-49.5 370,-49.5"/>
<text text-anchor="start" x="378" y="-67.5" font-family="Helvetica,sans-Serif" font-size="10.00">Ra::Core::AttribManager</text>
<text text-anchor="middle" x="435.5" y="-56.5" font-family="Helvetica,sans-Serif" font-size="10.00">::getAttrib</text>
</a>
</g>
</g>
<!-- Node2&#45;&gt;Node3 -->
<g id="edge2" class="edge"><title>Node2&#45;&gt;Node3</title>
<path fill="none" stroke="midnightblue" d="M334.207,-64.5C342.471,-64.5 351.02,-64.5 359.481,-64.5"/>
<polygon fill="midnightblue" stroke="midnightblue" points="359.733,-68.0001 369.733,-64.5 359.733,-61.0001 359.733,-68.0001"/>
</g>
<!-- Node5 -->
<g id="node5" class="node"><title>Node5</title>
<g id="a_node5"><a xlink:href="classRa_1_1Core_1_1AttribManager.html#a83cb9e1c9e687d161a3070ffbdf07b22" target="_top" xlink:title="findAttrib Grab an attribute handler by name. ">
<polygon fill="white" stroke="black" points="370,-0.5 370,-30.5 501,-30.5 501,-0.5 370,-0.5"/>
<text text-anchor="start" x="378" y="-18.5" font-family="Helvetica,sans-Serif" font-size="10.00">Ra::Core::AttribManager</text>
<text text-anchor="middle" x="435.5" y="-7.5" font-family="Helvetica,sans-Serif" font-size="10.00">::findAttrib</text>
</a>
</g>
</g>
<!-- Node4&#45;&gt;Node5 -->
<g id="edge4" class="edge"><title>Node4&#45;&gt;Node5</title>
<path fill="none" stroke="midnightblue" d="M334.207,-15.5C342.471,-15.5 351.02,-15.5 359.481,-15.5"/>
<polygon fill="midnightblue" stroke="midnightblue" points="359.733,-19.0001 369.733,-15.5 359.733,-12.0001 359.733,-19.0001"/>
</g>
</g>
</svg>
