<?xml version="1.0" encoding="UTF-8" standalone="no"?>
<!DOCTYPE svg PUBLIC "-//W3C//DTD SVG 1.1//EN"
 "http://www.w3.org/Graphics/SVG/1.1/DTD/svg11.dtd">
<!-- Generated by graphviz version 2.38.0 (20140413.2041)
 -->
<!-- Title: Ra::Gui::GizmoManager::setEditable Pages: 1 -->
<svg width="1014pt" height="389pt"
 viewBox="0.00 0.00 1014.00 389.20" xmlns="http://www.w3.org/2000/svg" xmlns:xlink="http://www.w3.org/1999/xlink">
<g id="graph0" class="graph" transform="scale(1 1) rotate(0) translate(4 385.203)">
<title>Ra::Gui::GizmoManager::setEditable</title>
<polygon fill="white" stroke="none" points="-4,4 -4,-385.203 1010,-385.203 1010,4 -4,4"/>
<!-- Node1 -->
<g id="node1" class="node"><title>Node1</title>
<polygon fill="#bfbfbf" stroke="black" points="0,-139.703 0,-169.703 129,-169.703 129,-139.703 0,-139.703"/>
<text text-anchor="start" x="8" y="-157.703" font-family="Helvetica,sans-Serif" font-size="10.00">Ra::Gui::GizmoManager</text>
<text text-anchor="middle" x="64.5" y="-146.703" font-family="Helvetica,sans-Serif" font-size="10.00">::setEditable</text>
</g>
<!-- Node2 -->
<g id="node2" class="node"><title>Node2</title>
<g id="a_node2"><a xlink:href="classRa_1_1GuiBase_1_1TransformEditor.html#ad21b8c46ad2d5c62e309eb16b104ee2f" target="_top" xlink:title="Ra::GuiBase::TransformEditor\l::canEdit">
<polygon fill="white" stroke="black" points="165,-164.703 165,-194.703 320,-194.703 320,-164.703 165,-164.703"/>
<text text-anchor="start" x="173" y="-182.703" font-family="Helvetica,sans-Serif" font-size="10.00">Ra::GuiBase::TransformEditor</text>
<text text-anchor="middle" x="242.5" y="-171.703" font-family="Helvetica,sans-Serif" font-size="10.00">::canEdit</text>
</a>
</g>
</g>
<!-- Node1&#45;&gt;Node2 -->
<g id="edge1" class="edge"><title>Node1&#45;&gt;Node2</title>
<path fill="none" stroke="midnightblue" d="M129.04,-163.729C137.391,-164.915 146.061,-166.146 154.716,-167.376"/>
<polygon fill="midnightblue" stroke="midnightblue" points="154.455,-170.874 164.848,-168.815 155.439,-163.943 154.455,-170.874"/>
</g>
<!-- Node17 -->
<g id="node17" class="node"><title>Node17</title>
<g id="a_node17"><a xlink:href="classRa_1_1GuiBase_1_1TransformEditor.html#a6c8c6e18c8b92a92a53f6c035aa6c241" target="_top" xlink:title="Ra::GuiBase::TransformEditor\l::getWorldTransform">
<polygon fill="white" stroke="black" points="165,-115.703 165,-145.703 320,-145.703 320,-115.703 165,-115.703"/>
<text text-anchor="start" x="173" y="-133.703" font-family="Helvetica,sans-Serif" font-size="10.00">Ra::GuiBase::TransformEditor</text>
<text text-anchor="middle" x="242.5" y="-122.703" font-family="Helvetica,sans-Serif" font-size="10.00">::getWorldTransform</text>
</a>
</g>
</g>
<!-- Node1&#45;&gt;Node17 -->
<g id="edge22" class="edge"><title>Node1&#45;&gt;Node17</title>
<path fill="none" stroke="midnightblue" d="M129.04,-146.039C137.391,-144.9 146.061,-143.717 154.716,-142.537"/>
<polygon fill="midnightblue" stroke="midnightblue" points="155.412,-145.975 164.848,-141.156 154.467,-139.039 155.412,-145.975"/>
</g>
<!-- Node3 -->
<g id="node3" class="node"><title>Node3</title>
<g id="a_node3"><a xlink:href="structRa_1_1Engine_1_1ItemEntry.html#aceafc81a73631955b64999dd39a639da" target="_top" xlink:title="Returns true if the item represents any valid object. ">
<polygon fill="white" stroke="black" points="361,-164.703 361,-194.703 480,-194.703 480,-164.703 361,-164.703"/>
<text text-anchor="start" x="369" y="-182.703" font-family="Helvetica,sans-Serif" font-size="10.00">Ra::Engine::ItemEntry</text>
<text text-anchor="middle" x="420.5" y="-171.703" font-family="Helvetica,sans-Serif" font-size="10.00">::isValid</text>
</a>
</g>
</g>
<!-- Node2&#45;&gt;Node3 -->
<g id="edge2" class="edge"><title>Node2&#45;&gt;Node3</title>
<path fill="none" stroke="midnightblue" d="M320.184,-179.703C330.291,-179.703 340.6,-179.703 350.566,-179.703"/>
<polygon fill="midnightblue" stroke="midnightblue" points="350.805,-183.203 360.805,-179.703 350.805,-176.203 350.805,-183.203"/>
</g>
<!-- Node13 -->
<g id="node13" class="node"><title>Node13</title>
<g id="a_node13"><a xlink:href="structRa_1_1Engine_1_1ItemEntry.html#a09e294208d0896596a42a7a6c7e78f75" target="_top" xlink:title="Returns true if the item can be selected. ">
<polygon fill="white" stroke="black" points="361,-281.703 361,-311.703 480,-311.703 480,-281.703 361,-281.703"/>
<text text-anchor="start" x="369" y="-299.703" font-family="Helvetica,sans-Serif" font-size="10.00">Ra::Engine::ItemEntry</text>
<text text-anchor="middle" x="420.5" y="-288.703" font-family="Helvetica,sans-Serif" font-size="10.00">::isSelectable</text>
</a>
</g>
</g>
<!-- Node2&#45;&gt;Node13 -->
<g id="edge14" class="edge"><title>Node2&#45;&gt;Node13</title>
<path fill="none" stroke="midnightblue" d="M266.149,-194.759C297.217,-215.413 353.183,-252.617 388.228,-275.915"/>
<polygon fill="midnightblue" stroke="midnightblue" points="386.394,-278.898 396.66,-281.519 390.269,-273.069 386.394,-278.898"/>
</g>
<!-- Node15 -->
<g id="node15" class="node"><title>Node15</title>
<g id="a_node15"><a xlink:href="structRa_1_1Engine_1_1ItemEntry.html#a4823dfa3c113db71733979f1719f3b28" target="_top" xlink:title="Returns true if the item represents an entity. ">
<polygon fill="white" stroke="black" points="361,-115.703 361,-145.703 480,-145.703 480,-115.703 361,-115.703"/>
<text text-anchor="start" x="369" y="-133.703" font-family="Helvetica,sans-Serif" font-size="10.00">Ra::Engine::ItemEntry</text>
<text text-anchor="middle" x="420.5" y="-122.703" font-family="Helvetica,sans-Serif" font-size="10.00">::isEntityNode</text>
</a>
</g>
</g>
<!-- Node2&#45;&gt;Node15 -->
<g id="edge19" class="edge"><title>Node2&#45;&gt;Node15</title>
<path fill="none" stroke="midnightblue" d="M297.742,-164.602C316.062,-159.501 336.683,-153.76 355.675,-148.473"/>
<polygon fill="midnightblue" stroke="midnightblue" points="356.742,-151.809 365.437,-145.755 354.865,-145.065 356.742,-151.809"/>
</g>
<!-- Node16 -->
<g id="node16" class="node"><title>Node16</title>
<g id="a_node16"><a xlink:href="classRa_1_1Engine_1_1Component.html#acf64b8eb5eccf40d1ef61fef5a137c01" target="_top" xlink:title="Returns true if a transform can be edited with the render object index given as a key...">
<polygon fill="white" stroke="black" points="356,-213.703 356,-243.703 485,-243.703 485,-213.703 356,-213.703"/>
<text text-anchor="start" x="364" y="-231.703" font-family="Helvetica,sans-Serif" font-size="10.00">Ra::Engine::Component</text>
<text text-anchor="middle" x="420.5" y="-220.703" font-family="Helvetica,sans-Serif" font-size="10.00">::canEdit</text>
</a>
</g>
</g>
<!-- Node2&#45;&gt;Node16 -->
<g id="edge21" class="edge"><title>Node2&#45;&gt;Node16</title>
<path fill="none" stroke="midnightblue" d="M297.742,-194.805C316.062,-199.905 336.683,-205.646 355.675,-210.934"/>
<polygon fill="midnightblue" stroke="midnightblue" points="354.865,-214.341 365.437,-213.652 356.742,-207.598 354.865,-214.341"/>
</g>
<!-- Node4 -->
<g id="node4" class="node"><title>Node4</title>
<g id="a_node4"><a xlink:href="structRa_1_1Engine_1_1ItemEntry.html#a1fb9fdd74413a1fa5878f53c1cfcf8fd" target="_top" xlink:title="Debug checks. ">
<polygon fill="white" stroke="black" points="710,-22.7031 710,-52.7031 829,-52.7031 829,-22.7031 710,-22.7031"/>
<text text-anchor="start" x="718" y="-40.7031" font-family="Helvetica,sans-Serif" font-size="10.00">Ra::Engine::ItemEntry</text>
<text text-anchor="middle" x="769.5" y="-29.7031" font-family="Helvetica,sans-Serif" font-size="10.00">::checkConsistency</text>
</a>
</g>
</g>
<!-- Node3&#45;&gt;Node4 -->
<g id="edge3" class="edge"><title>Node3&#45;&gt;Node4</title>
<path fill="none" stroke="midnightblue" d="M472.209,-164.52C476.895,-161.761 481.274,-158.516 485,-154.703 517.431,-121.517 483.996,-84.699 521,-56.7031 548.184,-36.1371 636.28,-33.7331 699.628,-34.8981"/>
<polygon fill="midnightblue" stroke="midnightblue" points="699.889,-38.4046 709.963,-35.1234 700.041,-31.4062 699.889,-38.4046"/>
</g>
<!-- Node6 -->
<g id="node6" class="node"><title>Node6</title>
<g id="a_node6"><a xlink:href="classRa_1_1Engine_1_1RadiumEngine.html#a79f6626ce468268791bc5bdfe17b5586" target="_top" xlink:title="Get the entity manager attached to the engine. ">
<polygon fill="white" stroke="black" points="522.5,-164.703 522.5,-194.703 663.5,-194.703 663.5,-164.703 522.5,-164.703"/>
<text text-anchor="start" x="530.5" y="-182.703" font-family="Helvetica,sans-Serif" font-size="10.00">Ra::Engine::RadiumEngine</text>
<text text-anchor="middle" x="593" y="-171.703" font-family="Helvetica,sans-Serif" font-size="10.00">::getEntityManager</text>
</a>
</g>
</g>
<!-- Node3&#45;&gt;Node6 -->
<g id="edge5" class="edge"><title>Node3&#45;&gt;Node6</title>
<path fill="none" stroke="midnightblue" d="M480.176,-179.703C490.469,-179.703 501.336,-179.703 512.089,-179.703"/>
<polygon fill="midnightblue" stroke="midnightblue" points="512.342,-183.203 522.342,-179.703 512.342,-176.203 512.342,-183.203"/>
</g>
<!-- Node7 -->
<g id="node7" class="node"><title>Node7</title>
<g id="a_node7"><a xlink:href="classRa_1_1Engine_1_1EntityManager.html#a5115cccae6aaef614ad4bd08e64d8185" target="_top" xlink:title="Check wether an entity with a given name exists or not. ">
<polygon fill="white" stroke="black" points="522,-115.703 522,-145.703 664,-145.703 664,-115.703 522,-115.703"/>
<text text-anchor="start" x="530" y="-133.703" font-family="Helvetica,sans-Serif" font-size="10.00">Ra::Engine::EntityManager</text>
<text text-anchor="middle" x="593" y="-122.703" font-family="Helvetica,sans-Serif" font-size="10.00">::entityExists</text>
</a>
</g>
</g>
<!-- Node3&#45;&gt;Node7 -->
<g id="edge6" class="edge"><title>Node3&#45;&gt;Node7</title>
<path fill="none" stroke="midnightblue" d="M474.047,-164.602C491.713,-159.525 511.587,-153.813 529.916,-148.545"/>
<polygon fill="midnightblue" stroke="midnightblue" points="530.982,-151.881 539.627,-145.755 529.049,-145.153 530.982,-151.881"/>
</g>
<!-- Node8 -->
<g id="node8" class="node"><title>Node8</title>
<g id="a_node8"><a xlink:href="classRa_1_1Engine_1_1Entity.html#aaf256bea44bbc5bff6aa504aca05ca35" target="_top" xlink:title="Ra::Engine::Entity\l::getName">
<polygon fill="white" stroke="black" points="543,-66.7031 543,-96.7031 643,-96.7031 643,-66.7031 543,-66.7031"/>
<text text-anchor="start" x="551" y="-84.7031" font-family="Helvetica,sans-Serif" font-size="10.00">Ra::Engine::Entity</text>
<text text-anchor="middle" x="593" y="-73.7031" font-family="Helvetica,sans-Serif" font-size="10.00">::getName</text>
</a>
</g>
</g>
<!-- Node3&#45;&gt;Node8 -->
<g id="edge7" class="edge"><title>Node3&#45;&gt;Node8</title>
<path fill="none" stroke="midnightblue" d="M468.576,-164.7C474.387,-161.85 480.024,-158.534 485,-154.703 506.413,-138.218 499.189,-121.658 521,-105.703 524.866,-102.875 529.088,-100.364 533.484,-98.1376"/>
<polygon fill="midnightblue" stroke="midnightblue" points="535.035,-101.277 542.694,-93.956 532.141,-94.9035 535.035,-101.277"/>
</g>
<!-- Node9 -->
<g id="node9" class="node"><title>Node9</title>
<g id="a_node9"><a xlink:href="structRa_1_1Engine_1_1ItemEntry.html#a898047549069e5b64d3a9a65c058af56" target="_top" xlink:title="Returns true if the item represents a render object. ">
<polygon fill="white" stroke="black" points="533.5,-213.703 533.5,-243.703 652.5,-243.703 652.5,-213.703 533.5,-213.703"/>
<text text-anchor="start" x="541.5" y="-231.703" font-family="Helvetica,sans-Serif" font-size="10.00">Ra::Engine::ItemEntry</text>
<text text-anchor="middle" x="593" y="-220.703" font-family="Helvetica,sans-Serif" font-size="10.00">::isRoNode</text>
</a>
</g>
</g>
<!-- Node3&#45;&gt;Node9 -->
<g id="edge8" class="edge"><title>Node3&#45;&gt;Node9</title>
<path fill="none" stroke="midnightblue" d="M474.047,-194.805C491.713,-199.882 511.587,-205.593 529.916,-210.861"/>
<polygon fill="midnightblue" stroke="midnightblue" points="529.049,-214.253 539.627,-213.652 530.982,-207.526 529.049,-214.253"/>
</g>
<!-- Node11 -->
<g id="node11" class="node"><title>Node11</title>
<g id="a_node11"><a xlink:href="classRa_1_1Engine_1_1RadiumEngine.html#a58b27bc600ea769f68b0e2938abc7862" target="_top" xlink:title="Manager getters. ">
<polygon fill="white" stroke="black" points="521,-301.703 521,-331.703 665,-331.703 665,-301.703 521,-301.703"/>
<text text-anchor="start" x="529" y="-319.703" font-family="Helvetica,sans-Serif" font-size="10.00">Ra::Engine::RadiumEngine</text>
<text text-anchor="middle" x="593" y="-308.703" font-family="Helvetica,sans-Serif" font-size="10.00">::getRenderObjectManager</text>
</a>
</g>
</g>
<!-- Node3&#45;&gt;Node11 -->
<g id="edge11" class="edge"><title>Node3&#45;&gt;Node11</title>
<path fill="none" stroke="midnightblue" d="M472.922,-194.817C477.301,-197.347 481.417,-200.288 485,-203.703 514.105,-231.447 492.433,-258.406 521,-286.703 524.708,-290.376 528.933,-293.626 533.434,-296.497"/>
<polygon fill="midnightblue" stroke="midnightblue" points="531.936,-299.671 542.361,-301.561 535.39,-293.583 531.936,-299.671"/>
</g>
<!-- Node12 -->
<g id="node12" class="node"><title>Node12</title>
<g id="a_node12"><a xlink:href="classRa_1_1Engine_1_1RenderObjectManager.html#a4077b9cf9e1e4d62fd5456386f2d72c8" target="_top" xlink:title="Returns true if the index points to a valid render object. ">
<polygon fill="white" stroke="black" points="701,-257.703 701,-287.703 838,-287.703 838,-257.703 701,-257.703"/>
<text text-anchor="start" x="709" y="-275.703" font-family="Helvetica,sans-Serif" font-size="10.00">Ra::Engine::RenderObject</text>
<text text-anchor="middle" x="769.5" y="-264.703" font-family="Helvetica,sans-Serif" font-size="10.00">Manager::exists</text>
</a>
</g>
</g>
<!-- Node3&#45;&gt;Node12 -->
<g id="edge12" class="edge"><title>Node3&#45;&gt;Node12</title>
<path fill="none" stroke="midnightblue" d="M470.216,-194.715C475.445,-197.302 480.494,-200.283 485,-203.703 506.525,-220.041 497.401,-239.537 521,-252.703 572.44,-281.402 639.478,-285.163 690.809,-282.43"/>
<polygon fill="midnightblue" stroke="midnightblue" points="691.094,-285.92 700.856,-281.803 690.657,-278.933 691.094,-285.92"/>
</g>
<!-- Node5 -->
<g id="node5" class="node"><title>Node5</title>
<g id="a_node5"><a xlink:href="classRa_1_1Core_1_1Index.html#a7283e7fb9cc134e04ef3cde8877f8fe2" target="_top" xlink:title="INVALID. ">
<polygon fill="white" stroke="black" points="874,-28.2031 874,-47.2031 1006,-47.2031 1006,-28.2031 874,-28.2031"/>
<text text-anchor="middle" x="940" y="-35.2031" font-family="Helvetica,sans-Serif" font-size="10.00">Ra::Core::Index::isInvalid</text>
</a>
</g>
</g>
<!-- Node4&#45;&gt;Node5 -->
<g id="edge4" class="edge"><title>Node4&#45;&gt;Node5</title>
<path fill="none" stroke="midnightblue" d="M829.433,-37.7031C840.517,-37.7031 852.245,-37.7031 863.747,-37.7031"/>
<polygon fill="midnightblue" stroke="midnightblue" points="863.774,-41.2032 873.774,-37.7031 863.774,-34.2032 863.774,-41.2032"/>
</g>
<!-- Node9&#45;&gt;Node4 -->
<g id="edge9" class="edge"><title>Node9&#45;&gt;Node4</title>
<path fill="none" stroke="midnightblue" d="M649.118,-213.605C654.783,-210.82 660.208,-207.546 665,-203.703 712.747,-165.413 744.56,-98.7712 759.212,-62.6684"/>
<polygon fill="midnightblue" stroke="midnightblue" points="762.64,-63.5133 763.048,-52.9263 756.127,-60.9486 762.64,-63.5133"/>
</g>
<!-- Node10 -->
<g id="node10" class="node"><title>Node10</title>
<g id="a_node10"><a xlink:href="classRa_1_1Core_1_1Index.html#a87c70243f30c65c1a24834d1829bda01" target="_top" xlink:title="DESTRUCTOR: Must not be defined, we need it trivial to be constexpr. ">
<polygon fill="white" stroke="black" points="877.5,-241.203 877.5,-260.203 1002.5,-260.203 1002.5,-241.203 877.5,-241.203"/>
<text text-anchor="middle" x="940" y="-248.203" font-family="Helvetica,sans-Serif" font-size="10.00">Ra::Core::Index::isValid</text>
</a>
</g>
</g>
<!-- Node9&#45;&gt;Node10 -->
<g id="edge10" class="edge"><title>Node9&#45;&gt;Node10</title>
<path fill="none" stroke="midnightblue" d="M652.525,-232.435C711.71,-236.209 803.295,-242.049 866.919,-246.107"/>
<polygon fill="midnightblue" stroke="midnightblue" points="867.072,-249.623 877.274,-246.767 867.517,-242.638 867.072,-249.623"/>
</g>
<!-- Node12&#45;&gt;Node10 -->
<g id="edge13" class="edge"><title>Node12&#45;&gt;Node10</title>
<path fill="none" stroke="midnightblue" d="M838.065,-263.882C847.714,-262.622 857.668,-261.322 867.391,-260.053"/>
<polygon fill="midnightblue" stroke="midnightblue" points="867.956,-263.509 877.419,-258.743 867.05,-256.568 867.956,-263.509"/>
</g>
<!-- Node13&#45;&gt;Node9 -->
<g id="edge15" class="edge"><title>Node13&#45;&gt;Node9</title>
<path fill="none" stroke="midnightblue" d="M459.339,-281.612C484.504,-271.575 517.75,-258.316 544.664,-247.582"/>
<polygon fill="midnightblue" stroke="midnightblue" points="546.274,-250.708 554.266,-243.752 543.681,-244.206 546.274,-250.708"/>
</g>
<!-- Node13&#45;&gt;Node11 -->
<g id="edge16" class="edge"><title>Node13&#45;&gt;Node11</title>
<path fill="none" stroke="midnightblue" d="M480.176,-303.586C490.002,-304.739 500.35,-305.952 510.624,-307.158"/>
<polygon fill="midnightblue" stroke="midnightblue" points="510.51,-310.668 520.85,-308.357 511.326,-303.716 510.51,-310.668"/>
</g>
<!-- Node14 -->
<g id="node14" class="node"><title>Node14</title>
<g id="a_node14"><a xlink:href="classRa_1_1Engine_1_1RenderObjectManager.html#a32bd0db0d9620bb7e3f0fe50b541dae3" target="_top" xlink:title="Returns the render object corresponding to the given index. ">
<polygon fill="white" stroke="black" points="521,-350.703 521,-380.703 665,-380.703 665,-350.703 521,-350.703"/>
<text text-anchor="start" x="529" y="-368.703" font-family="Helvetica,sans-Serif" font-size="10.00">Ra::Engine::RenderObject</text>
<text text-anchor="middle" x="593" y="-357.703" font-family="Helvetica,sans-Serif" font-size="10.00">Manager::getRenderObject</text>
</a>
</g>
</g>
<!-- Node13&#45;&gt;Node14 -->
<g id="edge17" class="edge"><title>Node13&#45;&gt;Node14</title>
<path fill="none" stroke="midnightblue" d="M452.974,-311.9C472.38,-321.028 497.893,-332.598 521,-341.703 525.721,-343.563 530.652,-345.414 535.618,-347.214"/>
<polygon fill="midnightblue" stroke="midnightblue" points="534.573,-350.557 545.168,-350.605 536.915,-343.961 534.573,-350.557"/>
</g>
<!-- Node14&#45;&gt;Node12 -->
<g id="edge18" class="edge"><title>Node14&#45;&gt;Node12</title>
<path fill="none" stroke="midnightblue" d="M643.943,-350.675C651.133,-347.981 658.344,-344.976 665,-341.703 692.301,-328.279 720.897,-308.735 741.096,-293.871"/>
<polygon fill="midnightblue" stroke="midnightblue" points="743.286,-296.603 749.21,-287.819 739.101,-290.992 743.286,-296.603"/>
</g>
<!-- Node15&#45;&gt;Node4 -->
<g id="edge20" class="edge"><title>Node15&#45;&gt;Node4</title>
<path fill="none" stroke="midnightblue" d="M471.341,-115.642C476.307,-112.85 480.987,-109.564 485,-105.703 513.683,-78.1076 487.676,-45.4674 521,-23.7031 581.042,15.5104 667.779,-2.25504 721.022,-19.4382"/>
<polygon fill="midnightblue" stroke="midnightblue" points="719.966,-22.7756 730.559,-22.6261 722.185,-16.1366 719.966,-22.7756"/>
</g>
<!-- Node17&#45;&gt;Node15 -->
<g id="edge23" class="edge"><title>Node17&#45;&gt;Node15</title>
<path fill="none" stroke="midnightblue" d="M320.184,-130.703C330.291,-130.703 340.6,-130.703 350.566,-130.703"/>
<polygon fill="midnightblue" stroke="midnightblue" points="350.805,-134.203 360.805,-130.703 350.805,-127.203 350.805,-134.203"/>
</g>
<!-- Node18 -->
<g id="node18" class="node"><title>Node18</title>
<g id="a_node18"><a xlink:href="classRa_1_1Engine_1_1Entity.html#adfcfb0c0eb4e1663cd66473e74d83aa3" target="_top" xlink:title="Ra::Engine::Entity\l::getTransform">
<polygon fill="white" stroke="black" points="370.5,-66.7031 370.5,-96.7031 470.5,-96.7031 470.5,-66.7031 370.5,-66.7031"/>
<text text-anchor="start" x="378.5" y="-84.7031" font-family="Helvetica,sans-Serif" font-size="10.00">Ra::Engine::Entity</text>
<text text-anchor="middle" x="420.5" y="-73.7031" font-family="Helvetica,sans-Serif" font-size="10.00">::getTransform</text>
</a>
</g>
</g>
<!-- Node17&#45;&gt;Node18 -->
<g id="edge24" class="edge"><title>Node17&#45;&gt;Node18</title>
<path fill="none" stroke="midnightblue" d="M297.742,-115.602C317.619,-110.068 340.204,-103.78 360.479,-98.1351"/>
<polygon fill="midnightblue" stroke="midnightblue" points="361.53,-101.476 370.225,-95.4218 359.652,-94.7322 361.53,-101.476"/>
</g>
</g>
</svg>
