<?xml version="1.0" encoding="UTF-8" standalone="no"?>
<!DOCTYPE svg PUBLIC "-//W3C//DTD SVG 1.1//EN"
 "http://www.w3.org/Graphics/SVG/1.1/DTD/svg11.dtd">
<!-- Generated by graphviz version 2.38.0 (20140413.2041)
 -->
<!-- Title: Ra::Gui::TrackballCamera::setCameraPosition Pages: 1 -->
<svg width="634pt" height="283pt"
 viewBox="0.00 0.00 634.00 283.35" xmlns="http://www.w3.org/2000/svg" xmlns:xlink="http://www.w3.org/1999/xlink">
<g id="graph0" class="graph" transform="scale(1 1) rotate(0) translate(4 279.347)">
<title>Ra::Gui::TrackballCamera::setCameraPosition</title>
<polygon fill="white" stroke="none" points="-4,4 -4,-279.347 630,-279.347 630,4 -4,4"/>
<!-- Node1 -->
<g id="node1" class="node"><title>Node1</title>
<polygon fill="#bfbfbf" stroke="black" points="0,-147.5 0,-177.5 135,-177.5 135,-147.5 0,-147.5"/>
<text text-anchor="start" x="8" y="-165.5" font-family="Helvetica,sans-Serif" font-size="10.00">Ra::Gui::TrackballCamera</text>
<text text-anchor="middle" x="67.5" y="-154.5" font-family="Helvetica,sans-Serif" font-size="10.00">::setCameraPosition</text>
</g>
<!-- Node2 -->
<g id="node2" class="node"><title>Node2</title>
<g id="a_node2"><a xlink:href="classRa_1_1Engine_1_1Camera.html#ab8f9fdfba7355b4589c4d9cb39f0b527" target="_top" xlink:title="Set the position of the camera to &#39;position&#39;. ">
<polygon fill="white" stroke="black" points="171,-98.5 171,-128.5 282,-128.5 282,-98.5 171,-98.5"/>
<text text-anchor="start" x="179" y="-116.5" font-family="Helvetica,sans-Serif" font-size="10.00">Ra::Engine::Camera</text>
<text text-anchor="middle" x="226.5" y="-105.5" font-family="Helvetica,sans-Serif" font-size="10.00">::setPosition</text>
</a>
</g>
</g>
<!-- Node1&#45;&gt;Node2 -->
<g id="edge1" class="edge"><title>Node1&#45;&gt;Node2</title>
<path fill="none" stroke="midnightblue" d="M116.886,-147.399C132.929,-142.392 150.949,-136.768 167.631,-131.561"/>
<polygon fill="midnightblue" stroke="midnightblue" points="168.77,-134.872 177.274,-128.552 166.685,-128.19 168.77,-134.872"/>
</g>
<!-- Node4 -->
<g id="node4" class="node"><title>Node4</title>
<g id="a_node4"><a xlink:href="classRa_1_1Engine_1_1Camera.html#a724a052e94817af7e602129467c8696f" target="_top" xlink:title="Return the position. ">
<polygon fill="white" stroke="black" points="502,-226.5 502,-256.5 613,-256.5 613,-226.5 502,-226.5"/>
<text text-anchor="start" x="510" y="-244.5" font-family="Helvetica,sans-Serif" font-size="10.00">Ra::Engine::Camera</text>
<text text-anchor="middle" x="557.5" y="-233.5" font-family="Helvetica,sans-Serif" font-size="10.00">::getPosition</text>
</a>
</g>
</g>
<!-- Node1&#45;&gt;Node4 -->
<g id="edge11" class="edge"><title>Node1&#45;&gt;Node4</title>
<path fill="none" stroke="midnightblue" d="M87.4167,-177.66C107.189,-192.81 139.647,-215.77 171,-229.5 286.791,-280.207 327.479,-281.445 453,-266.5 466.737,-264.864 481.287,-262.049 495.001,-258.883"/>
<polygon fill="midnightblue" stroke="midnightblue" points="495.909,-262.264 504.816,-256.527 494.275,-255.458 495.909,-262.264"/>
</g>
<!-- Node6 -->
<g id="node6" class="node"><title>Node6</title>
<g id="a_node6"><a xlink:href="classRa_1_1Engine_1_1Camera.html#a2fd3ed37be68acb358df23c3f04b3d81" target="_top" xlink:title="Set the direction of the camera to &#39;direction&#39;. ">
<polygon fill="white" stroke="black" points="171,-147.5 171,-177.5 282,-177.5 282,-147.5 171,-147.5"/>
<text text-anchor="start" x="179" y="-165.5" font-family="Helvetica,sans-Serif" font-size="10.00">Ra::Engine::Camera</text>
<text text-anchor="middle" x="226.5" y="-154.5" font-family="Helvetica,sans-Serif" font-size="10.00">::setDirection</text>
</a>
</g>
</g>
<!-- Node1&#45;&gt;Node6 -->
<g id="edge5" class="edge"><title>Node1&#45;&gt;Node6</title>
<path fill="none" stroke="midnightblue" d="M135.082,-162.5C143.519,-162.5 152.144,-162.5 160.556,-162.5"/>
<polygon fill="midnightblue" stroke="midnightblue" points="160.682,-166 170.682,-162.5 160.682,-159 160.682,-166"/>
</g>
<!-- Node7 -->
<g id="node7" class="node"><title>Node7</title>
<g id="a_node7"><a xlink:href="classRa_1_1Engine_1_1Camera.html#a23be7aa714c0e9c2a9429dfc9ef2c53a" target="_top" xlink:title="Return the direction the camera is looking at. ">
<polygon fill="white" stroke="black" points="330,-177.5 330,-207.5 441,-207.5 441,-177.5 330,-177.5"/>
<text text-anchor="start" x="338" y="-195.5" font-family="Helvetica,sans-Serif" font-size="10.00">Ra::Engine::Camera</text>
<text text-anchor="middle" x="385.5" y="-184.5" font-family="Helvetica,sans-Serif" font-size="10.00">::getDirection</text>
</a>
</g>
</g>
<!-- Node1&#45;&gt;Node7 -->
<g id="edge13" class="edge"><title>Node1&#45;&gt;Node7</title>
<path fill="none" stroke="midnightblue" d="M120.759,-177.549C136.747,-181.527 154.475,-185.317 171,-187.5 220.577,-194.048 277.179,-195.084 319.641,-194.599"/>
<polygon fill="midnightblue" stroke="midnightblue" points="319.896,-198.096 329.844,-194.45 319.794,-191.096 319.896,-198.096"/>
</g>
<!-- Node8 -->
<g id="node8" class="node"><title>Node8</title>
<g id="a_node8"><a xlink:href="classRa_1_1Gui_1_1TrackballCamera.html#a1f4216d79cee852ec5653a1a11fe4155" target="_top" xlink:title="Update the polar coordinates of the Camera w.r.t. the trackball center. ">
<polygon fill="white" stroke="black" points="318,-226.5 318,-256.5 453,-256.5 453,-226.5 318,-226.5"/>
<text text-anchor="start" x="326" y="-244.5" font-family="Helvetica,sans-Serif" font-size="10.00">Ra::Gui::TrackballCamera</text>
<text text-anchor="middle" x="385.5" y="-233.5" font-family="Helvetica,sans-Serif" font-size="10.00">::updatePhiTheta</text>
</a>
</g>
</g>
<!-- Node1&#45;&gt;Node8 -->
<g id="edge8" class="edge"><title>Node1&#45;&gt;Node8</title>
<path fill="none" stroke="midnightblue" d="M100.178,-177.574C120.116,-186.532 146.605,-197.479 171,-204.5 215.585,-217.332 266.764,-226.388 307.835,-232.327"/>
<polygon fill="midnightblue" stroke="midnightblue" points="307.387,-235.799 317.778,-233.733 308.367,-228.868 307.387,-235.799"/>
</g>
<!-- Node9 -->
<g id="node9" class="node"><title>Node9</title>
<g id="a_node9"><a xlink:href="classRa_1_1Engine_1_1Light.html#a38e2fb0ea040f4ebfb83c153246f0d0a" target="_top" xlink:title="Set the position of the light source. ">
<polygon fill="white" stroke="black" points="175.5,-49.5 175.5,-79.5 277.5,-79.5 277.5,-49.5 175.5,-49.5"/>
<text text-anchor="start" x="183.5" y="-67.5" font-family="Helvetica,sans-Serif" font-size="10.00">Ra::Engine::Light::</text>
<text text-anchor="middle" x="226.5" y="-56.5" font-family="Helvetica,sans-Serif" font-size="10.00">setPosition</text>
</a>
</g>
</g>
<!-- Node1&#45;&gt;Node9 -->
<g id="edge10" class="edge"><title>Node1&#45;&gt;Node9</title>
<path fill="none" stroke="midnightblue" d="M87.4191,-147.369C107.456,-131.748 140.365,-107.223 171,-89.5 174.207,-87.6446 177.576,-85.8218 181,-84.0585"/>
<polygon fill="midnightblue" stroke="midnightblue" points="182.706,-87.1195 190.117,-79.5482 179.602,-80.8453 182.706,-87.1195"/>
</g>
<!-- Node10 -->
<g id="node10" class="node"><title>Node10</title>
<g id="a_node10"><a xlink:href="classRa_1_1Engine_1_1Light.html#ad38532daa0a387eaa85526d94c794618" target="_top" xlink:title="set the direction of lighting ">
<polygon fill="white" stroke="black" points="175.5,-0.5 175.5,-30.5 277.5,-30.5 277.5,-0.5 175.5,-0.5"/>
<text text-anchor="start" x="183.5" y="-18.5" font-family="Helvetica,sans-Serif" font-size="10.00">Ra::Engine::Light::</text>
<text text-anchor="middle" x="226.5" y="-7.5" font-family="Helvetica,sans-Serif" font-size="10.00">setDirection</text>
</a>
</g>
</g>
<!-- Node1&#45;&gt;Node10 -->
<g id="edge12" class="edge"><title>Node1&#45;&gt;Node10</title>
<path fill="none" stroke="midnightblue" d="M78.1195,-147.118C94.5078,-121.956 130.071,-71.683 171,-40.5 173.29,-38.7553 175.721,-37.0957 178.237,-35.5234"/>
<polygon fill="midnightblue" stroke="midnightblue" points="180.072,-38.5062 187.029,-30.516 176.608,-32.4234 180.072,-38.5062"/>
</g>
<!-- Node3 -->
<g id="node3" class="node"><title>Node3</title>
<g id="a_node3"><a xlink:href="classRa_1_1Engine_1_1Camera.html#a7a2c1c84e3063c6c3f09d490477abb0f" target="_top" xlink:title="Apply the local transformation &#39;T&#39; to the camera. ">
<polygon fill="white" stroke="black" points="330,-128.5 330,-158.5 441,-158.5 441,-128.5 330,-128.5"/>
<text text-anchor="start" x="338" y="-146.5" font-family="Helvetica,sans-Serif" font-size="10.00">Ra::Engine::Camera</text>
<text text-anchor="middle" x="385.5" y="-135.5" font-family="Helvetica,sans-Serif" font-size="10.00">::applyTransform</text>
</a>
</g>
</g>
<!-- Node2&#45;&gt;Node3 -->
<g id="edge2" class="edge"><title>Node2&#45;&gt;Node3</title>
<path fill="none" stroke="midnightblue" d="M282.411,-123.993C294.552,-126.312 307.522,-128.791 320.004,-131.176"/>
<polygon fill="midnightblue" stroke="midnightblue" points="319.406,-134.625 329.885,-133.064 320.72,-127.749 319.406,-134.625"/>
</g>
<!-- Node3&#45;&gt;Node4 -->
<g id="edge3" class="edge"><title>Node3&#45;&gt;Node4</title>
<path fill="none" stroke="midnightblue" d="M431.191,-158.503C438.618,-161.504 446.133,-164.864 453,-168.5 480.716,-183.175 509.675,-204.157 529.889,-219.863"/>
<polygon fill="midnightblue" stroke="midnightblue" points="527.965,-222.803 537.988,-226.238 532.294,-217.302 527.965,-222.803"/>
</g>
<!-- Node5 -->
<g id="node5" class="node"><title>Node5</title>
<g id="a_node5"><a xlink:href="classRa_1_1Engine_1_1RenderObject.html#a2d6a1bc2b7646fe0912035a2ece24864" target="_top" xlink:title="Ra::Engine::RenderObject\l::setLocalTransform">
<polygon fill="white" stroke="black" points="489,-128.5 489,-158.5 626,-158.5 626,-128.5 489,-128.5"/>
<text text-anchor="start" x="497" y="-146.5" font-family="Helvetica,sans-Serif" font-size="10.00">Ra::Engine::RenderObject</text>
<text text-anchor="middle" x="557.5" y="-135.5" font-family="Helvetica,sans-Serif" font-size="10.00">::setLocalTransform</text>
</a>
</g>
</g>
<!-- Node3&#45;&gt;Node5 -->
<g id="edge4" class="edge"><title>Node3&#45;&gt;Node5</title>
<path fill="none" stroke="midnightblue" d="M441.225,-143.5C453.173,-143.5 466.039,-143.5 478.691,-143.5"/>
<polygon fill="midnightblue" stroke="midnightblue" points="478.77,-147 488.77,-143.5 478.77,-140 478.77,-147"/>
</g>
<!-- Node6&#45;&gt;Node3 -->
<g id="edge7" class="edge"><title>Node6&#45;&gt;Node3</title>
<path fill="none" stroke="midnightblue" d="M282.411,-155.855C294.431,-154.4 307.265,-152.847 319.634,-151.35"/>
<polygon fill="midnightblue" stroke="midnightblue" points="320.378,-154.786 329.885,-150.109 319.537,-147.836 320.378,-154.786"/>
</g>
<!-- Node6&#45;&gt;Node7 -->
<g id="edge6" class="edge"><title>Node6&#45;&gt;Node7</title>
<path fill="none" stroke="midnightblue" d="M282.411,-172.993C294.552,-175.312 307.522,-177.791 320.004,-180.176"/>
<polygon fill="midnightblue" stroke="midnightblue" points="319.406,-183.625 329.885,-182.064 320.72,-176.749 319.406,-183.625"/>
</g>
<!-- Node8&#45;&gt;Node4 -->
<g id="edge9" class="edge"><title>Node8&#45;&gt;Node4</title>
<path fill="none" stroke="midnightblue" d="M453.201,-241.5C465.773,-241.5 478.906,-241.5 491.427,-241.5"/>
<polygon fill="midnightblue" stroke="midnightblue" points="491.776,-245 501.776,-241.5 491.776,-238 491.776,-245"/>
</g>
</g>
</svg>
