<?xml version="1.0" encoding="UTF-8" standalone="no"?>
<!DOCTYPE svg PUBLIC "-//W3C//DTD SVG 1.1//EN"
 "http://www.w3.org/Graphics/SVG/1.1/DTD/svg11.dtd">
<!-- Generated by graphviz version 2.38.0 (20140413.2041)
 -->
<!-- Title: Ra::Engine::Mesh::colorize Pages: 1 -->
<svg width="998pt" height="176pt"
 viewBox="0.00 0.00 998.00 175.50" xmlns="http://www.w3.org/2000/svg" xmlns:xlink="http://www.w3.org/1999/xlink">
<g id="graph0" class="graph" transform="scale(1 1) rotate(0) translate(4 171.5)">
<title>Ra::Engine::Mesh::colorize</title>
<polygon fill="white" stroke="none" points="-4,4 -4,-171.5 994,-171.5 994,4 -4,4"/>
<!-- Node1 -->
<g id="node1" class="node"><title>Node1</title>
<polygon fill="#bfbfbf" stroke="black" points="0,-74 0,-93 141,-93 141,-74 0,-74"/>
<text text-anchor="middle" x="70.5" y="-81" font-family="Helvetica,sans-Serif" font-size="10.00">Ra::Engine::Mesh::colorize</text>
</g>
<!-- Node2 -->
<g id="node2" class="node"><title>Node2</title>
<g id="a_node2"><a xlink:href="classRa_1_1Engine_1_1Mesh.html#ad03a7d45ad807794b1a6511bd8153962" target="_top" xlink:title="Returns the underlying triangle mesh. ">
<polygon fill="white" stroke="black" points="177,-93 177,-112 345,-112 345,-93 177,-93"/>
<text text-anchor="middle" x="261" y="-100" font-family="Helvetica,sans-Serif" font-size="10.00">Ra::Engine::Mesh::getGeometry</text>
</a>
</g>
</g>
<!-- Node1&#45;&gt;Node2 -->
<g id="edge1" class="edge"><title>Node1&#45;&gt;Node2</title>
<path fill="none" stroke="midnightblue" d="M141.155,-90.5209C149.522,-91.3643 158.167,-92.2357 166.801,-93.1059"/>
<polygon fill="midnightblue" stroke="midnightblue" points="166.612,-96.6046 176.913,-94.1252 167.314,-89.6399 166.612,-96.6046"/>
</g>
<!-- Node3 -->
<g id="node3" class="node"><title>Node3</title>
<g id="a_node3"><a xlink:href="classRa_1_1Engine_1_1Mesh.html#a541f0a8471912ff23e643eda0f592b7b" target="_top" xlink:title="Set additionnal vertex data. ">
<polygon fill="white" stroke="black" points="188,-55 188,-74 334,-74 334,-55 188,-55"/>
<text text-anchor="middle" x="261" y="-62" font-family="Helvetica,sans-Serif" font-size="10.00">Ra::Engine::Mesh::addData</text>
</a>
</g>
</g>
<!-- Node1&#45;&gt;Node3 -->
<g id="edge2" class="edge"><title>Node1&#45;&gt;Node3</title>
<path fill="none" stroke="midnightblue" d="M141.155,-76.4791C153.035,-75.2816 165.476,-74.0276 177.649,-72.8007"/>
<polygon fill="midnightblue" stroke="midnightblue" points="178.193,-76.2636 187.792,-71.7783 177.491,-69.2989 178.193,-76.2636"/>
</g>
<!-- Node4 -->
<g id="node4" class="node"><title>Node4</title>
<g id="a_node4"><a xlink:href="classRa_1_1Core_1_1TriangleMesh.html#a0df7987af00e205263fba7cd2a635692" target="_top" xlink:title="Return true if h refers to an existing attribute in *this. ">
<polygon fill="white" stroke="black" points="381,-98.5 381,-128.5 506,-128.5 506,-98.5 381,-98.5"/>
<text text-anchor="start" x="389" y="-116.5" font-family="Helvetica,sans-Serif" font-size="10.00">Ra::Core::TriangleMesh</text>
<text text-anchor="middle" x="443.5" y="-105.5" font-family="Helvetica,sans-Serif" font-size="10.00">::isValid</text>
</a>
</g>
</g>
<!-- Node3&#45;&gt;Node4 -->
<g id="edge3" class="edge"><title>Node3&#45;&gt;Node4</title>
<path fill="none" stroke="midnightblue" d="M306.516,-74.057C319.012,-76.9113 332.577,-80.1718 345,-83.5 358.49,-87.1143 372.921,-91.3486 386.433,-95.478"/>
<polygon fill="midnightblue" stroke="midnightblue" points="385.496,-98.8514 396.083,-98.4559 387.56,-92.1627 385.496,-98.8514"/>
</g>
<!-- Node9 -->
<g id="node9" class="node"><title>Node9</title>
<g id="a_node9"><a xlink:href="classRa_1_1Core_1_1TriangleMesh.html#a5551c0aa273f8528997a59507afbd9c8" target="_top" xlink:title="Add attribute with the given name. ">
<polygon fill="white" stroke="black" points="381,-49.5 381,-79.5 506,-79.5 506,-49.5 381,-49.5"/>
<text text-anchor="start" x="389" y="-67.5" font-family="Helvetica,sans-Serif" font-size="10.00">Ra::Core::TriangleMesh</text>
<text text-anchor="middle" x="443.5" y="-56.5" font-family="Helvetica,sans-Serif" font-size="10.00">::addAttrib</text>
</a>
</g>
</g>
<!-- Node3&#45;&gt;Node9 -->
<g id="edge8" class="edge"><title>Node3&#45;&gt;Node9</title>
<path fill="none" stroke="midnightblue" d="M334.117,-64.5C346.238,-64.5 358.814,-64.5 370.921,-64.5"/>
<polygon fill="midnightblue" stroke="midnightblue" points="370.961,-68.0001 380.961,-64.5 370.961,-61.0001 370.961,-68.0001"/>
</g>
<!-- Node15 -->
<g id="node15" class="node"><title>Node15</title>
<g id="a_node15"><a xlink:href="classRa_1_1Core_1_1TriangleMesh.html#a01e44dce5a80eae1220d9e7988d4fe03" target="_top" xlink:title="Get attribute by handle. ">
<polygon fill="white" stroke="black" points="381,-0.5 381,-30.5 506,-30.5 506,-0.5 381,-0.5"/>
<text text-anchor="start" x="389" y="-18.5" font-family="Helvetica,sans-Serif" font-size="10.00">Ra::Core::TriangleMesh</text>
<text text-anchor="middle" x="443.5" y="-7.5" font-family="Helvetica,sans-Serif" font-size="10.00">::getAttrib</text>
</a>
</g>
</g>
<!-- Node3&#45;&gt;Node15 -->
<g id="edge14" class="edge"><title>Node3&#45;&gt;Node15</title>
<path fill="none" stroke="midnightblue" d="M297.231,-54.936C319.983,-48.7595 350.279,-40.5351 377.315,-33.1955"/>
<polygon fill="midnightblue" stroke="midnightblue" points="378.375,-36.5347 387.109,-30.537 376.541,-29.7791 378.375,-36.5347"/>
</g>
<!-- Node5 -->
<g id="node5" class="node"><title>Node5</title>
<g id="a_node5"><a xlink:href="classRa_1_1Core_1_1AttribManager.html#a60dbf6cd73f3de13bc1247435ce52a81" target="_top" xlink:title="Return true if h correspond to an existing attribute in *this. ">
<polygon fill="white" stroke="black" points="542,-98.5 542,-128.5 673,-128.5 673,-98.5 542,-98.5"/>
<text text-anchor="start" x="550" y="-116.5" font-family="Helvetica,sans-Serif" font-size="10.00">Ra::Core::AttribManager</text>
<text text-anchor="middle" x="607.5" y="-105.5" font-family="Helvetica,sans-Serif" font-size="10.00">::isValid</text>
</a>
</g>
</g>
<!-- Node4&#45;&gt;Node5 -->
<g id="edge4" class="edge"><title>Node4&#45;&gt;Node5</title>
<path fill="none" stroke="midnightblue" d="M506.207,-113.5C514.471,-113.5 523.02,-113.5 531.481,-113.5"/>
<polygon fill="midnightblue" stroke="midnightblue" points="531.733,-117 541.733,-113.5 531.733,-110 531.733,-117"/>
</g>
<!-- Node6 -->
<g id="node6" class="node"><title>Node6</title>
<g id="a_node6"><a xlink:href="classRa_1_1Core_1_1Index.html#a16f988512f9ef442cc97b6bc4809ba45" target="_top" xlink:title="Ra::Core::Index::Invalid">
<polygon fill="white" stroke="black" points="709,-148 709,-167 834,-167 834,-148 709,-148"/>
<text text-anchor="middle" x="771.5" y="-155" font-family="Helvetica,sans-Serif" font-size="10.00">Ra::Core::Index::Invalid</text>
</a>
</g>
</g>
<!-- Node5&#45;&gt;Node6 -->
<g id="edge5" class="edge"><title>Node5&#45;&gt;Node6</title>
<path fill="none" stroke="midnightblue" d="M663.798,-128.519C683.936,-133.989 706.439,-140.101 725.569,-145.296"/>
<polygon fill="midnightblue" stroke="midnightblue" points="724.667,-148.678 735.235,-147.922 726.502,-141.923 724.667,-148.678"/>
</g>
<!-- Node8 -->
<g id="node8" class="node"><title>Node8</title>
<g id="a_node8"><a xlink:href="classRa_1_1Core_1_1AttribHandle.html#a7e994151627b8847e1f6f03fd88ff093" target="_top" xlink:title="Ra::Core::AttribHandle\l::attribName">
<polygon fill="white" stroke="black" points="710,-98.5 710,-128.5 833,-128.5 833,-98.5 710,-98.5"/>
<text text-anchor="start" x="718" y="-116.5" font-family="Helvetica,sans-Serif" font-size="10.00">Ra::Core::AttribHandle</text>
<text text-anchor="middle" x="771.5" y="-105.5" font-family="Helvetica,sans-Serif" font-size="10.00">::attribName</text>
</a>
</g>
</g>
<!-- Node5&#45;&gt;Node8 -->
<g id="edge7" class="edge"><title>Node5&#45;&gt;Node8</title>
<path fill="none" stroke="midnightblue" d="M673.458,-113.5C682.126,-113.5 691.049,-113.5 699.809,-113.5"/>
<polygon fill="midnightblue" stroke="midnightblue" points="699.992,-117 709.992,-113.5 699.992,-110 699.992,-117"/>
</g>
<!-- Node7 -->
<g id="node7" class="node"><title>Node7</title>
<g id="a_node7"><a xlink:href="classRa_1_1Core_1_1Index.html#af6afe563ad57a4ab82f3706987e684ef" target="_top" xlink:title="CONSTRUCTOR Default constructor that allow implicit conversion from integer to Index. ">
<polygon fill="white" stroke="black" points="870,-148 870,-167 990,-167 990,-148 870,-148"/>
<text text-anchor="middle" x="930" y="-155" font-family="Helvetica,sans-Serif" font-size="10.00">Ra::Core::Index::Index</text>
</a>
</g>
</g>
<!-- Node6&#45;&gt;Node7 -->
<g id="edge6" class="edge"><title>Node6&#45;&gt;Node7</title>
<path fill="none" stroke="midnightblue" d="M834.353,-157.5C842.675,-157.5 851.255,-157.5 859.695,-157.5"/>
<polygon fill="midnightblue" stroke="midnightblue" points="859.893,-161 869.893,-157.5 859.893,-154 859.893,-161"/>
</g>
<!-- Node10 -->
<g id="node10" class="node"><title>Node10</title>
<g id="a_node10"><a xlink:href="classRa_1_1Core_1_1AttribManager.html#aba5ff01e716bf2cfe571edad8b289ed9" target="_top" xlink:title="Add attribute by name. ">
<polygon fill="white" stroke="black" points="542,-49.5 542,-79.5 673,-79.5 673,-49.5 542,-49.5"/>
<text text-anchor="start" x="550" y="-67.5" font-family="Helvetica,sans-Serif" font-size="10.00">Ra::Core::AttribManager</text>
<text text-anchor="middle" x="607.5" y="-56.5" font-family="Helvetica,sans-Serif" font-size="10.00">::addAttrib</text>
</a>
</g>
</g>
<!-- Node9&#45;&gt;Node10 -->
<g id="edge9" class="edge"><title>Node9&#45;&gt;Node10</title>
<path fill="none" stroke="midnightblue" d="M506.207,-64.5C514.471,-64.5 523.02,-64.5 531.481,-64.5"/>
<polygon fill="midnightblue" stroke="midnightblue" points="531.733,-68.0001 541.733,-64.5 531.733,-61.0001 531.733,-68.0001"/>
</g>
<!-- Node11 -->
<g id="node11" class="node"><title>Node11</title>
<g id="a_node11"><a xlink:href="classRa_1_1Core_1_1AttribBase.html#a8f23218d034749f55d1984d1d852f507" target="_top" xlink:title="Ra::Core::AttribBase\l::setName">
<polygon fill="white" stroke="black" points="715,-49.5 715,-79.5 828,-79.5 828,-49.5 715,-49.5"/>
<text text-anchor="start" x="723" y="-67.5" font-family="Helvetica,sans-Serif" font-size="10.00">Ra::Core::AttribBase</text>
<text text-anchor="middle" x="771.5" y="-56.5" font-family="Helvetica,sans-Serif" font-size="10.00">::setName</text>
</a>
</g>
</g>
<!-- Node10&#45;&gt;Node11 -->
<g id="edge10" class="edge"><title>Node10&#45;&gt;Node11</title>
<path fill="none" stroke="midnightblue" d="M673.458,-64.5C683.757,-64.5 694.417,-64.5 704.734,-64.5"/>
<polygon fill="midnightblue" stroke="midnightblue" points="704.912,-68.0001 714.912,-64.5 704.912,-61.0001 704.912,-68.0001"/>
</g>
<!-- Node12 -->
<g id="node12" class="node"><title>Node12</title>
<g id="a_node12"><a xlink:href="classRa_1_1Core_1_1AttribBase.html#a3d9d6c2c919ec6131c4d5f2c604a4689" target="_top" xlink:title="Ra::Core::AttribBase\l::resize">
<polygon fill="white" stroke="black" points="873.5,-98.5 873.5,-128.5 986.5,-128.5 986.5,-98.5 873.5,-98.5"/>
<text text-anchor="start" x="881.5" y="-116.5" font-family="Helvetica,sans-Serif" font-size="10.00">Ra::Core::AttribBase</text>
<text text-anchor="middle" x="930" y="-105.5" font-family="Helvetica,sans-Serif" font-size="10.00">::resize</text>
</a>
</g>
</g>
<!-- Node11&#45;&gt;Node12 -->
<g id="edge11" class="edge"><title>Node11&#45;&gt;Node12</title>
<path fill="none" stroke="midnightblue" d="M820.732,-79.6014C836.723,-84.6083 854.686,-90.2324 871.315,-95.439"/>
<polygon fill="midnightblue" stroke="midnightblue" points="870.338,-98.8005 880.927,-98.4484 872.43,-92.1203 870.338,-98.8005"/>
</g>
<!-- Node13 -->
<g id="node13" class="node"><title>Node13</title>
<g id="a_node13"><a xlink:href="classRa_1_1Core_1_1AttribBase.html#abb18b2b7de27f1cfaeb0a354350fc9b8" target="_top" xlink:title="Ra::Core::AttribBase\l::getSize">
<polygon fill="white" stroke="black" points="873.5,-49.5 873.5,-79.5 986.5,-79.5 986.5,-49.5 873.5,-49.5"/>
<text text-anchor="start" x="881.5" y="-67.5" font-family="Helvetica,sans-Serif" font-size="10.00">Ra::Core::AttribBase</text>
<text text-anchor="middle" x="930" y="-56.5" font-family="Helvetica,sans-Serif" font-size="10.00">::getSize</text>
</a>
</g>
</g>
<!-- Node11&#45;&gt;Node13 -->
<g id="edge12" class="edge"><title>Node11&#45;&gt;Node13</title>
<path fill="none" stroke="midnightblue" d="M828.117,-64.5C839.465,-64.5 851.507,-64.5 863.172,-64.5"/>
<polygon fill="midnightblue" stroke="midnightblue" points="863.299,-68.0001 873.299,-64.5 863.299,-61.0001 863.299,-68.0001"/>
</g>
<!-- Node14 -->
<g id="node14" class="node"><title>Node14</title>
<g id="a_node14"><a xlink:href="classRa_1_1Core_1_1AttribBase.html#aa4ec9628a8ac2c951a27ed2f3d785f95" target="_top" xlink:title="Ra::Core::AttribBase\l::getStride">
<polygon fill="white" stroke="black" points="873.5,-0.5 873.5,-30.5 986.5,-30.5 986.5,-0.5 873.5,-0.5"/>
<text text-anchor="start" x="881.5" y="-18.5" font-family="Helvetica,sans-Serif" font-size="10.00">Ra::Core::AttribBase</text>
<text text-anchor="middle" x="930" y="-7.5" font-family="Helvetica,sans-Serif" font-size="10.00">::getStride</text>
</a>
</g>
</g>
<!-- Node11&#45;&gt;Node14 -->
<g id="edge13" class="edge"><title>Node11&#45;&gt;Node14</title>
<path fill="none" stroke="midnightblue" d="M820.732,-49.3986C836.723,-44.3917 854.686,-38.7676 871.315,-33.561"/>
<polygon fill="midnightblue" stroke="midnightblue" points="872.43,-36.8797 880.927,-30.5516 870.338,-30.1995 872.43,-36.8797"/>
</g>
<!-- Node16 -->
<g id="node16" class="node"><title>Node16</title>
<g id="a_node16"><a xlink:href="classRa_1_1Core_1_1AttribManager.html#aaa6088620425c1e1d74b50f1b50eb596" target="_top" xlink:title="Get attribute by handle. ">
<polygon fill="white" stroke="black" points="542,-0.5 542,-30.5 673,-30.5 673,-0.5 542,-0.5"/>
<text text-anchor="start" x="550" y="-18.5" font-family="Helvetica,sans-Serif" font-size="10.00">Ra::Core::AttribManager</text>
<text text-anchor="middle" x="607.5" y="-7.5" font-family="Helvetica,sans-Serif" font-size="10.00">::getAttrib</text>
</a>
</g>
</g>
<!-- Node15&#45;&gt;Node16 -->
<g id="edge15" class="edge"><title>Node15&#45;&gt;Node16</title>
<path fill="none" stroke="midnightblue" d="M506.207,-15.5C514.471,-15.5 523.02,-15.5 531.481,-15.5"/>
<polygon fill="midnightblue" stroke="midnightblue" points="531.733,-19.0001 541.733,-15.5 531.733,-12.0001 531.733,-19.0001"/>
</g>
</g>
</svg>
