<?xml version="1.0" encoding="UTF-8" standalone="no"?>
<!DOCTYPE svg PUBLIC "-//W3C//DTD SVG 1.1//EN"
 "http://www.w3.org/Graphics/SVG/1.1/DTD/svg11.dtd">
<!-- Generated by graphviz version 2.38.0 (20140413.2041)
 -->
<!-- Title: Ra::Core::QuadraSpline::f Pages: 1 -->
<svg width="469pt" height="78pt"
 viewBox="0.00 0.00 469.00 77.50" xmlns="http://www.w3.org/2000/svg" xmlns:xlink="http://www.w3.org/1999/xlink">
<g id="graph0" class="graph" transform="scale(1 1) rotate(0) translate(4 73.5)">
<title>Ra::Core::QuadraSpline::f</title>
<polygon fill="white" stroke="none" points="-4,4 -4,-73.5 465,-73.5 465,4 -4,4"/>
<!-- Node1 -->
<g id="node1" class="node"><title>Node1</title>
<polygon fill="#bfbfbf" stroke="black" points="0,-22.5 0,-41.5 137,-41.5 137,-22.5 0,-22.5"/>
<text text-anchor="middle" x="68.5" y="-29.5" font-family="Helvetica,sans-Serif" font-size="10.00">Ra::Core::QuadraSpline::f</text>
</g>
<!-- Node2 -->
<g id="node2" class="node"><title>Node2</title>
<g id="a_node2"><a xlink:href="classRa_1_1Core_1_1Spline.html#aa40f2b7095d2abea6e7453f3e473f089" target="_top" xlink:title="Set the position of the spline control points. ">
<polygon fill="white" stroke="black" points="173,-39 173,-69 303,-69 303,-39 173,-39"/>
<text text-anchor="start" x="181" y="-57" font-family="Helvetica,sans-Serif" font-size="10.00">Ra::Core::Spline::setCtrl</text>
<text text-anchor="middle" x="238" y="-46" font-family="Helvetica,sans-Serif" font-size="10.00">Points</text>
</a>
</g>
</g>
<!-- Node1&#45;&gt;Node2 -->
<g id="edge1" class="edge"><title>Node1&#45;&gt;Node2</title>
<path fill="none" stroke="midnightblue" d="M137.146,-40.8848C145.63,-41.9991 154.342,-43.1435 162.918,-44.2699"/>
<polygon fill="midnightblue" stroke="midnightblue" points="162.53,-47.7488 172.901,-45.581 163.441,-40.8084 162.53,-47.7488"/>
</g>
<!-- Node3 -->
<g id="node3" class="node"><title>Node3</title>
<g id="a_node3"><a xlink:href="classRa_1_1Core_1_1Spline.html#a28b1d348289fbf5a4355486c5140834e" target="_top" xlink:title="Evaluate position of the spline. ">
<polygon fill="white" stroke="black" points="187.5,-0.5 187.5,-19.5 288.5,-19.5 288.5,-0.5 187.5,-0.5"/>
<text text-anchor="middle" x="238" y="-7.5" font-family="Helvetica,sans-Serif" font-size="10.00">Ra::Core::Spline::f</text>
</a>
</g>
</g>
<!-- Node1&#45;&gt;Node3 -->
<g id="edge2" class="edge"><title>Node1&#45;&gt;Node3</title>
<path fill="none" stroke="midnightblue" d="M137.146,-23.1152C150.4,-21.3743 164.213,-19.5601 177.189,-17.8557"/>
<polygon fill="midnightblue" stroke="midnightblue" points="177.931,-21.2885 187.39,-16.516 177.019,-14.3481 177.931,-21.2885"/>
</g>
<!-- Node4 -->
<g id="node4" class="node"><title>Node4</title>
<g id="a_node4"><a xlink:href="namespaceRa_1_1Core_1_1Math.html#a43a856c00d750c5f5c28f362b5df8664" target="_top" xlink:title="Returns value v clamped between bounds min and max. ">
<polygon fill="white" stroke="black" points="339,-0.5 339,-19.5 461,-19.5 461,-0.5 339,-0.5"/>
<text text-anchor="middle" x="400" y="-7.5" font-family="Helvetica,sans-Serif" font-size="10.00">Ra::Core::Math::clamp</text>
</a>
</g>
</g>
<!-- Node3&#45;&gt;Node4 -->
<g id="edge3" class="edge"><title>Node3&#45;&gt;Node4</title>
<path fill="none" stroke="midnightblue" d="M288.748,-10C301.394,-10 315.224,-10 328.682,-10"/>
<polygon fill="midnightblue" stroke="midnightblue" points="328.876,-13.5001 338.876,-10 328.876,-6.5001 328.876,-13.5001"/>
</g>
</g>
</svg>
