<?xml version="1.0" encoding="UTF-8" standalone="no"?>
<!DOCTYPE svg PUBLIC "-//W3C//DTD SVG 1.1//EN"
 "http://www.w3.org/Graphics/SVG/1.1/DTD/svg11.dtd">
<!-- Generated by graphviz version 2.38.0 (20140413.2041)
 -->
<!-- Title: Ra::Core::Geometry::VariationalShapeApproximationBase::exec Pages: 1 -->
<svg width="808pt" height="219pt"
 viewBox="0.00 0.00 808.00 219.00" xmlns="http://www.w3.org/2000/svg" xmlns:xlink="http://www.w3.org/1999/xlink">
<g id="graph0" class="graph" transform="scale(1 1) rotate(0) translate(4 215)">
<title>Ra::Core::Geometry::VariationalShapeApproximationBase::exec</title>
<polygon fill="white" stroke="none" points="-4,4 -4,-215 804,-215 804,4 -4,4"/>
<!-- Node1 -->
<g id="node1" class="node"><title>Node1</title>
<polygon fill="#bfbfbf" stroke="black" points="0,-109.5 0,-150.5 173,-150.5 173,-109.5 0,-109.5"/>
<text text-anchor="start" x="8" y="-138.5" font-family="Helvetica,sans-Serif" font-size="10.00">Ra::Core::Geometry</text>
<text text-anchor="start" x="8" y="-127.5" font-family="Helvetica,sans-Serif" font-size="10.00">::VariationalShapeApproximation</text>
<text text-anchor="middle" x="86.5" y="-116.5" font-family="Helvetica,sans-Serif" font-size="10.00">Base::exec</text>
</g>
<!-- Node2 -->
<g id="node2" class="node"><title>Node2</title>
<g id="a_node2"><a xlink:href="classRa_1_1Core_1_1Geometry_1_1VariationalShapeApproximationBase.html#a221dd3aa360f1bc9a205588a25534bd1" target="_top" xlink:title="Return true if init() was called. False otherwise. ">
<polygon fill="white" stroke="black" points="209,-169.5 209,-210.5 382,-210.5 382,-169.5 209,-169.5"/>
<text text-anchor="start" x="217" y="-198.5" font-family="Helvetica,sans-Serif" font-size="10.00">Ra::Core::Geometry</text>
<text text-anchor="start" x="217" y="-187.5" font-family="Helvetica,sans-Serif" font-size="10.00">::VariationalShapeApproximation</text>
<text text-anchor="middle" x="295.5" y="-176.5" font-family="Helvetica,sans-Serif" font-size="10.00">Base::initialized</text>
</a>
</g>
</g>
<!-- Node1&#45;&gt;Node2 -->
<g id="edge1" class="edge"><title>Node1&#45;&gt;Node2</title>
<path fill="none" stroke="midnightblue" d="M158.448,-150.565C176.305,-155.741 195.602,-161.334 213.894,-166.636"/>
<polygon fill="midnightblue" stroke="midnightblue" points="213.066,-170.04 223.645,-169.462 215.014,-163.317 213.066,-170.04"/>
</g>
<!-- Node3 -->
<g id="node3" class="node"><title>Node3</title>
<g id="a_node3"><a xlink:href="classRa_1_1Core_1_1Geometry_1_1VariationalShapeApproximationBase.html#a4aa7e2d572201e08266880dbbf7dbd85" target="_top" xlink:title="Performs the Proxy fitting. ">
<polygon fill="white" stroke="black" points="209,-109.5 209,-150.5 382,-150.5 382,-109.5 209,-109.5"/>
<text text-anchor="start" x="217" y="-138.5" font-family="Helvetica,sans-Serif" font-size="10.00">Ra::Core::Geometry</text>
<text text-anchor="start" x="217" y="-127.5" font-family="Helvetica,sans-Serif" font-size="10.00">::VariationalShapeApproximation</text>
<text text-anchor="middle" x="295.5" y="-116.5" font-family="Helvetica,sans-Serif" font-size="10.00">Base::proxy_fitting</text>
</a>
</g>
</g>
<!-- Node1&#45;&gt;Node3 -->
<g id="edge2" class="edge"><title>Node1&#45;&gt;Node3</title>
<path fill="none" stroke="midnightblue" d="M173.189,-130C181.663,-130 190.301,-130 198.867,-130"/>
<polygon fill="midnightblue" stroke="midnightblue" points="198.875,-133.5 208.875,-130 198.875,-126.5 198.875,-133.5"/>
</g>
<!-- Node4 -->
<g id="node4" class="node"><title>Node4</title>
<g id="a_node4"><a xlink:href="classRa_1_1Core_1_1Geometry_1_1VariationalShapeApproximationBase.html#a2587ab7817f09e4c1dc79d08c9a36ce4" target="_top" xlink:title="Performs the geometry partitioning with the current proxies. ">
<polygon fill="white" stroke="black" points="209,-49.5 209,-90.5 382,-90.5 382,-49.5 209,-49.5"/>
<text text-anchor="start" x="217" y="-78.5" font-family="Helvetica,sans-Serif" font-size="10.00">Ra::Core::Geometry</text>
<text text-anchor="start" x="217" y="-67.5" font-family="Helvetica,sans-Serif" font-size="10.00">::VariationalShapeApproximation</text>
<text text-anchor="middle" x="295.5" y="-56.5" font-family="Helvetica,sans-Serif" font-size="10.00">Base::geometry_partitioning</text>
</a>
</g>
</g>
<!-- Node1&#45;&gt;Node4 -->
<g id="edge3" class="edge"><title>Node1&#45;&gt;Node4</title>
<path fill="none" stroke="midnightblue" d="M158.448,-109.435C176.305,-104.259 195.602,-98.6662 213.894,-93.3642"/>
<polygon fill="midnightblue" stroke="midnightblue" points="215.014,-96.6834 223.645,-90.5378 213.066,-89.9602 215.014,-96.6834"/>
</g>
<!-- Node5 -->
<g id="node5" class="node"><title>Node5</title>
<g id="a_node5"><a xlink:href="namespaceRa_1_1Core_1_1Algorithm.html#aea294cdb6f4f0d85955bdcccb22886ec" target="_top" xlink:title="Ra::Core::Algorithm::t">
<polygon fill="white" stroke="black" points="445,-98.5 445,-117.5 564,-117.5 564,-98.5 445,-98.5"/>
<text text-anchor="middle" x="504.5" y="-105.5" font-family="Helvetica,sans-Serif" font-size="10.00">Ra::Core::Algorithm::t</text>
</a>
</g>
</g>
<!-- Node4&#45;&gt;Node5 -->
<g id="edge4" class="edge"><title>Node4&#45;&gt;Node5</title>
<path fill="none" stroke="midnightblue" d="M382.189,-85.7304C402.176,-89.3995 423.078,-93.2365 441.789,-96.6714"/>
<polygon fill="midnightblue" stroke="midnightblue" points="441.179,-100.118 451.647,-98.4811 442.443,-93.233 441.179,-100.118"/>
</g>
<!-- Node6 -->
<g id="node6" class="node"><title>Node6</title>
<g id="a_node6"><a xlink:href="classRa_1_1Core_1_1Geometry_1_1VariationalShapeApproximationBase.html#a3c71d31a3c51e485574a9a3d76f39458" target="_top" xlink:title="Computes the energy function for the given triangle and the given Proxy. ">
<polygon fill="white" stroke="black" points="627,-24.5 627,-65.5 800,-65.5 800,-24.5 627,-24.5"/>
<text text-anchor="start" x="635" y="-53.5" font-family="Helvetica,sans-Serif" font-size="10.00">Ra::Core::Geometry</text>
<text text-anchor="start" x="635" y="-42.5" font-family="Helvetica,sans-Serif" font-size="10.00">::VariationalShapeApproximation</text>
<text text-anchor="middle" x="713.5" y="-31.5" font-family="Helvetica,sans-Serif" font-size="10.00">Base::E</text>
</a>
</g>
</g>
<!-- Node4&#45;&gt;Node6 -->
<g id="edge5" class="edge"><title>Node4&#45;&gt;Node6</title>
<path fill="none" stroke="midnightblue" d="M382.191,-64.8503C450.428,-60.7495 545.902,-55.0119 616.665,-50.7593"/>
<polygon fill="midnightblue" stroke="midnightblue" points="617.148,-54.2367 626.92,-50.143 616.728,-47.2493 617.148,-54.2367"/>
</g>
<!-- Node7 -->
<g id="node7" class="node"><title>Node7</title>
<g id="a_node7"><a xlink:href="classRa_1_1Core_1_1Geometry_1_1VariationalShapeApproximationBase.html#a1c461b56ce2749533d2fbacb2ae60fa6" target="_top" xlink:title="Add the neighbors of T to the priority queue. ">
<polygon fill="white" stroke="black" points="418,-0.5 418,-41.5 591,-41.5 591,-0.5 418,-0.5"/>
<text text-anchor="start" x="426" y="-29.5" font-family="Helvetica,sans-Serif" font-size="10.00">Ra::Core::Geometry</text>
<text text-anchor="start" x="426" y="-18.5" font-family="Helvetica,sans-Serif" font-size="10.00">::VariationalShapeApproximation</text>
<text text-anchor="middle" x="504.5" y="-7.5" font-family="Helvetica,sans-Serif" font-size="10.00">Base::add_neighbors_to_queue</text>
</a>
</g>
</g>
<!-- Node4&#45;&gt;Node7 -->
<g id="edge6" class="edge"><title>Node4&#45;&gt;Node7</title>
<path fill="none" stroke="midnightblue" d="M382.189,-49.7161C390.663,-47.7102 399.301,-45.6654 407.867,-43.6378"/>
<polygon fill="midnightblue" stroke="midnightblue" points="408.95,-46.9781 417.875,-41.2687 407.338,-40.1664 408.95,-46.9781"/>
</g>
<!-- Node7&#45;&gt;Node6 -->
<g id="edge7" class="edge"><title>Node7&#45;&gt;Node6</title>
<path fill="none" stroke="midnightblue" d="M591.189,-30.935C599.663,-31.9174 608.301,-32.919 616.867,-33.9121"/>
<polygon fill="midnightblue" stroke="midnightblue" points="616.539,-37.3974 626.875,-35.0725 617.345,-30.444 616.539,-37.3974"/>
</g>
</g>
</svg>
