<?xml version="1.0" encoding="UTF-8" standalone="no"?>
<!DOCTYPE svg PUBLIC "-//W3C//DTD SVG 1.1//EN"
 "http://www.w3.org/Graphics/SVG/1.1/DTD/svg11.dtd">
<!-- Generated by graphviz version 2.38.0 (20140413.2041)
 -->
<!-- Title: Ra::Core::MAPFileManager::exportData Pages: 1 -->
<svg width="326pt" height="99pt"
 viewBox="0.00 0.00 326.00 98.50" xmlns="http://www.w3.org/2000/svg" xmlns:xlink="http://www.w3.org/1999/xlink">
<g id="graph0" class="graph" transform="scale(1 1) rotate(0) translate(4 94.5)">
<title>Ra::Core::MAPFileManager::exportData</title>
<polygon fill="white" stroke="none" points="-4,4 -4,-94.5 322,-94.5 322,4 -4,4"/>
<!-- Node1 -->
<g id="node1" class="node"><title>Node1</title>
<polygon fill="#bfbfbf" stroke="black" points="0,-27.5 0,-57.5 141,-57.5 141,-27.5 0,-27.5"/>
<text text-anchor="start" x="8" y="-45.5" font-family="Helvetica,sans-Serif" font-size="10.00">Ra::Core::MAPFileManager</text>
<text text-anchor="middle" x="70.5" y="-34.5" font-family="Helvetica,sans-Serif" font-size="10.00">::exportData</text>
</g>
<!-- Node2 -->
<g id="node2" class="node"><title>Node2</title>
<g id="a_node2"><a xlink:href="classRa_1_1Core_1_1FileManager.html#a32776fbf23e35ba0354e941b95194e73" target="_top" xlink:title="Ra::Core::FileManager\l\&lt; Parametrization \&gt;::\laddLogErrorEntry">
<polygon fill="white" stroke="black" points="187,-49 187,-90 308,-90 308,-49 187,-49"/>
<text text-anchor="start" x="195" y="-78" font-family="Helvetica,sans-Serif" font-size="10.00">Ra::Core::FileManager</text>
<text text-anchor="start" x="195" y="-67" font-family="Helvetica,sans-Serif" font-size="10.00">&lt; Parametrization &gt;::</text>
<text text-anchor="middle" x="247.5" y="-56" font-family="Helvetica,sans-Serif" font-size="10.00">addLogErrorEntry</text>
</a>
</g>
</g>
<!-- Node1&#45;&gt;Node2 -->
<g id="edge1" class="edge"><title>Node1&#45;&gt;Node2</title>
<path fill="none" stroke="midnightblue" d="M141.167,-53.2487C152.889,-55.0572 165.057,-56.9345 176.78,-58.7431"/>
<polygon fill="midnightblue" stroke="midnightblue" points="176.528,-62.2457 186.945,-60.3115 177.595,-55.3275 176.528,-62.2457"/>
</g>
<!-- Node3 -->
<g id="node3" class="node"><title>Node3</title>
<g id="a_node3"><a xlink:href="classRa_1_1Core_1_1MAPFileManager.html#a5bf2e850b204bb574a4fcf27c6f78995" target="_top" xlink:title="HEADER. ">
<polygon fill="white" stroke="black" points="177,-0.5 177,-30.5 318,-30.5 318,-0.5 177,-0.5"/>
<text text-anchor="start" x="185" y="-18.5" font-family="Helvetica,sans-Serif" font-size="10.00">Ra::Core::MAPFileManager</text>
<text text-anchor="middle" x="247.5" y="-7.5" font-family="Helvetica,sans-Serif" font-size="10.00">::header</text>
</a>
</g>
</g>
<!-- Node1&#45;&gt;Node3 -->
<g id="edge2" class="edge"><title>Node1&#45;&gt;Node3</title>
<path fill="none" stroke="midnightblue" d="M141.167,-31.7513C149.594,-30.4512 158.251,-29.1156 166.808,-27.7954"/>
<polygon fill="midnightblue" stroke="midnightblue" points="167.437,-31.2398 176.786,-26.2558 166.37,-24.3216 167.437,-31.2398"/>
</g>
</g>
</svg>
