<?xml version="1.0" encoding="UTF-8" standalone="no"?>
<!DOCTYPE svg PUBLIC "-//W3C//DTD SVG 1.1//EN"
 "http://www.w3.org/Graphics/SVG/1.1/DTD/svg11.dtd">
<!-- Generated by graphviz version 2.38.0 (20140413.2041)
 -->
<!-- Title: Ra::IO::AssimpAnimationDataLoader Pages: 1 -->
<svg width="231pt" height="486pt"
 viewBox="0.00 0.00 231.00 486.00" xmlns="http://www.w3.org/2000/svg" xmlns:xlink="http://www.w3.org/1999/xlink">
<g id="graph0" class="graph" transform="scale(1 1) rotate(0) translate(4 482)">
<title>Ra::IO::AssimpAnimationDataLoader</title>
<polygon fill="white" stroke="none" points="-4,4 -4,-482 227,-482 227,4 -4,4"/>
<!-- Node1 -->
<g id="node1" class="node"><title>Node1</title>
<polygon fill="#bfbfbf" stroke="black" points="0,-0.5 0,-167.5 184,-167.5 184,-0.5 0,-0.5"/>
<text text-anchor="start" x="8" y="-155.5" font-family="Helvetica,sans-Serif" font-size="10.00">Ra::IO::AssimpAnimationData</text>
<text text-anchor="middle" x="92" y="-144.5" font-family="Helvetica,sans-Serif" font-size="10.00">Loader</text>
<polyline fill="none" stroke="black" points="0,-137.5 184,-137.5 "/>
<text text-anchor="middle" x="92" y="-125.5" font-family="Helvetica,sans-Serif" font-size="10.00"> </text>
<polyline fill="none" stroke="black" points="0,-118.5 184,-118.5 "/>
<text text-anchor="start" x="8" y="-106.5" font-family="Helvetica,sans-Serif" font-size="10.00">+ AssimpAnimationDataLoader()</text>
<text text-anchor="start" x="8" y="-95.5" font-family="Helvetica,sans-Serif" font-size="10.00">+ ~AssimpAnimationDataLoader()</text>
<text text-anchor="start" x="8" y="-84.5" font-family="Helvetica,sans-Serif" font-size="10.00">+ loadData()</text>
<text text-anchor="start" x="8" y="-73.5" font-family="Helvetica,sans-Serif" font-size="10.00"># sceneHasAnimation()</text>
<text text-anchor="start" x="8" y="-62.5" font-family="Helvetica,sans-Serif" font-size="10.00"># sceneAnimationSize()</text>
<text text-anchor="start" x="8" y="-51.5" font-family="Helvetica,sans-Serif" font-size="10.00"># fetchName()</text>
<text text-anchor="start" x="8" y="-40.5" font-family="Helvetica,sans-Serif" font-size="10.00"># fetchTime()</text>
<text text-anchor="start" x="8" y="-29.5" font-family="Helvetica,sans-Serif" font-size="10.00"># loadAnimationData()</text>
<text text-anchor="start" x="8" y="-18.5" font-family="Helvetica,sans-Serif" font-size="10.00"># fetchAnimation()</text>
<text text-anchor="start" x="8" y="-7.5" font-family="Helvetica,sans-Serif" font-size="10.00"># fetchHandleAnimation()</text>
</g>
<!-- Node2 -->
<g id="node2" class="node"><title>Node2</title>
<g id="a_node2"><a xlink:href="classRa_1_1Asset_1_1DataLoader.html" target="_top" xlink:title="{Ra::Asset::DataLoader\l\&lt; Asset::AnimationData \&gt;\n|# m_verbose\l|+ DataLoader()\l+ ~DataLoader()\l+ loadData()\l+ isVerbose()\l+ setVerbose()\l}">
<polygon fill="white" stroke="black" points="20,-205.5 20,-317.5 164,-317.5 164,-205.5 20,-205.5"/>
<text text-anchor="start" x="28" y="-305.5" font-family="Helvetica,sans-Serif" font-size="10.00">Ra::Asset::DataLoader</text>
<text text-anchor="middle" x="92" y="-294.5" font-family="Helvetica,sans-Serif" font-size="10.00">&lt; Asset::AnimationData &gt;</text>
<polyline fill="none" stroke="black" points="20,-287.5 164,-287.5 "/>
<text text-anchor="start" x="28" y="-275.5" font-family="Helvetica,sans-Serif" font-size="10.00"># m_verbose</text>
<polyline fill="none" stroke="black" points="20,-268.5 164,-268.5 "/>
<text text-anchor="start" x="28" y="-256.5" font-family="Helvetica,sans-Serif" font-size="10.00">+ DataLoader()</text>
<text text-anchor="start" x="28" y="-245.5" font-family="Helvetica,sans-Serif" font-size="10.00">+ ~DataLoader()</text>
<text text-anchor="start" x="28" y="-234.5" font-family="Helvetica,sans-Serif" font-size="10.00">+ loadData()</text>
<text text-anchor="start" x="28" y="-223.5" font-family="Helvetica,sans-Serif" font-size="10.00">+ isVerbose()</text>
<text text-anchor="start" x="28" y="-212.5" font-family="Helvetica,sans-Serif" font-size="10.00">+ setVerbose()</text>
</a>
</g>
</g>
<!-- Node2&#45;&gt;Node1 -->
<g id="edge1" class="edge"><title>Node2&#45;&gt;Node1</title>
<path fill="none" stroke="midnightblue" d="M92,-195.449C92,-186.441 92,-177.09 92,-167.813"/>
<polygon fill="none" stroke="midnightblue" points="88.5001,-195.452 92,-205.452 95.5001,-195.452 88.5001,-195.452"/>
</g>
<!-- Node3 -->
<g id="node3" class="node"><title>Node3</title>
<g id="a_node3"><a xlink:href="classRa_1_1Asset_1_1DataLoader.html" target="_top" xlink:title="{Ra::Asset::DataLoader\l\&lt; DATA \&gt;\n|# m_verbose\l|+ DataLoader()\l+ ~DataLoader()\l+ loadData()\l+ isVerbose()\l+ setVerbose()\l}">
<polygon fill="white" stroke="black" points="30,-365.5 30,-477.5 154,-477.5 154,-365.5 30,-365.5"/>
<text text-anchor="start" x="38" y="-465.5" font-family="Helvetica,sans-Serif" font-size="10.00">Ra::Asset::DataLoader</text>
<text text-anchor="middle" x="92" y="-454.5" font-family="Helvetica,sans-Serif" font-size="10.00">&lt; DATA &gt;</text>
<polyline fill="none" stroke="black" points="30,-447.5 154,-447.5 "/>
<text text-anchor="start" x="38" y="-435.5" font-family="Helvetica,sans-Serif" font-size="10.00"># m_verbose</text>
<polyline fill="none" stroke="black" points="30,-428.5 154,-428.5 "/>
<text text-anchor="start" x="38" y="-416.5" font-family="Helvetica,sans-Serif" font-size="10.00">+ DataLoader()</text>
<text text-anchor="start" x="38" y="-405.5" font-family="Helvetica,sans-Serif" font-size="10.00">+ ~DataLoader()</text>
<text text-anchor="start" x="38" y="-394.5" font-family="Helvetica,sans-Serif" font-size="10.00">+ loadData()</text>
<text text-anchor="start" x="38" y="-383.5" font-family="Helvetica,sans-Serif" font-size="10.00">+ isVerbose()</text>
<text text-anchor="start" x="38" y="-372.5" font-family="Helvetica,sans-Serif" font-size="10.00">+ setVerbose()</text>
</a>
</g>
</g>
<!-- Node3&#45;&gt;Node2 -->
<g id="edge2" class="edge"><title>Node3&#45;&gt;Node2</title>
<path fill="none" stroke="orange" d="M92,-354.974C92,-342.592 92,-329.756 92,-317.73"/>
<polygon fill="orange" stroke="orange" points="88.5001,-355.239 92,-365.239 95.5001,-355.239 88.5001,-355.239"/>
<text text-anchor="middle" x="157.5" y="-339" font-family="Helvetica,sans-Serif" font-size="10.00"> &lt; Asset::AnimationData &gt;</text>
</g>
</g>
</svg>
