<?xml version="1.0" encoding="UTF-8" standalone="no"?>
<!DOCTYPE svg PUBLIC "-//W3C//DTD SVG 1.1//EN"
 "http://www.w3.org/Graphics/SVG/1.1/DTD/svg11.dtd">
<!-- Generated by graphviz version 2.38.0 (20140413.2041)
 -->
<!-- Title: Ra::Engine::GeometryComponent::addMeshRenderObject Pages: 1 -->
<svg width="982pt" height="478pt"
 viewBox="0.00 0.00 982.00 478.00" xmlns="http://www.w3.org/2000/svg" xmlns:xlink="http://www.w3.org/1999/xlink">
<g id="graph0" class="graph" transform="scale(1 1) rotate(0) translate(4 474)">
<title>Ra::Engine::GeometryComponent::addMeshRenderObject</title>
<polygon fill="white" stroke="none" points="-4,4 -4,-474 978,-474 978,4 -4,4"/>
<!-- Node1 -->
<g id="node1" class="node"><title>Node1</title>
<polygon fill="#bfbfbf" stroke="black" points="0,-236.5 0,-266.5 177,-266.5 177,-236.5 0,-236.5"/>
<text text-anchor="start" x="8" y="-254.5" font-family="Helvetica,sans-Serif" font-size="10.00">Ra::Engine::GeometryComponent</text>
<text text-anchor="middle" x="88.5" y="-243.5" font-family="Helvetica,sans-Serif" font-size="10.00">::addMeshRenderObject</text>
</g>
<!-- Node2 -->
<g id="node2" class="node"><title>Node2</title>
<g id="a_node2"><a xlink:href="classRa_1_1Engine_1_1GeometryComponent.html#acd66e05ec26dd556df24c544cee48440" target="_top" xlink:title="Ra::Engine::GeometryComponent\l::setupIO">
<polygon fill="white" stroke="black" points="213,-236.5 213,-266.5 390,-266.5 390,-236.5 213,-236.5"/>
<text text-anchor="start" x="221" y="-254.5" font-family="Helvetica,sans-Serif" font-size="10.00">Ra::Engine::GeometryComponent</text>
<text text-anchor="middle" x="301.5" y="-243.5" font-family="Helvetica,sans-Serif" font-size="10.00">::setupIO</text>
</a>
</g>
</g>
<!-- Node1&#45;&gt;Node2 -->
<g id="edge1" class="edge"><title>Node1&#45;&gt;Node2</title>
<path fill="none" stroke="midnightblue" d="M177.15,-251.5C185.522,-251.5 194.048,-251.5 202.509,-251.5"/>
<polygon fill="midnightblue" stroke="midnightblue" points="202.783,-255 212.783,-251.5 202.783,-248 202.783,-255"/>
</g>
<!-- Node18 -->
<g id="node18" class="node"><title>Node18</title>
<g id="a_node18"><a xlink:href="classRa_1_1Engine_1_1RenderObject.html#ae9cb914f351555a60d29e8d6afedc06b" target="_top" xlink:title="Sort of factory method to easily create a render object. ">
<polygon fill="white" stroke="black" points="233,-105.5 233,-135.5 370,-135.5 370,-105.5 233,-105.5"/>
<text text-anchor="start" x="241" y="-123.5" font-family="Helvetica,sans-Serif" font-size="10.00">Ra::Engine::RenderObject</text>
<text text-anchor="middle" x="301.5" y="-112.5" font-family="Helvetica,sans-Serif" font-size="10.00">::createRenderObject</text>
</a>
</g>
</g>
<!-- Node1&#45;&gt;Node18 -->
<g id="edge20" class="edge"><title>Node1&#45;&gt;Node18</title>
<path fill="none" stroke="midnightblue" d="M113.704,-236.473C151.602,-212.944 225.01,-167.368 267.647,-140.897"/>
<polygon fill="midnightblue" stroke="midnightblue" points="269.604,-143.802 276.254,-135.553 265.912,-137.854 269.604,-143.802"/>
</g>
<!-- Node21 -->
<g id="node21" class="node"><title>Node21</title>
<g id="a_node21"><a xlink:href="classRa_1_1Engine_1_1Component.html#a1fbe1a8c7052a8bf3fd2ad2f6ae34772" target="_top" xlink:title="Add a new render object to the component. This adds the RO to the manager for drawing. ">
<polygon fill="white" stroke="black" points="237,-373.5 237,-403.5 366,-403.5 366,-373.5 237,-373.5"/>
<text text-anchor="start" x="245" y="-391.5" font-family="Helvetica,sans-Serif" font-size="10.00">Ra::Engine::Component</text>
<text text-anchor="middle" x="301.5" y="-380.5" font-family="Helvetica,sans-Serif" font-size="10.00">::addRenderObject</text>
</a>
</g>
</g>
<!-- Node1&#45;&gt;Node21 -->
<g id="edge23" class="edge"><title>Node1&#45;&gt;Node21</title>
<path fill="none" stroke="midnightblue" d="M112.887,-266.685C150.852,-291.335 225.946,-340.093 268.718,-367.864"/>
<polygon fill="midnightblue" stroke="midnightblue" points="267.037,-370.946 277.33,-373.456 270.849,-365.075 267.037,-370.946"/>
</g>
<!-- Node3 -->
<g id="node3" class="node"><title>Node3</title>
<g id="a_node3"><a xlink:href="classRa_1_1Engine_1_1Component.html#a207c1dc2e97856c22e0767fb77162933" target="_top" xlink:title="Return the entity the component belongs to. ">
<polygon fill="white" stroke="black" points="450,-302.5 450,-332.5 579,-332.5 579,-302.5 450,-302.5"/>
<text text-anchor="start" x="458" y="-320.5" font-family="Helvetica,sans-Serif" font-size="10.00">Ra::Engine::Component</text>
<text text-anchor="middle" x="514.5" y="-309.5" font-family="Helvetica,sans-Serif" font-size="10.00">::getEntity</text>
</a>
</g>
</g>
<!-- Node2&#45;&gt;Node3 -->
<g id="edge2" class="edge"><title>Node2&#45;&gt;Node3</title>
<path fill="none" stroke="midnightblue" d="M350.643,-266.559C381.727,-276.282 422.356,-288.99 455.256,-299.281"/>
<polygon fill="midnightblue" stroke="midnightblue" points="454.61,-302.747 465.199,-302.392 456.7,-296.066 454.61,-302.747"/>
</g>
<!-- Node4 -->
<g id="node4" class="node"><title>Node4</title>
<g id="a_node4"><a xlink:href="classRa_1_1Engine_1_1Component.html#a10b0bc182b76165744ebea603ae32dfe" target="_top" xlink:title="Shortcut to access the render object manager. ">
<polygon fill="white" stroke="black" points="450,-439.5 450,-469.5 579,-469.5 579,-439.5 450,-439.5"/>
<text text-anchor="start" x="458" y="-457.5" font-family="Helvetica,sans-Serif" font-size="10.00">Ra::Engine::Component</text>
<text text-anchor="middle" x="514.5" y="-446.5" font-family="Helvetica,sans-Serif" font-size="10.00">::getRoMgr</text>
</a>
</g>
</g>
<!-- Node2&#45;&gt;Node4 -->
<g id="edge3" class="edge"><title>Node2&#45;&gt;Node4</title>
<path fill="none" stroke="midnightblue" d="M315.488,-266.641C333.337,-287.796 365.965,-327.744 390,-364.5 408.287,-392.465 399.801,-409.762 426,-430.5 430.4,-433.983 435.27,-436.961 440.394,-439.508"/>
<polygon fill="midnightblue" stroke="midnightblue" points="439.28,-442.841 449.844,-443.642 442.085,-436.427 439.28,-442.841"/>
</g>
<!-- Node5 -->
<g id="node5" class="node"><title>Node5</title>
<g id="a_node5"><a xlink:href="classRa_1_1Engine_1_1RenderObjectManager.html#a32bd0db0d9620bb7e3f0fe50b541dae3" target="_top" xlink:title="Returns the render object corresponding to the given index. ">
<polygon fill="white" stroke="black" points="442.5,-390.5 442.5,-420.5 586.5,-420.5 586.5,-390.5 442.5,-390.5"/>
<text text-anchor="start" x="450.5" y="-408.5" font-family="Helvetica,sans-Serif" font-size="10.00">Ra::Engine::RenderObject</text>
<text text-anchor="middle" x="514.5" y="-397.5" font-family="Helvetica,sans-Serif" font-size="10.00">Manager::getRenderObject</text>
</a>
</g>
</g>
<!-- Node2&#45;&gt;Node5 -->
<g id="edge4" class="edge"><title>Node2&#45;&gt;Node5</title>
<path fill="none" stroke="midnightblue" d="M312.835,-266.735C331.961,-293.753 375.556,-350.075 426,-380.5 429.577,-382.657 433.348,-384.636 437.235,-386.449"/>
<polygon fill="midnightblue" stroke="midnightblue" points="435.907,-389.688 446.479,-390.387 438.651,-383.248 435.907,-389.688"/>
</g>
<!-- Node8 -->
<g id="node8" class="node"><title>Node8</title>
<g id="a_node8"><a xlink:href="classRa_1_1Engine_1_1GeometryComponent.html#a1cd030ebe520f35605bc8b5ed4c06ad7" target="_top" xlink:title="Returns the index of the associated RO (the display mesh) ">
<polygon fill="white" stroke="black" points="426,-214.5 426,-244.5 603,-244.5 603,-214.5 426,-214.5"/>
<text text-anchor="start" x="434" y="-232.5" font-family="Helvetica,sans-Serif" font-size="10.00">Ra::Engine::GeometryComponent</text>
<text text-anchor="middle" x="514.5" y="-221.5" font-family="Helvetica,sans-Serif" font-size="10.00">::getRenderObjectIndex</text>
</a>
</g>
</g>
<!-- Node2&#45;&gt;Node8 -->
<g id="edge7" class="edge"><title>Node2&#45;&gt;Node8</title>
<path fill="none" stroke="midnightblue" d="M390.15,-242.361C398.614,-241.479 407.235,-240.58 415.788,-239.688"/>
<polygon fill="midnightblue" stroke="midnightblue" points="416.2,-243.164 425.783,-238.646 415.474,-236.202 416.2,-243.164"/>
</g>
<!-- Node9 -->
<g id="node9" class="node"><title>Node9</title>
<g id="a_node9"><a xlink:href="classRa_1_1Engine_1_1GeometryComponent.html#aadb84000b1245b28ed548af7ceb4a237" target="_top" xlink:title="Returns the current display geometry. ">
<polygon fill="white" stroke="black" points="426,-126.5 426,-156.5 603,-156.5 603,-126.5 426,-126.5"/>
<text text-anchor="start" x="434" y="-144.5" font-family="Helvetica,sans-Serif" font-size="10.00">Ra::Engine::GeometryComponent</text>
<text text-anchor="middle" x="514.5" y="-133.5" font-family="Helvetica,sans-Serif" font-size="10.00">::getMesh</text>
</a>
</g>
</g>
<!-- Node2&#45;&gt;Node9 -->
<g id="edge8" class="edge"><title>Node2&#45;&gt;Node9</title>
<path fill="none" stroke="midnightblue" d="M322.564,-236.292C346.277,-218.855 387.402,-190.266 426,-171.5 434.575,-167.331 443.88,-163.482 453.114,-160.028"/>
<polygon fill="midnightblue" stroke="midnightblue" points="454.46,-163.264 462.677,-156.576 452.083,-156.679 454.46,-163.264"/>
</g>
<!-- Node10 -->
<g id="node10" class="node"><title>Node10</title>
<g id="a_node10"><a xlink:href="classRa_1_1Engine_1_1Mesh.html#ad03a7d45ad807794b1a6511bd8153962" target="_top" xlink:title="Returns the underlying triangle mesh. ">
<polygon fill="white" stroke="black" points="639,-91 639,-110 807,-110 807,-91 639,-91"/>
<text text-anchor="middle" x="723" y="-98" font-family="Helvetica,sans-Serif" font-size="10.00">Ra::Engine::Mesh::getGeometry</text>
</a>
</g>
</g>
<!-- Node2&#45;&gt;Node10 -->
<g id="edge11" class="edge"><title>Node2&#45;&gt;Node10</title>
<path fill="none" stroke="midnightblue" d="M316.505,-236.26C334.642,-216.122 366.686,-179.139 390,-144.5 408.657,-116.78 397.268,-95.5563 426,-78.5 510.439,-28.3744 633.18,-65.0626 690.415,-87.0954"/>
<polygon fill="midnightblue" stroke="midnightblue" points="689.407,-90.4606 699.993,-90.8836 691.981,-83.9511 689.407,-90.4606"/>
</g>
<!-- Node11 -->
<g id="node11" class="node"><title>Node11</title>
<g id="a_node11"><a xlink:href="classRa_1_1Engine_1_1Mesh.html#a9a1dcadf7fb4ff851b18c87b3a98ac6b" target="_top" xlink:title="Mark one of the data types as dirty, forcing an update of the openGL buffer. ">
<polygon fill="white" stroke="black" points="443.5,-88 443.5,-107 585.5,-107 585.5,-88 443.5,-88"/>
<text text-anchor="middle" x="514.5" y="-95" font-family="Helvetica,sans-Serif" font-size="10.00">Ra::Engine::Mesh::setDirty</text>
</a>
</g>
</g>
<!-- Node2&#45;&gt;Node11 -->
<g id="edge10" class="edge"><title>Node2&#45;&gt;Node11</title>
<path fill="none" stroke="midnightblue" d="M314.447,-236.265C339.769,-204.361 398.738,-132.176 426,-116.5 429.895,-114.26 434.027,-112.284 438.291,-110.54"/>
<polygon fill="midnightblue" stroke="midnightblue" points="439.597,-113.789 447.799,-107.082 437.205,-107.211 439.597,-113.789"/>
</g>
<!-- Node12 -->
<g id="node12" class="node"><title>Node12</title>
<g id="a_node12"><a xlink:href="classRa_1_1Engine_1_1Mesh.html#a9bdf796a08da5ad5e345c62629774903" target="_top" xlink:title="Use the given geometry as base for a display mesh. Normals are optionnal. ">
<polygon fill="white" stroke="black" points="428,-352 428,-371 601,-371 601,-352 428,-352"/>
<text text-anchor="middle" x="514.5" y="-359" font-family="Helvetica,sans-Serif" font-size="10.00">Ra::Engine::Mesh::loadGeometry</text>
</a>
</g>
</g>
<!-- Node2&#45;&gt;Node12 -->
<g id="edge12" class="edge"><title>Node2&#45;&gt;Node12</title>
<path fill="none" stroke="midnightblue" d="M318.251,-266.603C340.449,-287.017 383.042,-323.088 426,-342.5 431.445,-344.961 437.227,-347.111 443.123,-348.988"/>
<polygon fill="midnightblue" stroke="midnightblue" points="442.533,-352.461 453.113,-351.896 444.49,-345.74 442.533,-352.461"/>
</g>
<!-- Node13 -->
<g id="node13" class="node"><title>Node13</title>
<g id="a_node13"><a xlink:href="classRa_1_1Core_1_1TriangleMesh.html#a495116f40cfec8bb6504698d786d4b8c" target="_top" xlink:title="Access the vertices positions. ">
<polygon fill="white" stroke="black" points="660.5,-258.5 660.5,-288.5 785.5,-288.5 785.5,-258.5 660.5,-258.5"/>
<text text-anchor="start" x="668.5" y="-276.5" font-family="Helvetica,sans-Serif" font-size="10.00">Ra::Core::TriangleMesh</text>
<text text-anchor="middle" x="723" y="-265.5" font-family="Helvetica,sans-Serif" font-size="10.00">::vertices</text>
</a>
</g>
</g>
<!-- Node2&#45;&gt;Node13 -->
<g id="edge17" class="edge"><title>Node2&#45;&gt;Node13</title>
<path fill="none" stroke="midnightblue" d="M390.186,-256.099C467.221,-260.139 577.948,-265.945 649.927,-269.72"/>
<polygon fill="midnightblue" stroke="midnightblue" points="650.088,-273.233 660.257,-270.262 650.454,-266.243 650.088,-273.233"/>
</g>
<!-- Node17 -->
<g id="node17" class="node"><title>Node17</title>
<g id="a_node17"><a xlink:href="classRa_1_1Core_1_1TriangleMesh.html#a40d31b7b2943947d6eac5d906f0182fd" target="_top" xlink:title="Access the vertices normals. ">
<polygon fill="white" stroke="black" points="660.5,-190.5 660.5,-220.5 785.5,-220.5 785.5,-190.5 660.5,-190.5"/>
<text text-anchor="start" x="668.5" y="-208.5" font-family="Helvetica,sans-Serif" font-size="10.00">Ra::Core::TriangleMesh</text>
<text text-anchor="middle" x="723" y="-197.5" font-family="Helvetica,sans-Serif" font-size="10.00">::normals</text>
</a>
</g>
</g>
<!-- Node2&#45;&gt;Node17 -->
<g id="edge18" class="edge"><title>Node2&#45;&gt;Node17</title>
<path fill="none" stroke="midnightblue" d="M332.813,-236.395C357.278,-225.091 392.945,-210.577 426,-204.5 501.609,-190.599 589.929,-193.286 650.286,-197.921"/>
<polygon fill="midnightblue" stroke="midnightblue" points="650.223,-201.427 660.472,-198.742 650.786,-194.45 650.223,-201.427"/>
</g>
<!-- Node6 -->
<g id="node6" class="node"><title>Node6</title>
<g id="a_node6"><a xlink:href="classRa_1_1Engine_1_1RenderObjectManager.html#a4077b9cf9e1e4d62fd5456386f2d72c8" target="_top" xlink:title="Returns true if the index points to a valid render object. ">
<polygon fill="white" stroke="black" points="654.5,-392.5 654.5,-422.5 791.5,-422.5 791.5,-392.5 654.5,-392.5"/>
<text text-anchor="start" x="662.5" y="-410.5" font-family="Helvetica,sans-Serif" font-size="10.00">Ra::Engine::RenderObject</text>
<text text-anchor="middle" x="723" y="-399.5" font-family="Helvetica,sans-Serif" font-size="10.00">Manager::exists</text>
</a>
</g>
</g>
<!-- Node5&#45;&gt;Node6 -->
<g id="edge5" class="edge"><title>Node5&#45;&gt;Node6</title>
<path fill="none" stroke="midnightblue" d="M586.566,-406.188C605.157,-406.368 625.296,-406.563 644.218,-406.747"/>
<polygon fill="midnightblue" stroke="midnightblue" points="644.252,-410.247 654.286,-406.844 644.32,-403.247 644.252,-410.247"/>
</g>
<!-- Node7 -->
<g id="node7" class="node"><title>Node7</title>
<g id="a_node7"><a xlink:href="classRa_1_1Core_1_1Index.html#a87c70243f30c65c1a24834d1829bda01" target="_top" xlink:title="DESTRUCTOR: Must not be defined, we need it trivial to be constexpr. ">
<polygon fill="white" stroke="black" points="846,-398 846,-417 971,-417 971,-398 846,-398"/>
<text text-anchor="middle" x="908.5" y="-405" font-family="Helvetica,sans-Serif" font-size="10.00">Ra::Core::Index::isValid</text>
</a>
</g>
</g>
<!-- Node6&#45;&gt;Node7 -->
<g id="edge6" class="edge"><title>Node6&#45;&gt;Node7</title>
<path fill="none" stroke="midnightblue" d="M791.547,-407.5C805.855,-407.5 821.009,-407.5 835.477,-407.5"/>
<polygon fill="midnightblue" stroke="midnightblue" points="835.868,-411 845.868,-407.5 835.868,-404 835.868,-411"/>
</g>
<!-- Node9&#45;&gt;Node10 -->
<g id="edge9" class="edge"><title>Node9&#45;&gt;Node10</title>
<path fill="none" stroke="midnightblue" d="M591.22,-126.466C615.177,-121.709 641.267,-116.529 663.797,-112.056"/>
<polygon fill="midnightblue" stroke="midnightblue" points="664.751,-115.435 673.878,-110.054 663.388,-108.569 664.751,-115.435"/>
</g>
<!-- Node12&#45;&gt;Node13 -->
<g id="edge13" class="edge"><title>Node12&#45;&gt;Node13</title>
<path fill="none" stroke="midnightblue" d="M571.811,-351.988C582.349,-349.45 593.143,-346.319 603,-342.5 635.186,-330.03 668.961,-309.646 692.271,-294.26"/>
<polygon fill="midnightblue" stroke="midnightblue" points="694.307,-297.108 700.667,-288.634 690.411,-291.293 694.307,-297.108"/>
</g>
<!-- Node15 -->
<g id="node15" class="node"><title>Node15</title>
<g id="a_node15"><a xlink:href="classRa_1_1Core_1_1TriangleMesh.html#a2050187a77536bb43bfa2e25c25389c6" target="_top" xlink:title="Return the Handle to the attribute with the given name if it exists, an invalid handle otherwise...">
<polygon fill="white" stroke="black" points="660.5,-343.5 660.5,-373.5 785.5,-373.5 785.5,-343.5 660.5,-343.5"/>
<text text-anchor="start" x="668.5" y="-361.5" font-family="Helvetica,sans-Serif" font-size="10.00">Ra::Core::TriangleMesh</text>
<text text-anchor="middle" x="723" y="-350.5" font-family="Helvetica,sans-Serif" font-size="10.00">::getAttribHandle</text>
</a>
</g>
</g>
<!-- Node12&#45;&gt;Node15 -->
<g id="edge15" class="edge"><title>Node12&#45;&gt;Node15</title>
<path fill="none" stroke="midnightblue" d="M601.281,-360.254C617.552,-360.017 634.419,-359.772 650.202,-359.543"/>
<polygon fill="midnightblue" stroke="midnightblue" points="650.452,-363.04 660.4,-359.395 650.351,-356.041 650.452,-363.04"/>
</g>
<!-- Node14 -->
<g id="node14" class="node"><title>Node14</title>
<g id="a_node14"><a xlink:href="classRa_1_1Core_1_1AttribManager.html#aaa6088620425c1e1d74b50f1b50eb596" target="_top" xlink:title="Get attribute by handle. ">
<polygon fill="white" stroke="black" points="843,-224.5 843,-254.5 974,-254.5 974,-224.5 843,-224.5"/>
<text text-anchor="start" x="851" y="-242.5" font-family="Helvetica,sans-Serif" font-size="10.00">Ra::Core::AttribManager</text>
<text text-anchor="middle" x="908.5" y="-231.5" font-family="Helvetica,sans-Serif" font-size="10.00">::getAttrib</text>
</a>
</g>
</g>
<!-- Node13&#45;&gt;Node14 -->
<g id="edge14" class="edge"><title>Node13&#45;&gt;Node14</title>
<path fill="none" stroke="midnightblue" d="M785.613,-262.084C800.731,-259.283 817.076,-256.254 832.738,-253.352"/>
<polygon fill="midnightblue" stroke="midnightblue" points="833.716,-256.731 842.911,-251.468 832.44,-249.848 833.716,-256.731"/>
</g>
<!-- Node16 -->
<g id="node16" class="node"><title>Node16</title>
<g id="a_node16"><a xlink:href="classRa_1_1Core_1_1AttribManager.html#a83cb9e1c9e687d161a3070ffbdf07b22" target="_top" xlink:title="findAttrib Grab an attribute handler by name. ">
<polygon fill="white" stroke="black" points="843,-343.5 843,-373.5 974,-373.5 974,-343.5 843,-343.5"/>
<text text-anchor="start" x="851" y="-361.5" font-family="Helvetica,sans-Serif" font-size="10.00">Ra::Core::AttribManager</text>
<text text-anchor="middle" x="908.5" y="-350.5" font-family="Helvetica,sans-Serif" font-size="10.00">::findAttrib</text>
</a>
</g>
</g>
<!-- Node15&#45;&gt;Node16 -->
<g id="edge16" class="edge"><title>Node15&#45;&gt;Node16</title>
<path fill="none" stroke="midnightblue" d="M785.613,-358.5C800.731,-358.5 817.076,-358.5 832.738,-358.5"/>
<polygon fill="midnightblue" stroke="midnightblue" points="832.911,-362 842.911,-358.5 832.911,-355 832.911,-362"/>
</g>
<!-- Node17&#45;&gt;Node14 -->
<g id="edge19" class="edge"><title>Node17&#45;&gt;Node14</title>
<path fill="none" stroke="midnightblue" d="M785.613,-216.916C800.731,-219.717 817.076,-222.746 832.738,-225.648"/>
<polygon fill="midnightblue" stroke="midnightblue" points="832.44,-229.152 842.911,-227.532 833.716,-222.269 832.44,-229.152"/>
</g>
<!-- Node19 -->
<g id="node19" class="node"><title>Node19</title>
<g id="a_node19"><a xlink:href="classRa_1_1Engine_1_1RenderObject.html#acf300c8fdb55fee54d27b3fb46a1e523" target="_top" xlink:title="A &#45;1 (or any other negative value) lifetime is considered infinite, 0 is an &quot;invalid value&quot; (would me...">
<polygon fill="white" stroke="black" points="446,-0.5 446,-30.5 583,-30.5 583,-0.5 446,-0.5"/>
<text text-anchor="start" x="454" y="-18.5" font-family="Helvetica,sans-Serif" font-size="10.00">Ra::Engine::RenderObject</text>
<text text-anchor="middle" x="514.5" y="-7.5" font-family="Helvetica,sans-Serif" font-size="10.00">::RenderObject</text>
</a>
</g>
</g>
<!-- Node18&#45;&gt;Node19 -->
<g id="edge21" class="edge"><title>Node18&#45;&gt;Node19</title>
<path fill="none" stroke="midnightblue" d="M324.013,-105.462C348.048,-89.1377 388.517,-63.0559 426,-45.5 434.743,-41.4051 444.205,-37.579 453.566,-34.1214"/>
<polygon fill="midnightblue" stroke="midnightblue" points="455.014,-37.3205 463.25,-30.6557 452.656,-30.7298 455.014,-37.3205"/>
</g>
<!-- Node20 -->
<g id="node20" class="node"><title>Node20</title>
<g id="a_node20"><a xlink:href="classRa_1_1Engine_1_1RenderObject.html#a8ea17931e62bea93890d44815bf7fcf5" target="_top" xlink:title="Ra::Engine::RenderObject\l::~RenderObject">
<polygon fill="white" stroke="black" points="654.5,-0.5 654.5,-30.5 791.5,-30.5 791.5,-0.5 654.5,-0.5"/>
<text text-anchor="start" x="662.5" y="-18.5" font-family="Helvetica,sans-Serif" font-size="10.00">Ra::Engine::RenderObject</text>
<text text-anchor="middle" x="723" y="-7.5" font-family="Helvetica,sans-Serif" font-size="10.00">::~RenderObject</text>
</a>
</g>
</g>
<!-- Node19&#45;&gt;Node20 -->
<g id="edge22" class="edge"><title>Node19&#45;&gt;Node20</title>
<path fill="none" stroke="midnightblue" d="M583.116,-15.5C602.637,-15.5 624.095,-15.5 644.184,-15.5"/>
<polygon fill="midnightblue" stroke="midnightblue" points="644.232,-19.0001 654.232,-15.5 644.232,-12.0001 644.232,-19.0001"/>
</g>
<!-- Node21&#45;&gt;Node4 -->
<g id="edge24" class="edge"><title>Node21&#45;&gt;Node4</title>
<path fill="none" stroke="midnightblue" d="M344.593,-403.516C368.377,-411.823 398.72,-422.128 426,-430.5 432.577,-432.518 439.456,-434.546 446.343,-436.522"/>
<polygon fill="midnightblue" stroke="midnightblue" points="445.829,-440.014 456.405,-439.372 447.737,-433.279 445.829,-440.014"/>
</g>
</g>
</svg>
