<?xml version="1.0" encoding="UTF-8" standalone="no"?>
<!DOCTYPE svg PUBLIC "-//W3C//DTD SVG 1.1//EN"
 "http://www.w3.org/Graphics/SVG/1.1/DTD/svg11.dtd">
<!-- Generated by graphviz version 2.38.0 (20140413.2041)
 -->
<!-- Title: AnimationPlugin::AnimationSystem::reset Pages: 1 -->
<svg width="1152pt" height="270pt"
 viewBox="0.00 0.00 1152.00 270.38" xmlns="http://www.w3.org/2000/svg" xmlns:xlink="http://www.w3.org/1999/xlink">
<g id="graph0" class="graph" transform="scale(1 1) rotate(0) translate(4 266.379)">
<title>AnimationPlugin::AnimationSystem::reset</title>
<polygon fill="white" stroke="none" points="-4,4 -4,-266.379 1148,-266.379 1148,4 -4,4"/>
<!-- Node1 -->
<g id="node1" class="node"><title>Node1</title>
<polygon fill="#bfbfbf" stroke="black" points="0,-35.8791 0,-65.8791 149,-65.8791 149,-35.8791 0,-35.8791"/>
<text text-anchor="start" x="8" y="-53.8791" font-family="Helvetica,sans-Serif" font-size="10.00">AnimationPlugin::Animation</text>
<text text-anchor="middle" x="74.5" y="-42.8791" font-family="Helvetica,sans-Serif" font-size="10.00">System::reset</text>
</g>
<!-- Node2 -->
<g id="node2" class="node"><title>Node2</title>
<g id="a_node2"><a xlink:href="classAnimationPlugin_1_1AnimationComponent.html#a8003df2b5f3137642ec4698502a32666" target="_top" xlink:title="Resets the animation, thus posing the skeleton into the reference pose. ">
<polygon fill="white" stroke="black" points="185,-35.8791 185,-65.8791 334,-65.8791 334,-35.8791 185,-35.8791"/>
<text text-anchor="start" x="193" y="-53.8791" font-family="Helvetica,sans-Serif" font-size="10.00">AnimationPlugin::Animation</text>
<text text-anchor="middle" x="259.5" y="-42.8791" font-family="Helvetica,sans-Serif" font-size="10.00">Component::reset</text>
</a>
</g>
</g>
<!-- Node1&#45;&gt;Node2 -->
<g id="edge1" class="edge"><title>Node1&#45;&gt;Node2</title>
<path fill="none" stroke="midnightblue" d="M149.142,-50.8791C157.474,-50.8791 166.011,-50.8791 174.463,-50.8791"/>
<polygon fill="midnightblue" stroke="midnightblue" points="174.711,-54.3792 184.711,-50.8791 174.711,-47.3792 174.711,-54.3792"/>
</g>
<!-- Node3 -->
<g id="node3" class="node"><title>Node3</title>
<g id="a_node3"><a xlink:href="classRa_1_1Core_1_1Animation_1_1Skeleton.html#a7aec08b57bfa9dbce1c5b47e96de81d9" target="_top" xlink:title="Set the current pose. ">
<polygon fill="white" stroke="black" points="370,-35.8791 370,-65.8791 482,-65.8791 482,-35.8791 370,-35.8791"/>
<text text-anchor="start" x="378" y="-53.8791" font-family="Helvetica,sans-Serif" font-size="10.00">Ra::Core::Animation</text>
<text text-anchor="middle" x="426" y="-42.8791" font-family="Helvetica,sans-Serif" font-size="10.00">::Skeleton::setPose</text>
</a>
</g>
</g>
<!-- Node2&#45;&gt;Node3 -->
<g id="edge2" class="edge"><title>Node2&#45;&gt;Node3</title>
<path fill="none" stroke="midnightblue" d="M334.089,-50.8791C342.604,-50.8791 351.243,-50.8791 359.638,-50.8791"/>
<polygon fill="midnightblue" stroke="midnightblue" points="359.731,-54.3792 369.73,-50.8791 359.73,-47.3792 359.731,-54.3792"/>
</g>
<!-- Node4 -->
<g id="node4" class="node"><title>Node4</title>
<g id="a_node4"><a xlink:href="classRa_1_1Core_1_1Animation_1_1Skeleton.html#a5679e1beb544b515c4539ce48a2f2ba3" target="_top" xlink:title="Ra::Core::Animation\l::Skeleton::size">
<polygon fill="white" stroke="black" points="518,-108.879 518,-138.879 630,-138.879 630,-108.879 518,-108.879"/>
<text text-anchor="start" x="526" y="-126.879" font-family="Helvetica,sans-Serif" font-size="10.00">Ra::Core::Animation</text>
<text text-anchor="middle" x="574" y="-115.879" font-family="Helvetica,sans-Serif" font-size="10.00">::Skeleton::size</text>
</a>
</g>
</g>
<!-- Node3&#45;&gt;Node4 -->
<g id="edge3" class="edge"><title>Node3&#45;&gt;Node4</title>
<path fill="none" stroke="midnightblue" d="M457.251,-66.0047C479.372,-77.0651 509.579,-92.1686 533.588,-104.173"/>
<polygon fill="midnightblue" stroke="midnightblue" points="532.278,-107.431 542.787,-108.773 535.408,-101.17 532.278,-107.431"/>
</g>
<!-- Node8 -->
<g id="node8" class="node"><title>Node8</title>
<g id="a_node8"><a xlink:href="classRa_1_1Core_1_1Graph_1_1AdjacencyList.html#a8671f51516bd82a2ea4246bc0c1e34f1" target="_top" xlink:title="Ra::Core::Graph::Adjacency\lList::isRoot">
<polygon fill="white" stroke="black" points="814,-35.8791 814,-65.8791 961,-65.8791 961,-35.8791 814,-35.8791"/>
<text text-anchor="start" x="822" y="-53.8791" font-family="Helvetica,sans-Serif" font-size="10.00">Ra::Core::Graph::Adjacency</text>
<text text-anchor="middle" x="887.5" y="-42.8791" font-family="Helvetica,sans-Serif" font-size="10.00">List::isRoot</text>
</a>
</g>
</g>
<!-- Node3&#45;&gt;Node8 -->
<g id="edge17" class="edge"><title>Node3&#45;&gt;Node8</title>
<path fill="none" stroke="midnightblue" d="M482.426,-50.8791C562.377,-50.8791 710.65,-50.8791 803.638,-50.8791"/>
<polygon fill="midnightblue" stroke="midnightblue" points="803.856,-54.3792 813.856,-50.8791 803.856,-47.3792 803.856,-54.3792"/>
</g>
<!-- Node9 -->
<g id="node9" class="node"><title>Node9</title>
<g id="a_node9"><a xlink:href="classRa_1_1Core_1_1Graph_1_1AdjacencyList.html#a63e089f5da2ddc2da39dfd5bd6adb410" target="_top" xlink:title="SIZE. ">
<polygon fill="white" stroke="black" points="997,-84.8791 997,-114.879 1144,-114.879 1144,-84.8791 997,-84.8791"/>
<text text-anchor="start" x="1005" y="-102.879" font-family="Helvetica,sans-Serif" font-size="10.00">Ra::Core::Graph::Adjacency</text>
<text text-anchor="middle" x="1070.5" y="-91.8791" font-family="Helvetica,sans-Serif" font-size="10.00">List::size</text>
</a>
</g>
</g>
<!-- Node3&#45;&gt;Node9 -->
<g id="edge16" class="edge"><title>Node3&#45;&gt;Node9</title>
<path fill="none" stroke="midnightblue" d="M482.359,-36.1977C581.086,-12.6381 792.943,25.9746 961,-25.8791 993.89,-36.0273 1025.72,-59.9393 1046.3,-77.8535"/>
<polygon fill="midnightblue" stroke="midnightblue" points="1044.09,-80.5716 1053.88,-84.6241 1048.76,-75.3515 1044.09,-80.5716"/>
</g>
<!-- Node5 -->
<g id="node5" class="node"><title>Node5</title>
<g id="a_node5"><a xlink:href="namespaceRa_1_1Core_1_1Animation.html#a93d6305ed74ab59961969dce601714c2" target="_top" xlink:title="Ra::Core::Animation\l::operator\&lt;\&lt;">
<polygon fill="white" stroke="black" points="666,-108.879 666,-138.879 778,-138.879 778,-108.879 666,-108.879"/>
<text text-anchor="start" x="674" y="-126.879" font-family="Helvetica,sans-Serif" font-size="10.00">Ra::Core::Animation</text>
<text text-anchor="middle" x="722" y="-115.879" font-family="Helvetica,sans-Serif" font-size="10.00">::operator&lt;&lt;</text>
</a>
</g>
</g>
<!-- Node4&#45;&gt;Node5 -->
<g id="edge4" class="edge"><title>Node4&#45;&gt;Node5</title>
<path fill="none" stroke="midnightblue" d="M630.196,-117.311C638.463,-117.139 647.055,-117.089 655.51,-117.161"/>
<polygon fill="midnightblue" stroke="midnightblue" points="655.676,-120.664 665.726,-117.309 655.777,-113.664 655.676,-120.664"/>
</g>
<!-- Node5&#45;&gt;Node4 -->
<g id="edge5" class="edge"><title>Node5&#45;&gt;Node4</title>
<path fill="none" stroke="midnightblue" d="M665.726,-130.449C657.457,-130.62 648.865,-130.669 640.41,-130.597"/>
<polygon fill="midnightblue" stroke="midnightblue" points="640.246,-127.094 630.196,-130.447 640.144,-134.093 640.246,-127.094"/>
</g>
<!-- Node6 -->
<g id="node6" class="node"><title>Node6</title>
<g id="a_node6"><a xlink:href="classRa_1_1Core_1_1Animation_1_1Handle.html#af2c003e7a85469470d5591b019e8ab80" target="_top" xlink:title="Ra::Core::Animation\l::Handle::getLabel">
<polygon fill="white" stroke="black" points="831.5,-231.879 831.5,-261.879 943.5,-261.879 943.5,-231.879 831.5,-231.879"/>
<text text-anchor="start" x="839.5" y="-249.879" font-family="Helvetica,sans-Serif" font-size="10.00">Ra::Core::Animation</text>
<text text-anchor="middle" x="887.5" y="-238.879" font-family="Helvetica,sans-Serif" font-size="10.00">::Handle::getLabel</text>
</a>
</g>
</g>
<!-- Node5&#45;&gt;Node6 -->
<g id="edge6" class="edge"><title>Node5&#45;&gt;Node6</title>
<path fill="none" stroke="midnightblue" d="M733.219,-139.206C748.394,-160.836 778.899,-200.203 814,-222.879 816.589,-224.552 819.306,-226.119 822.106,-227.585"/>
<polygon fill="midnightblue" stroke="midnightblue" points="820.742,-230.812 831.277,-231.933 823.741,-224.487 820.742,-230.812"/>
</g>
<!-- Node5&#45;&gt;Node8 -->
<g id="edge8" class="edge"><title>Node5&#45;&gt;Node8</title>
<path fill="none" stroke="midnightblue" d="M748.296,-108.714C766.235,-98.3457 791.094,-84.7479 814,-74.8791 818.338,-73.0101 822.872,-71.1966 827.465,-69.4592"/>
<polygon fill="midnightblue" stroke="midnightblue" points="828.734,-72.722 836.929,-66.0066 826.335,-66.146 828.734,-72.722"/>
</g>
<!-- Node10 -->
<g id="node10" class="node"><title>Node10</title>
<g id="a_node10"><a xlink:href="classRa_1_1Core_1_1Graph_1_1AdjacencyList.html#a5ef43669e94471df3df312cb9b49d00b" target="_top" xlink:title="Ra::Core::Graph::Adjacency\lList::isJoint">
<polygon fill="white" stroke="black" points="814,-182.879 814,-212.879 961,-212.879 961,-182.879 814,-182.879"/>
<text text-anchor="start" x="822" y="-200.879" font-family="Helvetica,sans-Serif" font-size="10.00">Ra::Core::Graph::Adjacency</text>
<text text-anchor="middle" x="887.5" y="-189.879" font-family="Helvetica,sans-Serif" font-size="10.00">List::isJoint</text>
</a>
</g>
</g>
<!-- Node5&#45;&gt;Node10 -->
<g id="edge10" class="edge"><title>Node5&#45;&gt;Node10</title>
<path fill="none" stroke="midnightblue" d="M747.487,-138.935C765.461,-149.587 790.7,-163.723 814,-173.879 818.33,-175.766 822.859,-177.593 827.447,-179.34"/>
<polygon fill="midnightblue" stroke="midnightblue" points="826.311,-182.651 836.905,-182.806 828.72,-176.079 826.311,-182.651"/>
</g>
<!-- Node11 -->
<g id="node11" class="node"><title>Node11</title>
<g id="a_node11"><a xlink:href="classRa_1_1Core_1_1Graph_1_1AdjacencyList.html#a2812c8dd044a6595416cb05baf928777" target="_top" xlink:title="Ra::Core::Graph::Adjacency\lList::isBranch">
<polygon fill="white" stroke="black" points="814,-133.879 814,-163.879 961,-163.879 961,-133.879 814,-133.879"/>
<text text-anchor="start" x="822" y="-151.879" font-family="Helvetica,sans-Serif" font-size="10.00">Ra::Core::Graph::Adjacency</text>
<text text-anchor="middle" x="887.5" y="-140.879" font-family="Helvetica,sans-Serif" font-size="10.00">List::isBranch</text>
</a>
</g>
</g>
<!-- Node5&#45;&gt;Node11 -->
<g id="edge12" class="edge"><title>Node5&#45;&gt;Node11</title>
<path fill="none" stroke="midnightblue" d="M778.354,-132.343C786.544,-133.595 795.13,-134.908 803.731,-136.223"/>
<polygon fill="midnightblue" stroke="midnightblue" points="803.398,-139.713 813.812,-137.765 804.456,-132.793 803.398,-139.713"/>
</g>
<!-- Node12 -->
<g id="node12" class="node"><title>Node12</title>
<g id="a_node12"><a xlink:href="classRa_1_1Core_1_1Graph_1_1AdjacencyList.html#a209e8c037a722c617b3feebdbb85c044" target="_top" xlink:title="Ra::Core::Graph::Adjacency\lList::isLeaf">
<polygon fill="white" stroke="black" points="814,-84.8791 814,-114.879 961,-114.879 961,-84.8791 814,-84.8791"/>
<text text-anchor="start" x="822" y="-102.879" font-family="Helvetica,sans-Serif" font-size="10.00">Ra::Core::Graph::Adjacency</text>
<text text-anchor="middle" x="887.5" y="-91.8791" font-family="Helvetica,sans-Serif" font-size="10.00">List::isLeaf</text>
</a>
</g>
</g>
<!-- Node5&#45;&gt;Node12 -->
<g id="edge14" class="edge"><title>Node5&#45;&gt;Node12</title>
<path fill="none" stroke="midnightblue" d="M778.354,-115.754C786.544,-114.552 795.13,-113.291 803.731,-112.029"/>
<polygon fill="midnightblue" stroke="midnightblue" points="804.426,-115.464 813.812,-110.549 803.41,-108.538 804.426,-115.464"/>
</g>
<!-- Node7 -->
<g id="node7" class="node"><title>Node7</title>
<g id="a_node7"><a xlink:href="classRa_1_1Core_1_1Animation_1_1Handle.html#aba876355658e5f8953033d3bb8f18533" target="_top" xlink:title="Ra::Core::Animation\l::Handle::size">
<polygon fill="white" stroke="black" points="1014.5,-231.879 1014.5,-261.879 1126.5,-261.879 1126.5,-231.879 1014.5,-231.879"/>
<text text-anchor="start" x="1022.5" y="-249.879" font-family="Helvetica,sans-Serif" font-size="10.00">Ra::Core::Animation</text>
<text text-anchor="middle" x="1070.5" y="-238.879" font-family="Helvetica,sans-Serif" font-size="10.00">::Handle::size</text>
</a>
</g>
</g>
<!-- Node6&#45;&gt;Node7 -->
<g id="edge7" class="edge"><title>Node6&#45;&gt;Node7</title>
<path fill="none" stroke="midnightblue" d="M943.789,-246.879C962.824,-246.879 984.319,-246.879 1004.08,-246.879"/>
<polygon fill="midnightblue" stroke="midnightblue" points="1004.24,-250.379 1014.24,-246.879 1004.24,-243.379 1004.24,-250.379"/>
</g>
<!-- Node8&#45;&gt;Node9 -->
<g id="edge9" class="edge"><title>Node8&#45;&gt;Node9</title>
<path fill="none" stroke="midnightblue" d="M944.283,-65.9805C963.21,-71.1044 984.525,-76.8747 1004.13,-82.1823"/>
<polygon fill="midnightblue" stroke="midnightblue" points="1003.33,-85.5927 1013.9,-84.8275 1005.16,-78.8359 1003.33,-85.5927"/>
</g>
<!-- Node10&#45;&gt;Node9 -->
<g id="edge11" class="edge"><title>Node10&#45;&gt;Node9</title>
<path fill="none" stroke="midnightblue" d="M939.923,-182.847C947.131,-180.169 954.344,-177.169 961,-173.879 990.641,-159.226 1021.52,-137.427 1042.72,-121.281"/>
<polygon fill="midnightblue" stroke="midnightblue" points="1045.13,-123.845 1050.9,-114.963 1040.85,-118.304 1045.13,-123.845"/>
</g>
<!-- Node11&#45;&gt;Node9 -->
<g id="edge13" class="edge"><title>Node11&#45;&gt;Node9</title>
<path fill="none" stroke="midnightblue" d="M944.283,-133.778C963.21,-128.654 984.525,-122.883 1004.13,-117.576"/>
<polygon fill="midnightblue" stroke="midnightblue" points="1005.16,-120.922 1013.9,-114.931 1003.33,-114.165 1005.16,-120.922"/>
</g>
<!-- Node12&#45;&gt;Node9 -->
<g id="edge15" class="edge"><title>Node12&#45;&gt;Node9</title>
<path fill="none" stroke="midnightblue" d="M961.077,-99.8791C969.559,-99.8791 978.261,-99.8791 986.867,-99.8791"/>
<polygon fill="midnightblue" stroke="midnightblue" points="986.907,-103.379 996.907,-99.8791 986.907,-96.3792 986.907,-103.379"/>
</g>
</g>
</svg>
