<?xml version="1.0" encoding="UTF-8" standalone="no"?>
<!DOCTYPE svg PUBLIC "-//W3C//DTD SVG 1.1//EN"
 "http://www.w3.org/Graphics/SVG/1.1/DTD/svg11.dtd">
<!-- Generated by graphviz version 2.38.0 (20140413.2041)
 -->
<!-- Title: Ra::Core::Curve2D Pages: 1 -->
<svg width="513pt" height="248pt"
 viewBox="0.00 0.00 512.50 248.00" xmlns="http://www.w3.org/2000/svg" xmlns:xlink="http://www.w3.org/1999/xlink">
<g id="graph0" class="graph" transform="scale(1 1) rotate(0) translate(4 244)">
<title>Ra::Core::Curve2D</title>
<polygon fill="white" stroke="none" points="-4,4 -4,-244 508.5,-244 508.5,4 -4,4"/>
<!-- Node1 -->
<g id="node1" class="node"><title>Node1</title>
<polygon fill="#bfbfbf" stroke="black" points="188.5,-149.5 188.5,-239.5 292.5,-239.5 292.5,-149.5 188.5,-149.5"/>
<text text-anchor="middle" x="240.5" y="-227.5" font-family="Helvetica,sans-Serif" font-size="10.00">Ra::Core::Curve2D</text>
<polyline fill="none" stroke="black" points="188.5,-220.5 292.5,-220.5 "/>
<text text-anchor="start" x="196.5" y="-208.5" font-family="Helvetica,sans-Serif" font-size="10.00"># size</text>
<polyline fill="none" stroke="black" points="188.5,-201.5 292.5,-201.5 "/>
<text text-anchor="start" x="196.5" y="-189.5" font-family="Helvetica,sans-Serif" font-size="10.00">+ addPoint()</text>
<text text-anchor="start" x="196.5" y="-178.5" font-family="Helvetica,sans-Serif" font-size="10.00">+ f()</text>
<text text-anchor="start" x="196.5" y="-167.5" font-family="Helvetica,sans-Serif" font-size="10.00">+ df()</text>
<text text-anchor="start" x="196.5" y="-156.5" font-family="Helvetica,sans-Serif" font-size="10.00">+ fdf()</text>
</g>
<!-- Node2 -->
<g id="node2" class="node"><title>Node2</title>
<g id="a_node2"><a xlink:href="classRa_1_1Core_1_1CubicBezier.html" target="_top" xlink:title="{Ra::Core::CubicBezier\n||+ CubicBezier()\l+ CubicBezier()\l+ addPoint()\l+ f()\l+ df()\l+ fdf()\l}">
<polygon fill="white" stroke="black" points="0,-0.5 0,-112.5 119,-112.5 119,-0.5 0,-0.5"/>
<text text-anchor="middle" x="59.5" y="-100.5" font-family="Helvetica,sans-Serif" font-size="10.00">Ra::Core::CubicBezier</text>
<polyline fill="none" stroke="black" points="0,-93.5 119,-93.5 "/>
<text text-anchor="middle" x="59.5" y="-81.5" font-family="Helvetica,sans-Serif" font-size="10.00"> </text>
<polyline fill="none" stroke="black" points="0,-74.5 119,-74.5 "/>
<text text-anchor="start" x="8" y="-62.5" font-family="Helvetica,sans-Serif" font-size="10.00">+ CubicBezier()</text>
<text text-anchor="start" x="8" y="-51.5" font-family="Helvetica,sans-Serif" font-size="10.00">+ CubicBezier()</text>
<text text-anchor="start" x="8" y="-40.5" font-family="Helvetica,sans-Serif" font-size="10.00">+ addPoint()</text>
<text text-anchor="start" x="8" y="-29.5" font-family="Helvetica,sans-Serif" font-size="10.00">+ f()</text>
<text text-anchor="start" x="8" y="-18.5" font-family="Helvetica,sans-Serif" font-size="10.00">+ df()</text>
<text text-anchor="start" x="8" y="-7.5" font-family="Helvetica,sans-Serif" font-size="10.00">+ fdf()</text>
</a>
</g>
</g>
<!-- Node1&#45;&gt;Node2 -->
<g id="edge1" class="edge"><title>Node1&#45;&gt;Node2</title>
<path fill="none" stroke="midnightblue" d="M179.949,-151.466C162.825,-139.282 144.286,-125.807 127.5,-113 124.714,-110.874 121.879,-108.682 119.027,-106.453"/>
<polygon fill="none" stroke="midnightblue" points="178.045,-154.406 188.227,-157.334 182.093,-148.696 178.045,-154.406"/>
</g>
<!-- Node3 -->
<g id="node3" class="node"><title>Node3</title>
<g id="a_node3"><a xlink:href="classRa_1_1Core_1_1Line.html" target="_top" xlink:title="{Ra::Core::Line\n||+ Line()\l+ Line()\l+ addPoint()\l+ f()\l+ df()\l+ fdf()\l}">
<polygon fill="white" stroke="black" points="137,-0.5 137,-112.5 220,-112.5 220,-0.5 137,-0.5"/>
<text text-anchor="middle" x="178.5" y="-100.5" font-family="Helvetica,sans-Serif" font-size="10.00">Ra::Core::Line</text>
<polyline fill="none" stroke="black" points="137,-93.5 220,-93.5 "/>
<text text-anchor="middle" x="178.5" y="-81.5" font-family="Helvetica,sans-Serif" font-size="10.00"> </text>
<polyline fill="none" stroke="black" points="137,-74.5 220,-74.5 "/>
<text text-anchor="start" x="145" y="-62.5" font-family="Helvetica,sans-Serif" font-size="10.00">+ Line()</text>
<text text-anchor="start" x="145" y="-51.5" font-family="Helvetica,sans-Serif" font-size="10.00">+ Line()</text>
<text text-anchor="start" x="145" y="-40.5" font-family="Helvetica,sans-Serif" font-size="10.00">+ addPoint()</text>
<text text-anchor="start" x="145" y="-29.5" font-family="Helvetica,sans-Serif" font-size="10.00">+ f()</text>
<text text-anchor="start" x="145" y="-18.5" font-family="Helvetica,sans-Serif" font-size="10.00">+ df()</text>
<text text-anchor="start" x="145" y="-7.5" font-family="Helvetica,sans-Serif" font-size="10.00">+ fdf()</text>
</a>
</g>
</g>
<!-- Node1&#45;&gt;Node3 -->
<g id="edge2" class="edge"><title>Node1&#45;&gt;Node3</title>
<path fill="none" stroke="midnightblue" d="M216.184,-140.162C212.098,-131.199 207.849,-121.88 203.741,-112.867"/>
<polygon fill="none" stroke="midnightblue" points="213.038,-141.697 220.37,-149.345 219.407,-138.794 213.038,-141.697"/>
</g>
<!-- Node4 -->
<g id="node4" class="node"><title>Node4</title>
<g id="a_node4"><a xlink:href="classRa_1_1Core_1_1QuadraSpline.html" target="_top" xlink:title="{Ra::Core::QuadraSpline\n||+ QuadraSpline()\l+ QuadraSpline()\l+ addPoint()\l+ f()\l+ df()\l+ fdf()\l}">
<polygon fill="white" stroke="black" points="238.5,-0.5 238.5,-112.5 366.5,-112.5 366.5,-0.5 238.5,-0.5"/>
<text text-anchor="middle" x="302.5" y="-100.5" font-family="Helvetica,sans-Serif" font-size="10.00">Ra::Core::QuadraSpline</text>
<polyline fill="none" stroke="black" points="238.5,-93.5 366.5,-93.5 "/>
<text text-anchor="middle" x="302.5" y="-81.5" font-family="Helvetica,sans-Serif" font-size="10.00"> </text>
<polyline fill="none" stroke="black" points="238.5,-74.5 366.5,-74.5 "/>
<text text-anchor="start" x="246.5" y="-62.5" font-family="Helvetica,sans-Serif" font-size="10.00">+ QuadraSpline()</text>
<text text-anchor="start" x="246.5" y="-51.5" font-family="Helvetica,sans-Serif" font-size="10.00">+ QuadraSpline()</text>
<text text-anchor="start" x="246.5" y="-40.5" font-family="Helvetica,sans-Serif" font-size="10.00">+ addPoint()</text>
<text text-anchor="start" x="246.5" y="-29.5" font-family="Helvetica,sans-Serif" font-size="10.00">+ f()</text>
<text text-anchor="start" x="246.5" y="-18.5" font-family="Helvetica,sans-Serif" font-size="10.00">+ df()</text>
<text text-anchor="start" x="246.5" y="-7.5" font-family="Helvetica,sans-Serif" font-size="10.00">+ fdf()</text>
</a>
</g>
</g>
<!-- Node1&#45;&gt;Node4 -->
<g id="edge3" class="edge"><title>Node1&#45;&gt;Node4</title>
<path fill="none" stroke="midnightblue" d="M264.816,-140.162C268.902,-131.199 273.151,-121.88 277.259,-112.867"/>
<polygon fill="none" stroke="midnightblue" points="261.593,-138.794 260.63,-149.345 267.962,-141.697 261.593,-138.794"/>
</g>
<!-- Node5 -->
<g id="node5" class="node"><title>Node5</title>
<g id="a_node5"><a xlink:href="classRa_1_1Core_1_1SplineCurve.html" target="_top" xlink:title="{Ra::Core::SplineCurve\n||+ SplineCurve()\l+ SplineCurve()\l+ addPoint()\l+ f()\l+ df()\l+ fdf()\l}">
<polygon fill="white" stroke="black" points="384.5,-0.5 384.5,-112.5 504.5,-112.5 504.5,-0.5 384.5,-0.5"/>
<text text-anchor="middle" x="444.5" y="-100.5" font-family="Helvetica,sans-Serif" font-size="10.00">Ra::Core::SplineCurve</text>
<polyline fill="none" stroke="black" points="384.5,-93.5 504.5,-93.5 "/>
<text text-anchor="middle" x="444.5" y="-81.5" font-family="Helvetica,sans-Serif" font-size="10.00"> </text>
<polyline fill="none" stroke="black" points="384.5,-74.5 504.5,-74.5 "/>
<text text-anchor="start" x="392.5" y="-62.5" font-family="Helvetica,sans-Serif" font-size="10.00">+ SplineCurve()</text>
<text text-anchor="start" x="392.5" y="-51.5" font-family="Helvetica,sans-Serif" font-size="10.00">+ SplineCurve()</text>
<text text-anchor="start" x="392.5" y="-40.5" font-family="Helvetica,sans-Serif" font-size="10.00">+ addPoint()</text>
<text text-anchor="start" x="392.5" y="-29.5" font-family="Helvetica,sans-Serif" font-size="10.00">+ f()</text>
<text text-anchor="start" x="392.5" y="-18.5" font-family="Helvetica,sans-Serif" font-size="10.00">+ df()</text>
<text text-anchor="start" x="392.5" y="-7.5" font-family="Helvetica,sans-Serif" font-size="10.00">+ fdf()</text>
</a>
</g>
</g>
<!-- Node1&#45;&gt;Node5 -->
<g id="edge4" class="edge"><title>Node1&#45;&gt;Node5</title>
<path fill="none" stroke="midnightblue" d="M301.392,-159.62C324.998,-145.861 351.958,-129.368 375.5,-113 378.403,-110.982 381.342,-108.878 384.286,-106.72"/>
<polygon fill="none" stroke="midnightblue" points="299.425,-156.714 292.523,-164.753 302.931,-162.773 299.425,-156.714"/>
</g>
</g>
</svg>
