<?xml version="1.0" encoding="UTF-8" standalone="no"?>
<!DOCTYPE svg PUBLIC "-//W3C//DTD SVG 1.1//EN"
 "http://www.w3.org/Graphics/SVG/1.1/DTD/svg11.dtd">
<!-- Generated by graphviz version 2.38.0 (20140413.2041)
 -->
<!-- Title: Ra::Engine::Renderer::initialize Pages: 1 -->
<svg width="907pt" height="308pt"
 viewBox="0.00 0.00 907.00 308.00" xmlns="http://www.w3.org/2000/svg" xmlns:xlink="http://www.w3.org/1999/xlink">
<g id="graph0" class="graph" transform="scale(1 1) rotate(0) translate(4 304)">
<title>Ra::Engine::Renderer::initialize</title>
<polygon fill="white" stroke="none" points="-4,4 -4,-304 903,-304 903,4 -4,4"/>
<!-- Node1 -->
<g id="node1" class="node"><title>Node1</title>
<polygon fill="#bfbfbf" stroke="black" points="0,-122.5 0,-152.5 116,-152.5 116,-122.5 0,-122.5"/>
<text text-anchor="start" x="8" y="-140.5" font-family="Helvetica,sans-Serif" font-size="10.00">Ra::Engine::Renderer</text>
<text text-anchor="middle" x="58" y="-129.5" font-family="Helvetica,sans-Serif" font-size="10.00">::initialize</text>
</g>
<!-- Node2 -->
<g id="node2" class="node"><title>Node2</title>
<g id="a_node2"><a xlink:href="classRa_1_1Engine_1_1ShaderProgramManager.html#ace65fe1c6b109156e169cf23e01c51aa" target="_top" xlink:title="Add a shader program to the program collection according to the given configuration. ">
<polygon fill="white" stroke="black" points="158.5,-245.5 158.5,-275.5 316.5,-275.5 316.5,-245.5 158.5,-245.5"/>
<text text-anchor="start" x="166.5" y="-263.5" font-family="Helvetica,sans-Serif" font-size="10.00">Ra::Engine::ShaderProgram</text>
<text text-anchor="middle" x="237.5" y="-252.5" font-family="Helvetica,sans-Serif" font-size="10.00">Manager::addShaderProgram</text>
</a>
</g>
</g>
<!-- Node1&#45;&gt;Node2 -->
<g id="edge1" class="edge"><title>Node1&#45;&gt;Node2</title>
<path fill="none" stroke="midnightblue" d="M69.1355,-152.661C84.4925,-174.454 115.739,-214.433 152,-236.5 154.801,-238.205 157.727,-239.792 160.739,-241.27"/>
<polygon fill="midnightblue" stroke="midnightblue" points="159.426,-244.517 169.985,-245.384 162.271,-238.121 159.426,-244.517"/>
</g>
<!-- Node7 -->
<g id="node7" class="node"><title>Node7</title>
<g id="a_node7"><a xlink:href="classRa_1_1Engine_1_1ShaderConfiguration.html#a8ffa1714a9e63a320acaa7873fb99797" target="_top" xlink:title="Add a shader given its type. ">
<polygon fill="white" stroke="black" points="152,-196.5 152,-226.5 323,-226.5 323,-196.5 152,-196.5"/>
<text text-anchor="start" x="160" y="-214.5" font-family="Helvetica,sans-Serif" font-size="10.00">Ra::Engine::ShaderConfiguration</text>
<text text-anchor="middle" x="237.5" y="-203.5" font-family="Helvetica,sans-Serif" font-size="10.00">::addShader</text>
</a>
</g>
</g>
<!-- Node1&#45;&gt;Node7 -->
<g id="edge6" class="edge"><title>Node1&#45;&gt;Node7</title>
<path fill="none" stroke="midnightblue" d="M83.5494,-152.599C101.9,-163.409 127.875,-177.724 152,-187.5 157.035,-189.54 162.305,-191.478 167.648,-193.301"/>
<polygon fill="midnightblue" stroke="midnightblue" points="166.714,-196.678 177.306,-196.458 168.889,-190.025 166.714,-196.678"/>
</g>
<!-- Node8 -->
<g id="node8" class="node"><title>Node8</title>
<g id="a_node8"><a xlink:href="namespaceRa_1_1Engine_1_1ShaderConfigurationFactory.html#a36842535508a390108fb1205210a5c49" target="_top" xlink:title="Add a configuration to the factory. ">
<polygon fill="white" stroke="black" points="152,-147.5 152,-177.5 323,-177.5 323,-147.5 152,-147.5"/>
<text text-anchor="start" x="160" y="-165.5" font-family="Helvetica,sans-Serif" font-size="10.00">Ra::Engine::ShaderConfiguration</text>
<text text-anchor="middle" x="237.5" y="-154.5" font-family="Helvetica,sans-Serif" font-size="10.00">Factory::addConfiguration</text>
</a>
</g>
</g>
<!-- Node1&#45;&gt;Node8 -->
<g id="edge7" class="edge"><title>Node1&#45;&gt;Node8</title>
<path fill="none" stroke="midnightblue" d="M116.139,-145.548C124.297,-146.697 132.866,-147.904 141.513,-149.122"/>
<polygon fill="midnightblue" stroke="midnightblue" points="141.291,-152.625 151.682,-150.554 142.267,-145.693 141.291,-152.625"/>
</g>
<!-- Node9 -->
<g id="node9" class="node"><title>Node9</title>
<g id="a_node9"><a xlink:href="namespaceRa_1_1Core_1_1MeshUtils.html#ab41ce8f5deddee201a98bb97e8c5ada2" target="_top" xlink:title="Create a 2D quad mesh given half extents, centered on the origin with z axis as normal. ">
<polygon fill="white" stroke="black" points="178.5,-98.5 178.5,-128.5 296.5,-128.5 296.5,-98.5 178.5,-98.5"/>
<text text-anchor="start" x="186.5" y="-116.5" font-family="Helvetica,sans-Serif" font-size="10.00">Ra::Core::MeshUtils</text>
<text text-anchor="middle" x="237.5" y="-105.5" font-family="Helvetica,sans-Serif" font-size="10.00">::makeZNormalQuad</text>
</a>
</g>
</g>
<!-- Node1&#45;&gt;Node9 -->
<g id="edge8" class="edge"><title>Node1&#45;&gt;Node9</title>
<path fill="none" stroke="midnightblue" d="M116.139,-129.774C132.744,-127.529 151.047,-125.054 168.261,-122.727"/>
<polygon fill="midnightblue" stroke="midnightblue" points="168.808,-126.185 178.249,-121.376 167.87,-119.248 168.808,-126.185"/>
</g>
<!-- Node15 -->
<g id="node15" class="node"><title>Node15</title>
<g id="a_node15"><a xlink:href="classRa_1_1Engine_1_1Renderer.html#ab793c712188ab407165f2e8a5f80ceb0" target="_top" xlink:title="initializeInternal Initialize the renderer dependant resources. ">
<polygon fill="white" stroke="black" points="179.5,-49.5 179.5,-79.5 295.5,-79.5 295.5,-49.5 179.5,-49.5"/>
<text text-anchor="start" x="187.5" y="-67.5" font-family="Helvetica,sans-Serif" font-size="10.00">Ra::Engine::Renderer</text>
<text text-anchor="middle" x="237.5" y="-56.5" font-family="Helvetica,sans-Serif" font-size="10.00">::initializeInternal</text>
</a>
</g>
</g>
<!-- Node1&#45;&gt;Node15 -->
<g id="edge15" class="edge"><title>Node1&#45;&gt;Node15</title>
<path fill="none" stroke="midnightblue" d="M84.3698,-122.285C102.691,-111.761 128.281,-97.9966 152,-88.5 157.533,-86.2849 163.345,-84.1868 169.223,-82.2216"/>
<polygon fill="midnightblue" stroke="midnightblue" points="170.685,-85.4284 179.139,-79.0427 168.548,-78.7626 170.685,-85.4284"/>
</g>
<!-- Node16 -->
<g id="node16" class="node"><title>Node16</title>
<g id="a_node16"><a xlink:href="classRa_1_1Engine_1_1Renderer.html#a7343dbeb04c9699cc2abf2690c9941ee" target="_top" xlink:title="Resize the viewport and all the screen textures, fbos. ">
<polygon fill="white" stroke="black" points="179.5,-0.5 179.5,-30.5 295.5,-30.5 295.5,-0.5 179.5,-0.5"/>
<text text-anchor="start" x="187.5" y="-18.5" font-family="Helvetica,sans-Serif" font-size="10.00">Ra::Engine::Renderer</text>
<text text-anchor="middle" x="237.5" y="-7.5" font-family="Helvetica,sans-Serif" font-size="10.00">::resize</text>
</a>
</g>
</g>
<!-- Node1&#45;&gt;Node16 -->
<g id="edge16" class="edge"><title>Node1&#45;&gt;Node16</title>
<path fill="none" stroke="midnightblue" d="M69.1721,-122.496C84.5748,-100.927 115.878,-61.357 152,-39.5 157.48,-36.1841 163.436,-33.3102 169.565,-30.8226"/>
<polygon fill="midnightblue" stroke="midnightblue" points="171.13,-33.9756 179.295,-27.2234 168.701,-27.4104 171.13,-33.9756"/>
</g>
<!-- Node3 -->
<g id="node3" class="node"><title>Node3</title>
<g id="a_node3"><a xlink:href="namespaceRa_1_1Core_1_1StringUtils.html#a63b10a7c14473b4aa762cf00e0432690" target="_top" xlink:title="Writes a formatted print into the given string, similarly to sprintf. ">
<polygon fill="white" stroke="black" points="398,-269.5 398,-299.5 511,-299.5 511,-269.5 398,-269.5"/>
<text text-anchor="start" x="406" y="-287.5" font-family="Helvetica,sans-Serif" font-size="10.00">Ra::Core::StringUtils</text>
<text text-anchor="middle" x="454.5" y="-276.5" font-family="Helvetica,sans-Serif" font-size="10.00">::stringPrintf</text>
</a>
</g>
</g>
<!-- Node2&#45;&gt;Node3 -->
<g id="edge2" class="edge"><title>Node2&#45;&gt;Node3</title>
<path fill="none" stroke="midnightblue" d="M316.728,-269.232C340.051,-271.836 365.364,-274.662 387.799,-277.166"/>
<polygon fill="midnightblue" stroke="midnightblue" points="387.561,-280.661 397.888,-278.292 388.338,-273.704 387.561,-280.661"/>
</g>
<!-- Node5 -->
<g id="node5" class="node"><title>Node5</title>
<g id="a_node5"><a xlink:href="classRa_1_1Engine_1_1ShaderProgramManager.html#afec9eb5d3df9d0d0ee97fc9404fcf0e5" target="_top" xlink:title="Get the system default program. ">
<polygon fill="white" stroke="black" points="359,-220.5 359,-250.5 550,-250.5 550,-220.5 359,-220.5"/>
<text text-anchor="start" x="367" y="-238.5" font-family="Helvetica,sans-Serif" font-size="10.00">Ra::Engine::ShaderProgram</text>
<text text-anchor="middle" x="454.5" y="-227.5" font-family="Helvetica,sans-Serif" font-size="10.00">Manager::getDefaultShaderProgram</text>
</a>
</g>
</g>
<!-- Node2&#45;&gt;Node5 -->
<g id="edge4" class="edge"><title>Node2&#45;&gt;Node5</title>
<path fill="none" stroke="midnightblue" d="M316.728,-251.404C327.101,-250.198 337.867,-248.946 348.598,-247.698"/>
<polygon fill="midnightblue" stroke="midnightblue" points="349.334,-251.136 358.863,-246.504 348.526,-244.183 349.334,-251.136"/>
</g>
<!-- Node4 -->
<g id="node4" class="node"><title>Node4</title>
<g id="a_node4"><a xlink:href="namespaceRa_1_1Core_1_1StringUtils.html#ac348328b878bb8f1b1c1a3335ea20c4b" target="_top" xlink:title="Ra::Core::StringUtils\l::stringvPrintf">
<polygon fill="white" stroke="black" points="602.5,-269.5 602.5,-299.5 715.5,-299.5 715.5,-269.5 602.5,-269.5"/>
<text text-anchor="start" x="610.5" y="-287.5" font-family="Helvetica,sans-Serif" font-size="10.00">Ra::Core::StringUtils</text>
<text text-anchor="middle" x="659" y="-276.5" font-family="Helvetica,sans-Serif" font-size="10.00">::stringvPrintf</text>
</a>
</g>
</g>
<!-- Node3&#45;&gt;Node4 -->
<g id="edge3" class="edge"><title>Node3&#45;&gt;Node4</title>
<path fill="none" stroke="midnightblue" d="M511.102,-284.5C536.116,-284.5 565.832,-284.5 591.97,-284.5"/>
<polygon fill="midnightblue" stroke="midnightblue" points="592.171,-288 602.171,-284.5 592.171,-281 592.171,-288"/>
</g>
<!-- Node6 -->
<g id="node6" class="node"><title>Node6</title>
<g id="a_node6"><a xlink:href="namespaceRa_1_1Engine.html#a4d2c5e4a673763dfafc72cb74965b95f" target="_top" xlink:title="Ra::Engine::RA_SINGLETON\l_IMPLEMENTATION">
<polygon fill="white" stroke="black" points="586,-220.5 586,-250.5 732,-250.5 732,-220.5 586,-220.5"/>
<text text-anchor="start" x="594" y="-238.5" font-family="Helvetica,sans-Serif" font-size="10.00">Ra::Engine::RA_SINGLETON</text>
<text text-anchor="middle" x="659" y="-227.5" font-family="Helvetica,sans-Serif" font-size="10.00">_IMPLEMENTATION</text>
</a>
</g>
</g>
<!-- Node5&#45;&gt;Node6 -->
<g id="edge5" class="edge"><title>Node5&#45;&gt;Node6</title>
<path fill="none" stroke="midnightblue" d="M550.228,-235.5C558.717,-235.5 567.267,-235.5 575.639,-235.5"/>
<polygon fill="midnightblue" stroke="midnightblue" points="575.746,-239 585.746,-235.5 575.746,-232 575.746,-239"/>
</g>
<!-- Node10 -->
<g id="node10" class="node"><title>Node10</title>
<g id="a_node10"><a xlink:href="namespaceRa_1_1Core_1_1MeshUtils.html#abdf2c536d956c3939445079e4f6465d1" target="_top" xlink:title="Create a 2D grid mesh with given number of row and columns. ">
<polygon fill="white" stroke="black" points="399.5,-98.5 399.5,-128.5 509.5,-128.5 509.5,-98.5 399.5,-98.5"/>
<text text-anchor="start" x="407.5" y="-116.5" font-family="Helvetica,sans-Serif" font-size="10.00">Ra::Core::MeshUtils</text>
<text text-anchor="middle" x="454.5" y="-105.5" font-family="Helvetica,sans-Serif" font-size="10.00">::makePlaneGrid</text>
</a>
</g>
</g>
<!-- Node9&#45;&gt;Node10 -->
<g id="edge9" class="edge"><title>Node9&#45;&gt;Node10</title>
<path fill="none" stroke="midnightblue" d="M296.682,-113.5C325.272,-113.5 359.804,-113.5 389.178,-113.5"/>
<polygon fill="midnightblue" stroke="midnightblue" points="389.334,-117 399.334,-113.5 389.334,-110 389.334,-117"/>
</g>
<!-- Node11 -->
<g id="node11" class="node"><title>Node11</title>
<g id="a_node11"><a xlink:href="classRa_1_1Core_1_1TriangleMesh.html#a495116f40cfec8bb6504698d786d4b8c" target="_top" xlink:title="Access the vertices positions. ">
<polygon fill="white" stroke="black" points="596.5,-147.5 596.5,-177.5 721.5,-177.5 721.5,-147.5 596.5,-147.5"/>
<text text-anchor="start" x="604.5" y="-165.5" font-family="Helvetica,sans-Serif" font-size="10.00">Ra::Core::TriangleMesh</text>
<text text-anchor="middle" x="659" y="-154.5" font-family="Helvetica,sans-Serif" font-size="10.00">::vertices</text>
</a>
</g>
</g>
<!-- Node10&#45;&gt;Node11 -->
<g id="edge10" class="edge"><title>Node10&#45;&gt;Node11</title>
<path fill="none" stroke="midnightblue" d="M509.5,-126.567C533.083,-132.273 561.074,-139.046 586.363,-145.166"/>
<polygon fill="midnightblue" stroke="midnightblue" points="585.732,-148.614 596.274,-147.564 587.378,-141.81 585.732,-148.614"/>
</g>
<!-- Node13 -->
<g id="node13" class="node"><title>Node13</title>
<g id="a_node13"><a xlink:href="classRa_1_1Core_1_1TriangleMesh.html#a40d31b7b2943947d6eac5d906f0182fd" target="_top" xlink:title="Access the vertices normals. ">
<polygon fill="white" stroke="black" points="596.5,-98.5 596.5,-128.5 721.5,-128.5 721.5,-98.5 596.5,-98.5"/>
<text text-anchor="start" x="604.5" y="-116.5" font-family="Helvetica,sans-Serif" font-size="10.00">Ra::Core::TriangleMesh</text>
<text text-anchor="middle" x="659" y="-105.5" font-family="Helvetica,sans-Serif" font-size="10.00">::normals</text>
</a>
</g>
</g>
<!-- Node10&#45;&gt;Node13 -->
<g id="edge12" class="edge"><title>Node10&#45;&gt;Node13</title>
<path fill="none" stroke="midnightblue" d="M509.5,-113.5C532.979,-113.5 560.827,-113.5 586.027,-113.5"/>
<polygon fill="midnightblue" stroke="midnightblue" points="586.274,-117 596.274,-113.5 586.274,-110 586.274,-117"/>
</g>
<!-- Node14 -->
<g id="node14" class="node"><title>Node14</title>
<g id="a_node14"><a xlink:href="classRa_1_1Core_1_1Grid.html#ae9c02e6ec89130899fd0645dbfa4ece7" target="_top" xlink:title="Access an element with a D&#45;dimensional index. ">
<polygon fill="white" stroke="black" points="610,-60 610,-79 708,-79 708,-60 610,-60"/>
<text text-anchor="middle" x="659" y="-67" font-family="Helvetica,sans-Serif" font-size="10.00">Ra::Core::Grid::at</text>
</a>
</g>
</g>
<!-- Node10&#45;&gt;Node14 -->
<g id="edge14" class="edge"><title>Node10&#45;&gt;Node14</title>
<path fill="none" stroke="midnightblue" d="M509.5,-101.767C538.741,-95.413 574.76,-87.5868 604.001,-81.2332"/>
<polygon fill="midnightblue" stroke="midnightblue" points="605.01,-84.5957 614.039,-79.0521 603.523,-77.7553 605.01,-84.5957"/>
</g>
<!-- Node12 -->
<g id="node12" class="node"><title>Node12</title>
<g id="a_node12"><a xlink:href="classRa_1_1Core_1_1AttribManager.html#aaa6088620425c1e1d74b50f1b50eb596" target="_top" xlink:title="Get attribute by handle. ">
<polygon fill="white" stroke="black" points="768,-122.5 768,-152.5 899,-152.5 899,-122.5 768,-122.5"/>
<text text-anchor="start" x="776" y="-140.5" font-family="Helvetica,sans-Serif" font-size="10.00">Ra::Core::AttribManager</text>
<text text-anchor="middle" x="833.5" y="-129.5" font-family="Helvetica,sans-Serif" font-size="10.00">::getAttrib</text>
</a>
</g>
</g>
<!-- Node11&#45;&gt;Node12 -->
<g id="edge11" class="edge"><title>Node11&#45;&gt;Node12</title>
<path fill="none" stroke="midnightblue" d="M721.789,-153.545C733.496,-151.848 745.858,-150.057 757.91,-148.31"/>
<polygon fill="midnightblue" stroke="midnightblue" points="758.546,-151.755 767.941,-146.856 757.542,-144.827 758.546,-151.755"/>
</g>
<!-- Node13&#45;&gt;Node12 -->
<g id="edge13" class="edge"><title>Node13&#45;&gt;Node12</title>
<path fill="none" stroke="midnightblue" d="M721.789,-122.097C733.496,-123.726 745.858,-125.445 757.91,-127.122"/>
<polygon fill="midnightblue" stroke="midnightblue" points="757.554,-130.606 767.941,-128.518 758.518,-123.673 757.554,-130.606"/>
</g>
<!-- Node17 -->
<g id="node17" class="node"><title>Node17</title>
<g id="a_node17"><a xlink:href="classRa_1_1Engine_1_1Renderer.html#a18a293f1c7c6864e4f1de7f6b88b0f4a" target="_top" xlink:title="resize the renderer dependent resources ">
<polygon fill="white" stroke="black" points="396.5,-0.5 396.5,-30.5 512.5,-30.5 512.5,-0.5 396.5,-0.5"/>
<text text-anchor="start" x="404.5" y="-18.5" font-family="Helvetica,sans-Serif" font-size="10.00">Ra::Engine::Renderer</text>
<text text-anchor="middle" x="454.5" y="-7.5" font-family="Helvetica,sans-Serif" font-size="10.00">::resizeInternal</text>
</a>
</g>
</g>
<!-- Node16&#45;&gt;Node17 -->
<g id="edge17" class="edge"><title>Node16&#45;&gt;Node17</title>
<path fill="none" stroke="midnightblue" d="M295.552,-15.5C323.372,-15.5 357.023,-15.5 386.103,-15.5"/>
<polygon fill="midnightblue" stroke="midnightblue" points="386.182,-19.0001 396.182,-15.5 386.182,-12.0001 386.182,-19.0001"/>
</g>
</g>
</svg>
