<?xml version="1.0" encoding="UTF-8" standalone="no"?>
<!DOCTYPE svg PUBLIC "-//W3C//DTD SVG 1.1//EN"
 "http://www.w3.org/Graphics/SVG/1.1/DTD/svg11.dtd">
<!-- Generated by graphviz version 2.38.0 (20140413.2041)
 -->
<!-- Title: Ra::Engine::GeometryComponent::handleMeshLoading Pages: 1 -->
<svg width="982pt" height="1578pt"
 viewBox="0.00 0.00 982.00 1578.11" xmlns="http://www.w3.org/2000/svg" xmlns:xlink="http://www.w3.org/1999/xlink">
<g id="graph0" class="graph" transform="scale(1 1) rotate(0) translate(4 1574.11)">
<title>Ra::Engine::GeometryComponent::handleMeshLoading</title>
<polygon fill="white" stroke="none" points="-4,4 -4,-1574.11 978,-1574.11 978,4 -4,4"/>
<!-- Node1 -->
<g id="node1" class="node"><title>Node1</title>
<polygon fill="#bfbfbf" stroke="black" points="0,-926.606 0,-956.606 177,-956.606 177,-926.606 0,-926.606"/>
<text text-anchor="start" x="8" y="-944.606" font-family="Helvetica,sans-Serif" font-size="10.00">Ra::Engine::GeometryComponent</text>
<text text-anchor="middle" x="88.5" y="-933.606" font-family="Helvetica,sans-Serif" font-size="10.00">::handleMeshLoading</text>
</g>
<!-- Node2 -->
<g id="node2" class="node"><title>Node2</title>
<g id="a_node2"><a xlink:href="classRa_1_1Asset_1_1AssetData.html#a8b107d2673623febe173f37f14ff777d" target="_top" xlink:title="Acces to the name of the asset. ">
<polygon fill="white" stroke="black" points="242.5,-1539.61 242.5,-1569.61 360.5,-1569.61 360.5,-1539.61 242.5,-1539.61"/>
<text text-anchor="start" x="250.5" y="-1557.61" font-family="Helvetica,sans-Serif" font-size="10.00">Ra::Asset::AssetData</text>
<text text-anchor="middle" x="301.5" y="-1546.61" font-family="Helvetica,sans-Serif" font-size="10.00">::getName</text>
</a>
</g>
</g>
<!-- Node1&#45;&gt;Node2 -->
<g id="edge1" class="edge"><title>Node1&#45;&gt;Node2</title>
<path fill="none" stroke="midnightblue" d="M90.5756,-956.698C96.8116,-1040.04 130.939,-1443.38 213,-1530.61 218.54,-1536.49 225.376,-1540.99 232.766,-1544.41"/>
<polygon fill="midnightblue" stroke="midnightblue" points="231.779,-1547.78 242.366,-1548.19 234.344,-1541.27 231.779,-1547.78"/>
</g>
<!-- Node3 -->
<g id="node3" class="node"><title>Node3</title>
<g id="a_node3"><a xlink:href="classRa_1_1Asset_1_1GeometryData.html#ac9ba6f811a63bbf1d2b40a5fad6d2a42" target="_top" xlink:title="Return the Transform of the object. ">
<polygon fill="white" stroke="black" points="232,-1490.61 232,-1520.61 371,-1520.61 371,-1490.61 232,-1490.61"/>
<text text-anchor="start" x="240" y="-1508.61" font-family="Helvetica,sans-Serif" font-size="10.00">Ra::Asset::GeometryData</text>
<text text-anchor="middle" x="301.5" y="-1497.61" font-family="Helvetica,sans-Serif" font-size="10.00">::getFrame</text>
</a>
</g>
</g>
<!-- Node1&#45;&gt;Node3 -->
<g id="edge2" class="edge"><title>Node1&#45;&gt;Node3</title>
<path fill="none" stroke="midnightblue" d="M90.8871,-956.732C98.4473,-1035.95 137.156,-1402.44 213,-1481.61 216.004,-1484.74 219.375,-1487.48 222.999,-1489.87"/>
<polygon fill="midnightblue" stroke="midnightblue" points="221.429,-1493 231.863,-1494.84 224.852,-1486.9 221.429,-1493"/>
</g>
<!-- Node4 -->
<g id="node4" class="node"><title>Node4</title>
<g id="a_node4"><a xlink:href="classRa_1_1Asset_1_1GeometryData.html#ad31c0f120d5e88c40afefa79c29ae28a" target="_top" xlink:title="Return the number of vertices. ">
<polygon fill="white" stroke="black" points="232,-1441.61 232,-1471.61 371,-1471.61 371,-1441.61 232,-1441.61"/>
<text text-anchor="start" x="240" y="-1459.61" font-family="Helvetica,sans-Serif" font-size="10.00">Ra::Asset::GeometryData</text>
<text text-anchor="middle" x="301.5" y="-1448.61" font-family="Helvetica,sans-Serif" font-size="10.00">::getVerticesSize</text>
</a>
</g>
</g>
<!-- Node1&#45;&gt;Node4 -->
<g id="edge3" class="edge"><title>Node1&#45;&gt;Node4</title>
<path fill="none" stroke="midnightblue" d="M91.2678,-956.829C100.274,-1031.85 143.364,-1361.47 213,-1432.61 216.037,-1435.71 219.435,-1438.42 223.08,-1440.79"/>
<polygon fill="midnightblue" stroke="midnightblue" points="221.538,-1443.94 231.981,-1445.73 224.931,-1437.82 221.538,-1443.94"/>
</g>
<!-- Node5 -->
<g id="node5" class="node"><title>Node5</title>
<g id="a_node5"><a xlink:href="classRa_1_1Asset_1_1GeometryData.html#a20394106458e5e8deade13af0bec3ebb" target="_top" xlink:title="Return the list of vertices. ">
<polygon fill="white" stroke="black" points="232,-1392.61 232,-1422.61 371,-1422.61 371,-1392.61 232,-1392.61"/>
<text text-anchor="start" x="240" y="-1410.61" font-family="Helvetica,sans-Serif" font-size="10.00">Ra::Asset::GeometryData</text>
<text text-anchor="middle" x="301.5" y="-1399.61" font-family="Helvetica,sans-Serif" font-size="10.00">::getVertices</text>
</a>
</g>
</g>
<!-- Node1&#45;&gt;Node5 -->
<g id="edge4" class="edge"><title>Node1&#45;&gt;Node5</title>
<path fill="none" stroke="midnightblue" d="M91.6995,-956.699C102.213,-1026.86 149.468,-1320.38 213,-1383.61 215.931,-1386.52 219.181,-1389.09 222.653,-1391.36"/>
<polygon fill="midnightblue" stroke="midnightblue" points="221.248,-1394.58 231.689,-1396.38 224.65,-1388.46 221.248,-1394.58"/>
</g>
<!-- Node6 -->
<g id="node6" class="node"><title>Node6</title>
<g id="a_node6"><a xlink:href="classRa_1_1Asset_1_1GeometryData.html#aa924e05a7c4b3a6ac4fabf8fbae6abcb" target="_top" xlink:title="Return true if the object has vertex normals. ">
<polygon fill="white" stroke="black" points="232,-1343.61 232,-1373.61 371,-1373.61 371,-1343.61 232,-1343.61"/>
<text text-anchor="start" x="240" y="-1361.61" font-family="Helvetica,sans-Serif" font-size="10.00">Ra::Asset::GeometryData</text>
<text text-anchor="middle" x="301.5" y="-1350.61" font-family="Helvetica,sans-Serif" font-size="10.00">::hasNormals</text>
</a>
</g>
</g>
<!-- Node1&#45;&gt;Node6 -->
<g id="edge5" class="edge"><title>Node1&#45;&gt;Node6</title>
<path fill="none" stroke="midnightblue" d="M89.4228,-956.651C89.976,-1014.62 99.9735,-1225.66 213,-1334.61 216.062,-1337.56 219.452,-1340.15 223.066,-1342.44"/>
<polygon fill="midnightblue" stroke="midnightblue" points="221.399,-1345.51 231.856,-1347.21 224.741,-1339.36 221.399,-1345.51"/>
</g>
<!-- Node7 -->
<g id="node7" class="node"><title>Node7</title>
<g id="a_node7"><a xlink:href="classRa_1_1Asset_1_1GeometryData.html#a3b706a2f7490107865f20c4cb71c5777" target="_top" xlink:title="Return the list of vertex normals. ">
<polygon fill="white" stroke="black" points="232,-1294.61 232,-1324.61 371,-1324.61 371,-1294.61 232,-1294.61"/>
<text text-anchor="start" x="240" y="-1312.61" font-family="Helvetica,sans-Serif" font-size="10.00">Ra::Asset::GeometryData</text>
<text text-anchor="middle" x="301.5" y="-1301.61" font-family="Helvetica,sans-Serif" font-size="10.00">::getNormals</text>
</a>
</g>
</g>
<!-- Node1&#45;&gt;Node7 -->
<g id="edge6" class="edge"><title>Node1&#45;&gt;Node7</title>
<path fill="none" stroke="midnightblue" d="M90.1905,-956.611C93.4769,-1009.93 111.96,-1192.06 213,-1285.61 215.971,-1288.36 219.227,-1290.8 222.682,-1292.96"/>
<polygon fill="midnightblue" stroke="midnightblue" points="221.166,-1296.12 231.628,-1297.79 224.493,-1289.96 221.166,-1296.12"/>
</g>
<!-- Node8 -->
<g id="node8" class="node"><title>Node8</title>
<g id="a_node8"><a xlink:href="classRa_1_1Asset_1_1GeometryData.html#acdad9f2b09a7d942db229ace49a4fea0" target="_top" xlink:title="Return the list of faces. ">
<polygon fill="white" stroke="black" points="232,-1245.61 232,-1275.61 371,-1275.61 371,-1245.61 232,-1245.61"/>
<text text-anchor="start" x="240" y="-1263.61" font-family="Helvetica,sans-Serif" font-size="10.00">Ra::Asset::GeometryData</text>
<text text-anchor="middle" x="301.5" y="-1252.61" font-family="Helvetica,sans-Serif" font-size="10.00">::getFaces</text>
</a>
</g>
</g>
<!-- Node1&#45;&gt;Node8 -->
<g id="edge7" class="edge"><title>Node1&#45;&gt;Node8</title>
<path fill="none" stroke="midnightblue" d="M91.2191,-956.828C97.538,-1005.44 123.96,-1158.35 213,-1236.61 216.041,-1239.28 219.354,-1241.66 222.853,-1243.77"/>
<polygon fill="midnightblue" stroke="midnightblue" points="221.403,-1246.96 231.885,-1248.51 224.654,-1240.76 221.403,-1246.96"/>
</g>
<!-- Node9 -->
<g id="node9" class="node"><title>Node9</title>
<g id="a_node9"><a xlink:href="classRa_1_1Asset_1_1GeometryData.html#a3af2da6c15c7e2e41b9b1cb8fcced37c" target="_top" xlink:title="Return true if the object has vertex tangent vectors. ">
<polygon fill="white" stroke="black" points="232,-1196.61 232,-1226.61 371,-1226.61 371,-1196.61 232,-1196.61"/>
<text text-anchor="start" x="240" y="-1214.61" font-family="Helvetica,sans-Serif" font-size="10.00">Ra::Asset::GeometryData</text>
<text text-anchor="middle" x="301.5" y="-1203.61" font-family="Helvetica,sans-Serif" font-size="10.00">::hasTangents</text>
</a>
</g>
</g>
<!-- Node1&#45;&gt;Node9 -->
<g id="edge8" class="edge"><title>Node1&#45;&gt;Node9</title>
<path fill="none" stroke="midnightblue" d="M92.5798,-956.725C102.162,-999.801 135.57,-1124.14 213,-1187.61 216.065,-1190.12 219.372,-1192.37 222.845,-1194.38"/>
<polygon fill="midnightblue" stroke="midnightblue" points="221.273,-1197.51 231.773,-1198.92 224.447,-1191.27 221.273,-1197.51"/>
</g>
<!-- Node10 -->
<g id="node10" class="node"><title>Node10</title>
<g id="a_node10"><a xlink:href="classRa_1_1Asset_1_1GeometryData.html#a5090ec004b5ff8a9c0de0da4c049a5bc" target="_top" xlink:title="Return the list of vertex tangent vectors. ">
<polygon fill="white" stroke="black" points="232,-1147.61 232,-1177.61 371,-1177.61 371,-1147.61 232,-1147.61"/>
<text text-anchor="start" x="240" y="-1165.61" font-family="Helvetica,sans-Serif" font-size="10.00">Ra::Asset::GeometryData</text>
<text text-anchor="middle" x="301.5" y="-1154.61" font-family="Helvetica,sans-Serif" font-size="10.00">::getTangents</text>
</a>
</g>
</g>
<!-- Node1&#45;&gt;Node10 -->
<g id="edge9" class="edge"><title>Node1&#45;&gt;Node10</title>
<path fill="none" stroke="midnightblue" d="M94.5365,-956.607C107.729,-993.55 146.913,-1089.48 213,-1138.61 216.022,-1140.85 219.243,-1142.89 222.599,-1144.73"/>
<polygon fill="midnightblue" stroke="midnightblue" points="221.231,-1147.96 231.754,-1149.19 224.293,-1141.67 221.231,-1147.96"/>
</g>
<!-- Node11 -->
<g id="node11" class="node"><title>Node11</title>
<g id="a_node11"><a xlink:href="classRa_1_1Asset_1_1GeometryData.html#a50f8b108e438d98bb580b1253b37a332" target="_top" xlink:title="Return true if the object has vertex bitangent vectors. ">
<polygon fill="white" stroke="black" points="232,-1098.61 232,-1128.61 371,-1128.61 371,-1098.61 232,-1098.61"/>
<text text-anchor="start" x="240" y="-1116.61" font-family="Helvetica,sans-Serif" font-size="10.00">Ra::Asset::GeometryData</text>
<text text-anchor="middle" x="301.5" y="-1105.61" font-family="Helvetica,sans-Serif" font-size="10.00">::hasBiTangents</text>
</a>
</g>
</g>
<!-- Node1&#45;&gt;Node11 -->
<g id="edge10" class="edge"><title>Node1&#45;&gt;Node11</title>
<path fill="none" stroke="midnightblue" d="M97.8457,-956.798C115.187,-986.911 158.115,-1054.31 213,-1089.61 216.097,-1091.6 219.358,-1093.43 222.727,-1095.1"/>
<polygon fill="midnightblue" stroke="midnightblue" points="221.303,-1098.3 231.859,-1099.2 224.169,-1091.91 221.303,-1098.3"/>
</g>
<!-- Node12 -->
<g id="node12" class="node"><title>Node12</title>
<g id="a_node12"><a xlink:href="classRa_1_1Asset_1_1GeometryData.html#a863b5b343ec5ea7af019eebbf859b7eb" target="_top" xlink:title="Return the list of vertex bitangent vectors. ">
<polygon fill="white" stroke="black" points="232,-1049.61 232,-1079.61 371,-1079.61 371,-1049.61 232,-1049.61"/>
<text text-anchor="start" x="240" y="-1067.61" font-family="Helvetica,sans-Serif" font-size="10.00">Ra::Asset::GeometryData</text>
<text text-anchor="middle" x="301.5" y="-1056.61" font-family="Helvetica,sans-Serif" font-size="10.00">::getBiTangents</text>
</a>
</g>
</g>
<!-- Node1&#45;&gt;Node12 -->
<g id="edge11" class="edge"><title>Node1&#45;&gt;Node12</title>
<path fill="none" stroke="midnightblue" d="M104.041,-956.658C125.782,-978.316 168.939,-1018.13 213,-1040.61 216.71,-1042.5 220.586,-1044.26 224.556,-1045.89"/>
<polygon fill="midnightblue" stroke="midnightblue" points="223.361,-1049.18 233.952,-1049.46 225.851,-1042.63 223.361,-1049.18"/>
</g>
<!-- Node13 -->
<g id="node13" class="node"><title>Node13</title>
<g id="a_node13"><a xlink:href="classRa_1_1Asset_1_1GeometryData.html#a0cdff069ed7865d45989f0a9702b8839" target="_top" xlink:title="Return true if the object has vertex texture coordinates. ">
<polygon fill="white" stroke="black" points="232,-1000.61 232,-1030.61 371,-1030.61 371,-1000.61 232,-1000.61"/>
<text text-anchor="start" x="240" y="-1018.61" font-family="Helvetica,sans-Serif" font-size="10.00">Ra::Asset::GeometryData</text>
<text text-anchor="middle" x="301.5" y="-1007.61" font-family="Helvetica,sans-Serif" font-size="10.00">::hasTextureCoordinates</text>
</a>
</g>
</g>
<!-- Node1&#45;&gt;Node13 -->
<g id="edge12" class="edge"><title>Node1&#45;&gt;Node13</title>
<path fill="none" stroke="midnightblue" d="M123.696,-956.709C148.264,-967.248 182.324,-981.229 213,-991.606 219.071,-993.66 225.423,-995.667 231.812,-997.59"/>
<polygon fill="midnightblue" stroke="midnightblue" points="231.268,-1001.08 241.849,-1000.54 233.241,-994.362 231.268,-1001.08"/>
</g>
<!-- Node14 -->
<g id="node14" class="node"><title>Node14</title>
<g id="a_node14"><a xlink:href="classRa_1_1Asset_1_1GeometryData.html#a55dc4072ed4026280b5e124f35d5b550" target="_top" xlink:title="Return the list of vertex texture coordinates. ">
<polygon fill="white" stroke="black" points="232,-951.606 232,-981.606 371,-981.606 371,-951.606 232,-951.606"/>
<text text-anchor="start" x="240" y="-969.606" font-family="Helvetica,sans-Serif" font-size="10.00">Ra::Asset::GeometryData</text>
<text text-anchor="middle" x="301.5" y="-958.606" font-family="Helvetica,sans-Serif" font-size="10.00">::getTexCoords</text>
</a>
</g>
</g>
<!-- Node1&#45;&gt;Node14 -->
<g id="edge13" class="edge"><title>Node1&#45;&gt;Node14</title>
<path fill="none" stroke="midnightblue" d="M177.15,-951.991C191.961,-953.746 207.256,-955.558 221.821,-957.284"/>
<polygon fill="midnightblue" stroke="midnightblue" points="221.43,-960.762 231.772,-958.463 222.253,-953.81 221.43,-960.762"/>
</g>
<!-- Node15 -->
<g id="node15" class="node"><title>Node15</title>
<g id="a_node15"><a xlink:href="classRa_1_1Asset_1_1GeometryData.html#a344629bc490ddb5042deb7b0d906d400" target="_top" xlink:title="Return true if the object has vertex colors. ">
<polygon fill="white" stroke="black" points="232,-902.606 232,-932.606 371,-932.606 371,-902.606 232,-902.606"/>
<text text-anchor="start" x="240" y="-920.606" font-family="Helvetica,sans-Serif" font-size="10.00">Ra::Asset::GeometryData</text>
<text text-anchor="middle" x="301.5" y="-909.606" font-family="Helvetica,sans-Serif" font-size="10.00">::hasColors</text>
</a>
</g>
</g>
<!-- Node1&#45;&gt;Node15 -->
<g id="edge14" class="edge"><title>Node1&#45;&gt;Node15</title>
<path fill="none" stroke="midnightblue" d="M177.15,-931.636C191.961,-929.952 207.256,-928.212 221.821,-926.555"/>
<polygon fill="midnightblue" stroke="midnightblue" points="222.232,-930.031 231.772,-925.423 221.441,-923.076 222.232,-930.031"/>
</g>
<!-- Node16 -->
<g id="node16" class="node"><title>Node16</title>
<g id="a_node16"><a xlink:href="classRa_1_1Asset_1_1GeometryData.html#af2d7848b5ec9c051cb9c213e8b103665" target="_top" xlink:title="Return the list of vertex colors. ">
<polygon fill="white" stroke="black" points="232,-853.606 232,-883.606 371,-883.606 371,-853.606 232,-853.606"/>
<text text-anchor="start" x="240" y="-871.606" font-family="Helvetica,sans-Serif" font-size="10.00">Ra::Asset::GeometryData</text>
<text text-anchor="middle" x="301.5" y="-860.606" font-family="Helvetica,sans-Serif" font-size="10.00">::getColors</text>
</a>
</g>
</g>
<!-- Node1&#45;&gt;Node16 -->
<g id="edge15" class="edge"><title>Node1&#45;&gt;Node16</title>
<path fill="none" stroke="midnightblue" d="M125.653,-926.537C150.104,-916.599 183.239,-903.617 213,-893.606 220.08,-891.224 227.53,-888.87 234.971,-886.613"/>
<polygon fill="midnightblue" stroke="midnightblue" points="236.132,-889.919 244.716,-883.709 234.133,-883.211 236.132,-889.919"/>
</g>
<!-- Node17 -->
<g id="node17" class="node"><title>Node17</title>
<g id="a_node17"><a xlink:href="classRa_1_1Asset_1_1GeometryData.html#a57d619b30b0df04a0db5b13842ff65d1" target="_top" xlink:title="Return true if the object has MaterialData. ">
<polygon fill="white" stroke="black" points="232,-804.606 232,-834.606 371,-834.606 371,-804.606 232,-804.606"/>
<text text-anchor="start" x="240" y="-822.606" font-family="Helvetica,sans-Serif" font-size="10.00">Ra::Asset::GeometryData</text>
<text text-anchor="middle" x="301.5" y="-811.606" font-family="Helvetica,sans-Serif" font-size="10.00">::hasMaterial</text>
</a>
</g>
</g>
<!-- Node1&#45;&gt;Node17 -->
<g id="edge16" class="edge"><title>Node1&#45;&gt;Node17</title>
<path fill="none" stroke="midnightblue" d="M104.501,-926.581C126.473,-905.379 169.535,-866.797 213,-844.606 217.545,-842.286 222.335,-840.153 227.237,-838.198"/>
<polygon fill="midnightblue" stroke="midnightblue" points="228.614,-841.42 236.767,-834.653 226.174,-834.859 228.614,-841.42"/>
</g>
<!-- Node18 -->
<g id="node18" class="node"><title>Node18</title>
<g id="a_node18"><a xlink:href="classRa_1_1Asset_1_1GeometryData.html#a7e6a327d3cca2d9903f199e0cc54922b" target="_top" xlink:title="Return the MaterialData associated to the objet. ">
<polygon fill="white" stroke="black" points="232,-755.606 232,-785.606 371,-785.606 371,-755.606 232,-755.606"/>
<text text-anchor="start" x="240" y="-773.606" font-family="Helvetica,sans-Serif" font-size="10.00">Ra::Asset::GeometryData</text>
<text text-anchor="middle" x="301.5" y="-762.606" font-family="Helvetica,sans-Serif" font-size="10.00">::getMaterial</text>
</a>
</g>
</g>
<!-- Node1&#45;&gt;Node18 -->
<g id="edge17" class="edge"><title>Node1&#45;&gt;Node18</title>
<path fill="none" stroke="midnightblue" d="M98.2028,-926.212C115.871,-896.377 158.898,-830.551 213,-795.606 216.173,-793.557 219.516,-791.672 222.97,-789.939"/>
<polygon fill="midnightblue" stroke="midnightblue" points="224.667,-793.013 232.332,-785.699 221.778,-786.637 224.667,-793.013"/>
</g>
<!-- Node19 -->
<g id="node19" class="node"><title>Node19</title>
<g id="a_node19"><a xlink:href="namespaceRa_1_1Engine_1_1EngineMaterialConverters.html#ad440019d5fdaa657b3a483a705dc3657" target="_top" xlink:title="Ra::Engine::EngineMaterial\lConverters::getMaterialConverter">
<polygon fill="white" stroke="black" points="213.5,-706.606 213.5,-736.606 389.5,-736.606 389.5,-706.606 213.5,-706.606"/>
<text text-anchor="start" x="221.5" y="-724.606" font-family="Helvetica,sans-Serif" font-size="10.00">Ra::Engine::EngineMaterial</text>
<text text-anchor="middle" x="301.5" y="-713.606" font-family="Helvetica,sans-Serif" font-size="10.00">Converters::getMaterialConverter</text>
</a>
</g>
</g>
<!-- Node1&#45;&gt;Node19 -->
<g id="edge18" class="edge"><title>Node1&#45;&gt;Node19</title>
<path fill="none" stroke="midnightblue" d="M94.7129,-926.53C108.178,-889.862 147.701,-795.454 213,-746.606 215.512,-744.727 218.162,-742.988 220.911,-741.381"/>
<polygon fill="midnightblue" stroke="midnightblue" points="222.72,-744.385 229.99,-736.677 219.5,-738.17 222.72,-744.385"/>
</g>
<!-- Node20 -->
<g id="node20" class="node"><title>Node20</title>
<g id="a_node20"><a xlink:href="classRa_1_1Asset_1_1MaterialData.html#aaf90434a2dd875e345cece3b9c9385d5" target="_top" xlink:title="TYPE. ">
<polygon fill="white" stroke="black" points="237,-657.606 237,-687.606 366,-687.606 366,-657.606 237,-657.606"/>
<text text-anchor="start" x="245" y="-675.606" font-family="Helvetica,sans-Serif" font-size="10.00">Ra::Asset::MaterialData</text>
<text text-anchor="middle" x="301.5" y="-664.606" font-family="Helvetica,sans-Serif" font-size="10.00">::getType</text>
</a>
</g>
</g>
<!-- Node1&#45;&gt;Node20 -->
<g id="edge19" class="edge"><title>Node1&#45;&gt;Node20</title>
<path fill="none" stroke="midnightblue" d="M92.7228,-926.342C102.59,-883.437 136.487,-760.79 213,-697.606 217.34,-694.022 222.166,-690.952 227.26,-688.321"/>
<polygon fill="midnightblue" stroke="midnightblue" points="229.014,-691.369 236.67,-684.045 226.117,-684.996 229.014,-691.369"/>
</g>
<!-- Node21 -->
<g id="node21" class="node"><title>Node21</title>
<g id="a_node21"><a xlink:href="classRa_1_1Engine_1_1RenderTechnique.html#a9bddcd20723ee582fd81c363b9148cf9" target="_top" xlink:title="Ra::Engine::RenderTechnique\l::setMaterial">
<polygon fill="white" stroke="black" points="225,-608.606 225,-638.606 378,-638.606 378,-608.606 225,-608.606"/>
<text text-anchor="start" x="233" y="-626.606" font-family="Helvetica,sans-Serif" font-size="10.00">Ra::Engine::RenderTechnique</text>
<text text-anchor="middle" x="301.5" y="-615.606" font-family="Helvetica,sans-Serif" font-size="10.00">::setMaterial</text>
</a>
</g>
</g>
<!-- Node1&#45;&gt;Node21 -->
<g id="edge20" class="edge"><title>Node1&#45;&gt;Node21</title>
<path fill="none" stroke="midnightblue" d="M91.2879,-926.524C97.8142,-878.349 124.792,-726.769 213,-648.606 214.777,-647.031 216.648,-645.555 218.594,-644.171"/>
<polygon fill="midnightblue" stroke="midnightblue" points="220.861,-646.887 227.56,-638.679 217.205,-640.918 220.861,-646.887"/>
</g>
<!-- Node22 -->
<g id="node22" class="node"><title>Node22</title>
<g id="a_node22"><a xlink:href="namespaceRa_1_1Engine_1_1EngineRenderTechniques.html#a5e831d5088144082e9bd3828323aa57a" target="_top" xlink:title="Ra::Engine::EngineRender\lTechniques::getDefaultTechnique">
<polygon fill="white" stroke="black" points="215,-559.606 215,-589.606 388,-589.606 388,-559.606 215,-559.606"/>
<text text-anchor="start" x="223" y="-577.606" font-family="Helvetica,sans-Serif" font-size="10.00">Ra::Engine::EngineRender</text>
<text text-anchor="middle" x="301.5" y="-566.606" font-family="Helvetica,sans-Serif" font-size="10.00">Techniques::getDefaultTechnique</text>
</a>
</g>
</g>
<!-- Node1&#45;&gt;Node22 -->
<g id="edge21" class="edge"><title>Node1&#45;&gt;Node22</title>
<path fill="none" stroke="midnightblue" d="M90.2795,-926.355C93.8482,-872.997 113.118,-692.894 213,-599.606 214.689,-598.029 216.47,-596.55 218.328,-595.164"/>
<polygon fill="midnightblue" stroke="midnightblue" points="220.384,-598.004 226.914,-589.661 216.606,-592.111 220.384,-598.004"/>
</g>
<!-- Node23 -->
<g id="node23" class="node"><title>Node23</title>
<g id="a_node23"><a xlink:href="namespaceRa_1_1Core_1_1Colors.html#a9b6b3be86ee487b0a0e387566756b60d" target="_top" xlink:title="Ra::Core::Colors::Grey">
<polygon fill="white" stroke="black" points="240.5,-521.106 240.5,-540.106 362.5,-540.106 362.5,-521.106 240.5,-521.106"/>
<text text-anchor="middle" x="301.5" y="-528.106" font-family="Helvetica,sans-Serif" font-size="10.00">Ra::Core::Colors::Grey</text>
</a>
</g>
</g>
<!-- Node1&#45;&gt;Node23 -->
<g id="edge22" class="edge"><title>Node1&#45;&gt;Node23</title>
<path fill="none" stroke="midnightblue" d="M89.3095,-926.486C89.4459,-868.26 98.1146,-656.519 213,-550.606 218.157,-545.851 224.207,-542.15 230.674,-539.28"/>
<polygon fill="midnightblue" stroke="midnightblue" points="232.256,-542.425 240.395,-535.642 229.803,-535.869 232.256,-542.425"/>
</g>
<!-- Node24 -->
<g id="node24" class="node"><title>Node24</title>
<g id="a_node24"><a xlink:href="namespaceRa_1_1Core_1_1Colors.html#a45aae87453aca16513d2077cc6866d0b" target="_top" xlink:title="Ra::Core::Colors::White">
<polygon fill="white" stroke="black" points="239,-483.106 239,-502.106 364,-502.106 364,-483.106 239,-483.106"/>
<text text-anchor="middle" x="301.5" y="-490.106" font-family="Helvetica,sans-Serif" font-size="10.00">Ra::Core::Colors::White</text>
</a>
</g>
</g>
<!-- Node1&#45;&gt;Node24 -->
<g id="edge23" class="edge"><title>Node1&#45;&gt;Node24</title>
<path fill="none" stroke="midnightblue" d="M91.7585,-926.383C102.36,-856.96 149.354,-571.192 213,-511.606 217.766,-507.144 223.324,-503.634 229.284,-500.885"/>
<polygon fill="midnightblue" stroke="midnightblue" points="230.859,-504.029 238.928,-497.163 228.338,-497.499 230.859,-504.029"/>
</g>
<!-- Node25 -->
<g id="node25" class="node"><title>Node25</title>
<g id="a_node25"><a xlink:href="classRa_1_1Engine_1_1RenderObject.html#ae9cb914f351555a60d29e8d6afedc06b" target="_top" xlink:title="Sort of factory method to easily create a render object. ">
<polygon fill="white" stroke="black" points="233,-433.606 233,-463.606 370,-463.606 370,-433.606 233,-433.606"/>
<text text-anchor="start" x="241" y="-451.606" font-family="Helvetica,sans-Serif" font-size="10.00">Ra::Engine::RenderObject</text>
<text text-anchor="middle" x="301.5" y="-440.606" font-family="Helvetica,sans-Serif" font-size="10.00">::createRenderObject</text>
</a>
</g>
</g>
<!-- Node1&#45;&gt;Node25 -->
<g id="edge24" class="edge"><title>Node1&#45;&gt;Node25</title>
<path fill="none" stroke="midnightblue" d="M91.5176,-926.141C101.374,-852.858 146.688,-541.277 213,-473.606 216.26,-470.279 219.93,-467.387 223.872,-464.873"/>
<polygon fill="midnightblue" stroke="midnightblue" points="225.783,-467.817 232.883,-459.954 222.429,-461.673 225.783,-467.817"/>
</g>
<!-- Node28 -->
<g id="node28" class="node"><title>Node28</title>
<g id="a_node28"><a xlink:href="classRa_1_1Engine_1_1GeometryComponent.html#acd66e05ec26dd556df24c544cee48440" target="_top" xlink:title="Ra::Engine::GeometryComponent\l::setupIO">
<polygon fill="white" stroke="black" points="213,-203.606 213,-233.606 390,-233.606 390,-203.606 213,-203.606"/>
<text text-anchor="start" x="221" y="-221.606" font-family="Helvetica,sans-Serif" font-size="10.00">Ra::Engine::GeometryComponent</text>
<text text-anchor="middle" x="301.5" y="-210.606" font-family="Helvetica,sans-Serif" font-size="10.00">::setupIO</text>
</a>
</g>
</g>
<!-- Node1&#45;&gt;Node28 -->
<g id="edge27" class="edge"><title>Node1&#45;&gt;Node28</title>
<path fill="none" stroke="midnightblue" d="M91.1526,-926.24C98.731,-858.998 133.265,-584.643 213,-374.606 231.877,-324.881 264.663,-271.861 284.296,-242.215"/>
<polygon fill="midnightblue" stroke="midnightblue" points="287.279,-244.05 289.937,-233.794 281.464,-240.154 287.279,-244.05"/>
</g>
<!-- Node44 -->
<g id="node44" class="node"><title>Node44</title>
<g id="a_node44"><a xlink:href="classRa_1_1Engine_1_1Component.html#a1fbe1a8c7052a8bf3fd2ad2f6ae34772" target="_top" xlink:title="Add a new render object to the component. This adds the RO to the manager for drawing. ">
<polygon fill="white" stroke="black" points="237,-384.606 237,-414.606 366,-414.606 366,-384.606 237,-384.606"/>
<text text-anchor="start" x="245" y="-402.606" font-family="Helvetica,sans-Serif" font-size="10.00">Ra::Engine::Component</text>
<text text-anchor="middle" x="301.5" y="-391.606" font-family="Helvetica,sans-Serif" font-size="10.00">::addRenderObject</text>
</a>
</g>
</g>
<!-- Node1&#45;&gt;Node44 -->
<g id="edge46" class="edge"><title>Node1&#45;&gt;Node44</title>
<path fill="none" stroke="midnightblue" d="M91.0332,-926.586C99.1913,-849.523 139.9,-499.208 213,-423.606 217.209,-419.253 222.126,-415.667 227.445,-412.714"/>
<polygon fill="midnightblue" stroke="midnightblue" points="229.181,-415.765 236.719,-408.32 226.184,-409.438 229.181,-415.765"/>
</g>
<!-- Node26 -->
<g id="node26" class="node"><title>Node26</title>
<g id="a_node26"><a xlink:href="classRa_1_1Engine_1_1RenderObject.html#acf300c8fdb55fee54d27b3fb46a1e523" target="_top" xlink:title="A &#45;1 (or any other negative value) lifetime is considered infinite, 0 is an &quot;invalid value&quot; (would me...">
<polygon fill="white" stroke="black" points="446,-433.606 446,-463.606 583,-463.606 583,-433.606 446,-433.606"/>
<text text-anchor="start" x="454" y="-451.606" font-family="Helvetica,sans-Serif" font-size="10.00">Ra::Engine::RenderObject</text>
<text text-anchor="middle" x="514.5" y="-440.606" font-family="Helvetica,sans-Serif" font-size="10.00">::RenderObject</text>
</a>
</g>
</g>
<!-- Node25&#45;&gt;Node26 -->
<g id="edge25" class="edge"><title>Node25&#45;&gt;Node26</title>
<path fill="none" stroke="midnightblue" d="M370.132,-448.606C391.048,-448.606 414.254,-448.606 435.795,-448.606"/>
<polygon fill="midnightblue" stroke="midnightblue" points="435.889,-452.106 445.889,-448.606 435.889,-445.106 435.889,-452.106"/>
</g>
<!-- Node27 -->
<g id="node27" class="node"><title>Node27</title>
<g id="a_node27"><a xlink:href="classRa_1_1Engine_1_1RenderObject.html#a8ea17931e62bea93890d44815bf7fcf5" target="_top" xlink:title="Ra::Engine::RenderObject\l::~RenderObject">
<polygon fill="white" stroke="black" points="654.5,-433.606 654.5,-463.606 791.5,-463.606 791.5,-433.606 654.5,-433.606"/>
<text text-anchor="start" x="662.5" y="-451.606" font-family="Helvetica,sans-Serif" font-size="10.00">Ra::Engine::RenderObject</text>
<text text-anchor="middle" x="723" y="-440.606" font-family="Helvetica,sans-Serif" font-size="10.00">::~RenderObject</text>
</a>
</g>
</g>
<!-- Node26&#45;&gt;Node27 -->
<g id="edge26" class="edge"><title>Node26&#45;&gt;Node27</title>
<path fill="none" stroke="midnightblue" d="M583.116,-448.606C602.637,-448.606 624.095,-448.606 644.184,-448.606"/>
<polygon fill="midnightblue" stroke="midnightblue" points="644.232,-452.106 654.232,-448.606 644.232,-445.106 644.232,-452.106"/>
</g>
<!-- Node29 -->
<g id="node29" class="node"><title>Node29</title>
<g id="a_node29"><a xlink:href="classRa_1_1Engine_1_1Component.html#a207c1dc2e97856c22e0767fb77162933" target="_top" xlink:title="Return the entity the component belongs to. ">
<polygon fill="white" stroke="black" points="450,-247.606 450,-277.606 579,-277.606 579,-247.606 450,-247.606"/>
<text text-anchor="start" x="458" y="-265.606" font-family="Helvetica,sans-Serif" font-size="10.00">Ra::Engine::Component</text>
<text text-anchor="middle" x="514.5" y="-254.606" font-family="Helvetica,sans-Serif" font-size="10.00">::getEntity</text>
</a>
</g>
</g>
<!-- Node28&#45;&gt;Node29 -->
<g id="edge28" class="edge"><title>Node28&#45;&gt;Node29</title>
<path fill="none" stroke="midnightblue" d="M374.524,-233.625C395.652,-238.031 418.778,-242.854 439.997,-247.278"/>
<polygon fill="midnightblue" stroke="midnightblue" points="439.415,-250.732 449.919,-249.347 440.844,-243.88 439.415,-250.732"/>
</g>
<!-- Node30 -->
<g id="node30" class="node"><title>Node30</title>
<g id="a_node30"><a xlink:href="classRa_1_1Engine_1_1Component.html#a10b0bc182b76165744ebea603ae32dfe" target="_top" xlink:title="Shortcut to access the render object manager. ">
<polygon fill="white" stroke="black" points="450,-384.606 450,-414.606 579,-414.606 579,-384.606 450,-384.606"/>
<text text-anchor="start" x="458" y="-402.606" font-family="Helvetica,sans-Serif" font-size="10.00">Ra::Engine::Component</text>
<text text-anchor="middle" x="514.5" y="-391.606" font-family="Helvetica,sans-Serif" font-size="10.00">::getRoMgr</text>
</a>
</g>
</g>
<!-- Node28&#45;&gt;Node30 -->
<g id="edge29" class="edge"><title>Node28&#45;&gt;Node30</title>
<path fill="none" stroke="midnightblue" d="M310.144,-233.614C326.797,-264.782 369.444,-336.761 426,-374.606 430.514,-377.626 435.393,-380.286 440.458,-382.628"/>
<polygon fill="midnightblue" stroke="midnightblue" points="439.161,-385.879 449.737,-386.509 441.862,-379.422 439.161,-385.879"/>
</g>
<!-- Node31 -->
<g id="node31" class="node"><title>Node31</title>
<g id="a_node31"><a xlink:href="classRa_1_1Engine_1_1RenderObjectManager.html#a32bd0db0d9620bb7e3f0fe50b541dae3" target="_top" xlink:title="Returns the render object corresponding to the given index. ">
<polygon fill="white" stroke="black" points="442.5,-335.606 442.5,-365.606 586.5,-365.606 586.5,-335.606 442.5,-335.606"/>
<text text-anchor="start" x="450.5" y="-353.606" font-family="Helvetica,sans-Serif" font-size="10.00">Ra::Engine::RenderObject</text>
<text text-anchor="middle" x="514.5" y="-342.606" font-family="Helvetica,sans-Serif" font-size="10.00">Manager::getRenderObject</text>
</a>
</g>
</g>
<!-- Node28&#45;&gt;Node31 -->
<g id="edge30" class="edge"><title>Node28&#45;&gt;Node31</title>
<path fill="none" stroke="midnightblue" d="M315.762,-233.717C336.853,-256.835 380.344,-300.894 426,-325.606 430.207,-327.883 434.644,-329.972 439.196,-331.884"/>
<polygon fill="midnightblue" stroke="midnightblue" points="438.077,-335.204 448.666,-335.566 440.614,-328.68 438.077,-335.204"/>
</g>
<!-- Node34 -->
<g id="node34" class="node"><title>Node34</title>
<g id="a_node34"><a xlink:href="classRa_1_1Engine_1_1GeometryComponent.html#a1cd030ebe520f35605bc8b5ed4c06ad7" target="_top" xlink:title="Returns the index of the associated RO (the display mesh) ">
<polygon fill="white" stroke="black" points="426,-159.606 426,-189.606 603,-189.606 603,-159.606 426,-159.606"/>
<text text-anchor="start" x="434" y="-177.606" font-family="Helvetica,sans-Serif" font-size="10.00">Ra::Engine::GeometryComponent</text>
<text text-anchor="middle" x="514.5" y="-166.606" font-family="Helvetica,sans-Serif" font-size="10.00">::getRenderObjectIndex</text>
</a>
</g>
</g>
<!-- Node28&#45;&gt;Node34 -->
<g id="edge33" class="edge"><title>Node28&#45;&gt;Node34</title>
<path fill="none" stroke="midnightblue" d="M374.524,-203.587C392.841,-199.767 412.659,-195.634 431.435,-191.719"/>
<polygon fill="midnightblue" stroke="midnightblue" points="432.368,-195.1 441.443,-189.632 430.939,-188.247 432.368,-195.1"/>
</g>
<!-- Node35 -->
<g id="node35" class="node"><title>Node35</title>
<g id="a_node35"><a xlink:href="classRa_1_1Engine_1_1GeometryComponent.html#aadb84000b1245b28ed548af7ceb4a237" target="_top" xlink:title="Returns the current display geometry. ">
<polygon fill="white" stroke="black" points="426,-71.606 426,-101.606 603,-101.606 603,-71.606 426,-71.606"/>
<text text-anchor="start" x="434" y="-89.606" font-family="Helvetica,sans-Serif" font-size="10.00">Ra::Engine::GeometryComponent</text>
<text text-anchor="middle" x="514.5" y="-78.606" font-family="Helvetica,sans-Serif" font-size="10.00">::getMesh</text>
</a>
</g>
</g>
<!-- Node28&#45;&gt;Node35 -->
<g id="edge34" class="edge"><title>Node28&#45;&gt;Node35</title>
<path fill="none" stroke="midnightblue" d="M317.143,-203.439C339.01,-181.55 382.323,-141.056 426,-116.606 433.534,-112.389 441.763,-108.619 450.063,-105.296"/>
<polygon fill="midnightblue" stroke="midnightblue" points="451.328,-108.56 459.43,-101.733 448.839,-102.017 451.328,-108.56"/>
</g>
<!-- Node36 -->
<g id="node36" class="node"><title>Node36</title>
<g id="a_node36"><a xlink:href="classRa_1_1Engine_1_1Mesh.html#ad03a7d45ad807794b1a6511bd8153962" target="_top" xlink:title="Returns the underlying triangle mesh. ">
<polygon fill="white" stroke="black" points="639,-36.106 639,-55.106 807,-55.106 807,-36.106 639,-36.106"/>
<text text-anchor="middle" x="723" y="-43.106" font-family="Helvetica,sans-Serif" font-size="10.00">Ra::Engine::Mesh::getGeometry</text>
</a>
</g>
</g>
<!-- Node28&#45;&gt;Node36 -->
<g id="edge37" class="edge"><title>Node28&#45;&gt;Node36</title>
<path fill="none" stroke="midnightblue" d="M306.599,-203.47C317.955,-164.925 353.855,-63.3112 426,-23.606 511.602,23.5054 632.786,-11.242 689.879,-32.4311"/>
<polygon fill="midnightblue" stroke="midnightblue" points="688.857,-35.7873 699.448,-36.0805 691.352,-29.2468 688.857,-35.7873"/>
</g>
<!-- Node37 -->
<g id="node37" class="node"><title>Node37</title>
<g id="a_node37"><a xlink:href="classRa_1_1Engine_1_1Mesh.html#a9a1dcadf7fb4ff851b18c87b3a98ac6b" target="_top" xlink:title="Mark one of the data types as dirty, forcing an update of the openGL buffer. ">
<polygon fill="white" stroke="black" points="443.5,-33.106 443.5,-52.106 585.5,-52.106 585.5,-33.106 443.5,-33.106"/>
<text text-anchor="middle" x="514.5" y="-40.106" font-family="Helvetica,sans-Serif" font-size="10.00">Ra::Engine::Mesh::setDirty</text>
</a>
</g>
</g>
<!-- Node28&#45;&gt;Node37 -->
<g id="edge36" class="edge"><title>Node28&#45;&gt;Node37</title>
<path fill="none" stroke="midnightblue" d="M309.927,-203.206C326.17,-171.28 368.082,-97.8403 426,-61.606 429.387,-59.4868 432.976,-57.6017 436.693,-55.9249"/>
<polygon fill="midnightblue" stroke="midnightblue" points="438.146,-59.1136 446.15,-52.1715 435.564,-52.6073 438.146,-59.1136"/>
</g>
<!-- Node38 -->
<g id="node38" class="node"><title>Node38</title>
<g id="a_node38"><a xlink:href="classRa_1_1Engine_1_1Mesh.html#a9bdf796a08da5ad5e345c62629774903" target="_top" xlink:title="Use the given geometry as base for a display mesh. Normals are optionnal. ">
<polygon fill="white" stroke="black" points="428,-297.106 428,-316.106 601,-316.106 601,-297.106 428,-297.106"/>
<text text-anchor="middle" x="514.5" y="-304.106" font-family="Helvetica,sans-Serif" font-size="10.00">Ra::Engine::Mesh::loadGeometry</text>
</a>
</g>
</g>
<!-- Node28&#45;&gt;Node38 -->
<g id="edge38" class="edge"><title>Node28&#45;&gt;Node38</title>
<path fill="none" stroke="midnightblue" d="M325.238,-233.668C349.333,-249.008 388.947,-272.489 426,-286.606 433.954,-289.636 442.498,-292.284 451.017,-294.575"/>
<polygon fill="midnightblue" stroke="midnightblue" points="450.417,-298.033 460.97,-297.101 452.139,-291.248 450.417,-298.033"/>
</g>
<!-- Node39 -->
<g id="node39" class="node"><title>Node39</title>
<g id="a_node39"><a xlink:href="classRa_1_1Core_1_1TriangleMesh.html#a495116f40cfec8bb6504698d786d4b8c" target="_top" xlink:title="Access the vertices positions. ">
<polygon fill="white" stroke="black" points="660.5,-203.606 660.5,-233.606 785.5,-233.606 785.5,-203.606 660.5,-203.606"/>
<text text-anchor="start" x="668.5" y="-221.606" font-family="Helvetica,sans-Serif" font-size="10.00">Ra::Core::TriangleMesh</text>
<text text-anchor="middle" x="723" y="-210.606" font-family="Helvetica,sans-Serif" font-size="10.00">::vertices</text>
</a>
</g>
</g>
<!-- Node28&#45;&gt;Node39 -->
<g id="edge43" class="edge"><title>Node28&#45;&gt;Node39</title>
<path fill="none" stroke="midnightblue" d="M390.186,-218.606C467.221,-218.606 577.948,-218.606 649.927,-218.606"/>
<polygon fill="midnightblue" stroke="midnightblue" points="650.257,-222.106 660.257,-218.606 650.257,-215.106 650.257,-222.106"/>
</g>
<!-- Node43 -->
<g id="node43" class="node"><title>Node43</title>
<g id="a_node43"><a xlink:href="classRa_1_1Core_1_1TriangleMesh.html#a40d31b7b2943947d6eac5d906f0182fd" target="_top" xlink:title="Access the vertices normals. ">
<polygon fill="white" stroke="black" points="660.5,-135.606 660.5,-165.606 785.5,-165.606 785.5,-135.606 660.5,-135.606"/>
<text text-anchor="start" x="668.5" y="-153.606" font-family="Helvetica,sans-Serif" font-size="10.00">Ra::Core::TriangleMesh</text>
<text text-anchor="middle" x="723" y="-142.606" font-family="Helvetica,sans-Serif" font-size="10.00">::normals</text>
</a>
</g>
</g>
<!-- Node28&#45;&gt;Node43 -->
<g id="edge44" class="edge"><title>Node28&#45;&gt;Node43</title>
<path fill="none" stroke="midnightblue" d="M322.092,-203.437C345.361,-186.47 386.07,-160.004 426,-149.606 500.63,-130.172 589.479,-133.866 650.232,-140.251"/>
<polygon fill="midnightblue" stroke="midnightblue" points="650.161,-143.764 660.485,-141.382 650.929,-136.807 650.161,-143.764"/>
</g>
<!-- Node32 -->
<g id="node32" class="node"><title>Node32</title>
<g id="a_node32"><a xlink:href="classRa_1_1Engine_1_1RenderObjectManager.html#a4077b9cf9e1e4d62fd5456386f2d72c8" target="_top" xlink:title="Returns true if the index points to a valid render object. ">
<polygon fill="white" stroke="black" points="654.5,-337.606 654.5,-367.606 791.5,-367.606 791.5,-337.606 654.5,-337.606"/>
<text text-anchor="start" x="662.5" y="-355.606" font-family="Helvetica,sans-Serif" font-size="10.00">Ra::Engine::RenderObject</text>
<text text-anchor="middle" x="723" y="-344.606" font-family="Helvetica,sans-Serif" font-size="10.00">Manager::exists</text>
</a>
</g>
</g>
<!-- Node31&#45;&gt;Node32 -->
<g id="edge31" class="edge"><title>Node31&#45;&gt;Node32</title>
<path fill="none" stroke="midnightblue" d="M586.566,-351.294C605.157,-351.474 625.296,-351.669 644.218,-351.853"/>
<polygon fill="midnightblue" stroke="midnightblue" points="644.252,-355.353 654.286,-351.95 644.32,-348.353 644.252,-355.353"/>
</g>
<!-- Node33 -->
<g id="node33" class="node"><title>Node33</title>
<g id="a_node33"><a xlink:href="classRa_1_1Core_1_1Index.html#a87c70243f30c65c1a24834d1829bda01" target="_top" xlink:title="DESTRUCTOR: Must not be defined, we need it trivial to be constexpr. ">
<polygon fill="white" stroke="black" points="846,-343.106 846,-362.106 971,-362.106 971,-343.106 846,-343.106"/>
<text text-anchor="middle" x="908.5" y="-350.106" font-family="Helvetica,sans-Serif" font-size="10.00">Ra::Core::Index::isValid</text>
</a>
</g>
</g>
<!-- Node32&#45;&gt;Node33 -->
<g id="edge32" class="edge"><title>Node32&#45;&gt;Node33</title>
<path fill="none" stroke="midnightblue" d="M791.547,-352.606C805.855,-352.606 821.009,-352.606 835.477,-352.606"/>
<polygon fill="midnightblue" stroke="midnightblue" points="835.868,-356.106 845.868,-352.606 835.868,-349.106 835.868,-356.106"/>
</g>
<!-- Node35&#45;&gt;Node36 -->
<g id="edge35" class="edge"><title>Node35&#45;&gt;Node36</title>
<path fill="none" stroke="midnightblue" d="M591.22,-71.5719C615.177,-66.8153 641.267,-61.6353 663.797,-57.162"/>
<polygon fill="midnightblue" stroke="midnightblue" points="664.751,-60.541 673.878,-55.1604 663.388,-53.675 664.751,-60.541"/>
</g>
<!-- Node38&#45;&gt;Node39 -->
<g id="edge39" class="edge"><title>Node38&#45;&gt;Node39</title>
<path fill="none" stroke="midnightblue" d="M569.004,-297.007C580.414,-294.236 592.257,-290.797 603,-286.606 634.844,-274.184 668.42,-254.292 691.757,-239.224"/>
<polygon fill="midnightblue" stroke="midnightblue" points="693.727,-242.118 700.175,-233.711 689.892,-236.262 693.727,-242.118"/>
</g>
<!-- Node41 -->
<g id="node41" class="node"><title>Node41</title>
<g id="a_node41"><a xlink:href="classRa_1_1Core_1_1TriangleMesh.html#a2050187a77536bb43bfa2e25c25389c6" target="_top" xlink:title="Return the Handle to the attribute with the given name if it exists, an invalid handle otherwise...">
<polygon fill="white" stroke="black" points="660.5,-288.606 660.5,-318.606 785.5,-318.606 785.5,-288.606 660.5,-288.606"/>
<text text-anchor="start" x="668.5" y="-306.606" font-family="Helvetica,sans-Serif" font-size="10.00">Ra::Core::TriangleMesh</text>
<text text-anchor="middle" x="723" y="-295.606" font-family="Helvetica,sans-Serif" font-size="10.00">::getAttribHandle</text>
</a>
</g>
</g>
<!-- Node38&#45;&gt;Node41 -->
<g id="edge41" class="edge"><title>Node38&#45;&gt;Node41</title>
<path fill="none" stroke="midnightblue" d="M601.281,-305.36C617.552,-305.123 634.419,-304.878 650.202,-304.649"/>
<polygon fill="midnightblue" stroke="midnightblue" points="650.452,-308.146 660.4,-304.501 650.351,-301.147 650.452,-308.146"/>
</g>
<!-- Node40 -->
<g id="node40" class="node"><title>Node40</title>
<g id="a_node40"><a xlink:href="classRa_1_1Core_1_1AttribManager.html#aaa6088620425c1e1d74b50f1b50eb596" target="_top" xlink:title="Get attribute by handle. ">
<polygon fill="white" stroke="black" points="843,-159.606 843,-189.606 974,-189.606 974,-159.606 843,-159.606"/>
<text text-anchor="start" x="851" y="-177.606" font-family="Helvetica,sans-Serif" font-size="10.00">Ra::Core::AttribManager</text>
<text text-anchor="middle" x="908.5" y="-166.606" font-family="Helvetica,sans-Serif" font-size="10.00">::getAttrib</text>
</a>
</g>
</g>
<!-- Node39&#45;&gt;Node40 -->
<g id="edge40" class="edge"><title>Node39&#45;&gt;Node40</title>
<path fill="none" stroke="midnightblue" d="M785.613,-203.832C801.392,-200.049 818.509,-195.944 834.789,-192.041"/>
<polygon fill="midnightblue" stroke="midnightblue" points="835.89,-195.376 844.798,-189.641 834.257,-188.569 835.89,-195.376"/>
</g>
<!-- Node42 -->
<g id="node42" class="node"><title>Node42</title>
<g id="a_node42"><a xlink:href="classRa_1_1Core_1_1AttribManager.html#a83cb9e1c9e687d161a3070ffbdf07b22" target="_top" xlink:title="findAttrib Grab an attribute handler by name. ">
<polygon fill="white" stroke="black" points="843,-288.606 843,-318.606 974,-318.606 974,-288.606 843,-288.606"/>
<text text-anchor="start" x="851" y="-306.606" font-family="Helvetica,sans-Serif" font-size="10.00">Ra::Core::AttribManager</text>
<text text-anchor="middle" x="908.5" y="-295.606" font-family="Helvetica,sans-Serif" font-size="10.00">::findAttrib</text>
</a>
</g>
</g>
<!-- Node41&#45;&gt;Node42 -->
<g id="edge42" class="edge"><title>Node41&#45;&gt;Node42</title>
<path fill="none" stroke="midnightblue" d="M785.613,-303.606C800.731,-303.606 817.076,-303.606 832.738,-303.606"/>
<polygon fill="midnightblue" stroke="midnightblue" points="832.911,-307.106 842.911,-303.606 832.911,-300.106 832.911,-307.106"/>
</g>
<!-- Node43&#45;&gt;Node40 -->
<g id="edge45" class="edge"><title>Node43&#45;&gt;Node40</title>
<path fill="none" stroke="midnightblue" d="M785.613,-158.664C800.731,-160.642 817.076,-162.779 832.738,-164.828"/>
<polygon fill="midnightblue" stroke="midnightblue" points="832.541,-168.332 842.911,-166.158 833.449,-161.391 832.541,-168.332"/>
</g>
<!-- Node44&#45;&gt;Node30 -->
<g id="edge47" class="edge"><title>Node44&#45;&gt;Node30</title>
<path fill="none" stroke="midnightblue" d="M366.093,-399.606C389.239,-399.606 415.599,-399.606 439.565,-399.606"/>
<polygon fill="midnightblue" stroke="midnightblue" points="439.673,-403.106 449.673,-399.606 439.673,-396.106 439.673,-403.106"/>
</g>
</g>
</svg>
