<?xml version="1.0" encoding="UTF-8" standalone="no"?>
<!DOCTYPE svg PUBLIC "-//W3C//DTD SVG 1.1//EN"
 "http://www.w3.org/Graphics/SVG/1.1/DTD/svg11.dtd">
<!-- Generated by graphviz version 2.38.0 (20140413.2041)
 -->
<!-- Title: Super4PCS::TriangleKdTree&lt; _Index &gt; Pages: 1 -->
<svg width="897pt" height="844pt"
 viewBox="0.00 0.00 896.50 844.00" xmlns="http://www.w3.org/2000/svg" xmlns:xlink="http://www.w3.org/1999/xlink">
<g id="graph0" class="graph" transform="scale(1 1) rotate(0) translate(4 840)">
<title>Super4PCS::TriangleKdTree&lt; _Index &gt;</title>
<polygon fill="white" stroke="none" points="-4,4 -4,-840 892.5,-840 892.5,4 -4,4"/>
<!-- Node1 -->
<g id="node1" class="node"><title>Node1</title>
<polygon fill="#bfbfbf" stroke="black" points="212,-0.5 212,-255.5 363,-255.5 363,-0.5 212,-0.5"/>
<text text-anchor="start" x="220" y="-243.5" font-family="Helvetica,sans-Serif" font-size="10.00">Super4PCS::TriangleKdTree</text>
<text text-anchor="middle" x="287.5" y="-232.5" font-family="Helvetica,sans-Serif" font-size="10.00">&lt; _Index &gt;</text>
<polyline fill="none" stroke="black" points="212,-225.5 363,-225.5 "/>
<text text-anchor="middle" x="287.5" y="-213.5" font-family="Helvetica,sans-Serif" font-size="10.00"> </text>
<polyline fill="none" stroke="black" points="212,-206.5 363,-206.5 "/>
<text text-anchor="start" x="220" y="-194.5" font-family="Helvetica,sans-Serif" font-size="10.00">+ _getNodes()</text>
<text text-anchor="start" x="220" y="-183.5" font-family="Helvetica,sans-Serif" font-size="10.00">+ _getPoints()</text>
<text text-anchor="start" x="220" y="-172.5" font-family="Helvetica,sans-Serif" font-size="10.00">+ _getTriangles()</text>
<text text-anchor="start" x="220" y="-161.5" font-family="Helvetica,sans-Serif" font-size="10.00">+ _getIndices()</text>
<text text-anchor="start" x="220" y="-150.5" font-family="Helvetica,sans-Serif" font-size="10.00">+ TriangleKdTree()</text>
<text text-anchor="start" x="220" y="-139.5" font-family="Helvetica,sans-Serif" font-size="10.00">+ TriangleKdTree()</text>
<text text-anchor="start" x="220" y="-128.5" font-family="Helvetica,sans-Serif" font-size="10.00">+ finalize()</text>
<text text-anchor="start" x="220" y="-117.5" font-family="Helvetica,sans-Serif" font-size="10.00">+ aabb()</text>
<text text-anchor="start" x="220" y="-106.5" font-family="Helvetica,sans-Serif" font-size="10.00">+ ~TriangleKdTree()</text>
<text text-anchor="start" x="220" y="-95.5" font-family="Helvetica,sans-Serif" font-size="10.00">+ doQueryRestrictedClosest</text>
<text text-anchor="start" x="220" y="-84.5" font-family="Helvetica,sans-Serif" font-size="10.00">Index()</text>
<text text-anchor="start" x="220" y="-73.5" font-family="Helvetica,sans-Serif" font-size="10.00">+ doQueryRestrictedClosest</text>
<text text-anchor="start" x="220" y="-62.5" font-family="Helvetica,sans-Serif" font-size="10.00">Indexes()</text>
<text text-anchor="start" x="220" y="-51.5" font-family="Helvetica,sans-Serif" font-size="10.00">+ doQueryRestrictedClosest</text>
<text text-anchor="start" x="220" y="-40.5" font-family="Helvetica,sans-Serif" font-size="10.00">IndexTriangle()</text>
<text text-anchor="start" x="220" y="-29.5" font-family="Helvetica,sans-Serif" font-size="10.00">+ invalidIndex()</text>
<text text-anchor="start" x="220" y="-18.5" font-family="Helvetica,sans-Serif" font-size="10.00"># split()</text>
<text text-anchor="start" x="220" y="-7.5" font-family="Helvetica,sans-Serif" font-size="10.00"># createTree()</text>
</g>
<!-- Node2 -->
<g id="node2" class="node"><title>Node2</title>
<polygon fill="white" stroke="#bfbfbf" points="0,-303.5 0,-360.5 57,-360.5 57,-303.5 0,-303.5"/>
<text text-anchor="middle" x="28.5" y="-348.5" font-family="Helvetica,sans-Serif" font-size="10.00">AABB3D</text>
<polyline fill="none" stroke="#bfbfbf" points="0,-341.5 57,-341.5 "/>
<text text-anchor="middle" x="28.5" y="-329.5" font-family="Helvetica,sans-Serif" font-size="10.00"> </text>
<polyline fill="none" stroke="#bfbfbf" points="0,-322.5 57,-322.5 "/>
<text text-anchor="middle" x="28.5" y="-310.5" font-family="Helvetica,sans-Serif" font-size="10.00"> </text>
</g>
<!-- Node2&#45;&gt;Node1 -->
<g id="edge1" class="edge"><title>Node2&#45;&gt;Node1</title>
<path fill="none" stroke="#404040" d="M23.5327,-303.346C23.1158,-293.478 24.3256,-282.668 29.5,-274 66.5344,-211.958 140.733,-174.324 200.09,-153.004"/>
<polygon fill="none" stroke="#404040" points="200.413,-152.892 204.768,-147.145 211.749,-148.955 207.393,-154.702 200.413,-152.892"/>
<text text-anchor="middle" x="54" y="-277" font-family="Helvetica,sans-Serif" font-size="10.00"> #mAABB</text>
</g>
<!-- Node3 -->
<g id="node3" class="node"><title>Node3</title>
<polygon fill="white" stroke="#bfbfbf" points="22.5,-568.5 22.5,-625.5 164.5,-625.5 164.5,-568.5 22.5,-568.5"/>
<text text-anchor="middle" x="93.5" y="-613.5" font-family="Helvetica,sans-Serif" font-size="10.00">std::vector&lt; VectorType &gt;</text>
<polyline fill="none" stroke="#bfbfbf" points="22.5,-606.5 164.5,-606.5 "/>
<text text-anchor="middle" x="93.5" y="-594.5" font-family="Helvetica,sans-Serif" font-size="10.00"> </text>
<polyline fill="none" stroke="#bfbfbf" points="22.5,-587.5 164.5,-587.5 "/>
<text text-anchor="middle" x="93.5" y="-575.5" font-family="Helvetica,sans-Serif" font-size="10.00"> </text>
</g>
<!-- Node3&#45;&gt;Node1 -->
<g id="edge2" class="edge"><title>Node3&#45;&gt;Node1</title>
<path fill="none" stroke="#404040" d="M90.1512,-568.302C86.1108,-526.076 82.4531,-443.688 105.5,-379 126.695,-319.511 166.84,-261.906 204.044,-217.016"/>
<polygon fill="none" stroke="#404040" points="204.209,-216.82 205.008,-209.653 211.93,-207.634 211.132,-214.8 204.209,-216.82"/>
<text text-anchor="middle" x="131" y="-387.5" font-family="Helvetica,sans-Serif" font-size="10.00"> #mPoints</text>
</g>
<!-- Node4 -->
<g id="node4" class="node"><title>Node4</title>
<polygon fill="white" stroke="#bfbfbf" points="59.5,-673.5 59.5,-730.5 127.5,-730.5 127.5,-673.5 59.5,-673.5"/>
<text text-anchor="middle" x="93.5" y="-718.5" font-family="Helvetica,sans-Serif" font-size="10.00">VectorType</text>
<polyline fill="none" stroke="#bfbfbf" points="59.5,-711.5 127.5,-711.5 "/>
<text text-anchor="middle" x="93.5" y="-699.5" font-family="Helvetica,sans-Serif" font-size="10.00"> </text>
<polyline fill="none" stroke="#bfbfbf" points="59.5,-692.5 127.5,-692.5 "/>
<text text-anchor="middle" x="93.5" y="-680.5" font-family="Helvetica,sans-Serif" font-size="10.00"> </text>
</g>
<!-- Node4&#45;&gt;Node3 -->
<g id="edge3" class="edge"><title>Node4&#45;&gt;Node3</title>
<path fill="none" stroke="#404040" d="M93.5,-673.398C93.5,-662.545 93.5,-649.873 93.5,-638.049"/>
<polygon fill="none" stroke="#404040" points="93.5001,-637.678 89.5,-631.678 93.5,-625.678 97.5,-631.678 93.5001,-637.678"/>
<text text-anchor="middle" x="122" y="-647" font-family="Helvetica,sans-Serif" font-size="10.00"> +elements</text>
</g>
<!-- Node5 -->
<g id="node5" class="node"><title>Node5</title>
<g id="a_node5"><a xlink:title="STL class. ">
<polygon fill="white" stroke="#bfbfbf" points="545,-673.5 545,-730.5 640,-730.5 640,-673.5 545,-673.5"/>
<text text-anchor="middle" x="592.5" y="-718.5" font-family="Helvetica,sans-Serif" font-size="10.00">std::vector&lt; T &gt;</text>
<polyline fill="none" stroke="#bfbfbf" points="545,-711.5 640,-711.5 "/>
<text text-anchor="middle" x="592.5" y="-699.5" font-family="Helvetica,sans-Serif" font-size="10.00"> </text>
<polyline fill="none" stroke="#bfbfbf" points="545,-692.5 640,-692.5 "/>
<text text-anchor="middle" x="592.5" y="-680.5" font-family="Helvetica,sans-Serif" font-size="10.00"> </text>
</a>
</g>
</g>
<!-- Node5&#45;&gt;Node3 -->
<g id="edge4" class="edge"><title>Node5&#45;&gt;Node3</title>
<path fill="none" stroke="orange" d="M534.778,-693.434C453.745,-682.178 302,-658.773 175.5,-626 172.005,-625.095 168.445,-624.113 164.862,-623.077"/>
<polygon fill="orange" stroke="orange" points="534.396,-696.915 544.78,-694.812 535.351,-689.98 534.396,-696.915"/>
<text text-anchor="middle" x="339.5" y="-647" font-family="Helvetica,sans-Serif" font-size="10.00"> &lt; VectorType &gt;</text>
</g>
<!-- Node10 -->
<g id="node10" class="node"><title>Node10</title>
<polygon fill="white" stroke="#bfbfbf" points="738.5,-568.5 738.5,-625.5 864.5,-625.5 864.5,-568.5 738.5,-568.5"/>
<text text-anchor="middle" x="801.5" y="-613.5" font-family="Helvetica,sans-Serif" font-size="10.00">std::vector&lt; Triangle &gt;</text>
<polyline fill="none" stroke="#bfbfbf" points="738.5,-606.5 864.5,-606.5 "/>
<text text-anchor="middle" x="801.5" y="-594.5" font-family="Helvetica,sans-Serif" font-size="10.00"> </text>
<polyline fill="none" stroke="#bfbfbf" points="738.5,-587.5 864.5,-587.5 "/>
<text text-anchor="middle" x="801.5" y="-575.5" font-family="Helvetica,sans-Serif" font-size="10.00"> </text>
</g>
<!-- Node5&#45;&gt;Node10 -->
<g id="edge12" class="edge"><title>Node5&#45;&gt;Node10</title>
<path fill="none" stroke="orange" d="M642.436,-667.74C658.056,-657.62 673.332,-648.089 681.5,-644 701.873,-633.799 708.216,-634.129 729.5,-626 732.382,-624.899 735.327,-623.771 738.301,-622.627"/>
<polygon fill="orange" stroke="orange" points="640.231,-664.999 633.765,-673.392 644.054,-670.863 640.231,-664.999"/>
<text text-anchor="middle" x="712.5" y="-647" font-family="Helvetica,sans-Serif" font-size="10.00"> &lt; Triangle &gt;</text>
</g>
<!-- Node12 -->
<g id="node12" class="node"><title>Node12</title>
<polygon fill="white" stroke="#bfbfbf" points="379.5,-303.5 379.5,-360.5 507.5,-360.5 507.5,-303.5 379.5,-303.5"/>
<text text-anchor="middle" x="443.5" y="-348.5" font-family="Helvetica,sans-Serif" font-size="10.00">std::vector&lt; KdNode &gt;</text>
<polyline fill="none" stroke="#bfbfbf" points="379.5,-341.5 507.5,-341.5 "/>
<text text-anchor="middle" x="443.5" y="-329.5" font-family="Helvetica,sans-Serif" font-size="10.00"> </text>
<polyline fill="none" stroke="#bfbfbf" points="379.5,-322.5 507.5,-322.5 "/>
<text text-anchor="middle" x="443.5" y="-310.5" font-family="Helvetica,sans-Serif" font-size="10.00"> </text>
</g>
<!-- Node5&#45;&gt;Node12 -->
<g id="edge20" class="edge"><title>Node5&#45;&gt;Node12</title>
<path fill="none" stroke="orange" d="M590.227,-663.035C584.641,-598.657 565.503,-466.554 500.5,-379 495.573,-372.363 489.473,-366.132 483.114,-360.527"/>
<polygon fill="orange" stroke="orange" points="586.749,-663.45 591.04,-673.137 593.727,-662.889 586.749,-663.45"/>
<text text-anchor="middle" x="604.5" y="-531" font-family="Helvetica,sans-Serif" font-size="10.00"> &lt; KdNode &gt;</text>
</g>
<!-- Node14 -->
<g id="node14" class="node"><title>Node14</title>
<polygon fill="white" stroke="#bfbfbf" points="604.5,-568.5 604.5,-625.5 720.5,-625.5 720.5,-568.5 604.5,-568.5"/>
<text text-anchor="middle" x="662.5" y="-613.5" font-family="Helvetica,sans-Serif" font-size="10.00">std::vector&lt; Index &gt;</text>
<polyline fill="none" stroke="#bfbfbf" points="604.5,-606.5 720.5,-606.5 "/>
<text text-anchor="middle" x="662.5" y="-594.5" font-family="Helvetica,sans-Serif" font-size="10.00"> </text>
<polyline fill="none" stroke="#bfbfbf" points="604.5,-587.5 720.5,-587.5 "/>
<text text-anchor="middle" x="662.5" y="-575.5" font-family="Helvetica,sans-Serif" font-size="10.00"> </text>
</g>
<!-- Node5&#45;&gt;Node14 -->
<g id="edge19" class="edge"><title>Node5&#45;&gt;Node14</title>
<path fill="none" stroke="orange" d="M601.159,-663.46C603.596,-656.685 606.663,-649.905 610.5,-644 614.769,-637.43 620.222,-631.231 625.983,-625.638"/>
<polygon fill="orange" stroke="orange" points="597.731,-662.691 598.025,-673.282 604.399,-664.819 597.731,-662.691"/>
<text text-anchor="middle" x="636.5" y="-647" font-family="Helvetica,sans-Serif" font-size="10.00"> &lt; Index &gt;</text>
</g>
<!-- Node6 -->
<g id="node6" class="node"><title>Node6</title>
<polygon fill="white" stroke="#bfbfbf" points="578,-778.5 578,-835.5 607,-835.5 607,-778.5 578,-778.5"/>
<text text-anchor="middle" x="592.5" y="-823.5" font-family="Helvetica,sans-Serif" font-size="10.00">T</text>
<polyline fill="none" stroke="#bfbfbf" points="578,-816.5 607,-816.5 "/>
<text text-anchor="middle" x="592.5" y="-804.5" font-family="Helvetica,sans-Serif" font-size="10.00"> </text>
<polyline fill="none" stroke="#bfbfbf" points="578,-797.5 607,-797.5 "/>
<text text-anchor="middle" x="592.5" y="-785.5" font-family="Helvetica,sans-Serif" font-size="10.00"> </text>
</g>
<!-- Node6&#45;&gt;Node5 -->
<g id="edge5" class="edge"><title>Node6&#45;&gt;Node5</title>
<path fill="none" stroke="#404040" d="M592.5,-778.398C592.5,-767.545 592.5,-754.873 592.5,-743.049"/>
<polygon fill="none" stroke="#404040" points="592.5,-742.678 588.5,-736.678 592.5,-730.678 596.5,-736.678 592.5,-742.678"/>
<text text-anchor="middle" x="621" y="-752" font-family="Helvetica,sans-Serif" font-size="10.00"> +elements</text>
</g>
<!-- Node7 -->
<g id="node7" class="node"><title>Node7</title>
<g id="a_node7"><a xlink:href="structSuper4PCS_1_1TriangleKdTree_1_1QueryNode.html" target="_top" xlink:title="element of the stack ">
<polygon fill="white" stroke="black" points="194.5,-419.5 194.5,-498.5 338.5,-498.5 338.5,-419.5 194.5,-419.5"/>
<text text-anchor="start" x="202.5" y="-486.5" font-family="Helvetica,sans-Serif" font-size="10.00">Super4PCS::TriangleKdTree</text>
<text text-anchor="middle" x="266.5" y="-475.5" font-family="Helvetica,sans-Serif" font-size="10.00">&lt; _Index &gt;::QueryNode</text>
<polyline fill="none" stroke="black" points="194.5,-468.5 338.5,-468.5 "/>
<text text-anchor="middle" x="266.5" y="-456.5" font-family="Helvetica,sans-Serif" font-size="10.00"> </text>
<polyline fill="none" stroke="black" points="194.5,-449.5 338.5,-449.5 "/>
<text text-anchor="start" x="202.5" y="-437.5" font-family="Helvetica,sans-Serif" font-size="10.00">+ QueryNode()</text>
<text text-anchor="start" x="202.5" y="-426.5" font-family="Helvetica,sans-Serif" font-size="10.00">+ QueryNode()</text>
</a>
</g>
</g>
<!-- Node7&#45;&gt;Node1 -->
<g id="edge6" class="edge"><title>Node7&#45;&gt;Node1</title>
<path fill="none" stroke="#404040" d="M271.615,-419.406C272.321,-413.257 272.981,-406.96 273.5,-401 277.258,-357.819 280.12,-310.687 282.245,-267.97"/>
<polygon fill="none" stroke="#404040" points="282.256,-267.737 278.553,-261.55 282.839,-255.751 286.543,-261.939 282.256,-267.737"/>
<text text-anchor="middle" x="317.5" y="-329.5" font-family="Helvetica,sans-Serif" font-size="10.00"> #mNodeStack</text>
</g>
<!-- Node8 -->
<g id="node8" class="node"><title>Node8</title>
<polygon fill="white" stroke="#bfbfbf" points="311.5,-568.5 311.5,-625.5 349.5,-625.5 349.5,-568.5 311.5,-568.5"/>
<text text-anchor="middle" x="330.5" y="-613.5" font-family="Helvetica,sans-Serif" font-size="10.00">float</text>
<polyline fill="none" stroke="#bfbfbf" points="311.5,-606.5 349.5,-606.5 "/>
<text text-anchor="middle" x="330.5" y="-594.5" font-family="Helvetica,sans-Serif" font-size="10.00"> </text>
<polyline fill="none" stroke="#bfbfbf" points="311.5,-587.5 349.5,-587.5 "/>
<text text-anchor="middle" x="330.5" y="-575.5" font-family="Helvetica,sans-Serif" font-size="10.00"> </text>
</g>
<!-- Node8&#45;&gt;Node7 -->
<g id="edge7" class="edge"><title>Node8&#45;&gt;Node7</title>
<path fill="none" stroke="#404040" d="M311.223,-587.861C296.3,-580.409 276.677,-567.819 267.5,-550 261.365,-538.088 259.227,-524.058 259.098,-510.666"/>
<polygon fill="none" stroke="#404040" points="259.099,-510.619 255.295,-504.493 259.487,-498.625 263.291,-504.751 259.099,-510.619"/>
<text text-anchor="middle" x="279" y="-531" font-family="Helvetica,sans-Serif" font-size="10.00"> +sq</text>
</g>
<!-- Node13 -->
<g id="node13" class="node"><title>Node13</title>
<g id="a_node13"><a xlink:href="structSuper4PCS_1_1TriangleKdTree_1_1KdNode.html" target="_top" xlink:title="{Super4PCS::TriangleKdTree\l\&lt; _Index \&gt;::KdNode\n||}">
<polygon fill="white" stroke="black" points="360.5,-425 360.5,-493 504.5,-493 504.5,-425 360.5,-425"/>
<text text-anchor="start" x="368.5" y="-481" font-family="Helvetica,sans-Serif" font-size="10.00">Super4PCS::TriangleKdTree</text>
<text text-anchor="middle" x="432.5" y="-470" font-family="Helvetica,sans-Serif" font-size="10.00">&lt; _Index &gt;::KdNode</text>
<polyline fill="none" stroke="black" points="360.5,-463 504.5,-463 "/>
<text text-anchor="middle" x="432.5" y="-451" font-family="Helvetica,sans-Serif" font-size="10.00"> </text>
<polyline fill="none" stroke="black" points="360.5,-444 504.5,-444 "/>
<text text-anchor="middle" x="432.5" y="-432" font-family="Helvetica,sans-Serif" font-size="10.00"> </text>
</a>
</g>
</g>
<!-- Node8&#45;&gt;Node13 -->
<g id="edge15" class="edge"><title>Node8&#45;&gt;Node13</title>
<path fill="none" stroke="#404040" d="M349.88,-575.434C356.923,-567.659 364.794,-558.608 371.5,-550 375.114,-545.361 389.662,-523.915 403.644,-503.122"/>
<polygon fill="none" stroke="#404040" points="403.722,-503.006 403.746,-495.795 410.412,-493.043 410.388,-500.255 403.722,-503.006"/>
<text text-anchor="middle" x="422.5" y="-531" font-family="Helvetica,sans-Serif" font-size="10.00"> +splitValue</text>
</g>
<!-- Node9 -->
<g id="node9" class="node"><title>Node9</title>
<polygon fill="white" stroke="#bfbfbf" points="185,-568.5 185,-625.5 214,-625.5 214,-568.5 185,-568.5"/>
<text text-anchor="middle" x="199.5" y="-613.5" font-family="Helvetica,sans-Serif" font-size="10.00">int</text>
<polyline fill="none" stroke="#bfbfbf" points="185,-606.5 214,-606.5 "/>
<text text-anchor="middle" x="199.5" y="-594.5" font-family="Helvetica,sans-Serif" font-size="10.00"> </text>
<polyline fill="none" stroke="#bfbfbf" points="185,-587.5 214,-587.5 "/>
<text text-anchor="middle" x="199.5" y="-575.5" font-family="Helvetica,sans-Serif" font-size="10.00"> </text>
</g>
<!-- Node9&#45;&gt;Node1 -->
<g id="edge9" class="edge"><title>Node9&#45;&gt;Node1</title>
<path fill="none" stroke="#404040" d="M187.979,-568.366C172.254,-526.909 147.727,-446.298 163.5,-379 172.617,-340.099 188.729,-300.318 206.382,-264.26"/>
<polygon fill="none" stroke="#404040" points="206.546,-263.931 205.646,-256.777 211.904,-253.194 212.804,-260.349 206.546,-263.931"/>
<text text-anchor="middle" x="216.5" y="-393" font-family="Helvetica,sans-Serif" font-size="10.00"> #_nofTrianglesPerCell</text>
<text text-anchor="middle" x="216.5" y="-382" font-family="Helvetica,sans-Serif" font-size="10.00">#_maxDepth</text>
</g>
<!-- Node9&#45;&gt;Node7 -->
<g id="edge8" class="edge"><title>Node9&#45;&gt;Node7</title>
<path fill="none" stroke="#404040" d="M199.598,-568.438C200.63,-552.668 203.63,-532.918 211.5,-517 212.936,-514.095 214.574,-511.243 216.363,-508.457"/>
<polygon fill="none" stroke="#404040" points="216.394,-508.414 216.667,-501.208 223.423,-498.688 223.151,-505.894 216.394,-508.414"/>
<text text-anchor="middle" x="233.5" y="-531" font-family="Helvetica,sans-Serif" font-size="10.00"> +nodeId</text>
</g>
<!-- Node9&#45;&gt;Node13 -->
<g id="edge16" class="edge"><title>Node9&#45;&gt;Node13</title>
<path fill="none" stroke="#404040" d="M214.31,-591.496C233.742,-584.976 268.007,-571.302 290.5,-550 302.788,-538.363 297.016,-528.426 309.5,-517 310.025,-516.52 327.696,-508.273 349.487,-498.194"/>
<polygon fill="none" stroke="#404040" points="349.565,-498.158 353.335,-492.01 360.459,-493.125 356.69,-499.273 349.565,-498.158"/>
<text text-anchor="middle" x="338.5" y="-542" font-family="Helvetica,sans-Serif" font-size="10.00"> +leaf</text>
<text text-anchor="middle" x="338.5" y="-531" font-family="Helvetica,sans-Serif" font-size="10.00">+dim</text>
<text text-anchor="middle" x="338.5" y="-520" font-family="Helvetica,sans-Serif" font-size="10.00">+firstChildId</text>
</g>
<!-- Node10&#45;&gt;Node1 -->
<g id="edge10" class="edge"><title>Node10&#45;&gt;Node1</title>
<path fill="none" stroke="#404040" d="M785.153,-568.197C759.109,-525.118 705.213,-440.775 647.5,-379 567.003,-292.838 452.051,-219.384 373.851,-174.825"/>
<polygon fill="none" stroke="#404040" points="373.515,-174.635 366.324,-175.165 363.068,-168.73 370.26,-168.2 373.515,-174.635"/>
<text text-anchor="middle" x="698" y="-387.5" font-family="Helvetica,sans-Serif" font-size="10.00"> #mTriangles</text>
</g>
<!-- Node11 -->
<g id="node11" class="node"><title>Node11</title>
<polygon fill="white" stroke="#bfbfbf" points="823,-673.5 823,-730.5 876,-730.5 876,-673.5 823,-673.5"/>
<text text-anchor="middle" x="849.5" y="-718.5" font-family="Helvetica,sans-Serif" font-size="10.00">Triangle</text>
<polyline fill="none" stroke="#bfbfbf" points="823,-711.5 876,-711.5 "/>
<text text-anchor="middle" x="849.5" y="-699.5" font-family="Helvetica,sans-Serif" font-size="10.00"> </text>
<polyline fill="none" stroke="#bfbfbf" points="823,-692.5 876,-692.5 "/>
<text text-anchor="middle" x="849.5" y="-680.5" font-family="Helvetica,sans-Serif" font-size="10.00"> </text>
</g>
<!-- Node11&#45;&gt;Node10 -->
<g id="edge11" class="edge"><title>Node11&#45;&gt;Node10</title>
<path fill="none" stroke="#404040" d="M839.778,-673.405C836.206,-663.955 831.941,-653.399 827.5,-644 826.354,-641.574 825.13,-639.102 823.861,-636.626"/>
<polygon fill="none" stroke="#404040" points="823.772,-636.458 817.415,-633.053 818.114,-625.876 824.47,-629.281 823.772,-636.458"/>
<text text-anchor="middle" x="860" y="-647" font-family="Helvetica,sans-Serif" font-size="10.00"> +elements</text>
</g>
<!-- Node12&#45;&gt;Node1 -->
<g id="edge13" class="edge"><title>Node12&#45;&gt;Node1</title>
<path fill="none" stroke="#404040" d="M422.136,-303.336C408.447,-285.611 389.709,-261.348 370.563,-236.555"/>
<polygon fill="none" stroke="#404040" points="370.549,-236.538 363.716,-234.234 363.214,-227.04 370.047,-229.344 370.549,-236.538"/>
<text text-anchor="middle" x="432.5" y="-277" font-family="Helvetica,sans-Serif" font-size="10.00"> #mNodes</text>
</g>
<!-- Node13&#45;&gt;Node12 -->
<g id="edge14" class="edge"><title>Node13&#45;&gt;Node12</title>
<path fill="none" stroke="#404040" d="M435.419,-424.83C436.819,-408.923 438.507,-389.737 439.978,-373.024"/>
<polygon fill="none" stroke="#404040" points="440,-372.775 436.541,-366.448 441.052,-360.822 444.51,-367.149 440,-372.775"/>
<text text-anchor="middle" x="468" y="-387.5" font-family="Helvetica,sans-Serif" font-size="10.00"> +elements</text>
</g>
<!-- Node14&#45;&gt;Node1 -->
<g id="edge21" class="edge"><title>Node14&#45;&gt;Node1</title>
<path fill="none" stroke="#404040" d="M656.626,-568.365C652.897,-552.93 647.459,-533.534 640.5,-517 597.857,-415.684 589.238,-385.417 516.5,-303 475.099,-256.09 419.362,-213.414 373.243,-182.067"/>
<polygon fill="none" stroke="#404040" points="373.214,-182.048 366.003,-182.02 363.255,-175.353 370.467,-175.381 373.214,-182.048"/>
<text text-anchor="middle" x="616" y="-387.5" font-family="Helvetica,sans-Serif" font-size="10.00"> #mIndices</text>
</g>
<!-- Node14&#45;&gt;Node13 -->
<g id="edge17" class="edge"><title>Node14&#45;&gt;Node13</title>
<path fill="none" stroke="#404040" d="M604.471,-594.424C564.326,-590.533 511.803,-579.546 475.5,-550 467.529,-543.512 457.705,-523.691 449.46,-504.296"/>
<polygon fill="none" stroke="#404040" points="449.389,-504.123 443.403,-500.101 444.814,-493.03 450.799,-497.051 449.389,-504.123"/>
<text text-anchor="middle" x="516" y="-531" font-family="Helvetica,sans-Serif" font-size="10.00"> +triangleIndices</text>
</g>
<!-- Node15 -->
<g id="node15" class="node"><title>Node15</title>
<polygon fill="white" stroke="#bfbfbf" points="748.5,-673.5 748.5,-730.5 790.5,-730.5 790.5,-673.5 748.5,-673.5"/>
<text text-anchor="middle" x="769.5" y="-718.5" font-family="Helvetica,sans-Serif" font-size="10.00">Index</text>
<polyline fill="none" stroke="#bfbfbf" points="748.5,-711.5 790.5,-711.5 "/>
<text text-anchor="middle" x="769.5" y="-699.5" font-family="Helvetica,sans-Serif" font-size="10.00"> </text>
<polyline fill="none" stroke="#bfbfbf" points="748.5,-692.5 790.5,-692.5 "/>
<text text-anchor="middle" x="769.5" y="-680.5" font-family="Helvetica,sans-Serif" font-size="10.00"> </text>
</g>
<!-- Node15&#45;&gt;Node14 -->
<g id="edge18" class="edge"><title>Node15&#45;&gt;Node14</title>
<path fill="none" stroke="#404040" d="M763.149,-673.338C759.784,-663.243 754.787,-652.282 747.5,-644 742.554,-638.378 736.749,-633.319 730.536,-628.796"/>
<polygon fill="none" stroke="#404040" points="730.495,-628.769 723.284,-628.78 720.5,-622.128 727.711,-622.117 730.495,-628.769"/>
<text text-anchor="middle" x="784" y="-647" font-family="Helvetica,sans-Serif" font-size="10.00"> +elements</text>
</g>
</g>
</svg>
