<?xml version="1.0" encoding="UTF-8" standalone="no"?>
<!DOCTYPE svg PUBLIC "-//W3C//DTD SVG 1.1//EN"
 "http://www.w3.org/Graphics/SVG/1.1/DTD/svg11.dtd">
<!-- Generated by graphviz version 2.38.0 (20140413.2041)
 -->
<!-- Title: Ra::Core::TopologicalMesh::createAllPropsOnFaces Pages: 1 -->
<svg width="335pt" height="284pt"
 viewBox="0.00 0.00 335.00 284.00" xmlns="http://www.w3.org/2000/svg" xmlns:xlink="http://www.w3.org/1999/xlink">
<g id="graph0" class="graph" transform="scale(1 1) rotate(0) translate(4 280)">
<title>Ra::Core::TopologicalMesh::createAllPropsOnFaces</title>
<polygon fill="white" stroke="none" points="-4,4 -4,-280 331,-280 331,4 -4,4"/>
<!-- Node1 -->
<g id="node1" class="node"><title>Node1</title>
<polygon fill="#bfbfbf" stroke="black" points="0,-122.5 0,-152.5 140,-152.5 140,-122.5 0,-122.5"/>
<text text-anchor="start" x="8" y="-140.5" font-family="Helvetica,sans-Serif" font-size="10.00">Ra::Core::TopologicalMesh</text>
<text text-anchor="middle" x="70" y="-129.5" font-family="Helvetica,sans-Serif" font-size="10.00">::createAllPropsOnFaces</text>
</g>
<!-- Node2 -->
<g id="node2" class="node"><title>Node2</title>
<g id="a_node2"><a xlink:href="classRa_1_1Core_1_1TopologicalMesh.html#a604b1ee95758797b828eee7c5c5164cc" target="_top" xlink:title="Create a new property for normals on faces of mesh. ">
<polygon fill="white" stroke="black" points="176,-245.5 176,-275.5 327,-275.5 327,-245.5 176,-245.5"/>
<text text-anchor="start" x="184" y="-263.5" font-family="Helvetica,sans-Serif" font-size="10.00">Ra::Core::TopologicalMesh</text>
<text text-anchor="middle" x="251.5" y="-252.5" font-family="Helvetica,sans-Serif" font-size="10.00">::createNormalPropOnFaces</text>
</a>
</g>
</g>
<!-- Node1&#45;&gt;Node2 -->
<g id="edge1" class="edge"><title>Node1&#45;&gt;Node2</title>
<path fill="none" stroke="midnightblue" d="M83.3051,-152.788C101.44,-174.371 137.393,-213.681 176,-236.5 178.866,-238.194 181.866,-239.784 184.948,-241.273"/>
<polygon fill="midnightblue" stroke="midnightblue" points="183.825,-244.604 194.387,-245.447 186.656,-238.202 183.825,-244.604"/>
</g>
<!-- Node3 -->
<g id="node3" class="node"><title>Node3</title>
<g id="a_node3"><a xlink:href="classRa_1_1Core_1_1TopologicalMesh.html#a89fb68b4eb30634e1b30a4143d5caa7d" target="_top" xlink:title="Create a new property for each input properties of mesh on faces. ">
<polygon fill="white" stroke="black" points="181.5,-196.5 181.5,-226.5 321.5,-226.5 321.5,-196.5 181.5,-196.5"/>
<text text-anchor="start" x="189.5" y="-214.5" font-family="Helvetica,sans-Serif" font-size="10.00">Ra::Core::TopologicalMesh</text>
<text text-anchor="middle" x="251.5" y="-203.5" font-family="Helvetica,sans-Serif" font-size="10.00">::createPropsOnFaces</text>
</a>
</g>
</g>
<!-- Node1&#45;&gt;Node3 -->
<g id="edge2" class="edge"><title>Node1&#45;&gt;Node3</title>
<path fill="none" stroke="midnightblue" d="M99.9569,-152.568C120.79,-163.091 149.729,-177.067 176,-187.5 180.771,-189.395 185.757,-191.253 190.79,-193.045"/>
<polygon fill="midnightblue" stroke="midnightblue" points="189.888,-196.436 200.483,-196.399 192.177,-189.821 189.888,-196.436"/>
</g>
<!-- Node4 -->
<g id="node4" class="node"><title>Node4</title>
<g id="a_node4"><a xlink:href="classRa_1_1Core_1_1TopologicalMesh.html#aa1016df75edb65e69fcdec5465e49245" target="_top" xlink:title="Ra::Core::TopologicalMesh\l::getFloatPropsHandles">
<polygon fill="white" stroke="black" points="181.5,-147.5 181.5,-177.5 321.5,-177.5 321.5,-147.5 181.5,-147.5"/>
<text text-anchor="start" x="189.5" y="-165.5" font-family="Helvetica,sans-Serif" font-size="10.00">Ra::Core::TopologicalMesh</text>
<text text-anchor="middle" x="251.5" y="-154.5" font-family="Helvetica,sans-Serif" font-size="10.00">::getFloatPropsHandles</text>
</a>
</g>
</g>
<!-- Node1&#45;&gt;Node4 -->
<g id="edge3" class="edge"><title>Node1&#45;&gt;Node4</title>
<path fill="none" stroke="midnightblue" d="M140.143,-147.13C150.396,-148.558 161.029,-150.039 171.466,-151.492"/>
<polygon fill="midnightblue" stroke="midnightblue" points="171.006,-154.962 181.393,-152.875 171.971,-148.029 171.006,-154.962"/>
</g>
<!-- Node5 -->
<g id="node5" class="node"><title>Node5</title>
<g id="a_node5"><a xlink:href="classRa_1_1Core_1_1TopologicalMesh.html#acf1e58078add6e5cc9ce13b30fb3baf3" target="_top" xlink:title="Ra::Core::TopologicalMesh\l::getVector2PropsHandles">
<polygon fill="white" stroke="black" points="181,-98.5 181,-128.5 322,-128.5 322,-98.5 181,-98.5"/>
<text text-anchor="start" x="189" y="-116.5" font-family="Helvetica,sans-Serif" font-size="10.00">Ra::Core::TopologicalMesh</text>
<text text-anchor="middle" x="251.5" y="-105.5" font-family="Helvetica,sans-Serif" font-size="10.00">::getVector2PropsHandles</text>
</a>
</g>
</g>
<!-- Node1&#45;&gt;Node5 -->
<g id="edge4" class="edge"><title>Node1&#45;&gt;Node5</title>
<path fill="none" stroke="midnightblue" d="M140.143,-128.255C150.142,-126.918 160.503,-125.533 170.69,-124.171"/>
<polygon fill="midnightblue" stroke="midnightblue" points="171.352,-127.614 180.8,-122.819 170.424,-120.675 171.352,-127.614"/>
</g>
<!-- Node6 -->
<g id="node6" class="node"><title>Node6</title>
<g id="a_node6"><a xlink:href="classRa_1_1Core_1_1TopologicalMesh.html#a6865aee84eb0d92f6acc12081bf8a6f8" target="_top" xlink:title="Ra::Core::TopologicalMesh\l::getVector3PropsHandles">
<polygon fill="white" stroke="black" points="181,-49.5 181,-79.5 322,-79.5 322,-49.5 181,-49.5"/>
<text text-anchor="start" x="189" y="-67.5" font-family="Helvetica,sans-Serif" font-size="10.00">Ra::Core::TopologicalMesh</text>
<text text-anchor="middle" x="251.5" y="-56.5" font-family="Helvetica,sans-Serif" font-size="10.00">::getVector3PropsHandles</text>
</a>
</g>
</g>
<!-- Node1&#45;&gt;Node6 -->
<g id="edge5" class="edge"><title>Node1&#45;&gt;Node6</title>
<path fill="none" stroke="midnightblue" d="M101.873,-122.35C122.598,-112.437 150.648,-99.5166 176,-89.5 181.527,-87.3162 187.331,-85.1516 193.156,-83.0631"/>
<polygon fill="midnightblue" stroke="midnightblue" points="194.66,-86.2447 202.937,-79.63 192.342,-79.6398 194.66,-86.2447"/>
</g>
<!-- Node7 -->
<g id="node7" class="node"><title>Node7</title>
<g id="a_node7"><a xlink:href="classRa_1_1Core_1_1TopologicalMesh.html#a938483e7f6900eeb3914d662b9aac21c" target="_top" xlink:title="Ra::Core::TopologicalMesh\l::getVector4PropsHandles">
<polygon fill="white" stroke="black" points="181,-0.5 181,-30.5 322,-30.5 322,-0.5 181,-0.5"/>
<text text-anchor="start" x="189" y="-18.5" font-family="Helvetica,sans-Serif" font-size="10.00">Ra::Core::TopologicalMesh</text>
<text text-anchor="middle" x="251.5" y="-7.5" font-family="Helvetica,sans-Serif" font-size="10.00">::getVector4PropsHandles</text>
</a>
</g>
</g>
<!-- Node1&#45;&gt;Node7 -->
<g id="edge6" class="edge"><title>Node1&#45;&gt;Node7</title>
<path fill="none" stroke="midnightblue" d="M83.7178,-122.243C102.076,-101.115 137.993,-63.0141 176,-40.5 179.565,-38.388 183.334,-36.4252 187.206,-34.6059"/>
<polygon fill="midnightblue" stroke="midnightblue" points="188.608,-37.8131 196.386,-30.6189 185.819,-31.3926 188.608,-37.8131"/>
</g>
</g>
</svg>
