<?xml version="1.0" encoding="UTF-8" standalone="no"?>
<!DOCTYPE svg PUBLIC "-//W3C//DTD SVG 1.1//EN"
 "http://www.w3.org/Graphics/SVG/1.1/DTD/svg11.dtd">
<!-- Generated by graphviz version 2.38.0 (20140413.2041)
 -->
<!-- Title: Ra::Core::AttribHandle&lt; T &gt; Pages: 1 -->
<svg width="159pt" height="226pt"
 viewBox="0.00 0.00 159.00 226.00" xmlns="http://www.w3.org/2000/svg" xmlns:xlink="http://www.w3.org/1999/xlink">
<g id="graph0" class="graph" transform="scale(1 1) rotate(0) translate(4 222)">
<title>Ra::Core::AttribHandle&lt; T &gt;</title>
<polygon fill="white" stroke="none" points="-4,4 -4,-222 155,-222 155,4 -4,4"/>
<!-- Node1 -->
<g id="node1" class="node"><title>Node1</title>
<polygon fill="#bfbfbf" stroke="black" points="0,-138.5 0,-217.5 151,-217.5 151,-138.5 0,-138.5"/>
<text text-anchor="middle" x="75.5" y="-205.5" font-family="Helvetica,sans-Serif" font-size="10.00">Ra::Core::AttribHandle&lt; T &gt;</text>
<polyline fill="none" stroke="black" points="0,-198.5 151,-198.5 "/>
<text text-anchor="middle" x="75.5" y="-186.5" font-family="Helvetica,sans-Serif" font-size="10.00"> </text>
<polyline fill="none" stroke="black" points="0,-179.5 151,-179.5 "/>
<text text-anchor="start" x="8" y="-167.5" font-family="Helvetica,sans-Serif" font-size="10.00">+ operator==()</text>
<text text-anchor="start" x="8" y="-156.5" font-family="Helvetica,sans-Serif" font-size="10.00">+ idx()</text>
<text text-anchor="start" x="8" y="-145.5" font-family="Helvetica,sans-Serif" font-size="10.00">+ attribName()</text>
</g>
<!-- Node2 -->
<g id="node2" class="node"><title>Node2</title>
<g id="a_node2"><a xlink:href="classRa_1_1Core_1_1AttribHandle.html" target="_top" xlink:title="{Ra::Core::AttribHandle\l\&lt; Vector3 \&gt;\n||+ operator==()\l+ idx()\l+ attribName()\l}">
<polygon fill="white" stroke="black" points="14,-0.5 14,-90.5 137,-90.5 137,-0.5 14,-0.5"/>
<text text-anchor="start" x="22" y="-78.5" font-family="Helvetica,sans-Serif" font-size="10.00">Ra::Core::AttribHandle</text>
<text text-anchor="middle" x="75.5" y="-67.5" font-family="Helvetica,sans-Serif" font-size="10.00">&lt; Vector3 &gt;</text>
<polyline fill="none" stroke="black" points="14,-60.5 137,-60.5 "/>
<text text-anchor="middle" x="75.5" y="-48.5" font-family="Helvetica,sans-Serif" font-size="10.00"> </text>
<polyline fill="none" stroke="black" points="14,-41.5 137,-41.5 "/>
<text text-anchor="start" x="22" y="-29.5" font-family="Helvetica,sans-Serif" font-size="10.00">+ operator==()</text>
<text text-anchor="start" x="22" y="-18.5" font-family="Helvetica,sans-Serif" font-size="10.00">+ idx()</text>
<text text-anchor="start" x="22" y="-7.5" font-family="Helvetica,sans-Serif" font-size="10.00">+ attribName()</text>
</a>
</g>
</g>
<!-- Node1&#45;&gt;Node2 -->
<g id="edge1" class="edge"><title>Node1&#45;&gt;Node2</title>
<path fill="none" stroke="orange" d="M75.5,-128.161C75.5,-115.931 75.5,-102.879 75.5,-90.8791"/>
<polygon fill="orange" stroke="orange" points="72.0001,-128.199 75.5,-138.199 79.0001,-128.199 72.0001,-128.199"/>
<text text-anchor="middle" x="107" y="-112" font-family="Helvetica,sans-Serif" font-size="10.00"> &lt; Vector3 &gt;</text>
</g>
</g>
</svg>
