<?xml version="1.0" encoding="UTF-8" standalone="no"?>
<!DOCTYPE svg PUBLIC "-//W3C//DTD SVG 1.1//EN"
 "http://www.w3.org/Graphics/SVG/1.1/DTD/svg11.dtd">
<!-- Generated by graphviz version 2.38.0 (20140413.2041)
 -->
<!-- Title: Ra::Engine::RadiumEngine::loadFile Pages: 1 -->
<svg width="298pt" height="137pt"
 viewBox="0.00 0.00 298.00 137.00" xmlns="http://www.w3.org/2000/svg" xmlns:xlink="http://www.w3.org/1999/xlink">
<g id="graph0" class="graph" transform="scale(1 1) rotate(0) translate(4 133)">
<title>Ra::Engine::RadiumEngine::loadFile</title>
<polygon fill="white" stroke="none" points="-4,4 -4,-133 294,-133 294,4 -4,4"/>
<!-- Node1 -->
<g id="node1" class="node"><title>Node1</title>
<polygon fill="#bfbfbf" stroke="black" points="0,-49.5 0,-79.5 141,-79.5 141,-49.5 0,-49.5"/>
<text text-anchor="start" x="8" y="-67.5" font-family="Helvetica,sans-Serif" font-size="10.00">Ra::Engine::RadiumEngine</text>
<text text-anchor="middle" x="70.5" y="-56.5" font-family="Helvetica,sans-Serif" font-size="10.00">::loadFile</text>
</g>
<!-- Node2 -->
<g id="node2" class="node"><title>Node2</title>
<g id="a_node2"><a xlink:href="namespaceRa_1_1Core_1_1StringUtils.html#a30480ab8fa5ba3ac2824bf91bcddf7bf" target="_top" xlink:title="Ra::Core::StringUtils\l::getFileExt">
<polygon fill="white" stroke="black" points="177,-98.5 177,-128.5 290,-128.5 290,-98.5 177,-98.5"/>
<text text-anchor="start" x="185" y="-116.5" font-family="Helvetica,sans-Serif" font-size="10.00">Ra::Core::StringUtils</text>
<text text-anchor="middle" x="233.5" y="-105.5" font-family="Helvetica,sans-Serif" font-size="10.00">::getFileExt</text>
</a>
</g>
</g>
<!-- Node1&#45;&gt;Node2 -->
<g id="edge1" class="edge"><title>Node1&#45;&gt;Node2</title>
<path fill="none" stroke="midnightblue" d="M121.119,-79.6014C137.57,-84.6083 156.049,-90.2324 173.157,-95.439"/>
<polygon fill="midnightblue" stroke="midnightblue" points="172.459,-98.8851 183.045,-98.4484 174.497,-92.1884 172.459,-98.8851"/>
</g>
<!-- Node3 -->
<g id="node3" class="node"><title>Node3</title>
<g id="a_node3"><a xlink:href="namespaceRa_1_1Core_1_1StringUtils.html#a385372757aef49b430a523e860df4def" target="_top" xlink:title="Ra::Core::StringUtils\l::getBaseName">
<polygon fill="white" stroke="black" points="177,-49.5 177,-79.5 290,-79.5 290,-49.5 177,-49.5"/>
<text text-anchor="start" x="185" y="-67.5" font-family="Helvetica,sans-Serif" font-size="10.00">Ra::Core::StringUtils</text>
<text text-anchor="middle" x="233.5" y="-56.5" font-family="Helvetica,sans-Serif" font-size="10.00">::getBaseName</text>
</a>
</g>
</g>
<!-- Node1&#45;&gt;Node3 -->
<g id="edge2" class="edge"><title>Node1&#45;&gt;Node3</title>
<path fill="none" stroke="midnightblue" d="M141.181,-64.5C149.639,-64.5 158.26,-64.5 166.661,-64.5"/>
<polygon fill="midnightblue" stroke="midnightblue" points="166.772,-68.0001 176.772,-64.5 166.772,-61.0001 166.772,-68.0001"/>
</g>
<!-- Node4 -->
<g id="node4" class="node"><title>Node4</title>
<g id="a_node4"><a xlink:href="classRa_1_1Engine_1_1Entity.html#ae48596d95b5dcb605e046d12461959e6" target="_top" xlink:title="Ra::Engine::Entity\l::getComponents">
<polygon fill="white" stroke="black" points="183.5,-0.5 183.5,-30.5 283.5,-30.5 283.5,-0.5 183.5,-0.5"/>
<text text-anchor="start" x="191.5" y="-18.5" font-family="Helvetica,sans-Serif" font-size="10.00">Ra::Engine::Entity</text>
<text text-anchor="middle" x="233.5" y="-7.5" font-family="Helvetica,sans-Serif" font-size="10.00">::getComponents</text>
</a>
</g>
</g>
<!-- Node1&#45;&gt;Node4 -->
<g id="edge3" class="edge"><title>Node1&#45;&gt;Node4</title>
<path fill="none" stroke="midnightblue" d="M121.119,-49.3986C137.647,-44.3682 156.223,-38.7147 173.397,-33.4877"/>
<polygon fill="midnightblue" stroke="midnightblue" points="174.774,-36.7274 183.322,-30.4673 172.736,-30.0307 174.774,-36.7274"/>
</g>
</g>
</svg>
