<?xml version="1.0" encoding="UTF-8" standalone="no"?>
<!DOCTYPE svg PUBLIC "-//W3C//DTD SVG 1.1//EN"
 "http://www.w3.org/Graphics/SVG/1.1/DTD/svg11.dtd">
<!-- Generated by graphviz version 2.38.0 (20140413.2041)
 -->
<!-- Title: Ra::IO::AssimpHandleDataLoader::loadHandleComponentData Pages: 1 -->
<svg width="358pt" height="176pt"
 viewBox="0.00 0.00 358.00 176.00" xmlns="http://www.w3.org/2000/svg" xmlns:xlink="http://www.w3.org/1999/xlink">
<g id="graph0" class="graph" transform="scale(1 1) rotate(0) translate(4 172)">
<title>Ra::IO::AssimpHandleDataLoader::loadHandleComponentData</title>
<polygon fill="white" stroke="none" points="-4,4 -4,-172 354,-172 354,4 -4,4"/>
<!-- Node1 -->
<g id="node1" class="node"><title>Node1</title>
<polygon fill="#bfbfbf" stroke="black" points="0,-71.5 0,-101.5 189,-101.5 189,-71.5 0,-71.5"/>
<text text-anchor="start" x="8" y="-89.5" font-family="Helvetica,sans-Serif" font-size="10.00">Ra::IO::AssimpHandleData</text>
<text text-anchor="middle" x="94.5" y="-78.5" font-family="Helvetica,sans-Serif" font-size="10.00">Loader::loadHandleComponentData</text>
</g>
<!-- Node2 -->
<g id="node2" class="node"><title>Node2</title>
<g id="a_node2"><a xlink:href="classRa_1_1Asset_1_1HandleData.html#ace178af654bd9751e7cc0122cf7e7a34" target="_top" xlink:title="Ra::Asset::HandleData\l::needEndNodes">
<polygon fill="white" stroke="black" points="225,-137.5 225,-167.5 350,-167.5 350,-137.5 225,-137.5"/>
<text text-anchor="start" x="233" y="-155.5" font-family="Helvetica,sans-Serif" font-size="10.00">Ra::Asset::HandleData</text>
<text text-anchor="middle" x="287.5" y="-144.5" font-family="Helvetica,sans-Serif" font-size="10.00">::needEndNodes</text>
</a>
</g>
</g>
<!-- Node1&#45;&gt;Node2 -->
<g id="edge1" class="edge"><title>Node1&#45;&gt;Node2</title>
<path fill="none" stroke="midnightblue" d="M139.319,-101.642C167.223,-111.284 203.551,-123.837 233.133,-134.059"/>
<polygon fill="midnightblue" stroke="midnightblue" points="232.29,-137.471 242.885,-137.429 234.576,-130.855 232.29,-137.471"/>
</g>
<!-- Node3 -->
<g id="node3" class="node"><title>Node3</title>
<g id="a_node3"><a xlink:href="namespaceRa_1_1IO.html#aef6c50424873964fcea0008be55d4a34" target="_top" xlink:title="Ra::IO::assimpToCore">
<polygon fill="white" stroke="black" points="229,-99 229,-118 346,-118 346,-99 229,-99"/>
<text text-anchor="middle" x="287.5" y="-106" font-family="Helvetica,sans-Serif" font-size="10.00">Ra::IO::assimpToCore</text>
</a>
</g>
</g>
<!-- Node1&#45;&gt;Node3 -->
<g id="edge2" class="edge"><title>Node1&#45;&gt;Node3</title>
<path fill="none" stroke="midnightblue" d="M189.042,-97.2744C199.143,-98.438 209.274,-99.6049 218.982,-100.723"/>
<polygon fill="midnightblue" stroke="midnightblue" points="218.592,-104.201 228.927,-101.869 219.393,-97.2471 218.592,-104.201"/>
</g>
<!-- Node4 -->
<g id="node4" class="node"><title>Node4</title>
<g id="a_node4"><a xlink:href="classRa_1_1Asset_1_1HandleData.html#a5ba6a5c751773be688faae15b092359d" target="_top" xlink:title="Ra::Asset::HandleData\l::setComponents">
<polygon fill="white" stroke="black" points="225,-49.5 225,-79.5 350,-79.5 350,-49.5 225,-49.5"/>
<text text-anchor="start" x="233" y="-67.5" font-family="Helvetica,sans-Serif" font-size="10.00">Ra::Asset::HandleData</text>
<text text-anchor="middle" x="287.5" y="-56.5" font-family="Helvetica,sans-Serif" font-size="10.00">::setComponents</text>
</a>
</g>
</g>
<!-- Node1&#45;&gt;Node4 -->
<g id="edge3" class="edge"><title>Node1&#45;&gt;Node4</title>
<path fill="none" stroke="midnightblue" d="M189.042,-75.7256C197.71,-74.7271 206.4,-73.7262 214.826,-72.7557"/>
<polygon fill="midnightblue" stroke="midnightblue" points="215.419,-76.2106 224.953,-71.5892 214.618,-69.2565 215.419,-76.2106"/>
</g>
<!-- Node5 -->
<g id="node5" class="node"><title>Node5</title>
<g id="a_node5"><a xlink:href="classRa_1_1Asset_1_1HandleData.html#a713b25fdea78737ec5e664a6aabc9549" target="_top" xlink:title="NAME TABLE. ">
<polygon fill="white" stroke="black" points="225,-0.5 225,-30.5 350,-30.5 350,-0.5 225,-0.5"/>
<text text-anchor="start" x="233" y="-18.5" font-family="Helvetica,sans-Serif" font-size="10.00">Ra::Asset::HandleData</text>
<text text-anchor="middle" x="287.5" y="-7.5" font-family="Helvetica,sans-Serif" font-size="10.00">::setNameTable</text>
</a>
</g>
</g>
<!-- Node1&#45;&gt;Node5 -->
<g id="edge4" class="edge"><title>Node1&#45;&gt;Node5</title>
<path fill="none" stroke="midnightblue" d="M136.006,-71.4427C165.381,-60.5234 205.285,-45.6897 236.623,-34.0407"/>
<polygon fill="midnightblue" stroke="midnightblue" points="237.898,-37.3006 246.052,-30.5356 235.459,-30.7393 237.898,-37.3006"/>
</g>
</g>
</svg>
