<?xml version="1.0" encoding="UTF-8" standalone="no"?>
<!DOCTYPE svg PUBLIC "-//W3C//DTD SVG 1.1//EN"
 "http://www.w3.org/Graphics/SVG/1.1/DTD/svg11.dtd">
<!-- Generated by graphviz version 2.38.0 (20140413.2041)
 -->
<!-- Title: Ra::Core::Spline::Spline Pages: 1 -->
<svg width="431pt" height="28pt"
 viewBox="0.00 0.00 431.00 28.00" xmlns="http://www.w3.org/2000/svg" xmlns:xlink="http://www.w3.org/1999/xlink">
<g id="graph0" class="graph" transform="scale(1 1) rotate(0) translate(4 24)">
<title>Ra::Core::Spline::Spline</title>
<polygon fill="white" stroke="none" points="-4,4 -4,-24 427,-24 427,4 -4,4"/>
<!-- Node1 -->
<g id="node1" class="node"><title>Node1</title>
<polygon fill="#bfbfbf" stroke="black" points="0,-0.5 0,-19.5 128,-19.5 128,-0.5 0,-0.5"/>
<text text-anchor="middle" x="64" y="-7.5" font-family="Helvetica,sans-Serif" font-size="10.00">Ra::Core::Spline::Spline</text>
</g>
<!-- Node2 -->
<g id="node2" class="node"><title>Node2</title>
<g id="a_node2"><a xlink:href="classRa_1_1Core_1_1Spline.html#a28b1d348289fbf5a4355486c5140834e" target="_top" xlink:title="Evaluate position of the spline. ">
<polygon fill="white" stroke="black" points="164,-0.5 164,-19.5 265,-19.5 265,-0.5 164,-0.5"/>
<text text-anchor="middle" x="214.5" y="-7.5" font-family="Helvetica,sans-Serif" font-size="10.00">Ra::Core::Spline::f</text>
</a>
</g>
</g>
<!-- Node1&#45;&gt;Node2 -->
<g id="edge1" class="edge"><title>Node1&#45;&gt;Node2</title>
<path fill="none" stroke="midnightblue" d="M128.408,-10C136.815,-10 145.411,-10 153.753,-10"/>
<polygon fill="midnightblue" stroke="midnightblue" points="153.773,-13.5001 163.773,-10 153.773,-6.5001 153.773,-13.5001"/>
</g>
<!-- Node3 -->
<g id="node3" class="node"><title>Node3</title>
<g id="a_node3"><a xlink:href="namespaceRa_1_1Core_1_1Math.html#a43a856c00d750c5f5c28f362b5df8664" target="_top" xlink:title="Returns value v clamped between bounds min and max. ">
<polygon fill="white" stroke="black" points="301,-0.5 301,-19.5 423,-19.5 423,-0.5 301,-0.5"/>
<text text-anchor="middle" x="362" y="-7.5" font-family="Helvetica,sans-Serif" font-size="10.00">Ra::Core::Math::clamp</text>
</a>
</g>
</g>
<!-- Node2&#45;&gt;Node3 -->
<g id="edge2" class="edge"><title>Node2&#45;&gt;Node3</title>
<path fill="none" stroke="midnightblue" d="M265.166,-10C273.45,-10 282.179,-10 290.859,-10"/>
<polygon fill="midnightblue" stroke="midnightblue" points="290.996,-13.5001 300.996,-10 290.996,-6.5001 290.996,-13.5001"/>
</g>
</g>
</svg>
