<?xml version="1.0" encoding="UTF-8" standalone="no"?>
<!DOCTYPE svg PUBLIC "-//W3C//DTD SVG 1.1//EN"
 "http://www.w3.org/Graphics/SVG/1.1/DTD/svg11.dtd">
<!-- Generated by graphviz version 2.38.0 (20140413.2041)
 -->
<!-- Title: /home/travis/build/STORM&#45;IRIT/Radium&#45;Engine/src/Engine/Managers/ComponentMessenger/ComponentMessenger.hpp Pages: 1 -->
<svg width="1413pt" height="475pt"
 viewBox="0.00 0.00 1412.50 475.00" xmlns="http://www.w3.org/2000/svg" xmlns:xlink="http://www.w3.org/1999/xlink">
<g id="graph0" class="graph" transform="scale(1 1) rotate(0) translate(4 471)">
<title>/home/travis/build/STORM&#45;IRIT/Radium&#45;Engine/src/Engine/Managers/ComponentMessenger/ComponentMessenger.hpp</title>
<polygon fill="white" stroke="none" points="-4,4 -4,-471 1408.5,-471 1408.5,4 -4,4"/>
<!-- Node1 -->
<g id="node1" class="node"><title>Node1</title>
<polygon fill="#bfbfbf" stroke="black" points="319,-414.5 319,-466.5 550,-466.5 550,-414.5 319,-414.5"/>
<text text-anchor="start" x="327" y="-454.5" font-family="Helvetica,sans-Serif" font-size="10.00">/home/travis/build</text>
<text text-anchor="start" x="327" y="-443.5" font-family="Helvetica,sans-Serif" font-size="10.00">/STORM&#45;IRIT/Radium&#45;Engine</text>
<text text-anchor="start" x="327" y="-432.5" font-family="Helvetica,sans-Serif" font-size="10.00">/src/Engine/Managers/ComponentMessenger</text>
<text text-anchor="middle" x="434.5" y="-421.5" font-family="Helvetica,sans-Serif" font-size="10.00">/ComponentMessenger.hpp</text>
</g>
<!-- Node2 -->
<g id="node2" class="node"><title>Node2</title>
<g id="a_node2"><a xlink:href="RaEngine_8hpp.html" target="_top" xlink:title="Engine/RaEngine.hpp">
<polygon fill="white" stroke="black" points="58,-291.5 58,-310.5 175,-310.5 175,-291.5 58,-291.5"/>
<text text-anchor="middle" x="116.5" y="-298.5" font-family="Helvetica,sans-Serif" font-size="10.00">Engine/RaEngine.hpp</text>
</a>
</g>
</g>
<!-- Node1&#45;&gt;Node2 -->
<g id="edge1" class="edge"><title>Node1&#45;&gt;Node2</title>
<path fill="none" stroke="midnightblue" d="M318.744,-424.213C276.091,-415.121 228.665,-400.723 189.5,-378 163.627,-362.988 141.026,-336.151 128.071,-318.717"/>
<polygon fill="midnightblue" stroke="midnightblue" points="130.891,-316.643 122.209,-310.57 125.208,-320.731 130.891,-316.643"/>
</g>
<!-- Node6 -->
<g id="node6" class="node"><title>Node6</title>
<polygon fill="white" stroke="#bfbfbf" points="0,-0.5 0,-19.5 59,-19.5 59,-0.5 0,-0.5"/>
<text text-anchor="middle" x="29.5" y="-7.5" font-family="Helvetica,sans-Serif" font-size="10.00">iostream</text>
</g>
<!-- Node1&#45;&gt;Node6 -->
<g id="edge9" class="edge"><title>Node1&#45;&gt;Node6</title>
<path fill="none" stroke="midnightblue" d="M318.985,-423.227C199.278,-403.03 29.5,-363.538 29.5,-302 29.5,-302 29.5,-302 29.5,-121 29.5,-88.948 29.5,-51.6426 29.5,-29.7489"/>
<polygon fill="midnightblue" stroke="midnightblue" points="33.0001,-29.5577 29.5,-19.5578 26.0001,-29.5578 33.0001,-29.5577"/>
</g>
<!-- Node9 -->
<g id="node9" class="node"><title>Node9</title>
<polygon fill="white" stroke="#bfbfbf" points="145,-174 145,-193 208,-193 208,-174 145,-174"/>
<text text-anchor="middle" x="176.5" y="-181" font-family="Helvetica,sans-Serif" font-size="10.00">functional</text>
</g>
<!-- Node1&#45;&gt;Node9 -->
<g id="edge8" class="edge"><title>Node1&#45;&gt;Node9</title>
<path fill="none" stroke="midnightblue" d="M318.757,-428.545C283.649,-419.793 247.738,-404.505 222.5,-378 198.456,-352.749 183.72,-246.917 178.57,-203.356"/>
<polygon fill="midnightblue" stroke="midnightblue" points="182.031,-202.81 177.419,-193.272 175.076,-203.604 182.031,-202.81"/>
</g>
<!-- Node10 -->
<g id="node10" class="node"><title>Node10</title>
<polygon fill="white" stroke="#bfbfbf" points="232,-353 232,-372 289,-372 289,-353 232,-353"/>
<text text-anchor="middle" x="260.5" y="-360" font-family="Helvetica,sans-Serif" font-size="10.00">memory</text>
</g>
<!-- Node1&#45;&gt;Node10 -->
<g id="edge10" class="edge"><title>Node1&#45;&gt;Node10</title>
<path fill="none" stroke="midnightblue" d="M377.044,-414.404C347.637,-401.56 313.12,-386.484 289.323,-376.089"/>
<polygon fill="midnightblue" stroke="midnightblue" points="290.704,-372.873 280.139,-372.078 287.902,-379.288 290.704,-372.873"/>
</g>
<!-- Node11 -->
<g id="node11" class="node"><title>Node11</title>
<polygon fill="white" stroke="#bfbfbf" points="307,-353 307,-372 370,-372 370,-353 307,-353"/>
<text text-anchor="middle" x="338.5" y="-360" font-family="Helvetica,sans-Serif" font-size="10.00">typeindex</text>
</g>
<!-- Node1&#45;&gt;Node11 -->
<g id="edge11" class="edge"><title>Node1&#45;&gt;Node11</title>
<path fill="none" stroke="midnightblue" d="M402.8,-414.404C387.89,-402.601 370.599,-388.912 357.706,-378.705"/>
<polygon fill="midnightblue" stroke="midnightblue" points="359.578,-375.723 349.565,-372.26 355.233,-381.211 359.578,-375.723"/>
</g>
<!-- Node12 -->
<g id="node12" class="node"><title>Node12</title>
<polygon fill="white" stroke="#bfbfbf" points="388,-353 388,-372 481,-372 481,-353 388,-353"/>
<text text-anchor="middle" x="434.5" y="-360" font-family="Helvetica,sans-Serif" font-size="10.00">unordered_map</text>
</g>
<!-- Node1&#45;&gt;Node12 -->
<g id="edge12" class="edge"><title>Node1&#45;&gt;Node12</title>
<path fill="none" stroke="midnightblue" d="M434.5,-414.193C434.5,-403.765 434.5,-391.896 434.5,-382.266"/>
<polygon fill="midnightblue" stroke="midnightblue" points="438,-382.209 434.5,-372.209 431,-382.209 438,-382.209"/>
</g>
<!-- Node13 -->
<g id="node13" class="node"><title>Node13</title>
<polygon fill="white" stroke="#bfbfbf" points="499,-353 499,-372 546,-372 546,-353 499,-353"/>
<text text-anchor="middle" x="522.5" y="-360" font-family="Helvetica,sans-Serif" font-size="10.00">vector</text>
</g>
<!-- Node1&#45;&gt;Node13 -->
<g id="edge13" class="edge"><title>Node1&#45;&gt;Node13</title>
<path fill="none" stroke="midnightblue" d="M463.803,-414.193C477.321,-402.518 492.931,-389.037 504.653,-378.913"/>
<polygon fill="midnightblue" stroke="midnightblue" points="507.135,-381.394 512.416,-372.209 502.56,-376.096 507.135,-381.394"/>
</g>
<!-- Node14 -->
<g id="node14" class="node"><title>Node14</title>
<g id="a_node14"><a xlink:href="Singleton_8hpp.html" target="_top" xlink:title="Core/Utils/Singleton.hpp">
<polygon fill="white" stroke="black" points="1272.5,-235.5 1272.5,-254.5 1404.5,-254.5 1404.5,-235.5 1272.5,-235.5"/>
<text text-anchor="middle" x="1338.5" y="-242.5" font-family="Helvetica,sans-Serif" font-size="10.00">Core/Utils/Singleton.hpp</text>
</a>
</g>
</g>
<!-- Node1&#45;&gt;Node14 -->
<g id="edge14" class="edge"><title>Node1&#45;&gt;Node14</title>
<path fill="none" stroke="midnightblue" d="M550.038,-432.26C659.818,-423.985 829.103,-407.59 973.5,-378 1075.3,-357.139 1100.3,-347.732 1197.5,-311 1238.78,-295.402 1284.92,-273.174 1312.83,-259.173"/>
<polygon fill="midnightblue" stroke="midnightblue" points="1314.55,-262.222 1321.9,-254.588 1311.4,-255.975 1314.55,-262.222"/>
</g>
<!-- Node16 -->
<g id="node16" class="node"><title>Node16</title>
<g id="a_node16"><a xlink:href="Component_8hpp.html" target="_top" xlink:title="Engine/Component/Component.hpp">
<polygon fill="white" stroke="black" points="776.5,-353 776.5,-372 964.5,-372 964.5,-353 776.5,-353"/>
<text text-anchor="middle" x="870.5" y="-360" font-family="Helvetica,sans-Serif" font-size="10.00">Engine/Component/Component.hpp</text>
</a>
</g>
</g>
<!-- Node1&#45;&gt;Node16 -->
<g id="edge17" class="edge"><title>Node1&#45;&gt;Node16</title>
<path fill="none" stroke="midnightblue" d="M550.195,-419.333C634.422,-404.651 744.998,-385.377 811.747,-373.741"/>
<polygon fill="midnightblue" stroke="midnightblue" points="812.42,-377.177 821.671,-372.012 811.218,-370.281 812.42,-377.177"/>
</g>
<!-- Node33 -->
<g id="node33" class="node"><title>Node33</title>
<g id="a_node33"><a xlink:href="ComponentMessenger_8inl.html" target="_top" xlink:title="Engine/Managers/Component\lMessenger/ComponentMessenger.inl">
<polygon fill="white" stroke="black" points="564.5,-347.5 564.5,-377.5 758.5,-377.5 758.5,-347.5 564.5,-347.5"/>
<text text-anchor="start" x="572.5" y="-365.5" font-family="Helvetica,sans-Serif" font-size="10.00">Engine/Managers/Component</text>
<text text-anchor="middle" x="661.5" y="-354.5" font-family="Helvetica,sans-Serif" font-size="10.00">Messenger/ComponentMessenger.inl</text>
</a>
</g>
</g>
<!-- Node1&#45;&gt;Node33 -->
<g id="edge44" class="edge"><title>Node1&#45;&gt;Node33</title>
<path fill="none" stroke="midnightblue" d="M503.066,-414.404C535.407,-403.363 573.522,-390.673 604.293,-380.725"/>
<polygon fill="midnightblue" stroke="midnightblue" points="605.563,-383.993 614.009,-377.597 603.417,-377.33 605.563,-383.993"/>
</g>
<!-- Node3 -->
<g id="node3" class="node"><title>Node3</title>
<g id="a_node3"><a xlink:href="CoreMacros_8hpp.html" target="_top" xlink:title="Core/CoreMacros.hpp">
<polygon fill="white" stroke="black" points="108.5,-56.5 108.5,-75.5 228.5,-75.5 228.5,-56.5 108.5,-56.5"/>
<text text-anchor="middle" x="168.5" y="-63.5" font-family="Helvetica,sans-Serif" font-size="10.00">Core/CoreMacros.hpp</text>
</a>
</g>
</g>
<!-- Node2&#45;&gt;Node3 -->
<g id="edge2" class="edge"><title>Node2&#45;&gt;Node3</title>
<path fill="none" stroke="midnightblue" d="M117.232,-291.255C119.128,-269.953 124.813,-213.769 135.5,-168 142.433,-138.307 154.171,-104.852 161.618,-84.8712"/>
<polygon fill="midnightblue" stroke="midnightblue" points="164.897,-86.0956 165.165,-75.5041 158.351,-83.6167 164.897,-86.0956"/>
</g>
<!-- Node4 -->
<g id="node4" class="node"><title>Node4</title>
<polygon fill="white" stroke="#bfbfbf" points="280.5,-0.5 280.5,-19.5 332.5,-19.5 332.5,-0.5 280.5,-0.5"/>
<text text-anchor="middle" x="306.5" y="-7.5" font-family="Helvetica,sans-Serif" font-size="10.00">cassert</text>
</g>
<!-- Node3&#45;&gt;Node4 -->
<g id="edge3" class="edge"><title>Node3&#45;&gt;Node4</title>
<path fill="none" stroke="midnightblue" d="M190.367,-56.4435C213.279,-47.4776 249.475,-33.314 275.366,-23.1827"/>
<polygon fill="midnightblue" stroke="midnightblue" points="276.699,-26.4198 284.736,-19.5164 274.148,-19.9011 276.699,-26.4198"/>
</g>
<!-- Node5 -->
<g id="node5" class="node"><title>Node5</title>
<polygon fill="white" stroke="#bfbfbf" points="77,-0.5 77,-19.5 122,-19.5 122,-0.5 77,-0.5"/>
<text text-anchor="middle" x="99.5" y="-7.5" font-family="Helvetica,sans-Serif" font-size="10.00">cstdio</text>
</g>
<!-- Node3&#45;&gt;Node5 -->
<g id="edge4" class="edge"><title>Node3&#45;&gt;Node5</title>
<path fill="none" stroke="midnightblue" d="M157.414,-56.324C147.014,-48.1849 131.239,-35.8395 118.778,-26.0874"/>
<polygon fill="midnightblue" stroke="midnightblue" points="120.82,-23.2407 110.788,-19.8339 116.506,-28.7533 120.82,-23.2407"/>
</g>
<!-- Node3&#45;&gt;Node6 -->
<g id="edge5" class="edge"><title>Node3&#45;&gt;Node6</title>
<path fill="none" stroke="midnightblue" d="M146.475,-56.4435C123.396,-47.4776 86.938,-33.314 60.8591,-23.1827"/>
<polygon fill="midnightblue" stroke="midnightblue" points="62.0107,-19.8753 51.4219,-19.5164 59.4758,-26.4002 62.0107,-19.8753"/>
</g>
<!-- Node7 -->
<g id="node7" class="node"><title>Node7</title>
<polygon fill="white" stroke="#bfbfbf" points="140.5,-0.5 140.5,-19.5 196.5,-19.5 196.5,-0.5 140.5,-0.5"/>
<text text-anchor="middle" x="168.5" y="-7.5" font-family="Helvetica,sans-Serif" font-size="10.00">sstream</text>
</g>
<!-- Node3&#45;&gt;Node7 -->
<g id="edge6" class="edge"><title>Node3&#45;&gt;Node7</title>
<path fill="none" stroke="midnightblue" d="M168.5,-56.083C168.5,-49.0059 168.5,-38.8611 168.5,-29.9865"/>
<polygon fill="midnightblue" stroke="midnightblue" points="172,-29.751 168.5,-19.7511 165,-29.7511 172,-29.751"/>
</g>
<!-- Node8 -->
<g id="node8" class="node"><title>Node8</title>
<polygon fill="white" stroke="#bfbfbf" points="214.5,-0.5 214.5,-19.5 262.5,-19.5 262.5,-0.5 214.5,-0.5"/>
<text text-anchor="middle" x="238.5" y="-7.5" font-family="Helvetica,sans-Serif" font-size="10.00">thread</text>
</g>
<!-- Node3&#45;&gt;Node8 -->
<g id="edge7" class="edge"><title>Node3&#45;&gt;Node8</title>
<path fill="none" stroke="midnightblue" d="M179.747,-56.324C190.297,-48.1849 206.301,-35.8395 218.942,-26.0874"/>
<polygon fill="midnightblue" stroke="midnightblue" points="221.269,-28.7132 227.049,-19.8339 216.993,-23.1707 221.269,-28.7132"/>
</g>
<!-- Node15 -->
<g id="node15" class="node"><title>Node15</title>
<g id="a_node15"><a xlink:href="RaCore_8hpp.html" target="_top" xlink:title="Core/RaCore.hpp">
<polygon fill="white" stroke="black" points="523.5,-112.5 523.5,-131.5 621.5,-131.5 621.5,-112.5 523.5,-112.5"/>
<text text-anchor="middle" x="572.5" y="-119.5" font-family="Helvetica,sans-Serif" font-size="10.00">Core/RaCore.hpp</text>
</a>
</g>
</g>
<!-- Node14&#45;&gt;Node15 -->
<g id="edge15" class="edge"><title>Node14&#45;&gt;Node15</title>
<path fill="none" stroke="midnightblue" d="M1338.92,-235.214C1339.17,-218.987 1337.09,-184.475 1316.5,-168 1263.55,-125.64 798.514,-122.479 631.719,-122.725"/>
<polygon fill="midnightblue" stroke="midnightblue" points="631.634,-119.225 621.641,-122.744 631.648,-126.225 631.634,-119.225"/>
</g>
<!-- Node15&#45;&gt;Node3 -->
<g id="edge16" class="edge"><title>Node15&#45;&gt;Node3</title>
<path fill="none" stroke="midnightblue" d="M523.366,-114.433C452.28,-104.931 320.37,-87.2995 238.94,-76.4153"/>
<polygon fill="midnightblue" stroke="midnightblue" points="239.153,-72.9127 228.778,-75.0569 238.226,-79.851 239.153,-72.9127"/>
</g>
<!-- Node16&#45;&gt;Node2 -->
<g id="edge18" class="edge"><title>Node16&#45;&gt;Node2</title>
<path fill="none" stroke="midnightblue" d="M815.263,-352.989C799.832,-350.812 783.035,-348.628 767.5,-347 555.925,-324.823 304.476,-310.969 185.482,-305.159"/>
<polygon fill="midnightblue" stroke="midnightblue" points="185.577,-301.66 175.419,-304.672 185.238,-308.652 185.577,-301.66"/>
</g>
<!-- Node17 -->
<g id="node17" class="node"><title>Node17</title>
<g id="a_node17"><a xlink:href="IndexedObject_8hpp.html" target="_top" xlink:title="Core/Index/IndexedObject.hpp">
<polygon fill="white" stroke="black" points="1028.5,-291.5 1028.5,-310.5 1188.5,-310.5 1188.5,-291.5 1028.5,-291.5"/>
<text text-anchor="middle" x="1108.5" y="-298.5" font-family="Helvetica,sans-Serif" font-size="10.00">Core/Index/IndexedObject.hpp</text>
</a>
</g>
</g>
<!-- Node16&#45;&gt;Node17 -->
<g id="edge19" class="edge"><title>Node16&#45;&gt;Node17</title>
<path fill="none" stroke="midnightblue" d="M904.6,-352.975C946.751,-342.437 1018.55,-324.486 1064.73,-312.941"/>
<polygon fill="midnightblue" stroke="midnightblue" points="1065.61,-316.33 1074.46,-310.509 1063.91,-309.539 1065.61,-316.33"/>
</g>
<!-- Node21 -->
<g id="node21" class="node"><title>Node21</title>
<g id="a_node21"><a xlink:href="LinearAlgebra_8hpp.html" target="_top" xlink:title="Core/Math/LinearAlgebra.hpp">
<polygon fill="white" stroke="black" points="566.5,-235.5 566.5,-254.5 722.5,-254.5 722.5,-235.5 566.5,-235.5"/>
<text text-anchor="middle" x="644.5" y="-242.5" font-family="Helvetica,sans-Serif" font-size="10.00">Core/Math/LinearAlgebra.hpp</text>
</a>
</g>
</g>
<!-- Node16&#45;&gt;Node21 -->
<g id="edge24" class="edge"><title>Node16&#45;&gt;Node21</title>
<path fill="none" stroke="midnightblue" d="M797.644,-352.936C762.461,-346.01 721.127,-333.515 689.5,-311 672.602,-298.971 659.973,-278.492 652.461,-263.732"/>
<polygon fill="midnightblue" stroke="midnightblue" points="655.565,-262.109 648.089,-254.601 649.251,-265.132 655.565,-262.109"/>
</g>
<!-- Node31 -->
<g id="node31" class="node"><title>Node31</title>
<g id="a_node31"><a xlink:href="Ray_8hpp.html" target="_top" xlink:title="Core/Math/Ray.hpp">
<polygon fill="white" stroke="black" points="698.5,-291.5 698.5,-310.5 804.5,-310.5 804.5,-291.5 698.5,-291.5"/>
<text text-anchor="middle" x="751.5" y="-298.5" font-family="Helvetica,sans-Serif" font-size="10.00">Core/Math/Ray.hpp</text>
</a>
</g>
</g>
<!-- Node16&#45;&gt;Node31 -->
<g id="edge38" class="edge"><title>Node16&#45;&gt;Node31</title>
<path fill="none" stroke="midnightblue" d="M853.45,-352.975C833.656,-343.078 800.783,-326.642 777.73,-315.115"/>
<polygon fill="midnightblue" stroke="midnightblue" points="779.028,-311.851 768.518,-310.509 775.897,-318.112 779.028,-311.851"/>
</g>
<!-- Node32 -->
<g id="node32" class="node"><title>Node32</title>
<g id="a_node32"><a xlink:href="Component_8inl.html" target="_top" xlink:title="Engine/Component/Component.inl">
<polygon fill="white" stroke="black" points="823,-291.5 823,-310.5 1004,-310.5 1004,-291.5 823,-291.5"/>
<text text-anchor="middle" x="913.5" y="-298.5" font-family="Helvetica,sans-Serif" font-size="10.00">Engine/Component/Component.inl</text>
</a>
</g>
</g>
<!-- Node16&#45;&gt;Node32 -->
<g id="edge42" class="edge"><title>Node16&#45;&gt;Node32</title>
<path fill="none" stroke="midnightblue" d="M871.76,-352.975C876.308,-343.962 886.343,-329.525 895.615,-318.312"/>
<polygon fill="midnightblue" stroke="midnightblue" points="898.495,-320.337 902.453,-310.509 893.23,-315.723 898.495,-320.337"/>
</g>
<!-- Node17&#45;&gt;Node15 -->
<g id="edge23" class="edge"><title>Node17&#45;&gt;Node15</title>
<path fill="none" stroke="midnightblue" d="M1108.87,-291.482C1109.41,-267.586 1107.3,-199.606 1068.5,-168 1035.28,-140.946 756.25,-128.811 631.896,-124.71"/>
<polygon fill="midnightblue" stroke="midnightblue" points="631.892,-121.208 621.784,-124.383 631.666,-128.204 631.892,-121.208"/>
</g>
<!-- Node18 -->
<g id="node18" class="node"><title>Node18</title>
<g id="a_node18"><a xlink:href="Index_8hpp.html" target="_top" xlink:title="Core/Index/Index.hpp">
<polygon fill="white" stroke="black" points="1137,-235.5 1137,-254.5 1254,-254.5 1254,-235.5 1137,-235.5"/>
<text text-anchor="middle" x="1195.5" y="-242.5" font-family="Helvetica,sans-Serif" font-size="10.00">Core/Index/Index.hpp</text>
</a>
</g>
</g>
<!-- Node17&#45;&gt;Node18 -->
<g id="edge20" class="edge"><title>Node17&#45;&gt;Node18</title>
<path fill="none" stroke="midnightblue" d="M1122.48,-291.324C1136.05,-282.9 1156.88,-269.971 1172.82,-260.074"/>
<polygon fill="midnightblue" stroke="midnightblue" points="1174.91,-262.902 1181.56,-254.655 1171.21,-256.954 1174.91,-262.902"/>
</g>
<!-- Node19 -->
<g id="node19" class="node"><title>Node19</title>
<polygon fill="white" stroke="#bfbfbf" points="1137.5,-174 1137.5,-193 1179.5,-193 1179.5,-174 1137.5,-174"/>
<text text-anchor="middle" x="1158.5" y="-181" font-family="Helvetica,sans-Serif" font-size="10.00">limits</text>
</g>
<!-- Node18&#45;&gt;Node19 -->
<g id="edge21" class="edge"><title>Node18&#45;&gt;Node19</title>
<path fill="none" stroke="midnightblue" d="M1190.2,-235.475C1184.76,-226.727 1176.14,-212.869 1169.26,-201.809"/>
<polygon fill="midnightblue" stroke="midnightblue" points="1172.04,-199.653 1163.79,-193.009 1166.1,-203.349 1172.04,-199.653"/>
</g>
<!-- Node20 -->
<g id="node20" class="node"><title>Node20</title>
<g id="a_node20"><a xlink:href="Index_8inl.html" target="_top" xlink:title="Core/Index/Index.inl">
<polygon fill="white" stroke="black" points="1197.5,-174 1197.5,-193 1307.5,-193 1307.5,-174 1197.5,-174"/>
<text text-anchor="middle" x="1252.5" y="-181" font-family="Helvetica,sans-Serif" font-size="10.00">Core/Index/Index.inl</text>
</a>
</g>
</g>
<!-- Node18&#45;&gt;Node20 -->
<g id="edge22" class="edge"><title>Node18&#45;&gt;Node20</title>
<path fill="none" stroke="midnightblue" d="M1203.67,-235.475C1212.39,-226.373 1226.4,-211.741 1237.19,-200.483"/>
<polygon fill="midnightblue" stroke="midnightblue" points="1239.96,-202.651 1244.35,-193.009 1234.9,-197.809 1239.96,-202.651"/>
</g>
<!-- Node21&#45;&gt;Node9 -->
<g id="edge29" class="edge"><title>Node21&#45;&gt;Node9</title>
<path fill="none" stroke="midnightblue" d="M566.469,-241.271C480.172,-236.987 337.464,-226.137 217.5,-199 214.26,-198.267 210.922,-197.358 207.617,-196.354"/>
<polygon fill="midnightblue" stroke="midnightblue" points="208.517,-192.966 197.924,-193.144 206.316,-199.611 208.517,-192.966"/>
</g>
<!-- Node21&#45;&gt;Node15 -->
<g id="edge25" class="edge"><title>Node21&#45;&gt;Node15</title>
<path fill="none" stroke="midnightblue" d="M630.16,-235.47C618.051,-227.527 601.182,-214.585 591.5,-199 580.642,-181.523 575.982,-158.162 573.986,-141.974"/>
<polygon fill="midnightblue" stroke="midnightblue" points="577.431,-141.243 572.953,-131.641 570.465,-141.94 577.431,-141.243"/>
</g>
<!-- Node22 -->
<g id="node22" class="node"><title>Node22</title>
<polygon fill="white" stroke="#bfbfbf" points="600.5,-174 600.5,-193 668.5,-193 668.5,-174 600.5,-174"/>
<text text-anchor="middle" x="634.5" y="-181" font-family="Helvetica,sans-Serif" font-size="10.00">Eigen/Core</text>
</g>
<!-- Node21&#45;&gt;Node22 -->
<g id="edge26" class="edge"><title>Node21&#45;&gt;Node22</title>
<path fill="none" stroke="midnightblue" d="M643.067,-235.475C641.656,-227.08 639.455,-213.981 637.637,-203.163"/>
<polygon fill="midnightblue" stroke="midnightblue" points="641.039,-202.291 635.93,-193.009 634.136,-203.451 641.039,-202.291"/>
</g>
<!-- Node23 -->
<g id="node23" class="node"><title>Node23</title>
<polygon fill="white" stroke="#bfbfbf" points="948.5,-174 948.5,-193 1042.5,-193 1042.5,-174 948.5,-174"/>
<text text-anchor="middle" x="995.5" y="-181" font-family="Helvetica,sans-Serif" font-size="10.00">Eigen/Geometry</text>
</g>
<!-- Node21&#45;&gt;Node23 -->
<g id="edge27" class="edge"><title>Node21&#45;&gt;Node23</title>
<path fill="none" stroke="midnightblue" d="M713.699,-235.474C773.707,-227.597 862.74,-214.75 939.5,-199 944.536,-197.967 949.797,-196.767 954.991,-195.509"/>
<polygon fill="midnightblue" stroke="midnightblue" points="955.973,-198.871 964.822,-193.045 954.272,-192.081 955.973,-198.871"/>
</g>
<!-- Node24 -->
<g id="node24" class="node"><title>Node24</title>
<polygon fill="white" stroke="#bfbfbf" points="686.5,-174 686.5,-193 766.5,-193 766.5,-174 686.5,-174"/>
<text text-anchor="middle" x="726.5" y="-181" font-family="Helvetica,sans-Serif" font-size="10.00">Eigen/Sparse</text>
</g>
<!-- Node21&#45;&gt;Node24 -->
<g id="edge28" class="edge"><title>Node21&#45;&gt;Node24</title>
<path fill="none" stroke="midnightblue" d="M656.249,-235.475C669.279,-226.02 690.536,-210.596 706.259,-199.187"/>
<polygon fill="midnightblue" stroke="midnightblue" points="708.735,-201.715 714.773,-193.009 704.624,-196.049 708.735,-201.715"/>
</g>
<!-- Node25 -->
<g id="node25" class="node"><title>Node25</title>
<polygon fill="white" stroke="#bfbfbf" points="785,-168.5 785,-198.5 930,-198.5 930,-168.5 785,-168.5"/>
<text text-anchor="start" x="793" y="-186.5" font-family="Helvetica,sans-Serif" font-size="10.00">unsupported/Eigen/Aligned</text>
<text text-anchor="middle" x="857.5" y="-175.5" font-family="Helvetica,sans-Serif" font-size="10.00">Vector3</text>
</g>
<!-- Node21&#45;&gt;Node25 -->
<g id="edge30" class="edge"><title>Node21&#45;&gt;Node25</title>
<path fill="none" stroke="midnightblue" d="M675.018,-235.475C706.899,-226.569 757.734,-212.369 797.663,-201.215"/>
<polygon fill="midnightblue" stroke="midnightblue" points="798.611,-204.584 807.3,-198.523 796.727,-197.843 798.611,-204.584"/>
</g>
<!-- Node26 -->
<g id="node26" class="node"><title>Node26</title>
<g id="a_node26"><a xlink:href="Math_8hpp.html" target="_top" xlink:title="Core/Math/Math.hpp">
<polygon fill="white" stroke="black" points="226.5,-174 226.5,-193 340.5,-193 340.5,-174 226.5,-174"/>
<text text-anchor="middle" x="283.5" y="-181" font-family="Helvetica,sans-Serif" font-size="10.00">Core/Math/Math.hpp</text>
</a>
</g>
</g>
<!-- Node21&#45;&gt;Node26 -->
<g id="edge31" class="edge"><title>Node21&#45;&gt;Node26</title>
<path fill="none" stroke="midnightblue" d="M592.778,-235.475C527.368,-224.694 414.882,-206.154 345.102,-194.653"/>
<polygon fill="midnightblue" stroke="midnightblue" points="345.563,-191.182 335.127,-193.009 344.424,-198.089 345.563,-191.182"/>
</g>
<!-- Node30 -->
<g id="node30" class="node"><title>Node30</title>
<g id="a_node30"><a xlink:href="LinearAlgebra_8inl.html" target="_top" xlink:title="Core/Math/LinearAlgebra.inl">
<polygon fill="white" stroke="black" points="396,-174 396,-193 545,-193 545,-174 396,-174"/>
<text text-anchor="middle" x="470.5" y="-181" font-family="Helvetica,sans-Serif" font-size="10.00">Core/Math/LinearAlgebra.inl</text>
</a>
</g>
</g>
<!-- Node21&#45;&gt;Node30 -->
<g id="edge37" class="edge"><title>Node21&#45;&gt;Node30</title>
<path fill="none" stroke="midnightblue" d="M619.57,-235.475C589.464,-225.18 538.668,-207.81 504.862,-196.25"/>
<polygon fill="midnightblue" stroke="midnightblue" points="505.978,-192.933 495.384,-193.009 503.713,-199.556 505.978,-192.933"/>
</g>
<!-- Node26&#45;&gt;Node15 -->
<g id="edge32" class="edge"><title>Node26&#45;&gt;Node15</title>
<path fill="none" stroke="midnightblue" d="M324.907,-173.975C376.626,-163.327 465.113,-145.109 521.109,-133.581"/>
<polygon fill="midnightblue" stroke="midnightblue" points="522.081,-136.954 531.17,-131.509 520.67,-130.098 522.081,-136.954"/>
</g>
<!-- Node27 -->
<g id="node27" class="node"><title>Node27</title>
<polygon fill="white" stroke="#bfbfbf" points="311.5,-112.5 311.5,-131.5 373.5,-131.5 373.5,-112.5 311.5,-112.5"/>
<text text-anchor="middle" x="342.5" y="-119.5" font-family="Helvetica,sans-Serif" font-size="10.00">algorithm</text>
</g>
<!-- Node26&#45;&gt;Node27 -->
<g id="edge33" class="edge"><title>Node26&#45;&gt;Node27</title>
<path fill="none" stroke="midnightblue" d="M291.953,-173.975C301.066,-164.785 315.77,-149.956 326.976,-138.656"/>
<polygon fill="midnightblue" stroke="midnightblue" points="329.507,-141.074 334.062,-131.509 324.536,-136.146 329.507,-141.074"/>
</g>
<!-- Node28 -->
<g id="node28" class="node"><title>Node28</title>
<polygon fill="white" stroke="#bfbfbf" points="392,-112.5 392,-131.5 439,-131.5 439,-112.5 392,-112.5"/>
<text text-anchor="middle" x="415.5" y="-119.5" font-family="Helvetica,sans-Serif" font-size="10.00">cmath</text>
</g>
<!-- Node26&#45;&gt;Node28 -->
<g id="edge34" class="edge"><title>Node26&#45;&gt;Node28</title>
<path fill="none" stroke="midnightblue" d="M302.412,-173.975C324.663,-163.945 361.812,-147.2 387.426,-135.655"/>
<polygon fill="midnightblue" stroke="midnightblue" points="388.944,-138.809 396.623,-131.509 386.068,-132.428 388.944,-138.809"/>
</g>
<!-- Node29 -->
<g id="node29" class="node"><title>Node29</title>
<g id="a_node29"><a xlink:href="Math_8inl.html" target="_top" xlink:title="Core/Math/Math.inl">
<polygon fill="white" stroke="black" points="187,-112.5 187,-131.5 294,-131.5 294,-112.5 187,-112.5"/>
<text text-anchor="middle" x="240.5" y="-119.5" font-family="Helvetica,sans-Serif" font-size="10.00">Core/Math/Math.inl</text>
</a>
</g>
</g>
<!-- Node26&#45;&gt;Node29 -->
<g id="edge35" class="edge"><title>Node26&#45;&gt;Node29</title>
<path fill="none" stroke="midnightblue" d="M272.439,-173.975C264.208,-165.227 253.762,-151.369 246.814,-140.309"/>
<polygon fill="midnightblue" stroke="midnightblue" points="249.772,-138.433 241.752,-131.509 243.704,-141.923 249.772,-138.433"/>
</g>
<!-- Node29&#45;&gt;Node26 -->
<g id="edge36" class="edge"><title>Node29&#45;&gt;Node26</title>
<path fill="none" stroke="midnightblue" d="M251.547,-131.509C259.774,-140.251 270.221,-154.108 277.174,-165.171"/>
<polygon fill="midnightblue" stroke="midnightblue" points="274.219,-167.053 282.24,-173.975 280.286,-163.562 274.219,-167.053"/>
</g>
<!-- Node31&#45;&gt;Node15 -->
<g id="edge39" class="edge"><title>Node31&#45;&gt;Node15</title>
<path fill="none" stroke="midnightblue" d="M796.466,-291.472C872.515,-276.035 1021.24,-241.12 1051.5,-199 1059.54,-187.811 1060.78,-178.188 1051.5,-168 1023.77,-137.543 754.396,-127.305 632.22,-124.21"/>
<polygon fill="midnightblue" stroke="midnightblue" points="632.005,-120.704 621.922,-123.957 631.833,-127.702 632.005,-120.704"/>
</g>
<!-- Node31&#45;&gt;Node21 -->
<g id="edge40" class="edge"><title>Node31&#45;&gt;Node21</title>
<path fill="none" stroke="midnightblue" d="M734.309,-291.324C717.149,-282.664 690.554,-269.242 670.753,-259.249"/>
<polygon fill="midnightblue" stroke="midnightblue" points="672.153,-256.035 661.649,-254.655 668.999,-262.285 672.153,-256.035"/>
</g>
<!-- Node31&#45;&gt;Node23 -->
<g id="edge41" class="edge"><title>Node31&#45;&gt;Node23</title>
<path fill="none" stroke="midnightblue" d="M769.84,-291.319C812.336,-271.203 917.744,-221.307 968,-197.518"/>
<polygon fill="midnightblue" stroke="midnightblue" points="969.739,-200.566 977.28,-193.124 966.744,-194.24 969.739,-200.566"/>
</g>
<!-- Node32&#45;&gt;Node16 -->
<g id="edge43" class="edge"><title>Node32&#45;&gt;Node16</title>
<path fill="none" stroke="midnightblue" d="M912.248,-310.509C907.706,-319.516 897.674,-333.952 888.401,-345.169"/>
<polygon fill="midnightblue" stroke="midnightblue" points="885.519,-343.147 881.561,-352.975 890.784,-347.76 885.519,-343.147"/>
</g>
<!-- Node33&#45;&gt;Node1 -->
<g id="edge45" class="edge"><title>Node33&#45;&gt;Node1</title>
<path fill="none" stroke="midnightblue" d="M624.779,-377.597C597.89,-387.021 560.27,-399.746 525.553,-411.208"/>
<polygon fill="midnightblue" stroke="midnightblue" points="524.252,-407.952 515.849,-414.404 526.442,-414.6 524.252,-407.952"/>
</g>
<!-- Node34 -->
<g id="node34" class="node"><title>Node34</title>
<g id="a_node34"><a xlink:href="StdUtils_8hpp.html" target="_top" xlink:title="Core/Utils/StdUtils.hpp">
<polygon fill="white" stroke="black" points="306,-235.5 306,-254.5 431,-254.5 431,-235.5 306,-235.5"/>
<text text-anchor="middle" x="368.5" y="-242.5" font-family="Helvetica,sans-Serif" font-size="10.00">Core/Utils/StdUtils.hpp</text>
</a>
</g>
</g>
<!-- Node33&#45;&gt;Node34 -->
<g id="edge46" class="edge"><title>Node33&#45;&gt;Node34</title>
<path fill="none" stroke="midnightblue" d="M625.865,-347.453C568.005,-324.645 454.582,-279.933 399.708,-258.302"/>
<polygon fill="midnightblue" stroke="midnightblue" points="400.757,-254.954 390.17,-254.542 398.19,-261.466 400.757,-254.954"/>
</g>
<!-- Node34&#45;&gt;Node9 -->
<g id="edge48" class="edge"><title>Node34&#45;&gt;Node9</title>
<path fill="none" stroke="midnightblue" d="M338.28,-235.478C307.697,-226.741 259.117,-212.551 217.5,-199 215.05,-198.202 212.525,-197.36 209.988,-196.498"/>
<polygon fill="midnightblue" stroke="midnightblue" points="210.874,-193.101 200.279,-193.137 208.584,-199.716 210.874,-193.101"/>
</g>
<!-- Node34&#45;&gt;Node15 -->
<g id="edge47" class="edge"><title>Node34&#45;&gt;Node15</title>
<path fill="none" stroke="midnightblue" d="M367.859,-235.34C367.203,-219.628 368.231,-186.357 386.5,-168 404.222,-150.192 465.924,-137.719 513.455,-130.493"/>
<polygon fill="midnightblue" stroke="midnightblue" points="513.98,-133.954 523.361,-129.031 512.957,-127.029 513.98,-133.954"/>
</g>
</g>
</svg>
