<?xml version="1.0" encoding="UTF-8" standalone="no"?>
<!DOCTYPE svg PUBLIC "-//W3C//DTD SVG 1.1//EN"
 "http://www.w3.org/Graphics/SVG/1.1/DTD/svg11.dtd">
<!-- Generated by graphviz version 2.38.0 (20140413.2041)
 -->
<!-- Title: /home/travis/build/STORM&#45;IRIT/Radium&#45;Engine/src/Engine/Component/Component.inl Pages: 1 -->
<svg width="1192pt" height="453pt"
 viewBox="0.00 0.00 1192.02 453.00" xmlns="http://www.w3.org/2000/svg" xmlns:xlink="http://www.w3.org/1999/xlink">
<g id="graph0" class="graph" transform="scale(1 1) rotate(0) translate(4 449)">
<title>/home/travis/build/STORM&#45;IRIT/Radium&#45;Engine/src/Engine/Component/Component.inl</title>
<polygon fill="white" stroke="none" points="-4,4 -4,-449 1188.02,-449 1188.02,4 -4,4"/>
<!-- Node1 -->
<g id="node1" class="node"><title>Node1</title>
<polygon fill="#bfbfbf" stroke="black" points="407.5,-403.5 407.5,-444.5 608.5,-444.5 608.5,-403.5 407.5,-403.5"/>
<text text-anchor="start" x="415.5" y="-432.5" font-family="Helvetica,sans-Serif" font-size="10.00">/home/travis/build</text>
<text text-anchor="start" x="415.5" y="-421.5" font-family="Helvetica,sans-Serif" font-size="10.00">/STORM&#45;IRIT/Radium&#45;Engine</text>
<text text-anchor="middle" x="508" y="-410.5" font-family="Helvetica,sans-Serif" font-size="10.00">/src/Engine/Component/Component.inl</text>
</g>
<!-- Node2 -->
<g id="node2" class="node"><title>Node2</title>
<g id="a_node2"><a xlink:href="Component_8hpp.html" target="_top" xlink:title="Engine/Component/Component.hpp">
<polygon fill="white" stroke="black" points="414,-347.5 414,-366.5 602,-366.5 602,-347.5 414,-347.5"/>
<text text-anchor="middle" x="508" y="-354.5" font-family="Helvetica,sans-Serif" font-size="10.00">Engine/Component/Component.hpp</text>
</a>
</g>
</g>
<!-- Node1&#45;&gt;Node2 -->
<g id="edge1" class="edge"><title>Node1&#45;&gt;Node2</title>
<path fill="none" stroke="midnightblue" d="M501.755,-403.498C501.057,-394.969 501.083,-385.011 501.833,-376.59"/>
<polygon fill="midnightblue" stroke="midnightblue" points="505.303,-377.044 503.236,-366.652 498.372,-376.065 505.303,-377.044"/>
</g>
<!-- Node2&#45;&gt;Node1 -->
<g id="edge33" class="edge"><title>Node2&#45;&gt;Node1</title>
<path fill="none" stroke="midnightblue" d="M512.764,-366.652C514.227,-373.524 514.881,-383.559 514.728,-393.263"/>
<polygon fill="midnightblue" stroke="midnightblue" points="511.221,-393.344 514.245,-403.498 518.213,-393.674 511.221,-393.344"/>
</g>
<!-- Node3 -->
<g id="node3" class="node"><title>Node3</title>
<g id="a_node3"><a xlink:href="RaEngine_8hpp.html" target="_top" xlink:title="Engine/RaEngine.hpp">
<polygon fill="white" stroke="black" points="920.5,-235.5 920.5,-254.5 1037.5,-254.5 1037.5,-235.5 920.5,-235.5"/>
<text text-anchor="middle" x="979" y="-242.5" font-family="Helvetica,sans-Serif" font-size="10.00">Engine/RaEngine.hpp</text>
</a>
</g>
</g>
<!-- Node2&#45;&gt;Node3 -->
<g id="edge2" class="edge"><title>Node2&#45;&gt;Node3</title>
<path fill="none" stroke="midnightblue" d="M544.567,-347.46C629.339,-327.662 839.163,-278.658 932.706,-256.812"/>
<polygon fill="midnightblue" stroke="midnightblue" points="933.515,-260.217 942.457,-254.535 931.923,-253.401 933.515,-260.217"/>
</g>
<!-- Node10 -->
<g id="node10" class="node"><title>Node10</title>
<g id="a_node10"><a xlink:href="IndexedObject_8hpp.html" target="_top" xlink:title="Core/Index/IndexedObject.hpp">
<polygon fill="white" stroke="black" points="137,-291.5 137,-310.5 297,-310.5 297,-291.5 137,-291.5"/>
<text text-anchor="middle" x="217" y="-298.5" font-family="Helvetica,sans-Serif" font-size="10.00">Core/Index/IndexedObject.hpp</text>
</a>
</g>
</g>
<!-- Node2&#45;&gt;Node10 -->
<g id="edge9" class="edge"><title>Node2&#45;&gt;Node10</title>
<path fill="none" stroke="midnightblue" d="M461.89,-347.444C410.594,-337.925 327.727,-322.547 272.809,-312.356"/>
<polygon fill="midnightblue" stroke="midnightblue" points="273.365,-308.9 262.894,-310.516 272.088,-315.782 273.365,-308.9"/>
</g>
<!-- Node15 -->
<g id="node15" class="node"><title>Node15</title>
<g id="a_node15"><a xlink:href="LinearAlgebra_8hpp.html" target="_top" xlink:title="Core/Math/LinearAlgebra.hpp">
<polygon fill="white" stroke="black" points="492,-235.5 492,-254.5 648,-254.5 648,-235.5 492,-235.5"/>
<text text-anchor="middle" x="570" y="-242.5" font-family="Helvetica,sans-Serif" font-size="10.00">Core/Math/LinearAlgebra.hpp</text>
</a>
</g>
</g>
<!-- Node2&#45;&gt;Node15 -->
<g id="edge15" class="edge"><title>Node2&#45;&gt;Node15</title>
<path fill="none" stroke="midnightblue" d="M512.865,-347.368C523.052,-329.296 546.791,-287.176 560.245,-263.307"/>
<polygon fill="midnightblue" stroke="midnightblue" points="563.296,-265.022 565.158,-254.591 557.198,-261.584 563.296,-265.022"/>
</g>
<!-- Node26 -->
<g id="node26" class="node"><title>Node26</title>
<g id="a_node26"><a xlink:href="Ray_8hpp.html" target="_top" xlink:title="Core/Math/Ray.hpp">
<polygon fill="white" stroke="black" points="409,-291.5 409,-310.5 515,-310.5 515,-291.5 409,-291.5"/>
<text text-anchor="middle" x="462" y="-298.5" font-family="Helvetica,sans-Serif" font-size="10.00">Core/Math/Ray.hpp</text>
</a>
</g>
</g>
<!-- Node2&#45;&gt;Node26 -->
<g id="edge29" class="edge"><title>Node2&#45;&gt;Node26</title>
<path fill="none" stroke="midnightblue" d="M500.404,-347.083C493.773,-339.298 483.979,-327.801 475.942,-318.367"/>
<polygon fill="midnightblue" stroke="midnightblue" points="478.604,-316.094 469.455,-310.751 473.275,-320.633 478.604,-316.094"/>
</g>
<!-- Node4 -->
<g id="node4" class="node"><title>Node4</title>
<g id="a_node4"><a xlink:href="CoreMacros_8hpp.html" target="_top" xlink:title="Core/CoreMacros.hpp">
<polygon fill="white" stroke="black" points="737,-56.5 737,-75.5 857,-75.5 857,-56.5 737,-56.5"/>
<text text-anchor="middle" x="797" y="-63.5" font-family="Helvetica,sans-Serif" font-size="10.00">Core/CoreMacros.hpp</text>
</a>
</g>
</g>
<!-- Node3&#45;&gt;Node4 -->
<g id="edge3" class="edge"><title>Node3&#45;&gt;Node4</title>
<path fill="none" stroke="midnightblue" d="M1037.87,-242.751C1074.84,-238.887 1121.04,-227.957 1151,-199 1179.53,-171.429 1197.33,-141.683 1171,-112 1151.21,-89.6856 969.708,-76.3228 867.016,-70.4849"/>
<polygon fill="midnightblue" stroke="midnightblue" points="867.208,-66.9903 857.028,-69.9267 866.817,-73.9794 867.208,-66.9903"/>
</g>
<!-- Node5 -->
<g id="node5" class="node"><title>Node5</title>
<polygon fill="white" stroke="#bfbfbf" points="634,-0.5 634,-19.5 686,-19.5 686,-0.5 634,-0.5"/>
<text text-anchor="middle" x="660" y="-7.5" font-family="Helvetica,sans-Serif" font-size="10.00">cassert</text>
</g>
<!-- Node4&#45;&gt;Node5 -->
<g id="edge4" class="edge"><title>Node4&#45;&gt;Node5</title>
<path fill="none" stroke="midnightblue" d="M775.292,-56.4435C752.645,-47.5171 716.928,-33.4387 691.248,-23.3168"/>
<polygon fill="midnightblue" stroke="midnightblue" points="692.193,-19.9273 681.606,-19.5164 689.626,-26.4397 692.193,-19.9273"/>
</g>
<!-- Node6 -->
<g id="node6" class="node"><title>Node6</title>
<polygon fill="white" stroke="#bfbfbf" points="704.5,-0.5 704.5,-19.5 749.5,-19.5 749.5,-0.5 704.5,-0.5"/>
<text text-anchor="middle" x="727" y="-7.5" font-family="Helvetica,sans-Serif" font-size="10.00">cstdio</text>
</g>
<!-- Node4&#45;&gt;Node6 -->
<g id="edge5" class="edge"><title>Node4&#45;&gt;Node6</title>
<path fill="none" stroke="midnightblue" d="M785.753,-56.324C775.203,-48.1849 759.199,-35.8395 746.558,-26.0874"/>
<polygon fill="midnightblue" stroke="midnightblue" points="748.507,-23.1707 738.451,-19.8339 744.231,-28.7132 748.507,-23.1707"/>
</g>
<!-- Node7 -->
<g id="node7" class="node"><title>Node7</title>
<polygon fill="white" stroke="#bfbfbf" points="767.5,-0.5 767.5,-19.5 826.5,-19.5 826.5,-0.5 767.5,-0.5"/>
<text text-anchor="middle" x="797" y="-7.5" font-family="Helvetica,sans-Serif" font-size="10.00">iostream</text>
</g>
<!-- Node4&#45;&gt;Node7 -->
<g id="edge6" class="edge"><title>Node4&#45;&gt;Node7</title>
<path fill="none" stroke="midnightblue" d="M797,-56.083C797,-49.0059 797,-38.8611 797,-29.9865"/>
<polygon fill="midnightblue" stroke="midnightblue" points="800.5,-29.751 797,-19.7511 793.5,-29.7511 800.5,-29.751"/>
</g>
<!-- Node8 -->
<g id="node8" class="node"><title>Node8</title>
<polygon fill="white" stroke="#bfbfbf" points="845,-0.5 845,-19.5 901,-19.5 901,-0.5 845,-0.5"/>
<text text-anchor="middle" x="873" y="-7.5" font-family="Helvetica,sans-Serif" font-size="10.00">sstream</text>
</g>
<!-- Node4&#45;&gt;Node8 -->
<g id="edge7" class="edge"><title>Node4&#45;&gt;Node8</title>
<path fill="none" stroke="midnightblue" d="M809.211,-56.324C820.776,-48.1066 838.375,-35.6017 852.161,-25.8069"/>
<polygon fill="midnightblue" stroke="midnightblue" points="854.443,-28.4791 860.567,-19.8339 850.388,-22.7729 854.443,-28.4791"/>
</g>
<!-- Node9 -->
<g id="node9" class="node"><title>Node9</title>
<polygon fill="white" stroke="#bfbfbf" points="919,-0.5 919,-19.5 967,-19.5 967,-0.5 919,-0.5"/>
<text text-anchor="middle" x="943" y="-7.5" font-family="Helvetica,sans-Serif" font-size="10.00">thread</text>
</g>
<!-- Node4&#45;&gt;Node9 -->
<g id="edge8" class="edge"><title>Node4&#45;&gt;Node9</title>
<path fill="none" stroke="midnightblue" d="M820.134,-56.4435C844.482,-47.4381 883.007,-33.1891 910.423,-23.049"/>
<polygon fill="midnightblue" stroke="midnightblue" points="911.809,-26.2681 919.974,-19.5164 909.381,-19.7028 911.809,-26.2681"/>
</g>
<!-- Node11 -->
<g id="node11" class="node"><title>Node11</title>
<g id="a_node11"><a xlink:href="Index_8hpp.html" target="_top" xlink:title="Core/Index/Index.hpp">
<polygon fill="white" stroke="black" points="71.5,-235.5 71.5,-254.5 188.5,-254.5 188.5,-235.5 71.5,-235.5"/>
<text text-anchor="middle" x="130" y="-242.5" font-family="Helvetica,sans-Serif" font-size="10.00">Core/Index/Index.hpp</text>
</a>
</g>
</g>
<!-- Node10&#45;&gt;Node11 -->
<g id="edge10" class="edge"><title>Node10&#45;&gt;Node11</title>
<path fill="none" stroke="midnightblue" d="M203.022,-291.324C189.45,-282.9 168.62,-269.971 152.675,-260.074"/>
<polygon fill="midnightblue" stroke="midnightblue" points="154.286,-256.954 143.943,-254.655 150.594,-262.902 154.286,-256.954"/>
</g>
<!-- Node14 -->
<g id="node14" class="node"><title>Node14</title>
<g id="a_node14"><a xlink:href="RaCore_8hpp.html" target="_top" xlink:title="Core/RaCore.hpp">
<polygon fill="white" stroke="black" points="356,-112.5 356,-131.5 454,-131.5 454,-112.5 356,-112.5"/>
<text text-anchor="middle" x="405" y="-119.5" font-family="Helvetica,sans-Serif" font-size="10.00">Core/RaCore.hpp</text>
</a>
</g>
</g>
<!-- Node10&#45;&gt;Node14 -->
<g id="edge13" class="edge"><title>Node10&#45;&gt;Node14</title>
<path fill="none" stroke="midnightblue" d="M217.606,-291.191C219.697,-267.708 228.64,-203.012 265,-168 286.702,-147.103 318.145,-135.909 345.737,-129.914"/>
<polygon fill="midnightblue" stroke="midnightblue" points="346.578,-133.315 355.703,-127.932 345.212,-126.45 346.578,-133.315"/>
</g>
<!-- Node12 -->
<g id="node12" class="node"><title>Node12</title>
<polygon fill="white" stroke="#bfbfbf" points="128,-174 128,-193 170,-193 170,-174 128,-174"/>
<text text-anchor="middle" x="149" y="-181" font-family="Helvetica,sans-Serif" font-size="10.00">limits</text>
</g>
<!-- Node11&#45;&gt;Node12 -->
<g id="edge11" class="edge"><title>Node11&#45;&gt;Node12</title>
<path fill="none" stroke="midnightblue" d="M132.722,-235.475C135.431,-226.992 139.674,-213.704 143.149,-202.822"/>
<polygon fill="midnightblue" stroke="midnightblue" points="146.575,-203.6 146.283,-193.009 139.907,-201.47 146.575,-203.6"/>
</g>
<!-- Node13 -->
<g id="node13" class="node"><title>Node13</title>
<g id="a_node13"><a xlink:href="Index_8inl.html" target="_top" xlink:title="Core/Index/Index.inl">
<polygon fill="white" stroke="black" points="0,-174 0,-193 110,-193 110,-174 0,-174"/>
<text text-anchor="middle" x="55" y="-181" font-family="Helvetica,sans-Serif" font-size="10.00">Core/Index/Index.inl</text>
</a>
</g>
</g>
<!-- Node11&#45;&gt;Node13 -->
<g id="edge12" class="edge"><title>Node11&#45;&gt;Node13</title>
<path fill="none" stroke="midnightblue" d="M119.254,-235.475C107.447,-226.108 88.257,-210.884 73.9177,-199.508"/>
<polygon fill="midnightblue" stroke="midnightblue" points="75.7351,-196.482 65.7257,-193.009 71.3846,-201.966 75.7351,-196.482"/>
</g>
<!-- Node14&#45;&gt;Node4 -->
<g id="edge14" class="edge"><title>Node14&#45;&gt;Node4</title>
<path fill="none" stroke="midnightblue" d="M454.25,-114.216C522.932,-104.754 647.866,-87.544 726.431,-76.7212"/>
<polygon fill="midnightblue" stroke="midnightblue" points="727.295,-80.1354 736.724,-75.3034 726.34,-73.2009 727.295,-80.1354"/>
</g>
<!-- Node15&#45;&gt;Node14 -->
<g id="edge16" class="edge"><title>Node15&#45;&gt;Node14</title>
<path fill="none" stroke="midnightblue" d="M491.958,-235.638C466.887,-229.262 440.98,-218.179 423,-199 408.684,-183.729 405.088,-159.239 404.489,-142.202"/>
<polygon fill="midnightblue" stroke="midnightblue" points="407.988,-141.792 404.459,-131.802 400.988,-141.812 407.988,-141.792"/>
</g>
<!-- Node16 -->
<g id="node16" class="node"><title>Node16</title>
<polygon fill="white" stroke="#bfbfbf" points="599,-174 599,-193 667,-193 667,-174 599,-174"/>
<text text-anchor="middle" x="633" y="-181" font-family="Helvetica,sans-Serif" font-size="10.00">Eigen/Core</text>
</g>
<!-- Node15&#45;&gt;Node16 -->
<g id="edge17" class="edge"><title>Node15&#45;&gt;Node16</title>
<path fill="none" stroke="midnightblue" d="M579.026,-235.475C588.757,-226.285 604.458,-211.456 616.423,-200.156"/>
<polygon fill="midnightblue" stroke="midnightblue" points="619.123,-202.42 623.99,-193.009 614.317,-197.331 619.123,-202.42"/>
</g>
<!-- Node17 -->
<g id="node17" class="node"><title>Node17</title>
<polygon fill="white" stroke="#bfbfbf" points="283,-174 283,-193 377,-193 377,-174 283,-174"/>
<text text-anchor="middle" x="330" y="-181" font-family="Helvetica,sans-Serif" font-size="10.00">Eigen/Geometry</text>
</g>
<!-- Node15&#45;&gt;Node17 -->
<g id="edge18" class="edge"><title>Node15&#45;&gt;Node17</title>
<path fill="none" stroke="midnightblue" d="M535.614,-235.475C493.109,-224.937 420.701,-206.986 374.134,-195.441"/>
<polygon fill="midnightblue" stroke="midnightblue" points="374.871,-192.018 364.322,-193.009 373.186,-198.813 374.871,-192.018"/>
</g>
<!-- Node18 -->
<g id="node18" class="node"><title>Node18</title>
<polygon fill="white" stroke="#bfbfbf" points="685,-174 685,-193 765,-193 765,-174 685,-174"/>
<text text-anchor="middle" x="725" y="-181" font-family="Helvetica,sans-Serif" font-size="10.00">Eigen/Sparse</text>
</g>
<!-- Node15&#45;&gt;Node18 -->
<g id="edge19" class="edge"><title>Node15&#45;&gt;Node18</title>
<path fill="none" stroke="midnightblue" d="M592.208,-235.475C618.681,-225.313 663.114,-208.256 693.22,-196.7"/>
<polygon fill="midnightblue" stroke="midnightblue" points="694.752,-199.86 702.833,-193.009 692.243,-193.325 694.752,-199.86"/>
</g>
<!-- Node19 -->
<g id="node19" class="node"><title>Node19</title>
<polygon fill="white" stroke="#bfbfbf" points="783.5,-174 783.5,-193 846.5,-193 846.5,-174 783.5,-174"/>
<text text-anchor="middle" x="815" y="-181" font-family="Helvetica,sans-Serif" font-size="10.00">functional</text>
</g>
<!-- Node15&#45;&gt;Node19 -->
<g id="edge20" class="edge"><title>Node15&#45;&gt;Node19</title>
<path fill="none" stroke="midnightblue" d="M616.18,-235.496C657.793,-227.436 720.474,-214.306 774,-199 776.79,-198.202 779.667,-197.317 782.541,-196.389"/>
<polygon fill="midnightblue" stroke="midnightblue" points="783.823,-199.65 792.175,-193.131 781.58,-193.019 783.823,-199.65"/>
</g>
<!-- Node20 -->
<g id="node20" class="node"><title>Node20</title>
<polygon fill="white" stroke="#bfbfbf" points="864.5,-168.5 864.5,-198.5 1009.5,-198.5 1009.5,-168.5 864.5,-168.5"/>
<text text-anchor="start" x="872.5" y="-186.5" font-family="Helvetica,sans-Serif" font-size="10.00">unsupported/Eigen/Aligned</text>
<text text-anchor="middle" x="937" y="-175.5" font-family="Helvetica,sans-Serif" font-size="10.00">Vector3</text>
</g>
<!-- Node15&#45;&gt;Node20 -->
<g id="edge21" class="edge"><title>Node15&#45;&gt;Node20</title>
<path fill="none" stroke="midnightblue" d="M626.493,-235.47C682.027,-227.005 769.469,-213.459 854.116,-199.299"/>
<polygon fill="midnightblue" stroke="midnightblue" points="854.872,-202.721 864.155,-197.615 853.714,-195.818 854.872,-202.721"/>
</g>
<!-- Node21 -->
<g id="node21" class="node"><title>Node21</title>
<g id="a_node21"><a xlink:href="Math_8hpp.html" target="_top" xlink:title="Core/Math/Math.hpp">
<polygon fill="white" stroke="black" points="1028,-174 1028,-193 1142,-193 1142,-174 1028,-174"/>
<text text-anchor="middle" x="1085" y="-181" font-family="Helvetica,sans-Serif" font-size="10.00">Core/Math/Math.hpp</text>
</a>
</g>
</g>
<!-- Node15&#45;&gt;Node21 -->
<g id="edge22" class="edge"><title>Node15&#45;&gt;Node21</title>
<path fill="none" stroke="midnightblue" d="M648.224,-238.933C738.093,-232.47 889.8,-219.595 1019,-199 1025.77,-197.921 1032.89,-196.578 1039.85,-195.149"/>
<polygon fill="midnightblue" stroke="midnightblue" points="1040.81,-198.522 1049.86,-193.014 1039.35,-191.676 1040.81,-198.522"/>
</g>
<!-- Node25 -->
<g id="node25" class="node"><title>Node25</title>
<g id="a_node25"><a xlink:href="LinearAlgebra_8inl.html" target="_top" xlink:title="Core/Math/LinearAlgebra.inl">
<polygon fill="white" stroke="black" points="432.5,-174 432.5,-193 581.5,-193 581.5,-174 432.5,-174"/>
<text text-anchor="middle" x="507" y="-181" font-family="Helvetica,sans-Serif" font-size="10.00">Core/Math/LinearAlgebra.inl</text>
</a>
</g>
</g>
<!-- Node15&#45;&gt;Node25 -->
<g id="edge28" class="edge"><title>Node15&#45;&gt;Node25</title>
<path fill="none" stroke="midnightblue" d="M560.974,-235.475C551.243,-226.285 535.542,-211.456 523.577,-200.156"/>
<polygon fill="midnightblue" stroke="midnightblue" points="525.683,-197.331 516.01,-193.009 520.877,-202.42 525.683,-197.331"/>
</g>
<!-- Node21&#45;&gt;Node14 -->
<g id="edge23" class="edge"><title>Node21&#45;&gt;Node14</title>
<path fill="none" stroke="midnightblue" d="M1050.58,-173.961C1040.46,-171.717 1029.33,-169.506 1019,-168 816.896,-138.548 574.41,-127.991 464.431,-124.532"/>
<polygon fill="midnightblue" stroke="midnightblue" points="464.31,-121.026 454.207,-124.219 464.095,-128.023 464.31,-121.026"/>
</g>
<!-- Node22 -->
<g id="node22" class="node"><title>Node22</title>
<polygon fill="white" stroke="#bfbfbf" points="1034,-112.5 1034,-131.5 1096,-131.5 1096,-112.5 1034,-112.5"/>
<text text-anchor="middle" x="1065" y="-119.5" font-family="Helvetica,sans-Serif" font-size="10.00">algorithm</text>
</g>
<!-- Node21&#45;&gt;Node22 -->
<g id="edge24" class="edge"><title>Node21&#45;&gt;Node22</title>
<path fill="none" stroke="midnightblue" d="M1082.13,-173.975C1079.28,-165.492 1074.82,-152.204 1071.16,-141.322"/>
<polygon fill="midnightblue" stroke="midnightblue" points="1074.36,-139.873 1067.86,-131.509 1067.73,-142.103 1074.36,-139.873"/>
</g>
<!-- Node23 -->
<g id="node23" class="node"><title>Node23</title>
<polygon fill="white" stroke="#bfbfbf" points="1114.5,-112.5 1114.5,-131.5 1161.5,-131.5 1161.5,-112.5 1114.5,-112.5"/>
<text text-anchor="middle" x="1138" y="-119.5" font-family="Helvetica,sans-Serif" font-size="10.00">cmath</text>
</g>
<!-- Node21&#45;&gt;Node23 -->
<g id="edge25" class="edge"><title>Node21&#45;&gt;Node23</title>
<path fill="none" stroke="midnightblue" d="M1092.59,-173.975C1100.7,-164.873 1113.73,-150.241 1123.76,-138.983"/>
<polygon fill="midnightblue" stroke="midnightblue" points="1126.38,-141.304 1130.42,-131.509 1121.16,-136.648 1126.38,-141.304"/>
</g>
<!-- Node24 -->
<g id="node24" class="node"><title>Node24</title>
<g id="a_node24"><a xlink:href="Math_8inl.html" target="_top" xlink:title="Core/Math/Math.inl">
<polygon fill="white" stroke="black" points="909.5,-112.5 909.5,-131.5 1016.5,-131.5 1016.5,-112.5 909.5,-112.5"/>
<text text-anchor="middle" x="963" y="-119.5" font-family="Helvetica,sans-Serif" font-size="10.00">Core/Math/Math.inl</text>
</a>
</g>
</g>
<!-- Node21&#45;&gt;Node24 -->
<g id="edge26" class="edge"><title>Node21&#45;&gt;Node24</title>
<path fill="none" stroke="midnightblue" d="M1062.62,-173.975C1040.27,-164.122 1006.5,-147.788 984.479,-136.27"/>
<polygon fill="midnightblue" stroke="midnightblue" points="986.021,-133.125 975.55,-131.509 982.728,-139.302 986.021,-133.125"/>
</g>
<!-- Node24&#45;&gt;Node21 -->
<g id="edge27" class="edge"><title>Node24&#45;&gt;Node21</title>
<path fill="none" stroke="midnightblue" d="M985.344,-131.509C1007.68,-141.355 1041.45,-157.688 1063.49,-169.212"/>
<polygon fill="midnightblue" stroke="midnightblue" points="1061.95,-172.36 1072.42,-173.975 1065.24,-166.182 1061.95,-172.36"/>
</g>
<!-- Node26&#45;&gt;Node14 -->
<g id="edge30" class="edge"><title>Node26&#45;&gt;Node14</title>
<path fill="none" stroke="midnightblue" d="M422.353,-291.447C377.349,-279.385 306.039,-252.582 274,-199 266.929,-187.175 265.995,-179.214 274,-168 290.415,-145.004 319.356,-133.638 345.867,-128.07"/>
<polygon fill="midnightblue" stroke="midnightblue" points="346.687,-131.477 355.878,-126.207 345.406,-124.596 346.687,-131.477"/>
</g>
<!-- Node26&#45;&gt;Node15 -->
<g id="edge31" class="edge"><title>Node26&#45;&gt;Node15</title>
<path fill="none" stroke="midnightblue" d="M479.352,-291.324C496.672,-282.664 523.515,-269.242 543.502,-259.249"/>
<polygon fill="midnightblue" stroke="midnightblue" points="545.312,-262.257 552.691,-254.655 542.181,-255.996 545.312,-262.257"/>
</g>
<!-- Node26&#45;&gt;Node17 -->
<g id="edge32" class="edge"><title>Node26&#45;&gt;Node17</title>
<path fill="none" stroke="midnightblue" d="M452.079,-291.319C429.909,-271.921 376.093,-224.831 347.9,-200.162"/>
<polygon fill="midnightblue" stroke="midnightblue" points="349.867,-197.233 340.037,-193.282 345.258,-202.501 349.867,-197.233"/>
</g>
</g>
</svg>
