<?xml version="1.0" encoding="UTF-8" standalone="no"?>
<!DOCTYPE svg PUBLIC "-//W3C//DTD SVG 1.1//EN"
 "http://www.w3.org/Graphics/SVG/1.1/DTD/svg11.dtd">
<!-- Generated by graphviz version 2.38.0 (20140413.2041)
 -->
<!-- Title: /home/travis/build/STORM&#45;IRIT/Radium&#45;Engine/src/Engine/Managers/ComponentMessenger/ComponentMessenger.inl Pages: 1 -->
<svg width="1448pt" height="520pt"
 viewBox="0.00 0.00 1448.00 520.00" xmlns="http://www.w3.org/2000/svg" xmlns:xlink="http://www.w3.org/1999/xlink">
<g id="graph0" class="graph" transform="scale(1 1) rotate(0) translate(4 516)">
<title>/home/travis/build/STORM&#45;IRIT/Radium&#45;Engine/src/Engine/Managers/ComponentMessenger/ComponentMessenger.inl</title>
<polygon fill="white" stroke="none" points="-4,4 -4,-516 1444,-516 1444,4 -4,4"/>
<!-- Node1 -->
<g id="node1" class="node"><title>Node1</title>
<polygon fill="#bfbfbf" stroke="black" points="794,-459.5 794,-511.5 1025,-511.5 1025,-459.5 794,-459.5"/>
<text text-anchor="start" x="802" y="-499.5" font-family="Helvetica,sans-Serif" font-size="10.00">/home/travis/build</text>
<text text-anchor="start" x="802" y="-488.5" font-family="Helvetica,sans-Serif" font-size="10.00">/STORM&#45;IRIT/Radium&#45;Engine</text>
<text text-anchor="start" x="802" y="-477.5" font-family="Helvetica,sans-Serif" font-size="10.00">/src/Engine/Managers/ComponentMessenger</text>
<text text-anchor="middle" x="909.5" y="-466.5" font-family="Helvetica,sans-Serif" font-size="10.00">/ComponentMessenger.inl</text>
</g>
<!-- Node2 -->
<g id="node2" class="node"><title>Node2</title>
<g id="a_node2"><a xlink:href="ComponentMessenger_8hpp.html" target="_top" xlink:title="ComponentMessenger.hpp">
<polygon fill="white" stroke="black" points="836.5,-403.5 836.5,-422.5 982.5,-422.5 982.5,-403.5 836.5,-403.5"/>
<text text-anchor="middle" x="909.5" y="-410.5" font-family="Helvetica,sans-Serif" font-size="10.00">ComponentMessenger.hpp</text>
</a>
</g>
</g>
<!-- Node1&#45;&gt;Node2 -->
<g id="edge1" class="edge"><title>Node1&#45;&gt;Node2</title>
<path fill="none" stroke="midnightblue" d="M903.007,-459.446C902.55,-450.63 902.702,-440.883 903.462,-432.684"/>
<polygon fill="midnightblue" stroke="midnightblue" points="906.939,-433.087 904.875,-422.695 900.008,-432.106 906.939,-433.087"/>
</g>
<!-- Node34 -->
<g id="node34" class="node"><title>Node34</title>
<g id="a_node34"><a xlink:href="StdUtils_8hpp.html" target="_top" xlink:title="Core/Utils/StdUtils.hpp">
<polygon fill="white" stroke="black" points="0,-235.5 0,-254.5 125,-254.5 125,-235.5 0,-235.5"/>
<text text-anchor="middle" x="62.5" y="-242.5" font-family="Helvetica,sans-Serif" font-size="10.00">Core/Utils/StdUtils.hpp</text>
</a>
</g>
</g>
<!-- Node1&#45;&gt;Node34 -->
<g id="edge46" class="edge"><title>Node1&#45;&gt;Node34</title>
<path fill="none" stroke="midnightblue" d="M793.927,-476.243C661.811,-463.933 440.806,-434.496 262.5,-367 190.728,-339.832 115.86,-286.778 81.6316,-260.904"/>
<polygon fill="midnightblue" stroke="midnightblue" points="83.5304,-257.95 73.4603,-254.657 79.2789,-263.511 83.5304,-257.95"/>
</g>
<!-- Node2&#45;&gt;Node1 -->
<g id="edge45" class="edge"><title>Node2&#45;&gt;Node1</title>
<path fill="none" stroke="midnightblue" d="M914.125,-422.695C915.542,-429.475 916.251,-439.371 916.25,-449.266"/>
<polygon fill="midnightblue" stroke="midnightblue" points="912.747,-449.36 915.993,-459.446 919.744,-449.538 912.747,-449.36"/>
</g>
<!-- Node3 -->
<g id="node3" class="node"><title>Node3</title>
<g id="a_node3"><a xlink:href="RaEngine_8hpp.html" target="_top" xlink:title="Engine/RaEngine.hpp">
<polygon fill="white" stroke="black" points="1126,-291.5 1126,-310.5 1243,-310.5 1243,-291.5 1126,-291.5"/>
<text text-anchor="middle" x="1184.5" y="-298.5" font-family="Helvetica,sans-Serif" font-size="10.00">Engine/RaEngine.hpp</text>
</a>
</g>
</g>
<!-- Node2&#45;&gt;Node3 -->
<g id="edge2" class="edge"><title>Node2&#45;&gt;Node3</title>
<path fill="none" stroke="midnightblue" d="M982.545,-407.497C1048.13,-401.994 1138.05,-390.362 1164.5,-367 1177.62,-355.415 1182.25,-335.456 1183.82,-320.703"/>
<polygon fill="midnightblue" stroke="midnightblue" points="1187.32,-320.88 1184.52,-310.661 1180.34,-320.394 1187.32,-320.88"/>
</g>
<!-- Node7 -->
<g id="node7" class="node"><title>Node7</title>
<polygon fill="white" stroke="#bfbfbf" points="1381,-0.5 1381,-19.5 1440,-19.5 1440,-0.5 1381,-0.5"/>
<text text-anchor="middle" x="1410.5" y="-7.5" font-family="Helvetica,sans-Serif" font-size="10.00">iostream</text>
</g>
<!-- Node2&#45;&gt;Node7 -->
<g id="edge10" class="edge"><title>Node2&#45;&gt;Node7</title>
<path fill="none" stroke="midnightblue" d="M982.618,-410.992C1121.67,-407.083 1410.5,-388.546 1410.5,-302 1410.5,-302 1410.5,-302 1410.5,-121 1410.5,-88.948 1410.5,-51.6426 1410.5,-29.7489"/>
<polygon fill="midnightblue" stroke="midnightblue" points="1414,-29.5577 1410.5,-19.5578 1407,-29.5578 1414,-29.5577"/>
</g>
<!-- Node10 -->
<g id="node10" class="node"><title>Node10</title>
<polygon fill="white" stroke="#bfbfbf" points="221,-174 221,-193 284,-193 284,-174 221,-174"/>
<text text-anchor="middle" x="252.5" y="-181" font-family="Helvetica,sans-Serif" font-size="10.00">functional</text>
</g>
<!-- Node2&#45;&gt;Node10 -->
<g id="edge9" class="edge"><title>Node2&#45;&gt;Node10</title>
<path fill="none" stroke="midnightblue" d="M836.336,-405.122C705.189,-391.745 436.32,-359.239 356.5,-311 333.125,-296.874 286.259,-232.702 264.327,-201.558"/>
<polygon fill="midnightblue" stroke="midnightblue" points="266.974,-199.235 258.375,-193.045 261.237,-203.246 266.974,-199.235"/>
</g>
<!-- Node11 -->
<g id="node11" class="node"><title>Node11</title>
<polygon fill="white" stroke="#bfbfbf" points="842,-347.5 842,-366.5 899,-366.5 899,-347.5 842,-347.5"/>
<text text-anchor="middle" x="870.5" y="-354.5" font-family="Helvetica,sans-Serif" font-size="10.00">memory</text>
</g>
<!-- Node2&#45;&gt;Node11 -->
<g id="edge11" class="edge"><title>Node2&#45;&gt;Node11</title>
<path fill="none" stroke="midnightblue" d="M903.06,-403.083C897.551,-395.455 889.469,-384.264 882.735,-374.941"/>
<polygon fill="midnightblue" stroke="midnightblue" points="885.513,-372.809 876.82,-366.751 879.838,-376.907 885.513,-372.809"/>
</g>
<!-- Node12 -->
<g id="node12" class="node"><title>Node12</title>
<polygon fill="white" stroke="#bfbfbf" points="917,-347.5 917,-366.5 980,-366.5 980,-347.5 917,-347.5"/>
<text text-anchor="middle" x="948.5" y="-354.5" font-family="Helvetica,sans-Serif" font-size="10.00">typeindex</text>
</g>
<!-- Node2&#45;&gt;Node12 -->
<g id="edge12" class="edge"><title>Node2&#45;&gt;Node12</title>
<path fill="none" stroke="midnightblue" d="M915.94,-403.083C921.449,-395.455 929.531,-384.264 936.265,-374.941"/>
<polygon fill="midnightblue" stroke="midnightblue" points="939.162,-376.907 942.18,-366.751 933.487,-372.809 939.162,-376.907"/>
</g>
<!-- Node13 -->
<g id="node13" class="node"><title>Node13</title>
<polygon fill="white" stroke="#bfbfbf" points="998,-347.5 998,-366.5 1091,-366.5 1091,-347.5 998,-347.5"/>
<text text-anchor="middle" x="1044.5" y="-354.5" font-family="Helvetica,sans-Serif" font-size="10.00">unordered_map</text>
</g>
<!-- Node2&#45;&gt;Node13 -->
<g id="edge13" class="edge"><title>Node2&#45;&gt;Node13</title>
<path fill="none" stroke="midnightblue" d="M930.891,-403.444C953.207,-394.517 988.403,-380.439 1013.71,-370.317"/>
<polygon fill="midnightblue" stroke="midnightblue" points="1015.22,-373.48 1023.21,-366.516 1012.62,-366.981 1015.22,-373.48"/>
</g>
<!-- Node14 -->
<g id="node14" class="node"><title>Node14</title>
<polygon fill="white" stroke="#bfbfbf" points="1109,-347.5 1109,-366.5 1156,-366.5 1156,-347.5 1109,-347.5"/>
<text text-anchor="middle" x="1132.5" y="-354.5" font-family="Helvetica,sans-Serif" font-size="10.00">vector</text>
</g>
<!-- Node2&#45;&gt;Node14 -->
<g id="edge14" class="edge"><title>Node2&#45;&gt;Node14</title>
<path fill="none" stroke="midnightblue" d="M947.084,-403.492C983.455,-395.171 1040.37,-381.92 1098.94,-367.078"/>
<polygon fill="midnightblue" stroke="midnightblue" points="1099.9,-370.444 1108.73,-364.585 1098.18,-363.66 1099.9,-370.444"/>
</g>
<!-- Node15 -->
<g id="node15" class="node"><title>Node15</title>
<g id="a_node15"><a xlink:href="Singleton_8hpp.html" target="_top" xlink:title="Core/Utils/Singleton.hpp">
<polygon fill="white" stroke="black" points="143.5,-235.5 143.5,-254.5 275.5,-254.5 275.5,-235.5 143.5,-235.5"/>
<text text-anchor="middle" x="209.5" y="-242.5" font-family="Helvetica,sans-Serif" font-size="10.00">Core/Utils/Singleton.hpp</text>
</a>
</g>
</g>
<!-- Node2&#45;&gt;Node15 -->
<g id="edge15" class="edge"><title>Node2&#45;&gt;Node15</title>
<path fill="none" stroke="midnightblue" d="M836.42,-410.296C682.589,-406.193 335.692,-394.036 289.5,-367 249.783,-343.754 226.004,-292.038 215.647,-264.344"/>
<polygon fill="midnightblue" stroke="midnightblue" points="218.87,-262.961 212.226,-254.708 212.273,-265.303 218.87,-262.961"/>
</g>
<!-- Node17 -->
<g id="node17" class="node"><title>Node17</title>
<g id="a_node17"><a xlink:href="Component_8hpp.html" target="_top" xlink:title="Engine/Component/Component.hpp">
<polygon fill="white" stroke="black" points="635.5,-347.5 635.5,-366.5 823.5,-366.5 823.5,-347.5 635.5,-347.5"/>
<text text-anchor="middle" x="729.5" y="-354.5" font-family="Helvetica,sans-Serif" font-size="10.00">Engine/Component/Component.hpp</text>
</a>
</g>
</g>
<!-- Node2&#45;&gt;Node17 -->
<g id="edge18" class="edge"><title>Node2&#45;&gt;Node17</title>
<path fill="none" stroke="midnightblue" d="M880.978,-403.444C850.434,-394.28 801.792,-379.688 767.897,-369.519"/>
<polygon fill="midnightblue" stroke="midnightblue" points="768.472,-366.038 757.888,-366.516 766.461,-372.742 768.472,-366.038"/>
</g>
<!-- Node4 -->
<g id="node4" class="node"><title>Node4</title>
<g id="a_node4"><a xlink:href="CoreMacros_8hpp.html" target="_top" xlink:title="Core/CoreMacros.hpp">
<polygon fill="white" stroke="black" points="1213.5,-56.5 1213.5,-75.5 1333.5,-75.5 1333.5,-56.5 1213.5,-56.5"/>
<text text-anchor="middle" x="1273.5" y="-63.5" font-family="Helvetica,sans-Serif" font-size="10.00">Core/CoreMacros.hpp</text>
</a>
</g>
</g>
<!-- Node3&#45;&gt;Node4 -->
<g id="edge3" class="edge"><title>Node3&#45;&gt;Node4</title>
<path fill="none" stroke="midnightblue" d="M1216.38,-291.473C1256.63,-278.798 1324.15,-250.729 1353.5,-199 1378.04,-155.752 1324.97,-105.85 1293.91,-81.6607"/>
<polygon fill="midnightblue" stroke="midnightblue" points="1295.91,-78.781 1285.82,-75.5468 1291.69,-84.3668 1295.91,-78.781"/>
</g>
<!-- Node5 -->
<g id="node5" class="node"><title>Node5</title>
<polygon fill="white" stroke="#bfbfbf" points="1247.5,-0.5 1247.5,-19.5 1299.5,-19.5 1299.5,-0.5 1247.5,-0.5"/>
<text text-anchor="middle" x="1273.5" y="-7.5" font-family="Helvetica,sans-Serif" font-size="10.00">cassert</text>
</g>
<!-- Node4&#45;&gt;Node5 -->
<g id="edge4" class="edge"><title>Node4&#45;&gt;Node5</title>
<path fill="none" stroke="midnightblue" d="M1273.5,-56.083C1273.5,-49.0059 1273.5,-38.8611 1273.5,-29.9865"/>
<polygon fill="midnightblue" stroke="midnightblue" points="1277,-29.751 1273.5,-19.7511 1270,-29.7511 1277,-29.751"/>
</g>
<!-- Node6 -->
<g id="node6" class="node"><title>Node6</title>
<polygon fill="white" stroke="#bfbfbf" points="1318,-0.5 1318,-19.5 1363,-19.5 1363,-0.5 1318,-0.5"/>
<text text-anchor="middle" x="1340.5" y="-7.5" font-family="Helvetica,sans-Serif" font-size="10.00">cstdio</text>
</g>
<!-- Node4&#45;&gt;Node6 -->
<g id="edge5" class="edge"><title>Node4&#45;&gt;Node6</title>
<path fill="none" stroke="midnightblue" d="M1284.26,-56.324C1294.27,-48.2631 1309.39,-36.0765 1321.43,-26.3695"/>
<polygon fill="midnightblue" stroke="midnightblue" points="1323.95,-28.8343 1329.54,-19.8339 1319.56,-23.3841 1323.95,-28.8343"/>
</g>
<!-- Node4&#45;&gt;Node7 -->
<g id="edge6" class="edge"><title>Node4&#45;&gt;Node7</title>
<path fill="none" stroke="midnightblue" d="M1295.21,-56.4435C1317.85,-47.5171 1353.57,-33.4387 1379.25,-23.3168"/>
<polygon fill="midnightblue" stroke="midnightblue" points="1380.87,-26.4397 1388.89,-19.5164 1378.31,-19.9273 1380.87,-26.4397"/>
</g>
<!-- Node8 -->
<g id="node8" class="node"><title>Node8</title>
<polygon fill="white" stroke="#bfbfbf" points="1107.5,-0.5 1107.5,-19.5 1163.5,-19.5 1163.5,-0.5 1107.5,-0.5"/>
<text text-anchor="middle" x="1135.5" y="-7.5" font-family="Helvetica,sans-Serif" font-size="10.00">sstream</text>
</g>
<!-- Node4&#45;&gt;Node8 -->
<g id="edge7" class="edge"><title>Node4&#45;&gt;Node8</title>
<path fill="none" stroke="midnightblue" d="M1251.63,-56.4435C1228.72,-47.4776 1192.52,-33.314 1166.63,-23.1827"/>
<polygon fill="midnightblue" stroke="midnightblue" points="1167.85,-19.9011 1157.26,-19.5164 1165.3,-26.4198 1167.85,-19.9011"/>
</g>
<!-- Node9 -->
<g id="node9" class="node"><title>Node9</title>
<polygon fill="white" stroke="#bfbfbf" points="1181.5,-0.5 1181.5,-19.5 1229.5,-19.5 1229.5,-0.5 1181.5,-0.5"/>
<text text-anchor="middle" x="1205.5" y="-7.5" font-family="Helvetica,sans-Serif" font-size="10.00">thread</text>
</g>
<!-- Node4&#45;&gt;Node9 -->
<g id="edge8" class="edge"><title>Node4&#45;&gt;Node9</title>
<path fill="none" stroke="midnightblue" d="M1262.57,-56.324C1252.33,-48.1849 1236.78,-35.8395 1224.5,-26.0874"/>
<polygon fill="midnightblue" stroke="midnightblue" points="1226.63,-23.3119 1216.62,-19.8339 1222.28,-28.7937 1226.63,-23.3119"/>
</g>
<!-- Node16 -->
<g id="node16" class="node"><title>Node16</title>
<g id="a_node16"><a xlink:href="RaCore_8hpp.html" target="_top" xlink:title="Core/RaCore.hpp">
<polygon fill="white" stroke="black" points="489.5,-112.5 489.5,-131.5 587.5,-131.5 587.5,-112.5 489.5,-112.5"/>
<text text-anchor="middle" x="538.5" y="-119.5" font-family="Helvetica,sans-Serif" font-size="10.00">Core/RaCore.hpp</text>
</a>
</g>
</g>
<!-- Node15&#45;&gt;Node16 -->
<g id="edge16" class="edge"><title>Node15&#45;&gt;Node16</title>
<path fill="none" stroke="midnightblue" d="M206.569,-235.422C201.848,-219.844 194.685,-186.783 211.5,-168 246.037,-129.421 394.76,-122.885 479.25,-122.377"/>
<polygon fill="midnightblue" stroke="midnightblue" points="479.485,-125.876 489.474,-122.343 479.462,-118.876 479.485,-125.876"/>
</g>
<!-- Node16&#45;&gt;Node4 -->
<g id="edge17" class="edge"><title>Node16&#45;&gt;Node4</title>
<path fill="none" stroke="midnightblue" d="M587.58,-117.394C714.714,-108.054 1055.12,-83.0444 1203.14,-72.1693"/>
<polygon fill="midnightblue" stroke="midnightblue" points="1203.74,-75.6346 1213.46,-71.4112 1203.23,-68.6534 1203.74,-75.6346"/>
</g>
<!-- Node17&#45;&gt;Node3 -->
<g id="edge19" class="edge"><title>Node17&#45;&gt;Node3</title>
<path fill="none" stroke="midnightblue" d="M801.345,-347.473C887.494,-337.249 1030.85,-320.235 1115.65,-310.171"/>
<polygon fill="midnightblue" stroke="midnightblue" points="1116.18,-313.634 1125.69,-308.979 1115.35,-306.682 1116.18,-313.634"/>
</g>
<!-- Node18 -->
<g id="node18" class="node"><title>Node18</title>
<g id="a_node18"><a xlink:href="IndexedObject_8hpp.html" target="_top" xlink:title="Core/Index/IndexedObject.hpp">
<polygon fill="white" stroke="black" points="365.5,-291.5 365.5,-310.5 525.5,-310.5 525.5,-291.5 365.5,-291.5"/>
<text text-anchor="middle" x="445.5" y="-298.5" font-family="Helvetica,sans-Serif" font-size="10.00">Core/Index/IndexedObject.hpp</text>
</a>
</g>
</g>
<!-- Node17&#45;&gt;Node18 -->
<g id="edge20" class="edge"><title>Node17&#45;&gt;Node18</title>
<path fill="none" stroke="midnightblue" d="M684.499,-347.444C634.541,-337.944 553.899,-322.611 500.301,-312.42"/>
<polygon fill="midnightblue" stroke="midnightblue" points="500.768,-308.946 490.29,-310.516 499.46,-315.823 500.768,-308.946"/>
</g>
<!-- Node22 -->
<g id="node22" class="node"><title>Node22</title>
<g id="a_node22"><a xlink:href="LinearAlgebra_8hpp.html" target="_top" xlink:title="Core/Math/LinearAlgebra.hpp">
<polygon fill="white" stroke="black" points="680.5,-235.5 680.5,-254.5 836.5,-254.5 836.5,-235.5 680.5,-235.5"/>
<text text-anchor="middle" x="758.5" y="-242.5" font-family="Helvetica,sans-Serif" font-size="10.00">Core/Math/LinearAlgebra.hpp</text>
</a>
</g>
</g>
<!-- Node17&#45;&gt;Node22 -->
<g id="edge25" class="edge"><title>Node17&#45;&gt;Node22</title>
<path fill="none" stroke="midnightblue" d="M717.494,-347.35C701.993,-335.062 678.266,-311.738 689.5,-291 697.249,-276.696 711.734,-266.219 725.44,-258.992"/>
<polygon fill="midnightblue" stroke="midnightblue" points="727.238,-262.01 734.712,-254.501 724.186,-255.71 727.238,-262.01"/>
</g>
<!-- Node32 -->
<g id="node32" class="node"><title>Node32</title>
<g id="a_node32"><a xlink:href="Ray_8hpp.html" target="_top" xlink:title="Core/Math/Ray.hpp">
<polygon fill="white" stroke="black" points="920.5,-291.5 920.5,-310.5 1026.5,-310.5 1026.5,-291.5 920.5,-291.5"/>
<text text-anchor="middle" x="973.5" y="-298.5" font-family="Helvetica,sans-Serif" font-size="10.00">Core/Math/Ray.hpp</text>
</a>
</g>
</g>
<!-- Node17&#45;&gt;Node32 -->
<g id="edge39" class="edge"><title>Node17&#45;&gt;Node32</title>
<path fill="none" stroke="midnightblue" d="M768.163,-347.444C810.638,-338.043 878.931,-322.929 924.974,-312.739"/>
<polygon fill="midnightblue" stroke="midnightblue" points="926.011,-316.095 935.018,-310.516 924.498,-309.26 926.011,-316.095"/>
</g>
<!-- Node33 -->
<g id="node33" class="node"><title>Node33</title>
<g id="a_node33"><a xlink:href="Component_8inl.html" target="_top" xlink:title="Engine/Component/Component.inl">
<polygon fill="white" stroke="black" points="699,-291.5 699,-310.5 880,-310.5 880,-291.5 699,-291.5"/>
<text text-anchor="middle" x="789.5" y="-298.5" font-family="Helvetica,sans-Serif" font-size="10.00">Engine/Component/Component.inl</text>
</a>
</g>
</g>
<!-- Node17&#45;&gt;Node33 -->
<g id="edge43" class="edge"><title>Node17&#45;&gt;Node33</title>
<path fill="none" stroke="midnightblue" d="M734.241,-347.083C741.603,-338.905 754.925,-326.631 766.772,-316.954"/>
<polygon fill="midnightblue" stroke="midnightblue" points="768.956,-319.688 774.646,-310.751 764.624,-314.19 768.956,-319.688"/>
</g>
<!-- Node18&#45;&gt;Node16 -->
<g id="edge24" class="edge"><title>Node18&#45;&gt;Node16</title>
<path fill="none" stroke="midnightblue" d="M427.603,-291.37C386.748,-270.548 293.022,-215.741 331.5,-168 349.766,-145.336 424.591,-133.495 479.043,-127.757"/>
<polygon fill="midnightblue" stroke="midnightblue" points="479.699,-131.209 489.297,-126.723 478.996,-124.244 479.699,-131.209"/>
</g>
<!-- Node19 -->
<g id="node19" class="node"><title>Node19</title>
<g id="a_node19"><a xlink:href="Index_8hpp.html" target="_top" xlink:title="Core/Index/Index.hpp">
<polygon fill="white" stroke="black" points="387,-235.5 387,-254.5 504,-254.5 504,-235.5 387,-235.5"/>
<text text-anchor="middle" x="445.5" y="-242.5" font-family="Helvetica,sans-Serif" font-size="10.00">Core/Index/Index.hpp</text>
</a>
</g>
</g>
<!-- Node18&#45;&gt;Node19 -->
<g id="edge21" class="edge"><title>Node18&#45;&gt;Node19</title>
<path fill="none" stroke="midnightblue" d="M445.5,-291.083C445.5,-284.006 445.5,-273.861 445.5,-264.986"/>
<polygon fill="midnightblue" stroke="midnightblue" points="449,-264.751 445.5,-254.751 442,-264.751 449,-264.751"/>
</g>
<!-- Node20 -->
<g id="node20" class="node"><title>Node20</title>
<polygon fill="white" stroke="#bfbfbf" points="340.5,-174 340.5,-193 382.5,-193 382.5,-174 340.5,-174"/>
<text text-anchor="middle" x="361.5" y="-181" font-family="Helvetica,sans-Serif" font-size="10.00">limits</text>
</g>
<!-- Node19&#45;&gt;Node20 -->
<g id="edge22" class="edge"><title>Node19&#45;&gt;Node20</title>
<path fill="none" stroke="midnightblue" d="M433.465,-235.475C419.992,-225.931 397.934,-210.307 381.785,-198.868"/>
<polygon fill="midnightblue" stroke="midnightblue" points="383.696,-195.933 373.513,-193.009 379.65,-201.645 383.696,-195.933"/>
</g>
<!-- Node21 -->
<g id="node21" class="node"><title>Node21</title>
<g id="a_node21"><a xlink:href="Index_8inl.html" target="_top" xlink:title="Core/Index/Index.inl">
<polygon fill="white" stroke="black" points="400.5,-174 400.5,-193 510.5,-193 510.5,-174 400.5,-174"/>
<text text-anchor="middle" x="455.5" y="-181" font-family="Helvetica,sans-Serif" font-size="10.00">Core/Index/Index.inl</text>
</a>
</g>
</g>
<!-- Node19&#45;&gt;Node21 -->
<g id="edge23" class="edge"><title>Node19&#45;&gt;Node21</title>
<path fill="none" stroke="midnightblue" d="M446.933,-235.475C448.344,-227.08 450.545,-213.981 452.363,-203.163"/>
<polygon fill="midnightblue" stroke="midnightblue" points="455.864,-203.451 454.07,-193.009 448.961,-202.291 455.864,-203.451"/>
</g>
<!-- Node22&#45;&gt;Node10 -->
<g id="edge30" class="edge"><title>Node22&#45;&gt;Node10</title>
<path fill="none" stroke="midnightblue" d="M680.36,-237.573C594.569,-230.096 452.866,-216.507 331.5,-199 319.438,-197.26 306.404,-195.018 294.468,-192.82"/>
<polygon fill="midnightblue" stroke="midnightblue" points="294.787,-189.319 284.313,-190.913 293.495,-196.198 294.787,-189.319"/>
</g>
<!-- Node22&#45;&gt;Node16 -->
<g id="edge26" class="edge"><title>Node22&#45;&gt;Node16</title>
<path fill="none" stroke="midnightblue" d="M683.656,-235.498C634.269,-228.384 575.482,-216.542 557.5,-199 542.247,-184.12 538.547,-158.986 537.973,-141.723"/>
<polygon fill="midnightblue" stroke="midnightblue" points="541.473,-141.697 537.956,-131.702 534.473,-141.708 541.473,-141.697"/>
</g>
<!-- Node23 -->
<g id="node23" class="node"><title>Node23</title>
<polygon fill="white" stroke="#bfbfbf" points="566.5,-174 566.5,-193 634.5,-193 634.5,-174 566.5,-174"/>
<text text-anchor="middle" x="600.5" y="-181" font-family="Helvetica,sans-Serif" font-size="10.00">Eigen/Core</text>
</g>
<!-- Node22&#45;&gt;Node23 -->
<g id="edge27" class="edge"><title>Node22&#45;&gt;Node23</title>
<path fill="none" stroke="midnightblue" d="M735.862,-235.475C708.76,-225.269 663.19,-208.108 632.496,-196.549"/>
<polygon fill="midnightblue" stroke="midnightblue" points="633.687,-193.258 623.096,-193.009 631.22,-199.809 633.687,-193.258"/>
</g>
<!-- Node24 -->
<g id="node24" class="node"><title>Node24</title>
<polygon fill="white" stroke="#bfbfbf" points="1250.5,-174 1250.5,-193 1344.5,-193 1344.5,-174 1250.5,-174"/>
<text text-anchor="middle" x="1297.5" y="-181" font-family="Helvetica,sans-Serif" font-size="10.00">Eigen/Geometry</text>
</g>
<!-- Node22&#45;&gt;Node24 -->
<g id="edge28" class="edge"><title>Node22&#45;&gt;Node24</title>
<path fill="none" stroke="midnightblue" d="M836.809,-240.572C932.772,-235.484 1100.06,-223.736 1241.5,-199 1246.94,-198.048 1252.63,-196.837 1258.21,-195.52"/>
<polygon fill="midnightblue" stroke="midnightblue" points="1259.19,-198.882 1268.05,-193.071 1257.5,-192.089 1259.19,-198.882"/>
</g>
<!-- Node25 -->
<g id="node25" class="node"><title>Node25</title>
<polygon fill="white" stroke="#bfbfbf" points="652.5,-174 652.5,-193 732.5,-193 732.5,-174 652.5,-174"/>
<text text-anchor="middle" x="692.5" y="-181" font-family="Helvetica,sans-Serif" font-size="10.00">Eigen/Sparse</text>
</g>
<!-- Node22&#45;&gt;Node25 -->
<g id="edge29" class="edge"><title>Node22&#45;&gt;Node25</title>
<path fill="none" stroke="midnightblue" d="M749.044,-235.475C738.752,-226.197 722.084,-211.171 709.506,-199.831"/>
<polygon fill="midnightblue" stroke="midnightblue" points="711.71,-197.105 701.939,-193.009 707.022,-202.305 711.71,-197.105"/>
</g>
<!-- Node26 -->
<g id="node26" class="node"><title>Node26</title>
<polygon fill="white" stroke="#bfbfbf" points="751,-168.5 751,-198.5 896,-198.5 896,-168.5 751,-168.5"/>
<text text-anchor="start" x="759" y="-186.5" font-family="Helvetica,sans-Serif" font-size="10.00">unsupported/Eigen/Aligned</text>
<text text-anchor="middle" x="823.5" y="-175.5" font-family="Helvetica,sans-Serif" font-size="10.00">Vector3</text>
</g>
<!-- Node22&#45;&gt;Node26 -->
<g id="edge31" class="edge"><title>Node22&#45;&gt;Node26</title>
<path fill="none" stroke="midnightblue" d="M767.813,-235.475C776.369,-227.643 789.4,-215.714 800.706,-205.366"/>
<polygon fill="midnightblue" stroke="midnightblue" points="803.168,-207.857 808.181,-198.523 798.441,-202.693 803.168,-207.857"/>
</g>
<!-- Node27 -->
<g id="node27" class="node"><title>Node27</title>
<g id="a_node27"><a xlink:href="Math_8hpp.html" target="_top" xlink:title="Core/Math/Math.hpp">
<polygon fill="white" stroke="black" points="1118.5,-174 1118.5,-193 1232.5,-193 1232.5,-174 1118.5,-174"/>
<text text-anchor="middle" x="1175.5" y="-181" font-family="Helvetica,sans-Serif" font-size="10.00">Core/Math/Math.hpp</text>
</a>
</g>
</g>
<!-- Node22&#45;&gt;Node27 -->
<g id="edge32" class="edge"><title>Node22&#45;&gt;Node27</title>
<path fill="none" stroke="midnightblue" d="M818.246,-235.475C895.022,-224.52 1027.95,-205.553 1108.21,-194.101"/>
<polygon fill="midnightblue" stroke="midnightblue" points="1108.8,-197.552 1118.21,-192.674 1107.82,-190.622 1108.8,-197.552"/>
</g>
<!-- Node31 -->
<g id="node31" class="node"><title>Node31</title>
<g id="a_node31"><a xlink:href="LinearAlgebra_8inl.html" target="_top" xlink:title="Core/Math/LinearAlgebra.inl">
<polygon fill="white" stroke="black" points="914,-174 914,-193 1063,-193 1063,-174 914,-174"/>
<text text-anchor="middle" x="988.5" y="-181" font-family="Helvetica,sans-Serif" font-size="10.00">Core/Math/LinearAlgebra.inl</text>
</a>
</g>
</g>
<!-- Node22&#45;&gt;Node31 -->
<g id="edge38" class="edge"><title>Node22&#45;&gt;Node31</title>
<path fill="none" stroke="midnightblue" d="M791.453,-235.475C832.102,-224.959 901.287,-207.062 945.924,-195.514"/>
<polygon fill="midnightblue" stroke="midnightblue" points="946.803,-198.902 955.608,-193.009 945.05,-192.125 946.803,-198.902"/>
</g>
<!-- Node27&#45;&gt;Node16 -->
<g id="edge33" class="edge"><title>Node27&#45;&gt;Node16</title>
<path fill="none" stroke="midnightblue" d="M1138.06,-173.964C1127.28,-171.747 1115.46,-169.549 1104.5,-168 920.727,-142.028 701.109,-129.918 597.781,-125.328"/>
<polygon fill="midnightblue" stroke="midnightblue" points="597.696,-121.821 587.553,-124.882 597.391,-128.815 597.696,-121.821"/>
</g>
<!-- Node28 -->
<g id="node28" class="node"><title>Node28</title>
<polygon fill="white" stroke="#bfbfbf" points="1023.5,-112.5 1023.5,-131.5 1085.5,-131.5 1085.5,-112.5 1023.5,-112.5"/>
<text text-anchor="middle" x="1054.5" y="-119.5" font-family="Helvetica,sans-Serif" font-size="10.00">algorithm</text>
</g>
<!-- Node27&#45;&gt;Node28 -->
<g id="edge34" class="edge"><title>Node27&#45;&gt;Node28</title>
<path fill="none" stroke="midnightblue" d="M1158.16,-173.975C1137.95,-164.034 1104.31,-147.495 1080.86,-135.961"/>
<polygon fill="midnightblue" stroke="midnightblue" points="1082.32,-132.781 1071.8,-131.509 1079.23,-139.063 1082.32,-132.781"/>
</g>
<!-- Node29 -->
<g id="node29" class="node"><title>Node29</title>
<polygon fill="white" stroke="#bfbfbf" points="1104,-112.5 1104,-131.5 1151,-131.5 1151,-112.5 1104,-112.5"/>
<text text-anchor="middle" x="1127.5" y="-119.5" font-family="Helvetica,sans-Serif" font-size="10.00">cmath</text>
</g>
<!-- Node27&#45;&gt;Node29 -->
<g id="edge35" class="edge"><title>Node27&#45;&gt;Node29</title>
<path fill="none" stroke="midnightblue" d="M1168.62,-173.975C1161.35,-164.962 1149.7,-150.525 1140.66,-139.312"/>
<polygon fill="midnightblue" stroke="midnightblue" points="1143.37,-137.095 1134.36,-131.509 1137.92,-141.49 1143.37,-137.095"/>
</g>
<!-- Node30 -->
<g id="node30" class="node"><title>Node30</title>
<g id="a_node30"><a xlink:href="Math_8inl.html" target="_top" xlink:title="Core/Math/Math.inl">
<polygon fill="white" stroke="black" points="1169,-112.5 1169,-131.5 1276,-131.5 1276,-112.5 1169,-112.5"/>
<text text-anchor="middle" x="1222.5" y="-119.5" font-family="Helvetica,sans-Serif" font-size="10.00">Core/Math/Math.inl</text>
</a>
</g>
</g>
<!-- Node27&#45;&gt;Node30 -->
<g id="edge36" class="edge"><title>Node27&#45;&gt;Node30</title>
<path fill="none" stroke="midnightblue" d="M1177.33,-173.975C1182.54,-164.873 1193.71,-150.241 1203.81,-138.983"/>
<polygon fill="midnightblue" stroke="midnightblue" points="1206.55,-141.18 1210.88,-131.509 1201.47,-136.37 1206.55,-141.18"/>
</g>
<!-- Node30&#45;&gt;Node27 -->
<g id="edge37" class="edge"><title>Node30&#45;&gt;Node27</title>
<path fill="none" stroke="midnightblue" d="M1220.68,-131.509C1215.48,-140.604 1204.31,-155.236 1194.2,-166.497"/>
<polygon fill="midnightblue" stroke="midnightblue" points="1191.46,-164.304 1187.13,-173.975 1196.55,-169.113 1191.46,-164.304"/>
</g>
<!-- Node32&#45;&gt;Node16 -->
<g id="edge40" class="edge"><title>Node32&#45;&gt;Node16</title>
<path fill="none" stroke="midnightblue" d="M988.598,-291.341C1024.86,-269.523 1111,-210.974 1071.5,-168 1039.99,-133.717 730.685,-125.531 598.215,-123.594"/>
<polygon fill="midnightblue" stroke="midnightblue" points="597.899,-120.089 587.851,-123.45 597.801,-127.088 597.899,-120.089"/>
</g>
<!-- Node32&#45;&gt;Node22 -->
<g id="edge41" class="edge"><title>Node32&#45;&gt;Node22</title>
<path fill="none" stroke="midnightblue" d="M939.433,-291.444C902.32,-282.122 842.839,-267.183 802.285,-256.997"/>
<polygon fill="midnightblue" stroke="midnightblue" points="802.959,-253.558 792.408,-254.516 801.254,-260.347 802.959,-253.558"/>
</g>
<!-- Node32&#45;&gt;Node24 -->
<g id="edge42" class="edge"><title>Node32&#45;&gt;Node24</title>
<path fill="none" stroke="midnightblue" d="M999.155,-291.351C1025.6,-282.396 1068.01,-267.932 1104.5,-255 1160.98,-234.984 1226.44,-210.88 1264.78,-196.672"/>
<polygon fill="midnightblue" stroke="midnightblue" points="1266.22,-199.869 1274.38,-193.11 1263.79,-193.306 1266.22,-199.869"/>
</g>
<!-- Node33&#45;&gt;Node17 -->
<g id="edge44" class="edge"><title>Node33&#45;&gt;Node17</title>
<path fill="none" stroke="midnightblue" d="M784.833,-310.834C777.474,-319.027 764.065,-331.382 752.162,-341.101"/>
<polygon fill="midnightblue" stroke="midnightblue" points="749.948,-338.389 744.255,-347.324 754.278,-343.89 749.948,-338.389"/>
</g>
<!-- Node34&#45;&gt;Node10 -->
<g id="edge48" class="edge"><title>Node34&#45;&gt;Node10</title>
<path fill="none" stroke="midnightblue" d="M89.7224,-235.475C122.737,-225.136 178.54,-207.661 215.453,-196.102"/>
<polygon fill="midnightblue" stroke="midnightblue" points="216.831,-199.338 225.328,-193.009 214.739,-192.658 216.831,-199.338"/>
</g>
<!-- Node34&#45;&gt;Node16 -->
<g id="edge47" class="edge"><title>Node34&#45;&gt;Node16</title>
<path fill="none" stroke="midnightblue" d="M74.0569,-235.442C96.533,-219.281 148.258,-184.426 197.5,-168 292.733,-136.232 409.949,-126.782 479.204,-124.037"/>
<polygon fill="midnightblue" stroke="midnightblue" points="479.613,-127.525 489.48,-123.665 479.36,-120.529 479.613,-127.525"/>
</g>
</g>
</svg>
