<?xml version="1.0" encoding="UTF-8" standalone="no"?>
<!DOCTYPE svg PUBLIC "-//W3C//DTD SVG 1.1//EN"
 "http://www.w3.org/Graphics/SVG/1.1/DTD/svg11.dtd">
<!-- Generated by graphviz version 2.38.0 (20140413.2041)
 -->
<!-- Title: /home/travis/build/STORM&#45;IRIT/Radium&#45;Engine/src/Core/File/DataLoader.hpp Pages: 1 -->
<svg width="165pt" height="106pt"
 viewBox="0.00 0.00 165.00 106.00" xmlns="http://www.w3.org/2000/svg" xmlns:xlink="http://www.w3.org/1999/xlink">
<g id="graph0" class="graph" transform="scale(1 1) rotate(0) translate(4 102)">
<title>/home/travis/build/STORM&#45;IRIT/Radium&#45;Engine/src/Core/File/DataLoader.hpp</title>
<polygon fill="white" stroke="none" points="-4,4 -4,-102 161,-102 161,4 -4,4"/>
<!-- Node1 -->
<g id="node1" class="node"><title>Node1</title>
<polygon fill="#bfbfbf" stroke="black" points="0,-56.5 0,-97.5 157,-97.5 157,-56.5 0,-56.5"/>
<text text-anchor="start" x="8" y="-85.5" font-family="Helvetica,sans-Serif" font-size="10.00">/home/travis/build</text>
<text text-anchor="start" x="8" y="-74.5" font-family="Helvetica,sans-Serif" font-size="10.00">/STORM&#45;IRIT/Radium&#45;Engine</text>
<text text-anchor="middle" x="78.5" y="-63.5" font-family="Helvetica,sans-Serif" font-size="10.00">/src/Core/File/DataLoader.hpp</text>
</g>
<!-- Node2 -->
<g id="node2" class="node"><title>Node2</title>
<polygon fill="white" stroke="#bfbfbf" points="15,-0.5 15,-19.5 72,-19.5 72,-0.5 15,-0.5"/>
<text text-anchor="middle" x="43.5" y="-7.5" font-family="Helvetica,sans-Serif" font-size="10.00">memory</text>
</g>
<!-- Node1&#45;&gt;Node2 -->
<g id="edge1" class="edge"><title>Node1&#45;&gt;Node2</title>
<path fill="none" stroke="midnightblue" d="M67.9988,-56.4979C63.2003,-47.5862 57.5611,-37.1135 52.9035,-28.4636"/>
<polygon fill="midnightblue" stroke="midnightblue" points="55.9817,-26.7978 48.159,-19.6525 49.8184,-30.1166 55.9817,-26.7978"/>
</g>
<!-- Node3 -->
<g id="node3" class="node"><title>Node3</title>
<polygon fill="white" stroke="#bfbfbf" points="90,-0.5 90,-19.5 137,-19.5 137,-0.5 90,-0.5"/>
<text text-anchor="middle" x="113.5" y="-7.5" font-family="Helvetica,sans-Serif" font-size="10.00">vector</text>
</g>
<!-- Node1&#45;&gt;Node3 -->
<g id="edge2" class="edge"><title>Node1&#45;&gt;Node3</title>
<path fill="none" stroke="midnightblue" d="M89.0012,-56.4979C93.7997,-47.5862 99.4389,-37.1135 104.097,-28.4636"/>
<polygon fill="midnightblue" stroke="midnightblue" points="107.182,-30.1166 108.841,-19.6525 101.018,-26.7978 107.182,-30.1166"/>
</g>
</g>
</svg>
