<?xml version="1.0" encoding="UTF-8" standalone="no"?>
<!DOCTYPE svg PUBLIC "-//W3C//DTD SVG 1.1//EN"
 "http://www.w3.org/Graphics/SVG/1.1/DTD/svg11.dtd">
<!-- Generated by graphviz version 2.38.0 (20140413.2041)
 -->
<!-- Title: /home/travis/build/STORM&#45;IRIT/Radium&#45;Engine/src/Engine/Managers/CameraManager/DefaultCameraManager.hpp Pages: 1 -->
<svg width="1516pt" height="609pt"
 viewBox="0.00 0.00 1516.03 609.00" xmlns="http://www.w3.org/2000/svg" xmlns:xlink="http://www.w3.org/1999/xlink">
<g id="graph0" class="graph" transform="scale(1 1) rotate(0) translate(4 605)">
<title>/home/travis/build/STORM&#45;IRIT/Radium&#45;Engine/src/Engine/Managers/CameraManager/DefaultCameraManager.hpp</title>
<polygon fill="white" stroke="none" points="-4,4 -4,-605 1512.03,-605 1512.03,4 -4,4"/>
<!-- Node1 -->
<g id="node1" class="node"><title>Node1</title>
<polygon fill="#bfbfbf" stroke="black" points="4,-548.5 4,-600.5 207,-600.5 207,-548.5 4,-548.5"/>
<text text-anchor="start" x="12" y="-588.5" font-family="Helvetica,sans-Serif" font-size="10.00">/home/travis/build</text>
<text text-anchor="start" x="12" y="-577.5" font-family="Helvetica,sans-Serif" font-size="10.00">/STORM&#45;IRIT/Radium&#45;Engine</text>
<text text-anchor="start" x="12" y="-566.5" font-family="Helvetica,sans-Serif" font-size="10.00">/src/Engine/Managers/CameraManager</text>
<text text-anchor="middle" x="105.5" y="-555.5" font-family="Helvetica,sans-Serif" font-size="10.00">/DefaultCameraManager.hpp</text>
</g>
<!-- Node2 -->
<g id="node2" class="node"><title>Node2</title>
<g id="a_node2"><a xlink:href="CameraManager_8hpp.html" target="_top" xlink:title="Engine/Managers/CameraManager\l/CameraManager.hpp">
<polygon fill="white" stroke="black" points="94.5,-414.5 94.5,-444.5 276.5,-444.5 276.5,-414.5 94.5,-414.5"/>
<text text-anchor="start" x="102.5" y="-432.5" font-family="Helvetica,sans-Serif" font-size="10.00">Engine/Managers/CameraManager</text>
<text text-anchor="middle" x="185.5" y="-421.5" font-family="Helvetica,sans-Serif" font-size="10.00">/CameraManager.hpp</text>
</a>
</g>
</g>
<!-- Node1&#45;&gt;Node2 -->
<g id="edge1" class="edge"><title>Node1&#45;&gt;Node2</title>
<path fill="none" stroke="midnightblue" d="M119.618,-548.264C134.639,-521.413 158.195,-479.308 172.694,-453.39"/>
<polygon fill="midnightblue" stroke="midnightblue" points="175.766,-455.067 177.594,-444.631 169.657,-451.65 175.766,-455.067"/>
</g>
<!-- Node11 -->
<g id="node11" class="node"><title>Node11</title>
<polygon fill="white" stroke="#bfbfbf" points="0,-291.5 0,-310.5 57,-310.5 57,-291.5 0,-291.5"/>
<text text-anchor="middle" x="28.5" y="-298.5" font-family="Helvetica,sans-Serif" font-size="10.00">memory</text>
</g>
<!-- Node1&#45;&gt;Node11 -->
<g id="edge61" class="edge"><title>Node1&#45;&gt;Node11</title>
<path fill="none" stroke="midnightblue" d="M88.2357,-548.432C81.4995,-537.637 74.2657,-524.615 69.5,-512 44.032,-444.584 33.6183,-358.744 30.0681,-321.121"/>
<polygon fill="midnightblue" stroke="midnightblue" points="33.5126,-320.338 29.1462,-310.685 26.5398,-320.954 33.5126,-320.338"/>
</g>
<!-- Node12 -->
<g id="node12" class="node"><title>Node12</title>
<polygon fill="white" stroke="#bfbfbf" points="145,-291.5 145,-310.5 192,-310.5 192,-291.5 145,-291.5"/>
<text text-anchor="middle" x="168.5" y="-298.5" font-family="Helvetica,sans-Serif" font-size="10.00">vector</text>
</g>
<!-- Node1&#45;&gt;Node12 -->
<g id="edge62" class="edge"><title>Node1&#45;&gt;Node12</title>
<path fill="none" stroke="midnightblue" d="M94.0587,-548.237C75.8765,-503.976 46.1578,-411.038 84.5,-347 95.5222,-328.591 116.935,-317.285 135.382,-310.61"/>
<polygon fill="midnightblue" stroke="midnightblue" points="136.565,-313.905 144.963,-307.445 134.37,-307.258 136.565,-313.905"/>
</g>
<!-- Node14 -->
<g id="node14" class="node"><title>Node14</title>
<g id="a_node14"><a xlink:href="Camera_8hpp.html" target="_top" xlink:title="Engine/Renderer/Camera\l/Camera.hpp">
<polygon fill="white" stroke="black" points="638.5,-481.5 638.5,-511.5 774.5,-511.5 774.5,-481.5 638.5,-481.5"/>
<text text-anchor="start" x="646.5" y="-499.5" font-family="Helvetica,sans-Serif" font-size="10.00">Engine/Renderer/Camera</text>
<text text-anchor="middle" x="706.5" y="-488.5" font-family="Helvetica,sans-Serif" font-size="10.00">/Camera.hpp</text>
</a>
</g>
</g>
<!-- Node1&#45;&gt;Node14 -->
<g id="edge16" class="edge"><title>Node1&#45;&gt;Node14</title>
<path fill="none" stroke="midnightblue" d="M207.111,-560.651C325.951,-545.623 520.115,-521.069 627.989,-507.428"/>
<polygon fill="midnightblue" stroke="midnightblue" points="628.671,-510.87 638.153,-506.143 627.793,-503.925 628.671,-510.87"/>
</g>
<!-- Node3 -->
<g id="node3" class="node"><title>Node3</title>
<g id="a_node3"><a xlink:href="RaEngine_8hpp.html" target="_top" xlink:title="Engine/RaEngine.hpp">
<polygon fill="white" stroke="black" points="225,-291.5 225,-310.5 342,-310.5 342,-291.5 225,-291.5"/>
<text text-anchor="middle" x="283.5" y="-298.5" font-family="Helvetica,sans-Serif" font-size="10.00">Engine/RaEngine.hpp</text>
</a>
</g>
</g>
<!-- Node2&#45;&gt;Node3 -->
<g id="edge2" class="edge"><title>Node2&#45;&gt;Node3</title>
<path fill="none" stroke="midnightblue" d="M209.709,-414.418C223.447,-405.433 240.117,-392.725 251.5,-378 264.875,-360.699 273.682,-336.986 278.61,-320.673"/>
<polygon fill="midnightblue" stroke="midnightblue" points="282.068,-321.305 281.41,-310.731 275.33,-319.407 282.068,-321.305"/>
</g>
<!-- Node10 -->
<g id="node10" class="node"><title>Node10</title>
<g id="a_node10"><a xlink:href="System_8hpp.html" target="_top" xlink:title="Engine/System/System.hpp">
<polygon fill="white" stroke="black" points="94,-353 94,-372 243,-372 243,-353 94,-353"/>
<text text-anchor="middle" x="168.5" y="-360" font-family="Helvetica,sans-Serif" font-size="10.00">Engine/System/System.hpp</text>
</a>
</g>
</g>
<!-- Node2&#45;&gt;Node10 -->
<g id="edge9" class="edge"><title>Node2&#45;&gt;Node10</title>
<path fill="none" stroke="midnightblue" d="M181.811,-414.396C179.344,-404.963 176.071,-392.448 173.388,-382.189"/>
<polygon fill="midnightblue" stroke="midnightblue" points="176.69,-380.984 170.774,-372.195 169.918,-382.755 176.69,-380.984"/>
</g>
<!-- Node2&#45;&gt;Node11 -->
<g id="edge15" class="edge"><title>Node2&#45;&gt;Node11</title>
<path fill="none" stroke="midnightblue" d="M146.98,-414.346C126.984,-405.793 102.947,-393.529 84.5,-378 64.5854,-361.236 47.826,-336.019 37.9723,-319.291"/>
<polygon fill="midnightblue" stroke="midnightblue" points="40.9858,-317.51 32.9969,-310.551 34.9023,-320.973 40.9858,-317.51"/>
</g>
<!-- Node13 -->
<g id="node13" class="node"><title>Node13</title>
<g id="a_node13"><a xlink:href="CameraStorage_8hpp.html" target="_top" xlink:title="Engine/Managers/CameraManager\l/CameraStorage.hpp">
<polygon fill="white" stroke="black" points="298.5,-347.5 298.5,-377.5 480.5,-377.5 480.5,-347.5 298.5,-347.5"/>
<text text-anchor="start" x="306.5" y="-365.5" font-family="Helvetica,sans-Serif" font-size="10.00">Engine/Managers/CameraManager</text>
<text text-anchor="middle" x="389.5" y="-354.5" font-family="Helvetica,sans-Serif" font-size="10.00">/CameraStorage.hpp</text>
</a>
</g>
</g>
<!-- Node2&#45;&gt;Node13 -->
<g id="edge13" class="edge"><title>Node2&#45;&gt;Node13</title>
<path fill="none" stroke="midnightblue" d="M229.514,-414.476C260.643,-404.557 302.562,-391.201 335.681,-380.648"/>
<polygon fill="midnightblue" stroke="midnightblue" points="336.748,-383.982 345.213,-377.611 334.623,-377.312 336.748,-383.982"/>
</g>
<!-- Node4 -->
<g id="node4" class="node"><title>Node4</title>
<g id="a_node4"><a xlink:href="CoreMacros_8hpp.html" target="_top" xlink:title="Core/CoreMacros.hpp">
<polygon fill="white" stroke="black" points="458.5,-56.5 458.5,-75.5 578.5,-75.5 578.5,-56.5 458.5,-56.5"/>
<text text-anchor="middle" x="518.5" y="-63.5" font-family="Helvetica,sans-Serif" font-size="10.00">Core/CoreMacros.hpp</text>
</a>
</g>
</g>
<!-- Node3&#45;&gt;Node4 -->
<g id="edge3" class="edge"><title>Node3&#45;&gt;Node4</title>
<path fill="none" stroke="midnightblue" d="M289.341,-291.412C304.448,-269.515 346.634,-210.341 389.5,-168 424.256,-133.67 470.44,-99.9434 497.074,-81.4625"/>
<polygon fill="midnightblue" stroke="midnightblue" points="499.368,-84.1328 505.629,-75.5855 495.405,-78.3631 499.368,-84.1328"/>
</g>
<!-- Node5 -->
<g id="node5" class="node"><title>Node5</title>
<polygon fill="white" stroke="#bfbfbf" points="564.5,-0.5 564.5,-19.5 616.5,-19.5 616.5,-0.5 564.5,-0.5"/>
<text text-anchor="middle" x="590.5" y="-7.5" font-family="Helvetica,sans-Serif" font-size="10.00">cassert</text>
</g>
<!-- Node4&#45;&gt;Node5 -->
<g id="edge4" class="edge"><title>Node4&#45;&gt;Node5</title>
<path fill="none" stroke="midnightblue" d="M530.068,-56.324C540.92,-48.1849 557.381,-35.8395 570.383,-26.0874"/>
<polygon fill="midnightblue" stroke="midnightblue" points="572.821,-28.6339 578.721,-19.8339 568.621,-23.0339 572.821,-28.6339"/>
</g>
<!-- Node6 -->
<g id="node6" class="node"><title>Node6</title>
<polygon fill="white" stroke="#bfbfbf" points="635,-0.5 635,-19.5 680,-19.5 680,-0.5 635,-0.5"/>
<text text-anchor="middle" x="657.5" y="-7.5" font-family="Helvetica,sans-Serif" font-size="10.00">cstdio</text>
</g>
<!-- Node4&#45;&gt;Node6 -->
<g id="edge5" class="edge"><title>Node4&#45;&gt;Node6</title>
<path fill="none" stroke="midnightblue" d="M540.525,-56.4435C563.604,-47.4776 600.062,-33.314 626.141,-23.1827"/>
<polygon fill="midnightblue" stroke="midnightblue" points="627.524,-26.4002 635.578,-19.5164 624.989,-19.8753 627.524,-26.4002"/>
</g>
<!-- Node7 -->
<g id="node7" class="node"><title>Node7</title>
<polygon fill="white" stroke="#bfbfbf" points="413,-0.5 413,-19.5 472,-19.5 472,-0.5 413,-0.5"/>
<text text-anchor="middle" x="442.5" y="-7.5" font-family="Helvetica,sans-Serif" font-size="10.00">iostream</text>
</g>
<!-- Node4&#45;&gt;Node7 -->
<g id="edge6" class="edge"><title>Node4&#45;&gt;Node7</title>
<path fill="none" stroke="midnightblue" d="M506.289,-56.324C494.724,-48.1066 477.125,-35.6017 463.339,-25.8069"/>
<polygon fill="midnightblue" stroke="midnightblue" points="465.112,-22.7729 454.933,-19.8339 461.057,-28.4791 465.112,-22.7729"/>
</g>
<!-- Node8 -->
<g id="node8" class="node"><title>Node8</title>
<polygon fill="white" stroke="#bfbfbf" points="490.5,-0.5 490.5,-19.5 546.5,-19.5 546.5,-0.5 490.5,-0.5"/>
<text text-anchor="middle" x="518.5" y="-7.5" font-family="Helvetica,sans-Serif" font-size="10.00">sstream</text>
</g>
<!-- Node4&#45;&gt;Node8 -->
<g id="edge7" class="edge"><title>Node4&#45;&gt;Node8</title>
<path fill="none" stroke="midnightblue" d="M518.5,-56.083C518.5,-49.0059 518.5,-38.8611 518.5,-29.9865"/>
<polygon fill="midnightblue" stroke="midnightblue" points="522,-29.751 518.5,-19.7511 515,-29.7511 522,-29.751"/>
</g>
<!-- Node9 -->
<g id="node9" class="node"><title>Node9</title>
<polygon fill="white" stroke="#bfbfbf" points="346.5,-0.5 346.5,-19.5 394.5,-19.5 394.5,-0.5 346.5,-0.5"/>
<text text-anchor="middle" x="370.5" y="-7.5" font-family="Helvetica,sans-Serif" font-size="10.00">thread</text>
</g>
<!-- Node4&#45;&gt;Node9 -->
<g id="edge8" class="edge"><title>Node4&#45;&gt;Node9</title>
<path fill="none" stroke="midnightblue" d="M495.049,-56.4435C470.367,-47.4381 431.315,-33.1891 403.523,-23.049"/>
<polygon fill="midnightblue" stroke="midnightblue" points="404.435,-19.6561 393.841,-19.5164 402.036,-26.2321 404.435,-19.6561"/>
</g>
<!-- Node10&#45;&gt;Node3 -->
<g id="edge10" class="edge"><title>Node10&#45;&gt;Node3</title>
<path fill="none" stroke="midnightblue" d="M184.977,-352.975C204.105,-343.078 235.873,-326.642 258.152,-315.115"/>
<polygon fill="midnightblue" stroke="midnightblue" points="259.781,-318.213 267.054,-310.509 256.564,-311.996 259.781,-318.213"/>
</g>
<!-- Node10&#45;&gt;Node11 -->
<g id="edge11" class="edge"><title>Node10&#45;&gt;Node11</title>
<path fill="none" stroke="midnightblue" d="M148.441,-352.975C124.738,-342.901 85.0942,-326.053 57.9172,-314.502"/>
<polygon fill="midnightblue" stroke="midnightblue" points="59.0937,-311.199 48.5214,-310.509 56.3557,-317.642 59.0937,-311.199"/>
</g>
<!-- Node10&#45;&gt;Node12 -->
<g id="edge12" class="edge"><title>Node10&#45;&gt;Node12</title>
<path fill="none" stroke="midnightblue" d="M168.5,-352.975C168.5,-344.58 168.5,-331.481 168.5,-320.663"/>
<polygon fill="midnightblue" stroke="midnightblue" points="172,-320.509 168.5,-310.509 165,-320.509 172,-320.509"/>
</g>
<!-- Node13&#45;&gt;Node3 -->
<g id="edge14" class="edge"><title>Node13&#45;&gt;Node3</title>
<path fill="none" stroke="midnightblue" d="M364.379,-347.399C347.23,-337.773 324.635,-325.09 307.688,-315.577"/>
<polygon fill="midnightblue" stroke="midnightblue" points="309.357,-312.501 298.924,-310.658 305.931,-318.605 309.357,-312.501"/>
</g>
<!-- Node14&#45;&gt;Node3 -->
<g id="edge17" class="edge"><title>Node14&#45;&gt;Node3</title>
<path fill="none" stroke="midnightblue" d="M684.923,-481.355C669.485,-471.233 648.211,-457.281 629.5,-445 584.156,-415.238 571.239,-410.074 527.5,-378 509.924,-365.111 509.129,-356.474 489.5,-347 464.465,-334.917 396.631,-321.332 345.591,-312.281"/>
<polygon fill="midnightblue" stroke="midnightblue" points="346.079,-308.813 335.625,-310.533 344.87,-315.708 346.079,-308.813"/>
</g>
<!-- Node15 -->
<g id="node15" class="node"><title>Node15</title>
<g id="a_node15"><a xlink:href="LinearAlgebra_8hpp.html" target="_top" xlink:title="Core/Math/LinearAlgebra.hpp">
<polygon fill="white" stroke="black" points="924.5,-235.5 924.5,-254.5 1080.5,-254.5 1080.5,-235.5 924.5,-235.5"/>
<text text-anchor="middle" x="1002.5" y="-242.5" font-family="Helvetica,sans-Serif" font-size="10.00">Core/Math/LinearAlgebra.hpp</text>
</a>
</g>
</g>
<!-- Node14&#45;&gt;Node15 -->
<g id="edge18" class="edge"><title>Node14&#45;&gt;Node15</title>
<path fill="none" stroke="midnightblue" d="M730.552,-481.357C746.159,-471.792 766.65,-458.486 783.5,-445 860.308,-383.527 867.667,-354.862 942.5,-291 955.128,-280.223 970.061,-269.019 981.869,-260.486"/>
<polygon fill="midnightblue" stroke="midnightblue" points="984.099,-263.194 990.201,-254.533 980.03,-257.499 984.099,-263.194"/>
</g>
<!-- Node27 -->
<g id="node27" class="node"><title>Node27</title>
<g id="a_node27"><a xlink:href="Ray_8hpp.html" target="_top" xlink:title="Core/Math/Ray.hpp">
<polygon fill="white" stroke="black" points="1157.5,-291.5 1157.5,-310.5 1263.5,-310.5 1263.5,-291.5 1157.5,-291.5"/>
<text text-anchor="middle" x="1210.5" y="-298.5" font-family="Helvetica,sans-Serif" font-size="10.00">Core/Math/Ray.hpp</text>
</a>
</g>
</g>
<!-- Node14&#45;&gt;Node27 -->
<g id="edge33" class="edge"><title>Node14&#45;&gt;Node27</title>
<path fill="none" stroke="midnightblue" d="M774.727,-486.398C859.512,-472.82 1006.43,-441.708 1116.5,-378 1146.43,-360.678 1176.77,-334.171 1194.6,-317.478"/>
<polygon fill="midnightblue" stroke="midnightblue" points="1197.03,-319.996 1201.86,-310.567 1192.2,-314.924 1197.03,-319.996"/>
</g>
<!-- Node28 -->
<g id="node28" class="node"><title>Node28</title>
<g id="a_node28"><a xlink:href="Component_8hpp.html" target="_top" xlink:title="Engine/Component/Component.hpp">
<polygon fill="white" stroke="black" points="919.5,-353 919.5,-372 1107.5,-372 1107.5,-353 919.5,-353"/>
<text text-anchor="middle" x="1013.5" y="-360" font-family="Helvetica,sans-Serif" font-size="10.00">Engine/Component/Component.hpp</text>
</a>
</g>
</g>
<!-- Node14&#45;&gt;Node28 -->
<g id="edge37" class="edge"><title>Node14&#45;&gt;Node28</title>
<path fill="none" stroke="midnightblue" d="M774.689,-485.146C814.23,-477.465 864.208,-464.819 905.5,-445 941.608,-427.669 977.528,-397.27 997.491,-378.899"/>
<polygon fill="midnightblue" stroke="midnightblue" points="999.89,-381.448 1004.79,-372.056 995.103,-376.34 999.89,-381.448"/>
</g>
<!-- Node34 -->
<g id="node34" class="node"><title>Node34</title>
<g id="a_node34"><a xlink:href="Camera_8inl.html" target="_top" xlink:title="Engine/Renderer/Camera\l/Camera.inl">
<polygon fill="white" stroke="black" points="638.5,-414.5 638.5,-444.5 774.5,-444.5 774.5,-414.5 638.5,-414.5"/>
<text text-anchor="start" x="646.5" y="-432.5" font-family="Helvetica,sans-Serif" font-size="10.00">Engine/Renderer/Camera</text>
<text text-anchor="middle" x="706.5" y="-421.5" font-family="Helvetica,sans-Serif" font-size="10.00">/Camera.inl</text>
</a>
</g>
</g>
<!-- Node14&#45;&gt;Node34 -->
<g id="edge48" class="edge"><title>Node14&#45;&gt;Node34</title>
<path fill="none" stroke="midnightblue" d="M700.822,-481.396C699.794,-473.56 699.505,-463.596 699.956,-454.565"/>
<polygon fill="midnightblue" stroke="midnightblue" points="703.445,-454.842 700.825,-444.577 696.472,-454.236 703.445,-454.842"/>
</g>
<!-- Node16 -->
<g id="node16" class="node"><title>Node16</title>
<g id="a_node16"><a xlink:href="RaCore_8hpp.html" target="_top" xlink:title="Core/RaCore.hpp">
<polygon fill="white" stroke="black" points="758.5,-112.5 758.5,-131.5 856.5,-131.5 856.5,-112.5 758.5,-112.5"/>
<text text-anchor="middle" x="807.5" y="-119.5" font-family="Helvetica,sans-Serif" font-size="10.00">Core/RaCore.hpp</text>
</a>
</g>
</g>
<!-- Node15&#45;&gt;Node16 -->
<g id="edge19" class="edge"><title>Node15&#45;&gt;Node16</title>
<path fill="none" stroke="midnightblue" d="M1080.78,-239.014C1175.79,-232.149 1325.5,-218.395 1342.5,-199 1351.58,-188.638 1351.83,-178.142 1342.5,-168 1310.83,-133.553 999.65,-125.459 866.955,-123.57"/>
<polygon fill="midnightblue" stroke="midnightblue" points="866.623,-120.065 856.576,-123.429 866.528,-127.064 866.623,-120.065"/>
</g>
<!-- Node17 -->
<g id="node17" class="node"><title>Node17</title>
<polygon fill="white" stroke="#bfbfbf" points="922.5,-174 922.5,-193 990.5,-193 990.5,-174 922.5,-174"/>
<text text-anchor="middle" x="956.5" y="-181" font-family="Helvetica,sans-Serif" font-size="10.00">Eigen/Core</text>
</g>
<!-- Node15&#45;&gt;Node17 -->
<g id="edge21" class="edge"><title>Node15&#45;&gt;Node17</title>
<path fill="none" stroke="midnightblue" d="M995.909,-235.475C989.009,-226.55 977.998,-212.307 969.366,-201.143"/>
<polygon fill="midnightblue" stroke="midnightblue" points="971.964,-198.78 963.078,-193.009 966.426,-203.061 971.964,-198.78"/>
</g>
<!-- Node18 -->
<g id="node18" class="node"><title>Node18</title>
<polygon fill="white" stroke="#bfbfbf" points="1389.5,-174 1389.5,-193 1483.5,-193 1483.5,-174 1389.5,-174"/>
<text text-anchor="middle" x="1436.5" y="-181" font-family="Helvetica,sans-Serif" font-size="10.00">Eigen/Geometry</text>
</g>
<!-- Node15&#45;&gt;Node18 -->
<g id="edge22" class="edge"><title>Node15&#45;&gt;Node18</title>
<path fill="none" stroke="midnightblue" d="M1080.75,-237.162C1156.49,-229.931 1274.37,-217.06 1375.5,-199 1381.4,-197.946 1387.59,-196.674 1393.67,-195.326"/>
<polygon fill="midnightblue" stroke="midnightblue" points="1394.76,-198.667 1403.72,-193.013 1393.19,-191.845 1394.76,-198.667"/>
</g>
<!-- Node19 -->
<g id="node19" class="node"><title>Node19</title>
<polygon fill="white" stroke="#bfbfbf" points="1008.5,-174 1008.5,-193 1088.5,-193 1088.5,-174 1008.5,-174"/>
<text text-anchor="middle" x="1048.5" y="-181" font-family="Helvetica,sans-Serif" font-size="10.00">Eigen/Sparse</text>
</g>
<!-- Node15&#45;&gt;Node19 -->
<g id="edge23" class="edge"><title>Node15&#45;&gt;Node19</title>
<path fill="none" stroke="midnightblue" d="M1009.09,-235.475C1015.99,-226.55 1027,-212.307 1035.63,-201.143"/>
<polygon fill="midnightblue" stroke="midnightblue" points="1038.57,-203.061 1041.92,-193.009 1033.04,-198.78 1038.57,-203.061"/>
</g>
<!-- Node20 -->
<g id="node20" class="node"><title>Node20</title>
<polygon fill="white" stroke="#bfbfbf" points="1107,-174 1107,-193 1170,-193 1170,-174 1107,-174"/>
<text text-anchor="middle" x="1138.5" y="-181" font-family="Helvetica,sans-Serif" font-size="10.00">functional</text>
</g>
<!-- Node15&#45;&gt;Node20 -->
<g id="edge24" class="edge"><title>Node15&#45;&gt;Node20</title>
<path fill="none" stroke="midnightblue" d="M1021.99,-235.475C1044.91,-225.445 1083.19,-208.7 1109.58,-197.155"/>
<polygon fill="midnightblue" stroke="midnightblue" points="1111.29,-200.224 1119.05,-193.009 1108.49,-193.811 1111.29,-200.224"/>
</g>
<!-- Node21 -->
<g id="node21" class="node"><title>Node21</title>
<polygon fill="white" stroke="#bfbfbf" points="1188,-168.5 1188,-198.5 1333,-198.5 1333,-168.5 1188,-168.5"/>
<text text-anchor="start" x="1196" y="-186.5" font-family="Helvetica,sans-Serif" font-size="10.00">unsupported/Eigen/Aligned</text>
<text text-anchor="middle" x="1260.5" y="-175.5" font-family="Helvetica,sans-Serif" font-size="10.00">Vector3</text>
</g>
<!-- Node15&#45;&gt;Node21 -->
<g id="edge25" class="edge"><title>Node15&#45;&gt;Node21</title>
<path fill="none" stroke="midnightblue" d="M1039.47,-235.475C1078.57,-226.456 1141.22,-212.008 1189.86,-200.792"/>
<polygon fill="midnightblue" stroke="midnightblue" points="1190.74,-204.181 1199.69,-198.523 1189.16,-197.36 1190.74,-204.181"/>
</g>
<!-- Node22 -->
<g id="node22" class="node"><title>Node22</title>
<g id="a_node22"><a xlink:href="Math_8hpp.html" target="_top" xlink:title="Core/Math/Math.hpp">
<polygon fill="white" stroke="black" points="586.5,-174 586.5,-193 700.5,-193 700.5,-174 586.5,-174"/>
<text text-anchor="middle" x="643.5" y="-181" font-family="Helvetica,sans-Serif" font-size="10.00">Core/Math/Math.hpp</text>
</a>
</g>
</g>
<!-- Node15&#45;&gt;Node22 -->
<g id="edge26" class="edge"><title>Node15&#45;&gt;Node22</title>
<path fill="none" stroke="midnightblue" d="M951.064,-235.475C886.017,-224.694 774.154,-206.154 704.76,-194.653"/>
<polygon fill="midnightblue" stroke="midnightblue" points="705.278,-191.191 694.841,-193.009 704.134,-198.097 705.278,-191.191"/>
</g>
<!-- Node26 -->
<g id="node26" class="node"><title>Node26</title>
<g id="a_node26"><a xlink:href="LinearAlgebra_8inl.html" target="_top" xlink:title="Core/Math/LinearAlgebra.inl">
<polygon fill="white" stroke="black" points="756,-174 756,-193 905,-193 905,-174 756,-174"/>
<text text-anchor="middle" x="830.5" y="-181" font-family="Helvetica,sans-Serif" font-size="10.00">Core/Math/LinearAlgebra.inl</text>
</a>
</g>
</g>
<!-- Node15&#45;&gt;Node26 -->
<g id="edge32" class="edge"><title>Node15&#45;&gt;Node26</title>
<path fill="none" stroke="midnightblue" d="M977.857,-235.475C948.225,-225.225 898.315,-207.959 864.898,-196.399"/>
<polygon fill="midnightblue" stroke="midnightblue" points="865.692,-192.971 855.098,-193.009 863.404,-199.586 865.692,-192.971"/>
</g>
<!-- Node16&#45;&gt;Node4 -->
<g id="edge20" class="edge"><title>Node16&#45;&gt;Node4</title>
<path fill="none" stroke="midnightblue" d="M761.707,-112.444C710.763,-102.925 628.466,-87.5472 573.926,-77.3563"/>
<polygon fill="midnightblue" stroke="midnightblue" points="574.551,-73.9128 564.079,-75.5164 573.266,-80.7937 574.551,-73.9128"/>
</g>
<!-- Node22&#45;&gt;Node16 -->
<g id="edge27" class="edge"><title>Node22&#45;&gt;Node16</title>
<path fill="none" stroke="midnightblue" d="M666.997,-173.975C695.129,-163.769 742.429,-146.608 774.289,-135.049"/>
<polygon fill="midnightblue" stroke="midnightblue" points="775.84,-138.21 784.046,-131.509 773.452,-131.63 775.84,-138.21"/>
</g>
<!-- Node23 -->
<g id="node23" class="node"><title>Node23</title>
<polygon fill="white" stroke="#bfbfbf" points="612.5,-112.5 612.5,-131.5 674.5,-131.5 674.5,-112.5 612.5,-112.5"/>
<text text-anchor="middle" x="643.5" y="-119.5" font-family="Helvetica,sans-Serif" font-size="10.00">algorithm</text>
</g>
<!-- Node22&#45;&gt;Node23 -->
<g id="edge28" class="edge"><title>Node22&#45;&gt;Node23</title>
<path fill="none" stroke="midnightblue" d="M643.5,-173.975C643.5,-165.58 643.5,-152.481 643.5,-141.663"/>
<polygon fill="midnightblue" stroke="midnightblue" points="647,-141.509 643.5,-131.509 640,-141.509 647,-141.509"/>
</g>
<!-- Node24 -->
<g id="node24" class="node"><title>Node24</title>
<polygon fill="white" stroke="#bfbfbf" points="693,-112.5 693,-131.5 740,-131.5 740,-112.5 693,-112.5"/>
<text text-anchor="middle" x="716.5" y="-119.5" font-family="Helvetica,sans-Serif" font-size="10.00">cmath</text>
</g>
<!-- Node22&#45;&gt;Node24 -->
<g id="edge29" class="edge"><title>Node22&#45;&gt;Node24</title>
<path fill="none" stroke="midnightblue" d="M653.959,-173.975C665.451,-164.608 684.13,-149.384 698.087,-138.008"/>
<polygon fill="midnightblue" stroke="midnightblue" points="700.52,-140.54 706.06,-131.509 696.098,-135.114 700.52,-140.54"/>
</g>
<!-- Node25 -->
<g id="node25" class="node"><title>Node25</title>
<g id="a_node25"><a xlink:href="Math_8inl.html" target="_top" xlink:title="Core/Math/Math.inl">
<polygon fill="white" stroke="black" points="488,-112.5 488,-131.5 595,-131.5 595,-112.5 488,-112.5"/>
<text text-anchor="middle" x="541.5" y="-119.5" font-family="Helvetica,sans-Serif" font-size="10.00">Core/Math/Math.inl</text>
</a>
</g>
</g>
<!-- Node22&#45;&gt;Node25 -->
<g id="edge30" class="edge"><title>Node22&#45;&gt;Node25</title>
<path fill="none" stroke="midnightblue" d="M623.985,-173.975C605.373,-164.343 577.932,-148.517 559.755,-137.052"/>
<polygon fill="midnightblue" stroke="midnightblue" points="561.487,-134.004 551.19,-131.509 557.684,-139.88 561.487,-134.004"/>
</g>
<!-- Node25&#45;&gt;Node22 -->
<g id="edge31" class="edge"><title>Node25&#45;&gt;Node22</title>
<path fill="none" stroke="midnightblue" d="M560.984,-131.509C579.587,-141.134 607.028,-156.959 625.215,-168.43"/>
<polygon fill="midnightblue" stroke="midnightblue" points="623.489,-171.481 633.786,-173.975 627.292,-165.604 623.489,-171.481"/>
</g>
<!-- Node27&#45;&gt;Node15 -->
<g id="edge35" class="edge"><title>Node27&#45;&gt;Node15</title>
<path fill="none" stroke="midnightblue" d="M1177.54,-291.444C1141.71,-282.142 1084.34,-267.246 1045.11,-257.062"/>
<polygon fill="midnightblue" stroke="midnightblue" points="1045.86,-253.642 1035.3,-254.516 1044.1,-260.417 1045.86,-253.642"/>
</g>
<!-- Node27&#45;&gt;Node16 -->
<g id="edge34" class="edge"><title>Node27&#45;&gt;Node16</title>
<path fill="none" stroke="midnightblue" d="M1263.56,-294.143C1363.73,-281.162 1564.46,-244.842 1492.5,-168 1450.18,-122.805 1025.18,-121.332 866.676,-122.379"/>
<polygon fill="midnightblue" stroke="midnightblue" points="866.603,-118.879 856.629,-122.451 866.654,-125.879 866.603,-118.879"/>
</g>
<!-- Node27&#45;&gt;Node18 -->
<g id="edge36" class="edge"><title>Node27&#45;&gt;Node18</title>
<path fill="none" stroke="midnightblue" d="M1227.49,-291.319C1266.68,-271.286 1363.67,-221.722 1410.44,-197.816"/>
<polygon fill="midnightblue" stroke="midnightblue" points="1412.31,-200.792 1419.62,-193.124 1409.13,-194.559 1412.31,-200.792"/>
</g>
<!-- Node28&#45;&gt;Node3 -->
<g id="edge38" class="edge"><title>Node28&#45;&gt;Node3</title>
<path fill="none" stroke="midnightblue" d="M919.404,-354.001C797.244,-344.239 577.428,-326.582 389.5,-311 377.493,-310.004 364.722,-308.932 352.357,-307.886"/>
<polygon fill="midnightblue" stroke="midnightblue" points="352.351,-304.373 342.091,-307.016 351.76,-311.348 352.351,-304.373"/>
</g>
<!-- Node28&#45;&gt;Node15 -->
<g id="edge44" class="edge"><title>Node28&#45;&gt;Node15</title>
<path fill="none" stroke="midnightblue" d="M994.761,-352.928C979.173,-344.655 958.048,-330.51 948.5,-311 938.856,-291.296 958.902,-272.433 977.244,-260.152"/>
<polygon fill="midnightblue" stroke="midnightblue" points="979.362,-262.956 985.974,-254.677 975.643,-257.025 979.362,-262.956"/>
</g>
<!-- Node28&#45;&gt;Node27 -->
<g id="edge45" class="edge"><title>Node28&#45;&gt;Node27</title>
<path fill="none" stroke="midnightblue" d="M1041.73,-352.975C1076.1,-342.592 1134.31,-325.012 1172.58,-313.454"/>
<polygon fill="midnightblue" stroke="midnightblue" points="1173.77,-316.751 1182.33,-310.509 1171.74,-310.05 1173.77,-316.751"/>
</g>
<!-- Node29 -->
<g id="node29" class="node"><title>Node29</title>
<g id="a_node29"><a xlink:href="IndexedObject_8hpp.html" target="_top" xlink:title="Core/Index/IndexedObject.hpp">
<polygon fill="white" stroke="black" points="665.5,-291.5 665.5,-310.5 825.5,-310.5 825.5,-291.5 665.5,-291.5"/>
<text text-anchor="middle" x="745.5" y="-298.5" font-family="Helvetica,sans-Serif" font-size="10.00">Core/Index/IndexedObject.hpp</text>
</a>
</g>
</g>
<!-- Node28&#45;&gt;Node29 -->
<g id="edge39" class="edge"><title>Node28&#45;&gt;Node29</title>
<path fill="none" stroke="midnightblue" d="M975.102,-352.975C927.34,-342.371 845.764,-324.26 793.805,-312.724"/>
<polygon fill="midnightblue" stroke="midnightblue" points="794.348,-309.26 783.827,-310.509 792.83,-316.093 794.348,-309.26"/>
</g>
<!-- Node33 -->
<g id="node33" class="node"><title>Node33</title>
<g id="a_node33"><a xlink:href="Component_8inl.html" target="_top" xlink:title="Engine/Component/Component.inl">
<polygon fill="white" stroke="black" points="958,-291.5 958,-310.5 1139,-310.5 1139,-291.5 958,-291.5"/>
<text text-anchor="middle" x="1048.5" y="-298.5" font-family="Helvetica,sans-Serif" font-size="10.00">Engine/Component/Component.inl</text>
</a>
</g>
</g>
<!-- Node28&#45;&gt;Node33 -->
<g id="edge46" class="edge"><title>Node28&#45;&gt;Node33</title>
<path fill="none" stroke="midnightblue" d="M1013.61,-352.975C1016.92,-344.05 1024.89,-329.807 1032.58,-318.643"/>
<polygon fill="midnightblue" stroke="midnightblue" points="1035.46,-320.63 1038.6,-310.509 1029.84,-316.466 1035.46,-320.63"/>
</g>
<!-- Node29&#45;&gt;Node16 -->
<g id="edge43" class="edge"><title>Node29&#45;&gt;Node16</title>
<path fill="none" stroke="midnightblue" d="M743.063,-291.354C737.358,-269.322 725.165,-209.857 746.5,-168 753.358,-154.546 766.324,-144.112 778.544,-136.693"/>
<polygon fill="midnightblue" stroke="midnightblue" points="780.614,-139.546 787.631,-131.608 777.195,-133.438 780.614,-139.546"/>
</g>
<!-- Node30 -->
<g id="node30" class="node"><title>Node30</title>
<g id="a_node30"><a xlink:href="Index_8hpp.html" target="_top" xlink:title="Core/Index/Index.hpp">
<polygon fill="white" stroke="black" points="489,-235.5 489,-254.5 606,-254.5 606,-235.5 489,-235.5"/>
<text text-anchor="middle" x="547.5" y="-242.5" font-family="Helvetica,sans-Serif" font-size="10.00">Core/Index/Index.hpp</text>
</a>
</g>
</g>
<!-- Node29&#45;&gt;Node30 -->
<g id="edge40" class="edge"><title>Node29&#45;&gt;Node30</title>
<path fill="none" stroke="midnightblue" d="M714.126,-291.444C680.237,-282.201 626.097,-267.436 588.776,-257.257"/>
<polygon fill="midnightblue" stroke="midnightblue" points="589.295,-253.771 578.727,-254.516 587.454,-260.524 589.295,-253.771"/>
</g>
<!-- Node31 -->
<g id="node31" class="node"><title>Node31</title>
<polygon fill="white" stroke="#bfbfbf" points="526.5,-174 526.5,-193 568.5,-193 568.5,-174 526.5,-174"/>
<text text-anchor="middle" x="547.5" y="-181" font-family="Helvetica,sans-Serif" font-size="10.00">limits</text>
</g>
<!-- Node30&#45;&gt;Node31 -->
<g id="edge41" class="edge"><title>Node30&#45;&gt;Node31</title>
<path fill="none" stroke="midnightblue" d="M547.5,-235.475C547.5,-227.08 547.5,-213.981 547.5,-203.163"/>
<polygon fill="midnightblue" stroke="midnightblue" points="551,-203.009 547.5,-193.009 544,-203.009 551,-203.009"/>
</g>
<!-- Node32 -->
<g id="node32" class="node"><title>Node32</title>
<g id="a_node32"><a xlink:href="Index_8inl.html" target="_top" xlink:title="Core/Index/Index.inl">
<polygon fill="white" stroke="black" points="398.5,-174 398.5,-193 508.5,-193 508.5,-174 398.5,-174"/>
<text text-anchor="middle" x="453.5" y="-181" font-family="Helvetica,sans-Serif" font-size="10.00">Core/Index/Index.inl</text>
</a>
</g>
</g>
<!-- Node30&#45;&gt;Node32 -->
<g id="edge42" class="edge"><title>Node30&#45;&gt;Node32</title>
<path fill="none" stroke="midnightblue" d="M534.032,-235.475C518.815,-225.843 493.813,-210.017 475.699,-198.552"/>
<polygon fill="midnightblue" stroke="midnightblue" points="477.264,-195.4 466.943,-193.009 473.521,-201.315 477.264,-195.4"/>
</g>
<!-- Node33&#45;&gt;Node28 -->
<g id="edge47" class="edge"><title>Node33&#45;&gt;Node28</title>
<path fill="none" stroke="midnightblue" d="M1048.39,-310.509C1045.09,-319.428 1037.13,-333.669 1029.43,-344.838"/>
<polygon fill="midnightblue" stroke="midnightblue" points="1026.55,-342.854 1023.42,-352.975 1032.18,-347.016 1026.55,-342.854"/>
</g>
<!-- Node34&#45;&gt;Node14 -->
<g id="edge60" class="edge"><title>Node34&#45;&gt;Node14</title>
<path fill="none" stroke="midnightblue" d="M712.175,-444.577C713.204,-452.408 713.495,-462.37 713.045,-471.403"/>
<polygon fill="midnightblue" stroke="midnightblue" points="709.556,-471.131 712.178,-481.396 716.53,-471.736 709.556,-471.131"/>
</g>
<!-- Node35 -->
<g id="node35" class="node"><title>Node35</title>
<g id="a_node35"><a xlink:href="Entity_8hpp.html" target="_top" xlink:title="Engine/Entity/Entity.hpp">
<polygon fill="white" stroke="black" points="536.5,-353 536.5,-372 664.5,-372 664.5,-353 536.5,-353"/>
<text text-anchor="middle" x="600.5" y="-360" font-family="Helvetica,sans-Serif" font-size="10.00">Engine/Entity/Entity.hpp</text>
</a>
</g>
</g>
<!-- Node34&#45;&gt;Node35 -->
<g id="edge49" class="edge"><title>Node34&#45;&gt;Node35</title>
<path fill="none" stroke="midnightblue" d="M683.5,-414.396C665.559,-403.395 640.78,-388.2 622.975,-377.282"/>
<polygon fill="midnightblue" stroke="midnightblue" points="624.727,-374.251 614.373,-372.007 621.068,-380.218 624.727,-374.251"/>
</g>
<!-- Node35&#45;&gt;Node3 -->
<g id="edge50" class="edge"><title>Node35&#45;&gt;Node3</title>
<path fill="none" stroke="midnightblue" d="M555.082,-352.975C497.998,-342.261 400.082,-323.882 338.728,-312.366"/>
<polygon fill="midnightblue" stroke="midnightblue" points="339.308,-308.914 328.834,-310.509 338.017,-315.794 339.308,-308.914"/>
</g>
<!-- Node35&#45;&gt;Node9 -->
<g id="edge53" class="edge"><title>Node35&#45;&gt;Node9</title>
<path fill="none" stroke="midnightblue" d="M554.081,-352.944C495.654,-341.788 401.437,-322.361 389.5,-311 367.698,-290.25 370.5,-276.098 370.5,-246 370.5,-246 370.5,-246 370.5,-121 370.5,-88.948 370.5,-51.6426 370.5,-29.7489"/>
<polygon fill="midnightblue" stroke="midnightblue" points="374,-29.5577 370.5,-19.5578 367,-29.5578 374,-29.5577"/>
</g>
<!-- Node35&#45;&gt;Node12 -->
<g id="edge54" class="edge"><title>Node35&#45;&gt;Node12</title>
<path fill="none" stroke="midnightblue" d="M536.428,-353.12C427.956,-338.929 219.436,-311.634 215.5,-311 211.255,-310.316 206.806,-309.54 202.409,-308.739"/>
<polygon fill="midnightblue" stroke="midnightblue" points="202.836,-305.258 192.362,-306.851 201.544,-312.138 202.836,-305.258"/>
</g>
<!-- Node35&#45;&gt;Node15 -->
<g id="edge56" class="edge"><title>Node35&#45;&gt;Node15</title>
<path fill="none" stroke="midnightblue" d="M656.757,-352.983C704.754,-344.864 775.205,-330.91 834.5,-311 854.481,-304.291 858.009,-299.022 877.5,-291 907.25,-278.755 941.69,-266.494 966.877,-257.87"/>
<polygon fill="midnightblue" stroke="midnightblue" points="968.045,-261.17 976.386,-254.637 965.791,-254.543 968.045,-261.17"/>
</g>
<!-- Node35&#45;&gt;Node27 -->
<g id="edge57" class="edge"><title>Node35&#45;&gt;Node27</title>
<path fill="none" stroke="midnightblue" d="M664.733,-356.675C765.353,-348.876 966.49,-332.313 1147.46,-311.068"/>
<polygon fill="midnightblue" stroke="midnightblue" points="1147.9,-314.54 1157.42,-309.891 1147.08,-307.588 1147.9,-314.54"/>
</g>
<!-- Node35&#45;&gt;Node29 -->
<g id="edge55" class="edge"><title>Node35&#45;&gt;Node29</title>
<path fill="none" stroke="midnightblue" d="M621.275,-352.975C645.932,-342.857 687.245,-325.905 715.402,-314.351"/>
<polygon fill="midnightblue" stroke="midnightblue" points="716.841,-317.543 724.764,-310.509 714.183,-311.067 716.841,-317.543"/>
</g>
<!-- Node36 -->
<g id="node36" class="node"><title>Node36</title>
<polygon fill="white" stroke="#bfbfbf" points="399,-291.5 399,-310.5 446,-310.5 446,-291.5 399,-291.5"/>
<text text-anchor="middle" x="422.5" y="-298.5" font-family="Helvetica,sans-Serif" font-size="10.00">mutex</text>
</g>
<!-- Node35&#45;&gt;Node36 -->
<g id="edge51" class="edge"><title>Node35&#45;&gt;Node36</title>
<path fill="none" stroke="midnightblue" d="M574.997,-352.975C543.674,-342.505 490.457,-324.716 455.899,-313.164"/>
<polygon fill="midnightblue" stroke="midnightblue" points="456.843,-309.79 446.249,-309.939 454.624,-316.428 456.843,-309.79"/>
</g>
<!-- Node37 -->
<g id="node37" class="node"><title>Node37</title>
<polygon fill="white" stroke="#bfbfbf" points="464.5,-291.5 464.5,-310.5 508.5,-310.5 508.5,-291.5 464.5,-291.5"/>
<text text-anchor="middle" x="486.5" y="-298.5" font-family="Helvetica,sans-Serif" font-size="10.00">string</text>
</g>
<!-- Node35&#45;&gt;Node37 -->
<g id="edge52" class="edge"><title>Node35&#45;&gt;Node37</title>
<path fill="none" stroke="midnightblue" d="M584.167,-352.975C565.289,-343.122 533.993,-326.788 511.924,-315.27"/>
<polygon fill="midnightblue" stroke="midnightblue" points="513.288,-312.033 502.803,-310.509 510.049,-318.239 513.288,-312.033"/>
</g>
<!-- Node38 -->
<g id="node38" class="node"><title>Node38</title>
<g id="a_node38"><a xlink:href="Entity_8inl.html" target="_top" xlink:title="Engine/Entity/Entity.inl">
<polygon fill="white" stroke="black" points="526,-291.5 526,-310.5 647,-310.5 647,-291.5 526,-291.5"/>
<text text-anchor="middle" x="586.5" y="-298.5" font-family="Helvetica,sans-Serif" font-size="10.00">Engine/Entity/Entity.inl</text>
</a>
</g>
</g>
<!-- Node35&#45;&gt;Node38 -->
<g id="edge58" class="edge"><title>Node35&#45;&gt;Node38</title>
<path fill="none" stroke="midnightblue" d="M593.594,-352.975C589.787,-344.58 586.234,-331.481 584.576,-320.663"/>
<polygon fill="midnightblue" stroke="midnightblue" points="588.042,-320.13 583.605,-310.509 581.073,-320.797 588.042,-320.13"/>
</g>
<!-- Node38&#45;&gt;Node35 -->
<g id="edge59" class="edge"><title>Node38&#45;&gt;Node35</title>
<path fill="none" stroke="midnightblue" d="M593.399,-310.509C597.206,-318.898 600.761,-331.996 602.42,-342.817"/>
<polygon fill="midnightblue" stroke="midnightblue" points="598.956,-343.355 603.395,-352.975 605.924,-342.687 598.956,-343.355"/>
</g>
</g>
</svg>
