<?xml version="1.0" encoding="UTF-8" standalone="no"?>
<!DOCTYPE svg PUBLIC "-//W3C//DTD SVG 1.1//EN"
 "http://www.w3.org/Graphics/SVG/1.1/DTD/svg11.dtd">
<!-- Generated by graphviz version 2.38.0 (20140413.2041)
 -->
<!-- Title: /home/travis/build/STORM&#45;IRIT/Radium&#45;Engine/src/Core/Algorithm/Delta/Delta.hpp Pages: 1 -->
<svg width="538pt" height="328pt"
 viewBox="0.00 0.00 537.50 328.00" xmlns="http://www.w3.org/2000/svg" xmlns:xlink="http://www.w3.org/1999/xlink">
<g id="graph0" class="graph" transform="scale(1 1) rotate(0) translate(4 324)">
<title>/home/travis/build/STORM&#45;IRIT/Radium&#45;Engine/src/Core/Algorithm/Delta/Delta.hpp</title>
<polygon fill="white" stroke="none" points="-4,4 -4,-324 533.5,-324 533.5,4 -4,4"/>
<!-- Node1 -->
<g id="node1" class="node"><title>Node1</title>
<polygon fill="#bfbfbf" stroke="black" points="179.5,-267.5 179.5,-319.5 327.5,-319.5 327.5,-267.5 179.5,-267.5"/>
<text text-anchor="start" x="187.5" y="-307.5" font-family="Helvetica,sans-Serif" font-size="10.00">/home/travis/build</text>
<text text-anchor="start" x="187.5" y="-296.5" font-family="Helvetica,sans-Serif" font-size="10.00">/STORM&#45;IRIT/Radium&#45;Engine</text>
<text text-anchor="start" x="187.5" y="-285.5" font-family="Helvetica,sans-Serif" font-size="10.00">/src/Core/Algorithm/Delta</text>
<text text-anchor="middle" x="253.5" y="-274.5" font-family="Helvetica,sans-Serif" font-size="10.00">/Delta.hpp</text>
</g>
<!-- Node2 -->
<g id="node2" class="node"><title>Node2</title>
<g id="a_node2"><a xlink:href="Delta_8cpp.html" target="_top" xlink:title="/home/travis/build\l/STORM&#45;IRIT/Radium&#45;Engine\l/src/Core/Algorithm/Delta\l/Delta.cpp">
<polygon fill="white" stroke="black" points="10.5,-178.5 10.5,-230.5 158.5,-230.5 158.5,-178.5 10.5,-178.5"/>
<text text-anchor="start" x="18.5" y="-218.5" font-family="Helvetica,sans-Serif" font-size="10.00">/home/travis/build</text>
<text text-anchor="start" x="18.5" y="-207.5" font-family="Helvetica,sans-Serif" font-size="10.00">/STORM&#45;IRIT/Radium&#45;Engine</text>
<text text-anchor="start" x="18.5" y="-196.5" font-family="Helvetica,sans-Serif" font-size="10.00">/src/Core/Algorithm/Delta</text>
<text text-anchor="middle" x="84.5" y="-185.5" font-family="Helvetica,sans-Serif" font-size="10.00">/Delta.cpp</text>
</a>
</g>
</g>
<!-- Node1&#45;&gt;Node2 -->
<g id="edge1" class="edge"><title>Node1&#45;&gt;Node2</title>
<path fill="none" stroke="midnightblue" d="M195.487,-262.635C175.226,-252.205 152.704,-240.611 133.272,-230.607"/>
<polygon fill="midnightblue" stroke="midnightblue" points="194.125,-265.871 204.618,-267.336 197.329,-259.647 194.125,-265.871"/>
</g>
<!-- Node3 -->
<g id="node3" class="node"><title>Node3</title>
<g id="a_node3"><a xlink:href="Diffusion_8hpp.html" target="_top" xlink:title="/home/travis/build\l/STORM&#45;IRIT/Radium&#45;Engine\l/src/Core/Algorithm/Diffusion\l/Diffusion.hpp">
<polygon fill="white" stroke="black" points="177,-178.5 177,-230.5 330,-230.5 330,-178.5 177,-178.5"/>
<text text-anchor="start" x="185" y="-218.5" font-family="Helvetica,sans-Serif" font-size="10.00">/home/travis/build</text>
<text text-anchor="start" x="185" y="-207.5" font-family="Helvetica,sans-Serif" font-size="10.00">/STORM&#45;IRIT/Radium&#45;Engine</text>
<text text-anchor="start" x="185" y="-196.5" font-family="Helvetica,sans-Serif" font-size="10.00">/src/Core/Algorithm/Diffusion</text>
<text text-anchor="middle" x="253.5" y="-185.5" font-family="Helvetica,sans-Serif" font-size="10.00">/Diffusion.hpp</text>
</a>
</g>
</g>
<!-- Node1&#45;&gt;Node3 -->
<g id="edge2" class="edge"><title>Node1&#45;&gt;Node3</title>
<path fill="none" stroke="midnightblue" d="M253.5,-257.191C253.5,-248.282 253.5,-238.899 253.5,-230.607"/>
<polygon fill="midnightblue" stroke="midnightblue" points="250,-257.336 253.5,-267.336 257,-257.336 250,-257.336"/>
</g>
<!-- Node7 -->
<g id="node7" class="node"><title>Node7</title>
<g id="a_node7"><a xlink:href="HeatDiffusion_8hpp.html" target="_top" xlink:title="/home/travis/build\l/STORM&#45;IRIT/Radium&#45;Engine\l/src/Core/Algorithm/HeatDiffusion\l/HeatDiffusion.hpp">
<polygon fill="white" stroke="black" points="350.5,-178.5 350.5,-230.5 526.5,-230.5 526.5,-178.5 350.5,-178.5"/>
<text text-anchor="start" x="358.5" y="-218.5" font-family="Helvetica,sans-Serif" font-size="10.00">/home/travis/build</text>
<text text-anchor="start" x="358.5" y="-207.5" font-family="Helvetica,sans-Serif" font-size="10.00">/STORM&#45;IRIT/Radium&#45;Engine</text>
<text text-anchor="start" x="358.5" y="-196.5" font-family="Helvetica,sans-Serif" font-size="10.00">/src/Core/Algorithm/HeatDiffusion</text>
<text text-anchor="middle" x="438.5" y="-185.5" font-family="Helvetica,sans-Serif" font-size="10.00">/HeatDiffusion.hpp</text>
</a>
</g>
</g>
<!-- Node1&#45;&gt;Node7 -->
<g id="edge6" class="edge"><title>Node1&#45;&gt;Node7</title>
<path fill="none" stroke="midnightblue" d="M316.107,-263.058C338.518,-252.519 363.551,-240.746 385.111,-230.607"/>
<polygon fill="midnightblue" stroke="midnightblue" points="314.569,-259.913 307.01,-267.336 317.548,-266.248 314.569,-259.913"/>
</g>
<!-- Node4 -->
<g id="node4" class="node"><title>Node4</title>
<g id="a_node4"><a xlink:href="Diffusion_8cpp.html" target="_top" xlink:title="/home/travis/build\l/STORM&#45;IRIT/Radium&#45;Engine\l/src/Core/Algorithm/Diffusion\l/Diffusion.cpp">
<polygon fill="white" stroke="black" points="0,-89.5 0,-141.5 153,-141.5 153,-89.5 0,-89.5"/>
<text text-anchor="start" x="8" y="-129.5" font-family="Helvetica,sans-Serif" font-size="10.00">/home/travis/build</text>
<text text-anchor="start" x="8" y="-118.5" font-family="Helvetica,sans-Serif" font-size="10.00">/STORM&#45;IRIT/Radium&#45;Engine</text>
<text text-anchor="start" x="8" y="-107.5" font-family="Helvetica,sans-Serif" font-size="10.00">/src/Core/Algorithm/Diffusion</text>
<text text-anchor="middle" x="76.5" y="-96.5" font-family="Helvetica,sans-Serif" font-size="10.00">/Diffusion.cpp</text>
</a>
</g>
</g>
<!-- Node3&#45;&gt;Node4 -->
<g id="edge3" class="edge"><title>Node3&#45;&gt;Node4</title>
<path fill="none" stroke="midnightblue" d="M193.314,-173.917C171.946,-163.414 148.116,-151.701 127.581,-141.607"/>
<polygon fill="midnightblue" stroke="midnightblue" points="191.786,-177.066 202.304,-178.336 194.874,-170.784 191.786,-177.066"/>
</g>
<!-- Node5 -->
<g id="node5" class="node"><title>Node5</title>
<g id="a_node5"><a xlink:href="LaplacianSmoothing_8hpp.html" target="_top" xlink:title="/home/travis/build\l/STORM&#45;IRIT/Radium&#45;Engine\l/src/Core/Algorithm/Smoothing\l/LaplacianSmoothing.hpp">
<polygon fill="white" stroke="black" points="171.5,-89.5 171.5,-141.5 335.5,-141.5 335.5,-89.5 171.5,-89.5"/>
<text text-anchor="start" x="179.5" y="-129.5" font-family="Helvetica,sans-Serif" font-size="10.00">/home/travis/build</text>
<text text-anchor="start" x="179.5" y="-118.5" font-family="Helvetica,sans-Serif" font-size="10.00">/STORM&#45;IRIT/Radium&#45;Engine</text>
<text text-anchor="start" x="179.5" y="-107.5" font-family="Helvetica,sans-Serif" font-size="10.00">/src/Core/Algorithm/Smoothing</text>
<text text-anchor="middle" x="253.5" y="-96.5" font-family="Helvetica,sans-Serif" font-size="10.00">/LaplacianSmoothing.hpp</text>
</a>
</g>
</g>
<!-- Node3&#45;&gt;Node5 -->
<g id="edge4" class="edge"><title>Node3&#45;&gt;Node5</title>
<path fill="none" stroke="midnightblue" d="M253.5,-168.191C253.5,-159.282 253.5,-149.899 253.5,-141.607"/>
<polygon fill="midnightblue" stroke="midnightblue" points="250,-168.336 253.5,-178.336 257,-168.336 250,-168.336"/>
</g>
<!-- Node6 -->
<g id="node6" class="node"><title>Node6</title>
<g id="a_node6"><a xlink:href="LaplacianSmoothing_8cpp.html" target="_top" xlink:title="/home/travis/build\l/STORM&#45;IRIT/Radium&#45;Engine\l/src/Core/Algorithm/Smoothing\l/LaplacianSmoothing.cpp">
<polygon fill="white" stroke="black" points="171.5,-0.5 171.5,-52.5 335.5,-52.5 335.5,-0.5 171.5,-0.5"/>
<text text-anchor="start" x="179.5" y="-40.5" font-family="Helvetica,sans-Serif" font-size="10.00">/home/travis/build</text>
<text text-anchor="start" x="179.5" y="-29.5" font-family="Helvetica,sans-Serif" font-size="10.00">/STORM&#45;IRIT/Radium&#45;Engine</text>
<text text-anchor="start" x="179.5" y="-18.5" font-family="Helvetica,sans-Serif" font-size="10.00">/src/Core/Algorithm/Smoothing</text>
<text text-anchor="middle" x="253.5" y="-7.5" font-family="Helvetica,sans-Serif" font-size="10.00">/LaplacianSmoothing.cpp</text>
</a>
</g>
</g>
<!-- Node5&#45;&gt;Node6 -->
<g id="edge5" class="edge"><title>Node5&#45;&gt;Node6</title>
<path fill="none" stroke="midnightblue" d="M253.5,-79.1908C253.5,-70.2824 253.5,-60.8986 253.5,-52.6075"/>
<polygon fill="midnightblue" stroke="midnightblue" points="250,-79.336 253.5,-89.336 257,-79.336 250,-79.336"/>
</g>
<!-- Node8 -->
<g id="node8" class="node"><title>Node8</title>
<g id="a_node8"><a xlink:href="HeatDiffusion_8cpp.html" target="_top" xlink:title="/home/travis/build\l/STORM&#45;IRIT/Radium&#45;Engine\l/src/Core/Algorithm/HeatDiffusion\l/HeatDiffusion.cpp">
<polygon fill="white" stroke="black" points="353.5,-89.5 353.5,-141.5 529.5,-141.5 529.5,-89.5 353.5,-89.5"/>
<text text-anchor="start" x="361.5" y="-129.5" font-family="Helvetica,sans-Serif" font-size="10.00">/home/travis/build</text>
<text text-anchor="start" x="361.5" y="-118.5" font-family="Helvetica,sans-Serif" font-size="10.00">/STORM&#45;IRIT/Radium&#45;Engine</text>
<text text-anchor="start" x="361.5" y="-107.5" font-family="Helvetica,sans-Serif" font-size="10.00">/src/Core/Algorithm/HeatDiffusion</text>
<text text-anchor="middle" x="441.5" y="-96.5" font-family="Helvetica,sans-Serif" font-size="10.00">/HeatDiffusion.cpp</text>
</a>
</g>
</g>
<!-- Node7&#45;&gt;Node8 -->
<g id="edge7" class="edge"><title>Node7&#45;&gt;Node8</title>
<path fill="none" stroke="midnightblue" d="M439.718,-168.191C440.025,-159.282 440.348,-149.899 440.634,-141.607"/>
<polygon fill="midnightblue" stroke="midnightblue" points="436.215,-168.221 439.368,-178.336 443.21,-168.463 436.215,-168.221"/>
</g>
</g>
</svg>
