<?xml version="1.0" encoding="UTF-8" standalone="no"?>
<!DOCTYPE svg PUBLIC "-//W3C//DTD SVG 1.1//EN"
 "http://www.w3.org/Graphics/SVG/1.1/DTD/svg11.dtd">
<!-- Generated by graphviz version 2.38.0 (20140413.2041)
 -->
<!-- Title: /home/travis/build/STORM&#45;IRIT/Radium&#45;Engine/src/Core/Algorithm/Delta/Delta.cpp Pages: 1 -->
<svg width="1028pt" height="419pt"
 viewBox="0.00 0.00 1028.00 419.00" xmlns="http://www.w3.org/2000/svg" xmlns:xlink="http://www.w3.org/1999/xlink">
<g id="graph0" class="graph" transform="scale(1 1) rotate(0) translate(4 415)">
<title>/home/travis/build/STORM&#45;IRIT/Radium&#45;Engine/src/Core/Algorithm/Delta/Delta.cpp</title>
<polygon fill="white" stroke="none" points="-4,4 -4,-415 1024,-415 1024,4 -4,4"/>
<!-- Node1 -->
<g id="node1" class="node"><title>Node1</title>
<polygon fill="#bfbfbf" stroke="black" points="316,-358.5 316,-410.5 464,-410.5 464,-358.5 316,-358.5"/>
<text text-anchor="start" x="324" y="-398.5" font-family="Helvetica,sans-Serif" font-size="10.00">/home/travis/build</text>
<text text-anchor="start" x="324" y="-387.5" font-family="Helvetica,sans-Serif" font-size="10.00">/STORM&#45;IRIT/Radium&#45;Engine</text>
<text text-anchor="start" x="324" y="-376.5" font-family="Helvetica,sans-Serif" font-size="10.00">/src/Core/Algorithm/Delta</text>
<text text-anchor="middle" x="390" y="-365.5" font-family="Helvetica,sans-Serif" font-size="10.00">/Delta.cpp</text>
</g>
<!-- Node2 -->
<g id="node2" class="node"><title>Node2</title>
<g id="a_node2"><a xlink:href="Delta_8hpp.html" target="_top" xlink:title="Core/Algorithm/Delta\l/Delta.hpp">
<polygon fill="white" stroke="black" points="331.5,-291.5 331.5,-321.5 448.5,-321.5 448.5,-291.5 331.5,-291.5"/>
<text text-anchor="start" x="339.5" y="-309.5" font-family="Helvetica,sans-Serif" font-size="10.00">Core/Algorithm/Delta</text>
<text text-anchor="middle" x="390" y="-298.5" font-family="Helvetica,sans-Serif" font-size="10.00">/Delta.hpp</text>
</a>
</g>
</g>
<!-- Node1&#45;&gt;Node2 -->
<g id="edge1" class="edge"><title>Node1&#45;&gt;Node2</title>
<path fill="none" stroke="midnightblue" d="M390,-358.193C390,-349.786 390,-340.443 390,-332.091"/>
<polygon fill="midnightblue" stroke="midnightblue" points="393.5,-331.845 390,-321.845 386.5,-331.845 393.5,-331.845"/>
</g>
<!-- Node3 -->
<g id="node3" class="node"><title>Node3</title>
<polygon fill="white" stroke="#bfbfbf" points="239.5,-235.5 239.5,-254.5 288.5,-254.5 288.5,-235.5 239.5,-235.5"/>
<text text-anchor="middle" x="264" y="-242.5" font-family="Helvetica,sans-Serif" font-size="10.00">cstdint</text>
</g>
<!-- Node2&#45;&gt;Node3 -->
<g id="edge2" class="edge"><title>Node2&#45;&gt;Node3</title>
<path fill="none" stroke="midnightblue" d="M360.14,-291.399C339.377,-281.595 311.9,-268.619 291.639,-259.052"/>
<polygon fill="midnightblue" stroke="midnightblue" points="292.871,-255.763 282.334,-254.658 289.882,-262.093 292.871,-255.763"/>
</g>
<!-- Node4 -->
<g id="node4" class="node"><title>Node4</title>
<polygon fill="white" stroke="#bfbfbf" points="306.5,-235.5 306.5,-254.5 353.5,-254.5 353.5,-235.5 306.5,-235.5"/>
<text text-anchor="middle" x="330" y="-242.5" font-family="Helvetica,sans-Serif" font-size="10.00">vector</text>
</g>
<!-- Node2&#45;&gt;Node4 -->
<g id="edge3" class="edge"><title>Node2&#45;&gt;Node4</title>
<path fill="none" stroke="midnightblue" d="M375.781,-291.399C366.792,-282.486 355.162,-270.952 345.873,-261.741"/>
<polygon fill="midnightblue" stroke="midnightblue" points="348.296,-259.214 338.731,-254.658 343.367,-264.184 348.296,-259.214"/>
</g>
<!-- Node5 -->
<g id="node5" class="node"><title>Node5</title>
<g id="a_node5"><a xlink:href="LinearAlgebra_8hpp.html" target="_top" xlink:title="Core/Math/LinearAlgebra.hpp">
<polygon fill="white" stroke="black" points="372,-235.5 372,-254.5 528,-254.5 528,-235.5 372,-235.5"/>
<text text-anchor="middle" x="450" y="-242.5" font-family="Helvetica,sans-Serif" font-size="10.00">Core/Math/LinearAlgebra.hpp</text>
</a>
</g>
</g>
<!-- Node2&#45;&gt;Node5 -->
<g id="edge4" class="edge"><title>Node2&#45;&gt;Node5</title>
<path fill="none" stroke="midnightblue" d="M404.219,-291.399C413.208,-282.486 424.838,-270.952 434.127,-261.741"/>
<polygon fill="midnightblue" stroke="midnightblue" points="436.633,-264.184 441.269,-254.658 431.704,-259.214 436.633,-264.184"/>
</g>
<!-- Node6 -->
<g id="node6" class="node"><title>Node6</title>
<g id="a_node6"><a xlink:href="RaCore_8hpp.html" target="_top" xlink:title="Core/RaCore.hpp">
<polygon fill="white" stroke="black" points="801,-112.5 801,-131.5 899,-131.5 899,-112.5 801,-112.5"/>
<text text-anchor="middle" x="850" y="-119.5" font-family="Helvetica,sans-Serif" font-size="10.00">Core/RaCore.hpp</text>
</a>
</g>
</g>
<!-- Node2&#45;&gt;Node6 -->
<g id="edge24" class="edge"><title>Node2&#45;&gt;Node6</title>
<path fill="none" stroke="midnightblue" d="M448.674,-300.879C561.732,-290.628 803.041,-261.755 853,-199 865.818,-182.898 861.916,-158.232 856.902,-141.398"/>
<polygon fill="midnightblue" stroke="midnightblue" points="860.122,-139.994 853.611,-131.636 853.489,-142.23 860.122,-139.994"/>
</g>
<!-- Node5&#45;&gt;Node6 -->
<g id="edge5" class="edge"><title>Node5&#45;&gt;Node6</title>
<path fill="none" stroke="midnightblue" d="M528.417,-244.893C626.659,-244.334 787.437,-237.338 831,-199 847.08,-184.848 850.566,-159.343 850.868,-141.811"/>
<polygon fill="midnightblue" stroke="midnightblue" points="854.365,-141.584 850.707,-131.64 847.366,-141.695 854.365,-141.584"/>
</g>
<!-- Node13 -->
<g id="node13" class="node"><title>Node13</title>
<polygon fill="white" stroke="#bfbfbf" points="0,-174 0,-193 68,-193 68,-174 0,-174"/>
<text text-anchor="middle" x="34" y="-181" font-family="Helvetica,sans-Serif" font-size="10.00">Eigen/Core</text>
</g>
<!-- Node5&#45;&gt;Node13 -->
<g id="edge12" class="edge"><title>Node5&#45;&gt;Node13</title>
<path fill="none" stroke="midnightblue" d="M372.119,-235.467C271.267,-224.284 105.031,-205.346 77,-199 73.5135,-198.211 69.912,-197.246 66.3458,-196.192"/>
<polygon fill="midnightblue" stroke="midnightblue" points="67.1045,-192.76 56.5139,-193.06 64.9798,-199.43 67.1045,-192.76"/>
</g>
<!-- Node14 -->
<g id="node14" class="node"><title>Node14</title>
<polygon fill="white" stroke="#bfbfbf" points="86,-174 86,-193 180,-193 180,-174 86,-174"/>
<text text-anchor="middle" x="133" y="-181" font-family="Helvetica,sans-Serif" font-size="10.00">Eigen/Geometry</text>
</g>
<!-- Node5&#45;&gt;Node14 -->
<g id="edge13" class="edge"><title>Node5&#45;&gt;Node14</title>
<path fill="none" stroke="midnightblue" d="M392.457,-235.478C339.397,-227.29 258.562,-213.976 189,-199 184.034,-197.931 178.845,-196.718 173.714,-195.461"/>
<polygon fill="midnightblue" stroke="midnightblue" points="174.545,-192.061 163.993,-193.012 172.835,-198.849 174.545,-192.061"/>
</g>
<!-- Node15 -->
<g id="node15" class="node"><title>Node15</title>
<polygon fill="white" stroke="#bfbfbf" points="198,-174 198,-193 278,-193 278,-174 198,-174"/>
<text text-anchor="middle" x="238" y="-181" font-family="Helvetica,sans-Serif" font-size="10.00">Eigen/Sparse</text>
</g>
<!-- Node5&#45;&gt;Node15 -->
<g id="edge14" class="edge"><title>Node5&#45;&gt;Node15</title>
<path fill="none" stroke="midnightblue" d="M418.399,-235.46C385.526,-226.533 332.585,-212.036 287,-199 283.466,-197.989 279.791,-196.926 276.116,-195.853"/>
<polygon fill="midnightblue" stroke="midnightblue" points="277.057,-192.482 266.476,-193.022 275.084,-199.198 277.057,-192.482"/>
</g>
<!-- Node16 -->
<g id="node16" class="node"><title>Node16</title>
<polygon fill="white" stroke="#bfbfbf" points="296.5,-174 296.5,-193 359.5,-193 359.5,-174 296.5,-174"/>
<text text-anchor="middle" x="328" y="-181" font-family="Helvetica,sans-Serif" font-size="10.00">functional</text>
</g>
<!-- Node5&#45;&gt;Node16 -->
<g id="edge15" class="edge"><title>Node5&#45;&gt;Node16</title>
<path fill="none" stroke="midnightblue" d="M432.52,-235.475C412.137,-225.534 378.225,-208.995 354.575,-197.461"/>
<polygon fill="midnightblue" stroke="midnightblue" points="355.969,-194.247 345.447,-193.009 352.901,-200.538 355.969,-194.247"/>
</g>
<!-- Node17 -->
<g id="node17" class="node"><title>Node17</title>
<polygon fill="white" stroke="#bfbfbf" points="377.5,-168.5 377.5,-198.5 522.5,-198.5 522.5,-168.5 377.5,-168.5"/>
<text text-anchor="start" x="385.5" y="-186.5" font-family="Helvetica,sans-Serif" font-size="10.00">unsupported/Eigen/Aligned</text>
<text text-anchor="middle" x="450" y="-175.5" font-family="Helvetica,sans-Serif" font-size="10.00">Vector3</text>
</g>
<!-- Node5&#45;&gt;Node17 -->
<g id="edge16" class="edge"><title>Node5&#45;&gt;Node17</title>
<path fill="none" stroke="midnightblue" d="M450,-235.475C450,-228.471 450,-218.192 450,-208.696"/>
<polygon fill="midnightblue" stroke="midnightblue" points="453.5,-208.523 450,-198.523 446.5,-208.523 453.5,-208.523"/>
</g>
<!-- Node18 -->
<g id="node18" class="node"><title>Node18</title>
<g id="a_node18"><a xlink:href="Math_8hpp.html" target="_top" xlink:title="Core/Math/Math.hpp">
<polygon fill="white" stroke="black" points="541,-174 541,-193 655,-193 655,-174 541,-174"/>
<text text-anchor="middle" x="598" y="-181" font-family="Helvetica,sans-Serif" font-size="10.00">Core/Math/Math.hpp</text>
</a>
</g>
</g>
<!-- Node5&#45;&gt;Node18 -->
<g id="edge17" class="edge"><title>Node5&#45;&gt;Node18</title>
<path fill="none" stroke="midnightblue" d="M471.205,-235.475C496.372,-225.357 538.54,-208.405 567.279,-196.851"/>
<polygon fill="midnightblue" stroke="midnightblue" points="568.862,-199.987 576.835,-193.009 566.251,-193.492 568.862,-199.987"/>
</g>
<!-- Node22 -->
<g id="node22" class="node"><title>Node22</title>
<g id="a_node22"><a xlink:href="LinearAlgebra_8inl.html" target="_top" xlink:title="Core/Math/LinearAlgebra.inl">
<polygon fill="white" stroke="black" points="673.5,-174 673.5,-193 822.5,-193 822.5,-174 673.5,-174"/>
<text text-anchor="middle" x="748" y="-181" font-family="Helvetica,sans-Serif" font-size="10.00">Core/Math/LinearAlgebra.inl</text>
</a>
</g>
</g>
<!-- Node5&#45;&gt;Node22 -->
<g id="edge23" class="edge"><title>Node5&#45;&gt;Node22</title>
<path fill="none" stroke="midnightblue" d="M492.696,-235.475C546.137,-224.805 637.647,-206.534 695.367,-195.009"/>
<polygon fill="midnightblue" stroke="midnightblue" points="696.262,-198.399 705.383,-193.009 694.891,-191.535 696.262,-198.399"/>
</g>
<!-- Node7 -->
<g id="node7" class="node"><title>Node7</title>
<g id="a_node7"><a xlink:href="CoreMacros_8hpp.html" target="_top" xlink:title="Core/CoreMacros.hpp">
<polygon fill="white" stroke="black" points="790,-56.5 790,-75.5 910,-75.5 910,-56.5 790,-56.5"/>
<text text-anchor="middle" x="850" y="-63.5" font-family="Helvetica,sans-Serif" font-size="10.00">Core/CoreMacros.hpp</text>
</a>
</g>
</g>
<!-- Node6&#45;&gt;Node7 -->
<g id="edge6" class="edge"><title>Node6&#45;&gt;Node7</title>
<path fill="none" stroke="midnightblue" d="M850,-112.083C850,-105.006 850,-94.8611 850,-85.9865"/>
<polygon fill="midnightblue" stroke="midnightblue" points="853.5,-85.751 850,-75.7511 846.5,-85.7511 853.5,-85.751"/>
</g>
<!-- Node8 -->
<g id="node8" class="node"><title>Node8</title>
<polygon fill="white" stroke="#bfbfbf" points="687,-0.5 687,-19.5 739,-19.5 739,-0.5 687,-0.5"/>
<text text-anchor="middle" x="713" y="-7.5" font-family="Helvetica,sans-Serif" font-size="10.00">cassert</text>
</g>
<!-- Node7&#45;&gt;Node8 -->
<g id="edge7" class="edge"><title>Node7&#45;&gt;Node8</title>
<path fill="none" stroke="midnightblue" d="M828.292,-56.4435C805.645,-47.5171 769.928,-33.4387 744.248,-23.3168"/>
<polygon fill="midnightblue" stroke="midnightblue" points="745.193,-19.9273 734.606,-19.5164 742.626,-26.4397 745.193,-19.9273"/>
</g>
<!-- Node9 -->
<g id="node9" class="node"><title>Node9</title>
<polygon fill="white" stroke="#bfbfbf" points="757.5,-0.5 757.5,-19.5 802.5,-19.5 802.5,-0.5 757.5,-0.5"/>
<text text-anchor="middle" x="780" y="-7.5" font-family="Helvetica,sans-Serif" font-size="10.00">cstdio</text>
</g>
<!-- Node7&#45;&gt;Node9 -->
<g id="edge8" class="edge"><title>Node7&#45;&gt;Node9</title>
<path fill="none" stroke="midnightblue" d="M838.753,-56.324C828.203,-48.1849 812.199,-35.8395 799.558,-26.0874"/>
<polygon fill="midnightblue" stroke="midnightblue" points="801.507,-23.1707 791.451,-19.8339 797.231,-28.7132 801.507,-23.1707"/>
</g>
<!-- Node10 -->
<g id="node10" class="node"><title>Node10</title>
<polygon fill="white" stroke="#bfbfbf" points="820.5,-0.5 820.5,-19.5 879.5,-19.5 879.5,-0.5 820.5,-0.5"/>
<text text-anchor="middle" x="850" y="-7.5" font-family="Helvetica,sans-Serif" font-size="10.00">iostream</text>
</g>
<!-- Node7&#45;&gt;Node10 -->
<g id="edge9" class="edge"><title>Node7&#45;&gt;Node10</title>
<path fill="none" stroke="midnightblue" d="M850,-56.083C850,-49.0059 850,-38.8611 850,-29.9865"/>
<polygon fill="midnightblue" stroke="midnightblue" points="853.5,-29.751 850,-19.7511 846.5,-29.7511 853.5,-29.751"/>
</g>
<!-- Node11 -->
<g id="node11" class="node"><title>Node11</title>
<polygon fill="white" stroke="#bfbfbf" points="898,-0.5 898,-19.5 954,-19.5 954,-0.5 898,-0.5"/>
<text text-anchor="middle" x="926" y="-7.5" font-family="Helvetica,sans-Serif" font-size="10.00">sstream</text>
</g>
<!-- Node7&#45;&gt;Node11 -->
<g id="edge10" class="edge"><title>Node7&#45;&gt;Node11</title>
<path fill="none" stroke="midnightblue" d="M862.211,-56.324C873.776,-48.1066 891.375,-35.6017 905.161,-25.8069"/>
<polygon fill="midnightblue" stroke="midnightblue" points="907.443,-28.4791 913.567,-19.8339 903.388,-22.7729 907.443,-28.4791"/>
</g>
<!-- Node12 -->
<g id="node12" class="node"><title>Node12</title>
<polygon fill="white" stroke="#bfbfbf" points="972,-0.5 972,-19.5 1020,-19.5 1020,-0.5 972,-0.5"/>
<text text-anchor="middle" x="996" y="-7.5" font-family="Helvetica,sans-Serif" font-size="10.00">thread</text>
</g>
<!-- Node7&#45;&gt;Node12 -->
<g id="edge11" class="edge"><title>Node7&#45;&gt;Node12</title>
<path fill="none" stroke="midnightblue" d="M873.134,-56.4435C897.482,-47.4381 936.007,-33.1891 963.423,-23.049"/>
<polygon fill="midnightblue" stroke="midnightblue" points="964.809,-26.2681 972.974,-19.5164 962.381,-19.7028 964.809,-26.2681"/>
</g>
<!-- Node18&#45;&gt;Node6 -->
<g id="edge18" class="edge"><title>Node18&#45;&gt;Node6</title>
<path fill="none" stroke="midnightblue" d="M634.105,-173.975C678.829,-163.415 755.083,-145.411 803.967,-133.869"/>
<polygon fill="midnightblue" stroke="midnightblue" points="805.033,-137.213 813.962,-131.509 803.425,-130.401 805.033,-137.213"/>
</g>
<!-- Node19 -->
<g id="node19" class="node"><title>Node19</title>
<polygon fill="white" stroke="#bfbfbf" points="447,-112.5 447,-131.5 509,-131.5 509,-112.5 447,-112.5"/>
<text text-anchor="middle" x="478" y="-119.5" font-family="Helvetica,sans-Serif" font-size="10.00">algorithm</text>
</g>
<!-- Node18&#45;&gt;Node19 -->
<g id="edge19" class="edge"><title>Node18&#45;&gt;Node19</title>
<path fill="none" stroke="midnightblue" d="M580.807,-173.975C560.757,-164.034 527.401,-147.495 504.14,-135.961"/>
<polygon fill="midnightblue" stroke="midnightblue" points="505.675,-132.816 495.161,-131.509 502.566,-139.087 505.675,-132.816"/>
</g>
<!-- Node20 -->
<g id="node20" class="node"><title>Node20</title>
<polygon fill="white" stroke="#bfbfbf" points="527.5,-112.5 527.5,-131.5 574.5,-131.5 574.5,-112.5 527.5,-112.5"/>
<text text-anchor="middle" x="551" y="-119.5" font-family="Helvetica,sans-Serif" font-size="10.00">cmath</text>
</g>
<!-- Node18&#45;&gt;Node20 -->
<g id="edge20" class="edge"><title>Node18&#45;&gt;Node20</title>
<path fill="none" stroke="midnightblue" d="M591.266,-173.975C584.216,-165.05 572.965,-150.807 564.146,-139.643"/>
<polygon fill="midnightblue" stroke="midnightblue" points="566.667,-137.187 557.721,-131.509 561.174,-141.526 566.667,-137.187"/>
</g>
<!-- Node21 -->
<g id="node21" class="node"><title>Node21</title>
<g id="a_node21"><a xlink:href="Math_8inl.html" target="_top" xlink:title="Core/Math/Math.inl">
<polygon fill="white" stroke="black" points="592.5,-112.5 592.5,-131.5 699.5,-131.5 699.5,-112.5 592.5,-112.5"/>
<text text-anchor="middle" x="646" y="-119.5" font-family="Helvetica,sans-Serif" font-size="10.00">Core/Math/Math.inl</text>
</a>
</g>
</g>
<!-- Node18&#45;&gt;Node21 -->
<g id="edge21" class="edge"><title>Node18&#45;&gt;Node21</title>
<path fill="none" stroke="midnightblue" d="M599.977,-173.975C605.334,-164.873 616.751,-150.241 627.045,-138.983"/>
<polygon fill="midnightblue" stroke="midnightblue" points="629.825,-141.141 634.238,-131.509 624.782,-136.287 629.825,-141.141"/>
</g>
<!-- Node21&#45;&gt;Node18 -->
<g id="edge22" class="edge"><title>Node21&#45;&gt;Node18</title>
<path fill="none" stroke="midnightblue" d="M644.033,-131.509C638.682,-140.604 627.268,-155.236 616.973,-166.497"/>
<polygon fill="midnightblue" stroke="midnightblue" points="614.19,-164.343 609.778,-173.975 619.234,-169.196 614.19,-164.343"/>
</g>
</g>
</svg>
