<?xml version="1.0" encoding="UTF-8" standalone="no"?>
<!DOCTYPE svg PUBLIC "-//W3C//DTD SVG 1.1//EN"
 "http://www.w3.org/Graphics/SVG/1.1/DTD/svg11.dtd">
<!-- Generated by graphviz version 2.38.0 (20140413.2041)
 -->
<!-- Title: /home/travis/build/STORM&#45;IRIT/Radium&#45;Engine/src/Core/Algorithm/ScalarField Pages: 1 -->
<svg width="136pt" height="295pt"
 viewBox="0.00 0.00 135.50 295.00" xmlns="http://www.w3.org/2000/svg" xmlns:xlink="http://www.w3.org/1999/xlink">
<g id="graph0" class="graph" transform="scale(1 1) rotate(0) translate(4 291)">
<title>/home/travis/build/STORM&#45;IRIT/Radium&#45;Engine/src/Core/Algorithm/ScalarField</title>
<polygon fill="white" stroke="none" points="-4,4 -4,-291 131.5,-291 131.5,4 -4,4"/>
<g id="clust1" class="cluster"><title>clusterdir_ec48d91ab8a264b56e678b01a1ccafad</title>
<g id="a_clust1"><a xlink:href="dir_ec48d91ab8a264b56e678b01a1ccafad.html" target="_top" xlink:title="Algorithm">
<polygon fill="#ddddee" stroke="black" points="9,-208 9,-279 93,-279 93,-208 9,-208"/>
<text text-anchor="middle" x="51" y="-267" font-family="Helvetica,sans-Serif" font-size="10.00">Algorithm</text>
</a>
</g>
</g>
<!-- dir_0a9eac736250dab641e03be9c835eb0a -->
<g id="node1" class="node"><title>dir_0a9eac736250dab641e03be9c835eb0a</title>
<g id="a_node1"><a xlink:href="dir_0a9eac736250dab641e03be9c835eb0a.html" target="_top" xlink:title="ScalarField">
<polygon fill="#eeeeff" stroke="black" points="85,-252 17,-252 17,-216 85,-216 85,-252"/>
<text text-anchor="middle" x="51" y="-231.5" font-family="Helvetica,sans-Serif" font-size="10.00">ScalarField</text>
</a>
</g>
</g>
<!-- dir_1456dd235032e023892318efbecb420b -->
<g id="node2" class="node"><title>dir_1456dd235032e023892318efbecb420b</title>
<g id="a_node2"><a xlink:href="dir_1456dd235032e023892318efbecb420b.html" target="_top" xlink:title="Containers">
<polygon fill="none" stroke="black" points="68,-36 0,-36 0,-0 68,-0 68,-36"/>
<text text-anchor="middle" x="34" y="-15.5" font-family="Helvetica,sans-Serif" font-size="10.00">Containers</text>
</a>
</g>
</g>
<!-- dir_0a9eac736250dab641e03be9c835eb0a&#45;&gt;dir_1456dd235032e023892318efbecb420b -->
<g id="edge1" class="edge"><title>dir_0a9eac736250dab641e03be9c835eb0a&#45;&gt;dir_1456dd235032e023892318efbecb420b</title>
<path fill="none" stroke="black" d="M35.3901,-215.774C27.6271,-206.03 19.0541,-193.184 15,-180 0.966291,-134.363 13.8749,-78.5118 24.1812,-46.0233"/>
<polygon fill="black" stroke="black" points="27.5673,-46.9321 27.3985,-36.3386 20.9242,-44.7252 27.5673,-46.9321"/>
<g id="a_edge1&#45;headlabel"><a xlink:href="dir_000025_000033.html" target="_top" xlink:title="1">
<text text-anchor="middle" x="29.1286" y="-48.7385" font-family="Helvetica,sans-Serif" font-size="10.00">1</text>
</a>
</g>
</g>
<!-- dir_d080e052e6032887076b6b5756e5361d -->
<g id="node3" class="node"><title>dir_d080e052e6032887076b6b5756e5361d</title>
<g id="a_node3"><a xlink:href="dir_d080e052e6032887076b6b5756e5361d.html" target="_top" xlink:title="Mesh">
<polygon fill="white" stroke="red" points="78,-180 24,-180 24,-144 78,-144 78,-180"/>
<text text-anchor="middle" x="51" y="-159.5" font-family="Helvetica,sans-Serif" font-size="10.00">Mesh</text>
</a>
</g>
</g>
<!-- dir_0a9eac736250dab641e03be9c835eb0a&#45;&gt;dir_d080e052e6032887076b6b5756e5361d -->
<g id="edge2" class="edge"><title>dir_0a9eac736250dab641e03be9c835eb0a&#45;&gt;dir_d080e052e6032887076b6b5756e5361d</title>
<path fill="none" stroke="black" d="M51,-215.697C51,-207.983 51,-198.712 51,-190.112"/>
<polygon fill="black" stroke="black" points="54.5001,-190.104 51,-180.104 47.5001,-190.104 54.5001,-190.104"/>
<g id="a_edge2&#45;headlabel"><a xlink:href="dir_000025_000054.html" target="_top" xlink:title="1">
<text text-anchor="middle" x="57.3393" y="-191.199" font-family="Helvetica,sans-Serif" font-size="10.00">1</text>
</a>
</g>
</g>
<!-- dir_cb2b5dfd43482fb277f6333d539f1f06 -->
<g id="node4" class="node"><title>dir_cb2b5dfd43482fb277f6333d539f1f06</title>
<g id="a_node4"><a xlink:href="dir_cb2b5dfd43482fb277f6333d539f1f06.html" target="_top" xlink:title="Geometry">
<polygon fill="white" stroke="red" points="127.5,-108 62.5,-108 62.5,-72 127.5,-72 127.5,-108"/>
<text text-anchor="middle" x="95" y="-87.5" font-family="Helvetica,sans-Serif" font-size="10.00">Geometry</text>
</a>
</g>
</g>
<!-- dir_0a9eac736250dab641e03be9c835eb0a&#45;&gt;dir_cb2b5dfd43482fb277f6333d539f1f06 -->
<g id="edge3" class="edge"><title>dir_0a9eac736250dab641e03be9c835eb0a&#45;&gt;dir_cb2b5dfd43482fb277f6333d539f1f06</title>
<path fill="none" stroke="black" d="M66.142,-215.618C73.7679,-205.829 82.3593,-192.989 87,-180 94.079,-160.187 95.9028,-136.388 96.0527,-118.387"/>
<polygon fill="black" stroke="black" points="99.5517,-118.245 95.9683,-108.275 92.552,-118.304 99.5517,-118.245"/>
<g id="a_edge3&#45;headlabel"><a xlink:href="dir_000025_000038.html" target="_top" xlink:title="1">
<text text-anchor="middle" x="102.421" y="-119.316" font-family="Helvetica,sans-Serif" font-size="10.00">1</text>
</a>
</g>
</g>
<!-- dir_d080e052e6032887076b6b5756e5361d&#45;&gt;dir_1456dd235032e023892318efbecb420b -->
<g id="edge4" class="edge"><title>dir_d080e052e6032887076b6b5756e5361d&#45;&gt;dir_1456dd235032e023892318efbecb420b</title>
<path fill="none" stroke="black" d="M48.9494,-143.871C46.0521,-119.67 40.7295,-75.2108 37.2795,-46.3932"/>
<polygon fill="black" stroke="black" points="40.7218,-45.7023 36.0579,-36.1893 33.7715,-46.5344 40.7218,-45.7023"/>
<g id="a_edge4&#45;headlabel"><a xlink:href="dir_000054_000033.html" target="_top" xlink:title="2">
<text text-anchor="middle" x="43.9682" y="-46.4339" font-family="Helvetica,sans-Serif" font-size="10.00">2</text>
</a>
</g>
</g>
<!-- dir_d080e052e6032887076b6b5756e5361d&#45;&gt;dir_cb2b5dfd43482fb277f6333d539f1f06 -->
<g id="edge5" class="edge"><title>dir_d080e052e6032887076b6b5756e5361d&#45;&gt;dir_cb2b5dfd43482fb277f6333d539f1f06</title>
<path fill="none" stroke="black" d="M55.9607,-143.697C60.281,-135.474 66.3595,-125.483 72.5012,-116.421"/>
<polygon fill="black" stroke="black" points="75.4608,-118.297 78.3537,-108.104 69.7363,-114.268 75.4608,-118.297"/>
<g id="a_edge5&#45;headlabel"><a xlink:href="dir_000054_000038.html" target="_top" xlink:title="2">
<text text-anchor="middle" x="75.7141" y="-120.37" font-family="Helvetica,sans-Serif" font-size="10.00">2</text>
</a>
</g>
</g>
<!-- dir_cb2b5dfd43482fb277f6333d539f1f06&#45;&gt;dir_1456dd235032e023892318efbecb420b -->
<g id="edge6" class="edge"><title>dir_cb2b5dfd43482fb277f6333d539f1f06&#45;&gt;dir_1456dd235032e023892318efbecb420b</title>
<path fill="none" stroke="black" d="M79.9213,-71.6966C72.6083,-63.3046 63.69,-53.0705 55.6649,-43.8613"/>
<polygon fill="black" stroke="black" points="58.1137,-41.344 48.9052,-36.1043 52.8363,-45.9429 58.1137,-41.344"/>
<g id="a_edge6&#45;headlabel"><a xlink:href="dir_000038_000033.html" target="_top" xlink:title="12">
<text text-anchor="middle" x="62.6158" y="-39.6887" font-family="Helvetica,sans-Serif" font-size="10.00">12</text>
</a>
</g>
</g>
<!-- dir_cb2b5dfd43482fb277f6333d539f1f06&#45;&gt;dir_d080e052e6032887076b6b5756e5361d -->
<g id="edge7" class="edge"><title>dir_cb2b5dfd43482fb277f6333d539f1f06&#45;&gt;dir_d080e052e6032887076b6b5756e5361d</title>
<path fill="none" stroke="black" d="M90.1437,-108.104C85.852,-116.298 79.7883,-126.282 73.6477,-135.359"/>
<polygon fill="black" stroke="black" points="70.6755,-133.502 67.7921,-143.697 76.4038,-137.525 70.6755,-133.502"/>
<g id="a_edge7&#45;headlabel"><a xlink:href="dir_000038_000054.html" target="_top" xlink:title="10">
<text text-anchor="middle" x="70.418" y="-126.428" font-family="Helvetica,sans-Serif" font-size="10.00">10</text>
</a>
</g>
</g>
</g>
</svg>
