<?xml version="1.0" encoding="UTF-8" standalone="no"?>
<!DOCTYPE svg PUBLIC "-//W3C//DTD SVG 1.1//EN"
 "http://www.w3.org/Graphics/SVG/1.1/DTD/svg11.dtd">
<!-- Generated by graphviz version 2.38.0 (20140413.2041)
 -->
<!-- Title: /home/travis/build/STORM&#45;IRIT/Radium&#45;Engine/src/GuiBase/TransformEditor Pages: 1 -->
<svg width="132pt" height="223pt"
 viewBox="0.00 0.00 132.00 223.00" xmlns="http://www.w3.org/2000/svg" xmlns:xlink="http://www.w3.org/1999/xlink">
<g id="graph0" class="graph" transform="scale(1 1) rotate(0) translate(4 219)">
<title>/home/travis/build/STORM&#45;IRIT/Radium&#45;Engine/src/GuiBase/TransformEditor</title>
<polygon fill="white" stroke="none" points="-4,4 -4,-219 128,-219 128,4 -4,4"/>
<g id="clust1" class="cluster"><title>clusterdir_cb59203ea3f84fc4d67c89730003fed4</title>
<g id="a_clust1"><a xlink:href="dir_cb59203ea3f84fc4d67c89730003fed4.html" target="_top" xlink:title="GuiBase">
<polygon fill="#ddddee" stroke="black" points="8,-136 8,-207 116,-207 116,-136 8,-136"/>
<text text-anchor="middle" x="62" y="-195" font-family="Helvetica,sans-Serif" font-size="10.00">GuiBase</text>
</a>
</g>
</g>
<!-- dir_db76f3c94886d731af6b7e364cea8b12 -->
<g id="node1" class="node"><title>dir_db76f3c94886d731af6b7e364cea8b12</title>
<g id="a_node1"><a xlink:href="dir_db76f3c94886d731af6b7e364cea8b12.html" target="_top" xlink:title="TransformEditor">
<polygon fill="#eeeeff" stroke="black" points="108,-180 16,-180 16,-144 108,-144 108,-180"/>
<text text-anchor="middle" x="62" y="-159.5" font-family="Helvetica,sans-Serif" font-size="10.00">TransformEditor</text>
</a>
</g>
</g>
<!-- dir_a2f0e5642e47e7ed59fe0f0829eafb5f -->
<g id="node2" class="node"><title>dir_a2f0e5642e47e7ed59fe0f0829eafb5f</title>
<g id="a_node2"><a xlink:href="dir_a2f0e5642e47e7ed59fe0f0829eafb5f.html" target="_top" xlink:title="Core">
<polygon fill="white" stroke="red" points="62,-108 8,-108 8,-72 62,-72 62,-108"/>
<text text-anchor="middle" x="35" y="-87.5" font-family="Helvetica,sans-Serif" font-size="10.00">Core</text>
</a>
</g>
</g>
<!-- dir_db76f3c94886d731af6b7e364cea8b12&#45;&gt;dir_a2f0e5642e47e7ed59fe0f0829eafb5f -->
<g id="edge2" class="edge"><title>dir_db76f3c94886d731af6b7e364cea8b12&#45;&gt;dir_a2f0e5642e47e7ed59fe0f0829eafb5f</title>
<path fill="none" stroke="black" d="M55.3258,-143.697C52.2851,-135.813 48.6173,-126.304 45.2393,-117.546"/>
<polygon fill="black" stroke="black" points="48.4617,-116.175 41.5974,-108.104 41.9307,-118.694 48.4617,-116.175"/>
<g id="a_edge2&#45;headlabel"><a xlink:href="dir_000089_000020.html" target="_top" xlink:title="1">
<text text-anchor="middle" x="52.4043" y="-116.007" font-family="Helvetica,sans-Serif" font-size="10.00">1</text>
</a>
</g>
</g>
<!-- dir_3072bc1f55ed1280fe4fbe6b21c78379 -->
<g id="node3" class="node"><title>dir_3072bc1f55ed1280fe4fbe6b21c78379</title>
<g id="a_node3"><a xlink:href="dir_3072bc1f55ed1280fe4fbe6b21c78379.html" target="_top" xlink:title="Engine">
<polygon fill="white" stroke="red" points="62,-36 8,-36 8,-0 62,-0 62,-36"/>
<text text-anchor="middle" x="35" y="-15.5" font-family="Helvetica,sans-Serif" font-size="10.00">Engine</text>
</a>
</g>
</g>
<!-- dir_db76f3c94886d731af6b7e364cea8b12&#45;&gt;dir_3072bc1f55ed1280fe4fbe6b21c78379 -->
<g id="edge3" class="edge"><title>dir_db76f3c94886d731af6b7e364cea8b12&#45;&gt;dir_3072bc1f55ed1280fe4fbe6b21c78379</title>
<path fill="none" stroke="black" d="M67.6461,-143.877C72.7573,-125.661 78.4405,-96.196 71,-72 67.9911,-62.2153 62.493,-52.6161 56.6843,-44.3336"/>
<polygon fill="black" stroke="black" points="59.4072,-42.1306 50.6099,-36.2264 53.8052,-46.3279 59.4072,-42.1306"/>
<g id="a_edge3&#45;headlabel"><a xlink:href="dir_000089_000063.html" target="_top" xlink:title="3">
<text text-anchor="middle" x="63.8348" y="-40.8048" font-family="Helvetica,sans-Serif" font-size="10.00">3</text>
</a>
</g>
</g>
<!-- dir_a2f0e5642e47e7ed59fe0f0829eafb5f&#45;&gt;dir_3072bc1f55ed1280fe4fbe6b21c78379 -->
<g id="edge1" class="edge"><title>dir_a2f0e5642e47e7ed59fe0f0829eafb5f&#45;&gt;dir_3072bc1f55ed1280fe4fbe6b21c78379</title>
<path fill="none" stroke="black" d="M29.0843,-71.6966C28.2886,-63.9827 28.0621,-54.7125 28.4047,-46.1124"/>
<polygon fill="black" stroke="black" points="31.8984,-46.3243 29.105,-36.1043 24.9154,-45.8356 31.8984,-46.3243"/>
<g id="a_edge1&#45;headlabel"><a xlink:href="dir_000020_000063.html" target="_top" xlink:title="1">
<text text-anchor="middle" x="34.4799" y="-47.6083" font-family="Helvetica,sans-Serif" font-size="10.00">1</text>
</a>
</g>
</g>
<!-- dir_3072bc1f55ed1280fe4fbe6b21c78379&#45;&gt;dir_a2f0e5642e47e7ed59fe0f0829eafb5f -->
<g id="edge4" class="edge"><title>dir_3072bc1f55ed1280fe4fbe6b21c78379&#45;&gt;dir_a2f0e5642e47e7ed59fe0f0829eafb5f</title>
<path fill="none" stroke="black" d="M40.895,-36.1043C41.7005,-43.7913 41.9369,-53.0537 41.604,-61.6651"/>
<polygon fill="black" stroke="black" points="38.1085,-61.4805 40.9157,-71.6966 45.0921,-61.9597 38.1085,-61.4805"/>
<g id="a_edge4&#45;headlabel"><a xlink:href="dir_000063_000020.html" target="_top" xlink:title="98">
<text text-anchor="middle" x="35.5219" y="-55.2" font-family="Helvetica,sans-Serif" font-size="10.00">98</text>
</a>
</g>
</g>
</g>
</svg>
