<?xml version="1.0" encoding="UTF-8" standalone="no"?>
<!DOCTYPE svg PUBLIC "-//W3C//DTD SVG 1.1//EN"
 "http://www.w3.org/Graphics/SVG/1.1/DTD/svg11.dtd">
<!-- Generated by graphviz version 2.38.0 (20140413.2041)
 -->
<!-- Title: /home/travis/build/STORM&#45;IRIT/Radium&#45;Engine/src/Core/Utils Pages: 1 -->
<svg width="237pt" height="178pt"
 viewBox="0.00 0.00 237.00 178.06" xmlns="http://www.w3.org/2000/svg" xmlns:xlink="http://www.w3.org/1999/xlink">
<g id="graph0" class="graph" transform="scale(1 1) rotate(0) translate(4 174.055)">
<title>/home/travis/build/STORM&#45;IRIT/Radium&#45;Engine/src/Core/Utils</title>
<polygon fill="white" stroke="none" points="-4,4 -4,-174.055 233,-174.055 233,4 -4,4"/>
<g id="clust1" class="cluster"><title>clusterdir_a2f0e5642e47e7ed59fe0f0829eafb5f</title>
<g id="a_clust1"><a xlink:href="dir_a2f0e5642e47e7ed59fe0f0829eafb5f.html" target="_top" xlink:title="Core">
<polygon fill="#ddddee" stroke="black" points="8,-56 8,-143 166,-143 166,-56 8,-56"/>
<text text-anchor="middle" x="87" y="-131" font-family="Helvetica,sans-Serif" font-size="10.00">Core</text>
</a>
</g>
</g>
<g id="clust2" class="cluster"><title>clusterdir_ff87cf903db18af0fdb6c342683ece25</title>
<g id="a_clust2"><a xlink:href="dir_ff87cf903db18af0fdb6c342683ece25.html" target="_top">
<polygon fill="#eeeeff" stroke="black" points="16,-64 16,-116 158,-116 158,-64 16,-64"/>
</a>
</g>
</g>
<!-- dir_ff87cf903db18af0fdb6c342683ece25 -->
<g id="node1" class="node"><title>dir_ff87cf903db18af0fdb6c342683ece25</title>
<text text-anchor="middle" x="123" y="-87.5" font-family="Helvetica,sans-Serif" font-size="10.00">Utils</text>
</g>
<!-- dir_1efe152df2f2e9cd3517b1174a4598d7 -->
<g id="node5" class="node"><title>dir_1efe152df2f2e9cd3517b1174a4598d7</title>
<g id="a_node5"><a xlink:href="dir_1efe152df2f2e9cd3517b1174a4598d7.html" target="_top" xlink:title="Log">
<polygon fill="none" stroke="black" points="229,-36 175,-36 175,-0 229,-0 229,-36"/>
<text text-anchor="middle" x="202" y="-15.5" font-family="Helvetica,sans-Serif" font-size="10.00">Log</text>
</a>
</g>
</g>
<!-- dir_ff87cf903db18af0fdb6c342683ece25&#45;&gt;dir_1efe152df2f2e9cd3517b1174a4598d7 -->
<g id="edge7" class="edge"><title>dir_ff87cf903db18af0fdb6c342683ece25&#45;&gt;dir_1efe152df2f2e9cd3517b1174a4598d7</title>
<path fill="none" stroke="black" d="M142.528,-71.6966C152.382,-62.9655 164.486,-52.2405 175.196,-42.7503"/>
<polygon fill="black" stroke="black" points="177.533,-45.3558 182.697,-36.1043 172.891,-40.1166 177.533,-45.3558"/>
<g id="a_edge7&#45;headlabel"><a xlink:href="dir_000061_000052.html" target="_top" xlink:title="1">
<text text-anchor="middle" x="176.726" y="-47.3648" font-family="Helvetica,sans-Serif" font-size="10.00">1</text>
</a>
</g>
</g>
<!-- dir_f5906172d2c9558d453eb81ef8e5bf93 -->
<g id="node6" class="node"><title>dir_f5906172d2c9558d453eb81ef8e5bf93</title>
<g id="a_node6"><a xlink:href="dir_f5906172d2c9558d453eb81ef8e5bf93.html" target="_top" xlink:title="Index">
<polygon fill="none" stroke="black" points="157,-36 103,-36 103,-0 157,-0 157,-36"/>
<text text-anchor="middle" x="130" y="-15.5" font-family="Helvetica,sans-Serif" font-size="10.00">Index</text>
</a>
</g>
</g>
<!-- dir_ff87cf903db18af0fdb6c342683ece25&#45;&gt;dir_f5906172d2c9558d453eb81ef8e5bf93 -->
<g id="edge8" class="edge"><title>dir_ff87cf903db18af0fdb6c342683ece25&#45;&gt;dir_f5906172d2c9558d453eb81ef8e5bf93</title>
<path fill="none" stroke="black" d="M124.73,-71.6966C125.502,-63.9827 126.429,-54.7125 127.289,-46.1124"/>
<polygon fill="black" stroke="black" points="130.777,-46.403 128.29,-36.1043 123.812,-45.7064 130.777,-46.403"/>
<g id="a_edge8&#45;headlabel"><a xlink:href="dir_000061_000051.html" target="_top" xlink:title="1">
<text text-anchor="middle" x="133.245" y="-47.7623" font-family="Helvetica,sans-Serif" font-size="10.00">1</text>
</a>
</g>
</g>
<!-- dir_6dd2e7c3dd0c6b2350fe1d5c32361b10 -->
<g id="node2" class="node"><title>dir_6dd2e7c3dd0c6b2350fe1d5c32361b10</title>
<g id="a_node2"><a xlink:href="dir_6dd2e7c3dd0c6b2350fe1d5c32361b10.html" target="_top" xlink:title="Graph">
<polygon fill="white" stroke="black" points="78,-108 24,-108 24,-72 78,-72 78,-108"/>
<text text-anchor="middle" x="51" y="-87.5" font-family="Helvetica,sans-Serif" font-size="10.00">Graph</text>
</a>
</g>
</g>
<!-- dir_1456dd235032e023892318efbecb420b -->
<g id="node3" class="node"><title>dir_1456dd235032e023892318efbecb420b</title>
<g id="a_node3"><a xlink:href="dir_1456dd235032e023892318efbecb420b.html" target="_top" xlink:title="Containers">
<polygon fill="none" stroke="black" points="85,-36 17,-36 17,-0 85,-0 85,-36"/>
<text text-anchor="middle" x="51" y="-15.5" font-family="Helvetica,sans-Serif" font-size="10.00">Containers</text>
</a>
</g>
</g>
<!-- dir_6dd2e7c3dd0c6b2350fe1d5c32361b10&#45;&gt;dir_1456dd235032e023892318efbecb420b -->
<g id="edge5" class="edge"><title>dir_6dd2e7c3dd0c6b2350fe1d5c32361b10&#45;&gt;dir_1456dd235032e023892318efbecb420b</title>
<path fill="none" stroke="black" d="M51,-71.6966C51,-63.9827 51,-54.7125 51,-46.1124"/>
<polygon fill="black" stroke="black" points="54.5001,-46.1043 51,-36.1043 47.5001,-46.1044 54.5001,-46.1043"/>
<g id="a_edge5&#45;headlabel"><a xlink:href="dir_000062_000033.html" target="_top" xlink:title="2">
<text text-anchor="middle" x="57.3393" y="-47.199" font-family="Helvetica,sans-Serif" font-size="10.00">2</text>
</a>
</g>
</g>
<!-- dir_d080e052e6032887076b6b5756e5361d -->
<g id="node4" class="node"><title>dir_d080e052e6032887076b6b5756e5361d</title>
<g id="a_node4"><a xlink:href="dir_d080e052e6032887076b6b5756e5361d.html" target="_top" xlink:title="Mesh">
<polygon fill="white" stroke="red" points="228,-108 174,-108 174,-72 228,-72 228,-108"/>
<text text-anchor="middle" x="201" y="-87.5" font-family="Helvetica,sans-Serif" font-size="10.00">Mesh</text>
</a>
</g>
</g>
<!-- dir_6dd2e7c3dd0c6b2350fe1d5c32361b10&#45;&gt;dir_d080e052e6032887076b6b5756e5361d -->
<g id="edge6" class="edge"><title>dir_6dd2e7c3dd0c6b2350fe1d5c32361b10&#45;&gt;dir_d080e052e6032887076b6b5756e5361d</title>
<path fill="none" stroke="black" d="M56.7294,-108.038C63.2342,-125.135 75.6695,-149.816 96,-161 118.196,-173.211 130.626,-172.881 153,-161 170.303,-151.812 182.505,-133.292 190.276,-117.471"/>
<polygon fill="black" stroke="black" points="193.594,-118.629 194.548,-108.077 187.222,-115.731 193.594,-118.629"/>
<g id="a_edge6&#45;headlabel"><a xlink:href="dir_000062_000054.html" target="_top" xlink:title="1">
<text text-anchor="middle" x="194.691" y="-120.576" font-family="Helvetica,sans-Serif" font-size="10.00">1</text>
</a>
</g>
</g>
<!-- dir_d080e052e6032887076b6b5756e5361d&#45;&gt;dir_ff87cf903db18af0fdb6c342683ece25 -->
<g id="edge4" class="edge"><title>dir_d080e052e6032887076b6b5756e5361d&#45;&gt;dir_ff87cf903db18af0fdb6c342683ece25</title>
<path fill="none" stroke="black" d="M173.969,-90C169.372,-90 164.776,-90 160.179,-90"/>
<polygon fill="black" stroke="black" points="160.117,-86.5001 150.117,-90 160.117,-93.5001 160.117,-86.5001"/>
<g id="a_edge4&#45;headlabel"><a xlink:href="dir_000054_000061.html" target="_top" xlink:title="2">
<text text-anchor="middle" x="163.712" y="-81.1607" font-family="Helvetica,sans-Serif" font-size="10.00">2</text>
</a>
</g>
</g>
<!-- dir_d080e052e6032887076b6b5756e5361d&#45;&gt;dir_1456dd235032e023892318efbecb420b -->
<g id="edge1" class="edge"><title>dir_d080e052e6032887076b6b5756e5361d&#45;&gt;dir_1456dd235032e023892318efbecb420b</title>
<path fill="none" stroke="black" d="M183.902,-71.8586C177.467,-66.1623 169.808,-60.2067 162,-56 136.758,-42.4012 125.811,-45.4764 94.9257,-36.0229"/>
<polygon fill="black" stroke="black" points="95.7562,-32.6121 85.1635,-32.8291 93.5795,-39.2651 95.7562,-32.6121"/>
<g id="a_edge1&#45;headlabel"><a xlink:href="dir_000054_000033.html" target="_top" xlink:title="2">
<text text-anchor="middle" x="100.055" y="-28.5313" font-family="Helvetica,sans-Serif" font-size="10.00">2</text>
</a>
</g>
</g>
<!-- dir_d080e052e6032887076b6b5756e5361d&#45;&gt;dir_1efe152df2f2e9cd3517b1174a4598d7 -->
<g id="edge2" class="edge"><title>dir_d080e052e6032887076b6b5756e5361d&#45;&gt;dir_1efe152df2f2e9cd3517b1174a4598d7</title>
<path fill="none" stroke="black" d="M201.247,-71.6966C201.357,-63.9827 201.49,-54.7125 201.613,-46.1124"/>
<polygon fill="black" stroke="black" points="205.112,-46.1533 201.756,-36.1043 198.113,-46.0533 205.112,-46.1533"/>
<g id="a_edge2&#45;headlabel"><a xlink:href="dir_000054_000052.html" target="_top" xlink:title="3">
<text text-anchor="middle" x="207.9" y="-47.2881" font-family="Helvetica,sans-Serif" font-size="10.00">3</text>
</a>
</g>
</g>
<!-- dir_d080e052e6032887076b6b5756e5361d&#45;&gt;dir_f5906172d2c9558d453eb81ef8e5bf93 -->
<g id="edge3" class="edge"><title>dir_d080e052e6032887076b6b5756e5361d&#45;&gt;dir_f5906172d2c9558d453eb81ef8e5bf93</title>
<path fill="none" stroke="black" d="M183.449,-71.6966C174.766,-63.135 164.137,-52.6562 154.652,-43.3045"/>
<polygon fill="black" stroke="black" points="156.927,-40.6327 147.349,-36.1043 152.012,-45.6175 156.927,-40.6327"/>
<g id="a_edge3&#45;headlabel"><a xlink:href="dir_000054_000051.html" target="_top" xlink:title="4">
<text text-anchor="middle" x="161.48" y="-38.6345" font-family="Helvetica,sans-Serif" font-size="10.00">4</text>
</a>
</g>
</g>
</g>
</svg>
