<?xml version="1.0" encoding="UTF-8" standalone="no"?>
<!DOCTYPE svg PUBLIC "-//W3C//DTD SVG 1.1//EN"
 "http://www.w3.org/Graphics/SVG/1.1/DTD/svg11.dtd">
<!-- Generated by graphviz version 2.38.0 (20140413.2041)
 -->
<!-- Title: /home/travis/build/STORM&#45;IRIT/Radium&#45;Engine/src/Core/Mesh Pages: 1 -->
<svg width="372pt" height="474pt"
 viewBox="0.00 0.00 372.00 473.57" xmlns="http://www.w3.org/2000/svg" xmlns:xlink="http://www.w3.org/1999/xlink">
<g id="graph0" class="graph" transform="scale(1 1) rotate(0) translate(4 469.571)">
<title>/home/travis/build/STORM&#45;IRIT/Radium&#45;Engine/src/Core/Mesh</title>
<polygon fill="white" stroke="none" points="-4,4 -4,-469.571 368,-469.571 368,4 -4,4"/>
<g id="clust1" class="cluster"><title>clusterdir_a2f0e5642e47e7ed59fe0f0829eafb5f</title>
<g id="a_clust1"><a xlink:href="dir_a2f0e5642e47e7ed59fe0f0829eafb5f.html" target="_top" xlink:title="Core">
<polygon fill="#ddddee" stroke="black" points="76,-344 76,-431 284,-431 284,-344 76,-344"/>
<text text-anchor="middle" x="180" y="-419" font-family="Helvetica,sans-Serif" font-size="10.00">Core</text>
</a>
</g>
</g>
<g id="clust2" class="cluster"><title>clusterdir_d080e052e6032887076b6b5756e5361d</title>
<g id="a_clust2"><a xlink:href="dir_d080e052e6032887076b6b5756e5361d.html" target="_top">
<polygon fill="#eeeeff" stroke="black" points="84,-352 84,-404 276,-404 276,-352 84,-352"/>
</a>
</g>
</g>
<!-- dir_d080e052e6032887076b6b5756e5361d -->
<g id="node1" class="node"><title>dir_d080e052e6032887076b6b5756e5361d</title>
<text text-anchor="middle" x="241" y="-375.5" font-family="Helvetica,sans-Serif" font-size="10.00">Mesh</text>
</g>
<!-- dir_1456dd235032e023892318efbecb420b -->
<g id="node3" class="node"><title>dir_1456dd235032e023892318efbecb420b</title>
<g id="a_node3"><a xlink:href="dir_1456dd235032e023892318efbecb420b.html" target="_top" xlink:title="Containers">
<polygon fill="none" stroke="black" points="68,-396 0,-396 0,-360 68,-360 68,-396"/>
<text text-anchor="middle" x="34" y="-375.5" font-family="Helvetica,sans-Serif" font-size="10.00">Containers</text>
</a>
</g>
</g>
<!-- dir_d080e052e6032887076b6b5756e5361d&#45;&gt;dir_1456dd235032e023892318efbecb420b -->
<g id="edge2" class="edge"><title>dir_d080e052e6032887076b6b5756e5361d&#45;&gt;dir_1456dd235032e023892318efbecb420b</title>
<path fill="none" stroke="black" d="M235.271,-396.038C228.766,-413.135 216.33,-437.816 196,-449 154.333,-471.922 131.699,-469.935 89,-449 70.392,-439.877 56.2804,-421.088 47.0122,-405.129"/>
<polygon fill="black" stroke="black" points="49.9784,-403.258 42.1175,-396.155 43.833,-406.61 49.9784,-403.258"/>
<g id="a_edge2&#45;headlabel"><a xlink:href="dir_000054_000033.html" target="_top" xlink:title="2">
<text text-anchor="middle" x="54.1921" y="-402.555" font-family="Helvetica,sans-Serif" font-size="10.00">2</text>
</a>
</g>
</g>
<!-- dir_a1f42069ba95676f6b9abbd5065ccf6d -->
<g id="node4" class="node"><title>dir_a1f42069ba95676f6b9abbd5065ccf6d</title>
<g id="a_node4"><a xlink:href="dir_a1f42069ba95676f6b9abbd5065ccf6d.html" target="_top" xlink:title="Math">
<polygon fill="none" stroke="black" points="146,-324 92,-324 92,-288 146,-288 146,-324"/>
<text text-anchor="middle" x="119" y="-303.5" font-family="Helvetica,sans-Serif" font-size="10.00">Math</text>
</a>
</g>
</g>
<!-- dir_d080e052e6032887076b6b5756e5361d&#45;&gt;dir_a1f42069ba95676f6b9abbd5065ccf6d -->
<g id="edge3" class="edge"><title>dir_d080e052e6032887076b6b5756e5361d&#45;&gt;dir_a1f42069ba95676f6b9abbd5065ccf6d</title>
<path fill="none" stroke="black" d="M216.265,-359.962C209.888,-354.406 202.977,-348.513 196,-344 183.37,-335.831 168.634,-328.733 155.39,-323"/>
<polygon fill="black" stroke="black" points="156.635,-319.727 146.06,-319.07 153.917,-326.178 156.635,-319.727"/>
<g id="a_edge3&#45;headlabel"><a xlink:href="dir_000054_000053.html" target="_top" xlink:title="7">
<text text-anchor="middle" x="161.05" y="-316.005" font-family="Helvetica,sans-Serif" font-size="10.00">7</text>
</a>
</g>
</g>
<!-- dir_cb2b5dfd43482fb277f6333d539f1f06 -->
<g id="node5" class="node"><title>dir_cb2b5dfd43482fb277f6333d539f1f06</title>
<g id="a_node5"><a xlink:href="dir_cb2b5dfd43482fb277f6333d539f1f06.html" target="_top" xlink:title="Geometry">
<polygon fill="white" stroke="red" points="157.5,-252 92.5,-252 92.5,-216 157.5,-216 157.5,-252"/>
<text text-anchor="middle" x="125" y="-231.5" font-family="Helvetica,sans-Serif" font-size="10.00">Geometry</text>
</a>
</g>
</g>
<!-- dir_d080e052e6032887076b6b5756e5361d&#45;&gt;dir_cb2b5dfd43482fb277f6333d539f1f06 -->
<g id="edge4" class="edge"><title>dir_d080e052e6032887076b6b5756e5361d&#45;&gt;dir_cb2b5dfd43482fb277f6333d539f1f06</title>
<path fill="none" stroke="black" d="M227.008,-359.871C206.715,-335.031 168.987,-288.846 145.538,-260.142"/>
<polygon fill="black" stroke="black" points="148.079,-257.719 139.042,-252.189 142.658,-262.148 148.079,-257.719"/>
<g id="a_edge4&#45;headlabel"><a xlink:href="dir_000054_000038.html" target="_top" xlink:title="2">
<text text-anchor="middle" x="152.552" y="-256.207" font-family="Helvetica,sans-Serif" font-size="10.00">2</text>
</a>
</g>
</g>
<!-- dir_1efe152df2f2e9cd3517b1174a4598d7 -->
<g id="node6" class="node"><title>dir_1efe152df2f2e9cd3517b1174a4598d7</title>
<g id="a_node6"><a xlink:href="dir_1efe152df2f2e9cd3517b1174a4598d7.html" target="_top" xlink:title="Log">
<polygon fill="none" stroke="black" points="184,-108 130,-108 130,-72 184,-72 184,-108"/>
<text text-anchor="middle" x="157" y="-87.5" font-family="Helvetica,sans-Serif" font-size="10.00">Log</text>
</a>
</g>
</g>
<!-- dir_d080e052e6032887076b6b5756e5361d&#45;&gt;dir_1efe152df2f2e9cd3517b1174a4598d7 -->
<g id="edge5" class="edge"><title>dir_d080e052e6032887076b6b5756e5361d&#45;&gt;dir_1efe152df2f2e9cd3517b1174a4598d7</title>
<path fill="none" stroke="black" d="M239.932,-359.88C236.948,-320.291 226.415,-219.993 193,-144 188.813,-134.478 182.881,-124.84 177.038,-116.442"/>
<polygon fill="black" stroke="black" points="179.762,-114.236 171.058,-108.196 174.095,-118.346 179.762,-114.236"/>
<g id="a_edge5&#45;headlabel"><a xlink:href="dir_000054_000052.html" target="_top" xlink:title="3">
<text text-anchor="middle" x="184.171" y="-112.979" font-family="Helvetica,sans-Serif" font-size="10.00">3</text>
</a>
</g>
</g>
<!-- dir_f5906172d2c9558d453eb81ef8e5bf93 -->
<g id="node7" class="node"><title>dir_f5906172d2c9558d453eb81ef8e5bf93</title>
<g id="a_node7"><a xlink:href="dir_f5906172d2c9558d453eb81ef8e5bf93.html" target="_top" xlink:title="Index">
<polygon fill="none" stroke="black" points="267,-108 213,-108 213,-72 267,-72 267,-108"/>
<text text-anchor="middle" x="240" y="-87.5" font-family="Helvetica,sans-Serif" font-size="10.00">Index</text>
</a>
</g>
</g>
<!-- dir_d080e052e6032887076b6b5756e5361d&#45;&gt;dir_f5906172d2c9558d453eb81ef8e5bf93 -->
<g id="edge6" class="edge"><title>dir_d080e052e6032887076b6b5756e5361d&#45;&gt;dir_f5906172d2c9558d453eb81ef8e5bf93</title>
<path fill="none" stroke="black" d="M268.125,-361.215C280.946,-352.131 294.959,-339.446 302,-324 335.184,-251.207 335.477,-216.659 302,-144 296.239,-131.496 285.912,-120.846 275.318,-112.444"/>
<polygon fill="black" stroke="black" points="277.357,-109.599 267.236,-106.465 273.193,-115.226 277.357,-109.599"/>
<g id="a_edge6&#45;headlabel"><a xlink:href="dir_000054_000051.html" target="_top" xlink:title="4">
<text text-anchor="middle" x="281.935" y="-106.954" font-family="Helvetica,sans-Serif" font-size="10.00">4</text>
</a>
</g>
</g>
<!-- dir_dbb2a23c19e39eeed5090a333e1fc81c -->
<g id="node8" class="node"><title>dir_dbb2a23c19e39eeed5090a333e1fc81c</title>
<g id="a_node8"><a xlink:href="dir_dbb2a23c19e39eeed5090a333e1fc81c.html" target="_top" xlink:title="String">
<polygon fill="none" stroke="black" points="287,-36 233,-36 233,-0 287,-0 287,-36"/>
<text text-anchor="middle" x="260" y="-15.5" font-family="Helvetica,sans-Serif" font-size="10.00">String</text>
</a>
</g>
</g>
<!-- dir_d080e052e6032887076b6b5756e5361d&#45;&gt;dir_dbb2a23c19e39eeed5090a333e1fc81c -->
<g id="edge7" class="edge"><title>dir_d080e052e6032887076b6b5756e5361d&#45;&gt;dir_dbb2a23c19e39eeed5090a333e1fc81c</title>
<path fill="none" stroke="black" d="M268.205,-364.781C285.995,-355.658 308.689,-341.726 324,-324 352.348,-291.181 364,-278.367 364,-235 364,-235 364,-235 364,-161 364,-111.63 322.578,-68.0181 292.017,-42.5596"/>
<polygon fill="black" stroke="black" points="294.099,-39.7421 284.121,-36.1783 289.698,-45.1863 294.099,-39.7421"/>
<g id="a_edge7&#45;headlabel"><a xlink:href="dir_000054_000057.html" target="_top" xlink:title="2">
<text text-anchor="middle" x="298.679" y="-37.2934" font-family="Helvetica,sans-Serif" font-size="10.00">2</text>
</a>
</g>
</g>
<!-- dir_ff87cf903db18af0fdb6c342683ece25 -->
<g id="node9" class="node"><title>dir_ff87cf903db18af0fdb6c342683ece25</title>
<g id="a_node9"><a xlink:href="dir_ff87cf903db18af0fdb6c342683ece25.html" target="_top" xlink:title="Utils">
<polygon fill="white" stroke="red" points="184,-180 130,-180 130,-144 184,-144 184,-180"/>
<text text-anchor="middle" x="157" y="-159.5" font-family="Helvetica,sans-Serif" font-size="10.00">Utils</text>
</a>
</g>
</g>
<!-- dir_d080e052e6032887076b6b5756e5361d&#45;&gt;dir_ff87cf903db18af0fdb6c342683ece25 -->
<g id="edge8" class="edge"><title>dir_d080e052e6032887076b6b5756e5361d&#45;&gt;dir_ff87cf903db18af0fdb6c342683ece25</title>
<path fill="none" stroke="black" d="M234.268,-359.849C219.676,-322.675 185.041,-234.439 167.528,-189.82"/>
<polygon fill="black" stroke="black" points="170.676,-188.262 163.764,-180.232 164.16,-190.82 170.676,-188.262"/>
<g id="a_edge8&#45;headlabel"><a xlink:href="dir_000054_000061.html" target="_top" xlink:title="2">
<text text-anchor="middle" x="174.632" y="-188.071" font-family="Helvetica,sans-Serif" font-size="10.00">2</text>
</a>
</g>
</g>
<!-- dir_ac204889f54aebb9ba7b91d6916c1389 -->
<g id="node2" class="node"><title>dir_ac204889f54aebb9ba7b91d6916c1389</title>
<g id="a_node2"><a xlink:href="dir_ac204889f54aebb9ba7b91d6916c1389.html" target="_top" xlink:title="TopologicalTriMesh">
<polygon fill="white" stroke="red" points="196,-396 92,-396 92,-360 196,-360 196,-396"/>
<text text-anchor="middle" x="144" y="-375.5" font-family="Helvetica,sans-Serif" font-size="10.00">TopologicalTriMesh</text>
</a>
</g>
</g>
<!-- dir_ac204889f54aebb9ba7b91d6916c1389&#45;&gt;dir_a1f42069ba95676f6b9abbd5065ccf6d -->
<g id="edge9" class="edge"><title>dir_ac204889f54aebb9ba7b91d6916c1389&#45;&gt;dir_a1f42069ba95676f6b9abbd5065ccf6d</title>
<path fill="none" stroke="black" d="M137.82,-359.697C135.005,-351.813 131.609,-342.304 128.481,-333.546"/>
<polygon fill="black" stroke="black" points="131.768,-332.345 125.109,-324.104 125.176,-334.699 131.768,-332.345"/>
<g id="a_edge9&#45;headlabel"><a xlink:href="dir_000055_000053.html" target="_top" xlink:title="2">
<text text-anchor="middle" x="135.651" y="-332.275" font-family="Helvetica,sans-Serif" font-size="10.00">2</text>
</a>
</g>
</g>
<!-- dir_ac204889f54aebb9ba7b91d6916c1389&#45;&gt;dir_1efe152df2f2e9cd3517b1174a4598d7 -->
<g id="edge10" class="edge"><title>dir_ac204889f54aebb9ba7b91d6916c1389&#45;&gt;dir_1efe152df2f2e9cd3517b1174a4598d7</title>
<path fill="none" stroke="black" d="M114.96,-359.837C102.682,-350.866 89.6923,-338.68 83,-324 63.0893,-280.324 73.5864,-263.068 83,-216 89.7987,-182.007 95.0627,-173.665 113,-144 118.908,-134.228 126.531,-124.373 133.766,-115.855"/>
<polygon fill="black" stroke="black" points="136.562,-117.975 140.516,-108.146 131.295,-113.364 136.562,-117.975"/>
<g id="a_edge10&#45;headlabel"><a xlink:href="dir_000055_000052.html" target="_top" xlink:title="2">
<text text-anchor="middle" x="136.331" y="-120.05" font-family="Helvetica,sans-Serif" font-size="10.00">2</text>
</a>
</g>
</g>
<!-- dir_ac204889f54aebb9ba7b91d6916c1389&#45;&gt;dir_f5906172d2c9558d453eb81ef8e5bf93 -->
<g id="edge11" class="edge"><title>dir_ac204889f54aebb9ba7b91d6916c1389&#45;&gt;dir_f5906172d2c9558d453eb81ef8e5bf93</title>
<path fill="none" stroke="black" d="M151.402,-359.875C165.841,-326.009 198.172,-247.873 219,-180 225.278,-159.543 230.766,-135.955 234.557,-118.204"/>
<polygon fill="black" stroke="black" points="238.019,-118.746 236.637,-108.242 231.167,-117.315 238.019,-118.746"/>
<g id="a_edge11&#45;headlabel"><a xlink:href="dir_000055_000051.html" target="_top" xlink:title="3">
<text text-anchor="middle" x="240.064" y="-120.345" font-family="Helvetica,sans-Serif" font-size="10.00">3</text>
</a>
</g>
</g>
<!-- dir_1456dd235032e023892318efbecb420b&#45;&gt;dir_a1f42069ba95676f6b9abbd5065ccf6d -->
<g id="edge1" class="edge"><title>dir_1456dd235032e023892318efbecb420b&#45;&gt;dir_a1f42069ba95676f6b9abbd5065ccf6d</title>
<path fill="none" stroke="black" d="M49.0955,-359.697C58.8912,-350.881 71.8986,-340.032 84.082,-330.474"/>
<polygon fill="black" stroke="black" points="86.5574,-332.985 92.3354,-324.104 82.2805,-327.443 86.5574,-332.985"/>
<g id="a_edge1&#45;headlabel"><a xlink:href="dir_000033_000053.html" target="_top" xlink:title="1">
<text text-anchor="middle" x="85.4465" y="-334.929" font-family="Helvetica,sans-Serif" font-size="10.00">1</text>
</a>
</g>
</g>
<!-- dir_a1f42069ba95676f6b9abbd5065ccf6d&#45;&gt;dir_d080e052e6032887076b6b5756e5361d -->
<g id="edge13" class="edge"><title>dir_a1f42069ba95676f6b9abbd5065ccf6d&#45;&gt;dir_d080e052e6032887076b6b5756e5361d</title>
<path fill="none" stroke="black" d="M146.11,-313.467C166.13,-319.778 192.982,-330.406 214,-344 218.033,-346.609 222.045,-349.679 225.749,-352.879"/>
<polygon fill="black" stroke="black" points="223.58,-355.645 233.256,-359.962 228.384,-350.554 223.58,-355.645"/>
<g id="a_edge13&#45;headlabel"><a xlink:href="dir_000053_000054.html" target="_top" xlink:title="1">
<text text-anchor="middle" x="219.017" y="-352.743" font-family="Helvetica,sans-Serif" font-size="10.00">1</text>
</a>
</g>
</g>
<!-- dir_a1f42069ba95676f6b9abbd5065ccf6d&#45;&gt;dir_1456dd235032e023892318efbecb420b -->
<g id="edge12" class="edge"><title>dir_a1f42069ba95676f6b9abbd5065ccf6d&#45;&gt;dir_1456dd235032e023892318efbecb420b</title>
<path fill="none" stroke="black" d="M104.125,-324.104C94.3785,-332.889 81.3893,-343.732 69.1937,-353.309"/>
<polygon fill="black" stroke="black" points="66.7002,-350.813 60.927,-359.697 70.9801,-356.352 66.7002,-350.813"/>
<g id="a_edge12&#45;headlabel"><a xlink:href="dir_000053_000033.html" target="_top" xlink:title="3">
<text text-anchor="middle" x="67.8087" y="-343.868" font-family="Helvetica,sans-Serif" font-size="10.00">3</text>
</a>
</g>
</g>
<!-- dir_a1f42069ba95676f6b9abbd5065ccf6d&#45;&gt;dir_cb2b5dfd43482fb277f6333d539f1f06 -->
<g id="edge14" class="edge"><title>dir_a1f42069ba95676f6b9abbd5065ccf6d&#45;&gt;dir_cb2b5dfd43482fb277f6333d539f1f06</title>
<path fill="none" stroke="black" d="M114.567,-287.697C114.433,-279.983 115.001,-270.712 116.081,-262.112"/>
<polygon fill="black" stroke="black" points="119.559,-262.524 117.639,-252.104 112.642,-261.447 119.559,-262.524"/>
<g id="a_edge14&#45;headlabel"><a xlink:href="dir_000053_000038.html" target="_top" xlink:title="2">
<text text-anchor="middle" x="121.811" y="-264.012" font-family="Helvetica,sans-Serif" font-size="10.00">2</text>
</a>
</g>
</g>
<!-- dir_cb2b5dfd43482fb277f6333d539f1f06&#45;&gt;dir_1456dd235032e023892318efbecb420b -->
<g id="edge15" class="edge"><title>dir_cb2b5dfd43482fb277f6333d539f1f06&#45;&gt;dir_1456dd235032e023892318efbecb420b</title>
<path fill="none" stroke="black" d="M110.24,-252.114C101.819,-262.235 91.3195,-275.485 83,-288 69.5702,-308.202 56.428,-332.384 47.1404,-350.44"/>
<polygon fill="black" stroke="black" points="43.8065,-349.275 42.3999,-359.776 50.048,-352.445 43.8065,-349.275"/>
<g id="a_edge15&#45;headlabel"><a xlink:href="dir_000038_000033.html" target="_top" xlink:title="12">
<text text-anchor="middle" x="42.9022" y="-342.285" font-family="Helvetica,sans-Serif" font-size="10.00">12</text>
</a>
</g>
</g>
<!-- dir_cb2b5dfd43482fb277f6333d539f1f06&#45;&gt;dir_a1f42069ba95676f6b9abbd5065ccf6d -->
<g id="edge16" class="edge"><title>dir_cb2b5dfd43482fb277f6333d539f1f06&#45;&gt;dir_a1f42069ba95676f6b9abbd5065ccf6d</title>
<path fill="none" stroke="black" d="M129.429,-252.104C129.576,-259.791 129.018,-269.054 127.947,-277.665"/>
<polygon fill="black" stroke="black" points="124.465,-277.28 126.399,-287.697 131.383,-278.347 124.465,-277.28"/>
<g id="a_edge16&#45;headlabel"><a xlink:href="dir_000038_000053.html" target="_top" xlink:title="14">
<text text-anchor="middle" x="122.207" y="-270.794" font-family="Helvetica,sans-Serif" font-size="10.00">14</text>
</a>
</g>
</g>
<!-- dir_cb2b5dfd43482fb277f6333d539f1f06&#45;&gt;dir_1efe152df2f2e9cd3517b1174a4598d7 -->
<g id="edge17" class="edge"><title>dir_cb2b5dfd43482fb277f6333d539f1f06&#45;&gt;dir_1efe152df2f2e9cd3517b1174a4598d7</title>
<path fill="none" stroke="black" d="M120.866,-215.838C117.238,-197.59 113.59,-168.098 121,-144 124.009,-134.215 129.507,-124.616 135.316,-116.334"/>
<polygon fill="black" stroke="black" points="138.195,-118.328 141.39,-108.226 132.593,-114.131 138.195,-118.328"/>
<g id="a_edge17&#45;headlabel"><a xlink:href="dir_000038_000052.html" target="_top" xlink:title="2">
<text text-anchor="middle" x="138.312" y="-120.407" font-family="Helvetica,sans-Serif" font-size="10.00">2</text>
</a>
</g>
</g>
<!-- dir_cb2b5dfd43482fb277f6333d539f1f06&#45;&gt;dir_f5906172d2c9558d453eb81ef8e5bf93 -->
<g id="edge18" class="edge"><title>dir_cb2b5dfd43482fb277f6333d539f1f06&#45;&gt;dir_f5906172d2c9558d453eb81ef8e5bf93</title>
<path fill="none" stroke="black" d="M152.084,-215.911C165.542,-206.483 181.37,-193.884 193,-180 208.789,-161.152 221.42,-136.135 229.595,-117.425"/>
<polygon fill="black" stroke="black" points="232.901,-118.595 233.564,-108.021 226.451,-115.874 232.901,-118.595"/>
<g id="a_edge18&#45;headlabel"><a xlink:href="dir_000038_000051.html" target="_top" xlink:title="5">
<text text-anchor="middle" x="234.119" y="-120.511" font-family="Helvetica,sans-Serif" font-size="10.00">5</text>
</a>
</g>
</g>
<!-- dir_cb2b5dfd43482fb277f6333d539f1f06&#45;&gt;dir_ff87cf903db18af0fdb6c342683ece25 -->
<g id="edge19" class="edge"><title>dir_cb2b5dfd43482fb277f6333d539f1f06&#45;&gt;dir_ff87cf903db18af0fdb6c342683ece25</title>
<path fill="none" stroke="black" d="M132.91,-215.697C136.553,-207.728 140.954,-198.1 144.994,-189.264"/>
<polygon fill="black" stroke="black" points="148.206,-190.654 149.181,-180.104 141.84,-187.744 148.206,-190.654"/>
<g id="a_edge19&#45;headlabel"><a xlink:href="dir_000038_000061.html" target="_top" xlink:title="1">
<text text-anchor="middle" x="149.294" y="-192.604" font-family="Helvetica,sans-Serif" font-size="10.00">1</text>
</a>
</g>
</g>
<!-- dir_1efe152df2f2e9cd3517b1174a4598d7&#45;&gt;dir_dbb2a23c19e39eeed5090a333e1fc81c -->
<g id="edge20" class="edge"><title>dir_1efe152df2f2e9cd3517b1174a4598d7&#45;&gt;dir_dbb2a23c19e39eeed5090a333e1fc81c</title>
<path fill="none" stroke="black" d="M182.197,-71.8761C195.414,-62.8931 211.792,-51.7625 226.107,-42.0341"/>
<polygon fill="black" stroke="black" points="228.403,-44.7055 234.707,-36.1898 224.468,-38.9159 228.403,-44.7055"/>
<g id="a_edge20&#45;headlabel"><a xlink:href="dir_000052_000057.html" target="_top" xlink:title="1">
<text text-anchor="middle" x="227.026" y="-46.5742" font-family="Helvetica,sans-Serif" font-size="10.00">1</text>
</a>
</g>
</g>
<!-- dir_ff87cf903db18af0fdb6c342683ece25&#45;&gt;dir_1456dd235032e023892318efbecb420b -->
<g id="edge21" class="edge"><title>dir_ff87cf903db18af0fdb6c342683ece25&#45;&gt;dir_1456dd235032e023892318efbecb420b</title>
<path fill="none" stroke="black" d="M129.804,-176.919C114.187,-186.134 95.2968,-199.544 83,-216 52.8581,-256.338 41.0923,-315.334 36.6215,-349.583"/>
<polygon fill="black" stroke="black" points="33.1145,-349.436 35.4122,-359.778 40.0658,-350.26 33.1145,-349.436"/>
<g id="a_edge21&#45;headlabel"><a xlink:href="dir_000061_000033.html" target="_top" xlink:title="3">
<text text-anchor="middle" x="30.7183" y="-343.032" font-family="Helvetica,sans-Serif" font-size="10.00">3</text>
</a>
</g>
</g>
<!-- dir_ff87cf903db18af0fdb6c342683ece25&#45;&gt;dir_1efe152df2f2e9cd3517b1174a4598d7 -->
<g id="edge22" class="edge"><title>dir_ff87cf903db18af0fdb6c342683ece25&#45;&gt;dir_1efe152df2f2e9cd3517b1174a4598d7</title>
<path fill="none" stroke="black" d="M157,-143.697C157,-135.983 157,-126.712 157,-118.112"/>
<polygon fill="black" stroke="black" points="160.5,-118.104 157,-108.104 153.5,-118.104 160.5,-118.104"/>
<g id="a_edge22&#45;headlabel"><a xlink:href="dir_000061_000052.html" target="_top" xlink:title="1">
<text text-anchor="middle" x="163.339" y="-119.199" font-family="Helvetica,sans-Serif" font-size="10.00">1</text>
</a>
</g>
</g>
<!-- dir_ff87cf903db18af0fdb6c342683ece25&#45;&gt;dir_f5906172d2c9558d453eb81ef8e5bf93 -->
<g id="edge23" class="edge"><title>dir_ff87cf903db18af0fdb6c342683ece25&#45;&gt;dir_f5906172d2c9558d453eb81ef8e5bf93</title>
<path fill="none" stroke="black" d="M177.517,-143.697C187.869,-134.965 200.586,-124.24 211.839,-114.75"/>
<polygon fill="black" stroke="black" points="214.331,-117.227 219.719,-108.104 209.818,-111.876 214.331,-117.227"/>
<g id="a_edge23&#45;headlabel"><a xlink:href="dir_000061_000051.html" target="_top" xlink:title="1">
<text text-anchor="middle" x="213.414" y="-119.215" font-family="Helvetica,sans-Serif" font-size="10.00">1</text>
</a>
</g>
</g>
</g>
</svg>
