<?xml version="1.0" encoding="UTF-8" standalone="no"?>
<!DOCTYPE svg PUBLIC "-//W3C//DTD SVG 1.1//EN"
 "http://www.w3.org/Graphics/SVG/1.1/DTD/svg11.dtd">
<!-- Generated by graphviz version 2.38.0 (20140413.2041)
 -->
<!-- Title: /home/travis/build/STORM&#45;IRIT/Radium&#45;Engine/src/Core/Geometry/Distance Pages: 1 -->
<svg width="170pt" height="223pt"
 viewBox="0.00 0.00 170.00 223.00" xmlns="http://www.w3.org/2000/svg" xmlns:xlink="http://www.w3.org/1999/xlink">
<g id="graph0" class="graph" transform="scale(1 1) rotate(0) translate(4 219)">
<title>/home/travis/build/STORM&#45;IRIT/Radium&#45;Engine/src/Core/Geometry/Distance</title>
<polygon fill="white" stroke="none" points="-4,4 -4,-219 166,-219 166,4 -4,4"/>
<g id="clust1" class="cluster"><title>clusterdir_cb2b5dfd43482fb277f6333d539f1f06</title>
<g id="a_clust1"><a xlink:href="dir_cb2b5dfd43482fb277f6333d539f1f06.html" target="_top" xlink:title="Geometry">
<polygon fill="#ddddee" stroke="black" points="8,-136 8,-207 84,-207 84,-136 8,-136"/>
<text text-anchor="middle" x="46" y="-195" font-family="Helvetica,sans-Serif" font-size="10.00">Geometry</text>
</a>
</g>
</g>
<!-- dir_49911baf8b90f224b9b0a9eff80cc8af -->
<g id="node1" class="node"><title>dir_49911baf8b90f224b9b0a9eff80cc8af</title>
<g id="a_node1"><a xlink:href="dir_49911baf8b90f224b9b0a9eff80cc8af.html" target="_top" xlink:title="Distance">
<polygon fill="#eeeeff" stroke="black" points="75.5,-180 16.5,-180 16.5,-144 75.5,-144 75.5,-180"/>
<text text-anchor="middle" x="46" y="-159.5" font-family="Helvetica,sans-Serif" font-size="10.00">Distance</text>
</a>
</g>
</g>
<!-- dir_1456dd235032e023892318efbecb420b -->
<g id="node2" class="node"><title>dir_1456dd235032e023892318efbecb420b</title>
<g id="a_node2"><a xlink:href="dir_1456dd235032e023892318efbecb420b.html" target="_top" xlink:title="Containers">
<polygon fill="none" stroke="black" points="162,-180 94,-180 94,-144 162,-144 162,-180"/>
<text text-anchor="middle" x="128" y="-159.5" font-family="Helvetica,sans-Serif" font-size="10.00">Containers</text>
</a>
</g>
</g>
<!-- dir_49911baf8b90f224b9b0a9eff80cc8af&#45;&gt;dir_1456dd235032e023892318efbecb420b -->
<g id="edge4" class="edge"><title>dir_49911baf8b90f224b9b0a9eff80cc8af&#45;&gt;dir_1456dd235032e023892318efbecb420b</title>
<path fill="none" stroke="black" d="M75.7891,-162C78.4064,-162 81.0238,-162 83.6411,-162"/>
<polygon fill="black" stroke="black" points="83.7366,-165.5 93.7366,-162 83.7365,-158.5 83.7366,-165.5"/>
<g id="a_edge4&#45;headlabel"><a xlink:href="dir_000043_000033.html" target="_top" xlink:title="1">
<text text-anchor="middle" x="80.142" y="-165.839" font-family="Helvetica,sans-Serif" font-size="10.00">1</text>
</a>
</g>
</g>
<!-- dir_d080e052e6032887076b6b5756e5361d -->
<g id="node3" class="node"><title>dir_d080e052e6032887076b6b5756e5361d</title>
<g id="a_node3"><a xlink:href="dir_d080e052e6032887076b6b5756e5361d.html" target="_top" xlink:title="Mesh">
<polygon fill="white" stroke="red" points="128,-36 74,-36 74,-0 128,-0 128,-36"/>
<text text-anchor="middle" x="101" y="-15.5" font-family="Helvetica,sans-Serif" font-size="10.00">Mesh</text>
</a>
</g>
</g>
<!-- dir_49911baf8b90f224b9b0a9eff80cc8af&#45;&gt;dir_d080e052e6032887076b6b5756e5361d -->
<g id="edge5" class="edge"><title>dir_49911baf8b90f224b9b0a9eff80cc8af&#45;&gt;dir_d080e052e6032887076b6b5756e5361d</title>
<path fill="none" stroke="black" d="M47.6972,-143.674C49.9505,-125.29 54.8884,-95.6852 65,-72 69.0842,-62.4333 74.9884,-52.7836 80.8379,-44.3881"/>
<polygon fill="black" stroke="black" points="83.7797,-46.2938 86.8353,-36.1492 78.1203,-42.1741 83.7797,-46.2938"/>
<g id="a_edge5&#45;headlabel"><a xlink:href="dir_000043_000054.html" target="_top" xlink:title="2">
<text text-anchor="middle" x="83.9597" y="-48.371" font-family="Helvetica,sans-Serif" font-size="10.00">2</text>
</a>
</g>
</g>
<!-- dir_a1f42069ba95676f6b9abbd5065ccf6d -->
<g id="node4" class="node"><title>dir_a1f42069ba95676f6b9abbd5065ccf6d</title>
<g id="a_node4"><a xlink:href="dir_a1f42069ba95676f6b9abbd5065ccf6d.html" target="_top" xlink:title="Math">
<polygon fill="none" stroke="black" points="128,-108 74,-108 74,-72 128,-72 128,-108"/>
<text text-anchor="middle" x="101" y="-87.5" font-family="Helvetica,sans-Serif" font-size="10.00">Math</text>
</a>
</g>
</g>
<!-- dir_49911baf8b90f224b9b0a9eff80cc8af&#45;&gt;dir_a1f42069ba95676f6b9abbd5065ccf6d -->
<g id="edge6" class="edge"><title>dir_49911baf8b90f224b9b0a9eff80cc8af&#45;&gt;dir_a1f42069ba95676f6b9abbd5065ccf6d</title>
<path fill="none" stroke="black" d="M53.6798,-143.697C59.4079,-135.305 67.257,-125.07 74.9744,-115.861"/>
<polygon fill="black" stroke="black" points="77.7842,-117.962 81.6658,-108.104 72.4838,-113.39 77.7842,-117.962"/>
<g id="a_edge6&#45;headlabel"><a xlink:href="dir_000043_000053.html" target="_top" xlink:title="2">
<text text-anchor="middle" x="77.5861" y="-120.039" font-family="Helvetica,sans-Serif" font-size="10.00">2</text>
</a>
</g>
</g>
<!-- dir_1456dd235032e023892318efbecb420b&#45;&gt;dir_a1f42069ba95676f6b9abbd5065ccf6d -->
<g id="edge1" class="edge"><title>dir_1456dd235032e023892318efbecb420b&#45;&gt;dir_a1f42069ba95676f6b9abbd5065ccf6d</title>
<path fill="none" stroke="black" d="M115.41,-143.697C111.598,-135.898 107.753,-126.509 104.765,-117.829"/>
<polygon fill="black" stroke="black" points="108.044,-116.591 101.702,-108.104 101.368,-118.694 108.044,-116.591"/>
<g id="a_edge1&#45;headlabel"><a xlink:href="dir_000033_000053.html" target="_top" xlink:title="1">
<text text-anchor="middle" x="111.832" y="-116.667" font-family="Helvetica,sans-Serif" font-size="10.00">1</text>
</a>
</g>
</g>
<!-- dir_d080e052e6032887076b6b5756e5361d&#45;&gt;dir_1456dd235032e023892318efbecb420b -->
<g id="edge2" class="edge"><title>dir_d080e052e6032887076b6b5756e5361d&#45;&gt;dir_1456dd235032e023892318efbecb420b</title>
<path fill="none" stroke="black" d="M116.61,-36.2264C124.373,-45.9695 132.946,-58.8163 137,-72 143.22,-92.2264 140.269,-116.135 136.147,-134.076"/>
<polygon fill="black" stroke="black" points="132.728,-133.322 133.646,-143.877 139.51,-135.053 132.728,-133.322"/>
<g id="a_edge2&#45;headlabel"><a xlink:href="dir_000054_000033.html" target="_top" xlink:title="2">
<text text-anchor="middle" x="130.866" y="-126.637" font-family="Helvetica,sans-Serif" font-size="10.00">2</text>
</a>
</g>
</g>
<!-- dir_d080e052e6032887076b6b5756e5361d&#45;&gt;dir_a1f42069ba95676f6b9abbd5065ccf6d -->
<g id="edge3" class="edge"><title>dir_d080e052e6032887076b6b5756e5361d&#45;&gt;dir_a1f42069ba95676f6b9abbd5065ccf6d</title>
<path fill="none" stroke="black" d="M106.895,-36.1043C107.701,-43.7913 107.937,-53.0537 107.604,-61.6651"/>
<polygon fill="black" stroke="black" points="104.109,-61.4805 106.916,-71.6966 111.092,-61.9597 104.109,-61.4805"/>
<g id="a_edge3&#45;headlabel"><a xlink:href="dir_000054_000053.html" target="_top" xlink:title="7">
<text text-anchor="middle" x="101.522" y="-55.2" font-family="Helvetica,sans-Serif" font-size="10.00">7</text>
</a>
</g>
</g>
<!-- dir_a1f42069ba95676f6b9abbd5065ccf6d&#45;&gt;dir_49911baf8b90f224b9b0a9eff80cc8af -->
<g id="edge9" class="edge"><title>dir_a1f42069ba95676f6b9abbd5065ccf6d&#45;&gt;dir_49911baf8b90f224b9b0a9eff80cc8af</title>
<path fill="none" stroke="black" d="M93.4559,-108.104C87.7615,-116.467 79.9284,-126.694 72.209,-135.92"/>
<polygon fill="black" stroke="black" points="69.385,-133.835 65.5112,-143.697 74.6891,-138.403 69.385,-133.835"/>
<g id="a_edge9&#45;headlabel"><a xlink:href="dir_000053_000043.html" target="_top" xlink:title="1">
<text text-anchor="middle" x="69.5793" y="-126.759" font-family="Helvetica,sans-Serif" font-size="10.00">1</text>
</a>
</g>
</g>
<!-- dir_a1f42069ba95676f6b9abbd5065ccf6d&#45;&gt;dir_1456dd235032e023892318efbecb420b -->
<g id="edge7" class="edge"><title>dir_a1f42069ba95676f6b9abbd5065ccf6d&#45;&gt;dir_1456dd235032e023892318efbecb420b</title>
<path fill="none" stroke="black" d="M113.492,-108.104C117.304,-115.876 121.156,-125.257 124.159,-133.949"/>
<polygon fill="black" stroke="black" points="120.889,-135.217 127.242,-143.697 127.563,-133.107 120.889,-135.217"/>
<g id="a_edge7&#45;headlabel"><a xlink:href="dir_000053_000033.html" target="_top" xlink:title="3">
<text text-anchor="middle" x="117.098" y="-130.146" font-family="Helvetica,sans-Serif" font-size="10.00">3</text>
</a>
</g>
</g>
<!-- dir_a1f42069ba95676f6b9abbd5065ccf6d&#45;&gt;dir_d080e052e6032887076b6b5756e5361d -->
<g id="edge8" class="edge"><title>dir_a1f42069ba95676f6b9abbd5065ccf6d&#45;&gt;dir_d080e052e6032887076b6b5756e5361d</title>
<path fill="none" stroke="black" d="M95.0843,-71.6966C94.2886,-63.9827 94.0621,-54.7125 94.4047,-46.1124"/>
<polygon fill="black" stroke="black" points="97.8984,-46.3243 95.105,-36.1043 90.9154,-45.8356 97.8984,-46.3243"/>
<g id="a_edge8&#45;headlabel"><a xlink:href="dir_000053_000054.html" target="_top" xlink:title="1">
<text text-anchor="middle" x="100.48" y="-47.6083" font-family="Helvetica,sans-Serif" font-size="10.00">1</text>
</a>
</g>
</g>
</g>
</svg>
