<?xml version="1.0" encoding="UTF-8" standalone="no"?>
<!DOCTYPE svg PUBLIC "-//W3C//DTD SVG 1.1//EN"
 "http://www.w3.org/Graphics/SVG/1.1/DTD/svg11.dtd">
<!-- Generated by graphviz version 2.38.0 (20140413.2041)
 -->
<!-- Title: /home/travis/build/STORM&#45;IRIT/Radium&#45;Engine/src/GuiBase/SelectionManager Pages: 1 -->
<svg width="147pt" height="295pt"
 viewBox="0.00 0.00 147.00 295.00" xmlns="http://www.w3.org/2000/svg" xmlns:xlink="http://www.w3.org/1999/xlink">
<g id="graph0" class="graph" transform="scale(1 1) rotate(0) translate(4 291)">
<title>/home/travis/build/STORM&#45;IRIT/Radium&#45;Engine/src/GuiBase/SelectionManager</title>
<polygon fill="white" stroke="none" points="-4,4 -4,-291 143,-291 143,4 -4,4"/>
<g id="clust1" class="cluster"><title>clusterdir_cb59203ea3f84fc4d67c89730003fed4</title>
<g id="a_clust1"><a xlink:href="dir_cb59203ea3f84fc4d67c89730003fed4.html" target="_top" xlink:title="GuiBase">
<polygon fill="#ddddee" stroke="black" points="11,-208 11,-279 131,-279 131,-208 11,-208"/>
<text text-anchor="middle" x="71" y="-267" font-family="Helvetica,sans-Serif" font-size="10.00">GuiBase</text>
</a>
</g>
</g>
<!-- dir_0a0d8c554334a5684cc8b98421956a17 -->
<g id="node1" class="node"><title>dir_0a0d8c554334a5684cc8b98421956a17</title>
<g id="a_node1"><a xlink:href="dir_0a0d8c554334a5684cc8b98421956a17.html" target="_top" xlink:title="SelectionManager">
<polygon fill="#eeeeff" stroke="black" points="122.5,-252 19.5,-252 19.5,-216 122.5,-216 122.5,-252"/>
<text text-anchor="middle" x="71" y="-231.5" font-family="Helvetica,sans-Serif" font-size="10.00">SelectionManager</text>
</a>
</g>
</g>
<!-- dir_a2f0e5642e47e7ed59fe0f0829eafb5f -->
<g id="node2" class="node"><title>dir_a2f0e5642e47e7ed59fe0f0829eafb5f</title>
<g id="a_node2"><a xlink:href="dir_a2f0e5642e47e7ed59fe0f0829eafb5f.html" target="_top" xlink:title="Core">
<polygon fill="white" stroke="red" points="54,-108 0,-108 0,-72 54,-72 54,-108"/>
<text text-anchor="middle" x="27" y="-87.5" font-family="Helvetica,sans-Serif" font-size="10.00">Core</text>
</a>
</g>
</g>
<!-- dir_0a0d8c554334a5684cc8b98421956a17&#45;&gt;dir_a2f0e5642e47e7ed59fe0f0829eafb5f -->
<g id="edge4" class="edge"><title>dir_0a0d8c554334a5684cc8b98421956a17&#45;&gt;dir_a2f0e5642e47e7ed59fe0f0829eafb5f</title>
<path fill="none" stroke="black" d="M52.5205,-215.712C43.6281,-206.141 33.8615,-193.473 29,-180 21.8856,-160.284 21.7479,-136.479 23.1915,-118.452"/>
<polygon fill="black" stroke="black" points="26.692,-118.622 24.2147,-108.321 19.7274,-117.919 26.692,-118.622"/>
<g id="a_edge4&#45;headlabel"><a xlink:href="dir_000087_000020.html" target="_top" xlink:title="1">
<text text-anchor="middle" x="29.1558" y="-119.984" font-family="Helvetica,sans-Serif" font-size="10.00">1</text>
</a>
</g>
</g>
<!-- dir_e89aeb6b59063c7bef233057991cda67 -->
<g id="node3" class="node"><title>dir_e89aeb6b59063c7bef233057991cda67</title>
<g id="a_node3"><a xlink:href="dir_e89aeb6b59063c7bef233057991cda67.html" target="_top" xlink:title="TreeModel">
<polygon fill="none" stroke="black" points="103.5,-180 38.5,-180 38.5,-144 103.5,-144 103.5,-180"/>
<text text-anchor="middle" x="71" y="-159.5" font-family="Helvetica,sans-Serif" font-size="10.00">TreeModel</text>
</a>
</g>
</g>
<!-- dir_0a0d8c554334a5684cc8b98421956a17&#45;&gt;dir_e89aeb6b59063c7bef233057991cda67 -->
<g id="edge5" class="edge"><title>dir_0a0d8c554334a5684cc8b98421956a17&#45;&gt;dir_e89aeb6b59063c7bef233057991cda67</title>
<path fill="none" stroke="black" d="M71,-215.697C71,-207.983 71,-198.712 71,-190.112"/>
<polygon fill="black" stroke="black" points="74.5001,-190.104 71,-180.104 67.5001,-190.104 74.5001,-190.104"/>
<g id="a_edge5&#45;headlabel"><a xlink:href="dir_000087_000090.html" target="_top" xlink:title="1">
<text text-anchor="middle" x="77.3393" y="-191.199" font-family="Helvetica,sans-Serif" font-size="10.00">1</text>
</a>
</g>
</g>
<!-- dir_3072bc1f55ed1280fe4fbe6b21c78379 -->
<g id="node4" class="node"><title>dir_3072bc1f55ed1280fe4fbe6b21c78379</title>
<g id="a_node4"><a xlink:href="dir_3072bc1f55ed1280fe4fbe6b21c78379.html" target="_top" xlink:title="Engine">
<polygon fill="white" stroke="red" points="81,-36 27,-36 27,-0 81,-0 81,-36"/>
<text text-anchor="middle" x="54" y="-15.5" font-family="Helvetica,sans-Serif" font-size="10.00">Engine</text>
</a>
</g>
</g>
<!-- dir_0a0d8c554334a5684cc8b98421956a17&#45;&gt;dir_3072bc1f55ed1280fe4fbe6b21c78379 -->
<g id="edge6" class="edge"><title>dir_0a0d8c554334a5684cc8b98421956a17&#45;&gt;dir_3072bc1f55ed1280fe4fbe6b21c78379</title>
<path fill="none" stroke="black" d="M89.1688,-215.677C97.8849,-206.097 107.412,-193.43 112,-180 117.173,-164.859 115.412,-159.632 112,-144 104.084,-107.73 84.4541,-69.5024 70.2196,-45.017"/>
<polygon fill="black" stroke="black" points="73.1805,-43.1481 65.064,-36.3383 67.1623,-46.7233 73.1805,-43.1481"/>
<g id="a_edge6&#45;headlabel"><a xlink:href="dir_000087_000063.html" target="_top" xlink:title="2">
<text text-anchor="middle" x="77.4573" y="-42.2885" font-family="Helvetica,sans-Serif" font-size="10.00">2</text>
</a>
</g>
</g>
<!-- dir_a2f0e5642e47e7ed59fe0f0829eafb5f&#45;&gt;dir_3072bc1f55ed1280fe4fbe6b21c78379 -->
<g id="edge1" class="edge"><title>dir_a2f0e5642e47e7ed59fe0f0829eafb5f&#45;&gt;dir_3072bc1f55ed1280fe4fbe6b21c78379</title>
<path fill="none" stroke="black" d="M27.7584,-71.6966C30.01,-63.7284 33.5093,-54.0995 37.31,-45.2641"/>
<polygon fill="black" stroke="black" points="40.5233,-46.6534 41.5076,-36.1043 34.1597,-43.7371 40.5233,-46.6534"/>
<g id="a_edge1&#45;headlabel"><a xlink:href="dir_000020_000063.html" target="_top" xlink:title="1">
<text text-anchor="middle" x="41.607" y="-48.604" font-family="Helvetica,sans-Serif" font-size="10.00">1</text>
</a>
</g>
</g>
<!-- dir_e89aeb6b59063c7bef233057991cda67&#45;&gt;dir_a2f0e5642e47e7ed59fe0f0829eafb5f -->
<g id="edge2" class="edge"><title>dir_e89aeb6b59063c7bef233057991cda67&#45;&gt;dir_a2f0e5642e47e7ed59fe0f0829eafb5f</title>
<path fill="none" stroke="black" d="M60.1236,-143.697C55.0084,-135.559 48.8045,-125.689 43.1551,-116.701"/>
<polygon fill="black" stroke="black" points="46.0363,-114.708 37.7513,-108.104 40.1098,-118.433 46.0363,-114.708"/>
<g id="a_edge2&#45;headlabel"><a xlink:href="dir_000090_000020.html" target="_top" xlink:title="1">
<text text-anchor="middle" x="50.353" y="-113.74" font-family="Helvetica,sans-Serif" font-size="10.00">1</text>
</a>
</g>
</g>
<!-- dir_e89aeb6b59063c7bef233057991cda67&#45;&gt;dir_3072bc1f55ed1280fe4fbe6b21c78379 -->
<g id="edge3" class="edge"><title>dir_e89aeb6b59063c7bef233057991cda67&#45;&gt;dir_3072bc1f55ed1280fe4fbe6b21c78379</title>
<path fill="none" stroke="black" d="M69.8632,-143.895C68.5766,-125.943 66.2312,-96.9236 63,-72 61.9032,-63.5398 60.4422,-54.3642 59.017,-46.0627"/>
<polygon fill="black" stroke="black" points="62.4492,-45.372 57.2609,-36.1345 55.5562,-46.5913 62.4492,-45.372"/>
<g id="a_edge3&#45;headlabel"><a xlink:href="dir_000090_000063.html" target="_top" xlink:title="5">
<text text-anchor="middle" x="65.8711" y="-45.9172" font-family="Helvetica,sans-Serif" font-size="10.00">5</text>
</a>
</g>
</g>
<!-- dir_3072bc1f55ed1280fe4fbe6b21c78379&#45;&gt;dir_a2f0e5642e47e7ed59fe0f0829eafb5f -->
<g id="edge7" class="edge"><title>dir_3072bc1f55ed1280fe4fbe6b21c78379&#45;&gt;dir_a2f0e5642e47e7ed59fe0f0829eafb5f</title>
<path fill="none" stroke="black" d="M53.2976,-36.1043C51.067,-44.0447 47.5806,-53.6661 43.785,-62.5146"/>
<polygon fill="black" stroke="black" points="40.5621,-61.1465 39.5899,-71.6966 46.9291,-64.0555 40.5621,-61.1465"/>
<g id="a_edge7&#45;headlabel"><a xlink:href="dir_000063_000020.html" target="_top" xlink:title="98">
<text text-anchor="middle" x="39.4734" y="-54.1971" font-family="Helvetica,sans-Serif" font-size="10.00">98</text>
</a>
</g>
</g>
</g>
</svg>
