<?xml version="1.0" encoding="UTF-8" standalone="no"?>
<!DOCTYPE svg PUBLIC "-//W3C//DTD SVG 1.1//EN"
 "http://www.w3.org/Graphics/SVG/1.1/DTD/svg11.dtd">
<!-- Generated by graphviz version 2.38.0 (20140413.2041)
 -->
<!-- Title: /home/travis/build/STORM&#45;IRIT/Radium&#45;Engine/src/Core/Algorithm/Diffusion Pages: 1 -->
<svg width="100pt" height="295pt"
 viewBox="0.00 0.00 99.58 295.00" xmlns="http://www.w3.org/2000/svg" xmlns:xlink="http://www.w3.org/1999/xlink">
<g id="graph0" class="graph" transform="scale(1 1) rotate(0) translate(4 291)">
<title>/home/travis/build/STORM&#45;IRIT/Radium&#45;Engine/src/Core/Algorithm/Diffusion</title>
<polygon fill="white" stroke="none" points="-4,4 -4,-291 95.5813,-291 95.5813,4 -4,4"/>
<g id="clust1" class="cluster"><title>clusterdir_ec48d91ab8a264b56e678b01a1ccafad</title>
<g id="a_clust1"><a xlink:href="dir_ec48d91ab8a264b56e678b01a1ccafad.html" target="_top" xlink:title="Algorithm">
<polygon fill="#ddddee" stroke="black" points="8,-208 8,-279 82,-279 82,-208 8,-208"/>
<text text-anchor="middle" x="45" y="-267" font-family="Helvetica,sans-Serif" font-size="10.00">Algorithm</text>
</a>
</g>
</g>
<!-- dir_40613b97f16eaaf99c2ae20abbc05127 -->
<g id="node1" class="node"><title>dir_40613b97f16eaaf99c2ae20abbc05127</title>
<g id="a_node1"><a xlink:href="dir_40613b97f16eaaf99c2ae20abbc05127.html" target="_top" xlink:title="Diffusion">
<polygon fill="#eeeeff" stroke="black" points="74,-252 16,-252 16,-216 74,-216 74,-252"/>
<text text-anchor="middle" x="45" y="-231.5" font-family="Helvetica,sans-Serif" font-size="10.00">Diffusion</text>
</a>
</g>
</g>
<!-- dir_a1f42069ba95676f6b9abbd5065ccf6d -->
<g id="node2" class="node"><title>dir_a1f42069ba95676f6b9abbd5065ccf6d</title>
<g id="a_node2"><a xlink:href="dir_a1f42069ba95676f6b9abbd5065ccf6d.html" target="_top" xlink:title="Math">
<polygon fill="none" stroke="black" points="72,-108 18,-108 18,-72 72,-72 72,-108"/>
<text text-anchor="middle" x="45" y="-87.5" font-family="Helvetica,sans-Serif" font-size="10.00">Math</text>
</a>
</g>
</g>
<!-- dir_40613b97f16eaaf99c2ae20abbc05127&#45;&gt;dir_a1f42069ba95676f6b9abbd5065ccf6d -->
<g id="edge3" class="edge"><title>dir_40613b97f16eaaf99c2ae20abbc05127&#45;&gt;dir_a1f42069ba95676f6b9abbd5065ccf6d</title>
<path fill="none" stroke="black" d="M29.3901,-215.774C21.6271,-206.03 13.0541,-193.184 9,-180 4.29721,-164.707 4.29721,-159.293 9,-144 12.0089,-134.215 17.507,-124.616 23.3157,-116.334"/>
<polygon fill="black" stroke="black" points="26.1948,-118.328 29.3901,-108.226 20.5928,-114.131 26.1948,-118.328"/>
<g id="a_edge3&#45;headlabel"><a xlink:href="dir_000023_000053.html" target="_top" xlink:title="1">
<text text-anchor="middle" x="26.3117" y="-120.407" font-family="Helvetica,sans-Serif" font-size="10.00">1</text>
</a>
</g>
</g>
<!-- dir_cb2b5dfd43482fb277f6333d539f1f06 -->
<g id="node3" class="node"><title>dir_cb2b5dfd43482fb277f6333d539f1f06</title>
<g id="a_node3"><a xlink:href="dir_cb2b5dfd43482fb277f6333d539f1f06.html" target="_top" xlink:title="Geometry">
<polygon fill="white" stroke="red" points="77.5,-36 12.5,-36 12.5,-0 77.5,-0 77.5,-36"/>
<text text-anchor="middle" x="45" y="-15.5" font-family="Helvetica,sans-Serif" font-size="10.00">Geometry</text>
</a>
</g>
</g>
<!-- dir_40613b97f16eaaf99c2ae20abbc05127&#45;&gt;dir_cb2b5dfd43482fb277f6333d539f1f06 -->
<g id="edge4" class="edge"><title>dir_40613b97f16eaaf99c2ae20abbc05127&#45;&gt;dir_cb2b5dfd43482fb277f6333d539f1f06</title>
<path fill="none" stroke="black" d="M60.6099,-215.774C68.3729,-206.03 76.9459,-193.184 81,-180 95.1084,-134.12 95.1084,-117.88 81,-72 77.9911,-62.2153 72.493,-52.6161 66.6843,-44.3336"/>
<polygon fill="black" stroke="black" points="69.4072,-42.1306 60.6099,-36.2264 63.8052,-46.3279 69.4072,-42.1306"/>
<g id="a_edge4&#45;headlabel"><a xlink:href="dir_000023_000038.html" target="_top" xlink:title="1">
<text text-anchor="middle" x="73.8348" y="-40.8048" font-family="Helvetica,sans-Serif" font-size="10.00">1</text>
</a>
</g>
</g>
<!-- dir_a5793b58c2011ea903ff63ac9a8ffe5f -->
<g id="node4" class="node"><title>dir_a5793b58c2011ea903ff63ac9a8ffe5f</title>
<g id="a_node4"><a xlink:href="dir_a5793b58c2011ea903ff63ac9a8ffe5f.html" target="_top" xlink:title="Delta">
<polygon fill="none" stroke="black" points="72,-180 18,-180 18,-144 72,-144 72,-180"/>
<text text-anchor="middle" x="45" y="-159.5" font-family="Helvetica,sans-Serif" font-size="10.00">Delta</text>
</a>
</g>
</g>
<!-- dir_40613b97f16eaaf99c2ae20abbc05127&#45;&gt;dir_a5793b58c2011ea903ff63ac9a8ffe5f -->
<g id="edge5" class="edge"><title>dir_40613b97f16eaaf99c2ae20abbc05127&#45;&gt;dir_a5793b58c2011ea903ff63ac9a8ffe5f</title>
<path fill="none" stroke="black" d="M45,-215.697C45,-207.983 45,-198.712 45,-190.112"/>
<polygon fill="black" stroke="black" points="48.5001,-190.104 45,-180.104 41.5001,-190.104 48.5001,-190.104"/>
<g id="a_edge5&#45;headlabel"><a xlink:href="dir_000023_000022.html" target="_top" xlink:title="1">
<text text-anchor="middle" x="51.3393" y="-191.199" font-family="Helvetica,sans-Serif" font-size="10.00">1</text>
</a>
</g>
</g>
<!-- dir_a1f42069ba95676f6b9abbd5065ccf6d&#45;&gt;dir_cb2b5dfd43482fb277f6333d539f1f06 -->
<g id="edge1" class="edge"><title>dir_a1f42069ba95676f6b9abbd5065ccf6d&#45;&gt;dir_cb2b5dfd43482fb277f6333d539f1f06</title>
<path fill="none" stroke="black" d="M39.0843,-71.6966C38.2886,-63.9827 38.0621,-54.7125 38.4047,-46.1124"/>
<polygon fill="black" stroke="black" points="41.8984,-46.3243 39.105,-36.1043 34.9154,-45.8356 41.8984,-46.3243"/>
<g id="a_edge1&#45;headlabel"><a xlink:href="dir_000053_000038.html" target="_top" xlink:title="2">
<text text-anchor="middle" x="44.4799" y="-47.6083" font-family="Helvetica,sans-Serif" font-size="10.00">2</text>
</a>
</g>
</g>
<!-- dir_cb2b5dfd43482fb277f6333d539f1f06&#45;&gt;dir_a1f42069ba95676f6b9abbd5065ccf6d -->
<g id="edge2" class="edge"><title>dir_cb2b5dfd43482fb277f6333d539f1f06&#45;&gt;dir_a1f42069ba95676f6b9abbd5065ccf6d</title>
<path fill="none" stroke="black" d="M50.895,-36.1043C51.7005,-43.7913 51.9369,-53.0537 51.604,-61.6651"/>
<polygon fill="black" stroke="black" points="48.1085,-61.4805 50.9157,-71.6966 55.0921,-61.9597 48.1085,-61.4805"/>
<g id="a_edge2&#45;headlabel"><a xlink:href="dir_000038_000053.html" target="_top" xlink:title="14">
<text text-anchor="middle" x="45.5219" y="-55.2" font-family="Helvetica,sans-Serif" font-size="10.00">14</text>
</a>
</g>
</g>
<!-- dir_a5793b58c2011ea903ff63ac9a8ffe5f&#45;&gt;dir_a1f42069ba95676f6b9abbd5065ccf6d -->
<g id="edge6" class="edge"><title>dir_a5793b58c2011ea903ff63ac9a8ffe5f&#45;&gt;dir_a1f42069ba95676f6b9abbd5065ccf6d</title>
<path fill="none" stroke="black" d="M45,-143.697C45,-135.983 45,-126.712 45,-118.112"/>
<polygon fill="black" stroke="black" points="48.5001,-118.104 45,-108.104 41.5001,-118.104 48.5001,-118.104"/>
<g id="a_edge6&#45;headlabel"><a xlink:href="dir_000022_000053.html" target="_top" xlink:title="1">
<text text-anchor="middle" x="51.3393" y="-119.199" font-family="Helvetica,sans-Serif" font-size="10.00">1</text>
</a>
</g>
</g>
</g>
</svg>
