<?xml version="1.0" encoding="UTF-8" standalone="no"?>
<!DOCTYPE svg PUBLIC "-//W3C//DTD SVG 1.1//EN"
 "http://www.w3.org/Graphics/SVG/1.1/DTD/svg11.dtd">
<!-- Generated by graphviz version 2.38.0 (20140413.2041)
 -->
<!-- Title: /home/travis/build/STORM&#45;IRIT/Radium&#45;Engine/src/Core/Geometry/Partition Pages: 1 -->
<svg width="211pt" height="367pt"
 viewBox="0.00 0.00 211.04 367.00" xmlns="http://www.w3.org/2000/svg" xmlns:xlink="http://www.w3.org/1999/xlink">
<g id="graph0" class="graph" transform="scale(1 1) rotate(0) translate(4 363)">
<title>/home/travis/build/STORM&#45;IRIT/Radium&#45;Engine/src/Core/Geometry/Partition</title>
<polygon fill="white" stroke="none" points="-4,4 -4,-363 207.036,-363 207.036,4 -4,4"/>
<g id="clust1" class="cluster"><title>clusterdir_cb2b5dfd43482fb277f6333d539f1f06</title>
<g id="a_clust1"><a xlink:href="dir_cb2b5dfd43482fb277f6333d539f1f06.html" target="_top" xlink:title="Geometry">
<polygon fill="#ddddee" stroke="black" points="40.0356,-280 40.0356,-351 112.036,-351 112.036,-280 40.0356,-280"/>
<text text-anchor="middle" x="76.0356" y="-339" font-family="Helvetica,sans-Serif" font-size="10.00">Geometry</text>
</a>
</g>
</g>
<!-- dir_0f79bd127e74778c58996c6b7ecb0f05 -->
<g id="node1" class="node"><title>dir_0f79bd127e74778c58996c6b7ecb0f05</title>
<g id="a_node1"><a xlink:href="dir_0f79bd127e74778c58996c6b7ecb0f05.html" target="_top" xlink:title="Partition">
<polygon fill="#eeeeff" stroke="black" points="104.036,-324 48.0356,-324 48.0356,-288 104.036,-288 104.036,-324"/>
<text text-anchor="middle" x="76.0356" y="-303.5" font-family="Helvetica,sans-Serif" font-size="10.00">Partition</text>
</a>
</g>
</g>
<!-- dir_1456dd235032e023892318efbecb420b -->
<g id="node2" class="node"><title>dir_1456dd235032e023892318efbecb420b</title>
<g id="a_node2"><a xlink:href="dir_1456dd235032e023892318efbecb420b.html" target="_top" xlink:title="Containers">
<polygon fill="none" stroke="black" points="203.036,-180 135.036,-180 135.036,-144 203.036,-144 203.036,-180"/>
<text text-anchor="middle" x="169.036" y="-159.5" font-family="Helvetica,sans-Serif" font-size="10.00">Containers</text>
</a>
</g>
</g>
<!-- dir_0f79bd127e74778c58996c6b7ecb0f05&#45;&gt;dir_1456dd235032e023892318efbecb420b -->
<g id="edge6" class="edge"><title>dir_0f79bd127e74778c58996c6b7ecb0f05&#45;&gt;dir_1456dd235032e023892318efbecb420b</title>
<path fill="none" stroke="black" d="M92.4263,-287.595C101.422,-277.594 112.457,-264.559 121.036,-252 134.738,-231.941 147.651,-207.564 156.625,-189.397"/>
<polygon fill="black" stroke="black" points="159.964,-190.535 161.186,-180.01 153.667,-187.476 159.964,-190.535"/>
<g id="a_edge6&#45;headlabel"><a xlink:href="dir_000047_000033.html" target="_top" xlink:title="2">
<text text-anchor="middle" x="160.947" y="-192.508" font-family="Helvetica,sans-Serif" font-size="10.00">2</text>
</a>
</g>
</g>
<!-- dir_d080e052e6032887076b6b5756e5361d -->
<g id="node3" class="node"><title>dir_d080e052e6032887076b6b5756e5361d</title>
<g id="a_node3"><a xlink:href="dir_d080e052e6032887076b6b5756e5361d.html" target="_top" xlink:title="Mesh">
<polygon fill="white" stroke="red" points="134.036,-36 80.0356,-36 80.0356,-0 134.036,-0 134.036,-36"/>
<text text-anchor="middle" x="107.036" y="-15.5" font-family="Helvetica,sans-Serif" font-size="10.00">Mesh</text>
</a>
</g>
</g>
<!-- dir_0f79bd127e74778c58996c6b7ecb0f05&#45;&gt;dir_d080e052e6032887076b6b5756e5361d -->
<g id="edge7" class="edge"><title>dir_0f79bd127e74778c58996c6b7ecb0f05&#45;&gt;dir_d080e052e6032887076b6b5756e5361d</title>
<path fill="none" stroke="black" d="M47.8631,-292.41C31.8487,-283.599 13.2101,-270.146 4.03559,-252 -3.18379,-237.721 1.22884,-231.752 4.03559,-216 15.9989,-148.86 21.13,-129.98 57.0356,-72 63.423,-61.6857 72.0421,-51.661 80.3242,-43.1565"/>
<polygon fill="black" stroke="black" points="82.8041,-45.6265 87.4511,-36.1051 77.8808,-40.6504 82.8041,-45.6265"/>
<g id="a_edge7&#45;headlabel"><a xlink:href="dir_000047_000054.html" target="_top" xlink:title="2">
<text text-anchor="middle" x="82.2458" y="-47.673" font-family="Helvetica,sans-Serif" font-size="10.00">2</text>
</a>
</g>
</g>
<!-- dir_a1f42069ba95676f6b9abbd5065ccf6d -->
<g id="node4" class="node"><title>dir_a1f42069ba95676f6b9abbd5065ccf6d</title>
<g id="a_node4"><a xlink:href="dir_a1f42069ba95676f6b9abbd5065ccf6d.html" target="_top" xlink:title="Math">
<polygon fill="none" stroke="black" points="134.036,-108 80.0356,-108 80.0356,-72 134.036,-72 134.036,-108"/>
<text text-anchor="middle" x="107.036" y="-87.5" font-family="Helvetica,sans-Serif" font-size="10.00">Math</text>
</a>
</g>
</g>
<!-- dir_0f79bd127e74778c58996c6b7ecb0f05&#45;&gt;dir_a1f42069ba95676f6b9abbd5065ccf6d -->
<g id="edge8" class="edge"><title>dir_0f79bd127e74778c58996c6b7ecb0f05&#45;&gt;dir_a1f42069ba95676f6b9abbd5065ccf6d</title>
<path fill="none" stroke="black" d="M79.9561,-287.88C82.2342,-277.532 85.0396,-264.053 87.0356,-252 94.767,-205.314 100.965,-150.563 104.312,-118.441"/>
<polygon fill="black" stroke="black" points="107.797,-118.764 105.335,-108.459 100.833,-118.049 107.797,-118.764"/>
<g id="a_edge8&#45;headlabel"><a xlink:href="dir_000047_000053.html" target="_top" xlink:title="1">
<text text-anchor="middle" x="110.254" y="-120.129" font-family="Helvetica,sans-Serif" font-size="10.00">1</text>
</a>
</g>
</g>
<!-- dir_721a74ea40d2768c46a3c9514389a16b -->
<g id="node5" class="node"><title>dir_721a74ea40d2768c46a3c9514389a16b</title>
<g id="a_node5"><a xlink:href="dir_721a74ea40d2768c46a3c9514389a16b.html" target="_top" xlink:title="Animation">
<polygon fill="white" stroke="red" points="78.5356,-252 13.5356,-252 13.5356,-216 78.5356,-216 78.5356,-252"/>
<text text-anchor="middle" x="46.0356" y="-231.5" font-family="Helvetica,sans-Serif" font-size="10.00">Animation</text>
</a>
</g>
</g>
<!-- dir_0f79bd127e74778c58996c6b7ecb0f05&#45;&gt;dir_721a74ea40d2768c46a3c9514389a16b -->
<g id="edge9" class="edge"><title>dir_0f79bd127e74778c58996c6b7ecb0f05&#45;&gt;dir_721a74ea40d2768c46a3c9514389a16b</title>
<path fill="none" stroke="black" d="M68.6199,-287.697C65.2412,-279.813 61.166,-270.304 57.4126,-261.546"/>
<polygon fill="black" stroke="black" points="60.5223,-259.917 53.366,-252.104 54.0883,-262.675 60.5223,-259.917"/>
<g id="a_edge9&#45;headlabel"><a xlink:href="dir_000047_000028.html" target="_top" xlink:title="1">
<text text-anchor="middle" x="64.5479" y="-259.603" font-family="Helvetica,sans-Serif" font-size="10.00">1</text>
</a>
</g>
</g>
<!-- dir_1456dd235032e023892318efbecb420b&#45;&gt;dir_a1f42069ba95676f6b9abbd5065ccf6d -->
<g id="edge1" class="edge"><title>dir_1456dd235032e023892318efbecb420b&#45;&gt;dir_a1f42069ba95676f6b9abbd5065ccf6d</title>
<path fill="none" stroke="black" d="M147.794,-143.697C139.579,-135.389 130.426,-125.277 122.797,-116.141"/>
<polygon fill="black" stroke="black" points="125.303,-113.674 116.29,-108.104 119.863,-118.079 125.303,-113.674"/>
<g id="a_edge1&#45;headlabel"><a xlink:href="dir_000033_000053.html" target="_top" xlink:title="1">
<text text-anchor="middle" x="129.772" y="-112.181" font-family="Helvetica,sans-Serif" font-size="10.00">1</text>
</a>
</g>
</g>
<!-- dir_d080e052e6032887076b6b5756e5361d&#45;&gt;dir_1456dd235032e023892318efbecb420b -->
<g id="edge2" class="edge"><title>dir_d080e052e6032887076b6b5756e5361d&#45;&gt;dir_1456dd235032e023892318efbecb420b</title>
<path fill="none" stroke="black" d="M120.835,-36.3132C128.246,-46.285 137.06,-59.3222 143.036,-72 152.387,-91.8404 159.149,-115.774 163.43,-133.823"/>
<polygon fill="black" stroke="black" points="160.043,-134.713 165.664,-143.694 166.87,-133.168 160.043,-134.713"/>
<g id="a_edge2&#45;headlabel"><a xlink:href="dir_000054_000033.html" target="_top" xlink:title="2">
<text text-anchor="middle" x="156.48" y="-129.334" font-family="Helvetica,sans-Serif" font-size="10.00">2</text>
</a>
</g>
</g>
<!-- dir_d080e052e6032887076b6b5756e5361d&#45;&gt;dir_a1f42069ba95676f6b9abbd5065ccf6d -->
<g id="edge3" class="edge"><title>dir_d080e052e6032887076b6b5756e5361d&#45;&gt;dir_a1f42069ba95676f6b9abbd5065ccf6d</title>
<path fill="none" stroke="black" d="M112.931,-36.1043C113.736,-43.7913 113.972,-53.0537 113.64,-61.6651"/>
<polygon fill="black" stroke="black" points="110.144,-61.4805 112.951,-71.6966 117.128,-61.9597 110.144,-61.4805"/>
<g id="a_edge3&#45;headlabel"><a xlink:href="dir_000054_000053.html" target="_top" xlink:title="7">
<text text-anchor="middle" x="107.557" y="-55.2" font-family="Helvetica,sans-Serif" font-size="10.00">7</text>
</a>
</g>
</g>
<!-- dir_a1f42069ba95676f6b9abbd5065ccf6d&#45;&gt;dir_1456dd235032e023892318efbecb420b -->
<g id="edge4" class="edge"><title>dir_a1f42069ba95676f6b9abbd5065ccf6d&#45;&gt;dir_1456dd235032e023892318efbecb420b</title>
<path fill="none" stroke="black" d="M128.08,-108.104C136.363,-116.467 145.625,-126.694 153.325,-135.92"/>
<polygon fill="black" stroke="black" points="150.611,-138.13 159.625,-143.697 156.05,-133.723 150.611,-138.13"/>
<g id="a_edge4&#45;headlabel"><a xlink:href="dir_000053_000033.html" target="_top" xlink:title="3">
<text text-anchor="middle" x="146.142" y="-134.624" font-family="Helvetica,sans-Serif" font-size="10.00">3</text>
</a>
</g>
</g>
<!-- dir_a1f42069ba95676f6b9abbd5065ccf6d&#45;&gt;dir_d080e052e6032887076b6b5756e5361d -->
<g id="edge5" class="edge"><title>dir_a1f42069ba95676f6b9abbd5065ccf6d&#45;&gt;dir_d080e052e6032887076b6b5756e5361d</title>
<path fill="none" stroke="black" d="M101.12,-71.6966C100.324,-63.9827 100.098,-54.7125 100.44,-46.1124"/>
<polygon fill="black" stroke="black" points="103.934,-46.3243 101.141,-36.1043 96.951,-45.8356 103.934,-46.3243"/>
<g id="a_edge5&#45;headlabel"><a xlink:href="dir_000053_000054.html" target="_top" xlink:title="1">
<text text-anchor="middle" x="106.515" y="-47.6083" font-family="Helvetica,sans-Serif" font-size="10.00">1</text>
</a>
</g>
</g>
<!-- dir_721a74ea40d2768c46a3c9514389a16b&#45;&gt;dir_1456dd235032e023892318efbecb420b -->
<g id="edge10" class="edge"><title>dir_721a74ea40d2768c46a3c9514389a16b&#45;&gt;dir_1456dd235032e023892318efbecb420b</title>
<path fill="none" stroke="black" d="M76.1248,-215.876C92.3559,-206.639 112.577,-195.131 130.007,-185.212"/>
<polygon fill="black" stroke="black" points="131.871,-188.178 138.831,-180.19 128.408,-182.094 131.871,-188.178"/>
<g id="a_edge10&#45;headlabel"><a xlink:href="dir_000028_000033.html" target="_top" xlink:title="7">
<text text-anchor="middle" x="130.151" y="-189.923" font-family="Helvetica,sans-Serif" font-size="10.00">7</text>
</a>
</g>
</g>
<!-- dir_721a74ea40d2768c46a3c9514389a16b&#45;&gt;dir_d080e052e6032887076b6b5756e5361d -->
<g id="edge11" class="edge"><title>dir_721a74ea40d2768c46a3c9514389a16b&#45;&gt;dir_d080e052e6032887076b6b5756e5361d</title>
<path fill="none" stroke="black" d="M46.2491,-215.909C47.1502,-185.79 51.4366,-121.739 71.0356,-72 74.849,-62.3222 80.6802,-52.6425 86.5462,-44.2538"/>
<polygon fill="black" stroke="black" points="89.4861,-46.1638 92.5887,-36.0333 83.8459,-42.0179 89.4861,-46.1638"/>
<g id="a_edge11&#45;headlabel"><a xlink:href="dir_000028_000054.html" target="_top" xlink:title="5">
<text text-anchor="middle" x="89.6449" y="-48.2417" font-family="Helvetica,sans-Serif" font-size="10.00">5</text>
</a>
</g>
</g>
<!-- dir_721a74ea40d2768c46a3c9514389a16b&#45;&gt;dir_a1f42069ba95676f6b9abbd5065ccf6d -->
<g id="edge12" class="edge"><title>dir_721a74ea40d2768c46a3c9514389a16b&#45;&gt;dir_a1f42069ba95676f6b9abbd5065ccf6d</title>
<path fill="none" stroke="black" d="M53.3936,-215.871C63.8815,-191.457 83.2259,-146.426 95.5937,-117.635"/>
<polygon fill="black" stroke="black" points="98.9202,-118.759 99.6515,-108.189 92.4886,-115.996 98.9202,-118.759"/>
<g id="a_edge12&#45;headlabel"><a xlink:href="dir_000028_000053.html" target="_top" xlink:title="7">
<text text-anchor="middle" x="100.11" y="-120.682" font-family="Helvetica,sans-Serif" font-size="10.00">7</text>
</a>
</g>
</g>
</g>
</svg>
