<?xml version="1.0" encoding="UTF-8" standalone="no"?>
<!DOCTYPE svg PUBLIC "-//W3C//DTD SVG 1.1//EN"
 "http://www.w3.org/Graphics/SVG/1.1/DTD/svg11.dtd">
<!-- Generated by graphviz version 2.38.0 (20140413.2041)
 -->
<!-- Title: /home/travis/build/STORM&#45;IRIT/Radium&#45;Engine/src/Engine/Renderer/Renderers Pages: 1 -->
<svg width="562pt" height="583pt"
 viewBox="0.00 0.00 562.00 583.00" xmlns="http://www.w3.org/2000/svg" xmlns:xlink="http://www.w3.org/1999/xlink">
<g id="graph0" class="graph" transform="scale(1 1) rotate(0) translate(4 579)">
<title>/home/travis/build/STORM&#45;IRIT/Radium&#45;Engine/src/Engine/Renderer/Renderers</title>
<polygon fill="white" stroke="none" points="-4,4 -4,-579 558,-579 558,4 -4,4"/>
<g id="clust1" class="cluster"><title>clusterdir_54018506bb725509c19b38b6d9bcf0f6</title>
<g id="a_clust1"><a xlink:href="dir_54018506bb725509c19b38b6d9bcf0f6.html" target="_top" xlink:title="Renderer">
<polygon fill="#ddddee" stroke="black" points="228,-496 228,-567 310,-567 310,-496 228,-496"/>
<text text-anchor="middle" x="269" y="-555" font-family="Helvetica,sans-Serif" font-size="10.00">Renderer</text>
</a>
</g>
</g>
<!-- dir_ac53bbf7aa3921b9bb37792f08d5cbd9 -->
<g id="node1" class="node"><title>dir_ac53bbf7aa3921b9bb37792f08d5cbd9</title>
<g id="a_node1"><a xlink:href="dir_ac53bbf7aa3921b9bb37792f08d5cbd9.html" target="_top" xlink:title="Renderers">
<polygon fill="#eeeeff" stroke="black" points="301.5,-540 236.5,-540 236.5,-504 301.5,-504 301.5,-540"/>
<text text-anchor="middle" x="269" y="-519.5" font-family="Helvetica,sans-Serif" font-size="10.00">Renderers</text>
</a>
</g>
</g>
<!-- dir_b3c92c43cc8feb1052f624d79df8b6af -->
<g id="node2" class="node"><title>dir_b3c92c43cc8feb1052f624d79df8b6af</title>
<g id="a_node2"><a xlink:href="dir_b3c92c43cc8feb1052f624d79df8b6af.html" target="_top" xlink:title="Light">
<polygon fill="none" stroke="black" points="435,-468 381,-468 381,-432 435,-432 435,-468"/>
<text text-anchor="middle" x="408" y="-447.5" font-family="Helvetica,sans-Serif" font-size="10.00">Light</text>
</a>
</g>
</g>
<!-- dir_ac53bbf7aa3921b9bb37792f08d5cbd9&#45;&gt;dir_b3c92c43cc8feb1052f624d79df8b6af -->
<g id="edge11" class="edge"><title>dir_ac53bbf7aa3921b9bb37792f08d5cbd9&#45;&gt;dir_b3c92c43cc8feb1052f624d79df8b6af</title>
<path fill="none" stroke="black" d="M301.589,-504.588C322.653,-493.98 350.089,-480.164 371.826,-469.217"/>
<polygon fill="black" stroke="black" points="373.401,-472.343 380.758,-464.719 370.253,-466.091 373.401,-472.343"/>
<g id="a_edge11&#45;headlabel"><a xlink:href="dir_000080_000076.html" target="_top" xlink:title="2">
<text text-anchor="middle" x="371.468" y="-473.995" font-family="Helvetica,sans-Serif" font-size="10.00">2</text>
</a>
</g>
</g>
<!-- dir_652267079d823ee01f6c6cf98db9085b -->
<g id="node3" class="node"><title>dir_652267079d823ee01f6c6cf98db9085b</title>
<g id="a_node3"><a xlink:href="dir_652267079d823ee01f6c6cf98db9085b.html" target="_top" xlink:title="RenderObject">
<polygon fill="white" stroke="red" points="374,-324 294,-324 294,-288 374,-288 374,-324"/>
<text text-anchor="middle" x="334" y="-303.5" font-family="Helvetica,sans-Serif" font-size="10.00">RenderObject</text>
</a>
</g>
</g>
<!-- dir_ac53bbf7aa3921b9bb37792f08d5cbd9&#45;&gt;dir_652267079d823ee01f6c6cf98db9085b -->
<g id="edge12" class="edge"><title>dir_ac53bbf7aa3921b9bb37792f08d5cbd9&#45;&gt;dir_652267079d823ee01f6c6cf98db9085b</title>
<path fill="none" stroke="black" d="M274.209,-503.849C285.501,-466.675 312.301,-378.439 325.854,-333.82"/>
<polygon fill="black" stroke="black" points="329.208,-334.818 328.766,-324.232 322.511,-332.784 329.208,-334.818"/>
<g id="a_edge12&#45;headlabel"><a xlink:href="dir_000080_000081.html" target="_top" xlink:title="2">
<text text-anchor="middle" x="330.881" y="-336.583" font-family="Helvetica,sans-Serif" font-size="10.00">2</text>
</a>
</g>
</g>
<!-- dir_8efb2e226a329d96dc3bcfc9eaf1a998 -->
<g id="node4" class="node"><title>dir_8efb2e226a329d96dc3bcfc9eaf1a998</title>
<g id="a_node4"><a xlink:href="dir_8efb2e226a329d96dc3bcfc9eaf1a998.html" target="_top" xlink:title="Texture">
<polygon fill="none" stroke="black" points="211,-108 157,-108 157,-72 211,-72 211,-108"/>
<text text-anchor="middle" x="184" y="-87.5" font-family="Helvetica,sans-Serif" font-size="10.00">Texture</text>
</a>
</g>
</g>
<!-- dir_ac53bbf7aa3921b9bb37792f08d5cbd9&#45;&gt;dir_8efb2e226a329d96dc3bcfc9eaf1a998 -->
<g id="edge13" class="edge"><title>dir_ac53bbf7aa3921b9bb37792f08d5cbd9&#45;&gt;dir_8efb2e226a329d96dc3bcfc9eaf1a998</title>
<path fill="none" stroke="black" d="M236.393,-516.376C172.718,-505.313 38,-471.033 38,-379 38,-379 38,-379 38,-233 38,-171.893 104.536,-128.577 147.775,-106.879"/>
<polygon fill="black" stroke="black" points="149.417,-109.972 156.881,-102.453 146.357,-103.676 149.417,-109.972"/>
<g id="a_edge13&#45;headlabel"><a xlink:href="dir_000080_000084.html" target="_top" xlink:title="1">
<text text-anchor="middle" x="147.425" y="-111.597" font-family="Helvetica,sans-Serif" font-size="10.00">1</text>
</a>
</g>
</g>
<!-- dir_a2f0e5642e47e7ed59fe0f0829eafb5f -->
<g id="node5" class="node"><title>dir_a2f0e5642e47e7ed59fe0f0829eafb5f</title>
<g id="a_node5"><a xlink:href="dir_a2f0e5642e47e7ed59fe0f0829eafb5f.html" target="_top" xlink:title="Core">
<polygon fill="white" stroke="red" points="296,-396 242,-396 242,-360 296,-360 296,-396"/>
<text text-anchor="middle" x="269" y="-375.5" font-family="Helvetica,sans-Serif" font-size="10.00">Core</text>
</a>
</g>
</g>
<!-- dir_ac53bbf7aa3921b9bb37792f08d5cbd9&#45;&gt;dir_a2f0e5642e47e7ed59fe0f0829eafb5f -->
<g id="edge14" class="edge"><title>dir_ac53bbf7aa3921b9bb37792f08d5cbd9&#45;&gt;dir_a2f0e5642e47e7ed59fe0f0829eafb5f</title>
<path fill="none" stroke="black" d="M269,-503.871C269,-479.67 269,-435.211 269,-406.393"/>
<polygon fill="black" stroke="black" points="272.5,-406.189 269,-396.189 265.5,-406.189 272.5,-406.189"/>
<g id="a_edge14&#45;headlabel"><a xlink:href="dir_000080_000020.html" target="_top" xlink:title="7">
<text text-anchor="middle" x="275.339" y="-407.284" font-family="Helvetica,sans-Serif" font-size="10.00">7</text>
</a>
</g>
</g>
<!-- dir_745a441f70a5ddf403f2f793490dcc6d -->
<g id="node6" class="node"><title>dir_745a441f70a5ddf403f2f793490dcc6d</title>
<g id="a_node6"><a xlink:href="dir_745a441f70a5ddf403f2f793490dcc6d.html" target="_top" xlink:title="OpenGL">
<polygon fill="none" stroke="black" points="183.5,-36 128.5,-36 128.5,-0 183.5,-0 183.5,-36"/>
<text text-anchor="middle" x="156" y="-15.5" font-family="Helvetica,sans-Serif" font-size="10.00">OpenGL</text>
</a>
</g>
</g>
<!-- dir_ac53bbf7aa3921b9bb37792f08d5cbd9&#45;&gt;dir_745a441f70a5ddf403f2f793490dcc6d -->
<g id="edge15" class="edge"><title>dir_ac53bbf7aa3921b9bb37792f08d5cbd9&#45;&gt;dir_745a441f70a5ddf403f2f793490dcc6d</title>
<path fill="none" stroke="black" d="M236.263,-520.501C191.088,-518.255 108.994,-508.398 54,-468 16.7123,-440.609 0,-425.267 0,-379 0,-379 0,-379 0,-161 0,-96.8913 72.9396,-54.062 119.069,-33.3858"/>
<polygon fill="black" stroke="black" points="120.687,-36.4992 128.469,-29.3102 117.902,-30.0767 120.687,-36.4992"/>
<g id="a_edge15&#45;headlabel"><a xlink:href="dir_000080_000079.html" target="_top" xlink:title="2">
<text text-anchor="middle" x="118.518" y="-38.0339" font-family="Helvetica,sans-Serif" font-size="10.00">2</text>
</a>
</g>
</g>
<!-- dir_f6a0a87962fcbf90fc709c1bf5ba5a00 -->
<g id="node7" class="node"><title>dir_f6a0a87962fcbf90fc709c1bf5ba5a00</title>
<g id="a_node7"><a xlink:href="dir_f6a0a87962fcbf90fc709c1bf5ba5a00.html" target="_top" xlink:title="Mesh">
<polygon fill="none" stroke="black" points="156,-252 102,-252 102,-216 156,-216 156,-252"/>
<text text-anchor="middle" x="129" y="-231.5" font-family="Helvetica,sans-Serif" font-size="10.00">Mesh</text>
</a>
</g>
</g>
<!-- dir_ac53bbf7aa3921b9bb37792f08d5cbd9&#45;&gt;dir_f6a0a87962fcbf90fc709c1bf5ba5a00 -->
<g id="edge16" class="edge"><title>dir_ac53bbf7aa3921b9bb37792f08d5cbd9&#45;&gt;dir_f6a0a87962fcbf90fc709c1bf5ba5a00</title>
<path fill="none" stroke="black" d="M257.844,-503.611C251.458,-493.398 243.458,-480.148 237,-468 198.168,-394.953 158.891,-305.393 140.214,-261.631"/>
<polygon fill="black" stroke="black" points="143.367,-260.102 136.234,-252.267 136.925,-262.84 143.367,-260.102"/>
<g id="a_edge16&#45;headlabel"><a xlink:href="dir_000080_000078.html" target="_top" xlink:title="2">
<text text-anchor="middle" x="147.386" y="-259.799" font-family="Helvetica,sans-Serif" font-size="10.00">2</text>
</a>
</g>
</g>
<!-- dir_6bc97c5ccce2964f7b25f8377ac95818 -->
<g id="node8" class="node"><title>dir_6bc97c5ccce2964f7b25f8377ac95818</title>
<g id="a_node8"><a xlink:href="dir_6bc97c5ccce2964f7b25f8377ac95818.html" target="_top" xlink:title="RenderTechnique">
<polygon fill="none" stroke="black" points="347.5,-180 250.5,-180 250.5,-144 347.5,-144 347.5,-180"/>
<text text-anchor="middle" x="299" y="-159.5" font-family="Helvetica,sans-Serif" font-size="10.00">RenderTechnique</text>
</a>
</g>
</g>
<!-- dir_ac53bbf7aa3921b9bb37792f08d5cbd9&#45;&gt;dir_6bc97c5ccce2964f7b25f8377ac95818 -->
<g id="edge17" class="edge"><title>dir_ac53bbf7aa3921b9bb37792f08d5cbd9&#45;&gt;dir_6bc97c5ccce2964f7b25f8377ac95818</title>
<path fill="none" stroke="black" d="M301.693,-519.617C376.553,-514.521 554,-490.667 554,-379 554,-379 554,-379 554,-305 554,-215.71 433.182,-182.062 357.871,-169.762"/>
<polygon fill="black" stroke="black" points="357.982,-166.238 347.564,-168.165 356.91,-173.155 357.982,-166.238"/>
<g id="a_edge17&#45;headlabel"><a xlink:href="dir_000080_000083.html" target="_top" xlink:title="4">
<text text-anchor="middle" x="361.969" y="-161.482" font-family="Helvetica,sans-Serif" font-size="10.00">4</text>
</a>
</g>
</g>
<!-- dir_06113b60808b1bbb52a01dfd2c3a8657 -->
<g id="node9" class="node"><title>dir_06113b60808b1bbb52a01dfd2c3a8657</title>
<g id="a_node9"><a xlink:href="dir_06113b60808b1bbb52a01dfd2c3a8657.html" target="_top" xlink:title="Managers">
<polygon fill="white" stroke="red" points="434,-252 370,-252 370,-216 434,-216 434,-252"/>
<text text-anchor="middle" x="402" y="-231.5" font-family="Helvetica,sans-Serif" font-size="10.00">Managers</text>
</a>
</g>
</g>
<!-- dir_ac53bbf7aa3921b9bb37792f08d5cbd9&#45;&gt;dir_06113b60808b1bbb52a01dfd2c3a8657 -->
<g id="edge18" class="edge"><title>dir_ac53bbf7aa3921b9bb37792f08d5cbd9&#45;&gt;dir_06113b60808b1bbb52a01dfd2c3a8657</title>
<path fill="none" stroke="black" d="M301.584,-521.816C342.465,-520.852 411.181,-512.231 444,-468 490.515,-405.311 444.9,-307.402 418.25,-261.031"/>
<polygon fill="black" stroke="black" points="421.143,-259.045 413.048,-252.209 415.113,-262.601 421.143,-259.045"/>
<g id="a_edge18&#45;headlabel"><a xlink:href="dir_000080_000067.html" target="_top" xlink:title="2">
<text text-anchor="middle" x="425.414" y="-258.2" font-family="Helvetica,sans-Serif" font-size="10.00">2</text>
</a>
</g>
</g>
<!-- dir_909774b1a000bf73b2cf501716b773f3 -->
<g id="node10" class="node"><title>dir_909774b1a000bf73b2cf501716b773f3</title>
<g id="a_node10"><a xlink:href="dir_909774b1a000bf73b2cf501716b773f3.html" target="_top" xlink:title="Material">
<polygon fill="none" stroke="black" points="267.5,-252 212.5,-252 212.5,-216 267.5,-216 267.5,-252"/>
<text text-anchor="middle" x="240" y="-231.5" font-family="Helvetica,sans-Serif" font-size="10.00">Material</text>
</a>
</g>
</g>
<!-- dir_ac53bbf7aa3921b9bb37792f08d5cbd9&#45;&gt;dir_909774b1a000bf73b2cf501716b773f3 -->
<g id="edge19" class="edge"><title>dir_ac53bbf7aa3921b9bb37792f08d5cbd9&#45;&gt;dir_909774b1a000bf73b2cf501716b773f3</title>
<path fill="none" stroke="black" d="M262.427,-503.943C253.657,-480.184 238.586,-435.58 233,-396 226.396,-349.207 231.554,-294.074 235.828,-261.977"/>
<polygon fill="black" stroke="black" points="239.301,-262.409 237.225,-252.02 232.369,-261.436 239.301,-262.409"/>
<g id="a_edge19&#45;headlabel"><a xlink:href="dir_000080_000077.html" target="_top" xlink:title="1">
<text text-anchor="middle" x="241.613" y="-263.863" font-family="Helvetica,sans-Serif" font-size="10.00">1</text>
</a>
</g>
</g>
<!-- dir_b3c92c43cc8feb1052f624d79df8b6af&#45;&gt;dir_a2f0e5642e47e7ed59fe0f0829eafb5f -->
<g id="edge1" class="edge"><title>dir_b3c92c43cc8feb1052f624d79df8b6af&#45;&gt;dir_a2f0e5642e47e7ed59fe0f0829eafb5f</title>
<path fill="none" stroke="black" d="M380.869,-435.337C359.247,-424.448 328.778,-409.104 305.097,-397.178"/>
<polygon fill="black" stroke="black" points="306.568,-394 296.062,-392.628 303.419,-400.252 306.568,-394"/>
<g id="a_edge1&#45;headlabel"><a xlink:href="dir_000076_000020.html" target="_top" xlink:title="1">
<text text-anchor="middle" x="311.055" y="-390.581" font-family="Helvetica,sans-Serif" font-size="10.00">1</text>
</a>
</g>
</g>
<!-- dir_b3c92c43cc8feb1052f624d79df8b6af&#45;&gt;dir_6bc97c5ccce2964f7b25f8377ac95818 -->
<g id="edge2" class="edge"><title>dir_b3c92c43cc8feb1052f624d79df8b6af&#45;&gt;dir_6bc97c5ccce2964f7b25f8377ac95818</title>
<path fill="none" stroke="black" d="M417.988,-431.932C440.662,-390.71 490.506,-284.106 443,-216 423.83,-188.518 388.735,-175.247 357.992,-168.856"/>
<polygon fill="black" stroke="black" points="358.235,-165.341 347.762,-166.943 356.948,-172.222 358.235,-165.341"/>
<g id="a_edge2&#45;headlabel"><a xlink:href="dir_000076_000083.html" target="_top" xlink:title="4">
<text text-anchor="middle" x="362.291" y="-160.711" font-family="Helvetica,sans-Serif" font-size="10.00">4</text>
</a>
</g>
</g>
<!-- dir_652267079d823ee01f6c6cf98db9085b&#45;&gt;dir_a2f0e5642e47e7ed59fe0f0829eafb5f -->
<g id="edge3" class="edge"><title>dir_652267079d823ee01f6c6cf98db9085b&#45;&gt;dir_a2f0e5642e47e7ed59fe0f0829eafb5f</title>
<path fill="none" stroke="black" d="M324.012,-324.104C316.984,-332.636 307.453,-343.108 298.245,-352.478"/>
<polygon fill="black" stroke="black" points="295.607,-350.164 290.983,-359.697 300.543,-355.128 295.607,-350.164"/>
<g id="a_edge3&#45;headlabel"><a xlink:href="dir_000081_000020.html" target="_top" xlink:title="14">
<text text-anchor="middle" x="296.155" y="-343.116" font-family="Helvetica,sans-Serif" font-size="10.00">14</text>
</a>
</g>
</g>
<!-- dir_652267079d823ee01f6c6cf98db9085b&#45;&gt;dir_f6a0a87962fcbf90fc709c1bf5ba5a00 -->
<g id="edge4" class="edge"><title>dir_652267079d823ee01f6c6cf98db9085b&#45;&gt;dir_f6a0a87962fcbf90fc709c1bf5ba5a00</title>
<path fill="none" stroke="black" d="M293.987,-291.337C256.816,-278.645 201.916,-259.898 165.809,-247.569"/>
<polygon fill="black" stroke="black" points="166.748,-244.191 156.154,-244.272 164.486,-250.816 166.748,-244.191"/>
<g id="a_edge4&#45;headlabel"><a xlink:href="dir_000081_000078.html" target="_top" xlink:title="3">
<text text-anchor="middle" x="171.068" y="-240.166" font-family="Helvetica,sans-Serif" font-size="10.00">3</text>
</a>
</g>
</g>
<!-- dir_652267079d823ee01f6c6cf98db9085b&#45;&gt;dir_6bc97c5ccce2964f7b25f8377ac95818 -->
<g id="edge5" class="edge"><title>dir_652267079d823ee01f6c6cf98db9085b&#45;&gt;dir_6bc97c5ccce2964f7b25f8377ac95818</title>
<path fill="none" stroke="black" d="M329.778,-287.871C323.787,-263.564 312.758,-218.819 305.658,-190.013"/>
<polygon fill="black" stroke="black" points="309.028,-189.061 303.237,-180.189 302.232,-190.736 309.028,-189.061"/>
<g id="a_edge5&#45;headlabel"><a xlink:href="dir_000081_000083.html" target="_top" xlink:title="4">
<text text-anchor="middle" x="312.645" y="-189.372" font-family="Helvetica,sans-Serif" font-size="10.00">4</text>
</a>
</g>
</g>
<!-- dir_652267079d823ee01f6c6cf98db9085b&#45;&gt;dir_06113b60808b1bbb52a01dfd2c3a8657 -->
<g id="edge6" class="edge"><title>dir_652267079d823ee01f6c6cf98db9085b&#45;&gt;dir_06113b60808b1bbb52a01dfd2c3a8657</title>
<path fill="none" stroke="black" d="M344.893,-287.697C352.401,-279.05 362.523,-268.449 372.213,-259.027"/>
<polygon fill="black" stroke="black" points="374.657,-261.533 379.489,-252.104 369.832,-256.462 374.657,-261.533"/>
<g id="a_edge6&#45;headlabel"><a xlink:href="dir_000081_000067.html" target="_top" xlink:title="2">
<text text-anchor="middle" x="374.01" y="-263.568" font-family="Helvetica,sans-Serif" font-size="10.00">2</text>
</a>
</g>
</g>
<!-- dir_652267079d823ee01f6c6cf98db9085b&#45;&gt;dir_909774b1a000bf73b2cf501716b773f3 -->
<g id="edge7" class="edge"><title>dir_652267079d823ee01f6c6cf98db9085b&#45;&gt;dir_909774b1a000bf73b2cf501716b773f3</title>
<path fill="none" stroke="black" d="M310.764,-287.697C298.812,-278.796 284.077,-267.823 271.153,-258.199"/>
<polygon fill="black" stroke="black" points="273.08,-255.27 262.969,-252.104 268.899,-260.884 273.08,-255.27"/>
<g id="a_edge7&#45;headlabel"><a xlink:href="dir_000081_000077.html" target="_top" xlink:title="2">
<text text-anchor="middle" x="277.658" y="-252.64" font-family="Helvetica,sans-Serif" font-size="10.00">2</text>
</a>
</g>
</g>
<!-- dir_8efb2e226a329d96dc3bcfc9eaf1a998&#45;&gt;dir_a2f0e5642e47e7ed59fe0f0829eafb5f -->
<g id="edge8" class="edge"><title>dir_8efb2e226a329d96dc3bcfc9eaf1a998&#45;&gt;dir_a2f0e5642e47e7ed59fe0f0829eafb5f</title>
<path fill="none" stroke="black" d="M183.982,-108.35C184.402,-138.331 187.281,-201.476 203,-252 214.313,-288.362 236.161,-326.57 251.616,-351.026"/>
<polygon fill="black" stroke="black" points="248.837,-353.176 257.191,-359.693 254.725,-349.389 248.837,-353.176"/>
<g id="a_edge8&#45;headlabel"><a xlink:href="dir_000084_000020.html" target="_top" xlink:title="3">
<text text-anchor="middle" x="244.505" y="-349.189" font-family="Helvetica,sans-Serif" font-size="10.00">3</text>
</a>
</g>
</g>
<!-- dir_8efb2e226a329d96dc3bcfc9eaf1a998&#45;&gt;dir_745a441f70a5ddf403f2f793490dcc6d -->
<g id="edge9" class="edge"><title>dir_8efb2e226a329d96dc3bcfc9eaf1a998&#45;&gt;dir_745a441f70a5ddf403f2f793490dcc6d</title>
<path fill="none" stroke="black" d="M177.079,-71.6966C173.925,-63.8132 170.122,-54.3042 166.619,-45.5464"/>
<polygon fill="black" stroke="black" points="169.805,-44.0892 162.842,-36.1043 163.306,-46.689 169.805,-44.0892"/>
<g id="a_edge9&#45;headlabel"><a xlink:href="dir_000084_000079.html" target="_top" xlink:title="2">
<text text-anchor="middle" x="173.777" y="-43.8723" font-family="Helvetica,sans-Serif" font-size="10.00">2</text>
</a>
</g>
</g>
<!-- dir_a2f0e5642e47e7ed59fe0f0829eafb5f&#45;&gt;dir_652267079d823ee01f6c6cf98db9085b -->
<g id="edge10" class="edge"><title>dir_a2f0e5642e47e7ed59fe0f0829eafb5f&#45;&gt;dir_652267079d823ee01f6c6cf98db9085b</title>
<path fill="none" stroke="black" d="M279.152,-359.697C286.219,-351.135 295.767,-340.656 304.97,-331.304"/>
<polygon fill="black" stroke="black" points="307.592,-333.634 312.222,-324.104 302.66,-328.666 307.592,-333.634"/>
<g id="a_edge10&#45;headlabel"><a xlink:href="dir_000020_000081.html" target="_top" xlink:title="1">
<text text-anchor="middle" x="307.041" y="-335.681" font-family="Helvetica,sans-Serif" font-size="10.00">1</text>
</a>
</g>
</g>
<!-- dir_f6a0a87962fcbf90fc709c1bf5ba5a00&#45;&gt;dir_a2f0e5642e47e7ed59fe0f0829eafb5f -->
<g id="edge20" class="edge"><title>dir_f6a0a87962fcbf90fc709c1bf5ba5a00&#45;&gt;dir_a2f0e5642e47e7ed59fe0f0829eafb5f</title>
<path fill="none" stroke="black" d="M134.731,-252.19C141.884,-271.55 155.7,-303.037 176,-324 191.926,-340.446 214.059,-353.336 232.738,-362.285"/>
<polygon fill="black" stroke="black" points="231.315,-365.483 241.863,-366.482 234.24,-359.124 231.315,-365.483"/>
<g id="a_edge20&#45;headlabel"><a xlink:href="dir_000078_000020.html" target="_top" xlink:title="4">
<text text-anchor="middle" x="226.863" y="-364.061" font-family="Helvetica,sans-Serif" font-size="10.00">4</text>
</a>
</g>
</g>
<!-- dir_f6a0a87962fcbf90fc709c1bf5ba5a00&#45;&gt;dir_745a441f70a5ddf403f2f793490dcc6d -->
<g id="edge21" class="edge"><title>dir_f6a0a87962fcbf90fc709c1bf5ba5a00&#45;&gt;dir_745a441f70a5ddf403f2f793490dcc6d</title>
<path fill="none" stroke="black" d="M130.868,-215.585C134.082,-186.026 140.987,-124.163 148,-72 149.133,-63.5699 150.477,-54.403 151.737,-46.1001"/>
<polygon fill="black" stroke="black" points="155.204,-46.5816 153.265,-36.1657 148.285,-45.5172 155.204,-46.5816"/>
<g id="a_edge21&#45;headlabel"><a xlink:href="dir_000078_000079.html" target="_top" xlink:title="1">
<text text-anchor="middle" x="157.464" y="-48.0661" font-family="Helvetica,sans-Serif" font-size="10.00">1</text>
</a>
</g>
</g>
<!-- dir_6bc97c5ccce2964f7b25f8377ac95818&#45;&gt;dir_8efb2e226a329d96dc3bcfc9eaf1a998 -->
<g id="edge22" class="edge"><title>dir_6bc97c5ccce2964f7b25f8377ac95818&#45;&gt;dir_8efb2e226a329d96dc3bcfc9eaf1a998</title>
<path fill="none" stroke="black" d="M270.868,-143.876C255.495,-134.519 236.294,-122.831 219.856,-112.825"/>
<polygon fill="black" stroke="black" points="221.412,-109.675 211.05,-107.465 217.772,-115.654 221.412,-109.675"/>
<g id="a_edge22&#45;headlabel"><a xlink:href="dir_000083_000084.html" target="_top" xlink:title="1">
<text text-anchor="middle" x="225.958" y="-106.619" font-family="Helvetica,sans-Serif" font-size="10.00">1</text>
</a>
</g>
</g>
<!-- dir_6bc97c5ccce2964f7b25f8377ac95818&#45;&gt;dir_a2f0e5642e47e7ed59fe0f0829eafb5f -->
<g id="edge23" class="edge"><title>dir_6bc97c5ccce2964f7b25f8377ac95818&#45;&gt;dir_a2f0e5642e47e7ed59fe0f0829eafb5f</title>
<path fill="none" stroke="black" d="M296.584,-180.232C291.384,-217.324 279.096,-304.981 272.825,-349.712"/>
<polygon fill="black" stroke="black" points="269.327,-349.46 271.404,-359.849 276.259,-350.432 269.327,-349.46"/>
<g id="a_edge23&#45;headlabel"><a xlink:href="dir_000083_000020.html" target="_top" xlink:title="12">
<text text-anchor="middle" x="267.014" y="-343.006" font-family="Helvetica,sans-Serif" font-size="10.00">12</text>
</a>
</g>
</g>
<!-- dir_6bc97c5ccce2964f7b25f8377ac95818&#45;&gt;dir_745a441f70a5ddf403f2f793490dcc6d -->
<g id="edge24" class="edge"><title>dir_6bc97c5ccce2964f7b25f8377ac95818&#45;&gt;dir_745a441f70a5ddf403f2f793490dcc6d</title>
<path fill="none" stroke="black" d="M285.165,-143.901C269.935,-125.448 244.366,-95.5447 220,-72 209.501,-61.8547 197.301,-51.4479 186.385,-42.5718"/>
<polygon fill="black" stroke="black" points="188.328,-39.6427 178.338,-36.1123 183.946,-45.1016 188.328,-39.6427"/>
<g id="a_edge24&#45;headlabel"><a xlink:href="dir_000083_000079.html" target="_top" xlink:title="1">
<text text-anchor="middle" x="192.908" y="-37.1787" font-family="Helvetica,sans-Serif" font-size="10.00">1</text>
</a>
</g>
</g>
<!-- dir_6bc97c5ccce2964f7b25f8377ac95818&#45;&gt;dir_909774b1a000bf73b2cf501716b773f3 -->
<g id="edge25" class="edge"><title>dir_6bc97c5ccce2964f7b25f8377ac95818&#45;&gt;dir_909774b1a000bf73b2cf501716b773f3</title>
<path fill="none" stroke="black" d="M290.479,-180.104C284.244,-188.552 275.718,-198.901 267.392,-208.199"/>
<polygon fill="black" stroke="black" points="264.691,-205.966 260.5,-215.697 269.844,-210.703 264.691,-205.966"/>
<g id="a_edge25&#45;headlabel"><a xlink:href="dir_000083_000077.html" target="_top" xlink:title="1">
<text text-anchor="middle" x="265.033" y="-198.898" font-family="Helvetica,sans-Serif" font-size="10.00">1</text>
</a>
</g>
</g>
<!-- dir_06113b60808b1bbb52a01dfd2c3a8657&#45;&gt;dir_b3c92c43cc8feb1052f624d79df8b6af -->
<g id="edge26" class="edge"><title>dir_06113b60808b1bbb52a01dfd2c3a8657&#45;&gt;dir_b3c92c43cc8feb1052f624d79df8b6af</title>
<path fill="none" stroke="black" d="M403.138,-252.178C403.783,-262.547 404.55,-276.028 405,-288 406.757,-334.731 407.499,-389.133 407.802,-421.229"/>
<polygon fill="black" stroke="black" points="404.305,-421.633 407.892,-431.602 411.305,-421.572 404.305,-421.633"/>
<g id="a_edge26&#45;headlabel"><a xlink:href="dir_000067_000076.html" target="_top" xlink:title="5">
<text text-anchor="middle" x="401.435" y="-415.563" font-family="Helvetica,sans-Serif" font-size="10.00">5</text>
</a>
</g>
</g>
<!-- dir_06113b60808b1bbb52a01dfd2c3a8657&#45;&gt;dir_652267079d823ee01f6c6cf98db9085b -->
<g id="edge27" class="edge"><title>dir_06113b60808b1bbb52a01dfd2c3a8657&#45;&gt;dir_652267079d823ee01f6c6cf98db9085b</title>
<path fill="none" stroke="black" d="M391.279,-252.104C383.812,-260.72 373.707,-271.316 364.01,-280.755"/>
<polygon fill="black" stroke="black" points="361.551,-278.265 356.725,-287.697 366.379,-283.333 361.551,-278.265"/>
<g id="a_edge27&#45;headlabel"><a xlink:href="dir_000067_000081.html" target="_top" xlink:title="2">
<text text-anchor="middle" x="362.195" y="-271.229" font-family="Helvetica,sans-Serif" font-size="10.00">2</text>
</a>
</g>
</g>
<!-- dir_06113b60808b1bbb52a01dfd2c3a8657&#45;&gt;dir_a2f0e5642e47e7ed59fe0f0829eafb5f -->
<g id="edge28" class="edge"><title>dir_06113b60808b1bbb52a01dfd2c3a8657&#45;&gt;dir_a2f0e5642e47e7ed59fe0f0829eafb5f</title>
<path fill="none" stroke="black" d="M402.671,-252.31C402.521,-271.78 399.446,-303.367 383,-324 363.904,-347.957 331.476,-361.576 306.077,-368.992"/>
<polygon fill="black" stroke="black" points="305.113,-365.627 296.381,-371.627 306.949,-372.382 305.113,-365.627"/>
<g id="a_edge28&#45;headlabel"><a xlink:href="dir_000067_000020.html" target="_top" xlink:title="16">
<text text-anchor="middle" x="307.837" y="-359.444" font-family="Helvetica,sans-Serif" font-size="10.00">16</text>
</a>
</g>
</g>
<!-- dir_909774b1a000bf73b2cf501716b773f3&#45;&gt;dir_8efb2e226a329d96dc3bcfc9eaf1a998 -->
<g id="edge29" class="edge"><title>dir_909774b1a000bf73b2cf501716b773f3&#45;&gt;dir_8efb2e226a329d96dc3bcfc9eaf1a998</title>
<path fill="none" stroke="black" d="M233.245,-215.871C223.617,-191.457 205.858,-146.426 194.504,-117.635"/>
<polygon fill="black" stroke="black" points="197.704,-116.208 190.779,-108.189 191.192,-118.776 197.704,-116.208"/>
<g id="a_edge29&#45;headlabel"><a xlink:href="dir_000077_000084.html" target="_top" xlink:title="3">
<text text-anchor="middle" x="201.664" y="-116.01" font-family="Helvetica,sans-Serif" font-size="10.00">3</text>
</a>
</g>
</g>
<!-- dir_909774b1a000bf73b2cf501716b773f3&#45;&gt;dir_a2f0e5642e47e7ed59fe0f0829eafb5f -->
<g id="edge30" class="edge"><title>dir_909774b1a000bf73b2cf501716b773f3&#45;&gt;dir_a2f0e5642e47e7ed59fe0f0829eafb5f</title>
<path fill="none" stroke="black" d="M241.414,-252.221C243.107,-270.267 246.434,-299.363 252,-324 253.938,-332.577 256.646,-341.754 259.332,-350.019"/>
<polygon fill="black" stroke="black" points="256.033,-351.19 262.544,-359.549 262.667,-348.954 256.033,-351.19"/>
<g id="a_edge30&#45;headlabel"><a xlink:href="dir_000077_000020.html" target="_top" xlink:title="3">
<text text-anchor="middle" x="252.195" y="-346.191" font-family="Helvetica,sans-Serif" font-size="10.00">3</text>
</a>
</g>
</g>
<!-- dir_909774b1a000bf73b2cf501716b773f3&#45;&gt;dir_6bc97c5ccce2964f7b25f8377ac95818 -->
<g id="edge31" class="edge"><title>dir_909774b1a000bf73b2cf501716b773f3&#45;&gt;dir_6bc97c5ccce2964f7b25f8377ac95818</title>
<path fill="none" stroke="black" d="M248.669,-215.697C254.939,-207.22 263.481,-196.864 271.803,-187.583"/>
<polygon fill="black" stroke="black" points="274.49,-189.832 278.688,-180.104 269.34,-185.091 274.49,-189.832"/>
<g id="a_edge31&#45;headlabel"><a xlink:href="dir_000077_000083.html" target="_top" xlink:title="3">
<text text-anchor="middle" x="274.144" y="-191.899" font-family="Helvetica,sans-Serif" font-size="10.00">3</text>
</a>
</g>
</g>
</g>
</svg>
