<?xml version="1.0" encoding="UTF-8" standalone="no"?>
<!DOCTYPE svg PUBLIC "-//W3C//DTD SVG 1.1//EN"
 "http://www.w3.org/Graphics/SVG/1.1/DTD/svg11.dtd">
<!-- Generated by graphviz version 2.38.0 (20140413.2041)
 -->
<!-- Title: /home/travis/build/STORM&#45;IRIT/Radium&#45;Engine/src/Core/Geometry/Area Pages: 1 -->
<svg width="173pt" height="367pt"
 viewBox="0.00 0.00 173.40 367.00" xmlns="http://www.w3.org/2000/svg" xmlns:xlink="http://www.w3.org/1999/xlink">
<g id="graph0" class="graph" transform="scale(1 1) rotate(0) translate(4 363)">
<title>/home/travis/build/STORM&#45;IRIT/Radium&#45;Engine/src/Core/Geometry/Area</title>
<polygon fill="white" stroke="none" points="-4,4 -4,-363 169.398,-363 169.398,4 -4,4"/>
<g id="clust1" class="cluster"><title>clusterdir_cb2b5dfd43482fb277f6333d539f1f06</title>
<g id="a_clust1"><a xlink:href="dir_cb2b5dfd43482fb277f6333d539f1f06.html" target="_top" xlink:title="Geometry">
<polygon fill="#ddddee" stroke="black" points="33.3976,-280 33.3976,-351 103.398,-351 103.398,-280 33.3976,-280"/>
<text text-anchor="middle" x="68.3976" y="-339" font-family="Helvetica,sans-Serif" font-size="10.00">Geometry</text>
</a>
</g>
</g>
<!-- dir_521eae4de27e7d5e6411cd173cfc8251 -->
<g id="node1" class="node"><title>dir_521eae4de27e7d5e6411cd173cfc8251</title>
<g id="a_node1"><a xlink:href="dir_521eae4de27e7d5e6411cd173cfc8251.html" target="_top" xlink:title="Area">
<polygon fill="#eeeeff" stroke="black" points="95.3976,-324 41.3976,-324 41.3976,-288 95.3976,-288 95.3976,-324"/>
<text text-anchor="middle" x="68.3976" y="-303.5" font-family="Helvetica,sans-Serif" font-size="10.00">Area</text>
</a>
</g>
</g>
<!-- dir_1456dd235032e023892318efbecb420b -->
<g id="node2" class="node"><title>dir_1456dd235032e023892318efbecb420b</title>
<g id="a_node2"><a xlink:href="dir_1456dd235032e023892318efbecb420b.html" target="_top" xlink:title="Containers">
<polygon fill="none" stroke="black" points="102.398,-252 34.3976,-252 34.3976,-216 102.398,-216 102.398,-252"/>
<text text-anchor="middle" x="68.3976" y="-231.5" font-family="Helvetica,sans-Serif" font-size="10.00">Containers</text>
</a>
</g>
</g>
<!-- dir_521eae4de27e7d5e6411cd173cfc8251&#45;&gt;dir_1456dd235032e023892318efbecb420b -->
<g id="edge9" class="edge"><title>dir_521eae4de27e7d5e6411cd173cfc8251&#45;&gt;dir_1456dd235032e023892318efbecb420b</title>
<path fill="none" stroke="black" d="M68.3976,-287.697C68.3976,-279.983 68.3976,-270.712 68.3976,-262.112"/>
<polygon fill="black" stroke="black" points="71.8977,-262.104 68.3976,-252.104 64.8977,-262.104 71.8977,-262.104"/>
<g id="a_edge9&#45;headlabel"><a xlink:href="dir_000041_000033.html" target="_top" xlink:title="1">
<text text-anchor="middle" x="74.7369" y="-263.199" font-family="Helvetica,sans-Serif" font-size="10.00">1</text>
</a>
</g>
</g>
<!-- dir_d080e052e6032887076b6b5756e5361d -->
<g id="node3" class="node"><title>dir_d080e052e6032887076b6b5756e5361d</title>
<g id="a_node3"><a xlink:href="dir_d080e052e6032887076b6b5756e5361d.html" target="_top" xlink:title="Mesh">
<polygon fill="white" stroke="red" points="119.398,-108 65.3976,-108 65.3976,-72 119.398,-72 119.398,-108"/>
<text text-anchor="middle" x="92.3976" y="-87.5" font-family="Helvetica,sans-Serif" font-size="10.00">Mesh</text>
</a>
</g>
</g>
<!-- dir_521eae4de27e7d5e6411cd173cfc8251&#45;&gt;dir_d080e052e6032887076b6b5756e5361d -->
<g id="edge10" class="edge"><title>dir_521eae4de27e7d5e6411cd173cfc8251&#45;&gt;dir_d080e052e6032887076b6b5756e5361d</title>
<path fill="none" stroke="black" d="M87.4367,-287.837C96.5736,-278.3 106.566,-265.624 111.398,-252 127.441,-206.761 113.677,-150.345 102.699,-117.721"/>
<polygon fill="black" stroke="black" points="105.901,-116.276 99.2743,-108.009 99.2994,-118.604 105.901,-116.276"/>
<g id="a_edge10&#45;headlabel"><a xlink:href="dir_000041_000054.html" target="_top" xlink:title="1">
<text text-anchor="middle" x="109.774" y="-116.222" font-family="Helvetica,sans-Serif" font-size="10.00">1</text>
</a>
</g>
</g>
<!-- dir_a1f42069ba95676f6b9abbd5065ccf6d -->
<g id="node4" class="node"><title>dir_a1f42069ba95676f6b9abbd5065ccf6d</title>
<g id="a_node4"><a xlink:href="dir_a1f42069ba95676f6b9abbd5065ccf6d.html" target="_top" xlink:title="Math">
<polygon fill="none" stroke="black" points="64.3976,-180 10.3976,-180 10.3976,-144 64.3976,-144 64.3976,-180"/>
<text text-anchor="middle" x="37.3976" y="-159.5" font-family="Helvetica,sans-Serif" font-size="10.00">Math</text>
</a>
</g>
</g>
<!-- dir_521eae4de27e7d5e6411cd173cfc8251&#45;&gt;dir_a1f42069ba95676f6b9abbd5065ccf6d -->
<g id="edge11" class="edge"><title>dir_521eae4de27e7d5e6411cd173cfc8251&#45;&gt;dir_a1f42069ba95676f6b9abbd5065ccf6d</title>
<path fill="none" stroke="black" d="M49.3585,-287.837C40.2216,-278.3 30.2293,-265.624 25.3976,-252 18.2637,-231.884 22.1908,-207.832 27.3893,-189.806"/>
<polygon fill="black" stroke="black" points="30.7426,-190.81 30.4341,-180.22 24.071,-188.691 30.7426,-190.81"/>
<g id="a_edge11&#45;headlabel"><a xlink:href="dir_000041_000053.html" target="_top" xlink:title="1">
<text text-anchor="middle" x="32.3605" y="-192.596" font-family="Helvetica,sans-Serif" font-size="10.00">1</text>
</a>
</g>
</g>
<!-- dir_35ff2dd0a6e4899b08d0fedbc94a27f7 -->
<g id="node5" class="node"><title>dir_35ff2dd0a6e4899b08d0fedbc94a27f7</title>
<g id="a_node5"><a xlink:href="dir_35ff2dd0a6e4899b08d0fedbc94a27f7.html" target="_top" xlink:title="Triangle">
<polygon fill="none" stroke="black" points="64.3976,-36 10.3976,-36 10.3976,-0 64.3976,-0 64.3976,-36"/>
<text text-anchor="middle" x="37.3976" y="-15.5" font-family="Helvetica,sans-Serif" font-size="10.00">Triangle</text>
</a>
</g>
</g>
<!-- dir_521eae4de27e7d5e6411cd173cfc8251&#45;&gt;dir_35ff2dd0a6e4899b08d0fedbc94a27f7 -->
<g id="edge12" class="edge"><title>dir_521eae4de27e7d5e6411cd173cfc8251&#45;&gt;dir_35ff2dd0a6e4899b08d0fedbc94a27f7</title>
<path fill="none" stroke="black" d="M47.6566,-287.806C37.4147,-278.261 25.7161,-265.587 18.3976,-252 2.80546,-223.052 5.20091,-212.659 1.3976,-180 -4.1928,-131.995 13.2269,-77.3258 25.752,-45.6337"/>
<polygon fill="black" stroke="black" points="29.0686,-46.77 29.6113,-36.189 22.5887,-44.1221 29.0686,-46.77"/>
<g id="a_edge12&#45;headlabel"><a xlink:href="dir_000041_000050.html" target="_top" xlink:title="1">
<text text-anchor="middle" x="30.3373" y="-48.6714" font-family="Helvetica,sans-Serif" font-size="10.00">1</text>
</a>
</g>
</g>
<!-- dir_f5906172d2c9558d453eb81ef8e5bf93 -->
<g id="node6" class="node"><title>dir_f5906172d2c9558d453eb81ef8e5bf93</title>
<g id="a_node6"><a xlink:href="dir_f5906172d2c9558d453eb81ef8e5bf93.html" target="_top" xlink:title="Index">
<polygon fill="none" stroke="black" points="165.398,-36 111.398,-36 111.398,-0 165.398,-0 165.398,-36"/>
<text text-anchor="middle" x="138.398" y="-15.5" font-family="Helvetica,sans-Serif" font-size="10.00">Index</text>
</a>
</g>
</g>
<!-- dir_521eae4de27e7d5e6411cd173cfc8251&#45;&gt;dir_f5906172d2c9558d453eb81ef8e5bf93 -->
<g id="edge13" class="edge"><title>dir_521eae4de27e7d5e6411cd173cfc8251&#45;&gt;dir_f5906172d2c9558d453eb81ef8e5bf93</title>
<path fill="none" stroke="black" d="M95.5914,-288.872C108.262,-279.775 122.12,-267.181 129.398,-252 162.043,-183.904 151.89,-91.3293 143.979,-46.1088"/>
<polygon fill="black" stroke="black" points="147.403,-45.3794 142.142,-36.183 140.52,-46.6529 147.403,-45.3794"/>
<g id="a_edge13&#45;headlabel"><a xlink:href="dir_000041_000051.html" target="_top" xlink:title="1">
<text text-anchor="middle" x="150.849" y="-45.8975" font-family="Helvetica,sans-Serif" font-size="10.00">1</text>
</a>
</g>
</g>
<!-- dir_1456dd235032e023892318efbecb420b&#45;&gt;dir_a1f42069ba95676f6b9abbd5065ccf6d -->
<g id="edge1" class="edge"><title>dir_1456dd235032e023892318efbecb420b&#45;&gt;dir_a1f42069ba95676f6b9abbd5065ccf6d</title>
<path fill="none" stroke="black" d="M54.819,-215.697C50.5145,-207.813 46.0847,-198.304 42.582,-189.546"/>
<polygon fill="black" stroke="black" points="45.8384,-188.261 39.0773,-180.104 39.2759,-190.697 45.8384,-188.261"/>
<g id="a_edge1&#45;headlabel"><a xlink:href="dir_000033_000053.html" target="_top" xlink:title="1">
<text text-anchor="middle" x="49.751" y="-188.143" font-family="Helvetica,sans-Serif" font-size="10.00">1</text>
</a>
</g>
</g>
<!-- dir_d080e052e6032887076b6b5756e5361d&#45;&gt;dir_1456dd235032e023892318efbecb420b -->
<g id="edge2" class="edge"><title>dir_d080e052e6032887076b6b5756e5361d&#45;&gt;dir_1456dd235032e023892318efbecb420b</title>
<path fill="none" stroke="black" d="M89.4924,-108.189C85.3963,-132.424 77.8814,-176.888 73.0152,-205.679"/>
<polygon fill="black" stroke="black" points="69.5081,-205.428 71.2926,-215.871 76.4102,-206.595 69.5081,-205.428"/>
<g id="a_edge2&#45;headlabel"><a xlink:href="dir_000054_000033.html" target="_top" xlink:title="2">
<text text-anchor="middle" x="67.3075" y="-198.911" font-family="Helvetica,sans-Serif" font-size="10.00">2</text>
</a>
</g>
</g>
<!-- dir_d080e052e6032887076b6b5756e5361d&#45;&gt;dir_a1f42069ba95676f6b9abbd5065ccf6d -->
<g id="edge3" class="edge"><title>dir_d080e052e6032887076b6b5756e5361d&#45;&gt;dir_a1f42069ba95676f6b9abbd5065ccf6d</title>
<path fill="none" stroke="black" d="M84.8535,-108.104C79.1591,-116.467 71.326,-126.694 63.6066,-135.92"/>
<polygon fill="black" stroke="black" points="60.7826,-133.835 56.9088,-143.697 66.0867,-138.403 60.7826,-133.835"/>
<g id="a_edge3&#45;headlabel"><a xlink:href="dir_000054_000053.html" target="_top" xlink:title="7">
<text text-anchor="middle" x="60.9769" y="-126.759" font-family="Helvetica,sans-Serif" font-size="10.00">7</text>
</a>
</g>
</g>
<!-- dir_d080e052e6032887076b6b5756e5361d&#45;&gt;dir_35ff2dd0a6e4899b08d0fedbc94a27f7 -->
<g id="edge4" class="edge"><title>dir_d080e052e6032887076b6b5756e5361d&#45;&gt;dir_35ff2dd0a6e4899b08d0fedbc94a27f7</title>
<path fill="none" stroke="black" d="M78.8021,-71.6966C72.2749,-63.3893 64.3296,-53.2771 57.151,-44.1407"/>
<polygon fill="black" stroke="black" points="59.7671,-41.8051 50.8367,-36.1043 54.2628,-46.1299 59.7671,-41.8051"/>
<g id="a_edge4&#45;headlabel"><a xlink:href="dir_000054_000050.html" target="_top" xlink:title="1">
<text text-anchor="middle" x="64.2205" y="-40.3775" font-family="Helvetica,sans-Serif" font-size="10.00">1</text>
</a>
</g>
</g>
<!-- dir_d080e052e6032887076b6b5756e5361d&#45;&gt;dir_f5906172d2c9558d453eb81ef8e5bf93 -->
<g id="edge5" class="edge"><title>dir_d080e052e6032887076b6b5756e5361d&#45;&gt;dir_f5906172d2c9558d453eb81ef8e5bf93</title>
<path fill="none" stroke="black" d="M103.768,-71.6966C109.116,-63.5589 115.602,-53.689 121.508,-44.7013"/>
<polygon fill="black" stroke="black" points="124.591,-46.3835 127.158,-36.1043 118.741,-42.5393 124.591,-46.3835"/>
<g id="a_edge5&#45;headlabel"><a xlink:href="dir_000054_000051.html" target="_top" xlink:title="4">
<text text-anchor="middle" x="124.99" y="-48.4468" font-family="Helvetica,sans-Serif" font-size="10.00">4</text>
</a>
</g>
</g>
<!-- dir_a1f42069ba95676f6b9abbd5065ccf6d&#45;&gt;dir_1456dd235032e023892318efbecb420b -->
<g id="edge6" class="edge"><title>dir_a1f42069ba95676f6b9abbd5065ccf6d&#45;&gt;dir_1456dd235032e023892318efbecb420b</title>
<path fill="none" stroke="black" d="M50.8674,-180.104C55.1696,-187.96 59.6062,-197.462 63.1244,-206.232"/>
<polygon fill="black" stroke="black" points="59.8795,-207.548 66.6504,-215.697 66.4391,-205.104 59.8795,-207.548"/>
<g id="a_edge6&#45;headlabel"><a xlink:href="dir_000053_000033.html" target="_top" xlink:title="3">
<text text-anchor="middle" x="55.9641" y="-202.67" font-family="Helvetica,sans-Serif" font-size="10.00">3</text>
</a>
</g>
</g>
<!-- dir_a1f42069ba95676f6b9abbd5065ccf6d&#45;&gt;dir_d080e052e6032887076b6b5756e5361d -->
<g id="edge7" class="edge"><title>dir_a1f42069ba95676f6b9abbd5065ccf6d&#45;&gt;dir_d080e052e6032887076b6b5756e5361d</title>
<path fill="none" stroke="black" d="M45.0774,-143.697C50.8055,-135.305 58.6546,-125.07 66.372,-115.861"/>
<polygon fill="black" stroke="black" points="69.1818,-117.962 73.0634,-108.104 63.8814,-113.39 69.1818,-117.962"/>
<g id="a_edge7&#45;headlabel"><a xlink:href="dir_000053_000054.html" target="_top" xlink:title="1">
<text text-anchor="middle" x="68.9837" y="-120.039" font-family="Helvetica,sans-Serif" font-size="10.00">1</text>
</a>
</g>
</g>
<!-- dir_35ff2dd0a6e4899b08d0fedbc94a27f7&#45;&gt;dir_a1f42069ba95676f6b9abbd5065ccf6d -->
<g id="edge8" class="edge"><title>dir_35ff2dd0a6e4899b08d0fedbc94a27f7&#45;&gt;dir_a1f42069ba95676f6b9abbd5065ccf6d</title>
<path fill="none" stroke="black" d="M37.3976,-36.1893C37.3976,-60.4244 37.3976,-104.888 37.3976,-133.679"/>
<polygon fill="black" stroke="black" points="33.8977,-133.871 37.3976,-143.871 40.8977,-133.872 33.8977,-133.871"/>
<g id="a_edge8&#45;headlabel"><a xlink:href="dir_000050_000053.html" target="_top" xlink:title="1">
<text text-anchor="middle" x="31.0583" y="-127.777" font-family="Helvetica,sans-Serif" font-size="10.00">1</text>
</a>
</g>
</g>
</g>
</svg>
