<?xml version="1.0" encoding="UTF-8" standalone="no"?>
<!DOCTYPE svg PUBLIC "-//W3C//DTD SVG 1.1//EN"
 "http://www.w3.org/Graphics/SVG/1.1/DTD/svg11.dtd">
<!-- Generated by graphviz version 2.38.0 (20140413.2041)
 -->
<!-- Title: /home/travis/build/STORM&#45;IRIT/Radium&#45;Engine/src/Core/Mesh/TopologicalTriMesh Pages: 1 -->
<svg width="271pt" height="159pt"
 viewBox="0.00 0.00 271.00 159.00" xmlns="http://www.w3.org/2000/svg" xmlns:xlink="http://www.w3.org/1999/xlink">
<g id="graph0" class="graph" transform="scale(1 1) rotate(0) translate(4 155)">
<title>/home/travis/build/STORM&#45;IRIT/Radium&#45;Engine/src/Core/Mesh/TopologicalTriMesh</title>
<polygon fill="white" stroke="none" points="-4,4 -4,-155 267,-155 267,4 -4,4"/>
<g id="clust1" class="cluster"><title>clusterdir_d080e052e6032887076b6b5756e5361d</title>
<g id="a_clust1"><a xlink:href="dir_d080e052e6032887076b6b5756e5361d.html" target="_top" xlink:title="Mesh">
<polygon fill="#ddddee" stroke="black" points="8,-56 8,-143 232,-143 232,-56 8,-56"/>
<text text-anchor="middle" x="120" y="-131" font-family="Helvetica,sans-Serif" font-size="10.00">Mesh</text>
</a>
</g>
</g>
<g id="clust2" class="cluster"><title>clusterdir_ac204889f54aebb9ba7b91d6916c1389</title>
<g id="a_clust2"><a xlink:href="dir_ac204889f54aebb9ba7b91d6916c1389.html" target="_top">
<polygon fill="#eeeeff" stroke="black" points="16,-64 16,-116 224,-116 224,-64 16,-64"/>
</a>
</g>
</g>
<!-- dir_ac204889f54aebb9ba7b91d6916c1389 -->
<g id="node1" class="node"><title>dir_ac204889f54aebb9ba7b91d6916c1389</title>
<text text-anchor="middle" x="76" y="-87.5" font-family="Helvetica,sans-Serif" font-size="10.00">TopologicalTriMesh</text>
</g>
<!-- dir_a1f42069ba95676f6b9abbd5065ccf6d -->
<g id="node3" class="node"><title>dir_a1f42069ba95676f6b9abbd5065ccf6d</title>
<g id="a_node3"><a xlink:href="dir_a1f42069ba95676f6b9abbd5065ccf6d.html" target="_top" xlink:title="Math">
<polygon fill="none" stroke="black" points="103,-36 49,-36 49,-0 103,-0 103,-36"/>
<text text-anchor="middle" x="76" y="-15.5" font-family="Helvetica,sans-Serif" font-size="10.00">Math</text>
</a>
</g>
</g>
<!-- dir_ac204889f54aebb9ba7b91d6916c1389&#45;&gt;dir_a1f42069ba95676f6b9abbd5065ccf6d -->
<g id="edge1" class="edge"><title>dir_ac204889f54aebb9ba7b91d6916c1389&#45;&gt;dir_a1f42069ba95676f6b9abbd5065ccf6d</title>
<path fill="none" stroke="black" d="M76,-71.6966C76,-63.9827 76,-54.7125 76,-46.1124"/>
<polygon fill="black" stroke="black" points="79.5001,-46.1043 76,-36.1043 72.5001,-46.1044 79.5001,-46.1043"/>
<g id="a_edge1&#45;headlabel"><a xlink:href="dir_000055_000053.html" target="_top" xlink:title="2">
<text text-anchor="middle" x="82.3393" y="-47.199" font-family="Helvetica,sans-Serif" font-size="10.00">2</text>
</a>
</g>
</g>
<!-- dir_a750d1a7b0706cce5919e35b4344eedd -->
<g id="node2" class="node"><title>dir_a750d1a7b0706cce5919e35b4344eedd</title>
<g id="a_node2"><a xlink:href="dir_a750d1a7b0706cce5919e35b4344eedd.html" target="_top" xlink:title="Operations">
<polygon fill="white" stroke="black" points="215.5,-108 146.5,-108 146.5,-72 215.5,-72 215.5,-108"/>
<text text-anchor="middle" x="181" y="-87.5" font-family="Helvetica,sans-Serif" font-size="10.00">Operations</text>
</a>
</g>
</g>
<!-- dir_1efe152df2f2e9cd3517b1174a4598d7 -->
<g id="node4" class="node"><title>dir_1efe152df2f2e9cd3517b1174a4598d7</title>
<g id="a_node4"><a xlink:href="dir_1efe152df2f2e9cd3517b1174a4598d7.html" target="_top" xlink:title="Log">
<polygon fill="none" stroke="black" points="191,-36 137,-36 137,-0 191,-0 191,-36"/>
<text text-anchor="middle" x="164" y="-15.5" font-family="Helvetica,sans-Serif" font-size="10.00">Log</text>
</a>
</g>
</g>
<!-- dir_a750d1a7b0706cce5919e35b4344eedd&#45;&gt;dir_1efe152df2f2e9cd3517b1174a4598d7 -->
<g id="edge2" class="edge"><title>dir_a750d1a7b0706cce5919e35b4344eedd&#45;&gt;dir_1efe152df2f2e9cd3517b1174a4598d7</title>
<path fill="none" stroke="black" d="M176.798,-71.6966C174.904,-63.8979 172.623,-54.5085 170.516,-45.8292"/>
<polygon fill="black" stroke="black" points="173.915,-44.9959 168.154,-36.1043 167.113,-46.6479 173.915,-44.9959"/>
<g id="a_edge2&#45;headlabel"><a xlink:href="dir_000056_000052.html" target="_top" xlink:title="1">
<text text-anchor="middle" x="177.522" y="-45.3189" font-family="Helvetica,sans-Serif" font-size="10.00">1</text>
</a>
</g>
</g>
<!-- dir_f5906172d2c9558d453eb81ef8e5bf93 -->
<g id="node5" class="node"><title>dir_f5906172d2c9558d453eb81ef8e5bf93</title>
<g id="a_node5"><a xlink:href="dir_f5906172d2c9558d453eb81ef8e5bf93.html" target="_top" xlink:title="Index">
<polygon fill="none" stroke="black" points="263,-36 209,-36 209,-0 263,-0 263,-36"/>
<text text-anchor="middle" x="236" y="-15.5" font-family="Helvetica,sans-Serif" font-size="10.00">Index</text>
</a>
</g>
</g>
<!-- dir_a750d1a7b0706cce5919e35b4344eedd&#45;&gt;dir_f5906172d2c9558d453eb81ef8e5bf93 -->
<g id="edge3" class="edge"><title>dir_a750d1a7b0706cce5919e35b4344eedd&#45;&gt;dir_f5906172d2c9558d453eb81ef8e5bf93</title>
<path fill="none" stroke="black" d="M194.596,-71.6966C201.123,-63.3893 209.068,-53.2771 216.247,-44.1407"/>
<polygon fill="black" stroke="black" points="219.135,-46.1299 222.561,-36.1043 213.631,-41.8051 219.135,-46.1299"/>
<g id="a_edge3&#45;headlabel"><a xlink:href="dir_000056_000051.html" target="_top" xlink:title="2">
<text text-anchor="middle" x="219.147" y="-48.2106" font-family="Helvetica,sans-Serif" font-size="10.00">2</text>
</a>
</g>
</g>
</g>
</svg>
