<?xml version="1.0" encoding="UTF-8" standalone="no"?>
<!DOCTYPE svg PUBLIC "-//W3C//DTD SVG 1.1//EN"
 "http://www.w3.org/Graphics/SVG/1.1/DTD/svg11.dtd">
<!-- Generated by graphviz version 2.38.0 (20140413.2041)
 -->
<!-- Title: /home/travis/build/STORM&#45;IRIT/Radium&#45;Engine/src/Core/Animation/Pose Pages: 1 -->
<svg width="116pt" height="223pt"
 viewBox="0.00 0.00 116.00 223.00" xmlns="http://www.w3.org/2000/svg" xmlns:xlink="http://www.w3.org/1999/xlink">
<g id="graph0" class="graph" transform="scale(1 1) rotate(0) translate(4 219)">
<title>/home/travis/build/STORM&#45;IRIT/Radium&#45;Engine/src/Core/Animation/Pose</title>
<polygon fill="white" stroke="none" points="-4,4 -4,-219 112,-219 112,4 -4,4"/>
<g id="clust1" class="cluster"><title>clusterdir_721a74ea40d2768c46a3c9514389a16b</title>
<g id="a_clust1"><a xlink:href="dir_721a74ea40d2768c46a3c9514389a16b.html" target="_top" xlink:title="Animation">
<polygon fill="#ddddee" stroke="black" points="30,-136 30,-207 100,-207 100,-136 30,-136"/>
<text text-anchor="middle" x="65" y="-195" font-family="Helvetica,sans-Serif" font-size="10.00">Animation</text>
</a>
</g>
</g>
<!-- dir_2c6b9e60b5cfd48e3d1f71fa90957520 -->
<g id="node1" class="node"><title>dir_2c6b9e60b5cfd48e3d1f71fa90957520</title>
<g id="a_node1"><a xlink:href="dir_2c6b9e60b5cfd48e3d1f71fa90957520.html" target="_top" xlink:title="Pose">
<polygon fill="#eeeeff" stroke="black" points="92,-180 38,-180 38,-144 92,-144 92,-180"/>
<text text-anchor="middle" x="65" y="-159.5" font-family="Helvetica,sans-Serif" font-size="10.00">Pose</text>
</a>
</g>
</g>
<!-- dir_1456dd235032e023892318efbecb420b -->
<g id="node2" class="node"><title>dir_1456dd235032e023892318efbecb420b</title>
<g id="a_node2"><a xlink:href="dir_1456dd235032e023892318efbecb420b.html" target="_top" xlink:title="Containers">
<polygon fill="none" stroke="black" points="68,-108 0,-108 0,-72 68,-72 68,-108"/>
<text text-anchor="middle" x="34" y="-87.5" font-family="Helvetica,sans-Serif" font-size="10.00">Containers</text>
</a>
</g>
</g>
<!-- dir_2c6b9e60b5cfd48e3d1f71fa90957520&#45;&gt;dir_1456dd235032e023892318efbecb420b -->
<g id="edge1" class="edge"><title>dir_2c6b9e60b5cfd48e3d1f71fa90957520&#45;&gt;dir_1456dd235032e023892318efbecb420b</title>
<path fill="none" stroke="black" d="M57.3371,-143.697C53.8083,-135.728 49.5441,-126.1 45.6313,-117.264"/>
<polygon fill="black" stroke="black" points="48.8243,-115.831 41.5748,-108.104 42.4239,-118.665 48.8243,-115.831"/>
<g id="a_edge1&#45;headlabel"><a xlink:href="dir_000030_000033.html" target="_top" xlink:title="1">
<text text-anchor="middle" x="52.8759" y="-115.468" font-family="Helvetica,sans-Serif" font-size="10.00">1</text>
</a>
</g>
</g>
<!-- dir_a1f42069ba95676f6b9abbd5065ccf6d -->
<g id="node3" class="node"><title>dir_a1f42069ba95676f6b9abbd5065ccf6d</title>
<g id="a_node3"><a xlink:href="dir_a1f42069ba95676f6b9abbd5065ccf6d.html" target="_top" xlink:title="Math">
<polygon fill="none" stroke="black" points="61,-36 7,-36 7,-0 61,-0 61,-36"/>
<text text-anchor="middle" x="34" y="-15.5" font-family="Helvetica,sans-Serif" font-size="10.00">Math</text>
</a>
</g>
</g>
<!-- dir_2c6b9e60b5cfd48e3d1f71fa90957520&#45;&gt;dir_a1f42069ba95676f6b9abbd5065ccf6d -->
<g id="edge2" class="edge"><title>dir_2c6b9e60b5cfd48e3d1f71fa90957520&#45;&gt;dir_a1f42069ba95676f6b9abbd5065ccf6d</title>
<path fill="none" stroke="black" d="M71.9635,-143.78C78.3068,-125.484 85.4944,-95.952 77,-72 73.3385,-61.6754 66.7133,-51.8956 59.7427,-43.6136"/>
<polygon fill="black" stroke="black" points="62.3297,-41.2561 53.0391,-36.1633 57.126,-45.9382 62.3297,-41.2561"/>
<g id="a_edge2&#45;headlabel"><a xlink:href="dir_000030_000053.html" target="_top" xlink:title="1">
<text text-anchor="middle" x="66.8447" y="-39.5291" font-family="Helvetica,sans-Serif" font-size="10.00">1</text>
</a>
</g>
</g>
<!-- dir_1456dd235032e023892318efbecb420b&#45;&gt;dir_a1f42069ba95676f6b9abbd5065ccf6d -->
<g id="edge3" class="edge"><title>dir_1456dd235032e023892318efbecb420b&#45;&gt;dir_a1f42069ba95676f6b9abbd5065ccf6d</title>
<path fill="none" stroke="black" d="M28.0843,-71.6966C27.2886,-63.9827 27.0621,-54.7125 27.4047,-46.1124"/>
<polygon fill="black" stroke="black" points="30.8984,-46.3243 28.105,-36.1043 23.9154,-45.8356 30.8984,-46.3243"/>
<g id="a_edge3&#45;headlabel"><a xlink:href="dir_000033_000053.html" target="_top" xlink:title="1">
<text text-anchor="middle" x="33.4799" y="-47.6083" font-family="Helvetica,sans-Serif" font-size="10.00">1</text>
</a>
</g>
</g>
<!-- dir_a1f42069ba95676f6b9abbd5065ccf6d&#45;&gt;dir_1456dd235032e023892318efbecb420b -->
<g id="edge4" class="edge"><title>dir_a1f42069ba95676f6b9abbd5065ccf6d&#45;&gt;dir_1456dd235032e023892318efbecb420b</title>
<path fill="none" stroke="black" d="M39.895,-36.1043C40.7005,-43.7913 40.9369,-53.0537 40.604,-61.6651"/>
<polygon fill="black" stroke="black" points="37.1085,-61.4805 39.9157,-71.6966 44.0921,-61.9597 37.1085,-61.4805"/>
<g id="a_edge4&#45;headlabel"><a xlink:href="dir_000053_000033.html" target="_top" xlink:title="3">
<text text-anchor="middle" x="34.5219" y="-55.2" font-family="Helvetica,sans-Serif" font-size="10.00">3</text>
</a>
</g>
</g>
</g>
</svg>
