<?xml version="1.0" encoding="UTF-8" standalone="no"?>
<!DOCTYPE svg PUBLIC "-//W3C//DTD SVG 1.1//EN"
 "http://www.w3.org/Graphics/SVG/1.1/DTD/svg11.dtd">
<!-- Generated by graphviz version 2.38.0 (20140413.2041)
 -->
<!-- Title: /home/travis/build/STORM&#45;IRIT/Radium&#45;Engine/src/Core/Geometry/Laplacian Pages: 1 -->
<svg width="243pt" height="439pt"
 viewBox="0.00 0.00 242.64 439.00" xmlns="http://www.w3.org/2000/svg" xmlns:xlink="http://www.w3.org/1999/xlink">
<g id="graph0" class="graph" transform="scale(1 1) rotate(0) translate(4 435)">
<title>/home/travis/build/STORM&#45;IRIT/Radium&#45;Engine/src/Core/Geometry/Laplacian</title>
<polygon fill="white" stroke="none" points="-4,4 -4,-435 238.645,-435 238.645,4 -4,4"/>
<g id="clust1" class="cluster"><title>clusterdir_cb2b5dfd43482fb277f6333d539f1f06</title>
<g id="a_clust1"><a xlink:href="dir_cb2b5dfd43482fb277f6333d539f1f06.html" target="_top" xlink:title="Geometry">
<polygon fill="#ddddee" stroke="black" points="81,-352 81,-423 159,-423 159,-352 81,-352"/>
<text text-anchor="middle" x="120" y="-411" font-family="Helvetica,sans-Serif" font-size="10.00">Geometry</text>
</a>
</g>
</g>
<!-- dir_1fd0d08cc80c4e3fb5f69047444f5c52 -->
<g id="node1" class="node"><title>dir_1fd0d08cc80c4e3fb5f69047444f5c52</title>
<g id="a_node1"><a xlink:href="dir_1fd0d08cc80c4e3fb5f69047444f5c52.html" target="_top" xlink:title="Laplacian">
<polygon fill="#eeeeff" stroke="black" points="151,-396 89,-396 89,-360 151,-360 151,-396"/>
<text text-anchor="middle" x="120" y="-375.5" font-family="Helvetica,sans-Serif" font-size="10.00">Laplacian</text>
</a>
</g>
</g>
<!-- dir_1456dd235032e023892318efbecb420b -->
<g id="node2" class="node"><title>dir_1456dd235032e023892318efbecb420b</title>
<g id="a_node2"><a xlink:href="dir_1456dd235032e023892318efbecb420b.html" target="_top" xlink:title="Containers">
<polygon fill="none" stroke="black" points="96,-252 28,-252 28,-216 96,-216 96,-252"/>
<text text-anchor="middle" x="62" y="-231.5" font-family="Helvetica,sans-Serif" font-size="10.00">Containers</text>
</a>
</g>
</g>
<!-- dir_1fd0d08cc80c4e3fb5f69047444f5c52&#45;&gt;dir_1456dd235032e023892318efbecb420b -->
<g id="edge10" class="edge"><title>dir_1fd0d08cc80c4e3fb5f69047444f5c52&#45;&gt;dir_1456dd235032e023892318efbecb420b</title>
<path fill="none" stroke="black" d="M113.004,-359.871C103.032,-335.457 84.6387,-290.426 72.8791,-261.635"/>
<polygon fill="black" stroke="black" points="76.0424,-260.123 69.021,-252.189 69.5621,-262.77 76.0424,-260.123"/>
<g id="a_edge10&#45;headlabel"><a xlink:href="dir_000044_000033.html" target="_top" xlink:title="1">
<text text-anchor="middle" x="80.03" y="-259.878" font-family="Helvetica,sans-Serif" font-size="10.00">1</text>
</a>
</g>
</g>
<!-- dir_d080e052e6032887076b6b5756e5361d -->
<g id="node3" class="node"><title>dir_d080e052e6032887076b6b5756e5361d</title>
<g id="a_node3"><a xlink:href="dir_d080e052e6032887076b6b5756e5361d.html" target="_top" xlink:title="Mesh">
<polygon fill="white" stroke="red" points="149,-108 95,-108 95,-72 149,-72 149,-108"/>
<text text-anchor="middle" x="122" y="-87.5" font-family="Helvetica,sans-Serif" font-size="10.00">Mesh</text>
</a>
</g>
</g>
<!-- dir_1fd0d08cc80c4e3fb5f69047444f5c52&#45;&gt;dir_d080e052e6032887076b6b5756e5361d -->
<g id="edge11" class="edge"><title>dir_1fd0d08cc80c4e3fb5f69047444f5c52&#45;&gt;dir_d080e052e6032887076b6b5756e5361d</title>
<path fill="none" stroke="black" d="M151.446,-369.994C175.4,-362.827 206.772,-349.074 222,-324 249.542,-278.651 229.854,-227.686 178,-144 171.335,-133.244 161.956,-123.204 152.777,-114.819"/>
<polygon fill="black" stroke="black" points="155.012,-112.124 145.177,-108.185 150.409,-117.398 155.012,-112.124"/>
<g id="a_edge11&#45;headlabel"><a xlink:href="dir_000044_000054.html" target="_top" xlink:title="1">
<text text-anchor="middle" x="159.588" y="-109.849" font-family="Helvetica,sans-Serif" font-size="10.00">1</text>
</a>
</g>
</g>
<!-- dir_15537c5ca5277b4bdb75eea0337000f7 -->
<g id="node4" class="node"><title>dir_15537c5ca5277b4bdb75eea0337000f7</title>
<g id="a_node4"><a xlink:href="dir_15537c5ca5277b4bdb75eea0337000f7.html" target="_top" xlink:title="Adjacency">
<polygon fill="none" stroke="black" points="213.5,-324 148.5,-324 148.5,-288 213.5,-288 213.5,-324"/>
<text text-anchor="middle" x="181" y="-303.5" font-family="Helvetica,sans-Serif" font-size="10.00">Adjacency</text>
</a>
</g>
</g>
<!-- dir_1fd0d08cc80c4e3fb5f69047444f5c52&#45;&gt;dir_15537c5ca5277b4bdb75eea0337000f7 -->
<g id="edge12" class="edge"><title>dir_1fd0d08cc80c4e3fb5f69047444f5c52&#45;&gt;dir_15537c5ca5277b4bdb75eea0337000f7</title>
<path fill="none" stroke="black" d="M135.079,-359.697C142.392,-351.305 151.31,-341.07 159.335,-331.861"/>
<polygon fill="black" stroke="black" points="162.164,-333.943 166.095,-324.104 156.886,-329.344 162.164,-333.943"/>
<g id="a_edge12&#45;headlabel"><a xlink:href="dir_000044_000039.html" target="_top" xlink:title="1">
<text text-anchor="middle" x="161.943" y="-336.018" font-family="Helvetica,sans-Serif" font-size="10.00">1</text>
</a>
</g>
</g>
<!-- dir_a1f42069ba95676f6b9abbd5065ccf6d -->
<g id="node5" class="node"><title>dir_a1f42069ba95676f6b9abbd5065ccf6d</title>
<g id="a_node5"><a xlink:href="dir_a1f42069ba95676f6b9abbd5065ccf6d.html" target="_top" xlink:title="Math">
<polygon fill="none" stroke="black" points="149,-180 95,-180 95,-144 149,-144 149,-180"/>
<text text-anchor="middle" x="122" y="-159.5" font-family="Helvetica,sans-Serif" font-size="10.00">Math</text>
</a>
</g>
</g>
<!-- dir_1fd0d08cc80c4e3fb5f69047444f5c52&#45;&gt;dir_a1f42069ba95676f6b9abbd5065ccf6d -->
<g id="edge13" class="edge"><title>dir_1fd0d08cc80c4e3fb5f69047444f5c52&#45;&gt;dir_a1f42069ba95676f6b9abbd5065ccf6d</title>
<path fill="none" stroke="black" d="M120.16,-359.849C120.506,-322.832 121.325,-235.181 121.744,-190.386"/>
<polygon fill="black" stroke="black" points="125.245,-190.265 121.839,-180.232 118.246,-190.199 125.245,-190.265"/>
<g id="a_edge13&#45;headlabel"><a xlink:href="dir_000044_000053.html" target="_top" xlink:title="1">
<text text-anchor="middle" x="128.051" y="-191.386" font-family="Helvetica,sans-Serif" font-size="10.00">1</text>
</a>
</g>
</g>
<!-- dir_f5906172d2c9558d453eb81ef8e5bf93 -->
<g id="node6" class="node"><title>dir_f5906172d2c9558d453eb81ef8e5bf93</title>
<g id="a_node6"><a xlink:href="dir_f5906172d2c9558d453eb81ef8e5bf93.html" target="_top" xlink:title="Index">
<polygon fill="none" stroke="black" points="88,-36 34,-36 34,-0 88,-0 88,-36"/>
<text text-anchor="middle" x="61" y="-15.5" font-family="Helvetica,sans-Serif" font-size="10.00">Index</text>
</a>
</g>
</g>
<!-- dir_1fd0d08cc80c4e3fb5f69047444f5c52&#45;&gt;dir_f5906172d2c9558d453eb81ef8e5bf93 -->
<g id="edge14" class="edge"><title>dir_1fd0d08cc80c4e3fb5f69047444f5c52&#45;&gt;dir_f5906172d2c9558d453eb81ef8e5bf93</title>
<path fill="none" stroke="black" d="M90.9513,-359.912C55.437,-336.579 0,-291.162 0,-235 0,-235 0,-235 0,-161 0,-117.609 24.3428,-72.3725 42.273,-44.9379"/>
<polygon fill="black" stroke="black" points="45.3778,-46.5936 48.0635,-36.3448 39.5727,-42.6819 45.3778,-46.5936"/>
<g id="a_edge14&#45;headlabel"><a xlink:href="dir_000044_000051.html" target="_top" xlink:title="1">
<text text-anchor="middle" x="45.7237" y="-48.6612" font-family="Helvetica,sans-Serif" font-size="10.00">1</text>
</a>
</g>
</g>
<!-- dir_1456dd235032e023892318efbecb420b&#45;&gt;dir_a1f42069ba95676f6b9abbd5065ccf6d -->
<g id="edge1" class="edge"><title>dir_1456dd235032e023892318efbecb420b&#45;&gt;dir_a1f42069ba95676f6b9abbd5065ccf6d</title>
<path fill="none" stroke="black" d="M70.9157,-215.697C77.3072,-207.22 85.9969,-196.864 94.4523,-187.583"/>
<polygon fill="black" stroke="black" points="97.1712,-189.799 101.444,-180.104 92.0579,-185.019 97.1712,-189.799"/>
<g id="a_edge1&#45;headlabel"><a xlink:href="dir_000033_000053.html" target="_top" xlink:title="1">
<text text-anchor="middle" x="96.7903" y="-191.864" font-family="Helvetica,sans-Serif" font-size="10.00">1</text>
</a>
</g>
</g>
<!-- dir_d080e052e6032887076b6b5756e5361d&#45;&gt;dir_1456dd235032e023892318efbecb420b -->
<g id="edge2" class="edge"><title>dir_d080e052e6032887076b6b5756e5361d&#45;&gt;dir_1456dd235032e023892318efbecb420b</title>
<path fill="none" stroke="black" d="M108.098,-108.266C100.655,-118.222 91.843,-131.261 86,-144 76.9092,-163.82 70.6966,-187.755 66.8736,-205.81"/>
<polygon fill="black" stroke="black" points="63.4279,-205.192 64.8952,-215.684 70.2915,-206.567 63.4279,-205.192"/>
<g id="a_edge2&#45;headlabel"><a xlink:href="dir_000054_000033.html" target="_top" xlink:title="2">
<text text-anchor="middle" x="61.35" y="-198.609" font-family="Helvetica,sans-Serif" font-size="10.00">2</text>
</a>
</g>
</g>
<!-- dir_d080e052e6032887076b6b5756e5361d&#45;&gt;dir_a1f42069ba95676f6b9abbd5065ccf6d -->
<g id="edge3" class="edge"><title>dir_d080e052e6032887076b6b5756e5361d&#45;&gt;dir_a1f42069ba95676f6b9abbd5065ccf6d</title>
<path fill="none" stroke="black" d="M127.895,-108.104C128.701,-115.791 128.937,-125.054 128.604,-133.665"/>
<polygon fill="black" stroke="black" points="125.109,-133.48 127.916,-143.697 132.092,-133.96 125.109,-133.48"/>
<g id="a_edge3&#45;headlabel"><a xlink:href="dir_000054_000053.html" target="_top" xlink:title="7">
<text text-anchor="middle" x="122.522" y="-127.2" font-family="Helvetica,sans-Serif" font-size="10.00">7</text>
</a>
</g>
</g>
<!-- dir_d080e052e6032887076b6b5756e5361d&#45;&gt;dir_f5906172d2c9558d453eb81ef8e5bf93 -->
<g id="edge4" class="edge"><title>dir_d080e052e6032887076b6b5756e5361d&#45;&gt;dir_f5906172d2c9558d453eb81ef8e5bf93</title>
<path fill="none" stroke="black" d="M106.921,-71.6966C99.6083,-63.3046 90.69,-53.0705 82.6649,-43.8613"/>
<polygon fill="black" stroke="black" points="85.1137,-41.344 75.9052,-36.1043 79.8363,-45.9429 85.1137,-41.344"/>
<g id="a_edge4&#45;headlabel"><a xlink:href="dir_000054_000051.html" target="_top" xlink:title="4">
<text text-anchor="middle" x="89.6158" y="-39.6887" font-family="Helvetica,sans-Serif" font-size="10.00">4</text>
</a>
</g>
</g>
<!-- dir_15537c5ca5277b4bdb75eea0337000f7&#45;&gt;dir_1456dd235032e023892318efbecb420b -->
<g id="edge5" class="edge"><title>dir_15537c5ca5277b4bdb75eea0337000f7&#45;&gt;dir_1456dd235032e023892318efbecb420b</title>
<path fill="none" stroke="black" d="M151.889,-287.876C136.33,-278.724 116.981,-267.342 100.224,-257.485"/>
<polygon fill="black" stroke="black" points="101.617,-254.243 91.2226,-252.19 98.0673,-260.277 101.617,-254.243"/>
<g id="a_edge5&#45;headlabel"><a xlink:href="dir_000039_000033.html" target="_top" xlink:title="2">
<text text-anchor="middle" x="106.154" y="-251.118" font-family="Helvetica,sans-Serif" font-size="10.00">2</text>
</a>
</g>
</g>
<!-- dir_15537c5ca5277b4bdb75eea0337000f7&#45;&gt;dir_d080e052e6032887076b6b5756e5361d -->
<g id="edge6" class="edge"><title>dir_15537c5ca5277b4bdb75eea0337000f7&#45;&gt;dir_d080e052e6032887076b6b5756e5361d</title>
<path fill="none" stroke="black" d="M181.056,-287.915C180.619,-257.804 177.262,-193.767 158,-144 154.245,-134.299 148.43,-124.613 142.561,-116.226"/>
<polygon fill="black" stroke="black" points="145.257,-113.985 136.508,-108.009 139.621,-118.137 145.257,-113.985"/>
<g id="a_edge6&#45;headlabel"><a xlink:href="dir_000039_000054.html" target="_top" xlink:title="1">
<text text-anchor="middle" x="149.675" y="-112.696" font-family="Helvetica,sans-Serif" font-size="10.00">1</text>
</a>
</g>
</g>
<!-- dir_15537c5ca5277b4bdb75eea0337000f7&#45;&gt;dir_a1f42069ba95676f6b9abbd5065ccf6d -->
<g id="edge7" class="edge"><title>dir_15537c5ca5277b4bdb75eea0337000f7&#45;&gt;dir_a1f42069ba95676f6b9abbd5065ccf6d</title>
<path fill="none" stroke="black" d="M173.883,-287.871C163.739,-263.457 145.029,-218.426 133.067,-189.635"/>
<polygon fill="black" stroke="black" points="136.211,-188.081 129.142,-180.189 129.747,-190.767 136.211,-188.081"/>
<g id="a_edge7&#45;headlabel"><a xlink:href="dir_000039_000053.html" target="_top" xlink:title="1">
<text text-anchor="middle" x="140.212" y="-187.811" font-family="Helvetica,sans-Serif" font-size="10.00">1</text>
</a>
</g>
</g>
<!-- dir_a1f42069ba95676f6b9abbd5065ccf6d&#45;&gt;dir_1456dd235032e023892318efbecb420b -->
<g id="edge8" class="edge"><title>dir_a1f42069ba95676f6b9abbd5065ccf6d&#45;&gt;dir_1456dd235032e023892318efbecb420b</title>
<path fill="none" stroke="black" d="M113.234,-180.104C106.879,-188.552 98.2055,-198.901 89.7466,-208.199"/>
<polygon fill="black" stroke="black" points="87.0128,-205.998 82.7472,-215.697 92.1297,-210.775 87.0128,-205.998"/>
<g id="a_edge8&#45;headlabel"><a xlink:href="dir_000053_000033.html" target="_top" xlink:title="3">
<text text-anchor="middle" x="87.3903" y="-198.933" font-family="Helvetica,sans-Serif" font-size="10.00">3</text>
</a>
</g>
</g>
<!-- dir_a1f42069ba95676f6b9abbd5065ccf6d&#45;&gt;dir_d080e052e6032887076b6b5756e5361d -->
<g id="edge9" class="edge"><title>dir_a1f42069ba95676f6b9abbd5065ccf6d&#45;&gt;dir_d080e052e6032887076b6b5756e5361d</title>
<path fill="none" stroke="black" d="M116.084,-143.697C115.289,-135.983 115.062,-126.712 115.405,-118.112"/>
<polygon fill="black" stroke="black" points="118.898,-118.324 116.105,-108.104 111.915,-117.836 118.898,-118.324"/>
<g id="a_edge9&#45;headlabel"><a xlink:href="dir_000053_000054.html" target="_top" xlink:title="1">
<text text-anchor="middle" x="121.48" y="-119.608" font-family="Helvetica,sans-Serif" font-size="10.00">1</text>
</a>
</g>
</g>
</g>
</svg>
