<?xml version="1.0" encoding="UTF-8" standalone="no"?>
<!DOCTYPE svg PUBLIC "-//W3C//DTD SVG 1.1//EN"
 "http://www.w3.org/Graphics/SVG/1.1/DTD/svg11.dtd">
<!-- Generated by graphviz version 2.38.0 (20140413.2041)
 -->
<!-- Title: /home/travis/build/STORM&#45;IRIT/Radium&#45;Engine/src/Engine/Renderer/RenderObject Pages: 1 -->
<svg width="454pt" height="483pt"
 viewBox="0.00 0.00 453.50 483.00" xmlns="http://www.w3.org/2000/svg" xmlns:xlink="http://www.w3.org/1999/xlink">
<g id="graph0" class="graph" transform="scale(1 1) rotate(0) translate(4 479)">
<title>/home/travis/build/STORM&#45;IRIT/Radium&#45;Engine/src/Engine/Renderer/RenderObject</title>
<polygon fill="white" stroke="none" points="-4,4 -4,-479 449.5,-479 449.5,4 -4,4"/>
<g id="clust1" class="cluster"><title>clusterdir_54018506bb725509c19b38b6d9bcf0f6</title>
<g id="a_clust1"><a xlink:href="dir_54018506bb725509c19b38b6d9bcf0f6.html" target="_top" xlink:title="Renderer">
<polygon fill="#ddddee" stroke="black" points="56,-200 56,-287 250,-287 250,-200 56,-200"/>
<text text-anchor="middle" x="153" y="-275" font-family="Helvetica,sans-Serif" font-size="10.00">Renderer</text>
</a>
</g>
</g>
<g id="clust2" class="cluster"><title>clusterdir_652267079d823ee01f6c6cf98db9085b</title>
<g id="a_clust2"><a xlink:href="dir_652267079d823ee01f6c6cf98db9085b.html" target="_top">
<polygon fill="#eeeeff" stroke="black" points="64,-208 64,-260 242,-260 242,-208 64,-208"/>
</a>
</g>
</g>
<!-- dir_652267079d823ee01f6c6cf98db9085b -->
<g id="node1" class="node"><title>dir_652267079d823ee01f6c6cf98db9085b</title>
<text text-anchor="middle" x="112" y="-231.5" font-family="Helvetica,sans-Serif" font-size="10.00">RenderObject</text>
</g>
<!-- dir_7205f054df4e14abb60715afe3e7e90c -->
<g id="node4" class="node"><title>dir_7205f054df4e14abb60715afe3e7e90c</title>
<g id="a_node4"><a xlink:href="dir_7205f054df4e14abb60715afe3e7e90c.html" target="_top" xlink:title="Entity">
<polygon fill="none" stroke="black" points="237,-475 183,-475 183,-439 237,-439 237,-475"/>
<text text-anchor="middle" x="210" y="-454.5" font-family="Helvetica,sans-Serif" font-size="10.00">Entity</text>
</a>
</g>
</g>
<!-- dir_652267079d823ee01f6c6cf98db9085b&#45;&gt;dir_7205f054df4e14abb60715afe3e7e90c -->
<g id="edge1" class="edge"><title>dir_652267079d823ee01f6c6cf98db9085b&#45;&gt;dir_7205f054df4e14abb60715afe3e7e90c</title>
<path fill="none" stroke="black" d="M115.892,-252.461C123.328,-283.874 141.317,-351.443 169,-403 174.201,-412.686 181.148,-422.442 187.845,-430.898"/>
<polygon fill="black" stroke="black" points="185.336,-433.358 194.384,-438.87 190.748,-428.918 185.336,-433.358"/>
<g id="a_edge1&#45;headlabel"><a xlink:href="dir_000081_000065.html" target="_top" xlink:title="2">
<text text-anchor="middle" x="180.861" y="-429.879" font-family="Helvetica,sans-Serif" font-size="10.00">2</text>
</a>
</g>
</g>
<!-- dir_35f904a890c1431d13964486334c23a9 -->
<g id="node6" class="node"><title>dir_35f904a890c1431d13964486334c23a9</title>
<g id="a_node6"><a xlink:href="dir_35f904a890c1431d13964486334c23a9.html" target="_top" xlink:title="Camera">
<polygon fill="none" stroke="black" points="297.5,-331 242.5,-331 242.5,-295 297.5,-295 297.5,-331"/>
<text text-anchor="middle" x="270" y="-310.5" font-family="Helvetica,sans-Serif" font-size="10.00">Camera</text>
</a>
</g>
</g>
<!-- dir_652267079d823ee01f6c6cf98db9085b&#45;&gt;dir_35f904a890c1431d13964486334c23a9 -->
<g id="edge2" class="edge"><title>dir_652267079d823ee01f6c6cf98db9085b&#45;&gt;dir_35f904a890c1431d13964486334c23a9</title>
<path fill="none" stroke="black" d="M116.255,-252.037C123.69,-263.625 136.932,-278.367 152,-287 176.321,-300.934 207.878,-307.103 232.388,-309.834"/>
<polygon fill="black" stroke="black" points="232.128,-313.325 242.419,-310.806 232.803,-306.357 232.128,-313.325"/>
<g id="a_edge2&#45;headlabel"><a xlink:href="dir_000081_000075.html" target="_top" xlink:title="1">
<text text-anchor="middle" x="228.276" y="-313.304" font-family="Helvetica,sans-Serif" font-size="10.00">1</text>
</a>
</g>
</g>
<!-- dir_06113b60808b1bbb52a01dfd2c3a8657 -->
<g id="node8" class="node"><title>dir_06113b60808b1bbb52a01dfd2c3a8657</title>
<g id="a_node8"><a xlink:href="dir_06113b60808b1bbb52a01dfd2c3a8657.html" target="_top" xlink:title="Managers">
<polygon fill="white" stroke="red" points="242,-403 178,-403 178,-367 242,-367 242,-403"/>
<text text-anchor="middle" x="210" y="-382.5" font-family="Helvetica,sans-Serif" font-size="10.00">Managers</text>
</a>
</g>
</g>
<!-- dir_652267079d823ee01f6c6cf98db9085b&#45;&gt;dir_06113b60808b1bbb52a01dfd2c3a8657 -->
<g id="edge3" class="edge"><title>dir_652267079d823ee01f6c6cf98db9085b&#45;&gt;dir_06113b60808b1bbb52a01dfd2c3a8657</title>
<path fill="none" stroke="black" d="M123.413,-252.352C140.63,-278.529 173.345,-328.269 193.261,-358.551"/>
<polygon fill="black" stroke="black" points="190.339,-360.476 198.758,-366.908 196.187,-356.63 190.339,-360.476"/>
<g id="a_edge3&#45;headlabel"><a xlink:href="dir_000081_000067.html" target="_top" xlink:title="2">
<text text-anchor="middle" x="185.991" y="-356.533" font-family="Helvetica,sans-Serif" font-size="10.00">2</text>
</a>
</g>
</g>
<!-- dir_d0f3276f03e9a9cb8f8ba3f2a5ea1262 -->
<g id="node9" class="node"><title>dir_d0f3276f03e9a9cb8f8ba3f2a5ea1262</title>
<g id="a_node9"><a xlink:href="dir_d0f3276f03e9a9cb8f8ba3f2a5ea1262.html" target="_top" xlink:title="Component">
<polygon fill="none" stroke="black" points="445.5,-252 372.5,-252 372.5,-216 445.5,-216 445.5,-252"/>
<text text-anchor="middle" x="409" y="-231.5" font-family="Helvetica,sans-Serif" font-size="10.00">Component</text>
</a>
</g>
</g>
<!-- dir_652267079d823ee01f6c6cf98db9085b&#45;&gt;dir_d0f3276f03e9a9cb8f8ba3f2a5ea1262 -->
<g id="edge4" class="edge"><title>dir_652267079d823ee01f6c6cf98db9085b&#45;&gt;dir_d0f3276f03e9a9cb8f8ba3f2a5ea1262</title>
<path fill="none" stroke="black" d="M122.35,-252.079C132.28,-267.032 148.87,-286.516 170,-291 185.325,-294.252 295.675,-294.252 311,-291 335.819,-285.733 360.492,-271.318 378.872,-258.303"/>
<polygon fill="black" stroke="black" points="381.371,-260.81 387.363,-252.072 377.23,-255.167 381.371,-260.81"/>
<g id="a_edge4&#45;headlabel"><a xlink:href="dir_000081_000064.html" target="_top" xlink:title="2">
<text text-anchor="middle" x="380.153" y="-262.726" font-family="Helvetica,sans-Serif" font-size="10.00">2</text>
</a>
</g>
</g>
<!-- dir_72da96c41019f509fc15d3101528a281 -->
<g id="node2" class="node"><title>dir_72da96c41019f509fc15d3101528a281</title>
<g id="a_node2"><a xlink:href="dir_72da96c41019f509fc15d3101528a281.html" target="_top" xlink:title="Primitives">
<polygon fill="white" stroke="black" points="233.5,-252 170.5,-252 170.5,-216 233.5,-216 233.5,-252"/>
<text text-anchor="middle" x="202" y="-231.5" font-family="Helvetica,sans-Serif" font-size="10.00">Primitives</text>
</a>
</g>
</g>
<!-- dir_a2f0e5642e47e7ed59fe0f0829eafb5f -->
<g id="node3" class="node"><title>dir_a2f0e5642e47e7ed59fe0f0829eafb5f</title>
<g id="a_node3"><a xlink:href="dir_a2f0e5642e47e7ed59fe0f0829eafb5f.html" target="_top" xlink:title="Core">
<polygon fill="white" stroke="red" points="218,-36 164,-36 164,-0 218,-0 218,-36"/>
<text text-anchor="middle" x="191" y="-15.5" font-family="Helvetica,sans-Serif" font-size="10.00">Core</text>
</a>
</g>
</g>
<!-- dir_72da96c41019f509fc15d3101528a281&#45;&gt;dir_a2f0e5642e47e7ed59fe0f0829eafb5f -->
<g id="edge9" class="edge"><title>dir_72da96c41019f509fc15d3101528a281&#45;&gt;dir_a2f0e5642e47e7ed59fe0f0829eafb5f</title>
<path fill="none" stroke="black" d="M181.344,-215.846C165.062,-202.147 144.666,-184.519 142,-180 125.344,-151.766 129.577,-140.585 126,-108 124.254,-92.0955 119.136,-86.453 126,-72 132.333,-58.6644 143.846,-47.5784 155.442,-39.052"/>
<polygon fill="black" stroke="black" points="157.56,-41.843 163.827,-33.3003 153.601,-36.0705 157.56,-41.843"/>
<g id="a_edge9&#45;headlabel"><a xlink:href="dir_000082_000020.html" target="_top" xlink:title="8">
<text text-anchor="middle" x="156.202" y="-43.7177" font-family="Helvetica,sans-Serif" font-size="10.00">8</text>
</a>
</g>
</g>
<!-- dir_f6a0a87962fcbf90fc709c1bf5ba5a00 -->
<g id="node5" class="node"><title>dir_f6a0a87962fcbf90fc709c1bf5ba5a00</title>
<g id="a_node5"><a xlink:href="dir_f6a0a87962fcbf90fc709c1bf5ba5a00.html" target="_top" xlink:title="Mesh">
<polygon fill="none" stroke="black" points="346,-180 292,-180 292,-144 346,-144 346,-180"/>
<text text-anchor="middle" x="319" y="-159.5" font-family="Helvetica,sans-Serif" font-size="10.00">Mesh</text>
</a>
</g>
</g>
<!-- dir_72da96c41019f509fc15d3101528a281&#45;&gt;dir_f6a0a87962fcbf90fc709c1bf5ba5a00 -->
<g id="edge10" class="edge"><title>dir_72da96c41019f509fc15d3101528a281&#45;&gt;dir_f6a0a87962fcbf90fc709c1bf5ba5a00</title>
<path fill="none" stroke="black" d="M230.621,-215.876C246.376,-206.45 266.082,-194.66 282.886,-184.606"/>
<polygon fill="black" stroke="black" points="285.095,-187.363 291.88,-179.226 281.501,-181.356 285.095,-187.363"/>
<g id="a_edge10&#45;headlabel"><a xlink:href="dir_000082_000078.html" target="_top" xlink:title="1">
<text text-anchor="middle" x="283.468" y="-189.145" font-family="Helvetica,sans-Serif" font-size="10.00">1</text>
</a>
</g>
</g>
<!-- dir_6bc97c5ccce2964f7b25f8377ac95818 -->
<g id="node7" class="node"><title>dir_6bc97c5ccce2964f7b25f8377ac95818</title>
<g id="a_node7"><a xlink:href="dir_6bc97c5ccce2964f7b25f8377ac95818.html" target="_top" xlink:title="RenderTechnique">
<polygon fill="none" stroke="black" points="239.5,-108 142.5,-108 142.5,-72 239.5,-72 239.5,-108"/>
<text text-anchor="middle" x="191" y="-87.5" font-family="Helvetica,sans-Serif" font-size="10.00">RenderTechnique</text>
</a>
</g>
</g>
<!-- dir_72da96c41019f509fc15d3101528a281&#45;&gt;dir_6bc97c5ccce2964f7b25f8377ac95818 -->
<g id="edge11" class="edge"><title>dir_72da96c41019f509fc15d3101528a281&#45;&gt;dir_6bc97c5ccce2964f7b25f8377ac95818</title>
<path fill="none" stroke="black" d="M190.954,-215.611C185.263,-205.615 178.919,-192.579 176,-180 171.203,-159.33 175.679,-135.623 180.959,-117.877"/>
<polygon fill="black" stroke="black" points="184.346,-118.777 184.097,-108.185 177.687,-116.621 184.346,-118.777"/>
<g id="a_edge11&#45;headlabel"><a xlink:href="dir_000082_000083.html" target="_top" xlink:title="2">
<text text-anchor="middle" x="185.94" y="-120.571" font-family="Helvetica,sans-Serif" font-size="10.00">2</text>
</a>
</g>
</g>
<!-- dir_909774b1a000bf73b2cf501716b773f3 -->
<g id="node10" class="node"><title>dir_909774b1a000bf73b2cf501716b773f3</title>
<g id="a_node10"><a xlink:href="dir_909774b1a000bf73b2cf501716b773f3.html" target="_top" xlink:title="Material">
<polygon fill="none" stroke="black" points="273.5,-180 218.5,-180 218.5,-144 273.5,-144 273.5,-180"/>
<text text-anchor="middle" x="246" y="-159.5" font-family="Helvetica,sans-Serif" font-size="10.00">Material</text>
</a>
</g>
</g>
<!-- dir_72da96c41019f509fc15d3101528a281&#45;&gt;dir_909774b1a000bf73b2cf501716b773f3 -->
<g id="edge12" class="edge"><title>dir_72da96c41019f509fc15d3101528a281&#45;&gt;dir_909774b1a000bf73b2cf501716b773f3</title>
<path fill="none" stroke="black" d="M212.876,-215.697C217.992,-207.559 224.195,-197.689 229.845,-188.701"/>
<polygon fill="black" stroke="black" points="232.89,-190.433 235.249,-180.104 226.964,-186.708 232.89,-190.433"/>
<g id="a_edge12&#45;headlabel"><a xlink:href="dir_000082_000077.html" target="_top" xlink:title="1">
<text text-anchor="middle" x="233.381" y="-192.488" font-family="Helvetica,sans-Serif" font-size="10.00">1</text>
</a>
</g>
</g>
<!-- dir_a2f0e5642e47e7ed59fe0f0829eafb5f&#45;&gt;dir_72da96c41019f509fc15d3101528a281 -->
<g id="edge5" class="edge"><title>dir_a2f0e5642e47e7ed59fe0f0829eafb5f&#45;&gt;dir_72da96c41019f509fc15d3101528a281</title>
<path fill="none" stroke="black" d="M163.965,-35.9919C152.106,-45.0713 139.438,-57.3968 133,-72 126.546,-86.6405 129.238,-92.4486 133,-108 142.032,-145.337 165.414,-183.276 182.462,-207.406"/>
<polygon fill="black" stroke="black" points="179.723,-209.591 188.419,-215.645 185.396,-205.49 179.723,-209.591"/>
<g id="a_edge5&#45;headlabel"><a xlink:href="dir_000020_000082.html" target="_top" xlink:title="1">
<text text-anchor="middle" x="175.316" y="-205.842" font-family="Helvetica,sans-Serif" font-size="10.00">1</text>
</a>
</g>
</g>
<!-- dir_7205f054df4e14abb60715afe3e7e90c&#45;&gt;dir_a2f0e5642e47e7ed59fe0f0829eafb5f -->
<g id="edge6" class="edge"><title>dir_7205f054df4e14abb60715afe3e7e90c&#45;&gt;dir_a2f0e5642e47e7ed59fe0f0829eafb5f</title>
<path fill="none" stroke="black" d="M182.976,-450.949C126.258,-438.619 0,-401.362 0,-314 0,-314 0,-314 0,-161 0,-85.1475 98.2148,-45.0623 153.787,-28.4523"/>
<polygon fill="black" stroke="black" points="154.991,-31.7481 163.634,-25.6207 153.057,-25.0207 154.991,-31.7481"/>
<g id="a_edge6&#45;headlabel"><a xlink:href="dir_000065_000020.html" target="_top" xlink:title="4">
<text text-anchor="middle" x="152.321" y="-32.9701" font-family="Helvetica,sans-Serif" font-size="10.00">4</text>
</a>
</g>
</g>
<!-- dir_7205f054df4e14abb60715afe3e7e90c&#45;&gt;dir_06113b60808b1bbb52a01dfd2c3a8657 -->
<g id="edge7" class="edge"><title>dir_7205f054df4e14abb60715afe3e7e90c&#45;&gt;dir_06113b60808b1bbb52a01dfd2c3a8657</title>
<path fill="none" stroke="black" d="M204.084,-438.697C203.289,-430.983 203.062,-421.712 203.405,-413.112"/>
<polygon fill="black" stroke="black" points="206.898,-413.324 204.105,-403.104 199.915,-412.836 206.898,-413.324"/>
<g id="a_edge7&#45;headlabel"><a xlink:href="dir_000065_000067.html" target="_top" xlink:title="1">
<text text-anchor="middle" x="209.48" y="-414.608" font-family="Helvetica,sans-Serif" font-size="10.00">1</text>
</a>
</g>
</g>
<!-- dir_7205f054df4e14abb60715afe3e7e90c&#45;&gt;dir_d0f3276f03e9a9cb8f8ba3f2a5ea1262 -->
<g id="edge8" class="edge"><title>dir_7205f054df4e14abb60715afe3e7e90c&#45;&gt;dir_d0f3276f03e9a9cb8f8ba3f2a5ea1262</title>
<path fill="none" stroke="black" d="M222.035,-438.901C232.821,-428.56 248.338,-415.082 262,-403 297.834,-371.312 311.524,-367.87 342,-331 360.074,-309.134 376.36,-281.064 388.699,-260.934"/>
<polygon fill="black" stroke="black" points="391.765,-262.632 394.083,-252.294 385.824,-258.93 391.765,-262.632"/>
<g id="a_edge8&#45;headlabel"><a xlink:href="dir_000065_000064.html" target="_top" xlink:title="1">
<text text-anchor="middle" x="392.274" y="-264.684" font-family="Helvetica,sans-Serif" font-size="10.00">1</text>
</a>
</g>
</g>
<!-- dir_f6a0a87962fcbf90fc709c1bf5ba5a00&#45;&gt;dir_a2f0e5642e47e7ed59fe0f0829eafb5f -->
<g id="edge13" class="edge"><title>dir_f6a0a87962fcbf90fc709c1bf5ba5a00&#45;&gt;dir_a2f0e5642e47e7ed59fe0f0829eafb5f</title>
<path fill="none" stroke="black" d="M311.47,-143.861C302.537,-124.832 286.269,-93.9169 266,-72 254.633,-59.7093 239.974,-48.5847 226.635,-39.7373"/>
<polygon fill="black" stroke="black" points="228.414,-36.7201 218.108,-34.2628 224.632,-42.6106 228.414,-36.7201"/>
<g id="a_edge13&#45;headlabel"><a xlink:href="dir_000078_000020.html" target="_top" xlink:title="4">
<text text-anchor="middle" x="232.972" y="-33.7728" font-family="Helvetica,sans-Serif" font-size="10.00">4</text>
</a>
</g>
</g>
<!-- dir_35f904a890c1431d13964486334c23a9&#45;&gt;dir_652267079d823ee01f6c6cf98db9085b -->
<g id="edge14" class="edge"><title>dir_35f904a890c1431d13964486334c23a9&#45;&gt;dir_652267079d823ee01f6c6cf98db9085b</title>
<path fill="none" stroke="black" d="M242.419,-309.19C221.38,-306.177 192.574,-299.933 170,-287 158.11,-280.188 147.358,-269.572 138.251,-259.704"/>
<polygon fill="black" stroke="black" points="140.617,-257.102 131.311,-252.037 135.427,-261.799 140.617,-257.102"/>
<g id="a_edge14&#45;headlabel"><a xlink:href="dir_000075_000081.html" target="_top" xlink:title="1">
<text text-anchor="middle" x="145.134" y="-255.361" font-family="Helvetica,sans-Serif" font-size="10.00">1</text>
</a>
</g>
</g>
<!-- dir_35f904a890c1431d13964486334c23a9&#45;&gt;dir_a2f0e5642e47e7ed59fe0f0829eafb5f -->
<g id="edge15" class="edge"><title>dir_35f904a890c1431d13964486334c23a9&#45;&gt;dir_a2f0e5642e47e7ed59fe0f0829eafb5f</title>
<path fill="none" stroke="black" d="M297.606,-297.93C302.141,-294.771 306.497,-291.116 310,-287 353.185,-236.262 378.188,-206.463 355,-144 333.906,-87.176 268.978,-50.8389 227.424,-32.7454"/>
<polygon fill="black" stroke="black" points="228.745,-29.5042 218.171,-28.8483 226.028,-35.9554 228.745,-29.5042"/>
<g id="a_edge15&#45;headlabel"><a xlink:href="dir_000075_000020.html" target="_top" xlink:title="3">
<text text-anchor="middle" x="233.16" y="-25.7827" font-family="Helvetica,sans-Serif" font-size="10.00">3</text>
</a>
</g>
</g>
<!-- dir_35f904a890c1431d13964486334c23a9&#45;&gt;dir_7205f054df4e14abb60715afe3e7e90c -->
<g id="edge16" class="edge"><title>dir_35f904a890c1431d13964486334c23a9&#45;&gt;dir_7205f054df4e14abb60715afe3e7e90c</title>
<path fill="none" stroke="black" d="M268.627,-331.115C266.635,-349.58 261.905,-379.495 251,-403 246.447,-412.814 239.791,-422.492 233.161,-430.838"/>
<polygon fill="black" stroke="black" points="230.328,-428.771 226.619,-438.695 235.707,-433.25 230.328,-428.771"/>
<g id="a_edge16&#45;headlabel"><a xlink:href="dir_000075_000065.html" target="_top" xlink:title="1">
<text text-anchor="middle" x="230.446" y="-421.692" font-family="Helvetica,sans-Serif" font-size="10.00">1</text>
</a>
</g>
</g>
<!-- dir_35f904a890c1431d13964486334c23a9&#45;&gt;dir_f6a0a87962fcbf90fc709c1bf5ba5a00 -->
<g id="edge17" class="edge"><title>dir_35f904a890c1431d13964486334c23a9&#45;&gt;dir_f6a0a87962fcbf90fc709c1bf5ba5a00</title>
<path fill="none" stroke="black" d="M278.625,-294.943C279.827,-292.312 280.994,-289.605 282,-287 294.612,-254.362 305.573,-215.539 312.224,-190.138"/>
<polygon fill="black" stroke="black" points="315.697,-190.688 314.803,-180.131 308.918,-188.941 315.697,-190.688"/>
<g id="a_edge17&#45;headlabel"><a xlink:href="dir_000075_000078.html" target="_top" xlink:title="1">
<text text-anchor="middle" x="317.549" y="-192.378" font-family="Helvetica,sans-Serif" font-size="10.00">1</text>
</a>
</g>
</g>
<!-- dir_35f904a890c1431d13964486334c23a9&#45;&gt;dir_6bc97c5ccce2964f7b25f8377ac95818 -->
<g id="edge18" class="edge"><title>dir_35f904a890c1431d13964486334c23a9&#45;&gt;dir_6bc97c5ccce2964f7b25f8377ac95818</title>
<path fill="none" stroke="black" d="M270.585,-294.632C270.502,-270.924 267.109,-228.165 246,-200 234.789,-185.042 220.124,-195.023 209,-180 195.842,-162.231 191.699,-137.218 190.642,-118.232"/>
<polygon fill="black" stroke="black" points="194.137,-118.008 190.333,-108.12 187.14,-118.222 194.137,-118.008"/>
<g id="a_edge18&#45;headlabel"><a xlink:href="dir_000075_000083.html" target="_top" xlink:title="1">
<text text-anchor="middle" x="197.085" y="-119.015" font-family="Helvetica,sans-Serif" font-size="10.00">1</text>
</a>
</g>
</g>
<!-- dir_35f904a890c1431d13964486334c23a9&#45;&gt;dir_d0f3276f03e9a9cb8f8ba3f2a5ea1262 -->
<g id="edge19" class="edge"><title>dir_35f904a890c1431d13964486334c23a9&#45;&gt;dir_d0f3276f03e9a9cb8f8ba3f2a5ea1262</title>
<path fill="none" stroke="black" d="M297.645,-302.409C305.472,-299.845 314.03,-297.183 322,-295 337.808,-290.671 343.671,-294.957 358,-287 370.212,-280.219 381.382,-269.607 390.134,-259.734"/>
<polygon fill="black" stroke="black" points="392.834,-261.961 396.609,-252.061 387.485,-257.446 392.834,-261.961"/>
<g id="a_edge19&#45;headlabel"><a xlink:href="dir_000075_000064.html" target="_top" xlink:title="1">
<text text-anchor="middle" x="392.686" y="-264.039" font-family="Helvetica,sans-Serif" font-size="10.00">1</text>
</a>
</g>
</g>
<!-- dir_6bc97c5ccce2964f7b25f8377ac95818&#45;&gt;dir_a2f0e5642e47e7ed59fe0f0829eafb5f -->
<g id="edge20" class="edge"><title>dir_6bc97c5ccce2964f7b25f8377ac95818&#45;&gt;dir_a2f0e5642e47e7ed59fe0f0829eafb5f</title>
<path fill="none" stroke="black" d="M191,-71.6966C191,-63.9827 191,-54.7125 191,-46.1124"/>
<polygon fill="black" stroke="black" points="194.5,-46.1043 191,-36.1043 187.5,-46.1044 194.5,-46.1043"/>
<g id="a_edge20&#45;headlabel"><a xlink:href="dir_000083_000020.html" target="_top" xlink:title="12">
<text text-anchor="middle" x="197.339" y="-47.199" font-family="Helvetica,sans-Serif" font-size="10.00">12</text>
</a>
</g>
</g>
<!-- dir_6bc97c5ccce2964f7b25f8377ac95818&#45;&gt;dir_909774b1a000bf73b2cf501716b773f3 -->
<g id="edge21" class="edge"><title>dir_6bc97c5ccce2964f7b25f8377ac95818&#45;&gt;dir_909774b1a000bf73b2cf501716b773f3</title>
<path fill="none" stroke="black" d="M210.334,-108.104C217.631,-116.298 225.687,-126.282 232.385,-135.359"/>
<polygon fill="black" stroke="black" points="229.669,-137.58 238.32,-143.697 235.372,-133.52 229.669,-137.58"/>
<g id="a_edge21&#45;headlabel"><a xlink:href="dir_000083_000077.html" target="_top" xlink:title="1">
<text text-anchor="middle" x="225.271" y="-133.799" font-family="Helvetica,sans-Serif" font-size="10.00">1</text>
</a>
</g>
</g>
<!-- dir_06113b60808b1bbb52a01dfd2c3a8657&#45;&gt;dir_72da96c41019f509fc15d3101528a281 -->
<g id="edge24" class="edge"><title>dir_06113b60808b1bbb52a01dfd2c3a8657&#45;&gt;dir_72da96c41019f509fc15d3101528a281</title>
<path fill="none" stroke="black" d="M209.082,-366.908C207.715,-341.446 205.129,-293.284 203.489,-262.735"/>
<polygon fill="black" stroke="black" points="206.963,-262.15 202.932,-252.352 199.973,-262.525 206.963,-262.15"/>
<g id="a_edge24&#45;headlabel"><a xlink:href="dir_000067_000082.html" target="_top" xlink:title="1">
<text text-anchor="middle" x="209.991" y="-263.087" font-family="Helvetica,sans-Serif" font-size="10.00">1</text>
</a>
</g>
</g>
<!-- dir_06113b60808b1bbb52a01dfd2c3a8657&#45;&gt;dir_a2f0e5642e47e7ed59fe0f0829eafb5f -->
<g id="edge22" class="edge"><title>dir_06113b60808b1bbb52a01dfd2c3a8657&#45;&gt;dir_a2f0e5642e47e7ed59fe0f0829eafb5f</title>
<path fill="none" stroke="black" d="M177.84,-373.717C141.721,-360.236 84.9045,-332.763 60,-287 12.6352,-199.965 56.3804,-148.794 119,-72 129.042,-59.6851 142.567,-48.7439 155.183,-40.0471"/>
<polygon fill="black" stroke="black" points="157.312,-42.8347 163.718,-34.3955 153.448,-36.9983 157.312,-42.8347"/>
<g id="a_edge22&#45;headlabel"><a xlink:href="dir_000067_000020.html" target="_top" xlink:title="16">
<text text-anchor="middle" x="155.883" y="-44.6866" font-family="Helvetica,sans-Serif" font-size="10.00">16</text>
</a>
</g>
</g>
<!-- dir_06113b60808b1bbb52a01dfd2c3a8657&#45;&gt;dir_7205f054df4e14abb60715afe3e7e90c -->
<g id="edge23" class="edge"><title>dir_06113b60808b1bbb52a01dfd2c3a8657&#45;&gt;dir_7205f054df4e14abb60715afe3e7e90c</title>
<path fill="none" stroke="black" d="M215.895,-403.104C216.701,-410.791 216.937,-420.054 216.604,-428.665"/>
<polygon fill="black" stroke="black" points="213.109,-428.48 215.916,-438.697 220.092,-428.96 213.109,-428.48"/>
<g id="a_edge23&#45;headlabel"><a xlink:href="dir_000067_000065.html" target="_top" xlink:title="3">
<text text-anchor="middle" x="210.522" y="-422.2" font-family="Helvetica,sans-Serif" font-size="10.00">3</text>
</a>
</g>
</g>
<!-- dir_06113b60808b1bbb52a01dfd2c3a8657&#45;&gt;dir_35f904a890c1431d13964486334c23a9 -->
<g id="edge25" class="edge"><title>dir_06113b60808b1bbb52a01dfd2c3a8657&#45;&gt;dir_35f904a890c1431d13964486334c23a9</title>
<path fill="none" stroke="black" d="M224.831,-366.697C232.025,-358.305 240.797,-348.07 248.69,-338.861"/>
<polygon fill="black" stroke="black" points="251.489,-340.975 255.339,-331.104 246.174,-336.419 251.489,-340.975"/>
<g id="a_edge25&#45;headlabel"><a xlink:href="dir_000067_000075.html" target="_top" xlink:title="2">
<text text-anchor="middle" x="251.305" y="-343.052" font-family="Helvetica,sans-Serif" font-size="10.00">2</text>
</a>
</g>
</g>
<!-- dir_06113b60808b1bbb52a01dfd2c3a8657&#45;&gt;dir_d0f3276f03e9a9cb8f8ba3f2a5ea1262 -->
<g id="edge26" class="edge"><title>dir_06113b60808b1bbb52a01dfd2c3a8657&#45;&gt;dir_d0f3276f03e9a9cb8f8ba3f2a5ea1262</title>
<path fill="none" stroke="black" d="M236.767,-366.942C254.43,-357.248 277.561,-344.395 297,-331 321.929,-313.822 326.821,-307.607 349,-287 358.576,-278.103 368.733,-267.913 378.034,-258.925"/>
<polygon fill="black" stroke="black" points="380.455,-261.453 385.282,-252.021 375.627,-256.384 380.455,-261.453"/>
<g id="a_edge26&#45;headlabel"><a xlink:href="dir_000067_000064.html" target="_top" xlink:title="2">
<text text-anchor="middle" x="379.81" y="-263.488" font-family="Helvetica,sans-Serif" font-size="10.00">2</text>
</a>
</g>
</g>
<!-- dir_d0f3276f03e9a9cb8f8ba3f2a5ea1262&#45;&gt;dir_652267079d823ee01f6c6cf98db9085b -->
<g id="edge27" class="edge"><title>dir_d0f3276f03e9a9cb8f8ba3f2a5ea1262&#45;&gt;dir_652267079d823ee01f6c6cf98db9085b</title>
<path fill="none" stroke="black" d="M387.363,-252.072C368.562,-266.355 339.881,-284.871 311,-291 295.675,-294.252 185.325,-294.252 170,-291 152.667,-287.322 138.388,-273.549 128.336,-260.465"/>
<polygon fill="black" stroke="black" points="131.009,-258.185 122.35,-252.079 125.311,-262.252 131.009,-258.185"/>
<g id="a_edge27&#45;headlabel"><a xlink:href="dir_000064_000081.html" target="_top" xlink:title="6">
<text text-anchor="middle" x="135.408" y="-256.961" font-family="Helvetica,sans-Serif" font-size="10.00">6</text>
</a>
</g>
</g>
<!-- dir_d0f3276f03e9a9cb8f8ba3f2a5ea1262&#45;&gt;dir_72da96c41019f509fc15d3101528a281 -->
<g id="edge30" class="edge"><title>dir_d0f3276f03e9a9cb8f8ba3f2a5ea1262&#45;&gt;dir_72da96c41019f509fc15d3101528a281</title>
<path fill="none" stroke="black" d="M372.331,-234C329.409,-234 286.487,-234 243.565,-234"/>
<polygon fill="black" stroke="black" points="243.535,-230.5 233.535,-234 243.535,-237.5 243.535,-230.5"/>
<g id="a_edge30&#45;headlabel"><a xlink:href="dir_000064_000082.html" target="_top" xlink:title="1">
<text text-anchor="middle" x="247.13" y="-225.161" font-family="Helvetica,sans-Serif" font-size="10.00">1</text>
</a>
</g>
</g>
<!-- dir_d0f3276f03e9a9cb8f8ba3f2a5ea1262&#45;&gt;dir_a2f0e5642e47e7ed59fe0f0829eafb5f -->
<g id="edge28" class="edge"><title>dir_d0f3276f03e9a9cb8f8ba3f2a5ea1262&#45;&gt;dir_a2f0e5642e47e7ed59fe0f0829eafb5f</title>
<path fill="none" stroke="black" d="M412.32,-215.986C417.569,-183.659 423.825,-112.942 388,-72 367.162,-48.186 279.433,-31.7944 228.347,-24.0659"/>
<polygon fill="black" stroke="black" points="228.747,-20.5872 218.344,-22.5923 227.727,-27.5124 228.747,-20.5872"/>
<g id="a_edge28&#45;headlabel"><a xlink:href="dir_000064_000020.html" target="_top" xlink:title="15">
<text text-anchor="middle" x="232.717" y="-15.802" font-family="Helvetica,sans-Serif" font-size="10.00">15</text>
</a>
</g>
</g>
<!-- dir_d0f3276f03e9a9cb8f8ba3f2a5ea1262&#45;&gt;dir_7205f054df4e14abb60715afe3e7e90c -->
<g id="edge29" class="edge"><title>dir_d0f3276f03e9a9cb8f8ba3f2a5ea1262&#45;&gt;dir_7205f054df4e14abb60715afe3e7e90c</title>
<path fill="none" stroke="black" d="M406.996,-252.294C399.307,-272.321 380.842,-305.785 360,-331 329.524,-367.87 315.834,-371.312 280,-403 268.837,-412.872 256.436,-423.676 245.103,-432.939"/>
<polygon fill="black" stroke="black" points="242.686,-430.391 237.073,-439.376 247.064,-435.852 242.686,-430.391"/>
<g id="a_edge29&#45;headlabel"><a xlink:href="dir_000064_000065.html" target="_top" xlink:title="1">
<text text-anchor="middle" x="243.715" y="-423.427" font-family="Helvetica,sans-Serif" font-size="10.00">1</text>
</a>
</g>
</g>
<!-- dir_d0f3276f03e9a9cb8f8ba3f2a5ea1262&#45;&gt;dir_f6a0a87962fcbf90fc709c1bf5ba5a00 -->
<g id="edge31" class="edge"><title>dir_d0f3276f03e9a9cb8f8ba3f2a5ea1262&#45;&gt;dir_f6a0a87962fcbf90fc709c1bf5ba5a00</title>
<path fill="none" stroke="black" d="M386.753,-215.697C375.418,-206.881 361.47,-196.032 349.181,-186.474"/>
<polygon fill="black" stroke="black" points="351.034,-183.481 340.991,-180.104 346.736,-189.007 351.034,-183.481"/>
<g id="a_edge31&#45;headlabel"><a xlink:href="dir_000064_000078.html" target="_top" xlink:title="2">
<text text-anchor="middle" x="355.614" y="-180.947" font-family="Helvetica,sans-Serif" font-size="10.00">2</text>
</a>
</g>
</g>
<!-- dir_d0f3276f03e9a9cb8f8ba3f2a5ea1262&#45;&gt;dir_6bc97c5ccce2964f7b25f8377ac95818 -->
<g id="edge32" class="edge"><title>dir_d0f3276f03e9a9cb8f8ba3f2a5ea1262&#45;&gt;dir_6bc97c5ccce2964f7b25f8377ac95818</title>
<path fill="none" stroke="black" d="M402.831,-215.713C394.819,-195.662 378.96,-162.943 355,-144 324.794,-120.118 283.515,-106.854 249.928,-99.5671"/>
<polygon fill="black" stroke="black" points="250.27,-96.0649 239.772,-97.4925 248.869,-102.923 250.27,-96.0649"/>
<g id="a_edge32&#45;headlabel"><a xlink:href="dir_000064_000083.html" target="_top" xlink:title="4">
<text text-anchor="middle" x="254.36" y="-91.5024" font-family="Helvetica,sans-Serif" font-size="10.00">4</text>
</a>
</g>
</g>
<!-- dir_d0f3276f03e9a9cb8f8ba3f2a5ea1262&#45;&gt;dir_06113b60808b1bbb52a01dfd2c3a8657 -->
<g id="edge33" class="edge"><title>dir_d0f3276f03e9a9cb8f8ba3f2a5ea1262&#45;&gt;dir_06113b60808b1bbb52a01dfd2c3a8657</title>
<path fill="none" stroke="black" d="M400.671,-252.259C392.006,-262.576 379.043,-275.811 367,-287 344.821,-307.607 339.929,-313.822 315,-331 295.106,-344.708 271.345,-357.85 251.344,-367.617"/>
<polygon fill="black" stroke="black" points="249.678,-364.534 242.154,-371.993 252.687,-370.854 249.678,-364.534"/>
<g id="a_edge33&#45;headlabel"><a xlink:href="dir_000064_000067.html" target="_top" xlink:title="2">
<text text-anchor="middle" x="251.703" y="-357.925" font-family="Helvetica,sans-Serif" font-size="10.00">2</text>
</a>
</g>
</g>
<!-- dir_d0f3276f03e9a9cb8f8ba3f2a5ea1262&#45;&gt;dir_909774b1a000bf73b2cf501716b773f3 -->
<g id="edge34" class="edge"><title>dir_d0f3276f03e9a9cb8f8ba3f2a5ea1262&#45;&gt;dir_909774b1a000bf73b2cf501716b773f3</title>
<path fill="none" stroke="black" d="M372.475,-218.005C347.249,-207.558 312.977,-193.187 283,-180 282.907,-179.959 282.814,-179.918 282.721,-179.877"/>
<polygon fill="black" stroke="black" points="284.394,-176.791 273.837,-175.907 281.539,-183.182 284.394,-176.791"/>
<g id="a_edge34&#45;headlabel"><a xlink:href="dir_000064_000077.html" target="_top" xlink:title="3">
<text text-anchor="middle" x="288.835" y="-173.166" font-family="Helvetica,sans-Serif" font-size="10.00">3</text>
</a>
</g>
</g>
<!-- dir_909774b1a000bf73b2cf501716b773f3&#45;&gt;dir_a2f0e5642e47e7ed59fe0f0829eafb5f -->
<g id="edge35" class="edge"><title>dir_909774b1a000bf73b2cf501716b773f3&#45;&gt;dir_a2f0e5642e47e7ed59fe0f0829eafb5f</title>
<path fill="none" stroke="black" d="M250.512,-143.782C254.456,-125.227 258.124,-95.2371 248,-72 243.067,-60.6765 234.389,-50.6824 225.271,-42.5119"/>
<polygon fill="black" stroke="black" points="227.499,-39.8124 217.58,-36.0884 223.011,-45.185 227.499,-39.8124"/>
<g id="a_edge35&#45;headlabel"><a xlink:href="dir_000077_000020.html" target="_top" xlink:title="3">
<text text-anchor="middle" x="232.078" y="-37.4374" font-family="Helvetica,sans-Serif" font-size="10.00">3</text>
</a>
</g>
</g>
<!-- dir_909774b1a000bf73b2cf501716b773f3&#45;&gt;dir_6bc97c5ccce2964f7b25f8377ac95818 -->
<g id="edge36" class="edge"><title>dir_909774b1a000bf73b2cf501716b773f3&#45;&gt;dir_6bc97c5ccce2964f7b25f8377ac95818</title>
<path fill="none" stroke="black" d="M226.489,-143.697C219.18,-135.474 211.129,-125.483 204.453,-116.421"/>
<polygon fill="black" stroke="black" points="207.189,-114.229 198.544,-108.104 201.483,-118.283 207.189,-114.229"/>
<g id="a_edge36&#45;headlabel"><a xlink:href="dir_000077_000083.html" target="_top" xlink:title="3">
<text text-anchor="middle" x="211.586" y="-113.014" font-family="Helvetica,sans-Serif" font-size="10.00">3</text>
</a>
</g>
</g>
</g>
</svg>
