<?xml version="1.0" encoding="UTF-8" standalone="no"?>
<!DOCTYPE svg PUBLIC "-//W3C//DTD SVG 1.1//EN"
 "http://www.w3.org/Graphics/SVG/1.1/DTD/svg11.dtd">
<!-- Generated by graphviz version 2.38.0 (20140413.2041)
 -->
<!-- Title: /home/travis/build/STORM&#45;IRIT/Radium&#45;Engine/src/Core/Geometry/Normal Pages: 1 -->
<svg width="366pt" height="439pt"
 viewBox="0.00 0.00 366.00 439.00" xmlns="http://www.w3.org/2000/svg" xmlns:xlink="http://www.w3.org/1999/xlink">
<g id="graph0" class="graph" transform="scale(1 1) rotate(0) translate(4 435)">
<title>/home/travis/build/STORM&#45;IRIT/Radium&#45;Engine/src/Core/Geometry/Normal</title>
<polygon fill="white" stroke="none" points="-4,4 -4,-435 362,-435 362,4 -4,4"/>
<g id="clust1" class="cluster"><title>clusterdir_cb2b5dfd43482fb277f6333d539f1f06</title>
<g id="a_clust1"><a xlink:href="dir_cb2b5dfd43482fb277f6333d539f1f06.html" target="_top" xlink:title="Geometry">
<polygon fill="#ddddee" stroke="black" points="164,-352 164,-423 234,-423 234,-352 164,-352"/>
<text text-anchor="middle" x="199" y="-411" font-family="Helvetica,sans-Serif" font-size="10.00">Geometry</text>
</a>
</g>
</g>
<!-- dir_5db410063a606e3e3ceccc8766ddb4e9 -->
<g id="node1" class="node"><title>dir_5db410063a606e3e3ceccc8766ddb4e9</title>
<g id="a_node1"><a xlink:href="dir_5db410063a606e3e3ceccc8766ddb4e9.html" target="_top" xlink:title="Normal">
<polygon fill="#eeeeff" stroke="black" points="226,-396 172,-396 172,-360 226,-360 226,-396"/>
<text text-anchor="middle" x="199" y="-375.5" font-family="Helvetica,sans-Serif" font-size="10.00">Normal</text>
</a>
</g>
</g>
<!-- dir_1456dd235032e023892318efbecb420b -->
<g id="node2" class="node"><title>dir_1456dd235032e023892318efbecb420b</title>
<g id="a_node2"><a xlink:href="dir_1456dd235032e023892318efbecb420b.html" target="_top" xlink:title="Containers">
<polygon fill="none" stroke="black" points="172,-252 104,-252 104,-216 172,-216 172,-252"/>
<text text-anchor="middle" x="138" y="-231.5" font-family="Helvetica,sans-Serif" font-size="10.00">Containers</text>
</a>
</g>
</g>
<!-- dir_5db410063a606e3e3ceccc8766ddb4e9&#45;&gt;dir_1456dd235032e023892318efbecb420b -->
<g id="edge12" class="edge"><title>dir_5db410063a606e3e3ceccc8766ddb4e9&#45;&gt;dir_1456dd235032e023892318efbecb420b</title>
<path fill="none" stroke="black" d="M197.391,-359.884C195.155,-341.417 190.056,-311.501 179,-288 174.394,-278.21 167.724,-268.539 161.097,-260.192"/>
<polygon fill="black" stroke="black" points="163.647,-257.783 154.563,-252.331 158.264,-262.258 163.647,-257.783"/>
<g id="a_edge12&#45;headlabel"><a xlink:href="dir_000046_000033.html" target="_top" xlink:title="1">
<text text-anchor="middle" x="168.128" y="-256.233" font-family="Helvetica,sans-Serif" font-size="10.00">1</text>
</a>
</g>
</g>
<!-- dir_d080e052e6032887076b6b5756e5361d -->
<g id="node3" class="node"><title>dir_d080e052e6032887076b6b5756e5361d</title>
<g id="a_node3"><a xlink:href="dir_d080e052e6032887076b6b5756e5361d.html" target="_top" xlink:title="Mesh">
<polygon fill="white" stroke="red" points="189,-108 135,-108 135,-72 189,-72 189,-108"/>
<text text-anchor="middle" x="162" y="-87.5" font-family="Helvetica,sans-Serif" font-size="10.00">Mesh</text>
</a>
</g>
</g>
<!-- dir_5db410063a606e3e3ceccc8766ddb4e9&#45;&gt;dir_d080e052e6032887076b6b5756e5361d -->
<g id="edge13" class="edge"><title>dir_5db410063a606e3e3ceccc8766ddb4e9&#45;&gt;dir_d080e052e6032887076b6b5756e5361d</title>
<path fill="none" stroke="black" d="M202.317,-359.802C209.183,-320.465 222.377,-221.356 198,-144 194.923,-134.236 189.406,-124.643 183.601,-116.36"/>
<polygon fill="black" stroke="black" points="186.328,-114.162 177.537,-108.249 180.722,-118.354 186.328,-114.162"/>
<g id="a_edge13&#45;headlabel"><a xlink:href="dir_000046_000054.html" target="_top" xlink:title="1">
<text text-anchor="middle" x="190.755" y="-112.841" font-family="Helvetica,sans-Serif" font-size="10.00">1</text>
</a>
</g>
</g>
<!-- dir_15537c5ca5277b4bdb75eea0337000f7 -->
<g id="node4" class="node"><title>dir_15537c5ca5277b4bdb75eea0337000f7</title>
<g id="a_node4"><a xlink:href="dir_15537c5ca5277b4bdb75eea0337000f7.html" target="_top" xlink:title="Adjacency">
<polygon fill="none" stroke="black" points="170.5,-324 105.5,-324 105.5,-288 170.5,-288 170.5,-324"/>
<text text-anchor="middle" x="138" y="-303.5" font-family="Helvetica,sans-Serif" font-size="10.00">Adjacency</text>
</a>
</g>
</g>
<!-- dir_5db410063a606e3e3ceccc8766ddb4e9&#45;&gt;dir_15537c5ca5277b4bdb75eea0337000f7 -->
<g id="edge14" class="edge"><title>dir_5db410063a606e3e3ceccc8766ddb4e9&#45;&gt;dir_15537c5ca5277b4bdb75eea0337000f7</title>
<path fill="none" stroke="black" d="M183.921,-359.697C176.608,-351.305 167.69,-341.07 159.665,-331.861"/>
<polygon fill="black" stroke="black" points="162.114,-329.344 152.905,-324.104 156.836,-333.943 162.114,-329.344"/>
<g id="a_edge14&#45;headlabel"><a xlink:href="dir_000046_000039.html" target="_top" xlink:title="1">
<text text-anchor="middle" x="166.616" y="-327.689" font-family="Helvetica,sans-Serif" font-size="10.00">1</text>
</a>
</g>
</g>
<!-- dir_46c1a5db994491adfd624732ef5a8c3d -->
<g id="node5" class="node"><title>dir_46c1a5db994491adfd624732ef5a8c3d</title>
<g id="a_node5"><a xlink:href="dir_46c1a5db994491adfd624732ef5a8c3d.html" target="_top" xlink:title="Time">
<polygon fill="none" stroke="black" points="358,-324 304,-324 304,-288 358,-288 358,-324"/>
<text text-anchor="middle" x="331" y="-303.5" font-family="Helvetica,sans-Serif" font-size="10.00">Time</text>
</a>
</g>
</g>
<!-- dir_5db410063a606e3e3ceccc8766ddb4e9&#45;&gt;dir_46c1a5db994491adfd624732ef5a8c3d -->
<g id="edge15" class="edge"><title>dir_5db410063a606e3e3ceccc8766ddb4e9&#45;&gt;dir_46c1a5db994491adfd624732ef5a8c3d</title>
<path fill="none" stroke="black" d="M226.031,-362.666C245.83,-352.166 272.919,-337.8 294.619,-326.293"/>
<polygon fill="black" stroke="black" points="296.357,-329.333 303.552,-321.556 293.077,-323.149 296.357,-329.333"/>
<g id="a_edge15&#45;headlabel"><a xlink:href="dir_000046_000059.html" target="_top" xlink:title="1">
<text text-anchor="middle" x="294.511" y="-331.025" font-family="Helvetica,sans-Serif" font-size="10.00">1</text>
</a>
</g>
</g>
<!-- dir_a1f42069ba95676f6b9abbd5065ccf6d -->
<g id="node6" class="node"><title>dir_a1f42069ba95676f6b9abbd5065ccf6d</title>
<g id="a_node6"><a xlink:href="dir_a1f42069ba95676f6b9abbd5065ccf6d.html" target="_top" xlink:title="Math">
<polygon fill="none" stroke="black" points="134,-180 80,-180 80,-144 134,-144 134,-180"/>
<text text-anchor="middle" x="107" y="-159.5" font-family="Helvetica,sans-Serif" font-size="10.00">Math</text>
</a>
</g>
</g>
<!-- dir_5db410063a606e3e3ceccc8766ddb4e9&#45;&gt;dir_a1f42069ba95676f6b9abbd5065ccf6d -->
<g id="edge16" class="edge"><title>dir_5db410063a606e3e3ceccc8766ddb4e9&#45;&gt;dir_a1f42069ba95676f6b9abbd5065ccf6d</title>
<path fill="none" stroke="black" d="M171.809,-370.748C147.71,-363.686 113.681,-349.672 96,-324 68.3024,-283.784 83.419,-223.699 95.8896,-189.442"/>
<polygon fill="black" stroke="black" points="99.1608,-190.687 99.4616,-180.096 92.622,-188.188 99.1608,-190.687"/>
<g id="a_edge16&#45;headlabel"><a xlink:href="dir_000046_000053.html" target="_top" xlink:title="1">
<text text-anchor="middle" x="100.53" y="-192.558" font-family="Helvetica,sans-Serif" font-size="10.00">1</text>
</a>
</g>
</g>
<!-- dir_35ff2dd0a6e4899b08d0fedbc94a27f7 -->
<g id="node7" class="node"><title>dir_35ff2dd0a6e4899b08d0fedbc94a27f7</title>
<g id="a_node7"><a xlink:href="dir_35ff2dd0a6e4899b08d0fedbc94a27f7.html" target="_top" xlink:title="Triangle">
<polygon fill="none" stroke="black" points="134,-36 80,-36 80,-0 134,-0 134,-36"/>
<text text-anchor="middle" x="107" y="-15.5" font-family="Helvetica,sans-Serif" font-size="10.00">Triangle</text>
</a>
</g>
</g>
<!-- dir_5db410063a606e3e3ceccc8766ddb4e9&#45;&gt;dir_35ff2dd0a6e4899b08d0fedbc94a27f7 -->
<g id="edge17" class="edge"><title>dir_5db410063a606e3e3ceccc8766ddb4e9&#45;&gt;dir_35ff2dd0a6e4899b08d0fedbc94a27f7</title>
<path fill="none" stroke="black" d="M171.747,-371.069C117.246,-357.431 0,-318.4 0,-235 0,-235 0,-235 0,-161 0,-111.129 42.6172,-67.6479 74.0599,-42.3548"/>
<polygon fill="black" stroke="black" points="76.451,-44.9285 82.1831,-36.0182 72.1456,-39.4091 76.451,-44.9285"/>
<g id="a_edge17&#45;headlabel"><a xlink:href="dir_000046_000050.html" target="_top" xlink:title="1">
<text text-anchor="middle" x="75.363" y="-46.8781" font-family="Helvetica,sans-Serif" font-size="10.00">1</text>
</a>
</g>
</g>
<!-- dir_f5906172d2c9558d453eb81ef8e5bf93 -->
<g id="node8" class="node"><title>dir_f5906172d2c9558d453eb81ef8e5bf93</title>
<g id="a_node8"><a xlink:href="dir_f5906172d2c9558d453eb81ef8e5bf93.html" target="_top" xlink:title="Index">
<polygon fill="none" stroke="black" points="254,-36 200,-36 200,-0 254,-0 254,-36"/>
<text text-anchor="middle" x="227" y="-15.5" font-family="Helvetica,sans-Serif" font-size="10.00">Index</text>
</a>
</g>
</g>
<!-- dir_5db410063a606e3e3ceccc8766ddb4e9&#45;&gt;dir_f5906172d2c9558d453eb81ef8e5bf93 -->
<g id="edge18" class="edge"><title>dir_5db410063a606e3e3ceccc8766ddb4e9&#45;&gt;dir_f5906172d2c9558d453eb81ef8e5bf93</title>
<path fill="none" stroke="black" d="M215.708,-359.812C238.354,-334.622 276,-285.199 276,-235 276,-235 276,-235 276,-161 276,-118.775 256.4,-73.1603 241.992,-45.3339"/>
<polygon fill="black" stroke="black" points="244.949,-43.4419 237.153,-36.268 238.774,-46.7381 244.949,-43.4419"/>
<g id="a_edge18&#45;headlabel"><a xlink:href="dir_000046_000051.html" target="_top" xlink:title="1">
<text text-anchor="middle" x="249.147" y="-42.7761" font-family="Helvetica,sans-Serif" font-size="10.00">1</text>
</a>
</g>
</g>
<!-- dir_1456dd235032e023892318efbecb420b&#45;&gt;dir_a1f42069ba95676f6b9abbd5065ccf6d -->
<g id="edge1" class="edge"><title>dir_1456dd235032e023892318efbecb420b&#45;&gt;dir_a1f42069ba95676f6b9abbd5065ccf6d</title>
<path fill="none" stroke="black" d="M124.421,-215.697C120.117,-207.813 115.687,-198.304 112.184,-189.546"/>
<polygon fill="black" stroke="black" points="115.441,-188.261 108.68,-180.104 108.878,-190.697 115.441,-188.261"/>
<g id="a_edge1&#45;headlabel"><a xlink:href="dir_000033_000053.html" target="_top" xlink:title="1">
<text text-anchor="middle" x="119.353" y="-188.143" font-family="Helvetica,sans-Serif" font-size="10.00">1</text>
</a>
</g>
</g>
<!-- dir_d080e052e6032887076b6b5756e5361d&#45;&gt;dir_1456dd235032e023892318efbecb420b -->
<g id="edge2" class="edge"><title>dir_d080e052e6032887076b6b5756e5361d&#45;&gt;dir_1456dd235032e023892318efbecb420b</title>
<path fill="none" stroke="black" d="M159.095,-108.189C154.999,-132.424 147.484,-176.888 142.618,-205.679"/>
<polygon fill="black" stroke="black" points="139.11,-205.428 140.895,-215.871 146.013,-206.595 139.11,-205.428"/>
<g id="a_edge2&#45;headlabel"><a xlink:href="dir_000054_000033.html" target="_top" xlink:title="2">
<text text-anchor="middle" x="136.91" y="-198.911" font-family="Helvetica,sans-Serif" font-size="10.00">2</text>
</a>
</g>
</g>
<!-- dir_d080e052e6032887076b6b5756e5361d&#45;&gt;dir_a1f42069ba95676f6b9abbd5065ccf6d -->
<g id="edge3" class="edge"><title>dir_d080e052e6032887076b6b5756e5361d&#45;&gt;dir_a1f42069ba95676f6b9abbd5065ccf6d</title>
<path fill="none" stroke="black" d="M154.456,-108.104C148.762,-116.467 140.928,-126.694 133.209,-135.92"/>
<polygon fill="black" stroke="black" points="130.385,-133.835 126.511,-143.697 135.689,-138.403 130.385,-133.835"/>
<g id="a_edge3&#45;headlabel"><a xlink:href="dir_000054_000053.html" target="_top" xlink:title="7">
<text text-anchor="middle" x="130.579" y="-126.759" font-family="Helvetica,sans-Serif" font-size="10.00">7</text>
</a>
</g>
</g>
<!-- dir_d080e052e6032887076b6b5756e5361d&#45;&gt;dir_35ff2dd0a6e4899b08d0fedbc94a27f7 -->
<g id="edge4" class="edge"><title>dir_d080e052e6032887076b6b5756e5361d&#45;&gt;dir_35ff2dd0a6e4899b08d0fedbc94a27f7</title>
<path fill="none" stroke="black" d="M148.404,-71.6966C141.877,-63.3893 133.932,-53.2771 126.753,-44.1407"/>
<polygon fill="black" stroke="black" points="129.369,-41.8051 120.439,-36.1043 123.865,-46.1299 129.369,-41.8051"/>
<g id="a_edge4&#45;headlabel"><a xlink:href="dir_000054_000050.html" target="_top" xlink:title="1">
<text text-anchor="middle" x="133.823" y="-40.3775" font-family="Helvetica,sans-Serif" font-size="10.00">1</text>
</a>
</g>
</g>
<!-- dir_d080e052e6032887076b6b5756e5361d&#45;&gt;dir_f5906172d2c9558d453eb81ef8e5bf93 -->
<g id="edge5" class="edge"><title>dir_d080e052e6032887076b6b5756e5361d&#45;&gt;dir_f5906172d2c9558d453eb81ef8e5bf93</title>
<path fill="none" stroke="black" d="M178.067,-71.6966C185.939,-63.2198 195.555,-52.8636 204.173,-43.5826"/>
<polygon fill="black" stroke="black" points="206.878,-45.8139 211.117,-36.1043 201.748,-41.0507 206.878,-45.8139"/>
<g id="a_edge5&#45;headlabel"><a xlink:href="dir_000054_000051.html" target="_top" xlink:title="4">
<text text-anchor="middle" x="206.512" y="-47.8799" font-family="Helvetica,sans-Serif" font-size="10.00">4</text>
</a>
</g>
</g>
<!-- dir_15537c5ca5277b4bdb75eea0337000f7&#45;&gt;dir_1456dd235032e023892318efbecb420b -->
<g id="edge6" class="edge"><title>dir_15537c5ca5277b4bdb75eea0337000f7&#45;&gt;dir_1456dd235032e023892318efbecb420b</title>
<path fill="none" stroke="black" d="M138,-287.697C138,-279.983 138,-270.712 138,-262.112"/>
<polygon fill="black" stroke="black" points="141.5,-262.104 138,-252.104 134.5,-262.104 141.5,-262.104"/>
<g id="a_edge6&#45;headlabel"><a xlink:href="dir_000039_000033.html" target="_top" xlink:title="2">
<text text-anchor="middle" x="144.339" y="-263.199" font-family="Helvetica,sans-Serif" font-size="10.00">2</text>
</a>
</g>
</g>
<!-- dir_15537c5ca5277b4bdb75eea0337000f7&#45;&gt;dir_d080e052e6032887076b6b5756e5361d -->
<g id="edge7" class="edge"><title>dir_15537c5ca5277b4bdb75eea0337000f7&#45;&gt;dir_d080e052e6032887076b6b5756e5361d</title>
<path fill="none" stroke="black" d="M157.039,-287.837C166.176,-278.3 176.168,-265.624 181,-252 197.044,-206.761 183.279,-150.345 172.302,-117.721"/>
<polygon fill="black" stroke="black" points="175.503,-116.276 168.877,-108.009 168.902,-118.604 175.503,-116.276"/>
<g id="a_edge7&#45;headlabel"><a xlink:href="dir_000039_000054.html" target="_top" xlink:title="1">
<text text-anchor="middle" x="179.376" y="-116.222" font-family="Helvetica,sans-Serif" font-size="10.00">1</text>
</a>
</g>
</g>
<!-- dir_15537c5ca5277b4bdb75eea0337000f7&#45;&gt;dir_a1f42069ba95676f6b9abbd5065ccf6d -->
<g id="edge8" class="edge"><title>dir_15537c5ca5277b4bdb75eea0337000f7&#45;&gt;dir_a1f42069ba95676f6b9abbd5065ccf6d</title>
<path fill="none" stroke="black" d="M118.961,-287.837C109.824,-278.3 99.8317,-265.624 95,-252 87.8661,-231.884 91.7932,-207.832 96.9917,-189.806"/>
<polygon fill="black" stroke="black" points="100.345,-190.81 100.037,-180.22 93.6734,-188.691 100.345,-190.81"/>
<g id="a_edge8&#45;headlabel"><a xlink:href="dir_000039_000053.html" target="_top" xlink:title="1">
<text text-anchor="middle" x="101.963" y="-192.596" font-family="Helvetica,sans-Serif" font-size="10.00">1</text>
</a>
</g>
</g>
<!-- dir_a1f42069ba95676f6b9abbd5065ccf6d&#45;&gt;dir_1456dd235032e023892318efbecb420b -->
<g id="edge9" class="edge"><title>dir_a1f42069ba95676f6b9abbd5065ccf6d&#45;&gt;dir_1456dd235032e023892318efbecb420b</title>
<path fill="none" stroke="black" d="M120.47,-180.104C124.772,-187.96 129.209,-197.462 132.727,-206.232"/>
<polygon fill="black" stroke="black" points="129.482,-207.548 136.253,-215.697 136.042,-205.104 129.482,-207.548"/>
<g id="a_edge9&#45;headlabel"><a xlink:href="dir_000053_000033.html" target="_top" xlink:title="3">
<text text-anchor="middle" x="125.566" y="-202.67" font-family="Helvetica,sans-Serif" font-size="10.00">3</text>
</a>
</g>
</g>
<!-- dir_a1f42069ba95676f6b9abbd5065ccf6d&#45;&gt;dir_d080e052e6032887076b6b5756e5361d -->
<g id="edge10" class="edge"><title>dir_a1f42069ba95676f6b9abbd5065ccf6d&#45;&gt;dir_d080e052e6032887076b6b5756e5361d</title>
<path fill="none" stroke="black" d="M114.68,-143.697C120.408,-135.305 128.257,-125.07 135.974,-115.861"/>
<polygon fill="black" stroke="black" points="138.784,-117.962 142.666,-108.104 133.484,-113.39 138.784,-117.962"/>
<g id="a_edge10&#45;headlabel"><a xlink:href="dir_000053_000054.html" target="_top" xlink:title="1">
<text text-anchor="middle" x="138.586" y="-120.039" font-family="Helvetica,sans-Serif" font-size="10.00">1</text>
</a>
</g>
</g>
<!-- dir_35ff2dd0a6e4899b08d0fedbc94a27f7&#45;&gt;dir_a1f42069ba95676f6b9abbd5065ccf6d -->
<g id="edge11" class="edge"><title>dir_35ff2dd0a6e4899b08d0fedbc94a27f7&#45;&gt;dir_a1f42069ba95676f6b9abbd5065ccf6d</title>
<path fill="none" stroke="black" d="M107,-36.1893C107,-60.4244 107,-104.888 107,-133.679"/>
<polygon fill="black" stroke="black" points="103.5,-133.871 107,-143.871 110.5,-133.872 103.5,-133.871"/>
<g id="a_edge11&#45;headlabel"><a xlink:href="dir_000050_000053.html" target="_top" xlink:title="1">
<text text-anchor="middle" x="100.661" y="-127.777" font-family="Helvetica,sans-Serif" font-size="10.00">1</text>
</a>
</g>
</g>
</g>
</svg>
