<?xml version="1.0" encoding="UTF-8" standalone="no"?>
<!DOCTYPE svg PUBLIC "-//W3C//DTD SVG 1.1//EN"
 "http://www.w3.org/Graphics/SVG/1.1/DTD/svg11.dtd">
<!-- Generated by graphviz version 2.38.0 (20140413.2041)
 -->
<!-- Title: /home/travis/build/STORM&#45;IRIT/Radium&#45;Engine/src/Core/File Pages: 1 -->
<svg width="414pt" height="591pt"
 viewBox="0.00 0.00 414.00 591.00" xmlns="http://www.w3.org/2000/svg" xmlns:xlink="http://www.w3.org/1999/xlink">
<g id="graph0" class="graph" transform="scale(1 1) rotate(0) translate(4 587)">
<title>/home/travis/build/STORM&#45;IRIT/Radium&#45;Engine/src/Core/File</title>
<polygon fill="white" stroke="none" points="-4,4 -4,-587 410,-587 410,4 -4,4"/>
<g id="clust1" class="cluster"><title>clusterdir_a2f0e5642e47e7ed59fe0f0829eafb5f</title>
<g id="a_clust1"><a xlink:href="dir_a2f0e5642e47e7ed59fe0f0829eafb5f.html" target="_top" xlink:title="Core">
<polygon fill="#ddddee" stroke="black" points="93,-416 93,-575 269,-575 269,-416 93,-416"/>
<text text-anchor="middle" x="181" y="-563" font-family="Helvetica,sans-Serif" font-size="10.00">Core</text>
</a>
</g>
</g>
<g id="clust2" class="cluster"><title>clusterdir_82af7cf9869521097845e89346391773</title>
<g id="a_clust2"><a xlink:href="dir_82af7cf9869521097845e89346391773.html" target="_top">
<polygon fill="#eeeeff" stroke="black" points="101,-424 101,-548 261,-548 261,-424 101,-424"/>
</a>
</g>
</g>
<!-- dir_82af7cf9869521097845e89346391773 -->
<g id="node1" class="node"><title>dir_82af7cf9869521097845e89346391773</title>
<text text-anchor="middle" x="226" y="-519.5" font-family="Helvetica,sans-Serif" font-size="10.00">File</text>
</g>
<!-- dir_84dea4501da675271f82d01829a4a019 -->
<g id="node3" class="node"><title>dir_84dea4501da675271f82d01829a4a019</title>
<g id="a_node3"><a xlink:href="dir_84dea4501da675271f82d01829a4a019.html" target="_top" xlink:title="KeyFrame">
<polygon fill="white" stroke="black" points="225.5,-468 162.5,-468 162.5,-432 225.5,-432 225.5,-468"/>
<text text-anchor="middle" x="194" y="-447.5" font-family="Helvetica,sans-Serif" font-size="10.00">KeyFrame</text>
</a>
</g>
</g>
<!-- dir_82af7cf9869521097845e89346391773&#45;&gt;dir_84dea4501da675271f82d01829a4a019 -->
<g id="edge22" class="edge"><title>dir_82af7cf9869521097845e89346391773&#45;&gt;dir_84dea4501da675271f82d01829a4a019</title>
<path fill="none" stroke="black" d="M218.09,-503.697C214.447,-495.728 210.046,-486.1 206.006,-477.264"/>
<polygon fill="black" stroke="black" points="209.16,-475.744 201.819,-468.104 202.794,-478.654 209.16,-475.744"/>
<g id="a_edge22&#45;headlabel"><a xlink:href="dir_000035_000037.html" target="_top" xlink:title="2">
<text text-anchor="middle" x="213.237" y="-475.333" font-family="Helvetica,sans-Serif" font-size="10.00">2</text>
</a>
</g>
</g>
<!-- dir_1456dd235032e023892318efbecb420b -->
<g id="node4" class="node"><title>dir_1456dd235032e023892318efbecb420b</title>
<g id="a_node4"><a xlink:href="dir_1456dd235032e023892318efbecb420b.html" target="_top" xlink:title="Containers">
<polygon fill="none" stroke="black" points="172,-396 104,-396 104,-360 172,-360 172,-396"/>
<text text-anchor="middle" x="138" y="-375.5" font-family="Helvetica,sans-Serif" font-size="10.00">Containers</text>
</a>
</g>
</g>
<!-- dir_82af7cf9869521097845e89346391773&#45;&gt;dir_1456dd235032e023892318efbecb420b -->
<g id="edge21" class="edge"><title>dir_82af7cf9869521097845e89346391773&#45;&gt;dir_1456dd235032e023892318efbecb420b</title>
<path fill="none" stroke="black" d="M198.877,-508.11C182.96,-499.113 163.892,-485.571 153,-468 141.544,-449.519 138.101,-424.923 137.349,-406.272"/>
<polygon fill="black" stroke="black" points="140.845,-406.008 137.177,-396.068 133.846,-406.126 140.845,-406.008"/>
<g id="a_edge21&#45;headlabel"><a xlink:href="dir_000035_000033.html" target="_top" xlink:title="5">
<text text-anchor="middle" x="143.744" y="-407.054" font-family="Helvetica,sans-Serif" font-size="10.00">5</text>
</a>
</g>
</g>
<!-- dir_a1f42069ba95676f6b9abbd5065ccf6d -->
<g id="node6" class="node"><title>dir_a1f42069ba95676f6b9abbd5065ccf6d</title>
<g id="a_node6"><a xlink:href="dir_a1f42069ba95676f6b9abbd5065ccf6d.html" target="_top" xlink:title="Math">
<polygon fill="none" stroke="black" points="220,-324 166,-324 166,-288 220,-288 220,-324"/>
<text text-anchor="middle" x="193" y="-303.5" font-family="Helvetica,sans-Serif" font-size="10.00">Math</text>
</a>
</g>
</g>
<!-- dir_82af7cf9869521097845e89346391773&#45;&gt;dir_a1f42069ba95676f6b9abbd5065ccf6d -->
<g id="edge23" class="edge"><title>dir_82af7cf9869521097845e89346391773&#45;&gt;dir_a1f42069ba95676f6b9abbd5065ccf6d</title>
<path fill="none" stroke="black" d="M229.248,-503.888C231.046,-493.542 233.095,-480.063 234,-468 235.73,-444.954 238.135,-438.738 234,-416 228.667,-386.675 215.88,-354.978 205.992,-333.365"/>
<polygon fill="black" stroke="black" points="209.104,-331.758 201.69,-324.19 202.766,-334.73 209.104,-331.758"/>
<g id="a_edge23&#45;headlabel"><a xlink:href="dir_000035_000053.html" target="_top" xlink:title="7">
<text text-anchor="middle" x="213.201" y="-331.308" font-family="Helvetica,sans-Serif" font-size="10.00">7</text>
</a>
</g>
</g>
<!-- dir_1efe152df2f2e9cd3517b1174a4598d7 -->
<g id="node8" class="node"><title>dir_1efe152df2f2e9cd3517b1174a4598d7</title>
<g id="a_node8"><a xlink:href="dir_1efe152df2f2e9cd3517b1174a4598d7.html" target="_top" xlink:title="Log">
<polygon fill="none" stroke="black" points="210,-36 156,-36 156,-0 210,-0 210,-36"/>
<text text-anchor="middle" x="183" y="-15.5" font-family="Helvetica,sans-Serif" font-size="10.00">Log</text>
</a>
</g>
</g>
<!-- dir_82af7cf9869521097845e89346391773&#45;&gt;dir_1efe152df2f2e9cd3517b1174a4598d7 -->
<g id="edge24" class="edge"><title>dir_82af7cf9869521097845e89346391773&#45;&gt;dir_1efe152df2f2e9cd3517b1174a4598d7</title>
<path fill="none" stroke="black" d="M198.739,-507.147C138.63,-476.175 0,-402.227 0,-379 0,-379 0,-379 0,-161 0,-87.7089 92.7523,-46.8022 146.191,-29.3162"/>
<polygon fill="black" stroke="black" points="147.513,-32.5694 155.998,-26.2248 145.408,-25.8932 147.513,-32.5694"/>
<g id="a_edge24&#45;headlabel"><a xlink:href="dir_000035_000052.html" target="_top" xlink:title="7">
<text text-anchor="middle" x="144.938" y="-33.8579" font-family="Helvetica,sans-Serif" font-size="10.00">7</text>
</a>
</g>
</g>
<!-- dir_f5906172d2c9558d453eb81ef8e5bf93 -->
<g id="node9" class="node"><title>dir_f5906172d2c9558d453eb81ef8e5bf93</title>
<g id="a_node9"><a xlink:href="dir_f5906172d2c9558d453eb81ef8e5bf93.html" target="_top" xlink:title="Index">
<polygon fill="none" stroke="black" points="333,-36 279,-36 279,-0 333,-0 333,-36"/>
<text text-anchor="middle" x="306" y="-15.5" font-family="Helvetica,sans-Serif" font-size="10.00">Index</text>
</a>
</g>
</g>
<!-- dir_82af7cf9869521097845e89346391773&#45;&gt;dir_f5906172d2c9558d453eb81ef8e5bf93 -->
<g id="edge25" class="edge"><title>dir_82af7cf9869521097845e89346391773&#45;&gt;dir_f5906172d2c9558d453eb81ef8e5bf93</title>
<path fill="none" stroke="black" d="M253.225,-515.001C280.937,-507.759 323.853,-493.283 353,-468 387.778,-437.833 406,-425.038 406,-379 406,-379 406,-379 406,-161 406,-112.492 366.509,-68.8737 337.161,-43.1556"/>
<polygon fill="black" stroke="black" points="339.081,-40.1941 329.193,-36.3872 334.549,-45.529 339.081,-40.1941"/>
<g id="a_edge25&#45;headlabel"><a xlink:href="dir_000035_000051.html" target="_top" xlink:title="1">
<text text-anchor="middle" x="343.658" y="-37.8574" font-family="Helvetica,sans-Serif" font-size="10.00">1</text>
</a>
</g>
</g>
<!-- dir_721a74ea40d2768c46a3c9514389a16b -->
<g id="node10" class="node"><title>dir_721a74ea40d2768c46a3c9514389a16b</title>
<g id="a_node10"><a xlink:href="dir_721a74ea40d2768c46a3c9514389a16b.html" target="_top" xlink:title="Animation">
<polygon fill="white" stroke="red" points="357.5,-180 292.5,-180 292.5,-144 357.5,-144 357.5,-180"/>
<text text-anchor="middle" x="325" y="-159.5" font-family="Helvetica,sans-Serif" font-size="10.00">Animation</text>
</a>
</g>
</g>
<!-- dir_82af7cf9869521097845e89346391773&#45;&gt;dir_721a74ea40d2768c46a3c9514389a16b -->
<g id="edge26" class="edge"><title>dir_82af7cf9869521097845e89346391773&#45;&gt;dir_721a74ea40d2768c46a3c9514389a16b</title>
<path fill="none" stroke="black" d="M253.043,-509.01C294.243,-488.688 368,-443.325 368,-379 368,-379 368,-379 368,-305 368,-263.295 350.8,-217.542 338.156,-189.545"/>
<polygon fill="black" stroke="black" points="341.301,-188.008 333.91,-180.418 334.955,-190.961 341.301,-188.008"/>
<g id="a_edge26&#45;headlabel"><a xlink:href="dir_000035_000028.html" target="_top" xlink:title="2">
<text text-anchor="middle" x="345.392" y="-187.569" font-family="Helvetica,sans-Serif" font-size="10.00">2</text>
</a>
</g>
</g>
<!-- dir_ae4577f0adf729a8fb4ff646d07da33a -->
<g id="node2" class="node"><title>dir_ae4577f0adf729a8fb4ff646d07da33a</title>
<g id="a_node2"><a xlink:href="dir_ae4577f0adf729a8fb4ff646d07da33a.html" target="_top" xlink:title="deprecated">
<polygon fill="white" stroke="black" points="180.5,-540 109.5,-540 109.5,-504 180.5,-504 180.5,-540"/>
<text text-anchor="middle" x="145" y="-519.5" font-family="Helvetica,sans-Serif" font-size="10.00">deprecated</text>
</a>
</g>
</g>
<!-- dir_d080e052e6032887076b6b5756e5361d -->
<g id="node5" class="node"><title>dir_d080e052e6032887076b6b5756e5361d</title>
<g id="a_node5"><a xlink:href="dir_d080e052e6032887076b6b5756e5361d.html" target="_top" xlink:title="Mesh">
<polygon fill="white" stroke="red" points="183,-108 129,-108 129,-72 183,-72 183,-108"/>
<text text-anchor="middle" x="156" y="-87.5" font-family="Helvetica,sans-Serif" font-size="10.00">Mesh</text>
</a>
</g>
</g>
<!-- dir_ae4577f0adf729a8fb4ff646d07da33a&#45;&gt;dir_d080e052e6032887076b6b5756e5361d -->
<g id="edge10" class="edge"><title>dir_ae4577f0adf729a8fb4ff646d07da33a&#45;&gt;dir_d080e052e6032887076b6b5756e5361d</title>
<path fill="none" stroke="black" d="M120.183,-503.982C88.5742,-480.072 38,-433.328 38,-379 38,-379 38,-379 38,-233 38,-180.845 85.6689,-137.624 120.411,-113.05"/>
<polygon fill="black" stroke="black" points="122.66,-115.751 128.928,-107.21 118.702,-109.978 122.66,-115.751"/>
<g id="a_edge10&#45;headlabel"><a xlink:href="dir_000036_000054.html" target="_top" xlink:title="2">
<text text-anchor="middle" x="121.301" y="-117.626" font-family="Helvetica,sans-Serif" font-size="10.00">2</text>
</a>
</g>
</g>
<!-- dir_cb2b5dfd43482fb277f6333d539f1f06 -->
<g id="node7" class="node"><title>dir_cb2b5dfd43482fb277f6333d539f1f06</title>
<g id="a_node7"><a xlink:href="dir_cb2b5dfd43482fb277f6333d539f1f06.html" target="_top" xlink:title="Geometry">
<polygon fill="white" stroke="red" points="225.5,-252 160.5,-252 160.5,-216 225.5,-216 225.5,-252"/>
<text text-anchor="middle" x="193" y="-231.5" font-family="Helvetica,sans-Serif" font-size="10.00">Geometry</text>
</a>
</g>
</g>
<!-- dir_ae4577f0adf729a8fb4ff646d07da33a&#45;&gt;dir_cb2b5dfd43482fb277f6333d539f1f06 -->
<g id="edge11" class="edge"><title>dir_ae4577f0adf729a8fb4ff646d07da33a&#45;&gt;dir_cb2b5dfd43482fb277f6333d539f1f06</title>
<path fill="none" stroke="black" d="M180.868,-504.233C202.852,-493.136 227.913,-478.71 234,-468 245.867,-447.121 250.665,-353.85 229,-288 225.801,-278.276 220.249,-268.694 214.45,-260.408"/>
<polygon fill="black" stroke="black" points="217.185,-258.221 208.405,-252.292 211.571,-262.402 217.185,-258.221"/>
<g id="a_edge11&#45;headlabel"><a xlink:href="dir_000036_000038.html" target="_top" xlink:title="1">
<text text-anchor="middle" x="221.609" y="-256.908" font-family="Helvetica,sans-Serif" font-size="10.00">1</text>
</a>
</g>
</g>
<!-- dir_84dea4501da675271f82d01829a4a019&#45;&gt;dir_1456dd235032e023892318efbecb420b -->
<g id="edge7" class="edge"><title>dir_84dea4501da675271f82d01829a4a019&#45;&gt;dir_1456dd235032e023892318efbecb420b</title>
<path fill="none" stroke="black" d="M180.157,-431.697C173.511,-423.389 165.422,-413.277 158.113,-404.141"/>
<polygon fill="black" stroke="black" points="160.664,-401.727 151.683,-396.104 155.197,-406.099 160.664,-401.727"/>
<g id="a_edge7&#45;headlabel"><a xlink:href="dir_000037_000033.html" target="_top" xlink:title="1">
<text text-anchor="middle" x="165.126" y="-400.26" font-family="Helvetica,sans-Serif" font-size="10.00">1</text>
</a>
</g>
</g>
<!-- dir_84dea4501da675271f82d01829a4a019&#45;&gt;dir_a1f42069ba95676f6b9abbd5065ccf6d -->
<g id="edge8" class="edge"><title>dir_84dea4501da675271f82d01829a4a019&#45;&gt;dir_a1f42069ba95676f6b9abbd5065ccf6d</title>
<path fill="none" stroke="black" d="M193.879,-431.871C193.709,-407.67 193.396,-363.211 193.193,-334.393"/>
<polygon fill="black" stroke="black" points="196.691,-334.164 193.121,-324.189 189.692,-334.214 196.691,-334.164"/>
<g id="a_edge8&#45;headlabel"><a xlink:href="dir_000037_000053.html" target="_top" xlink:title="2">
<text text-anchor="middle" x="199.556" y="-335.239" font-family="Helvetica,sans-Serif" font-size="10.00">2</text>
</a>
</g>
</g>
<!-- dir_84dea4501da675271f82d01829a4a019&#45;&gt;dir_721a74ea40d2768c46a3c9514389a16b -->
<g id="edge9" class="edge"><title>dir_84dea4501da675271f82d01829a4a019&#45;&gt;dir_721a74ea40d2768c46a3c9514389a16b</title>
<path fill="none" stroke="black" d="M206.471,-431.761C229.836,-398.628 280.25,-323.03 307,-252 314.535,-231.992 319.138,-208.205 321.801,-190.258"/>
<polygon fill="black" stroke="black" points="325.292,-190.565 323.185,-180.182 318.357,-189.613 325.292,-190.565"/>
<g id="a_edge9&#45;headlabel"><a xlink:href="dir_000037_000028.html" target="_top" xlink:title="1">
<text text-anchor="middle" x="327.616" y="-192.013" font-family="Helvetica,sans-Serif" font-size="10.00">1</text>
</a>
</g>
</g>
<!-- dir_1456dd235032e023892318efbecb420b&#45;&gt;dir_a1f42069ba95676f6b9abbd5065ccf6d -->
<g id="edge1" class="edge"><title>dir_1456dd235032e023892318efbecb420b&#45;&gt;dir_a1f42069ba95676f6b9abbd5065ccf6d</title>
<path fill="none" stroke="black" d="M145.68,-359.697C151.408,-351.305 159.257,-341.07 166.974,-331.861"/>
<polygon fill="black" stroke="black" points="169.784,-333.962 173.666,-324.104 164.484,-329.39 169.784,-333.962"/>
<g id="a_edge1&#45;headlabel"><a xlink:href="dir_000033_000053.html" target="_top" xlink:title="1">
<text text-anchor="middle" x="169.586" y="-336.039" font-family="Helvetica,sans-Serif" font-size="10.00">1</text>
</a>
</g>
</g>
<!-- dir_d080e052e6032887076b6b5756e5361d&#45;&gt;dir_1456dd235032e023892318efbecb420b -->
<g id="edge2" class="edge"><title>dir_d080e052e6032887076b6b5756e5361d&#45;&gt;dir_1456dd235032e023892318efbecb420b</title>
<path fill="none" stroke="black" d="M148.52,-108.296C144.527,-118.478 140.027,-131.728 138,-144 125.845,-217.585 131.199,-306.035 135.146,-349.769"/>
<polygon fill="black" stroke="black" points="131.677,-350.264 136.107,-359.888 138.645,-349.602 131.677,-350.264"/>
<g id="a_edge2&#45;headlabel"><a xlink:href="dir_000054_000033.html" target="_top" xlink:title="2">
<text text-anchor="middle" x="128.51" y="-344.454" font-family="Helvetica,sans-Serif" font-size="10.00">2</text>
</a>
</g>
</g>
<!-- dir_d080e052e6032887076b6b5756e5361d&#45;&gt;dir_a1f42069ba95676f6b9abbd5065ccf6d -->
<g id="edge3" class="edge"><title>dir_d080e052e6032887076b6b5756e5361d&#45;&gt;dir_a1f42069ba95676f6b9abbd5065ccf6d</title>
<path fill="none" stroke="black" d="M156.959,-108.055C153.628,-138.118 142.62,-202.086 160,-252 163.496,-262.039 169.773,-271.607 176.028,-279.781"/>
<polygon fill="black" stroke="black" points="173.436,-282.143 182.422,-287.756 178.897,-277.765 173.436,-282.143"/>
<g id="a_edge3&#45;headlabel"><a xlink:href="dir_000054_000053.html" target="_top" xlink:title="7">
<text text-anchor="middle" x="168.972" y="-278.615" font-family="Helvetica,sans-Serif" font-size="10.00">7</text>
</a>
</g>
</g>
<!-- dir_d080e052e6032887076b6b5756e5361d&#45;&gt;dir_cb2b5dfd43482fb277f6333d539f1f06 -->
<g id="edge4" class="edge"><title>dir_d080e052e6032887076b6b5756e5361d&#45;&gt;dir_cb2b5dfd43482fb277f6333d539f1f06</title>
<path fill="none" stroke="black" d="M165.07,-108.189C173.939,-132.424 185.812,-176.888 191.335,-205.679"/>
<polygon fill="black" stroke="black" points="187.948,-206.626 193.121,-215.871 194.843,-205.417 187.948,-206.626"/>
<g id="a_edge4&#45;headlabel"><a xlink:href="dir_000054_000038.html" target="_top" xlink:title="2">
<text text-anchor="middle" x="184.531" y="-201.075" font-family="Helvetica,sans-Serif" font-size="10.00">2</text>
</a>
</g>
</g>
<!-- dir_d080e052e6032887076b6b5756e5361d&#45;&gt;dir_1efe152df2f2e9cd3517b1174a4598d7 -->
<g id="edge5" class="edge"><title>dir_d080e052e6032887076b6b5756e5361d&#45;&gt;dir_1efe152df2f2e9cd3517b1174a4598d7</title>
<path fill="none" stroke="black" d="M162.674,-71.6966C165.715,-63.8132 169.383,-54.3042 172.761,-45.5464"/>
<polygon fill="black" stroke="black" points="176.069,-46.6939 176.403,-36.1043 169.538,-44.1748 176.069,-46.6939"/>
<g id="a_edge5&#45;headlabel"><a xlink:href="dir_000054_000052.html" target="_top" xlink:title="3">
<text text-anchor="middle" x="177.425" y="-48.5695" font-family="Helvetica,sans-Serif" font-size="10.00">3</text>
</a>
</g>
</g>
<!-- dir_d080e052e6032887076b6b5756e5361d&#45;&gt;dir_f5906172d2c9558d453eb81ef8e5bf93 -->
<g id="edge6" class="edge"><title>dir_d080e052e6032887076b6b5756e5361d&#45;&gt;dir_f5906172d2c9558d453eb81ef8e5bf93</title>
<path fill="none" stroke="black" d="M183.164,-76.3235C207.3,-65.0598 242.781,-48.5022 269.412,-36.0745"/>
<polygon fill="black" stroke="black" points="271.203,-39.1008 278.785,-31.7002 268.243,-32.7575 271.203,-39.1008"/>
<g id="a_edge6&#45;headlabel"><a xlink:href="dir_000054_000051.html" target="_top" xlink:title="4">
<text text-anchor="middle" x="269.147" y="-40.6938" font-family="Helvetica,sans-Serif" font-size="10.00">4</text>
</a>
</g>
</g>
<!-- dir_a1f42069ba95676f6b9abbd5065ccf6d&#45;&gt;dir_1456dd235032e023892318efbecb420b -->
<g id="edge12" class="edge"><title>dir_a1f42069ba95676f6b9abbd5065ccf6d&#45;&gt;dir_1456dd235032e023892318efbecb420b</title>
<path fill="none" stroke="black" d="M185.456,-324.104C179.762,-332.467 171.928,-342.694 164.209,-351.92"/>
<polygon fill="black" stroke="black" points="161.385,-349.835 157.511,-359.697 166.689,-354.403 161.385,-349.835"/>
<g id="a_edge12&#45;headlabel"><a xlink:href="dir_000053_000033.html" target="_top" xlink:title="3">
<text text-anchor="middle" x="161.579" y="-342.759" font-family="Helvetica,sans-Serif" font-size="10.00">3</text>
</a>
</g>
</g>
<!-- dir_a1f42069ba95676f6b9abbd5065ccf6d&#45;&gt;dir_d080e052e6032887076b6b5756e5361d -->
<g id="edge13" class="edge"><title>dir_a1f42069ba95676f6b9abbd5065ccf6d&#45;&gt;dir_d080e052e6032887076b6b5756e5361d</title>
<path fill="none" stroke="black" d="M166.37,-287.756C156.469,-278.198 146.71,-265.527 142,-252 126.318,-206.96 133.749,-150.478 143.119,-117.788"/>
<polygon fill="black" stroke="black" points="146.519,-118.645 146.202,-108.055 139.845,-116.531 146.519,-118.645"/>
<g id="a_edge13&#45;headlabel"><a xlink:href="dir_000053_000054.html" target="_top" xlink:title="1">
<text text-anchor="middle" x="148.14" y="-120.429" font-family="Helvetica,sans-Serif" font-size="10.00">1</text>
</a>
</g>
</g>
<!-- dir_a1f42069ba95676f6b9abbd5065ccf6d&#45;&gt;dir_cb2b5dfd43482fb277f6333d539f1f06 -->
<g id="edge14" class="edge"><title>dir_a1f42069ba95676f6b9abbd5065ccf6d&#45;&gt;dir_cb2b5dfd43482fb277f6333d539f1f06</title>
<path fill="none" stroke="black" d="M187.084,-287.697C186.289,-279.983 186.062,-270.712 186.405,-262.112"/>
<polygon fill="black" stroke="black" points="189.898,-262.324 187.105,-252.104 182.915,-261.836 189.898,-262.324"/>
<g id="a_edge14&#45;headlabel"><a xlink:href="dir_000053_000038.html" target="_top" xlink:title="2">
<text text-anchor="middle" x="192.48" y="-263.608" font-family="Helvetica,sans-Serif" font-size="10.00">2</text>
</a>
</g>
</g>
<!-- dir_cb2b5dfd43482fb277f6333d539f1f06&#45;&gt;dir_1456dd235032e023892318efbecb420b -->
<g id="edge15" class="edge"><title>dir_cb2b5dfd43482fb277f6333d539f1f06&#45;&gt;dir_1456dd235032e023892318efbecb420b</title>
<path fill="none" stroke="black" d="M178.835,-252.149C171.31,-262.07 162.503,-275.11 157,-288 148.587,-307.707 143.755,-331.512 141.072,-349.542"/>
<polygon fill="black" stroke="black" points="137.573,-349.295 139.697,-359.674 144.51,-350.236 137.573,-349.295"/>
<g id="a_edge15&#45;headlabel"><a xlink:href="dir_000038_000033.html" target="_top" xlink:title="12">
<text text-anchor="middle" x="135.243" y="-342.851" font-family="Helvetica,sans-Serif" font-size="10.00">12</text>
</a>
</g>
</g>
<!-- dir_cb2b5dfd43482fb277f6333d539f1f06&#45;&gt;dir_d080e052e6032887076b6b5756e5361d -->
<g id="edge16" class="edge"><title>dir_cb2b5dfd43482fb277f6333d539f1f06&#45;&gt;dir_d080e052e6032887076b6b5756e5361d</title>
<path fill="none" stroke="black" d="M183.952,-215.871C175.088,-191.67 163.212,-147.211 157.679,-118.393"/>
<polygon fill="black" stroke="black" points="161.064,-117.434 155.888,-108.189 154.169,-118.644 161.064,-117.434"/>
<g id="a_edge16&#45;headlabel"><a xlink:href="dir_000038_000054.html" target="_top" xlink:title="10">
<text text-anchor="middle" x="164.482" y="-117.984" font-family="Helvetica,sans-Serif" font-size="10.00">10</text>
</a>
</g>
</g>
<!-- dir_cb2b5dfd43482fb277f6333d539f1f06&#45;&gt;dir_a1f42069ba95676f6b9abbd5065ccf6d -->
<g id="edge17" class="edge"><title>dir_cb2b5dfd43482fb277f6333d539f1f06&#45;&gt;dir_a1f42069ba95676f6b9abbd5065ccf6d</title>
<path fill="none" stroke="black" d="M198.895,-252.104C199.701,-259.791 199.937,-269.054 199.604,-277.665"/>
<polygon fill="black" stroke="black" points="196.109,-277.48 198.916,-287.697 203.092,-277.96 196.109,-277.48"/>
<g id="a_edge17&#45;headlabel"><a xlink:href="dir_000038_000053.html" target="_top" xlink:title="14">
<text text-anchor="middle" x="193.522" y="-271.2" font-family="Helvetica,sans-Serif" font-size="10.00">14</text>
</a>
</g>
</g>
<!-- dir_cb2b5dfd43482fb277f6333d539f1f06&#45;&gt;dir_1efe152df2f2e9cd3517b1174a4598d7 -->
<g id="edge18" class="edge"><title>dir_cb2b5dfd43482fb277f6333d539f1f06&#45;&gt;dir_1efe152df2f2e9cd3517b1174a4598d7</title>
<path fill="none" stroke="black" d="M195.031,-215.843C196.155,-205.481 197.435,-192.002 198,-180 200.26,-131.979 198.026,-119.695 192,-72 190.931,-63.5362 189.478,-54.3596 188.051,-46.0583"/>
<polygon fill="black" stroke="black" points="191.483,-45.3654 186.289,-36.1309 184.591,-46.5886 191.483,-45.3654"/>
<g id="a_edge18&#45;headlabel"><a xlink:href="dir_000038_000052.html" target="_top" xlink:title="2">
<text text-anchor="middle" x="194.907" y="-45.9086" font-family="Helvetica,sans-Serif" font-size="10.00">2</text>
</a>
</g>
</g>
<!-- dir_cb2b5dfd43482fb277f6333d539f1f06&#45;&gt;dir_f5906172d2c9558d453eb81ef8e5bf93 -->
<g id="edge19" class="edge"><title>dir_cb2b5dfd43482fb277f6333d539f1f06&#45;&gt;dir_f5906172d2c9558d453eb81ef8e5bf93</title>
<path fill="none" stroke="black" d="M202.056,-215.849C221.768,-178.519 268.67,-89.6948 292.134,-45.2591"/>
<polygon fill="black" stroke="black" points="295.326,-46.7097 296.901,-36.2325 289.136,-43.4411 295.326,-46.7097"/>
<g id="a_edge19&#45;headlabel"><a xlink:href="dir_000038_000051.html" target="_top" xlink:title="5">
<text text-anchor="middle" x="296.159" y="-48.7141" font-family="Helvetica,sans-Serif" font-size="10.00">5</text>
</a>
</g>
</g>
<!-- dir_cb2b5dfd43482fb277f6333d539f1f06&#45;&gt;dir_721a74ea40d2768c46a3c9514389a16b -->
<g id="edge20" class="edge"><title>dir_cb2b5dfd43482fb277f6333d539f1f06&#45;&gt;dir_721a74ea40d2768c46a3c9514389a16b</title>
<path fill="none" stroke="black" d="M219.394,-215.876C237.731,-205.581 262.407,-192.465 283.346,-181.871"/>
<polygon fill="black" stroke="black" points="284.992,-184.961 292.364,-177.352 281.856,-178.704 284.992,-184.961"/>
<g id="a_edge20&#45;headlabel"><a xlink:href="dir_000038_000028.html" target="_top" xlink:title="1">
<text text-anchor="middle" x="283.051" y="-186.61" font-family="Helvetica,sans-Serif" font-size="10.00">1</text>
</a>
</g>
</g>
<!-- dir_721a74ea40d2768c46a3c9514389a16b&#45;&gt;dir_1456dd235032e023892318efbecb420b -->
<g id="edge27" class="edge"><title>dir_721a74ea40d2768c46a3c9514389a16b&#45;&gt;dir_1456dd235032e023892318efbecb420b</title>
<path fill="none" stroke="black" d="M318.269,-180.208C305.158,-211.939 273.531,-280.402 229,-324 215.349,-337.365 197.681,-348.65 181.55,-357.325"/>
<polygon fill="black" stroke="black" points="179.543,-354.423 172.271,-362.128 182.761,-360.64 179.543,-354.423"/>
<g id="a_edge27&#45;headlabel"><a xlink:href="dir_000028_000033.html" target="_top" xlink:title="7">
<text text-anchor="middle" x="181.43" y="-347.749" font-family="Helvetica,sans-Serif" font-size="10.00">7</text>
</a>
</g>
</g>
<!-- dir_721a74ea40d2768c46a3c9514389a16b&#45;&gt;dir_d080e052e6032887076b6b5756e5361d -->
<g id="edge28" class="edge"><title>dir_721a74ea40d2768c46a3c9514389a16b&#45;&gt;dir_d080e052e6032887076b6b5756e5361d</title>
<path fill="none" stroke="black" d="M292.415,-147.503C263.891,-135.689 222.481,-118.537 192.777,-106.233"/>
<polygon fill="black" stroke="black" points="193.766,-102.854 183.188,-102.261 191.087,-109.322 193.766,-102.854"/>
<g id="a_edge28&#45;headlabel"><a xlink:href="dir_000028_000054.html" target="_top" xlink:title="5">
<text text-anchor="middle" x="198.174" y="-99.1068" font-family="Helvetica,sans-Serif" font-size="10.00">5</text>
</a>
</g>
</g>
<!-- dir_721a74ea40d2768c46a3c9514389a16b&#45;&gt;dir_a1f42069ba95676f6b9abbd5065ccf6d -->
<g id="edge29" class="edge"><title>dir_721a74ea40d2768c46a3c9514389a16b&#45;&gt;dir_a1f42069ba95676f6b9abbd5065ccf6d</title>
<path fill="none" stroke="black" d="M309.021,-180.189C285.798,-205.172 242.594,-251.649 215.964,-280.297"/>
<polygon fill="black" stroke="black" points="213.167,-278.164 208.922,-287.871 218.294,-282.93 213.167,-278.164"/>
<g id="a_edge29&#45;headlabel"><a xlink:href="dir_000028_000053.html" target="_top" xlink:title="7">
<text text-anchor="middle" x="213.535" y="-271.098" font-family="Helvetica,sans-Serif" font-size="10.00">7</text>
</a>
</g>
</g>
<!-- dir_721a74ea40d2768c46a3c9514389a16b&#45;&gt;dir_cb2b5dfd43482fb277f6333d539f1f06 -->
<g id="edge30" class="edge"><title>dir_721a74ea40d2768c46a3c9514389a16b&#45;&gt;dir_cb2b5dfd43482fb277f6333d539f1f06</title>
<path fill="none" stroke="black" d="M298.771,-180.032C280.415,-190.342 255.649,-203.507 234.646,-214.133"/>
<polygon fill="black" stroke="black" points="232.973,-211.056 225.601,-218.666 236.11,-217.314 232.973,-211.056"/>
<g id="a_edge30&#45;headlabel"><a xlink:href="dir_000028_000038.html" target="_top" xlink:title="1">
<text text-anchor="middle" x="234.915" y="-204.407" font-family="Helvetica,sans-Serif" font-size="10.00">1</text>
</a>
</g>
</g>
<!-- dir_721a74ea40d2768c46a3c9514389a16b&#45;&gt;dir_1efe152df2f2e9cd3517b1174a4598d7 -->
<g id="edge31" class="edge"><title>dir_721a74ea40d2768c46a3c9514389a16b&#45;&gt;dir_1efe152df2f2e9cd3517b1174a4598d7</title>
<path fill="none" stroke="black" d="M307.871,-143.871C282.817,-118.817 236.052,-72.0519 207.406,-43.4062"/>
<polygon fill="black" stroke="black" points="209.735,-40.7855 200.189,-36.1893 204.785,-45.7352 209.735,-40.7855"/>
<g id="a_edge31&#45;headlabel"><a xlink:href="dir_000028_000052.html" target="_top" xlink:title="2">
<text text-anchor="middle" x="214.285" y="-38.8196" font-family="Helvetica,sans-Serif" font-size="10.00">2</text>
</a>
</g>
</g>
<!-- dir_721a74ea40d2768c46a3c9514389a16b&#45;&gt;dir_f5906172d2c9558d453eb81ef8e5bf93 -->
<g id="edge32" class="edge"><title>dir_721a74ea40d2768c46a3c9514389a16b&#45;&gt;dir_f5906172d2c9558d453eb81ef8e5bf93</title>
<path fill="none" stroke="black" d="M322.708,-143.871C319.47,-119.67 313.521,-75.2108 309.665,-46.3932"/>
<polygon fill="black" stroke="black" points="313.095,-45.6367 308.3,-36.1893 306.157,-46.5651 313.095,-45.6367"/>
<g id="a_edge32&#45;headlabel"><a xlink:href="dir_000028_000051.html" target="_top" xlink:title="1">
<text text-anchor="middle" x="316.386" y="-46.3231" font-family="Helvetica,sans-Serif" font-size="10.00">1</text>
</a>
</g>
</g>
</g>
</svg>
