<?xml version="1.0" encoding="UTF-8" standalone="no"?>
<!DOCTYPE svg PUBLIC "-//W3C//DTD SVG 1.1//EN"
 "http://www.w3.org/Graphics/SVG/1.1/DTD/svg11.dtd">
<!-- Generated by graphviz version 2.38.0 (20140413.2041)
 -->
<!-- Title: /home/travis/build/STORM&#45;IRIT/Radium&#45;Engine/src/Core/Geometry/Approximation Pages: 1 -->
<svg width="220pt" height="223pt"
 viewBox="0.00 0.00 220.00 223.00" xmlns="http://www.w3.org/2000/svg" xmlns:xlink="http://www.w3.org/1999/xlink">
<g id="graph0" class="graph" transform="scale(1 1) rotate(0) translate(4 219)">
<title>/home/travis/build/STORM&#45;IRIT/Radium&#45;Engine/src/Core/Geometry/Approximation</title>
<polygon fill="white" stroke="none" points="-4,4 -4,-219 216,-219 216,4 -4,4"/>
<g id="clust1" class="cluster"><title>clusterdir_cb2b5dfd43482fb277f6333d539f1f06</title>
<g id="a_clust1"><a xlink:href="dir_cb2b5dfd43482fb277f6333d539f1f06.html" target="_top" xlink:title="Geometry">
<polygon fill="#ddddee" stroke="black" points="66,-136 66,-207 168,-207 168,-136 66,-136"/>
<text text-anchor="middle" x="117" y="-195" font-family="Helvetica,sans-Serif" font-size="10.00">Geometry</text>
</a>
</g>
</g>
<!-- dir_9a3ae4489194236ee73c60aa2860961a -->
<g id="node1" class="node"><title>dir_9a3ae4489194236ee73c60aa2860961a</title>
<g id="a_node1"><a xlink:href="dir_9a3ae4489194236ee73c60aa2860961a.html" target="_top" xlink:title="Approximation">
<polygon fill="#eeeeff" stroke="black" points="160,-180 74,-180 74,-144 160,-144 160,-180"/>
<text text-anchor="middle" x="117" y="-159.5" font-family="Helvetica,sans-Serif" font-size="10.00">Approximation</text>
</a>
</g>
</g>
<!-- dir_1456dd235032e023892318efbecb420b -->
<g id="node2" class="node"><title>dir_1456dd235032e023892318efbecb420b</title>
<g id="a_node2"><a xlink:href="dir_1456dd235032e023892318efbecb420b.html" target="_top" xlink:title="Containers">
<polygon fill="none" stroke="black" points="68,-36 0,-36 0,-0 68,-0 68,-36"/>
<text text-anchor="middle" x="34" y="-15.5" font-family="Helvetica,sans-Serif" font-size="10.00">Containers</text>
</a>
</g>
</g>
<!-- dir_9a3ae4489194236ee73c60aa2860961a&#45;&gt;dir_1456dd235032e023892318efbecb420b -->
<g id="edge4" class="edge"><title>dir_9a3ae4489194236ee73c60aa2860961a&#45;&gt;dir_1456dd235032e023892318efbecb420b</title>
<path fill="none" stroke="black" d="M89.4538,-143.965C76.8308,-134.798 62.7612,-122.412 54,-108 42.6531,-89.3348 37.7275,-64.9468 35.5977,-46.421"/>
<polygon fill="black" stroke="black" points="39.0646,-45.9047 34.6393,-36.2784 32.0956,-46.5633 39.0646,-45.9047"/>
<g id="a_edge4&#45;headlabel"><a xlink:href="dir_000040_000033.html" target="_top" xlink:title="1">
<text text-anchor="middle" x="42.2293" y="-46.7164" font-family="Helvetica,sans-Serif" font-size="10.00">1</text>
</a>
</g>
</g>
<!-- dir_d080e052e6032887076b6b5756e5361d -->
<g id="node3" class="node"><title>dir_d080e052e6032887076b6b5756e5361d</title>
<g id="a_node3"><a xlink:href="dir_d080e052e6032887076b6b5756e5361d.html" target="_top" xlink:title="Mesh">
<polygon fill="white" stroke="red" points="117,-108 63,-108 63,-72 117,-72 117,-108"/>
<text text-anchor="middle" x="90" y="-87.5" font-family="Helvetica,sans-Serif" font-size="10.00">Mesh</text>
</a>
</g>
</g>
<!-- dir_9a3ae4489194236ee73c60aa2860961a&#45;&gt;dir_d080e052e6032887076b6b5756e5361d -->
<g id="edge5" class="edge"><title>dir_9a3ae4489194236ee73c60aa2860961a&#45;&gt;dir_d080e052e6032887076b6b5756e5361d</title>
<path fill="none" stroke="black" d="M110.326,-143.697C107.285,-135.813 103.617,-126.304 100.239,-117.546"/>
<polygon fill="black" stroke="black" points="103.462,-116.175 96.5974,-108.104 96.9307,-118.694 103.462,-116.175"/>
<g id="a_edge5&#45;headlabel"><a xlink:href="dir_000040_000054.html" target="_top" xlink:title="1">
<text text-anchor="middle" x="107.404" y="-116.007" font-family="Helvetica,sans-Serif" font-size="10.00">1</text>
</a>
</g>
</g>
<!-- dir_1efe152df2f2e9cd3517b1174a4598d7 -->
<g id="node4" class="node"><title>dir_1efe152df2f2e9cd3517b1174a4598d7</title>
<g id="a_node4"><a xlink:href="dir_1efe152df2f2e9cd3517b1174a4598d7.html" target="_top" xlink:title="Log">
<polygon fill="none" stroke="black" points="140,-36 86,-36 86,-0 140,-0 140,-36"/>
<text text-anchor="middle" x="113" y="-15.5" font-family="Helvetica,sans-Serif" font-size="10.00">Log</text>
</a>
</g>
</g>
<!-- dir_9a3ae4489194236ee73c60aa2860961a&#45;&gt;dir_1efe152df2f2e9cd3517b1174a4598d7 -->
<g id="edge6" class="edge"><title>dir_9a3ae4489194236ee73c60aa2860961a&#45;&gt;dir_1efe152df2f2e9cd3517b1174a4598d7</title>
<path fill="none" stroke="black" d="M120.97,-143.916C124.613,-125.983 129.019,-96.9772 126,-72 124.977,-63.5349 123.067,-54.4712 121.019,-46.2761"/>
<polygon fill="black" stroke="black" points="124.364,-45.2336 118.409,-36.4705 117.599,-47.0344 124.364,-45.2336"/>
<g id="a_edge6&#45;headlabel"><a xlink:href="dir_000040_000052.html" target="_top" xlink:title="1">
<text text-anchor="middle" x="128.032" y="-45.4769" font-family="Helvetica,sans-Serif" font-size="10.00">1</text>
</a>
</g>
</g>
<!-- dir_35ff2dd0a6e4899b08d0fedbc94a27f7 -->
<g id="node5" class="node"><title>dir_35ff2dd0a6e4899b08d0fedbc94a27f7</title>
<g id="a_node5"><a xlink:href="dir_35ff2dd0a6e4899b08d0fedbc94a27f7.html" target="_top" xlink:title="Triangle">
<polygon fill="none" stroke="black" points="212,-36 158,-36 158,-0 212,-0 212,-36"/>
<text text-anchor="middle" x="185" y="-15.5" font-family="Helvetica,sans-Serif" font-size="10.00">Triangle</text>
</a>
</g>
</g>
<!-- dir_9a3ae4489194236ee73c60aa2860961a&#45;&gt;dir_35ff2dd0a6e4899b08d0fedbc94a27f7 -->
<g id="edge7" class="edge"><title>dir_9a3ae4489194236ee73c60aa2860961a&#45;&gt;dir_35ff2dd0a6e4899b08d0fedbc94a27f7</title>
<path fill="none" stroke="black" d="M125.202,-143.871C136.945,-119.35 158.647,-74.0321 172.425,-45.2589"/>
<polygon fill="black" stroke="black" points="175.606,-46.7202 176.769,-36.1893 169.293,-43.6968 175.606,-46.7202"/>
<g id="a_edge7&#45;headlabel"><a xlink:href="dir_000040_000050.html" target="_top" xlink:title="1">
<text text-anchor="middle" x="176.614" y="-48.6885" font-family="Helvetica,sans-Serif" font-size="10.00">1</text>
</a>
</g>
</g>
<!-- dir_d080e052e6032887076b6b5756e5361d&#45;&gt;dir_1456dd235032e023892318efbecb420b -->
<g id="edge1" class="edge"><title>dir_d080e052e6032887076b6b5756e5361d&#45;&gt;dir_1456dd235032e023892318efbecb420b</title>
<path fill="none" stroke="black" d="M76.1573,-71.6966C69.5115,-63.3893 61.4216,-53.2771 54.1126,-44.1407"/>
<polygon fill="black" stroke="black" points="56.6635,-41.7266 47.6835,-36.1043 51.1974,-46.0995 56.6635,-41.7266"/>
<g id="a_edge1&#45;headlabel"><a xlink:href="dir_000054_000033.html" target="_top" xlink:title="2">
<text text-anchor="middle" x="61.1261" y="-40.2598" font-family="Helvetica,sans-Serif" font-size="10.00">2</text>
</a>
</g>
</g>
<!-- dir_d080e052e6032887076b6b5756e5361d&#45;&gt;dir_1efe152df2f2e9cd3517b1174a4598d7 -->
<g id="edge2" class="edge"><title>dir_d080e052e6032887076b6b5756e5361d&#45;&gt;dir_1efe152df2f2e9cd3517b1174a4598d7</title>
<path fill="none" stroke="black" d="M95.6854,-71.6966C98.2478,-63.8979 101.333,-54.5085 104.185,-45.8292"/>
<polygon fill="black" stroke="black" points="107.584,-46.6972 107.38,-36.1043 100.933,-44.5121 107.584,-46.6972"/>
<g id="a_edge2&#45;headlabel"><a xlink:href="dir_000054_000052.html" target="_top" xlink:title="3">
<text text-anchor="middle" x="109.159" y="-48.4985" font-family="Helvetica,sans-Serif" font-size="10.00">3</text>
</a>
</g>
</g>
<!-- dir_d080e052e6032887076b6b5756e5361d&#45;&gt;dir_35ff2dd0a6e4899b08d0fedbc94a27f7 -->
<g id="edge3" class="edge"><title>dir_d080e052e6032887076b6b5756e5361d&#45;&gt;dir_35ff2dd0a6e4899b08d0fedbc94a27f7</title>
<path fill="none" stroke="black" d="M113.483,-71.6966C125.563,-62.796 140.454,-51.8232 153.516,-42.1989"/>
<polygon fill="black" stroke="black" points="155.813,-44.8541 161.787,-36.1043 151.66,-39.2187 155.813,-44.8541"/>
<g id="a_edge3&#45;headlabel"><a xlink:href="dir_000054_000050.html" target="_top" xlink:title="1">
<text text-anchor="middle" x="154.603" y="-46.7721" font-family="Helvetica,sans-Serif" font-size="10.00">1</text>
</a>
</g>
</g>
</g>
</svg>
