<?xml version="1.0" encoding="UTF-8" standalone="no"?>
<!DOCTYPE svg PUBLIC "-//W3C//DTD SVG 1.1//EN"
 "http://www.w3.org/Graphics/SVG/1.1/DTD/svg11.dtd">
<!-- Generated by graphviz version 2.38.0 (20140413.2041)
 -->
<!-- Title: /home/travis/build/STORM&#45;IRIT/Radium&#45;Engine/src/Engine/Managers/SystemDisplay Pages: 1 -->
<svg width="152pt" height="367pt"
 viewBox="0.00 0.00 151.52 367.00" xmlns="http://www.w3.org/2000/svg" xmlns:xlink="http://www.w3.org/1999/xlink">
<g id="graph0" class="graph" transform="scale(1 1) rotate(0) translate(4 363)">
<title>/home/travis/build/STORM&#45;IRIT/Radium&#45;Engine/src/Engine/Managers/SystemDisplay</title>
<polygon fill="white" stroke="none" points="-4,4 -4,-363 147.516,-363 147.516,4 -4,4"/>
<g id="clust1" class="cluster"><title>clusterdir_06113b60808b1bbb52a01dfd2c3a8657</title>
<g id="a_clust1"><a xlink:href="dir_06113b60808b1bbb52a01dfd2c3a8657.html" target="_top" xlink:title="Managers">
<polygon fill="#ddddee" stroke="black" points="20.4045,-280 20.4045,-351 124.405,-351 124.405,-280 20.4045,-280"/>
<text text-anchor="middle" x="72.4045" y="-339" font-family="Helvetica,sans-Serif" font-size="10.00">Managers</text>
</a>
</g>
</g>
<!-- dir_5a1bd30bc9919aca01fcd3709dbd4eb3 -->
<g id="node1" class="node"><title>dir_5a1bd30bc9919aca01fcd3709dbd4eb3</title>
<g id="a_node1"><a xlink:href="dir_5a1bd30bc9919aca01fcd3709dbd4eb3.html" target="_top" xlink:title="SystemDisplay">
<polygon fill="#eeeeff" stroke="black" points="116.405,-324 28.4045,-324 28.4045,-288 116.405,-288 116.405,-324"/>
<text text-anchor="middle" x="72.4045" y="-303.5" font-family="Helvetica,sans-Serif" font-size="10.00">SystemDisplay</text>
</a>
</g>
</g>
<!-- dir_a2f0e5642e47e7ed59fe0f0829eafb5f -->
<g id="node2" class="node"><title>dir_a2f0e5642e47e7ed59fe0f0829eafb5f</title>
<g id="a_node2"><a xlink:href="dir_a2f0e5642e47e7ed59fe0f0829eafb5f.html" target="_top" xlink:title="Core">
<polygon fill="white" stroke="red" points="127.405,-252 73.4045,-252 73.4045,-216 127.405,-216 127.405,-252"/>
<text text-anchor="middle" x="100.405" y="-231.5" font-family="Helvetica,sans-Serif" font-size="10.00">Core</text>
</a>
</g>
</g>
<!-- dir_5a1bd30bc9919aca01fcd3709dbd4eb3&#45;&gt;dir_a2f0e5642e47e7ed59fe0f0829eafb5f -->
<g id="edge10" class="edge"><title>dir_5a1bd30bc9919aca01fcd3709dbd4eb3&#45;&gt;dir_a2f0e5642e47e7ed59fe0f0829eafb5f</title>
<path fill="none" stroke="black" d="M79.3259,-287.697C82.4793,-279.813 86.2828,-270.304 89.786,-261.546"/>
<polygon fill="black" stroke="black" points="93.0985,-262.689 93.5628,-252.104 86.5992,-260.089 93.0985,-262.689"/>
<g id="a_edge10&#45;headlabel"><a xlink:href="dir_000073_000020.html" target="_top" xlink:title="2">
<text text-anchor="middle" x="94.3997" y="-264.581" font-family="Helvetica,sans-Serif" font-size="10.00">2</text>
</a>
</g>
</g>
<!-- dir_7205f054df4e14abb60715afe3e7e90c -->
<g id="node3" class="node"><title>dir_7205f054df4e14abb60715afe3e7e90c</title>
<g id="a_node3"><a xlink:href="dir_7205f054df4e14abb60715afe3e7e90c.html" target="_top" xlink:title="Entity">
<polygon fill="none" stroke="black" points="103.405,-36 49.4045,-36 49.4045,-0 103.405,-0 103.405,-36"/>
<text text-anchor="middle" x="76.4045" y="-15.5" font-family="Helvetica,sans-Serif" font-size="10.00">Entity</text>
</a>
</g>
</g>
<!-- dir_5a1bd30bc9919aca01fcd3709dbd4eb3&#45;&gt;dir_7205f054df4e14abb60715afe3e7e90c -->
<g id="edge11" class="edge"><title>dir_5a1bd30bc9919aca01fcd3709dbd4eb3&#45;&gt;dir_7205f054df4e14abb60715afe3e7e90c</title>
<path fill="none" stroke="black" d="M59.8657,-287.897C43.7828,-264.792 16.7338,-221.685 6.40453,-180 -5.28241,-132.835 -0.258439,-114.44 23.4045,-72 29.335,-61.3635 38.0125,-51.4208 46.636,-43.0861"/>
<polygon fill="black" stroke="black" points="49.1356,-45.5424 54.1299,-36.1985 44.3987,-40.3886 49.1356,-45.5424"/>
<g id="a_edge11&#45;headlabel"><a xlink:href="dir_000073_000065.html" target="_top" xlink:title="1">
<text text-anchor="middle" x="48.4104" y="-47.5653" font-family="Helvetica,sans-Serif" font-size="10.00">1</text>
</a>
</g>
</g>
<!-- dir_54018506bb725509c19b38b6d9bcf0f6 -->
<g id="node4" class="node"><title>dir_54018506bb725509c19b38b6d9bcf0f6</title>
<g id="a_node4"><a xlink:href="dir_54018506bb725509c19b38b6d9bcf0f6.html" target="_top" xlink:title="Renderer">
<polygon fill="white" stroke="red" points="74.9045,-180 15.9045,-180 15.9045,-144 74.9045,-144 74.9045,-180"/>
<text text-anchor="middle" x="45.4045" y="-159.5" font-family="Helvetica,sans-Serif" font-size="10.00">Renderer</text>
</a>
</g>
</g>
<!-- dir_5a1bd30bc9919aca01fcd3709dbd4eb3&#45;&gt;dir_54018506bb725509c19b38b6d9bcf0f6 -->
<g id="edge12" class="edge"><title>dir_5a1bd30bc9919aca01fcd3709dbd4eb3&#45;&gt;dir_54018506bb725509c19b38b6d9bcf0f6</title>
<path fill="none" stroke="black" d="M69.1477,-287.871C64.546,-263.67 56.0925,-219.211 50.6131,-190.393"/>
<polygon fill="black" stroke="black" points="53.9793,-189.359 48.6729,-180.189 47.1025,-190.667 53.9793,-189.359"/>
<g id="a_edge12&#45;headlabel"><a xlink:href="dir_000073_000074.html" target="_top" xlink:title="2">
<text text-anchor="middle" x="57.44" y="-189.86" font-family="Helvetica,sans-Serif" font-size="10.00">2</text>
</a>
</g>
</g>
<!-- dir_d0f3276f03e9a9cb8f8ba3f2a5ea1262 -->
<g id="node5" class="node"><title>dir_d0f3276f03e9a9cb8f8ba3f2a5ea1262</title>
<g id="a_node5"><a xlink:href="dir_d0f3276f03e9a9cb8f8ba3f2a5ea1262.html" target="_top" xlink:title="Component">
<polygon fill="none" stroke="black" points="112.905,-108 39.9045,-108 39.9045,-72 112.905,-72 112.905,-108"/>
<text text-anchor="middle" x="76.4045" y="-87.5" font-family="Helvetica,sans-Serif" font-size="10.00">Component</text>
</a>
</g>
</g>
<!-- dir_5a1bd30bc9919aca01fcd3709dbd4eb3&#45;&gt;dir_d0f3276f03e9a9cb8f8ba3f2a5ea1262 -->
<g id="edge13" class="edge"><title>dir_5a1bd30bc9919aca01fcd3709dbd4eb3&#45;&gt;dir_d0f3276f03e9a9cb8f8ba3f2a5ea1262</title>
<path fill="none" stroke="black" d="M103.174,-287.907C115.949,-279.021 129.406,-266.883 136.405,-252 158.311,-205.415 123.415,-148.472 98.3449,-116.307"/>
<polygon fill="black" stroke="black" points="100.902,-113.901 91.9071,-108.302 95.4472,-118.288 100.902,-113.901"/>
<g id="a_edge13&#45;headlabel"><a xlink:href="dir_000073_000064.html" target="_top" xlink:title="1">
<text text-anchor="middle" x="105.367" y="-112.423" font-family="Helvetica,sans-Serif" font-size="10.00">1</text>
</a>
</g>
</g>
<!-- dir_a2f0e5642e47e7ed59fe0f0829eafb5f&#45;&gt;dir_54018506bb725509c19b38b6d9bcf0f6 -->
<g id="edge1" class="edge"><title>dir_a2f0e5642e47e7ed59fe0f0829eafb5f&#45;&gt;dir_54018506bb725509c19b38b6d9bcf0f6</title>
<path fill="none" stroke="black" d="M80.8933,-215.697C73.5846,-207.474 65.5332,-197.483 58.8578,-188.421"/>
<polygon fill="black" stroke="black" points="61.594,-186.229 52.9486,-180.104 55.8878,-190.283 61.594,-186.229"/>
<g id="a_edge1&#45;headlabel"><a xlink:href="dir_000020_000074.html" target="_top" xlink:title="1">
<text text-anchor="middle" x="65.9905" y="-185.014" font-family="Helvetica,sans-Serif" font-size="10.00">1</text>
</a>
</g>
</g>
<!-- dir_7205f054df4e14abb60715afe3e7e90c&#45;&gt;dir_a2f0e5642e47e7ed59fe0f0829eafb5f -->
<g id="edge2" class="edge"><title>dir_7205f054df4e14abb60715afe3e7e90c&#45;&gt;dir_a2f0e5642e47e7ed59fe0f0829eafb5f</title>
<path fill="none" stroke="black" d="M96.7831,-36.469C106.211,-45.9079 116.411,-58.4032 121.405,-72 137.978,-117.126 123.15,-173.579 111.403,-206.241"/>
<polygon fill="black" stroke="black" points="107.99,-205.373 107.741,-215.965 114.541,-207.84 107.99,-205.373"/>
<g id="a_edge2&#45;headlabel"><a xlink:href="dir_000065_000020.html" target="_top" xlink:title="4">
<text text-anchor="middle" x="106.6" y="-198.509" font-family="Helvetica,sans-Serif" font-size="10.00">4</text>
</a>
</g>
</g>
<!-- dir_7205f054df4e14abb60715afe3e7e90c&#45;&gt;dir_d0f3276f03e9a9cb8f8ba3f2a5ea1262 -->
<g id="edge3" class="edge"><title>dir_7205f054df4e14abb60715afe3e7e90c&#45;&gt;dir_d0f3276f03e9a9cb8f8ba3f2a5ea1262</title>
<path fill="none" stroke="black" d="M82.2996,-36.1043C83.1051,-43.7913 83.3414,-53.0537 83.0085,-61.6651"/>
<polygon fill="black" stroke="black" points="79.5131,-61.4805 82.3203,-71.6966 86.4967,-61.9597 79.5131,-61.4805"/>
<g id="a_edge3&#45;headlabel"><a xlink:href="dir_000065_000064.html" target="_top" xlink:title="1">
<text text-anchor="middle" x="76.9264" y="-55.2" font-family="Helvetica,sans-Serif" font-size="10.00">1</text>
</a>
</g>
</g>
<!-- dir_54018506bb725509c19b38b6d9bcf0f6&#45;&gt;dir_a2f0e5642e47e7ed59fe0f0829eafb5f -->
<g id="edge4" class="edge"><title>dir_54018506bb725509c19b38b6d9bcf0f6&#45;&gt;dir_a2f0e5642e47e7ed59fe0f0829eafb5f</title>
<path fill="none" stroke="black" d="M64.7387,-180.104C72.0352,-188.298 80.0916,-198.282 86.7891,-207.359"/>
<polygon fill="black" stroke="black" points="84.0737,-209.58 92.7247,-215.697 89.7762,-205.52 84.0737,-209.58"/>
<g id="a_edge4&#45;headlabel"><a xlink:href="dir_000074_000020.html" target="_top" xlink:title="53">
<text text-anchor="middle" x="79.676" y="-205.799" font-family="Helvetica,sans-Serif" font-size="10.00">53</text>
</a>
</g>
</g>
<!-- dir_54018506bb725509c19b38b6d9bcf0f6&#45;&gt;dir_7205f054df4e14abb60715afe3e7e90c -->
<g id="edge5" class="edge"><title>dir_54018506bb725509c19b38b6d9bcf0f6&#45;&gt;dir_7205f054df4e14abb60715afe3e7e90c</title>
<path fill="none" stroke="black" d="M37.3664,-143.77C29.9936,-125.466 21.4692,-95.927 30.4045,-72 34.2807,-61.6206 41.2075,-51.9274 48.5285,-43.7427"/>
<polygon fill="black" stroke="black" points="51.1885,-46.0256 55.5818,-36.3845 46.1351,-41.1816 51.1885,-46.0256"/>
<g id="a_edge5&#45;headlabel"><a xlink:href="dir_000074_000065.html" target="_top" xlink:title="3">
<text text-anchor="middle" x="50.7508" y="-48.0853" font-family="Helvetica,sans-Serif" font-size="10.00">3</text>
</a>
</g>
</g>
<!-- dir_54018506bb725509c19b38b6d9bcf0f6&#45;&gt;dir_d0f3276f03e9a9cb8f8ba3f2a5ea1262 -->
<g id="edge6" class="edge"><title>dir_54018506bb725509c19b38b6d9bcf0f6&#45;&gt;dir_d0f3276f03e9a9cb8f8ba3f2a5ea1262</title>
<path fill="none" stroke="black" d="M47.1517,-143.697C49.8586,-135.728 53.9082,-126.1 58.2137,-117.264"/>
<polygon fill="black" stroke="black" points="61.4644,-118.597 62.9347,-108.104 55.2422,-115.39 61.4644,-118.597"/>
<g id="a_edge6&#45;headlabel"><a xlink:href="dir_000074_000064.html" target="_top" xlink:title="4">
<text text-anchor="middle" x="62.3414" y="-120.593" font-family="Helvetica,sans-Serif" font-size="10.00">4</text>
</a>
</g>
</g>
<!-- dir_d0f3276f03e9a9cb8f8ba3f2a5ea1262&#45;&gt;dir_a2f0e5642e47e7ed59fe0f0829eafb5f -->
<g id="edge7" class="edge"><title>dir_d0f3276f03e9a9cb8f8ba3f2a5ea1262&#45;&gt;dir_a2f0e5642e47e7ed59fe0f0829eafb5f</title>
<path fill="none" stroke="black" d="M79.3098,-108.189C83.4058,-132.424 90.9207,-176.888 95.7869,-205.679"/>
<polygon fill="black" stroke="black" points="92.3919,-206.595 97.5096,-215.871 99.294,-205.428 92.3919,-206.595"/>
<g id="a_edge7&#45;headlabel"><a xlink:href="dir_000064_000020.html" target="_top" xlink:title="15">
<text text-anchor="middle" x="88.9934" y="-201.023" font-family="Helvetica,sans-Serif" font-size="10.00">15</text>
</a>
</g>
</g>
<!-- dir_d0f3276f03e9a9cb8f8ba3f2a5ea1262&#45;&gt;dir_7205f054df4e14abb60715afe3e7e90c -->
<g id="edge8" class="edge"><title>dir_d0f3276f03e9a9cb8f8ba3f2a5ea1262&#45;&gt;dir_7205f054df4e14abb60715afe3e7e90c</title>
<path fill="none" stroke="black" d="M70.4888,-71.6966C69.6931,-63.9827 69.4666,-54.7125 69.8092,-46.1124"/>
<polygon fill="black" stroke="black" points="73.3029,-46.3243 70.5095,-36.1043 66.32,-45.8356 73.3029,-46.3243"/>
<g id="a_edge8&#45;headlabel"><a xlink:href="dir_000064_000065.html" target="_top" xlink:title="1">
<text text-anchor="middle" x="75.8844" y="-47.6083" font-family="Helvetica,sans-Serif" font-size="10.00">1</text>
</a>
</g>
</g>
<!-- dir_d0f3276f03e9a9cb8f8ba3f2a5ea1262&#45;&gt;dir_54018506bb725509c19b38b6d9bcf0f6 -->
<g id="edge9" class="edge"><title>dir_d0f3276f03e9a9cb8f8ba3f2a5ea1262&#45;&gt;dir_54018506bb725509c19b38b6d9bcf0f6</title>
<path fill="none" stroke="black" d="M74.7248,-108.104C72.0118,-116.129 67.9182,-125.871 63.5656,-134.797"/>
<polygon fill="black" stroke="black" points="60.4492,-133.204 58.9832,-143.697 66.6727,-136.408 60.4492,-133.204"/>
<g id="a_edge9&#45;headlabel"><a xlink:href="dir_000064_000074.html" target="_top" xlink:title="15">
<text text-anchor="middle" x="59.5704" y="-126.208" font-family="Helvetica,sans-Serif" font-size="10.00">15</text>
</a>
</g>
</g>
</g>
</svg>
