<?xml version="1.0" encoding="UTF-8" standalone="no"?>
<!DOCTYPE svg PUBLIC "-//W3C//DTD SVG 1.1//EN"
 "http://www.w3.org/Graphics/SVG/1.1/DTD/svg11.dtd">
<!-- Generated by graphviz version 2.38.0 (20140413.2041)
 -->
<!-- Title: /home/travis/build/STORM&#45;IRIT/Radium&#45;Engine/src/Core/Geometry/Distance/DistanceQueries.inl Pages: 1 -->
<svg width="491pt" height="317pt"
 viewBox="0.00 0.00 490.50 317.00" xmlns="http://www.w3.org/2000/svg" xmlns:xlink="http://www.w3.org/1999/xlink">
<g id="graph0" class="graph" transform="scale(1 1) rotate(0) translate(4 313)">
<title>/home/travis/build/STORM&#45;IRIT/Radium&#45;Engine/src/Core/Geometry/Distance/DistanceQueries.inl</title>
<polygon fill="white" stroke="none" points="-4,4 -4,-313 486.5,-313 486.5,4 -4,4"/>
<!-- Node1 -->
<g id="node1" class="node"><title>Node1</title>
<polygon fill="#bfbfbf" stroke="black" points="247,-256.5 247,-308.5 402,-308.5 402,-256.5 247,-256.5"/>
<text text-anchor="start" x="255" y="-296.5" font-family="Helvetica,sans-Serif" font-size="10.00">/home/travis/build</text>
<text text-anchor="start" x="255" y="-285.5" font-family="Helvetica,sans-Serif" font-size="10.00">/STORM&#45;IRIT/Radium&#45;Engine</text>
<text text-anchor="start" x="255" y="-274.5" font-family="Helvetica,sans-Serif" font-size="10.00">/src/Core/Geometry/Distance</text>
<text text-anchor="middle" x="324.5" y="-263.5" font-family="Helvetica,sans-Serif" font-size="10.00">/DistanceQueries.inl</text>
</g>
<!-- Node2 -->
<g id="node2" class="node"><title>Node2</title>
<g id="a_node2"><a xlink:href="DistanceQueries_8hpp.html" target="_top" xlink:title="/home/travis/build\l/STORM&#45;IRIT/Radium&#45;Engine\l/src/Core/Geometry/Distance\l/DistanceQueries.hpp">
<polygon fill="white" stroke="black" points="247,-167.5 247,-219.5 402,-219.5 402,-167.5 247,-167.5"/>
<text text-anchor="start" x="255" y="-207.5" font-family="Helvetica,sans-Serif" font-size="10.00">/home/travis/build</text>
<text text-anchor="start" x="255" y="-196.5" font-family="Helvetica,sans-Serif" font-size="10.00">/STORM&#45;IRIT/Radium&#45;Engine</text>
<text text-anchor="start" x="255" y="-185.5" font-family="Helvetica,sans-Serif" font-size="10.00">/src/Core/Geometry/Distance</text>
<text text-anchor="middle" x="324.5" y="-174.5" font-family="Helvetica,sans-Serif" font-size="10.00">/DistanceQueries.hpp</text>
</a>
</g>
</g>
<!-- Node1&#45;&gt;Node2 -->
<g id="edge1" class="edge"><title>Node1&#45;&gt;Node2</title>
<path fill="none" stroke="midnightblue" d="M317.858,-246.191C317.621,-237.282 317.775,-227.899 318.318,-219.607"/>
<polygon fill="midnightblue" stroke="midnightblue" points="314.368,-246.503 318.314,-256.336 321.361,-246.189 314.368,-246.503"/>
</g>
<!-- Node2&#45;&gt;Node1 -->
<g id="edge2" class="edge"><title>Node2&#45;&gt;Node1</title>
<path fill="none" stroke="midnightblue" d="M331.141,-229.749C331.379,-238.655 331.227,-248.04 330.686,-256.336"/>
<polygon fill="midnightblue" stroke="midnightblue" points="334.631,-229.439 330.682,-219.607 327.638,-229.755 334.631,-229.439"/>
</g>
<!-- Node3 -->
<g id="node3" class="node"><title>Node3</title>
<g id="a_node3"><a xlink:href="PolyLine_8hpp.html" target="_top" xlink:title="/home/travis/build\l/STORM&#45;IRIT/Radium&#45;Engine\l/src/Core/Math/PolyLine.hpp">
<polygon fill="white" stroke="black" points="167,-84 167,-125 316,-125 316,-84 167,-84"/>
<text text-anchor="start" x="175" y="-113" font-family="Helvetica,sans-Serif" font-size="10.00">/home/travis/build</text>
<text text-anchor="start" x="175" y="-102" font-family="Helvetica,sans-Serif" font-size="10.00">/STORM&#45;IRIT/Radium&#45;Engine</text>
<text text-anchor="middle" x="241.5" y="-91" font-family="Helvetica,sans-Serif" font-size="10.00">/src/Core/Math/PolyLine.hpp</text>
</a>
</g>
</g>
<!-- Node2&#45;&gt;Node3 -->
<g id="edge3" class="edge"><title>Node2&#45;&gt;Node3</title>
<path fill="none" stroke="midnightblue" d="M293.349,-159.847C282.187,-148.148 269.959,-135.33 260.182,-125.082"/>
<polygon fill="midnightblue" stroke="midnightblue" points="291.058,-162.517 300.493,-167.336 296.123,-157.685 291.058,-162.517"/>
</g>
<!-- Node6 -->
<g id="node6" class="node"><title>Node6</title>
<g id="a_node6"><a xlink:href="trianglekdtree_8hpp.html" target="_top" xlink:title="/home/travis/build\l/STORM&#45;IRIT/Radium&#45;Engine\l/src/Core/TreeStructures\l/trianglekdtree.hpp">
<polygon fill="white" stroke="black" points="334.5,-78.5 334.5,-130.5 482.5,-130.5 482.5,-78.5 334.5,-78.5"/>
<text text-anchor="start" x="342.5" y="-118.5" font-family="Helvetica,sans-Serif" font-size="10.00">/home/travis/build</text>
<text text-anchor="start" x="342.5" y="-107.5" font-family="Helvetica,sans-Serif" font-size="10.00">/STORM&#45;IRIT/Radium&#45;Engine</text>
<text text-anchor="start" x="342.5" y="-96.5" font-family="Helvetica,sans-Serif" font-size="10.00">/src/Core/TreeStructures</text>
<text text-anchor="middle" x="408.5" y="-85.5" font-family="Helvetica,sans-Serif" font-size="10.00">/trianglekdtree.hpp</text>
</a>
</g>
</g>
<!-- Node2&#45;&gt;Node6 -->
<g id="edge7" class="edge"><title>Node2&#45;&gt;Node6</title>
<path fill="none" stroke="midnightblue" d="M355.805,-160.077C365.211,-150.335 375.383,-139.8 384.258,-130.607"/>
<polygon fill="midnightblue" stroke="midnightblue" points="353.224,-157.711 348.796,-167.336 358.26,-162.573 353.224,-157.711"/>
</g>
<!-- Node4 -->
<g id="node4" class="node"><title>Node4</title>
<g id="a_node4"><a xlink:href="PolyLine_8cpp.html" target="_top" xlink:title="/home/travis/build\l/STORM&#45;IRIT/Radium&#45;Engine\l/src/Core/Math/PolyLine.cpp">
<polygon fill="white" stroke="black" points="0,-0.5 0,-41.5 149,-41.5 149,-0.5 0,-0.5"/>
<text text-anchor="start" x="8" y="-29.5" font-family="Helvetica,sans-Serif" font-size="10.00">/home/travis/build</text>
<text text-anchor="start" x="8" y="-18.5" font-family="Helvetica,sans-Serif" font-size="10.00">/STORM&#45;IRIT/Radium&#45;Engine</text>
<text text-anchor="middle" x="74.5" y="-7.5" font-family="Helvetica,sans-Serif" font-size="10.00">/src/Core/Math/PolyLine.cpp</text>
</a>
</g>
</g>
<!-- Node3&#45;&gt;Node4 -->
<g id="edge4" class="edge"><title>Node3&#45;&gt;Node4</title>
<path fill="none" stroke="midnightblue" d="M192.262,-79.4705C167.475,-67.3741 137.816,-52.8995 114.463,-41.5031"/>
<polygon fill="midnightblue" stroke="midnightblue" points="190.977,-82.7383 201.499,-83.9787 194.047,-76.4474 190.977,-82.7383"/>
</g>
<!-- Node5 -->
<g id="node5" class="node"><title>Node5</title>
<g id="a_node5"><a xlink:href="PolyLine_8inl.html" target="_top" xlink:title="/home/travis/build\l/STORM&#45;IRIT/Radium&#45;Engine\l/src/Core/Math/PolyLine.inl">
<polygon fill="white" stroke="black" points="167.5,-0.5 167.5,-41.5 315.5,-41.5 315.5,-0.5 167.5,-0.5"/>
<text text-anchor="start" x="175.5" y="-29.5" font-family="Helvetica,sans-Serif" font-size="10.00">/home/travis/build</text>
<text text-anchor="start" x="175.5" y="-18.5" font-family="Helvetica,sans-Serif" font-size="10.00">/STORM&#45;IRIT/Radium&#45;Engine</text>
<text text-anchor="middle" x="241.5" y="-7.5" font-family="Helvetica,sans-Serif" font-size="10.00">/src/Core/Math/PolyLine.inl</text>
</a>
</g>
</g>
<!-- Node3&#45;&gt;Node5 -->
<g id="edge5" class="edge"><title>Node3&#45;&gt;Node5</title>
<path fill="none" stroke="midnightblue" d="M234.966,-73.5646C234.53,-62.8819 234.754,-51.1303 235.638,-41.5472"/>
<polygon fill="midnightblue" stroke="midnightblue" points="231.488,-74.0162 235.622,-83.7711 238.473,-73.5672 231.488,-74.0162"/>
</g>
<!-- Node5&#45;&gt;Node3 -->
<g id="edge6" class="edge"><title>Node5&#45;&gt;Node3</title>
<path fill="none" stroke="midnightblue" d="M248.026,-51.7332C248.47,-62.4023 248.254,-74.1607 247.378,-83.7711"/>
<polygon fill="midnightblue" stroke="midnightblue" points="251.505,-51.2982 247.362,-41.5472 244.52,-51.7538 251.505,-51.2982"/>
</g>
</g>
</svg>
