<?xml version="1.0" encoding="UTF-8" standalone="no"?>
<!DOCTYPE svg PUBLIC "-//W3C//DTD SVG 1.1//EN"
 "http://www.w3.org/Graphics/SVG/1.1/DTD/svg11.dtd">
<!-- Generated by graphviz version 2.38.0 (20140413.2041)
 -->
<!-- Title: /home/travis/build/STORM&#45;IRIT/Radium&#45;Engine/src/Core/Animation/Skinning/DualQuaternionSkinning.hpp Pages: 1 -->
<svg width="1205pt" height="430pt"
 viewBox="0.00 0.00 1204.50 430.00" xmlns="http://www.w3.org/2000/svg" xmlns:xlink="http://www.w3.org/1999/xlink">
<g id="graph0" class="graph" transform="scale(1 1) rotate(0) translate(4 426)">
<title>/home/travis/build/STORM&#45;IRIT/Radium&#45;Engine/src/Core/Animation/Skinning/DualQuaternionSkinning.hpp</title>
<polygon fill="white" stroke="none" points="-4,4 -4,-426 1200.5,-426 1200.5,4 -4,4"/>
<!-- Node1 -->
<g id="node1" class="node"><title>Node1</title>
<polygon fill="#bfbfbf" stroke="black" points="280.5,-369.5 280.5,-421.5 436.5,-421.5 436.5,-369.5 280.5,-369.5"/>
<text text-anchor="start" x="288.5" y="-409.5" font-family="Helvetica,sans-Serif" font-size="10.00">/home/travis/build</text>
<text text-anchor="start" x="288.5" y="-398.5" font-family="Helvetica,sans-Serif" font-size="10.00">/STORM&#45;IRIT/Radium&#45;Engine</text>
<text text-anchor="start" x="288.5" y="-387.5" font-family="Helvetica,sans-Serif" font-size="10.00">/src/Core/Animation/Skinning</text>
<text text-anchor="middle" x="358.5" y="-376.5" font-family="Helvetica,sans-Serif" font-size="10.00">/DualQuaternionSkinning.hpp</text>
</g>
<!-- Node2 -->
<g id="node2" class="node"><title>Node2</title>
<g id="a_node2"><a xlink:href="HandleWeight_8hpp.html" target="_top" xlink:title="Core/Animation/Handle\l/HandleWeight.hpp">
<polygon fill="white" stroke="black" points="365.5,-302.5 365.5,-332.5 493.5,-332.5 493.5,-302.5 365.5,-302.5"/>
<text text-anchor="start" x="373.5" y="-320.5" font-family="Helvetica,sans-Serif" font-size="10.00">Core/Animation/Handle</text>
<text text-anchor="middle" x="429.5" y="-309.5" font-family="Helvetica,sans-Serif" font-size="10.00">/HandleWeight.hpp</text>
</a>
</g>
</g>
<!-- Node1&#45;&gt;Node2 -->
<g id="edge1" class="edge"><title>Node1&#45;&gt;Node2</title>
<path fill="none" stroke="midnightblue" d="M382.142,-369.193C390.878,-359.842 400.697,-349.332 409.119,-340.316"/>
<polygon fill="midnightblue" stroke="midnightblue" points="411.829,-342.542 416.099,-332.845 406.714,-337.763 411.829,-342.542"/>
</g>
<!-- Node3 -->
<g id="node3" class="node"><title>Node3</title>
<g id="a_node3"><a xlink:href="AlignedStdVector_8hpp.html" target="_top" xlink:title="Core/Containers/AlignedStd\lVector.hpp">
<polygon fill="white" stroke="black" points="115,-235.5 115,-265.5 264,-265.5 264,-235.5 115,-235.5"/>
<text text-anchor="start" x="123" y="-253.5" font-family="Helvetica,sans-Serif" font-size="10.00">Core/Containers/AlignedStd</text>
<text text-anchor="middle" x="189.5" y="-242.5" font-family="Helvetica,sans-Serif" font-size="10.00">Vector.hpp</text>
</a>
</g>
</g>
<!-- Node1&#45;&gt;Node3 -->
<g id="edge30" class="edge"><title>Node1&#45;&gt;Node3</title>
<path fill="none" stroke="midnightblue" d="M280.496,-372.248C258.836,-362.985 236.811,-350.247 220.5,-333 205.527,-317.168 197.592,-293.374 193.513,-275.576"/>
<polygon fill="midnightblue" stroke="midnightblue" points="196.915,-274.745 191.488,-265.646 190.057,-276.143 196.915,-274.745"/>
</g>
<!-- Node13 -->
<g id="node13" class="node"><title>Node13</title>
<g id="a_node13"><a xlink:href="LinearAlgebra_8hpp.html" target="_top" xlink:title="Core/Math/LinearAlgebra.hpp">
<polygon fill="white" stroke="black" points="456.5,-241 456.5,-260 612.5,-260 612.5,-241 456.5,-241"/>
<text text-anchor="middle" x="534.5" y="-248" font-family="Helvetica,sans-Serif" font-size="10.00">Core/Math/LinearAlgebra.hpp</text>
</a>
</g>
</g>
<!-- Node1&#45;&gt;Node13 -->
<g id="edge41" class="edge"><title>Node1&#45;&gt;Node13</title>
<path fill="none" stroke="midnightblue" d="M436.754,-373.96C460.299,-364.635 484.605,-351.431 502.5,-333 519.337,-315.66 527.603,-288.42 531.451,-270.267"/>
<polygon fill="midnightblue" stroke="midnightblue" points="534.915,-270.781 533.312,-260.308 528.034,-269.495 534.915,-270.781"/>
</g>
<!-- Node25 -->
<g id="node25" class="node"><title>Node25</title>
<g id="a_node25"><a xlink:href="Pose_8hpp.html" target="_top" xlink:title="Core/Animation/Pose\l/Pose.hpp">
<polygon fill="white" stroke="black" points="230,-302.5 230,-332.5 347,-332.5 347,-302.5 230,-302.5"/>
<text text-anchor="start" x="238" y="-320.5" font-family="Helvetica,sans-Serif" font-size="10.00">Core/Animation/Pose</text>
<text text-anchor="middle" x="288.5" y="-309.5" font-family="Helvetica,sans-Serif" font-size="10.00">/Pose.hpp</text>
</a>
</g>
</g>
<!-- Node1&#45;&gt;Node25 -->
<g id="edge27" class="edge"><title>Node1&#45;&gt;Node25</title>
<path fill="none" stroke="midnightblue" d="M335.191,-369.193C326.578,-359.842 316.898,-349.332 308.594,-340.316"/>
<polygon fill="midnightblue" stroke="midnightblue" points="311.062,-337.83 301.713,-332.845 305.913,-342.572 311.062,-337.83"/>
</g>
<!-- Node26 -->
<g id="node26" class="node"><title>Node26</title>
<g id="a_node26"><a xlink:href="VectorArray_8hpp.html" target="_top" xlink:title="Core/Containers/VectorArray.hpp">
<polygon fill="white" stroke="black" points="0,-308 0,-327 173,-327 173,-308 0,-308"/>
<text text-anchor="middle" x="86.5" y="-315" font-family="Helvetica,sans-Serif" font-size="10.00">Core/Containers/VectorArray.hpp</text>
</a>
</g>
</g>
<!-- Node1&#45;&gt;Node26 -->
<g id="edge31" class="edge"><title>Node1&#45;&gt;Node26</title>
<path fill="none" stroke="midnightblue" d="M280.191,-372.62C230.132,-358.632 167.271,-341.068 126.988,-329.813"/>
<polygon fill="midnightblue" stroke="midnightblue" points="127.827,-326.413 117.254,-327.093 125.944,-333.155 127.827,-326.413"/>
</g>
<!-- Node27 -->
<g id="node27" class="node"><title>Node27</title>
<g id="a_node27"><a xlink:href="DualQuaternion_8hpp.html" target="_top" xlink:title="Core/Math/DualQuaternion.hpp">
<polygon fill="white" stroke="black" points="928,-308 928,-327 1093,-327 1093,-308 928,-308"/>
<text text-anchor="middle" x="1010.5" y="-315" font-family="Helvetica,sans-Serif" font-size="10.00">Core/Math/DualQuaternion.hpp</text>
</a>
</g>
</g>
<!-- Node1&#45;&gt;Node27 -->
<g id="edge36" class="edge"><title>Node1&#45;&gt;Node27</title>
<path fill="none" stroke="midnightblue" d="M436.822,-385.37C560.689,-370.932 800.711,-342.954 927.458,-328.18"/>
<polygon fill="midnightblue" stroke="midnightblue" points="927.974,-331.643 937.502,-327.009 927.164,-324.69 927.974,-331.643"/>
</g>
<!-- Node2&#45;&gt;Node3 -->
<g id="edge2" class="edge"><title>Node2&#45;&gt;Node3</title>
<path fill="none" stroke="midnightblue" d="M377.719,-302.476C340.625,-292.43 290.508,-278.856 251.316,-268.242"/>
<polygon fill="midnightblue" stroke="midnightblue" points="252.169,-264.847 241.602,-265.611 250.339,-271.603 252.169,-264.847"/>
</g>
<!-- Node2&#45;&gt;Node13 -->
<g id="edge12" class="edge"><title>Node2&#45;&gt;Node13</title>
<path fill="none" stroke="midnightblue" d="M452.283,-302.396C470.055,-291.395 494.6,-276.2 512.237,-265.282"/>
<polygon fill="midnightblue" stroke="midnightblue" points="514.098,-268.247 520.758,-260.007 510.413,-262.295 514.098,-268.247"/>
</g>
<!-- Node24 -->
<g id="node24" class="node"><title>Node24</title>
<polygon fill="white" stroke="#bfbfbf" points="400.5,-241 400.5,-260 438.5,-260 438.5,-241 400.5,-241"/>
<text text-anchor="middle" x="419.5" y="-248" font-family="Helvetica,sans-Serif" font-size="10.00">map</text>
</g>
<!-- Node2&#45;&gt;Node24 -->
<g id="edge26" class="edge"><title>Node2&#45;&gt;Node24</title>
<path fill="none" stroke="midnightblue" d="M427.33,-302.396C425.879,-292.963 423.954,-280.448 422.375,-270.189"/>
<polygon fill="midnightblue" stroke="midnightblue" points="425.818,-269.546 420.838,-260.195 418.899,-270.61 425.818,-269.546"/>
</g>
<!-- Node4 -->
<g id="node4" class="node"><title>Node4</title>
<g id="a_node4"><a xlink:href="RaCore_8hpp.html" target="_top" xlink:title="Core/RaCore.hpp">
<polygon fill="white" stroke="black" points="215.5,-112.5 215.5,-131.5 313.5,-131.5 313.5,-112.5 215.5,-112.5"/>
<text text-anchor="middle" x="264.5" y="-119.5" font-family="Helvetica,sans-Serif" font-size="10.00">Core/RaCore.hpp</text>
</a>
</g>
</g>
<!-- Node3&#45;&gt;Node4 -->
<g id="edge3" class="edge"><title>Node3&#45;&gt;Node4</title>
<path fill="none" stroke="midnightblue" d="M167.861,-235.259C145.749,-218.907 116.843,-191.334 133.5,-168 149.915,-145.004 178.856,-133.638 205.367,-128.07"/>
<polygon fill="midnightblue" stroke="midnightblue" points="206.187,-131.477 215.378,-126.207 204.906,-124.596 206.187,-131.477"/>
</g>
<!-- Node11 -->
<g id="node11" class="node"><title>Node11</title>
<polygon fill="white" stroke="#bfbfbf" points="143,-174 143,-193 236,-193 236,-174 143,-174"/>
<text text-anchor="middle" x="189.5" y="-181" font-family="Helvetica,sans-Serif" font-size="10.00">Eigen/StdVector</text>
</g>
<!-- Node3&#45;&gt;Node11 -->
<g id="edge10" class="edge"><title>Node3&#45;&gt;Node11</title>
<path fill="none" stroke="midnightblue" d="M189.5,-235.396C189.5,-226.064 189.5,-213.714 189.5,-203.517"/>
<polygon fill="midnightblue" stroke="midnightblue" points="193,-203.195 189.5,-193.195 186,-203.195 193,-203.195"/>
</g>
<!-- Node12 -->
<g id="node12" class="node"><title>Node12</title>
<polygon fill="white" stroke="#bfbfbf" points="39,-174 39,-193 86,-193 86,-174 39,-174"/>
<text text-anchor="middle" x="62.5" y="-181" font-family="Helvetica,sans-Serif" font-size="10.00">vector</text>
</g>
<!-- Node3&#45;&gt;Node12 -->
<g id="edge11" class="edge"><title>Node3&#45;&gt;Node12</title>
<path fill="none" stroke="midnightblue" d="M161.943,-235.396C140.054,-224.193 109.668,-208.641 88.262,-197.685"/>
<polygon fill="midnightblue" stroke="midnightblue" points="89.6178,-194.447 79.1214,-193.007 86.4286,-200.679 89.6178,-194.447"/>
</g>
<!-- Node5 -->
<g id="node5" class="node"><title>Node5</title>
<g id="a_node5"><a xlink:href="CoreMacros_8hpp.html" target="_top" xlink:title="Core/CoreMacros.hpp">
<polygon fill="white" stroke="black" points="204.5,-56.5 204.5,-75.5 324.5,-75.5 324.5,-56.5 204.5,-56.5"/>
<text text-anchor="middle" x="264.5" y="-63.5" font-family="Helvetica,sans-Serif" font-size="10.00">Core/CoreMacros.hpp</text>
</a>
</g>
</g>
<!-- Node4&#45;&gt;Node5 -->
<g id="edge4" class="edge"><title>Node4&#45;&gt;Node5</title>
<path fill="none" stroke="midnightblue" d="M264.5,-112.083C264.5,-105.006 264.5,-94.8611 264.5,-85.9865"/>
<polygon fill="midnightblue" stroke="midnightblue" points="268,-85.751 264.5,-75.7511 261,-85.7511 268,-85.751"/>
</g>
<!-- Node6 -->
<g id="node6" class="node"><title>Node6</title>
<polygon fill="white" stroke="#bfbfbf" points="101.5,-0.5 101.5,-19.5 153.5,-19.5 153.5,-0.5 101.5,-0.5"/>
<text text-anchor="middle" x="127.5" y="-7.5" font-family="Helvetica,sans-Serif" font-size="10.00">cassert</text>
</g>
<!-- Node5&#45;&gt;Node6 -->
<g id="edge5" class="edge"><title>Node5&#45;&gt;Node6</title>
<path fill="none" stroke="midnightblue" d="M242.792,-56.4435C220.145,-47.5171 184.428,-33.4387 158.748,-23.3168"/>
<polygon fill="midnightblue" stroke="midnightblue" points="159.693,-19.9273 149.106,-19.5164 157.126,-26.4397 159.693,-19.9273"/>
</g>
<!-- Node7 -->
<g id="node7" class="node"><title>Node7</title>
<polygon fill="white" stroke="#bfbfbf" points="172,-0.5 172,-19.5 217,-19.5 217,-0.5 172,-0.5"/>
<text text-anchor="middle" x="194.5" y="-7.5" font-family="Helvetica,sans-Serif" font-size="10.00">cstdio</text>
</g>
<!-- Node5&#45;&gt;Node7 -->
<g id="edge6" class="edge"><title>Node5&#45;&gt;Node7</title>
<path fill="none" stroke="midnightblue" d="M253.253,-56.324C242.703,-48.1849 226.699,-35.8395 214.058,-26.0874"/>
<polygon fill="midnightblue" stroke="midnightblue" points="216.007,-23.1707 205.951,-19.8339 211.731,-28.7132 216.007,-23.1707"/>
</g>
<!-- Node8 -->
<g id="node8" class="node"><title>Node8</title>
<polygon fill="white" stroke="#bfbfbf" points="235,-0.5 235,-19.5 294,-19.5 294,-0.5 235,-0.5"/>
<text text-anchor="middle" x="264.5" y="-7.5" font-family="Helvetica,sans-Serif" font-size="10.00">iostream</text>
</g>
<!-- Node5&#45;&gt;Node8 -->
<g id="edge7" class="edge"><title>Node5&#45;&gt;Node8</title>
<path fill="none" stroke="midnightblue" d="M264.5,-56.083C264.5,-49.0059 264.5,-38.8611 264.5,-29.9865"/>
<polygon fill="midnightblue" stroke="midnightblue" points="268,-29.751 264.5,-19.7511 261,-29.7511 268,-29.751"/>
</g>
<!-- Node9 -->
<g id="node9" class="node"><title>Node9</title>
<polygon fill="white" stroke="#bfbfbf" points="312.5,-0.5 312.5,-19.5 368.5,-19.5 368.5,-0.5 312.5,-0.5"/>
<text text-anchor="middle" x="340.5" y="-7.5" font-family="Helvetica,sans-Serif" font-size="10.00">sstream</text>
</g>
<!-- Node5&#45;&gt;Node9 -->
<g id="edge8" class="edge"><title>Node5&#45;&gt;Node9</title>
<path fill="none" stroke="midnightblue" d="M276.711,-56.324C288.276,-48.1066 305.875,-35.6017 319.661,-25.8069"/>
<polygon fill="midnightblue" stroke="midnightblue" points="321.943,-28.4791 328.067,-19.8339 317.888,-22.7729 321.943,-28.4791"/>
</g>
<!-- Node10 -->
<g id="node10" class="node"><title>Node10</title>
<polygon fill="white" stroke="#bfbfbf" points="386.5,-0.5 386.5,-19.5 434.5,-19.5 434.5,-0.5 386.5,-0.5"/>
<text text-anchor="middle" x="410.5" y="-7.5" font-family="Helvetica,sans-Serif" font-size="10.00">thread</text>
</g>
<!-- Node5&#45;&gt;Node10 -->
<g id="edge9" class="edge"><title>Node5&#45;&gt;Node10</title>
<path fill="none" stroke="midnightblue" d="M287.634,-56.4435C311.982,-47.4381 350.507,-33.1891 377.923,-23.049"/>
<polygon fill="midnightblue" stroke="midnightblue" points="379.309,-26.2681 387.474,-19.5164 376.881,-19.7028 379.309,-26.2681"/>
</g>
<!-- Node13&#45;&gt;Node4 -->
<g id="edge13" class="edge"><title>Node13&#45;&gt;Node4</title>
<path fill="none" stroke="midnightblue" d="M485.247,-240.979C414.252,-228.499 290.804,-205.973 283.5,-199 268.086,-184.286 264.423,-159.115 263.9,-141.798"/>
<polygon fill="midnightblue" stroke="midnightblue" points="267.4,-141.748 263.919,-131.742 260.4,-141.735 267.4,-141.748"/>
</g>
<!-- Node14 -->
<g id="node14" class="node"><title>Node14</title>
<polygon fill="white" stroke="#bfbfbf" points="622.5,-174 622.5,-193 690.5,-193 690.5,-174 622.5,-174"/>
<text text-anchor="middle" x="656.5" y="-181" font-family="Helvetica,sans-Serif" font-size="10.00">Eigen/Core</text>
</g>
<!-- Node13&#45;&gt;Node14 -->
<g id="edge14" class="edge"><title>Node13&#45;&gt;Node14</title>
<path fill="none" stroke="midnightblue" d="M550.701,-240.869C571.3,-229.893 607.091,-210.824 631.277,-197.938"/>
<polygon fill="midnightblue" stroke="midnightblue" points="633.053,-200.958 640.232,-193.167 629.761,-194.78 633.053,-200.958"/>
</g>
<!-- Node15 -->
<g id="node15" class="node"><title>Node15</title>
<polygon fill="white" stroke="#bfbfbf" points="708.5,-174 708.5,-193 802.5,-193 802.5,-174 708.5,-174"/>
<text text-anchor="middle" x="755.5" y="-181" font-family="Helvetica,sans-Serif" font-size="10.00">Eigen/Geometry</text>
</g>
<!-- Node13&#45;&gt;Node15 -->
<g id="edge15" class="edge"><title>Node13&#45;&gt;Node15</title>
<path fill="none" stroke="midnightblue" d="M563.847,-240.869C603.171,-229.303 673.054,-208.749 716.691,-195.914"/>
<polygon fill="midnightblue" stroke="midnightblue" points="717.777,-199.243 726.384,-193.064 715.802,-192.528 717.777,-199.243"/>
</g>
<!-- Node16 -->
<g id="node16" class="node"><title>Node16</title>
<polygon fill="white" stroke="#bfbfbf" points="820.5,-174 820.5,-193 900.5,-193 900.5,-174 820.5,-174"/>
<text text-anchor="middle" x="860.5" y="-181" font-family="Helvetica,sans-Serif" font-size="10.00">Eigen/Sparse</text>
</g>
<!-- Node13&#45;&gt;Node16 -->
<g id="edge16" class="edge"><title>Node13&#45;&gt;Node16</title>
<path fill="none" stroke="midnightblue" d="M591.371,-240.964C647.629,-232.091 736.014,-216.995 811.5,-199 815.578,-198.028 819.819,-196.921 824.025,-195.761"/>
<polygon fill="midnightblue" stroke="midnightblue" points="825.029,-199.115 833.682,-193.001 823.105,-192.384 825.029,-199.115"/>
</g>
<!-- Node17 -->
<g id="node17" class="node"><title>Node17</title>
<polygon fill="white" stroke="#bfbfbf" points="919,-174 919,-193 982,-193 982,-174 919,-174"/>
<text text-anchor="middle" x="950.5" y="-181" font-family="Helvetica,sans-Serif" font-size="10.00">functional</text>
</g>
<!-- Node13&#45;&gt;Node17 -->
<g id="edge17" class="edge"><title>Node13&#45;&gt;Node17</title>
<path fill="none" stroke="midnightblue" d="M612.57,-243.706C689.03,-236.929 808.446,-223.397 909.5,-199 912.729,-198.22 916.06,-197.28 919.361,-196.258"/>
<polygon fill="midnightblue" stroke="midnightblue" points="920.671,-199.511 929.048,-193.023 918.454,-192.871 920.671,-199.511"/>
</g>
<!-- Node18 -->
<g id="node18" class="node"><title>Node18</title>
<polygon fill="white" stroke="#bfbfbf" points="293,-168.5 293,-198.5 438,-198.5 438,-168.5 293,-168.5"/>
<text text-anchor="start" x="301" y="-186.5" font-family="Helvetica,sans-Serif" font-size="10.00">unsupported/Eigen/Aligned</text>
<text text-anchor="middle" x="365.5" y="-175.5" font-family="Helvetica,sans-Serif" font-size="10.00">Vector3</text>
</g>
<!-- Node13&#45;&gt;Node18 -->
<g id="edge18" class="edge"><title>Node13&#45;&gt;Node18</title>
<path fill="none" stroke="midnightblue" d="M512.058,-240.869C486.479,-231.031 443.993,-214.689 411.332,-202.128"/>
<polygon fill="midnightblue" stroke="midnightblue" points="412.563,-198.851 401.973,-198.528 410.05,-205.385 412.563,-198.851"/>
</g>
<!-- Node19 -->
<g id="node19" class="node"><title>Node19</title>
<g id="a_node19"><a xlink:href="Math_8hpp.html" target="_top" xlink:title="Core/Math/Math.hpp">
<polygon fill="white" stroke="black" points="1038.5,-174 1038.5,-193 1152.5,-193 1152.5,-174 1038.5,-174"/>
<text text-anchor="middle" x="1095.5" y="-181" font-family="Helvetica,sans-Serif" font-size="10.00">Core/Math/Math.hpp</text>
</a>
</g>
</g>
<!-- Node13&#45;&gt;Node19 -->
<g id="edge19" class="edge"><title>Node13&#45;&gt;Node19</title>
<path fill="none" stroke="midnightblue" d="M612.612,-241.552C703.664,-232.129 858.63,-215.6 991.5,-199 1003.37,-197.517 1015.99,-195.841 1028.19,-194.169"/>
<polygon fill="midnightblue" stroke="midnightblue" points="1028.89,-197.606 1038.32,-192.77 1027.94,-190.672 1028.89,-197.606"/>
</g>
<!-- Node23 -->
<g id="node23" class="node"><title>Node23</title>
<g id="a_node23"><a xlink:href="LinearAlgebra_8inl.html" target="_top" xlink:title="Core/Math/LinearAlgebra.inl">
<polygon fill="white" stroke="black" points="456,-174 456,-193 605,-193 605,-174 456,-174"/>
<text text-anchor="middle" x="530.5" y="-181" font-family="Helvetica,sans-Serif" font-size="10.00">Core/Math/LinearAlgebra.inl</text>
</a>
</g>
</g>
<!-- Node13&#45;&gt;Node23 -->
<g id="edge25" class="edge"><title>Node13&#45;&gt;Node23</title>
<path fill="none" stroke="midnightblue" d="M533.961,-240.734C533.373,-231.183 532.415,-215.618 531.656,-203.283"/>
<polygon fill="midnightblue" stroke="midnightblue" points="535.139,-202.893 531.031,-193.127 528.152,-203.323 535.139,-202.893"/>
</g>
<!-- Node19&#45;&gt;Node4 -->
<g id="edge20" class="edge"><title>Node19&#45;&gt;Node4</title>
<path fill="none" stroke="midnightblue" d="M1058.82,-173.972C1047.84,-171.7 1035.73,-169.471 1024.5,-168 764.835,-133.973 451.859,-125.662 323.637,-123.643"/>
<polygon fill="midnightblue" stroke="midnightblue" points="323.682,-120.143 313.631,-123.492 323.577,-127.142 323.682,-120.143"/>
</g>
<!-- Node20 -->
<g id="node20" class="node"><title>Node20</title>
<polygon fill="white" stroke="#bfbfbf" points="943.5,-112.5 943.5,-131.5 1005.5,-131.5 1005.5,-112.5 943.5,-112.5"/>
<text text-anchor="middle" x="974.5" y="-119.5" font-family="Helvetica,sans-Serif" font-size="10.00">algorithm</text>
</g>
<!-- Node19&#45;&gt;Node20 -->
<g id="edge21" class="edge"><title>Node19&#45;&gt;Node20</title>
<path fill="none" stroke="midnightblue" d="M1078.16,-173.975C1057.95,-164.034 1024.31,-147.495 1000.86,-135.961"/>
<polygon fill="midnightblue" stroke="midnightblue" points="1002.32,-132.781 991.804,-131.509 999.233,-139.063 1002.32,-132.781"/>
</g>
<!-- Node21 -->
<g id="node21" class="node"><title>Node21</title>
<polygon fill="white" stroke="#bfbfbf" points="1024,-112.5 1024,-131.5 1071,-131.5 1071,-112.5 1024,-112.5"/>
<text text-anchor="middle" x="1047.5" y="-119.5" font-family="Helvetica,sans-Serif" font-size="10.00">cmath</text>
</g>
<!-- Node19&#45;&gt;Node21 -->
<g id="edge22" class="edge"><title>Node19&#45;&gt;Node21</title>
<path fill="none" stroke="midnightblue" d="M1088.62,-173.975C1081.35,-164.962 1069.7,-150.525 1060.66,-139.312"/>
<polygon fill="midnightblue" stroke="midnightblue" points="1063.37,-137.095 1054.36,-131.509 1057.92,-141.49 1063.37,-137.095"/>
</g>
<!-- Node22 -->
<g id="node22" class="node"><title>Node22</title>
<g id="a_node22"><a xlink:href="Math_8inl.html" target="_top" xlink:title="Core/Math/Math.inl">
<polygon fill="white" stroke="black" points="1089,-112.5 1089,-131.5 1196,-131.5 1196,-112.5 1089,-112.5"/>
<text text-anchor="middle" x="1142.5" y="-119.5" font-family="Helvetica,sans-Serif" font-size="10.00">Core/Math/Math.inl</text>
</a>
</g>
</g>
<!-- Node19&#45;&gt;Node22 -->
<g id="edge23" class="edge"><title>Node19&#45;&gt;Node22</title>
<path fill="none" stroke="midnightblue" d="M1097.33,-173.975C1102.54,-164.873 1113.71,-150.241 1123.81,-138.983"/>
<polygon fill="midnightblue" stroke="midnightblue" points="1126.55,-141.18 1130.88,-131.509 1121.47,-136.37 1126.55,-141.18"/>
</g>
<!-- Node22&#45;&gt;Node19 -->
<g id="edge24" class="edge"><title>Node22&#45;&gt;Node19</title>
<path fill="none" stroke="midnightblue" d="M1140.68,-131.509C1135.48,-140.604 1124.31,-155.236 1114.2,-166.497"/>
<polygon fill="midnightblue" stroke="midnightblue" points="1111.46,-164.304 1107.13,-173.975 1116.55,-169.113 1111.46,-164.304"/>
</g>
<!-- Node25&#45;&gt;Node3 -->
<g id="edge28" class="edge"><title>Node25&#45;&gt;Node3</title>
<path fill="none" stroke="midnightblue" d="M267.018,-302.396C253.137,-293.282 234.873,-281.29 219.559,-271.236"/>
<polygon fill="midnightblue" stroke="midnightblue" points="221.22,-268.139 210.94,-265.577 217.378,-273.991 221.22,-268.139"/>
</g>
<!-- Node25&#45;&gt;Node13 -->
<g id="edge29" class="edge"><title>Node25&#45;&gt;Node13</title>
<path fill="none" stroke="midnightblue" d="M341.575,-302.476C386.724,-290.547 450.693,-273.644 492.386,-262.628"/>
<polygon fill="midnightblue" stroke="midnightblue" points="493.448,-265.967 502.222,-260.029 491.66,-259.199 493.448,-265.967"/>
</g>
<!-- Node26&#45;&gt;Node3 -->
<g id="edge32" class="edge"><title>Node26&#45;&gt;Node3</title>
<path fill="none" stroke="midnightblue" d="M100.391,-307.734C115.248,-298.358 139.287,-283.188 158.654,-270.966"/>
<polygon fill="midnightblue" stroke="midnightblue" points="160.585,-273.886 167.174,-265.589 156.85,-267.966 160.585,-273.886"/>
</g>
<!-- Node26&#45;&gt;Node4 -->
<g id="edge34" class="edge"><title>Node26&#45;&gt;Node4</title>
<path fill="none" stroke="midnightblue" d="M77.7231,-307.82C53.9887,-283.312 -7.2738,-212.484 29.5,-168 51.4062,-141.501 143.24,-130.456 205.409,-125.959"/>
<polygon fill="midnightblue" stroke="midnightblue" points="205.762,-129.444 215.499,-125.268 205.283,-122.46 205.762,-129.444"/>
</g>
<!-- Node26&#45;&gt;Node12 -->
<g id="edge35" class="edge"><title>Node26&#45;&gt;Node12</title>
<path fill="none" stroke="midnightblue" d="M84.9253,-307.839C81.077,-286.674 71.1269,-231.948 65.8696,-203.033"/>
<polygon fill="midnightblue" stroke="midnightblue" points="69.2818,-202.234 64.0493,-193.021 62.3947,-203.486 69.2818,-202.234"/>
</g>
<!-- Node26&#45;&gt;Node13 -->
<g id="edge33" class="edge"><title>Node26&#45;&gt;Node13</title>
<path fill="none" stroke="midnightblue" d="M151.134,-307.977C223.427,-298.323 343.974,-281.865 447.5,-266 456.392,-264.637 465.785,-263.136 474.981,-261.632"/>
<polygon fill="midnightblue" stroke="midnightblue" points="475.55,-265.086 484.848,-260.006 474.412,-258.179 475.55,-265.086"/>
</g>
<!-- Node27&#45;&gt;Node4 -->
<g id="edge38" class="edge"><title>Node27&#45;&gt;Node4</title>
<path fill="none" stroke="midnightblue" d="M1012.66,-307.823C1018.48,-282.061 1031.53,-205.49 991.5,-168 943.267,-122.825 489.079,-121.421 324.056,-122.427"/>
<polygon fill="midnightblue" stroke="midnightblue" points="323.588,-118.93 313.612,-122.496 323.635,-125.929 323.588,-118.93"/>
</g>
<!-- Node27&#45;&gt;Node13 -->
<g id="edge37" class="edge"><title>Node27&#45;&gt;Node13</title>
<path fill="none" stroke="midnightblue" d="M947.782,-307.936C859.819,-295.924 700.174,-274.124 607.152,-261.421"/>
<polygon fill="midnightblue" stroke="midnightblue" points="607.36,-257.917 596.978,-260.032 606.413,-264.853 607.36,-257.917"/>
</g>
<!-- Node28 -->
<g id="node28" class="node"><title>Node28</title>
<g id="a_node28"><a xlink:href="DualQuaternion_8inl.html" target="_top" xlink:title="Core/Math/DualQuaternion.inl">
<polygon fill="white" stroke="black" points="1038.5,-241 1038.5,-260 1196.5,-260 1196.5,-241 1038.5,-241"/>
<text text-anchor="middle" x="1117.5" y="-248" font-family="Helvetica,sans-Serif" font-size="10.00">Core/Math/DualQuaternion.inl</text>
</a>
</g>
</g>
<!-- Node27&#45;&gt;Node28 -->
<g id="edge39" class="edge"><title>Node27&#45;&gt;Node28</title>
<path fill="none" stroke="midnightblue" d="M1020.14,-307.734C1035.88,-296.769 1066.71,-277.881 1089.59,-265.049"/>
<polygon fill="midnightblue" stroke="midnightblue" points="1091.46,-268.014 1098.54,-260.127 1088.09,-261.881 1091.46,-268.014"/>
</g>
<!-- Node28&#45;&gt;Node27 -->
<g id="edge40" class="edge"><title>Node28&#45;&gt;Node27</title>
<path fill="none" stroke="midnightblue" d="M1108.06,-260.127C1092.44,-271.024 1061.65,-289.905 1038.7,-302.787"/>
<polygon fill="midnightblue" stroke="midnightblue" points="1036.79,-299.843 1029.72,-307.734 1040.17,-305.975 1036.79,-299.843"/>
</g>
</g>
</svg>
