<?xml version="1.0" encoding="UTF-8" standalone="no"?>
<!DOCTYPE svg PUBLIC "-//W3C//DTD SVG 1.1//EN"
 "http://www.w3.org/Graphics/SVG/1.1/DTD/svg11.dtd">
<!-- Generated by graphviz version 2.38.0 (20140413.2041)
 -->
<!-- Title: /home/travis/build/STORM&#45;IRIT/Radium&#45;Engine/Plugins/Dummy/src/DummyComponent.hpp Pages: 1 -->
<svg width="1244pt" height="453pt"
 viewBox="0.00 0.00 1244.06 453.00" xmlns="http://www.w3.org/2000/svg" xmlns:xlink="http://www.w3.org/1999/xlink">
<g id="graph0" class="graph" transform="scale(1 1) rotate(0) translate(4 449)">
<title>/home/travis/build/STORM&#45;IRIT/Radium&#45;Engine/Plugins/Dummy/src/DummyComponent.hpp</title>
<polygon fill="white" stroke="none" points="-4,4 -4,-449 1240.06,-449 1240.06,4 -4,4"/>
<!-- Node1 -->
<g id="node1" class="node"><title>Node1</title>
<polygon fill="#bfbfbf" stroke="black" points="53.5,-403.5 53.5,-444.5 283.5,-444.5 283.5,-403.5 53.5,-403.5"/>
<text text-anchor="start" x="61.5" y="-432.5" font-family="Helvetica,sans-Serif" font-size="10.00">/home/travis/build</text>
<text text-anchor="start" x="61.5" y="-421.5" font-family="Helvetica,sans-Serif" font-size="10.00">/STORM&#45;IRIT/Radium&#45;Engine</text>
<text text-anchor="middle" x="168.5" y="-410.5" font-family="Helvetica,sans-Serif" font-size="10.00">/Plugins/Dummy/src/DummyComponent.hpp</text>
</g>
<!-- Node2 -->
<g id="node2" class="node"><title>Node2</title>
<g id="a_node2"><a xlink:href="DummyPluginMacros_8hpp.html" target="_top" xlink:title="DummyPluginMacros.hpp">
<polygon fill="white" stroke="black" points="0,-347.5 0,-366.5 139,-366.5 139,-347.5 0,-347.5"/>
<text text-anchor="middle" x="69.5" y="-354.5" font-family="Helvetica,sans-Serif" font-size="10.00">DummyPluginMacros.hpp</text>
</a>
</g>
</g>
<!-- Node1&#45;&gt;Node2 -->
<g id="edge1" class="edge"><title>Node1&#45;&gt;Node2</title>
<path fill="none" stroke="midnightblue" d="M138.797,-403.498C123.472,-393.436 105.117,-381.385 91.1484,-372.214"/>
<polygon fill="midnightblue" stroke="midnightblue" points="92.9587,-369.215 82.6784,-366.652 89.1167,-375.067 92.9587,-369.215"/>
</g>
<!-- Node9 -->
<g id="node9" class="node"><title>Node9</title>
<g id="a_node9"><a xlink:href="MeshTypes_8hpp.html" target="_top" xlink:title="Core/Mesh/MeshTypes.hpp">
<polygon fill="white" stroke="black" points="97,-291.5 97,-310.5 240,-310.5 240,-291.5 97,-291.5"/>
<text text-anchor="middle" x="168.5" y="-298.5" font-family="Helvetica,sans-Serif" font-size="10.00">Core/Mesh/MeshTypes.hpp</text>
</a>
</g>
</g>
<!-- Node1&#45;&gt;Node9 -->
<g id="edge8" class="edge"><title>Node1&#45;&gt;Node9</title>
<path fill="none" stroke="midnightblue" d="M168.5,-403.29C168.5,-380.48 168.5,-343.189 168.5,-320.781"/>
<polygon fill="midnightblue" stroke="midnightblue" points="172,-320.575 168.5,-310.575 165,-320.575 172,-320.575"/>
</g>
<!-- Node25 -->
<g id="node25" class="node"><title>Node25</title>
<g id="a_node25"><a xlink:href="Component_8hpp.html" target="_top" xlink:title="Engine/Component/Component.hpp">
<polygon fill="white" stroke="black" points="516.5,-347.5 516.5,-366.5 704.5,-366.5 704.5,-347.5 516.5,-347.5"/>
<text text-anchor="middle" x="610.5" y="-354.5" font-family="Helvetica,sans-Serif" font-size="10.00">Engine/Component/Component.hpp</text>
</a>
</g>
</g>
<!-- Node1&#45;&gt;Node25 -->
<g id="edge28" class="edge"><title>Node1&#45;&gt;Node25</title>
<path fill="none" stroke="midnightblue" d="M283.765,-406.049C365.877,-393.974 473.468,-378.152 542.308,-368.028"/>
<polygon fill="midnightblue" stroke="midnightblue" points="543.21,-371.433 552.594,-366.516 542.191,-364.508 543.21,-371.433"/>
</g>
<!-- Node3 -->
<g id="node3" class="node"><title>Node3</title>
<g id="a_node3"><a xlink:href="CoreMacros_8hpp.html" target="_top" xlink:title="Core/CoreMacros.hpp">
<polygon fill="white" stroke="black" points="272.5,-56.5 272.5,-75.5 392.5,-75.5 392.5,-56.5 272.5,-56.5"/>
<text text-anchor="middle" x="332.5" y="-63.5" font-family="Helvetica,sans-Serif" font-size="10.00">Core/CoreMacros.hpp</text>
</a>
</g>
</g>
<!-- Node2&#45;&gt;Node3 -->
<g id="edge2" class="edge"><title>Node2&#45;&gt;Node3</title>
<path fill="none" stroke="midnightblue" d="M64.0772,-347.25C53.3611,-329.096 30.5,-285.713 30.5,-246 30.5,-246 30.5,-246 30.5,-182.5 30.5,-131.219 184.331,-94.3042 272.413,-77.3704"/>
<polygon fill="midnightblue" stroke="midnightblue" points="273.117,-80.7996 282.292,-75.5019 271.816,-73.9215 273.117,-80.7996"/>
</g>
<!-- Node4 -->
<g id="node4" class="node"><title>Node4</title>
<polygon fill="white" stroke="#bfbfbf" points="169.5,-0.5 169.5,-19.5 221.5,-19.5 221.5,-0.5 169.5,-0.5"/>
<text text-anchor="middle" x="195.5" y="-7.5" font-family="Helvetica,sans-Serif" font-size="10.00">cassert</text>
</g>
<!-- Node3&#45;&gt;Node4 -->
<g id="edge3" class="edge"><title>Node3&#45;&gt;Node4</title>
<path fill="none" stroke="midnightblue" d="M310.792,-56.4435C288.145,-47.5171 252.428,-33.4387 226.748,-23.3168"/>
<polygon fill="midnightblue" stroke="midnightblue" points="227.693,-19.9273 217.106,-19.5164 225.126,-26.4397 227.693,-19.9273"/>
</g>
<!-- Node5 -->
<g id="node5" class="node"><title>Node5</title>
<polygon fill="white" stroke="#bfbfbf" points="240,-0.5 240,-19.5 285,-19.5 285,-0.5 240,-0.5"/>
<text text-anchor="middle" x="262.5" y="-7.5" font-family="Helvetica,sans-Serif" font-size="10.00">cstdio</text>
</g>
<!-- Node3&#45;&gt;Node5 -->
<g id="edge4" class="edge"><title>Node3&#45;&gt;Node5</title>
<path fill="none" stroke="midnightblue" d="M321.253,-56.324C310.703,-48.1849 294.699,-35.8395 282.058,-26.0874"/>
<polygon fill="midnightblue" stroke="midnightblue" points="284.007,-23.1707 273.951,-19.8339 279.731,-28.7132 284.007,-23.1707"/>
</g>
<!-- Node6 -->
<g id="node6" class="node"><title>Node6</title>
<polygon fill="white" stroke="#bfbfbf" points="303,-0.5 303,-19.5 362,-19.5 362,-0.5 303,-0.5"/>
<text text-anchor="middle" x="332.5" y="-7.5" font-family="Helvetica,sans-Serif" font-size="10.00">iostream</text>
</g>
<!-- Node3&#45;&gt;Node6 -->
<g id="edge5" class="edge"><title>Node3&#45;&gt;Node6</title>
<path fill="none" stroke="midnightblue" d="M332.5,-56.083C332.5,-49.0059 332.5,-38.8611 332.5,-29.9865"/>
<polygon fill="midnightblue" stroke="midnightblue" points="336,-29.751 332.5,-19.7511 329,-29.7511 336,-29.751"/>
</g>
<!-- Node7 -->
<g id="node7" class="node"><title>Node7</title>
<polygon fill="white" stroke="#bfbfbf" points="380.5,-0.5 380.5,-19.5 436.5,-19.5 436.5,-0.5 380.5,-0.5"/>
<text text-anchor="middle" x="408.5" y="-7.5" font-family="Helvetica,sans-Serif" font-size="10.00">sstream</text>
</g>
<!-- Node3&#45;&gt;Node7 -->
<g id="edge6" class="edge"><title>Node3&#45;&gt;Node7</title>
<path fill="none" stroke="midnightblue" d="M344.711,-56.324C356.276,-48.1066 373.875,-35.6017 387.661,-25.8069"/>
<polygon fill="midnightblue" stroke="midnightblue" points="389.943,-28.4791 396.067,-19.8339 385.888,-22.7729 389.943,-28.4791"/>
</g>
<!-- Node8 -->
<g id="node8" class="node"><title>Node8</title>
<polygon fill="white" stroke="#bfbfbf" points="454.5,-0.5 454.5,-19.5 502.5,-19.5 502.5,-0.5 454.5,-0.5"/>
<text text-anchor="middle" x="478.5" y="-7.5" font-family="Helvetica,sans-Serif" font-size="10.00">thread</text>
</g>
<!-- Node3&#45;&gt;Node8 -->
<g id="edge7" class="edge"><title>Node3&#45;&gt;Node8</title>
<path fill="none" stroke="midnightblue" d="M355.634,-56.4435C379.982,-47.4381 418.507,-33.1891 445.923,-23.049"/>
<polygon fill="midnightblue" stroke="midnightblue" points="447.309,-26.2681 455.474,-19.5164 444.881,-19.7028 447.309,-26.2681"/>
</g>
<!-- Node10 -->
<g id="node10" class="node"><title>Node10</title>
<g id="a_node10"><a xlink:href="Index_8hpp.html" target="_top" xlink:title="Core/Index/Index.hpp">
<polygon fill="white" stroke="black" points="130,-235.5 130,-254.5 247,-254.5 247,-235.5 130,-235.5"/>
<text text-anchor="middle" x="188.5" y="-242.5" font-family="Helvetica,sans-Serif" font-size="10.00">Core/Index/Index.hpp</text>
</a>
</g>
</g>
<!-- Node9&#45;&gt;Node10 -->
<g id="edge9" class="edge"><title>Node9&#45;&gt;Node10</title>
<path fill="none" stroke="midnightblue" d="M171.803,-291.083C174.482,-283.849 178.349,-273.409 181.686,-264.397"/>
<polygon fill="midnightblue" stroke="midnightblue" points="185.068,-265.344 185.259,-254.751 178.504,-262.913 185.068,-265.344"/>
</g>
<!-- Node13 -->
<g id="node13" class="node"><title>Node13</title>
<g id="a_node13"><a xlink:href="LinearAlgebra_8hpp.html" target="_top" xlink:title="Core/Math/LinearAlgebra.hpp">
<polygon fill="white" stroke="black" points="532.5,-235.5 532.5,-254.5 688.5,-254.5 688.5,-235.5 532.5,-235.5"/>
<text text-anchor="middle" x="610.5" y="-242.5" font-family="Helvetica,sans-Serif" font-size="10.00">Core/Math/LinearAlgebra.hpp</text>
</a>
</g>
</g>
<!-- Node9&#45;&gt;Node13 -->
<g id="edge12" class="edge"><title>Node9&#45;&gt;Node13</title>
<path fill="none" stroke="midnightblue" d="M238.536,-291.444C317.986,-281.737 447.297,-265.939 530.613,-255.76"/>
<polygon fill="midnightblue" stroke="midnightblue" points="531.29,-259.203 540.791,-254.516 530.441,-252.255 531.29,-259.203"/>
</g>
<!-- Node14 -->
<g id="node14" class="node"><title>Node14</title>
<g id="a_node14"><a xlink:href="RaCore_8hpp.html" target="_top" xlink:title="Core/RaCore.hpp">
<polygon fill="white" stroke="black" points="283.5,-112.5 283.5,-131.5 381.5,-131.5 381.5,-112.5 283.5,-112.5"/>
<text text-anchor="middle" x="332.5" y="-119.5" font-family="Helvetica,sans-Serif" font-size="10.00">Core/RaCore.hpp</text>
</a>
</g>
</g>
<!-- Node9&#45;&gt;Node14 -->
<g id="edge27" class="edge"><title>Node9&#45;&gt;Node14</title>
<path fill="none" stroke="midnightblue" d="M155.936,-291.413C125.385,-269.519 52.2207,-210.349 87.5,-168 110.687,-140.166 208.457,-129.49 273.259,-125.436"/>
<polygon fill="midnightblue" stroke="midnightblue" points="273.583,-128.923 283.359,-124.84 273.171,-121.935 273.583,-128.923"/>
</g>
<!-- Node11 -->
<g id="node11" class="node"><title>Node11</title>
<polygon fill="white" stroke="#bfbfbf" points="96.5,-174 96.5,-193 138.5,-193 138.5,-174 96.5,-174"/>
<text text-anchor="middle" x="117.5" y="-181" font-family="Helvetica,sans-Serif" font-size="10.00">limits</text>
</g>
<!-- Node10&#45;&gt;Node11 -->
<g id="edge10" class="edge"><title>Node10&#45;&gt;Node11</title>
<path fill="none" stroke="midnightblue" d="M178.327,-235.475C167.15,-226.108 148.983,-210.884 135.409,-199.508"/>
<polygon fill="midnightblue" stroke="midnightblue" points="137.566,-196.75 127.654,-193.009 133.07,-202.115 137.566,-196.75"/>
</g>
<!-- Node12 -->
<g id="node12" class="node"><title>Node12</title>
<g id="a_node12"><a xlink:href="Index_8inl.html" target="_top" xlink:title="Core/Index/Index.inl">
<polygon fill="white" stroke="black" points="156.5,-174 156.5,-193 266.5,-193 266.5,-174 156.5,-174"/>
<text text-anchor="middle" x="211.5" y="-181" font-family="Helvetica,sans-Serif" font-size="10.00">Core/Index/Index.inl</text>
</a>
</g>
</g>
<!-- Node10&#45;&gt;Node12 -->
<g id="edge11" class="edge"><title>Node10&#45;&gt;Node12</title>
<path fill="none" stroke="midnightblue" d="M191.795,-235.475C195.109,-226.904 200.318,-213.427 204.549,-202.483"/>
<polygon fill="midnightblue" stroke="midnightblue" points="207.87,-203.598 208.211,-193.009 201.341,-201.075 207.87,-203.598"/>
</g>
<!-- Node13&#45;&gt;Node14 -->
<g id="edge13" class="edge"><title>Node13&#45;&gt;Node14</title>
<path fill="none" stroke="midnightblue" d="M532.289,-241.65C487.536,-237.133 432.02,-225.9 389.5,-199 367.13,-184.847 350.405,-158.567 341.039,-140.93"/>
<polygon fill="midnightblue" stroke="midnightblue" points="344.014,-139.056 336.389,-131.701 337.763,-142.206 344.014,-139.056"/>
</g>
<!-- Node15 -->
<g id="node15" class="node"><title>Node15</title>
<polygon fill="white" stroke="#bfbfbf" points="907.5,-174 907.5,-193 975.5,-193 975.5,-174 907.5,-174"/>
<text text-anchor="middle" x="941.5" y="-181" font-family="Helvetica,sans-Serif" font-size="10.00">Eigen/Core</text>
</g>
<!-- Node13&#45;&gt;Node15 -->
<g id="edge15" class="edge"><title>Node13&#45;&gt;Node15</title>
<path fill="none" stroke="midnightblue" d="M688.524,-235.668C747.111,-228.493 829.028,-216.503 899.5,-199 902.719,-198.2 906.042,-197.26 909.343,-196.25"/>
<polygon fill="midnightblue" stroke="midnightblue" points="910.635,-199.509 919.053,-193.075 908.46,-192.856 910.635,-199.509"/>
</g>
<!-- Node16 -->
<g id="node16" class="node"><title>Node16</title>
<polygon fill="white" stroke="#bfbfbf" points="1125.5,-174 1125.5,-193 1219.5,-193 1219.5,-174 1125.5,-174"/>
<text text-anchor="middle" x="1172.5" y="-181" font-family="Helvetica,sans-Serif" font-size="10.00">Eigen/Geometry</text>
</g>
<!-- Node13&#45;&gt;Node16 -->
<g id="edge16" class="edge"><title>Node13&#45;&gt;Node16</title>
<path fill="none" stroke="midnightblue" d="M688.598,-241.045C788.443,-236.356 966.368,-224.931 1116.5,-199 1122,-198.049 1127.76,-196.827 1133.4,-195.496"/>
<polygon fill="midnightblue" stroke="midnightblue" points="1134.49,-198.833 1143.34,-193.019 1132.79,-192.04 1134.49,-198.833"/>
</g>
<!-- Node17 -->
<g id="node17" class="node"><title>Node17</title>
<polygon fill="white" stroke="#bfbfbf" points="398.5,-174 398.5,-193 478.5,-193 478.5,-174 398.5,-174"/>
<text text-anchor="middle" x="438.5" y="-181" font-family="Helvetica,sans-Serif" font-size="10.00">Eigen/Sparse</text>
</g>
<!-- Node13&#45;&gt;Node17 -->
<g id="edge17" class="edge"><title>Node13&#45;&gt;Node17</title>
<path fill="none" stroke="midnightblue" d="M585.857,-235.475C556.225,-225.225 506.315,-207.959 472.898,-196.399"/>
<polygon fill="midnightblue" stroke="midnightblue" points="473.692,-192.971 463.098,-193.009 471.404,-199.586 473.692,-192.971"/>
</g>
<!-- Node18 -->
<g id="node18" class="node"><title>Node18</title>
<polygon fill="white" stroke="#bfbfbf" points="497,-174 497,-193 560,-193 560,-174 497,-174"/>
<text text-anchor="middle" x="528.5" y="-181" font-family="Helvetica,sans-Serif" font-size="10.00">functional</text>
</g>
<!-- Node13&#45;&gt;Node18 -->
<g id="edge18" class="edge"><title>Node13&#45;&gt;Node18</title>
<path fill="none" stroke="midnightblue" d="M598.751,-235.475C585.721,-226.02 564.464,-210.596 548.741,-199.187"/>
<polygon fill="midnightblue" stroke="midnightblue" points="550.376,-196.049 540.227,-193.009 546.265,-201.715 550.376,-196.049"/>
</g>
<!-- Node19 -->
<g id="node19" class="node"><title>Node19</title>
<polygon fill="white" stroke="#bfbfbf" points="578,-168.5 578,-198.5 723,-198.5 723,-168.5 578,-168.5"/>
<text text-anchor="start" x="586" y="-186.5" font-family="Helvetica,sans-Serif" font-size="10.00">unsupported/Eigen/Aligned</text>
<text text-anchor="middle" x="650.5" y="-175.5" font-family="Helvetica,sans-Serif" font-size="10.00">Vector3</text>
</g>
<!-- Node13&#45;&gt;Node19 -->
<g id="edge19" class="edge"><title>Node13&#45;&gt;Node19</title>
<path fill="none" stroke="midnightblue" d="M616.231,-235.475C621.243,-228.019 628.751,-216.852 635.462,-206.869"/>
<polygon fill="midnightblue" stroke="midnightblue" points="638.398,-208.775 641.073,-198.523 632.589,-204.869 638.398,-208.775"/>
</g>
<!-- Node20 -->
<g id="node20" class="node"><title>Node20</title>
<g id="a_node20"><a xlink:href="Math_8hpp.html" target="_top" xlink:title="Core/Math/Math.hpp">
<polygon fill="white" stroke="black" points="993.5,-174 993.5,-193 1107.5,-193 1107.5,-174 993.5,-174"/>
<text text-anchor="middle" x="1050.5" y="-181" font-family="Helvetica,sans-Serif" font-size="10.00">Core/Math/Math.hpp</text>
</a>
</g>
</g>
<!-- Node13&#45;&gt;Node20 -->
<g id="edge20" class="edge"><title>Node13&#45;&gt;Node20</title>
<path fill="none" stroke="midnightblue" d="M688.534,-236.826C764.413,-229.329 882.786,-216.251 984.5,-199 991.106,-197.88 998.048,-196.538 1004.85,-195.128"/>
<polygon fill="midnightblue" stroke="midnightblue" points="1005.61,-198.545 1014.66,-193.034 1004.15,-191.7 1005.61,-198.545"/>
</g>
<!-- Node24 -->
<g id="node24" class="node"><title>Node24</title>
<g id="a_node24"><a xlink:href="LinearAlgebra_8inl.html" target="_top" xlink:title="Core/Math/LinearAlgebra.inl">
<polygon fill="white" stroke="black" points="741,-174 741,-193 890,-193 890,-174 741,-174"/>
<text text-anchor="middle" x="815.5" y="-181" font-family="Helvetica,sans-Serif" font-size="10.00">Core/Math/LinearAlgebra.inl</text>
</a>
</g>
</g>
<!-- Node13&#45;&gt;Node24 -->
<g id="edge26" class="edge"><title>Node13&#45;&gt;Node24</title>
<path fill="none" stroke="midnightblue" d="M639.872,-235.475C675.797,-225.048 736.732,-207.362 776.544,-195.807"/>
<polygon fill="midnightblue" stroke="midnightblue" points="777.555,-199.158 786.183,-193.009 775.604,-192.435 777.555,-199.158"/>
</g>
<!-- Node14&#45;&gt;Node3 -->
<g id="edge14" class="edge"><title>Node14&#45;&gt;Node3</title>
<path fill="none" stroke="midnightblue" d="M332.5,-112.083C332.5,-105.006 332.5,-94.8611 332.5,-85.9865"/>
<polygon fill="midnightblue" stroke="midnightblue" points="336,-85.751 332.5,-75.7511 329,-85.7511 336,-85.751"/>
</g>
<!-- Node20&#45;&gt;Node14 -->
<g id="edge21" class="edge"><title>Node20&#45;&gt;Node14</title>
<path fill="none" stroke="midnightblue" d="M1016.08,-173.933C1005.96,-171.688 994.835,-169.484 984.5,-168 767.546,-136.854 506.773,-127.09 391.838,-124.173"/>
<polygon fill="midnightblue" stroke="midnightblue" points="391.918,-120.674 381.835,-123.927 391.746,-127.672 391.918,-120.674"/>
</g>
<!-- Node21 -->
<g id="node21" class="node"><title>Node21</title>
<polygon fill="white" stroke="#bfbfbf" points="898.5,-112.5 898.5,-131.5 960.5,-131.5 960.5,-112.5 898.5,-112.5"/>
<text text-anchor="middle" x="929.5" y="-119.5" font-family="Helvetica,sans-Serif" font-size="10.00">algorithm</text>
</g>
<!-- Node20&#45;&gt;Node21 -->
<g id="edge22" class="edge"><title>Node20&#45;&gt;Node21</title>
<path fill="none" stroke="midnightblue" d="M1033.16,-173.975C1012.95,-164.034 979.313,-147.495 955.858,-135.961"/>
<polygon fill="midnightblue" stroke="midnightblue" points="957.322,-132.781 946.804,-131.509 954.233,-139.063 957.322,-132.781"/>
</g>
<!-- Node22 -->
<g id="node22" class="node"><title>Node22</title>
<polygon fill="white" stroke="#bfbfbf" points="979,-112.5 979,-131.5 1026,-131.5 1026,-112.5 979,-112.5"/>
<text text-anchor="middle" x="1002.5" y="-119.5" font-family="Helvetica,sans-Serif" font-size="10.00">cmath</text>
</g>
<!-- Node20&#45;&gt;Node22 -->
<g id="edge23" class="edge"><title>Node20&#45;&gt;Node22</title>
<path fill="none" stroke="midnightblue" d="M1043.62,-173.975C1036.35,-164.962 1024.7,-150.525 1015.66,-139.312"/>
<polygon fill="midnightblue" stroke="midnightblue" points="1018.37,-137.095 1009.36,-131.509 1012.92,-141.49 1018.37,-137.095"/>
</g>
<!-- Node23 -->
<g id="node23" class="node"><title>Node23</title>
<g id="a_node23"><a xlink:href="Math_8inl.html" target="_top" xlink:title="Core/Math/Math.inl">
<polygon fill="white" stroke="black" points="1044,-112.5 1044,-131.5 1151,-131.5 1151,-112.5 1044,-112.5"/>
<text text-anchor="middle" x="1097.5" y="-119.5" font-family="Helvetica,sans-Serif" font-size="10.00">Core/Math/Math.inl</text>
</a>
</g>
</g>
<!-- Node20&#45;&gt;Node23 -->
<g id="edge24" class="edge"><title>Node20&#45;&gt;Node23</title>
<path fill="none" stroke="midnightblue" d="M1052.33,-173.975C1057.54,-164.873 1068.71,-150.241 1078.81,-138.983"/>
<polygon fill="midnightblue" stroke="midnightblue" points="1081.55,-141.18 1085.88,-131.509 1076.47,-136.37 1081.55,-141.18"/>
</g>
<!-- Node23&#45;&gt;Node20 -->
<g id="edge25" class="edge"><title>Node23&#45;&gt;Node20</title>
<path fill="none" stroke="midnightblue" d="M1095.68,-131.509C1090.48,-140.604 1079.31,-155.236 1069.2,-166.497"/>
<polygon fill="midnightblue" stroke="midnightblue" points="1066.46,-164.304 1062.13,-173.975 1071.55,-169.113 1066.46,-164.304"/>
</g>
<!-- Node25&#45;&gt;Node13 -->
<g id="edge34" class="edge"><title>Node25&#45;&gt;Node13</title>
<path fill="none" stroke="midnightblue" d="M610.5,-347.368C610.5,-329.617 610.5,-288.666 610.5,-264.597"/>
<polygon fill="midnightblue" stroke="midnightblue" points="614,-264.591 610.5,-254.591 607,-264.591 614,-264.591"/>
</g>
<!-- Node26 -->
<g id="node26" class="node"><title>Node26</title>
<g id="a_node26"><a xlink:href="RaEngine_8hpp.html" target="_top" xlink:title="Engine/RaEngine.hpp">
<polygon fill="white" stroke="black" points="1078,-235.5 1078,-254.5 1195,-254.5 1195,-235.5 1078,-235.5"/>
<text text-anchor="middle" x="1136.5" y="-242.5" font-family="Helvetica,sans-Serif" font-size="10.00">Engine/RaEngine.hpp</text>
</a>
</g>
</g>
<!-- Node25&#45;&gt;Node26 -->
<g id="edge29" class="edge"><title>Node25&#45;&gt;Node26</title>
<path fill="none" stroke="midnightblue" d="M615.234,-347.398C623.746,-332.883 643.138,-303.853 668.5,-291 703.21,-273.41 945.886,-257.056 1067.44,-249.857"/>
<polygon fill="midnightblue" stroke="midnightblue" points="1067.98,-253.332 1077.76,-249.251 1067.57,-246.344 1067.98,-253.332"/>
</g>
<!-- Node27 -->
<g id="node27" class="node"><title>Node27</title>
<g id="a_node27"><a xlink:href="IndexedObject_8hpp.html" target="_top" xlink:title="Core/Index/IndexedObject.hpp">
<polygon fill="white" stroke="black" points="258.5,-291.5 258.5,-310.5 418.5,-310.5 418.5,-291.5 258.5,-291.5"/>
<text text-anchor="middle" x="338.5" y="-298.5" font-family="Helvetica,sans-Serif" font-size="10.00">Core/Index/IndexedObject.hpp</text>
</a>
</g>
</g>
<!-- Node25&#45;&gt;Node27 -->
<g id="edge31" class="edge"><title>Node25&#45;&gt;Node27</title>
<path fill="none" stroke="midnightblue" d="M567.401,-347.444C519.653,-337.964 442.639,-322.675 391.306,-312.483"/>
<polygon fill="midnightblue" stroke="midnightblue" points="391.888,-309.031 381.398,-310.516 390.525,-315.897 391.888,-309.031"/>
</g>
<!-- Node28 -->
<g id="node28" class="node"><title>Node28</title>
<g id="a_node28"><a xlink:href="Ray_8hpp.html" target="_top" xlink:title="Core/Math/Ray.hpp">
<polygon fill="white" stroke="black" points="476.5,-291.5 476.5,-310.5 582.5,-310.5 582.5,-291.5 476.5,-291.5"/>
<text text-anchor="middle" x="529.5" y="-298.5" font-family="Helvetica,sans-Serif" font-size="10.00">Core/Math/Ray.hpp</text>
</a>
</g>
</g>
<!-- Node25&#45;&gt;Node28 -->
<g id="edge35" class="edge"><title>Node25&#45;&gt;Node28</title>
<path fill="none" stroke="midnightblue" d="M597.486,-347.324C584.968,-338.979 565.818,-326.212 551.029,-316.352"/>
<polygon fill="midnightblue" stroke="midnightblue" points="552.744,-313.289 542.482,-310.655 548.861,-319.114 552.744,-313.289"/>
</g>
<!-- Node29 -->
<g id="node29" class="node"><title>Node29</title>
<g id="a_node29"><a xlink:href="Component_8inl.html" target="_top" xlink:title="Engine/Component/Component.inl">
<polygon fill="white" stroke="black" points="677,-291.5 677,-310.5 858,-310.5 858,-291.5 677,-291.5"/>
<text text-anchor="middle" x="767.5" y="-298.5" font-family="Helvetica,sans-Serif" font-size="10.00">Engine/Component/Component.inl</text>
</a>
</g>
</g>
<!-- Node25&#45;&gt;Node29 -->
<g id="edge39" class="edge"><title>Node25&#45;&gt;Node29</title>
<path fill="none" stroke="midnightblue" d="M630.288,-347.444C654.814,-338.32 696.797,-323.813 727.958,-313.651"/>
<polygon fill="midnightblue" stroke="midnightblue" points="729.22,-316.922 737.659,-310.516 727.068,-310.261 729.22,-316.922"/>
</g>
<!-- Node26&#45;&gt;Node3 -->
<g id="edge30" class="edge"><title>Node26&#45;&gt;Node3</title>
<path fill="none" stroke="midnightblue" d="M1175.35,-235.364C1194.88,-228.847 1216.83,-217.704 1228.5,-199 1254.48,-157.366 1206.23,-129.82 1160.5,-112 1090.9,-84.8751 589.879,-72.1537 402.752,-68.3104"/>
<polygon fill="midnightblue" stroke="midnightblue" points="402.815,-64.8111 392.746,-68.1073 402.673,-71.8096 402.815,-64.8111"/>
</g>
<!-- Node27&#45;&gt;Node10 -->
<g id="edge32" class="edge"><title>Node27&#45;&gt;Node10</title>
<path fill="none" stroke="midnightblue" d="M314.732,-291.444C289.607,-282.399 249.789,-268.064 221.6,-257.916"/>
<polygon fill="midnightblue" stroke="midnightblue" points="222.751,-254.611 212.157,-254.516 220.38,-261.197 222.751,-254.611"/>
</g>
<!-- Node27&#45;&gt;Node14 -->
<g id="edge33" class="edge"><title>Node27&#45;&gt;Node14</title>
<path fill="none" stroke="midnightblue" d="M333.37,-291.407C328.442,-282.614 321.34,-268.381 318.5,-255 310.473,-217.176 312.691,-206.228 318.5,-168 319.868,-159.001 322.69,-149.325 325.445,-141.26"/>
<polygon fill="midnightblue" stroke="midnightblue" points="328.765,-142.372 328.9,-131.778 322.188,-139.976 328.765,-142.372"/>
</g>
<!-- Node28&#45;&gt;Node13 -->
<g id="edge37" class="edge"><title>Node28&#45;&gt;Node13</title>
<path fill="none" stroke="midnightblue" d="M542.514,-291.324C555.032,-282.979 574.182,-270.212 588.971,-260.352"/>
<polygon fill="midnightblue" stroke="midnightblue" points="591.139,-263.114 597.518,-254.655 587.256,-257.289 591.139,-263.114"/>
</g>
<!-- Node28&#45;&gt;Node14 -->
<g id="edge36" class="edge"><title>Node28&#45;&gt;Node14</title>
<path fill="none" stroke="midnightblue" d="M502.038,-291.5C463.354,-278.114 393.224,-248.428 354.5,-199 341.56,-182.483 336.23,-158.619 334.035,-142.056"/>
<polygon fill="midnightblue" stroke="midnightblue" points="337.497,-141.51 332.961,-131.935 330.536,-142.249 337.497,-141.51"/>
</g>
<!-- Node28&#45;&gt;Node16 -->
<g id="edge38" class="edge"><title>Node28&#45;&gt;Node16</title>
<path fill="none" stroke="midnightblue" d="M582.801,-292.345C686.224,-277.157 921.134,-241.025 1116.5,-199 1121.47,-197.932 1126.66,-196.72 1131.79,-195.462"/>
<polygon fill="midnightblue" stroke="midnightblue" points="1132.66,-198.85 1141.51,-193.014 1130.96,-192.062 1132.66,-198.85"/>
</g>
<!-- Node29&#45;&gt;Node25 -->
<g id="edge40" class="edge"><title>Node29&#45;&gt;Node25</title>
<path fill="none" stroke="midnightblue" d="M747.819,-310.516C723.345,-319.625 681.372,-334.129 650.179,-344.304"/>
<polygon fill="midnightblue" stroke="midnightblue" points="648.905,-341.038 640.466,-347.444 651.058,-347.699 648.905,-341.038"/>
</g>
</g>
</svg>
