<?xml version="1.0" encoding="UTF-8" standalone="no"?>
<!DOCTYPE svg PUBLIC "-//W3C//DTD SVG 1.1//EN"
 "http://www.w3.org/Graphics/SVG/1.1/DTD/svg11.dtd">
<!-- Generated by graphviz version 2.38.0 (20140413.2041)
 -->
<!-- Title: /home/travis/build/STORM&#45;IRIT/Radium&#45;Engine/src/Core/Mesh/TopologicalTriMesh/Operations/EdgeSplit.hpp Pages: 1 -->
<svg width="2212pt" height="620pt"
 viewBox="0.00 0.00 2212.00 620.00" xmlns="http://www.w3.org/2000/svg" xmlns:xlink="http://www.w3.org/1999/xlink">
<g id="graph0" class="graph" transform="scale(1 1) rotate(0) translate(4 616)">
<title>/home/travis/build/STORM&#45;IRIT/Radium&#45;Engine/src/Core/Mesh/TopologicalTriMesh/Operations/EdgeSplit.hpp</title>
<polygon fill="white" stroke="none" points="-4,4 -4,-616 2208,-616 2208,4 -4,4"/>
<!-- Node1 -->
<g id="node1" class="node"><title>Node1</title>
<polygon fill="#bfbfbf" stroke="black" points="109,-559.5 109,-611.5 287,-611.5 287,-559.5 109,-559.5"/>
<text text-anchor="start" x="117" y="-599.5" font-family="Helvetica,sans-Serif" font-size="10.00">/home/travis/build</text>
<text text-anchor="start" x="117" y="-588.5" font-family="Helvetica,sans-Serif" font-size="10.00">/STORM&#45;IRIT/Radium&#45;Engine</text>
<text text-anchor="start" x="117" y="-577.5" font-family="Helvetica,sans-Serif" font-size="10.00">/src/Core/Mesh/TopologicalTriMesh</text>
<text text-anchor="middle" x="198" y="-566.5" font-family="Helvetica,sans-Serif" font-size="10.00">/Operations/EdgeSplit.hpp</text>
</g>
<!-- Node2 -->
<g id="node2" class="node"><title>Node2</title>
<g id="a_node2"><a xlink:href="IndexMap_8hpp.html" target="_top" xlink:title="Core/Index/IndexMap.hpp">
<polygon fill="white" stroke="black" points="263.5,-308 263.5,-327 400.5,-327 400.5,-308 263.5,-308"/>
<text text-anchor="middle" x="332" y="-315" font-family="Helvetica,sans-Serif" font-size="10.00">Core/Index/IndexMap.hpp</text>
</a>
</g>
</g>
<!-- Node1&#45;&gt;Node2 -->
<g id="edge1" class="edge"><title>Node1&#45;&gt;Node2</title>
<path fill="none" stroke="midnightblue" d="M210.606,-559.475C237.5,-506.09 299.933,-382.156 323.12,-336.127"/>
<polygon fill="midnightblue" stroke="midnightblue" points="326.302,-337.59 327.676,-327.084 320.051,-334.44 326.302,-337.59"/>
</g>
<!-- Node3 -->
<g id="node3" class="node"><title>Node3</title>
<g id="a_node3"><a xlink:href="RaCore_8hpp.html" target="_top" xlink:title="Core/RaCore.hpp">
<polygon fill="white" stroke="black" points="873,-112.5 873,-131.5 971,-131.5 971,-112.5 873,-112.5"/>
<text text-anchor="middle" x="922" y="-119.5" font-family="Helvetica,sans-Serif" font-size="10.00">Core/RaCore.hpp</text>
</a>
</g>
</g>
<!-- Node1&#45;&gt;Node3 -->
<g id="edge83" class="edge"><title>Node1&#45;&gt;Node3</title>
<path fill="none" stroke="midnightblue" d="M112.594,-559.476C59.005,-537.933 0,-500.758 0,-441.5 0,-441.5 0,-441.5 0,-249.5 0,-204.256 21.0846,-189.303 61,-168 78.6976,-158.555 670.826,-133.36 862.663,-125.427"/>
<polygon fill="midnightblue" stroke="midnightblue" points="862.993,-128.917 872.84,-125.007 862.704,-121.923 862.993,-128.917"/>
</g>
<!-- Node17 -->
<g id="node17" class="node"><title>Node17</title>
<g id="a_node17"><a xlink:href="IndexedObject_8hpp.html" target="_top" xlink:title="Core/Index/IndexedObject.hpp">
<polygon fill="white" stroke="black" points="45,-308 45,-327 205,-327 205,-308 45,-308"/>
<text text-anchor="middle" x="125" y="-315" font-family="Helvetica,sans-Serif" font-size="10.00">Core/Index/IndexedObject.hpp</text>
</a>
</g>
</g>
<!-- Node1&#45;&gt;Node17 -->
<g id="edge17" class="edge"><title>Node1&#45;&gt;Node17</title>
<path fill="none" stroke="midnightblue" d="M191.132,-559.475C176.574,-506.427 142.897,-383.715 130.079,-337.006"/>
<polygon fill="midnightblue" stroke="midnightblue" points="133.378,-335.801 127.356,-327.084 126.627,-337.654 133.378,-335.801"/>
</g>
<!-- Node18 -->
<g id="node18" class="node"><title>Node18</title>
<g id="a_node18"><a xlink:href="TopologicalMesh_8hpp.html" target="_top" xlink:title="Core/Mesh/TopologicalTri\lMesh/TopologicalMesh.hpp">
<polygon fill="white" stroke="black" points="1505.5,-492.5 1505.5,-522.5 1648.5,-522.5 1648.5,-492.5 1505.5,-492.5"/>
<text text-anchor="start" x="1513.5" y="-510.5" font-family="Helvetica,sans-Serif" font-size="10.00">Core/Mesh/TopologicalTri</text>
<text text-anchor="middle" x="1577" y="-499.5" font-family="Helvetica,sans-Serif" font-size="10.00">Mesh/TopologicalMesh.hpp</text>
</a>
</g>
</g>
<!-- Node1&#45;&gt;Node18 -->
<g id="edge20" class="edge"><title>Node1&#45;&gt;Node18</title>
<path fill="none" stroke="midnightblue" d="M287.153,-579.587C538.877,-565.713 1252.48,-526.385 1495.09,-513.014"/>
<polygon fill="midnightblue" stroke="midnightblue" points="1495.46,-516.499 1505.25,-512.454 1495.07,-509.51 1495.46,-516.499"/>
</g>
<!-- Node2&#45;&gt;Node3 -->
<g id="edge2" class="edge"><title>Node2&#45;&gt;Node3</title>
<path fill="none" stroke="midnightblue" d="M373.592,-307.947C404.623,-300.274 447.149,-286.942 480,-266 530.891,-233.557 520.121,-195.194 574,-168 623.256,-143.14 777.034,-130.931 862.762,-125.916"/>
<polygon fill="midnightblue" stroke="midnightblue" points="863.083,-129.404 872.867,-125.34 862.684,-122.415 863.083,-129.404"/>
</g>
<!-- Node10 -->
<g id="node10" class="node"><title>Node10</title>
<polygon fill="white" stroke="#bfbfbf" points="1321,-112.5 1321,-131.5 1383,-131.5 1383,-112.5 1321,-112.5"/>
<text text-anchor="middle" x="1352" y="-119.5" font-family="Helvetica,sans-Serif" font-size="10.00">algorithm</text>
</g>
<!-- Node2&#45;&gt;Node10 -->
<g id="edge9" class="edge"><title>Node2&#45;&gt;Node10</title>
<path fill="none" stroke="midnightblue" d="M400.502,-309.678C614.445,-288.171 1258.26,-221.868 1297,-199 1319.62,-185.65 1335.56,-158.965 1344.27,-141.04"/>
<polygon fill="midnightblue" stroke="midnightblue" points="1347.48,-142.444 1348.46,-131.895 1341.11,-139.53 1347.48,-142.444"/>
</g>
<!-- Node11 -->
<g id="node11" class="node"><title>Node11</title>
<polygon fill="white" stroke="#bfbfbf" points="415,-241 415,-260 471,-260 471,-241 415,-241"/>
<text text-anchor="middle" x="443" y="-248" font-family="Helvetica,sans-Serif" font-size="10.00">assert.h</text>
</g>
<!-- Node2&#45;&gt;Node11 -->
<g id="edge10" class="edge"><title>Node2&#45;&gt;Node11</title>
<path fill="none" stroke="midnightblue" d="M346.97,-307.734C365.61,-296.818 397.663,-278.049 419.569,-265.221"/>
<polygon fill="midnightblue" stroke="midnightblue" points="421.407,-268.201 428.267,-260.127 417.869,-262.16 421.407,-268.201"/>
</g>
<!-- Node12 -->
<g id="node12" class="node"><title>Node12</title>
<polygon fill="white" stroke="#bfbfbf" points="201.5,-241 201.5,-260 248.5,-260 248.5,-241 201.5,-241"/>
<text text-anchor="middle" x="225" y="-248" font-family="Helvetica,sans-Serif" font-size="10.00">deque</text>
</g>
<!-- Node2&#45;&gt;Node12 -->
<g id="edge11" class="edge"><title>Node2&#45;&gt;Node12</title>
<path fill="none" stroke="midnightblue" d="M317.57,-307.734C299.681,-296.867 268.979,-278.216 247.87,-265.393"/>
<polygon fill="midnightblue" stroke="midnightblue" points="249.566,-262.328 239.202,-260.127 245.931,-268.311 249.566,-262.328"/>
</g>
<!-- Node13 -->
<g id="node13" class="node"><title>Node13</title>
<g id="a_node13"><a xlink:href="Index_8hpp.html" target="_top" xlink:title="Core/Index/Index.hpp">
<polygon fill="white" stroke="black" points="66.5,-241 66.5,-260 183.5,-260 183.5,-241 66.5,-241"/>
<text text-anchor="middle" x="125" y="-248" font-family="Helvetica,sans-Serif" font-size="10.00">Core/Index/Index.hpp</text>
</a>
</g>
</g>
<!-- Node2&#45;&gt;Node13 -->
<g id="edge12" class="edge"><title>Node2&#45;&gt;Node13</title>
<path fill="none" stroke="midnightblue" d="M304.512,-307.869C267.835,-296.351 202.774,-275.922 161.868,-263.077"/>
<polygon fill="midnightblue" stroke="midnightblue" points="162.861,-259.72 152.272,-260.064 160.764,-266.399 162.861,-259.72"/>
</g>
<!-- Node16 -->
<g id="node16" class="node"><title>Node16</title>
<g id="a_node16"><a xlink:href="IndexMap_8inl.html" target="_top" xlink:title="Core/Index/IndexMap.inl">
<polygon fill="white" stroke="black" points="267,-241 267,-260 397,-260 397,-241 267,-241"/>
<text text-anchor="middle" x="332" y="-248" font-family="Helvetica,sans-Serif" font-size="10.00">Core/Index/IndexMap.inl</text>
</a>
</g>
</g>
<!-- Node2&#45;&gt;Node16 -->
<g id="edge15" class="edge"><title>Node2&#45;&gt;Node16</title>
<path fill="none" stroke="midnightblue" d="M327.211,-307.734C325.202,-298.183 324.736,-282.618 325.816,-270.283"/>
<polygon fill="midnightblue" stroke="midnightblue" points="329.317,-270.517 327.241,-260.127 322.385,-269.544 329.317,-270.517"/>
</g>
<!-- Node4 -->
<g id="node4" class="node"><title>Node4</title>
<g id="a_node4"><a xlink:href="CoreMacros_8hpp.html" target="_top" xlink:title="Core/CoreMacros.hpp">
<polygon fill="white" stroke="black" points="785,-56.5 785,-75.5 905,-75.5 905,-56.5 785,-56.5"/>
<text text-anchor="middle" x="845" y="-63.5" font-family="Helvetica,sans-Serif" font-size="10.00">Core/CoreMacros.hpp</text>
</a>
</g>
</g>
<!-- Node3&#45;&gt;Node4 -->
<g id="edge3" class="edge"><title>Node3&#45;&gt;Node4</title>
<path fill="none" stroke="midnightblue" d="M909.629,-112.324C897.842,-104.058 879.868,-91.4527 865.864,-81.6322"/>
<polygon fill="midnightblue" stroke="midnightblue" points="867.538,-78.5307 857.341,-75.6545 863.518,-84.2619 867.538,-78.5307"/>
</g>
<!-- Node5 -->
<g id="node5" class="node"><title>Node5</title>
<polygon fill="white" stroke="#bfbfbf" points="923,-0.5 923,-19.5 975,-19.5 975,-0.5 923,-0.5"/>
<text text-anchor="middle" x="949" y="-7.5" font-family="Helvetica,sans-Serif" font-size="10.00">cassert</text>
</g>
<!-- Node4&#45;&gt;Node5 -->
<g id="edge4" class="edge"><title>Node4&#45;&gt;Node5</title>
<path fill="none" stroke="midnightblue" d="M861.709,-56.324C878.312,-47.7034 904.002,-34.3643 923.22,-24.3855"/>
<polygon fill="midnightblue" stroke="midnightblue" points="925.07,-27.3689 932.332,-19.6545 921.844,-21.1565 925.07,-27.3689"/>
</g>
<!-- Node6 -->
<g id="node6" class="node"><title>Node6</title>
<polygon fill="white" stroke="#bfbfbf" points="716.5,-0.5 716.5,-19.5 761.5,-19.5 761.5,-0.5 716.5,-0.5"/>
<text text-anchor="middle" x="739" y="-7.5" font-family="Helvetica,sans-Serif" font-size="10.00">cstdio</text>
</g>
<!-- Node4&#45;&gt;Node6 -->
<g id="edge5" class="edge"><title>Node4&#45;&gt;Node6</title>
<path fill="none" stroke="midnightblue" d="M827.969,-56.324C810.97,-47.6641 784.624,-34.2424 765.007,-24.249"/>
<polygon fill="midnightblue" stroke="midnightblue" points="766.488,-21.0752 755.988,-19.6545 763.31,-27.3125 766.488,-21.0752"/>
</g>
<!-- Node7 -->
<g id="node7" class="node"><title>Node7</title>
<polygon fill="white" stroke="#bfbfbf" points="779.5,-0.5 779.5,-19.5 838.5,-19.5 838.5,-0.5 779.5,-0.5"/>
<text text-anchor="middle" x="809" y="-7.5" font-family="Helvetica,sans-Serif" font-size="10.00">iostream</text>
</g>
<!-- Node4&#45;&gt;Node7 -->
<g id="edge6" class="edge"><title>Node4&#45;&gt;Node7</title>
<path fill="none" stroke="midnightblue" d="M839.055,-56.083C834.023,-48.5341 826.663,-37.4948 820.487,-28.2298"/>
<polygon fill="midnightblue" stroke="midnightblue" points="823.293,-26.1301 814.834,-19.7511 817.469,-30.0131 823.293,-26.1301"/>
</g>
<!-- Node8 -->
<g id="node8" class="node"><title>Node8</title>
<polygon fill="white" stroke="#bfbfbf" points="565,-0.5 565,-19.5 621,-19.5 621,-0.5 565,-0.5"/>
<text text-anchor="middle" x="593" y="-7.5" font-family="Helvetica,sans-Serif" font-size="10.00">sstream</text>
</g>
<!-- Node4&#45;&gt;Node8 -->
<g id="edge7" class="edge"><title>Node4&#45;&gt;Node8</title>
<path fill="none" stroke="midnightblue" d="M805.07,-56.4435C757.33,-46.2137 678.015,-29.2175 631.1,-19.1643"/>
<polygon fill="midnightblue" stroke="midnightblue" points="631.551,-15.6815 621.039,-17.0084 630.084,-22.5261 631.551,-15.6815"/>
</g>
<!-- Node9 -->
<g id="node9" class="node"><title>Node9</title>
<polygon fill="white" stroke="#bfbfbf" points="857,-0.5 857,-19.5 905,-19.5 905,-0.5 857,-0.5"/>
<text text-anchor="middle" x="881" y="-7.5" font-family="Helvetica,sans-Serif" font-size="10.00">thread</text>
</g>
<!-- Node4&#45;&gt;Node9 -->
<g id="edge8" class="edge"><title>Node4&#45;&gt;Node9</title>
<path fill="none" stroke="midnightblue" d="M850.945,-56.083C855.977,-48.5341 863.337,-37.4948 869.513,-28.2298"/>
<polygon fill="midnightblue" stroke="midnightblue" points="872.531,-30.0131 875.166,-19.7511 866.707,-26.1301 872.531,-30.0131"/>
</g>
<!-- Node14 -->
<g id="node14" class="node"><title>Node14</title>
<polygon fill="white" stroke="#bfbfbf" points="85,-174 85,-193 127,-193 127,-174 85,-174"/>
<text text-anchor="middle" x="106" y="-181" font-family="Helvetica,sans-Serif" font-size="10.00">limits</text>
</g>
<!-- Node13&#45;&gt;Node14 -->
<g id="edge13" class="edge"><title>Node13&#45;&gt;Node14</title>
<path fill="none" stroke="midnightblue" d="M122.438,-240.734C119.617,-231.085 115.003,-215.3 111.38,-202.906"/>
<polygon fill="midnightblue" stroke="midnightblue" points="114.687,-201.744 108.522,-193.127 107.968,-203.708 114.687,-201.744"/>
</g>
<!-- Node15 -->
<g id="node15" class="node"><title>Node15</title>
<g id="a_node15"><a xlink:href="Index_8inl.html" target="_top" xlink:title="Core/Index/Index.inl">
<polygon fill="white" stroke="black" points="145,-174 145,-193 255,-193 255,-174 145,-174"/>
<text text-anchor="middle" x="200" y="-181" font-family="Helvetica,sans-Serif" font-size="10.00">Core/Index/Index.inl</text>
</a>
</g>
</g>
<!-- Node13&#45;&gt;Node15 -->
<g id="edge14" class="edge"><title>Node13&#45;&gt;Node15</title>
<path fill="none" stroke="midnightblue" d="M135.115,-240.734C147.148,-230.305 167.451,-212.709 182.146,-199.973"/>
<polygon fill="midnightblue" stroke="midnightblue" points="184.781,-202.322 190.045,-193.127 180.196,-197.032 184.781,-202.322"/>
</g>
<!-- Node16&#45;&gt;Node2 -->
<g id="edge16" class="edge"><title>Node16&#45;&gt;Node2</title>
<path fill="none" stroke="midnightblue" d="M336.759,-260.127C338.784,-269.62 339.264,-285.17 338.2,-297.537"/>
<polygon fill="midnightblue" stroke="midnightblue" points="334.693,-297.348 336.789,-307.734 341.627,-298.308 334.693,-297.348"/>
</g>
<!-- Node17&#45;&gt;Node3 -->
<g id="edge19" class="edge"><title>Node17&#45;&gt;Node3</title>
<path fill="none" stroke="midnightblue" d="M105.101,-307.994C88.8426,-299.842 66.9771,-285.837 57,-266 43.7371,-239.63 75.2971,-168.561 76,-168 91.3862,-155.715 673.223,-132.487 862.89,-125.226"/>
<polygon fill="midnightblue" stroke="midnightblue" points="863.095,-128.721 872.954,-124.842 862.828,-121.726 863.095,-128.721"/>
</g>
<!-- Node17&#45;&gt;Node13 -->
<g id="edge18" class="edge"><title>Node17&#45;&gt;Node13</title>
<path fill="none" stroke="midnightblue" d="M125,-307.734C125,-298.183 125,-282.618 125,-270.283"/>
<polygon fill="midnightblue" stroke="midnightblue" points="128.5,-270.127 125,-260.127 121.5,-270.127 128.5,-270.127"/>
</g>
<!-- Node18&#45;&gt;Node3 -->
<g id="edge74" class="edge"><title>Node18&#45;&gt;Node3</title>
<path fill="none" stroke="midnightblue" d="M1505.19,-498.981C1396.87,-484.328 1190.13,-443.072 1056,-333 990.758,-279.459 1011.19,-236.58 962,-168 954.689,-157.808 945.443,-147.283 937.683,-138.977"/>
<polygon fill="midnightblue" stroke="midnightblue" points="939.983,-136.318 930.544,-131.505 934.921,-141.153 939.983,-136.318"/>
</g>
<!-- Node18&#45;&gt;Node13 -->
<g id="edge41" class="edge"><title>Node18&#45;&gt;Node13</title>
<path fill="none" stroke="midnightblue" d="M1505.42,-505.428C1369.18,-502.585 1063.47,-492.348 809,-456 558.887,-420.274 482.726,-440.318 254,-333 233.638,-323.446 232.718,-314.471 214,-302 193.542,-288.37 169.197,-274.72 151.144,-265.054"/>
<polygon fill="midnightblue" stroke="midnightblue" points="152.302,-261.707 141.827,-260.119 149.026,-267.893 152.302,-261.707"/>
</g>
<!-- Node19 -->
<g id="node19" class="node"><title>Node19</title>
<g id="a_node19"><a xlink:href="OpenMesh_8h.html" target="_top" xlink:title="Core/Mesh/TopologicalTri\lMesh/OpenMesh.h">
<polygon fill="white" stroke="black" points="1855,-302.5 1855,-332.5 1987,-332.5 1987,-302.5 1855,-302.5"/>
<text text-anchor="start" x="1863" y="-320.5" font-family="Helvetica,sans-Serif" font-size="10.00">Core/Mesh/TopologicalTri</text>
<text text-anchor="middle" x="1921" y="-309.5" font-family="Helvetica,sans-Serif" font-size="10.00">Mesh/OpenMesh.h</text>
</a>
</g>
</g>
<!-- Node18&#45;&gt;Node19 -->
<g id="edge21" class="edge"><title>Node18&#45;&gt;Node19</title>
<path fill="none" stroke="midnightblue" d="M1648.95,-502.968C1762.89,-496.631 1974.34,-481.549 1997,-456 2029.03,-419.883 1980.44,-367.978 1947.4,-339.382"/>
<polygon fill="midnightblue" stroke="midnightblue" points="1949.29,-336.404 1939.39,-332.638 1944.78,-341.758 1949.29,-336.404"/>
</g>
<!-- Node20 -->
<g id="node20" class="node"><title>Node20</title>
<polygon fill="white" stroke="#bfbfbf" points="2024,-174 2024,-193 2092,-193 2092,-174 2024,-174"/>
<text text-anchor="middle" x="2058" y="-181" font-family="Helvetica,sans-Serif" font-size="10.00">Eigen/Core</text>
</g>
<!-- Node18&#45;&gt;Node20 -->
<g id="edge79" class="edge"><title>Node18&#45;&gt;Node20</title>
<path fill="none" stroke="midnightblue" d="M1562.12,-492.102C1553.55,-482.734 1543.59,-469.736 1539,-456 1534.63,-442.933 1536.33,-438.517 1539,-425 1558.2,-327.706 1570.41,-285.092 1656,-235 1725.2,-194.502 1936.63,-215.917 2015,-199 2018.49,-198.246 2022.1,-197.303 2025.67,-196.263"/>
<polygon fill="midnightblue" stroke="midnightblue" points="2027.03,-199.504 2035.51,-193.148 2024.92,-192.831 2027.03,-199.504"/>
</g>
<!-- Node21 -->
<g id="node21" class="node"><title>Node21</title>
<polygon fill="white" stroke="#bfbfbf" points="2110,-174 2110,-193 2204,-193 2204,-174 2110,-174"/>
<text text-anchor="middle" x="2157" y="-181" font-family="Helvetica,sans-Serif" font-size="10.00">Eigen/Geometry</text>
</g>
<!-- Node18&#45;&gt;Node21 -->
<g id="edge80" class="edge"><title>Node18&#45;&gt;Node21</title>
<path fill="none" stroke="midnightblue" d="M1648.62,-505.69C1803.15,-502.003 2154,-482.36 2154,-380 2154,-380 2154,-380 2154,-316.5 2154,-276.147 2155.42,-228.874 2156.3,-203.279"/>
<polygon fill="midnightblue" stroke="midnightblue" points="2159.81,-203.266 2156.67,-193.147 2152.81,-203.016 2159.81,-203.266"/>
</g>
<!-- Node22 -->
<g id="node22" class="node"><title>Node22</title>
<g id="a_node22"><a xlink:href="LinearAlgebra_8hpp.html" target="_top" xlink:title="Core/Math/LinearAlgebra.hpp">
<polygon fill="white" stroke="black" points="1346,-241 1346,-260 1502,-260 1502,-241 1346,-241"/>
<text text-anchor="middle" x="1424" y="-248" font-family="Helvetica,sans-Serif" font-size="10.00">Core/Math/LinearAlgebra.hpp</text>
</a>
</g>
</g>
<!-- Node18&#45;&gt;Node22 -->
<g id="edge42" class="edge"><title>Node18&#45;&gt;Node22</title>
<path fill="none" stroke="midnightblue" d="M1528.61,-492.481C1509.38,-484.637 1488.63,-472.932 1475,-456 1430.09,-400.203 1424.04,-310.168 1423.68,-270.878"/>
<polygon fill="midnightblue" stroke="midnightblue" points="1427.18,-270.42 1423.72,-260.408 1420.18,-270.397 1427.18,-270.42"/>
</g>
<!-- Node30 -->
<g id="node30" class="node"><title>Node30</title>
<polygon fill="white" stroke="#bfbfbf" points="1665,-235.5 1665,-265.5 1787,-265.5 1787,-235.5 1665,-235.5"/>
<text text-anchor="start" x="1673" y="-253.5" font-family="Helvetica,sans-Serif" font-size="10.00">OpenMesh/Core/Mesh</text>
<text text-anchor="middle" x="1726" y="-242.5" font-family="Helvetica,sans-Serif" font-size="10.00">/Traits.hh</text>
</g>
<!-- Node18&#45;&gt;Node30 -->
<g id="edge76" class="edge"><title>Node18&#45;&gt;Node30</title>
<path fill="none" stroke="midnightblue" d="M1564.78,-492.234C1552.32,-475.86 1536.11,-448.267 1546,-425 1575.94,-354.556 1650.05,-298.833 1693.26,-270.977"/>
<polygon fill="midnightblue" stroke="midnightblue" points="1695.15,-273.925 1701.73,-265.621 1691.41,-268.009 1695.15,-273.925"/>
</g>
<!-- Node31 -->
<g id="node31" class="node"><title>Node31</title>
<polygon fill="white" stroke="#bfbfbf" points="1987,-235.5 1987,-265.5 2121,-265.5 2121,-235.5 1987,-235.5"/>
<text text-anchor="start" x="1995" y="-253.5" font-family="Helvetica,sans-Serif" font-size="10.00">OpenMesh/Core/Mesh</text>
<text text-anchor="middle" x="2054" y="-242.5" font-family="Helvetica,sans-Serif" font-size="10.00">/TriMesh_ArrayKernelT.hh</text>
</g>
<!-- Node18&#45;&gt;Node31 -->
<g id="edge77" class="edge"><title>Node18&#45;&gt;Node31</title>
<path fill="none" stroke="midnightblue" d="M1648.83,-502.858C1766.43,-496.22 1989.71,-480.534 2016,-456 2066.28,-409.087 2062.78,-318.816 2057.69,-275.646"/>
<polygon fill="midnightblue" stroke="midnightblue" points="2061.13,-274.963 2056.36,-265.503 2054.19,-275.874 2061.13,-274.963"/>
</g>
<!-- Node32 -->
<g id="node32" class="node"><title>Node32</title>
<g id="a_node32"><a xlink:href="TriangleMesh_8hpp.html" target="_top" xlink:title="Core/Mesh/TriangleMesh.hpp">
<polygon fill="white" stroke="black" points="818.5,-431 818.5,-450 971.5,-450 971.5,-431 818.5,-431"/>
<text text-anchor="middle" x="895" y="-438" font-family="Helvetica,sans-Serif" font-size="10.00">Core/Mesh/TriangleMesh.hpp</text>
</a>
</g>
</g>
<!-- Node18&#45;&gt;Node32 -->
<g id="edge43" class="edge"><title>Node18&#45;&gt;Node32</title>
<path fill="none" stroke="midnightblue" d="M1505.11,-500.489C1399.25,-491.517 1195.25,-473.769 1022,-456 1007.56,-454.519 992.21,-452.848 977.355,-451.181"/>
<polygon fill="midnightblue" stroke="midnightblue" points="977.498,-447.675 967.168,-450.03 976.712,-454.631 977.498,-447.675"/>
</g>
<!-- Node45 -->
<g id="node45" class="node"><title>Node45</title>
<polygon fill="white" stroke="#bfbfbf" points="1555.5,-425.5 1555.5,-455.5 1698.5,-455.5 1698.5,-425.5 1555.5,-425.5"/>
<text text-anchor="start" x="1563.5" y="-443.5" font-family="Helvetica,sans-Serif" font-size="10.00">OpenMesh/Core/Mesh</text>
<text text-anchor="middle" x="1627" y="-432.5" font-family="Helvetica,sans-Serif" font-size="10.00">/PolyMesh_ArrayKernelT.hh</text>
</g>
<!-- Node18&#45;&gt;Node45 -->
<g id="edge75" class="edge"><title>Node18&#45;&gt;Node45</title>
<path fill="none" stroke="midnightblue" d="M1587.85,-492.396C1594.34,-483.963 1602.72,-473.067 1610.06,-463.522"/>
<polygon fill="midnightblue" stroke="midnightblue" points="1612.85,-465.637 1616.17,-455.577 1607.3,-461.369 1612.85,-465.637"/>
</g>
<!-- Node46 -->
<g id="node46" class="node"><title>Node46</title>
<polygon fill="white" stroke="#bfbfbf" points="1716.5,-425.5 1716.5,-455.5 1833.5,-455.5 1833.5,-425.5 1716.5,-425.5"/>
<text text-anchor="start" x="1724.5" y="-443.5" font-family="Helvetica,sans-Serif" font-size="10.00">OpenMesh/Core/Utils</text>
<text text-anchor="middle" x="1775" y="-432.5" font-family="Helvetica,sans-Serif" font-size="10.00">/Property.hh</text>
</g>
<!-- Node18&#45;&gt;Node46 -->
<g id="edge78" class="edge"><title>Node18&#45;&gt;Node46</title>
<path fill="none" stroke="midnightblue" d="M1619.96,-492.396C1650.06,-482.515 1690.46,-469.252 1722.48,-458.743"/>
<polygon fill="midnightblue" stroke="midnightblue" points="1723.71,-462.021 1732.12,-455.577 1721.53,-455.37 1723.71,-462.021"/>
</g>
<!-- Node47 -->
<g id="node47" class="node"><title>Node47</title>
<g id="a_node47"><a xlink:href="TopologicalMesh_8inl.html" target="_top" xlink:title="Core/Mesh/TopologicalTri\lMesh/TopologicalMesh.inl">
<polygon fill="white" stroke="black" points="1852,-425.5 1852,-455.5 1988,-455.5 1988,-425.5 1852,-425.5"/>
<text text-anchor="start" x="1860" y="-443.5" font-family="Helvetica,sans-Serif" font-size="10.00">Core/Mesh/TopologicalTri</text>
<text text-anchor="middle" x="1920" y="-432.5" font-family="Helvetica,sans-Serif" font-size="10.00">Mesh/TopologicalMesh.inl</text>
</a>
</g>
</g>
<!-- Node18&#45;&gt;Node47 -->
<g id="edge81" class="edge"><title>Node18&#45;&gt;Node47</title>
<path fill="none" stroke="midnightblue" d="M1645.34,-492.476C1702.06,-481.451 1782.66,-466.179 1841.92,-455.23"/>
<polygon fill="midnightblue" stroke="midnightblue" points="1842.78,-458.63 1851.98,-453.375 1841.51,-451.746 1842.78,-458.63"/>
</g>
<!-- Node19&#45;&gt;Node3 -->
<g id="edge22" class="edge"><title>Node19&#45;&gt;Node3</title>
<path fill="none" stroke="midnightblue" d="M1854.82,-314.579C1746.03,-310.573 1522.91,-298.785 1337,-266 1224.14,-246.097 1191.5,-248.202 1088,-199 1066.72,-188.885 1065.81,-179.04 1045,-168 1018.52,-153.953 986.69,-142.44 962.047,-134.576"/>
<polygon fill="midnightblue" stroke="midnightblue" points="962.891,-131.173 952.303,-131.536 960.807,-137.855 962.891,-131.173"/>
</g>
<!-- Node19&#45;&gt;Node20 -->
<g id="edge23" class="edge"><title>Node19&#45;&gt;Node20</title>
<path fill="none" stroke="midnightblue" d="M1921.64,-302.412C1923.15,-284.676 1928.2,-254.21 1945,-235 1955.83,-222.61 1994.16,-206.966 2023.2,-196.399"/>
<polygon fill="midnightblue" stroke="midnightblue" points="2024.4,-199.686 2032.64,-193.022 2022.05,-193.095 2024.4,-199.686"/>
</g>
<!-- Node19&#45;&gt;Node21 -->
<g id="edge24" class="edge"><title>Node19&#45;&gt;Node21</title>
<path fill="none" stroke="midnightblue" d="M1927.11,-302.442C1935.78,-284.16 1953.37,-252.501 1978,-235 1983.71,-230.946 2063.84,-209.206 2114.94,-195.605"/>
<polygon fill="midnightblue" stroke="midnightblue" points="2115.97,-198.951 2124.74,-193.001 2114.17,-192.186 2115.97,-198.951"/>
</g>
<!-- Node19&#45;&gt;Node22 -->
<g id="edge25" class="edge"><title>Node19&#45;&gt;Node22</title>
<path fill="none" stroke="midnightblue" d="M1854.75,-307.835C1762.47,-295.767 1595.74,-273.961 1499.01,-261.31"/>
<polygon fill="midnightblue" stroke="midnightblue" points="1499.38,-257.829 1489.01,-260.002 1498.47,-264.77 1499.38,-257.829"/>
</g>
<!-- Node19&#45;&gt;Node30 -->
<g id="edge39" class="edge"><title>Node19&#45;&gt;Node30</title>
<path fill="none" stroke="midnightblue" d="M1878.69,-302.396C1849.05,-292.515 1809.26,-279.252 1777.73,-268.743"/>
<polygon fill="midnightblue" stroke="midnightblue" points="1778.82,-265.418 1768.23,-265.577 1776.61,-272.059 1778.82,-265.418"/>
</g>
<!-- Node19&#45;&gt;Node31 -->
<g id="edge40" class="edge"><title>Node19&#45;&gt;Node31</title>
<path fill="none" stroke="midnightblue" d="M1949.86,-302.396C1969.29,-292.899 1995.12,-280.276 2016.19,-269.978"/>
<polygon fill="midnightblue" stroke="midnightblue" points="2017.75,-273.112 2025.2,-265.577 2014.68,-266.823 2017.75,-273.112"/>
</g>
<!-- Node22&#45;&gt;Node3 -->
<g id="edge26" class="edge"><title>Node22&#45;&gt;Node3</title>
<path fill="none" stroke="midnightblue" d="M1351.84,-240.988C1278.07,-231.597 1168.95,-215.603 1130,-199 1108.66,-189.902 1108.89,-178.097 1088,-168 1054.26,-151.689 1013.7,-140.555 981.117,-133.442"/>
<polygon fill="midnightblue" stroke="midnightblue" points="981.786,-130.006 971.278,-131.362 980.339,-136.855 981.786,-130.006"/>
</g>
<!-- Node22&#45;&gt;Node20 -->
<g id="edge27" class="edge"><title>Node22&#45;&gt;Node20</title>
<path fill="none" stroke="midnightblue" d="M1473.07,-240.981C1486.92,-238.791 1502.02,-236.603 1516,-235 1736.91,-209.669 1797.02,-242.876 2015,-199 2018.69,-198.257 2022.51,-197.285 2026.27,-196.197"/>
<polygon fill="midnightblue" stroke="midnightblue" points="2027.5,-199.477 2035.98,-193.119 2025.39,-192.805 2027.5,-199.477"/>
</g>
<!-- Node22&#45;&gt;Node21 -->
<g id="edge28" class="edge"><title>Node22&#45;&gt;Node21</title>
<path fill="none" stroke="midnightblue" d="M1502.07,-244.466C1667.57,-233.681 2043.26,-208.55 2101,-199 2106.57,-198.078 2112.4,-196.861 2118.1,-195.524"/>
<polygon fill="midnightblue" stroke="midnightblue" points="2119.29,-198.836 2128.15,-193.023 2117.6,-192.043 2119.29,-198.836"/>
</g>
<!-- Node23 -->
<g id="node23" class="node"><title>Node23</title>
<polygon fill="white" stroke="#bfbfbf" points="1382,-174 1382,-193 1462,-193 1462,-174 1382,-174"/>
<text text-anchor="middle" x="1422" y="-181" font-family="Helvetica,sans-Serif" font-size="10.00">Eigen/Sparse</text>
</g>
<!-- Node22&#45;&gt;Node23 -->
<g id="edge29" class="edge"><title>Node22&#45;&gt;Node23</title>
<path fill="none" stroke="midnightblue" d="M1423.73,-240.734C1423.44,-231.183 1422.96,-215.618 1422.58,-203.283"/>
<polygon fill="midnightblue" stroke="midnightblue" points="1426.07,-203.015 1422.27,-193.127 1419.07,-203.23 1426.07,-203.015"/>
</g>
<!-- Node24 -->
<g id="node24" class="node"><title>Node24</title>
<polygon fill="white" stroke="#bfbfbf" points="1480.5,-174 1480.5,-193 1543.5,-193 1543.5,-174 1480.5,-174"/>
<text text-anchor="middle" x="1512" y="-181" font-family="Helvetica,sans-Serif" font-size="10.00">functional</text>
</g>
<!-- Node22&#45;&gt;Node24 -->
<g id="edge30" class="edge"><title>Node22&#45;&gt;Node24</title>
<path fill="none" stroke="midnightblue" d="M1435.87,-240.734C1450.25,-230.111 1474.7,-212.049 1492.01,-199.264"/>
<polygon fill="midnightblue" stroke="midnightblue" points="1494.36,-201.884 1500.32,-193.127 1490.2,-196.253 1494.36,-201.884"/>
</g>
<!-- Node25 -->
<g id="node25" class="node"><title>Node25</title>
<polygon fill="white" stroke="#bfbfbf" points="1561.5,-168.5 1561.5,-198.5 1706.5,-198.5 1706.5,-168.5 1561.5,-168.5"/>
<text text-anchor="start" x="1569.5" y="-186.5" font-family="Helvetica,sans-Serif" font-size="10.00">unsupported/Eigen/Aligned</text>
<text text-anchor="middle" x="1634" y="-175.5" font-family="Helvetica,sans-Serif" font-size="10.00">Vector3</text>
</g>
<!-- Node22&#45;&gt;Node25 -->
<g id="edge31" class="edge"><title>Node22&#45;&gt;Node25</title>
<path fill="none" stroke="midnightblue" d="M1451.89,-240.869C1484.15,-230.883 1538.06,-214.197 1578.87,-201.564"/>
<polygon fill="midnightblue" stroke="midnightblue" points="1580.16,-204.828 1588.68,-198.528 1578.09,-198.141 1580.16,-204.828"/>
</g>
<!-- Node26 -->
<g id="node26" class="node"><title>Node26</title>
<g id="a_node26"><a xlink:href="Math_8hpp.html" target="_top" xlink:title="Core/Math/Math.hpp">
<polygon fill="white" stroke="black" points="1892,-174 1892,-193 2006,-193 2006,-174 1892,-174"/>
<text text-anchor="middle" x="1949" y="-181" font-family="Helvetica,sans-Serif" font-size="10.00">Core/Math/Math.hpp</text>
</a>
</g>
</g>
<!-- Node22&#45;&gt;Node26 -->
<g id="edge32" class="edge"><title>Node22&#45;&gt;Node26</title>
<path fill="none" stroke="midnightblue" d="M1474.54,-240.99C1487.99,-238.874 1502.53,-236.721 1516,-235 1678.57,-214.233 1721.12,-224.629 1883,-199 1889.77,-197.928 1896.89,-196.589 1903.85,-195.162"/>
<polygon fill="midnightblue" stroke="midnightblue" points="1904.82,-198.535 1913.87,-193.028 1903.36,-191.688 1904.82,-198.535"/>
</g>
<!-- Node29 -->
<g id="node29" class="node"><title>Node29</title>
<g id="a_node29"><a xlink:href="LinearAlgebra_8inl.html" target="_top" xlink:title="Core/Math/LinearAlgebra.inl">
<polygon fill="white" stroke="black" points="1724.5,-174 1724.5,-193 1873.5,-193 1873.5,-174 1724.5,-174"/>
<text text-anchor="middle" x="1799" y="-181" font-family="Helvetica,sans-Serif" font-size="10.00">Core/Math/LinearAlgebra.inl</text>
</a>
</g>
</g>
<!-- Node22&#45;&gt;Node29 -->
<g id="edge38" class="edge"><title>Node22&#45;&gt;Node29</title>
<path fill="none" stroke="midnightblue" d="M1473.34,-240.992C1531.41,-230.976 1630.72,-213.824 1716,-199 1723.89,-197.629 1732.2,-196.181 1740.39,-194.752"/>
<polygon fill="midnightblue" stroke="midnightblue" points="1741.04,-198.192 1750.29,-193.025 1739.83,-191.296 1741.04,-198.192"/>
</g>
<!-- Node26&#45;&gt;Node3 -->
<g id="edge33" class="edge"><title>Node26&#45;&gt;Node3</title>
<path fill="none" stroke="midnightblue" d="M1915.28,-173.939C1904.98,-171.637 1893.58,-169.4 1883,-168 1871.77,-166.515 1189.32,-135.225 981.441,-125.716"/>
<polygon fill="midnightblue" stroke="midnightblue" points="981.474,-122.214 971.325,-125.254 981.154,-129.207 981.474,-122.214"/>
</g>
<!-- Node26&#45;&gt;Node10 -->
<g id="edge34" class="edge"><title>Node26&#45;&gt;Node10</title>
<path fill="none" stroke="midnightblue" d="M1914.22,-173.961C1904.2,-171.744 1893.21,-169.547 1883,-168 1701.74,-140.531 1482.94,-128.625 1393.32,-124.647"/>
<polygon fill="midnightblue" stroke="midnightblue" points="1393.43,-121.149 1383.29,-124.211 1393.13,-128.142 1393.43,-121.149"/>
</g>
<!-- Node27 -->
<g id="node27" class="node"><title>Node27</title>
<polygon fill="white" stroke="#bfbfbf" points="1830.5,-112.5 1830.5,-131.5 1877.5,-131.5 1877.5,-112.5 1830.5,-112.5"/>
<text text-anchor="middle" x="1854" y="-119.5" font-family="Helvetica,sans-Serif" font-size="10.00">cmath</text>
</g>
<!-- Node26&#45;&gt;Node27 -->
<g id="edge35" class="edge"><title>Node26&#45;&gt;Node27</title>
<path fill="none" stroke="midnightblue" d="M1935.39,-173.975C1919.94,-164.299 1894.51,-148.372 1876.18,-136.894"/>
<polygon fill="midnightblue" stroke="midnightblue" points="1877.92,-133.851 1867.59,-131.509 1874.2,-139.783 1877.92,-133.851"/>
</g>
<!-- Node28 -->
<g id="node28" class="node"><title>Node28</title>
<g id="a_node28"><a xlink:href="Math_8inl.html" target="_top" xlink:title="Core/Math/Math.inl">
<polygon fill="white" stroke="black" points="1895.5,-112.5 1895.5,-131.5 2002.5,-131.5 2002.5,-112.5 1895.5,-112.5"/>
<text text-anchor="middle" x="1949" y="-119.5" font-family="Helvetica,sans-Serif" font-size="10.00">Core/Math/Math.inl</text>
</a>
</g>
</g>
<!-- Node26&#45;&gt;Node28 -->
<g id="edge36" class="edge"><title>Node26&#45;&gt;Node28</title>
<path fill="none" stroke="midnightblue" d="M1944.1,-173.975C1942.27,-165.58 1941.8,-152.481 1942.69,-141.663"/>
<polygon fill="midnightblue" stroke="midnightblue" points="1946.19,-141.897 1944.1,-131.509 1939.25,-140.929 1946.19,-141.897"/>
</g>
<!-- Node28&#45;&gt;Node26 -->
<g id="edge37" class="edge"><title>Node28&#45;&gt;Node26</title>
<path fill="none" stroke="midnightblue" d="M1953.9,-131.509C1955.73,-139.898 1956.2,-152.996 1955.32,-163.817"/>
<polygon fill="midnightblue" stroke="midnightblue" points="1951.81,-163.588 1953.9,-173.975 1958.75,-164.554 1951.81,-163.588"/>
</g>
<!-- Node32&#45;&gt;Node3 -->
<g id="edge57" class="edge"><title>Node32&#45;&gt;Node3</title>
<path fill="none" stroke="midnightblue" d="M905.319,-430.89C915.802,-421.598 931.772,-405.851 941,-389 956.587,-360.537 960,-350.951 960,-318.5 960,-318.5 960,-318.5 960,-249.5 960,-209.35 942.224,-164.946 930.988,-140.889"/>
<polygon fill="midnightblue" stroke="midnightblue" points="934.013,-139.104 926.508,-131.625 927.711,-142.152 934.013,-139.104"/>
</g>
<!-- Node32&#45;&gt;Node22 -->
<g id="edge52" class="edge"><title>Node32&#45;&gt;Node22</title>
<path fill="none" stroke="midnightblue" d="M929.005,-430.885C992.426,-414.452 1132.69,-376.375 1247,-333 1301.99,-312.136 1363.91,-282.027 1398,-264.849"/>
<polygon fill="midnightblue" stroke="midnightblue" points="1399.91,-267.804 1407.25,-260.161 1396.74,-261.561 1399.91,-267.804"/>
</g>
<!-- Node33 -->
<g id="node33" class="node"><title>Node33</title>
<g id="a_node33"><a xlink:href="VectorArray_8hpp.html" target="_top" xlink:title="Core/Containers/VectorArray.hpp">
<polygon fill="white" stroke="black" points="1065.5,-308 1065.5,-327 1238.5,-327 1238.5,-308 1065.5,-308"/>
<text text-anchor="middle" x="1152" y="-315" font-family="Helvetica,sans-Serif" font-size="10.00">Core/Containers/VectorArray.hpp</text>
</a>
</g>
</g>
<!-- Node32&#45;&gt;Node33 -->
<g id="edge44" class="edge"><title>Node32&#45;&gt;Node33</title>
<path fill="none" stroke="midnightblue" d="M913.072,-430.992C957.387,-410.127 1071.67,-356.319 1124.49,-331.453"/>
<polygon fill="midnightblue" stroke="midnightblue" points="1126.05,-334.587 1133.6,-327.161 1123.07,-328.254 1126.05,-334.587"/>
</g>
<!-- Node37 -->
<g id="node37" class="node"><title>Node37</title>
<g id="a_node37"><a xlink:href="MeshTypes_8hpp.html" target="_top" xlink:title="Core/Mesh/MeshTypes.hpp">
<polygon fill="white" stroke="black" points="486.5,-308 486.5,-327 629.5,-327 629.5,-308 486.5,-308"/>
<text text-anchor="middle" x="558" y="-315" font-family="Helvetica,sans-Serif" font-size="10.00">Core/Mesh/MeshTypes.hpp</text>
</a>
</g>
</g>
<!-- Node32&#45;&gt;Node37 -->
<g id="edge53" class="edge"><title>Node32&#45;&gt;Node37</title>
<path fill="none" stroke="midnightblue" d="M818.325,-434.793C765.654,-429.117 695.345,-416.6 639,-389 611.911,-375.731 586.709,-351.073 571.828,-334.723"/>
<polygon fill="midnightblue" stroke="midnightblue" points="574.278,-332.209 565.032,-327.035 569.033,-336.845 574.278,-332.209"/>
</g>
<!-- Node38 -->
<g id="node38" class="node"><title>Node38</title>
<g id="a_node38"><a xlink:href="Attribs_8hpp.html" target="_top" xlink:title="Core/Utils/Attribs.hpp">
<polygon fill="white" stroke="black" points="648.5,-369.5 648.5,-388.5 767.5,-388.5 767.5,-369.5 648.5,-369.5"/>
<text text-anchor="middle" x="708" y="-376.5" font-family="Helvetica,sans-Serif" font-size="10.00">Core/Utils/Attribs.hpp</text>
</a>
</g>
</g>
<!-- Node32&#45;&gt;Node38 -->
<g id="edge58" class="edge"><title>Node32&#45;&gt;Node38</title>
<path fill="none" stroke="midnightblue" d="M868.207,-430.975C835.714,-420.636 780.792,-403.161 744.462,-391.602"/>
<polygon fill="midnightblue" stroke="midnightblue" points="745.333,-388.206 734.743,-388.509 743.211,-394.876 745.333,-388.206"/>
</g>
<!-- Node44 -->
<g id="node44" class="node"><title>Node44</title>
<g id="a_node44"><a xlink:href="TriangleMesh_8inl.html" target="_top" xlink:title="Core/Mesh/TriangleMesh.inl">
<polygon fill="white" stroke="black" points="786,-369.5 786,-388.5 932,-388.5 932,-369.5 786,-369.5"/>
<text text-anchor="middle" x="859" y="-376.5" font-family="Helvetica,sans-Serif" font-size="10.00">Core/Mesh/TriangleMesh.inl</text>
</a>
</g>
</g>
<!-- Node32&#45;&gt;Node44 -->
<g id="edge72" class="edge"><title>Node32&#45;&gt;Node44</title>
<path fill="none" stroke="midnightblue" d="M884.941,-430.975C877.813,-422.315 869.102,-408.649 863.45,-397.645"/>
<polygon fill="midnightblue" stroke="midnightblue" points="866.607,-396.134 859.251,-388.509 860.246,-399.057 866.607,-396.134"/>
</g>
<!-- Node33&#45;&gt;Node3 -->
<g id="edge50" class="edge"><title>Node33&#45;&gt;Node3</title>
<path fill="none" stroke="midnightblue" d="M1145.59,-307.789C1127.13,-283.2 1071.43,-212.18 1012,-168 994.138,-154.722 971.763,-143.514 953.792,-135.605"/>
<polygon fill="midnightblue" stroke="midnightblue" points="954.889,-132.268 944.317,-131.558 952.139,-138.705 954.889,-132.268"/>
</g>
<!-- Node33&#45;&gt;Node22 -->
<g id="edge49" class="edge"><title>Node33&#45;&gt;Node22</title>
<path fill="none" stroke="midnightblue" d="M1187.84,-307.936C1236.76,-296.244 1324.49,-275.28 1378.15,-262.457"/>
<polygon fill="midnightblue" stroke="midnightblue" points="1379.17,-265.812 1388.08,-260.083 1377.54,-259.004 1379.17,-265.812"/>
</g>
<!-- Node34 -->
<g id="node34" class="node"><title>Node34</title>
<g id="a_node34"><a xlink:href="AlignedStdVector_8hpp.html" target="_top" xlink:title="Core/Containers/AlignedStd\lVector.hpp">
<polygon fill="white" stroke="black" points="1139.5,-168.5 1139.5,-198.5 1288.5,-198.5 1288.5,-168.5 1139.5,-168.5"/>
<text text-anchor="start" x="1147.5" y="-186.5" font-family="Helvetica,sans-Serif" font-size="10.00">Core/Containers/AlignedStd</text>
<text text-anchor="middle" x="1214" y="-175.5" font-family="Helvetica,sans-Serif" font-size="10.00">Vector.hpp</text>
</a>
</g>
</g>
<!-- Node33&#45;&gt;Node34 -->
<g id="edge45" class="edge"><title>Node33&#45;&gt;Node34</title>
<path fill="none" stroke="midnightblue" d="M1156.07,-307.839C1165.46,-287.845 1188.92,-237.903 1202.93,-208.061"/>
<polygon fill="midnightblue" stroke="midnightblue" points="1206.21,-209.322 1207.29,-198.783 1199.87,-206.346 1206.21,-209.322"/>
</g>
<!-- Node36 -->
<g id="node36" class="node"><title>Node36</title>
<polygon fill="white" stroke="#bfbfbf" points="1241.5,-112.5 1241.5,-131.5 1288.5,-131.5 1288.5,-112.5 1241.5,-112.5"/>
<text text-anchor="middle" x="1265" y="-119.5" font-family="Helvetica,sans-Serif" font-size="10.00">vector</text>
</g>
<!-- Node33&#45;&gt;Node36 -->
<g id="edge51" class="edge"><title>Node33&#45;&gt;Node36</title>
<path fill="none" stroke="midnightblue" d="M1171.18,-307.927C1204.17,-291.979 1270.65,-254.277 1297,-199 1306.67,-178.719 1292.46,-154.742 1280.01,-139.223"/>
<polygon fill="midnightblue" stroke="midnightblue" points="1282.6,-136.868 1273.44,-131.548 1277.28,-141.421 1282.6,-136.868"/>
</g>
<!-- Node34&#45;&gt;Node3 -->
<g id="edge46" class="edge"><title>Node34&#45;&gt;Node3</title>
<path fill="none" stroke="midnightblue" d="M1145.17,-168.475C1092.59,-157.761 1021.28,-143.23 973.556,-133.506"/>
<polygon fill="midnightblue" stroke="midnightblue" points="974.243,-130.074 963.746,-131.506 972.845,-136.933 974.243,-130.074"/>
</g>
<!-- Node35 -->
<g id="node35" class="node"><title>Node35</title>
<polygon fill="white" stroke="#bfbfbf" points="1130.5,-112.5 1130.5,-131.5 1223.5,-131.5 1223.5,-112.5 1130.5,-112.5"/>
<text text-anchor="middle" x="1177" y="-119.5" font-family="Helvetica,sans-Serif" font-size="10.00">Eigen/StdVector</text>
</g>
<!-- Node34&#45;&gt;Node35 -->
<g id="edge47" class="edge"><title>Node34&#45;&gt;Node35</title>
<path fill="none" stroke="midnightblue" d="M1205.23,-168.399C1200.02,-160.021 1193.37,-149.327 1187.83,-140.423"/>
<polygon fill="midnightblue" stroke="midnightblue" points="1190.64,-138.302 1182.38,-131.658 1184.69,-141.998 1190.64,-138.302"/>
</g>
<!-- Node34&#45;&gt;Node36 -->
<g id="edge48" class="edge"><title>Node34&#45;&gt;Node36</title>
<path fill="none" stroke="midnightblue" d="M1226.09,-168.399C1233.57,-159.664 1243.22,-148.413 1251.03,-139.296"/>
<polygon fill="midnightblue" stroke="midnightblue" points="1253.73,-141.528 1257.58,-131.658 1248.41,-136.973 1253.73,-141.528"/>
</g>
<!-- Node37&#45;&gt;Node3 -->
<g id="edge56" class="edge"><title>Node37&#45;&gt;Node3</title>
<path fill="none" stroke="midnightblue" d="M557.552,-307.786C556.743,-281.921 558.204,-205.092 601,-168 639.079,-134.997 780.978,-126.147 862.801,-123.808"/>
<polygon fill="midnightblue" stroke="midnightblue" points="863.053,-127.303 872.958,-123.542 862.87,-120.305 863.053,-127.303"/>
</g>
<!-- Node37&#45;&gt;Node13 -->
<g id="edge54" class="edge"><title>Node37&#45;&gt;Node13</title>
<path fill="none" stroke="midnightblue" d="M486.214,-308.232C412.236,-299.328 293.692,-283.993 192,-266 185.617,-264.871 178.917,-263.565 172.324,-262.21"/>
<polygon fill="midnightblue" stroke="midnightblue" points="172.619,-258.696 162.112,-260.058 171.175,-265.545 172.619,-258.696"/>
</g>
<!-- Node37&#45;&gt;Node22 -->
<g id="edge55" class="edge"><title>Node37&#45;&gt;Node22</title>
<path fill="none" stroke="midnightblue" d="M629.605,-311.125C787.244,-299.293 1163.91,-271.022 1335.78,-258.121"/>
<polygon fill="midnightblue" stroke="midnightblue" points="1336.1,-261.608 1345.81,-257.369 1335.57,-254.627 1336.1,-261.608"/>
</g>
<!-- Node38&#45;&gt;Node2 -->
<g id="edge60" class="edge"><title>Node38&#45;&gt;Node2</title>
<path fill="none" stroke="midnightblue" d="M654.128,-369.475C585.862,-358.672 468.361,-340.078 395.715,-328.583"/>
<polygon fill="midnightblue" stroke="midnightblue" points="396.196,-325.115 385.772,-327.009 395.102,-332.029 396.196,-325.115"/>
</g>
<!-- Node38&#45;&gt;Node3 -->
<g id="edge71" class="edge"><title>Node38&#45;&gt;Node3</title>
<path fill="none" stroke="midnightblue" d="M721.743,-369.441C757.375,-346.508 853.346,-279.9 902,-199 912.638,-181.312 917.687,-157.989 920.038,-141.868"/>
<polygon fill="midnightblue" stroke="midnightblue" points="923.556,-141.94 921.314,-131.585 916.609,-141.078 923.556,-141.94"/>
</g>
<!-- Node38&#45;&gt;Node33 -->
<g id="edge59" class="edge"><title>Node38&#45;&gt;Node33</title>
<path fill="none" stroke="midnightblue" d="M767.88,-369.976C848.368,-359.189 991.372,-340.026 1078.35,-328.369"/>
<polygon fill="midnightblue" stroke="midnightblue" points="1078.97,-331.818 1088.41,-327.021 1078.04,-324.881 1078.97,-331.818"/>
</g>
<!-- Node39 -->
<g id="node39" class="node"><title>Node39</title>
<g id="a_node39"><a xlink:href="Log_8hpp.html" target="_top" xlink:title="Core/Log/Log.hpp">
<polygon fill="white" stroke="black" points="641.5,-241 641.5,-260 742.5,-260 742.5,-241 641.5,-241"/>
<text text-anchor="middle" x="692" y="-248" font-family="Helvetica,sans-Serif" font-size="10.00">Core/Log/Log.hpp</text>
</a>
</g>
</g>
<!-- Node38&#45;&gt;Node39 -->
<g id="edge61" class="edge"><title>Node38&#45;&gt;Node39</title>
<path fill="none" stroke="midnightblue" d="M706.9,-369.305C704.331,-348.994 697.888,-298.053 694.375,-270.277"/>
<polygon fill="midnightblue" stroke="midnightblue" points="697.835,-269.737 693.107,-260.256 690.89,-270.616 697.835,-269.737"/>
</g>
<!-- Node39&#45;&gt;Node3 -->
<g id="edge62" class="edge"><title>Node39&#45;&gt;Node3</title>
<path fill="none" stroke="midnightblue" d="M671.947,-240.96C640.768,-226.528 586.649,-196.128 611,-168 642.889,-131.165 781.67,-123.824 862.663,-122.752"/>
<polygon fill="midnightblue" stroke="midnightblue" points="862.762,-126.251 872.725,-122.647 862.689,-119.252 862.762,-126.251"/>
</g>
<!-- Node39&#45;&gt;Node8 -->
<g id="edge63" class="edge"><title>Node39&#45;&gt;Node8</title>
<path fill="none" stroke="midnightblue" d="M641.364,-242.077C615.383,-235.422 585.922,-222.823 570,-199 534.412,-145.752 566.291,-64.7026 583.575,-28.9798"/>
<polygon fill="midnightblue" stroke="midnightblue" points="586.827,-30.3034 588.188,-19.7963 580.572,-27.1612 586.827,-30.3034"/>
</g>
<!-- Node40 -->
<g id="node40" class="node"><title>Node40</title>
<polygon fill="white" stroke="#bfbfbf" points="844.5,-174 844.5,-193 893.5,-193 893.5,-174 844.5,-174"/>
<text text-anchor="middle" x="869" y="-181" font-family="Helvetica,sans-Serif" font-size="10.00">stdio.h</text>
</g>
<!-- Node39&#45;&gt;Node40 -->
<g id="edge64" class="edge"><title>Node39&#45;&gt;Node40</title>
<path fill="none" stroke="midnightblue" d="M717.754,-240.956C746.525,-231.284 794.395,-214.81 835,-199 836.603,-198.376 838.244,-197.723 839.896,-197.055"/>
<polygon fill="midnightblue" stroke="midnightblue" points="841.416,-200.214 849.311,-193.148 838.733,-193.748 841.416,-200.214"/>
</g>
<!-- Node41 -->
<g id="node41" class="node"><title>Node41</title>
<polygon fill="white" stroke="#bfbfbf" points="601,-112.5 601,-131.5 645,-131.5 645,-112.5 601,-112.5"/>
<text text-anchor="middle" x="623" y="-119.5" font-family="Helvetica,sans-Serif" font-size="10.00">string</text>
</g>
<!-- Node39&#45;&gt;Node41 -->
<g id="edge65" class="edge"><title>Node39&#45;&gt;Node41</title>
<path fill="none" stroke="midnightblue" d="M643.714,-240.927C619.625,-233.948 592.581,-221.407 578,-199 570.485,-187.452 572.727,-180.729 578,-168 582.92,-156.121 592.667,-145.743 601.834,-137.956"/>
<polygon fill="midnightblue" stroke="midnightblue" points="604.253,-140.506 609.936,-131.564 599.917,-135.01 604.253,-140.506"/>
</g>
<!-- Node42 -->
<g id="node42" class="node"><title>Node42</title>
<g id="a_node42"><a xlink:href="StringUtils_8hpp.html" target="_top" xlink:title="Core/String/StringUtils.hpp">
<polygon fill="white" stroke="black" points="620,-174 620,-193 764,-193 764,-174 620,-174"/>
<text text-anchor="middle" x="692" y="-181" font-family="Helvetica,sans-Serif" font-size="10.00">Core/String/StringUtils.hpp</text>
</a>
</g>
</g>
<!-- Node39&#45;&gt;Node42 -->
<g id="edge66" class="edge"><title>Node39&#45;&gt;Node42</title>
<path fill="none" stroke="midnightblue" d="M692,-240.734C692,-231.183 692,-215.618 692,-203.283"/>
<polygon fill="midnightblue" stroke="midnightblue" points="695.5,-203.127 692,-193.127 688.5,-203.127 695.5,-203.127"/>
</g>
<!-- Node43 -->
<g id="node43" class="node"><title>Node43</title>
<polygon fill="white" stroke="#bfbfbf" points="782,-174 782,-193 826,-193 826,-174 782,-174"/>
<text text-anchor="middle" x="804" y="-181" font-family="Helvetica,sans-Serif" font-size="10.00">ctime</text>
</g>
<!-- Node39&#45;&gt;Node43 -->
<g id="edge70" class="edge"><title>Node39&#45;&gt;Node43</title>
<path fill="none" stroke="midnightblue" d="M707.105,-240.734C725.913,-229.818 758.255,-211.049 780.358,-198.221"/>
<polygon fill="midnightblue" stroke="midnightblue" points="782.242,-201.174 789.134,-193.127 778.729,-195.12 782.242,-201.174"/>
</g>
<!-- Node42&#45;&gt;Node3 -->
<g id="edge67" class="edge"><title>Node42&#45;&gt;Node3</title>
<path fill="none" stroke="midnightblue" d="M724.953,-173.975C765.602,-163.459 834.787,-145.562 879.424,-134.014"/>
<polygon fill="midnightblue" stroke="midnightblue" points="880.303,-137.402 889.108,-131.509 878.55,-130.625 880.303,-137.402"/>
</g>
<!-- Node42&#45;&gt;Node36 -->
<g id="edge69" class="edge"><title>Node42&#45;&gt;Node36</title>
<path fill="none" stroke="midnightblue" d="M735.176,-173.955C747.369,-171.765 760.672,-169.583 773,-168 972.69,-142.359 1028.61,-166.278 1231.25,-131.771"/>
<polygon fill="midnightblue" stroke="midnightblue" points="1232.07,-135.182 1241.33,-130.028 1230.88,-128.284 1232.07,-135.182"/>
</g>
<!-- Node42&#45;&gt;Node41 -->
<g id="edge68" class="edge"><title>Node42&#45;&gt;Node41</title>
<path fill="none" stroke="midnightblue" d="M682.114,-173.975C671.354,-164.697 653.929,-149.671 640.779,-138.331"/>
<polygon fill="midnightblue" stroke="midnightblue" points="642.727,-135.389 632.868,-131.509 638.155,-140.69 642.727,-135.389"/>
</g>
<!-- Node44&#45;&gt;Node32 -->
<g id="edge73" class="edge"><title>Node44&#45;&gt;Node32</title>
<path fill="none" stroke="midnightblue" d="M869.045,-388.509C876.172,-397.163 884.884,-410.828 890.54,-421.835"/>
<polygon fill="midnightblue" stroke="midnightblue" points="887.385,-423.351 894.743,-430.975 893.745,-420.427 887.385,-423.351"/>
</g>
<!-- Node47&#45;&gt;Node18 -->
<g id="edge82" class="edge"><title>Node47&#45;&gt;Node18</title>
<path fill="none" stroke="midnightblue" d="M1852,-455.459C1796.38,-466.271 1717.64,-481.196 1658.63,-492.114"/>
<polygon fill="midnightblue" stroke="midnightblue" points="1657.79,-488.71 1648.59,-493.967 1659.06,-495.593 1657.79,-488.71"/>
</g>
</g>
</svg>
