<?xml version="1.0" encoding="UTF-8" standalone="no"?>
<!DOCTYPE svg PUBLIC "-//W3C//DTD SVG 1.1//EN"
 "http://www.w3.org/Graphics/SVG/1.1/DTD/svg11.dtd">
<!-- Generated by graphviz version 2.38.0 (20140413.2041)
 -->
<!-- Title: /home/travis/build/STORM&#45;IRIT/Radium&#45;Engine/src/Engine/Entity/Entity.hpp Pages: 1 -->
<svg width="1394pt" height="397pt"
 viewBox="0.00 0.00 1394.00 397.00" xmlns="http://www.w3.org/2000/svg" xmlns:xlink="http://www.w3.org/1999/xlink">
<g id="graph0" class="graph" transform="scale(1 1) rotate(0) translate(4 393)">
<title>/home/travis/build/STORM&#45;IRIT/Radium&#45;Engine/src/Engine/Entity/Entity.hpp</title>
<polygon fill="white" stroke="none" points="-4,4 -4,-393 1390,-393 1390,4 -4,4"/>
<!-- Node1 -->
<g id="node1" class="node"><title>Node1</title>
<polygon fill="#bfbfbf" stroke="black" points="483,-347.5 483,-388.5 632,-388.5 632,-347.5 483,-347.5"/>
<text text-anchor="start" x="491" y="-376.5" font-family="Helvetica,sans-Serif" font-size="10.00">/home/travis/build</text>
<text text-anchor="start" x="491" y="-365.5" font-family="Helvetica,sans-Serif" font-size="10.00">/STORM&#45;IRIT/Radium&#45;Engine</text>
<text text-anchor="middle" x="557.5" y="-354.5" font-family="Helvetica,sans-Serif" font-size="10.00">/src/Engine/Entity/Entity.hpp</text>
</g>
<!-- Node2 -->
<g id="node2" class="node"><title>Node2</title>
<g id="a_node2"><a xlink:href="RaEngine_8hpp.html" target="_top" xlink:title="Engine/RaEngine.hpp">
<polygon fill="white" stroke="black" points="0,-235.5 0,-254.5 117,-254.5 117,-235.5 0,-235.5"/>
<text text-anchor="middle" x="58.5" y="-242.5" font-family="Helvetica,sans-Serif" font-size="10.00">Engine/RaEngine.hpp</text>
</a>
</g>
</g>
<!-- Node1&#45;&gt;Node2 -->
<g id="edge1" class="edge"><title>Node1&#45;&gt;Node2</title>
<path fill="none" stroke="midnightblue" d="M482.986,-364.484C403.777,-359.92 275.811,-347.084 171.5,-311 136.503,-298.894 100.08,-275.709 78.351,-260.553"/>
<polygon fill="midnightblue" stroke="midnightblue" points="80.1634,-257.547 69.9852,-254.605 76.1071,-263.252 80.1634,-257.547"/>
</g>
<!-- Node8 -->
<g id="node8" class="node"><title>Node8</title>
<polygon fill="white" stroke="#bfbfbf" points="857.5,-0.5 857.5,-19.5 905.5,-19.5 905.5,-0.5 857.5,-0.5"/>
<text text-anchor="middle" x="881.5" y="-7.5" font-family="Helvetica,sans-Serif" font-size="10.00">thread</text>
</g>
<!-- Node1&#45;&gt;Node8 -->
<g id="edge10" class="edge"><title>Node1&#45;&gt;Node8</title>
<path fill="none" stroke="midnightblue" d="M632.107,-361.455C808.493,-347.346 1236.5,-306.842 1236.5,-246 1236.5,-246 1236.5,-246 1236.5,-121 1236.5,-54.2699 1004.75,-23.5617 915.743,-14.2288"/>
<polygon fill="midnightblue" stroke="midnightblue" points="915.925,-10.7293 905.621,-13.1956 915.214,-17.6931 915.925,-10.7293"/>
</g>
<!-- Node9 -->
<g id="node9" class="node"><title>Node9</title>
<polygon fill="white" stroke="#bfbfbf" points="359,-291.5 359,-310.5 406,-310.5 406,-291.5 359,-291.5"/>
<text text-anchor="middle" x="382.5" y="-298.5" font-family="Helvetica,sans-Serif" font-size="10.00">mutex</text>
</g>
<!-- Node1&#45;&gt;Node9 -->
<g id="edge8" class="edge"><title>Node1&#45;&gt;Node9</title>
<path fill="none" stroke="midnightblue" d="M504.994,-347.498C475.842,-336.67 440.484,-323.537 415.264,-314.17"/>
<polygon fill="midnightblue" stroke="midnightblue" points="416.388,-310.853 405.795,-310.652 413.951,-317.415 416.388,-310.853"/>
</g>
<!-- Node10 -->
<g id="node10" class="node"><title>Node10</title>
<polygon fill="white" stroke="#bfbfbf" points="424.5,-291.5 424.5,-310.5 468.5,-310.5 468.5,-291.5 424.5,-291.5"/>
<text text-anchor="middle" x="446.5" y="-298.5" font-family="Helvetica,sans-Serif" font-size="10.00">string</text>
</g>
<!-- Node1&#45;&gt;Node10 -->
<g id="edge9" class="edge"><title>Node1&#45;&gt;Node10</title>
<path fill="none" stroke="midnightblue" d="M524.196,-347.498C506.851,-337.34 486.042,-325.155 470.326,-315.952"/>
<polygon fill="midnightblue" stroke="midnightblue" points="471.674,-312.685 461.276,-310.652 468.136,-318.726 471.674,-312.685"/>
</g>
<!-- Node11 -->
<g id="node11" class="node"><title>Node11</title>
<polygon fill="white" stroke="#bfbfbf" points="487,-291.5 487,-310.5 534,-310.5 534,-291.5 487,-291.5"/>
<text text-anchor="middle" x="510.5" y="-298.5" font-family="Helvetica,sans-Serif" font-size="10.00">vector</text>
</g>
<!-- Node1&#45;&gt;Node11 -->
<g id="edge11" class="edge"><title>Node1&#45;&gt;Node11</title>
<path fill="none" stroke="midnightblue" d="M543.398,-347.498C536.816,-338.395 529.056,-327.662 522.726,-318.908"/>
<polygon fill="midnightblue" stroke="midnightblue" points="525.452,-316.705 516.756,-310.652 519.78,-320.807 525.452,-316.705"/>
</g>
<!-- Node12 -->
<g id="node12" class="node"><title>Node12</title>
<g id="a_node12"><a xlink:href="IndexedObject_8hpp.html" target="_top" xlink:title="Core/Index/IndexedObject.hpp">
<polygon fill="white" stroke="black" points="180.5,-291.5 180.5,-310.5 340.5,-310.5 340.5,-291.5 180.5,-291.5"/>
<text text-anchor="middle" x="260.5" y="-298.5" font-family="Helvetica,sans-Serif" font-size="10.00">Core/Index/IndexedObject.hpp</text>
</a>
</g>
</g>
<!-- Node1&#45;&gt;Node12 -->
<g id="edge12" class="edge"><title>Node1&#45;&gt;Node12</title>
<path fill="none" stroke="midnightblue" d="M482.938,-350.682C428.669,-338.805 356.714,-323.057 309.541,-312.733"/>
<polygon fill="midnightblue" stroke="midnightblue" points="310.091,-309.27 299.574,-310.552 308.594,-316.109 310.091,-309.27"/>
</g>
<!-- Node17 -->
<g id="node17" class="node"><title>Node17</title>
<g id="a_node17"><a xlink:href="LinearAlgebra_8hpp.html" target="_top" xlink:title="Core/Math/LinearAlgebra.hpp">
<polygon fill="white" stroke="black" points="568.5,-235.5 568.5,-254.5 724.5,-254.5 724.5,-235.5 568.5,-235.5"/>
<text text-anchor="middle" x="646.5" y="-242.5" font-family="Helvetica,sans-Serif" font-size="10.00">Core/Math/LinearAlgebra.hpp</text>
</a>
</g>
</g>
<!-- Node1&#45;&gt;Node17 -->
<g id="edge18" class="edge"><title>Node1&#45;&gt;Node17</title>
<path fill="none" stroke="midnightblue" d="M623.845,-347.499C641.016,-339.114 657.476,-327.351 667.5,-311 676.665,-296.049 668.235,-276.682 659.479,-262.99"/>
<polygon fill="midnightblue" stroke="midnightblue" points="662.173,-260.735 653.577,-254.541 656.435,-264.743 662.173,-260.735"/>
</g>
<!-- Node28 -->
<g id="node28" class="node"><title>Node28</title>
<g id="a_node28"><a xlink:href="Ray_8hpp.html" target="_top" xlink:title="Core/Math/Ray.hpp">
<polygon fill="white" stroke="black" points="552.5,-291.5 552.5,-310.5 658.5,-310.5 658.5,-291.5 552.5,-291.5"/>
<text text-anchor="middle" x="605.5" y="-298.5" font-family="Helvetica,sans-Serif" font-size="10.00">Core/Math/Ray.hpp</text>
</a>
</g>
</g>
<!-- Node1&#45;&gt;Node28 -->
<g id="edge32" class="edge"><title>Node1&#45;&gt;Node28</title>
<path fill="none" stroke="midnightblue" d="M571.902,-347.498C578.624,-338.395 586.549,-327.662 593.014,-318.908"/>
<polygon fill="midnightblue" stroke="midnightblue" points="595.986,-320.776 599.11,-310.652 590.354,-316.618 595.986,-320.776"/>
</g>
<!-- Node29 -->
<g id="node29" class="node"><title>Node29</title>
<g id="a_node29"><a xlink:href="Entity_8inl.html" target="_top" xlink:title="Engine/Entity/Entity.inl">
<polygon fill="white" stroke="black" points="1265,-291.5 1265,-310.5 1386,-310.5 1386,-291.5 1265,-291.5"/>
<text text-anchor="middle" x="1325.5" y="-298.5" font-family="Helvetica,sans-Serif" font-size="10.00">Engine/Entity/Entity.inl</text>
</a>
</g>
</g>
<!-- Node1&#45;&gt;Node29 -->
<g id="edge36" class="edge"><title>Node1&#45;&gt;Node29</title>
<path fill="none" stroke="midnightblue" d="M632.248,-361.521C758.125,-352.484 1020.06,-333.225 1241.5,-311 1245.88,-310.561 1250.39,-310.082 1254.96,-309.582"/>
<polygon fill="midnightblue" stroke="midnightblue" points="1255.44,-313.05 1264.99,-308.46 1254.66,-306.093 1255.44,-313.05"/>
</g>
<!-- Node3 -->
<g id="node3" class="node"><title>Node3</title>
<g id="a_node3"><a xlink:href="CoreMacros_8hpp.html" target="_top" xlink:title="Core/CoreMacros.hpp">
<polygon fill="white" stroke="black" points="335.5,-56.5 335.5,-75.5 455.5,-75.5 455.5,-56.5 335.5,-56.5"/>
<text text-anchor="middle" x="395.5" y="-63.5" font-family="Helvetica,sans-Serif" font-size="10.00">Core/CoreMacros.hpp</text>
</a>
</g>
</g>
<!-- Node2&#45;&gt;Node3 -->
<g id="edge2" class="edge"><title>Node2&#45;&gt;Node3</title>
<path fill="none" stroke="midnightblue" d="M57.8435,-235.224C57.1791,-219.623 58.1297,-186.926 75.5,-168 139.835,-97.9035 252.322,-76.1383 325.339,-69.5662"/>
<polygon fill="midnightblue" stroke="midnightblue" points="325.693,-73.049 335.371,-68.7363 325.116,-66.0728 325.693,-73.049"/>
</g>
<!-- Node4 -->
<g id="node4" class="node"><title>Node4</title>
<polygon fill="white" stroke="#bfbfbf" points="405.5,-0.5 405.5,-19.5 457.5,-19.5 457.5,-0.5 405.5,-0.5"/>
<text text-anchor="middle" x="431.5" y="-7.5" font-family="Helvetica,sans-Serif" font-size="10.00">cassert</text>
</g>
<!-- Node3&#45;&gt;Node4 -->
<g id="edge3" class="edge"><title>Node3&#45;&gt;Node4</title>
<path fill="none" stroke="midnightblue" d="M401.445,-56.083C406.477,-48.5341 413.837,-37.4948 420.013,-28.2298"/>
<polygon fill="midnightblue" stroke="midnightblue" points="423.031,-30.0131 425.666,-19.7511 417.207,-26.1301 423.031,-30.0131"/>
</g>
<!-- Node5 -->
<g id="node5" class="node"><title>Node5</title>
<polygon fill="white" stroke="#bfbfbf" points="476,-0.5 476,-19.5 521,-19.5 521,-0.5 476,-0.5"/>
<text text-anchor="middle" x="498.5" y="-7.5" font-family="Helvetica,sans-Serif" font-size="10.00">cstdio</text>
</g>
<!-- Node3&#45;&gt;Node5 -->
<g id="edge4" class="edge"><title>Node3&#45;&gt;Node5</title>
<path fill="none" stroke="midnightblue" d="M412.049,-56.324C428.492,-47.7034 453.935,-34.3643 472.968,-24.3855"/>
<polygon fill="midnightblue" stroke="midnightblue" points="474.761,-27.3977 481.992,-19.6545 471.511,-21.198 474.761,-27.3977"/>
</g>
<!-- Node6 -->
<g id="node6" class="node"><title>Node6</title>
<polygon fill="white" stroke="#bfbfbf" points="254,-0.5 254,-19.5 313,-19.5 313,-0.5 254,-0.5"/>
<text text-anchor="middle" x="283.5" y="-7.5" font-family="Helvetica,sans-Serif" font-size="10.00">iostream</text>
</g>
<!-- Node3&#45;&gt;Node6 -->
<g id="edge5" class="edge"><title>Node3&#45;&gt;Node6</title>
<path fill="none" stroke="midnightblue" d="M377.505,-56.324C359.462,-47.6247 331.453,-34.1202 310.697,-24.113"/>
<polygon fill="midnightblue" stroke="midnightblue" points="311.978,-20.8449 301.45,-19.6545 308.938,-27.1502 311.978,-20.8449"/>
</g>
<!-- Node7 -->
<g id="node7" class="node"><title>Node7</title>
<polygon fill="white" stroke="#bfbfbf" points="331.5,-0.5 331.5,-19.5 387.5,-19.5 387.5,-0.5 331.5,-0.5"/>
<text text-anchor="middle" x="359.5" y="-7.5" font-family="Helvetica,sans-Serif" font-size="10.00">sstream</text>
</g>
<!-- Node3&#45;&gt;Node7 -->
<g id="edge6" class="edge"><title>Node3&#45;&gt;Node7</title>
<path fill="none" stroke="midnightblue" d="M389.555,-56.083C384.523,-48.5341 377.163,-37.4948 370.987,-28.2298"/>
<polygon fill="midnightblue" stroke="midnightblue" points="373.793,-26.1301 365.334,-19.7511 367.969,-30.0131 373.793,-26.1301"/>
</g>
<!-- Node3&#45;&gt;Node8 -->
<g id="edge7" class="edge"><title>Node3&#45;&gt;Node8</title>
<path fill="none" stroke="midnightblue" d="M455.581,-58.3244C558.513,-46.8874 765.38,-23.9022 847.129,-14.819"/>
<polygon fill="midnightblue" stroke="midnightblue" points="847.811,-18.2649 857.363,-13.6819 847.038,-11.3077 847.811,-18.2649"/>
</g>
<!-- Node13 -->
<g id="node13" class="node"><title>Node13</title>
<g id="a_node13"><a xlink:href="Index_8hpp.html" target="_top" xlink:title="Core/Index/Index.hpp">
<polygon fill="white" stroke="black" points="137,-235.5 137,-254.5 254,-254.5 254,-235.5 137,-235.5"/>
<text text-anchor="middle" x="195.5" y="-242.5" font-family="Helvetica,sans-Serif" font-size="10.00">Core/Index/Index.hpp</text>
</a>
</g>
</g>
<!-- Node12&#45;&gt;Node13 -->
<g id="edge13" class="edge"><title>Node12&#45;&gt;Node13</title>
<path fill="none" stroke="midnightblue" d="M250.057,-291.324C240.354,-283.263 225.685,-271.077 214,-261.369"/>
<polygon fill="midnightblue" stroke="midnightblue" points="216.062,-258.532 206.133,-254.834 211.589,-263.916 216.062,-258.532"/>
</g>
<!-- Node16 -->
<g id="node16" class="node"><title>Node16</title>
<g id="a_node16"><a xlink:href="RaCore_8hpp.html" target="_top" xlink:title="Core/RaCore.hpp">
<polygon fill="white" stroke="black" points="346.5,-112.5 346.5,-131.5 444.5,-131.5 444.5,-112.5 346.5,-112.5"/>
<text text-anchor="middle" x="395.5" y="-119.5" font-family="Helvetica,sans-Serif" font-size="10.00">Core/RaCore.hpp</text>
</a>
</g>
</g>
<!-- Node12&#45;&gt;Node16 -->
<g id="edge16" class="edge"><title>Node12&#45;&gt;Node16</title>
<path fill="none" stroke="midnightblue" d="M261.274,-291.498C263.758,-268.775 273.414,-205.801 306.5,-168 319.682,-152.94 339.105,-142.305 356.446,-135.17"/>
<polygon fill="midnightblue" stroke="midnightblue" points="357.741,-138.423 365.813,-131.561 355.223,-131.891 357.741,-138.423"/>
</g>
<!-- Node14 -->
<g id="node14" class="node"><title>Node14</title>
<polygon fill="white" stroke="#bfbfbf" points="84.5,-174 84.5,-193 126.5,-193 126.5,-174 84.5,-174"/>
<text text-anchor="middle" x="105.5" y="-181" font-family="Helvetica,sans-Serif" font-size="10.00">limits</text>
</g>
<!-- Node13&#45;&gt;Node14 -->
<g id="edge14" class="edge"><title>Node13&#45;&gt;Node14</title>
<path fill="none" stroke="midnightblue" d="M182.605,-235.475C168.036,-225.843 144.098,-210.017 126.755,-198.552"/>
<polygon fill="midnightblue" stroke="midnightblue" points="128.643,-195.604 118.371,-193.009 124.783,-201.444 128.643,-195.604"/>
</g>
<!-- Node15 -->
<g id="node15" class="node"><title>Node15</title>
<g id="a_node15"><a xlink:href="Index_8inl.html" target="_top" xlink:title="Core/Index/Index.inl">
<polygon fill="white" stroke="black" points="144.5,-174 144.5,-193 254.5,-193 254.5,-174 144.5,-174"/>
<text text-anchor="middle" x="199.5" y="-181" font-family="Helvetica,sans-Serif" font-size="10.00">Core/Index/Index.inl</text>
</a>
</g>
</g>
<!-- Node13&#45;&gt;Node15 -->
<g id="edge15" class="edge"><title>Node13&#45;&gt;Node15</title>
<path fill="none" stroke="midnightblue" d="M196.073,-235.475C196.637,-227.08 197.518,-213.981 198.245,-203.163"/>
<polygon fill="midnightblue" stroke="midnightblue" points="201.749,-203.221 198.928,-193.009 194.765,-202.752 201.749,-203.221"/>
</g>
<!-- Node16&#45;&gt;Node3 -->
<g id="edge17" class="edge"><title>Node16&#45;&gt;Node3</title>
<path fill="none" stroke="midnightblue" d="M395.5,-112.083C395.5,-105.006 395.5,-94.8611 395.5,-85.9865"/>
<polygon fill="midnightblue" stroke="midnightblue" points="399,-85.751 395.5,-75.7511 392,-85.7511 399,-85.751"/>
</g>
<!-- Node17&#45;&gt;Node16 -->
<g id="edge19" class="edge"><title>Node17&#45;&gt;Node16</title>
<path fill="none" stroke="midnightblue" d="M598.229,-235.46C566.158,-228.535 523.799,-216.932 489.5,-199 470.184,-188.902 468.44,-181.715 451.5,-168 439.109,-157.968 425.13,-146.734 414.238,-138.001"/>
<polygon fill="midnightblue" stroke="midnightblue" points="416.247,-135.125 406.255,-131.603 411.87,-140.588 416.247,-135.125"/>
</g>
<!-- Node18 -->
<g id="node18" class="node"><title>Node18</title>
<polygon fill="white" stroke="#bfbfbf" points="498.5,-174 498.5,-193 566.5,-193 566.5,-174 498.5,-174"/>
<text text-anchor="middle" x="532.5" y="-181" font-family="Helvetica,sans-Serif" font-size="10.00">Eigen/Core</text>
</g>
<!-- Node17&#45;&gt;Node18 -->
<g id="edge20" class="edge"><title>Node17&#45;&gt;Node18</title>
<path fill="none" stroke="midnightblue" d="M630.167,-235.475C611.289,-225.622 579.993,-209.288 557.924,-197.77"/>
<polygon fill="midnightblue" stroke="midnightblue" points="559.288,-194.533 548.803,-193.009 556.049,-200.739 559.288,-194.533"/>
</g>
<!-- Node19 -->
<g id="node19" class="node"><title>Node19</title>
<polygon fill="white" stroke="#bfbfbf" points="348.5,-174 348.5,-193 442.5,-193 442.5,-174 348.5,-174"/>
<text text-anchor="middle" x="395.5" y="-181" font-family="Helvetica,sans-Serif" font-size="10.00">Eigen/Geometry</text>
</g>
<!-- Node17&#45;&gt;Node19 -->
<g id="edge21" class="edge"><title>Node17&#45;&gt;Node19</title>
<path fill="none" stroke="midnightblue" d="M610.427,-235.466C572.207,-226.421 510.097,-211.717 456.5,-199 451.53,-197.821 446.333,-196.587 441.159,-195.358"/>
<polygon fill="midnightblue" stroke="midnightblue" points="441.841,-191.922 431.302,-193.016 440.222,-198.733 441.841,-191.922"/>
</g>
<!-- Node20 -->
<g id="node20" class="node"><title>Node20</title>
<polygon fill="white" stroke="#bfbfbf" points="584.5,-174 584.5,-193 664.5,-193 664.5,-174 584.5,-174"/>
<text text-anchor="middle" x="624.5" y="-181" font-family="Helvetica,sans-Serif" font-size="10.00">Eigen/Sparse</text>
</g>
<!-- Node17&#45;&gt;Node20 -->
<g id="edge22" class="edge"><title>Node17&#45;&gt;Node20</title>
<path fill="none" stroke="midnightblue" d="M643.348,-235.475C640.179,-226.904 635.196,-213.427 631.149,-202.483"/>
<polygon fill="midnightblue" stroke="midnightblue" points="634.397,-201.175 627.646,-193.009 627.832,-203.602 634.397,-201.175"/>
</g>
<!-- Node21 -->
<g id="node21" class="node"><title>Node21</title>
<polygon fill="white" stroke="#bfbfbf" points="683,-174 683,-193 746,-193 746,-174 683,-174"/>
<text text-anchor="middle" x="714.5" y="-181" font-family="Helvetica,sans-Serif" font-size="10.00">functional</text>
</g>
<!-- Node17&#45;&gt;Node21 -->
<g id="edge23" class="edge"><title>Node17&#45;&gt;Node21</title>
<path fill="none" stroke="midnightblue" d="M656.243,-235.475C666.847,-226.197 684.019,-211.171 696.979,-199.831"/>
<polygon fill="midnightblue" stroke="midnightblue" points="699.554,-202.228 704.775,-193.009 694.945,-196.96 699.554,-202.228"/>
</g>
<!-- Node22 -->
<g id="node22" class="node"><title>Node22</title>
<polygon fill="white" stroke="#bfbfbf" points="764,-168.5 764,-198.5 909,-198.5 909,-168.5 764,-168.5"/>
<text text-anchor="start" x="772" y="-186.5" font-family="Helvetica,sans-Serif" font-size="10.00">unsupported/Eigen/Aligned</text>
<text text-anchor="middle" x="836.5" y="-175.5" font-family="Helvetica,sans-Serif" font-size="10.00">Vector3</text>
</g>
<!-- Node17&#45;&gt;Node22 -->
<g id="edge24" class="edge"><title>Node17&#45;&gt;Node22</title>
<path fill="none" stroke="midnightblue" d="M673.722,-235.475C701.86,-226.664 746.55,-212.668 781.991,-201.57"/>
<polygon fill="midnightblue" stroke="midnightblue" points="783.224,-204.852 791.721,-198.523 781.132,-198.171 783.224,-204.852"/>
</g>
<!-- Node23 -->
<g id="node23" class="node"><title>Node23</title>
<g id="a_node23"><a xlink:href="Math_8hpp.html" target="_top" xlink:title="Core/Math/Math.hpp">
<polygon fill="white" stroke="black" points="1094.5,-174 1094.5,-193 1208.5,-193 1208.5,-174 1094.5,-174"/>
<text text-anchor="middle" x="1151.5" y="-181" font-family="Helvetica,sans-Serif" font-size="10.00">Core/Math/Math.hpp</text>
</a>
</g>
</g>
<!-- Node17&#45;&gt;Node23 -->
<g id="edge25" class="edge"><title>Node17&#45;&gt;Node23</title>
<path fill="none" stroke="midnightblue" d="M724.565,-238.701C812.62,-232.098 959.928,-219.162 1085.5,-199 1092.19,-197.925 1099.23,-196.597 1106.11,-195.185"/>
<polygon fill="midnightblue" stroke="midnightblue" points="1106.97,-198.58 1116.02,-193.074 1105.51,-191.733 1106.97,-198.58"/>
</g>
<!-- Node27 -->
<g id="node27" class="node"><title>Node27</title>
<g id="a_node27"><a xlink:href="LinearAlgebra_8inl.html" target="_top" xlink:title="Core/Math/LinearAlgebra.inl">
<polygon fill="white" stroke="black" points="927,-174 927,-193 1076,-193 1076,-174 927,-174"/>
<text text-anchor="middle" x="1001.5" y="-181" font-family="Helvetica,sans-Serif" font-size="10.00">Core/Math/LinearAlgebra.inl</text>
</a>
</g>
</g>
<!-- Node17&#45;&gt;Node27 -->
<g id="edge31" class="edge"><title>Node17&#45;&gt;Node27</title>
<path fill="none" stroke="midnightblue" d="M698.921,-235.471C753.713,-226.522 842.176,-211.98 918.5,-199 926.497,-197.64 934.924,-196.189 943.219,-194.75"/>
<polygon fill="midnightblue" stroke="midnightblue" points="943.983,-198.17 953.235,-193.007 942.783,-191.273 943.983,-198.17"/>
</g>
<!-- Node23&#45;&gt;Node16 -->
<g id="edge26" class="edge"><title>Node23&#45;&gt;Node16</title>
<path fill="none" stroke="midnightblue" d="M1117.42,-173.984C1107.22,-171.712 1095.95,-169.481 1085.5,-168 853.646,-135.163 574.51,-126.241 454.762,-123.854"/>
<polygon fill="midnightblue" stroke="midnightblue" points="454.768,-120.353 444.702,-123.661 454.634,-127.352 454.768,-120.353"/>
</g>
<!-- Node24 -->
<g id="node24" class="node"><title>Node24</title>
<polygon fill="white" stroke="#bfbfbf" points="1080.5,-112.5 1080.5,-131.5 1142.5,-131.5 1142.5,-112.5 1080.5,-112.5"/>
<text text-anchor="middle" x="1111.5" y="-119.5" font-family="Helvetica,sans-Serif" font-size="10.00">algorithm</text>
</g>
<!-- Node23&#45;&gt;Node24 -->
<g id="edge27" class="edge"><title>Node23&#45;&gt;Node24</title>
<path fill="none" stroke="midnightblue" d="M1145.77,-173.975C1139.83,-165.138 1130.38,-151.089 1122.91,-139.975"/>
<polygon fill="midnightblue" stroke="midnightblue" points="1125.7,-137.855 1117.22,-131.509 1119.89,-141.761 1125.7,-137.855"/>
</g>
<!-- Node25 -->
<g id="node25" class="node"><title>Node25</title>
<polygon fill="white" stroke="#bfbfbf" points="1161,-112.5 1161,-131.5 1208,-131.5 1208,-112.5 1161,-112.5"/>
<text text-anchor="middle" x="1184.5" y="-119.5" font-family="Helvetica,sans-Serif" font-size="10.00">cmath</text>
</g>
<!-- Node23&#45;&gt;Node25 -->
<g id="edge28" class="edge"><title>Node23&#45;&gt;Node25</title>
<path fill="none" stroke="midnightblue" d="M1156.23,-173.975C1161.08,-165.227 1168.77,-151.369 1174.9,-140.309"/>
<polygon fill="midnightblue" stroke="midnightblue" points="1177.99,-141.952 1179.78,-131.509 1171.87,-138.557 1177.99,-141.952"/>
</g>
<!-- Node26 -->
<g id="node26" class="node"><title>Node26</title>
<g id="a_node26"><a xlink:href="Math_8inl.html" target="_top" xlink:title="Core/Math/Math.inl">
<polygon fill="white" stroke="black" points="956,-112.5 956,-131.5 1063,-131.5 1063,-112.5 956,-112.5"/>
<text text-anchor="middle" x="1009.5" y="-119.5" font-family="Helvetica,sans-Serif" font-size="10.00">Core/Math/Math.inl</text>
</a>
</g>
</g>
<!-- Node23&#45;&gt;Node26 -->
<g id="edge29" class="edge"><title>Node23&#45;&gt;Node26</title>
<path fill="none" stroke="midnightblue" d="M1126.25,-173.975C1100.13,-163.945 1059.92,-147.2 1034.06,-135.655"/>
<polygon fill="midnightblue" stroke="midnightblue" points="1035.46,-132.448 1024.91,-131.509 1032.57,-138.824 1035.46,-132.448"/>
</g>
<!-- Node26&#45;&gt;Node23 -->
<g id="edge30" class="edge"><title>Node26&#45;&gt;Node23</title>
<path fill="none" stroke="midnightblue" d="M1034.7,-131.509C1060.81,-141.532 1101.02,-158.276 1126.9,-169.827"/>
<polygon fill="midnightblue" stroke="midnightblue" points="1125.5,-173.037 1136.06,-173.975 1128.39,-166.66 1125.5,-173.037"/>
</g>
<!-- Node28&#45;&gt;Node16 -->
<g id="edge33" class="edge"><title>Node28&#45;&gt;Node16</title>
<path fill="none" stroke="midnightblue" d="M568.706,-291.488C502.18,-275.27 366.285,-238.058 339.5,-199 331.708,-187.637 333.545,-180.424 339.5,-168 345.753,-154.954 357.836,-144.492 369.182,-136.951"/>
<polygon fill="midnightblue" stroke="midnightblue" points="371.309,-139.752 377.998,-131.535 367.646,-133.787 371.309,-139.752"/>
</g>
<!-- Node28&#45;&gt;Node17 -->
<g id="edge34" class="edge"><title>Node28&#45;&gt;Node17</title>
<path fill="none" stroke="midnightblue" d="M612.27,-291.083C618.062,-283.455 626.558,-272.264 633.638,-262.941"/>
<polygon fill="midnightblue" stroke="midnightblue" points="636.596,-264.832 639.856,-254.751 631.021,-260.599 636.596,-264.832"/>
</g>
<!-- Node28&#45;&gt;Node19 -->
<g id="edge35" class="edge"><title>Node28&#45;&gt;Node19</title>
<path fill="none" stroke="midnightblue" d="M589.716,-291.319C553.37,-271.328 463.553,-221.929 419.985,-197.967"/>
<polygon fill="midnightblue" stroke="midnightblue" points="421.63,-194.877 411.181,-193.124 418.256,-201.01 421.63,-194.877"/>
</g>
<!-- Node29&#45;&gt;Node1 -->
<g id="edge37" class="edge"><title>Node29&#45;&gt;Node1</title>
<path fill="none" stroke="midnightblue" d="M1264.64,-310.473C1262.91,-310.654 1261.2,-310.83 1259.5,-311 1037.25,-333.307 774.195,-352.626 642.064,-361.621"/>
<polygon fill="midnightblue" stroke="midnightblue" points="641.747,-358.134 632.007,-362.302 642.221,-365.118 641.747,-358.134"/>
</g>
</g>
</svg>
