<?xml version="1.0" encoding="UTF-8" standalone="no"?>
<!DOCTYPE svg PUBLIC "-//W3C//DTD SVG 1.1//EN"
 "http://www.w3.org/Graphics/SVG/1.1/DTD/svg11.dtd">
<!-- Generated by graphviz version 2.38.0 (20140413.2041)
 -->
<!-- Title: /home/travis/build/STORM&#45;IRIT/Radium&#45;Engine/src/GuiBase/TreeModel/EntityTreeModel.cpp Pages: 1 -->
<svg width="2336pt" height="486pt"
 viewBox="0.00 0.00 2336.00 486.00" xmlns="http://www.w3.org/2000/svg" xmlns:xlink="http://www.w3.org/1999/xlink">
<g id="graph0" class="graph" transform="scale(1 1) rotate(0) translate(4 482)">
<title>/home/travis/build/STORM&#45;IRIT/Radium&#45;Engine/src/GuiBase/TreeModel/EntityTreeModel.cpp</title>
<polygon fill="white" stroke="none" points="-4,4 -4,-482 2332,-482 2332,4 -4,4"/>
<!-- Node1 -->
<g id="node1" class="node"><title>Node1</title>
<polygon fill="#bfbfbf" stroke="black" points="1101.5,-425.5 1101.5,-477.5 1278.5,-477.5 1278.5,-425.5 1101.5,-425.5"/>
<text text-anchor="start" x="1109.5" y="-465.5" font-family="Helvetica,sans-Serif" font-size="10.00">/home/travis/build</text>
<text text-anchor="start" x="1109.5" y="-454.5" font-family="Helvetica,sans-Serif" font-size="10.00">/STORM&#45;IRIT/Radium&#45;Engine</text>
<text text-anchor="start" x="1109.5" y="-443.5" font-family="Helvetica,sans-Serif" font-size="10.00">/src/GuiBase/TreeModel/EntityTree</text>
<text text-anchor="middle" x="1190" y="-432.5" font-family="Helvetica,sans-Serif" font-size="10.00">Model.cpp</text>
</g>
<!-- Node2 -->
<g id="node2" class="node"><title>Node2</title>
<g id="a_node2"><a xlink:href="EntityTreeModel_8hpp.html" target="_top" xlink:title="GuiBase/TreeModel/Entity\lTreeModel.hpp">
<polygon fill="white" stroke="black" points="635.5,-358.5 635.5,-388.5 772.5,-388.5 772.5,-358.5 635.5,-358.5"/>
<text text-anchor="start" x="643.5" y="-376.5" font-family="Helvetica,sans-Serif" font-size="10.00">GuiBase/TreeModel/Entity</text>
<text text-anchor="middle" x="704" y="-365.5" font-family="Helvetica,sans-Serif" font-size="10.00">TreeModel.hpp</text>
</a>
</g>
</g>
<!-- Node1&#45;&gt;Node2 -->
<g id="edge1" class="edge"><title>Node1&#45;&gt;Node2</title>
<path fill="none" stroke="midnightblue" d="M1101.43,-436.649C1010.43,-422.42 870.119,-400.477 782.85,-386.831"/>
<polygon fill="midnightblue" stroke="midnightblue" points="783.161,-383.337 772.74,-385.25 782.079,-390.253 783.161,-383.337"/>
</g>
<!-- Node26 -->
<g id="node26" class="node"><title>Node26</title>
<polygon fill="white" stroke="#bfbfbf" points="1606,-364 1606,-383 1648,-383 1648,-364 1606,-364"/>
<text text-anchor="middle" x="1627" y="-371" font-family="Helvetica,sans-Serif" font-size="10.00">stack</text>
</g>
<!-- Node1&#45;&gt;Node26 -->
<g id="edge33" class="edge"><title>Node1&#45;&gt;Node26</title>
<path fill="none" stroke="midnightblue" d="M1278.64,-444.799C1362.25,-437.634 1490.33,-422.008 1597,-389 1598.67,-388.483 1600.37,-387.885 1602.06,-387.234"/>
<polygon fill="midnightblue" stroke="midnightblue" points="1603.73,-390.32 1611.48,-383.094 1600.92,-383.912 1603.73,-390.32"/>
</g>
<!-- Node27 -->
<g id="node27" class="node"><title>Node27</title>
<g id="a_node27"><a xlink:href="Component_8hpp.html" target="_top" xlink:title="Engine/Component/Component.hpp">
<polygon fill="white" stroke="black" points="1400,-364 1400,-383 1588,-383 1588,-364 1400,-364"/>
<text text-anchor="middle" x="1494" y="-371" font-family="Helvetica,sans-Serif" font-size="10.00">Engine/Component/Component.hpp</text>
</a>
</g>
</g>
<!-- Node1&#45;&gt;Node27 -->
<g id="edge34" class="edge"><title>Node1&#45;&gt;Node27</title>
<path fill="none" stroke="midnightblue" d="M1278.75,-428.313C1335,-414.249 1405.33,-396.668 1449.97,-385.508"/>
<polygon fill="midnightblue" stroke="midnightblue" points="1451.06,-388.843 1459.91,-383.022 1449.36,-382.052 1451.06,-388.843"/>
</g>
<!-- Node42 -->
<g id="node42" class="node"><title>Node42</title>
<g id="a_node42"><a xlink:href="Entity_8hpp.html" target="_top" xlink:title="Engine/Entity/Entity.hpp">
<polygon fill="white" stroke="black" points="1126,-364 1126,-383 1254,-383 1254,-364 1126,-364"/>
<text text-anchor="middle" x="1190" y="-371" font-family="Helvetica,sans-Serif" font-size="10.00">Engine/Entity/Entity.hpp</text>
</a>
</g>
</g>
<!-- Node1&#45;&gt;Node42 -->
<g id="edge59" class="edge"><title>Node1&#45;&gt;Node42</title>
<path fill="none" stroke="midnightblue" d="M1190,-425.193C1190,-414.765 1190,-402.896 1190,-393.266"/>
<polygon fill="midnightblue" stroke="midnightblue" points="1193.5,-393.209 1190,-383.209 1186.5,-393.209 1193.5,-393.209"/>
</g>
<!-- Node45 -->
<g id="node45" class="node"><title>Node45</title>
<g id="a_node45"><a xlink:href="EntityManager_8hpp.html" target="_top" xlink:title="Engine/Managers/EntityManager\l/EntityManager.hpp">
<polygon fill="white" stroke="black" points="444.5,-291.5 444.5,-321.5 615.5,-321.5 615.5,-291.5 444.5,-291.5"/>
<text text-anchor="start" x="452.5" y="-309.5" font-family="Helvetica,sans-Serif" font-size="10.00">Engine/Managers/EntityManager</text>
<text text-anchor="middle" x="530" y="-298.5" font-family="Helvetica,sans-Serif" font-size="10.00">/EntityManager.hpp</text>
</a>
</g>
</g>
<!-- Node1&#45;&gt;Node45 -->
<g id="edge70" class="edge"><title>Node1&#45;&gt;Node45</title>
<path fill="none" stroke="midnightblue" d="M1101.29,-447.153C964.533,-440.935 709.298,-424.833 626,-389 594.757,-375.56 566.035,-348.358 548.307,-329.084"/>
<polygon fill="midnightblue" stroke="midnightblue" points="550.907,-326.74 541.628,-321.625 545.692,-331.409 550.907,-326.74"/>
</g>
<!-- Node3 -->
<g id="node3" class="node"><title>Node3</title>
<g id="a_node3"><a xlink:href="RaGuiBase_8hpp.html" target="_top" xlink:title="GuiBase/RaGuiBase.hpp">
<polygon fill="white" stroke="black" points="0,-235.5 0,-254.5 132,-254.5 132,-235.5 0,-235.5"/>
<text text-anchor="middle" x="66" y="-242.5" font-family="Helvetica,sans-Serif" font-size="10.00">GuiBase/RaGuiBase.hpp</text>
</a>
</g>
</g>
<!-- Node2&#45;&gt;Node3 -->
<g id="edge2" class="edge"><title>Node2&#45;&gt;Node3</title>
<path fill="none" stroke="midnightblue" d="M635.369,-369.529C515.164,-363.699 271.643,-348.922 191,-322 149.772,-308.237 107.804,-278.911 84.5101,-260.98"/>
<polygon fill="midnightblue" stroke="midnightblue" points="86.5646,-258.144 76.5373,-254.723 82.2426,-263.65 86.5646,-258.144"/>
</g>
<!-- Node10 -->
<g id="node10" class="node"><title>Node10</title>
<g id="a_node10"><a xlink:href="ItemEntry_8hpp.html" target="_top" xlink:title="Engine/ItemModel/ItemEntry.hpp">
<polygon fill="white" stroke="black" points="831.5,-297 831.5,-316 1002.5,-316 1002.5,-297 831.5,-297"/>
<text text-anchor="middle" x="917" y="-304" font-family="Helvetica,sans-Serif" font-size="10.00">Engine/ItemModel/ItemEntry.hpp</text>
</a>
</g>
</g>
<!-- Node2&#45;&gt;Node10 -->
<g id="edge9" class="edge"><title>Node2&#45;&gt;Node10</title>
<path fill="none" stroke="midnightblue" d="M749.956,-358.476C788.634,-346.673 843.266,-330.001 879.385,-318.979"/>
<polygon fill="midnightblue" stroke="midnightblue" points="880.509,-322.295 889.052,-316.029 878.466,-315.6 880.509,-322.295"/>
</g>
<!-- Node18 -->
<g id="node18" class="node"><title>Node18</title>
<g id="a_node18"><a xlink:href="RadiumEngine_8hpp.html" target="_top" xlink:title="Engine/RadiumEngine.hpp">
<polygon fill="white" stroke="black" points="633.5,-297 633.5,-316 774.5,-316 774.5,-297 633.5,-297"/>
<text text-anchor="middle" x="704" y="-304" font-family="Helvetica,sans-Serif" font-size="10.00">Engine/RadiumEngine.hpp</text>
</a>
</g>
</g>
<!-- Node2&#45;&gt;Node18 -->
<g id="edge18" class="edge"><title>Node2&#45;&gt;Node18</title>
<path fill="none" stroke="midnightblue" d="M704,-358.396C704,-349.064 704,-336.714 704,-326.517"/>
<polygon fill="midnightblue" stroke="midnightblue" points="707.5,-326.195 704,-316.195 700.5,-326.195 707.5,-326.195"/>
</g>
<!-- Node23 -->
<g id="node23" class="node"><title>Node23</title>
<g id="a_node23"><a xlink:href="TreeModel_8hpp.html" target="_top" xlink:title="GuiBase/TreeModel/TreeModel.hpp">
<polygon fill="white" stroke="black" points="200.5,-297 200.5,-316 379.5,-316 379.5,-297 200.5,-297"/>
<text text-anchor="middle" x="290" y="-304" font-family="Helvetica,sans-Serif" font-size="10.00">GuiBase/TreeModel/TreeModel.hpp</text>
</a>
</g>
</g>
<!-- Node2&#45;&gt;Node23 -->
<g id="edge27" class="edge"><title>Node2&#45;&gt;Node23</title>
<path fill="none" stroke="midnightblue" d="M635.172,-361.694C557.055,-349.429 430.623,-329.579 354.393,-317.61"/>
<polygon fill="midnightblue" stroke="midnightblue" points="354.86,-314.141 344.438,-316.047 353.774,-321.056 354.86,-314.141"/>
</g>
<!-- Node4 -->
<g id="node4" class="node"><title>Node4</title>
<g id="a_node4"><a xlink:href="CoreMacros_8hpp.html" target="_top" xlink:title="Core/CoreMacros.hpp">
<polygon fill="white" stroke="black" points="1052,-56.5 1052,-75.5 1172,-75.5 1172,-56.5 1052,-56.5"/>
<text text-anchor="middle" x="1112" y="-63.5" font-family="Helvetica,sans-Serif" font-size="10.00">Core/CoreMacros.hpp</text>
</a>
</g>
</g>
<!-- Node3&#45;&gt;Node4 -->
<g id="edge3" class="edge"><title>Node3&#45;&gt;Node4</title>
<path fill="none" stroke="midnightblue" d="M102.753,-235.486C167.861,-220.578 307.84,-189.307 427,-168 650.576,-128.022 917.258,-92.0395 1041.64,-75.9312"/>
<polygon fill="midnightblue" stroke="midnightblue" points="1042.31,-79.3726 1051.78,-74.6201 1041.42,-72.4303 1042.31,-79.3726"/>
</g>
<!-- Node5 -->
<g id="node5" class="node"><title>Node5</title>
<polygon fill="white" stroke="#bfbfbf" points="984,-0.5 984,-19.5 1036,-19.5 1036,-0.5 984,-0.5"/>
<text text-anchor="middle" x="1010" y="-7.5" font-family="Helvetica,sans-Serif" font-size="10.00">cassert</text>
</g>
<!-- Node4&#45;&gt;Node5 -->
<g id="edge4" class="edge"><title>Node4&#45;&gt;Node5</title>
<path fill="none" stroke="midnightblue" d="M1095.61,-56.324C1079.33,-47.7034 1054.13,-34.3643 1035.28,-24.3855"/>
<polygon fill="midnightblue" stroke="midnightblue" points="1036.82,-21.2402 1026.35,-19.6545 1033.55,-27.4267 1036.82,-21.2402"/>
</g>
<!-- Node6 -->
<g id="node6" class="node"><title>Node6</title>
<polygon fill="white" stroke="#bfbfbf" points="1054.5,-0.5 1054.5,-19.5 1099.5,-19.5 1099.5,-0.5 1054.5,-0.5"/>
<text text-anchor="middle" x="1077" y="-7.5" font-family="Helvetica,sans-Serif" font-size="10.00">cstdio</text>
</g>
<!-- Node4&#45;&gt;Node6 -->
<g id="edge5" class="edge"><title>Node4&#45;&gt;Node6</title>
<path fill="none" stroke="midnightblue" d="M1106.22,-56.083C1101.33,-48.5341 1094.17,-37.4948 1088.17,-28.2298"/>
<polygon fill="midnightblue" stroke="midnightblue" points="1091.05,-26.239 1082.67,-19.7511 1085.17,-30.0463 1091.05,-26.239"/>
</g>
<!-- Node7 -->
<g id="node7" class="node"><title>Node7</title>
<polygon fill="white" stroke="#bfbfbf" points="1117.5,-0.5 1117.5,-19.5 1176.5,-19.5 1176.5,-0.5 1117.5,-0.5"/>
<text text-anchor="middle" x="1147" y="-7.5" font-family="Helvetica,sans-Serif" font-size="10.00">iostream</text>
</g>
<!-- Node4&#45;&gt;Node7 -->
<g id="edge6" class="edge"><title>Node4&#45;&gt;Node7</title>
<path fill="none" stroke="midnightblue" d="M1117.78,-56.083C1122.67,-48.5341 1129.83,-37.4948 1135.83,-28.2298"/>
<polygon fill="midnightblue" stroke="midnightblue" points="1138.83,-30.0463 1141.33,-19.7511 1132.95,-26.239 1138.83,-30.0463"/>
</g>
<!-- Node8 -->
<g id="node8" class="node"><title>Node8</title>
<polygon fill="white" stroke="#bfbfbf" points="1195,-0.5 1195,-19.5 1251,-19.5 1251,-0.5 1195,-0.5"/>
<text text-anchor="middle" x="1223" y="-7.5" font-family="Helvetica,sans-Serif" font-size="10.00">sstream</text>
</g>
<!-- Node4&#45;&gt;Node8 -->
<g id="edge7" class="edge"><title>Node4&#45;&gt;Node8</title>
<path fill="none" stroke="midnightblue" d="M1129.83,-56.324C1147.72,-47.6247 1175.48,-34.1202 1196.05,-24.113"/>
<polygon fill="midnightblue" stroke="midnightblue" points="1197.75,-27.1765 1205.21,-19.6545 1194.69,-20.8819 1197.75,-27.1765"/>
</g>
<!-- Node9 -->
<g id="node9" class="node"><title>Node9</title>
<polygon fill="white" stroke="#bfbfbf" points="1330,-0.5 1330,-19.5 1378,-19.5 1378,-0.5 1330,-0.5"/>
<text text-anchor="middle" x="1354" y="-7.5" font-family="Helvetica,sans-Serif" font-size="10.00">thread</text>
</g>
<!-- Node4&#45;&gt;Node9 -->
<g id="edge8" class="edge"><title>Node4&#45;&gt;Node9</title>
<path fill="none" stroke="midnightblue" d="M1150.35,-56.4435C1197.08,-46.0144 1275.34,-28.5529 1320.01,-18.585"/>
<polygon fill="midnightblue" stroke="midnightblue" points="1320.81,-21.9928 1329.81,-16.3989 1319.28,-15.1608 1320.81,-21.9928"/>
</g>
<!-- Node11 -->
<g id="node11" class="node"><title>Node11</title>
<g id="a_node11"><a xlink:href="RaEngine_8hpp.html" target="_top" xlink:title="Engine/RaEngine.hpp">
<polygon fill="white" stroke="black" points="960.5,-235.5 960.5,-254.5 1077.5,-254.5 1077.5,-235.5 960.5,-235.5"/>
<text text-anchor="middle" x="1019" y="-242.5" font-family="Helvetica,sans-Serif" font-size="10.00">Engine/RaEngine.hpp</text>
</a>
</g>
</g>
<!-- Node10&#45;&gt;Node11 -->
<g id="edge10" class="edge"><title>Node10&#45;&gt;Node11</title>
<path fill="none" stroke="midnightblue" d="M931.614,-296.975C948.353,-287.211 976.004,-271.081 995.719,-259.581"/>
<polygon fill="midnightblue" stroke="midnightblue" points="997.539,-262.571 1004.41,-254.509 994.012,-256.525 997.539,-262.571"/>
</g>
<!-- Node12 -->
<g id="node12" class="node"><title>Node12</title>
<g id="a_node12"><a xlink:href="Index_8hpp.html" target="_top" xlink:title="Core/Index/Index.hpp">
<polygon fill="white" stroke="black" points="873.5,-174 873.5,-193 990.5,-193 990.5,-174 873.5,-174"/>
<text text-anchor="middle" x="932" y="-181" font-family="Helvetica,sans-Serif" font-size="10.00">Core/Index/Index.hpp</text>
</a>
</g>
</g>
<!-- Node10&#45;&gt;Node12 -->
<g id="edge12" class="edge"><title>Node10&#45;&gt;Node12</title>
<path fill="none" stroke="midnightblue" d="M918.079,-296.798C920.49,-277.35 926.361,-229.99 929.657,-203.404"/>
<polygon fill="midnightblue" stroke="midnightblue" points="933.174,-203.478 930.931,-193.123 926.227,-202.617 933.174,-203.478"/>
</g>
<!-- Node15 -->
<g id="node15" class="node"><title>Node15</title>
<polygon fill="white" stroke="#bfbfbf" points="860,-235.5 860,-254.5 904,-254.5 904,-235.5 860,-235.5"/>
<text text-anchor="middle" x="882" y="-242.5" font-family="Helvetica,sans-Serif" font-size="10.00">string</text>
</g>
<!-- Node10&#45;&gt;Node15 -->
<g id="edge15" class="edge"><title>Node10&#45;&gt;Node15</title>
<path fill="none" stroke="midnightblue" d="M911.985,-296.975C906.839,-288.227 898.688,-274.369 892.182,-263.309"/>
<polygon fill="midnightblue" stroke="midnightblue" points="895.092,-261.354 887.005,-254.509 889.059,-264.903 895.092,-261.354"/>
</g>
<!-- Node16 -->
<g id="node16" class="node"><title>Node16</title>
<polygon fill="white" stroke="#bfbfbf" points="433.5,-235.5 433.5,-254.5 480.5,-254.5 480.5,-235.5 433.5,-235.5"/>
<text text-anchor="middle" x="457" y="-242.5" font-family="Helvetica,sans-Serif" font-size="10.00">vector</text>
</g>
<!-- Node10&#45;&gt;Node16 -->
<g id="edge16" class="edge"><title>Node10&#45;&gt;Node16</title>
<path fill="none" stroke="midnightblue" d="M839.228,-296.993C732.537,-285.227 548.206,-264.527 490.682,-254.923"/>
<polygon fill="midnightblue" stroke="midnightblue" points="491.13,-251.447 480.666,-253.102 489.878,-258.334 491.13,-251.447"/>
</g>
<!-- Node17 -->
<g id="node17" class="node"><title>Node17</title>
<g id="a_node17"><a xlink:href="ItemEntry_8inl.html" target="_top" xlink:title="Engine/ItemModel/ItemEntry.inl">
<polygon fill="white" stroke="black" points="1096,-235.5 1096,-254.5 1260,-254.5 1260,-235.5 1096,-235.5"/>
<text text-anchor="middle" x="1178" y="-242.5" font-family="Helvetica,sans-Serif" font-size="10.00">Engine/ItemModel/ItemEntry.inl</text>
</a>
</g>
</g>
<!-- Node10&#45;&gt;Node17 -->
<g id="edge17" class="edge"><title>Node10&#45;&gt;Node17</title>
<path fill="none" stroke="midnightblue" d="M954.395,-296.975C1000.81,-286.393 1080.02,-268.336 1130.64,-256.797"/>
<polygon fill="midnightblue" stroke="midnightblue" points="1131.7,-260.144 1140.67,-254.509 1130.15,-253.319 1131.7,-260.144"/>
</g>
<!-- Node11&#45;&gt;Node4 -->
<g id="edge11" class="edge"><title>Node11&#45;&gt;Node4</title>
<path fill="none" stroke="midnightblue" d="M1023.49,-235.463C1037.81,-208.195 1082.69,-122.783 1102.47,-85.1332"/>
<polygon fill="midnightblue" stroke="midnightblue" points="1105.79,-86.3488 1107.34,-75.8684 1099.59,-83.0928 1105.79,-86.3488"/>
</g>
<!-- Node13 -->
<g id="node13" class="node"><title>Node13</title>
<polygon fill="white" stroke="#bfbfbf" points="842,-112.5 842,-131.5 884,-131.5 884,-112.5 842,-112.5"/>
<text text-anchor="middle" x="863" y="-119.5" font-family="Helvetica,sans-Serif" font-size="10.00">limits</text>
</g>
<!-- Node12&#45;&gt;Node13 -->
<g id="edge13" class="edge"><title>Node12&#45;&gt;Node13</title>
<path fill="none" stroke="midnightblue" d="M922.114,-173.975C911.354,-164.697 893.929,-149.671 880.779,-138.331"/>
<polygon fill="midnightblue" stroke="midnightblue" points="882.727,-135.389 872.868,-131.509 878.155,-140.69 882.727,-135.389"/>
</g>
<!-- Node14 -->
<g id="node14" class="node"><title>Node14</title>
<g id="a_node14"><a xlink:href="Index_8inl.html" target="_top" xlink:title="Core/Index/Index.inl">
<polygon fill="white" stroke="black" points="902,-112.5 902,-131.5 1012,-131.5 1012,-112.5 902,-112.5"/>
<text text-anchor="middle" x="957" y="-119.5" font-family="Helvetica,sans-Serif" font-size="10.00">Core/Index/Index.inl</text>
</a>
</g>
</g>
<!-- Node12&#45;&gt;Node14 -->
<g id="edge14" class="edge"><title>Node12&#45;&gt;Node14</title>
<path fill="none" stroke="midnightblue" d="M935.582,-173.975C939.183,-165.404 944.846,-151.927 949.444,-140.983"/>
<polygon fill="midnightblue" stroke="midnightblue" points="952.778,-142.084 953.425,-131.509 946.324,-139.373 952.778,-142.084"/>
</g>
<!-- Node18&#45;&gt;Node11 -->
<g id="edge19" class="edge"><title>Node18&#45;&gt;Node11</title>
<path fill="none" stroke="midnightblue" d="M749.132,-296.975C805.855,-286.261 903.154,-267.882 964.121,-256.366"/>
<polygon fill="midnightblue" stroke="midnightblue" points="964.775,-259.804 973.952,-254.509 963.476,-252.926 964.775,-259.804"/>
</g>
<!-- Node18&#45;&gt;Node15 -->
<g id="edge25" class="edge"><title>Node18&#45;&gt;Node15</title>
<path fill="none" stroke="midnightblue" d="M729.503,-296.975C761.351,-286.329 815.833,-268.118 850.323,-256.589"/>
<polygon fill="midnightblue" stroke="midnightblue" points="851.537,-259.873 859.911,-253.384 849.318,-253.234 851.537,-259.873"/>
</g>
<!-- Node18&#45;&gt;Node16 -->
<g id="edge26" class="edge"><title>Node18&#45;&gt;Node16</title>
<path fill="none" stroke="midnightblue" d="M665.427,-296.971C624.323,-287.765 557.119,-272.377 490.549,-255.326"/>
<polygon fill="midnightblue" stroke="midnightblue" points="491.292,-251.904 480.735,-252.799 489.546,-258.682 491.292,-251.904"/>
</g>
<!-- Node19 -->
<g id="node19" class="node"><title>Node19</title>
<g id="a_node19"><a xlink:href="Singleton_8hpp.html" target="_top" xlink:title="Core/Utils/Singleton.hpp">
<polygon fill="white" stroke="black" points="654,-235.5 654,-254.5 786,-254.5 786,-235.5 654,-235.5"/>
<text text-anchor="middle" x="720" y="-242.5" font-family="Helvetica,sans-Serif" font-size="10.00">Core/Utils/Singleton.hpp</text>
</a>
</g>
</g>
<!-- Node18&#45;&gt;Node19 -->
<g id="edge20" class="edge"><title>Node18&#45;&gt;Node19</title>
<path fill="none" stroke="midnightblue" d="M706.292,-296.975C708.574,-288.492 712.147,-275.204 715.073,-264.322"/>
<polygon fill="midnightblue" stroke="midnightblue" points="718.495,-265.075 717.712,-254.509 711.735,-263.257 718.495,-265.075"/>
</g>
<!-- Node21 -->
<g id="node21" class="node"><title>Node21</title>
<polygon fill="white" stroke="#bfbfbf" points="804,-235.5 804,-254.5 842,-254.5 842,-235.5 804,-235.5"/>
<text text-anchor="middle" x="823" y="-242.5" font-family="Helvetica,sans-Serif" font-size="10.00">map</text>
</g>
<!-- Node18&#45;&gt;Node21 -->
<g id="edge23" class="edge"><title>Node18&#45;&gt;Node21</title>
<path fill="none" stroke="midnightblue" d="M721.05,-296.975C740.844,-287.078 773.717,-270.642 796.77,-259.115"/>
<polygon fill="midnightblue" stroke="midnightblue" points="798.603,-262.112 805.982,-254.509 795.472,-255.851 798.603,-262.112"/>
</g>
<!-- Node22 -->
<g id="node22" class="node"><title>Node22</title>
<polygon fill="white" stroke="#bfbfbf" points="358.5,-235.5 358.5,-254.5 415.5,-254.5 415.5,-235.5 358.5,-235.5"/>
<text text-anchor="middle" x="387" y="-242.5" font-family="Helvetica,sans-Serif" font-size="10.00">memory</text>
</g>
<!-- Node18&#45;&gt;Node22 -->
<g id="edge24" class="edge"><title>Node18&#45;&gt;Node22</title>
<path fill="none" stroke="midnightblue" d="M657.046,-296.98C646.195,-295.013 634.696,-292.932 624,-291 538.245,-275.511 514.046,-273.789 425.577,-255.244"/>
<polygon fill="midnightblue" stroke="midnightblue" points="426.151,-251.789 415.644,-253.149 424.706,-258.638 426.151,-251.789"/>
</g>
<!-- Node20 -->
<g id="node20" class="node"><title>Node20</title>
<g id="a_node20"><a xlink:href="RaCore_8hpp.html" target="_top" xlink:title="Core/RaCore.hpp">
<polygon fill="white" stroke="black" points="1276,-112.5 1276,-131.5 1374,-131.5 1374,-112.5 1276,-112.5"/>
<text text-anchor="middle" x="1325" y="-119.5" font-family="Helvetica,sans-Serif" font-size="10.00">Core/RaCore.hpp</text>
</a>
</g>
</g>
<!-- Node19&#45;&gt;Node20 -->
<g id="edge21" class="edge"><title>Node19&#45;&gt;Node20</title>
<path fill="none" stroke="midnightblue" d="M786.245,-235.981C789.203,-235.645 792.132,-235.316 795,-235 953.95,-217.473 998.385,-239.824 1153,-199 1208.21,-184.423 1268.27,-154.288 1300.78,-136.659"/>
<polygon fill="midnightblue" stroke="midnightblue" points="1302.87,-139.504 1309.95,-131.62 1299.5,-133.369 1302.87,-139.504"/>
</g>
<!-- Node20&#45;&gt;Node4 -->
<g id="edge22" class="edge"><title>Node20&#45;&gt;Node4</title>
<path fill="none" stroke="midnightblue" d="M1291.25,-112.444C1254.48,-103.122 1195.55,-88.1828 1155.38,-77.9972"/>
<polygon fill="midnightblue" stroke="midnightblue" points="1156.15,-74.5813 1145.59,-75.5164 1154.43,-81.3666 1156.15,-74.5813"/>
</g>
<!-- Node23&#45;&gt;Node3 -->
<g id="edge28" class="edge"><title>Node23&#45;&gt;Node3</title>
<path fill="none" stroke="midnightblue" d="M257.906,-296.975C218.401,-286.482 151.221,-268.637 107.739,-257.087"/>
<polygon fill="midnightblue" stroke="midnightblue" points="108.598,-253.694 98.0342,-254.509 106.801,-260.459 108.598,-253.694"/>
</g>
<!-- Node23&#45;&gt;Node16 -->
<g id="edge30" class="edge"><title>Node23&#45;&gt;Node16</title>
<path fill="none" stroke="midnightblue" d="M313.927,-296.975C342.779,-286.695 391.432,-269.361 423.878,-257.801"/>
<polygon fill="midnightblue" stroke="midnightblue" points="425.142,-261.066 433.387,-254.413 422.792,-254.472 425.142,-261.066"/>
</g>
<!-- Node23&#45;&gt;Node22 -->
<g id="edge29" class="edge"><title>Node23&#45;&gt;Node22</title>
<path fill="none" stroke="midnightblue" d="M303.898,-296.975C319.672,-287.299 345.637,-271.372 364.349,-259.894"/>
<polygon fill="midnightblue" stroke="midnightblue" points="366.434,-262.721 373.128,-254.509 362.774,-256.754 366.434,-262.721"/>
</g>
<!-- Node24 -->
<g id="node24" class="node"><title>Node24</title>
<polygon fill="white" stroke="#bfbfbf" points="225.5,-235.5 225.5,-254.5 340.5,-254.5 340.5,-235.5 225.5,-235.5"/>
<text text-anchor="middle" x="283" y="-242.5" font-family="Helvetica,sans-Serif" font-size="10.00">QAbstractItemModel</text>
</g>
<!-- Node23&#45;&gt;Node24 -->
<g id="edge31" class="edge"><title>Node23&#45;&gt;Node24</title>
<path fill="none" stroke="midnightblue" d="M288.997,-296.975C288.009,-288.58 286.468,-275.481 285.196,-264.663"/>
<polygon fill="midnightblue" stroke="midnightblue" points="288.646,-264.032 284.001,-254.509 281.694,-264.85 288.646,-264.032"/>
</g>
<!-- Node25 -->
<g id="node25" class="node"><title>Node25</title>
<polygon fill="white" stroke="#bfbfbf" points="150,-235.5 150,-254.5 208,-254.5 208,-235.5 150,-235.5"/>
<text text-anchor="middle" x="179" y="-242.5" font-family="Helvetica,sans-Serif" font-size="10.00">QVariant</text>
</g>
<!-- Node23&#45;&gt;Node25 -->
<g id="edge32" class="edge"><title>Node23&#45;&gt;Node25</title>
<path fill="none" stroke="midnightblue" d="M274.096,-296.975C255.715,-287.122 225.244,-270.788 203.755,-259.27"/>
<polygon fill="midnightblue" stroke="midnightblue" points="205.341,-256.149 194.874,-254.509 202.034,-262.318 205.341,-256.149"/>
</g>
<!-- Node27&#45;&gt;Node11 -->
<g id="edge35" class="edge"><title>Node27&#45;&gt;Node11</title>
<path fill="none" stroke="midnightblue" d="M1446.49,-363.963C1404.93,-355.713 1343.34,-341.581 1292,-322 1264.32,-311.444 1260.87,-301.032 1233,-291 1185.87,-274.037 1130.49,-262.607 1087.87,-255.511"/>
<polygon fill="midnightblue" stroke="midnightblue" points="1088.31,-252.037 1077.88,-253.888 1087.19,-258.946 1088.31,-252.037"/>
</g>
<!-- Node28 -->
<g id="node28" class="node"><title>Node28</title>
<g id="a_node28"><a xlink:href="IndexedObject_8hpp.html" target="_top" xlink:title="Core/Index/IndexedObject.hpp">
<polygon fill="white" stroke="black" points="1301,-297 1301,-316 1461,-316 1461,-297 1301,-297"/>
<text text-anchor="middle" x="1381" y="-304" font-family="Helvetica,sans-Serif" font-size="10.00">Core/Index/IndexedObject.hpp</text>
</a>
</g>
</g>
<!-- Node27&#45;&gt;Node28 -->
<g id="edge36" class="edge"><title>Node27&#45;&gt;Node28</title>
<path fill="none" stroke="midnightblue" d="M1478.76,-363.734C1459.78,-352.818 1427.15,-334.049 1404.85,-321.221"/>
<polygon fill="midnightblue" stroke="midnightblue" points="1406.41,-318.08 1396,-316.127 1402.92,-324.147 1406.41,-318.08"/>
</g>
<!-- Node29 -->
<g id="node29" class="node"><title>Node29</title>
<g id="a_node29"><a xlink:href="LinearAlgebra_8hpp.html" target="_top" xlink:title="Core/Math/LinearAlgebra.hpp">
<polygon fill="white" stroke="black" points="1611,-235.5 1611,-254.5 1767,-254.5 1767,-235.5 1611,-235.5"/>
<text text-anchor="middle" x="1689" y="-242.5" font-family="Helvetica,sans-Serif" font-size="10.00">Core/Math/LinearAlgebra.hpp</text>
</a>
</g>
</g>
<!-- Node27&#45;&gt;Node29 -->
<g id="edge39" class="edge"><title>Node27&#45;&gt;Node29</title>
<path fill="none" stroke="midnightblue" d="M1543.52,-363.988C1589.2,-355.159 1652.5,-340.118 1670,-322 1684.67,-306.821 1688.53,-282.116 1689.3,-265.013"/>
<polygon fill="midnightblue" stroke="midnightblue" points="1692.81,-264.642 1689.44,-254.597 1685.81,-264.552 1692.81,-264.642"/>
</g>
<!-- Node40 -->
<g id="node40" class="node"><title>Node40</title>
<g id="a_node40"><a xlink:href="Ray_8hpp.html" target="_top" xlink:title="Core/Math/Ray.hpp">
<polygon fill="white" stroke="black" points="1555,-297 1555,-316 1661,-316 1661,-297 1555,-297"/>
<text text-anchor="middle" x="1608" y="-304" font-family="Helvetica,sans-Serif" font-size="10.00">Core/Math/Ray.hpp</text>
</a>
</g>
</g>
<!-- Node27&#45;&gt;Node40 -->
<g id="edge53" class="edge"><title>Node27&#45;&gt;Node40</title>
<path fill="none" stroke="midnightblue" d="M1509.37,-363.734C1528.52,-352.818 1561.44,-334.049 1583.94,-321.221"/>
<polygon fill="midnightblue" stroke="midnightblue" points="1585.92,-324.121 1592.87,-316.127 1582.45,-318.04 1585.92,-324.121"/>
</g>
<!-- Node41 -->
<g id="node41" class="node"><title>Node41</title>
<g id="a_node41"><a xlink:href="Component_8inl.html" target="_top" xlink:title="Engine/Component/Component.inl">
<polygon fill="white" stroke="black" points="1717.5,-297 1717.5,-316 1898.5,-316 1898.5,-297 1717.5,-297"/>
<text text-anchor="middle" x="1808" y="-304" font-family="Helvetica,sans-Serif" font-size="10.00">Engine/Component/Component.inl</text>
</a>
</g>
</g>
<!-- Node27&#45;&gt;Node41 -->
<g id="edge57" class="edge"><title>Node27&#45;&gt;Node41</title>
<path fill="none" stroke="midnightblue" d="M1530.63,-363.936C1585.23,-352.106 1688.11,-330.784 1752.12,-318.006"/>
<polygon fill="midnightblue" stroke="midnightblue" points="1752.92,-321.416 1762.05,-316.032 1751.56,-314.55 1752.92,-321.416"/>
</g>
<!-- Node28&#45;&gt;Node12 -->
<g id="edge37" class="edge"><title>Node28&#45;&gt;Node12</title>
<path fill="none" stroke="midnightblue" d="M1370.67,-296.886C1351.8,-281.664 1309.93,-250.185 1269,-235 1180.24,-202.067 1070.75,-190.574 1001.14,-186.585"/>
<polygon fill="midnightblue" stroke="midnightblue" points="1000.92,-183.068 990.748,-186.028 1000.55,-190.058 1000.92,-183.068"/>
</g>
<!-- Node28&#45;&gt;Node20 -->
<g id="edge38" class="edge"><title>Node28&#45;&gt;Node20</title>
<path fill="none" stroke="midnightblue" d="M1374.22,-296.719C1367.09,-287.036 1356.08,-270.737 1350,-255 1335.06,-216.34 1328.81,-167.748 1326.39,-141.641"/>
<polygon fill="midnightblue" stroke="midnightblue" points="1329.88,-141.305 1325.55,-131.633 1322.9,-141.891 1329.88,-141.305"/>
</g>
<!-- Node29&#45;&gt;Node20 -->
<g id="edge40" class="edge"><title>Node29&#45;&gt;Node20</title>
<path fill="none" stroke="midnightblue" d="M1641.76,-235.477C1602.48,-227.785 1545.37,-215.199 1497,-199 1443.47,-181.073 1383.77,-152.686 1350.67,-136.151"/>
<polygon fill="midnightblue" stroke="midnightblue" points="1352.18,-132.993 1341.67,-131.622 1349.03,-139.246 1352.18,-132.993"/>
</g>
<!-- Node30 -->
<g id="node30" class="node"><title>Node30</title>
<polygon fill="white" stroke="#bfbfbf" points="1506,-174 1506,-193 1574,-193 1574,-174 1506,-174"/>
<text text-anchor="middle" x="1540" y="-181" font-family="Helvetica,sans-Serif" font-size="10.00">Eigen/Core</text>
</g>
<!-- Node29&#45;&gt;Node30 -->
<g id="edge41" class="edge"><title>Node29&#45;&gt;Node30</title>
<path fill="none" stroke="midnightblue" d="M1667.65,-235.475C1642.31,-225.357 1599.86,-208.405 1570.93,-196.851"/>
<polygon fill="midnightblue" stroke="midnightblue" points="1571.89,-193.467 1561.31,-193.009 1569.3,-199.968 1571.89,-193.467"/>
</g>
<!-- Node31 -->
<g id="node31" class="node"><title>Node31</title>
<polygon fill="white" stroke="#bfbfbf" points="2234,-174 2234,-193 2328,-193 2328,-174 2234,-174"/>
<text text-anchor="middle" x="2281" y="-181" font-family="Helvetica,sans-Serif" font-size="10.00">Eigen/Geometry</text>
</g>
<!-- Node29&#45;&gt;Node31 -->
<g id="edge42" class="edge"><title>Node29&#45;&gt;Node31</title>
<path fill="none" stroke="midnightblue" d="M1767.19,-241.588C1872.03,-237.409 2063.67,-226.455 2225,-199 2230.51,-198.063 2236.26,-196.848 2241.9,-195.521"/>
<polygon fill="midnightblue" stroke="midnightblue" points="2242.99,-198.858 2251.85,-193.047 2241.3,-192.065 2242.99,-198.858"/>
</g>
<!-- Node32 -->
<g id="node32" class="node"><title>Node32</title>
<polygon fill="white" stroke="#bfbfbf" points="1592,-174 1592,-193 1672,-193 1672,-174 1592,-174"/>
<text text-anchor="middle" x="1632" y="-181" font-family="Helvetica,sans-Serif" font-size="10.00">Eigen/Sparse</text>
</g>
<!-- Node29&#45;&gt;Node32 -->
<g id="edge43" class="edge"><title>Node29&#45;&gt;Node32</title>
<path fill="none" stroke="midnightblue" d="M1680.83,-235.475C1672.11,-226.373 1658.1,-211.741 1647.31,-200.483"/>
<polygon fill="midnightblue" stroke="midnightblue" points="1649.6,-197.809 1640.15,-193.009 1644.54,-202.651 1649.6,-197.809"/>
</g>
<!-- Node33 -->
<g id="node33" class="node"><title>Node33</title>
<polygon fill="white" stroke="#bfbfbf" points="1690.5,-174 1690.5,-193 1753.5,-193 1753.5,-174 1690.5,-174"/>
<text text-anchor="middle" x="1722" y="-181" font-family="Helvetica,sans-Serif" font-size="10.00">functional</text>
</g>
<!-- Node29&#45;&gt;Node33 -->
<g id="edge44" class="edge"><title>Node29&#45;&gt;Node33</title>
<path fill="none" stroke="midnightblue" d="M1693.73,-235.475C1698.58,-226.727 1706.27,-212.869 1712.4,-201.809"/>
<polygon fill="midnightblue" stroke="midnightblue" points="1715.49,-203.452 1717.28,-193.009 1709.37,-200.057 1715.49,-203.452"/>
</g>
<!-- Node34 -->
<g id="node34" class="node"><title>Node34</title>
<polygon fill="white" stroke="#bfbfbf" points="1771.5,-168.5 1771.5,-198.5 1916.5,-198.5 1916.5,-168.5 1771.5,-168.5"/>
<text text-anchor="start" x="1779.5" y="-186.5" font-family="Helvetica,sans-Serif" font-size="10.00">unsupported/Eigen/Aligned</text>
<text text-anchor="middle" x="1844" y="-175.5" font-family="Helvetica,sans-Serif" font-size="10.00">Vector3</text>
</g>
<!-- Node29&#45;&gt;Node34 -->
<g id="edge45" class="edge"><title>Node29&#45;&gt;Node34</title>
<path fill="none" stroke="midnightblue" d="M1711.21,-235.475C1733.77,-226.814 1769.38,-213.145 1798.04,-202.141"/>
<polygon fill="midnightblue" stroke="midnightblue" points="1799.39,-205.374 1807.47,-198.523 1796.88,-198.839 1799.39,-205.374"/>
</g>
<!-- Node35 -->
<g id="node35" class="node"><title>Node35</title>
<g id="a_node35"><a xlink:href="Math_8hpp.html" target="_top" xlink:title="Core/Math/Math.hpp">
<polygon fill="white" stroke="black" points="2102,-174 2102,-193 2216,-193 2216,-174 2102,-174"/>
<text text-anchor="middle" x="2159" y="-181" font-family="Helvetica,sans-Serif" font-size="10.00">Core/Math/Math.hpp</text>
</a>
</g>
</g>
<!-- Node29&#45;&gt;Node35 -->
<g id="edge46" class="edge"><title>Node29&#45;&gt;Node35</title>
<path fill="none" stroke="midnightblue" d="M1767.33,-237.636C1848.77,-230.462 1979.8,-217.357 2092,-199 2098.79,-197.89 2105.92,-196.542 2112.9,-195.12"/>
<polygon fill="midnightblue" stroke="midnightblue" points="2113.9,-198.488 2122.97,-193.004 2112.46,-191.638 2113.9,-198.488"/>
</g>
<!-- Node39 -->
<g id="node39" class="node"><title>Node39</title>
<g id="a_node39"><a xlink:href="LinearAlgebra_8inl.html" target="_top" xlink:title="Core/Math/LinearAlgebra.inl">
<polygon fill="white" stroke="black" points="1934.5,-174 1934.5,-193 2083.5,-193 2083.5,-174 1934.5,-174"/>
<text text-anchor="middle" x="2009" y="-181" font-family="Helvetica,sans-Serif" font-size="10.00">Core/Math/LinearAlgebra.inl</text>
</a>
</g>
</g>
<!-- Node29&#45;&gt;Node39 -->
<g id="edge52" class="edge"><title>Node29&#45;&gt;Node39</title>
<path fill="none" stroke="midnightblue" d="M1734.85,-235.475C1792.47,-224.761 1891.31,-206.382 1953.25,-194.866"/>
<polygon fill="midnightblue" stroke="midnightblue" points="1954.05,-198.278 1963.24,-193.009 1952.77,-191.396 1954.05,-198.278"/>
</g>
<!-- Node35&#45;&gt;Node20 -->
<g id="edge47" class="edge"><title>Node35&#45;&gt;Node20</title>
<path fill="none" stroke="midnightblue" d="M2124.41,-173.946C2114.04,-171.674 2102.61,-169.451 2092,-168 1829.83,-132.158 1513.4,-124.843 1384.24,-123.366"/>
<polygon fill="midnightblue" stroke="midnightblue" points="1384.2,-119.865 1374.16,-123.258 1384.12,-126.865 1384.2,-119.865"/>
</g>
<!-- Node36 -->
<g id="node36" class="node"><title>Node36</title>
<polygon fill="white" stroke="#bfbfbf" points="1736,-112.5 1736,-131.5 1798,-131.5 1798,-112.5 1736,-112.5"/>
<text text-anchor="middle" x="1767" y="-119.5" font-family="Helvetica,sans-Serif" font-size="10.00">algorithm</text>
</g>
<!-- Node35&#45;&gt;Node36 -->
<g id="edge48" class="edge"><title>Node35&#45;&gt;Node36</title>
<path fill="none" stroke="midnightblue" d="M2121.89,-173.945C2112.19,-171.853 2101.73,-169.723 2092,-168 1990.46,-150.01 1870.01,-134.961 1808.17,-127.689"/>
<polygon fill="midnightblue" stroke="midnightblue" points="1808.38,-124.19 1798.04,-126.506 1807.57,-131.143 1808.38,-124.19"/>
</g>
<!-- Node37 -->
<g id="node37" class="node"><title>Node37</title>
<polygon fill="white" stroke="#bfbfbf" points="2230.5,-112.5 2230.5,-131.5 2277.5,-131.5 2277.5,-112.5 2230.5,-112.5"/>
<text text-anchor="middle" x="2254" y="-119.5" font-family="Helvetica,sans-Serif" font-size="10.00">cmath</text>
</g>
<!-- Node35&#45;&gt;Node37 -->
<g id="edge49" class="edge"><title>Node35&#45;&gt;Node37</title>
<path fill="none" stroke="midnightblue" d="M2172.61,-173.975C2188.06,-164.299 2213.49,-148.372 2231.82,-136.894"/>
<polygon fill="midnightblue" stroke="midnightblue" points="2233.8,-139.783 2240.41,-131.509 2230.08,-133.851 2233.8,-139.783"/>
</g>
<!-- Node38 -->
<g id="node38" class="node"><title>Node38</title>
<g id="a_node38"><a xlink:href="Math_8inl.html" target="_top" xlink:title="Core/Math/Math.inl">
<polygon fill="white" stroke="black" points="2105.5,-112.5 2105.5,-131.5 2212.5,-131.5 2212.5,-112.5 2105.5,-112.5"/>
<text text-anchor="middle" x="2159" y="-119.5" font-family="Helvetica,sans-Serif" font-size="10.00">Core/Math/Math.inl</text>
</a>
</g>
</g>
<!-- Node35&#45;&gt;Node38 -->
<g id="edge50" class="edge"><title>Node35&#45;&gt;Node38</title>
<path fill="none" stroke="midnightblue" d="M2154.1,-173.975C2152.27,-165.58 2151.8,-152.481 2152.69,-141.663"/>
<polygon fill="midnightblue" stroke="midnightblue" points="2156.19,-141.897 2154.1,-131.509 2149.25,-140.929 2156.19,-141.897"/>
</g>
<!-- Node38&#45;&gt;Node35 -->
<g id="edge51" class="edge"><title>Node38&#45;&gt;Node35</title>
<path fill="none" stroke="midnightblue" d="M2163.9,-131.509C2165.73,-139.898 2166.2,-152.996 2165.32,-163.817"/>
<polygon fill="midnightblue" stroke="midnightblue" points="2161.81,-163.588 2163.9,-173.975 2168.75,-164.554 2161.81,-163.588"/>
</g>
<!-- Node40&#45;&gt;Node20 -->
<g id="edge54" class="edge"><title>Node40&#45;&gt;Node20</title>
<path fill="none" stroke="midnightblue" d="M1590.25,-296.968C1555.74,-280.087 1477.65,-240.454 1417,-199 1389.37,-180.113 1359.97,-154.795 1342.04,-138.686"/>
<polygon fill="midnightblue" stroke="midnightblue" points="1343.98,-135.716 1334.22,-131.586 1339.27,-140.899 1343.98,-135.716"/>
</g>
<!-- Node40&#45;&gt;Node29 -->
<g id="edge55" class="edge"><title>Node40&#45;&gt;Node29</title>
<path fill="none" stroke="midnightblue" d="M1619.61,-296.975C1632.48,-287.52 1653.47,-272.096 1669.01,-260.687"/>
<polygon fill="midnightblue" stroke="midnightblue" points="1671.43,-263.25 1677.42,-254.509 1667.28,-257.608 1671.43,-263.25"/>
</g>
<!-- Node40&#45;&gt;Node31 -->
<g id="edge56" class="edge"><title>Node40&#45;&gt;Node31</title>
<path fill="none" stroke="midnightblue" d="M1661.1,-297.843C1768.26,-282.063 2017.78,-243.632 2225,-199 2229.97,-197.93 2235.16,-196.718 2240.29,-195.46"/>
<polygon fill="midnightblue" stroke="midnightblue" points="2241.16,-198.848 2250.01,-193.011 2239.45,-192.06 2241.16,-198.848"/>
</g>
<!-- Node41&#45;&gt;Node27 -->
<g id="edge58" class="edge"><title>Node41&#45;&gt;Node27</title>
<path fill="none" stroke="midnightblue" d="M1771.29,-316.083C1716.7,-327.906 1614.03,-349.187 1550.04,-361.961"/>
<polygon fill="midnightblue" stroke="midnightblue" points="1549.24,-358.551 1540.12,-363.936 1550.61,-365.417 1549.24,-358.551"/>
</g>
<!-- Node42&#45;&gt;Node9 -->
<g id="edge63" class="edge"><title>Node42&#45;&gt;Node9</title>
<path fill="none" stroke="midnightblue" d="M1254.12,-370.157C1328.1,-365.949 1443.04,-354.263 1470,-322 1548.41,-228.177 1417.15,-76.2275 1369.92,-26.9653"/>
<polygon fill="midnightblue" stroke="midnightblue" points="1372.35,-24.4427 1362.86,-19.7205 1367.33,-29.3265 1372.35,-24.4427"/>
</g>
<!-- Node42&#45;&gt;Node11 -->
<g id="edge60" class="edge"><title>Node42&#45;&gt;Node11</title>
<path fill="none" stroke="midnightblue" d="M1197.23,-363.933C1209.79,-347.958 1232.7,-313.228 1215,-291 1206.5,-280.33 1135.34,-265.918 1081.19,-256.309"/>
<polygon fill="midnightblue" stroke="midnightblue" points="1081.75,-252.854 1071.29,-254.572 1080.54,-259.748 1081.75,-252.854"/>
</g>
<!-- Node42&#45;&gt;Node15 -->
<g id="edge62" class="edge"><title>Node42&#45;&gt;Node15</title>
<path fill="none" stroke="midnightblue" d="M1125.98,-373.369C1031.23,-373.13 860.678,-366.348 822,-322 812.944,-311.616 815.838,-303.323 822,-291 828.728,-277.543 841.606,-267.067 853.712,-259.621"/>
<polygon fill="midnightblue" stroke="midnightblue" points="855.733,-262.498 862.704,-254.52 852.279,-256.41 855.733,-262.498"/>
</g>
<!-- Node42&#45;&gt;Node16 -->
<g id="edge64" class="edge"><title>Node42&#45;&gt;Node16</title>
<path fill="none" stroke="midnightblue" d="M1125.69,-370.563C947.415,-364.884 458.458,-347.08 435,-322 419.958,-305.918 432.382,-280.174 443.772,-263.176"/>
<polygon fill="midnightblue" stroke="midnightblue" points="446.831,-264.916 449.812,-254.749 441.142,-260.838 446.831,-264.916"/>
</g>
<!-- Node42&#45;&gt;Node28 -->
<g id="edge65" class="edge"><title>Node42&#45;&gt;Node28</title>
<path fill="none" stroke="midnightblue" d="M1215.36,-363.869C1248.99,-352.424 1308.48,-332.181 1346.26,-319.322"/>
<polygon fill="midnightblue" stroke="midnightblue" points="1347.5,-322.599 1355.84,-316.064 1345.24,-315.972 1347.5,-322.599"/>
</g>
<!-- Node42&#45;&gt;Node29 -->
<g id="edge66" class="edge"><title>Node42&#45;&gt;Node29</title>
<path fill="none" stroke="midnightblue" d="M1254.1,-370.761C1319.06,-367.049 1421.37,-355.775 1503,-322 1524.77,-312.993 1524.94,-301.56 1546,-291 1576.18,-275.869 1612.49,-264.519 1640.96,-257.003"/>
<polygon fill="midnightblue" stroke="midnightblue" points="1641.87,-260.383 1650.69,-254.504 1640.13,-253.603 1641.87,-260.383"/>
</g>
<!-- Node42&#45;&gt;Node40 -->
<g id="edge67" class="edge"><title>Node42&#45;&gt;Node40</title>
<path fill="none" stroke="midnightblue" d="M1254.27,-364.63C1324.82,-355.671 1441.33,-339.933 1541,-322 1547.38,-320.852 1554.08,-319.536 1560.67,-318.176"/>
<polygon fill="midnightblue" stroke="midnightblue" points="1561.82,-321.51 1570.88,-316.019 1560.37,-314.661 1561.82,-321.51"/>
</g>
<!-- Node43 -->
<g id="node43" class="node"><title>Node43</title>
<polygon fill="white" stroke="#bfbfbf" points="1020.5,-297 1020.5,-316 1067.5,-316 1067.5,-297 1020.5,-297"/>
<text text-anchor="middle" x="1044" y="-304" font-family="Helvetica,sans-Serif" font-size="10.00">mutex</text>
</g>
<!-- Node42&#45;&gt;Node43 -->
<g id="edge61" class="edge"><title>Node42&#45;&gt;Node43</title>
<path fill="none" stroke="midnightblue" d="M1170.61,-363.972C1147.91,-353.971 1109.19,-336.869 1076,-322 1074.81,-321.467 1073.6,-320.922 1072.37,-320.37"/>
<polygon fill="midnightblue" stroke="midnightblue" points="1073.49,-317.038 1062.94,-316.114 1070.61,-323.418 1073.49,-317.038"/>
</g>
<!-- Node44 -->
<g id="node44" class="node"><title>Node44</title>
<g id="a_node44"><a xlink:href="Entity_8inl.html" target="_top" xlink:title="Engine/Entity/Entity.inl">
<polygon fill="white" stroke="black" points="1085.5,-297 1085.5,-316 1206.5,-316 1206.5,-297 1085.5,-297"/>
<text text-anchor="middle" x="1146" y="-304" font-family="Helvetica,sans-Serif" font-size="10.00">Engine/Entity/Entity.inl</text>
</a>
</g>
</g>
<!-- Node42&#45;&gt;Node44 -->
<g id="edge68" class="edge"><title>Node42&#45;&gt;Node44</title>
<path fill="none" stroke="midnightblue" d="M1179.28,-363.734C1170.54,-353.89 1159.13,-337.66 1151.87,-325.159"/>
<polygon fill="midnightblue" stroke="midnightblue" points="1154.86,-323.321 1147.08,-316.127 1148.68,-326.601 1154.86,-323.321"/>
</g>
<!-- Node44&#45;&gt;Node42 -->
<g id="edge69" class="edge"><title>Node44&#45;&gt;Node42</title>
<path fill="none" stroke="midnightblue" d="M1156.6,-316.127C1165.31,-325.91 1176.73,-342.128 1184.02,-354.663"/>
<polygon fill="midnightblue" stroke="midnightblue" points="1181.06,-356.553 1188.85,-363.734 1187.24,-353.262 1181.06,-356.553"/>
</g>
<!-- Node45&#45;&gt;Node11 -->
<g id="edge71" class="edge"><title>Node45&#45;&gt;Node11</title>
<path fill="none" stroke="midnightblue" d="M615.537,-292.158C618.391,-291.76 621.218,-291.373 624,-291 738.079,-275.709 871.148,-261.244 950.057,-253.018"/>
<polygon fill="midnightblue" stroke="midnightblue" points="950.767,-256.463 960.352,-251.948 950.044,-249.501 950.767,-256.463"/>
</g>
<!-- Node45&#45;&gt;Node15 -->
<g id="edge74" class="edge"><title>Node45&#45;&gt;Node15</title>
<path fill="none" stroke="midnightblue" d="M615.665,-292.157C697.87,-279.336 813.836,-261.198 849.875,-254.742"/>
<polygon fill="midnightblue" stroke="midnightblue" points="850.586,-258.17 859.736,-252.829 849.253,-251.298 850.586,-258.17"/>
</g>
<!-- Node45&#45;&gt;Node16 -->
<g id="edge75" class="edge"><title>Node45&#45;&gt;Node16</title>
<path fill="none" stroke="midnightblue" d="M512.7,-291.399C501.545,-282.308 487.046,-270.49 475.638,-261.191"/>
<polygon fill="midnightblue" stroke="midnightblue" points="477.585,-258.263 467.622,-254.658 473.162,-263.689 477.585,-258.263"/>
</g>
<!-- Node45&#45;&gt;Node19 -->
<g id="edge84" class="edge"><title>Node45&#45;&gt;Node19</title>
<path fill="none" stroke="midnightblue" d="M575.027,-291.399C607.859,-281.118 651.821,-267.351 682.697,-257.682"/>
<polygon fill="midnightblue" stroke="midnightblue" points="684.134,-260.9 692.631,-254.571 682.042,-254.219 684.134,-260.9"/>
</g>
<!-- Node45&#45;&gt;Node21 -->
<g id="edge72" class="edge"><title>Node45&#45;&gt;Node21</title>
<path fill="none" stroke="midnightblue" d="M615.619,-291.928C665.261,-283.415 729.073,-271.375 793.832,-255.057"/>
<polygon fill="midnightblue" stroke="midnightblue" points="794.987,-258.375 803.811,-252.51 793.256,-251.592 794.987,-258.375"/>
</g>
<!-- Node45&#45;&gt;Node22 -->
<g id="edge73" class="edge"><title>Node45&#45;&gt;Node22</title>
<path fill="none" stroke="midnightblue" d="M496.111,-291.399C472.118,-281.416 440.226,-268.147 417.123,-258.534"/>
<polygon fill="midnightblue" stroke="midnightblue" points="418.385,-255.268 407.808,-254.658 415.696,-261.731 418.385,-255.268"/>
</g>
<!-- Node46 -->
<g id="node46" class="node"><title>Node46</title>
<g id="a_node46"><a xlink:href="IndexMap_8hpp.html" target="_top" xlink:title="Core/Index/IndexMap.hpp">
<polygon fill="white" stroke="black" points="498.5,-235.5 498.5,-254.5 635.5,-254.5 635.5,-235.5 498.5,-235.5"/>
<text text-anchor="middle" x="567" y="-242.5" font-family="Helvetica,sans-Serif" font-size="10.00">Core/Index/IndexMap.hpp</text>
</a>
</g>
</g>
<!-- Node45&#45;&gt;Node46 -->
<g id="edge76" class="edge"><title>Node45&#45;&gt;Node46</title>
<path fill="none" stroke="midnightblue" d="M538.768,-291.399C543.979,-283.021 550.629,-272.327 556.166,-263.423"/>
<polygon fill="midnightblue" stroke="midnightblue" points="559.308,-264.998 561.616,-254.658 553.363,-261.302 559.308,-264.998"/>
</g>
<!-- Node46&#45;&gt;Node12 -->
<g id="edge81" class="edge"><title>Node46&#45;&gt;Node12</title>
<path fill="none" stroke="midnightblue" d="M619.296,-235.475C685.43,-224.694 799.162,-206.154 869.716,-194.653"/>
<polygon fill="midnightblue" stroke="midnightblue" points="870.495,-198.072 879.801,-193.009 869.369,-191.164 870.495,-198.072"/>
</g>
<!-- Node46&#45;&gt;Node20 -->
<g id="edge77" class="edge"><title>Node46&#45;&gt;Node20</title>
<path fill="none" stroke="midnightblue" d="M635.898,-235.999C638.974,-235.658 642.019,-235.324 645,-235 802.221,-217.936 843.008,-225.006 999,-199 1102.99,-181.664 1223.29,-150.736 1284.58,-134.183"/>
<polygon fill="midnightblue" stroke="midnightblue" points="1285.52,-137.555 1294.25,-131.557 1283.68,-130.799 1285.52,-137.555"/>
</g>
<!-- Node46&#45;&gt;Node36 -->
<g id="edge78" class="edge"><title>Node46&#45;&gt;Node36</title>
<path fill="none" stroke="midnightblue" d="M635.89,-235.925C638.968,-235.604 642.016,-235.294 645,-235 840.263,-215.752 889.7,-217.867 1085,-199 1328.3,-175.496 1619.67,-140.851 1725.79,-128.019"/>
<polygon fill="midnightblue" stroke="midnightblue" points="1726.26,-131.488 1735.76,-126.811 1725.42,-124.539 1726.26,-131.488"/>
</g>
<!-- Node47 -->
<g id="node47" class="node"><title>Node47</title>
<polygon fill="white" stroke="#bfbfbf" points="650,-174 650,-193 706,-193 706,-174 650,-174"/>
<text text-anchor="middle" x="678" y="-181" font-family="Helvetica,sans-Serif" font-size="10.00">assert.h</text>
</g>
<!-- Node46&#45;&gt;Node47 -->
<g id="edge79" class="edge"><title>Node46&#45;&gt;Node47</title>
<path fill="none" stroke="midnightblue" d="M582.904,-235.475C601.285,-225.622 631.756,-209.288 653.245,-197.77"/>
<polygon fill="midnightblue" stroke="midnightblue" points="654.966,-200.818 662.126,-193.009 651.659,-194.649 654.966,-200.818"/>
</g>
<!-- Node48 -->
<g id="node48" class="node"><title>Node48</title>
<polygon fill="white" stroke="#bfbfbf" points="436.5,-174 436.5,-193 483.5,-193 483.5,-174 436.5,-174"/>
<text text-anchor="middle" x="460" y="-181" font-family="Helvetica,sans-Serif" font-size="10.00">deque</text>
</g>
<!-- Node46&#45;&gt;Node48 -->
<g id="edge80" class="edge"><title>Node46&#45;&gt;Node48</title>
<path fill="none" stroke="midnightblue" d="M551.67,-235.475C534.03,-225.666 504.84,-209.435 484.142,-197.925"/>
<polygon fill="midnightblue" stroke="midnightblue" points="485.743,-194.81 475.302,-193.009 482.341,-200.928 485.743,-194.81"/>
</g>
<!-- Node49 -->
<g id="node49" class="node"><title>Node49</title>
<g id="a_node49"><a xlink:href="IndexMap_8inl.html" target="_top" xlink:title="Core/Index/IndexMap.inl">
<polygon fill="white" stroke="black" points="502,-174 502,-193 632,-193 632,-174 502,-174"/>
<text text-anchor="middle" x="567" y="-181" font-family="Helvetica,sans-Serif" font-size="10.00">Core/Index/IndexMap.inl</text>
</a>
</g>
</g>
<!-- Node46&#45;&gt;Node49 -->
<g id="edge82" class="edge"><title>Node46&#45;&gt;Node49</title>
<path fill="none" stroke="midnightblue" d="M562.099,-235.475C560.268,-227.08 559.797,-213.981 560.685,-203.163"/>
<polygon fill="midnightblue" stroke="midnightblue" points="564.186,-203.397 562.103,-193.009 557.254,-202.429 564.186,-203.397"/>
</g>
<!-- Node49&#45;&gt;Node46 -->
<g id="edge83" class="edge"><title>Node49&#45;&gt;Node46</title>
<path fill="none" stroke="midnightblue" d="M571.897,-193.009C573.73,-201.398 574.203,-214.496 573.317,-225.317"/>
<polygon fill="midnightblue" stroke="midnightblue" points="569.815,-225.088 571.901,-235.475 576.748,-226.054 569.815,-225.088"/>
</g>
</g>
</svg>
