<?xml version="1.0" encoding="UTF-8" standalone="no"?>
<!DOCTYPE svg PUBLIC "-//W3C//DTD SVG 1.1//EN"
 "http://www.w3.org/Graphics/SVG/1.1/DTD/svg11.dtd">
<!-- Generated by graphviz version 2.38.0 (20140413.2041)
 -->
<!-- Title: /home/travis/build/STORM&#45;IRIT/Radium&#45;Engine/src/GuiBase/TreeModel/EntityTreeModel.hpp Pages: 1 -->
<svg width="1221pt" height="341pt"
 viewBox="0.00 0.00 1221.00 341.00" xmlns="http://www.w3.org/2000/svg" xmlns:xlink="http://www.w3.org/1999/xlink">
<g id="graph0" class="graph" transform="scale(1 1) rotate(0) translate(4 337)">
<title>/home/travis/build/STORM&#45;IRIT/Radium&#45;Engine/src/GuiBase/TreeModel/EntityTreeModel.hpp</title>
<polygon fill="white" stroke="none" points="-4,4 -4,-337 1217,-337 1217,4 -4,4"/>
<!-- Node1 -->
<g id="node1" class="node"><title>Node1</title>
<polygon fill="#bfbfbf" stroke="black" points="647.5,-280.5 647.5,-332.5 824.5,-332.5 824.5,-280.5 647.5,-280.5"/>
<text text-anchor="start" x="655.5" y="-320.5" font-family="Helvetica,sans-Serif" font-size="10.00">/home/travis/build</text>
<text text-anchor="start" x="655.5" y="-309.5" font-family="Helvetica,sans-Serif" font-size="10.00">/STORM&#45;IRIT/Radium&#45;Engine</text>
<text text-anchor="start" x="655.5" y="-298.5" font-family="Helvetica,sans-Serif" font-size="10.00">/src/GuiBase/TreeModel/EntityTree</text>
<text text-anchor="middle" x="736" y="-287.5" font-family="Helvetica,sans-Serif" font-size="10.00">Model.hpp</text>
</g>
<!-- Node2 -->
<g id="node2" class="node"><title>Node2</title>
<g id="a_node2"><a xlink:href="RaGuiBase_8hpp.html" target="_top" xlink:title="GuiBase/RaGuiBase.hpp">
<polygon fill="white" stroke="black" points="1081,-168.5 1081,-187.5 1213,-187.5 1213,-168.5 1081,-168.5"/>
<text text-anchor="middle" x="1147" y="-175.5" font-family="Helvetica,sans-Serif" font-size="10.00">GuiBase/RaGuiBase.hpp</text>
</a>
</g>
</g>
<!-- Node1&#45;&gt;Node2 -->
<g id="edge1" class="edge"><title>Node1&#45;&gt;Node2</title>
<path fill="none" stroke="midnightblue" d="M824.569,-282.811C866.176,-271.764 916.338,-257.889 961,-244 1015.34,-227.101 1077.6,-204.716 1114.54,-191.112"/>
<polygon fill="midnightblue" stroke="midnightblue" points="1116.1,-194.269 1124.26,-187.519 1113.67,-187.703 1116.1,-194.269"/>
</g>
<!-- Node9 -->
<g id="node9" class="node"><title>Node9</title>
<g id="a_node9"><a xlink:href="ItemEntry_8hpp.html" target="_top" xlink:title="Engine/ItemModel/ItemEntry.hpp">
<polygon fill="white" stroke="black" points="306.5,-224.5 306.5,-243.5 477.5,-243.5 477.5,-224.5 306.5,-224.5"/>
<text text-anchor="middle" x="392" y="-231.5" font-family="Helvetica,sans-Serif" font-size="10.00">Engine/ItemModel/ItemEntry.hpp</text>
</a>
</g>
</g>
<!-- Node1&#45;&gt;Node9 -->
<g id="edge8" class="edge"><title>Node1&#45;&gt;Node9</title>
<path fill="none" stroke="midnightblue" d="M647.411,-287.344C582.89,-274.121 497.706,-256.664 443.876,-245.631"/>
<polygon fill="midnightblue" stroke="midnightblue" points="444.371,-242.16 433.872,-243.581 442.966,-249.018 444.371,-242.16"/>
</g>
<!-- Node17 -->
<g id="node17" class="node"><title>Node17</title>
<g id="a_node17"><a xlink:href="RadiumEngine_8hpp.html" target="_top" xlink:title="Engine/RadiumEngine.hpp">
<polygon fill="white" stroke="black" points="538.5,-224.5 538.5,-243.5 679.5,-243.5 679.5,-224.5 538.5,-224.5"/>
<text text-anchor="middle" x="609" y="-231.5" font-family="Helvetica,sans-Serif" font-size="10.00">Engine/RadiumEngine.hpp</text>
</a>
</g>
</g>
<!-- Node1&#45;&gt;Node17 -->
<g id="edge17" class="edge"><title>Node1&#45;&gt;Node17</title>
<path fill="none" stroke="midnightblue" d="M690.867,-280.446C671.438,-269.66 649.498,-257.481 633.225,-248.448"/>
<polygon fill="midnightblue" stroke="midnightblue" points="634.803,-245.32 624.361,-243.527 631.405,-251.441 634.803,-245.32"/>
</g>
<!-- Node22 -->
<g id="node22" class="node"><title>Node22</title>
<g id="a_node22"><a xlink:href="TreeModel_8hpp.html" target="_top" xlink:title="GuiBase/TreeModel/TreeModel.hpp">
<polygon fill="white" stroke="black" points="773.5,-224.5 773.5,-243.5 952.5,-243.5 952.5,-224.5 773.5,-224.5"/>
<text text-anchor="middle" x="863" y="-231.5" font-family="Helvetica,sans-Serif" font-size="10.00">GuiBase/TreeModel/TreeModel.hpp</text>
</a>
</g>
</g>
<!-- Node1&#45;&gt;Node22 -->
<g id="edge26" class="edge"><title>Node1&#45;&gt;Node22</title>
<path fill="none" stroke="midnightblue" d="M781.133,-280.446C800.562,-269.66 822.502,-257.481 838.775,-248.448"/>
<polygon fill="midnightblue" stroke="midnightblue" points="840.595,-251.441 847.639,-243.527 837.197,-245.32 840.595,-251.441"/>
</g>
<!-- Node3 -->
<g id="node3" class="node"><title>Node3</title>
<g id="a_node3"><a xlink:href="CoreMacros_8hpp.html" target="_top" xlink:title="Core/CoreMacros.hpp">
<polygon fill="white" stroke="black" points="652,-56.5 652,-75.5 772,-75.5 772,-56.5 652,-56.5"/>
<text text-anchor="middle" x="712" y="-63.5" font-family="Helvetica,sans-Serif" font-size="10.00">Core/CoreMacros.hpp</text>
</a>
</g>
</g>
<!-- Node2&#45;&gt;Node3 -->
<g id="edge2" class="edge"><title>Node2&#45;&gt;Node3</title>
<path fill="none" stroke="midnightblue" d="M1113.23,-168.46C1035.17,-148.722 842.325,-99.9557 755.545,-78.0115"/>
<polygon fill="midnightblue" stroke="midnightblue" points="756.303,-74.593 745.75,-75.5345 754.587,-81.3794 756.303,-74.593"/>
</g>
<!-- Node4 -->
<g id="node4" class="node"><title>Node4</title>
<polygon fill="white" stroke="#bfbfbf" points="549,-0.5 549,-19.5 601,-19.5 601,-0.5 549,-0.5"/>
<text text-anchor="middle" x="575" y="-7.5" font-family="Helvetica,sans-Serif" font-size="10.00">cassert</text>
</g>
<!-- Node3&#45;&gt;Node4 -->
<g id="edge3" class="edge"><title>Node3&#45;&gt;Node4</title>
<path fill="none" stroke="midnightblue" d="M690.292,-56.4435C667.645,-47.5171 631.928,-33.4387 606.248,-23.3168"/>
<polygon fill="midnightblue" stroke="midnightblue" points="607.193,-19.9273 596.606,-19.5164 604.626,-26.4397 607.193,-19.9273"/>
</g>
<!-- Node5 -->
<g id="node5" class="node"><title>Node5</title>
<polygon fill="white" stroke="#bfbfbf" points="619.5,-0.5 619.5,-19.5 664.5,-19.5 664.5,-0.5 619.5,-0.5"/>
<text text-anchor="middle" x="642" y="-7.5" font-family="Helvetica,sans-Serif" font-size="10.00">cstdio</text>
</g>
<!-- Node3&#45;&gt;Node5 -->
<g id="edge4" class="edge"><title>Node3&#45;&gt;Node5</title>
<path fill="none" stroke="midnightblue" d="M700.753,-56.324C690.203,-48.1849 674.199,-35.8395 661.558,-26.0874"/>
<polygon fill="midnightblue" stroke="midnightblue" points="663.507,-23.1707 653.451,-19.8339 659.231,-28.7132 663.507,-23.1707"/>
</g>
<!-- Node6 -->
<g id="node6" class="node"><title>Node6</title>
<polygon fill="white" stroke="#bfbfbf" points="682.5,-0.5 682.5,-19.5 741.5,-19.5 741.5,-0.5 682.5,-0.5"/>
<text text-anchor="middle" x="712" y="-7.5" font-family="Helvetica,sans-Serif" font-size="10.00">iostream</text>
</g>
<!-- Node3&#45;&gt;Node6 -->
<g id="edge5" class="edge"><title>Node3&#45;&gt;Node6</title>
<path fill="none" stroke="midnightblue" d="M712,-56.083C712,-49.0059 712,-38.8611 712,-29.9865"/>
<polygon fill="midnightblue" stroke="midnightblue" points="715.5,-29.751 712,-19.7511 708.5,-29.7511 715.5,-29.751"/>
</g>
<!-- Node7 -->
<g id="node7" class="node"><title>Node7</title>
<polygon fill="white" stroke="#bfbfbf" points="760,-0.5 760,-19.5 816,-19.5 816,-0.5 760,-0.5"/>
<text text-anchor="middle" x="788" y="-7.5" font-family="Helvetica,sans-Serif" font-size="10.00">sstream</text>
</g>
<!-- Node3&#45;&gt;Node7 -->
<g id="edge6" class="edge"><title>Node3&#45;&gt;Node7</title>
<path fill="none" stroke="midnightblue" d="M724.211,-56.324C735.776,-48.1066 753.375,-35.6017 767.161,-25.8069"/>
<polygon fill="midnightblue" stroke="midnightblue" points="769.443,-28.4791 775.567,-19.8339 765.388,-22.7729 769.443,-28.4791"/>
</g>
<!-- Node8 -->
<g id="node8" class="node"><title>Node8</title>
<polygon fill="white" stroke="#bfbfbf" points="834,-0.5 834,-19.5 882,-19.5 882,-0.5 834,-0.5"/>
<text text-anchor="middle" x="858" y="-7.5" font-family="Helvetica,sans-Serif" font-size="10.00">thread</text>
</g>
<!-- Node3&#45;&gt;Node8 -->
<g id="edge7" class="edge"><title>Node3&#45;&gt;Node8</title>
<path fill="none" stroke="midnightblue" d="M735.134,-56.4435C759.482,-47.4381 798.007,-33.1891 825.423,-23.049"/>
<polygon fill="midnightblue" stroke="midnightblue" points="826.809,-26.2681 834.974,-19.5164 824.381,-19.7028 826.809,-26.2681"/>
</g>
<!-- Node10 -->
<g id="node10" class="node"><title>Node10</title>
<g id="a_node10"><a xlink:href="RaEngine_8hpp.html" target="_top" xlink:title="Engine/RaEngine.hpp">
<polygon fill="white" stroke="black" points="389.5,-168.5 389.5,-187.5 506.5,-187.5 506.5,-168.5 389.5,-168.5"/>
<text text-anchor="middle" x="448" y="-175.5" font-family="Helvetica,sans-Serif" font-size="10.00">Engine/RaEngine.hpp</text>
</a>
</g>
</g>
<!-- Node9&#45;&gt;Node10 -->
<g id="edge9" class="edge"><title>Node9&#45;&gt;Node10</title>
<path fill="none" stroke="midnightblue" d="M400.997,-224.324C409.194,-216.42 421.506,-204.548 431.472,-194.938"/>
<polygon fill="midnightblue" stroke="midnightblue" points="434.07,-197.295 438.839,-187.834 429.211,-192.256 434.07,-197.295"/>
</g>
<!-- Node11 -->
<g id="node11" class="node"><title>Node11</title>
<g id="a_node11"><a xlink:href="Index_8hpp.html" target="_top" xlink:title="Core/Index/Index.hpp">
<polygon fill="white" stroke="black" points="9.5,-168.5 9.5,-187.5 126.5,-187.5 126.5,-168.5 9.5,-168.5"/>
<text text-anchor="middle" x="68" y="-175.5" font-family="Helvetica,sans-Serif" font-size="10.00">Core/Index/Index.hpp</text>
</a>
</g>
</g>
<!-- Node9&#45;&gt;Node11 -->
<g id="edge11" class="edge"><title>Node9&#45;&gt;Node11</title>
<path fill="none" stroke="midnightblue" d="M340.661,-224.444C283.192,-214.865 190.133,-199.356 129,-189.167"/>
<polygon fill="midnightblue" stroke="midnightblue" points="129.538,-185.708 119.099,-187.516 128.387,-192.613 129.538,-185.708"/>
</g>
<!-- Node14 -->
<g id="node14" class="node"><title>Node14</title>
<polygon fill="white" stroke="#bfbfbf" points="327,-168.5 327,-187.5 371,-187.5 371,-168.5 327,-168.5"/>
<text text-anchor="middle" x="349" y="-175.5" font-family="Helvetica,sans-Serif" font-size="10.00">string</text>
</g>
<!-- Node9&#45;&gt;Node14 -->
<g id="edge14" class="edge"><title>Node9&#45;&gt;Node14</title>
<path fill="none" stroke="midnightblue" d="M384.899,-224.083C378.763,-216.377 369.73,-205.033 362.261,-195.653"/>
<polygon fill="midnightblue" stroke="midnightblue" points="364.936,-193.394 355.968,-187.751 359.46,-197.754 364.936,-193.394"/>
</g>
<!-- Node15 -->
<g id="node15" class="node"><title>Node15</title>
<polygon fill="white" stroke="#bfbfbf" points="524.5,-168.5 524.5,-187.5 571.5,-187.5 571.5,-168.5 524.5,-168.5"/>
<text text-anchor="middle" x="548" y="-175.5" font-family="Helvetica,sans-Serif" font-size="10.00">vector</text>
</g>
<!-- Node9&#45;&gt;Node15 -->
<g id="edge15" class="edge"><title>Node9&#45;&gt;Node15</title>
<path fill="none" stroke="midnightblue" d="M416.719,-224.444C443.156,-215.292 485.236,-200.726 514.606,-190.559"/>
<polygon fill="midnightblue" stroke="midnightblue" points="516.113,-193.742 524.418,-187.163 513.823,-187.127 516.113,-193.742"/>
</g>
<!-- Node16 -->
<g id="node16" class="node"><title>Node16</title>
<g id="a_node16"><a xlink:href="ItemEntry_8inl.html" target="_top" xlink:title="Engine/ItemModel/ItemEntry.inl">
<polygon fill="white" stroke="black" points="145,-168.5 145,-187.5 309,-187.5 309,-168.5 145,-168.5"/>
<text text-anchor="middle" x="227" y="-175.5" font-family="Helvetica,sans-Serif" font-size="10.00">Engine/ItemModel/ItemEntry.inl</text>
</a>
</g>
</g>
<!-- Node9&#45;&gt;Node16 -->
<g id="edge16" class="edge"><title>Node9&#45;&gt;Node16</title>
<path fill="none" stroke="midnightblue" d="M365.855,-224.444C337.977,-215.32 293.652,-200.813 262.6,-190.651"/>
<polygon fill="midnightblue" stroke="midnightblue" points="263.615,-187.3 253.022,-187.516 261.438,-193.953 263.615,-187.3"/>
</g>
<!-- Node10&#45;&gt;Node3 -->
<g id="edge10" class="edge"><title>Node10&#45;&gt;Node3</title>
<path fill="none" stroke="midnightblue" d="M468.716,-168.368C515.175,-149.01 627.845,-102.065 681.982,-79.5074"/>
<polygon fill="midnightblue" stroke="midnightblue" points="683.496,-82.6684 691.381,-75.5914 680.804,-76.2069 683.496,-82.6684"/>
</g>
<!-- Node12 -->
<g id="node12" class="node"><title>Node12</title>
<polygon fill="white" stroke="#bfbfbf" points="0,-112.5 0,-131.5 42,-131.5 42,-112.5 0,-112.5"/>
<text text-anchor="middle" x="21" y="-119.5" font-family="Helvetica,sans-Serif" font-size="10.00">limits</text>
</g>
<!-- Node11&#45;&gt;Node12 -->
<g id="edge12" class="edge"><title>Node11&#45;&gt;Node12</title>
<path fill="none" stroke="midnightblue" d="M60.2389,-168.083C53.4632,-160.298 43.4568,-148.801 35.2449,-139.367"/>
<polygon fill="midnightblue" stroke="midnightblue" points="37.822,-136.996 28.6167,-131.751 32.5419,-141.592 37.822,-136.996"/>
</g>
<!-- Node13 -->
<g id="node13" class="node"><title>Node13</title>
<g id="a_node13"><a xlink:href="Index_8inl.html" target="_top" xlink:title="Core/Index/Index.inl">
<polygon fill="white" stroke="black" points="60,-112.5 60,-131.5 170,-131.5 170,-112.5 60,-112.5"/>
<text text-anchor="middle" x="115" y="-119.5" font-family="Helvetica,sans-Serif" font-size="10.00">Core/Index/Index.inl</text>
</a>
</g>
</g>
<!-- Node11&#45;&gt;Node13 -->
<g id="edge13" class="edge"><title>Node11&#45;&gt;Node13</title>
<path fill="none" stroke="midnightblue" d="M75.7611,-168.083C82.5368,-160.298 92.5432,-148.801 100.755,-139.367"/>
<polygon fill="midnightblue" stroke="midnightblue" points="103.458,-141.592 107.383,-131.751 98.178,-136.996 103.458,-141.592"/>
</g>
<!-- Node17&#45;&gt;Node10 -->
<g id="edge18" class="edge"><title>Node17&#45;&gt;Node10</title>
<path fill="none" stroke="midnightblue" d="M583.489,-224.444C556.404,-215.359 513.41,-200.939 483.131,-190.783"/>
<polygon fill="midnightblue" stroke="midnightblue" points="483.986,-187.378 473.392,-187.516 481.76,-194.015 483.986,-187.378"/>
</g>
<!-- Node17&#45;&gt;Node14 -->
<g id="edge24" class="edge"><title>Node17&#45;&gt;Node14</title>
<path fill="none" stroke="midnightblue" d="M558.689,-224.436C514.288,-216.58 447.637,-204.066 381.101,-188.106"/>
<polygon fill="midnightblue" stroke="midnightblue" points="381.831,-184.682 371.288,-185.726 380.181,-191.485 381.831,-184.682"/>
</g>
<!-- Node17&#45;&gt;Node15 -->
<g id="edge25" class="edge"><title>Node17&#45;&gt;Node15</title>
<path fill="none" stroke="midnightblue" d="M599.199,-224.324C590.182,-216.341 576.594,-204.313 565.682,-194.653"/>
<polygon fill="midnightblue" stroke="midnightblue" points="567.787,-191.842 557.979,-187.834 563.147,-197.083 567.787,-191.842"/>
</g>
<!-- Node18 -->
<g id="node18" class="node"><title>Node18</title>
<g id="a_node18"><a xlink:href="Singleton_8hpp.html" target="_top" xlink:title="Core/Utils/Singleton.hpp">
<polygon fill="white" stroke="black" points="646,-168.5 646,-187.5 778,-187.5 778,-168.5 646,-168.5"/>
<text text-anchor="middle" x="712" y="-175.5" font-family="Helvetica,sans-Serif" font-size="10.00">Core/Utils/Singleton.hpp</text>
</a>
</g>
</g>
<!-- Node17&#45;&gt;Node18 -->
<g id="edge19" class="edge"><title>Node17&#45;&gt;Node18</title>
<path fill="none" stroke="midnightblue" d="M625.549,-224.324C641.992,-215.703 667.435,-202.364 686.468,-192.386"/>
<polygon fill="midnightblue" stroke="midnightblue" points="688.261,-195.398 695.492,-187.655 685.011,-189.198 688.261,-195.398"/>
</g>
<!-- Node20 -->
<g id="node20" class="node"><title>Node20</title>
<polygon fill="white" stroke="#bfbfbf" points="590,-168.5 590,-187.5 628,-187.5 628,-168.5 590,-168.5"/>
<text text-anchor="middle" x="609" y="-175.5" font-family="Helvetica,sans-Serif" font-size="10.00">map</text>
</g>
<!-- Node17&#45;&gt;Node20 -->
<g id="edge22" class="edge"><title>Node17&#45;&gt;Node20</title>
<path fill="none" stroke="midnightblue" d="M609,-224.083C609,-217.006 609,-206.861 609,-197.986"/>
<polygon fill="midnightblue" stroke="midnightblue" points="612.5,-197.751 609,-187.751 605.5,-197.751 612.5,-197.751"/>
</g>
<!-- Node21 -->
<g id="node21" class="node"><title>Node21</title>
<polygon fill="white" stroke="#bfbfbf" points="796.5,-168.5 796.5,-187.5 853.5,-187.5 853.5,-168.5 796.5,-168.5"/>
<text text-anchor="middle" x="825" y="-175.5" font-family="Helvetica,sans-Serif" font-size="10.00">memory</text>
</g>
<!-- Node17&#45;&gt;Node21 -->
<g id="edge23" class="edge"><title>Node17&#45;&gt;Node21</title>
<path fill="none" stroke="midnightblue" d="M643.226,-224.444C682.266,-214.683 745.943,-198.764 786.632,-188.592"/>
<polygon fill="midnightblue" stroke="midnightblue" points="787.6,-191.958 796.453,-186.137 785.902,-185.167 787.6,-191.958"/>
</g>
<!-- Node19 -->
<g id="node19" class="node"><title>Node19</title>
<g id="a_node19"><a xlink:href="RaCore_8hpp.html" target="_top" xlink:title="Core/RaCore.hpp">
<polygon fill="white" stroke="black" points="663,-112.5 663,-131.5 761,-131.5 761,-112.5 663,-112.5"/>
<text text-anchor="middle" x="712" y="-119.5" font-family="Helvetica,sans-Serif" font-size="10.00">Core/RaCore.hpp</text>
</a>
</g>
</g>
<!-- Node18&#45;&gt;Node19 -->
<g id="edge20" class="edge"><title>Node18&#45;&gt;Node19</title>
<path fill="none" stroke="midnightblue" d="M712,-168.083C712,-161.006 712,-150.861 712,-141.986"/>
<polygon fill="midnightblue" stroke="midnightblue" points="715.5,-141.751 712,-131.751 708.5,-141.751 715.5,-141.751"/>
</g>
<!-- Node19&#45;&gt;Node3 -->
<g id="edge21" class="edge"><title>Node19&#45;&gt;Node3</title>
<path fill="none" stroke="midnightblue" d="M712,-112.083C712,-105.006 712,-94.8611 712,-85.9865"/>
<polygon fill="midnightblue" stroke="midnightblue" points="715.5,-85.751 712,-75.7511 708.5,-85.7511 715.5,-85.751"/>
</g>
<!-- Node22&#45;&gt;Node2 -->
<g id="edge27" class="edge"><title>Node22&#45;&gt;Node2</title>
<path fill="none" stroke="midnightblue" d="M908.001,-224.444C957.959,-214.944 1038.6,-199.611 1092.2,-189.42"/>
<polygon fill="midnightblue" stroke="midnightblue" points="1093.04,-192.823 1102.21,-187.516 1091.73,-185.946 1093.04,-192.823"/>
</g>
<!-- Node22&#45;&gt;Node15 -->
<g id="edge29" class="edge"><title>Node22&#45;&gt;Node15</title>
<path fill="none" stroke="midnightblue" d="M796.814,-224.497C741.78,-216.958 661.24,-204.841 581.89,-187.986"/>
<polygon fill="midnightblue" stroke="midnightblue" points="582.23,-184.479 571.718,-185.798 580.758,-191.323 582.23,-184.479"/>
</g>
<!-- Node22&#45;&gt;Node21 -->
<g id="edge28" class="edge"><title>Node22&#45;&gt;Node21</title>
<path fill="none" stroke="midnightblue" d="M856.725,-224.083C851.358,-216.455 843.482,-205.264 836.921,-195.941"/>
<polygon fill="midnightblue" stroke="midnightblue" points="839.775,-193.915 831.158,-187.751 834.051,-197.943 839.775,-193.915"/>
</g>
<!-- Node23 -->
<g id="node23" class="node"><title>Node23</title>
<polygon fill="white" stroke="#bfbfbf" points="947.5,-168.5 947.5,-187.5 1062.5,-187.5 1062.5,-168.5 947.5,-168.5"/>
<text text-anchor="middle" x="1005" y="-175.5" font-family="Helvetica,sans-Serif" font-size="10.00">QAbstractItemModel</text>
</g>
<!-- Node22&#45;&gt;Node23 -->
<g id="edge30" class="edge"><title>Node22&#45;&gt;Node23</title>
<path fill="none" stroke="midnightblue" d="M885.5,-224.444C909.077,-215.478 946.322,-201.314 972.964,-191.183"/>
<polygon fill="midnightblue" stroke="midnightblue" points="974.502,-194.342 982.605,-187.516 972.014,-187.8 974.502,-194.342"/>
</g>
<!-- Node24 -->
<g id="node24" class="node"><title>Node24</title>
<polygon fill="white" stroke="#bfbfbf" points="872,-168.5 872,-187.5 930,-187.5 930,-168.5 872,-168.5"/>
<text text-anchor="middle" x="901" y="-175.5" font-family="Helvetica,sans-Serif" font-size="10.00">QVariant</text>
</g>
<!-- Node22&#45;&gt;Node24 -->
<g id="edge31" class="edge"><title>Node22&#45;&gt;Node24</title>
<path fill="none" stroke="midnightblue" d="M869.275,-224.083C874.642,-216.455 882.518,-205.264 889.079,-195.941"/>
<polygon fill="midnightblue" stroke="midnightblue" points="891.949,-197.943 894.842,-187.751 886.225,-193.915 891.949,-197.943"/>
</g>
</g>
</svg>
