<?xml version="1.0" encoding="UTF-8" standalone="no"?>
<!DOCTYPE svg PUBLIC "-//W3C//DTD SVG 1.1//EN"
 "http://www.w3.org/Graphics/SVG/1.1/DTD/svg11.dtd">
<!-- Generated by graphviz version 2.38.0 (20140413.2041)
 -->
<!-- Title: /home/travis/build/STORM&#45;IRIT/Radium&#45;Engine/src/Core/File/deprecated/FileManager.inl Pages: 1 -->
<svg width="156pt" height="184pt"
 viewBox="0.00 0.00 156.00 184.00" xmlns="http://www.w3.org/2000/svg" xmlns:xlink="http://www.w3.org/1999/xlink">
<g id="graph0" class="graph" transform="scale(1 1) rotate(0) translate(4 180)">
<title>/home/travis/build/STORM&#45;IRIT/Radium&#45;Engine/src/Core/File/deprecated/FileManager.inl</title>
<polygon fill="white" stroke="none" points="-4,4 -4,-180 152,-180 152,4 -4,4"/>
<!-- Node1 -->
<g id="node1" class="node"><title>Node1</title>
<polygon fill="#bfbfbf" stroke="black" points="0,-123.5 0,-175.5 148,-175.5 148,-123.5 0,-123.5"/>
<text text-anchor="start" x="8" y="-163.5" font-family="Helvetica,sans-Serif" font-size="10.00">/home/travis/build</text>
<text text-anchor="start" x="8" y="-152.5" font-family="Helvetica,sans-Serif" font-size="10.00">/STORM&#45;IRIT/Radium&#45;Engine</text>
<text text-anchor="start" x="8" y="-141.5" font-family="Helvetica,sans-Serif" font-size="10.00">/src/Core/File/deprecated</text>
<text text-anchor="middle" x="74" y="-130.5" font-family="Helvetica,sans-Serif" font-size="10.00">/FileManager.inl</text>
</g>
<!-- Node2 -->
<g id="node2" class="node"><title>Node2</title>
<g id="a_node2"><a xlink:href="FileManager_8hpp.html" target="_top" xlink:title="Core/File/deprecated\l/FileManager.hpp">
<polygon fill="white" stroke="black" points="16.5,-56.5 16.5,-86.5 131.5,-86.5 131.5,-56.5 16.5,-56.5"/>
<text text-anchor="start" x="24.5" y="-74.5" font-family="Helvetica,sans-Serif" font-size="10.00">Core/File/deprecated</text>
<text text-anchor="middle" x="74" y="-63.5" font-family="Helvetica,sans-Serif" font-size="10.00">/FileManager.hpp</text>
</a>
</g>
</g>
<!-- Node1&#45;&gt;Node2 -->
<g id="edge1" class="edge"><title>Node1&#45;&gt;Node2</title>
<path fill="none" stroke="midnightblue" d="M67.5965,-123.193C67.1156,-114.692 67.1353,-105.233 67.6554,-96.8103"/>
<polygon fill="midnightblue" stroke="midnightblue" points="71.141,-97.1264 68.582,-86.8453 64.1711,-96.4783 71.141,-97.1264"/>
</g>
<!-- Node2&#45;&gt;Node1 -->
<g id="edge4" class="edge"><title>Node2&#45;&gt;Node1</title>
<path fill="none" stroke="midnightblue" d="M79.418,-86.8453C80.3923,-94.2779 80.8321,-103.715 80.7374,-112.958"/>
<polygon fill="midnightblue" stroke="midnightblue" points="77.2315,-113.084 80.4035,-123.193 84.2278,-113.313 77.2315,-113.084"/>
</g>
<!-- Node3 -->
<g id="node3" class="node"><title>Node3</title>
<polygon fill="white" stroke="#bfbfbf" points="14,-0.5 14,-19.5 68,-19.5 68,-0.5 14,-0.5"/>
<text text-anchor="middle" x="41" y="-7.5" font-family="Helvetica,sans-Serif" font-size="10.00">fstream</text>
</g>
<!-- Node2&#45;&gt;Node3 -->
<g id="edge2" class="edge"><title>Node2&#45;&gt;Node3</title>
<path fill="none" stroke="midnightblue" d="M66.1795,-56.3993C61.5325,-48.0207 55.6015,-37.3269 50.6631,-28.4229"/>
<polygon fill="midnightblue" stroke="midnightblue" points="53.7128,-26.7052 45.8018,-19.6578 47.5913,-30.1004 53.7128,-26.7052"/>
</g>
<!-- Node4 -->
<g id="node4" class="node"><title>Node4</title>
<polygon fill="white" stroke="#bfbfbf" points="86,-0.5 86,-19.5 130,-19.5 130,-0.5 86,-0.5"/>
<text text-anchor="middle" x="108" y="-7.5" font-family="Helvetica,sans-Serif" font-size="10.00">string</text>
</g>
<!-- Node2&#45;&gt;Node4 -->
<g id="edge3" class="edge"><title>Node2&#45;&gt;Node4</title>
<path fill="none" stroke="midnightblue" d="M82.0575,-56.3993C86.8453,-48.0207 92.9561,-37.3269 98.0441,-28.4229"/>
<polygon fill="midnightblue" stroke="midnightblue" points="101.13,-30.0767 103.053,-19.6578 95.0524,-26.6037 101.13,-30.0767"/>
</g>
</g>
</svg>
