<?xml version="1.0" encoding="UTF-8" standalone="no"?>
<!DOCTYPE svg PUBLIC "-//W3C//DTD SVG 1.1//EN"
 "http://www.w3.org/Graphics/SVG/1.1/DTD/svg11.dtd">
<!-- Generated by graphviz version 2.38.0 (20140413.2041)
 -->
<!-- Title: /home/travis/build/STORM&#45;IRIT/Radium&#45;Engine/src/GuiBase/TimerData/FrameTimerData.hpp Pages: 1 -->
<svg width="2095pt" height="408pt"
 viewBox="0.00 0.00 2094.50 408.00" xmlns="http://www.w3.org/2000/svg" xmlns:xlink="http://www.w3.org/1999/xlink">
<g id="graph0" class="graph" transform="scale(1 1) rotate(0) translate(4 404)">
<title>/home/travis/build/STORM&#45;IRIT/Radium&#45;Engine/src/GuiBase/TimerData/FrameTimerData.hpp</title>
<polygon fill="white" stroke="none" points="-4,4 -4,-404 2090.5,-404 2090.5,4 -4,4"/>
<!-- Node1 -->
<g id="node1" class="node"><title>Node1</title>
<polygon fill="#bfbfbf" stroke="black" points="149,-347.5 149,-399.5 339,-399.5 339,-347.5 149,-347.5"/>
<text text-anchor="start" x="157" y="-387.5" font-family="Helvetica,sans-Serif" font-size="10.00">/home/travis/build</text>
<text text-anchor="start" x="157" y="-376.5" font-family="Helvetica,sans-Serif" font-size="10.00">/STORM&#45;IRIT/Radium&#45;Engine</text>
<text text-anchor="start" x="157" y="-365.5" font-family="Helvetica,sans-Serif" font-size="10.00">/src/GuiBase/TimerData/FrameTimer</text>
<text text-anchor="middle" x="244" y="-354.5" font-family="Helvetica,sans-Serif" font-size="10.00">Data.hpp</text>
</g>
<!-- Node2 -->
<g id="node2" class="node"><title>Node2</title>
<g id="a_node2"><a xlink:href="RaGuiBase_8hpp.html" target="_top" xlink:title="GuiBase/RaGuiBase.hpp">
<polygon fill="white" stroke="black" points="113,-112.5 113,-131.5 245,-131.5 245,-112.5 113,-112.5"/>
<text text-anchor="middle" x="179" y="-119.5" font-family="Helvetica,sans-Serif" font-size="10.00">GuiBase/RaGuiBase.hpp</text>
</a>
</g>
</g>
<!-- Node1&#45;&gt;Node2 -->
<g id="edge1" class="edge"><title>Node1&#45;&gt;Node2</title>
<path fill="none" stroke="midnightblue" d="M160.959,-347.353C142.411,-338.411 124.317,-326.557 111,-311 94.1669,-291.336 98.5903,-280.635 95,-255 88.2347,-206.695 132.289,-161.211 159.198,-138.356"/>
<polygon fill="midnightblue" stroke="midnightblue" points="161.733,-140.804 167.246,-131.756 157.294,-135.391 161.733,-140.804"/>
</g>
<!-- Node6 -->
<g id="node6" class="node"><title>Node6</title>
<polygon fill="white" stroke="#bfbfbf" points="7.5,-0.5 7.5,-19.5 66.5,-19.5 66.5,-0.5 7.5,-0.5"/>
<text text-anchor="middle" x="37" y="-7.5" font-family="Helvetica,sans-Serif" font-size="10.00">iostream</text>
</g>
<!-- Node1&#45;&gt;Node6 -->
<g id="edge9" class="edge"><title>Node1&#45;&gt;Node6</title>
<path fill="none" stroke="midnightblue" d="M148.965,-361.378C80.4534,-347.441 0,-316.142 0,-246 0,-246 0,-246 0,-121 0,-86.889 16.1815,-49.787 27.1424,-28.5681"/>
<polygon fill="midnightblue" stroke="midnightblue" points="30.3593,-29.9756 32.01,-19.5101 24.1933,-26.662 30.3593,-29.9756"/>
</g>
<!-- Node9 -->
<g id="node9" class="node"><title>Node9</title>
<polygon fill="white" stroke="#bfbfbf" points="120.5,-291.5 120.5,-310.5 175.5,-310.5 175.5,-291.5 120.5,-291.5"/>
<text text-anchor="middle" x="148" y="-298.5" font-family="Helvetica,sans-Serif" font-size="10.00">iomanip</text>
</g>
<!-- Node1&#45;&gt;Node9 -->
<g id="edge8" class="edge"><title>Node1&#45;&gt;Node9</title>
<path fill="none" stroke="midnightblue" d="M209.884,-347.446C195.833,-337.127 180.045,-325.533 167.933,-316.638"/>
<polygon fill="midnightblue" stroke="midnightblue" points="169.972,-313.794 159.841,-310.695 165.829,-319.436 169.972,-313.794"/>
</g>
<!-- Node10 -->
<g id="node10" class="node"><title>Node10</title>
<g id="a_node10"><a xlink:href="Log_8hpp.html" target="_top" xlink:title="Core/Log/Log.hpp">
<polygon fill="white" stroke="black" points="193.5,-291.5 193.5,-310.5 294.5,-310.5 294.5,-291.5 193.5,-291.5"/>
<text text-anchor="middle" x="244" y="-298.5" font-family="Helvetica,sans-Serif" font-size="10.00">Core/Log/Log.hpp</text>
</a>
</g>
</g>
<!-- Node1&#45;&gt;Node10 -->
<g id="edge10" class="edge"><title>Node1&#45;&gt;Node10</title>
<path fill="none" stroke="midnightblue" d="M244,-347.446C244,-338.73 244,-329.104 244,-320.964"/>
<polygon fill="midnightblue" stroke="midnightblue" points="247.5,-320.695 244,-310.695 240.5,-320.696 247.5,-320.695"/>
</g>
<!-- Node17 -->
<g id="node17" class="node"><title>Node17</title>
<g id="a_node17"><a xlink:href="TaskQueue_8hpp.html" target="_top" xlink:title="Core/Tasks/TaskQueue.hpp">
<polygon fill="white" stroke="black" points="592.5,-291.5 592.5,-310.5 735.5,-310.5 735.5,-291.5 592.5,-291.5"/>
<text text-anchor="middle" x="664" y="-298.5" font-family="Helvetica,sans-Serif" font-size="10.00">Core/Tasks/TaskQueue.hpp</text>
</a>
</g>
</g>
<!-- Node1&#45;&gt;Node17 -->
<g id="edge21" class="edge"><title>Node1&#45;&gt;Node17</title>
<path fill="none" stroke="midnightblue" d="M339.042,-356.547C420.113,-342.938 534.223,-323.784 603.423,-312.168"/>
<polygon fill="midnightblue" stroke="midnightblue" points="604.015,-315.618 613.297,-310.511 602.856,-308.715 604.015,-315.618"/>
</g>
<!-- Node22 -->
<g id="node22" class="node"><title>Node22</title>
<g id="a_node22"><a xlink:href="Timer_8hpp.html" target="_top" xlink:title="Core/Time/Timer.hpp">
<polygon fill="white" stroke="black" points="991,-235.5 991,-254.5 1107,-254.5 1107,-235.5 991,-235.5"/>
<text text-anchor="middle" x="1049" y="-242.5" font-family="Helvetica,sans-Serif" font-size="10.00">Core/Time/Timer.hpp</text>
</a>
</g>
</g>
<!-- Node1&#45;&gt;Node22 -->
<g id="edge33" class="edge"><title>Node1&#45;&gt;Node22</title>
<path fill="none" stroke="midnightblue" d="M339.281,-363.289C440.151,-352.953 603.836,-334.509 744,-311 837.126,-295.38 944.928,-270.874 1004.18,-256.839"/>
<polygon fill="midnightblue" stroke="midnightblue" points="1005.05,-260.231 1013.97,-254.512 1003.43,-253.421 1005.05,-260.231"/>
</g>
<!-- Node24 -->
<g id="node24" class="node"><title>Node24</title>
<g id="a_node24"><a xlink:href="Renderer_8hpp.html" target="_top" xlink:title="Engine/Renderer/Renderer.hpp">
<polygon fill="white" stroke="black" points="1011.5,-291.5 1011.5,-310.5 1172.5,-310.5 1172.5,-291.5 1011.5,-291.5"/>
<text text-anchor="middle" x="1092" y="-298.5" font-family="Helvetica,sans-Serif" font-size="10.00">Engine/Renderer/Renderer.hpp</text>
</a>
</g>
</g>
<!-- Node1&#45;&gt;Node24 -->
<g id="edge34" class="edge"><title>Node1&#45;&gt;Node24</title>
<path fill="none" stroke="midnightblue" d="M339.218,-364.584C503.806,-350.901 839.361,-323.004 1000.99,-309.567"/>
<polygon fill="midnightblue" stroke="midnightblue" points="1001.7,-313.019 1011.38,-308.703 1001.12,-306.043 1001.7,-313.019"/>
</g>
<!-- Node3 -->
<g id="node3" class="node"><title>Node3</title>
<g id="a_node3"><a xlink:href="CoreMacros_8hpp.html" target="_top" xlink:title="Core/CoreMacros.hpp">
<polygon fill="white" stroke="black" points="310,-56.5 310,-75.5 430,-75.5 430,-56.5 310,-56.5"/>
<text text-anchor="middle" x="370" y="-63.5" font-family="Helvetica,sans-Serif" font-size="10.00">Core/CoreMacros.hpp</text>
</a>
</g>
</g>
<!-- Node2&#45;&gt;Node3 -->
<g id="edge2" class="edge"><title>Node2&#45;&gt;Node3</title>
<path fill="none" stroke="midnightblue" d="M209.265,-112.444C241.955,-103.201 294.182,-88.4356 330.183,-78.2572"/>
<polygon fill="midnightblue" stroke="midnightblue" points="331.206,-81.6051 339.877,-75.5164 329.302,-74.8691 331.206,-81.6051"/>
</g>
<!-- Node4 -->
<g id="node4" class="node"><title>Node4</title>
<polygon fill="white" stroke="#bfbfbf" points="405,-0.5 405,-19.5 457,-19.5 457,-0.5 405,-0.5"/>
<text text-anchor="middle" x="431" y="-7.5" font-family="Helvetica,sans-Serif" font-size="10.00">cassert</text>
</g>
<!-- Node3&#45;&gt;Node4 -->
<g id="edge3" class="edge"><title>Node3&#45;&gt;Node4</title>
<path fill="none" stroke="midnightblue" d="M379.801,-56.324C388.818,-48.3414 402.406,-36.3128 413.318,-26.6529"/>
<polygon fill="midnightblue" stroke="midnightblue" points="415.853,-29.083 421.021,-19.8339 411.213,-23.8416 415.853,-29.083"/>
</g>
<!-- Node5 -->
<g id="node5" class="node"><title>Node5</title>
<polygon fill="white" stroke="#bfbfbf" points="341.5,-0.5 341.5,-19.5 386.5,-19.5 386.5,-0.5 341.5,-0.5"/>
<text text-anchor="middle" x="364" y="-7.5" font-family="Helvetica,sans-Serif" font-size="10.00">cstdio</text>
</g>
<!-- Node3&#45;&gt;Node5 -->
<g id="edge4" class="edge"><title>Node3&#45;&gt;Node5</title>
<path fill="none" stroke="midnightblue" d="M369.009,-56.083C368.214,-48.9272 367.071,-38.6353 366.077,-29.6911"/>
<polygon fill="midnightblue" stroke="midnightblue" points="369.555,-29.3034 364.972,-19.7511 362.598,-30.0765 369.555,-29.3034"/>
</g>
<!-- Node3&#45;&gt;Node6 -->
<g id="edge5" class="edge"><title>Node3&#45;&gt;Node6</title>
<path fill="none" stroke="midnightblue" d="M317.235,-56.4435C250.455,-45.6144 136.917,-27.2028 76.9086,-17.4717"/>
<polygon fill="midnightblue" stroke="midnightblue" points="77.1315,-13.9622 66.7002,-15.8162 76.011,-20.8719 77.1315,-13.9622"/>
</g>
<!-- Node7 -->
<g id="node7" class="node"><title>Node7</title>
<polygon fill="white" stroke="#bfbfbf" points="158,-0.5 158,-19.5 214,-19.5 214,-0.5 158,-0.5"/>
<text text-anchor="middle" x="186" y="-7.5" font-family="Helvetica,sans-Serif" font-size="10.00">sstream</text>
</g>
<!-- Node3&#45;&gt;Node7 -->
<g id="edge6" class="edge"><title>Node3&#45;&gt;Node7</title>
<path fill="none" stroke="midnightblue" d="M340.845,-56.4435C309.21,-47.1594 258.585,-32.3022 223.889,-22.1197"/>
<polygon fill="midnightblue" stroke="midnightblue" points="224.695,-18.7085 214.114,-19.2508 222.724,-25.4252 224.695,-18.7085"/>
</g>
<!-- Node8 -->
<g id="node8" class="node"><title>Node8</title>
<polygon fill="white" stroke="#bfbfbf" points="269,-0.5 269,-19.5 317,-19.5 317,-0.5 269,-0.5"/>
<text text-anchor="middle" x="293" y="-7.5" font-family="Helvetica,sans-Serif" font-size="10.00">thread</text>
</g>
<!-- Node3&#45;&gt;Node8 -->
<g id="edge7" class="edge"><title>Node3&#45;&gt;Node8</title>
<path fill="none" stroke="midnightblue" d="M357.629,-56.324C345.842,-48.0577 327.868,-35.4527 313.864,-25.6322"/>
<polygon fill="midnightblue" stroke="midnightblue" points="315.538,-22.5307 305.341,-19.6545 311.518,-28.2619 315.538,-22.5307"/>
</g>
<!-- Node10&#45;&gt;Node7 -->
<g id="edge13" class="edge"><title>Node10&#45;&gt;Node7</title>
<path fill="none" stroke="midnightblue" d="M199.161,-291.452C160.798,-283.27 109.537,-269.981 95,-255 72.4009,-231.711 76,-216.951 76,-184.5 76,-184.5 76,-184.5 76,-121 76,-74.9105 124.882,-41.3874 157.474,-24.158"/>
<polygon fill="midnightblue" stroke="midnightblue" points="159.252,-27.1807 166.587,-19.5356 156.086,-20.9379 159.252,-27.1807"/>
</g>
<!-- Node11 -->
<g id="node11" class="node"><title>Node11</title>
<g id="a_node11"><a xlink:href="RaCore_8hpp.html" target="_top" xlink:title="Core/RaCore.hpp">
<polygon fill="white" stroke="black" points="754,-112.5 754,-131.5 852,-131.5 852,-112.5 754,-112.5"/>
<text text-anchor="middle" x="803" y="-119.5" font-family="Helvetica,sans-Serif" font-size="10.00">Core/RaCore.hpp</text>
</a>
</g>
</g>
<!-- Node10&#45;&gt;Node11 -->
<g id="edge11" class="edge"><title>Node10&#45;&gt;Node11</title>
<path fill="none" stroke="midnightblue" d="M246.494,-291.285C253.988,-266.872 278.822,-197.662 327,-168 395.373,-125.904 632.245,-121.733 743.898,-122.208"/>
<polygon fill="midnightblue" stroke="midnightblue" points="743.96,-125.708 753.98,-122.265 744,-118.708 743.96,-125.708"/>
</g>
<!-- Node12 -->
<g id="node12" class="node"><title>Node12</title>
<polygon fill="white" stroke="#bfbfbf" points="166.5,-235.5 166.5,-254.5 215.5,-254.5 215.5,-235.5 166.5,-235.5"/>
<text text-anchor="middle" x="191" y="-242.5" font-family="Helvetica,sans-Serif" font-size="10.00">stdio.h</text>
</g>
<!-- Node10&#45;&gt;Node12 -->
<g id="edge14" class="edge"><title>Node10&#45;&gt;Node12</title>
<path fill="none" stroke="midnightblue" d="M235.248,-291.083C227.53,-283.22 216.095,-271.569 206.783,-262.081"/>
<polygon fill="midnightblue" stroke="midnightblue" points="209.092,-259.436 199.589,-254.751 204.096,-264.34 209.092,-259.436"/>
</g>
<!-- Node13 -->
<g id="node13" class="node"><title>Node13</title>
<polygon fill="white" stroke="#bfbfbf" points="336,-174 336,-193 380,-193 380,-174 336,-174"/>
<text text-anchor="middle" x="358" y="-181" font-family="Helvetica,sans-Serif" font-size="10.00">string</text>
</g>
<!-- Node10&#45;&gt;Node13 -->
<g id="edge15" class="edge"><title>Node10&#45;&gt;Node13</title>
<path fill="none" stroke="midnightblue" d="M252.569,-291.319C271.632,-272.004 317.792,-225.237 342.225,-200.483"/>
<polygon fill="midnightblue" stroke="midnightblue" points="344.798,-202.858 349.332,-193.282 339.816,-197.941 344.798,-202.858"/>
</g>
<!-- Node14 -->
<g id="node14" class="node"><title>Node14</title>
<g id="a_node14"><a xlink:href="StringUtils_8hpp.html" target="_top" xlink:title="Core/String/StringUtils.hpp">
<polygon fill="white" stroke="black" points="386,-235.5 386,-254.5 530,-254.5 530,-235.5 386,-235.5"/>
<text text-anchor="middle" x="458" y="-242.5" font-family="Helvetica,sans-Serif" font-size="10.00">Core/String/StringUtils.hpp</text>
</a>
</g>
</g>
<!-- Node10&#45;&gt;Node14 -->
<g id="edge16" class="edge"><title>Node10&#45;&gt;Node14</title>
<path fill="none" stroke="midnightblue" d="M277.909,-291.444C314.849,-282.122 374.054,-267.183 414.418,-256.997"/>
<polygon fill="midnightblue" stroke="midnightblue" points="415.41,-260.357 424.25,-254.516 413.697,-253.57 415.41,-260.357"/>
</g>
<!-- Node16 -->
<g id="node16" class="node"><title>Node16</title>
<polygon fill="white" stroke="#bfbfbf" points="104,-235.5 104,-254.5 148,-254.5 148,-235.5 104,-235.5"/>
<text text-anchor="middle" x="126" y="-242.5" font-family="Helvetica,sans-Serif" font-size="10.00">ctime</text>
</g>
<!-- Node10&#45;&gt;Node16 -->
<g id="edge20" class="edge"><title>Node10&#45;&gt;Node16</title>
<path fill="none" stroke="midnightblue" d="M225.303,-291.444C206.056,-282.636 175.848,-268.812 153.8,-258.722"/>
<polygon fill="midnightblue" stroke="midnightblue" points="155.16,-255.495 144.61,-254.516 152.247,-261.86 155.16,-255.495"/>
</g>
<!-- Node11&#45;&gt;Node3 -->
<g id="edge12" class="edge"><title>Node11&#45;&gt;Node3</title>
<path fill="none" stroke="midnightblue" d="M753.751,-114.858C676.993,-105.286 528.521,-86.7693 440.454,-75.7864"/>
<polygon fill="midnightblue" stroke="midnightblue" points="440.641,-72.2827 430.285,-74.5182 439.775,-79.2289 440.641,-72.2827"/>
</g>
<!-- Node14&#45;&gt;Node11 -->
<g id="edge17" class="edge"><title>Node14&#45;&gt;Node11</title>
<path fill="none" stroke="midnightblue" d="M470.189,-235.288C492.862,-219.493 543.536,-186.091 591,-168 640.8,-149.019 700.393,-137.266 743.696,-130.553"/>
<polygon fill="midnightblue" stroke="midnightblue" points="744.416,-133.984 753.784,-129.035 743.374,-127.062 744.416,-133.984"/>
</g>
<!-- Node14&#45;&gt;Node13 -->
<g id="edge18" class="edge"><title>Node14&#45;&gt;Node13</title>
<path fill="none" stroke="midnightblue" d="M443.672,-235.475C427.336,-225.755 400.398,-209.727 381.088,-198.237"/>
<polygon fill="midnightblue" stroke="midnightblue" points="382.685,-195.115 372.301,-193.009 379.105,-201.13 382.685,-195.115"/>
</g>
<!-- Node15 -->
<g id="node15" class="node"><title>Node15</title>
<polygon fill="white" stroke="#bfbfbf" points="600.5,-174 600.5,-193 647.5,-193 647.5,-174 600.5,-174"/>
<text text-anchor="middle" x="624" y="-181" font-family="Helvetica,sans-Serif" font-size="10.00">vector</text>
</g>
<!-- Node14&#45;&gt;Node15 -->
<g id="edge19" class="edge"><title>Node14&#45;&gt;Node15</title>
<path fill="none" stroke="midnightblue" d="M481.784,-235.475C510.382,-225.225 558.551,-207.959 590.802,-196.399"/>
<polygon fill="midnightblue" stroke="midnightblue" points="592.028,-199.678 600.26,-193.009 589.666,-193.089 592.028,-199.678"/>
</g>
<!-- Node17&#45;&gt;Node8 -->
<g id="edge28" class="edge"><title>Node17&#45;&gt;Node8</title>
<path fill="none" stroke="midnightblue" d="M592.459,-294.135C516.161,-287.045 400.913,-273.694 361,-255 318.384,-235.04 282,-231.559 282,-184.5 282,-184.5 282,-184.5 282,-121 282,-88.7881 286.728,-51.5325 289.985,-29.692"/>
<polygon fill="midnightblue" stroke="midnightblue" points="293.487,-29.9472 291.562,-19.5287 286.57,-28.8736 293.487,-29.9472"/>
</g>
<!-- Node17&#45;&gt;Node11 -->
<g id="edge22" class="edge"><title>Node17&#45;&gt;Node11</title>
<path fill="none" stroke="midnightblue" d="M701.49,-291.424C722.584,-284.784 747.85,-273.502 764,-255 792.461,-222.393 800.172,-169.849 802.247,-141.902"/>
<polygon fill="midnightblue" stroke="midnightblue" points="805.762,-141.744 802.836,-131.561 798.773,-141.346 805.762,-141.744"/>
</g>
<!-- Node17&#45;&gt;Node13 -->
<g id="edge27" class="edge"><title>Node17&#45;&gt;Node13</title>
<path fill="none" stroke="midnightblue" d="M592.386,-297.502C517.905,-293.422 407.916,-282.753 377,-255 362.73,-242.19 358.69,-219.9 357.773,-203.808"/>
<polygon fill="midnightblue" stroke="midnightblue" points="361.264,-203.335 357.556,-193.41 354.266,-203.481 361.264,-203.335"/>
</g>
<!-- Node17&#45;&gt;Node15 -->
<g id="edge29" class="edge"><title>Node17&#45;&gt;Node15</title>
<path fill="none" stroke="midnightblue" d="M659.351,-291.228C654.75,-282.297 647.729,-267.958 643,-255 636.759,-237.899 631.541,-217.799 628.162,-203.446"/>
<polygon fill="midnightblue" stroke="midnightblue" points="631.493,-202.309 625.862,-193.334 624.667,-203.861 631.493,-202.309"/>
</g>
<!-- Node18 -->
<g id="node18" class="node"><title>Node18</title>
<polygon fill="white" stroke="#bfbfbf" points="652.5,-235.5 652.5,-254.5 755.5,-254.5 755.5,-235.5 652.5,-235.5"/>
<text text-anchor="middle" x="704" y="-242.5" font-family="Helvetica,sans-Serif" font-size="10.00">condition_variable</text>
</g>
<!-- Node17&#45;&gt;Node18 -->
<g id="edge23" class="edge"><title>Node17&#45;&gt;Node18</title>
<path fill="none" stroke="midnightblue" d="M670.605,-291.083C676.255,-283.455 684.545,-272.264 691.451,-262.941"/>
<polygon fill="midnightblue" stroke="midnightblue" points="694.378,-264.87 697.518,-254.751 688.753,-260.703 694.378,-264.87"/>
</g>
<!-- Node19 -->
<g id="node19" class="node"><title>Node19</title>
<polygon fill="white" stroke="#bfbfbf" points="548.5,-235.5 548.5,-254.5 595.5,-254.5 595.5,-235.5 548.5,-235.5"/>
<text text-anchor="middle" x="572" y="-242.5" font-family="Helvetica,sans-Serif" font-size="10.00">deque</text>
</g>
<!-- Node17&#45;&gt;Node19 -->
<g id="edge24" class="edge"><title>Node17&#45;&gt;Node19</title>
<path fill="none" stroke="midnightblue" d="M649.219,-291.324C634.733,-282.822 612.427,-269.729 595.507,-259.797"/>
<polygon fill="midnightblue" stroke="midnightblue" points="597.141,-256.698 586.745,-254.655 593.597,-262.735 597.141,-256.698"/>
</g>
<!-- Node20 -->
<g id="node20" class="node"><title>Node20</title>
<polygon fill="white" stroke="#bfbfbf" points="812.5,-235.5 812.5,-254.5 869.5,-254.5 869.5,-235.5 812.5,-235.5"/>
<text text-anchor="middle" x="841" y="-242.5" font-family="Helvetica,sans-Serif" font-size="10.00">memory</text>
</g>
<!-- Node17&#45;&gt;Node20 -->
<g id="edge25" class="edge"><title>Node17&#45;&gt;Node20</title>
<path fill="none" stroke="midnightblue" d="M692.046,-291.444C722.082,-282.28 769.913,-267.688 803.243,-257.519"/>
<polygon fill="midnightblue" stroke="midnightblue" points="804.542,-260.782 813.085,-254.516 802.499,-254.087 804.542,-260.782"/>
</g>
<!-- Node21 -->
<g id="node21" class="node"><title>Node21</title>
<polygon fill="white" stroke="#bfbfbf" points="887.5,-235.5 887.5,-254.5 934.5,-254.5 934.5,-235.5 887.5,-235.5"/>
<text text-anchor="middle" x="911" y="-242.5" font-family="Helvetica,sans-Serif" font-size="10.00">mutex</text>
</g>
<!-- Node17&#45;&gt;Node21 -->
<g id="edge26" class="edge"><title>Node17&#45;&gt;Node21</title>
<path fill="none" stroke="midnightblue" d="M708.436,-291.451C749.719,-283.33 813.12,-270.409 877.354,-255.043"/>
<polygon fill="midnightblue" stroke="midnightblue" points="878.349,-258.403 887.25,-252.657 876.708,-251.598 878.349,-258.403"/>
</g>
<!-- Node17&#45;&gt;Node22 -->
<g id="edge30" class="edge"><title>Node17&#45;&gt;Node22</title>
<path fill="none" stroke="midnightblue" d="M725.004,-291.444C794.666,-281.673 908.337,-265.729 980.851,-255.559"/>
<polygon fill="midnightblue" stroke="midnightblue" points="981.384,-259.018 990.801,-254.163 980.412,-252.086 981.384,-259.018"/>
</g>
<!-- Node22&#45;&gt;Node11 -->
<g id="edge31" class="edge"><title>Node22&#45;&gt;Node11</title>
<path fill="none" stroke="midnightblue" d="M998.803,-235.481C941.315,-225.362 853.422,-208.643 841,-199 822.647,-184.753 812.493,-159.269 807.397,-141.768"/>
<polygon fill="midnightblue" stroke="midnightblue" points="810.659,-140.408 804.742,-131.619 803.886,-142.179 810.659,-140.408"/>
</g>
<!-- Node23 -->
<g id="node23" class="node"><title>Node23</title>
<polygon fill="white" stroke="#bfbfbf" points="850,-174 850,-193 900,-193 900,-174 850,-174"/>
<text text-anchor="middle" x="875" y="-181" font-family="Helvetica,sans-Serif" font-size="10.00">chrono</text>
</g>
<!-- Node22&#45;&gt;Node23 -->
<g id="edge32" class="edge"><title>Node22&#45;&gt;Node23</title>
<path fill="none" stroke="midnightblue" d="M1019.77,-235.464C991.265,-226.936 946.794,-213.099 909,-199 907.347,-198.383 905.656,-197.732 903.955,-197.06"/>
<polygon fill="midnightblue" stroke="midnightblue" points="904.874,-193.653 894.294,-193.093 902.215,-200.129 904.874,-193.653"/>
</g>
<!-- Node24&#45;&gt;Node15 -->
<g id="edge41" class="edge"><title>Node24&#45;&gt;Node15</title>
<path fill="none" stroke="midnightblue" d="M1069.43,-291.418C1047.02,-282.748 1011.81,-268.709 982,-255 964.302,-246.86 961.519,-241.043 943,-235 842.636,-202.249 717.348,-190.356 658.087,-186.356"/>
<polygon fill="midnightblue" stroke="midnightblue" points="658.015,-182.845 647.811,-185.698 657.567,-189.83 658.015,-182.845"/>
</g>
<!-- Node24&#45;&gt;Node20 -->
<g id="edge39" class="edge"><title>Node24&#45;&gt;Node20</title>
<path fill="none" stroke="midnightblue" d="M1049.28,-291.428C1008.14,-283.079 943.897,-269.806 879.567,-255.308"/>
<polygon fill="midnightblue" stroke="midnightblue" points="880.188,-251.86 869.662,-253.066 878.643,-258.687 880.188,-251.86"/>
</g>
<!-- Node24&#45;&gt;Node21 -->
<g id="edge40" class="edge"><title>Node24&#45;&gt;Node21</title>
<path fill="none" stroke="midnightblue" d="M1063.32,-291.444C1031.07,-281.822 978.757,-266.215 944.614,-256.028"/>
<polygon fill="midnightblue" stroke="midnightblue" points="945.226,-252.559 934.643,-253.054 943.225,-259.267 945.226,-252.559"/>
</g>
<!-- Node24&#45;&gt;Node22 -->
<g id="edge58" class="edge"><title>Node24&#45;&gt;Node22</title>
<path fill="none" stroke="midnightblue" d="M1084.9,-291.083C1078.76,-283.377 1069.73,-272.033 1062.26,-262.653"/>
<polygon fill="midnightblue" stroke="midnightblue" points="1064.94,-260.394 1055.97,-254.751 1059.46,-264.754 1064.94,-260.394"/>
</g>
<!-- Node24&#45;&gt;Node23 -->
<g id="edge38" class="edge"><title>Node24&#45;&gt;Node23</title>
<path fill="none" stroke="midnightblue" d="M1100.01,-291.487C1111.62,-278.107 1130.25,-251.939 1116,-235 1055.89,-163.536 998.544,-225.492 909,-199 906.85,-198.364 904.654,-197.631 902.464,-196.841"/>
<polygon fill="midnightblue" stroke="midnightblue" points="903.652,-193.547 893.066,-193.119 901.075,-200.055 903.652,-193.547"/>
</g>
<!-- Node25 -->
<g id="node25" class="node"><title>Node25</title>
<g id="a_node25"><a xlink:href="RaEngine_8hpp.html" target="_top" xlink:title="Engine/RaEngine.hpp">
<polygon fill="white" stroke="black" points="1969.5,-112.5 1969.5,-131.5 2086.5,-131.5 2086.5,-112.5 1969.5,-112.5"/>
<text text-anchor="middle" x="2028" y="-119.5" font-family="Helvetica,sans-Serif" font-size="10.00">Engine/RaEngine.hpp</text>
</a>
</g>
</g>
<!-- Node24&#45;&gt;Node25 -->
<g id="edge35" class="edge"><title>Node24&#45;&gt;Node25</title>
<path fill="none" stroke="midnightblue" d="M1172.81,-297.692C1360.78,-291.196 1821.7,-268.456 1958,-199 1984.13,-185.684 2005.44,-158.376 2017.42,-140.381"/>
<polygon fill="midnightblue" stroke="midnightblue" points="2020.38,-142.254 2022.82,-131.943 2014.48,-138.483 2020.38,-142.254"/>
</g>
<!-- Node26 -->
<g id="node26" class="node"><title>Node26</title>
<polygon fill="white" stroke="#bfbfbf" points="1426.5,-235.5 1426.5,-254.5 1467.5,-254.5 1467.5,-235.5 1426.5,-235.5"/>
<text text-anchor="middle" x="1447" y="-242.5" font-family="Helvetica,sans-Serif" font-size="10.00">array</text>
</g>
<!-- Node24&#45;&gt;Node26 -->
<g id="edge37" class="edge"><title>Node24&#45;&gt;Node26</title>
<path fill="none" stroke="midnightblue" d="M1172.74,-292.313C1236.49,-285.44 1327.75,-273.824 1416.48,-254.79"/>
<polygon fill="midnightblue" stroke="midnightblue" points="1417.43,-258.167 1426.45,-252.619 1415.94,-251.328 1417.43,-258.167"/>
</g>
<!-- Node27 -->
<g id="node27" class="node"><title>Node27</title>
<g id="a_node27"><a xlink:href="EventEnums_8hpp.html" target="_top" xlink:title="Core/Event/EventEnums.hpp">
<polygon fill="white" stroke="black" points="918.5,-174 918.5,-193 1071.5,-193 1071.5,-174 918.5,-174"/>
<text text-anchor="middle" x="995" y="-181" font-family="Helvetica,sans-Serif" font-size="10.00">Core/Event/EventEnums.hpp</text>
</a>
</g>
</g>
<!-- Node24&#45;&gt;Node27 -->
<g id="edge42" class="edge"><title>Node24&#45;&gt;Node27</title>
<path fill="none" stroke="midnightblue" d="M1109.39,-291.397C1131.37,-279.351 1164.59,-256.514 1149,-235 1136.94,-218.353 1088.48,-204.258 1049.1,-195.224"/>
<polygon fill="midnightblue" stroke="midnightblue" points="1049.83,-191.802 1039.31,-193.038 1048.3,-198.633 1049.83,-191.802"/>
</g>
<!-- Node28 -->
<g id="node28" class="node"><title>Node28</title>
<g id="a_node28"><a xlink:href="LinearAlgebra_8hpp.html" target="_top" xlink:title="Core/Math/LinearAlgebra.hpp">
<polygon fill="white" stroke="black" points="1252,-235.5 1252,-254.5 1408,-254.5 1408,-235.5 1252,-235.5"/>
<text text-anchor="middle" x="1330" y="-242.5" font-family="Helvetica,sans-Serif" font-size="10.00">Core/Math/LinearAlgebra.hpp</text>
</a>
</g>
</g>
<!-- Node24&#45;&gt;Node28 -->
<g id="edge44" class="edge"><title>Node24&#45;&gt;Node28</title>
<path fill="none" stroke="midnightblue" d="M1129.71,-291.444C1171.14,-282.043 1237.76,-266.929 1282.67,-256.739"/>
<polygon fill="midnightblue" stroke="midnightblue" points="1283.49,-260.142 1292.46,-254.516 1281.94,-253.316 1283.49,-260.142"/>
</g>
<!-- Node25&#45;&gt;Node3 -->
<g id="edge36" class="edge"><title>Node25&#45;&gt;Node3</title>
<path fill="none" stroke="midnightblue" d="M1969.44,-112.858C1966.25,-112.537 1963.09,-112.247 1960,-112 1374.03,-65.0567 663.173,-65.068 440.286,-66.4042"/>
<polygon fill="midnightblue" stroke="midnightblue" points="440.021,-62.9057 430.043,-66.4686 440.065,-69.9055 440.021,-62.9057"/>
</g>
<!-- Node27&#45;&gt;Node11 -->
<g id="edge43" class="edge"><title>Node27&#45;&gt;Node11</title>
<path fill="none" stroke="midnightblue" d="M967.491,-173.975C934.129,-163.636 877.738,-146.161 840.437,-134.602"/>
<polygon fill="midnightblue" stroke="midnightblue" points="841.046,-131.126 830.458,-131.509 838.974,-137.812 841.046,-131.126"/>
</g>
<!-- Node28&#45;&gt;Node11 -->
<g id="edge45" class="edge"><title>Node28&#45;&gt;Node11</title>
<path fill="none" stroke="midnightblue" d="M1251.81,-236.063C1210.8,-229.77 1160.58,-218.619 1119,-199 1098.98,-189.552 1100.25,-176.954 1080,-168 1009.38,-136.774 920.037,-126.964 862.217,-124.021"/>
<polygon fill="midnightblue" stroke="midnightblue" points="862.304,-120.522 852.154,-123.562 861.985,-127.515 862.304,-120.522"/>
</g>
<!-- Node29 -->
<g id="node29" class="node"><title>Node29</title>
<polygon fill="white" stroke="#bfbfbf" points="1637,-174 1637,-193 1705,-193 1705,-174 1637,-174"/>
<text text-anchor="middle" x="1671" y="-181" font-family="Helvetica,sans-Serif" font-size="10.00">Eigen/Core</text>
</g>
<!-- Node28&#45;&gt;Node29 -->
<g id="edge46" class="edge"><title>Node28&#45;&gt;Node29</title>
<path fill="none" stroke="midnightblue" d="M1408.22,-235.989C1468.75,-228.878 1554.39,-216.823 1628,-199 1631.4,-198.178 1634.9,-197.206 1638.39,-196.16"/>
<polygon fill="midnightblue" stroke="midnightblue" points="1639.55,-199.462 1648.01,-193.081 1637.42,-192.795 1639.55,-199.462"/>
</g>
<!-- Node30 -->
<g id="node30" class="node"><title>Node30</title>
<polygon fill="white" stroke="#bfbfbf" points="1723,-174 1723,-193 1817,-193 1817,-174 1723,-174"/>
<text text-anchor="middle" x="1770" y="-181" font-family="Helvetica,sans-Serif" font-size="10.00">Eigen/Geometry</text>
</g>
<!-- Node28&#45;&gt;Node30 -->
<g id="edge47" class="edge"><title>Node28&#45;&gt;Node30</title>
<path fill="none" stroke="midnightblue" d="M1407.48,-235.495C1510.95,-224.049 1684.68,-204.487 1714,-199 1719.37,-197.995 1724.98,-196.763 1730.49,-195.446"/>
<polygon fill="midnightblue" stroke="midnightblue" points="1731.38,-198.832 1740.24,-193.013 1729.69,-192.041 1731.38,-198.832"/>
</g>
<!-- Node31 -->
<g id="node31" class="node"><title>Node31</title>
<polygon fill="white" stroke="#bfbfbf" points="1128,-174 1128,-193 1208,-193 1208,-174 1128,-174"/>
<text text-anchor="middle" x="1168" y="-181" font-family="Helvetica,sans-Serif" font-size="10.00">Eigen/Sparse</text>
</g>
<!-- Node28&#45;&gt;Node31 -->
<g id="edge48" class="edge"><title>Node28&#45;&gt;Node31</title>
<path fill="none" stroke="midnightblue" d="M1306.79,-235.475C1279,-225.269 1232.28,-208.108 1200.81,-196.549"/>
<polygon fill="midnightblue" stroke="midnightblue" points="1201.76,-193.171 1191.17,-193.009 1199.35,-199.742 1201.76,-193.171"/>
</g>
<!-- Node32 -->
<g id="node32" class="node"><title>Node32</title>
<polygon fill="white" stroke="#bfbfbf" points="1226.5,-174 1226.5,-193 1289.5,-193 1289.5,-174 1226.5,-174"/>
<text text-anchor="middle" x="1258" y="-181" font-family="Helvetica,sans-Serif" font-size="10.00">functional</text>
</g>
<!-- Node28&#45;&gt;Node32 -->
<g id="edge49" class="edge"><title>Node28&#45;&gt;Node32</title>
<path fill="none" stroke="midnightblue" d="M1319.68,-235.475C1308.35,-226.108 1289.93,-210.884 1276.16,-199.508"/>
<polygon fill="midnightblue" stroke="midnightblue" points="1278.23,-196.681 1268.3,-193.009 1273.78,-202.077 1278.23,-196.681"/>
</g>
<!-- Node33 -->
<g id="node33" class="node"><title>Node33</title>
<polygon fill="white" stroke="#bfbfbf" points="1307.5,-168.5 1307.5,-198.5 1452.5,-198.5 1452.5,-168.5 1307.5,-168.5"/>
<text text-anchor="start" x="1315.5" y="-186.5" font-family="Helvetica,sans-Serif" font-size="10.00">unsupported/Eigen/Aligned</text>
<text text-anchor="middle" x="1380" y="-175.5" font-family="Helvetica,sans-Serif" font-size="10.00">Vector3</text>
</g>
<!-- Node28&#45;&gt;Node33 -->
<g id="edge50" class="edge"><title>Node28&#45;&gt;Node33</title>
<path fill="none" stroke="midnightblue" d="M1337.16,-235.475C1343.56,-227.869 1353.19,-216.399 1361.71,-206.265"/>
<polygon fill="midnightblue" stroke="midnightblue" points="1364.46,-208.43 1368.22,-198.523 1359.1,-203.927 1364.46,-208.43"/>
</g>
<!-- Node34 -->
<g id="node34" class="node"><title>Node34</title>
<g id="a_node34"><a xlink:href="Math_8hpp.html" target="_top" xlink:title="Core/Math/Math.hpp">
<polygon fill="white" stroke="black" points="1835,-174 1835,-193 1949,-193 1949,-174 1835,-174"/>
<text text-anchor="middle" x="1892" y="-181" font-family="Helvetica,sans-Serif" font-size="10.00">Core/Math/Math.hpp</text>
</a>
</g>
</g>
<!-- Node28&#45;&gt;Node34 -->
<g id="edge51" class="edge"><title>Node28&#45;&gt;Node34</title>
<path fill="none" stroke="midnightblue" d="M1408.25,-235.848C1411.2,-235.559 1414.13,-235.275 1417,-235 1598.65,-217.611 1645.62,-226.635 1826,-199 1832.86,-197.95 1840.07,-196.611 1847.1,-195.173"/>
<polygon fill="midnightblue" stroke="midnightblue" points="1848.17,-198.524 1857.22,-193.018 1846.71,-191.678 1848.17,-198.524"/>
</g>
<!-- Node38 -->
<g id="node38" class="node"><title>Node38</title>
<g id="a_node38"><a xlink:href="LinearAlgebra_8inl.html" target="_top" xlink:title="Core/Math/LinearAlgebra.inl">
<polygon fill="white" stroke="black" points="1470.5,-174 1470.5,-193 1619.5,-193 1619.5,-174 1470.5,-174"/>
<text text-anchor="middle" x="1545" y="-181" font-family="Helvetica,sans-Serif" font-size="10.00">Core/Math/LinearAlgebra.inl</text>
</a>
</g>
</g>
<!-- Node28&#45;&gt;Node38 -->
<g id="edge57" class="edge"><title>Node28&#45;&gt;Node38</title>
<path fill="none" stroke="midnightblue" d="M1360.8,-235.475C1398.56,-225.026 1462.66,-207.287 1504.41,-195.733"/>
<polygon fill="midnightblue" stroke="midnightblue" points="1505.55,-199.05 1514.25,-193.009 1503.68,-192.303 1505.55,-199.05"/>
</g>
<!-- Node34&#45;&gt;Node11 -->
<g id="edge52" class="edge"><title>Node34&#45;&gt;Node11</title>
<path fill="none" stroke="midnightblue" d="M1858.62,-173.996C1848.24,-171.667 1836.7,-169.4 1826,-168 1637.66,-143.355 1050.93,-128.499 862.152,-124.262"/>
<polygon fill="midnightblue" stroke="midnightblue" points="862.216,-120.762 852.141,-124.038 862.06,-127.761 862.216,-120.762"/>
</g>
<!-- Node35 -->
<g id="node35" class="node"><title>Node35</title>
<polygon fill="white" stroke="#bfbfbf" points="1824,-112.5 1824,-131.5 1886,-131.5 1886,-112.5 1824,-112.5"/>
<text text-anchor="middle" x="1855" y="-119.5" font-family="Helvetica,sans-Serif" font-size="10.00">algorithm</text>
</g>
<!-- Node34&#45;&gt;Node35 -->
<g id="edge53" class="edge"><title>Node34&#45;&gt;Node35</title>
<path fill="none" stroke="midnightblue" d="M1886.7,-173.975C1881.26,-165.227 1872.64,-151.369 1865.76,-140.309"/>
<polygon fill="midnightblue" stroke="midnightblue" points="1868.54,-138.153 1860.29,-131.509 1862.6,-141.849 1868.54,-138.153"/>
</g>
<!-- Node36 -->
<g id="node36" class="node"><title>Node36</title>
<polygon fill="white" stroke="#bfbfbf" points="1904.5,-112.5 1904.5,-131.5 1951.5,-131.5 1951.5,-112.5 1904.5,-112.5"/>
<text text-anchor="middle" x="1928" y="-119.5" font-family="Helvetica,sans-Serif" font-size="10.00">cmath</text>
</g>
<!-- Node34&#45;&gt;Node36 -->
<g id="edge54" class="edge"><title>Node34&#45;&gt;Node36</title>
<path fill="none" stroke="midnightblue" d="M1897.16,-173.975C1902.45,-165.227 1910.84,-151.369 1917.53,-140.309"/>
<polygon fill="midnightblue" stroke="midnightblue" points="1920.67,-141.877 1922.85,-131.509 1914.68,-138.253 1920.67,-141.877"/>
</g>
<!-- Node37 -->
<g id="node37" class="node"><title>Node37</title>
<g id="a_node37"><a xlink:href="Math_8inl.html" target="_top" xlink:title="Core/Math/Math.inl">
<polygon fill="white" stroke="black" points="1699.5,-112.5 1699.5,-131.5 1806.5,-131.5 1806.5,-112.5 1699.5,-112.5"/>
<text text-anchor="middle" x="1753" y="-119.5" font-family="Helvetica,sans-Serif" font-size="10.00">Core/Math/Math.inl</text>
</a>
</g>
</g>
<!-- Node34&#45;&gt;Node37 -->
<g id="edge55" class="edge"><title>Node34&#45;&gt;Node37</title>
<path fill="none" stroke="midnightblue" d="M1867.18,-173.975C1841.68,-163.99 1802.55,-147.348 1777.26,-135.807"/>
<polygon fill="midnightblue" stroke="midnightblue" points="1778.53,-132.538 1767.98,-131.509 1775.58,-138.889 1778.53,-132.538"/>
</g>
<!-- Node37&#45;&gt;Node34 -->
<g id="edge56" class="edge"><title>Node37&#45;&gt;Node34</title>
<path fill="none" stroke="midnightblue" d="M1777.78,-131.509C1803.27,-141.487 1842.4,-158.129 1867.7,-169.674"/>
<polygon fill="midnightblue" stroke="midnightblue" points="1866.44,-172.946 1876.99,-173.975 1869.38,-166.595 1866.44,-172.946"/>
</g>
</g>
</svg>
