<?xml version="1.0" encoding="UTF-8" standalone="no"?>
<!DOCTYPE svg PUBLIC "-//W3C//DTD SVG 1.1//EN"
 "http://www.w3.org/Graphics/SVG/1.1/DTD/svg11.dtd">
<!-- Generated by graphviz version 2.38.0 (20140413.2041)
 -->
<!-- Title: /home/travis/build/STORM&#45;IRIT/Radium&#45;Engine/src/Core/Containers/Grid.inl Pages: 1 -->
<svg width="362pt" height="284pt"
 viewBox="0.00 0.00 362.00 284.00" xmlns="http://www.w3.org/2000/svg" xmlns:xlink="http://www.w3.org/1999/xlink">
<g id="graph0" class="graph" transform="scale(1 1) rotate(0) translate(4 280)">
<title>/home/travis/build/STORM&#45;IRIT/Radium&#45;Engine/src/Core/Containers/Grid.inl</title>
<polygon fill="white" stroke="none" points="-4,4 -4,-280 358,-280 358,4 -4,4"/>
<!-- Node1 -->
<g id="node1" class="node"><title>Node1</title>
<polygon fill="#bfbfbf" stroke="black" points="94.5,-234.5 94.5,-275.5 244.5,-275.5 244.5,-234.5 94.5,-234.5"/>
<text text-anchor="start" x="102.5" y="-263.5" font-family="Helvetica,sans-Serif" font-size="10.00">/home/travis/build</text>
<text text-anchor="start" x="102.5" y="-252.5" font-family="Helvetica,sans-Serif" font-size="10.00">/STORM&#45;IRIT/Radium&#45;Engine</text>
<text text-anchor="middle" x="169.5" y="-241.5" font-family="Helvetica,sans-Serif" font-size="10.00">/src/Core/Containers/Grid.inl</text>
</g>
<!-- Node2 -->
<g id="node2" class="node"><title>Node2</title>
<g id="a_node2"><a xlink:href="Grid_8hpp.html" target="_top" xlink:title="/home/travis/build\l/STORM&#45;IRIT/Radium&#45;Engine\l/src/Core/Containers/Grid.hpp">
<polygon fill="white" stroke="black" points="90.5,-156.5 90.5,-197.5 248.5,-197.5 248.5,-156.5 90.5,-156.5"/>
<text text-anchor="start" x="98.5" y="-185.5" font-family="Helvetica,sans-Serif" font-size="10.00">/home/travis/build</text>
<text text-anchor="start" x="98.5" y="-174.5" font-family="Helvetica,sans-Serif" font-size="10.00">/STORM&#45;IRIT/Radium&#45;Engine</text>
<text text-anchor="middle" x="169.5" y="-163.5" font-family="Helvetica,sans-Serif" font-size="10.00">/src/Core/Containers/Grid.hpp</text>
</a>
</g>
</g>
<!-- Node1&#45;&gt;Node2 -->
<g id="edge1" class="edge"><title>Node1&#45;&gt;Node2</title>
<path fill="none" stroke="midnightblue" d="M162.895,-224.297C162.576,-215.301 162.783,-205.653 163.518,-197.506"/>
<polygon fill="midnightblue" stroke="midnightblue" points="159.411,-224.659 163.512,-234.428 166.398,-224.234 159.411,-224.659"/>
</g>
<!-- Node2&#45;&gt;Node1 -->
<g id="edge2" class="edge"><title>Node2&#45;&gt;Node1</title>
<path fill="none" stroke="midnightblue" d="M176.102,-207.63C176.424,-216.622 176.22,-226.272 175.488,-234.428"/>
<polygon fill="midnightblue" stroke="midnightblue" points="179.587,-207.273 175.482,-197.506 172.6,-207.701 179.587,-207.273"/>
</g>
<!-- Node3 -->
<g id="node3" class="node"><title>Node3</title>
<g id="a_node3"><a xlink:href="Tex_8hpp.html" target="_top" xlink:title="/home/travis/build\l/STORM&#45;IRIT/Radium&#45;Engine\l/src/Core/Containers/Tex.hpp">
<polygon fill="white" stroke="black" points="0,-78.5 0,-119.5 153,-119.5 153,-78.5 0,-78.5"/>
<text text-anchor="start" x="8" y="-107.5" font-family="Helvetica,sans-Serif" font-size="10.00">/home/travis/build</text>
<text text-anchor="start" x="8" y="-96.5" font-family="Helvetica,sans-Serif" font-size="10.00">/STORM&#45;IRIT/Radium&#45;Engine</text>
<text text-anchor="middle" x="76.5" y="-85.5" font-family="Helvetica,sans-Serif" font-size="10.00">/src/Core/Containers/Tex.hpp</text>
</a>
</g>
</g>
<!-- Node2&#45;&gt;Node3 -->
<g id="edge3" class="edge"><title>Node2&#45;&gt;Node3</title>
<path fill="none" stroke="midnightblue" d="M137.763,-150.065C125.518,-140.057 111.748,-128.804 100.369,-119.506"/>
<polygon fill="midnightblue" stroke="midnightblue" points="135.592,-152.81 145.55,-156.428 140.022,-147.39 135.592,-152.81"/>
</g>
<!-- Node5 -->
<g id="node5" class="node"><title>Node5</title>
<g id="a_node5"><a xlink:href="MeshPrimitives_8cpp.html" target="_top" xlink:title="/home/travis/build\l/STORM&#45;IRIT/Radium&#45;Engine\l/src/Core/Mesh/MeshPrimitives.cpp">
<polygon fill="white" stroke="black" points="171,-78.5 171,-119.5 354,-119.5 354,-78.5 171,-78.5"/>
<text text-anchor="start" x="179" y="-107.5" font-family="Helvetica,sans-Serif" font-size="10.00">/home/travis/build</text>
<text text-anchor="start" x="179" y="-96.5" font-family="Helvetica,sans-Serif" font-size="10.00">/STORM&#45;IRIT/Radium&#45;Engine</text>
<text text-anchor="middle" x="262.5" y="-85.5" font-family="Helvetica,sans-Serif" font-size="10.00">/src/Core/Mesh/MeshPrimitives.cpp</text>
</a>
</g>
</g>
<!-- Node2&#45;&gt;Node5 -->
<g id="edge6" class="edge"><title>Node2&#45;&gt;Node5</title>
<path fill="none" stroke="midnightblue" d="M201.237,-150.065C213.482,-140.057 227.252,-128.804 238.631,-119.506"/>
<polygon fill="midnightblue" stroke="midnightblue" points="198.978,-147.39 193.45,-156.428 203.408,-152.81 198.978,-147.39"/>
</g>
<!-- Node4 -->
<g id="node4" class="node"><title>Node4</title>
<g id="a_node4"><a xlink:href="Tex_8inl.html" target="_top" xlink:title="/home/travis/build\l/STORM&#45;IRIT/Radium&#45;Engine\l/src/Core/Containers/Tex.inl">
<polygon fill="white" stroke="black" points="2.5,-0.5 2.5,-41.5 150.5,-41.5 150.5,-0.5 2.5,-0.5"/>
<text text-anchor="start" x="10.5" y="-29.5" font-family="Helvetica,sans-Serif" font-size="10.00">/home/travis/build</text>
<text text-anchor="start" x="10.5" y="-18.5" font-family="Helvetica,sans-Serif" font-size="10.00">/STORM&#45;IRIT/Radium&#45;Engine</text>
<text text-anchor="middle" x="76.5" y="-7.5" font-family="Helvetica,sans-Serif" font-size="10.00">/src/Core/Containers/Tex.inl</text>
</a>
</g>
</g>
<!-- Node3&#45;&gt;Node4 -->
<g id="edge4" class="edge"><title>Node3&#45;&gt;Node4</title>
<path fill="none" stroke="midnightblue" d="M69.8951,-68.2965C69.5759,-59.3009 69.7834,-49.6532 70.5177,-41.5056"/>
<polygon fill="midnightblue" stroke="midnightblue" points="66.4106,-68.6593 70.5118,-78.4281 73.3977,-68.2339 66.4106,-68.6593"/>
</g>
<!-- Node4&#45;&gt;Node3 -->
<g id="edge5" class="edge"><title>Node4&#45;&gt;Node3</title>
<path fill="none" stroke="midnightblue" d="M83.1023,-51.6303C83.4244,-60.6224 83.2197,-70.2724 82.4882,-78.4281"/>
<polygon fill="midnightblue" stroke="midnightblue" points="86.5871,-51.2729 82.4823,-41.5056 79.6002,-51.7008 86.5871,-51.2729"/>
</g>
</g>
</svg>
