<?xml version="1.0" encoding="UTF-8" standalone="no"?>
<!DOCTYPE svg PUBLIC "-//W3C//DTD SVG 1.1//EN"
 "http://www.w3.org/Graphics/SVG/1.1/DTD/svg11.dtd">
<!-- Generated by graphviz version 2.38.0 (20140413.2041)
 -->
<!-- Title: /home/travis/build/STORM&#45;IRIT/Radium&#45;Engine/src/Core/Animation/Handle/Handle.inl Pages: 1 -->
<svg width="1216pt" height="584pt"
 viewBox="0.00 0.00 1215.50 584.00" xmlns="http://www.w3.org/2000/svg" xmlns:xlink="http://www.w3.org/1999/xlink">
<g id="graph0" class="graph" transform="scale(1 1) rotate(0) translate(4 580)">
<title>/home/travis/build/STORM&#45;IRIT/Radium&#45;Engine/src/Core/Animation/Handle/Handle.inl</title>
<polygon fill="white" stroke="none" points="-4,4 -4,-580 1211.5,-580 1211.5,4 -4,4"/>
<!-- Node1 -->
<g id="node1" class="node"><title>Node1</title>
<polygon fill="#bfbfbf" stroke="black" points="232,-523.5 232,-575.5 380,-575.5 380,-523.5 232,-523.5"/>
<text text-anchor="start" x="240" y="-563.5" font-family="Helvetica,sans-Serif" font-size="10.00">/home/travis/build</text>
<text text-anchor="start" x="240" y="-552.5" font-family="Helvetica,sans-Serif" font-size="10.00">/STORM&#45;IRIT/Radium&#45;Engine</text>
<text text-anchor="start" x="240" y="-541.5" font-family="Helvetica,sans-Serif" font-size="10.00">/src/Core/Animation/Handle</text>
<text text-anchor="middle" x="306" y="-530.5" font-family="Helvetica,sans-Serif" font-size="10.00">/Handle.inl</text>
</g>
<!-- Node2 -->
<g id="node2" class="node"><title>Node2</title>
<g id="a_node2"><a xlink:href="Handle_8hpp.html" target="_top" xlink:title="/home/travis/build\l/STORM&#45;IRIT/Radium&#45;Engine\l/src/Core/Animation/Handle\l/Handle.hpp">
<polygon fill="white" stroke="black" points="232,-434.5 232,-486.5 380,-486.5 380,-434.5 232,-434.5"/>
<text text-anchor="start" x="240" y="-474.5" font-family="Helvetica,sans-Serif" font-size="10.00">/home/travis/build</text>
<text text-anchor="start" x="240" y="-463.5" font-family="Helvetica,sans-Serif" font-size="10.00">/STORM&#45;IRIT/Radium&#45;Engine</text>
<text text-anchor="start" x="240" y="-452.5" font-family="Helvetica,sans-Serif" font-size="10.00">/src/Core/Animation/Handle</text>
<text text-anchor="middle" x="306" y="-441.5" font-family="Helvetica,sans-Serif" font-size="10.00">/Handle.hpp</text>
</a>
</g>
</g>
<!-- Node1&#45;&gt;Node2 -->
<g id="edge1" class="edge"><title>Node1&#45;&gt;Node2</title>
<path fill="none" stroke="midnightblue" d="M299.358,-513.191C299.121,-504.282 299.275,-494.899 299.818,-486.607"/>
<polygon fill="midnightblue" stroke="midnightblue" points="295.868,-513.503 299.814,-523.336 302.861,-513.189 295.868,-513.503"/>
</g>
<!-- Node2&#45;&gt;Node1 -->
<g id="edge5" class="edge"><title>Node2&#45;&gt;Node1</title>
<path fill="none" stroke="midnightblue" d="M312.641,-496.749C312.879,-505.655 312.727,-515.04 312.186,-523.336"/>
<polygon fill="midnightblue" stroke="midnightblue" points="316.131,-496.439 312.182,-486.607 309.138,-496.755 316.131,-496.439"/>
</g>
<!-- Node3 -->
<g id="node3" class="node"><title>Node3</title>
<g id="a_node3"><a xlink:href="Cage_8hpp.html" target="_top" xlink:title="/home/travis/build\l/STORM&#45;IRIT/Radium&#45;Engine\l/src/Core/Animation/Handle\l/Cage.hpp">
<polygon fill="white" stroke="black" points="50,-345.5 50,-397.5 198,-397.5 198,-345.5 50,-345.5"/>
<text text-anchor="start" x="58" y="-385.5" font-family="Helvetica,sans-Serif" font-size="10.00">/home/travis/build</text>
<text text-anchor="start" x="58" y="-374.5" font-family="Helvetica,sans-Serif" font-size="10.00">/STORM&#45;IRIT/Radium&#45;Engine</text>
<text text-anchor="start" x="58" y="-363.5" font-family="Helvetica,sans-Serif" font-size="10.00">/src/Core/Animation/Handle</text>
<text text-anchor="middle" x="124" y="-352.5" font-family="Helvetica,sans-Serif" font-size="10.00">/Cage.hpp</text>
</a>
</g>
</g>
<!-- Node2&#45;&gt;Node3 -->
<g id="edge2" class="edge"><title>Node2&#45;&gt;Node3</title>
<path fill="none" stroke="midnightblue" d="M244.114,-429.917C222.142,-419.414 197.639,-407.701 176.524,-397.607"/>
<polygon fill="midnightblue" stroke="midnightblue" points="242.826,-433.181 253.358,-434.336 245.845,-426.865 242.826,-433.181"/>
</g>
<!-- Node5 -->
<g id="node5" class="node"><title>Node5</title>
<g id="a_node5"><a xlink:href="Handle_8cpp.html" target="_top" xlink:title="/home/travis/build\l/STORM&#45;IRIT/Radium&#45;Engine\l/src/Core/Animation/Handle\l/Handle.cpp">
<polygon fill="white" stroke="black" points="232,-345.5 232,-397.5 380,-397.5 380,-345.5 232,-345.5"/>
<text text-anchor="start" x="240" y="-385.5" font-family="Helvetica,sans-Serif" font-size="10.00">/home/travis/build</text>
<text text-anchor="start" x="240" y="-374.5" font-family="Helvetica,sans-Serif" font-size="10.00">/STORM&#45;IRIT/Radium&#45;Engine</text>
<text text-anchor="start" x="240" y="-363.5" font-family="Helvetica,sans-Serif" font-size="10.00">/src/Core/Animation/Handle</text>
<text text-anchor="middle" x="306" y="-352.5" font-family="Helvetica,sans-Serif" font-size="10.00">/Handle.cpp</text>
</a>
</g>
</g>
<!-- Node2&#45;&gt;Node5 -->
<g id="edge4" class="edge"><title>Node2&#45;&gt;Node5</title>
<path fill="none" stroke="midnightblue" d="M306,-424.191C306,-415.282 306,-405.899 306,-397.607"/>
<polygon fill="midnightblue" stroke="midnightblue" points="302.5,-424.336 306,-434.336 309.5,-424.336 302.5,-424.336"/>
</g>
<!-- Node6 -->
<g id="node6" class="node"><title>Node6</title>
<g id="a_node6"><a xlink:href="Skeleton_8hpp.html" target="_top" xlink:title="/home/travis/build\l/STORM&#45;IRIT/Radium&#45;Engine\l/src/Core/Animation/Handle\l/Skeleton.hpp">
<polygon fill="white" stroke="black" points="406,-345.5 406,-397.5 554,-397.5 554,-345.5 406,-345.5"/>
<text text-anchor="start" x="414" y="-385.5" font-family="Helvetica,sans-Serif" font-size="10.00">/home/travis/build</text>
<text text-anchor="start" x="414" y="-374.5" font-family="Helvetica,sans-Serif" font-size="10.00">/STORM&#45;IRIT/Radium&#45;Engine</text>
<text text-anchor="start" x="414" y="-363.5" font-family="Helvetica,sans-Serif" font-size="10.00">/src/Core/Animation/Handle</text>
<text text-anchor="middle" x="480" y="-352.5" font-family="Helvetica,sans-Serif" font-size="10.00">/Skeleton.hpp</text>
</a>
</g>
</g>
<!-- Node2&#45;&gt;Node6 -->
<g id="edge6" class="edge"><title>Node2&#45;&gt;Node6</title>
<path fill="none" stroke="midnightblue" d="M365.447,-429.776C386.381,-419.309 409.688,-407.656 429.785,-397.607"/>
<polygon fill="midnightblue" stroke="midnightblue" points="363.707,-426.733 356.328,-434.336 366.838,-432.994 363.707,-426.733"/>
</g>
<!-- Node4 -->
<g id="node4" class="node"><title>Node4</title>
<g id="a_node4"><a xlink:href="Cage_8cpp.html" target="_top" xlink:title="/home/travis/build\l/STORM&#45;IRIT/Radium&#45;Engine\l/src/Core/Animation/Handle\l/Cage.cpp">
<polygon fill="white" stroke="black" points="18,-256.5 18,-308.5 166,-308.5 166,-256.5 18,-256.5"/>
<text text-anchor="start" x="26" y="-296.5" font-family="Helvetica,sans-Serif" font-size="10.00">/home/travis/build</text>
<text text-anchor="start" x="26" y="-285.5" font-family="Helvetica,sans-Serif" font-size="10.00">/STORM&#45;IRIT/Radium&#45;Engine</text>
<text text-anchor="start" x="26" y="-274.5" font-family="Helvetica,sans-Serif" font-size="10.00">/src/Core/Animation/Handle</text>
<text text-anchor="middle" x="92" y="-263.5" font-family="Helvetica,sans-Serif" font-size="10.00">/Cage.cpp</text>
</a>
</g>
</g>
<!-- Node3&#45;&gt;Node4 -->
<g id="edge3" class="edge"><title>Node3&#45;&gt;Node4</title>
<path fill="none" stroke="midnightblue" d="M111.226,-335.771C107.886,-326.691 104.351,-317.079 101.235,-308.607"/>
<polygon fill="midnightblue" stroke="midnightblue" points="108.007,-337.159 114.744,-345.336 114.577,-334.742 108.007,-337.159"/>
</g>
<!-- Node7 -->
<g id="node7" class="node"><title>Node7</title>
<g id="a_node7"><a xlink:href="Skeleton_8cpp.html" target="_top" xlink:title="/home/travis/build\l/STORM&#45;IRIT/Radium&#45;Engine\l/src/Core/Animation/Handle\l/Skeleton.cpp">
<polygon fill="white" stroke="black" points="414,-256.5 414,-308.5 562,-308.5 562,-256.5 414,-256.5"/>
<text text-anchor="start" x="422" y="-296.5" font-family="Helvetica,sans-Serif" font-size="10.00">/home/travis/build</text>
<text text-anchor="start" x="422" y="-285.5" font-family="Helvetica,sans-Serif" font-size="10.00">/STORM&#45;IRIT/Radium&#45;Engine</text>
<text text-anchor="start" x="422" y="-274.5" font-family="Helvetica,sans-Serif" font-size="10.00">/src/Core/Animation/Handle</text>
<text text-anchor="middle" x="488" y="-263.5" font-family="Helvetica,sans-Serif" font-size="10.00">/Skeleton.cpp</text>
</a>
</g>
</g>
<!-- Node6&#45;&gt;Node7 -->
<g id="edge7" class="edge"><title>Node6&#45;&gt;Node7</title>
<path fill="none" stroke="midnightblue" d="M483.247,-335.191C484.066,-326.282 484.929,-316.899 485.691,-308.607"/>
<polygon fill="midnightblue" stroke="midnightblue" points="479.744,-335.057 482.314,-345.336 486.715,-335.699 479.744,-335.057"/>
</g>
<!-- Node8 -->
<g id="node8" class="node"><title>Node8</title>
<g id="a_node8"><a xlink:href="SkinningData_8hpp.html" target="_top" xlink:title="/home/travis/build\l/STORM&#45;IRIT/Radium&#45;Engine\l/src/Core/Animation/Skinning\l/SkinningData.hpp">
<polygon fill="white" stroke="black" points="580.5,-256.5 580.5,-308.5 735.5,-308.5 735.5,-256.5 580.5,-256.5"/>
<text text-anchor="start" x="588.5" y="-296.5" font-family="Helvetica,sans-Serif" font-size="10.00">/home/travis/build</text>
<text text-anchor="start" x="588.5" y="-285.5" font-family="Helvetica,sans-Serif" font-size="10.00">/STORM&#45;IRIT/Radium&#45;Engine</text>
<text text-anchor="start" x="588.5" y="-274.5" font-family="Helvetica,sans-Serif" font-size="10.00">/src/Core/Animation/Skinning</text>
<text text-anchor="middle" x="658" y="-263.5" font-family="Helvetica,sans-Serif" font-size="10.00">/SkinningData.hpp</text>
</a>
</g>
</g>
<!-- Node6&#45;&gt;Node8 -->
<g id="edge8" class="edge"><title>Node6&#45;&gt;Node8</title>
<path fill="none" stroke="midnightblue" d="M540.526,-340.917C562.015,-330.414 585.98,-318.701 606.631,-308.607"/>
<polygon fill="midnightblue" stroke="midnightblue" points="538.932,-337.8 531.485,-345.336 542.006,-344.089 538.932,-337.8"/>
</g>
<!-- Node16 -->
<g id="node16" class="node"><title>Node16</title>
<g id="a_node16"><a xlink:href="HandleToSkeleton_8cpp.html" target="_top" xlink:title="/home/travis/build\l/STORM&#45;IRIT/Radium&#45;Engine\l/src/Core/File/HandleToSkeleton.cpp">
<polygon fill="white" stroke="black" points="754,-262 754,-303 940,-303 940,-262 754,-262"/>
<text text-anchor="start" x="762" y="-291" font-family="Helvetica,sans-Serif" font-size="10.00">/home/travis/build</text>
<text text-anchor="start" x="762" y="-280" font-family="Helvetica,sans-Serif" font-size="10.00">/STORM&#45;IRIT/Radium&#45;Engine</text>
<text text-anchor="middle" x="847" y="-269" font-family="Helvetica,sans-Serif" font-size="10.00">/src/Core/File/HandleToSkeleton.cpp</text>
</a>
</g>
</g>
<!-- Node6&#45;&gt;Node16 -->
<g id="edge18" class="edge"><title>Node6&#45;&gt;Node16</title>
<path fill="none" stroke="midnightblue" d="M563.865,-351.275C615.79,-339.294 683.817,-323.459 744,-309 751.971,-307.085 760.283,-305.065 768.577,-303.035"/>
<polygon fill="midnightblue" stroke="midnightblue" points="562.99,-347.885 554.032,-353.542 564.563,-354.706 562.99,-347.885"/>
</g>
<!-- Node17 -->
<g id="node17" class="node"><title>Node17</title>
<g id="a_node17"><a xlink:href="AnimationComponent_8hpp.html" target="_top" xlink:title="/home/travis/build\l/STORM&#45;IRIT/Radium&#45;Engine\l/Plugins/Animation/src/Animation\lComponent.hpp">
<polygon fill="white" stroke="black" points="184,-256.5 184,-308.5 358,-308.5 358,-256.5 184,-256.5"/>
<text text-anchor="start" x="192" y="-296.5" font-family="Helvetica,sans-Serif" font-size="10.00">/home/travis/build</text>
<text text-anchor="start" x="192" y="-285.5" font-family="Helvetica,sans-Serif" font-size="10.00">/STORM&#45;IRIT/Radium&#45;Engine</text>
<text text-anchor="start" x="192" y="-274.5" font-family="Helvetica,sans-Serif" font-size="10.00">/Plugins/Animation/src/Animation</text>
<text text-anchor="middle" x="271" y="-263.5" font-family="Helvetica,sans-Serif" font-size="10.00">Component.hpp</text>
</a>
</g>
</g>
<!-- Node6&#45;&gt;Node17 -->
<g id="edge19" class="edge"><title>Node6&#45;&gt;Node17</title>
<path fill="none" stroke="midnightblue" d="M410.517,-341.576C384.812,-330.876 355.911,-318.846 331.108,-308.521"/>
<polygon fill="midnightblue" stroke="midnightblue" points="409.252,-344.841 419.829,-345.453 411.942,-338.378 409.252,-344.841"/>
</g>
<!-- Node20 -->
<g id="node20" class="node"><title>Node20</title>
<g id="a_node20"><a xlink:href="SkeletonBoneDrawable_8hpp.html" target="_top" xlink:title="/home/travis/build\l/STORM&#45;IRIT/Radium&#45;Engine\l/Plugins/Animation/src/Drawing\l/SkeletonBoneDrawable.hpp">
<polygon fill="white" stroke="black" points="299,-167.5 299,-219.5 463,-219.5 463,-167.5 299,-167.5"/>
<text text-anchor="start" x="307" y="-207.5" font-family="Helvetica,sans-Serif" font-size="10.00">/home/travis/build</text>
<text text-anchor="start" x="307" y="-196.5" font-family="Helvetica,sans-Serif" font-size="10.00">/STORM&#45;IRIT/Radium&#45;Engine</text>
<text text-anchor="start" x="307" y="-185.5" font-family="Helvetica,sans-Serif" font-size="10.00">/Plugins/Animation/src/Drawing</text>
<text text-anchor="middle" x="381" y="-174.5" font-family="Helvetica,sans-Serif" font-size="10.00">/SkeletonBoneDrawable.hpp</text>
</a>
</g>
</g>
<!-- Node6&#45;&gt;Node20 -->
<g id="edge26" class="edge"><title>Node6&#45;&gt;Node20</title>
<path fill="none" stroke="midnightblue" d="M431.562,-338.967C421.459,-330.349 411.821,-320.243 405,-309 388.356,-281.563 383.114,-244.379 381.541,-219.929"/>
<polygon fill="midnightblue" stroke="midnightblue" points="429.364,-341.69 439.339,-345.26 433.767,-336.249 429.364,-341.69"/>
</g>
<!-- Node9 -->
<g id="node9" class="node"><title>Node9</title>
<g id="a_node9"><a xlink:href="RotationCenterSkinning_8hpp.html" target="_top" xlink:title="/home/travis/build\l/STORM&#45;IRIT/Radium&#45;Engine\l/src/Core/Animation/Skinning\l/RotationCenterSkinning.hpp">
<polygon fill="white" stroke="black" points="571.5,-167.5 571.5,-219.5 726.5,-219.5 726.5,-167.5 571.5,-167.5"/>
<text text-anchor="start" x="579.5" y="-207.5" font-family="Helvetica,sans-Serif" font-size="10.00">/home/travis/build</text>
<text text-anchor="start" x="579.5" y="-196.5" font-family="Helvetica,sans-Serif" font-size="10.00">/STORM&#45;IRIT/Radium&#45;Engine</text>
<text text-anchor="start" x="579.5" y="-185.5" font-family="Helvetica,sans-Serif" font-size="10.00">/src/Core/Animation/Skinning</text>
<text text-anchor="middle" x="649" y="-174.5" font-family="Helvetica,sans-Serif" font-size="10.00">/RotationCenterSkinning.hpp</text>
</a>
</g>
</g>
<!-- Node8&#45;&gt;Node9 -->
<g id="edge9" class="edge"><title>Node8&#45;&gt;Node9</title>
<path fill="none" stroke="midnightblue" d="M654.347,-246.191C653.426,-237.282 652.455,-227.899 651.597,-219.607"/>
<polygon fill="midnightblue" stroke="midnightblue" points="650.886,-246.749 655.397,-256.336 657.849,-246.029 650.886,-246.749"/>
</g>
<!-- Node12 -->
<g id="node12" class="node"><title>Node12</title>
<g id="a_node12"><a xlink:href="SkinningDisplayComponent_8hpp.html" target="_top" xlink:title="/home/travis/build\l/STORM&#45;IRIT/Radium&#45;Engine\l/Plugins/Skinning/src/Display\l/SkinningDisplayComponent.hpp">
<polygon fill="white" stroke="black" points="1008,-167.5 1008,-219.5 1180,-219.5 1180,-167.5 1008,-167.5"/>
<text text-anchor="start" x="1016" y="-207.5" font-family="Helvetica,sans-Serif" font-size="10.00">/home/travis/build</text>
<text text-anchor="start" x="1016" y="-196.5" font-family="Helvetica,sans-Serif" font-size="10.00">/STORM&#45;IRIT/Radium&#45;Engine</text>
<text text-anchor="start" x="1016" y="-185.5" font-family="Helvetica,sans-Serif" font-size="10.00">/Plugins/Skinning/src/Display</text>
<text text-anchor="middle" x="1094" y="-174.5" font-family="Helvetica,sans-Serif" font-size="10.00">/SkinningDisplayComponent.hpp</text>
</a>
</g>
</g>
<!-- Node8&#45;&gt;Node12 -->
<g id="edge12" class="edge"><title>Node8&#45;&gt;Node12</title>
<path fill="none" stroke="midnightblue" d="M745.663,-255.994C853.861,-232.996 884.556,-240.343 989,-220 995.168,-218.799 1001.52,-217.475 1007.9,-216.082"/>
<polygon fill="midnightblue" stroke="midnightblue" points="744.684,-252.625 735.65,-258.161 746.164,-259.467 744.684,-252.625"/>
</g>
<!-- Node15 -->
<g id="node15" class="node"><title>Node15</title>
<g id="a_node15"><a xlink:href="SkinningComponent_8hpp.html" target="_top" xlink:title="/home/travis/build\l/STORM&#45;IRIT/Radium&#45;Engine\l/Plugins/Skinning/src/SkinningComponent.hpp">
<polygon fill="white" stroke="black" points="744.5,-173 744.5,-214 979.5,-214 979.5,-173 744.5,-173"/>
<text text-anchor="start" x="752.5" y="-202" font-family="Helvetica,sans-Serif" font-size="10.00">/home/travis/build</text>
<text text-anchor="start" x="752.5" y="-191" font-family="Helvetica,sans-Serif" font-size="10.00">/STORM&#45;IRIT/Radium&#45;Engine</text>
<text text-anchor="middle" x="862" y="-180" font-family="Helvetica,sans-Serif" font-size="10.00">/Plugins/Skinning/src/SkinningComponent.hpp</text>
</a>
</g>
</g>
<!-- Node8&#45;&gt;Node15 -->
<g id="edge15" class="edge"><title>Node8&#45;&gt;Node15</title>
<path fill="none" stroke="midnightblue" d="M726.153,-252.435C755.676,-239.844 789.467,-225.433 815.962,-214.134"/>
<polygon fill="midnightblue" stroke="midnightblue" points="724.557,-249.31 716.732,-256.453 727.303,-255.749 724.557,-249.31"/>
</g>
<!-- Node10 -->
<g id="node10" class="node"><title>Node10</title>
<g id="a_node10"><a xlink:href="RotationCenterSkinning_8cpp.html" target="_top" xlink:title="/home/travis/build\l/STORM&#45;IRIT/Radium&#45;Engine\l/src/Core/Animation/Skinning\l/RotationCenterSkinning.cpp">
<polygon fill="white" stroke="black" points="566.5,-78.5 566.5,-130.5 721.5,-130.5 721.5,-78.5 566.5,-78.5"/>
<text text-anchor="start" x="574.5" y="-118.5" font-family="Helvetica,sans-Serif" font-size="10.00">/home/travis/build</text>
<text text-anchor="start" x="574.5" y="-107.5" font-family="Helvetica,sans-Serif" font-size="10.00">/STORM&#45;IRIT/Radium&#45;Engine</text>
<text text-anchor="start" x="574.5" y="-96.5" font-family="Helvetica,sans-Serif" font-size="10.00">/src/Core/Animation/Skinning</text>
<text text-anchor="middle" x="644" y="-85.5" font-family="Helvetica,sans-Serif" font-size="10.00">/RotationCenterSkinning.cpp</text>
</a>
</g>
</g>
<!-- Node9&#45;&gt;Node10 -->
<g id="edge10" class="edge"><title>Node9&#45;&gt;Node10</title>
<path fill="none" stroke="midnightblue" d="M646.971,-157.191C646.459,-148.282 645.919,-138.899 645.443,-130.607"/>
<polygon fill="midnightblue" stroke="midnightblue" points="643.486,-157.553 647.554,-167.336 650.474,-157.152 643.486,-157.553"/>
</g>
<!-- Node11 -->
<g id="node11" class="node"><title>Node11</title>
<g id="a_node11"><a xlink:href="SkinningComponent_8cpp.html" target="_top" xlink:title="/home/travis/build\l/STORM&#45;IRIT/Radium&#45;Engine\l/Plugins/Skinning/src/SkinningComponent.cpp">
<polygon fill="white" stroke="black" points="740,-84 740,-125 974,-125 974,-84 740,-84"/>
<text text-anchor="start" x="748" y="-113" font-family="Helvetica,sans-Serif" font-size="10.00">/home/travis/build</text>
<text text-anchor="start" x="748" y="-102" font-family="Helvetica,sans-Serif" font-size="10.00">/STORM&#45;IRIT/Radium&#45;Engine</text>
<text text-anchor="middle" x="857" y="-91" font-family="Helvetica,sans-Serif" font-size="10.00">/Plugins/Skinning/src/SkinningComponent.cpp</text>
</a>
</g>
</g>
<!-- Node9&#45;&gt;Node11 -->
<g id="edge11" class="edge"><title>Node9&#45;&gt;Node11</title>
<path fill="none" stroke="midnightblue" d="M718.489,-163.435C748.592,-150.844 783.045,-136.433 810.059,-125.134"/>
<polygon fill="midnightblue" stroke="midnightblue" points="716.758,-160.365 708.883,-167.453 719.459,-166.823 716.758,-160.365"/>
</g>
<!-- Node13 -->
<g id="node13" class="node"><title>Node13</title>
<g id="a_node13"><a xlink:href="SkinningSystem_8hpp.html" target="_top" xlink:title="/home/travis/build\l/STORM&#45;IRIT/Radium&#45;Engine\l/Plugins/Skinning/src/SkinningSystem.hpp">
<polygon fill="white" stroke="black" points="992.5,-84 992.5,-125 1207.5,-125 1207.5,-84 992.5,-84"/>
<text text-anchor="start" x="1000.5" y="-113" font-family="Helvetica,sans-Serif" font-size="10.00">/home/travis/build</text>
<text text-anchor="start" x="1000.5" y="-102" font-family="Helvetica,sans-Serif" font-size="10.00">/STORM&#45;IRIT/Radium&#45;Engine</text>
<text text-anchor="middle" x="1100" y="-91" font-family="Helvetica,sans-Serif" font-size="10.00">/Plugins/Skinning/src/SkinningSystem.hpp</text>
</a>
</g>
</g>
<!-- Node12&#45;&gt;Node13 -->
<g id="edge13" class="edge"><title>Node12&#45;&gt;Node13</title>
<path fill="none" stroke="midnightblue" d="M1096.44,-157.155C1097.19,-146.21 1098,-134.549 1098.65,-125.082"/>
<polygon fill="midnightblue" stroke="midnightblue" points="1092.93,-157.119 1095.74,-167.336 1099.92,-157.601 1092.93,-157.119"/>
</g>
<!-- Node14 -->
<g id="node14" class="node"><title>Node14</title>
<g id="a_node14"><a xlink:href="SkinningPlugin_8cpp.html" target="_top" xlink:title="/home/travis/build\l/STORM&#45;IRIT/Radium&#45;Engine\l/Plugins/Skinning/src/SkinningPlugin.cpp">
<polygon fill="white" stroke="black" points="997,-0.5 997,-41.5 1203,-41.5 1203,-0.5 997,-0.5"/>
<text text-anchor="start" x="1005" y="-29.5" font-family="Helvetica,sans-Serif" font-size="10.00">/home/travis/build</text>
<text text-anchor="start" x="1005" y="-18.5" font-family="Helvetica,sans-Serif" font-size="10.00">/STORM&#45;IRIT/Radium&#45;Engine</text>
<text text-anchor="middle" x="1100" y="-7.5" font-family="Helvetica,sans-Serif" font-size="10.00">/Plugins/Skinning/src/SkinningPlugin.cpp</text>
</a>
</g>
</g>
<!-- Node13&#45;&gt;Node14 -->
<g id="edge14" class="edge"><title>Node13&#45;&gt;Node14</title>
<path fill="none" stroke="midnightblue" d="M1100,-73.5646C1100,-62.8819 1100,-51.1303 1100,-41.5472"/>
<polygon fill="midnightblue" stroke="midnightblue" points="1096.5,-73.7711 1100,-83.7711 1103.5,-73.7712 1096.5,-73.7711"/>
</g>
<!-- Node15&#45;&gt;Node11 -->
<g id="edge16" class="edge"><title>Node15&#45;&gt;Node11</title>
<path fill="none" stroke="midnightblue" d="M860.272,-162.441C859.563,-150.101 858.762,-136.162 858.13,-125.164"/>
<polygon fill="midnightblue" stroke="midnightblue" points="856.797,-162.976 860.865,-172.758 863.786,-162.574 856.797,-162.976"/>
</g>
<!-- Node15&#45;&gt;Node13 -->
<g id="edge17" class="edge"><title>Node15&#45;&gt;Node13</title>
<path fill="none" stroke="midnightblue" d="M924.804,-169.542C962.633,-155.714 1010.3,-138.291 1046.36,-125.11"/>
<polygon fill="midnightblue" stroke="midnightblue" points="923.602,-166.255 915.412,-172.976 926.006,-172.829 923.602,-166.255"/>
</g>
<!-- Node18 -->
<g id="node18" class="node"><title>Node18</title>
<g id="a_node18"><a xlink:href="AnimationComponent_8cpp.html" target="_top" xlink:title="/home/travis/build\l/STORM&#45;IRIT/Radium&#45;Engine\l/Plugins/Animation/src/Animation\lComponent.cpp">
<polygon fill="white" stroke="black" points="192,-78.5 192,-130.5 366,-130.5 366,-78.5 192,-78.5"/>
<text text-anchor="start" x="200" y="-118.5" font-family="Helvetica,sans-Serif" font-size="10.00">/home/travis/build</text>
<text text-anchor="start" x="200" y="-107.5" font-family="Helvetica,sans-Serif" font-size="10.00">/STORM&#45;IRIT/Radium&#45;Engine</text>
<text text-anchor="start" x="200" y="-96.5" font-family="Helvetica,sans-Serif" font-size="10.00">/Plugins/Animation/src/Animation</text>
<text text-anchor="middle" x="279" y="-85.5" font-family="Helvetica,sans-Serif" font-size="10.00">Component.cpp</text>
</a>
</g>
</g>
<!-- Node17&#45;&gt;Node18 -->
<g id="edge20" class="edge"><title>Node17&#45;&gt;Node18</title>
<path fill="none" stroke="midnightblue" d="M272.602,-246.249C274.157,-212.038 276.479,-160.969 277.856,-130.67"/>
<polygon fill="midnightblue" stroke="midnightblue" points="269.104,-246.135 272.146,-256.283 276.097,-246.453 269.104,-246.135"/>
</g>
<!-- Node19 -->
<g id="node19" class="node"><title>Node19</title>
<g id="a_node19"><a xlink:href="AnimationSystem_8cpp.html" target="_top" xlink:title="/home/travis/build\l/STORM&#45;IRIT/Radium&#45;Engine\l/Plugins/Animation/src/Animation\lSystem.cpp">
<polygon fill="white" stroke="black" points="0,-78.5 0,-130.5 174,-130.5 174,-78.5 0,-78.5"/>
<text text-anchor="start" x="8" y="-118.5" font-family="Helvetica,sans-Serif" font-size="10.00">/home/travis/build</text>
<text text-anchor="start" x="8" y="-107.5" font-family="Helvetica,sans-Serif" font-size="10.00">/STORM&#45;IRIT/Radium&#45;Engine</text>
<text text-anchor="start" x="8" y="-96.5" font-family="Helvetica,sans-Serif" font-size="10.00">/Plugins/Animation/src/Animation</text>
<text text-anchor="middle" x="87" y="-85.5" font-family="Helvetica,sans-Serif" font-size="10.00">System.cpp</text>
</a>
</g>
</g>
<!-- Node17&#45;&gt;Node19 -->
<g id="edge21" class="edge"><title>Node17&#45;&gt;Node19</title>
<path fill="none" stroke="midnightblue" d="M237.335,-249.299C201.622,-215.138 145.946,-161.884 113.314,-130.67"/>
<polygon fill="midnightblue" stroke="midnightblue" points="234.992,-251.9 244.637,-256.283 239.83,-246.842 234.992,-251.9"/>
</g>
<!-- Node17&#45;&gt;Node20 -->
<g id="edge22" class="edge"><title>Node17&#45;&gt;Node20</title>
<path fill="none" stroke="midnightblue" d="M310.911,-249.934C323.527,-239.956 337.291,-229.07 349.255,-219.607"/>
<polygon fill="midnightblue" stroke="midnightblue" points="308.489,-247.387 302.817,-256.336 312.831,-252.878 308.489,-247.387"/>
</g>
<!-- Node20&#45;&gt;Node18 -->
<g id="edge23" class="edge"><title>Node20&#45;&gt;Node18</title>
<path fill="none" stroke="midnightblue" d="M343.657,-160.649C332.051,-150.749 319.425,-139.98 308.436,-130.607"/>
<polygon fill="midnightblue" stroke="midnightblue" points="341.618,-163.509 351.497,-167.336 346.16,-158.184 341.618,-163.509"/>
</g>
<!-- Node20&#45;&gt;Node19 -->
<g id="edge24" class="edge"><title>Node20&#45;&gt;Node19</title>
<path fill="none" stroke="midnightblue" d="M288.802,-165.217C251.303,-154.12 208.25,-141.38 171.568,-130.525"/>
<polygon fill="midnightblue" stroke="midnightblue" points="288.132,-168.668 298.714,-168.15 290.118,-161.956 288.132,-168.668"/>
</g>
<!-- Node21 -->
<g id="node21" class="node"><title>Node21</title>
<g id="a_node21"><a xlink:href="SkeletonBoneDrawable_8cpp.html" target="_top" xlink:title="/home/travis/build\l/STORM&#45;IRIT/Radium&#45;Engine\l/Plugins/Animation/src/Drawing\l/SkeletonBoneDrawable.cpp">
<polygon fill="white" stroke="black" points="384,-78.5 384,-130.5 548,-130.5 548,-78.5 384,-78.5"/>
<text text-anchor="start" x="392" y="-118.5" font-family="Helvetica,sans-Serif" font-size="10.00">/home/travis/build</text>
<text text-anchor="start" x="392" y="-107.5" font-family="Helvetica,sans-Serif" font-size="10.00">/STORM&#45;IRIT/Radium&#45;Engine</text>
<text text-anchor="start" x="392" y="-96.5" font-family="Helvetica,sans-Serif" font-size="10.00">/Plugins/Animation/src/Drawing</text>
<text text-anchor="middle" x="466" y="-85.5" font-family="Helvetica,sans-Serif" font-size="10.00">/SkeletonBoneDrawable.cpp</text>
</a>
</g>
</g>
<!-- Node20&#45;&gt;Node21 -->
<g id="edge25" class="edge"><title>Node20&#45;&gt;Node21</title>
<path fill="none" stroke="midnightblue" d="M412.678,-160.077C422.195,-150.335 432.489,-139.8 441.47,-130.607"/>
<polygon fill="midnightblue" stroke="midnightblue" points="410.07,-157.737 405.586,-167.336 415.077,-162.629 410.07,-157.737"/>
</g>
</g>
</svg>
