<?xml version="1.0" encoding="UTF-8" standalone="no"?>
<!DOCTYPE svg PUBLIC "-//W3C//DTD SVG 1.1//EN"
 "http://www.w3.org/Graphics/SVG/1.1/DTD/svg11.dtd">
<!-- Generated by graphviz version 2.38.0 (20140413.2041)
 -->
<!-- Title: /home/travis/build/STORM&#45;IRIT/Radium&#45;Engine/src/Core/Animation/Handle/Handle.cpp Pages: 1 -->
<svg width="1281pt" height="497pt"
 viewBox="0.00 0.00 1281.00 497.00" xmlns="http://www.w3.org/2000/svg" xmlns:xlink="http://www.w3.org/1999/xlink">
<g id="graph0" class="graph" transform="scale(1 1) rotate(0) translate(4 493)">
<title>/home/travis/build/STORM&#45;IRIT/Radium&#45;Engine/src/Core/Animation/Handle/Handle.cpp</title>
<polygon fill="white" stroke="none" points="-4,4 -4,-493 1277,-493 1277,4 -4,4"/>
<!-- Node1 -->
<g id="node1" class="node"><title>Node1</title>
<polygon fill="#bfbfbf" stroke="black" points="994,-436.5 994,-488.5 1142,-488.5 1142,-436.5 994,-436.5"/>
<text text-anchor="start" x="1002" y="-476.5" font-family="Helvetica,sans-Serif" font-size="10.00">/home/travis/build</text>
<text text-anchor="start" x="1002" y="-465.5" font-family="Helvetica,sans-Serif" font-size="10.00">/STORM&#45;IRIT/Radium&#45;Engine</text>
<text text-anchor="start" x="1002" y="-454.5" font-family="Helvetica,sans-Serif" font-size="10.00">/src/Core/Animation/Handle</text>
<text text-anchor="middle" x="1068" y="-443.5" font-family="Helvetica,sans-Serif" font-size="10.00">/Handle.cpp</text>
</g>
<!-- Node2 -->
<g id="node2" class="node"><title>Node2</title>
<g id="a_node2"><a xlink:href="Handle_8hpp.html" target="_top" xlink:title="Core/Animation/Handle\l/Handle.hpp">
<polygon fill="white" stroke="black" points="1004,-369.5 1004,-399.5 1132,-399.5 1132,-369.5 1004,-369.5"/>
<text text-anchor="start" x="1012" y="-387.5" font-family="Helvetica,sans-Serif" font-size="10.00">Core/Animation/Handle</text>
<text text-anchor="middle" x="1068" y="-376.5" font-family="Helvetica,sans-Serif" font-size="10.00">/Handle.hpp</text>
</a>
</g>
</g>
<!-- Node1&#45;&gt;Node2 -->
<g id="edge1" class="edge"><title>Node1&#45;&gt;Node2</title>
<path fill="none" stroke="midnightblue" d="M1068,-436.193C1068,-427.786 1068,-418.443 1068,-410.091"/>
<polygon fill="midnightblue" stroke="midnightblue" points="1071.5,-409.845 1068,-399.845 1064.5,-409.845 1071.5,-409.845"/>
</g>
<!-- Node3 -->
<g id="node3" class="node"><title>Node3</title>
<g id="a_node3"><a xlink:href="Pose_8hpp.html" target="_top" xlink:title="Core/Animation/Pose\l/Pose.hpp">
<polygon fill="white" stroke="black" points="1009.5,-302.5 1009.5,-332.5 1126.5,-332.5 1126.5,-302.5 1009.5,-302.5"/>
<text text-anchor="start" x="1017.5" y="-320.5" font-family="Helvetica,sans-Serif" font-size="10.00">Core/Animation/Pose</text>
<text text-anchor="middle" x="1068" y="-309.5" font-family="Helvetica,sans-Serif" font-size="10.00">/Pose.hpp</text>
</a>
</g>
</g>
<!-- Node2&#45;&gt;Node3 -->
<g id="edge2" class="edge"><title>Node2&#45;&gt;Node3</title>
<path fill="none" stroke="midnightblue" d="M1068,-369.396C1068,-361.645 1068,-351.812 1068,-342.86"/>
<polygon fill="midnightblue" stroke="midnightblue" points="1071.5,-342.576 1068,-332.577 1064.5,-342.577 1071.5,-342.576"/>
</g>
<!-- Node5 -->
<g id="node5" class="node"><title>Node5</title>
<g id="a_node5"><a xlink:href="RaCore_8hpp.html" target="_top" xlink:title="Core/RaCore.hpp">
<polygon fill="white" stroke="black" points="913,-112.5 913,-131.5 1011,-131.5 1011,-112.5 913,-112.5"/>
<text text-anchor="middle" x="962" y="-119.5" font-family="Helvetica,sans-Serif" font-size="10.00">Core/RaCore.hpp</text>
</a>
</g>
</g>
<!-- Node2&#45;&gt;Node5 -->
<g id="edge28" class="edge"><title>Node2&#45;&gt;Node5</title>
<path fill="none" stroke="midnightblue" d="M1040.51,-369.316C1026.52,-360.686 1010.51,-348.358 1001,-333 962.796,-271.28 960.214,-181.164 961.115,-142.165"/>
<polygon fill="midnightblue" stroke="midnightblue" points="964.626,-141.905 961.471,-131.791 957.63,-141.665 964.626,-141.905"/>
</g>
<!-- Node14 -->
<g id="node14" class="node"><title>Node14</title>
<g id="a_node14"><a xlink:href="LinearAlgebra_8hpp.html" target="_top" xlink:title="Core/Math/LinearAlgebra.hpp">
<polygon fill="white" stroke="black" points="595,-241 595,-260 751,-260 751,-241 595,-241"/>
<text text-anchor="middle" x="673" y="-248" font-family="Helvetica,sans-Serif" font-size="10.00">Core/Math/LinearAlgebra.hpp</text>
</a>
</g>
</g>
<!-- Node2&#45;&gt;Node14 -->
<g id="edge27" class="edge"><title>Node2&#45;&gt;Node14</title>
<path fill="none" stroke="midnightblue" d="M1026.1,-369.499C947.974,-343.39 781.374,-287.716 708.437,-263.342"/>
<polygon fill="midnightblue" stroke="midnightblue" points="709.38,-259.967 698.786,-260.117 707.161,-266.606 709.38,-259.967"/>
</g>
<!-- Node25 -->
<g id="node25" class="node"><title>Node25</title>
<g id="a_node25"><a xlink:href="Handle_8inl.html" target="_top" xlink:title="Core/Animation/Handle\l/Handle.inl">
<polygon fill="white" stroke="black" points="1145,-302.5 1145,-332.5 1273,-332.5 1273,-302.5 1145,-302.5"/>
<text text-anchor="start" x="1153" y="-320.5" font-family="Helvetica,sans-Serif" font-size="10.00">Core/Animation/Handle</text>
<text text-anchor="middle" x="1209" y="-309.5" font-family="Helvetica,sans-Serif" font-size="10.00">/Handle.inl</text>
</a>
</g>
</g>
<!-- Node2&#45;&gt;Node25 -->
<g id="edge29" class="edge"><title>Node2&#45;&gt;Node25</title>
<path fill="none" stroke="midnightblue" d="M1092.92,-369.396C1112.45,-359.814 1139.98,-347.05 1163.38,-336.702"/>
<polygon fill="midnightblue" stroke="midnightblue" points="1165.04,-339.798 1172.79,-332.577 1162.23,-333.388 1165.04,-339.798"/>
</g>
<!-- Node4 -->
<g id="node4" class="node"><title>Node4</title>
<g id="a_node4"><a xlink:href="AlignedStdVector_8hpp.html" target="_top" xlink:title="Core/Containers/AlignedStd\lVector.hpp">
<polygon fill="white" stroke="black" points="1013.5,-235.5 1013.5,-265.5 1162.5,-265.5 1162.5,-235.5 1013.5,-235.5"/>
<text text-anchor="start" x="1021.5" y="-253.5" font-family="Helvetica,sans-Serif" font-size="10.00">Core/Containers/AlignedStd</text>
<text text-anchor="middle" x="1088" y="-242.5" font-family="Helvetica,sans-Serif" font-size="10.00">Vector.hpp</text>
</a>
</g>
</g>
<!-- Node3&#45;&gt;Node4 -->
<g id="edge3" class="edge"><title>Node3&#45;&gt;Node4</title>
<path fill="none" stroke="midnightblue" d="M1072.34,-302.396C1074.78,-294.474 1077.88,-284.379 1080.69,-275.271"/>
<polygon fill="midnightblue" stroke="midnightblue" points="1084.07,-276.164 1083.67,-265.577 1077.38,-274.105 1084.07,-276.164"/>
</g>
<!-- Node3&#45;&gt;Node14 -->
<g id="edge13" class="edge"><title>Node3&#45;&gt;Node14</title>
<path fill="none" stroke="midnightblue" d="M1009.29,-306.839C935.706,-294.73 810.145,-274.068 735.034,-261.708"/>
<polygon fill="midnightblue" stroke="midnightblue" points="735.216,-258.191 724.781,-260.021 734.08,-265.098 735.216,-258.191"/>
</g>
<!-- Node4&#45;&gt;Node5 -->
<g id="edge4" class="edge"><title>Node4&#45;&gt;Node5</title>
<path fill="none" stroke="midnightblue" d="M1074.03,-235.479C1050.45,-211.796 1002.85,-164.016 977.974,-139.038"/>
<polygon fill="midnightblue" stroke="midnightblue" points="980.291,-136.404 970.754,-131.789 975.331,-141.344 980.291,-136.404"/>
</g>
<!-- Node12 -->
<g id="node12" class="node"><title>Node12</title>
<polygon fill="white" stroke="#bfbfbf" points="1047.5,-174 1047.5,-193 1140.5,-193 1140.5,-174 1047.5,-174"/>
<text text-anchor="middle" x="1094" y="-181" font-family="Helvetica,sans-Serif" font-size="10.00">Eigen/StdVector</text>
</g>
<!-- Node4&#45;&gt;Node12 -->
<g id="edge11" class="edge"><title>Node4&#45;&gt;Node12</title>
<path fill="none" stroke="midnightblue" d="M1089.3,-235.396C1090.17,-225.963 1091.33,-213.448 1092.27,-203.189"/>
<polygon fill="midnightblue" stroke="midnightblue" points="1095.76,-203.474 1093.2,-193.195 1088.79,-202.83 1095.76,-203.474"/>
</g>
<!-- Node13 -->
<g id="node13" class="node"><title>Node13</title>
<polygon fill="white" stroke="#bfbfbf" points="1158.5,-174 1158.5,-193 1205.5,-193 1205.5,-174 1158.5,-174"/>
<text text-anchor="middle" x="1182" y="-181" font-family="Helvetica,sans-Serif" font-size="10.00">vector</text>
</g>
<!-- Node4&#45;&gt;Node13 -->
<g id="edge12" class="edge"><title>Node4&#45;&gt;Node13</title>
<path fill="none" stroke="midnightblue" d="M1108.4,-235.396C1124.01,-224.597 1145.48,-209.756 1161.19,-198.887"/>
<polygon fill="midnightblue" stroke="midnightblue" points="1163.46,-201.573 1169.7,-193.007 1159.48,-195.816 1163.46,-201.573"/>
</g>
<!-- Node6 -->
<g id="node6" class="node"><title>Node6</title>
<g id="a_node6"><a xlink:href="CoreMacros_8hpp.html" target="_top" xlink:title="Core/CoreMacros.hpp">
<polygon fill="white" stroke="black" points="902,-56.5 902,-75.5 1022,-75.5 1022,-56.5 902,-56.5"/>
<text text-anchor="middle" x="962" y="-63.5" font-family="Helvetica,sans-Serif" font-size="10.00">Core/CoreMacros.hpp</text>
</a>
</g>
</g>
<!-- Node5&#45;&gt;Node6 -->
<g id="edge5" class="edge"><title>Node5&#45;&gt;Node6</title>
<path fill="none" stroke="midnightblue" d="M962,-112.083C962,-105.006 962,-94.8611 962,-85.9865"/>
<polygon fill="midnightblue" stroke="midnightblue" points="965.5,-85.751 962,-75.7511 958.5,-85.7511 965.5,-85.751"/>
</g>
<!-- Node7 -->
<g id="node7" class="node"><title>Node7</title>
<polygon fill="white" stroke="#bfbfbf" points="799,-0.5 799,-19.5 851,-19.5 851,-0.5 799,-0.5"/>
<text text-anchor="middle" x="825" y="-7.5" font-family="Helvetica,sans-Serif" font-size="10.00">cassert</text>
</g>
<!-- Node6&#45;&gt;Node7 -->
<g id="edge6" class="edge"><title>Node6&#45;&gt;Node7</title>
<path fill="none" stroke="midnightblue" d="M940.292,-56.4435C917.645,-47.5171 881.928,-33.4387 856.248,-23.3168"/>
<polygon fill="midnightblue" stroke="midnightblue" points="857.193,-19.9273 846.606,-19.5164 854.626,-26.4397 857.193,-19.9273"/>
</g>
<!-- Node8 -->
<g id="node8" class="node"><title>Node8</title>
<polygon fill="white" stroke="#bfbfbf" points="869.5,-0.5 869.5,-19.5 914.5,-19.5 914.5,-0.5 869.5,-0.5"/>
<text text-anchor="middle" x="892" y="-7.5" font-family="Helvetica,sans-Serif" font-size="10.00">cstdio</text>
</g>
<!-- Node6&#45;&gt;Node8 -->
<g id="edge7" class="edge"><title>Node6&#45;&gt;Node8</title>
<path fill="none" stroke="midnightblue" d="M950.753,-56.324C940.203,-48.1849 924.199,-35.8395 911.558,-26.0874"/>
<polygon fill="midnightblue" stroke="midnightblue" points="913.507,-23.1707 903.451,-19.8339 909.231,-28.7132 913.507,-23.1707"/>
</g>
<!-- Node9 -->
<g id="node9" class="node"><title>Node9</title>
<polygon fill="white" stroke="#bfbfbf" points="932.5,-0.5 932.5,-19.5 991.5,-19.5 991.5,-0.5 932.5,-0.5"/>
<text text-anchor="middle" x="962" y="-7.5" font-family="Helvetica,sans-Serif" font-size="10.00">iostream</text>
</g>
<!-- Node6&#45;&gt;Node9 -->
<g id="edge8" class="edge"><title>Node6&#45;&gt;Node9</title>
<path fill="none" stroke="midnightblue" d="M962,-56.083C962,-49.0059 962,-38.8611 962,-29.9865"/>
<polygon fill="midnightblue" stroke="midnightblue" points="965.5,-29.751 962,-19.7511 958.5,-29.7511 965.5,-29.751"/>
</g>
<!-- Node10 -->
<g id="node10" class="node"><title>Node10</title>
<polygon fill="white" stroke="#bfbfbf" points="1010,-0.5 1010,-19.5 1066,-19.5 1066,-0.5 1010,-0.5"/>
<text text-anchor="middle" x="1038" y="-7.5" font-family="Helvetica,sans-Serif" font-size="10.00">sstream</text>
</g>
<!-- Node6&#45;&gt;Node10 -->
<g id="edge9" class="edge"><title>Node6&#45;&gt;Node10</title>
<path fill="none" stroke="midnightblue" d="M974.211,-56.324C985.776,-48.1066 1003.38,-35.6017 1017.16,-25.8069"/>
<polygon fill="midnightblue" stroke="midnightblue" points="1019.44,-28.4791 1025.57,-19.8339 1015.39,-22.7729 1019.44,-28.4791"/>
</g>
<!-- Node11 -->
<g id="node11" class="node"><title>Node11</title>
<polygon fill="white" stroke="#bfbfbf" points="1084,-0.5 1084,-19.5 1132,-19.5 1132,-0.5 1084,-0.5"/>
<text text-anchor="middle" x="1108" y="-7.5" font-family="Helvetica,sans-Serif" font-size="10.00">thread</text>
</g>
<!-- Node6&#45;&gt;Node11 -->
<g id="edge10" class="edge"><title>Node6&#45;&gt;Node11</title>
<path fill="none" stroke="midnightblue" d="M985.134,-56.4435C1009.48,-47.4381 1048.01,-33.1891 1075.42,-23.049"/>
<polygon fill="midnightblue" stroke="midnightblue" points="1076.81,-26.2681 1084.97,-19.5164 1074.38,-19.7028 1076.81,-26.2681"/>
</g>
<!-- Node14&#45;&gt;Node5 -->
<g id="edge14" class="edge"><title>Node14&#45;&gt;Node5</title>
<path fill="none" stroke="midnightblue" d="M751.27,-241.31C814.532,-233.338 897.298,-219.419 924,-199 942.456,-184.886 952.586,-159.372 957.649,-141.828"/>
<polygon fill="midnightblue" stroke="midnightblue" points="961.166,-142.207 960.281,-131.649 954.389,-140.454 961.166,-142.207"/>
</g>
<!-- Node15 -->
<g id="node15" class="node"><title>Node15</title>
<polygon fill="white" stroke="#bfbfbf" points="847,-174 847,-193 915,-193 915,-174 847,-174"/>
<text text-anchor="middle" x="881" y="-181" font-family="Helvetica,sans-Serif" font-size="10.00">Eigen/Core</text>
</g>
<!-- Node14&#45;&gt;Node15 -->
<g id="edge15" class="edge"><title>Node14&#45;&gt;Node15</title>
<path fill="none" stroke="midnightblue" d="M701.692,-240.986C734.668,-231.139 790.373,-214.315 838,-199 840.742,-198.118 843.578,-197.193 846.425,-196.253"/>
<polygon fill="midnightblue" stroke="midnightblue" points="847.647,-199.536 856.028,-193.054 845.434,-192.895 847.647,-199.536"/>
</g>
<!-- Node16 -->
<g id="node16" class="node"><title>Node16</title>
<polygon fill="white" stroke="#bfbfbf" points="226,-174 226,-193 320,-193 320,-174 226,-174"/>
<text text-anchor="middle" x="273" y="-181" font-family="Helvetica,sans-Serif" font-size="10.00">Eigen/Geometry</text>
</g>
<!-- Node14&#45;&gt;Node16 -->
<g id="edge16" class="edge"><title>Node14&#45;&gt;Node16</title>
<path fill="none" stroke="midnightblue" d="M599.123,-240.99C529.192,-232.383 421.444,-217.697 329,-199 323.901,-197.969 318.573,-196.761 313.318,-195.491"/>
<polygon fill="midnightblue" stroke="midnightblue" points="313.93,-192.036 303.379,-193.001 312.228,-198.826 313.93,-192.036"/>
</g>
<!-- Node17 -->
<g id="node17" class="node"><title>Node17</title>
<polygon fill="white" stroke="#bfbfbf" points="338,-174 338,-193 418,-193 418,-174 338,-174"/>
<text text-anchor="middle" x="378" y="-181" font-family="Helvetica,sans-Serif" font-size="10.00">Eigen/Sparse</text>
</g>
<!-- Node14&#45;&gt;Node17 -->
<g id="edge17" class="edge"><title>Node14&#45;&gt;Node17</title>
<path fill="none" stroke="midnightblue" d="M625.109,-240.921C575.335,-231.712 495.308,-216.085 427,-199 423.141,-198.035 419.13,-196.963 415.139,-195.851"/>
<polygon fill="midnightblue" stroke="midnightblue" points="415.935,-192.438 405.358,-193.044 414.004,-199.167 415.935,-192.438"/>
</g>
<!-- Node18 -->
<g id="node18" class="node"><title>Node18</title>
<polygon fill="white" stroke="#bfbfbf" points="436.5,-174 436.5,-193 499.5,-193 499.5,-174 436.5,-174"/>
<text text-anchor="middle" x="468" y="-181" font-family="Helvetica,sans-Serif" font-size="10.00">functional</text>
</g>
<!-- Node14&#45;&gt;Node18 -->
<g id="edge18" class="edge"><title>Node14&#45;&gt;Node18</title>
<path fill="none" stroke="midnightblue" d="M643.348,-240.918C610.209,-231.212 555.025,-214.708 508,-199 505.609,-198.201 503.145,-197.358 500.669,-196.496"/>
<polygon fill="midnightblue" stroke="midnightblue" points="501.791,-193.18 491.197,-193.134 499.45,-199.777 501.791,-193.18"/>
</g>
<!-- Node19 -->
<g id="node19" class="node"><title>Node19</title>
<polygon fill="white" stroke="#bfbfbf" points="517.5,-168.5 517.5,-198.5 662.5,-198.5 662.5,-168.5 517.5,-168.5"/>
<text text-anchor="start" x="525.5" y="-186.5" font-family="Helvetica,sans-Serif" font-size="10.00">unsupported/Eigen/Aligned</text>
<text text-anchor="middle" x="590" y="-175.5" font-family="Helvetica,sans-Serif" font-size="10.00">Vector3</text>
</g>
<!-- Node14&#45;&gt;Node19 -->
<g id="edge19" class="edge"><title>Node14&#45;&gt;Node19</title>
<path fill="none" stroke="midnightblue" d="M661.806,-240.734C650.158,-231.611 631.505,-217.004 616.13,-204.963"/>
<polygon fill="midnightblue" stroke="midnightblue" points="618.022,-201.999 607.991,-198.589 613.706,-207.51 618.022,-201.999"/>
</g>
<!-- Node20 -->
<g id="node20" class="node"><title>Node20</title>
<g id="a_node20"><a xlink:href="Math_8hpp.html" target="_top" xlink:title="Core/Math/Math.hpp">
<polygon fill="white" stroke="black" points="94,-174 94,-193 208,-193 208,-174 94,-174"/>
<text text-anchor="middle" x="151" y="-181" font-family="Helvetica,sans-Serif" font-size="10.00">Core/Math/Math.hpp</text>
</a>
</g>
</g>
<!-- Node14&#45;&gt;Node20 -->
<g id="edge20" class="edge"><title>Node14&#45;&gt;Node20</title>
<path fill="none" stroke="midnightblue" d="M594.794,-243.377C503.694,-235.658 348.837,-220.72 217,-199 210.311,-197.898 203.28,-196.555 196.401,-195.136"/>
<polygon fill="midnightblue" stroke="midnightblue" points="197,-191.685 186.489,-193.021 195.539,-198.53 197,-191.685"/>
</g>
<!-- Node24 -->
<g id="node24" class="node"><title>Node24</title>
<g id="a_node24"><a xlink:href="LinearAlgebra_8inl.html" target="_top" xlink:title="Core/Math/LinearAlgebra.inl">
<polygon fill="white" stroke="black" points="680.5,-174 680.5,-193 829.5,-193 829.5,-174 680.5,-174"/>
<text text-anchor="middle" x="755" y="-181" font-family="Helvetica,sans-Serif" font-size="10.00">Core/Math/LinearAlgebra.inl</text>
</a>
</g>
</g>
<!-- Node14&#45;&gt;Node24 -->
<g id="edge26" class="edge"><title>Node14&#45;&gt;Node24</title>
<path fill="none" stroke="midnightblue" d="M684.059,-240.734C697.338,-230.208 719.829,-212.379 735.929,-199.617"/>
<polygon fill="midnightblue" stroke="midnightblue" points="738.454,-202.082 744.116,-193.127 734.106,-196.596 738.454,-202.082"/>
</g>
<!-- Node20&#45;&gt;Node5 -->
<g id="edge21" class="edge"><title>Node20&#45;&gt;Node5</title>
<path fill="none" stroke="midnightblue" d="M185.072,-173.952C195.28,-171.68 206.542,-169.456 217,-168 470.404,-132.73 776.101,-125.097 902.68,-123.45"/>
<polygon fill="midnightblue" stroke="midnightblue" points="902.969,-126.947 912.926,-123.325 902.884,-119.948 902.969,-126.947"/>
</g>
<!-- Node21 -->
<g id="node21" class="node"><title>Node21</title>
<polygon fill="white" stroke="#bfbfbf" points="0,-112.5 0,-131.5 62,-131.5 62,-112.5 0,-112.5"/>
<text text-anchor="middle" x="31" y="-119.5" font-family="Helvetica,sans-Serif" font-size="10.00">algorithm</text>
</g>
<!-- Node20&#45;&gt;Node21 -->
<g id="edge22" class="edge"><title>Node20&#45;&gt;Node21</title>
<path fill="none" stroke="midnightblue" d="M133.807,-173.975C113.757,-164.034 80.4012,-147.495 57.1398,-135.961"/>
<polygon fill="midnightblue" stroke="midnightblue" points="58.6752,-132.816 48.1612,-131.509 55.5655,-139.087 58.6752,-132.816"/>
</g>
<!-- Node22 -->
<g id="node22" class="node"><title>Node22</title>
<polygon fill="white" stroke="#bfbfbf" points="80.5,-112.5 80.5,-131.5 127.5,-131.5 127.5,-112.5 80.5,-112.5"/>
<text text-anchor="middle" x="104" y="-119.5" font-family="Helvetica,sans-Serif" font-size="10.00">cmath</text>
</g>
<!-- Node20&#45;&gt;Node22 -->
<g id="edge23" class="edge"><title>Node20&#45;&gt;Node22</title>
<path fill="none" stroke="midnightblue" d="M144.266,-173.975C137.216,-165.05 125.965,-150.807 117.146,-139.643"/>
<polygon fill="midnightblue" stroke="midnightblue" points="119.667,-137.187 110.721,-131.509 114.174,-141.526 119.667,-137.187"/>
</g>
<!-- Node23 -->
<g id="node23" class="node"><title>Node23</title>
<g id="a_node23"><a xlink:href="Math_8inl.html" target="_top" xlink:title="Core/Math/Math.inl">
<polygon fill="white" stroke="black" points="145.5,-112.5 145.5,-131.5 252.5,-131.5 252.5,-112.5 145.5,-112.5"/>
<text text-anchor="middle" x="199" y="-119.5" font-family="Helvetica,sans-Serif" font-size="10.00">Core/Math/Math.inl</text>
</a>
</g>
</g>
<!-- Node20&#45;&gt;Node23 -->
<g id="edge24" class="edge"><title>Node20&#45;&gt;Node23</title>
<path fill="none" stroke="midnightblue" d="M152.977,-173.975C158.334,-164.873 169.751,-150.241 180.045,-138.983"/>
<polygon fill="midnightblue" stroke="midnightblue" points="182.825,-141.141 187.238,-131.509 177.782,-136.287 182.825,-141.141"/>
</g>
<!-- Node23&#45;&gt;Node20 -->
<g id="edge25" class="edge"><title>Node23&#45;&gt;Node20</title>
<path fill="none" stroke="midnightblue" d="M197.033,-131.509C191.682,-140.604 180.268,-155.236 169.973,-166.497"/>
<polygon fill="midnightblue" stroke="midnightblue" points="167.19,-164.343 162.778,-173.975 172.234,-169.196 167.19,-164.343"/>
</g>
<!-- Node25&#45;&gt;Node2 -->
<g id="edge30" class="edge"><title>Node25&#45;&gt;Node2</title>
<path fill="none" stroke="midnightblue" d="M1184.14,-332.577C1164.63,-342.153 1137.09,-354.916 1113.68,-365.269"/>
<polygon fill="midnightblue" stroke="midnightblue" points="1112.03,-362.174 1104.27,-369.396 1114.84,-368.584 1112.03,-362.174"/>
</g>
</g>
</svg>
