<?xml version="1.0" encoding="UTF-8" standalone="no"?>
<!DOCTYPE svg PUBLIC "-//W3C//DTD SVG 1.1//EN"
 "http://www.w3.org/Graphics/SVG/1.1/DTD/svg11.dtd">
<!-- Generated by graphviz version 2.38.0 (20140413.2041)
 -->
<!-- Title: /home/travis/build/STORM&#45;IRIT/Radium&#45;Engine/src/Core/File/HandleToSkeleton.cpp Pages: 1 -->
<svg width="1840pt" height="553pt"
 viewBox="0.00 0.00 1839.75 553.00" xmlns="http://www.w3.org/2000/svg" xmlns:xlink="http://www.w3.org/1999/xlink">
<g id="graph0" class="graph" transform="scale(1 1) rotate(0) translate(4 549)">
<title>/home/travis/build/STORM&#45;IRIT/Radium&#45;Engine/src/Core/File/HandleToSkeleton.cpp</title>
<polygon fill="white" stroke="none" points="-4,4 -4,-549 1835.75,-549 1835.75,4 -4,4"/>
<!-- Node1 -->
<g id="node1" class="node"><title>Node1</title>
<polygon fill="#bfbfbf" stroke="black" points="1085,-503.5 1085,-544.5 1271,-544.5 1271,-503.5 1085,-503.5"/>
<text text-anchor="start" x="1093" y="-532.5" font-family="Helvetica,sans-Serif" font-size="10.00">/home/travis/build</text>
<text text-anchor="start" x="1093" y="-521.5" font-family="Helvetica,sans-Serif" font-size="10.00">/STORM&#45;IRIT/Radium&#45;Engine</text>
<text text-anchor="middle" x="1178" y="-510.5" font-family="Helvetica,sans-Serif" font-size="10.00">/src/Core/File/HandleToSkeleton.cpp</text>
</g>
<!-- Node2 -->
<g id="node2" class="node"><title>Node2</title>
<g id="a_node2"><a xlink:href="HandleToSkeleton_8hpp.html" target="_top" xlink:title="Core/File/HandleToSkeleton.hpp">
<polygon fill="white" stroke="black" points="1094.5,-375 1094.5,-394 1261.5,-394 1261.5,-375 1094.5,-375"/>
<text text-anchor="middle" x="1178" y="-382" font-family="Helvetica,sans-Serif" font-size="10.00">Core/File/HandleToSkeleton.hpp</text>
</a>
</g>
</g>
<!-- Node1&#45;&gt;Node2 -->
<g id="edge1" class="edge"><title>Node1&#45;&gt;Node2</title>
<path fill="none" stroke="midnightblue" d="M1178,-503.3C1178,-476.897 1178,-430.358 1178,-404.38"/>
<polygon fill="midnightblue" stroke="midnightblue" points="1181.5,-404.038 1178,-394.038 1174.5,-404.038 1181.5,-404.038"/>
</g>
<!-- Node11 -->
<g id="node11" class="node"><title>Node11</title>
<g id="a_node11"><a xlink:href="Skeleton_8hpp.html" target="_top" xlink:title="Core/Animation/Handle\l/Skeleton.hpp">
<polygon fill="white" stroke="black" points="897,-436.5 897,-466.5 1025,-466.5 1025,-436.5 897,-436.5"/>
<text text-anchor="start" x="905" y="-454.5" font-family="Helvetica,sans-Serif" font-size="10.00">Core/Animation/Handle</text>
<text text-anchor="middle" x="961" y="-443.5" font-family="Helvetica,sans-Serif" font-size="10.00">/Skeleton.hpp</text>
</a>
</g>
</g>
<!-- Node1&#45;&gt;Node11 -->
<g id="edge10" class="edge"><title>Node1&#45;&gt;Node11</title>
<path fill="none" stroke="midnightblue" d="M1117.84,-503.455C1085.36,-492.902 1045.61,-479.988 1014.26,-469.802"/>
<polygon fill="midnightblue" stroke="midnightblue" points="1014.98,-466.358 1004.39,-466.597 1012.82,-473.015 1014.98,-466.358"/>
</g>
<!-- Node32 -->
<g id="node32" class="node"><title>Node32</title>
<g id="a_node32"><a xlink:href="HandleData_8hpp.html" target="_top" xlink:title="Core/File/HandleData.hpp">
<polygon fill="white" stroke="black" points="1298,-375 1298,-394 1436,-394 1436,-375 1298,-375"/>
<text text-anchor="middle" x="1367" y="-382" font-family="Helvetica,sans-Serif" font-size="10.00">Core/File/HandleData.hpp</text>
</a>
</g>
</g>
<!-- Node1&#45;&gt;Node32 -->
<g id="edge40" class="edge"><title>Node1&#45;&gt;Node32</title>
<path fill="none" stroke="midnightblue" d="M1205.08,-503.3C1243.5,-475.351 1312.93,-424.838 1347.02,-400.036"/>
<polygon fill="midnightblue" stroke="midnightblue" points="1349.24,-402.751 1355.26,-394.038 1345.12,-397.091 1349.24,-402.751"/>
</g>
<!-- Node3 -->
<g id="node3" class="node"><title>Node3</title>
<polygon fill="white" stroke="#bfbfbf" points="1197,-308 1197,-327 1235,-327 1235,-308 1197,-308"/>
<text text-anchor="middle" x="1216" y="-315" font-family="Helvetica,sans-Serif" font-size="10.00">map</text>
</g>
<!-- Node2&#45;&gt;Node3 -->
<g id="edge2" class="edge"><title>Node2&#45;&gt;Node3</title>
<path fill="none" stroke="midnightblue" d="M1183.12,-374.734C1188.94,-364.793 1198.56,-348.338 1205.89,-335.789"/>
<polygon fill="midnightblue" stroke="midnightblue" points="1208.93,-337.527 1210.96,-327.127 1202.89,-333.994 1208.93,-337.527"/>
</g>
<!-- Node4 -->
<g id="node4" class="node"><title>Node4</title>
<g id="a_node4"><a xlink:href="RaCore_8hpp.html" target="_top" xlink:title="Core/RaCore.hpp">
<polygon fill="white" stroke="black" points="1158,-112.5 1158,-131.5 1256,-131.5 1256,-112.5 1158,-112.5"/>
<text text-anchor="middle" x="1207" y="-119.5" font-family="Helvetica,sans-Serif" font-size="10.00">Core/RaCore.hpp</text>
</a>
</g>
</g>
<!-- Node2&#45;&gt;Node4 -->
<g id="edge3" class="edge"><title>Node2&#45;&gt;Node4</title>
<path fill="none" stroke="midnightblue" d="M1178.96,-374.833C1183.07,-337.981 1199.12,-193.825 1204.9,-141.83"/>
<polygon fill="midnightblue" stroke="midnightblue" points="1208.4,-142.026 1206.03,-131.7 1201.45,-141.251 1208.4,-142.026"/>
</g>
<!-- Node5 -->
<g id="node5" class="node"><title>Node5</title>
<g id="a_node5"><a xlink:href="CoreMacros_8hpp.html" target="_top" xlink:title="Core/CoreMacros.hpp">
<polygon fill="white" stroke="black" points="1288,-56.5 1288,-75.5 1408,-75.5 1408,-56.5 1288,-56.5"/>
<text text-anchor="middle" x="1348" y="-63.5" font-family="Helvetica,sans-Serif" font-size="10.00">Core/CoreMacros.hpp</text>
</a>
</g>
</g>
<!-- Node4&#45;&gt;Node5 -->
<g id="edge4" class="edge"><title>Node4&#45;&gt;Node5</title>
<path fill="none" stroke="midnightblue" d="M1229.34,-112.444C1252.75,-103.478 1289.74,-89.314 1316.19,-79.1827"/>
<polygon fill="midnightblue" stroke="midnightblue" points="1317.68,-82.3615 1325.76,-75.5164 1315.17,-75.8245 1317.68,-82.3615"/>
</g>
<!-- Node6 -->
<g id="node6" class="node"><title>Node6</title>
<polygon fill="white" stroke="#bfbfbf" points="1426,-0.5 1426,-19.5 1478,-19.5 1478,-0.5 1426,-0.5"/>
<text text-anchor="middle" x="1452" y="-7.5" font-family="Helvetica,sans-Serif" font-size="10.00">cassert</text>
</g>
<!-- Node5&#45;&gt;Node6 -->
<g id="edge5" class="edge"><title>Node5&#45;&gt;Node6</title>
<path fill="none" stroke="midnightblue" d="M1364.71,-56.324C1381.31,-47.7034 1407,-34.3643 1426.22,-24.3855"/>
<polygon fill="midnightblue" stroke="midnightblue" points="1428.07,-27.3689 1435.33,-19.6545 1424.84,-21.1565 1428.07,-27.3689"/>
</g>
<!-- Node7 -->
<g id="node7" class="node"><title>Node7</title>
<polygon fill="white" stroke="#bfbfbf" points="1219.5,-0.5 1219.5,-19.5 1264.5,-19.5 1264.5,-0.5 1219.5,-0.5"/>
<text text-anchor="middle" x="1242" y="-7.5" font-family="Helvetica,sans-Serif" font-size="10.00">cstdio</text>
</g>
<!-- Node5&#45;&gt;Node7 -->
<g id="edge6" class="edge"><title>Node5&#45;&gt;Node7</title>
<path fill="none" stroke="midnightblue" d="M1330.97,-56.324C1313.97,-47.6641 1287.62,-34.2424 1268.01,-24.249"/>
<polygon fill="midnightblue" stroke="midnightblue" points="1269.49,-21.0752 1258.99,-19.6545 1266.31,-27.3125 1269.49,-21.0752"/>
</g>
<!-- Node8 -->
<g id="node8" class="node"><title>Node8</title>
<polygon fill="white" stroke="#bfbfbf" points="1282.5,-0.5 1282.5,-19.5 1341.5,-19.5 1341.5,-0.5 1282.5,-0.5"/>
<text text-anchor="middle" x="1312" y="-7.5" font-family="Helvetica,sans-Serif" font-size="10.00">iostream</text>
</g>
<!-- Node5&#45;&gt;Node8 -->
<g id="edge7" class="edge"><title>Node5&#45;&gt;Node8</title>
<path fill="none" stroke="midnightblue" d="M1342.06,-56.083C1337.02,-48.5341 1329.66,-37.4948 1323.49,-28.2298"/>
<polygon fill="midnightblue" stroke="midnightblue" points="1326.29,-26.1301 1317.83,-19.7511 1320.47,-30.0131 1326.29,-26.1301"/>
</g>
<!-- Node9 -->
<g id="node9" class="node"><title>Node9</title>
<polygon fill="white" stroke="#bfbfbf" points="1601,-0.5 1601,-19.5 1657,-19.5 1657,-0.5 1601,-0.5"/>
<text text-anchor="middle" x="1629" y="-7.5" font-family="Helvetica,sans-Serif" font-size="10.00">sstream</text>
</g>
<!-- Node5&#45;&gt;Node9 -->
<g id="edge8" class="edge"><title>Node5&#45;&gt;Node9</title>
<path fill="none" stroke="midnightblue" d="M1392.53,-56.4435C1447.25,-45.9266 1539.19,-28.2583 1590.83,-18.3347"/>
<polygon fill="midnightblue" stroke="midnightblue" points="1591.75,-21.7232 1600.91,-16.3989 1590.43,-14.849 1591.75,-21.7232"/>
</g>
<!-- Node10 -->
<g id="node10" class="node"><title>Node10</title>
<polygon fill="white" stroke="#bfbfbf" points="1360,-0.5 1360,-19.5 1408,-19.5 1408,-0.5 1360,-0.5"/>
<text text-anchor="middle" x="1384" y="-7.5" font-family="Helvetica,sans-Serif" font-size="10.00">thread</text>
</g>
<!-- Node5&#45;&gt;Node10 -->
<g id="edge9" class="edge"><title>Node5&#45;&gt;Node10</title>
<path fill="none" stroke="midnightblue" d="M1353.94,-56.083C1358.98,-48.5341 1366.34,-37.4948 1372.51,-28.2298"/>
<polygon fill="midnightblue" stroke="midnightblue" points="1375.53,-30.0131 1378.17,-19.7511 1369.71,-26.1301 1375.53,-30.0131"/>
</g>
<!-- Node12 -->
<g id="node12" class="node"><title>Node12</title>
<g id="a_node12"><a xlink:href="Handle_8hpp.html" target="_top" xlink:title="Core/Animation/Handle\l/Handle.hpp">
<polygon fill="white" stroke="black" points="593,-369.5 593,-399.5 721,-399.5 721,-369.5 593,-369.5"/>
<text text-anchor="start" x="601" y="-387.5" font-family="Helvetica,sans-Serif" font-size="10.00">Core/Animation/Handle</text>
<text text-anchor="middle" x="657" y="-376.5" font-family="Helvetica,sans-Serif" font-size="10.00">/Handle.hpp</text>
</a>
</g>
</g>
<!-- Node11&#45;&gt;Node12 -->
<g id="edge11" class="edge"><title>Node11&#45;&gt;Node12</title>
<path fill="none" stroke="midnightblue" d="M896.901,-436.795C848.397,-426.424 781.699,-412.163 730.941,-401.31"/>
<polygon fill="midnightblue" stroke="midnightblue" points="731.522,-397.855 721.011,-399.187 730.059,-404.7 731.522,-397.855"/>
</g>
<!-- Node29 -->
<g id="node29" class="node"><title>Node29</title>
<g id="a_node29"><a xlink:href="AdjacencyList_8hpp.html" target="_top" xlink:title="Core/Utils/Graph/Adjacency\lList.hpp">
<polygon fill="white" stroke="black" points="887.5,-369.5 887.5,-399.5 1034.5,-399.5 1034.5,-369.5 887.5,-369.5"/>
<text text-anchor="start" x="895.5" y="-387.5" font-family="Helvetica,sans-Serif" font-size="10.00">Core/Utils/Graph/Adjacency</text>
<text text-anchor="middle" x="961" y="-376.5" font-family="Helvetica,sans-Serif" font-size="10.00">List.hpp</text>
</a>
</g>
</g>
<!-- Node11&#45;&gt;Node29 -->
<g id="edge35" class="edge"><title>Node11&#45;&gt;Node29</title>
<path fill="none" stroke="midnightblue" d="M961,-436.396C961,-428.645 961,-418.812 961,-409.86"/>
<polygon fill="midnightblue" stroke="midnightblue" points="964.5,-409.576 961,-399.577 957.5,-409.577 964.5,-409.576"/>
</g>
<!-- Node12&#45;&gt;Node4 -->
<g id="edge32" class="edge"><title>Node12&#45;&gt;Node4</title>
<path fill="none" stroke="midnightblue" d="M592.797,-373.661C453.69,-349.92 145.483,-282.816 255,-168 285.869,-135.637 943.839,-125.84 1147.48,-123.577"/>
<polygon fill="midnightblue" stroke="midnightblue" points="1147.72,-127.075 1157.68,-123.466 1147.64,-120.075 1147.72,-127.075"/>
</g>
<!-- Node13 -->
<g id="node13" class="node"><title>Node13</title>
<g id="a_node13"><a xlink:href="Pose_8hpp.html" target="_top" xlink:title="Core/Animation/Pose\l/Pose.hpp">
<polygon fill="white" stroke="black" points="731.5,-302.5 731.5,-332.5 848.5,-332.5 848.5,-302.5 731.5,-302.5"/>
<text text-anchor="start" x="739.5" y="-320.5" font-family="Helvetica,sans-Serif" font-size="10.00">Core/Animation/Pose</text>
<text text-anchor="middle" x="790" y="-309.5" font-family="Helvetica,sans-Serif" font-size="10.00">/Pose.hpp</text>
</a>
</g>
</g>
<!-- Node12&#45;&gt;Node13 -->
<g id="edge12" class="edge"><title>Node12&#45;&gt;Node13</title>
<path fill="none" stroke="midnightblue" d="M685.859,-369.396C705.292,-359.899 731.119,-347.276 752.191,-336.978"/>
<polygon fill="midnightblue" stroke="midnightblue" points="753.75,-340.112 761.197,-332.577 750.676,-333.823 753.75,-340.112"/>
</g>
<!-- Node17 -->
<g id="node17" class="node"><title>Node17</title>
<g id="a_node17"><a xlink:href="LinearAlgebra_8hpp.html" target="_top" xlink:title="Core/Math/LinearAlgebra.hpp">
<polygon fill="white" stroke="black" points="625,-241 625,-260 781,-260 781,-241 625,-241"/>
<text text-anchor="middle" x="703" y="-248" font-family="Helvetica,sans-Serif" font-size="10.00">Core/Math/LinearAlgebra.hpp</text>
</a>
</g>
</g>
<!-- Node12&#45;&gt;Node17 -->
<g id="edge31" class="edge"><title>Node12&#45;&gt;Node17</title>
<path fill="none" stroke="midnightblue" d="M665.841,-369.387C671.698,-359.512 679.167,-345.84 684,-333 691.818,-312.23 697.071,-287.23 700.036,-270.442"/>
<polygon fill="midnightblue" stroke="midnightblue" points="703.537,-270.724 701.727,-260.285 696.632,-269.575 703.537,-270.724"/>
</g>
<!-- Node28 -->
<g id="node28" class="node"><title>Node28</title>
<g id="a_node28"><a xlink:href="Handle_8inl.html" target="_top" xlink:title="Core/Animation/Handle\l/Handle.inl">
<polygon fill="white" stroke="black" points="547,-302.5 547,-332.5 675,-332.5 675,-302.5 547,-302.5"/>
<text text-anchor="start" x="555" y="-320.5" font-family="Helvetica,sans-Serif" font-size="10.00">Core/Animation/Handle</text>
<text text-anchor="middle" x="611" y="-309.5" font-family="Helvetica,sans-Serif" font-size="10.00">/Handle.inl</text>
</a>
</g>
</g>
<!-- Node12&#45;&gt;Node28 -->
<g id="edge33" class="edge"><title>Node12&#45;&gt;Node28</title>
<path fill="none" stroke="midnightblue" d="M641.34,-369.396C634.41,-361.134 626.627,-350.507 620.531,-341.102"/>
<polygon fill="midnightblue" stroke="midnightblue" points="623.508,-339.26 615.287,-332.577 617.546,-342.928 623.508,-339.26"/>
</g>
<!-- Node14 -->
<g id="node14" class="node"><title>Node14</title>
<g id="a_node14"><a xlink:href="AlignedStdVector_8hpp.html" target="_top" xlink:title="Core/Containers/AlignedStd\lVector.hpp">
<polygon fill="white" stroke="black" points="992.5,-235.5 992.5,-265.5 1141.5,-265.5 1141.5,-235.5 992.5,-235.5"/>
<text text-anchor="start" x="1000.5" y="-253.5" font-family="Helvetica,sans-Serif" font-size="10.00">Core/Containers/AlignedStd</text>
<text text-anchor="middle" x="1067" y="-242.5" font-family="Helvetica,sans-Serif" font-size="10.00">Vector.hpp</text>
</a>
</g>
</g>
<!-- Node13&#45;&gt;Node14 -->
<g id="edge13" class="edge"><title>Node13&#45;&gt;Node14</title>
<path fill="none" stroke="midnightblue" d="M848.745,-302.715C892.095,-292.543 951.259,-278.659 997.053,-267.914"/>
<polygon fill="midnightblue" stroke="midnightblue" points="997.97,-271.294 1006.91,-265.602 996.371,-264.479 997.97,-271.294"/>
</g>
<!-- Node13&#45;&gt;Node17 -->
<g id="edge17" class="edge"><title>Node13&#45;&gt;Node17</title>
<path fill="none" stroke="midnightblue" d="M771.122,-302.396C756.886,-291.759 737.402,-277.203 722.918,-266.381"/>
<polygon fill="midnightblue" stroke="midnightblue" points="724.743,-263.376 714.637,-260.195 720.554,-268.984 724.743,-263.376"/>
</g>
<!-- Node14&#45;&gt;Node4 -->
<g id="edge14" class="edge"><title>Node14&#45;&gt;Node4</title>
<path fill="none" stroke="midnightblue" d="M1054.36,-235.246C1040.55,-217.886 1022.35,-188.362 1038,-168 1051.52,-150.412 1104.66,-138.241 1147.79,-131.034"/>
<polygon fill="midnightblue" stroke="midnightblue" points="1148.35,-134.489 1157.67,-129.439 1147.24,-127.578 1148.35,-134.489"/>
</g>
<!-- Node15 -->
<g id="node15" class="node"><title>Node15</title>
<polygon fill="white" stroke="#bfbfbf" points="1047.5,-174 1047.5,-193 1140.5,-193 1140.5,-174 1047.5,-174"/>
<text text-anchor="middle" x="1094" y="-181" font-family="Helvetica,sans-Serif" font-size="10.00">Eigen/StdVector</text>
</g>
<!-- Node14&#45;&gt;Node15 -->
<g id="edge15" class="edge"><title>Node14&#45;&gt;Node15</title>
<path fill="none" stroke="midnightblue" d="M1072.86,-235.396C1076.86,-225.763 1082.2,-212.914 1086.51,-202.537"/>
<polygon fill="midnightblue" stroke="midnightblue" points="1089.78,-203.772 1090.39,-193.195 1083.32,-201.087 1089.78,-203.772"/>
</g>
<!-- Node16 -->
<g id="node16" class="node"><title>Node16</title>
<polygon fill="white" stroke="#bfbfbf" points="1447.5,-112.5 1447.5,-131.5 1494.5,-131.5 1494.5,-112.5 1447.5,-112.5"/>
<text text-anchor="middle" x="1471" y="-119.5" font-family="Helvetica,sans-Serif" font-size="10.00">vector</text>
</g>
<!-- Node14&#45;&gt;Node16 -->
<g id="edge16" class="edge"><title>Node14&#45;&gt;Node16</title>
<path fill="none" stroke="midnightblue" d="M1104.98,-235.361C1151.21,-218.376 1231.8,-189.486 1302,-168 1348.57,-153.745 1403.13,-139.687 1437.39,-131.175"/>
<polygon fill="midnightblue" stroke="midnightblue" points="1438.46,-134.514 1447.33,-128.717 1436.78,-127.718 1438.46,-134.514"/>
</g>
<!-- Node17&#45;&gt;Node4 -->
<g id="edge18" class="edge"><title>Node17&#45;&gt;Node4</title>
<path fill="none" stroke="midnightblue" d="M699.781,-240.763C694.3,-224.186 685.446,-188.04 704,-168 733.62,-136.008 1020.88,-126.564 1147.53,-123.943"/>
<polygon fill="midnightblue" stroke="midnightblue" points="1147.89,-127.436 1157.82,-123.737 1147.75,-120.438 1147.89,-127.436"/>
</g>
<!-- Node18 -->
<g id="node18" class="node"><title>Node18</title>
<polygon fill="white" stroke="#bfbfbf" points="713,-174 713,-193 781,-193 781,-174 713,-174"/>
<text text-anchor="middle" x="747" y="-181" font-family="Helvetica,sans-Serif" font-size="10.00">Eigen/Core</text>
</g>
<!-- Node17&#45;&gt;Node18 -->
<g id="edge19" class="edge"><title>Node17&#45;&gt;Node18</title>
<path fill="none" stroke="midnightblue" d="M708.934,-240.734C715.729,-230.695 727.021,-214.014 735.546,-201.421"/>
<polygon fill="midnightblue" stroke="midnightblue" points="738.453,-203.37 741.16,-193.127 732.656,-199.446 738.453,-203.37"/>
</g>
<!-- Node19 -->
<g id="node19" class="node"><title>Node19</title>
<polygon fill="white" stroke="#bfbfbf" points="799,-174 799,-193 893,-193 893,-174 799,-174"/>
<text text-anchor="middle" x="846" y="-181" font-family="Helvetica,sans-Serif" font-size="10.00">Eigen/Geometry</text>
</g>
<!-- Node17&#45;&gt;Node19 -->
<g id="edge20" class="edge"><title>Node17&#45;&gt;Node19</title>
<path fill="none" stroke="midnightblue" d="M721.989,-240.869C746.455,-229.748 789.203,-210.317 817.557,-197.429"/>
<polygon fill="midnightblue" stroke="midnightblue" points="819.277,-200.492 826.932,-193.167 816.38,-194.119 819.277,-200.492"/>
</g>
<!-- Node20 -->
<g id="node20" class="node"><title>Node20</title>
<polygon fill="white" stroke="#bfbfbf" points="911,-174 911,-193 991,-193 991,-174 911,-174"/>
<text text-anchor="middle" x="951" y="-181" font-family="Helvetica,sans-Serif" font-size="10.00">Eigen/Sparse</text>
</g>
<!-- Node17&#45;&gt;Node20 -->
<g id="edge21" class="edge"><title>Node17&#45;&gt;Node20</title>
<path fill="none" stroke="midnightblue" d="M738.338,-240.976C778.21,-231.255 844.945,-214.675 902,-199 905.59,-198.014 909.32,-196.961 913.048,-195.89"/>
<polygon fill="midnightblue" stroke="midnightblue" points="914.188,-199.204 922.811,-193.047 912.231,-192.483 914.188,-199.204"/>
</g>
<!-- Node21 -->
<g id="node21" class="node"><title>Node21</title>
<polygon fill="white" stroke="#bfbfbf" points="264.5,-174 264.5,-193 327.5,-193 327.5,-174 264.5,-174"/>
<text text-anchor="middle" x="296" y="-181" font-family="Helvetica,sans-Serif" font-size="10.00">functional</text>
</g>
<!-- Node17&#45;&gt;Node21 -->
<g id="edge22" class="edge"><title>Node17&#45;&gt;Node21</title>
<path fill="none" stroke="midnightblue" d="M624.775,-243.552C549.852,-236.729 434.027,-223.223 336,-199 332.943,-198.245 329.796,-197.339 326.672,-196.354"/>
<polygon fill="midnightblue" stroke="midnightblue" points="327.511,-192.942 316.917,-193.023 325.25,-199.566 327.511,-192.942"/>
</g>
<!-- Node22 -->
<g id="node22" class="node"><title>Node22</title>
<polygon fill="white" stroke="#bfbfbf" points="345.5,-168.5 345.5,-198.5 490.5,-198.5 490.5,-168.5 345.5,-168.5"/>
<text text-anchor="start" x="353.5" y="-186.5" font-family="Helvetica,sans-Serif" font-size="10.00">unsupported/Eigen/Aligned</text>
<text text-anchor="middle" x="418" y="-175.5" font-family="Helvetica,sans-Serif" font-size="10.00">Vector3</text>
</g>
<!-- Node17&#45;&gt;Node22 -->
<g id="edge23" class="edge"><title>Node17&#45;&gt;Node22</title>
<path fill="none" stroke="midnightblue" d="M665.448,-240.936C620.817,-230.757 545.366,-213.548 489.487,-200.804"/>
<polygon fill="midnightblue" stroke="midnightblue" points="490.172,-197.37 479.644,-198.559 488.615,-204.195 490.172,-197.37"/>
</g>
<!-- Node23 -->
<g id="node23" class="node"><title>Node23</title>
<g id="a_node23"><a xlink:href="Math_8hpp.html" target="_top" xlink:title="Core/Math/Math.hpp">
<polygon fill="white" stroke="black" points="94,-174 94,-193 208,-193 208,-174 94,-174"/>
<text text-anchor="middle" x="151" y="-181" font-family="Helvetica,sans-Serif" font-size="10.00">Core/Math/Math.hpp</text>
</a>
</g>
</g>
<!-- Node17&#45;&gt;Node23 -->
<g id="edge24" class="edge"><title>Node17&#45;&gt;Node23</title>
<path fill="none" stroke="midnightblue" d="M624.828,-241.318C535.367,-231.807 384.491,-215.322 255,-199 243.13,-197.504 230.512,-195.822 218.309,-194.148"/>
<polygon fill="midnightblue" stroke="midnightblue" points="218.566,-190.65 208.181,-192.748 217.608,-197.584 218.566,-190.65"/>
</g>
<!-- Node27 -->
<g id="node27" class="node"><title>Node27</title>
<g id="a_node27"><a xlink:href="LinearAlgebra_8inl.html" target="_top" xlink:title="Core/Math/LinearAlgebra.inl">
<polygon fill="white" stroke="black" points="508.5,-174 508.5,-193 657.5,-193 657.5,-174 508.5,-174"/>
<text text-anchor="middle" x="583" y="-181" font-family="Helvetica,sans-Serif" font-size="10.00">Core/Math/LinearAlgebra.inl</text>
</a>
</g>
</g>
<!-- Node17&#45;&gt;Node27 -->
<g id="edge30" class="edge"><title>Node17&#45;&gt;Node27</title>
<path fill="none" stroke="midnightblue" d="M686.816,-240.734C666.574,-229.769 631.703,-210.881 608.014,-198.049"/>
<polygon fill="midnightblue" stroke="midnightblue" points="609.387,-194.813 598.927,-193.127 606.053,-200.968 609.387,-194.813"/>
</g>
<!-- Node23&#45;&gt;Node4 -->
<g id="edge25" class="edge"><title>Node23&#45;&gt;Node4</title>
<path fill="none" stroke="midnightblue" d="M187.305,-173.952C198.383,-171.651 210.639,-169.411 222,-168 570.943,-124.666 994.059,-121.901 1147.68,-122.5"/>
<polygon fill="midnightblue" stroke="midnightblue" points="1147.82,-126.001 1157.83,-122.547 1147.85,-119.001 1147.82,-126.001"/>
</g>
<!-- Node24 -->
<g id="node24" class="node"><title>Node24</title>
<polygon fill="white" stroke="#bfbfbf" points="0,-112.5 0,-131.5 62,-131.5 62,-112.5 0,-112.5"/>
<text text-anchor="middle" x="31" y="-119.5" font-family="Helvetica,sans-Serif" font-size="10.00">algorithm</text>
</g>
<!-- Node23&#45;&gt;Node24 -->
<g id="edge26" class="edge"><title>Node23&#45;&gt;Node24</title>
<path fill="none" stroke="midnightblue" d="M133.807,-173.975C113.757,-164.034 80.4012,-147.495 57.1398,-135.961"/>
<polygon fill="midnightblue" stroke="midnightblue" points="58.6752,-132.816 48.1612,-131.509 55.5655,-139.087 58.6752,-132.816"/>
</g>
<!-- Node25 -->
<g id="node25" class="node"><title>Node25</title>
<polygon fill="white" stroke="#bfbfbf" points="80.5,-112.5 80.5,-131.5 127.5,-131.5 127.5,-112.5 80.5,-112.5"/>
<text text-anchor="middle" x="104" y="-119.5" font-family="Helvetica,sans-Serif" font-size="10.00">cmath</text>
</g>
<!-- Node23&#45;&gt;Node25 -->
<g id="edge27" class="edge"><title>Node23&#45;&gt;Node25</title>
<path fill="none" stroke="midnightblue" d="M144.266,-173.975C137.216,-165.05 125.965,-150.807 117.146,-139.643"/>
<polygon fill="midnightblue" stroke="midnightblue" points="119.667,-137.187 110.721,-131.509 114.174,-141.526 119.667,-137.187"/>
</g>
<!-- Node26 -->
<g id="node26" class="node"><title>Node26</title>
<g id="a_node26"><a xlink:href="Math_8inl.html" target="_top" xlink:title="Core/Math/Math.inl">
<polygon fill="white" stroke="black" points="145.5,-112.5 145.5,-131.5 252.5,-131.5 252.5,-112.5 145.5,-112.5"/>
<text text-anchor="middle" x="199" y="-119.5" font-family="Helvetica,sans-Serif" font-size="10.00">Core/Math/Math.inl</text>
</a>
</g>
</g>
<!-- Node23&#45;&gt;Node26 -->
<g id="edge28" class="edge"><title>Node23&#45;&gt;Node26</title>
<path fill="none" stroke="midnightblue" d="M152.977,-173.975C158.334,-164.873 169.751,-150.241 180.045,-138.983"/>
<polygon fill="midnightblue" stroke="midnightblue" points="182.825,-141.141 187.238,-131.509 177.782,-136.287 182.825,-141.141"/>
</g>
<!-- Node26&#45;&gt;Node23 -->
<g id="edge29" class="edge"><title>Node26&#45;&gt;Node23</title>
<path fill="none" stroke="midnightblue" d="M197.033,-131.509C191.682,-140.604 180.268,-155.236 169.973,-166.497"/>
<polygon fill="midnightblue" stroke="midnightblue" points="167.19,-164.343 162.778,-173.975 172.234,-169.196 167.19,-164.343"/>
</g>
<!-- Node28&#45;&gt;Node12 -->
<g id="edge34" class="edge"><title>Node28&#45;&gt;Node12</title>
<path fill="none" stroke="midnightblue" d="M626.637,-332.577C633.565,-340.833 641.349,-351.459 647.448,-360.867"/>
<polygon fill="midnightblue" stroke="midnightblue" points="644.475,-362.714 652.697,-369.396 650.437,-359.045 644.475,-362.714"/>
</g>
<!-- Node29&#45;&gt;Node14 -->
<g id="edge36" class="edge"><title>Node29&#45;&gt;Node14</title>
<path fill="none" stroke="midnightblue" d="M995.523,-369.382C1012.04,-361.033 1030.82,-348.94 1043,-333 1055.76,-316.308 1061.75,-292.96 1064.55,-275.53"/>
<polygon fill="midnightblue" stroke="midnightblue" points="1068.03,-275.938 1065.92,-265.555 1061.09,-274.988 1068.03,-275.938"/>
</g>
<!-- Node30 -->
<g id="node30" class="node"><title>Node30</title>
<g id="a_node30"><a xlink:href="AdjacencyList_8inl.html" target="_top" xlink:title="Core/Utils/Graph/Adjacency\lList.inl">
<polygon fill="white" stroke="black" points="887.5,-302.5 887.5,-332.5 1034.5,-332.5 1034.5,-302.5 887.5,-302.5"/>
<text text-anchor="start" x="895.5" y="-320.5" font-family="Helvetica,sans-Serif" font-size="10.00">Core/Utils/Graph/Adjacency</text>
<text text-anchor="middle" x="961" y="-309.5" font-family="Helvetica,sans-Serif" font-size="10.00">List.inl</text>
</a>
</g>
</g>
<!-- Node29&#45;&gt;Node30 -->
<g id="edge37" class="edge"><title>Node29&#45;&gt;Node30</title>
<path fill="none" stroke="midnightblue" d="M955.322,-369.396C954.294,-361.56 954.005,-351.596 954.456,-342.565"/>
<polygon fill="midnightblue" stroke="midnightblue" points="957.945,-342.842 955.325,-332.577 950.972,-342.236 957.945,-342.842"/>
</g>
<!-- Node30&#45;&gt;Node29 -->
<g id="edge38" class="edge"><title>Node30&#45;&gt;Node29</title>
<path fill="none" stroke="midnightblue" d="M966.675,-332.577C967.704,-340.408 967.995,-350.37 967.545,-359.403"/>
<polygon fill="midnightblue" stroke="midnightblue" points="964.056,-359.131 966.678,-369.396 971.03,-359.736 964.056,-359.131"/>
</g>
<!-- Node31 -->
<g id="node31" class="node"><title>Node31</title>
<polygon fill="white" stroke="#bfbfbf" points="943,-241 943,-260 975,-260 975,-241 943,-241"/>
<text text-anchor="middle" x="959" y="-248" font-family="Helvetica,sans-Serif" font-size="10.00">set</text>
</g>
<!-- Node30&#45;&gt;Node31 -->
<g id="edge39" class="edge"><title>Node30&#45;&gt;Node31</title>
<path fill="none" stroke="midnightblue" d="M960.566,-302.396C960.279,-293.064 959.899,-280.714 959.585,-270.517"/>
<polygon fill="midnightblue" stroke="midnightblue" points="963.074,-270.082 959.268,-260.195 956.077,-270.297 963.074,-270.082"/>
</g>
<!-- Node32&#45;&gt;Node3 -->
<g id="edge41" class="edge"><title>Node32&#45;&gt;Node3</title>
<path fill="none" stroke="midnightblue" d="M1346.93,-374.981C1323.43,-364.989 1283.35,-347.895 1249,-333 1247.6,-332.393 1246.17,-331.77 1244.72,-331.14"/>
<polygon fill="midnightblue" stroke="midnightblue" points="1245.75,-327.768 1235.18,-326.965 1242.94,-334.18 1245.75,-327.768"/>
</g>
<!-- Node32&#45;&gt;Node4 -->
<g id="edge46" class="edge"><title>Node32&#45;&gt;Node4</title>
<path fill="none" stroke="midnightblue" d="M1361.68,-374.833C1338.8,-337.594 1248.63,-190.785 1217.58,-140.222"/>
<polygon fill="midnightblue" stroke="midnightblue" points="1220.56,-138.389 1212.34,-131.7 1214.59,-142.053 1220.56,-138.389"/>
</g>
<!-- Node32&#45;&gt;Node14 -->
<g id="edge44" class="edge"><title>Node32&#45;&gt;Node14</title>
<path fill="none" stroke="midnightblue" d="M1360.08,-374.835C1346.2,-358.055 1313.16,-321.099 1277,-302 1238.33,-281.577 1191.32,-269.282 1151.58,-261.947"/>
<polygon fill="midnightblue" stroke="midnightblue" points="1152.1,-258.485 1141.65,-260.187 1150.88,-265.377 1152.1,-258.485"/>
</g>
<!-- Node32&#45;&gt;Node16 -->
<g id="edge43" class="edge"><title>Node32&#45;&gt;Node16</title>
<path fill="none" stroke="midnightblue" d="M1371.56,-374.886C1385.17,-348.931 1426.08,-268.953 1451,-199 1457.85,-179.764 1463.53,-157.042 1467.06,-141.486"/>
<polygon fill="midnightblue" stroke="midnightblue" points="1470.51,-142.096 1469.24,-131.578 1463.68,-140.592 1470.51,-142.096"/>
</g>
<!-- Node32&#45;&gt;Node17 -->
<g id="edge45" class="edge"><title>Node32&#45;&gt;Node17</title>
<path fill="none" stroke="midnightblue" d="M1348.63,-374.846C1329.86,-365.634 1300.26,-350.058 1277,-333 1260.77,-321.1 1262.34,-310.272 1244,-302 1203.82,-283.883 933.978,-265.304 791.211,-256.593"/>
<polygon fill="midnightblue" stroke="midnightblue" points="791.35,-253.095 781.156,-255.983 790.926,-260.082 791.35,-253.095"/>
</g>
<!-- Node33 -->
<g id="node33" class="node"><title>Node33</title>
<polygon fill="white" stroke="#bfbfbf" points="1661,-112.5 1661,-131.5 1705,-131.5 1705,-112.5 1661,-112.5"/>
<text text-anchor="middle" x="1683" y="-119.5" font-family="Helvetica,sans-Serif" font-size="10.00">string</text>
</g>
<!-- Node32&#45;&gt;Node33 -->
<g id="edge42" class="edge"><title>Node32&#45;&gt;Node33</title>
<path fill="none" stroke="midnightblue" d="M1436.22,-381.099C1544.47,-372.984 1748.72,-338.933 1819,-199 1825.18,-186.688 1827.07,-179.168 1819,-168 1795.51,-135.489 1747.65,-126.081 1715.44,-123.57"/>
<polygon fill="midnightblue" stroke="midnightblue" points="1715.36,-120.059 1705.17,-122.959 1714.95,-127.047 1715.36,-120.059"/>
</g>
<!-- Node34 -->
<g id="node34" class="node"><title>Node34</title>
<g id="a_node34"><a xlink:href="AssetData_8hpp.html" target="_top" xlink:title="Core/File/AssetData.hpp">
<polygon fill="white" stroke="black" points="1311.5,-174 1311.5,-193 1442.5,-193 1442.5,-174 1311.5,-174"/>
<text text-anchor="middle" x="1377" y="-181" font-family="Helvetica,sans-Serif" font-size="10.00">Core/File/AssetData.hpp</text>
</a>
</g>
</g>
<!-- Node32&#45;&gt;Node34 -->
<g id="edge47" class="edge"><title>Node32&#45;&gt;Node34</title>
<path fill="none" stroke="midnightblue" d="M1367.43,-374.949C1368.93,-345.165 1373.93,-245.51 1376.05,-203.468"/>
<polygon fill="midnightblue" stroke="midnightblue" points="1379.55,-203.406 1376.56,-193.243 1372.56,-203.055 1379.55,-203.406"/>
</g>
<!-- Node35 -->
<g id="node35" class="node"><title>Node35</title>
<g id="a_node35"><a xlink:href="HandleData_8inl.html" target="_top" xlink:title="Core/File/HandleData.inl">
<polygon fill="white" stroke="black" points="1499.5,-308 1499.5,-327 1630.5,-327 1630.5,-308 1499.5,-308"/>
<text text-anchor="middle" x="1565" y="-315" font-family="Helvetica,sans-Serif" font-size="10.00">Core/File/HandleData.inl</text>
</a>
</g>
</g>
<!-- Node32&#45;&gt;Node35 -->
<g id="edge50" class="edge"><title>Node32&#45;&gt;Node35</title>
<path fill="none" stroke="midnightblue" d="M1388.53,-374.869C1421.16,-363.351 1483.21,-342.922 1524.43,-330.077"/>
<polygon fill="midnightblue" stroke="midnightblue" points="1525.65,-333.362 1534.17,-327.064 1523.58,-326.675 1525.65,-333.362"/>
</g>
<!-- Node34&#45;&gt;Node4 -->
<g id="edge48" class="edge"><title>Node34&#45;&gt;Node4</title>
<path fill="none" stroke="midnightblue" d="M1352.64,-173.975C1323.36,-163.725 1274.03,-146.459 1241,-134.899"/>
<polygon fill="midnightblue" stroke="midnightblue" points="1241.91,-131.509 1231.31,-131.509 1239.59,-138.116 1241.91,-131.509"/>
</g>
<!-- Node34&#45;&gt;Node33 -->
<g id="edge49" class="edge"><title>Node34&#45;&gt;Node33</title>
<path fill="none" stroke="midnightblue" d="M1420.84,-173.975C1483.1,-161.87 1595.67,-139.982 1650.81,-129.26"/>
<polygon fill="midnightblue" stroke="midnightblue" points="1651.57,-132.676 1660.72,-127.332 1650.24,-125.805 1651.57,-132.676"/>
</g>
<!-- Node35&#45;&gt;Node32 -->
<g id="edge51" class="edge"><title>Node35&#45;&gt;Node32</title>
<path fill="none" stroke="midnightblue" d="M1543.66,-327.064C1511.15,-338.546 1449.12,-358.973 1407.82,-371.847"/>
<polygon fill="midnightblue" stroke="midnightblue" points="1406.57,-368.569 1398.05,-374.869 1408.64,-375.256 1406.57,-368.569"/>
</g>
<!-- Node36 -->
<g id="node36" class="node"><title>Node36</title>
<g id="a_node36"><a xlink:href="Log_8hpp.html" target="_top" xlink:title="Core/Log/Log.hpp">
<polygon fill="white" stroke="black" points="1582.5,-241 1582.5,-260 1683.5,-260 1683.5,-241 1582.5,-241"/>
<text text-anchor="middle" x="1633" y="-248" font-family="Helvetica,sans-Serif" font-size="10.00">Core/Log/Log.hpp</text>
</a>
</g>
</g>
<!-- Node35&#45;&gt;Node36 -->
<g id="edge52" class="edge"><title>Node35&#45;&gt;Node36</title>
<path fill="none" stroke="midnightblue" d="M1574.17,-307.734C1584.98,-297.403 1603.15,-280.037 1616.44,-267.332"/>
<polygon fill="midnightblue" stroke="midnightblue" points="1619.16,-269.567 1623.97,-260.127 1614.33,-264.507 1619.16,-269.567"/>
</g>
<!-- Node36&#45;&gt;Node4 -->
<g id="edge53" class="edge"><title>Node36&#45;&gt;Node4</title>
<path fill="none" stroke="midnightblue" d="M1582.25,-249.791C1515.29,-248.416 1395.04,-239.778 1302,-199 1293.31,-195.191 1250.02,-159.286 1224.98,-138.219"/>
<polygon fill="midnightblue" stroke="midnightblue" points="1227.16,-135.483 1217.26,-131.711 1222.65,-140.834 1227.16,-135.483"/>
</g>
<!-- Node36&#45;&gt;Node9 -->
<g id="edge54" class="edge"><title>Node36&#45;&gt;Node9</title>
<path fill="none" stroke="midnightblue" d="M1683.61,-242.71C1732.86,-234.944 1802.59,-220.463 1819,-199 1875.42,-125.218 1727.47,-51.8852 1660.23,-23.4023"/>
<polygon fill="midnightblue" stroke="midnightblue" points="1661.51,-20.1428 1650.93,-19.5306 1658.82,-26.6052 1661.51,-20.1428"/>
</g>
<!-- Node36&#45;&gt;Node33 -->
<g id="edge56" class="edge"><title>Node36&#45;&gt;Node33</title>
<path fill="none" stroke="midnightblue" d="M1659.3,-240.941C1678.24,-233.236 1702.42,-219.865 1714,-199 1724.85,-179.446 1710.75,-155.305 1698.21,-139.549"/>
<polygon fill="midnightblue" stroke="midnightblue" points="1700.71,-137.093 1691.57,-131.741 1695.38,-141.627 1700.71,-137.093"/>
</g>
<!-- Node37 -->
<g id="node37" class="node"><title>Node37</title>
<polygon fill="white" stroke="#bfbfbf" points="1761.5,-174 1761.5,-193 1810.5,-193 1810.5,-174 1761.5,-174"/>
<text text-anchor="middle" x="1786" y="-181" font-family="Helvetica,sans-Serif" font-size="10.00">stdio.h</text>
</g>
<!-- Node36&#45;&gt;Node37 -->
<g id="edge55" class="edge"><title>Node36&#45;&gt;Node37</title>
<path fill="none" stroke="midnightblue" d="M1653.32,-240.869C1679.72,-229.65 1726.03,-209.977 1756.36,-197.092"/>
<polygon fill="midnightblue" stroke="midnightblue" points="1757.76,-200.299 1765.6,-193.167 1755.03,-193.856 1757.76,-200.299"/>
</g>
<!-- Node38 -->
<g id="node38" class="node"><title>Node38</title>
<g id="a_node38"><a xlink:href="StringUtils_8hpp.html" target="_top" xlink:title="Core/String/StringUtils.hpp">
<polygon fill="white" stroke="black" points="1561,-174 1561,-193 1705,-193 1705,-174 1561,-174"/>
<text text-anchor="middle" x="1633" y="-181" font-family="Helvetica,sans-Serif" font-size="10.00">Core/String/StringUtils.hpp</text>
</a>
</g>
</g>
<!-- Node36&#45;&gt;Node38 -->
<g id="edge57" class="edge"><title>Node36&#45;&gt;Node38</title>
<path fill="none" stroke="midnightblue" d="M1633,-240.734C1633,-231.183 1633,-215.618 1633,-203.283"/>
<polygon fill="midnightblue" stroke="midnightblue" points="1636.5,-203.127 1633,-193.127 1629.5,-203.127 1636.5,-203.127"/>
</g>
<!-- Node39 -->
<g id="node39" class="node"><title>Node39</title>
<polygon fill="white" stroke="#bfbfbf" points="1499,-174 1499,-193 1543,-193 1543,-174 1499,-174"/>
<text text-anchor="middle" x="1521" y="-181" font-family="Helvetica,sans-Serif" font-size="10.00">ctime</text>
</g>
<!-- Node36&#45;&gt;Node39 -->
<g id="edge61" class="edge"><title>Node36&#45;&gt;Node39</title>
<path fill="none" stroke="midnightblue" d="M1617.9,-240.734C1599.09,-229.818 1566.75,-211.049 1544.64,-198.221"/>
<polygon fill="midnightblue" stroke="midnightblue" points="1546.27,-195.12 1535.87,-193.127 1542.76,-201.174 1546.27,-195.12"/>
</g>
<!-- Node38&#45;&gt;Node4 -->
<g id="edge58" class="edge"><title>Node38&#45;&gt;Node4</title>
<path fill="none" stroke="midnightblue" d="M1587.65,-173.991C1576.05,-171.921 1563.58,-169.79 1552,-168 1452.07,-152.547 1335.3,-138.061 1266.45,-129.886"/>
<polygon fill="midnightblue" stroke="midnightblue" points="1266.58,-126.377 1256.24,-128.677 1265.76,-133.328 1266.58,-126.377"/>
</g>
<!-- Node38&#45;&gt;Node16 -->
<g id="edge60" class="edge"><title>Node38&#45;&gt;Node16</title>
<path fill="none" stroke="midnightblue" d="M1609.79,-173.975C1582,-163.769 1535.28,-146.608 1503.81,-135.049"/>
<polygon fill="midnightblue" stroke="midnightblue" points="1504.76,-131.671 1494.17,-131.509 1502.35,-138.242 1504.76,-131.671"/>
</g>
<!-- Node38&#45;&gt;Node33 -->
<g id="edge59" class="edge"><title>Node38&#45;&gt;Node33</title>
<path fill="none" stroke="midnightblue" d="M1640.16,-173.975C1647.74,-164.962 1659.87,-150.525 1669.29,-139.312"/>
<polygon fill="midnightblue" stroke="midnightblue" points="1672.1,-141.417 1675.85,-131.509 1666.74,-136.913 1672.1,-141.417"/>
</g>
</g>
</svg>
