<?xml version="1.0" encoding="UTF-8" standalone="no"?>
<!DOCTYPE svg PUBLIC "-//W3C//DTD SVG 1.1//EN"
 "http://www.w3.org/Graphics/SVG/1.1/DTD/svg11.dtd">
<!-- Generated by graphviz version 2.38.0 (20140413.2041)
 -->
<!-- Title: /home/travis/build/STORM&#45;IRIT/Radium&#45;Engine/src/Core/Animation/Handle/HandleWeightOperation.cpp Pages: 1 -->
<svg width="1403pt" height="486pt"
 viewBox="0.00 0.00 1402.96 486.00" xmlns="http://www.w3.org/2000/svg" xmlns:xlink="http://www.w3.org/1999/xlink">
<g id="graph0" class="graph" transform="scale(1 1) rotate(0) translate(4 482)">
<title>/home/travis/build/STORM&#45;IRIT/Radium&#45;Engine/src/Core/Animation/Handle/HandleWeightOperation.cpp</title>
<polygon fill="white" stroke="none" points="-4,4 -4,-482 1398.96,-482 1398.96,4 -4,4"/>
<!-- Node1 -->
<g id="node1" class="node"><title>Node1</title>
<polygon fill="#bfbfbf" stroke="black" points="1066.5,-425.5 1066.5,-477.5 1218.5,-477.5 1218.5,-425.5 1066.5,-425.5"/>
<text text-anchor="start" x="1074.5" y="-465.5" font-family="Helvetica,sans-Serif" font-size="10.00">/home/travis/build</text>
<text text-anchor="start" x="1074.5" y="-454.5" font-family="Helvetica,sans-Serif" font-size="10.00">/STORM&#45;IRIT/Radium&#45;Engine</text>
<text text-anchor="start" x="1074.5" y="-443.5" font-family="Helvetica,sans-Serif" font-size="10.00">/src/Core/Animation/Handle</text>
<text text-anchor="middle" x="1142.5" y="-432.5" font-family="Helvetica,sans-Serif" font-size="10.00">/HandleWeightOperation.cpp</text>
</g>
<!-- Node2 -->
<g id="node2" class="node"><title>Node2</title>
<g id="a_node2"><a xlink:href="HandleWeightOperation_8hpp.html" target="_top" xlink:title="Core/Animation/Handle\l/HandleWeightOperation.hpp">
<polygon fill="white" stroke="black" points="843,-358.5 843,-388.5 996,-388.5 996,-358.5 843,-358.5"/>
<text text-anchor="start" x="851" y="-376.5" font-family="Helvetica,sans-Serif" font-size="10.00">Core/Animation/Handle</text>
<text text-anchor="middle" x="919.5" y="-365.5" font-family="Helvetica,sans-Serif" font-size="10.00">/HandleWeightOperation.hpp</text>
</a>
</g>
</g>
<!-- Node1&#45;&gt;Node2 -->
<g id="edge1" class="edge"><title>Node1&#45;&gt;Node2</title>
<path fill="none" stroke="midnightblue" d="M1068.86,-425.404C1036.61,-414.411 999.553,-401.783 970.421,-391.854"/>
<polygon fill="midnightblue" stroke="midnightblue" points="971.458,-388.51 960.864,-388.597 969.2,-395.136 971.458,-388.51"/>
</g>
<!-- Node26 -->
<g id="node26" class="node"><title>Node26</title>
<g id="a_node26"><a xlink:href="Log_8hpp.html" target="_top" xlink:title="Core/Log/Log.hpp">
<polygon fill="white" stroke="black" points="1122,-235.5 1122,-254.5 1223,-254.5 1223,-235.5 1122,-235.5"/>
<text text-anchor="middle" x="1172.5" y="-242.5" font-family="Helvetica,sans-Serif" font-size="10.00">Core/Log/Log.hpp</text>
</a>
</g>
</g>
<!-- Node1&#45;&gt;Node26 -->
<g id="edge28" class="edge"><title>Node1&#45;&gt;Node26</title>
<path fill="none" stroke="midnightblue" d="M1146.18,-425.424C1152.28,-383.862 1164.34,-301.629 1169.76,-264.711"/>
<polygon fill="midnightblue" stroke="midnightblue" points="1173.22,-265.206 1171.21,-254.803 1166.29,-264.19 1173.22,-265.206"/>
</g>
<!-- Node31 -->
<g id="node31" class="node"><title>Node31</title>
<polygon fill="white" stroke="#bfbfbf" points="1170.5,-364 1170.5,-383 1212.5,-383 1212.5,-364 1170.5,-364"/>
<text text-anchor="middle" x="1191.5" y="-371" font-family="Helvetica,sans-Serif" font-size="10.00">utility</text>
</g>
<!-- Node1&#45;&gt;Node31 -->
<g id="edge38" class="edge"><title>Node1&#45;&gt;Node31</title>
<path fill="none" stroke="midnightblue" d="M1158.82,-425.193C1165.91,-414.198 1174.03,-401.602 1180.4,-391.716"/>
<polygon fill="midnightblue" stroke="midnightblue" points="1183.41,-393.51 1185.89,-383.209 1177.52,-389.717 1183.41,-393.51"/>
</g>
<!-- Node3 -->
<g id="node3" class="node"><title>Node3</title>
<g id="a_node3"><a xlink:href="HandleWeight_8hpp.html" target="_top" xlink:title="Core/Animation/Handle\l/HandleWeight.hpp">
<polygon fill="white" stroke="black" points="619.5,-291.5 619.5,-321.5 747.5,-321.5 747.5,-291.5 619.5,-291.5"/>
<text text-anchor="start" x="627.5" y="-309.5" font-family="Helvetica,sans-Serif" font-size="10.00">Core/Animation/Handle</text>
<text text-anchor="middle" x="683.5" y="-298.5" font-family="Helvetica,sans-Serif" font-size="10.00">/HandleWeight.hpp</text>
</a>
</g>
</g>
<!-- Node2&#45;&gt;Node3 -->
<g id="edge2" class="edge"><title>Node2&#45;&gt;Node3</title>
<path fill="none" stroke="midnightblue" d="M868.582,-358.476C832.261,-348.472 783.242,-334.971 744.776,-324.377"/>
<polygon fill="midnightblue" stroke="midnightblue" points="745.304,-320.892 734.733,-321.611 743.445,-327.641 745.304,-320.892"/>
</g>
<!-- Node4 -->
<g id="node4" class="node"><title>Node4</title>
<g id="a_node4"><a xlink:href="AlignedStdVector_8hpp.html" target="_top" xlink:title="Core/Containers/AlignedStd\lVector.hpp">
<polygon fill="white" stroke="black" points="916,-168.5 916,-198.5 1065,-198.5 1065,-168.5 916,-168.5"/>
<text text-anchor="start" x="924" y="-186.5" font-family="Helvetica,sans-Serif" font-size="10.00">Core/Containers/AlignedStd</text>
<text text-anchor="middle" x="990.5" y="-175.5" font-family="Helvetica,sans-Serif" font-size="10.00">Vector.hpp</text>
</a>
</g>
</g>
<!-- Node3&#45;&gt;Node4 -->
<g id="edge3" class="edge"><title>Node3&#45;&gt;Node4</title>
<path fill="none" stroke="midnightblue" d="M719.318,-291.383C775.469,-269.251 884.129,-226.425 945.485,-202.242"/>
<polygon fill="midnightblue" stroke="midnightblue" points="946.89,-205.45 954.911,-198.527 944.324,-198.938 946.89,-205.45"/>
</g>
<!-- Node14 -->
<g id="node14" class="node"><title>Node14</title>
<g id="a_node14"><a xlink:href="LinearAlgebra_8hpp.html" target="_top" xlink:title="Core/Math/LinearAlgebra.hpp">
<polygon fill="white" stroke="black" points="546.5,-235.5 546.5,-254.5 702.5,-254.5 702.5,-235.5 546.5,-235.5"/>
<text text-anchor="middle" x="624.5" y="-242.5" font-family="Helvetica,sans-Serif" font-size="10.00">Core/Math/LinearAlgebra.hpp</text>
</a>
</g>
</g>
<!-- Node3&#45;&gt;Node14 -->
<g id="edge13" class="edge"><title>Node3&#45;&gt;Node14</title>
<path fill="none" stroke="midnightblue" d="M669.518,-291.399C660.768,-282.575 649.471,-271.183 640.383,-262.018"/>
<polygon fill="midnightblue" stroke="midnightblue" points="642.612,-259.294 633.085,-254.658 637.641,-264.223 642.612,-259.294"/>
</g>
<!-- Node25 -->
<g id="node25" class="node"><title>Node25</title>
<polygon fill="white" stroke="#bfbfbf" points="490.5,-235.5 490.5,-254.5 528.5,-254.5 528.5,-235.5 490.5,-235.5"/>
<text text-anchor="middle" x="509.5" y="-242.5" font-family="Helvetica,sans-Serif" font-size="10.00">map</text>
</g>
<!-- Node3&#45;&gt;Node25 -->
<g id="edge27" class="edge"><title>Node3&#45;&gt;Node25</title>
<path fill="none" stroke="midnightblue" d="M642.264,-291.399C610.222,-280.442 566.601,-265.526 538.248,-255.831"/>
<polygon fill="midnightblue" stroke="midnightblue" points="539.138,-252.436 528.543,-252.512 536.873,-259.059 539.138,-252.436"/>
</g>
<!-- Node5 -->
<g id="node5" class="node"><title>Node5</title>
<g id="a_node5"><a xlink:href="RaCore_8hpp.html" target="_top" xlink:title="Core/RaCore.hpp">
<polygon fill="white" stroke="black" points="839.5,-112.5 839.5,-131.5 937.5,-131.5 937.5,-112.5 839.5,-112.5"/>
<text text-anchor="middle" x="888.5" y="-119.5" font-family="Helvetica,sans-Serif" font-size="10.00">Core/RaCore.hpp</text>
</a>
</g>
</g>
<!-- Node4&#45;&gt;Node5 -->
<g id="edge4" class="edge"><title>Node4&#45;&gt;Node5</title>
<path fill="none" stroke="midnightblue" d="M966.327,-168.399C949.978,-158.862 928.485,-146.325 912.23,-136.842"/>
<polygon fill="midnightblue" stroke="midnightblue" points="913.743,-133.673 903.342,-131.658 910.216,-139.72 913.743,-133.673"/>
</g>
<!-- Node12 -->
<g id="node12" class="node"><title>Node12</title>
<polygon fill="white" stroke="#bfbfbf" points="955,-112.5 955,-131.5 1048,-131.5 1048,-112.5 955,-112.5"/>
<text text-anchor="middle" x="1001.5" y="-119.5" font-family="Helvetica,sans-Serif" font-size="10.00">Eigen/StdVector</text>
</g>
<!-- Node4&#45;&gt;Node12 -->
<g id="edge11" class="edge"><title>Node4&#45;&gt;Node12</title>
<path fill="none" stroke="midnightblue" d="M993.107,-168.399C994.59,-160.377 996.465,-150.233 998.067,-141.569"/>
<polygon fill="midnightblue" stroke="midnightblue" points="1001.52,-142.127 999.899,-131.658 994.64,-140.855 1001.52,-142.127"/>
</g>
<!-- Node13 -->
<g id="node13" class="node"><title>Node13</title>
<polygon fill="white" stroke="#bfbfbf" points="1176,-112.5 1176,-131.5 1223,-131.5 1223,-112.5 1176,-112.5"/>
<text text-anchor="middle" x="1199.5" y="-119.5" font-family="Helvetica,sans-Serif" font-size="10.00">vector</text>
</g>
<!-- Node4&#45;&gt;Node13 -->
<g id="edge12" class="edge"><title>Node4&#45;&gt;Node13</title>
<path fill="none" stroke="midnightblue" d="M1039.77,-168.475C1078.59,-157.421 1131.69,-142.304 1165.8,-132.594"/>
<polygon fill="midnightblue" stroke="midnightblue" points="1167.08,-135.869 1175.74,-129.765 1165.16,-129.137 1167.08,-135.869"/>
</g>
<!-- Node6 -->
<g id="node6" class="node"><title>Node6</title>
<g id="a_node6"><a xlink:href="CoreMacros_8hpp.html" target="_top" xlink:title="Core/CoreMacros.hpp">
<polygon fill="white" stroke="black" points="925.5,-56.5 925.5,-75.5 1045.5,-75.5 1045.5,-56.5 925.5,-56.5"/>
<text text-anchor="middle" x="985.5" y="-63.5" font-family="Helvetica,sans-Serif" font-size="10.00">Core/CoreMacros.hpp</text>
</a>
</g>
</g>
<!-- Node5&#45;&gt;Node6 -->
<g id="edge5" class="edge"><title>Node5&#45;&gt;Node6</title>
<path fill="none" stroke="midnightblue" d="M904.085,-112.324C919.499,-103.743 943.312,-90.486 961.21,-80.5224"/>
<polygon fill="midnightblue" stroke="midnightblue" points="962.919,-83.5767 969.954,-75.6545 959.514,-77.4606 962.919,-83.5767"/>
</g>
<!-- Node7 -->
<g id="node7" class="node"><title>Node7</title>
<polygon fill="white" stroke="#bfbfbf" points="926.5,-0.5 926.5,-19.5 978.5,-19.5 978.5,-0.5 926.5,-0.5"/>
<text text-anchor="middle" x="952.5" y="-7.5" font-family="Helvetica,sans-Serif" font-size="10.00">cassert</text>
</g>
<!-- Node6&#45;&gt;Node7 -->
<g id="edge6" class="edge"><title>Node6&#45;&gt;Node7</title>
<path fill="none" stroke="midnightblue" d="M980.051,-56.083C975.486,-48.6127 968.832,-37.7244 963.207,-28.5199"/>
<polygon fill="midnightblue" stroke="midnightblue" points="966.049,-26.4588 957.848,-19.7511 960.076,-30.109 966.049,-26.4588"/>
</g>
<!-- Node8 -->
<g id="node8" class="node"><title>Node8</title>
<polygon fill="white" stroke="#bfbfbf" points="997,-0.5 997,-19.5 1042,-19.5 1042,-0.5 997,-0.5"/>
<text text-anchor="middle" x="1019.5" y="-7.5" font-family="Helvetica,sans-Serif" font-size="10.00">cstdio</text>
</g>
<!-- Node6&#45;&gt;Node8 -->
<g id="edge7" class="edge"><title>Node6&#45;&gt;Node8</title>
<path fill="none" stroke="midnightblue" d="M991.114,-56.083C995.867,-48.5341 1002.82,-37.4948 1008.65,-28.2298"/>
<polygon fill="midnightblue" stroke="midnightblue" points="1011.62,-30.0783 1013.99,-19.7511 1005.7,-26.3486 1011.62,-30.0783"/>
</g>
<!-- Node9 -->
<g id="node9" class="node"><title>Node9</title>
<polygon fill="white" stroke="#bfbfbf" points="1060,-0.5 1060,-19.5 1119,-19.5 1119,-0.5 1060,-0.5"/>
<text text-anchor="middle" x="1089.5" y="-7.5" font-family="Helvetica,sans-Serif" font-size="10.00">iostream</text>
</g>
<!-- Node6&#45;&gt;Node9 -->
<g id="edge8" class="edge"><title>Node6&#45;&gt;Node9</title>
<path fill="none" stroke="midnightblue" d="M1002.21,-56.324C1018.81,-47.7034 1044.5,-34.3643 1063.72,-24.3855"/>
<polygon fill="midnightblue" stroke="midnightblue" points="1065.57,-27.3689 1072.83,-19.6545 1062.34,-21.1565 1065.57,-27.3689"/>
</g>
<!-- Node10 -->
<g id="node10" class="node"><title>Node10</title>
<polygon fill="white" stroke="#bfbfbf" points="1234.5,-0.5 1234.5,-19.5 1290.5,-19.5 1290.5,-0.5 1234.5,-0.5"/>
<text text-anchor="middle" x="1262.5" y="-7.5" font-family="Helvetica,sans-Serif" font-size="10.00">sstream</text>
</g>
<!-- Node6&#45;&gt;Node10 -->
<g id="edge9" class="edge"><title>Node6&#45;&gt;Node10</title>
<path fill="none" stroke="midnightblue" d="M1029.39,-56.4435C1083.2,-45.9544 1173.49,-28.3518 1224.47,-18.4137"/>
<polygon fill="midnightblue" stroke="midnightblue" points="1225.28,-21.8225 1234.42,-16.4736 1223.94,-14.9518 1225.28,-21.8225"/>
</g>
<!-- Node11 -->
<g id="node11" class="node"><title>Node11</title>
<polygon fill="white" stroke="#bfbfbf" points="860.5,-0.5 860.5,-19.5 908.5,-19.5 908.5,-0.5 860.5,-0.5"/>
<text text-anchor="middle" x="884.5" y="-7.5" font-family="Helvetica,sans-Serif" font-size="10.00">thread</text>
</g>
<!-- Node6&#45;&gt;Node11 -->
<g id="edge10" class="edge"><title>Node6&#45;&gt;Node11</title>
<path fill="none" stroke="midnightblue" d="M969.273,-56.324C953.149,-47.7034 928.2,-34.3643 909.536,-24.3855"/>
<polygon fill="midnightblue" stroke="midnightblue" points="911.156,-21.283 900.687,-19.6545 907.856,-27.456 911.156,-21.283"/>
</g>
<!-- Node14&#45;&gt;Node5 -->
<g id="edge14" class="edge"><title>Node14&#45;&gt;Node5</title>
<path fill="none" stroke="midnightblue" d="M702.738,-240.032C743.759,-234.871 793.278,-223.536 831.5,-199 853.777,-184.7 870.525,-158.458 879.922,-140.868"/>
<polygon fill="midnightblue" stroke="midnightblue" points="883.186,-142.169 884.59,-131.668 876.944,-139.001 883.186,-142.169"/>
</g>
<!-- Node15 -->
<g id="node15" class="node"><title>Node15</title>
<polygon fill="white" stroke="#bfbfbf" points="462.5,-174 462.5,-193 530.5,-193 530.5,-174 462.5,-174"/>
<text text-anchor="middle" x="496.5" y="-181" font-family="Helvetica,sans-Serif" font-size="10.00">Eigen/Core</text>
</g>
<!-- Node14&#45;&gt;Node15 -->
<g id="edge15" class="edge"><title>Node14&#45;&gt;Node15</title>
<path fill="none" stroke="midnightblue" d="M606.161,-235.475C584.679,-225.49 548.878,-208.848 524.052,-197.307"/>
<polygon fill="midnightblue" stroke="midnightblue" points="525.349,-194.051 514.805,-193.009 522.398,-200.398 525.349,-194.051"/>
</g>
<!-- Node16 -->
<g id="node16" class="node"><title>Node16</title>
<polygon fill="white" stroke="#bfbfbf" points="548.5,-174 548.5,-193 642.5,-193 642.5,-174 548.5,-174"/>
<text text-anchor="middle" x="595.5" y="-181" font-family="Helvetica,sans-Serif" font-size="10.00">Eigen/Geometry</text>
</g>
<!-- Node14&#45;&gt;Node16 -->
<g id="edge16" class="edge"><title>Node14&#45;&gt;Node16</title>
<path fill="none" stroke="midnightblue" d="M620.345,-235.475C616.124,-226.815 609.463,-213.149 604.1,-202.145"/>
<polygon fill="midnightblue" stroke="midnightblue" points="607.175,-200.465 599.647,-193.009 600.882,-203.532 607.175,-200.465"/>
</g>
<!-- Node17 -->
<g id="node17" class="node"><title>Node17</title>
<polygon fill="white" stroke="#bfbfbf" points="660.5,-174 660.5,-193 740.5,-193 740.5,-174 660.5,-174"/>
<text text-anchor="middle" x="700.5" y="-181" font-family="Helvetica,sans-Serif" font-size="10.00">Eigen/Sparse</text>
</g>
<!-- Node14&#45;&gt;Node17 -->
<g id="edge17" class="edge"><title>Node14&#45;&gt;Node17</title>
<path fill="none" stroke="midnightblue" d="M635.389,-235.475C647.466,-226.02 667.167,-210.596 681.74,-199.187"/>
<polygon fill="midnightblue" stroke="midnightblue" points="683.915,-201.929 689.631,-193.009 679.6,-196.418 683.915,-201.929"/>
</g>
<!-- Node18 -->
<g id="node18" class="node"><title>Node18</title>
<polygon fill="white" stroke="#bfbfbf" points="759,-174 759,-193 822,-193 822,-174 759,-174"/>
<text text-anchor="middle" x="790.5" y="-181" font-family="Helvetica,sans-Serif" font-size="10.00">functional</text>
</g>
<!-- Node14&#45;&gt;Node18 -->
<g id="edge18" class="edge"><title>Node14&#45;&gt;Node18</title>
<path fill="none" stroke="midnightblue" d="M648.284,-235.475C676.882,-225.225 725.051,-207.959 757.302,-196.399"/>
<polygon fill="midnightblue" stroke="midnightblue" points="758.528,-199.678 766.76,-193.009 756.166,-193.089 758.528,-199.678"/>
</g>
<!-- Node19 -->
<g id="node19" class="node"><title>Node19</title>
<polygon fill="white" stroke="#bfbfbf" points="0,-168.5 0,-198.5 145,-198.5 145,-168.5 0,-168.5"/>
<text text-anchor="start" x="8" y="-186.5" font-family="Helvetica,sans-Serif" font-size="10.00">unsupported/Eigen/Aligned</text>
<text text-anchor="middle" x="72.5" y="-175.5" font-family="Helvetica,sans-Serif" font-size="10.00">Vector3</text>
</g>
<!-- Node14&#45;&gt;Node19 -->
<g id="edge19" class="edge"><title>Node14&#45;&gt;Node19</title>
<path fill="none" stroke="midnightblue" d="M546.249,-235.869C543.295,-235.574 540.371,-235.283 537.5,-235 370.161,-218.501 325.054,-221.98 155.339,-199.188"/>
<polygon fill="midnightblue" stroke="midnightblue" points="155.691,-195.704 145.312,-197.831 154.752,-202.641 155.691,-195.704"/>
</g>
<!-- Node20 -->
<g id="node20" class="node"><title>Node20</title>
<g id="a_node20"><a xlink:href="Math_8hpp.html" target="_top" xlink:title="Core/Math/Math.hpp">
<polygon fill="white" stroke="black" points="330.5,-174 330.5,-193 444.5,-193 444.5,-174 330.5,-174"/>
<text text-anchor="middle" x="387.5" y="-181" font-family="Helvetica,sans-Serif" font-size="10.00">Core/Math/Math.hpp</text>
</a>
</g>
</g>
<!-- Node14&#45;&gt;Node20 -->
<g id="edge20" class="edge"><title>Node14&#45;&gt;Node20</title>
<path fill="none" stroke="midnightblue" d="M590.544,-235.475C548.658,-224.959 477.367,-207.062 431.372,-195.514"/>
<polygon fill="midnightblue" stroke="midnightblue" points="431.945,-192.049 421.393,-193.009 430.24,-198.839 431.945,-192.049"/>
</g>
<!-- Node24 -->
<g id="node24" class="node"><title>Node24</title>
<g id="a_node24"><a xlink:href="LinearAlgebra_8inl.html" target="_top" xlink:title="Core/Math/LinearAlgebra.inl">
<polygon fill="white" stroke="black" points="163,-174 163,-193 312,-193 312,-174 163,-174"/>
<text text-anchor="middle" x="237.5" y="-181" font-family="Helvetica,sans-Serif" font-size="10.00">Core/Math/LinearAlgebra.inl</text>
</a>
</g>
</g>
<!-- Node14&#45;&gt;Node24 -->
<g id="edge26" class="edge"><title>Node14&#45;&gt;Node24</title>
<path fill="none" stroke="midnightblue" d="M564.359,-235.493C503.174,-226.738 405.645,-212.509 321.5,-199 313.203,-197.668 304.454,-196.214 295.862,-194.756"/>
<polygon fill="midnightblue" stroke="midnightblue" points="296.331,-191.286 285.884,-193.052 295.152,-198.186 296.331,-191.286"/>
</g>
<!-- Node20&#45;&gt;Node5 -->
<g id="edge21" class="edge"><title>Node20&#45;&gt;Node5</title>
<path fill="none" stroke="midnightblue" d="M422.982,-173.932C432.822,-171.767 443.539,-169.604 453.5,-168 586.98,-146.504 745.24,-133.14 829.222,-126.995"/>
<polygon fill="midnightblue" stroke="midnightblue" points="829.614,-130.476 839.335,-126.264 829.109,-123.494 829.614,-130.476"/>
</g>
<!-- Node21 -->
<g id="node21" class="node"><title>Node21</title>
<polygon fill="white" stroke="#bfbfbf" points="236.5,-112.5 236.5,-131.5 298.5,-131.5 298.5,-112.5 236.5,-112.5"/>
<text text-anchor="middle" x="267.5" y="-119.5" font-family="Helvetica,sans-Serif" font-size="10.00">algorithm</text>
</g>
<!-- Node20&#45;&gt;Node21 -->
<g id="edge22" class="edge"><title>Node20&#45;&gt;Node21</title>
<path fill="none" stroke="midnightblue" d="M370.307,-173.975C350.257,-164.034 316.901,-147.495 293.64,-135.961"/>
<polygon fill="midnightblue" stroke="midnightblue" points="295.175,-132.816 284.661,-131.509 292.066,-139.087 295.175,-132.816"/>
</g>
<!-- Node22 -->
<g id="node22" class="node"><title>Node22</title>
<polygon fill="white" stroke="#bfbfbf" points="317,-112.5 317,-131.5 364,-131.5 364,-112.5 317,-112.5"/>
<text text-anchor="middle" x="340.5" y="-119.5" font-family="Helvetica,sans-Serif" font-size="10.00">cmath</text>
</g>
<!-- Node20&#45;&gt;Node22 -->
<g id="edge23" class="edge"><title>Node20&#45;&gt;Node22</title>
<path fill="none" stroke="midnightblue" d="M380.766,-173.975C373.716,-165.05 362.465,-150.807 353.646,-139.643"/>
<polygon fill="midnightblue" stroke="midnightblue" points="356.167,-137.187 347.221,-131.509 350.674,-141.526 356.167,-137.187"/>
</g>
<!-- Node23 -->
<g id="node23" class="node"><title>Node23</title>
<g id="a_node23"><a xlink:href="Math_8inl.html" target="_top" xlink:title="Core/Math/Math.inl">
<polygon fill="white" stroke="black" points="382,-112.5 382,-131.5 489,-131.5 489,-112.5 382,-112.5"/>
<text text-anchor="middle" x="435.5" y="-119.5" font-family="Helvetica,sans-Serif" font-size="10.00">Core/Math/Math.inl</text>
</a>
</g>
</g>
<!-- Node20&#45;&gt;Node23 -->
<g id="edge24" class="edge"><title>Node20&#45;&gt;Node23</title>
<path fill="none" stroke="midnightblue" d="M389.477,-173.975C394.834,-164.873 406.251,-150.241 416.545,-138.983"/>
<polygon fill="midnightblue" stroke="midnightblue" points="419.325,-141.141 423.738,-131.509 414.282,-136.287 419.325,-141.141"/>
</g>
<!-- Node23&#45;&gt;Node20 -->
<g id="edge25" class="edge"><title>Node23&#45;&gt;Node20</title>
<path fill="none" stroke="midnightblue" d="M433.533,-131.509C428.182,-140.604 416.768,-155.236 406.473,-166.497"/>
<polygon fill="midnightblue" stroke="midnightblue" points="403.69,-164.343 399.278,-173.975 408.734,-169.196 403.69,-164.343"/>
</g>
<!-- Node26&#45;&gt;Node5 -->
<g id="edge29" class="edge"><title>Node26&#45;&gt;Node5</title>
<path fill="none" stroke="midnightblue" d="M1121.89,-241.856C1053.86,-237.922 937.93,-227.18 907.5,-199 891.783,-184.446 888.214,-159.033 887.794,-141.632"/>
<polygon fill="midnightblue" stroke="midnightblue" points="891.294,-141.577 887.876,-131.548 884.294,-141.519 891.294,-141.577"/>
</g>
<!-- Node26&#45;&gt;Node10 -->
<g id="edge30" class="edge"><title>Node26&#45;&gt;Node10</title>
<path fill="none" stroke="midnightblue" d="M1223.16,-240.255C1278.52,-234.985 1361.97,-223.183 1381.5,-199 1430.08,-138.85 1329.95,-57.8323 1283.95,-25.3482"/>
<polygon fill="midnightblue" stroke="midnightblue" points="1285.75,-22.335 1275.53,-19.5191 1281.76,-28.0898 1285.75,-22.335"/>
</g>
<!-- Node27 -->
<g id="node27" class="node"><title>Node27</title>
<polygon fill="white" stroke="#bfbfbf" points="1083,-174 1083,-193 1132,-193 1132,-174 1083,-174"/>
<text text-anchor="middle" x="1107.5" y="-181" font-family="Helvetica,sans-Serif" font-size="10.00">stdio.h</text>
</g>
<!-- Node26&#45;&gt;Node27 -->
<g id="edge31" class="edge"><title>Node26&#45;&gt;Node27</title>
<path fill="none" stroke="midnightblue" d="M1163.19,-235.475C1153.05,-226.197 1136.64,-211.171 1124.25,-199.831"/>
<polygon fill="midnightblue" stroke="midnightblue" points="1126.54,-197.18 1116.8,-193.009 1121.81,-202.343 1126.54,-197.18"/>
</g>
<!-- Node28 -->
<g id="node28" class="node"><title>Node28</title>
<polygon fill="white" stroke="#bfbfbf" points="1306.5,-112.5 1306.5,-131.5 1350.5,-131.5 1350.5,-112.5 1306.5,-112.5"/>
<text text-anchor="middle" x="1328.5" y="-119.5" font-family="Helvetica,sans-Serif" font-size="10.00">string</text>
</g>
<!-- Node26&#45;&gt;Node28 -->
<g id="edge32" class="edge"><title>Node26&#45;&gt;Node28</title>
<path fill="none" stroke="midnightblue" d="M1223.04,-239.249C1274.14,-233.277 1348.01,-221.031 1365.5,-199 1380.24,-180.429 1361.64,-155.028 1345.91,-138.815"/>
<polygon fill="midnightblue" stroke="midnightblue" points="1348.18,-136.14 1338.58,-131.664 1343.29,-141.152 1348.18,-136.14"/>
</g>
<!-- Node29 -->
<g id="node29" class="node"><title>Node29</title>
<g id="a_node29"><a xlink:href="StringUtils_8hpp.html" target="_top" xlink:title="Core/String/StringUtils.hpp">
<polygon fill="white" stroke="black" points="1212.5,-174 1212.5,-193 1356.5,-193 1356.5,-174 1212.5,-174"/>
<text text-anchor="middle" x="1284.5" y="-181" font-family="Helvetica,sans-Serif" font-size="10.00">Core/String/StringUtils.hpp</text>
</a>
</g>
</g>
<!-- Node26&#45;&gt;Node29 -->
<g id="edge33" class="edge"><title>Node26&#45;&gt;Node29</title>
<path fill="none" stroke="midnightblue" d="M1188.55,-235.475C1207.09,-225.622 1237.84,-209.288 1259.52,-197.77"/>
<polygon fill="midnightblue" stroke="midnightblue" points="1261.29,-200.792 1268.48,-193.009 1258.01,-194.61 1261.29,-200.792"/>
</g>
<!-- Node30 -->
<g id="node30" class="node"><title>Node30</title>
<polygon fill="white" stroke="#bfbfbf" points="1150.5,-174 1150.5,-193 1194.5,-193 1194.5,-174 1150.5,-174"/>
<text text-anchor="middle" x="1172.5" y="-181" font-family="Helvetica,sans-Serif" font-size="10.00">ctime</text>
</g>
<!-- Node26&#45;&gt;Node30 -->
<g id="edge37" class="edge"><title>Node26&#45;&gt;Node30</title>
<path fill="none" stroke="midnightblue" d="M1172.5,-235.475C1172.5,-227.08 1172.5,-213.981 1172.5,-203.163"/>
<polygon fill="midnightblue" stroke="midnightblue" points="1176,-203.009 1172.5,-193.009 1169,-203.009 1176,-203.009"/>
</g>
<!-- Node29&#45;&gt;Node5 -->
<g id="edge34" class="edge"><title>Node29&#45;&gt;Node5</title>
<path fill="none" stroke="midnightblue" d="M1238.72,-173.991C1227.23,-171.943 1214.93,-169.822 1203.5,-168 1092.83,-150.349 1062.31,-148.913 947.773,-132.166"/>
<polygon fill="midnightblue" stroke="midnightblue" points="947.943,-128.653 937.54,-130.662 946.925,-135.579 947.943,-128.653"/>
</g>
<!-- Node29&#45;&gt;Node13 -->
<g id="edge36" class="edge"><title>Node29&#45;&gt;Node13</title>
<path fill="none" stroke="midnightblue" d="M1272.32,-173.975C1258.69,-164.431 1236.37,-148.807 1220.03,-137.368"/>
<polygon fill="midnightblue" stroke="midnightblue" points="1221.86,-134.376 1211.66,-131.509 1217.84,-140.111 1221.86,-134.376"/>
</g>
<!-- Node29&#45;&gt;Node28 -->
<g id="edge35" class="edge"><title>Node29&#45;&gt;Node28</title>
<path fill="none" stroke="midnightblue" d="M1290.8,-173.975C1297.4,-165.05 1307.94,-150.807 1316.19,-139.643"/>
<polygon fill="midnightblue" stroke="midnightblue" points="1319.08,-141.631 1322.21,-131.509 1313.45,-137.468 1319.08,-141.631"/>
</g>
</g>
</svg>
