<?xml version="1.0" encoding="UTF-8" standalone="no"?>
<!DOCTYPE svg PUBLIC "-//W3C//DTD SVG 1.1//EN"
 "http://www.w3.org/Graphics/SVG/1.1/DTD/svg11.dtd">
<!-- Generated by graphviz version 2.38.0 (20140413.2041)
 -->
<!-- Title: /home/travis/build/STORM&#45;IRIT/Radium&#45;Engine/src/Core/Animation/Handle/HandleWeightOperation.hpp Pages: 1 -->
<svg width="352pt" height="150pt"
 viewBox="0.00 0.00 352.00 150.00" xmlns="http://www.w3.org/2000/svg" xmlns:xlink="http://www.w3.org/1999/xlink">
<g id="graph0" class="graph" transform="scale(1 1) rotate(0) translate(4 146)">
<title>/home/travis/build/STORM&#45;IRIT/Radium&#45;Engine/src/Core/Animation/Handle/HandleWeightOperation.hpp</title>
<polygon fill="white" stroke="none" points="-4,4 -4,-146 348,-146 348,4 -4,4"/>
<!-- Node1 -->
<g id="node1" class="node"><title>Node1</title>
<polygon fill="#bfbfbf" stroke="black" points="89.5,-89.5 89.5,-141.5 242.5,-141.5 242.5,-89.5 89.5,-89.5"/>
<text text-anchor="start" x="97.5" y="-129.5" font-family="Helvetica,sans-Serif" font-size="10.00">/home/travis/build</text>
<text text-anchor="start" x="97.5" y="-118.5" font-family="Helvetica,sans-Serif" font-size="10.00">/STORM&#45;IRIT/Radium&#45;Engine</text>
<text text-anchor="start" x="97.5" y="-107.5" font-family="Helvetica,sans-Serif" font-size="10.00">/src/Core/Animation/Handle</text>
<text text-anchor="middle" x="166" y="-96.5" font-family="Helvetica,sans-Serif" font-size="10.00">/HandleWeightOperation.hpp</text>
</g>
<!-- Node2 -->
<g id="node2" class="node"><title>Node2</title>
<g id="a_node2"><a xlink:href="HandleWeightOperation_8cpp.html" target="_top" xlink:title="/home/travis/build\l/STORM&#45;IRIT/Radium&#45;Engine\l/src/Core/Animation/Handle\l/HandleWeightOperation.cpp">
<polygon fill="white" stroke="black" points="0,-0.5 0,-52.5 152,-52.5 152,-0.5 0,-0.5"/>
<text text-anchor="start" x="8" y="-40.5" font-family="Helvetica,sans-Serif" font-size="10.00">/home/travis/build</text>
<text text-anchor="start" x="8" y="-29.5" font-family="Helvetica,sans-Serif" font-size="10.00">/STORM&#45;IRIT/Radium&#45;Engine</text>
<text text-anchor="start" x="8" y="-18.5" font-family="Helvetica,sans-Serif" font-size="10.00">/src/Core/Animation/Handle</text>
<text text-anchor="middle" x="76" y="-7.5" font-family="Helvetica,sans-Serif" font-size="10.00">/HandleWeightOperation.cpp</text>
</a>
</g>
</g>
<!-- Node1&#45;&gt;Node2 -->
<g id="edge1" class="edge"><title>Node1&#45;&gt;Node2</title>
<path fill="none" stroke="midnightblue" d="M132.755,-82.3631C122.595,-72.542 111.576,-61.8899 101.973,-52.6075"/>
<polygon fill="midnightblue" stroke="midnightblue" points="130.346,-84.9022 139.968,-89.336 135.211,-79.8693 130.346,-84.9022"/>
</g>
<!-- Node3 -->
<g id="node3" class="node"><title>Node3</title>
<g id="a_node3"><a xlink:href="AnimationComponent_8cpp.html" target="_top" xlink:title="/home/travis/build\l/STORM&#45;IRIT/Radium&#45;Engine\l/Plugins/Animation/src/Animation\lComponent.cpp">
<polygon fill="white" stroke="black" points="170,-0.5 170,-52.5 344,-52.5 344,-0.5 170,-0.5"/>
<text text-anchor="start" x="178" y="-40.5" font-family="Helvetica,sans-Serif" font-size="10.00">/home/travis/build</text>
<text text-anchor="start" x="178" y="-29.5" font-family="Helvetica,sans-Serif" font-size="10.00">/STORM&#45;IRIT/Radium&#45;Engine</text>
<text text-anchor="start" x="178" y="-18.5" font-family="Helvetica,sans-Serif" font-size="10.00">/Plugins/Animation/src/Animation</text>
<text text-anchor="middle" x="257" y="-7.5" font-family="Helvetica,sans-Serif" font-size="10.00">Component.cpp</text>
</a>
</g>
</g>
<!-- Node1&#45;&gt;Node3 -->
<g id="edge2" class="edge"><title>Node1&#45;&gt;Node3</title>
<path fill="none" stroke="midnightblue" d="M199.614,-82.3631C209.887,-72.542 221.029,-61.8899 230.738,-52.6075"/>
<polygon fill="midnightblue" stroke="midnightblue" points="197.13,-79.8957 192.321,-89.336 201.968,-84.9554 197.13,-79.8957"/>
</g>
</g>
</svg>
