<?xml version="1.0" encoding="UTF-8" standalone="no"?>
<!DOCTYPE svg PUBLIC "-//W3C//DTD SVG 1.1//EN"
 "http://www.w3.org/Graphics/SVG/1.1/DTD/svg11.dtd">
<!-- Generated by graphviz version 2.38.0 (20140413.2041)
 -->
<!-- Title: Graphical Class Hierarchy Pages: 1 -->
<svg width="527pt" height="950pt"
 viewBox="0.00 0.00 527.00 949.50" xmlns="http://www.w3.org/2000/svg" xmlns:xlink="http://www.w3.org/1999/xlink">
<g id="graph0" class="graph" transform="scale(1 1) rotate(0) translate(4 945.5)">
<title>Graphical Class Hierarchy</title>
<polygon fill="white" stroke="none" points="-4,4 -4,-945.5 523,-945.5 523,4 -4,4"/>
<!-- Node1 -->
<g id="node1" class="node"><title>Node1</title>
<g id="a_node1"><a xlink:title="STL class. ">
<polygon fill="white" stroke="#bfbfbf" points="5.68434e-14,-450.5 5.68434e-14,-469.5 95,-469.5 95,-450.5 5.68434e-14,-450.5"/>
<text text-anchor="middle" x="47.5" y="-457.5" font-family="Helvetica,sans-Serif" font-size="10.00">std::vector&lt; T &gt;</text>
</a>
</g>
</g>
<!-- Node2 -->
<g id="node2" class="node"><title>Node2</title>
<g id="a_node2"><a xlink:href="structRa_1_1Core_1_1AlignedStdVector.html" target="_top" xlink:title="Ra::Core::AlignedStdVector\l\&lt; ChildrenList \&gt;">
<polygon fill="white" stroke="black" points="159.5,-911 159.5,-941 305.5,-941 305.5,-911 159.5,-911"/>
<text text-anchor="start" x="167.5" y="-929" font-family="Helvetica,sans-Serif" font-size="10.00">Ra::Core::AlignedStdVector</text>
<text text-anchor="middle" x="232.5" y="-918" font-family="Helvetica,sans-Serif" font-size="10.00">&lt; ChildrenList &gt;</text>
</a>
</g>
</g>
<!-- Node1&#45;&gt;Node2 -->
<g id="edge1" class="edge"><title>Node1&#45;&gt;Node2</title>
<path fill="none" stroke="midnightblue" d="M49.4137,-479.865C53.3933,-557.572 71.763,-839.732 131,-902 138.728,-910.123 148.672,-915.71 159.291,-919.516"/>
<polygon fill="midnightblue" stroke="midnightblue" points="52.8947,-479.389 48.911,-469.571 45.9031,-479.73 52.8947,-479.389"/>
</g>
<!-- Node3 -->
<g id="node3" class="node"><title>Node3</title>
<g id="a_node3"><a xlink:href="structRa_1_1Core_1_1AlignedStdVector.html" target="_top" xlink:title="Ra::Core::AlignedStdVector\l\&lt; Core::Color \&gt;">
<polygon fill="white" stroke="black" points="159.5,-862 159.5,-892 305.5,-892 305.5,-862 159.5,-862"/>
<text text-anchor="start" x="167.5" y="-880" font-family="Helvetica,sans-Serif" font-size="10.00">Ra::Core::AlignedStdVector</text>
<text text-anchor="middle" x="232.5" y="-869" font-family="Helvetica,sans-Serif" font-size="10.00">&lt; Core::Color &gt;</text>
</a>
</g>
</g>
<!-- Node1&#45;&gt;Node3 -->
<g id="edge2" class="edge"><title>Node1&#45;&gt;Node3</title>
<path fill="none" stroke="midnightblue" d="M49.9208,-479.935C55.4698,-552.134 78.0415,-798.565 131,-853 138.818,-861.036 148.809,-866.579 159.446,-870.367"/>
<polygon fill="midnightblue" stroke="midnightblue" points="53.3814,-479.273 49.1501,-469.56 46.4006,-479.791 53.3814,-479.273"/>
</g>
<!-- Node5 -->
<g id="node5" class="node"><title>Node5</title>
<g id="a_node5"><a xlink:href="structRa_1_1Core_1_1AlignedStdVector.html" target="_top" xlink:title="Ra::Core::AlignedStdVector\l\&lt; Core::Vector2i \&gt;">
<polygon fill="white" stroke="black" points="159.5,-813 159.5,-843 305.5,-843 305.5,-813 159.5,-813"/>
<text text-anchor="start" x="167.5" y="-831" font-family="Helvetica,sans-Serif" font-size="10.00">Ra::Core::AlignedStdVector</text>
<text text-anchor="middle" x="232.5" y="-820" font-family="Helvetica,sans-Serif" font-size="10.00">&lt; Core::Vector2i &gt;</text>
</a>
</g>
</g>
<!-- Node1&#45;&gt;Node5 -->
<g id="edge4" class="edge"><title>Node1&#45;&gt;Node5</title>
<path fill="none" stroke="midnightblue" d="M50.5677,-479.974C57.8277,-546.249 84.2743,-757.319 131,-804 138.868,-811.861 148.82,-817.321 159.385,-821.084"/>
<polygon fill="midnightblue" stroke="midnightblue" points="54.0095,-479.241 49.4673,-469.67 47.049,-479.985 54.0095,-479.241"/>
</g>
<!-- Node6 -->
<g id="node6" class="node"><title>Node6</title>
<g id="a_node6"><a xlink:href="structRa_1_1Core_1_1AlignedStdVector.html" target="_top" xlink:title="Ra::Core::AlignedStdVector\l\&lt; Core::Vector2ui \&gt;">
<polygon fill="white" stroke="black" points="159.5,-764 159.5,-794 305.5,-794 305.5,-764 159.5,-764"/>
<text text-anchor="start" x="167.5" y="-782" font-family="Helvetica,sans-Serif" font-size="10.00">Ra::Core::AlignedStdVector</text>
<text text-anchor="middle" x="232.5" y="-771" font-family="Helvetica,sans-Serif" font-size="10.00">&lt; Core::Vector2ui &gt;</text>
</a>
</g>
</g>
<!-- Node1&#45;&gt;Node6 -->
<g id="edge5" class="edge"><title>Node1&#45;&gt;Node6</title>
<path fill="none" stroke="midnightblue" d="M47.6971,-479.673C46.6825,-532.491 51.5727,-678.556 131,-755 138.949,-762.65 148.879,-768.01 159.379,-771.738"/>
<polygon fill="midnightblue" stroke="midnightblue" points="51.1973,-479.715 47.9887,-469.618 44.2002,-479.512 51.1973,-479.715"/>
</g>
<!-- Node8 -->
<g id="node8" class="node"><title>Node8</title>
<g id="a_node8"><a xlink:href="structRa_1_1Core_1_1AlignedStdVector.html" target="_top" xlink:title="Ra::Core::AlignedStdVector\l\&lt; Core::Vector3 \&gt;">
<polygon fill="white" stroke="black" points="159.5,-715 159.5,-745 305.5,-745 305.5,-715 159.5,-715"/>
<text text-anchor="start" x="167.5" y="-733" font-family="Helvetica,sans-Serif" font-size="10.00">Ra::Core::AlignedStdVector</text>
<text text-anchor="middle" x="232.5" y="-722" font-family="Helvetica,sans-Serif" font-size="10.00">&lt; Core::Vector3 &gt;</text>
</a>
</g>
</g>
<!-- Node1&#45;&gt;Node8 -->
<g id="edge7" class="edge"><title>Node1&#45;&gt;Node8</title>
<path fill="none" stroke="midnightblue" d="M48.989,-479.778C51.2634,-526.518 63.7378,-644.483 131,-706 139.075,-713.385 149.007,-718.613 159.454,-722.293"/>
<polygon fill="midnightblue" stroke="midnightblue" points="52.4762,-479.368 48.6034,-469.507 45.4811,-479.631 52.4762,-479.368"/>
</g>
<!-- Node10 -->
<g id="node10" class="node"><title>Node10</title>
<g id="a_node10"><a xlink:href="structRa_1_1Core_1_1AlignedStdVector.html" target="_top" xlink:title="Ra::Core::AlignedStdVector\l\&lt; Core::VectorNi \&gt;">
<polygon fill="white" stroke="black" points="159.5,-666 159.5,-696 305.5,-696 305.5,-666 159.5,-666"/>
<text text-anchor="start" x="167.5" y="-684" font-family="Helvetica,sans-Serif" font-size="10.00">Ra::Core::AlignedStdVector</text>
<text text-anchor="middle" x="232.5" y="-673" font-family="Helvetica,sans-Serif" font-size="10.00">&lt; Core::VectorNi &gt;</text>
</a>
</g>
</g>
<!-- Node1&#45;&gt;Node10 -->
<g id="edge9" class="edge"><title>Node1&#45;&gt;Node10</title>
<path fill="none" stroke="midnightblue" d="M50.8352,-479.574C56.6592,-519.368 75.5877,-609.917 131,-657 139.202,-663.969 149.08,-668.99 159.398,-672.593"/>
<polygon fill="midnightblue" stroke="midnightblue" points="54.2917,-479.016 49.4957,-469.568 47.3536,-479.944 54.2917,-479.016"/>
</g>
<!-- Node11 -->
<g id="node11" class="node"><title>Node11</title>
<g id="a_node11"><a xlink:href="structRa_1_1Core_1_1AlignedStdVector.html" target="_top" xlink:title="Ra::Core::AlignedStdVector\l\&lt; Core::VectorNui \&gt;">
<polygon fill="white" stroke="black" points="159.5,-617 159.5,-647 305.5,-647 305.5,-617 159.5,-617"/>
<text text-anchor="start" x="167.5" y="-635" font-family="Helvetica,sans-Serif" font-size="10.00">Ra::Core::AlignedStdVector</text>
<text text-anchor="middle" x="232.5" y="-624" font-family="Helvetica,sans-Serif" font-size="10.00">&lt; Core::VectorNui &gt;</text>
</a>
</g>
</g>
<!-- Node1&#45;&gt;Node11 -->
<g id="edge10" class="edge"><title>Node1&#45;&gt;Node11</title>
<path fill="none" stroke="midnightblue" d="M53.8394,-479.702C63.582,-511.76 87.3725,-574.948 131,-608 139.365,-614.337 149.154,-619.031 159.281,-622.502"/>
<polygon fill="midnightblue" stroke="midnightblue" points="57.106,-478.398 50.9697,-469.761 50.3806,-480.34 57.106,-478.398"/>
</g>
<!-- Node13 -->
<g id="node13" class="node"><title>Node13</title>
<g id="a_node13"><a xlink:href="structRa_1_1Core_1_1AlignedStdVector.html" target="_top" xlink:title="Ra::Core::AlignedStdVector\l\&lt; Face \&gt;">
<polygon fill="white" stroke="black" points="159.5,-568 159.5,-598 305.5,-598 305.5,-568 159.5,-568"/>
<text text-anchor="start" x="167.5" y="-586" font-family="Helvetica,sans-Serif" font-size="10.00">Ra::Core::AlignedStdVector</text>
<text text-anchor="middle" x="232.5" y="-575" font-family="Helvetica,sans-Serif" font-size="10.00">&lt; Face &gt;</text>
</a>
</g>
</g>
<!-- Node1&#45;&gt;Node13 -->
<g id="edge12" class="edge"><title>Node1&#45;&gt;Node13</title>
<path fill="none" stroke="midnightblue" d="M58.8493,-478.585C72.4176,-501.17 98.3742,-538.761 131,-559 139.689,-564.39 149.491,-568.57 159.48,-571.811"/>
<polygon fill="midnightblue" stroke="midnightblue" points="61.7078,-476.538 53.6581,-469.649 55.655,-480.054 61.7078,-476.538"/>
</g>
<!-- Node15 -->
<g id="node15" class="node"><title>Node15</title>
<g id="a_node15"><a xlink:href="structRa_1_1Core_1_1AlignedStdVector.html" target="_top" xlink:title="Ra::Core::AlignedStdVector\l\&lt; int \&gt;">
<polygon fill="white" stroke="black" points="159.5,-519 159.5,-549 305.5,-549 305.5,-519 159.5,-519"/>
<text text-anchor="start" x="167.5" y="-537" font-family="Helvetica,sans-Serif" font-size="10.00">Ra::Core::AlignedStdVector</text>
<text text-anchor="middle" x="232.5" y="-526" font-family="Helvetica,sans-Serif" font-size="10.00">&lt; int &gt;</text>
</a>
</g>
</g>
<!-- Node1&#45;&gt;Node15 -->
<g id="edge14" class="edge"><title>Node1&#45;&gt;Node15</title>
<path fill="none" stroke="midnightblue" d="M70.5278,-475.504C86.6353,-486.226 109.361,-500.108 131,-509 140.23,-512.793 150.181,-516.116 160.108,-518.995"/>
<polygon fill="midnightblue" stroke="midnightblue" points="72.1051,-472.345 61.8669,-469.619 68.1706,-478.134 72.1051,-472.345"/>
</g>
<!-- Node16 -->
<g id="node16" class="node"><title>Node16</title>
<g id="a_node16"><a xlink:href="structRa_1_1Core_1_1AlignedStdVector.html" target="_top" xlink:title="Ra::Core::AlignedStdVector\l\&lt; Ra::Asset::HandleComponentData \&gt;">
<polygon fill="white" stroke="black" points="131,-470 131,-500 334,-500 334,-470 131,-470"/>
<text text-anchor="start" x="139" y="-488" font-family="Helvetica,sans-Serif" font-size="10.00">Ra::Core::AlignedStdVector</text>
<text text-anchor="middle" x="232.5" y="-477" font-family="Helvetica,sans-Serif" font-size="10.00">&lt; Ra::Asset::HandleComponentData &gt;</text>
</a>
</g>
</g>
<!-- Node1&#45;&gt;Node16 -->
<g id="edge15" class="edge"><title>Node1&#45;&gt;Node16</title>
<path fill="none" stroke="midnightblue" d="M105.241,-467.752C113.408,-468.867 122.009,-470.042 130.724,-471.233"/>
<polygon fill="midnightblue" stroke="midnightblue" points="105.534,-464.259 95.1521,-466.373 104.586,-471.195 105.534,-464.259"/>
</g>
<!-- Node17 -->
<g id="node17" class="node"><title>Node17</title>
<g id="a_node17"><a xlink:href="structRa_1_1Core_1_1AlignedStdVector.html" target="_top" xlink:title="Ra::Core::AlignedStdVector\l\&lt; Ra::Core::DualQuaternion \&gt;">
<polygon fill="white" stroke="black" points="152,-421 152,-451 313,-451 313,-421 152,-421"/>
<text text-anchor="start" x="160" y="-439" font-family="Helvetica,sans-Serif" font-size="10.00">Ra::Core::AlignedStdVector</text>
<text text-anchor="middle" x="232.5" y="-428" font-family="Helvetica,sans-Serif" font-size="10.00">&lt; Ra::Core::DualQuaternion &gt;</text>
</a>
</g>
</g>
<!-- Node1&#45;&gt;Node17 -->
<g id="edge16" class="edge"><title>Node1&#45;&gt;Node17</title>
<path fill="none" stroke="midnightblue" d="M105.136,-452.572C119.921,-450.633 136.134,-448.507 151.871,-446.443"/>
<polygon fill="midnightblue" stroke="midnightblue" points="104.612,-449.111 95.1521,-453.882 105.522,-456.052 104.612,-449.111"/>
</g>
<!-- Node18 -->
<g id="node18" class="node"><title>Node18</title>
<g id="a_node18"><a xlink:href="structRa_1_1Core_1_1AlignedStdVector.html" target="_top" xlink:title="Ra::Core::AlignedStdVector\l\&lt; Ra::Core::Triangle \&gt;">
<polygon fill="white" stroke="black" points="159.5,-372 159.5,-402 305.5,-402 305.5,-372 159.5,-372"/>
<text text-anchor="start" x="167.5" y="-390" font-family="Helvetica,sans-Serif" font-size="10.00">Ra::Core::AlignedStdVector</text>
<text text-anchor="middle" x="232.5" y="-379" font-family="Helvetica,sans-Serif" font-size="10.00">&lt; Ra::Core::Triangle &gt;</text>
</a>
</g>
</g>
<!-- Node1&#45;&gt;Node18 -->
<g id="edge17" class="edge"><title>Node1&#45;&gt;Node18</title>
<path fill="none" stroke="midnightblue" d="M70.5024,-444.433C86.5978,-433.682 109.319,-419.79 131,-411 139.977,-407.36 149.639,-404.188 159.296,-401.449"/>
<polygon fill="midnightblue" stroke="midnightblue" points="68.1366,-441.811 61.8493,-450.338 72.0823,-447.593 68.1366,-441.811"/>
</g>
<!-- Node20 -->
<g id="node20" class="node"><title>Node20</title>
<g id="a_node20"><a xlink:href="structRa_1_1Core_1_1AlignedStdVector.html" target="_top" xlink:title="Ra::Core::AlignedStdVector\l\&lt; Scalar \&gt;">
<polygon fill="white" stroke="black" points="159.5,-323 159.5,-353 305.5,-353 305.5,-323 159.5,-323"/>
<text text-anchor="start" x="167.5" y="-341" font-family="Helvetica,sans-Serif" font-size="10.00">Ra::Core::AlignedStdVector</text>
<text text-anchor="middle" x="232.5" y="-330" font-family="Helvetica,sans-Serif" font-size="10.00">&lt; Scalar &gt;</text>
</a>
</g>
</g>
<!-- Node1&#45;&gt;Node20 -->
<g id="edge19" class="edge"><title>Node1&#45;&gt;Node20</title>
<path fill="none" stroke="midnightblue" d="M58.8962,-441.603C72.5124,-419.247 98.5181,-382.037 131,-362 139.626,-356.679 149.34,-352.537 159.241,-349.314"/>
<polygon fill="midnightblue" stroke="midnightblue" points="55.7455,-440.056 53.6845,-450.449 61.7765,-443.61 55.7455,-440.056"/>
</g>
<!-- Node22 -->
<g id="node22" class="node"><title>Node22</title>
<g id="a_node22"><a xlink:href="structRa_1_1Core_1_1AlignedStdVector.html" target="_top" xlink:title="Ra::Core::AlignedStdVector\l\&lt; Transform \&gt;">
<polygon fill="white" stroke="black" points="159.5,-274 159.5,-304 305.5,-304 305.5,-274 159.5,-274"/>
<text text-anchor="start" x="167.5" y="-292" font-family="Helvetica,sans-Serif" font-size="10.00">Ra::Core::AlignedStdVector</text>
<text text-anchor="middle" x="232.5" y="-281" font-family="Helvetica,sans-Serif" font-size="10.00">&lt; Transform &gt;</text>
</a>
</g>
</g>
<!-- Node1&#45;&gt;Node22 -->
<g id="edge21" class="edge"><title>Node1&#45;&gt;Node22</title>
<path fill="none" stroke="midnightblue" d="M53.8791,-440.429C63.6789,-408.584 87.5497,-345.819 131,-313 139.374,-306.675 149.169,-301.988 159.298,-298.519"/>
<polygon fill="midnightblue" stroke="midnightblue" points="50.439,-439.723 50.9906,-450.304 57.1574,-441.688 50.439,-439.723"/>
</g>
<!-- Node23 -->
<g id="node23" class="node"><title>Node23</title>
<g id="a_node23"><a xlink:href="structRa_1_1Core_1_1AlignedStdVector.html" target="_top" xlink:title="Ra::Core::AlignedStdVector\l\&lt; Triangle \&gt;">
<polygon fill="white" stroke="black" points="159.5,-225 159.5,-255 305.5,-255 305.5,-225 159.5,-225"/>
<text text-anchor="start" x="167.5" y="-243" font-family="Helvetica,sans-Serif" font-size="10.00">Ra::Core::AlignedStdVector</text>
<text text-anchor="middle" x="232.5" y="-232" font-family="Helvetica,sans-Serif" font-size="10.00">&lt; Triangle &gt;</text>
</a>
</g>
</g>
<!-- Node1&#45;&gt;Node23 -->
<g id="edge22" class="edge"><title>Node1&#45;&gt;Node23</title>
<path fill="none" stroke="midnightblue" d="M50.8675,-440.523C56.7512,-400.926 75.7844,-310.83 131,-264 139.208,-257.038 149.09,-252.021 159.409,-248.42"/>
<polygon fill="midnightblue" stroke="midnightblue" points="47.3931,-440.098 49.5123,-450.479 54.3292,-441.042 47.3931,-440.098"/>
</g>
<!-- Node25 -->
<g id="node25" class="node"><title>Node25</title>
<g id="a_node25"><a xlink:href="structRa_1_1Core_1_1AlignedStdVector.html" target="_top" xlink:title="Ra::Core::AlignedStdVector\l\&lt; uint8_t \&gt;">
<polygon fill="white" stroke="black" points="159.5,-176 159.5,-206 305.5,-206 305.5,-176 159.5,-176"/>
<text text-anchor="start" x="167.5" y="-194" font-family="Helvetica,sans-Serif" font-size="10.00">Ra::Core::AlignedStdVector</text>
<text text-anchor="middle" x="232.5" y="-183" font-family="Helvetica,sans-Serif" font-size="10.00">&lt; uint8_t &gt;</text>
</a>
</g>
</g>
<!-- Node1&#45;&gt;Node25 -->
<g id="edge24" class="edge"><title>Node1&#45;&gt;Node25</title>
<path fill="none" stroke="midnightblue" d="M49.0176,-440.278C51.3547,-393.707 63.9568,-276.241 131,-215 139.079,-207.62 149.014,-202.394 159.462,-198.715"/>
<polygon fill="midnightblue" stroke="midnightblue" points="45.52,-440.15 48.6241,-450.28 52.5146,-440.425 45.52,-440.15"/>
</g>
<!-- Node26 -->
<g id="node26" class="node"><title>Node26</title>
<g id="a_node26"><a xlink:href="structRa_1_1Core_1_1AlignedStdVector.html" target="_top" xlink:title="Ra::Core::AlignedStdVector\&lt; V \&gt;">
<polygon fill="white" stroke="black" points="145,-137.5 145,-156.5 320,-156.5 320,-137.5 145,-137.5"/>
<text text-anchor="middle" x="232.5" y="-144.5" font-family="Helvetica,sans-Serif" font-size="10.00">Ra::Core::AlignedStdVector&lt; V &gt;</text>
</a>
</g>
</g>
<!-- Node1&#45;&gt;Node26 -->
<g id="edge25" class="edge"><title>Node1&#45;&gt;Node26</title>
<path fill="none" stroke="midnightblue" d="M51.3221,-440.166C60.2265,-380.421 89.6097,-203.948 131,-166 135.188,-162.16 139.9,-158.983 144.938,-156.364"/>
<polygon fill="midnightblue" stroke="midnightblue" points="47.8394,-439.794 49.858,-450.195 54.766,-440.806 47.8394,-439.794"/>
</g>
<!-- Node28 -->
<g id="node28" class="node"><title>Node28</title>
<g id="a_node28"><a xlink:href="structRa_1_1Core_1_1AlignedStdVector.html" target="_top" xlink:title="Ra::Core::AlignedStdVector\l\&lt; Vector \&gt;">
<polygon fill="white" stroke="black" points="159.5,-88 159.5,-118 305.5,-118 305.5,-88 159.5,-88"/>
<text text-anchor="start" x="167.5" y="-106" font-family="Helvetica,sans-Serif" font-size="10.00">Ra::Core::AlignedStdVector</text>
<text text-anchor="middle" x="232.5" y="-95" font-family="Helvetica,sans-Serif" font-size="10.00">&lt; Vector &gt;</text>
</a>
</g>
</g>
<!-- Node1&#45;&gt;Node28 -->
<g id="edge27" class="edge"><title>Node1&#45;&gt;Node28</title>
<path fill="none" stroke="midnightblue" d="M50.7384,-440.309C58.4494,-375.905 85.9405,-173.071 131,-128 138.881,-120.117 148.84,-114.585 159.408,-110.729"/>
<polygon fill="midnightblue" stroke="midnightblue" points="47.2496,-440.009 49.5638,-450.348 54.2022,-440.823 47.2496,-440.009"/>
</g>
<!-- Node30 -->
<g id="node30" class="node"><title>Node30</title>
<g id="a_node30"><a xlink:href="structRa_1_1Core_1_1AlignedStdVector.html" target="_top" xlink:title="Ra::Core::AlignedStdVector\l\&lt; Vector3 \&gt;">
<polygon fill="white" stroke="black" points="159.5,-39 159.5,-69 305.5,-69 305.5,-39 159.5,-39"/>
<text text-anchor="start" x="167.5" y="-57" font-family="Helvetica,sans-Serif" font-size="10.00">Ra::Core::AlignedStdVector</text>
<text text-anchor="middle" x="232.5" y="-46" font-family="Helvetica,sans-Serif" font-size="10.00">&lt; Vector3 &gt;</text>
</a>
</g>
</g>
<!-- Node1&#45;&gt;Node30 -->
<g id="edge29" class="edge"><title>Node1&#45;&gt;Node30</title>
<path fill="none" stroke="midnightblue" d="M50.0434,-440.158C55.949,-369.379 79.4198,-130.713 131,-78 138.841,-69.9866 148.844,-64.4555 159.486,-60.6722"/>
<polygon fill="midnightblue" stroke="midnightblue" points="46.5362,-440.107 49.2186,-450.356 53.5134,-440.671 46.5362,-440.107"/>
</g>
<!-- Node32 -->
<g id="node32" class="node"><title>Node32</title>
<g id="a_node32"><a xlink:href="structRa_1_1Core_1_1AlignedStdVector.html" target="_top" xlink:title="Shortcut for the ubiquitous aligned std::vector Uses Eigen&#39;s aligned allocator, as stated in http://e...">
<polygon fill="white" stroke="black" points="146,-0.5 146,-19.5 319,-19.5 319,-0.5 146,-0.5"/>
<text text-anchor="middle" x="232.5" y="-7.5" font-family="Helvetica,sans-Serif" font-size="10.00">Ra::Core::AlignedStdVector&lt; T &gt;</text>
</a>
</g>
</g>
<!-- Node1&#45;&gt;Node32 -->
<g id="edge31" class="edge"><title>Node1&#45;&gt;Node32</title>
<path fill="none" stroke="midnightblue" d="M49.4312,-440.047C53.4329,-363.252 71.7499,-88.1152 131,-29 135.4,-24.6104 140.475,-21.0659 145.959,-18.2175"/>
<polygon fill="midnightblue" stroke="midnightblue" points="45.9249,-440.089 48.9245,-450.25 52.9163,-440.436 45.9249,-440.089"/>
</g>
<!-- Node4 -->
<g id="node4" class="node"><title>Node4</title>
<g id="a_node4"><a xlink:href="classRa_1_1Core_1_1VectorArray.html" target="_top" xlink:title="Ra::Core::VectorArray\l\&lt; Core::Color \&gt;">
<polygon fill="white" stroke="black" points="385,-862 385,-892 504,-892 504,-862 385,-862"/>
<text text-anchor="start" x="393" y="-880" font-family="Helvetica,sans-Serif" font-size="10.00">Ra::Core::VectorArray</text>
<text text-anchor="middle" x="444.5" y="-869" font-family="Helvetica,sans-Serif" font-size="10.00">&lt; Core::Color &gt;</text>
</a>
</g>
</g>
<!-- Node3&#45;&gt;Node4 -->
<g id="edge3" class="edge"><title>Node3&#45;&gt;Node4</title>
<path fill="none" stroke="midnightblue" d="M315.904,-877C338.991,-877 363.608,-877 384.999,-877"/>
<polygon fill="midnightblue" stroke="midnightblue" points="315.77,-873.5 305.77,-877 315.77,-880.5 315.77,-873.5"/>
</g>
<!-- Node7 -->
<g id="node7" class="node"><title>Node7</title>
<g id="a_node7"><a xlink:href="classRa_1_1Core_1_1VectorArray.html" target="_top" xlink:title="Ra::Core::VectorArray\l\&lt; Core::Vector2ui \&gt;">
<polygon fill="white" stroke="black" points="385,-764 385,-794 504,-794 504,-764 385,-764"/>
<text text-anchor="start" x="393" y="-782" font-family="Helvetica,sans-Serif" font-size="10.00">Ra::Core::VectorArray</text>
<text text-anchor="middle" x="444.5" y="-771" font-family="Helvetica,sans-Serif" font-size="10.00">&lt; Core::Vector2ui &gt;</text>
</a>
</g>
</g>
<!-- Node6&#45;&gt;Node7 -->
<g id="edge6" class="edge"><title>Node6&#45;&gt;Node7</title>
<path fill="none" stroke="midnightblue" d="M315.904,-779C338.991,-779 363.608,-779 384.999,-779"/>
<polygon fill="midnightblue" stroke="midnightblue" points="315.77,-775.5 305.77,-779 315.77,-782.5 315.77,-775.5"/>
</g>
<!-- Node9 -->
<g id="node9" class="node"><title>Node9</title>
<g id="a_node9"><a xlink:href="classRa_1_1Core_1_1VectorArray.html" target="_top" xlink:title="Ra::Core::VectorArray\l\&lt; Core::Vector3 \&gt;">
<polygon fill="white" stroke="black" points="385,-715 385,-745 504,-745 504,-715 385,-715"/>
<text text-anchor="start" x="393" y="-733" font-family="Helvetica,sans-Serif" font-size="10.00">Ra::Core::VectorArray</text>
<text text-anchor="middle" x="444.5" y="-722" font-family="Helvetica,sans-Serif" font-size="10.00">&lt; Core::Vector3 &gt;</text>
</a>
</g>
</g>
<!-- Node8&#45;&gt;Node9 -->
<g id="edge8" class="edge"><title>Node8&#45;&gt;Node9</title>
<path fill="none" stroke="midnightblue" d="M315.904,-730C338.991,-730 363.608,-730 384.999,-730"/>
<polygon fill="midnightblue" stroke="midnightblue" points="315.77,-726.5 305.77,-730 315.77,-733.5 315.77,-726.5"/>
</g>
<!-- Node12 -->
<g id="node12" class="node"><title>Node12</title>
<g id="a_node12"><a xlink:href="classRa_1_1Core_1_1VectorArray.html" target="_top" xlink:title="Ra::Core::VectorArray\l\&lt; Core::VectorNui \&gt;">
<polygon fill="white" stroke="black" points="385,-617 385,-647 504,-647 504,-617 385,-617"/>
<text text-anchor="start" x="393" y="-635" font-family="Helvetica,sans-Serif" font-size="10.00">Ra::Core::VectorArray</text>
<text text-anchor="middle" x="444.5" y="-624" font-family="Helvetica,sans-Serif" font-size="10.00">&lt; Core::VectorNui &gt;</text>
</a>
</g>
</g>
<!-- Node11&#45;&gt;Node12 -->
<g id="edge11" class="edge"><title>Node11&#45;&gt;Node12</title>
<path fill="none" stroke="midnightblue" d="M315.904,-632C338.991,-632 363.608,-632 384.999,-632"/>
<polygon fill="midnightblue" stroke="midnightblue" points="315.77,-628.5 305.77,-632 315.77,-635.5 315.77,-628.5"/>
</g>
<!-- Node14 -->
<g id="node14" class="node"><title>Node14</title>
<g id="a_node14"><a xlink:href="classRa_1_1Core_1_1VectorArray.html" target="_top" xlink:title="Ra::Core::VectorArray\l\&lt; Face \&gt;">
<polygon fill="white" stroke="black" points="385,-568 385,-598 504,-598 504,-568 385,-568"/>
<text text-anchor="start" x="393" y="-586" font-family="Helvetica,sans-Serif" font-size="10.00">Ra::Core::VectorArray</text>
<text text-anchor="middle" x="444.5" y="-575" font-family="Helvetica,sans-Serif" font-size="10.00">&lt; Face &gt;</text>
</a>
</g>
</g>
<!-- Node13&#45;&gt;Node14 -->
<g id="edge13" class="edge"><title>Node13&#45;&gt;Node14</title>
<path fill="none" stroke="midnightblue" d="M315.904,-583C338.991,-583 363.608,-583 384.999,-583"/>
<polygon fill="midnightblue" stroke="midnightblue" points="315.77,-579.5 305.77,-583 315.77,-586.5 315.77,-579.5"/>
</g>
<!-- Node19 -->
<g id="node19" class="node"><title>Node19</title>
<g id="a_node19"><a xlink:href="classRa_1_1Core_1_1VectorArray.html" target="_top" xlink:title="Ra::Core::VectorArray\l\&lt; Ra::Core::Triangle \&gt;">
<polygon fill="white" stroke="black" points="383.5,-372 383.5,-402 505.5,-402 505.5,-372 383.5,-372"/>
<text text-anchor="start" x="391.5" y="-390" font-family="Helvetica,sans-Serif" font-size="10.00">Ra::Core::VectorArray</text>
<text text-anchor="middle" x="444.5" y="-379" font-family="Helvetica,sans-Serif" font-size="10.00">&lt; Ra::Core::Triangle &gt;</text>
</a>
</g>
</g>
<!-- Node18&#45;&gt;Node19 -->
<g id="edge18" class="edge"><title>Node18&#45;&gt;Node19</title>
<path fill="none" stroke="midnightblue" d="M315.972,-387C338.432,-387 362.334,-387 383.303,-387"/>
<polygon fill="midnightblue" stroke="midnightblue" points="315.77,-383.5 305.77,-387 315.77,-390.5 315.77,-383.5"/>
</g>
<!-- Node21 -->
<g id="node21" class="node"><title>Node21</title>
<g id="a_node21"><a xlink:href="classRa_1_1Core_1_1VectorArray_3_01Scalar_01_4.html" target="_top" xlink:title="This specialization stores an array of scalars which can be used as a dynamic Eigen column vector...">
<polygon fill="white" stroke="black" points="385,-323 385,-353 504,-353 504,-323 385,-323"/>
<text text-anchor="start" x="393" y="-341" font-family="Helvetica,sans-Serif" font-size="10.00">Ra::Core::VectorArray</text>
<text text-anchor="middle" x="444.5" y="-330" font-family="Helvetica,sans-Serif" font-size="10.00">&lt; Scalar &gt;</text>
</a>
</g>
</g>
<!-- Node20&#45;&gt;Node21 -->
<g id="edge20" class="edge"><title>Node20&#45;&gt;Node21</title>
<path fill="none" stroke="midnightblue" d="M315.904,-338C338.991,-338 363.608,-338 384.999,-338"/>
<polygon fill="midnightblue" stroke="midnightblue" points="315.77,-334.5 305.77,-338 315.77,-341.5 315.77,-334.5"/>
</g>
<!-- Node24 -->
<g id="node24" class="node"><title>Node24</title>
<g id="a_node24"><a xlink:href="classRa_1_1Core_1_1VectorArray.html" target="_top" xlink:title="Ra::Core::VectorArray\l\&lt; Triangle \&gt;">
<polygon fill="white" stroke="black" points="385,-225 385,-255 504,-255 504,-225 385,-225"/>
<text text-anchor="start" x="393" y="-243" font-family="Helvetica,sans-Serif" font-size="10.00">Ra::Core::VectorArray</text>
<text text-anchor="middle" x="444.5" y="-232" font-family="Helvetica,sans-Serif" font-size="10.00">&lt; Triangle &gt;</text>
</a>
</g>
</g>
<!-- Node23&#45;&gt;Node24 -->
<g id="edge23" class="edge"><title>Node23&#45;&gt;Node24</title>
<path fill="none" stroke="midnightblue" d="M315.904,-240C338.991,-240 363.608,-240 384.999,-240"/>
<polygon fill="midnightblue" stroke="midnightblue" points="315.77,-236.5 305.77,-240 315.77,-243.5 315.77,-236.5"/>
</g>
<!-- Node27 -->
<g id="node27" class="node"><title>Node27</title>
<g id="a_node27"><a xlink:href="classRa_1_1Core_1_1VectorArray.html" target="_top" xlink:title="This class is a wrapper around a std::vector of Core::Vectors. ">
<polygon fill="white" stroke="black" points="370,-137.5 370,-156.5 519,-156.5 519,-137.5 370,-137.5"/>
<text text-anchor="middle" x="444.5" y="-144.5" font-family="Helvetica,sans-Serif" font-size="10.00">Ra::Core::VectorArray&lt; V &gt;</text>
</a>
</g>
</g>
<!-- Node26&#45;&gt;Node27 -->
<g id="edge26" class="edge"><title>Node26&#45;&gt;Node27</title>
<path fill="none" stroke="midnightblue" d="M330.242,-147C343.533,-147 357.002,-147 369.789,-147"/>
<polygon fill="midnightblue" stroke="midnightblue" points="330.127,-143.5 320.127,-147 330.127,-150.5 330.127,-143.5"/>
</g>
<!-- Node29 -->
<g id="node29" class="node"><title>Node29</title>
<g id="a_node29"><a xlink:href="classRa_1_1Core_1_1VectorArray.html" target="_top" xlink:title="Ra::Core::VectorArray\l\&lt; Vector \&gt;">
<polygon fill="white" stroke="black" points="385,-88 385,-118 504,-118 504,-88 385,-88"/>
<text text-anchor="start" x="393" y="-106" font-family="Helvetica,sans-Serif" font-size="10.00">Ra::Core::VectorArray</text>
<text text-anchor="middle" x="444.5" y="-95" font-family="Helvetica,sans-Serif" font-size="10.00">&lt; Vector &gt;</text>
</a>
</g>
</g>
<!-- Node28&#45;&gt;Node29 -->
<g id="edge28" class="edge"><title>Node28&#45;&gt;Node29</title>
<path fill="none" stroke="midnightblue" d="M315.904,-103C338.991,-103 363.608,-103 384.999,-103"/>
<polygon fill="midnightblue" stroke="midnightblue" points="315.77,-99.5001 305.77,-103 315.77,-106.5 315.77,-99.5001"/>
</g>
<!-- Node31 -->
<g id="node31" class="node"><title>Node31</title>
<g id="a_node31"><a xlink:href="classRa_1_1Core_1_1VectorArray.html" target="_top" xlink:title="Ra::Core::VectorArray\l\&lt; Vector3 \&gt;">
<polygon fill="white" stroke="black" points="385,-39 385,-69 504,-69 504,-39 385,-39"/>
<text text-anchor="start" x="393" y="-57" font-family="Helvetica,sans-Serif" font-size="10.00">Ra::Core::VectorArray</text>
<text text-anchor="middle" x="444.5" y="-46" font-family="Helvetica,sans-Serif" font-size="10.00">&lt; Vector3 &gt;</text>
</a>
</g>
</g>
<!-- Node30&#45;&gt;Node31 -->
<g id="edge30" class="edge"><title>Node30&#45;&gt;Node31</title>
<path fill="none" stroke="midnightblue" d="M315.904,-54C338.991,-54 363.608,-54 384.999,-54"/>
<polygon fill="midnightblue" stroke="midnightblue" points="315.77,-50.5001 305.77,-54 315.77,-57.5001 315.77,-50.5001"/>
</g>
<!-- Node33 -->
<g id="node33" class="node"><title>Node33</title>
<g id="a_node33"><a xlink:href="classRa_1_1Core_1_1VectorArray.html" target="_top" xlink:title="Ra::Core::VectorArray\&lt; T \&gt;">
<polygon fill="white" stroke="black" points="371,-0.5 371,-19.5 518,-19.5 518,-0.5 371,-0.5"/>
<text text-anchor="middle" x="444.5" y="-7.5" font-family="Helvetica,sans-Serif" font-size="10.00">Ra::Core::VectorArray&lt; T &gt;</text>
</a>
</g>
</g>
<!-- Node32&#45;&gt;Node33 -->
<g id="edge32" class="edge"><title>Node32&#45;&gt;Node33</title>
<path fill="none" stroke="midnightblue" d="M329.319,-10C343.264,-10 357.426,-10 370.812,-10"/>
<polygon fill="midnightblue" stroke="midnightblue" points="329.218,-6.5001 319.218,-10 329.218,-13.5001 329.218,-6.5001"/>
</g>
</g>
</svg>
