<?xml version="1.0" encoding="UTF-8" standalone="no"?>
<!DOCTYPE svg PUBLIC "-//W3C//DTD SVG 1.1//EN"
 "http://www.w3.org/Graphics/SVG/1.1/DTD/svg11.dtd">
<!-- Generated by graphviz version 2.38.0 (20140413.2041)
 -->
<!-- Title: Graphical Class Hierarchy Pages: 1 -->
<svg width="290pt" height="66pt"
 viewBox="0.00 0.00 290.00 66.00" xmlns="http://www.w3.org/2000/svg" xmlns:xlink="http://www.w3.org/1999/xlink">
<g id="graph0" class="graph" transform="scale(1 1) rotate(0) translate(4 62)">
<title>Graphical Class Hierarchy</title>
<polygon fill="white" stroke="none" points="-4,4 -4,-62 286,-62 286,4 -4,4"/>
<!-- Node1 -->
<g id="node1" class="node"><title>Node1</title>
<polygon fill="white" stroke="#bfbfbf" points="0,-19.5 0,-38.5 72,-38.5 72,-19.5 0,-19.5"/>
<text text-anchor="middle" x="36" y="-26.5" font-family="Helvetica,sans-Serif" font-size="10.00">SubdividerT</text>
</g>
<!-- Node2 -->
<g id="node2" class="node"><title>Node2</title>
<g id="a_node2"><a xlink:href="classRa_1_1Core_1_1CatmullClarkSubdivider.html" target="_top" xlink:title="This class implements the Catmull&#45;Clark subdivision algorithm. ">
<polygon fill="white" stroke="black" points="108,-38.5 108,-57.5 282,-57.5 282,-38.5 108,-38.5"/>
<text text-anchor="middle" x="195" y="-45.5" font-family="Helvetica,sans-Serif" font-size="10.00">Ra::Core::CatmullClarkSubdivider</text>
</a>
</g>
</g>
<!-- Node1&#45;&gt;Node2 -->
<g id="edge1" class="edge"><title>Node1&#45;&gt;Node2</title>
<path fill="none" stroke="midnightblue" d="M82.2484,-34.4759C92.6141,-35.7304 103.929,-37.0997 115.25,-38.4698"/>
<polygon fill="midnightblue" stroke="midnightblue" points="82.582,-30.9908 72.2339,-33.264 81.7409,-37.9401 82.582,-30.9908"/>
</g>
<!-- Node3 -->
<g id="node3" class="node"><title>Node3</title>
<g id="a_node3"><a xlink:href="classRa_1_1Core_1_1LoopSubdivider.html" target="_top" xlink:title="This class implements the Loop subdivision algorithm. ">
<polygon fill="white" stroke="black" points="126.5,-0.5 126.5,-19.5 263.5,-19.5 263.5,-0.5 126.5,-0.5"/>
<text text-anchor="middle" x="195" y="-7.5" font-family="Helvetica,sans-Serif" font-size="10.00">Ra::Core::LoopSubdivider</text>
</a>
</g>
</g>
<!-- Node1&#45;&gt;Node3 -->
<g id="edge2" class="edge"><title>Node1&#45;&gt;Node3</title>
<path fill="none" stroke="midnightblue" d="M82.3807,-23.5081C96.1196,-21.8454 111.516,-19.9822 126.381,-18.1832"/>
<polygon fill="midnightblue" stroke="midnightblue" points="81.7409,-20.0599 72.2339,-24.736 82.582,-27.0092 81.7409,-20.0599"/>
</g>
</g>
</svg>
