<?xml version="1.0" encoding="UTF-8" standalone="no"?>
<!DOCTYPE svg PUBLIC "-//W3C//DTD SVG 1.1//EN"
 "http://www.w3.org/Graphics/SVG/1.1/DTD/svg11.dtd">
<!-- Generated by graphviz version 2.38.0 (20140413.2041)
 -->
<!-- Title: Graphical Class Hierarchy Pages: 1 -->
<svg width="391pt" height="170pt"
 viewBox="0.00 0.00 391.00 170.00" xmlns="http://www.w3.org/2000/svg" xmlns:xlink="http://www.w3.org/1999/xlink">
<g id="graph0" class="graph" transform="scale(1 1) rotate(0) translate(4 166)">
<title>Graphical Class Hierarchy</title>
<polygon fill="white" stroke="none" points="-4,4 -4,-166 387,-166 387,4 -4,4"/>
<!-- Node1 -->
<g id="node1" class="node"><title>Node1</title>
<g id="a_node1"><a xlink:href="classRa_1_1Core_1_1Geometry_1_1VariationalShapeApproximationBase.html" target="_top" xlink:title="The VariationalShapeApproximationBase class. ">
<polygon fill="white" stroke="black" points="0,-60.5 0,-101.5 173,-101.5 173,-60.5 0,-60.5"/>
<text text-anchor="start" x="8" y="-89.5" font-family="Helvetica,sans-Serif" font-size="10.00">Ra::Core::Geometry</text>
<text text-anchor="start" x="8" y="-78.5" font-family="Helvetica,sans-Serif" font-size="10.00">::VariationalShapeApproximation</text>
<text text-anchor="middle" x="86.5" y="-67.5" font-family="Helvetica,sans-Serif" font-size="10.00">Base&lt; K_Region &gt;</text>
</a>
</g>
</g>
<!-- Node2 -->
<g id="node2" class="node"><title>Node2</title>
<g id="a_node2"><a xlink:href="classRa_1_1Core_1_1Geometry_1_1VariationalShapeApproximation.html" target="_top" xlink:title="The VariationalShapeApproximation class. ">
<polygon fill="white" stroke="black" points="209.5,-120.5 209.5,-161.5 382.5,-161.5 382.5,-120.5 209.5,-120.5"/>
<text text-anchor="start" x="217.5" y="-149.5" font-family="Helvetica,sans-Serif" font-size="10.00">Ra::Core::Geometry</text>
<text text-anchor="start" x="217.5" y="-138.5" font-family="Helvetica,sans-Serif" font-size="10.00">::VariationalShapeApproximation</text>
<text text-anchor="middle" x="296" y="-127.5" font-family="Helvetica,sans-Serif" font-size="10.00">&lt; K_Region, Type &gt;</text>
</a>
</g>
</g>
<!-- Node1&#45;&gt;Node2 -->
<g id="edge1" class="edge"><title>Node1&#45;&gt;Node2</title>
<path fill="none" stroke="midnightblue" d="M168.396,-104.392C186.736,-109.695 206.078,-115.288 223.974,-120.462"/>
<polygon fill="midnightblue" stroke="midnightblue" points="169.198,-100.98 158.619,-101.565 167.254,-107.705 169.198,-100.98"/>
</g>
<!-- Node3 -->
<g id="node3" class="node"><title>Node3</title>
<g id="a_node3"><a xlink:href="classRa_1_1Core_1_1Geometry_1_1VariationalShapeApproximation_3_01K__Region_00_01MetricType_1_1L21_01_4.html" target="_top" xlink:title="This is a specialized version of the VSA for the L21 metric. ">
<polygon fill="white" stroke="black" points="209.5,-60.5 209.5,-101.5 382.5,-101.5 382.5,-60.5 209.5,-60.5"/>
<text text-anchor="start" x="217.5" y="-89.5" font-family="Helvetica,sans-Serif" font-size="10.00">Ra::Core::Geometry</text>
<text text-anchor="start" x="217.5" y="-78.5" font-family="Helvetica,sans-Serif" font-size="10.00">::VariationalShapeApproximation</text>
<text text-anchor="middle" x="296" y="-67.5" font-family="Helvetica,sans-Serif" font-size="10.00">&lt; K_Region, MetricType::L21 &gt;</text>
</a>
</g>
</g>
<!-- Node1&#45;&gt;Node3 -->
<g id="edge2" class="edge"><title>Node1&#45;&gt;Node3</title>
<path fill="none" stroke="midnightblue" d="M183.239,-81C191.921,-81 200.678,-81 209.266,-81"/>
<polygon fill="midnightblue" stroke="midnightblue" points="183.096,-77.5001 173.096,-81 183.096,-84.5001 183.096,-77.5001"/>
</g>
<!-- Node4 -->
<g id="node4" class="node"><title>Node4</title>
<g id="a_node4"><a xlink:href="classRa_1_1Core_1_1Geometry_1_1VariationalShapeApproximation_3_01K__Region_00_01MetricType_1_1LLOYD_01_4.html" target="_top" xlink:title="This is a specialized version of the VSA for the L21 metric. ">
<polygon fill="white" stroke="black" points="209,-0.5 209,-41.5 383,-41.5 383,-0.5 209,-0.5"/>
<text text-anchor="start" x="217" y="-29.5" font-family="Helvetica,sans-Serif" font-size="10.00">Ra::Core::Geometry</text>
<text text-anchor="start" x="217" y="-18.5" font-family="Helvetica,sans-Serif" font-size="10.00">::VariationalShapeApproximation</text>
<text text-anchor="middle" x="296" y="-7.5" font-family="Helvetica,sans-Serif" font-size="10.00">&lt; K_Region, MetricType::LLOYD &gt;</text>
</a>
</g>
</g>
<!-- Node1&#45;&gt;Node4 -->
<g id="edge3" class="edge"><title>Node1&#45;&gt;Node4</title>
<path fill="none" stroke="midnightblue" d="M168.396,-57.6083C186.736,-52.3052 206.078,-46.7123 223.974,-41.5378"/>
<polygon fill="midnightblue" stroke="midnightblue" points="167.254,-54.2952 158.619,-60.4353 169.198,-61.0198 167.254,-54.2952"/>
</g>
</g>
</svg>
