<?xml version="1.0" encoding="UTF-8" standalone="no"?>
<!DOCTYPE svg PUBLIC "-//W3C//DTD SVG 1.1//EN"
 "http://www.w3.org/Graphics/SVG/1.1/DTD/svg11.dtd">
<!-- Generated by graphviz version 2.38.0 (20140413.2041)
 -->
<!-- Title: /home/travis/build/STORM&#45;IRIT/Radium&#45;Engine/src/Core/File/KeyFrame/KeyFrame.hpp Pages: 1 -->
<svg width="3372pt" height="584pt"
 viewBox="0.00 0.00 3371.50 584.00" xmlns="http://www.w3.org/2000/svg" xmlns:xlink="http://www.w3.org/1999/xlink">
<g id="graph0" class="graph" transform="scale(1 1) rotate(0) translate(4 580)">
<title>/home/travis/build/STORM&#45;IRIT/Radium&#45;Engine/src/Core/File/KeyFrame/KeyFrame.hpp</title>
<polygon fill="white" stroke="none" points="-4,4 -4,-580 3367.5,-580 3367.5,4 -4,4"/>
<!-- Node1 -->
<g id="node1" class="node"><title>Node1</title>
<polygon fill="#bfbfbf" stroke="black" points="2516.5,-523.5 2516.5,-575.5 2664.5,-575.5 2664.5,-523.5 2516.5,-523.5"/>
<text text-anchor="start" x="2524.5" y="-563.5" font-family="Helvetica,sans-Serif" font-size="10.00">/home/travis/build</text>
<text text-anchor="start" x="2524.5" y="-552.5" font-family="Helvetica,sans-Serif" font-size="10.00">/STORM&#45;IRIT/Radium&#45;Engine</text>
<text text-anchor="start" x="2524.5" y="-541.5" font-family="Helvetica,sans-Serif" font-size="10.00">/src/Core/File/KeyFrame</text>
<text text-anchor="middle" x="2590.5" y="-530.5" font-family="Helvetica,sans-Serif" font-size="10.00">/KeyFrame.hpp</text>
</g>
<!-- Node2 -->
<g id="node2" class="node"><title>Node2</title>
<g id="a_node2"><a xlink:href="KeyPose_8hpp.html" target="_top" xlink:title="/home/travis/build\l/STORM&#45;IRIT/Radium&#45;Engine\l/src/Core/File/KeyFrame\l/KeyPose.hpp">
<polygon fill="white" stroke="black" points="3215.5,-345.5 3215.5,-397.5 3363.5,-397.5 3363.5,-345.5 3215.5,-345.5"/>
<text text-anchor="start" x="3223.5" y="-385.5" font-family="Helvetica,sans-Serif" font-size="10.00">/home/travis/build</text>
<text text-anchor="start" x="3223.5" y="-374.5" font-family="Helvetica,sans-Serif" font-size="10.00">/STORM&#45;IRIT/Radium&#45;Engine</text>
<text text-anchor="start" x="3223.5" y="-363.5" font-family="Helvetica,sans-Serif" font-size="10.00">/src/Core/File/KeyFrame</text>
<text text-anchor="middle" x="3289.5" y="-352.5" font-family="Helvetica,sans-Serif" font-size="10.00">/KeyPose.hpp</text>
</a>
</g>
</g>
<!-- Node1&#45;&gt;Node2 -->
<g id="edge1" class="edge"><title>Node1&#45;&gt;Node2</title>
<path fill="none" stroke="midnightblue" d="M2674.77,-534.338C2738.49,-523.078 2827.95,-506.085 2905.5,-487 3014.43,-460.194 3138.48,-421.729 3215.39,-396.928"/>
<polygon fill="midnightblue" stroke="midnightblue" points="2674.02,-530.918 2664.77,-536.096 2675.23,-537.812 2674.02,-530.918"/>
</g>
<!-- Node4 -->
<g id="node4" class="node"><title>Node4</title>
<g id="a_node4"><a xlink:href="KeyRotation_8hpp.html" target="_top" xlink:title="/home/travis/build\l/STORM&#45;IRIT/Radium&#45;Engine\l/src/Core/File/KeyFrame\l/KeyRotation.hpp">
<polygon fill="white" stroke="black" points="2248.5,-345.5 2248.5,-397.5 2396.5,-397.5 2396.5,-345.5 2248.5,-345.5"/>
<text text-anchor="start" x="2256.5" y="-385.5" font-family="Helvetica,sans-Serif" font-size="10.00">/home/travis/build</text>
<text text-anchor="start" x="2256.5" y="-374.5" font-family="Helvetica,sans-Serif" font-size="10.00">/STORM&#45;IRIT/Radium&#45;Engine</text>
<text text-anchor="start" x="2256.5" y="-363.5" font-family="Helvetica,sans-Serif" font-size="10.00">/src/Core/File/KeyFrame</text>
<text text-anchor="middle" x="2322.5" y="-352.5" font-family="Helvetica,sans-Serif" font-size="10.00">/KeyRotation.hpp</text>
</a>
</g>
</g>
<!-- Node1&#45;&gt;Node4 -->
<g id="edge3" class="edge"><title>Node1&#45;&gt;Node4</title>
<path fill="none" stroke="midnightblue" d="M2506.38,-537.733C2443.18,-527.873 2363.82,-511.122 2341.5,-487 2319.33,-463.038 2317.61,-423.552 2319.34,-397.784"/>
<polygon fill="midnightblue" stroke="midnightblue" points="2505.96,-541.21 2516.38,-539.257 2507.02,-534.29 2505.96,-541.21"/>
</g>
<!-- Node6 -->
<g id="node6" class="node"><title>Node6</title>
<g id="a_node6"><a xlink:href="KeyScaling_8hpp.html" target="_top" xlink:title="/home/travis/build\l/STORM&#45;IRIT/Radium&#45;Engine\l/src/Core/File/KeyFrame\l/KeyScaling.hpp">
<polygon fill="white" stroke="black" points="2350.5,-434.5 2350.5,-486.5 2498.5,-486.5 2498.5,-434.5 2350.5,-434.5"/>
<text text-anchor="start" x="2358.5" y="-474.5" font-family="Helvetica,sans-Serif" font-size="10.00">/home/travis/build</text>
<text text-anchor="start" x="2358.5" y="-463.5" font-family="Helvetica,sans-Serif" font-size="10.00">/STORM&#45;IRIT/Radium&#45;Engine</text>
<text text-anchor="start" x="2358.5" y="-452.5" font-family="Helvetica,sans-Serif" font-size="10.00">/src/Core/File/KeyFrame</text>
<text text-anchor="middle" x="2424.5" y="-441.5" font-family="Helvetica,sans-Serif" font-size="10.00">/KeyScaling.hpp</text>
</a>
</g>
</g>
<!-- Node1&#45;&gt;Node6 -->
<g id="edge5" class="edge"><title>Node1&#45;&gt;Node6</title>
<path fill="none" stroke="midnightblue" d="M2533.52,-518.635C2513.62,-508.205 2491.49,-496.611 2472.41,-486.607"/>
<polygon fill="midnightblue" stroke="midnightblue" points="2532,-521.794 2542.49,-523.336 2535.25,-515.594 2532,-521.794"/>
</g>
<!-- Node7 -->
<g id="node7" class="node"><title>Node7</title>
<g id="a_node7"><a xlink:href="KeyTransform_8hpp.html" target="_top" xlink:title="/home/travis/build\l/STORM&#45;IRIT/Radium&#45;Engine\l/src/Core/File/KeyFrame\l/KeyTransform.hpp">
<polygon fill="white" stroke="black" points="2748.5,-434.5 2748.5,-486.5 2896.5,-486.5 2896.5,-434.5 2748.5,-434.5"/>
<text text-anchor="start" x="2756.5" y="-474.5" font-family="Helvetica,sans-Serif" font-size="10.00">/home/travis/build</text>
<text text-anchor="start" x="2756.5" y="-463.5" font-family="Helvetica,sans-Serif" font-size="10.00">/STORM&#45;IRIT/Radium&#45;Engine</text>
<text text-anchor="start" x="2756.5" y="-452.5" font-family="Helvetica,sans-Serif" font-size="10.00">/src/Core/File/KeyFrame</text>
<text text-anchor="middle" x="2822.5" y="-441.5" font-family="Helvetica,sans-Serif" font-size="10.00">/KeyTransform.hpp</text>
</a>
</g>
</g>
<!-- Node1&#45;&gt;Node7 -->
<g id="edge7" class="edge"><title>Node1&#45;&gt;Node7</title>
<path fill="none" stroke="midnightblue" d="M2666.88,-519.858C2695.6,-509.087 2728,-496.936 2755.78,-486.521"/>
<polygon fill="midnightblue" stroke="midnightblue" points="2665.43,-516.664 2657.29,-523.453 2667.89,-523.219 2665.43,-516.664"/>
</g>
<!-- Node31 -->
<g id="node31" class="node"><title>Node31</title>
<g id="a_node31"><a xlink:href="KeyTranslation_8hpp.html" target="_top" xlink:title="/home/travis/build\l/STORM&#45;IRIT/Radium&#45;Engine\l/src/Core/File/KeyFrame\l/KeyTranslation.hpp">
<polygon fill="white" stroke="black" points="2516.5,-434.5 2516.5,-486.5 2664.5,-486.5 2664.5,-434.5 2516.5,-434.5"/>
<text text-anchor="start" x="2524.5" y="-474.5" font-family="Helvetica,sans-Serif" font-size="10.00">/home/travis/build</text>
<text text-anchor="start" x="2524.5" y="-463.5" font-family="Helvetica,sans-Serif" font-size="10.00">/STORM&#45;IRIT/Radium&#45;Engine</text>
<text text-anchor="start" x="2524.5" y="-452.5" font-family="Helvetica,sans-Serif" font-size="10.00">/src/Core/File/KeyFrame</text>
<text text-anchor="middle" x="2590.5" y="-441.5" font-family="Helvetica,sans-Serif" font-size="10.00">/KeyTranslation.hpp</text>
</a>
</g>
</g>
<!-- Node1&#45;&gt;Node31 -->
<g id="edge38" class="edge"><title>Node1&#45;&gt;Node31</title>
<path fill="none" stroke="midnightblue" d="M2590.5,-513.191C2590.5,-504.282 2590.5,-494.899 2590.5,-486.607"/>
<polygon fill="midnightblue" stroke="midnightblue" points="2587,-513.336 2590.5,-523.336 2594,-513.336 2587,-513.336"/>
</g>
<!-- Node3 -->
<g id="node3" class="node"><title>Node3</title>
<g id="a_node3"><a xlink:href="AnimationComponent_8cpp.html" target="_top" xlink:title="/home/travis/build\l/STORM&#45;IRIT/Radium&#45;Engine\l/Plugins/Animation/src/Animation\lComponent.cpp">
<polygon fill="white" stroke="black" points="3098.5,-78.5 3098.5,-130.5 3272.5,-130.5 3272.5,-78.5 3098.5,-78.5"/>
<text text-anchor="start" x="3106.5" y="-118.5" font-family="Helvetica,sans-Serif" font-size="10.00">/home/travis/build</text>
<text text-anchor="start" x="3106.5" y="-107.5" font-family="Helvetica,sans-Serif" font-size="10.00">/STORM&#45;IRIT/Radium&#45;Engine</text>
<text text-anchor="start" x="3106.5" y="-96.5" font-family="Helvetica,sans-Serif" font-size="10.00">/Plugins/Animation/src/Animation</text>
<text text-anchor="middle" x="3185.5" y="-85.5" font-family="Helvetica,sans-Serif" font-size="10.00">Component.cpp</text>
</a>
</g>
</g>
<!-- Node2&#45;&gt;Node3 -->
<g id="edge2" class="edge"><title>Node2&#45;&gt;Node3</title>
<path fill="none" stroke="midnightblue" d="M3275.79,-335.57C3254.54,-281.409 3214.13,-178.457 3195.44,-130.832"/>
<polygon fill="midnightblue" stroke="midnightblue" points="3272.62,-337.061 3279.53,-345.091 3279.13,-334.503 3272.62,-337.061"/>
</g>
<!-- Node5 -->
<g id="node5" class="node"><title>Node5</title>
<g id="a_node5"><a xlink:href="AssimpAnimationDataLoader_8cpp.html" target="_top" xlink:title="/home/travis/build\l/STORM&#45;IRIT/Radium&#45;Engine\l/src/IO/AssimpLoader/AssimpAnimation\lDataLoader.cpp">
<polygon fill="white" stroke="black" points="2220,-256.5 2220,-308.5 2425,-308.5 2425,-256.5 2220,-256.5"/>
<text text-anchor="start" x="2228" y="-296.5" font-family="Helvetica,sans-Serif" font-size="10.00">/home/travis/build</text>
<text text-anchor="start" x="2228" y="-285.5" font-family="Helvetica,sans-Serif" font-size="10.00">/STORM&#45;IRIT/Radium&#45;Engine</text>
<text text-anchor="start" x="2228" y="-274.5" font-family="Helvetica,sans-Serif" font-size="10.00">/src/IO/AssimpLoader/AssimpAnimation</text>
<text text-anchor="middle" x="2322.5" y="-263.5" font-family="Helvetica,sans-Serif" font-size="10.00">DataLoader.cpp</text>
</a>
</g>
</g>
<!-- Node4&#45;&gt;Node5 -->
<g id="edge4" class="edge"><title>Node4&#45;&gt;Node5</title>
<path fill="none" stroke="midnightblue" d="M2322.5,-335.191C2322.5,-326.282 2322.5,-316.899 2322.5,-308.607"/>
<polygon fill="midnightblue" stroke="midnightblue" points="2319,-335.336 2322.5,-345.336 2326,-335.336 2319,-335.336"/>
</g>
<!-- Node6&#45;&gt;Node5 -->
<g id="edge6" class="edge"><title>Node6&#45;&gt;Node5</title>
<path fill="none" stroke="midnightblue" d="M2425.37,-424.329C2424.43,-400.373 2420.06,-368.811 2405.5,-345 2396.61,-330.464 2382.89,-318.247 2369.15,-308.63"/>
<polygon fill="midnightblue" stroke="midnightblue" points="2421.87,-424.491 2425.58,-434.414 2428.87,-424.342 2421.87,-424.491"/>
</g>
<!-- Node7&#45;&gt;Node3 -->
<g id="edge37" class="edge"><title>Node7&#45;&gt;Node3</title>
<path fill="none" stroke="midnightblue" d="M2899.61,-430.782C2996.38,-394.016 3151.81,-332.283 3168.5,-309 3206.92,-255.405 3198.48,-172.264 3191,-130.803"/>
<polygon fill="midnightblue" stroke="midnightblue" points="2898.25,-427.553 2890.14,-434.37 2900.73,-434.098 2898.25,-427.553"/>
</g>
<!-- Node8 -->
<g id="node8" class="node"><title>Node8</title>
<g id="a_node8"><a xlink:href="AnimationData_8hpp.html" target="_top" xlink:title="/home/travis/build\l/STORM&#45;IRIT/Radium&#45;Engine\l/src/Core/File/AnimationData.hpp">
<polygon fill="white" stroke="black" points="2736,-351 2736,-392 2909,-392 2909,-351 2736,-351"/>
<text text-anchor="start" x="2744" y="-380" font-family="Helvetica,sans-Serif" font-size="10.00">/home/travis/build</text>
<text text-anchor="start" x="2744" y="-369" font-family="Helvetica,sans-Serif" font-size="10.00">/STORM&#45;IRIT/Radium&#45;Engine</text>
<text text-anchor="middle" x="2822.5" y="-358" font-family="Helvetica,sans-Serif" font-size="10.00">/src/Core/File/AnimationData.hpp</text>
</a>
</g>
</g>
<!-- Node7&#45;&gt;Node8 -->
<g id="edge8" class="edge"><title>Node7&#45;&gt;Node8</title>
<path fill="none" stroke="midnightblue" d="M2822.5,-424.155C2822.5,-413.21 2822.5,-401.549 2822.5,-392.082"/>
<polygon fill="midnightblue" stroke="midnightblue" points="2819,-424.336 2822.5,-434.336 2826,-424.336 2819,-424.336"/>
</g>
<!-- Node8&#45;&gt;Node5 -->
<g id="edge29" class="edge"><title>Node8&#45;&gt;Node5</title>
<path fill="none" stroke="midnightblue" d="M2726.01,-357.032C2647.32,-345.609 2533.4,-328.075 2434.5,-309 2431.46,-308.415 2428.39,-307.807 2425.28,-307.181"/>
<polygon fill="midnightblue" stroke="midnightblue" points="2725.52,-360.496 2735.91,-358.463 2726.52,-353.568 2725.52,-360.496"/>
</g>
<!-- Node9 -->
<g id="node9" class="node"><title>Node9</title>
<g id="a_node9"><a xlink:href="AnimationData_8cpp.html" target="_top" xlink:title="/home/travis/build\l/STORM&#45;IRIT/Radium&#45;Engine\l/src/Core/File/AnimationData.cpp">
<polygon fill="white" stroke="black" points="2802,-262 2802,-303 2975,-303 2975,-262 2802,-262"/>
<text text-anchor="start" x="2810" y="-291" font-family="Helvetica,sans-Serif" font-size="10.00">/home/travis/build</text>
<text text-anchor="start" x="2810" y="-280" font-family="Helvetica,sans-Serif" font-size="10.00">/STORM&#45;IRIT/Radium&#45;Engine</text>
<text text-anchor="middle" x="2888.5" y="-269" font-family="Helvetica,sans-Serif" font-size="10.00">/src/Core/File/AnimationData.cpp</text>
</a>
</g>
</g>
<!-- Node8&#45;&gt;Node9 -->
<g id="edge9" class="edge"><title>Node8&#45;&gt;Node9</title>
<path fill="none" stroke="midnightblue" d="M2843.62,-342.666C2853.37,-329.802 2864.73,-314.828 2873.58,-303.164"/>
<polygon fill="midnightblue" stroke="midnightblue" points="2840.73,-340.676 2837.48,-350.758 2846.31,-344.907 2840.73,-340.676"/>
</g>
<!-- Node10 -->
<g id="node10" class="node"><title>Node10</title>
<g id="a_node10"><a xlink:href="AnimationData_8inl.html" target="_top" xlink:title="/home/travis/build\l/STORM&#45;IRIT/Radium&#45;Engine\l/src/Core/File/AnimationData.inl">
<polygon fill="white" stroke="black" points="2993.5,-262 2993.5,-303 3159.5,-303 3159.5,-262 2993.5,-262"/>
<text text-anchor="start" x="3001.5" y="-291" font-family="Helvetica,sans-Serif" font-size="10.00">/home/travis/build</text>
<text text-anchor="start" x="3001.5" y="-280" font-family="Helvetica,sans-Serif" font-size="10.00">/STORM&#45;IRIT/Radium&#45;Engine</text>
<text text-anchor="middle" x="3076.5" y="-269" font-family="Helvetica,sans-Serif" font-size="10.00">/src/Core/File/AnimationData.inl</text>
</a>
</g>
</g>
<!-- Node8&#45;&gt;Node10 -->
<g id="edge10" class="edge"><title>Node8&#45;&gt;Node10</title>
<path fill="none" stroke="midnightblue" d="M2883.5,-347.542C2922.82,-333.714 2973.78,-316.291 3013.5,-303.11"/>
<polygon fill="midnightblue" stroke="midnightblue" points="2882.03,-344.348 2873.76,-350.976 2884.36,-350.95 2882.03,-344.348"/>
</g>
<!-- Node11 -->
<g id="node11" class="node"><title>Node11</title>
<g id="a_node11"><a xlink:href="FileData_8inl.html" target="_top" xlink:title="/home/travis/build\l/STORM&#45;IRIT/Radium&#45;Engine\l/src/Core/File/FileData.inl">
<polygon fill="white" stroke="black" points="2443.5,-262 2443.5,-303 2591.5,-303 2591.5,-262 2443.5,-262"/>
<text text-anchor="start" x="2451.5" y="-291" font-family="Helvetica,sans-Serif" font-size="10.00">/home/travis/build</text>
<text text-anchor="start" x="2451.5" y="-280" font-family="Helvetica,sans-Serif" font-size="10.00">/STORM&#45;IRIT/Radium&#45;Engine</text>
<text text-anchor="middle" x="2517.5" y="-269" font-family="Helvetica,sans-Serif" font-size="10.00">/src/Core/File/FileData.inl</text>
</a>
</g>
</g>
<!-- Node8&#45;&gt;Node11 -->
<g id="edge12" class="edge"><title>Node8&#45;&gt;Node11</title>
<path fill="none" stroke="midnightblue" d="M2740.24,-348.297C2698.33,-336.838 2646.61,-322.468 2600.5,-309 2593.99,-307.098 2587.2,-305.077 2580.44,-303.037"/>
<polygon fill="midnightblue" stroke="midnightblue" points="2739.55,-351.738 2750.12,-350.995 2741.39,-344.985 2739.55,-351.738"/>
</g>
<!-- Node28 -->
<g id="node28" class="node"><title>Node28</title>
<g id="a_node28"><a xlink:href="AnimationComponent_8hpp.html" target="_top" xlink:title="/home/travis/build\l/STORM&#45;IRIT/Radium&#45;Engine\l/Plugins/Animation/src/Animation\lComponent.hpp">
<polygon fill="white" stroke="black" points="2609.5,-256.5 2609.5,-308.5 2783.5,-308.5 2783.5,-256.5 2609.5,-256.5"/>
<text text-anchor="start" x="2617.5" y="-296.5" font-family="Helvetica,sans-Serif" font-size="10.00">/home/travis/build</text>
<text text-anchor="start" x="2617.5" y="-285.5" font-family="Helvetica,sans-Serif" font-size="10.00">/STORM&#45;IRIT/Radium&#45;Engine</text>
<text text-anchor="start" x="2617.5" y="-274.5" font-family="Helvetica,sans-Serif" font-size="10.00">/Plugins/Animation/src/Animation</text>
<text text-anchor="middle" x="2696.5" y="-263.5" font-family="Helvetica,sans-Serif" font-size="10.00">Component.hpp</text>
</a>
</g>
</g>
<!-- Node8&#45;&gt;Node28 -->
<g id="edge30" class="edge"><title>Node8&#45;&gt;Node28</title>
<path fill="none" stroke="midnightblue" d="M2785.81,-345.165C2769.13,-333.652 2749.46,-320.068 2732.83,-308.585"/>
<polygon fill="midnightblue" stroke="midnightblue" points="2784.01,-348.174 2794.22,-350.976 2787.98,-342.413 2784.01,-348.174"/>
</g>
<!-- Node10&#45;&gt;Node8 -->
<g id="edge11" class="edge"><title>Node10&#45;&gt;Node8</title>
<path fill="none" stroke="midnightblue" d="M3015.25,-306.547C2975.87,-320.391 2924.91,-337.813 2885.24,-350.976"/>
<polygon fill="midnightblue" stroke="midnightblue" points="3016.73,-309.736 3025,-303.11 3014.4,-303.135 3016.73,-309.736"/>
</g>
<!-- Node12 -->
<g id="node12" class="node"><title>Node12</title>
<g id="a_node12"><a xlink:href="FileData_8hpp.html" target="_top" xlink:title="/home/travis/build\l/STORM&#45;IRIT/Radium&#45;Engine\l/src/Core/File/FileData.hpp">
<polygon fill="white" stroke="black" points="1446.5,-173 1446.5,-214 1594.5,-214 1594.5,-173 1446.5,-173"/>
<text text-anchor="start" x="1454.5" y="-202" font-family="Helvetica,sans-Serif" font-size="10.00">/home/travis/build</text>
<text text-anchor="start" x="1454.5" y="-191" font-family="Helvetica,sans-Serif" font-size="10.00">/STORM&#45;IRIT/Radium&#45;Engine</text>
<text text-anchor="middle" x="1520.5" y="-180" font-family="Helvetica,sans-Serif" font-size="10.00">/src/Core/File/FileData.hpp</text>
</a>
</g>
</g>
<!-- Node11&#45;&gt;Node12 -->
<g id="edge13" class="edge"><title>Node11&#45;&gt;Node12</title>
<path fill="none" stroke="midnightblue" d="M2449.93,-259.344C2444.74,-258.073 2439.56,-256.934 2434.5,-256 2126.4,-199.098 1751.24,-193.353 1594.67,-193.727"/>
<polygon fill="midnightblue" stroke="midnightblue" points="2449.32,-262.801 2459.88,-261.934 2451.08,-256.027 2449.32,-262.801"/>
</g>
<!-- Node13 -->
<g id="node13" class="node"><title>Node13</title>
<g id="a_node13"><a xlink:href="FileData_8cpp.html" target="_top" xlink:title="/home/travis/build\l/STORM&#45;IRIT/Radium&#45;Engine\l/src/Core/File/FileData.cpp">
<polygon fill="white" stroke="black" points="2255.5,-84 2255.5,-125 2403.5,-125 2403.5,-84 2255.5,-84"/>
<text text-anchor="start" x="2263.5" y="-113" font-family="Helvetica,sans-Serif" font-size="10.00">/home/travis/build</text>
<text text-anchor="start" x="2263.5" y="-102" font-family="Helvetica,sans-Serif" font-size="10.00">/STORM&#45;IRIT/Radium&#45;Engine</text>
<text text-anchor="middle" x="2329.5" y="-91" font-family="Helvetica,sans-Serif" font-size="10.00">/src/Core/File/FileData.cpp</text>
</a>
</g>
</g>
<!-- Node12&#45;&gt;Node13 -->
<g id="edge14" class="edge"><title>Node12&#45;&gt;Node13</title>
<path fill="none" stroke="midnightblue" d="M1605,-191.175C1741.22,-187.739 2017.29,-175.388 2246.5,-131 2254.64,-129.424 2263.11,-127.348 2271.4,-125.059"/>
<polygon fill="midnightblue" stroke="midnightblue" points="1604.55,-187.685 1594.64,-191.426 1604.72,-194.683 1604.55,-187.685"/>
</g>
<!-- Node14 -->
<g id="node14" class="node"><title>Node14</title>
<g id="a_node14"><a xlink:href="GeometryComponent_8cpp.html" target="_top" xlink:title="/home/travis/build\l/STORM&#45;IRIT/Radium&#45;Engine\l/src/Engine/Component/GeometryComponent.cpp">
<polygon fill="white" stroke="black" points="2421.5,-84 2421.5,-125 2677.5,-125 2677.5,-84 2421.5,-84"/>
<text text-anchor="start" x="2429.5" y="-113" font-family="Helvetica,sans-Serif" font-size="10.00">/home/travis/build</text>
<text text-anchor="start" x="2429.5" y="-102" font-family="Helvetica,sans-Serif" font-size="10.00">/STORM&#45;IRIT/Radium&#45;Engine</text>
<text text-anchor="middle" x="2549.5" y="-91" font-family="Helvetica,sans-Serif" font-size="10.00">/src/Engine/Component/GeometryComponent.cpp</text>
</a>
</g>
</g>
<!-- Node12&#45;&gt;Node14 -->
<g id="edge15" class="edge"><title>Node12&#45;&gt;Node14</title>
<path fill="none" stroke="midnightblue" d="M1604.96,-189.919C1763.7,-184.35 2117.16,-168.54 2412.5,-131 2425.34,-129.368 2438.8,-127.304 2452.05,-125.061"/>
<polygon fill="midnightblue" stroke="midnightblue" points="1604.66,-186.427 1594.79,-190.271 1604.91,-193.423 1604.66,-186.427"/>
</g>
<!-- Node15 -->
<g id="node15" class="node"><title>Node15</title>
<g id="a_node15"><a xlink:href="CameraManager_8cpp.html" target="_top" xlink:title="/home/travis/build\l/STORM&#45;IRIT/Radium&#45;Engine\l/src/Engine/Managers/CameraManager\l/CameraManager.cpp">
<polygon fill="white" stroke="black" points="0,-78.5 0,-130.5 203,-130.5 203,-78.5 0,-78.5"/>
<text text-anchor="start" x="8" y="-118.5" font-family="Helvetica,sans-Serif" font-size="10.00">/home/travis/build</text>
<text text-anchor="start" x="8" y="-107.5" font-family="Helvetica,sans-Serif" font-size="10.00">/STORM&#45;IRIT/Radium&#45;Engine</text>
<text text-anchor="start" x="8" y="-96.5" font-family="Helvetica,sans-Serif" font-size="10.00">/src/Engine/Managers/CameraManager</text>
<text text-anchor="middle" x="101.5" y="-85.5" font-family="Helvetica,sans-Serif" font-size="10.00">/CameraManager.cpp</text>
</a>
</g>
</g>
<!-- Node12&#45;&gt;Node15 -->
<g id="edge16" class="edge"><title>Node12&#45;&gt;Node15</title>
<path fill="none" stroke="midnightblue" d="M1436.19,-190.508C1185.98,-184.283 450.332,-163.642 212.5,-131 209.464,-130.583 206.388,-130.124 203.289,-129.627"/>
<polygon fill="midnightblue" stroke="midnightblue" points="1436.23,-194.01 1446.31,-190.758 1436.4,-187.012 1436.23,-194.01"/>
</g>
<!-- Node16 -->
<g id="node16" class="node"><title>Node16</title>
<g id="a_node16"><a xlink:href="LightManager_8cpp.html" target="_top" xlink:title="/home/travis/build\l/STORM&#45;IRIT/Radium&#45;Engine\l/src/Engine/Managers/LightManager\l/LightManager.cpp">
<polygon fill="white" stroke="black" points="221.5,-78.5 221.5,-130.5 409.5,-130.5 409.5,-78.5 221.5,-78.5"/>
<text text-anchor="start" x="229.5" y="-118.5" font-family="Helvetica,sans-Serif" font-size="10.00">/home/travis/build</text>
<text text-anchor="start" x="229.5" y="-107.5" font-family="Helvetica,sans-Serif" font-size="10.00">/STORM&#45;IRIT/Radium&#45;Engine</text>
<text text-anchor="start" x="229.5" y="-96.5" font-family="Helvetica,sans-Serif" font-size="10.00">/src/Engine/Managers/LightManager</text>
<text text-anchor="middle" x="315.5" y="-85.5" font-family="Helvetica,sans-Serif" font-size="10.00">/LightManager.cpp</text>
</a>
</g>
</g>
<!-- Node12&#45;&gt;Node16 -->
<g id="edge17" class="edge"><title>Node12&#45;&gt;Node16</title>
<path fill="none" stroke="midnightblue" d="M1435.95,-193.144C1250.57,-193.385 794.861,-187.582 418.5,-131 415.585,-130.562 412.633,-130.079 409.658,-129.558"/>
<polygon fill="midnightblue" stroke="midnightblue" points="1436.18,-196.643 1446.17,-193.124 1436.17,-189.643 1436.18,-196.643"/>
</g>
<!-- Node17 -->
<g id="node17" class="node"><title>Node17</title>
<g id="a_node17"><a xlink:href="RadiumEngine_8cpp.html" target="_top" xlink:title="/home/travis/build\l/STORM&#45;IRIT/Radium&#45;Engine\l/src/Engine/RadiumEngine.cpp">
<polygon fill="white" stroke="black" points="428,-84 428,-125 589,-125 589,-84 428,-84"/>
<text text-anchor="start" x="436" y="-113" font-family="Helvetica,sans-Serif" font-size="10.00">/home/travis/build</text>
<text text-anchor="start" x="436" y="-102" font-family="Helvetica,sans-Serif" font-size="10.00">/STORM&#45;IRIT/Radium&#45;Engine</text>
<text text-anchor="middle" x="508.5" y="-91" font-family="Helvetica,sans-Serif" font-size="10.00">/src/Engine/RadiumEngine.cpp</text>
</a>
</g>
</g>
<!-- Node12&#45;&gt;Node17 -->
<g id="edge18" class="edge"><title>Node12&#45;&gt;Node17</title>
<path fill="none" stroke="midnightblue" d="M1435.93,-192.752C1272.75,-191.941 903.606,-183.798 598.5,-131 589.539,-129.449 580.191,-127.357 571.056,-125.034"/>
<polygon fill="midnightblue" stroke="midnightblue" points="1436.36,-196.253 1446.38,-192.795 1436.39,-189.253 1436.36,-196.253"/>
</g>
<!-- Node18 -->
<g id="node18" class="node"><title>Node18</title>
<g id="a_node18"><a xlink:href="Renderer_8cpp.html" target="_top" xlink:title="/home/travis/build\l/STORM&#45;IRIT/Radium&#45;Engine\l/src/Engine/Renderer/Renderer.cpp">
<polygon fill="white" stroke="black" points="607.5,-84 607.5,-125 787.5,-125 787.5,-84 607.5,-84"/>
<text text-anchor="start" x="615.5" y="-113" font-family="Helvetica,sans-Serif" font-size="10.00">/home/travis/build</text>
<text text-anchor="start" x="615.5" y="-102" font-family="Helvetica,sans-Serif" font-size="10.00">/STORM&#45;IRIT/Radium&#45;Engine</text>
<text text-anchor="middle" x="697.5" y="-91" font-family="Helvetica,sans-Serif" font-size="10.00">/src/Engine/Renderer/Renderer.cpp</text>
</a>
</g>
</g>
<!-- Node12&#45;&gt;Node18 -->
<g id="edge19" class="edge"><title>Node12&#45;&gt;Node18</title>
<path fill="none" stroke="midnightblue" d="M1436.05,-189.828C1300.53,-184.531 1026.46,-169.659 797.5,-131 787.872,-129.374 777.811,-127.285 767.938,-125.003"/>
<polygon fill="midnightblue" stroke="midnightblue" points="1436.23,-193.337 1446.36,-190.223 1436.5,-186.342 1436.23,-193.337"/>
</g>
<!-- Node19 -->
<g id="node19" class="node"><title>Node19</title>
<g id="a_node19"><a xlink:href="GeometrySystem_8cpp.html" target="_top" xlink:title="/home/travis/build\l/STORM&#45;IRIT/Radium&#45;Engine\l/src/Engine/System/GeometrySystem.cpp">
<polygon fill="white" stroke="black" points="806,-84 806,-125 1023,-125 1023,-84 806,-84"/>
<text text-anchor="start" x="814" y="-113" font-family="Helvetica,sans-Serif" font-size="10.00">/home/travis/build</text>
<text text-anchor="start" x="814" y="-102" font-family="Helvetica,sans-Serif" font-size="10.00">/STORM&#45;IRIT/Radium&#45;Engine</text>
<text text-anchor="middle" x="914.5" y="-91" font-family="Helvetica,sans-Serif" font-size="10.00">/src/Engine/System/GeometrySystem.cpp</text>
</a>
</g>
</g>
<!-- Node12&#45;&gt;Node19 -->
<g id="edge20" class="edge"><title>Node12&#45;&gt;Node19</title>
<path fill="none" stroke="midnightblue" d="M1436.11,-184.131C1338.56,-173.933 1173.35,-155.046 1032.5,-131 1022.17,-129.236 1011.37,-127.189 1000.69,-125.036"/>
<polygon fill="midnightblue" stroke="midnightblue" points="1435.9,-187.628 1446.21,-185.181 1436.62,-180.665 1435.9,-187.628"/>
</g>
<!-- Node20 -->
<g id="node20" class="node"><title>Node20</title>
<g id="a_node20"><a xlink:href="Viewer_8cpp.html" target="_top" xlink:title="/home/travis/build\l/STORM&#45;IRIT/Radium&#45;Engine\l/src/GuiBase/Viewer/Viewer.cpp">
<polygon fill="white" stroke="black" points="1041,-84 1041,-125 1206,-125 1206,-84 1041,-84"/>
<text text-anchor="start" x="1049" y="-113" font-family="Helvetica,sans-Serif" font-size="10.00">/home/travis/build</text>
<text text-anchor="start" x="1049" y="-102" font-family="Helvetica,sans-Serif" font-size="10.00">/STORM&#45;IRIT/Radium&#45;Engine</text>
<text text-anchor="middle" x="1123.5" y="-91" font-family="Helvetica,sans-Serif" font-size="10.00">/src/GuiBase/Viewer/Viewer.cpp</text>
</a>
</g>
</g>
<!-- Node12&#45;&gt;Node20 -->
<g id="edge21" class="edge"><title>Node12&#45;&gt;Node20</title>
<path fill="none" stroke="midnightblue" d="M1436.18,-177.175C1374.75,-165.603 1289.65,-148.728 1215.5,-131 1207.84,-129.169 1199.86,-127.14 1191.94,-125.049"/>
<polygon fill="midnightblue" stroke="midnightblue" points="1435.74,-180.654 1446.22,-179.058 1437.04,-173.774 1435.74,-180.654"/>
</g>
<!-- Node21 -->
<g id="node21" class="node"><title>Node21</title>
<g id="a_node21"><a xlink:href="AssimpFileLoader_8cpp.html" target="_top" xlink:title="/home/travis/build\l/STORM&#45;IRIT/Radium&#45;Engine\l/src/IO/AssimpLoader/AssimpFile\lLoader.cpp">
<polygon fill="white" stroke="black" points="1224,-78.5 1224,-130.5 1395,-130.5 1395,-78.5 1224,-78.5"/>
<text text-anchor="start" x="1232" y="-118.5" font-family="Helvetica,sans-Serif" font-size="10.00">/home/travis/build</text>
<text text-anchor="start" x="1232" y="-107.5" font-family="Helvetica,sans-Serif" font-size="10.00">/STORM&#45;IRIT/Radium&#45;Engine</text>
<text text-anchor="start" x="1232" y="-96.5" font-family="Helvetica,sans-Serif" font-size="10.00">/src/IO/AssimpLoader/AssimpFile</text>
<text text-anchor="middle" x="1309.5" y="-85.5" font-family="Helvetica,sans-Serif" font-size="10.00">Loader.cpp</text>
</a>
</g>
</g>
<!-- Node12&#45;&gt;Node21 -->
<g id="edge22" class="edge"><title>Node12&#45;&gt;Node21</title>
<path fill="none" stroke="midnightblue" d="M1463.62,-169.047C1434.77,-157.153 1399.72,-142.7 1370.34,-130.585"/>
<polygon fill="midnightblue" stroke="midnightblue" points="1462.57,-172.399 1473.15,-172.976 1465.24,-165.928 1462.57,-172.399"/>
</g>
<!-- Node22 -->
<g id="node22" class="node"><title>Node22</title>
<g id="a_node22"><a xlink:href="CameraLoader_8cpp.html" target="_top" xlink:title="/home/travis/build\l/STORM&#45;IRIT/Radium&#45;Engine\l/src/IO/CameraLoader/CameraLoader.cpp">
<polygon fill="white" stroke="black" points="1413,-84 1413,-125 1628,-125 1628,-84 1413,-84"/>
<text text-anchor="start" x="1421" y="-113" font-family="Helvetica,sans-Serif" font-size="10.00">/home/travis/build</text>
<text text-anchor="start" x="1421" y="-102" font-family="Helvetica,sans-Serif" font-size="10.00">/STORM&#45;IRIT/Radium&#45;Engine</text>
<text text-anchor="middle" x="1520.5" y="-91" font-family="Helvetica,sans-Serif" font-size="10.00">/src/IO/CameraLoader/CameraLoader.cpp</text>
</a>
</g>
</g>
<!-- Node12&#45;&gt;Node22 -->
<g id="edge23" class="edge"><title>Node12&#45;&gt;Node22</title>
<path fill="none" stroke="midnightblue" d="M1520.5,-162.441C1520.5,-150.101 1520.5,-136.162 1520.5,-125.164"/>
<polygon fill="midnightblue" stroke="midnightblue" points="1517,-162.758 1520.5,-172.758 1524,-162.758 1517,-162.758"/>
</g>
<!-- Node23 -->
<g id="node23" class="node"><title>Node23</title>
<g id="a_node23"><a xlink:href="TinyPlyFileLoader_8cpp.html" target="_top" xlink:title="/home/travis/build\l/STORM&#45;IRIT/Radium&#45;Engine\l/src/IO/TinyPlyLoader/TinyPlyFile\lLoader.cpp">
<polygon fill="white" stroke="black" points="1646,-78.5 1646,-130.5 1811,-130.5 1811,-78.5 1646,-78.5"/>
<text text-anchor="start" x="1654" y="-118.5" font-family="Helvetica,sans-Serif" font-size="10.00">/home/travis/build</text>
<text text-anchor="start" x="1654" y="-107.5" font-family="Helvetica,sans-Serif" font-size="10.00">/STORM&#45;IRIT/Radium&#45;Engine</text>
<text text-anchor="start" x="1654" y="-96.5" font-family="Helvetica,sans-Serif" font-size="10.00">/src/IO/TinyPlyLoader/TinyPlyFile</text>
<text text-anchor="middle" x="1728.5" y="-85.5" font-family="Helvetica,sans-Serif" font-size="10.00">Loader.cpp</text>
</a>
</g>
</g>
<!-- Node12&#45;&gt;Node23 -->
<g id="edge24" class="edge"><title>Node12&#45;&gt;Node23</title>
<path fill="none" stroke="midnightblue" d="M1576.57,-169.047C1605.01,-157.153 1639.56,-142.7 1668.53,-130.585"/>
<polygon fill="midnightblue" stroke="midnightblue" points="1575.05,-165.888 1567.18,-172.976 1577.76,-172.346 1575.05,-165.888"/>
</g>
<!-- Node24 -->
<g id="node24" class="node"><title>Node24</title>
<g id="a_node24"><a xlink:href="AnimationSystem_8cpp.html" target="_top" xlink:title="/home/travis/build\l/STORM&#45;IRIT/Radium&#45;Engine\l/Plugins/Animation/src/Animation\lSystem.cpp">
<polygon fill="white" stroke="black" points="2695.5,-78.5 2695.5,-130.5 2869.5,-130.5 2869.5,-78.5 2695.5,-78.5"/>
<text text-anchor="start" x="2703.5" y="-118.5" font-family="Helvetica,sans-Serif" font-size="10.00">/home/travis/build</text>
<text text-anchor="start" x="2703.5" y="-107.5" font-family="Helvetica,sans-Serif" font-size="10.00">/STORM&#45;IRIT/Radium&#45;Engine</text>
<text text-anchor="start" x="2703.5" y="-96.5" font-family="Helvetica,sans-Serif" font-size="10.00">/Plugins/Animation/src/Animation</text>
<text text-anchor="middle" x="2782.5" y="-85.5" font-family="Helvetica,sans-Serif" font-size="10.00">System.cpp</text>
</a>
</g>
</g>
<!-- Node12&#45;&gt;Node24 -->
<g id="edge25" class="edge"><title>Node12&#45;&gt;Node24</title>
<path fill="none" stroke="midnightblue" d="M1604.8,-190.32C1836.19,-183.973 2477.84,-163.852 2686.5,-131 2689.4,-130.544 2692.33,-130.036 2695.29,-129.485"/>
<polygon fill="midnightblue" stroke="midnightblue" points="1604.65,-186.822 1594.75,-190.593 1604.84,-193.819 1604.65,-186.822"/>
</g>
<!-- Node25 -->
<g id="node25" class="node"><title>Node25</title>
<g id="a_node25"><a xlink:href="MeshPaintSystem_8cpp.html" target="_top" xlink:title="/home/travis/build\l/STORM&#45;IRIT/Radium&#45;Engine\l/Plugins/MeshPaint/src/MeshPaint\lSystem.cpp">
<polygon fill="white" stroke="black" points="1829.5,-78.5 1829.5,-130.5 2003.5,-130.5 2003.5,-78.5 1829.5,-78.5"/>
<text text-anchor="start" x="1837.5" y="-118.5" font-family="Helvetica,sans-Serif" font-size="10.00">/home/travis/build</text>
<text text-anchor="start" x="1837.5" y="-107.5" font-family="Helvetica,sans-Serif" font-size="10.00">/STORM&#45;IRIT/Radium&#45;Engine</text>
<text text-anchor="start" x="1837.5" y="-96.5" font-family="Helvetica,sans-Serif" font-size="10.00">/Plugins/MeshPaint/src/MeshPaint</text>
<text text-anchor="middle" x="1916.5" y="-85.5" font-family="Helvetica,sans-Serif" font-size="10.00">System.cpp</text>
</a>
</g>
</g>
<!-- Node12&#45;&gt;Node25 -->
<g id="edge26" class="edge"><title>Node12&#45;&gt;Node25</title>
<path fill="none" stroke="midnightblue" d="M1604.58,-176.604C1664.88,-164.878 1747.94,-148.059 1820.5,-131 1823.44,-130.309 1826.42,-129.594 1829.43,-128.86"/>
<polygon fill="midnightblue" stroke="midnightblue" points="1603.88,-173.175 1594.73,-178.514 1605.21,-180.047 1603.88,-173.175"/>
</g>
<!-- Node26 -->
<g id="node26" class="node"><title>Node26</title>
<g id="a_node26"><a xlink:href="SkinningSystem_8hpp.html" target="_top" xlink:title="/home/travis/build\l/STORM&#45;IRIT/Radium&#45;Engine\l/Plugins/Skinning/src/SkinningSystem.hpp">
<polygon fill="white" stroke="black" points="2022,-84 2022,-125 2237,-125 2237,-84 2022,-84"/>
<text text-anchor="start" x="2030" y="-113" font-family="Helvetica,sans-Serif" font-size="10.00">/home/travis/build</text>
<text text-anchor="start" x="2030" y="-102" font-family="Helvetica,sans-Serif" font-size="10.00">/STORM&#45;IRIT/Radium&#45;Engine</text>
<text text-anchor="middle" x="2129.5" y="-91" font-family="Helvetica,sans-Serif" font-size="10.00">/Plugins/Skinning/src/SkinningSystem.hpp</text>
</a>
</g>
</g>
<!-- Node12&#45;&gt;Node26 -->
<g id="edge27" class="edge"><title>Node12&#45;&gt;Node26</title>
<path fill="none" stroke="midnightblue" d="M1604.74,-184.307C1702.99,-174.213 1870.12,-155.364 2012.5,-131 2022.75,-129.247 2033.45,-127.206 2044.05,-125.056"/>
<polygon fill="midnightblue" stroke="midnightblue" points="1604.17,-180.848 1594.57,-185.346 1604.88,-187.812 1604.17,-180.848"/>
</g>
<!-- Node27 -->
<g id="node27" class="node"><title>Node27</title>
<g id="a_node27"><a xlink:href="SkinningPlugin_8cpp.html" target="_top" xlink:title="/home/travis/build\l/STORM&#45;IRIT/Radium&#45;Engine\l/Plugins/Skinning/src/SkinningPlugin.cpp">
<polygon fill="white" stroke="black" points="2026.5,-0.5 2026.5,-41.5 2232.5,-41.5 2232.5,-0.5 2026.5,-0.5"/>
<text text-anchor="start" x="2034.5" y="-29.5" font-family="Helvetica,sans-Serif" font-size="10.00">/home/travis/build</text>
<text text-anchor="start" x="2034.5" y="-18.5" font-family="Helvetica,sans-Serif" font-size="10.00">/STORM&#45;IRIT/Radium&#45;Engine</text>
<text text-anchor="middle" x="2129.5" y="-7.5" font-family="Helvetica,sans-Serif" font-size="10.00">/Plugins/Skinning/src/SkinningPlugin.cpp</text>
</a>
</g>
</g>
<!-- Node26&#45;&gt;Node27 -->
<g id="edge28" class="edge"><title>Node26&#45;&gt;Node27</title>
<path fill="none" stroke="midnightblue" d="M2129.5,-73.5646C2129.5,-62.8819 2129.5,-51.1303 2129.5,-41.5472"/>
<polygon fill="midnightblue" stroke="midnightblue" points="2126,-73.7711 2129.5,-83.7711 2133,-73.7712 2126,-73.7711"/>
</g>
<!-- Node28&#45;&gt;Node3 -->
<g id="edge31" class="edge"><title>Node28&#45;&gt;Node3</title>
<path fill="none" stroke="midnightblue" d="M2793.68,-255.943C2856.82,-239.322 2927.76,-220.615 2929.5,-220 3003.19,-193.99 3085.1,-155.588 3135.97,-130.556"/>
<polygon fill="midnightblue" stroke="midnightblue" points="2792.4,-252.659 2783.62,-258.589 2794.19,-259.429 2792.4,-252.659"/>
</g>
<!-- Node28&#45;&gt;Node24 -->
<g id="edge32" class="edge"><title>Node28&#45;&gt;Node24</title>
<path fill="none" stroke="midnightblue" d="M2710.89,-246.829C2720.66,-223.905 2734.18,-193.337 2747.5,-167 2753.65,-154.831 2761.05,-141.653 2767.46,-130.628"/>
<polygon fill="midnightblue" stroke="midnightblue" points="2707.62,-245.578 2706.94,-256.151 2714.06,-248.307 2707.62,-245.578"/>
</g>
<!-- Node29 -->
<g id="node29" class="node"><title>Node29</title>
<g id="a_node29"><a xlink:href="SkeletonBoneDrawable_8hpp.html" target="_top" xlink:title="/home/travis/build\l/STORM&#45;IRIT/Radium&#45;Engine\l/Plugins/Animation/src/Drawing\l/SkeletonBoneDrawable.hpp">
<polygon fill="white" stroke="black" points="2756.5,-167.5 2756.5,-219.5 2920.5,-219.5 2920.5,-167.5 2756.5,-167.5"/>
<text text-anchor="start" x="2764.5" y="-207.5" font-family="Helvetica,sans-Serif" font-size="10.00">/home/travis/build</text>
<text text-anchor="start" x="2764.5" y="-196.5" font-family="Helvetica,sans-Serif" font-size="10.00">/STORM&#45;IRIT/Radium&#45;Engine</text>
<text text-anchor="start" x="2764.5" y="-185.5" font-family="Helvetica,sans-Serif" font-size="10.00">/Plugins/Animation/src/Drawing</text>
<text text-anchor="middle" x="2838.5" y="-174.5" font-family="Helvetica,sans-Serif" font-size="10.00">/SkeletonBoneDrawable.hpp</text>
</a>
</g>
</g>
<!-- Node28&#45;&gt;Node29 -->
<g id="edge33" class="edge"><title>Node28&#45;&gt;Node29</title>
<path fill="none" stroke="midnightblue" d="M2746.17,-251.07C2762.95,-240.788 2781.49,-229.431 2797.52,-219.607"/>
<polygon fill="midnightblue" stroke="midnightblue" points="2744.27,-248.127 2737.57,-256.336 2747.93,-254.096 2744.27,-248.127"/>
</g>
<!-- Node29&#45;&gt;Node3 -->
<g id="edge34" class="edge"><title>Node29&#45;&gt;Node3</title>
<path fill="none" stroke="midnightblue" d="M2930.62,-169.402C2982.63,-156.364 3047.24,-140.163 3098.4,-127.337"/>
<polygon fill="midnightblue" stroke="midnightblue" points="2929.58,-166.055 2920.73,-171.882 2931.29,-172.845 2929.58,-166.055"/>
</g>
<!-- Node29&#45;&gt;Node24 -->
<g id="edge35" class="edge"><title>Node29&#45;&gt;Node24</title>
<path fill="none" stroke="midnightblue" d="M2816.89,-158.927C2810.83,-149.511 2804.35,-139.439 2798.66,-130.607"/>
<polygon fill="midnightblue" stroke="midnightblue" points="2813.95,-160.822 2822.3,-167.336 2819.83,-157.033 2813.95,-160.822"/>
</g>
<!-- Node30 -->
<g id="node30" class="node"><title>Node30</title>
<g id="a_node30"><a xlink:href="SkeletonBoneDrawable_8cpp.html" target="_top" xlink:title="/home/travis/build\l/STORM&#45;IRIT/Radium&#45;Engine\l/Plugins/Animation/src/Drawing\l/SkeletonBoneDrawable.cpp">
<polygon fill="white" stroke="black" points="2887.5,-78.5 2887.5,-130.5 3051.5,-130.5 3051.5,-78.5 2887.5,-78.5"/>
<text text-anchor="start" x="2895.5" y="-118.5" font-family="Helvetica,sans-Serif" font-size="10.00">/home/travis/build</text>
<text text-anchor="start" x="2895.5" y="-107.5" font-family="Helvetica,sans-Serif" font-size="10.00">/STORM&#45;IRIT/Radium&#45;Engine</text>
<text text-anchor="start" x="2895.5" y="-96.5" font-family="Helvetica,sans-Serif" font-size="10.00">/Plugins/Animation/src/Drawing</text>
<text text-anchor="middle" x="2969.5" y="-85.5" font-family="Helvetica,sans-Serif" font-size="10.00">/SkeletonBoneDrawable.cpp</text>
</a>
</g>
</g>
<!-- Node29&#45;&gt;Node30 -->
<g id="edge36" class="edge"><title>Node29&#45;&gt;Node30</title>
<path fill="none" stroke="midnightblue" d="M2884.75,-161.787C2900.12,-151.579 2917.04,-140.341 2931.69,-130.607"/>
<polygon fill="midnightblue" stroke="midnightblue" points="2882.78,-158.888 2876.39,-167.336 2886.66,-164.719 2882.78,-158.888"/>
</g>
<!-- Node31&#45;&gt;Node5 -->
<g id="edge39" class="edge"><title>Node31&#45;&gt;Node5</title>
<path fill="none" stroke="midnightblue" d="M2548.03,-428.22C2515.52,-404.629 2469.3,-371.857 2427.5,-345 2408.04,-332.495 2386.02,-319.436 2367.18,-308.585"/>
<polygon fill="midnightblue" stroke="midnightblue" points="2546.26,-431.26 2556.41,-434.314 2550.38,-425.6 2546.26,-431.26"/>
</g>
</g>
</svg>
