<?xml version="1.0" encoding="UTF-8" standalone="no"?>
<!DOCTYPE svg PUBLIC "-//W3C//DTD SVG 1.1//EN"
 "http://www.w3.org/Graphics/SVG/1.1/DTD/svg11.dtd">
<!-- Generated by graphviz version 2.38.0 (20140413.2041)
 -->
<!-- Title: /home/travis/build/STORM&#45;IRIT/Radium&#45;Engine/src/Core/File/KeyFrame/KeyTransform.hpp Pages: 1 -->
<svg width="3252pt" height="484pt"
 viewBox="0.00 0.00 3252.00 484.00" xmlns="http://www.w3.org/2000/svg" xmlns:xlink="http://www.w3.org/1999/xlink">
<g id="graph0" class="graph" transform="scale(1 1) rotate(0) translate(4 480)">
<title>/home/travis/build/STORM&#45;IRIT/Radium&#45;Engine/src/Core/File/KeyFrame/KeyTransform.hpp</title>
<polygon fill="white" stroke="none" points="-4,4 -4,-480 3248,-480 3248,4 -4,4"/>
<!-- Node1 -->
<g id="node1" class="node"><title>Node1</title>
<polygon fill="#bfbfbf" stroke="black" points="2825,-423.5 2825,-475.5 2973,-475.5 2973,-423.5 2825,-423.5"/>
<text text-anchor="start" x="2833" y="-463.5" font-family="Helvetica,sans-Serif" font-size="10.00">/home/travis/build</text>
<text text-anchor="start" x="2833" y="-452.5" font-family="Helvetica,sans-Serif" font-size="10.00">/STORM&#45;IRIT/Radium&#45;Engine</text>
<text text-anchor="start" x="2833" y="-441.5" font-family="Helvetica,sans-Serif" font-size="10.00">/src/Core/File/KeyFrame</text>
<text text-anchor="middle" x="2899" y="-430.5" font-family="Helvetica,sans-Serif" font-size="10.00">/KeyTransform.hpp</text>
</g>
<!-- Node2 -->
<g id="node2" class="node"><title>Node2</title>
<g id="a_node2"><a xlink:href="AnimationData_8hpp.html" target="_top" xlink:title="/home/travis/build\l/STORM&#45;IRIT/Radium&#45;Engine\l/src/Core/File/AnimationData.hpp">
<polygon fill="white" stroke="black" points="2555.5,-345.5 2555.5,-386.5 2728.5,-386.5 2728.5,-345.5 2555.5,-345.5"/>
<text text-anchor="start" x="2563.5" y="-374.5" font-family="Helvetica,sans-Serif" font-size="10.00">/home/travis/build</text>
<text text-anchor="start" x="2563.5" y="-363.5" font-family="Helvetica,sans-Serif" font-size="10.00">/STORM&#45;IRIT/Radium&#45;Engine</text>
<text text-anchor="middle" x="2642" y="-352.5" font-family="Helvetica,sans-Serif" font-size="10.00">/src/Core/File/AnimationData.hpp</text>
</a>
</g>
</g>
<!-- Node1&#45;&gt;Node2 -->
<g id="edge1" class="edge"><title>Node1&#45;&gt;Node2</title>
<path fill="none" stroke="midnightblue" d="M2815.07,-421.883C2778.74,-410.363 2736.99,-397.124 2703.6,-386.535"/>
<polygon fill="midnightblue" stroke="midnightblue" points="2814.07,-425.24 2824.66,-424.927 2816.19,-418.568 2814.07,-425.24"/>
</g>
<!-- Node24 -->
<g id="node24" class="node"><title>Node24</title>
<g id="a_node24"><a xlink:href="AnimationComponent_8cpp.html" target="_top" xlink:title="/home/travis/build\l/STORM&#45;IRIT/Radium&#45;Engine\l/Plugins/Animation/src/Animation\lComponent.cpp">
<polygon fill="white" stroke="black" points="3070,-78.5 3070,-130.5 3244,-130.5 3244,-78.5 3070,-78.5"/>
<text text-anchor="start" x="3078" y="-118.5" font-family="Helvetica,sans-Serif" font-size="10.00">/home/travis/build</text>
<text text-anchor="start" x="3078" y="-107.5" font-family="Helvetica,sans-Serif" font-size="10.00">/STORM&#45;IRIT/Radium&#45;Engine</text>
<text text-anchor="start" x="3078" y="-96.5" font-family="Helvetica,sans-Serif" font-size="10.00">/Plugins/Animation/src/Animation</text>
<text text-anchor="middle" x="3157" y="-85.5" font-family="Helvetica,sans-Serif" font-size="10.00">Component.cpp</text>
</a>
</g>
</g>
<!-- Node1&#45;&gt;Node24 -->
<g id="edge30" class="edge"><title>Node1&#45;&gt;Node24</title>
<path fill="none" stroke="midnightblue" d="M2982.67,-422.189C3036.4,-400.679 3102.54,-364.598 3138,-309 3173.4,-253.506 3167.47,-171.585 3161.52,-130.674"/>
<polygon fill="midnightblue" stroke="midnightblue" points="2981.18,-419.013 2973.13,-425.907 2983.72,-425.534 2981.18,-419.013"/>
</g>
<!-- Node3 -->
<g id="node3" class="node"><title>Node3</title>
<g id="a_node3"><a xlink:href="AnimationData_8cpp.html" target="_top" xlink:title="/home/travis/build\l/STORM&#45;IRIT/Radium&#45;Engine\l/src/Core/File/AnimationData.cpp">
<polygon fill="white" stroke="black" points="2955.5,-262 2955.5,-303 3128.5,-303 3128.5,-262 2955.5,-262"/>
<text text-anchor="start" x="2963.5" y="-291" font-family="Helvetica,sans-Serif" font-size="10.00">/home/travis/build</text>
<text text-anchor="start" x="2963.5" y="-280" font-family="Helvetica,sans-Serif" font-size="10.00">/STORM&#45;IRIT/Radium&#45;Engine</text>
<text text-anchor="middle" x="3042" y="-269" font-family="Helvetica,sans-Serif" font-size="10.00">/src/Core/File/AnimationData.cpp</text>
</a>
</g>
</g>
<!-- Node2&#45;&gt;Node3 -->
<g id="edge2" class="edge"><title>Node2&#45;&gt;Node3</title>
<path fill="none" stroke="midnightblue" d="M2738.73,-349.151C2798.65,-338.845 2877.07,-324.478 2946,-309 2954.08,-307.186 2962.5,-305.156 2970.85,-303.055"/>
<polygon fill="midnightblue" stroke="midnightblue" points="2737.78,-345.762 2728.52,-350.898 2738.96,-352.661 2737.78,-345.762"/>
</g>
<!-- Node4 -->
<g id="node4" class="node"><title>Node4</title>
<g id="a_node4"><a xlink:href="AnimationData_8inl.html" target="_top" xlink:title="/home/travis/build\l/STORM&#45;IRIT/Radium&#45;Engine\l/src/Core/File/AnimationData.inl">
<polygon fill="white" stroke="black" points="2189,-262 2189,-303 2355,-303 2355,-262 2189,-262"/>
<text text-anchor="start" x="2197" y="-291" font-family="Helvetica,sans-Serif" font-size="10.00">/home/travis/build</text>
<text text-anchor="start" x="2197" y="-280" font-family="Helvetica,sans-Serif" font-size="10.00">/STORM&#45;IRIT/Radium&#45;Engine</text>
<text text-anchor="middle" x="2272" y="-269" font-family="Helvetica,sans-Serif" font-size="10.00">/src/Core/File/AnimationData.inl</text>
</a>
</g>
</g>
<!-- Node2&#45;&gt;Node4 -->
<g id="edge3" class="edge"><title>Node2&#45;&gt;Node4</title>
<path fill="none" stroke="midnightblue" d="M2545.42,-348.793C2489.45,-338.383 2417.9,-324.033 2355,-309 2347.42,-307.189 2339.53,-305.184 2331.74,-303.116"/>
<polygon fill="midnightblue" stroke="midnightblue" points="2544.86,-352.249 2555.33,-350.625 2546.13,-345.365 2544.86,-352.249"/>
</g>
<!-- Node5 -->
<g id="node5" class="node"><title>Node5</title>
<g id="a_node5"><a xlink:href="FileData_8inl.html" target="_top" xlink:title="/home/travis/build\l/STORM&#45;IRIT/Radium&#45;Engine\l/src/Core/File/FileData.inl">
<polygon fill="white" stroke="black" points="2373,-262 2373,-303 2521,-303 2521,-262 2373,-262"/>
<text text-anchor="start" x="2381" y="-291" font-family="Helvetica,sans-Serif" font-size="10.00">/home/travis/build</text>
<text text-anchor="start" x="2381" y="-280" font-family="Helvetica,sans-Serif" font-size="10.00">/STORM&#45;IRIT/Radium&#45;Engine</text>
<text text-anchor="middle" x="2447" y="-269" font-family="Helvetica,sans-Serif" font-size="10.00">/src/Core/File/FileData.inl</text>
</a>
</g>
</g>
<!-- Node2&#45;&gt;Node5 -->
<g id="edge5" class="edge"><title>Node2&#45;&gt;Node5</title>
<path fill="none" stroke="midnightblue" d="M2586.03,-341.608C2556.79,-329.385 2521.41,-314.6 2493.66,-303.003"/>
<polygon fill="midnightblue" stroke="midnightblue" points="2584.72,-344.852 2595.29,-345.479 2587.42,-338.393 2584.72,-344.852"/>
</g>
<!-- Node22 -->
<g id="node22" class="node"><title>Node22</title>
<g id="a_node22"><a xlink:href="AssimpAnimationDataLoader_8cpp.html" target="_top" xlink:title="/home/travis/build\l/STORM&#45;IRIT/Radium&#45;Engine\l/src/IO/AssimpLoader/AssimpAnimation\lDataLoader.cpp">
<polygon fill="white" stroke="black" points="2539.5,-256.5 2539.5,-308.5 2744.5,-308.5 2744.5,-256.5 2539.5,-256.5"/>
<text text-anchor="start" x="2547.5" y="-296.5" font-family="Helvetica,sans-Serif" font-size="10.00">/home/travis/build</text>
<text text-anchor="start" x="2547.5" y="-285.5" font-family="Helvetica,sans-Serif" font-size="10.00">/STORM&#45;IRIT/Radium&#45;Engine</text>
<text text-anchor="start" x="2547.5" y="-274.5" font-family="Helvetica,sans-Serif" font-size="10.00">/src/IO/AssimpLoader/AssimpAnimation</text>
<text text-anchor="middle" x="2642" y="-263.5" font-family="Helvetica,sans-Serif" font-size="10.00">DataLoader.cpp</text>
</a>
</g>
</g>
<!-- Node2&#45;&gt;Node22 -->
<g id="edge22" class="edge"><title>Node2&#45;&gt;Node22</title>
<path fill="none" stroke="midnightblue" d="M2642,-335.121C2642,-326.413 2642,-316.989 2642,-308.607"/>
<polygon fill="midnightblue" stroke="midnightblue" points="2638.5,-335.271 2642,-345.271 2645.5,-335.271 2638.5,-335.271"/>
</g>
<!-- Node23 -->
<g id="node23" class="node"><title>Node23</title>
<g id="a_node23"><a xlink:href="AnimationComponent_8hpp.html" target="_top" xlink:title="/home/travis/build\l/STORM&#45;IRIT/Radium&#45;Engine\l/Plugins/Animation/src/Animation\lComponent.hpp">
<polygon fill="white" stroke="black" points="2763,-256.5 2763,-308.5 2937,-308.5 2937,-256.5 2763,-256.5"/>
<text text-anchor="start" x="2771" y="-296.5" font-family="Helvetica,sans-Serif" font-size="10.00">/home/travis/build</text>
<text text-anchor="start" x="2771" y="-285.5" font-family="Helvetica,sans-Serif" font-size="10.00">/STORM&#45;IRIT/Radium&#45;Engine</text>
<text text-anchor="start" x="2771" y="-274.5" font-family="Helvetica,sans-Serif" font-size="10.00">/Plugins/Animation/src/Animation</text>
<text text-anchor="middle" x="2850" y="-263.5" font-family="Helvetica,sans-Serif" font-size="10.00">Component.hpp</text>
</a>
</g>
</g>
<!-- Node2&#45;&gt;Node23 -->
<g id="edge23" class="edge"><title>Node2&#45;&gt;Node23</title>
<path fill="none" stroke="midnightblue" d="M2701.34,-341.75C2727.8,-331.382 2759.02,-319.149 2786,-308.576"/>
<polygon fill="midnightblue" stroke="midnightblue" points="2699.86,-338.572 2691.82,-345.479 2702.41,-345.089 2699.86,-338.572"/>
</g>
<!-- Node4&#45;&gt;Node2 -->
<g id="edge4" class="edge"><title>Node4&#45;&gt;Node2</title>
<path fill="none" stroke="midnightblue" d="M2359.08,-305.559C2363.79,-306.757 2368.45,-307.913 2373,-309 2433.69,-323.505 2502.44,-337.374 2555.29,-347.682"/>
<polygon fill="midnightblue" stroke="midnightblue" points="2359.94,-302.164 2349.38,-303.05 2358.18,-308.941 2359.94,-302.164"/>
</g>
<!-- Node6 -->
<g id="node6" class="node"><title>Node6</title>
<g id="a_node6"><a xlink:href="FileData_8hpp.html" target="_top" xlink:title="/home/travis/build\l/STORM&#45;IRIT/Radium&#45;Engine\l/src/Core/File/FileData.hpp">
<polygon fill="white" stroke="black" points="1433,-173 1433,-214 1581,-214 1581,-173 1433,-173"/>
<text text-anchor="start" x="1441" y="-202" font-family="Helvetica,sans-Serif" font-size="10.00">/home/travis/build</text>
<text text-anchor="start" x="1441" y="-191" font-family="Helvetica,sans-Serif" font-size="10.00">/STORM&#45;IRIT/Radium&#45;Engine</text>
<text text-anchor="middle" x="1507" y="-180" font-family="Helvetica,sans-Serif" font-size="10.00">/src/Core/File/FileData.hpp</text>
</a>
</g>
</g>
<!-- Node5&#45;&gt;Node6 -->
<g id="edge6" class="edge"><title>Node5&#45;&gt;Node6</title>
<path fill="none" stroke="midnightblue" d="M2379.43,-259.369C2374.24,-258.092 2369.06,-256.946 2364,-256 2078.08,-202.535 1730.5,-194.837 1581.09,-194.205"/>
<polygon fill="midnightblue" stroke="midnightblue" points="2378.81,-262.826 2389.37,-261.968 2380.58,-256.053 2378.81,-262.826"/>
</g>
<!-- Node7 -->
<g id="node7" class="node"><title>Node7</title>
<g id="a_node7"><a xlink:href="FileData_8cpp.html" target="_top" xlink:title="/home/travis/build\l/STORM&#45;IRIT/Radium&#45;Engine\l/src/Core/File/FileData.cpp">
<polygon fill="white" stroke="black" points="2034,-84 2034,-125 2182,-125 2182,-84 2034,-84"/>
<text text-anchor="start" x="2042" y="-113" font-family="Helvetica,sans-Serif" font-size="10.00">/home/travis/build</text>
<text text-anchor="start" x="2042" y="-102" font-family="Helvetica,sans-Serif" font-size="10.00">/STORM&#45;IRIT/Radium&#45;Engine</text>
<text text-anchor="middle" x="2108" y="-91" font-family="Helvetica,sans-Serif" font-size="10.00">/src/Core/File/FileData.cpp</text>
</a>
</g>
</g>
<!-- Node6&#45;&gt;Node7 -->
<g id="edge7" class="edge"><title>Node6&#45;&gt;Node7</title>
<path fill="none" stroke="midnightblue" d="M1591.06,-187.188C1694.17,-179.605 1873.86,-162.918 2025,-131 2032.82,-129.349 2040.95,-127.289 2048.95,-125.06"/>
<polygon fill="midnightblue" stroke="midnightblue" points="1590.74,-183.702 1581.02,-187.915 1591.25,-190.684 1590.74,-183.702"/>
</g>
<!-- Node8 -->
<g id="node8" class="node"><title>Node8</title>
<g id="a_node8"><a xlink:href="GeometryComponent_8cpp.html" target="_top" xlink:title="/home/travis/build\l/STORM&#45;IRIT/Radium&#45;Engine\l/src/Engine/Component/GeometryComponent.cpp">
<polygon fill="white" stroke="black" points="2200,-84 2200,-125 2456,-125 2456,-84 2200,-84"/>
<text text-anchor="start" x="2208" y="-113" font-family="Helvetica,sans-Serif" font-size="10.00">/home/travis/build</text>
<text text-anchor="start" x="2208" y="-102" font-family="Helvetica,sans-Serif" font-size="10.00">/STORM&#45;IRIT/Radium&#45;Engine</text>
<text text-anchor="middle" x="2328" y="-91" font-family="Helvetica,sans-Serif" font-size="10.00">/src/Engine/Component/GeometryComponent.cpp</text>
</a>
</g>
</g>
<!-- Node6&#45;&gt;Node8 -->
<g id="edge8" class="edge"><title>Node6&#45;&gt;Node8</title>
<path fill="none" stroke="midnightblue" d="M1591.38,-187.485C1720.81,-179.213 1975.95,-160.614 2191,-131 2203.46,-129.284 2216.52,-127.213 2229.4,-125.002"/>
<polygon fill="midnightblue" stroke="midnightblue" points="1590.91,-184.008 1581.15,-188.134 1591.35,-190.994 1590.91,-184.008"/>
</g>
<!-- Node9 -->
<g id="node9" class="node"><title>Node9</title>
<g id="a_node9"><a xlink:href="CameraManager_8cpp.html" target="_top" xlink:title="/home/travis/build\l/STORM&#45;IRIT/Radium&#45;Engine\l/src/Engine/Managers/CameraManager\l/CameraManager.cpp">
<polygon fill="white" stroke="black" points="2474.5,-78.5 2474.5,-130.5 2677.5,-130.5 2677.5,-78.5 2474.5,-78.5"/>
<text text-anchor="start" x="2482.5" y="-118.5" font-family="Helvetica,sans-Serif" font-size="10.00">/home/travis/build</text>
<text text-anchor="start" x="2482.5" y="-107.5" font-family="Helvetica,sans-Serif" font-size="10.00">/STORM&#45;IRIT/Radium&#45;Engine</text>
<text text-anchor="start" x="2482.5" y="-96.5" font-family="Helvetica,sans-Serif" font-size="10.00">/src/Engine/Managers/CameraManager</text>
<text text-anchor="middle" x="2576" y="-85.5" font-family="Helvetica,sans-Serif" font-size="10.00">/CameraManager.cpp</text>
</a>
</g>
</g>
<!-- Node6&#45;&gt;Node9 -->
<g id="edge9" class="edge"><title>Node6&#45;&gt;Node9</title>
<path fill="none" stroke="midnightblue" d="M1591.27,-191.657C1758.65,-188.976 2144.56,-177.779 2465,-131 2468.03,-130.557 2471.1,-130.075 2474.2,-129.559"/>
<polygon fill="midnightblue" stroke="midnightblue" points="1590.99,-188.16 1581.04,-191.814 1591.09,-195.16 1590.99,-188.16"/>
</g>
<!-- Node10 -->
<g id="node10" class="node"><title>Node10</title>
<g id="a_node10"><a xlink:href="LightManager_8cpp.html" target="_top" xlink:title="/home/travis/build\l/STORM&#45;IRIT/Radium&#45;Engine\l/src/Engine/Managers/LightManager\l/LightManager.cpp">
<polygon fill="white" stroke="black" points="0,-78.5 0,-130.5 188,-130.5 188,-78.5 0,-78.5"/>
<text text-anchor="start" x="8" y="-118.5" font-family="Helvetica,sans-Serif" font-size="10.00">/home/travis/build</text>
<text text-anchor="start" x="8" y="-107.5" font-family="Helvetica,sans-Serif" font-size="10.00">/STORM&#45;IRIT/Radium&#45;Engine</text>
<text text-anchor="start" x="8" y="-96.5" font-family="Helvetica,sans-Serif" font-size="10.00">/src/Engine/Managers/LightManager</text>
<text text-anchor="middle" x="94" y="-85.5" font-family="Helvetica,sans-Serif" font-size="10.00">/LightManager.cpp</text>
</a>
</g>
</g>
<!-- Node6&#45;&gt;Node10 -->
<g id="edge10" class="edge"><title>Node6&#45;&gt;Node10</title>
<path fill="none" stroke="midnightblue" d="M1422.6,-190.67C1172.14,-184.9 435.769,-165.404 198,-131 194.78,-130.534 191.515,-130.013 188.225,-129.446"/>
<polygon fill="midnightblue" stroke="midnightblue" points="1422.66,-194.172 1432.74,-190.902 1422.82,-187.174 1422.66,-194.172"/>
</g>
<!-- Node11 -->
<g id="node11" class="node"><title>Node11</title>
<g id="a_node11"><a xlink:href="RadiumEngine_8cpp.html" target="_top" xlink:title="/home/travis/build\l/STORM&#45;IRIT/Radium&#45;Engine\l/src/Engine/RadiumEngine.cpp">
<polygon fill="white" stroke="black" points="206.5,-84 206.5,-125 367.5,-125 367.5,-84 206.5,-84"/>
<text text-anchor="start" x="214.5" y="-113" font-family="Helvetica,sans-Serif" font-size="10.00">/home/travis/build</text>
<text text-anchor="start" x="214.5" y="-102" font-family="Helvetica,sans-Serif" font-size="10.00">/STORM&#45;IRIT/Radium&#45;Engine</text>
<text text-anchor="middle" x="287" y="-91" font-family="Helvetica,sans-Serif" font-size="10.00">/src/Engine/RadiumEngine.cpp</text>
</a>
</g>
</g>
<!-- Node6&#45;&gt;Node11 -->
<g id="edge11" class="edge"><title>Node6&#45;&gt;Node11</title>
<path fill="none" stroke="midnightblue" d="M1422.54,-190.33C1195.93,-184.12 578.12,-164.538 377,-131 367.869,-129.477 358.343,-127.369 349.049,-125.01"/>
<polygon fill="midnightblue" stroke="midnightblue" points="1422.62,-193.833 1432.71,-190.607 1422.81,-186.836 1422.62,-193.833"/>
</g>
<!-- Node12 -->
<g id="node12" class="node"><title>Node12</title>
<g id="a_node12"><a xlink:href="Renderer_8cpp.html" target="_top" xlink:title="/home/travis/build\l/STORM&#45;IRIT/Radium&#45;Engine\l/src/Engine/Renderer/Renderer.cpp">
<polygon fill="white" stroke="black" points="386,-84 386,-125 566,-125 566,-84 386,-84"/>
<text text-anchor="start" x="394" y="-113" font-family="Helvetica,sans-Serif" font-size="10.00">/home/travis/build</text>
<text text-anchor="start" x="394" y="-102" font-family="Helvetica,sans-Serif" font-size="10.00">/STORM&#45;IRIT/Radium&#45;Engine</text>
<text text-anchor="middle" x="476" y="-91" font-family="Helvetica,sans-Serif" font-size="10.00">/src/Engine/Renderer/Renderer.cpp</text>
</a>
</g>
</g>
<!-- Node6&#45;&gt;Node12 -->
<g id="edge12" class="edge"><title>Node6&#45;&gt;Node12</title>
<path fill="none" stroke="midnightblue" d="M1422.84,-192.1C1258.85,-190.185 885.464,-180.249 576,-131 566.18,-129.437 555.918,-127.353 545.866,-125.048"/>
<polygon fill="midnightblue" stroke="midnightblue" points="1422.83,-195.6 1432.87,-192.21 1422.9,-188.6 1422.83,-195.6"/>
</g>
<!-- Node13 -->
<g id="node13" class="node"><title>Node13</title>
<g id="a_node13"><a xlink:href="GeometrySystem_8cpp.html" target="_top" xlink:title="/home/travis/build\l/STORM&#45;IRIT/Radium&#45;Engine\l/src/Engine/System/GeometrySystem.cpp">
<polygon fill="white" stroke="black" points="584.5,-84 584.5,-125 801.5,-125 801.5,-84 584.5,-84"/>
<text text-anchor="start" x="592.5" y="-113" font-family="Helvetica,sans-Serif" font-size="10.00">/home/travis/build</text>
<text text-anchor="start" x="592.5" y="-102" font-family="Helvetica,sans-Serif" font-size="10.00">/STORM&#45;IRIT/Radium&#45;Engine</text>
<text text-anchor="middle" x="693" y="-91" font-family="Helvetica,sans-Serif" font-size="10.00">/src/Engine/System/GeometrySystem.cpp</text>
</a>
</g>
</g>
<!-- Node6&#45;&gt;Node13 -->
<g id="edge13" class="edge"><title>Node6&#45;&gt;Node13</title>
<path fill="none" stroke="midnightblue" d="M1423,-188.466C1291.78,-181.403 1030.46,-164.276 811,-131 800.017,-129.335 788.524,-127.266 777.203,-125.032"/>
<polygon fill="midnightblue" stroke="midnightblue" points="1422.81,-191.961 1432.98,-188.997 1423.18,-184.971 1422.81,-191.961"/>
</g>
<!-- Node14 -->
<g id="node14" class="node"><title>Node14</title>
<g id="a_node14"><a xlink:href="Viewer_8cpp.html" target="_top" xlink:title="/home/travis/build\l/STORM&#45;IRIT/Radium&#45;Engine\l/src/GuiBase/Viewer/Viewer.cpp">
<polygon fill="white" stroke="black" points="819.5,-84 819.5,-125 984.5,-125 984.5,-84 819.5,-84"/>
<text text-anchor="start" x="827.5" y="-113" font-family="Helvetica,sans-Serif" font-size="10.00">/home/travis/build</text>
<text text-anchor="start" x="827.5" y="-102" font-family="Helvetica,sans-Serif" font-size="10.00">/STORM&#45;IRIT/Radium&#45;Engine</text>
<text text-anchor="middle" x="902" y="-91" font-family="Helvetica,sans-Serif" font-size="10.00">/src/GuiBase/Viewer/Viewer.cpp</text>
</a>
</g>
</g>
<!-- Node6&#45;&gt;Node14 -->
<g id="edge14" class="edge"><title>Node6&#45;&gt;Node14</title>
<path fill="none" stroke="midnightblue" d="M1422.71,-186.325C1320.56,-177.94 1143.53,-160.51 994,-131 985.463,-129.315 976.558,-127.249 967.796,-125.029"/>
<polygon fill="midnightblue" stroke="midnightblue" points="1422.72,-189.837 1432.97,-187.157 1423.28,-182.86 1422.72,-189.837"/>
</g>
<!-- Node15 -->
<g id="node15" class="node"><title>Node15</title>
<g id="a_node15"><a xlink:href="AssimpFileLoader_8cpp.html" target="_top" xlink:title="/home/travis/build\l/STORM&#45;IRIT/Radium&#45;Engine\l/src/IO/AssimpLoader/AssimpFile\lLoader.cpp">
<polygon fill="white" stroke="black" points="1002.5,-78.5 1002.5,-130.5 1173.5,-130.5 1173.5,-78.5 1002.5,-78.5"/>
<text text-anchor="start" x="1010.5" y="-118.5" font-family="Helvetica,sans-Serif" font-size="10.00">/home/travis/build</text>
<text text-anchor="start" x="1010.5" y="-107.5" font-family="Helvetica,sans-Serif" font-size="10.00">/STORM&#45;IRIT/Radium&#45;Engine</text>
<text text-anchor="start" x="1010.5" y="-96.5" font-family="Helvetica,sans-Serif" font-size="10.00">/src/IO/AssimpLoader/AssimpFile</text>
<text text-anchor="middle" x="1088" y="-85.5" font-family="Helvetica,sans-Serif" font-size="10.00">Loader.cpp</text>
</a>
</g>
</g>
<!-- Node6&#45;&gt;Node15 -->
<g id="edge15" class="edge"><title>Node6&#45;&gt;Node15</title>
<path fill="none" stroke="midnightblue" d="M1422.8,-178.295C1357.19,-166.799 1263.96,-149.522 1183,-131 1179.92,-130.295 1176.79,-129.56 1173.63,-128.8"/>
<polygon fill="midnightblue" stroke="midnightblue" points="1422.23,-181.748 1432.68,-180.019 1423.43,-174.852 1422.23,-181.748"/>
</g>
<!-- Node16 -->
<g id="node16" class="node"><title>Node16</title>
<g id="a_node16"><a xlink:href="CameraLoader_8cpp.html" target="_top" xlink:title="/home/travis/build\l/STORM&#45;IRIT/Radium&#45;Engine\l/src/IO/CameraLoader/CameraLoader.cpp">
<polygon fill="white" stroke="black" points="1191.5,-84 1191.5,-125 1406.5,-125 1406.5,-84 1191.5,-84"/>
<text text-anchor="start" x="1199.5" y="-113" font-family="Helvetica,sans-Serif" font-size="10.00">/home/travis/build</text>
<text text-anchor="start" x="1199.5" y="-102" font-family="Helvetica,sans-Serif" font-size="10.00">/STORM&#45;IRIT/Radium&#45;Engine</text>
<text text-anchor="middle" x="1299" y="-91" font-family="Helvetica,sans-Serif" font-size="10.00">/src/IO/CameraLoader/CameraLoader.cpp</text>
</a>
</g>
</g>
<!-- Node6&#45;&gt;Node16 -->
<g id="edge16" class="edge"><title>Node6&#45;&gt;Node16</title>
<path fill="none" stroke="midnightblue" d="M1450.85,-169.013C1417.99,-155.272 1377,-138.123 1345.88,-125.11"/>
<polygon fill="midnightblue" stroke="midnightblue" points="1449.74,-172.346 1460.32,-172.976 1452.45,-165.888 1449.74,-172.346"/>
</g>
<!-- Node17 -->
<g id="node17" class="node"><title>Node17</title>
<g id="a_node17"><a xlink:href="TinyPlyFileLoader_8cpp.html" target="_top" xlink:title="/home/travis/build\l/STORM&#45;IRIT/Radium&#45;Engine\l/src/IO/TinyPlyLoader/TinyPlyFile\lLoader.cpp">
<polygon fill="white" stroke="black" points="1424.5,-78.5 1424.5,-130.5 1589.5,-130.5 1589.5,-78.5 1424.5,-78.5"/>
<text text-anchor="start" x="1432.5" y="-118.5" font-family="Helvetica,sans-Serif" font-size="10.00">/home/travis/build</text>
<text text-anchor="start" x="1432.5" y="-107.5" font-family="Helvetica,sans-Serif" font-size="10.00">/STORM&#45;IRIT/Radium&#45;Engine</text>
<text text-anchor="start" x="1432.5" y="-96.5" font-family="Helvetica,sans-Serif" font-size="10.00">/src/IO/TinyPlyLoader/TinyPlyFile</text>
<text text-anchor="middle" x="1507" y="-85.5" font-family="Helvetica,sans-Serif" font-size="10.00">Loader.cpp</text>
</a>
</g>
</g>
<!-- Node6&#45;&gt;Node17 -->
<g id="edge17" class="edge"><title>Node6&#45;&gt;Node17</title>
<path fill="none" stroke="midnightblue" d="M1507,-162.509C1507,-152.174 1507,-140.71 1507,-130.788"/>
<polygon fill="midnightblue" stroke="midnightblue" points="1503.5,-162.758 1507,-172.758 1510.5,-162.758 1503.5,-162.758"/>
</g>
<!-- Node18 -->
<g id="node18" class="node"><title>Node18</title>
<g id="a_node18"><a xlink:href="AnimationSystem_8cpp.html" target="_top" xlink:title="/home/travis/build\l/STORM&#45;IRIT/Radium&#45;Engine\l/Plugins/Animation/src/Animation\lSystem.cpp">
<polygon fill="white" stroke="black" points="2696,-78.5 2696,-130.5 2870,-130.5 2870,-78.5 2696,-78.5"/>
<text text-anchor="start" x="2704" y="-118.5" font-family="Helvetica,sans-Serif" font-size="10.00">/home/travis/build</text>
<text text-anchor="start" x="2704" y="-107.5" font-family="Helvetica,sans-Serif" font-size="10.00">/STORM&#45;IRIT/Radium&#45;Engine</text>
<text text-anchor="start" x="2704" y="-96.5" font-family="Helvetica,sans-Serif" font-size="10.00">/Plugins/Animation/src/Animation</text>
<text text-anchor="middle" x="2783" y="-85.5" font-family="Helvetica,sans-Serif" font-size="10.00">System.cpp</text>
</a>
</g>
</g>
<!-- Node6&#45;&gt;Node18 -->
<g id="edge18" class="edge"><title>Node6&#45;&gt;Node18</title>
<path fill="none" stroke="midnightblue" d="M1591.48,-190.376C1824.94,-184.142 2475.58,-164.219 2687,-131 2689.9,-130.545 2692.83,-130.038 2695.79,-129.488"/>
<polygon fill="midnightblue" stroke="midnightblue" points="1591.25,-186.88 1581.35,-190.645 1591.44,-193.878 1591.25,-186.88"/>
</g>
<!-- Node19 -->
<g id="node19" class="node"><title>Node19</title>
<g id="a_node19"><a xlink:href="MeshPaintSystem_8cpp.html" target="_top" xlink:title="/home/travis/build\l/STORM&#45;IRIT/Radium&#45;Engine\l/Plugins/MeshPaint/src/MeshPaint\lSystem.cpp">
<polygon fill="white" stroke="black" points="1608,-78.5 1608,-130.5 1782,-130.5 1782,-78.5 1608,-78.5"/>
<text text-anchor="start" x="1616" y="-118.5" font-family="Helvetica,sans-Serif" font-size="10.00">/home/travis/build</text>
<text text-anchor="start" x="1616" y="-107.5" font-family="Helvetica,sans-Serif" font-size="10.00">/STORM&#45;IRIT/Radium&#45;Engine</text>
<text text-anchor="start" x="1616" y="-96.5" font-family="Helvetica,sans-Serif" font-size="10.00">/Plugins/MeshPaint/src/MeshPaint</text>
<text text-anchor="middle" x="1695" y="-85.5" font-family="Helvetica,sans-Serif" font-size="10.00">System.cpp</text>
</a>
</g>
</g>
<!-- Node6&#45;&gt;Node19 -->
<g id="edge19" class="edge"><title>Node6&#45;&gt;Node19</title>
<path fill="none" stroke="midnightblue" d="M1558.35,-168.736C1583.92,-156.902 1614.84,-142.595 1640.79,-130.585"/>
<polygon fill="midnightblue" stroke="midnightblue" points="1556.8,-165.599 1549.19,-172.976 1559.74,-171.952 1556.8,-165.599"/>
</g>
<!-- Node20 -->
<g id="node20" class="node"><title>Node20</title>
<g id="a_node20"><a xlink:href="SkinningSystem_8hpp.html" target="_top" xlink:title="/home/travis/build\l/STORM&#45;IRIT/Radium&#45;Engine\l/Plugins/Skinning/src/SkinningSystem.hpp">
<polygon fill="white" stroke="black" points="1800.5,-84 1800.5,-125 2015.5,-125 2015.5,-84 1800.5,-84"/>
<text text-anchor="start" x="1808.5" y="-113" font-family="Helvetica,sans-Serif" font-size="10.00">/home/travis/build</text>
<text text-anchor="start" x="1808.5" y="-102" font-family="Helvetica,sans-Serif" font-size="10.00">/STORM&#45;IRIT/Radium&#45;Engine</text>
<text text-anchor="middle" x="1908" y="-91" font-family="Helvetica,sans-Serif" font-size="10.00">/Plugins/Skinning/src/SkinningSystem.hpp</text>
</a>
</g>
</g>
<!-- Node6&#45;&gt;Node20 -->
<g id="edge20" class="edge"><title>Node6&#45;&gt;Node20</title>
<path fill="none" stroke="midnightblue" d="M1591.12,-174.315C1647.64,-162.089 1723.8,-145.599 1791,-131 1799.94,-129.058 1809.26,-127.03 1818.57,-125.004"/>
<polygon fill="midnightblue" stroke="midnightblue" points="1590.19,-170.935 1581.15,-176.47 1591.67,-177.777 1590.19,-170.935"/>
</g>
<!-- Node21 -->
<g id="node21" class="node"><title>Node21</title>
<g id="a_node21"><a xlink:href="SkinningPlugin_8cpp.html" target="_top" xlink:title="/home/travis/build\l/STORM&#45;IRIT/Radium&#45;Engine\l/Plugins/Skinning/src/SkinningPlugin.cpp">
<polygon fill="white" stroke="black" points="1805,-0.5 1805,-41.5 2011,-41.5 2011,-0.5 1805,-0.5"/>
<text text-anchor="start" x="1813" y="-29.5" font-family="Helvetica,sans-Serif" font-size="10.00">/home/travis/build</text>
<text text-anchor="start" x="1813" y="-18.5" font-family="Helvetica,sans-Serif" font-size="10.00">/STORM&#45;IRIT/Radium&#45;Engine</text>
<text text-anchor="middle" x="1908" y="-7.5" font-family="Helvetica,sans-Serif" font-size="10.00">/Plugins/Skinning/src/SkinningPlugin.cpp</text>
</a>
</g>
</g>
<!-- Node20&#45;&gt;Node21 -->
<g id="edge21" class="edge"><title>Node20&#45;&gt;Node21</title>
<path fill="none" stroke="midnightblue" d="M1908,-73.5646C1908,-62.8819 1908,-51.1303 1908,-41.5472"/>
<polygon fill="midnightblue" stroke="midnightblue" points="1904.5,-73.7711 1908,-83.7711 1911.5,-73.7712 1904.5,-73.7711"/>
</g>
<!-- Node23&#45;&gt;Node18 -->
<g id="edge25" class="edge"><title>Node23&#45;&gt;Node18</title>
<path fill="none" stroke="midnightblue" d="M2836.75,-246.69C2823.72,-212.478 2804.17,-161.1 2792.58,-130.67"/>
<polygon fill="midnightblue" stroke="midnightblue" points="2833.57,-248.183 2840.4,-256.283 2840.11,-245.693 2833.57,-248.183"/>
</g>
<!-- Node23&#45;&gt;Node24 -->
<g id="edge24" class="edge"><title>Node23&#45;&gt;Node24</title>
<path fill="none" stroke="midnightblue" d="M2946.76,-254.832C2985.19,-243.316 3024.22,-230.18 3041,-220 3080.2,-196.227 3116.24,-156.69 3137.42,-130.86"/>
<polygon fill="midnightblue" stroke="midnightblue" points="2945.61,-251.523 2937.02,-257.722 2947.6,-258.234 2945.61,-251.523"/>
</g>
<!-- Node25 -->
<g id="node25" class="node"><title>Node25</title>
<g id="a_node25"><a xlink:href="SkeletonBoneDrawable_8hpp.html" target="_top" xlink:title="/home/travis/build\l/STORM&#45;IRIT/Radium&#45;Engine\l/Plugins/Animation/src/Drawing\l/SkeletonBoneDrawable.hpp">
<polygon fill="white" stroke="black" points="2868,-167.5 2868,-219.5 3032,-219.5 3032,-167.5 2868,-167.5"/>
<text text-anchor="start" x="2876" y="-207.5" font-family="Helvetica,sans-Serif" font-size="10.00">/home/travis/build</text>
<text text-anchor="start" x="2876" y="-196.5" font-family="Helvetica,sans-Serif" font-size="10.00">/STORM&#45;IRIT/Radium&#45;Engine</text>
<text text-anchor="start" x="2876" y="-185.5" font-family="Helvetica,sans-Serif" font-size="10.00">/Plugins/Animation/src/Drawing</text>
<text text-anchor="middle" x="2950" y="-174.5" font-family="Helvetica,sans-Serif" font-size="10.00">/SkeletonBoneDrawable.hpp</text>
</a>
</g>
</g>
<!-- Node23&#45;&gt;Node25 -->
<g id="edge26" class="edge"><title>Node23&#45;&gt;Node25</title>
<path fill="none" stroke="midnightblue" d="M2886.61,-249.649C2897.99,-239.749 2910.37,-228.98 2921.14,-219.607"/>
<polygon fill="midnightblue" stroke="midnightblue" points="2884.17,-247.132 2878.92,-256.336 2888.77,-252.413 2884.17,-247.132"/>
</g>
<!-- Node25&#45;&gt;Node18 -->
<g id="edge28" class="edge"><title>Node25&#45;&gt;Node18</title>
<path fill="none" stroke="midnightblue" d="M2892.67,-162.635C2872.65,-152.205 2850.4,-140.611 2831.19,-130.607"/>
<polygon fill="midnightblue" stroke="midnightblue" points="2891.21,-165.82 2901.7,-167.336 2894.45,-159.612 2891.21,-165.82"/>
</g>
<!-- Node25&#45;&gt;Node24 -->
<g id="edge27" class="edge"><title>Node25&#45;&gt;Node24</title>
<path fill="none" stroke="midnightblue" d="M3018.82,-163.576C3044.28,-152.876 3072.9,-140.846 3097.47,-130.521"/>
<polygon fill="midnightblue" stroke="midnightblue" points="3017.46,-160.351 3009.6,-167.453 3020.17,-166.805 3017.46,-160.351"/>
</g>
<!-- Node26 -->
<g id="node26" class="node"><title>Node26</title>
<g id="a_node26"><a xlink:href="SkeletonBoneDrawable_8cpp.html" target="_top" xlink:title="/home/travis/build\l/STORM&#45;IRIT/Radium&#45;Engine\l/Plugins/Animation/src/Drawing\l/SkeletonBoneDrawable.cpp">
<polygon fill="white" stroke="black" points="2888,-78.5 2888,-130.5 3052,-130.5 3052,-78.5 2888,-78.5"/>
<text text-anchor="start" x="2896" y="-118.5" font-family="Helvetica,sans-Serif" font-size="10.00">/home/travis/build</text>
<text text-anchor="start" x="2896" y="-107.5" font-family="Helvetica,sans-Serif" font-size="10.00">/STORM&#45;IRIT/Radium&#45;Engine</text>
<text text-anchor="start" x="2896" y="-96.5" font-family="Helvetica,sans-Serif" font-size="10.00">/Plugins/Animation/src/Drawing</text>
<text text-anchor="middle" x="2970" y="-85.5" font-family="Helvetica,sans-Serif" font-size="10.00">/SkeletonBoneDrawable.cpp</text>
</a>
</g>
</g>
<!-- Node25&#45;&gt;Node26 -->
<g id="edge29" class="edge"><title>Node25&#45;&gt;Node26</title>
<path fill="none" stroke="midnightblue" d="M2958.05,-157.481C2960.12,-148.487 2962.3,-138.989 2964.23,-130.607"/>
<polygon fill="midnightblue" stroke="midnightblue" points="2954.61,-156.806 2955.78,-167.336 2961.44,-158.374 2954.61,-156.806"/>
</g>
</g>
</svg>
