<?xml version="1.0" encoding="UTF-8" standalone="no"?>
<!DOCTYPE svg PUBLIC "-//W3C//DTD SVG 1.1//EN"
 "http://www.w3.org/Graphics/SVG/1.1/DTD/svg11.dtd">
<!-- Generated by graphviz version 2.38.0 (20140413.2041)
 -->
<!-- Title: /home/travis/build/STORM&#45;IRIT/Radium&#45;Engine/src/Core/Geometry/Laplacian/Laplacian.hpp Pages: 1 -->
<svg width="542pt" height="239pt"
 viewBox="0.00 0.00 542.00 239.00" xmlns="http://www.w3.org/2000/svg" xmlns:xlink="http://www.w3.org/1999/xlink">
<g id="graph0" class="graph" transform="scale(1 1) rotate(0) translate(4 235)">
<title>/home/travis/build/STORM&#45;IRIT/Radium&#45;Engine/src/Core/Geometry/Laplacian/Laplacian.hpp</title>
<polygon fill="white" stroke="none" points="-4,4 -4,-235 538,-235 538,4 -4,4"/>
<!-- Node1 -->
<g id="node1" class="node"><title>Node1</title>
<polygon fill="#bfbfbf" stroke="black" points="197,-178.5 197,-230.5 355,-230.5 355,-178.5 197,-178.5"/>
<text text-anchor="start" x="205" y="-218.5" font-family="Helvetica,sans-Serif" font-size="10.00">/home/travis/build</text>
<text text-anchor="start" x="205" y="-207.5" font-family="Helvetica,sans-Serif" font-size="10.00">/STORM&#45;IRIT/Radium&#45;Engine</text>
<text text-anchor="start" x="205" y="-196.5" font-family="Helvetica,sans-Serif" font-size="10.00">/src/Core/Geometry/Laplacian</text>
<text text-anchor="middle" x="276" y="-185.5" font-family="Helvetica,sans-Serif" font-size="10.00">/Laplacian.hpp</text>
</g>
<!-- Node2 -->
<g id="node2" class="node"><title>Node2</title>
<g id="a_node2"><a xlink:href="HeatDiffusion_8hpp.html" target="_top" xlink:title="/home/travis/build\l/STORM&#45;IRIT/Radium&#45;Engine\l/src/Core/Algorithm/HeatDiffusion\l/HeatDiffusion.hpp">
<polygon fill="white" stroke="black" points="-1.42109e-14,-89.5 -1.42109e-14,-141.5 176,-141.5 176,-89.5 -1.42109e-14,-89.5"/>
<text text-anchor="start" x="8" y="-129.5" font-family="Helvetica,sans-Serif" font-size="10.00">/home/travis/build</text>
<text text-anchor="start" x="8" y="-118.5" font-family="Helvetica,sans-Serif" font-size="10.00">/STORM&#45;IRIT/Radium&#45;Engine</text>
<text text-anchor="start" x="8" y="-107.5" font-family="Helvetica,sans-Serif" font-size="10.00">/src/Core/Algorithm/HeatDiffusion</text>
<text text-anchor="middle" x="88" y="-96.5" font-family="Helvetica,sans-Serif" font-size="10.00">/HeatDiffusion.hpp</text>
</a>
</g>
</g>
<!-- Node1&#45;&gt;Node2 -->
<g id="edge1" class="edge"><title>Node1&#45;&gt;Node2</title>
<path fill="none" stroke="midnightblue" d="M212.584,-174.153C189.693,-163.56 164.086,-151.71 142.069,-141.521"/>
<polygon fill="midnightblue" stroke="midnightblue" points="211.33,-177.429 221.875,-178.453 214.269,-171.077 211.33,-177.429"/>
</g>
<!-- Node4 -->
<g id="node4" class="node"><title>Node4</title>
<g id="a_node4"><a xlink:href="LaplacianSmoothing_8hpp.html" target="_top" xlink:title="/home/travis/build\l/STORM&#45;IRIT/Radium&#45;Engine\l/src/Core/Algorithm/Smoothing\l/LaplacianSmoothing.hpp">
<polygon fill="white" stroke="black" points="194,-89.5 194,-141.5 358,-141.5 358,-89.5 194,-89.5"/>
<text text-anchor="start" x="202" y="-129.5" font-family="Helvetica,sans-Serif" font-size="10.00">/home/travis/build</text>
<text text-anchor="start" x="202" y="-118.5" font-family="Helvetica,sans-Serif" font-size="10.00">/STORM&#45;IRIT/Radium&#45;Engine</text>
<text text-anchor="start" x="202" y="-107.5" font-family="Helvetica,sans-Serif" font-size="10.00">/src/Core/Algorithm/Smoothing</text>
<text text-anchor="middle" x="276" y="-96.5" font-family="Helvetica,sans-Serif" font-size="10.00">/LaplacianSmoothing.hpp</text>
</a>
</g>
</g>
<!-- Node1&#45;&gt;Node4 -->
<g id="edge3" class="edge"><title>Node1&#45;&gt;Node4</title>
<path fill="none" stroke="midnightblue" d="M276,-168.191C276,-159.282 276,-149.899 276,-141.607"/>
<polygon fill="midnightblue" stroke="midnightblue" points="272.5,-168.336 276,-178.336 279.5,-168.336 272.5,-168.336"/>
</g>
<!-- Node6 -->
<g id="node6" class="node"><title>Node6</title>
<g id="a_node6"><a xlink:href="Laplacian_8cpp.html" target="_top" xlink:title="/home/travis/build\l/STORM&#45;IRIT/Radium&#45;Engine\l/src/Core/Geometry/Laplacian\l/Laplacian.cpp">
<polygon fill="white" stroke="black" points="376,-89.5 376,-141.5 534,-141.5 534,-89.5 376,-89.5"/>
<text text-anchor="start" x="384" y="-129.5" font-family="Helvetica,sans-Serif" font-size="10.00">/home/travis/build</text>
<text text-anchor="start" x="384" y="-118.5" font-family="Helvetica,sans-Serif" font-size="10.00">/STORM&#45;IRIT/Radium&#45;Engine</text>
<text text-anchor="start" x="384" y="-107.5" font-family="Helvetica,sans-Serif" font-size="10.00">/src/Core/Geometry/Laplacian</text>
<text text-anchor="middle" x="455" y="-96.5" font-family="Helvetica,sans-Serif" font-size="10.00">/Laplacian.cpp</text>
</a>
</g>
</g>
<!-- Node1&#45;&gt;Node6 -->
<g id="edge5" class="edge"><title>Node1&#45;&gt;Node6</title>
<path fill="none" stroke="midnightblue" d="M336.866,-173.917C358.476,-163.414 382.575,-151.701 403.342,-141.607"/>
<polygon fill="midnightblue" stroke="midnightblue" points="335.238,-170.817 327.774,-178.336 338.298,-177.112 335.238,-170.817"/>
</g>
<!-- Node3 -->
<g id="node3" class="node"><title>Node3</title>
<g id="a_node3"><a xlink:href="HeatDiffusion_8cpp.html" target="_top" xlink:title="/home/travis/build\l/STORM&#45;IRIT/Radium&#45;Engine\l/src/Core/Algorithm/HeatDiffusion\l/HeatDiffusion.cpp">
<polygon fill="white" stroke="black" points="-1.42109e-14,-0.5 -1.42109e-14,-52.5 176,-52.5 176,-0.5 -1.42109e-14,-0.5"/>
<text text-anchor="start" x="8" y="-40.5" font-family="Helvetica,sans-Serif" font-size="10.00">/home/travis/build</text>
<text text-anchor="start" x="8" y="-29.5" font-family="Helvetica,sans-Serif" font-size="10.00">/STORM&#45;IRIT/Radium&#45;Engine</text>
<text text-anchor="start" x="8" y="-18.5" font-family="Helvetica,sans-Serif" font-size="10.00">/src/Core/Algorithm/HeatDiffusion</text>
<text text-anchor="middle" x="88" y="-7.5" font-family="Helvetica,sans-Serif" font-size="10.00">/HeatDiffusion.cpp</text>
</a>
</g>
</g>
<!-- Node2&#45;&gt;Node3 -->
<g id="edge2" class="edge"><title>Node2&#45;&gt;Node3</title>
<path fill="none" stroke="midnightblue" d="M88,-79.1908C88,-70.2824 88,-60.8986 88,-52.6075"/>
<polygon fill="midnightblue" stroke="midnightblue" points="84.5001,-79.336 88,-89.336 91.5001,-79.336 84.5001,-79.336"/>
</g>
<!-- Node5 -->
<g id="node5" class="node"><title>Node5</title>
<g id="a_node5"><a xlink:href="LaplacianSmoothing_8cpp.html" target="_top" xlink:title="/home/travis/build\l/STORM&#45;IRIT/Radium&#45;Engine\l/src/Core/Algorithm/Smoothing\l/LaplacianSmoothing.cpp">
<polygon fill="white" stroke="black" points="194,-0.5 194,-52.5 358,-52.5 358,-0.5 194,-0.5"/>
<text text-anchor="start" x="202" y="-40.5" font-family="Helvetica,sans-Serif" font-size="10.00">/home/travis/build</text>
<text text-anchor="start" x="202" y="-29.5" font-family="Helvetica,sans-Serif" font-size="10.00">/STORM&#45;IRIT/Radium&#45;Engine</text>
<text text-anchor="start" x="202" y="-18.5" font-family="Helvetica,sans-Serif" font-size="10.00">/src/Core/Algorithm/Smoothing</text>
<text text-anchor="middle" x="276" y="-7.5" font-family="Helvetica,sans-Serif" font-size="10.00">/LaplacianSmoothing.cpp</text>
</a>
</g>
</g>
<!-- Node4&#45;&gt;Node5 -->
<g id="edge4" class="edge"><title>Node4&#45;&gt;Node5</title>
<path fill="none" stroke="midnightblue" d="M276,-79.1908C276,-70.2824 276,-60.8986 276,-52.6075"/>
<polygon fill="midnightblue" stroke="midnightblue" points="272.5,-79.336 276,-89.336 279.5,-79.336 272.5,-79.336"/>
</g>
</g>
</svg>
