<?xml version="1.0" encoding="UTF-8" standalone="no"?>
<!DOCTYPE svg PUBLIC "-//W3C//DTD SVG 1.1//EN"
 "http://www.w3.org/Graphics/SVG/1.1/DTD/svg11.dtd">
<!-- Generated by graphviz version 2.38.0 (20140413.2041)
 -->
<!-- Title: /home/travis/build/STORM&#45;IRIT/Radium&#45;Engine/src/Core/Geometry/Laplacian/Laplacian.hpp Pages: 1 -->
<svg width="1380pt" height="497pt"
 viewBox="0.00 0.00 1379.80 497.00" xmlns="http://www.w3.org/2000/svg" xmlns:xlink="http://www.w3.org/1999/xlink">
<g id="graph0" class="graph" transform="scale(1 1) rotate(0) translate(4 493)">
<title>/home/travis/build/STORM&#45;IRIT/Radium&#45;Engine/src/Core/Geometry/Laplacian/Laplacian.hpp</title>
<polygon fill="white" stroke="none" points="-4,4 -4,-493 1375.8,-493 1375.8,4 -4,4"/>
<!-- Node1 -->
<g id="node1" class="node"><title>Node1</title>
<polygon fill="#bfbfbf" stroke="black" points="404.8,-436.5 404.8,-488.5 562.8,-488.5 562.8,-436.5 404.8,-436.5"/>
<text text-anchor="start" x="412.8" y="-476.5" font-family="Helvetica,sans-Serif" font-size="10.00">/home/travis/build</text>
<text text-anchor="start" x="412.8" y="-465.5" font-family="Helvetica,sans-Serif" font-size="10.00">/STORM&#45;IRIT/Radium&#45;Engine</text>
<text text-anchor="start" x="412.8" y="-454.5" font-family="Helvetica,sans-Serif" font-size="10.00">/src/Core/Geometry/Laplacian</text>
<text text-anchor="middle" x="483.8" y="-443.5" font-family="Helvetica,sans-Serif" font-size="10.00">/Laplacian.hpp</text>
</g>
<!-- Node2 -->
<g id="node2" class="node"><title>Node2</title>
<g id="a_node2"><a xlink:href="VectorArray_8hpp.html" target="_top" xlink:title="Core/Containers/VectorArray.hpp">
<polygon fill="white" stroke="black" points="100.3,-308 100.3,-327 273.3,-327 273.3,-308 100.3,-308"/>
<text text-anchor="middle" x="186.8" y="-315" font-family="Helvetica,sans-Serif" font-size="10.00">Core/Containers/VectorArray.hpp</text>
</a>
</g>
</g>
<!-- Node1&#45;&gt;Node2 -->
<g id="edge1" class="edge"><title>Node1&#45;&gt;Node2</title>
<path fill="none" stroke="midnightblue" d="M424.491,-436.459C399.425,-425.614 370.021,-412.549 343.8,-400 296.556,-377.39 242.582,-348.735 211.811,-332.124"/>
<polygon fill="midnightblue" stroke="midnightblue" points="213.134,-328.86 202.674,-327.177 209.801,-335.016 213.134,-328.86"/>
</g>
<!-- Node13 -->
<g id="node13" class="node"><title>Node13</title>
<g id="a_node13"><a xlink:href="LinearAlgebra_8hpp.html" target="_top" xlink:title="Core/Math/LinearAlgebra.hpp">
<polygon fill="white" stroke="black" points="551.8,-241 551.8,-260 707.8,-260 707.8,-241 551.8,-241"/>
<text text-anchor="middle" x="629.8" y="-248" font-family="Helvetica,sans-Serif" font-size="10.00">Core/Math/LinearAlgebra.hpp</text>
</a>
</g>
</g>
<!-- Node1&#45;&gt;Node13 -->
<g id="edge28" class="edge"><title>Node1&#45;&gt;Node13</title>
<path fill="none" stroke="midnightblue" d="M492.052,-436.487C503.899,-403.214 528.179,-343.743 562.8,-302 574.928,-287.377 592.09,-274.545 606.008,-265.476"/>
<polygon fill="midnightblue" stroke="midnightblue" points="607.994,-268.362 614.6,-260.078 604.27,-262.434 607.994,-268.362"/>
</g>
<!-- Node24 -->
<g id="node24" class="node"><title>Node24</title>
<g id="a_node24"><a xlink:href="MeshTypes_8hpp.html" target="_top" xlink:title="Core/Mesh/MeshTypes.hpp">
<polygon fill="white" stroke="black" points="572.3,-308 572.3,-327 715.3,-327 715.3,-308 572.3,-308"/>
<text text-anchor="middle" x="643.8" y="-315" font-family="Helvetica,sans-Serif" font-size="10.00">Core/Mesh/MeshTypes.hpp</text>
</a>
</g>
</g>
<!-- Node1&#45;&gt;Node24 -->
<g id="edge29" class="edge"><title>Node1&#45;&gt;Node24</title>
<path fill="none" stroke="midnightblue" d="M515.144,-436.21C528.463,-425.269 544.058,-412.199 557.8,-400 582.654,-377.938 610.39,-351.262 627.471,-334.583"/>
<polygon fill="midnightblue" stroke="midnightblue" points="630.249,-336.761 634.941,-327.262 625.349,-331.762 630.249,-336.761"/>
</g>
<!-- Node28 -->
<g id="node28" class="node"><title>Node28</title>
<g id="a_node28"><a xlink:href="Adjacency_8hpp.html" target="_top" xlink:title="Core/Geometry/Adjacency\l/Adjacency.hpp">
<polygon fill="white" stroke="black" points="352.8,-369.5 352.8,-399.5 494.8,-399.5 494.8,-369.5 352.8,-369.5"/>
<text text-anchor="start" x="360.8" y="-387.5" font-family="Helvetica,sans-Serif" font-size="10.00">Core/Geometry/Adjacency</text>
<text text-anchor="middle" x="423.8" y="-376.5" font-family="Helvetica,sans-Serif" font-size="10.00">/Adjacency.hpp</text>
</a>
</g>
</g>
<!-- Node1&#45;&gt;Node28 -->
<g id="edge35" class="edge"><title>Node1&#45;&gt;Node28</title>
<path fill="none" stroke="midnightblue" d="M463.821,-436.193C456.587,-427.031 448.476,-416.756 441.456,-407.865"/>
<polygon fill="midnightblue" stroke="midnightblue" points="444.069,-405.525 435.125,-399.845 438.574,-409.863 444.069,-405.525"/>
</g>
<!-- Node3 -->
<g id="node3" class="node"><title>Node3</title>
<g id="a_node3"><a xlink:href="AlignedStdVector_8hpp.html" target="_top" xlink:title="Core/Containers/AlignedStd\lVector.hpp">
<polygon fill="white" stroke="black" points="127.3,-235.5 127.3,-265.5 276.3,-265.5 276.3,-235.5 127.3,-235.5"/>
<text text-anchor="start" x="135.3" y="-253.5" font-family="Helvetica,sans-Serif" font-size="10.00">Core/Containers/AlignedStd</text>
<text text-anchor="middle" x="201.8" y="-242.5" font-family="Helvetica,sans-Serif" font-size="10.00">Vector.hpp</text>
</a>
</g>
</g>
<!-- Node2&#45;&gt;Node3 -->
<g id="edge2" class="edge"><title>Node2&#45;&gt;Node3</title>
<path fill="none" stroke="midnightblue" d="M188.823,-307.734C190.733,-299.456 193.686,-286.662 196.292,-275.367"/>
<polygon fill="midnightblue" stroke="midnightblue" points="199.71,-276.12 198.549,-265.589 192.889,-274.546 199.71,-276.12"/>
</g>
<!-- Node4 -->
<g id="node4" class="node"><title>Node4</title>
<g id="a_node4"><a xlink:href="RaCore_8hpp.html" target="_top" xlink:title="Core/RaCore.hpp">
<polygon fill="white" stroke="black" points="868.8,-112.5 868.8,-131.5 966.8,-131.5 966.8,-112.5 868.8,-112.5"/>
<text text-anchor="middle" x="917.8" y="-119.5" font-family="Helvetica,sans-Serif" font-size="10.00">Core/RaCore.hpp</text>
</a>
</g>
</g>
<!-- Node2&#45;&gt;Node4 -->
<g id="edge26" class="edge"><title>Node2&#45;&gt;Node4</title>
<path fill="none" stroke="midnightblue" d="M161.266,-307.873C100.604,-286.143 -43.0472,-226.693 12.7998,-168 41.9799,-137.333 662.038,-126.422 858.588,-123.726"/>
<polygon fill="midnightblue" stroke="midnightblue" points="858.774,-127.224 868.726,-123.589 858.68,-120.224 858.774,-127.224"/>
</g>
<!-- Node12 -->
<g id="node12" class="node"><title>Node12</title>
<polygon fill="white" stroke="#bfbfbf" points="22.2998,-174 22.2998,-193 69.2998,-193 69.2998,-174 22.2998,-174"/>
<text text-anchor="middle" x="45.7998" y="-181" font-family="Helvetica,sans-Serif" font-size="10.00">vector</text>
</g>
<!-- Node2&#45;&gt;Node12 -->
<g id="edge27" class="edge"><title>Node2&#45;&gt;Node12</title>
<path fill="none" stroke="midnightblue" d="M173.44,-307.978C159.045,-298.518 135.786,-282.407 117.8,-266 95.2315,-245.414 72.4302,-218.294 58.7052,-201.123"/>
<polygon fill="midnightblue" stroke="midnightblue" points="61.3466,-198.82 52.4046,-193.138 55.8512,-203.156 61.3466,-198.82"/>
</g>
<!-- Node2&#45;&gt;Node13 -->
<g id="edge12" class="edge"><title>Node2&#45;&gt;Node13</title>
<path fill="none" stroke="midnightblue" d="M245.17,-307.936C326.869,-295.948 475.01,-274.212 561.658,-261.498"/>
<polygon fill="midnightblue" stroke="midnightblue" points="562.267,-264.946 571.653,-260.032 561.251,-258.021 562.267,-264.946"/>
</g>
<!-- Node3&#45;&gt;Node4 -->
<g id="edge3" class="edge"><title>Node3&#45;&gt;Node4</title>
<path fill="none" stroke="midnightblue" d="M201.797,-235.314C202.64,-216.584 207.207,-184.1 227.8,-168 276.905,-129.609 700.484,-123.892 858.603,-123.101"/>
<polygon fill="midnightblue" stroke="midnightblue" points="858.644,-126.601 868.628,-123.056 858.612,-119.601 858.644,-126.601"/>
</g>
<!-- Node11 -->
<g id="node11" class="node"><title>Node11</title>
<polygon fill="white" stroke="#bfbfbf" points="87.2998,-174 87.2998,-193 180.3,-193 180.3,-174 87.2998,-174"/>
<text text-anchor="middle" x="133.8" y="-181" font-family="Helvetica,sans-Serif" font-size="10.00">Eigen/StdVector</text>
</g>
<!-- Node3&#45;&gt;Node11 -->
<g id="edge10" class="edge"><title>Node3&#45;&gt;Node11</title>
<path fill="none" stroke="midnightblue" d="M187.045,-235.396C176.232,-225.06 161.548,-211.024 150.338,-200.309"/>
<polygon fill="midnightblue" stroke="midnightblue" points="152.543,-197.574 142.896,-193.195 147.706,-202.634 152.543,-197.574"/>
</g>
<!-- Node3&#45;&gt;Node12 -->
<g id="edge11" class="edge"><title>Node3&#45;&gt;Node12</title>
<path fill="none" stroke="midnightblue" d="M166.372,-235.495C141.488,-225.555 107.482,-211.763 77.7998,-199 76.434,-198.413 75.0382,-197.806 73.6305,-197.188"/>
<polygon fill="midnightblue" stroke="midnightblue" points="74.9178,-193.93 64.3591,-193.056 72.0682,-200.324 74.9178,-193.93"/>
</g>
<!-- Node5 -->
<g id="node5" class="node"><title>Node5</title>
<g id="a_node5"><a xlink:href="CoreMacros_8hpp.html" target="_top" xlink:title="Core/CoreMacros.hpp">
<polygon fill="white" stroke="black" points="857.8,-56.5 857.8,-75.5 977.8,-75.5 977.8,-56.5 857.8,-56.5"/>
<text text-anchor="middle" x="917.8" y="-63.5" font-family="Helvetica,sans-Serif" font-size="10.00">Core/CoreMacros.hpp</text>
</a>
</g>
</g>
<!-- Node4&#45;&gt;Node5 -->
<g id="edge4" class="edge"><title>Node4&#45;&gt;Node5</title>
<path fill="none" stroke="midnightblue" d="M917.8,-112.083C917.8,-105.006 917.8,-94.8611 917.8,-85.9865"/>
<polygon fill="midnightblue" stroke="midnightblue" points="921.3,-85.751 917.8,-75.7511 914.3,-85.7511 921.3,-85.751"/>
</g>
<!-- Node6 -->
<g id="node6" class="node"><title>Node6</title>
<polygon fill="white" stroke="#bfbfbf" points="754.8,-0.5 754.8,-19.5 806.8,-19.5 806.8,-0.5 754.8,-0.5"/>
<text text-anchor="middle" x="780.8" y="-7.5" font-family="Helvetica,sans-Serif" font-size="10.00">cassert</text>
</g>
<!-- Node5&#45;&gt;Node6 -->
<g id="edge5" class="edge"><title>Node5&#45;&gt;Node6</title>
<path fill="none" stroke="midnightblue" d="M896.092,-56.4435C873.445,-47.5171 837.728,-33.4387 812.048,-23.3168"/>
<polygon fill="midnightblue" stroke="midnightblue" points="812.993,-19.9273 802.406,-19.5164 810.426,-26.4397 812.993,-19.9273"/>
</g>
<!-- Node7 -->
<g id="node7" class="node"><title>Node7</title>
<polygon fill="white" stroke="#bfbfbf" points="825.3,-0.5 825.3,-19.5 870.3,-19.5 870.3,-0.5 825.3,-0.5"/>
<text text-anchor="middle" x="847.8" y="-7.5" font-family="Helvetica,sans-Serif" font-size="10.00">cstdio</text>
</g>
<!-- Node5&#45;&gt;Node7 -->
<g id="edge6" class="edge"><title>Node5&#45;&gt;Node7</title>
<path fill="none" stroke="midnightblue" d="M906.553,-56.324C896.002,-48.1849 879.999,-35.8395 867.358,-26.0874"/>
<polygon fill="midnightblue" stroke="midnightblue" points="869.307,-23.1707 859.251,-19.8339 865.031,-28.7132 869.307,-23.1707"/>
</g>
<!-- Node8 -->
<g id="node8" class="node"><title>Node8</title>
<polygon fill="white" stroke="#bfbfbf" points="888.3,-0.5 888.3,-19.5 947.3,-19.5 947.3,-0.5 888.3,-0.5"/>
<text text-anchor="middle" x="917.8" y="-7.5" font-family="Helvetica,sans-Serif" font-size="10.00">iostream</text>
</g>
<!-- Node5&#45;&gt;Node8 -->
<g id="edge7" class="edge"><title>Node5&#45;&gt;Node8</title>
<path fill="none" stroke="midnightblue" d="M917.8,-56.083C917.8,-49.0059 917.8,-38.8611 917.8,-29.9865"/>
<polygon fill="midnightblue" stroke="midnightblue" points="921.3,-29.751 917.8,-19.7511 914.3,-29.7511 921.3,-29.751"/>
</g>
<!-- Node9 -->
<g id="node9" class="node"><title>Node9</title>
<polygon fill="white" stroke="#bfbfbf" points="965.8,-0.5 965.8,-19.5 1021.8,-19.5 1021.8,-0.5 965.8,-0.5"/>
<text text-anchor="middle" x="993.8" y="-7.5" font-family="Helvetica,sans-Serif" font-size="10.00">sstream</text>
</g>
<!-- Node5&#45;&gt;Node9 -->
<g id="edge8" class="edge"><title>Node5&#45;&gt;Node9</title>
<path fill="none" stroke="midnightblue" d="M930.011,-56.324C941.576,-48.1066 959.175,-35.6017 972.961,-25.8069"/>
<polygon fill="midnightblue" stroke="midnightblue" points="975.242,-28.4791 981.367,-19.8339 971.188,-22.7729 975.242,-28.4791"/>
</g>
<!-- Node10 -->
<g id="node10" class="node"><title>Node10</title>
<polygon fill="white" stroke="#bfbfbf" points="1039.8,-0.5 1039.8,-19.5 1087.8,-19.5 1087.8,-0.5 1039.8,-0.5"/>
<text text-anchor="middle" x="1063.8" y="-7.5" font-family="Helvetica,sans-Serif" font-size="10.00">thread</text>
</g>
<!-- Node5&#45;&gt;Node10 -->
<g id="edge9" class="edge"><title>Node5&#45;&gt;Node10</title>
<path fill="none" stroke="midnightblue" d="M940.934,-56.4435C965.282,-47.4381 1003.81,-33.1891 1031.22,-23.049"/>
<polygon fill="midnightblue" stroke="midnightblue" points="1032.61,-26.2681 1040.77,-19.5164 1030.18,-19.7028 1032.61,-26.2681"/>
</g>
<!-- Node13&#45;&gt;Node4 -->
<g id="edge13" class="edge"><title>Node13&#45;&gt;Node4</title>
<path fill="none" stroke="midnightblue" d="M707.884,-244.244C777.597,-237.932 872.749,-224.791 899.8,-199 915.256,-184.263 918.507,-158.892 918.721,-141.551"/>
<polygon fill="midnightblue" stroke="midnightblue" points="922.219,-141.435 918.52,-131.507 915.221,-141.574 922.219,-141.435"/>
</g>
<!-- Node14 -->
<g id="node14" class="node"><title>Node14</title>
<polygon fill="white" stroke="#bfbfbf" points="945.8,-174 945.8,-193 1013.8,-193 1013.8,-174 945.8,-174"/>
<text text-anchor="middle" x="979.8" y="-181" font-family="Helvetica,sans-Serif" font-size="10.00">Eigen/Core</text>
</g>
<!-- Node13&#45;&gt;Node14 -->
<g id="edge14" class="edge"><title>Node13&#45;&gt;Node14</title>
<path fill="none" stroke="midnightblue" d="M695.374,-240.999C756.871,-232.446 851.177,-217.837 931.8,-199 935.74,-198.079 939.832,-197.015 943.891,-195.889"/>
<polygon fill="midnightblue" stroke="midnightblue" points="945.177,-199.161 953.806,-193.012 943.227,-192.438 945.177,-199.161"/>
</g>
<!-- Node15 -->
<g id="node15" class="node"><title>Node15</title>
<polygon fill="white" stroke="#bfbfbf" points="286.8,-174 286.8,-193 380.8,-193 380.8,-174 286.8,-174"/>
<text text-anchor="middle" x="333.8" y="-181" font-family="Helvetica,sans-Serif" font-size="10.00">Eigen/Geometry</text>
</g>
<!-- Node13&#45;&gt;Node15 -->
<g id="edge15" class="edge"><title>Node13&#45;&gt;Node15</title>
<path fill="none" stroke="midnightblue" d="M586.31,-240.975C538.128,-231.384 458.199,-215.043 389.8,-199 385.156,-197.911 380.307,-196.726 375.489,-195.52"/>
<polygon fill="midnightblue" stroke="midnightblue" points="376.274,-192.108 365.72,-193.036 374.549,-198.892 376.274,-192.108"/>
</g>
<!-- Node16 -->
<g id="node16" class="node"><title>Node16</title>
<polygon fill="white" stroke="#bfbfbf" points="398.8,-174 398.8,-193 478.8,-193 478.8,-174 398.8,-174"/>
<text text-anchor="middle" x="438.8" y="-181" font-family="Helvetica,sans-Serif" font-size="10.00">Eigen/Sparse</text>
</g>
<!-- Node13&#45;&gt;Node16 -->
<g id="edge16" class="edge"><title>Node13&#45;&gt;Node16</title>
<path fill="none" stroke="midnightblue" d="M604.437,-240.869C570.809,-229.424 511.323,-209.181 473.539,-196.322"/>
<polygon fill="midnightblue" stroke="midnightblue" points="474.558,-192.972 463.964,-193.064 472.303,-199.599 474.558,-192.972"/>
</g>
<!-- Node17 -->
<g id="node17" class="node"><title>Node17</title>
<polygon fill="white" stroke="#bfbfbf" points="497.3,-174 497.3,-193 560.3,-193 560.3,-174 497.3,-174"/>
<text text-anchor="middle" x="528.8" y="-181" font-family="Helvetica,sans-Serif" font-size="10.00">functional</text>
</g>
<!-- Node13&#45;&gt;Node17 -->
<g id="edge17" class="edge"><title>Node13&#45;&gt;Node17</title>
<path fill="none" stroke="midnightblue" d="M616.179,-240.734C599.369,-229.916 570.572,-211.383 550.656,-198.566"/>
<polygon fill="midnightblue" stroke="midnightblue" points="552.509,-195.596 542.205,-193.127 548.72,-201.482 552.509,-195.596"/>
</g>
<!-- Node18 -->
<g id="node18" class="node"><title>Node18</title>
<polygon fill="white" stroke="#bfbfbf" points="578.3,-168.5 578.3,-198.5 723.3,-198.5 723.3,-168.5 578.3,-168.5"/>
<text text-anchor="start" x="586.3" y="-186.5" font-family="Helvetica,sans-Serif" font-size="10.00">unsupported/Eigen/Aligned</text>
<text text-anchor="middle" x="650.8" y="-175.5" font-family="Helvetica,sans-Serif" font-size="10.00">Vector3</text>
</g>
<!-- Node13&#45;&gt;Node18 -->
<g id="edge18" class="edge"><title>Node13&#45;&gt;Node18</title>
<path fill="none" stroke="midnightblue" d="M632.632,-240.734C635.306,-232.456 639.44,-219.662 643.089,-208.367"/>
<polygon fill="midnightblue" stroke="midnightblue" points="646.504,-209.181 646.248,-198.589 639.843,-207.029 646.504,-209.181"/>
</g>
<!-- Node19 -->
<g id="node19" class="node"><title>Node19</title>
<g id="a_node19"><a xlink:href="Math_8hpp.html" target="_top" xlink:title="Core/Math/Math.hpp">
<polygon fill="white" stroke="black" points="1069.8,-174 1069.8,-193 1183.8,-193 1183.8,-174 1069.8,-174"/>
<text text-anchor="middle" x="1126.8" y="-181" font-family="Helvetica,sans-Serif" font-size="10.00">Core/Math/Math.hpp</text>
</a>
</g>
</g>
<!-- Node13&#45;&gt;Node19 -->
<g id="edge19" class="edge"><title>Node13&#45;&gt;Node19</title>
<path fill="none" stroke="midnightblue" d="M697.986,-240.963C776.388,-231.096 908.937,-214.253 1022.8,-199 1034.66,-197.412 1047.27,-195.685 1059.47,-193.995"/>
<polygon fill="midnightblue" stroke="midnightblue" points="1060.17,-197.431 1069.6,-192.588 1059.21,-190.497 1060.17,-197.431"/>
</g>
<!-- Node23 -->
<g id="node23" class="node"><title>Node23</title>
<g id="a_node23"><a xlink:href="LinearAlgebra_8inl.html" target="_top" xlink:title="Core/Math/LinearAlgebra.inl">
<polygon fill="white" stroke="black" points="741.3,-174 741.3,-193 890.3,-193 890.3,-174 741.3,-174"/>
<text text-anchor="middle" x="815.8" y="-181" font-family="Helvetica,sans-Serif" font-size="10.00">Core/Math/LinearAlgebra.inl</text>
</a>
</g>
</g>
<!-- Node13&#45;&gt;Node23 -->
<g id="edge25" class="edge"><title>Node13&#45;&gt;Node23</title>
<path fill="none" stroke="midnightblue" d="M654.499,-240.869C687.107,-229.473 744.683,-209.353 781.499,-196.487"/>
<polygon fill="midnightblue" stroke="midnightblue" points="783.009,-199.667 791.295,-193.064 780.7,-193.059 783.009,-199.667"/>
</g>
<!-- Node19&#45;&gt;Node4 -->
<g id="edge20" class="edge"><title>Node19&#45;&gt;Node4</title>
<path fill="none" stroke="midnightblue" d="M1096.86,-173.975C1060.23,-163.548 998.104,-145.862 957.515,-134.307"/>
<polygon fill="midnightblue" stroke="midnightblue" points="958.265,-130.881 947.689,-131.509 956.348,-137.613 958.265,-130.881"/>
</g>
<!-- Node20 -->
<g id="node20" class="node"><title>Node20</title>
<polygon fill="white" stroke="#bfbfbf" points="1197.8,-112.5 1197.8,-131.5 1259.8,-131.5 1259.8,-112.5 1197.8,-112.5"/>
<text text-anchor="middle" x="1228.8" y="-119.5" font-family="Helvetica,sans-Serif" font-size="10.00">algorithm</text>
</g>
<!-- Node19&#45;&gt;Node20 -->
<g id="edge21" class="edge"><title>Node19&#45;&gt;Node20</title>
<path fill="none" stroke="midnightblue" d="M1141.41,-173.975C1158.15,-164.211 1185.8,-148.081 1205.52,-136.581"/>
<polygon fill="midnightblue" stroke="midnightblue" points="1207.34,-139.571 1214.21,-131.509 1203.81,-133.525 1207.34,-139.571"/>
</g>
<!-- Node21 -->
<g id="node21" class="node"><title>Node21</title>
<polygon fill="white" stroke="#bfbfbf" points="1008.3,-112.5 1008.3,-131.5 1055.3,-131.5 1055.3,-112.5 1008.3,-112.5"/>
<text text-anchor="middle" x="1031.8" y="-119.5" font-family="Helvetica,sans-Serif" font-size="10.00">cmath</text>
</g>
<!-- Node19&#45;&gt;Node21 -->
<g id="edge22" class="edge"><title>Node19&#45;&gt;Node21</title>
<path fill="none" stroke="midnightblue" d="M1113.19,-173.975C1097.74,-164.299 1072.31,-148.372 1053.98,-136.894"/>
<polygon fill="midnightblue" stroke="midnightblue" points="1055.72,-133.851 1045.39,-131.509 1052,-139.783 1055.72,-133.851"/>
</g>
<!-- Node22 -->
<g id="node22" class="node"><title>Node22</title>
<g id="a_node22"><a xlink:href="Math_8inl.html" target="_top" xlink:title="Core/Math/Math.inl">
<polygon fill="white" stroke="black" points="1073.3,-112.5 1073.3,-131.5 1180.3,-131.5 1180.3,-112.5 1073.3,-112.5"/>
<text text-anchor="middle" x="1126.8" y="-119.5" font-family="Helvetica,sans-Serif" font-size="10.00">Core/Math/Math.inl</text>
</a>
</g>
</g>
<!-- Node19&#45;&gt;Node22 -->
<g id="edge23" class="edge"><title>Node19&#45;&gt;Node22</title>
<path fill="none" stroke="midnightblue" d="M1121.9,-173.975C1120.07,-165.58 1119.6,-152.481 1120.48,-141.663"/>
<polygon fill="midnightblue" stroke="midnightblue" points="1123.99,-141.897 1121.9,-131.509 1117.05,-140.929 1123.99,-141.897"/>
</g>
<!-- Node22&#45;&gt;Node19 -->
<g id="edge24" class="edge"><title>Node22&#45;&gt;Node19</title>
<path fill="none" stroke="midnightblue" d="M1131.7,-131.509C1133.53,-139.898 1134,-152.996 1133.12,-163.817"/>
<polygon fill="midnightblue" stroke="midnightblue" points="1129.61,-163.588 1131.7,-173.975 1136.55,-164.554 1129.61,-163.588"/>
</g>
<!-- Node24&#45;&gt;Node4 -->
<g id="edge34" class="edge"><title>Node24&#45;&gt;Node4</title>
<path fill="none" stroke="midnightblue" d="M696.401,-307.994C791.003,-291.507 983.669,-252.1 1022.8,-199 1030.97,-187.909 1030.38,-179.502 1022.8,-168 1012.16,-151.865 994.405,-141.493 976.494,-134.835"/>
<polygon fill="midnightblue" stroke="midnightblue" points="977.165,-131.368 966.571,-131.505 974.938,-138.004 977.165,-131.368"/>
</g>
<!-- Node24&#45;&gt;Node13 -->
<g id="edge33" class="edge"><title>Node24&#45;&gt;Node13</title>
<path fill="none" stroke="midnightblue" d="M641.912,-307.734C639.834,-298.085 636.434,-282.3 633.764,-269.906"/>
<polygon fill="midnightblue" stroke="midnightblue" points="637.185,-269.166 631.658,-260.127 630.342,-270.64 637.185,-269.166"/>
</g>
<!-- Node25 -->
<g id="node25" class="node"><title>Node25</title>
<g id="a_node25"><a xlink:href="Index_8hpp.html" target="_top" xlink:title="Core/Index/Index.hpp">
<polygon fill="white" stroke="black" points="1164.3,-241 1164.3,-260 1281.3,-260 1281.3,-241 1164.3,-241"/>
<text text-anchor="middle" x="1222.8" y="-248" font-family="Helvetica,sans-Serif" font-size="10.00">Core/Index/Index.hpp</text>
</a>
</g>
</g>
<!-- Node24&#45;&gt;Node25 -->
<g id="edge30" class="edge"><title>Node24&#45;&gt;Node25</title>
<path fill="none" stroke="midnightblue" d="M715.377,-308.465C827.604,-295.866 1043.54,-271.625 1154.01,-259.222"/>
<polygon fill="midnightblue" stroke="midnightblue" points="1154.5,-262.69 1164.05,-258.096 1153.72,-255.733 1154.5,-262.69"/>
</g>
<!-- Node26 -->
<g id="node26" class="node"><title>Node26</title>
<polygon fill="white" stroke="#bfbfbf" points="1201.8,-174 1201.8,-193 1243.8,-193 1243.8,-174 1201.8,-174"/>
<text text-anchor="middle" x="1222.8" y="-181" font-family="Helvetica,sans-Serif" font-size="10.00">limits</text>
</g>
<!-- Node25&#45;&gt;Node26 -->
<g id="edge31" class="edge"><title>Node25&#45;&gt;Node26</title>
<path fill="none" stroke="midnightblue" d="M1222.8,-240.734C1222.8,-231.183 1222.8,-215.618 1222.8,-203.283"/>
<polygon fill="midnightblue" stroke="midnightblue" points="1226.3,-203.127 1222.8,-193.127 1219.3,-203.127 1226.3,-203.127"/>
</g>
<!-- Node27 -->
<g id="node27" class="node"><title>Node27</title>
<g id="a_node27"><a xlink:href="Index_8inl.html" target="_top" xlink:title="Core/Index/Index.inl">
<polygon fill="white" stroke="black" points="1261.8,-174 1261.8,-193 1371.8,-193 1371.8,-174 1261.8,-174"/>
<text text-anchor="middle" x="1316.8" y="-181" font-family="Helvetica,sans-Serif" font-size="10.00">Core/Index/Index.inl</text>
</a>
</g>
</g>
<!-- Node25&#45;&gt;Node27 -->
<g id="edge32" class="edge"><title>Node25&#45;&gt;Node27</title>
<path fill="none" stroke="midnightblue" d="M1235.48,-240.734C1250.98,-230.013 1277.44,-211.716 1295.96,-198.914"/>
<polygon fill="midnightblue" stroke="midnightblue" points="1298.09,-201.694 1304.32,-193.127 1294.11,-195.936 1298.09,-201.694"/>
</g>
<!-- Node28&#45;&gt;Node2 -->
<g id="edge37" class="edge"><title>Node28&#45;&gt;Node2</title>
<path fill="none" stroke="midnightblue" d="M372.666,-369.476C329.262,-357.572 267.801,-340.716 227.628,-329.698"/>
<polygon fill="midnightblue" stroke="midnightblue" points="228.466,-326.298 217.897,-327.029 226.615,-333.049 228.466,-326.298"/>
</g>
<!-- Node28&#45;&gt;Node3 -->
<g id="edge36" class="edge"><title>Node28&#45;&gt;Node3</title>
<path fill="none" stroke="midnightblue" d="M390.353,-369.32C369.711,-360.034 343.021,-347.047 320.8,-333 302.084,-321.169 299.855,-314.817 281.8,-302 266.605,-291.213 249.166,-280.069 234.456,-271.002"/>
<polygon fill="midnightblue" stroke="midnightblue" points="236.052,-267.876 225.694,-265.648 232.401,-273.849 236.052,-267.876"/>
</g>
<!-- Node28&#45;&gt;Node13 -->
<g id="edge38" class="edge"><title>Node28&#45;&gt;Node13</title>
<path fill="none" stroke="midnightblue" d="M441.184,-369.494C466.392,-349.296 512.018,-313.187 529.8,-302 552.823,-287.516 580.535,-273.786 600.942,-264.309"/>
<polygon fill="midnightblue" stroke="midnightblue" points="602.407,-267.487 610.04,-260.14 599.491,-261.123 602.407,-267.487"/>
</g>
<!-- Node28&#45;&gt;Node24 -->
<g id="edge39" class="edge"><title>Node28&#45;&gt;Node24</title>
<path fill="none" stroke="midnightblue" d="M471.266,-369.476C511.215,-357.673 567.643,-341.001 604.948,-329.979"/>
<polygon fill="midnightblue" stroke="midnightblue" points="606.335,-333.219 614.934,-327.029 604.352,-326.506 606.335,-333.219"/>
</g>
<!-- Node29 -->
<g id="node29" class="node"><title>Node29</title>
<g id="a_node29"><a xlink:href="AdjacencyList_8hpp.html" target="_top" xlink:title="Core/Utils/Graph/Adjacency\lList.hpp">
<polygon fill="white" stroke="black" points="330.3,-302.5 330.3,-332.5 477.3,-332.5 477.3,-302.5 330.3,-302.5"/>
<text text-anchor="start" x="338.3" y="-320.5" font-family="Helvetica,sans-Serif" font-size="10.00">Core/Utils/Graph/Adjacency</text>
<text text-anchor="middle" x="403.8" y="-309.5" font-family="Helvetica,sans-Serif" font-size="10.00">List.hpp</text>
</a>
</g>
</g>
<!-- Node28&#45;&gt;Node29 -->
<g id="edge40" class="edge"><title>Node28&#45;&gt;Node29</title>
<path fill="none" stroke="midnightblue" d="M419.46,-369.396C417.023,-361.474 413.916,-351.379 411.114,-342.271"/>
<polygon fill="midnightblue" stroke="midnightblue" points="414.417,-341.105 408.131,-332.577 407.727,-343.164 414.417,-341.105"/>
</g>
<!-- Node29&#45;&gt;Node3 -->
<g id="edge41" class="edge"><title>Node29&#45;&gt;Node3</title>
<path fill="none" stroke="midnightblue" d="M359.969,-302.396C329.263,-292.515 288.046,-279.252 255.385,-268.743"/>
<polygon fill="midnightblue" stroke="midnightblue" points="256.137,-265.308 245.545,-265.577 253.992,-271.971 256.137,-265.308"/>
</g>
<!-- Node30 -->
<g id="node30" class="node"><title>Node30</title>
<g id="a_node30"><a xlink:href="AdjacencyList_8inl.html" target="_top" xlink:title="Core/Utils/Graph/Adjacency\lList.inl">
<polygon fill="white" stroke="black" points="330.3,-235.5 330.3,-265.5 477.3,-265.5 477.3,-235.5 330.3,-235.5"/>
<text text-anchor="start" x="338.3" y="-253.5" font-family="Helvetica,sans-Serif" font-size="10.00">Core/Utils/Graph/Adjacency</text>
<text text-anchor="middle" x="403.8" y="-242.5" font-family="Helvetica,sans-Serif" font-size="10.00">List.inl</text>
</a>
</g>
</g>
<!-- Node29&#45;&gt;Node30 -->
<g id="edge42" class="edge"><title>Node29&#45;&gt;Node30</title>
<path fill="none" stroke="midnightblue" d="M398.121,-302.396C397.094,-294.56 396.805,-284.596 397.256,-275.565"/>
<polygon fill="midnightblue" stroke="midnightblue" points="400.745,-275.842 398.125,-265.577 393.771,-275.236 400.745,-275.842"/>
</g>
<!-- Node30&#45;&gt;Node29 -->
<g id="edge43" class="edge"><title>Node30&#45;&gt;Node29</title>
<path fill="none" stroke="midnightblue" d="M409.475,-265.577C410.504,-273.408 410.794,-283.37 410.345,-292.403"/>
<polygon fill="midnightblue" stroke="midnightblue" points="406.856,-292.131 409.478,-302.396 413.83,-292.736 406.856,-292.131"/>
</g>
<!-- Node31 -->
<g id="node31" class="node"><title>Node31</title>
<polygon fill="white" stroke="#bfbfbf" points="236.8,-174 236.8,-193 268.8,-193 268.8,-174 236.8,-174"/>
<text text-anchor="middle" x="252.8" y="-181" font-family="Helvetica,sans-Serif" font-size="10.00">set</text>
</g>
<!-- Node30&#45;&gt;Node31 -->
<g id="edge44" class="edge"><title>Node30&#45;&gt;Node31</title>
<path fill="none" stroke="midnightblue" d="M364.568,-235.448C339.38,-226.02 306.189,-212.832 277.8,-199 277.123,-198.67 276.44,-198.33 275.754,-197.98"/>
<polygon fill="midnightblue" stroke="midnightblue" points="277.34,-194.859 266.885,-193.144 273.989,-201.004 277.34,-194.859"/>
</g>
</g>
</svg>
