<?xml version="1.0" encoding="UTF-8" standalone="no"?>
<!DOCTYPE svg PUBLIC "-//W3C//DTD SVG 1.1//EN"
 "http://www.w3.org/Graphics/SVG/1.1/DTD/svg11.dtd">
<!-- Generated by graphviz version 2.38.0 (20140413.2041)
 -->
<!-- Title: /home/travis/build/STORM&#45;IRIT/Radium&#45;Engine/src/Core/File/LightData.hpp Pages: 1 -->
<svg width="1612pt" height="397pt"
 viewBox="0.00 0.00 1612.00 397.00" xmlns="http://www.w3.org/2000/svg" xmlns:xlink="http://www.w3.org/1999/xlink">
<g id="graph0" class="graph" transform="scale(1 1) rotate(0) translate(4 393)">
<title>/home/travis/build/STORM&#45;IRIT/Radium&#45;Engine/src/Core/File/LightData.hpp</title>
<polygon fill="white" stroke="none" points="-4,4 -4,-393 1608,-393 1608,4 -4,4"/>
<!-- Node1 -->
<g id="node1" class="node"><title>Node1</title>
<polygon fill="#bfbfbf" stroke="black" points="207.5,-347.5 207.5,-388.5 355.5,-388.5 355.5,-347.5 207.5,-347.5"/>
<text text-anchor="start" x="215.5" y="-376.5" font-family="Helvetica,sans-Serif" font-size="10.00">/home/travis/build</text>
<text text-anchor="start" x="215.5" y="-365.5" font-family="Helvetica,sans-Serif" font-size="10.00">/STORM&#45;IRIT/Radium&#45;Engine</text>
<text text-anchor="middle" x="281.5" y="-354.5" font-family="Helvetica,sans-Serif" font-size="10.00">/src/Core/File/LightData.hpp</text>
</g>
<!-- Node2 -->
<g id="node2" class="node"><title>Node2</title>
<polygon fill="white" stroke="#bfbfbf" points="0,-291.5 0,-310.5 57,-310.5 57,-291.5 0,-291.5"/>
<text text-anchor="middle" x="28.5" y="-298.5" font-family="Helvetica,sans-Serif" font-size="10.00">memory</text>
</g>
<!-- Node1&#45;&gt;Node2 -->
<g id="edge1" class="edge"><title>Node1&#45;&gt;Node2</title>
<path fill="none" stroke="midnightblue" d="M207.301,-347.937C161.321,-336.124 104.151,-321.436 67.0188,-311.896"/>
<polygon fill="midnightblue" stroke="midnightblue" points="67.6592,-308.447 57.1028,-309.349 65.9173,-315.227 67.6592,-308.447"/>
</g>
<!-- Node3 -->
<g id="node3" class="node"><title>Node3</title>
<polygon fill="white" stroke="#bfbfbf" points="369.5,-112.5 369.5,-131.5 413.5,-131.5 413.5,-112.5 369.5,-112.5"/>
<text text-anchor="middle" x="391.5" y="-119.5" font-family="Helvetica,sans-Serif" font-size="10.00">string</text>
</g>
<!-- Node1&#45;&gt;Node3 -->
<g id="edge2" class="edge"><title>Node1&#45;&gt;Node3</title>
<path fill="none" stroke="midnightblue" d="M246.365,-347.477C233.297,-338.248 219.866,-325.946 212.5,-311 184.398,-253.979 170.314,-218.055 209.5,-168 227.78,-144.649 312.247,-131.741 359.416,-126.24"/>
<polygon fill="midnightblue" stroke="midnightblue" points="359.886,-129.71 369.434,-125.118 359.106,-122.753 359.886,-129.71"/>
</g>
<!-- Node4 -->
<g id="node4" class="node"><title>Node4</title>
<polygon fill="white" stroke="#bfbfbf" points="228,-112.5 228,-131.5 275,-131.5 275,-112.5 228,-112.5"/>
<text text-anchor="middle" x="251.5" y="-119.5" font-family="Helvetica,sans-Serif" font-size="10.00">vector</text>
</g>
<!-- Node1&#45;&gt;Node4 -->
<g id="edge3" class="edge"><title>Node1&#45;&gt;Node4</title>
<path fill="none" stroke="midnightblue" d="M207.078,-362.358C171.472,-355.941 131.826,-341.748 109.5,-311 72.1584,-259.571 71.9563,-219.281 109.5,-168 134.106,-134.39 183.961,-125.26 217.553,-123.11"/>
<polygon fill="midnightblue" stroke="midnightblue" points="218.007,-126.592 227.835,-122.635 217.684,-119.6 218.007,-126.592"/>
</g>
<!-- Node5 -->
<g id="node5" class="node"><title>Node5</title>
<g id="a_node5"><a xlink:href="RaCore_8hpp.html" target="_top" xlink:title="Core/RaCore.hpp">
<polygon fill="white" stroke="black" points="574.5,-112.5 574.5,-131.5 672.5,-131.5 672.5,-112.5 574.5,-112.5"/>
<text text-anchor="middle" x="623.5" y="-119.5" font-family="Helvetica,sans-Serif" font-size="10.00">Core/RaCore.hpp</text>
</a>
</g>
</g>
<!-- Node1&#45;&gt;Node5 -->
<g id="edge4" class="edge"><title>Node1&#45;&gt;Node5</title>
<path fill="none" stroke="midnightblue" d="M355.695,-361.388C453.357,-349.56 621.628,-312.846 698.5,-199 706.21,-187.582 705.288,-179.989 698.5,-168 690.153,-153.258 674.838,-142.819 660.213,-135.732"/>
<polygon fill="midnightblue" stroke="midnightblue" points="661.342,-132.404 650.782,-131.547 658.503,-138.803 661.342,-132.404"/>
</g>
<!-- Node12 -->
<g id="node12" class="node"><title>Node12</title>
<g id="a_node12"><a xlink:href="AssetData_8hpp.html" target="_top" xlink:title="Core/File/AssetData.hpp">
<polygon fill="white" stroke="black" points="558,-174 558,-193 689,-193 689,-174 558,-174"/>
<text text-anchor="middle" x="623.5" y="-181" font-family="Helvetica,sans-Serif" font-size="10.00">Core/File/AssetData.hpp</text>
</a>
</g>
</g>
<!-- Node1&#45;&gt;Node12 -->
<g id="edge11" class="edge"><title>Node1&#45;&gt;Node12</title>
<path fill="none" stroke="midnightblue" d="M318.1,-347.469C387.963,-310.189 538.679,-229.762 598.395,-197.897"/>
<polygon fill="midnightblue" stroke="midnightblue" points="600.317,-200.838 607.492,-193.042 597.022,-194.662 600.317,-200.838"/>
</g>
<!-- Node13 -->
<g id="node13" class="node"><title>Node13</title>
<g id="a_node13"><a xlink:href="LinearAlgebra_8hpp.html" target="_top" xlink:title="Core/Math/LinearAlgebra.hpp">
<polygon fill="white" stroke="black" points="1037.5,-235.5 1037.5,-254.5 1193.5,-254.5 1193.5,-235.5 1037.5,-235.5"/>
<text text-anchor="middle" x="1115.5" y="-242.5" font-family="Helvetica,sans-Serif" font-size="10.00">Core/Math/LinearAlgebra.hpp</text>
</a>
</g>
</g>
<!-- Node1&#45;&gt;Node13 -->
<g id="edge14" class="edge"><title>Node1&#45;&gt;Node13</title>
<path fill="none" stroke="midnightblue" d="M355.689,-358.778C445.003,-348.646 599.471,-330.38 731.5,-311 848.264,-293.861 984.311,-269.877 1059.07,-256.35"/>
<polygon fill="midnightblue" stroke="midnightblue" points="1059.99,-259.74 1069.2,-254.512 1058.74,-252.852 1059.99,-259.74"/>
</g>
<!-- Node24 -->
<g id="node24" class="node"><title>Node24</title>
<g id="a_node24"><a xlink:href="LightData_8inl.html" target="_top" xlink:title="Core/File/LightData.inl">
<polygon fill="white" stroke="black" points="221.5,-291.5 221.5,-310.5 341.5,-310.5 341.5,-291.5 221.5,-291.5"/>
<text text-anchor="middle" x="281.5" y="-298.5" font-family="Helvetica,sans-Serif" font-size="10.00">Core/File/LightData.inl</text>
</a>
</g>
</g>
<!-- Node1&#45;&gt;Node24 -->
<g id="edge28" class="edge"><title>Node1&#45;&gt;Node24</title>
<path fill="none" stroke="midnightblue" d="M275.255,-347.498C274.557,-338.969 274.583,-329.011 275.333,-320.59"/>
<polygon fill="midnightblue" stroke="midnightblue" points="278.803,-321.044 276.736,-310.652 271.872,-320.065 278.803,-321.044"/>
</g>
<!-- Node6 -->
<g id="node6" class="node"><title>Node6</title>
<g id="a_node6"><a xlink:href="CoreMacros_8hpp.html" target="_top" xlink:title="Core/CoreMacros.hpp">
<polygon fill="white" stroke="black" points="491.5,-56.5 491.5,-75.5 611.5,-75.5 611.5,-56.5 491.5,-56.5"/>
<text text-anchor="middle" x="551.5" y="-63.5" font-family="Helvetica,sans-Serif" font-size="10.00">Core/CoreMacros.hpp</text>
</a>
</g>
</g>
<!-- Node5&#45;&gt;Node6 -->
<g id="edge5" class="edge"><title>Node5&#45;&gt;Node6</title>
<path fill="none" stroke="midnightblue" d="M611.932,-112.324C601.08,-104.185 584.619,-91.8395 571.617,-82.0874"/>
<polygon fill="midnightblue" stroke="midnightblue" points="573.379,-79.0339 563.279,-75.8339 569.179,-84.6339 573.379,-79.0339"/>
</g>
<!-- Node7 -->
<g id="node7" class="node"><title>Node7</title>
<polygon fill="white" stroke="#bfbfbf" points="423.5,-0.5 423.5,-19.5 475.5,-19.5 475.5,-0.5 423.5,-0.5"/>
<text text-anchor="middle" x="449.5" y="-7.5" font-family="Helvetica,sans-Serif" font-size="10.00">cassert</text>
</g>
<!-- Node6&#45;&gt;Node7 -->
<g id="edge6" class="edge"><title>Node6&#45;&gt;Node7</title>
<path fill="none" stroke="midnightblue" d="M535.112,-56.324C518.829,-47.7034 493.633,-34.3643 474.784,-24.3855"/>
<polygon fill="midnightblue" stroke="midnightblue" points="476.323,-21.2402 465.847,-19.6545 473.048,-27.4267 476.323,-21.2402"/>
</g>
<!-- Node8 -->
<g id="node8" class="node"><title>Node8</title>
<polygon fill="white" stroke="#bfbfbf" points="494,-0.5 494,-19.5 539,-19.5 539,-0.5 494,-0.5"/>
<text text-anchor="middle" x="516.5" y="-7.5" font-family="Helvetica,sans-Serif" font-size="10.00">cstdio</text>
</g>
<!-- Node6&#45;&gt;Node8 -->
<g id="edge7" class="edge"><title>Node6&#45;&gt;Node8</title>
<path fill="none" stroke="midnightblue" d="M545.72,-56.083C540.828,-48.5341 533.673,-37.4948 527.667,-28.2298"/>
<polygon fill="midnightblue" stroke="midnightblue" points="530.548,-26.239 522.172,-19.7511 524.674,-30.0463 530.548,-26.239"/>
</g>
<!-- Node9 -->
<g id="node9" class="node"><title>Node9</title>
<polygon fill="white" stroke="#bfbfbf" points="557,-0.5 557,-19.5 616,-19.5 616,-0.5 557,-0.5"/>
<text text-anchor="middle" x="586.5" y="-7.5" font-family="Helvetica,sans-Serif" font-size="10.00">iostream</text>
</g>
<!-- Node6&#45;&gt;Node9 -->
<g id="edge8" class="edge"><title>Node6&#45;&gt;Node9</title>
<path fill="none" stroke="midnightblue" d="M557.28,-56.083C562.172,-48.5341 569.327,-37.4948 575.333,-28.2298"/>
<polygon fill="midnightblue" stroke="midnightblue" points="578.326,-30.0463 580.828,-19.7511 572.452,-26.239 578.326,-30.0463"/>
</g>
<!-- Node10 -->
<g id="node10" class="node"><title>Node10</title>
<polygon fill="white" stroke="#bfbfbf" points="277.5,-0.5 277.5,-19.5 333.5,-19.5 333.5,-0.5 277.5,-0.5"/>
<text text-anchor="middle" x="305.5" y="-7.5" font-family="Helvetica,sans-Serif" font-size="10.00">sstream</text>
</g>
<!-- Node6&#45;&gt;Node10 -->
<g id="edge9" class="edge"><title>Node6&#45;&gt;Node10</title>
<path fill="none" stroke="midnightblue" d="M512.521,-56.4435C466.17,-46.269 389.327,-29.401 343.438,-19.3279"/>
<polygon fill="midnightblue" stroke="midnightblue" points="344.102,-15.8904 333.585,-17.1649 342.601,-22.7276 344.102,-15.8904"/>
</g>
<!-- Node11 -->
<g id="node11" class="node"><title>Node11</title>
<polygon fill="white" stroke="#bfbfbf" points="634.5,-0.5 634.5,-19.5 682.5,-19.5 682.5,-0.5 634.5,-0.5"/>
<text text-anchor="middle" x="658.5" y="-7.5" font-family="Helvetica,sans-Serif" font-size="10.00">thread</text>
</g>
<!-- Node6&#45;&gt;Node11 -->
<g id="edge10" class="edge"><title>Node6&#45;&gt;Node11</title>
<path fill="none" stroke="midnightblue" d="M568.691,-56.324C585.851,-47.6641 612.446,-34.2424 632.247,-24.249"/>
<polygon fill="midnightblue" stroke="midnightblue" points="634.001,-27.2847 641.351,-19.6545 630.847,-21.0354 634.001,-27.2847"/>
</g>
<!-- Node12&#45;&gt;Node3 -->
<g id="edge13" class="edge"><title>Node12&#45;&gt;Node3</title>
<path fill="none" stroke="midnightblue" d="M590.26,-173.975C545.718,-162.552 467.208,-142.416 423.374,-131.174"/>
<polygon fill="midnightblue" stroke="midnightblue" points="424.091,-127.745 413.535,-128.651 422.352,-134.526 424.091,-127.745"/>
</g>
<!-- Node12&#45;&gt;Node5 -->
<g id="edge12" class="edge"><title>Node12&#45;&gt;Node5</title>
<path fill="none" stroke="midnightblue" d="M623.5,-173.975C623.5,-165.58 623.5,-152.481 623.5,-141.663"/>
<polygon fill="midnightblue" stroke="midnightblue" points="627,-141.509 623.5,-131.509 620,-141.509 627,-141.509"/>
</g>
<!-- Node13&#45;&gt;Node5 -->
<g id="edge15" class="edge"><title>Node13&#45;&gt;Node5</title>
<path fill="none" stroke="midnightblue" d="M1056.01,-235.493C1020.99,-228.86 976.636,-217.563 940.5,-199 921.417,-189.197 923.015,-176.912 903.5,-168 832.204,-135.443 741.305,-125.975 682.752,-123.471"/>
<polygon fill="midnightblue" stroke="midnightblue" points="682.69,-119.966 672.567,-123.092 682.429,-126.962 682.69,-119.966"/>
</g>
<!-- Node14 -->
<g id="node14" class="node"><title>Node14</title>
<polygon fill="white" stroke="#bfbfbf" points="1081.5,-174 1081.5,-193 1149.5,-193 1149.5,-174 1081.5,-174"/>
<text text-anchor="middle" x="1115.5" y="-181" font-family="Helvetica,sans-Serif" font-size="10.00">Eigen/Core</text>
</g>
<!-- Node13&#45;&gt;Node14 -->
<g id="edge16" class="edge"><title>Node13&#45;&gt;Node14</title>
<path fill="none" stroke="midnightblue" d="M1115.5,-235.475C1115.5,-227.08 1115.5,-213.981 1115.5,-203.163"/>
<polygon fill="midnightblue" stroke="midnightblue" points="1119,-203.009 1115.5,-193.009 1112,-203.009 1119,-203.009"/>
</g>
<!-- Node15 -->
<g id="node15" class="node"><title>Node15</title>
<polygon fill="white" stroke="#bfbfbf" points="1167.5,-174 1167.5,-193 1261.5,-193 1261.5,-174 1167.5,-174"/>
<text text-anchor="middle" x="1214.5" y="-181" font-family="Helvetica,sans-Serif" font-size="10.00">Eigen/Geometry</text>
</g>
<!-- Node13&#45;&gt;Node15 -->
<g id="edge17" class="edge"><title>Node13&#45;&gt;Node15</title>
<path fill="none" stroke="midnightblue" d="M1129.68,-235.475C1145.86,-225.755 1172.53,-209.727 1191.64,-198.237"/>
<polygon fill="midnightblue" stroke="midnightblue" points="1193.57,-201.16 1200.34,-193.009 1189.97,-195.161 1193.57,-201.16"/>
</g>
<!-- Node16 -->
<g id="node16" class="node"><title>Node16</title>
<polygon fill="white" stroke="#bfbfbf" points="1279.5,-174 1279.5,-193 1359.5,-193 1359.5,-174 1279.5,-174"/>
<text text-anchor="middle" x="1319.5" y="-181" font-family="Helvetica,sans-Serif" font-size="10.00">Eigen/Sparse</text>
</g>
<!-- Node13&#45;&gt;Node16 -->
<g id="edge18" class="edge"><title>Node13&#45;&gt;Node16</title>
<path fill="none" stroke="midnightblue" d="M1145.23,-235.419C1176.44,-226.397 1226.94,-211.769 1270.5,-199 1273.88,-198.009 1277.39,-196.977 1280.91,-195.94"/>
<polygon fill="midnightblue" stroke="midnightblue" points="1282.15,-199.224 1290.75,-193.035 1280.17,-192.51 1282.15,-199.224"/>
</g>
<!-- Node17 -->
<g id="node17" class="node"><title>Node17</title>
<polygon fill="white" stroke="#bfbfbf" points="1378,-174 1378,-193 1441,-193 1441,-174 1378,-174"/>
<text text-anchor="middle" x="1409.5" y="-181" font-family="Helvetica,sans-Serif" font-size="10.00">functional</text>
</g>
<!-- Node13&#45;&gt;Node17 -->
<g id="edge19" class="edge"><title>Node13&#45;&gt;Node17</title>
<path fill="none" stroke="midnightblue" d="M1180.08,-235.496C1231.58,-228.001 1305.3,-215.675 1368.5,-199 1371.47,-198.216 1374.53,-197.315 1377.58,-196.354"/>
<polygon fill="midnightblue" stroke="midnightblue" points="1378.78,-199.644 1387.15,-193.15 1376.56,-193.007 1378.78,-199.644"/>
</g>
<!-- Node18 -->
<g id="node18" class="node"><title>Node18</title>
<polygon fill="white" stroke="#bfbfbf" points="1459,-168.5 1459,-198.5 1604,-198.5 1604,-168.5 1459,-168.5"/>
<text text-anchor="start" x="1467" y="-186.5" font-family="Helvetica,sans-Serif" font-size="10.00">unsupported/Eigen/Aligned</text>
<text text-anchor="middle" x="1531.5" y="-175.5" font-family="Helvetica,sans-Serif" font-size="10.00">Vector3</text>
</g>
<!-- Node13&#45;&gt;Node18 -->
<g id="edge20" class="edge"><title>Node13&#45;&gt;Node18</title>
<path fill="none" stroke="midnightblue" d="M1185.57,-235.491C1251.18,-227.317 1352.21,-214.205 1448.74,-199.241"/>
<polygon fill="midnightblue" stroke="midnightblue" points="1449.33,-202.692 1458.67,-197.693 1448.25,-195.775 1449.33,-202.692"/>
</g>
<!-- Node19 -->
<g id="node19" class="node"><title>Node19</title>
<g id="a_node19"><a xlink:href="Math_8hpp.html" target="_top" xlink:title="Core/Math/Math.hpp">
<polygon fill="white" stroke="black" points="949.5,-174 949.5,-193 1063.5,-193 1063.5,-174 949.5,-174"/>
<text text-anchor="middle" x="1006.5" y="-181" font-family="Helvetica,sans-Serif" font-size="10.00">Core/Math/Math.hpp</text>
</a>
</g>
</g>
<!-- Node13&#45;&gt;Node19 -->
<g id="edge21" class="edge"><title>Node13&#45;&gt;Node19</title>
<path fill="none" stroke="midnightblue" d="M1099.88,-235.475C1081.91,-225.666 1052.18,-209.435 1031.09,-197.925"/>
<polygon fill="midnightblue" stroke="midnightblue" points="1032.54,-194.728 1022.09,-193.009 1029.19,-200.873 1032.54,-194.728"/>
</g>
<!-- Node23 -->
<g id="node23" class="node"><title>Node23</title>
<g id="a_node23"><a xlink:href="LinearAlgebra_8inl.html" target="_top" xlink:title="Core/Math/LinearAlgebra.inl">
<polygon fill="white" stroke="black" points="745,-174 745,-193 894,-193 894,-174 745,-174"/>
<text text-anchor="middle" x="819.5" y="-181" font-family="Helvetica,sans-Serif" font-size="10.00">Core/Math/LinearAlgebra.inl</text>
</a>
</g>
</g>
<!-- Node13&#45;&gt;Node23 -->
<g id="edge27" class="edge"><title>Node13&#45;&gt;Node23</title>
<path fill="none" stroke="midnightblue" d="M1073.09,-235.475C1020.01,-224.805 929.112,-206.534 871.779,-195.009"/>
<polygon fill="midnightblue" stroke="midnightblue" points="872.325,-191.549 861.831,-193.009 870.945,-198.411 872.325,-191.549"/>
</g>
<!-- Node19&#45;&gt;Node5 -->
<g id="edge22" class="edge"><title>Node19&#45;&gt;Node5</title>
<path fill="none" stroke="midnightblue" d="M966.773,-173.962C956.601,-171.893 945.663,-169.769 935.5,-168 847.782,-152.73 745.545,-138.694 682.671,-130.491"/>
<polygon fill="midnightblue" stroke="midnightblue" points="682.913,-126.993 672.546,-129.176 682.012,-133.935 682.913,-126.993"/>
</g>
<!-- Node20 -->
<g id="node20" class="node"><title>Node20</title>
<polygon fill="white" stroke="#bfbfbf" points="1077.5,-112.5 1077.5,-131.5 1139.5,-131.5 1139.5,-112.5 1077.5,-112.5"/>
<text text-anchor="middle" x="1108.5" y="-119.5" font-family="Helvetica,sans-Serif" font-size="10.00">algorithm</text>
</g>
<!-- Node19&#45;&gt;Node20 -->
<g id="edge23" class="edge"><title>Node19&#45;&gt;Node20</title>
<path fill="none" stroke="midnightblue" d="M1021.11,-173.975C1037.85,-164.211 1065.5,-148.081 1085.22,-136.581"/>
<polygon fill="midnightblue" stroke="midnightblue" points="1087.04,-139.571 1093.91,-131.509 1083.51,-133.525 1087.04,-139.571"/>
</g>
<!-- Node21 -->
<g id="node21" class="node"><title>Node21</title>
<polygon fill="white" stroke="#bfbfbf" points="888,-112.5 888,-131.5 935,-131.5 935,-112.5 888,-112.5"/>
<text text-anchor="middle" x="911.5" y="-119.5" font-family="Helvetica,sans-Serif" font-size="10.00">cmath</text>
</g>
<!-- Node19&#45;&gt;Node21 -->
<g id="edge24" class="edge"><title>Node19&#45;&gt;Node21</title>
<path fill="none" stroke="midnightblue" d="M992.889,-173.975C977.439,-164.299 952.01,-148.372 933.684,-136.894"/>
<polygon fill="midnightblue" stroke="midnightblue" points="935.419,-133.851 925.086,-131.509 931.703,-139.783 935.419,-133.851"/>
</g>
<!-- Node22 -->
<g id="node22" class="node"><title>Node22</title>
<g id="a_node22"><a xlink:href="Math_8inl.html" target="_top" xlink:title="Core/Math/Math.inl">
<polygon fill="white" stroke="black" points="953,-112.5 953,-131.5 1060,-131.5 1060,-112.5 953,-112.5"/>
<text text-anchor="middle" x="1006.5" y="-119.5" font-family="Helvetica,sans-Serif" font-size="10.00">Core/Math/Math.inl</text>
</a>
</g>
</g>
<!-- Node19&#45;&gt;Node22 -->
<g id="edge25" class="edge"><title>Node19&#45;&gt;Node22</title>
<path fill="none" stroke="midnightblue" d="M1001.6,-173.975C999.768,-165.58 999.297,-152.481 1000.19,-141.663"/>
<polygon fill="midnightblue" stroke="midnightblue" points="1003.69,-141.897 1001.6,-131.509 996.754,-140.929 1003.69,-141.897"/>
</g>
<!-- Node22&#45;&gt;Node19 -->
<g id="edge26" class="edge"><title>Node22&#45;&gt;Node19</title>
<path fill="none" stroke="midnightblue" d="M1011.4,-131.509C1013.23,-139.898 1013.7,-152.996 1012.82,-163.817"/>
<polygon fill="midnightblue" stroke="midnightblue" points="1009.31,-163.588 1011.4,-173.975 1016.25,-164.554 1009.31,-163.588"/>
</g>
<!-- Node24&#45;&gt;Node1 -->
<g id="edge29" class="edge"><title>Node24&#45;&gt;Node1</title>
<path fill="none" stroke="midnightblue" d="M286.264,-310.652C287.727,-317.524 288.381,-327.559 288.228,-337.263"/>
<polygon fill="midnightblue" stroke="midnightblue" points="284.721,-337.344 287.745,-347.498 291.713,-337.674 284.721,-337.344"/>
</g>
<!-- Node25 -->
<g id="node25" class="node"><title>Node25</title>
<g id="a_node25"><a xlink:href="Log_8hpp.html" target="_top" xlink:title="Core/Log/Log.hpp">
<polygon fill="white" stroke="black" points="231,-235.5 231,-254.5 332,-254.5 332,-235.5 231,-235.5"/>
<text text-anchor="middle" x="281.5" y="-242.5" font-family="Helvetica,sans-Serif" font-size="10.00">Core/Log/Log.hpp</text>
</a>
</g>
</g>
<!-- Node24&#45;&gt;Node25 -->
<g id="edge30" class="edge"><title>Node24&#45;&gt;Node25</title>
<path fill="none" stroke="midnightblue" d="M281.5,-291.083C281.5,-284.006 281.5,-273.861 281.5,-264.986"/>
<polygon fill="midnightblue" stroke="midnightblue" points="285,-264.751 281.5,-254.751 278,-264.751 285,-264.751"/>
</g>
<!-- Node25&#45;&gt;Node3 -->
<g id="edge34" class="edge"><title>Node25&#45;&gt;Node3</title>
<path fill="none" stroke="midnightblue" d="M260.653,-235.427C245.922,-228.129 227.295,-216.091 218.5,-199 212.196,-186.749 210.073,-178.9 218.5,-168 235.546,-145.952 313.825,-132.692 359.028,-126.74"/>
<polygon fill="midnightblue" stroke="midnightblue" points="359.733,-130.179 369.213,-125.449 358.852,-123.235 359.733,-130.179"/>
</g>
<!-- Node25&#45;&gt;Node5 -->
<g id="edge31" class="edge"><title>Node25&#45;&gt;Node5</title>
<path fill="none" stroke="midnightblue" d="M332.304,-240.944C380.172,-236.492 452.938,-225.596 510.5,-199 530.6,-189.713 531.338,-180.666 549.5,-168 565.586,-156.781 584.49,-145.313 599.164,-136.762"/>
<polygon fill="midnightblue" stroke="midnightblue" points="601.21,-139.623 608.125,-131.596 597.713,-133.558 601.21,-139.623"/>
</g>
<!-- Node25&#45;&gt;Node10 -->
<g id="edge32" class="edge"><title>Node25&#45;&gt;Node10</title>
<path fill="none" stroke="midnightblue" d="M255.996,-235.472C239.513,-228.478 219.361,-216.792 209.5,-199 202.821,-186.949 208.403,-181.734 209.5,-168 211.506,-142.872 207.872,-134.858 218.5,-112 234.794,-76.9555 266.85,-44.6542 287.171,-26.4291"/>
<polygon fill="midnightblue" stroke="midnightblue" points="289.609,-28.9464 294.83,-19.7274 285,-23.6784 289.609,-28.9464"/>
</g>
<!-- Node26 -->
<g id="node26" class="node"><title>Node26</title>
<polygon fill="white" stroke="#bfbfbf" points="290,-174 290,-193 339,-193 339,-174 290,-174"/>
<text text-anchor="middle" x="314.5" y="-181" font-family="Helvetica,sans-Serif" font-size="10.00">stdio.h</text>
</g>
<!-- Node25&#45;&gt;Node26 -->
<g id="edge33" class="edge"><title>Node25&#45;&gt;Node26</title>
<path fill="none" stroke="midnightblue" d="M286.228,-235.475C291.08,-226.727 298.766,-212.869 304.9,-201.809"/>
<polygon fill="midnightblue" stroke="midnightblue" points="307.991,-203.452 309.781,-193.009 301.87,-200.057 307.991,-203.452"/>
</g>
<!-- Node27 -->
<g id="node27" class="node"><title>Node27</title>
<g id="a_node27"><a xlink:href="StringUtils_8hpp.html" target="_top" xlink:title="Core/String/StringUtils.hpp">
<polygon fill="white" stroke="black" points="357.5,-174 357.5,-193 501.5,-193 501.5,-174 357.5,-174"/>
<text text-anchor="middle" x="429.5" y="-181" font-family="Helvetica,sans-Serif" font-size="10.00">Core/String/StringUtils.hpp</text>
</a>
</g>
</g>
<!-- Node25&#45;&gt;Node27 -->
<g id="edge35" class="edge"><title>Node25&#45;&gt;Node27</title>
<path fill="none" stroke="midnightblue" d="M302.705,-235.475C327.872,-225.357 370.04,-208.405 398.779,-196.851"/>
<polygon fill="midnightblue" stroke="midnightblue" points="400.362,-199.987 408.335,-193.009 397.751,-193.492 400.362,-199.987"/>
</g>
<!-- Node28 -->
<g id="node28" class="node"><title>Node28</title>
<polygon fill="white" stroke="#bfbfbf" points="227.5,-174 227.5,-193 271.5,-193 271.5,-174 227.5,-174"/>
<text text-anchor="middle" x="249.5" y="-181" font-family="Helvetica,sans-Serif" font-size="10.00">ctime</text>
</g>
<!-- Node25&#45;&gt;Node28 -->
<g id="edge39" class="edge"><title>Node25&#45;&gt;Node28</title>
<path fill="none" stroke="midnightblue" d="M276.915,-235.475C272.258,-226.815 264.908,-213.149 258.99,-202.145"/>
<polygon fill="midnightblue" stroke="midnightblue" points="261.895,-200.158 254.076,-193.009 255.73,-203.474 261.895,-200.158"/>
</g>
<!-- Node27&#45;&gt;Node3 -->
<g id="edge37" class="edge"><title>Node27&#45;&gt;Node3</title>
<path fill="none" stroke="midnightblue" d="M424.056,-173.975C418.412,-165.138 409.439,-151.089 402.341,-139.975"/>
<polygon fill="midnightblue" stroke="midnightblue" points="405.267,-138.053 396.934,-131.509 399.367,-141.821 405.267,-138.053"/>
</g>
<!-- Node27&#45;&gt;Node4 -->
<g id="edge38" class="edge"><title>Node27&#45;&gt;Node4</title>
<path fill="none" stroke="midnightblue" d="M403.997,-173.975C372.674,-163.505 319.457,-145.716 284.899,-134.164"/>
<polygon fill="midnightblue" stroke="midnightblue" points="285.843,-130.79 275.249,-130.939 283.624,-137.428 285.843,-130.79"/>
</g>
<!-- Node27&#45;&gt;Node5 -->
<g id="edge36" class="edge"><title>Node27&#45;&gt;Node5</title>
<path fill="none" stroke="midnightblue" d="M457.295,-173.975C491.15,-163.592 548.471,-146.012 586.155,-134.454"/>
<polygon fill="midnightblue" stroke="midnightblue" points="587.222,-137.788 595.756,-131.509 585.169,-131.095 587.222,-137.788"/>
</g>
</g>
</svg>
