<?xml version="1.0" encoding="UTF-8" standalone="no"?>
<!DOCTYPE svg PUBLIC "-//W3C//DTD SVG 1.1//EN"
 "http://www.w3.org/Graphics/SVG/1.1/DTD/svg11.dtd">
<!-- Generated by graphviz version 2.38.0 (20140413.2041)
 -->
<!-- Title: /home/travis/build/STORM&#45;IRIT/Radium&#45;Engine/src/Engine/Renderer/Light/Light.cpp Pages: 1 -->
<svg width="2500pt" height="564pt"
 viewBox="0.00 0.00 2500.00 564.00" xmlns="http://www.w3.org/2000/svg" xmlns:xlink="http://www.w3.org/1999/xlink">
<g id="graph0" class="graph" transform="scale(1 1) rotate(0) translate(4 560)">
<title>/home/travis/build/STORM&#45;IRIT/Radium&#45;Engine/src/Engine/Renderer/Light/Light.cpp</title>
<polygon fill="white" stroke="none" points="-4,4 -4,-560 2496,-560 2496,4 -4,4"/>
<!-- Node1 -->
<g id="node1" class="node"><title>Node1</title>
<polygon fill="#bfbfbf" stroke="black" points="1272,-503.5 1272,-555.5 1420,-555.5 1420,-503.5 1272,-503.5"/>
<text text-anchor="start" x="1280" y="-543.5" font-family="Helvetica,sans-Serif" font-size="10.00">/home/travis/build</text>
<text text-anchor="start" x="1280" y="-532.5" font-family="Helvetica,sans-Serif" font-size="10.00">/STORM&#45;IRIT/Radium&#45;Engine</text>
<text text-anchor="start" x="1280" y="-521.5" font-family="Helvetica,sans-Serif" font-size="10.00">/src/Engine/Renderer/Light</text>
<text text-anchor="middle" x="1346" y="-510.5" font-family="Helvetica,sans-Serif" font-size="10.00">/Light.cpp</text>
</g>
<!-- Node2 -->
<g id="node2" class="node"><title>Node2</title>
<g id="a_node2"><a xlink:href="Light_8hpp.html" target="_top" xlink:title="Engine/Renderer/Light\l/Light.hpp">
<polygon fill="white" stroke="black" points="1121.5,-436.5 1121.5,-466.5 1242.5,-466.5 1242.5,-436.5 1121.5,-436.5"/>
<text text-anchor="start" x="1129.5" y="-454.5" font-family="Helvetica,sans-Serif" font-size="10.00">Engine/Renderer/Light</text>
<text text-anchor="middle" x="1182" y="-443.5" font-family="Helvetica,sans-Serif" font-size="10.00">/Light.hpp</text>
</a>
</g>
</g>
<!-- Node1&#45;&gt;Node2 -->
<g id="edge1" class="edge"><title>Node1&#45;&gt;Node2</title>
<path fill="none" stroke="midnightblue" d="M1291.85,-503.404C1269.03,-492.831 1242.95,-480.745 1221.93,-471.004"/>
<polygon fill="midnightblue" stroke="midnightblue" points="1223.2,-467.736 1212.66,-466.707 1220.26,-474.087 1223.2,-467.736"/>
</g>
<!-- Node29 -->
<g id="node29" class="node"><title>Node29</title>
<g id="a_node29"><a xlink:href="RadiumEngine_8hpp.html" target="_top" xlink:title="Engine/RadiumEngine.hpp">
<polygon fill="white" stroke="black" points="949.5,-241 949.5,-260 1090.5,-260 1090.5,-241 949.5,-241"/>
<text text-anchor="middle" x="1020" y="-248" font-family="Helvetica,sans-Serif" font-size="10.00">Engine/RadiumEngine.hpp</text>
</a>
</g>
</g>
<!-- Node1&#45;&gt;Node29 -->
<g id="edge38" class="edge"><title>Node1&#45;&gt;Node29</title>
<path fill="none" stroke="midnightblue" d="M1336.35,-503.441C1322.13,-469.301 1292.66,-407.973 1251,-369 1193.67,-315.368 1107.18,-280.261 1057.91,-263.341"/>
<polygon fill="midnightblue" stroke="midnightblue" points="1058.88,-259.972 1048.28,-260.103 1056.65,-266.607 1058.88,-259.972"/>
</g>
<!-- Node35 -->
<g id="node35" class="node"><title>Node35</title>
<g id="a_node35"><a xlink:href="RenderParameters_8hpp.html" target="_top" xlink:title="Engine/Renderer/RenderTechnique\l/RenderParameters.hpp">
<polygon fill="white" stroke="black" points="1494,-436.5 1494,-466.5 1672,-466.5 1672,-436.5 1494,-436.5"/>
<text text-anchor="start" x="1502" y="-454.5" font-family="Helvetica,sans-Serif" font-size="10.00">Engine/Renderer/RenderTechnique</text>
<text text-anchor="middle" x="1583" y="-443.5" font-family="Helvetica,sans-Serif" font-size="10.00">/RenderParameters.hpp</text>
</a>
</g>
</g>
<!-- Node1&#45;&gt;Node35 -->
<g id="edge46" class="edge"><title>Node1&#45;&gt;Node35</title>
<path fill="none" stroke="midnightblue" d="M1420.01,-504.766C1455.46,-493.398 1497.12,-480.039 1529.45,-469.672"/>
<polygon fill="midnightblue" stroke="midnightblue" points="1530.71,-472.942 1539.17,-466.556 1528.58,-466.277 1530.71,-472.942"/>
</g>
<!-- Node3 -->
<g id="node3" class="node"><title>Node3</title>
<g id="a_node3"><a xlink:href="RaEngine_8hpp.html" target="_top" xlink:title="Engine/RaEngine.hpp">
<polygon fill="white" stroke="black" points="1843.5,-174 1843.5,-193 1960.5,-193 1960.5,-174 1843.5,-174"/>
<text text-anchor="middle" x="1902" y="-181" font-family="Helvetica,sans-Serif" font-size="10.00">Engine/RaEngine.hpp</text>
</a>
</g>
</g>
<!-- Node2&#45;&gt;Node3 -->
<g id="edge2" class="edge"><title>Node2&#45;&gt;Node3</title>
<path fill="none" stroke="midnightblue" d="M1236.24,-436.49C1306.74,-418.696 1433.86,-388.023 1544,-369 1675.03,-346.369 1714.16,-372.887 1841,-333 1901.5,-313.974 1934.33,-320.366 1967,-266 1974.1,-254.19 1973.06,-247.375 1967,-235 1959.17,-218.996 1943.54,-206.602 1929.58,-198.097"/>
<polygon fill="midnightblue" stroke="midnightblue" points="1931.16,-194.972 1920.74,-193.072 1927.7,-201.057 1931.16,-194.972"/>
</g>
<!-- Node10 -->
<g id="node10" class="node"><title>Node10</title>
<g id="a_node10"><a xlink:href="LinearAlgebra_8hpp.html" target="_top" xlink:title="Core/Math/LinearAlgebra.hpp">
<polygon fill="white" stroke="black" points="702,-241 702,-260 858,-260 858,-241 702,-241"/>
<text text-anchor="middle" x="780" y="-248" font-family="Helvetica,sans-Serif" font-size="10.00">Core/Math/LinearAlgebra.hpp</text>
</a>
</g>
</g>
<!-- Node2&#45;&gt;Node10 -->
<g id="edge9" class="edge"><title>Node2&#45;&gt;Node10</title>
<path fill="none" stroke="midnightblue" d="M1161.45,-436.362C1147.31,-426.476 1128.24,-412.801 1112,-400 1059.53,-358.639 1057.6,-332.191 998,-302 957.258,-281.363 907.964,-269.031 866.564,-261.727"/>
<polygon fill="midnightblue" stroke="midnightblue" points="866.938,-258.241 856.493,-260.021 865.768,-265.142 866.938,-258.241"/>
</g>
<!-- Node22 -->
<g id="node22" class="node"><title>Node22</title>
<g id="a_node22"><a xlink:href="Component_8hpp.html" target="_top" xlink:title="Engine/Component/Component.hpp">
<polygon fill="white" stroke="black" points="805,-375 805,-394 993,-394 993,-375 805,-375"/>
<text text-anchor="middle" x="899" y="-382" font-family="Helvetica,sans-Serif" font-size="10.00">Engine/Component/Component.hpp</text>
</a>
</g>
</g>
<!-- Node2&#45;&gt;Node22 -->
<g id="edge24" class="edge"><title>Node2&#45;&gt;Node22</title>
<path fill="none" stroke="midnightblue" d="M1121.29,-436.556C1068.83,-424.506 994.082,-407.339 946.053,-396.307"/>
<polygon fill="midnightblue" stroke="midnightblue" points="946.757,-392.878 936.227,-394.05 945.19,-399.7 946.757,-392.878"/>
</g>
<!-- Node28 -->
<g id="node28" class="node"><title>Node28</title>
<g id="a_node28"><a xlink:href="Light_8inl.html" target="_top" xlink:title="Engine/Renderer/Light\l/Light.inl">
<polygon fill="white" stroke="black" points="1121.5,-369.5 1121.5,-399.5 1242.5,-399.5 1242.5,-369.5 1121.5,-369.5"/>
<text text-anchor="start" x="1129.5" y="-387.5" font-family="Helvetica,sans-Serif" font-size="10.00">Engine/Renderer/Light</text>
<text text-anchor="middle" x="1182" y="-376.5" font-family="Helvetica,sans-Serif" font-size="10.00">/Light.inl</text>
</a>
</g>
</g>
<!-- Node2&#45;&gt;Node28 -->
<g id="edge37" class="edge"><title>Node2&#45;&gt;Node28</title>
<path fill="none" stroke="midnightblue" d="M1182,-436.396C1182,-428.645 1182,-418.812 1182,-409.86"/>
<polygon fill="midnightblue" stroke="midnightblue" points="1185.5,-409.576 1182,-399.577 1178.5,-409.577 1185.5,-409.576"/>
</g>
<!-- Node4 -->
<g id="node4" class="node"><title>Node4</title>
<g id="a_node4"><a xlink:href="CoreMacros_8hpp.html" target="_top" xlink:title="Core/CoreMacros.hpp">
<polygon fill="white" stroke="black" points="1793,-56.5 1793,-75.5 1913,-75.5 1913,-56.5 1793,-56.5"/>
<text text-anchor="middle" x="1853" y="-63.5" font-family="Helvetica,sans-Serif" font-size="10.00">Core/CoreMacros.hpp</text>
</a>
</g>
</g>
<!-- Node3&#45;&gt;Node4 -->
<g id="edge3" class="edge"><title>Node3&#45;&gt;Node4</title>
<path fill="none" stroke="midnightblue" d="M1898.32,-173.819C1890.37,-155.09 1871.47,-110.546 1860.76,-85.2924"/>
<polygon fill="midnightblue" stroke="midnightblue" points="1863.85,-83.6209 1856.73,-75.782 1857.41,-86.3548 1863.85,-83.6209"/>
</g>
<!-- Node5 -->
<g id="node5" class="node"><title>Node5</title>
<polygon fill="white" stroke="#bfbfbf" points="1827,-0.5 1827,-19.5 1879,-19.5 1879,-0.5 1827,-0.5"/>
<text text-anchor="middle" x="1853" y="-7.5" font-family="Helvetica,sans-Serif" font-size="10.00">cassert</text>
</g>
<!-- Node4&#45;&gt;Node5 -->
<g id="edge4" class="edge"><title>Node4&#45;&gt;Node5</title>
<path fill="none" stroke="midnightblue" d="M1853,-56.083C1853,-49.0059 1853,-38.8611 1853,-29.9865"/>
<polygon fill="midnightblue" stroke="midnightblue" points="1856.5,-29.751 1853,-19.7511 1849.5,-29.7511 1856.5,-29.751"/>
</g>
<!-- Node6 -->
<g id="node6" class="node"><title>Node6</title>
<polygon fill="white" stroke="#bfbfbf" points="1897.5,-0.5 1897.5,-19.5 1942.5,-19.5 1942.5,-0.5 1897.5,-0.5"/>
<text text-anchor="middle" x="1920" y="-7.5" font-family="Helvetica,sans-Serif" font-size="10.00">cstdio</text>
</g>
<!-- Node4&#45;&gt;Node6 -->
<g id="edge5" class="edge"><title>Node4&#45;&gt;Node6</title>
<path fill="none" stroke="midnightblue" d="M1863.76,-56.324C1873.77,-48.2631 1888.89,-36.0765 1900.93,-26.3695"/>
<polygon fill="midnightblue" stroke="midnightblue" points="1903.45,-28.8343 1909.04,-19.8339 1899.06,-23.3841 1903.45,-28.8343"/>
</g>
<!-- Node7 -->
<g id="node7" class="node"><title>Node7</title>
<polygon fill="white" stroke="#bfbfbf" points="1683.5,-0.5 1683.5,-19.5 1742.5,-19.5 1742.5,-0.5 1683.5,-0.5"/>
<text text-anchor="middle" x="1713" y="-7.5" font-family="Helvetica,sans-Serif" font-size="10.00">iostream</text>
</g>
<!-- Node4&#45;&gt;Node7 -->
<g id="edge6" class="edge"><title>Node4&#45;&gt;Node7</title>
<path fill="none" stroke="midnightblue" d="M1830.82,-56.4435C1807.57,-47.4776 1770.85,-33.314 1744.58,-23.1827"/>
<polygon fill="midnightblue" stroke="midnightblue" points="1745.67,-19.8497 1735.08,-19.5164 1743.15,-26.3807 1745.67,-19.8497"/>
</g>
<!-- Node8 -->
<g id="node8" class="node"><title>Node8</title>
<polygon fill="white" stroke="#bfbfbf" points="1961,-0.5 1961,-19.5 2017,-19.5 2017,-0.5 1961,-0.5"/>
<text text-anchor="middle" x="1989" y="-7.5" font-family="Helvetica,sans-Serif" font-size="10.00">sstream</text>
</g>
<!-- Node4&#45;&gt;Node8 -->
<g id="edge7" class="edge"><title>Node4&#45;&gt;Node8</title>
<path fill="none" stroke="midnightblue" d="M1874.55,-56.4435C1897.03,-47.5171 1932.49,-33.4387 1957.98,-23.3168"/>
<polygon fill="midnightblue" stroke="midnightblue" points="1959.55,-26.4598 1967.55,-19.5164 1956.97,-19.9539 1959.55,-26.4598"/>
</g>
<!-- Node9 -->
<g id="node9" class="node"><title>Node9</title>
<polygon fill="white" stroke="#bfbfbf" points="1761,-0.5 1761,-19.5 1809,-19.5 1809,-0.5 1761,-0.5"/>
<text text-anchor="middle" x="1785" y="-7.5" font-family="Helvetica,sans-Serif" font-size="10.00">thread</text>
</g>
<!-- Node4&#45;&gt;Node9 -->
<g id="edge8" class="edge"><title>Node4&#45;&gt;Node9</title>
<path fill="none" stroke="midnightblue" d="M1842.07,-56.324C1831.83,-48.1849 1816.28,-35.8395 1804,-26.0874"/>
<polygon fill="midnightblue" stroke="midnightblue" points="1806.13,-23.3119 1796.12,-19.8339 1801.78,-28.7937 1806.13,-23.3119"/>
</g>
<!-- Node11 -->
<g id="node11" class="node"><title>Node11</title>
<g id="a_node11"><a xlink:href="RaCore_8hpp.html" target="_top" xlink:title="Core/RaCore.hpp">
<polygon fill="white" stroke="black" points="975,-112.5 975,-131.5 1073,-131.5 1073,-112.5 975,-112.5"/>
<text text-anchor="middle" x="1024" y="-119.5" font-family="Helvetica,sans-Serif" font-size="10.00">Core/RaCore.hpp</text>
</a>
</g>
</g>
<!-- Node10&#45;&gt;Node11 -->
<g id="edge10" class="edge"><title>Node10&#45;&gt;Node11</title>
<path fill="none" stroke="midnightblue" d="M801.7,-240.847C823.5,-231.75 857.688,-216.364 885,-199 903.393,-187.306 904.438,-179.424 923,-168 944.495,-154.77 970.554,-143.26 990.817,-135.192"/>
<polygon fill="midnightblue" stroke="midnightblue" points="992.207,-138.407 1000.25,-131.516 989.666,-131.885 992.207,-138.407"/>
</g>
<!-- Node12 -->
<g id="node12" class="node"><title>Node12</title>
<polygon fill="white" stroke="#bfbfbf" points="710,-174 710,-193 778,-193 778,-174 710,-174"/>
<text text-anchor="middle" x="744" y="-181" font-family="Helvetica,sans-Serif" font-size="10.00">Eigen/Core</text>
</g>
<!-- Node10&#45;&gt;Node12 -->
<g id="edge12" class="edge"><title>Node10&#45;&gt;Node12</title>
<path fill="none" stroke="midnightblue" d="M775.145,-240.734C769.693,-230.89 760.704,-214.66 753.781,-202.159"/>
<polygon fill="midnightblue" stroke="midnightblue" points="756.685,-200.179 748.778,-193.127 750.561,-203.571 756.685,-200.179"/>
</g>
<!-- Node13 -->
<g id="node13" class="node"><title>Node13</title>
<polygon fill="white" stroke="#bfbfbf" points="60,-174 60,-193 154,-193 154,-174 60,-174"/>
<text text-anchor="middle" x="107" y="-181" font-family="Helvetica,sans-Serif" font-size="10.00">Eigen/Geometry</text>
</g>
<!-- Node10&#45;&gt;Node13 -->
<g id="edge13" class="edge"><title>Node10&#45;&gt;Node13</title>
<path fill="none" stroke="midnightblue" d="M701.546,-247.388C583.822,-243.249 354.809,-231.435 163,-199 157.492,-198.069 151.733,-196.857 146.094,-195.532"/>
<polygon fill="midnightblue" stroke="midnightblue" points="146.699,-192.076 136.15,-193.058 145.009,-198.869 146.699,-192.076"/>
</g>
<!-- Node14 -->
<g id="node14" class="node"><title>Node14</title>
<polygon fill="white" stroke="#bfbfbf" points="796,-174 796,-193 876,-193 876,-174 796,-174"/>
<text text-anchor="middle" x="836" y="-181" font-family="Helvetica,sans-Serif" font-size="10.00">Eigen/Sparse</text>
</g>
<!-- Node10&#45;&gt;Node14 -->
<g id="edge14" class="edge"><title>Node10&#45;&gt;Node14</title>
<path fill="none" stroke="midnightblue" d="M787.552,-240.734C796.285,-230.598 810.852,-213.69 821.737,-201.056"/>
<polygon fill="midnightblue" stroke="midnightblue" points="824.692,-202.988 828.567,-193.127 819.388,-198.419 824.692,-202.988"/>
</g>
<!-- Node15 -->
<g id="node15" class="node"><title>Node15</title>
<polygon fill="white" stroke="#bfbfbf" points="932.5,-174 932.5,-193 995.5,-193 995.5,-174 932.5,-174"/>
<text text-anchor="middle" x="964" y="-181" font-family="Helvetica,sans-Serif" font-size="10.00">functional</text>
</g>
<!-- Node10&#45;&gt;Node15 -->
<g id="edge15" class="edge"><title>Node10&#45;&gt;Node15</title>
<path fill="none" stroke="midnightblue" d="M804.434,-240.869C836.691,-229.473 893.647,-209.353 930.068,-196.487"/>
<polygon fill="midnightblue" stroke="midnightblue" points="931.495,-199.695 939.758,-193.064 929.163,-193.094 931.495,-199.695"/>
</g>
<!-- Node16 -->
<g id="node16" class="node"><title>Node16</title>
<polygon fill="white" stroke="#bfbfbf" points="380.5,-168.5 380.5,-198.5 525.5,-198.5 525.5,-168.5 380.5,-168.5"/>
<text text-anchor="start" x="388.5" y="-186.5" font-family="Helvetica,sans-Serif" font-size="10.00">unsupported/Eigen/Aligned</text>
<text text-anchor="middle" x="453" y="-175.5" font-family="Helvetica,sans-Serif" font-size="10.00">Vector3</text>
</g>
<!-- Node10&#45;&gt;Node16 -->
<g id="edge16" class="edge"><title>Node10&#45;&gt;Node16</title>
<path fill="none" stroke="midnightblue" d="M736.914,-240.936C685.388,-230.693 598.059,-213.334 533.829,-200.567"/>
<polygon fill="midnightblue" stroke="midnightblue" points="534.219,-197.076 523.728,-198.559 532.854,-203.942 534.219,-197.076"/>
</g>
<!-- Node17 -->
<g id="node17" class="node"><title>Node17</title>
<g id="a_node17"><a xlink:href="Math_8hpp.html" target="_top" xlink:title="Core/Math/Math.hpp">
<polygon fill="white" stroke="black" points="172,-174 172,-193 286,-193 286,-174 172,-174"/>
<text text-anchor="middle" x="229" y="-181" font-family="Helvetica,sans-Serif" font-size="10.00">Core/Math/Math.hpp</text>
</a>
</g>
</g>
<!-- Node10&#45;&gt;Node17 -->
<g id="edge17" class="edge"><title>Node10&#45;&gt;Node17</title>
<path fill="none" stroke="midnightblue" d="M707.683,-240.969C600.452,-228.319 400.751,-204.761 296.419,-192.453"/>
<polygon fill="midnightblue" stroke="midnightblue" points="296.662,-188.958 286.32,-191.262 295.841,-195.909 296.662,-188.958"/>
</g>
<!-- Node21 -->
<g id="node21" class="node"><title>Node21</title>
<g id="a_node21"><a xlink:href="LinearAlgebra_8inl.html" target="_top" xlink:title="Core/Math/LinearAlgebra.inl">
<polygon fill="white" stroke="black" points="543.5,-174 543.5,-193 692.5,-193 692.5,-174 543.5,-174"/>
<text text-anchor="middle" x="618" y="-181" font-family="Helvetica,sans-Serif" font-size="10.00">Core/Math/LinearAlgebra.inl</text>
</a>
</g>
</g>
<!-- Node10&#45;&gt;Node21 -->
<g id="edge23" class="edge"><title>Node10&#45;&gt;Node21</title>
<path fill="none" stroke="midnightblue" d="M758.488,-240.869C730.33,-229.571 680.796,-209.696 648.701,-196.818"/>
<polygon fill="midnightblue" stroke="midnightblue" points="649.927,-193.539 639.343,-193.064 647.321,-200.036 649.927,-193.539"/>
</g>
<!-- Node11&#45;&gt;Node4 -->
<g id="edge11" class="edge"><title>Node11&#45;&gt;Node4</title>
<path fill="none" stroke="midnightblue" d="M1073.07,-117.804C1213.63,-108.648 1618.21,-82.2942 1782.44,-71.5959"/>
<polygon fill="midnightblue" stroke="midnightblue" points="1783.16,-75.0569 1792.91,-70.9142 1782.7,-68.0717 1783.16,-75.0569"/>
</g>
<!-- Node17&#45;&gt;Node11 -->
<g id="edge18" class="edge"><title>Node17&#45;&gt;Node11</title>
<path fill="none" stroke="midnightblue" d="M265.685,-173.993C276.668,-171.721 288.775,-169.488 300,-168 545.292,-135.491 840.529,-126.376 964.561,-123.895"/>
<polygon fill="midnightblue" stroke="midnightblue" points="964.68,-127.393 974.611,-123.701 964.545,-120.394 964.68,-127.393"/>
</g>
<!-- Node18 -->
<g id="node18" class="node"><title>Node18</title>
<polygon fill="white" stroke="#bfbfbf" points="300,-112.5 300,-131.5 362,-131.5 362,-112.5 300,-112.5"/>
<text text-anchor="middle" x="331" y="-119.5" font-family="Helvetica,sans-Serif" font-size="10.00">algorithm</text>
</g>
<!-- Node17&#45;&gt;Node18 -->
<g id="edge19" class="edge"><title>Node17&#45;&gt;Node18</title>
<path fill="none" stroke="midnightblue" d="M243.614,-173.975C260.353,-164.211 288.004,-148.081 307.719,-136.581"/>
<polygon fill="midnightblue" stroke="midnightblue" points="309.539,-139.571 316.413,-131.509 306.012,-133.525 309.539,-139.571"/>
</g>
<!-- Node19 -->
<g id="node19" class="node"><title>Node19</title>
<polygon fill="white" stroke="#bfbfbf" points="110.5,-112.5 110.5,-131.5 157.5,-131.5 157.5,-112.5 110.5,-112.5"/>
<text text-anchor="middle" x="134" y="-119.5" font-family="Helvetica,sans-Serif" font-size="10.00">cmath</text>
</g>
<!-- Node17&#45;&gt;Node19 -->
<g id="edge20" class="edge"><title>Node17&#45;&gt;Node19</title>
<path fill="none" stroke="midnightblue" d="M215.389,-173.975C199.939,-164.299 174.51,-148.372 156.184,-136.894"/>
<polygon fill="midnightblue" stroke="midnightblue" points="157.919,-133.851 147.586,-131.509 154.203,-139.783 157.919,-133.851"/>
</g>
<!-- Node20 -->
<g id="node20" class="node"><title>Node20</title>
<g id="a_node20"><a xlink:href="Math_8inl.html" target="_top" xlink:title="Core/Math/Math.inl">
<polygon fill="white" stroke="black" points="175.5,-112.5 175.5,-131.5 282.5,-131.5 282.5,-112.5 175.5,-112.5"/>
<text text-anchor="middle" x="229" y="-119.5" font-family="Helvetica,sans-Serif" font-size="10.00">Core/Math/Math.inl</text>
</a>
</g>
</g>
<!-- Node17&#45;&gt;Node20 -->
<g id="edge21" class="edge"><title>Node17&#45;&gt;Node20</title>
<path fill="none" stroke="midnightblue" d="M224.099,-173.975C222.268,-165.58 221.797,-152.481 222.685,-141.663"/>
<polygon fill="midnightblue" stroke="midnightblue" points="226.186,-141.897 224.103,-131.509 219.254,-140.929 226.186,-141.897"/>
</g>
<!-- Node20&#45;&gt;Node17 -->
<g id="edge22" class="edge"><title>Node20&#45;&gt;Node17</title>
<path fill="none" stroke="midnightblue" d="M233.897,-131.509C235.73,-139.898 236.203,-152.996 235.317,-163.817"/>
<polygon fill="midnightblue" stroke="midnightblue" points="231.815,-163.588 233.901,-173.975 238.748,-164.554 231.815,-163.588"/>
</g>
<!-- Node22&#45;&gt;Node3 -->
<g id="edge25" class="edge"><title>Node22&#45;&gt;Node3</title>
<path fill="none" stroke="midnightblue" d="M993.091,-376.877C1030.14,-374.326 1073.07,-371.441 1112,-369 1391.02,-351.506 1465.1,-383.89 1740,-333 1836.33,-315.167 1892.2,-345.105 1950,-266 1966.02,-244.073 1941.31,-216.465 1921.81,-199.666"/>
<polygon fill="midnightblue" stroke="midnightblue" points="1923.85,-196.816 1913.9,-193.176 1919.41,-202.226 1923.85,-196.816"/>
</g>
<!-- Node22&#45;&gt;Node10 -->
<g id="edge30" class="edge"><title>Node22&#45;&gt;Node10</title>
<path fill="none" stroke="midnightblue" d="M866.375,-374.977C844.155,-367.505 815.825,-354.409 799,-333 784.793,-314.923 780.89,-288.052 779.981,-270.167"/>
<polygon fill="midnightblue" stroke="midnightblue" points="783.479,-270.034 779.737,-260.122 776.481,-270.204 783.479,-270.034"/>
</g>
<!-- Node23 -->
<g id="node23" class="node"><title>Node23</title>
<g id="a_node23"><a xlink:href="IndexedObject_8hpp.html" target="_top" xlink:title="Core/Index/IndexedObject.hpp">
<polygon fill="white" stroke="black" points="234,-308 234,-327 394,-327 394,-308 234,-308"/>
<text text-anchor="middle" x="314" y="-315" font-family="Helvetica,sans-Serif" font-size="10.00">Core/Index/IndexedObject.hpp</text>
</a>
</g>
</g>
<!-- Node22&#45;&gt;Node23 -->
<g id="edge26" class="edge"><title>Node22&#45;&gt;Node23</title>
<path fill="none" stroke="midnightblue" d="M822.221,-374.969C713.444,-362.883 515.045,-340.838 400.968,-328.163"/>
<polygon fill="midnightblue" stroke="midnightblue" points="401.199,-324.667 390.874,-327.042 400.426,-331.625 401.199,-324.667"/>
</g>
<!-- Node26 -->
<g id="node26" class="node"><title>Node26</title>
<g id="a_node26"><a xlink:href="Ray_8hpp.html" target="_top" xlink:title="Core/Math/Ray.hpp">
<polygon fill="white" stroke="black" points="512,-308 512,-327 618,-327 618,-308 512,-308"/>
<text text-anchor="middle" x="565" y="-315" font-family="Helvetica,sans-Serif" font-size="10.00">Core/Math/Ray.hpp</text>
</a>
</g>
</g>
<!-- Node22&#45;&gt;Node26 -->
<g id="edge31" class="edge"><title>Node22&#45;&gt;Node26</title>
<path fill="none" stroke="midnightblue" d="M854.992,-374.936C794.208,-363.106 684.643,-341.784 618.986,-329.006"/>
<polygon fill="midnightblue" stroke="midnightblue" points="619.324,-325.507 608.84,-327.032 617.987,-332.378 619.324,-325.507"/>
</g>
<!-- Node27 -->
<g id="node27" class="node"><title>Node27</title>
<g id="a_node27"><a xlink:href="Component_8inl.html" target="_top" xlink:title="Engine/Component/Component.inl">
<polygon fill="white" stroke="black" points="808.5,-308 808.5,-327 989.5,-327 989.5,-308 808.5,-308"/>
<text text-anchor="middle" x="899" y="-315" font-family="Helvetica,sans-Serif" font-size="10.00">Engine/Component/Component.inl</text>
</a>
</g>
</g>
<!-- Node22&#45;&gt;Node27 -->
<g id="edge35" class="edge"><title>Node22&#45;&gt;Node27</title>
<path fill="none" stroke="midnightblue" d="M894.211,-374.734C892.202,-365.183 891.736,-349.618 892.816,-337.283"/>
<polygon fill="midnightblue" stroke="midnightblue" points="896.317,-337.517 894.241,-327.127 889.385,-336.544 896.317,-337.517"/>
</g>
<!-- Node23&#45;&gt;Node11 -->
<g id="edge29" class="edge"><title>Node23&#45;&gt;Node11</title>
<path fill="none" stroke="midnightblue" d="M313.302,-307.654C311.774,-281.423 311.271,-203.673 355,-168 401.65,-129.944 809.771,-124.008 964.696,-123.131"/>
<polygon fill="midnightblue" stroke="midnightblue" points="964.985,-126.63 974.967,-123.078 964.949,-119.63 964.985,-126.63"/>
</g>
<!-- Node24 -->
<g id="node24" class="node"><title>Node24</title>
<g id="a_node24"><a xlink:href="Index_8hpp.html" target="_top" xlink:title="Core/Index/Index.hpp">
<polygon fill="white" stroke="red" points="65.5,-241 65.5,-260 182.5,-260 182.5,-241 65.5,-241"/>
<text text-anchor="middle" x="124" y="-248" font-family="Helvetica,sans-Serif" font-size="10.00">Core/Index/Index.hpp</text>
</a>
</g>
</g>
<!-- Node23&#45;&gt;Node24 -->
<g id="edge27" class="edge"><title>Node23&#45;&gt;Node24</title>
<path fill="none" stroke="midnightblue" d="M288.769,-307.869C255.318,-296.424 196.143,-276.181 158.558,-263.322"/>
<polygon fill="midnightblue" stroke="midnightblue" points="159.627,-259.989 149.032,-260.064 157.361,-266.612 159.627,-259.989"/>
</g>
<!-- Node25 -->
<g id="node25" class="node"><title>Node25</title>
<polygon fill="white" stroke="#bfbfbf" points="0,-174 0,-193 42,-193 42,-174 0,-174"/>
<text text-anchor="middle" x="21" y="-181" font-family="Helvetica,sans-Serif" font-size="10.00">limits</text>
</g>
<!-- Node24&#45;&gt;Node25 -->
<g id="edge28" class="edge"><title>Node24&#45;&gt;Node25</title>
<path fill="none" stroke="midnightblue" d="M110.109,-240.734C92.9663,-229.916 63.5995,-211.383 43.2891,-198.566"/>
<polygon fill="midnightblue" stroke="midnightblue" points="44.9957,-195.504 34.671,-193.127 41.2599,-201.424 44.9957,-195.504"/>
</g>
<!-- Node26&#45;&gt;Node10 -->
<g id="edge33" class="edge"><title>Node26&#45;&gt;Node10</title>
<path fill="none" stroke="midnightblue" d="M593.55,-307.869C631.726,-296.327 699.506,-275.835 741.976,-262.996"/>
<polygon fill="midnightblue" stroke="midnightblue" points="743.115,-266.308 751.674,-260.064 741.089,-259.607 743.115,-266.308"/>
</g>
<!-- Node26&#45;&gt;Node11 -->
<g id="edge32" class="edge"><title>Node26&#45;&gt;Node11</title>
<path fill="none" stroke="midnightblue" d="M535.444,-307.98C467.89,-287.16 312.391,-230.787 371,-168 411.032,-125.114 811.388,-122.135 964.7,-122.587"/>
<polygon fill="midnightblue" stroke="midnightblue" points="964.857,-126.087 974.869,-122.623 964.882,-119.087 964.857,-126.087"/>
</g>
<!-- Node26&#45;&gt;Node13 -->
<g id="edge34" class="edge"><title>Node26&#45;&gt;Node13</title>
<path fill="none" stroke="midnightblue" d="M531.791,-307.982C493.975,-298.199 430.384,-281.499 376,-266 292.628,-242.239 195.422,-212.207 143.735,-196.051"/>
<polygon fill="midnightblue" stroke="midnightblue" points="144.611,-192.658 134.022,-193.011 142.52,-199.338 144.611,-192.658"/>
</g>
<!-- Node27&#45;&gt;Node22 -->
<g id="edge36" class="edge"><title>Node27&#45;&gt;Node22</title>
<path fill="none" stroke="midnightblue" d="M903.759,-327.127C905.784,-336.62 906.264,-352.17 905.2,-364.537"/>
<polygon fill="midnightblue" stroke="midnightblue" points="901.693,-364.348 903.789,-374.734 908.627,-365.308 901.693,-364.348"/>
</g>
<!-- Node29&#45;&gt;Node3 -->
<g id="edge39" class="edge"><title>Node29&#45;&gt;Node3</title>
<path fill="none" stroke="midnightblue" d="M1083.31,-240.994C1100.98,-238.817 1120.22,-236.632 1138,-235 1400.05,-210.941 1466.53,-217.991 1729,-199 1763.31,-196.517 1801.42,-193.366 1833.12,-190.635"/>
<polygon fill="midnightblue" stroke="midnightblue" points="1833.51,-194.115 1843.17,-189.765 1832.91,-187.141 1833.51,-194.115"/>
</g>
<!-- Node30 -->
<g id="node30" class="node"><title>Node30</title>
<g id="a_node30"><a xlink:href="Singleton_8hpp.html" target="_top" xlink:title="Core/Utils/Singleton.hpp">
<polygon fill="white" stroke="black" points="1052,-174 1052,-193 1184,-193 1184,-174 1052,-174"/>
<text text-anchor="middle" x="1118" y="-181" font-family="Helvetica,sans-Serif" font-size="10.00">Core/Utils/Singleton.hpp</text>
</a>
</g>
</g>
<!-- Node29&#45;&gt;Node30 -->
<g id="edge40" class="edge"><title>Node29&#45;&gt;Node30</title>
<path fill="none" stroke="midnightblue" d="M1033.22,-240.734C1049.45,-229.964 1077.22,-211.55 1096.53,-198.739"/>
<polygon fill="midnightblue" stroke="midnightblue" points="1098.59,-201.571 1104.99,-193.127 1094.72,-195.738 1098.59,-201.571"/>
</g>
<!-- Node31 -->
<g id="node31" class="node"><title>Node31</title>
<polygon fill="white" stroke="#bfbfbf" points="1202,-174 1202,-193 1240,-193 1240,-174 1202,-174"/>
<text text-anchor="middle" x="1221" y="-181" font-family="Helvetica,sans-Serif" font-size="10.00">map</text>
</g>
<!-- Node29&#45;&gt;Node31 -->
<g id="edge42" class="edge"><title>Node29&#45;&gt;Node31</title>
<path fill="none" stroke="midnightblue" d="M1056.81,-240.961C1092.31,-232.213 1147.25,-217.321 1193,-199 1194.2,-198.519 1195.42,-198.004 1196.64,-197.464"/>
<polygon fill="midnightblue" stroke="midnightblue" points="1198.36,-200.521 1205.85,-193.026 1195.32,-194.215 1198.36,-200.521"/>
</g>
<!-- Node32 -->
<g id="node32" class="node"><title>Node32</title>
<polygon fill="white" stroke="#bfbfbf" points="1258.5,-174 1258.5,-193 1315.5,-193 1315.5,-174 1258.5,-174"/>
<text text-anchor="middle" x="1287" y="-181" font-family="Helvetica,sans-Serif" font-size="10.00">memory</text>
</g>
<!-- Node29&#45;&gt;Node32 -->
<g id="edge43" class="edge"><title>Node29&#45;&gt;Node32</title>
<path fill="none" stroke="midnightblue" d="M1068.33,-240.989C1115.05,-232.262 1187.57,-217.384 1249,-199 1251.57,-198.229 1254.22,-197.367 1256.87,-196.458"/>
<polygon fill="midnightblue" stroke="midnightblue" points="1258.08,-199.742 1266.28,-193.038 1255.69,-193.163 1258.08,-199.742"/>
</g>
<!-- Node33 -->
<g id="node33" class="node"><title>Node33</title>
<polygon fill="white" stroke="#bfbfbf" points="1334,-174 1334,-193 1378,-193 1378,-174 1334,-174"/>
<text text-anchor="middle" x="1356" y="-181" font-family="Helvetica,sans-Serif" font-size="10.00">string</text>
</g>
<!-- Node29&#45;&gt;Node33 -->
<g id="edge44" class="edge"><title>Node29&#45;&gt;Node33</title>
<path fill="none" stroke="midnightblue" d="M1069.88,-240.939C1081.41,-238.975 1093.63,-236.904 1105,-235 1202.28,-218.706 1229.6,-227.602 1324,-199 1325.93,-198.416 1327.89,-197.742 1329.84,-197.011"/>
<polygon fill="midnightblue" stroke="midnightblue" points="1331.5,-200.111 1339.38,-193.027 1328.8,-193.652 1331.5,-200.111"/>
</g>
<!-- Node34 -->
<g id="node34" class="node"><title>Node34</title>
<polygon fill="white" stroke="#bfbfbf" points="1472.5,-174 1472.5,-193 1519.5,-193 1519.5,-174 1472.5,-174"/>
<text text-anchor="middle" x="1496" y="-181" font-family="Helvetica,sans-Serif" font-size="10.00">vector</text>
</g>
<!-- Node29&#45;&gt;Node34 -->
<g id="edge45" class="edge"><title>Node29&#45;&gt;Node34</title>
<path fill="none" stroke="midnightblue" d="M1082.72,-240.936C1184.59,-227.025 1382.59,-199.986 1461.92,-189.153"/>
<polygon fill="midnightblue" stroke="midnightblue" points="1462.87,-192.556 1472.31,-187.735 1461.93,-185.621 1462.87,-192.556"/>
</g>
<!-- Node30&#45;&gt;Node11 -->
<g id="edge41" class="edge"><title>Node30&#45;&gt;Node11</title>
<path fill="none" stroke="midnightblue" d="M1104.53,-173.975C1089.32,-164.343 1064.31,-148.517 1046.2,-137.052"/>
<polygon fill="midnightblue" stroke="midnightblue" points="1047.76,-133.9 1037.44,-131.509 1044.02,-139.815 1047.76,-133.9"/>
</g>
<!-- Node35&#45;&gt;Node3 -->
<g id="edge47" class="edge"><title>Node35&#45;&gt;Node3</title>
<path fill="none" stroke="midnightblue" d="M1672.18,-442.415C1801,-428.681 2029.22,-395.949 2079,-333 2106.02,-298.836 2105.24,-269.768 2079,-235 2065.36,-216.918 2012.54,-203.375 1968.12,-194.89"/>
<polygon fill="midnightblue" stroke="midnightblue" points="1968.67,-191.433 1958.2,-193.051 1967.4,-198.316 1968.67,-191.433"/>
</g>
<!-- Node35&#45;&gt;Node10 -->
<g id="edge66" class="edge"><title>Node35&#45;&gt;Node10</title>
<path fill="none" stroke="midnightblue" d="M1535.64,-436.477C1441.02,-408.727 1221.67,-345.721 1035,-302 967.852,-286.273 890.007,-271.327 838.162,-261.834"/>
<polygon fill="midnightblue" stroke="midnightblue" points="838.616,-258.36 828.151,-260.01 837.361,-265.246 838.616,-258.36"/>
</g>
<!-- Node35&#45;&gt;Node34 -->
<g id="edge49" class="edge"><title>Node35&#45;&gt;Node34</title>
<path fill="none" stroke="midnightblue" d="M1569.16,-436.181C1560.69,-426.647 1550.3,-413.44 1544,-400 1535.57,-382.01 1509.3,-251.788 1499.63,-202.942"/>
<polygon fill="midnightblue" stroke="midnightblue" points="1503.06,-202.233 1497.68,-193.1 1496.19,-203.589 1503.06,-202.233"/>
</g>
<!-- Node36 -->
<g id="node36" class="node"><title>Node36</title>
<polygon fill="white" stroke="#bfbfbf" points="2068,-174 2068,-193 2100,-193 2100,-174 2068,-174"/>
<text text-anchor="middle" x="2084" y="-181" font-family="Helvetica,sans-Serif" font-size="10.00">set</text>
</g>
<!-- Node35&#45;&gt;Node36 -->
<g id="edge48" class="edge"><title>Node35&#45;&gt;Node36</title>
<path fill="none" stroke="midnightblue" d="M1672.25,-450.368C1757.01,-447.744 1886.9,-437.156 1993,-400 2046.67,-381.205 2074.25,-382.633 2102,-333 2125.48,-291.009 2105.55,-232.029 2092.74,-202.636"/>
<polygon fill="midnightblue" stroke="midnightblue" points="2095.78,-200.869 2088.44,-193.232 2089.42,-203.781 2095.78,-200.869"/>
</g>
<!-- Node37 -->
<g id="node37" class="node"><title>Node37</title>
<g id="a_node37"><a xlink:href="AlignedAllocator_8hpp.html" target="_top" xlink:title="Core/Containers/AlignedAllocator.hpp">
<polygon fill="white" stroke="black" points="2185,-375 2185,-394 2379,-394 2379,-375 2185,-375"/>
<text text-anchor="middle" x="2282" y="-382" font-family="Helvetica,sans-Serif" font-size="10.00">Core/Containers/AlignedAllocator.hpp</text>
</a>
</g>
</g>
<!-- Node35&#45;&gt;Node37 -->
<g id="edge50" class="edge"><title>Node35&#45;&gt;Node37</title>
<path fill="none" stroke="midnightblue" d="M1672.24,-443.334C1784.83,-434.128 1984.4,-417.267 2155,-400 2169.53,-398.529 2184.98,-396.856 2199.92,-395.183"/>
<polygon fill="midnightblue" stroke="midnightblue" points="2200.62,-398.626 2210.17,-394.026 2199.84,-391.67 2200.62,-398.626"/>
</g>
<!-- Node42 -->
<g id="node42" class="node"><title>Node42</title>
<g id="a_node42"><a xlink:href="Log_8hpp.html" target="_top" xlink:title="Core/Log/Log.hpp">
<polygon fill="white" stroke="black" points="1374.5,-308 1374.5,-327 1475.5,-327 1475.5,-308 1374.5,-308"/>
<text text-anchor="middle" x="1425" y="-315" font-family="Helvetica,sans-Serif" font-size="10.00">Core/Log/Log.hpp</text>
</a>
</g>
</g>
<!-- Node35&#45;&gt;Node42 -->
<g id="edge56" class="edge"><title>Node35&#45;&gt;Node42</title>
<path fill="none" stroke="midnightblue" d="M1561.29,-436.488C1546.68,-426.768 1527.2,-413.235 1511,-400 1484.99,-378.748 1457.17,-351.451 1440.44,-334.465"/>
<polygon fill="midnightblue" stroke="midnightblue" points="1442.66,-331.732 1433.17,-327.027 1437.65,-336.625 1442.66,-331.732"/>
</g>
<!-- Node46 -->
<g id="node46" class="node"><title>Node46</title>
<g id="a_node46"><a xlink:href="RenderParameters_8inl.html" target="_top" xlink:title="Engine/Renderer/RenderTechnique\l/RenderParameters.inl">
<polygon fill="white" stroke="black" points="1553,-369.5 1553,-399.5 1731,-399.5 1731,-369.5 1553,-369.5"/>
<text text-anchor="start" x="1561" y="-387.5" font-family="Helvetica,sans-Serif" font-size="10.00">Engine/Renderer/RenderTechnique</text>
<text text-anchor="middle" x="1642" y="-376.5" font-family="Helvetica,sans-Serif" font-size="10.00">/RenderParameters.inl</text>
</a>
</g>
</g>
<!-- Node35&#45;&gt;Node46 -->
<g id="edge67" class="edge"><title>Node35&#45;&gt;Node46</title>
<path fill="none" stroke="midnightblue" d="M1595.8,-436.396C1603.53,-427.878 1613.55,-416.847 1622.27,-407.233"/>
<polygon fill="midnightblue" stroke="midnightblue" points="1625.09,-409.333 1629.22,-399.577 1619.91,-404.629 1625.09,-409.333"/>
</g>
<!-- Node37&#45;&gt;Node11 -->
<g id="edge51" class="edge"><title>Node37&#45;&gt;Node11</title>
<path fill="none" stroke="midnightblue" d="M2261.24,-374.866C2242.82,-366.381 2216.09,-351.956 2198,-333 2140.47,-272.725 2179.65,-212.174 2109,-168 2065.28,-140.666 1303.87,-127.186 1083.37,-123.844"/>
<polygon fill="midnightblue" stroke="midnightblue" points="1083.34,-120.343 1073.29,-123.692 1083.23,-127.342 1083.34,-120.343"/>
</g>
<!-- Node38 -->
<g id="node38" class="node"><title>Node38</title>
<polygon fill="white" stroke="#bfbfbf" points="2340,-308 2340,-327 2422,-327 2422,-308 2340,-308"/>
<text text-anchor="middle" x="2381" y="-315" font-family="Helvetica,sans-Serif" font-size="10.00">mm_malloc.h</text>
</g>
<!-- Node37&#45;&gt;Node38 -->
<g id="edge52" class="edge"><title>Node37&#45;&gt;Node38</title>
<path fill="none" stroke="midnightblue" d="M2295.35,-374.734C2311.75,-363.964 2339.8,-345.55 2359.31,-332.739"/>
<polygon fill="midnightblue" stroke="midnightblue" points="2361.42,-335.542 2367.86,-327.127 2357.58,-329.69 2361.42,-335.542"/>
</g>
<!-- Node39 -->
<g id="node39" class="node"><title>Node39</title>
<polygon fill="white" stroke="#bfbfbf" points="2440,-308 2440,-327 2492,-327 2492,-308 2440,-308"/>
<text text-anchor="middle" x="2466" y="-315" font-family="Helvetica,sans-Serif" font-size="10.00">cstddef</text>
</g>
<!-- Node37&#45;&gt;Node39 -->
<g id="edge53" class="edge"><title>Node37&#45;&gt;Node39</title>
<path fill="none" stroke="midnightblue" d="M2308.83,-374.995C2338.81,-365.358 2388.69,-348.914 2431,-333 2432.85,-332.305 2434.74,-331.574 2436.65,-330.825"/>
<polygon fill="midnightblue" stroke="midnightblue" points="2438.14,-333.998 2446.1,-327.01 2435.52,-327.507 2438.14,-333.998"/>
</g>
<!-- Node40 -->
<g id="node40" class="node"><title>Node40</title>
<polygon fill="white" stroke="#bfbfbf" points="2207.5,-308 2207.5,-327 2256.5,-327 2256.5,-308 2207.5,-308"/>
<text text-anchor="middle" x="2232" y="-315" font-family="Helvetica,sans-Serif" font-size="10.00">cstdint</text>
</g>
<!-- Node37&#45;&gt;Node40 -->
<g id="edge54" class="edge"><title>Node37&#45;&gt;Node40</title>
<path fill="none" stroke="midnightblue" d="M2275.26,-374.734C2267.46,-364.598 2254.45,-347.69 2244.74,-335.056"/>
<polygon fill="midnightblue" stroke="midnightblue" points="2247.51,-332.92 2238.64,-327.127 2241.96,-337.188 2247.51,-332.92"/>
</g>
<!-- Node41 -->
<g id="node41" class="node"><title>Node41</title>
<polygon fill="white" stroke="#bfbfbf" points="2274.5,-308 2274.5,-327 2321.5,-327 2321.5,-308 2274.5,-308"/>
<text text-anchor="middle" x="2298" y="-315" font-family="Helvetica,sans-Serif" font-size="10.00">cstdlib</text>
</g>
<!-- Node37&#45;&gt;Node41 -->
<g id="edge55" class="edge"><title>Node37&#45;&gt;Node41</title>
<path fill="none" stroke="midnightblue" d="M2284.16,-374.734C2286.53,-365.085 2290.42,-349.3 2293.47,-336.906"/>
<polygon fill="midnightblue" stroke="midnightblue" points="2296.88,-337.674 2295.88,-327.127 2290.09,-336.001 2296.88,-337.674"/>
</g>
<!-- Node42&#45;&gt;Node8 -->
<g id="edge58" class="edge"><title>Node42&#45;&gt;Node8</title>
<path fill="none" stroke="midnightblue" d="M1475.63,-310.005C1496.75,-307.381 1521.55,-304.409 1544,-302 1630.1,-292.762 1857.13,-309.514 1932,-266 1970.22,-243.788 1989,-228.702 1989,-184.5 1989,-184.5 1989,-184.5 1989,-121 1989,-88.948 1989,-51.6426 1989,-29.7489"/>
<polygon fill="midnightblue" stroke="midnightblue" points="1992.5,-29.5577 1989,-19.5578 1985.5,-29.5578 1992.5,-29.5577"/>
</g>
<!-- Node42&#45;&gt;Node11 -->
<g id="edge57" class="edge"><title>Node42&#45;&gt;Node11</title>
<path fill="none" stroke="midnightblue" d="M1374.24,-308.883C1357.62,-306.514 1339.04,-304.001 1322,-302 1279.66,-297.027 968.697,-297.528 940,-266 896.522,-218.232 998.354,-206.307 1004,-199 1016.74,-182.509 1021.4,-158.639 1023.08,-142.068"/>
<polygon fill="midnightblue" stroke="midnightblue" points="1026.58,-142.174 1023.84,-131.942 1019.6,-141.655 1026.58,-142.174"/>
</g>
<!-- Node42&#45;&gt;Node33 -->
<g id="edge60" class="edge"><title>Node42&#45;&gt;Node33</title>
<path fill="none" stroke="midnightblue" d="M1388.64,-307.993C1379.32,-305.923 1369.31,-303.792 1360,-302 1310.92,-292.555 1170.39,-304.063 1138,-266 1050.38,-163.025 1050.04,-286.249 1324,-199 1325.87,-198.403 1327.78,-197.726 1329.69,-197"/>
<polygon fill="midnightblue" stroke="midnightblue" points="1331.15,-200.182 1339.02,-193.085 1328.44,-193.727 1331.15,-200.182"/>
</g>
<!-- Node43 -->
<g id="node43" class="node"><title>Node43</title>
<polygon fill="white" stroke="#bfbfbf" points="1209.5,-241 1209.5,-260 1258.5,-260 1258.5,-241 1209.5,-241"/>
<text text-anchor="middle" x="1234" y="-248" font-family="Helvetica,sans-Serif" font-size="10.00">stdio.h</text>
</g>
<!-- Node42&#45;&gt;Node43 -->
<g id="edge59" class="edge"><title>Node42&#45;&gt;Node43</title>
<path fill="none" stroke="midnightblue" d="M1398.27,-307.934C1367.83,-298.108 1316.67,-281.369 1273,-266 1270.76,-265.211 1268.45,-264.385 1266.12,-263.545"/>
<polygon fill="midnightblue" stroke="midnightblue" points="1267.23,-260.223 1256.64,-260.069 1264.82,-266.796 1267.23,-260.223"/>
</g>
<!-- Node44 -->
<g id="node44" class="node"><title>Node44</title>
<g id="a_node44"><a xlink:href="StringUtils_8hpp.html" target="_top" xlink:title="Core/String/StringUtils.hpp">
<polygon fill="white" stroke="black" points="1353,-241 1353,-260 1497,-260 1497,-241 1353,-241"/>
<text text-anchor="middle" x="1425" y="-248" font-family="Helvetica,sans-Serif" font-size="10.00">Core/String/StringUtils.hpp</text>
</a>
</g>
</g>
<!-- Node42&#45;&gt;Node44 -->
<g id="edge61" class="edge"><title>Node42&#45;&gt;Node44</title>
<path fill="none" stroke="midnightblue" d="M1425,-307.734C1425,-298.183 1425,-282.618 1425,-270.283"/>
<polygon fill="midnightblue" stroke="midnightblue" points="1428.5,-270.127 1425,-260.127 1421.5,-270.127 1428.5,-270.127"/>
</g>
<!-- Node45 -->
<g id="node45" class="node"><title>Node45</title>
<polygon fill="white" stroke="#bfbfbf" points="1147,-241 1147,-260 1191,-260 1191,-241 1147,-241"/>
<text text-anchor="middle" x="1169" y="-248" font-family="Helvetica,sans-Serif" font-size="10.00">ctime</text>
</g>
<!-- Node42&#45;&gt;Node45 -->
<g id="edge65" class="edge"><title>Node42&#45;&gt;Node45</title>
<path fill="none" stroke="midnightblue" d="M1386.79,-307.978C1323.17,-293.782 1202.23,-266.762 1200,-266 1198.34,-265.432 1196.65,-264.802 1194.95,-264.132"/>
<polygon fill="midnightblue" stroke="midnightblue" points="1196.02,-260.781 1185.46,-260.005 1193.23,-267.201 1196.02,-260.781"/>
</g>
<!-- Node44&#45;&gt;Node11 -->
<g id="edge62" class="edge"><title>Node44&#45;&gt;Node11</title>
<path fill="none" stroke="midnightblue" d="M1423.75,-240.873C1420.78,-223.822 1411.62,-185.909 1387,-168 1339.84,-133.693 1173.49,-125.45 1083.26,-123.531"/>
<polygon fill="midnightblue" stroke="midnightblue" points="1083.25,-120.03 1073.18,-123.336 1083.11,-127.029 1083.25,-120.03"/>
</g>
<!-- Node44&#45;&gt;Node33 -->
<g id="edge63" class="edge"><title>Node44&#45;&gt;Node33</title>
<path fill="none" stroke="midnightblue" d="M1415.69,-240.734C1404.73,-230.403 1386.29,-213.037 1372.81,-200.332"/>
<polygon fill="midnightblue" stroke="midnightblue" points="1374.84,-197.437 1365.16,-193.127 1370.04,-202.532 1374.84,-197.437"/>
</g>
<!-- Node44&#45;&gt;Node34 -->
<g id="edge64" class="edge"><title>Node44&#45;&gt;Node34</title>
<path fill="none" stroke="midnightblue" d="M1434.58,-240.734C1445.97,-230.305 1465.19,-212.709 1479.1,-199.973"/>
<polygon fill="midnightblue" stroke="midnightblue" points="1481.56,-202.461 1486.58,-193.127 1476.84,-197.298 1481.56,-202.461"/>
</g>
<!-- Node47 -->
<g id="node47" class="node"><title>Node47</title>
<g id="a_node47"><a xlink:href="ShaderProgram_8hpp.html" target="_top" xlink:title="Engine/Renderer/RenderTechnique\l/ShaderProgram.hpp">
<polygon fill="white" stroke="black" points="1553,-302.5 1553,-332.5 1731,-332.5 1731,-302.5 1553,-302.5"/>
<text text-anchor="start" x="1561" y="-320.5" font-family="Helvetica,sans-Serif" font-size="10.00">Engine/Renderer/RenderTechnique</text>
<text text-anchor="middle" x="1642" y="-309.5" font-family="Helvetica,sans-Serif" font-size="10.00">/ShaderProgram.hpp</text>
</a>
</g>
</g>
<!-- Node46&#45;&gt;Node47 -->
<g id="edge68" class="edge"><title>Node46&#45;&gt;Node47</title>
<path fill="none" stroke="midnightblue" d="M1642,-369.396C1642,-361.645 1642,-351.812 1642,-342.86"/>
<polygon fill="midnightblue" stroke="midnightblue" points="1645.5,-342.576 1642,-332.577 1638.5,-342.577 1645.5,-342.576"/>
</g>
<!-- Node47&#45;&gt;Node3 -->
<g id="edge69" class="edge"><title>Node47&#45;&gt;Node3</title>
<path fill="none" stroke="midnightblue" d="M1731.37,-313.181C1806.87,-308.275 1906.67,-296.118 1932,-266 1948.01,-246.959 1930.92,-218.607 1916.75,-200.855"/>
<polygon fill="midnightblue" stroke="midnightblue" points="1919.31,-198.462 1910.18,-193.08 1913.96,-202.979 1919.31,-198.462"/>
</g>
<!-- Node47&#45;&gt;Node10 -->
<g id="edge70" class="edge"><title>Node47&#45;&gt;Node10</title>
<path fill="none" stroke="midnightblue" d="M1552.63,-307.898C1530.23,-305.853 1506.24,-303.756 1484,-302 1242.45,-282.926 1181.57,-284.936 940,-266 916.747,-264.177 891.613,-261.998 868.307,-259.89"/>
<polygon fill="midnightblue" stroke="midnightblue" points="868.369,-256.381 858.093,-258.96 867.734,-263.352 868.369,-256.381"/>
</g>
<!-- Node47&#45;&gt;Node32 -->
<g id="edge79" class="edge"><title>Node47&#45;&gt;Node32</title>
<path fill="none" stroke="midnightblue" d="M1552.63,-305.972C1467.56,-295.306 1349.91,-278.624 1332,-266 1310.36,-250.752 1297.99,-221.659 1291.89,-202.676"/>
<polygon fill="midnightblue" stroke="midnightblue" points="1295.25,-201.685 1289.06,-193.084 1288.53,-203.666 1295.25,-201.685"/>
</g>
<!-- Node47&#45;&gt;Node33 -->
<g id="edge80" class="edge"><title>Node47&#45;&gt;Node33</title>
<path fill="none" stroke="midnightblue" d="M1552.65,-307.196C1469.86,-297.654 1357.5,-281.984 1344,-266 1329.05,-248.301 1337.83,-220.366 1346.29,-202.237"/>
<polygon fill="midnightblue" stroke="midnightblue" points="1349.42,-203.805 1350.8,-193.301 1343.17,-200.648 1349.42,-203.805"/>
</g>
<!-- Node48 -->
<g id="node48" class="node"><title>Node48</title>
<g id="a_node48"><a xlink:href="OpenGL_8hpp.html" target="_top" xlink:title="Engine/Renderer/OpenGL\l/OpenGL.hpp">
<polygon fill="white" stroke="red" points="1787,-235.5 1787,-265.5 1923,-265.5 1923,-235.5 1787,-235.5"/>
<text text-anchor="start" x="1795" y="-253.5" font-family="Helvetica,sans-Serif" font-size="10.00">Engine/Renderer/OpenGL</text>
<text text-anchor="middle" x="1855" y="-242.5" font-family="Helvetica,sans-Serif" font-size="10.00">/OpenGL.hpp</text>
</a>
</g>
</g>
<!-- Node47&#45;&gt;Node48 -->
<g id="edge71" class="edge"><title>Node47&#45;&gt;Node48</title>
<path fill="none" stroke="midnightblue" d="M1687.96,-302.476C1720.46,-292.557 1764.23,-279.201 1798.81,-268.648"/>
<polygon fill="midnightblue" stroke="midnightblue" points="1800.22,-271.877 1808.76,-265.611 1798.17,-265.182 1800.22,-271.877"/>
</g>
<!-- Node49 -->
<g id="node49" class="node"><title>Node49</title>
<g id="a_node49"><a xlink:href="ShaderConfiguration_8hpp.html" target="_top" xlink:title="Engine/Renderer/RenderTechnique\l/ShaderConfiguration.hpp">
<polygon fill="white" stroke="red" points="1553,-235.5 1553,-265.5 1731,-265.5 1731,-235.5 1553,-235.5"/>
<text text-anchor="start" x="1561" y="-253.5" font-family="Helvetica,sans-Serif" font-size="10.00">Engine/Renderer/RenderTechnique</text>
<text text-anchor="middle" x="1642" y="-242.5" font-family="Helvetica,sans-Serif" font-size="10.00">/ShaderConfiguration.hpp</text>
</a>
</g>
</g>
<!-- Node47&#45;&gt;Node49 -->
<g id="edge72" class="edge"><title>Node47&#45;&gt;Node49</title>
<path fill="none" stroke="midnightblue" d="M1642,-302.396C1642,-294.645 1642,-284.812 1642,-275.86"/>
<polygon fill="midnightblue" stroke="midnightblue" points="1645.5,-275.576 1642,-265.577 1638.5,-275.577 1645.5,-275.576"/>
</g>
<!-- Node50 -->
<g id="node50" class="node"><title>Node50</title>
<polygon fill="white" stroke="#bfbfbf" points="1679.5,-174 1679.5,-193 1720.5,-193 1720.5,-174 1679.5,-174"/>
<text text-anchor="middle" x="1700" y="-181" font-family="Helvetica,sans-Serif" font-size="10.00">array</text>
</g>
<!-- Node47&#45;&gt;Node50 -->
<g id="edge78" class="edge"><title>Node47&#45;&gt;Node50</title>
<path fill="none" stroke="midnightblue" d="M1693.15,-302.428C1711.17,-294.738 1729.54,-283.159 1740,-266 1753.33,-244.142 1733.64,-217.213 1717.47,-200.446"/>
<polygon fill="midnightblue" stroke="midnightblue" points="1719.56,-197.599 1709.97,-193.099 1714.66,-202.598 1719.56,-197.599"/>
</g>
<!-- Node49&#45;&gt;Node3 -->
<g id="edge73" class="edge"><title>Node49&#45;&gt;Node3</title>
<path fill="none" stroke="midnightblue" d="M1698.1,-235.476C1746.02,-223.496 1814,-206.501 1858.05,-195.488"/>
<polygon fill="midnightblue" stroke="midnightblue" points="1859.03,-198.85 1867.89,-193.029 1857.34,-192.059 1859.03,-198.85"/>
</g>
<!-- Node49&#45;&gt;Node33 -->
<g id="edge76" class="edge"><title>Node49&#45;&gt;Node33</title>
<path fill="none" stroke="midnightblue" d="M1580.29,-235.476C1521.21,-222.048 1434.41,-202.32 1388.02,-191.777"/>
<polygon fill="midnightblue" stroke="midnightblue" points="1388.74,-188.352 1378.22,-189.549 1387.19,-195.178 1388.74,-188.352"/>
</g>
<!-- Node49&#45;&gt;Node34 -->
<g id="edge77" class="edge"><title>Node49&#45;&gt;Node34</title>
<path fill="none" stroke="midnightblue" d="M1610.32,-235.396C1584.7,-223.991 1548.96,-208.079 1524.3,-197.098"/>
<polygon fill="midnightblue" stroke="midnightblue" points="1525.67,-193.877 1515.11,-193.007 1522.82,-200.272 1525.67,-193.877"/>
</g>
<!-- Node49&#45;&gt;Node36 -->
<g id="edge75" class="edge"><title>Node49&#45;&gt;Node36</title>
<path fill="none" stroke="midnightblue" d="M1731.18,-236.385C1833.23,-221.377 1994.39,-197.678 2057.45,-188.404"/>
<polygon fill="midnightblue" stroke="midnightblue" points="2058.33,-191.812 2067.72,-186.894 2057.32,-184.886 2058.33,-191.812"/>
</g>
<!-- Node49&#45;&gt;Node50 -->
<g id="edge74" class="edge"><title>Node49&#45;&gt;Node50</title>
<path fill="none" stroke="midnightblue" d="M1654.59,-235.396C1663.63,-225.261 1675.85,-211.567 1685.33,-200.937"/>
<polygon fill="midnightblue" stroke="midnightblue" points="1688.2,-202.986 1692.24,-193.195 1682.97,-198.326 1688.2,-202.986"/>
</g>
</g>
</svg>
