<?xml version="1.0" encoding="UTF-8" standalone="no"?>
<!DOCTYPE svg PUBLIC "-//W3C//DTD SVG 1.1//EN"
 "http://www.w3.org/Graphics/SVG/1.1/DTD/svg11.dtd">
<!-- Generated by graphviz version 2.38.0 (20140413.2041)
 -->
<!-- Title: /home/travis/build/STORM&#45;IRIT/Radium&#45;Engine/src/Engine/Managers/LightManager/LightManager.hpp Pages: 1 -->
<svg width="1329pt" height="609pt"
 viewBox="0.00 0.00 1329.29 609.00" xmlns="http://www.w3.org/2000/svg" xmlns:xlink="http://www.w3.org/1999/xlink">
<g id="graph0" class="graph" transform="scale(1 1) rotate(0) translate(4 605)">
<title>/home/travis/build/STORM&#45;IRIT/Radium&#45;Engine/src/Engine/Managers/LightManager/LightManager.hpp</title>
<polygon fill="white" stroke="none" points="-4,4 -4,-605 1325.29,-605 1325.29,4 -4,4"/>
<!-- Node1 -->
<g id="node1" class="node"><title>Node1</title>
<polygon fill="#bfbfbf" stroke="black" points="45.2876,-548.5 45.2876,-600.5 233.288,-600.5 233.288,-548.5 45.2876,-548.5"/>
<text text-anchor="start" x="53.2876" y="-588.5" font-family="Helvetica,sans-Serif" font-size="10.00">/home/travis/build</text>
<text text-anchor="start" x="53.2876" y="-577.5" font-family="Helvetica,sans-Serif" font-size="10.00">/STORM&#45;IRIT/Radium&#45;Engine</text>
<text text-anchor="start" x="53.2876" y="-566.5" font-family="Helvetica,sans-Serif" font-size="10.00">/src/Engine/Managers/LightManager</text>
<text text-anchor="middle" x="139.288" y="-555.5" font-family="Helvetica,sans-Serif" font-size="10.00">/LightManager.hpp</text>
</g>
<!-- Node2 -->
<g id="node2" class="node"><title>Node2</title>
<g id="a_node2"><a xlink:href="RaEngine_8hpp.html" target="_top" xlink:title="Engine/RaEngine.hpp">
<polygon fill="white" stroke="black" points="110.788,-291.5 110.788,-310.5 227.788,-310.5 227.788,-291.5 110.788,-291.5"/>
<text text-anchor="middle" x="169.288" y="-298.5" font-family="Helvetica,sans-Serif" font-size="10.00">Engine/RaEngine.hpp</text>
</a>
</g>
</g>
<!-- Node1&#45;&gt;Node2 -->
<g id="edge1" class="edge"><title>Node1&#45;&gt;Node2</title>
<path fill="none" stroke="midnightblue" d="M46.553,-548.39C29.8078,-539.607 14.4596,-527.812 4.2876,-512 -3.16665,-500.413 1.00323,-494.381 4.2876,-481 20.3049,-415.745 25.8577,-393.576 74.2876,-347 89.8575,-332.026 111.339,-321.279 129.937,-314.051"/>
<polygon fill="midnightblue" stroke="midnightblue" points="131.175,-317.325 139.353,-310.588 128.759,-310.755 131.175,-317.325"/>
</g>
<!-- Node9 -->
<g id="node9" class="node"><title>Node9</title>
<g id="a_node9"><a xlink:href="System_8hpp.html" target="_top" xlink:title="Engine/System/System.hpp">
<polygon fill="white" stroke="black" points="13.7876,-487 13.7876,-506 162.788,-506 162.788,-487 13.7876,-487"/>
<text text-anchor="middle" x="88.2876" y="-494" font-family="Helvetica,sans-Serif" font-size="10.00">Engine/System/System.hpp</text>
</a>
</g>
</g>
<!-- Node1&#45;&gt;Node9 -->
<g id="edge8" class="edge"><title>Node1&#45;&gt;Node9</title>
<path fill="none" stroke="midnightblue" d="M122.305,-548.193C114.927,-537.198 106.474,-524.602 99.8403,-514.716"/>
<polygon fill="midnightblue" stroke="midnightblue" points="102.61,-512.562 94.1317,-506.209 96.7977,-516.463 102.61,-512.562"/>
</g>
<!-- Node10 -->
<g id="node10" class="node"><title>Node10</title>
<polygon fill="white" stroke="#bfbfbf" points="129.788,-420 129.788,-439 186.788,-439 186.788,-420 129.788,-420"/>
<text text-anchor="middle" x="158.288" y="-427" font-family="Helvetica,sans-Serif" font-size="10.00">memory</text>
</g>
<!-- Node1&#45;&gt;Node10 -->
<g id="edge46" class="edge"><title>Node1&#45;&gt;Node10</title>
<path fill="none" stroke="midnightblue" d="M155.91,-548.262C162.021,-537.545 168.199,-524.627 171.288,-512 176.538,-490.536 170.744,-465.356 165.308,-448.726"/>
<polygon fill="midnightblue" stroke="midnightblue" points="168.554,-447.408 161.907,-439.158 161.958,-449.752 168.554,-447.408"/>
</g>
<!-- Node12 -->
<g id="node12" class="node"><title>Node12</title>
<g id="a_node12"><a xlink:href="LightStorage_8hpp.html" target="_top" xlink:title="Engine/Managers/LightManager\l/LightStorage.hpp">
<polygon fill="white" stroke="black" points="217.788,-481.5 217.788,-511.5 384.788,-511.5 384.788,-481.5 217.788,-481.5"/>
<text text-anchor="start" x="225.788" y="-499.5" font-family="Helvetica,sans-Serif" font-size="10.00">Engine/Managers/LightManager</text>
<text text-anchor="middle" x="301.288" y="-488.5" font-family="Helvetica,sans-Serif" font-size="10.00">/LightStorage.hpp</text>
</a>
</g>
</g>
<!-- Node1&#45;&gt;Node12 -->
<g id="edge12" class="edge"><title>Node1&#45;&gt;Node12</title>
<path fill="none" stroke="midnightblue" d="M192.781,-548.404C215.319,-537.831 241.081,-525.745 261.846,-516.004"/>
<polygon fill="midnightblue" stroke="midnightblue" points="263.438,-519.122 271.005,-511.707 260.465,-512.785 263.438,-519.122"/>
</g>
<!-- Node3 -->
<g id="node3" class="node"><title>Node3</title>
<g id="a_node3"><a xlink:href="CoreMacros_8hpp.html" target="_top" xlink:title="Core/CoreMacros.hpp">
<polygon fill="white" stroke="black" points="241.288,-56.5 241.288,-75.5 361.288,-75.5 361.288,-56.5 241.288,-56.5"/>
<text text-anchor="middle" x="301.288" y="-63.5" font-family="Helvetica,sans-Serif" font-size="10.00">Core/CoreMacros.hpp</text>
</a>
</g>
</g>
<!-- Node2&#45;&gt;Node3 -->
<g id="edge2" class="edge"><title>Node2&#45;&gt;Node3</title>
<path fill="none" stroke="midnightblue" d="M170.718,-291.471C174.63,-269.711 186.879,-210.833 211.288,-168 230.808,-133.745 263.428,-100.985 283.574,-82.4888"/>
<polygon fill="midnightblue" stroke="midnightblue" points="286.035,-84.9824 291.123,-75.6895 281.35,-79.781 286.035,-84.9824"/>
</g>
<!-- Node4 -->
<g id="node4" class="node"><title>Node4</title>
<polygon fill="white" stroke="#bfbfbf" points="138.288,-0.5 138.288,-19.5 190.288,-19.5 190.288,-0.5 138.288,-0.5"/>
<text text-anchor="middle" x="164.288" y="-7.5" font-family="Helvetica,sans-Serif" font-size="10.00">cassert</text>
</g>
<!-- Node3&#45;&gt;Node4 -->
<g id="edge3" class="edge"><title>Node3&#45;&gt;Node4</title>
<path fill="none" stroke="midnightblue" d="M279.58,-56.4435C256.933,-47.5171 221.215,-33.4387 195.536,-23.3168"/>
<polygon fill="midnightblue" stroke="midnightblue" points="196.481,-19.9273 185.894,-19.5164 193.914,-26.4397 196.481,-19.9273"/>
</g>
<!-- Node5 -->
<g id="node5" class="node"><title>Node5</title>
<polygon fill="white" stroke="#bfbfbf" points="208.788,-0.5 208.788,-19.5 253.788,-19.5 253.788,-0.5 208.788,-0.5"/>
<text text-anchor="middle" x="231.288" y="-7.5" font-family="Helvetica,sans-Serif" font-size="10.00">cstdio</text>
</g>
<!-- Node3&#45;&gt;Node5 -->
<g id="edge4" class="edge"><title>Node3&#45;&gt;Node5</title>
<path fill="none" stroke="midnightblue" d="M290.041,-56.324C279.49,-48.1849 263.487,-35.8395 250.845,-26.0874"/>
<polygon fill="midnightblue" stroke="midnightblue" points="252.795,-23.1707 242.739,-19.8339 248.519,-28.7132 252.795,-23.1707"/>
</g>
<!-- Node6 -->
<g id="node6" class="node"><title>Node6</title>
<polygon fill="white" stroke="#bfbfbf" points="271.788,-0.5 271.788,-19.5 330.788,-19.5 330.788,-0.5 271.788,-0.5"/>
<text text-anchor="middle" x="301.288" y="-7.5" font-family="Helvetica,sans-Serif" font-size="10.00">iostream</text>
</g>
<!-- Node3&#45;&gt;Node6 -->
<g id="edge5" class="edge"><title>Node3&#45;&gt;Node6</title>
<path fill="none" stroke="midnightblue" d="M301.288,-56.083C301.288,-49.0059 301.288,-38.8611 301.288,-29.9865"/>
<polygon fill="midnightblue" stroke="midnightblue" points="304.788,-29.751 301.288,-19.7511 297.788,-29.7511 304.788,-29.751"/>
</g>
<!-- Node7 -->
<g id="node7" class="node"><title>Node7</title>
<polygon fill="white" stroke="#bfbfbf" points="349.288,-0.5 349.288,-19.5 405.288,-19.5 405.288,-0.5 349.288,-0.5"/>
<text text-anchor="middle" x="377.288" y="-7.5" font-family="Helvetica,sans-Serif" font-size="10.00">sstream</text>
</g>
<!-- Node3&#45;&gt;Node7 -->
<g id="edge6" class="edge"><title>Node3&#45;&gt;Node7</title>
<path fill="none" stroke="midnightblue" d="M313.498,-56.324C325.063,-48.1066 342.663,-35.6017 356.448,-25.8069"/>
<polygon fill="midnightblue" stroke="midnightblue" points="358.73,-28.4791 364.855,-19.8339 354.676,-22.7729 358.73,-28.4791"/>
</g>
<!-- Node8 -->
<g id="node8" class="node"><title>Node8</title>
<polygon fill="white" stroke="#bfbfbf" points="423.288,-0.5 423.288,-19.5 471.288,-19.5 471.288,-0.5 423.288,-0.5"/>
<text text-anchor="middle" x="447.288" y="-7.5" font-family="Helvetica,sans-Serif" font-size="10.00">thread</text>
</g>
<!-- Node3&#45;&gt;Node8 -->
<g id="edge7" class="edge"><title>Node3&#45;&gt;Node8</title>
<path fill="none" stroke="midnightblue" d="M324.422,-56.4435C348.77,-47.4381 387.295,-33.1891 414.711,-23.049"/>
<polygon fill="midnightblue" stroke="midnightblue" points="416.097,-26.2681 424.262,-19.5164 413.668,-19.7028 416.097,-26.2681"/>
</g>
<!-- Node9&#45;&gt;Node2 -->
<g id="edge9" class="edge"><title>Node9&#45;&gt;Node2</title>
<path fill="none" stroke="midnightblue" d="M80.19,-486.906C67.188,-472.013 44.1879,-440.465 55.2876,-414 73.7021,-370.094 118.653,-334.725 146.29,-316.177"/>
<polygon fill="midnightblue" stroke="midnightblue" points="148.468,-318.935 154.936,-310.543 144.647,-313.07 148.468,-318.935"/>
</g>
<!-- Node9&#45;&gt;Node10 -->
<g id="edge10" class="edge"><title>Node9&#45;&gt;Node10</title>
<path fill="none" stroke="midnightblue" d="M97.7281,-486.734C108.959,-476.305 127.909,-458.709 141.624,-445.973"/>
<polygon fill="midnightblue" stroke="midnightblue" points="144.05,-448.497 148.997,-439.127 139.287,-443.367 144.05,-448.497"/>
</g>
<!-- Node11 -->
<g id="node11" class="node"><title>Node11</title>
<polygon fill="white" stroke="#bfbfbf" points="64.7876,-420 64.7876,-439 111.788,-439 111.788,-420 64.7876,-420"/>
<text text-anchor="middle" x="88.2876" y="-427" font-family="Helvetica,sans-Serif" font-size="10.00">vector</text>
</g>
<!-- Node9&#45;&gt;Node11 -->
<g id="edge11" class="edge"><title>Node9&#45;&gt;Node11</title>
<path fill="none" stroke="midnightblue" d="M88.2876,-486.734C88.2876,-477.183 88.2876,-461.618 88.2876,-449.283"/>
<polygon fill="midnightblue" stroke="midnightblue" points="91.7877,-449.127 88.2876,-439.127 84.7877,-449.127 91.7877,-449.127"/>
</g>
<!-- Node12&#45;&gt;Node2 -->
<g id="edge13" class="edge"><title>Node12&#45;&gt;Node2</title>
<path fill="none" stroke="midnightblue" d="M291.581,-481.271C267.76,-446.352 206.491,-356.537 180.846,-318.944"/>
<polygon fill="midnightblue" stroke="midnightblue" points="183.665,-316.865 175.139,-310.577 177.883,-320.81 183.665,-316.865"/>
</g>
<!-- Node13 -->
<g id="node13" class="node"><title>Node13</title>
<g id="a_node13"><a xlink:href="Light_8hpp.html" target="_top" xlink:title="../../Renderer/Light\l/Light.hpp">
<polygon fill="white" stroke="black" points="290.288,-414.5 290.288,-444.5 394.288,-444.5 394.288,-414.5 290.288,-414.5"/>
<text text-anchor="start" x="298.288" y="-432.5" font-family="Helvetica,sans-Serif" font-size="10.00">../../Renderer/Light</text>
<text text-anchor="middle" x="342.288" y="-421.5" font-family="Helvetica,sans-Serif" font-size="10.00">/Light.hpp</text>
</a>
</g>
</g>
<!-- Node12&#45;&gt;Node13 -->
<g id="edge14" class="edge"><title>Node12&#45;&gt;Node13</title>
<path fill="none" stroke="midnightblue" d="M310.184,-481.396C315.396,-473.134 322.099,-462.507 328.031,-453.102"/>
<polygon fill="midnightblue" stroke="midnightblue" points="331.034,-454.902 333.409,-444.577 325.113,-451.167 331.034,-454.902"/>
</g>
<!-- Node13&#45;&gt;Node2 -->
<g id="edge15" class="edge"><title>Node13&#45;&gt;Node2</title>
<path fill="none" stroke="midnightblue" d="M322.634,-414.407C308.582,-404.309 289.235,-390.365 272.288,-378 243.227,-356.797 209.735,-332.021 189.035,-316.668"/>
<polygon fill="midnightblue" stroke="midnightblue" points="191.113,-313.852 180.997,-310.703 186.942,-319.473 191.113,-313.852"/>
</g>
<!-- Node14 -->
<g id="node14" class="node"><title>Node14</title>
<g id="a_node14"><a xlink:href="LinearAlgebra_8hpp.html" target="_top" xlink:title="Core/Math/LinearAlgebra.hpp">
<polygon fill="white" stroke="black" points="687.288,-235.5 687.288,-254.5 843.288,-254.5 843.288,-235.5 687.288,-235.5"/>
<text text-anchor="middle" x="765.288" y="-242.5" font-family="Helvetica,sans-Serif" font-size="10.00">Core/Math/LinearAlgebra.hpp</text>
</a>
</g>
</g>
<!-- Node13&#45;&gt;Node14 -->
<g id="edge16" class="edge"><title>Node13&#45;&gt;Node14</title>
<path fill="none" stroke="midnightblue" d="M394.393,-423.06C450.631,-416.249 542.346,-402.403 618.288,-378 684.725,-356.651 720.692,-368.462 760.288,-311 769.51,-297.616 769.959,-278.793 768.575,-264.845"/>
<polygon fill="midnightblue" stroke="midnightblue" points="772.038,-264.331 767.206,-254.902 765.103,-265.286 772.038,-264.331"/>
</g>
<!-- Node26 -->
<g id="node26" class="node"><title>Node26</title>
<g id="a_node26"><a xlink:href="Component_8hpp.html" target="_top" xlink:title="Engine/Component/Component.hpp">
<polygon fill="white" stroke="black" points="421.288,-353 421.288,-372 609.288,-372 609.288,-353 421.288,-353"/>
<text text-anchor="middle" x="515.288" y="-360" font-family="Helvetica,sans-Serif" font-size="10.00">Engine/Component/Component.hpp</text>
</a>
</g>
</g>
<!-- Node13&#45;&gt;Node26 -->
<g id="edge31" class="edge"><title>Node13&#45;&gt;Node26</title>
<path fill="none" stroke="midnightblue" d="M379.826,-414.396C410.584,-402.84 453.657,-386.656 482.916,-375.663"/>
<polygon fill="midnightblue" stroke="midnightblue" points="484.516,-378.801 492.646,-372.007 482.054,-372.248 484.516,-378.801"/>
</g>
<!-- Node33 -->
<g id="node33" class="node"><title>Node33</title>
<g id="a_node33"><a xlink:href="Light_8inl.html" target="_top" xlink:title="Engine/Renderer/Light\l/Light.inl">
<polygon fill="white" stroke="black" points="281.788,-347.5 281.788,-377.5 402.788,-377.5 402.788,-347.5 281.788,-347.5"/>
<text text-anchor="start" x="289.788" y="-365.5" font-family="Helvetica,sans-Serif" font-size="10.00">Engine/Renderer/Light</text>
<text text-anchor="middle" x="342.288" y="-354.5" font-family="Helvetica,sans-Serif" font-size="10.00">/Light.inl</text>
</a>
</g>
</g>
<!-- Node13&#45;&gt;Node33 -->
<g id="edge45" class="edge"><title>Node13&#45;&gt;Node33</title>
<path fill="none" stroke="midnightblue" d="M342.288,-414.396C342.288,-406.645 342.288,-396.812 342.288,-387.86"/>
<polygon fill="midnightblue" stroke="midnightblue" points="345.788,-387.576 342.288,-377.577 338.788,-387.577 345.788,-387.576"/>
</g>
<!-- Node15 -->
<g id="node15" class="node"><title>Node15</title>
<g id="a_node15"><a xlink:href="RaCore_8hpp.html" target="_top" xlink:title="Core/RaCore.hpp">
<polygon fill="white" stroke="black" points="384.288,-112.5 384.288,-131.5 482.288,-131.5 482.288,-112.5 384.288,-112.5"/>
<text text-anchor="middle" x="433.288" y="-119.5" font-family="Helvetica,sans-Serif" font-size="10.00">Core/RaCore.hpp</text>
</a>
</g>
</g>
<!-- Node14&#45;&gt;Node15 -->
<g id="edge17" class="edge"><title>Node14&#45;&gt;Node15</title>
<path fill="none" stroke="midnightblue" d="M715.187,-235.488C682.168,-228.598 638.658,-217.024 603.288,-199 583.559,-188.947 583.706,-178.64 564.288,-168 537.079,-153.092 504.022,-141.781 477.923,-134.228"/>
<polygon fill="midnightblue" stroke="midnightblue" points="478.862,-130.856 468.288,-131.517 476.966,-137.594 478.862,-130.856"/>
</g>
<!-- Node16 -->
<g id="node16" class="node"><title>Node16</title>
<polygon fill="white" stroke="#bfbfbf" points="1155.29,-174 1155.29,-193 1223.29,-193 1223.29,-174 1155.29,-174"/>
<text text-anchor="middle" x="1189.29" y="-181" font-family="Helvetica,sans-Serif" font-size="10.00">Eigen/Core</text>
</g>
<!-- Node14&#45;&gt;Node16 -->
<g id="edge19" class="edge"><title>Node14&#45;&gt;Node16</title>
<path fill="none" stroke="midnightblue" d="M843.436,-239.531C921.018,-233.983 1042.97,-222.256 1146.29,-199 1149.78,-198.215 1153.38,-197.253 1156.94,-196.201"/>
<polygon fill="midnightblue" stroke="midnightblue" points="1158.31,-199.439 1166.78,-193.071 1156.19,-192.769 1158.31,-199.439"/>
</g>
<!-- Node17 -->
<g id="node17" class="node"><title>Node17</title>
<polygon fill="white" stroke="#bfbfbf" points="461.288,-174 461.288,-193 555.288,-193 555.288,-174 461.288,-174"/>
<text text-anchor="middle" x="508.288" y="-181" font-family="Helvetica,sans-Serif" font-size="10.00">Eigen/Geometry</text>
</g>
<!-- Node14&#45;&gt;Node17 -->
<g id="edge20" class="edge"><title>Node14&#45;&gt;Node17</title>
<path fill="none" stroke="midnightblue" d="M727.693,-235.459C688.222,-226.47 624.364,-211.868 569.288,-199 564.314,-197.838 559.114,-196.615 553.938,-195.392"/>
<polygon fill="midnightblue" stroke="midnightblue" points="554.618,-191.956 544.08,-193.057 553.004,-198.767 554.618,-191.956"/>
</g>
<!-- Node18 -->
<g id="node18" class="node"><title>Node18</title>
<polygon fill="white" stroke="#bfbfbf" points="1241.29,-174 1241.29,-193 1321.29,-193 1321.29,-174 1241.29,-174"/>
<text text-anchor="middle" x="1281.29" y="-181" font-family="Helvetica,sans-Serif" font-size="10.00">Eigen/Sparse</text>
</g>
<!-- Node14&#45;&gt;Node18 -->
<g id="edge21" class="edge"><title>Node14&#45;&gt;Node18</title>
<path fill="none" stroke="midnightblue" d="M843.616,-241.037C936.922,-236.454 1097.16,-225.252 1232.29,-199 1236.77,-198.129 1241.43,-197.023 1246.01,-195.811"/>
<polygon fill="midnightblue" stroke="midnightblue" points="1247.16,-199.124 1255.83,-193.039 1245.26,-192.387 1247.16,-199.124"/>
</g>
<!-- Node19 -->
<g id="node19" class="node"><title>Node19</title>
<polygon fill="white" stroke="#bfbfbf" points="611.788,-174 611.788,-193 674.788,-193 674.788,-174 611.788,-174"/>
<text text-anchor="middle" x="643.288" y="-181" font-family="Helvetica,sans-Serif" font-size="10.00">functional</text>
</g>
<!-- Node14&#45;&gt;Node19 -->
<g id="edge22" class="edge"><title>Node14&#45;&gt;Node19</title>
<path fill="none" stroke="midnightblue" d="M747.808,-235.475C727.424,-225.534 693.512,-208.995 669.863,-197.461"/>
<polygon fill="midnightblue" stroke="midnightblue" points="671.257,-194.247 660.735,-193.009 668.189,-200.538 671.257,-194.247"/>
</g>
<!-- Node20 -->
<g id="node20" class="node"><title>Node20</title>
<polygon fill="white" stroke="#bfbfbf" points="692.788,-168.5 692.788,-198.5 837.788,-198.5 837.788,-168.5 692.788,-168.5"/>
<text text-anchor="start" x="700.788" y="-186.5" font-family="Helvetica,sans-Serif" font-size="10.00">unsupported/Eigen/Aligned</text>
<text text-anchor="middle" x="765.288" y="-175.5" font-family="Helvetica,sans-Serif" font-size="10.00">Vector3</text>
</g>
<!-- Node14&#45;&gt;Node20 -->
<g id="edge23" class="edge"><title>Node14&#45;&gt;Node20</title>
<path fill="none" stroke="midnightblue" d="M765.288,-235.475C765.288,-228.471 765.288,-218.192 765.288,-208.696"/>
<polygon fill="midnightblue" stroke="midnightblue" points="768.788,-208.523 765.288,-198.523 761.788,-208.523 768.788,-208.523"/>
</g>
<!-- Node21 -->
<g id="node21" class="node"><title>Node21</title>
<g id="a_node21"><a xlink:href="Math_8hpp.html" target="_top" xlink:title="Core/Math/Math.hpp">
<polygon fill="white" stroke="black" points="1023.29,-174 1023.29,-193 1137.29,-193 1137.29,-174 1023.29,-174"/>
<text text-anchor="middle" x="1080.29" y="-181" font-family="Helvetica,sans-Serif" font-size="10.00">Core/Math/Math.hpp</text>
</a>
</g>
</g>
<!-- Node14&#45;&gt;Node21 -->
<g id="edge24" class="edge"><title>Node14&#45;&gt;Node21</title>
<path fill="none" stroke="midnightblue" d="M815.47,-235.5C865.832,-226.835 945.583,-212.75 1014.29,-199 1020.18,-197.82 1026.36,-196.531 1032.48,-195.225"/>
<polygon fill="midnightblue" stroke="midnightblue" points="1033.61,-198.561 1042.64,-193.025 1032.13,-191.719 1033.61,-198.561"/>
</g>
<!-- Node25 -->
<g id="node25" class="node"><title>Node25</title>
<g id="a_node25"><a xlink:href="LinearAlgebra_8inl.html" target="_top" xlink:title="Core/Math/LinearAlgebra.inl">
<polygon fill="white" stroke="black" points="855.788,-174 855.788,-193 1004.79,-193 1004.79,-174 855.788,-174"/>
<text text-anchor="middle" x="930.288" y="-181" font-family="Helvetica,sans-Serif" font-size="10.00">Core/Math/LinearAlgebra.inl</text>
</a>
</g>
</g>
<!-- Node14&#45;&gt;Node25 -->
<g id="edge30" class="edge"><title>Node14&#45;&gt;Node25</title>
<path fill="none" stroke="midnightblue" d="M788.928,-235.475C817.231,-225.269 864.82,-208.108 896.874,-196.549"/>
<polygon fill="midnightblue" stroke="midnightblue" points="898.471,-199.694 906.691,-193.009 896.097,-193.109 898.471,-199.694"/>
</g>
<!-- Node15&#45;&gt;Node3 -->
<g id="edge18" class="edge"><title>Node15&#45;&gt;Node3</title>
<path fill="none" stroke="midnightblue" d="M412.372,-112.444C390.552,-103.517 356.138,-89.4387 331.395,-79.3168"/>
<polygon fill="midnightblue" stroke="midnightblue" points="332.686,-76.0634 322.106,-75.5164 330.036,-82.5422 332.686,-76.0634"/>
</g>
<!-- Node21&#45;&gt;Node15 -->
<g id="edge25" class="edge"><title>Node21&#45;&gt;Node15</title>
<path fill="none" stroke="midnightblue" d="M1045.86,-173.989C1035.74,-171.745 1024.62,-169.527 1014.29,-168 824.932,-140.005 598.118,-128.811 492.642,-124.875"/>
<polygon fill="midnightblue" stroke="midnightblue" points="492.636,-121.372 482.515,-124.505 492.381,-128.367 492.636,-121.372"/>
</g>
<!-- Node22 -->
<g id="node22" class="node"><title>Node22</title>
<polygon fill="white" stroke="#bfbfbf" points="1100.29,-112.5 1100.29,-131.5 1162.29,-131.5 1162.29,-112.5 1100.29,-112.5"/>
<text text-anchor="middle" x="1131.29" y="-119.5" font-family="Helvetica,sans-Serif" font-size="10.00">algorithm</text>
</g>
<!-- Node21&#45;&gt;Node22 -->
<g id="edge26" class="edge"><title>Node21&#45;&gt;Node22</title>
<path fill="none" stroke="midnightblue" d="M1087.59,-173.975C1095.32,-164.962 1107.7,-150.525 1117.31,-139.312"/>
<polygon fill="midnightblue" stroke="midnightblue" points="1120.14,-141.379 1123.99,-131.509 1114.83,-136.824 1120.14,-141.379"/>
</g>
<!-- Node23 -->
<g id="node23" class="node"><title>Node23</title>
<polygon fill="white" stroke="#bfbfbf" points="1180.79,-112.5 1180.79,-131.5 1227.79,-131.5 1227.79,-112.5 1180.79,-112.5"/>
<text text-anchor="middle" x="1204.29" y="-119.5" font-family="Helvetica,sans-Serif" font-size="10.00">cmath</text>
</g>
<!-- Node21&#45;&gt;Node23 -->
<g id="edge27" class="edge"><title>Node21&#45;&gt;Node23</title>
<path fill="none" stroke="midnightblue" d="M1098.05,-173.975C1118.77,-164.034 1153.24,-147.495 1177.28,-135.961"/>
<polygon fill="midnightblue" stroke="midnightblue" points="1179.05,-138.991 1186.55,-131.509 1176.02,-132.68 1179.05,-138.991"/>
</g>
<!-- Node24 -->
<g id="node24" class="node"><title>Node24</title>
<g id="a_node24"><a xlink:href="Math_8inl.html" target="_top" xlink:title="Core/Math/Math.inl">
<polygon fill="white" stroke="black" points="975.788,-112.5 975.788,-131.5 1082.79,-131.5 1082.79,-112.5 975.788,-112.5"/>
<text text-anchor="middle" x="1029.29" y="-119.5" font-family="Helvetica,sans-Serif" font-size="10.00">Core/Math/Math.inl</text>
</a>
</g>
</g>
<!-- Node21&#45;&gt;Node24 -->
<g id="edge28" class="edge"><title>Node21&#45;&gt;Node24</title>
<path fill="none" stroke="midnightblue" d="M1068.08,-173.975C1058.58,-165.138 1046.11,-151.089 1037.67,-139.975"/>
<polygon fill="midnightblue" stroke="midnightblue" points="1040.32,-137.651 1031.68,-131.509 1034.6,-141.694 1040.32,-137.651"/>
</g>
<!-- Node24&#45;&gt;Node21 -->
<g id="edge29" class="edge"><title>Node24&#45;&gt;Node21</title>
<path fill="none" stroke="midnightblue" d="M1041.48,-131.509C1050.98,-140.34 1063.44,-154.388 1071.89,-165.505"/>
<polygon fill="midnightblue" stroke="midnightblue" points="1069.25,-167.835 1077.88,-173.975 1074.96,-163.791 1069.25,-167.835"/>
</g>
<!-- Node26&#45;&gt;Node2 -->
<g id="edge32" class="edge"><title>Node26&#45;&gt;Node2</title>
<path fill="none" stroke="midnightblue" d="M465.714,-352.975C403.151,-342.216 295.652,-323.73 228.741,-312.224"/>
<polygon fill="midnightblue" stroke="midnightblue" points="229.218,-308.755 218.769,-310.509 228.031,-315.653 229.218,-308.755"/>
</g>
<!-- Node26&#45;&gt;Node14 -->
<g id="edge38" class="edge"><title>Node26&#45;&gt;Node14</title>
<path fill="none" stroke="midnightblue" d="M585.023,-352.96C641.832,-344.728 716.271,-330.625 739.288,-311 752.996,-299.312 759.546,-279.369 762.632,-264.648"/>
<polygon fill="midnightblue" stroke="midnightblue" points="766.109,-265.085 764.377,-254.632 759.212,-263.883 766.109,-265.085"/>
</g>
<!-- Node27 -->
<g id="node27" class="node"><title>Node27</title>
<g id="a_node27"><a xlink:href="IndexedObject_8hpp.html" target="_top" xlink:title="Core/Index/IndexedObject.hpp">
<polygon fill="white" stroke="black" points="246.288,-291.5 246.288,-310.5 406.288,-310.5 406.288,-291.5 246.288,-291.5"/>
<text text-anchor="middle" x="326.288" y="-298.5" font-family="Helvetica,sans-Serif" font-size="10.00">Core/Index/IndexedObject.hpp</text>
</a>
</g>
</g>
<!-- Node26&#45;&gt;Node27 -->
<g id="edge33" class="edge"><title>Node26&#45;&gt;Node27</title>
<path fill="none" stroke="midnightblue" d="M488.209,-352.975C455.367,-342.636 399.858,-325.161 363.14,-313.602"/>
<polygon fill="midnightblue" stroke="midnightblue" points="363.906,-310.174 353.316,-310.509 361.804,-316.85 363.906,-310.174"/>
</g>
<!-- Node31 -->
<g id="node31" class="node"><title>Node31</title>
<g id="a_node31"><a xlink:href="Ray_8hpp.html" target="_top" xlink:title="Core/Math/Ray.hpp">
<polygon fill="white" stroke="black" points="624.288,-291.5 624.288,-310.5 730.288,-310.5 730.288,-291.5 624.288,-291.5"/>
<text text-anchor="middle" x="677.288" y="-298.5" font-family="Helvetica,sans-Serif" font-size="10.00">Core/Math/Ray.hpp</text>
</a>
</g>
</g>
<!-- Node26&#45;&gt;Node31 -->
<g id="edge39" class="edge"><title>Node26&#45;&gt;Node31</title>
<path fill="none" stroke="midnightblue" d="M538.498,-352.975C566.287,-342.769 613.01,-325.608 644.481,-314.049"/>
<polygon fill="midnightblue" stroke="midnightblue" points="645.94,-317.242 654.12,-310.509 643.526,-310.671 645.94,-317.242"/>
</g>
<!-- Node32 -->
<g id="node32" class="node"><title>Node32</title>
<g id="a_node32"><a xlink:href="Component_8inl.html" target="_top" xlink:title="Engine/Component/Component.inl">
<polygon fill="white" stroke="black" points="424.788,-291.5 424.788,-310.5 605.788,-310.5 605.788,-291.5 424.788,-291.5"/>
<text text-anchor="middle" x="515.288" y="-298.5" font-family="Helvetica,sans-Serif" font-size="10.00">Engine/Component/Component.inl</text>
</a>
</g>
</g>
<!-- Node26&#45;&gt;Node32 -->
<g id="edge43" class="edge"><title>Node26&#45;&gt;Node32</title>
<path fill="none" stroke="midnightblue" d="M510.387,-352.975C508.556,-344.58 508.085,-331.481 508.973,-320.663"/>
<polygon fill="midnightblue" stroke="midnightblue" points="512.474,-320.897 510.39,-310.509 505.541,-319.929 512.474,-320.897"/>
</g>
<!-- Node27&#45;&gt;Node15 -->
<g id="edge37" class="edge"><title>Node27&#45;&gt;Node15</title>
<path fill="none" stroke="midnightblue" d="M345.132,-291.416C360.041,-283.765 380.425,-271.267 393.288,-255 420.059,-221.143 428.961,-169.524 431.885,-141.939"/>
<polygon fill="midnightblue" stroke="midnightblue" points="435.395,-141.985 432.807,-131.711 428.424,-141.357 435.395,-141.985"/>
</g>
<!-- Node28 -->
<g id="node28" class="node"><title>Node28</title>
<g id="a_node28"><a xlink:href="Index_8hpp.html" target="_top" xlink:title="Core/Index/Index.hpp">
<polygon fill="white" stroke="black" points="267.788,-235.5 267.788,-254.5 384.788,-254.5 384.788,-235.5 267.788,-235.5"/>
<text text-anchor="middle" x="326.288" y="-242.5" font-family="Helvetica,sans-Serif" font-size="10.00">Core/Index/Index.hpp</text>
</a>
</g>
</g>
<!-- Node27&#45;&gt;Node28 -->
<g id="edge34" class="edge"><title>Node27&#45;&gt;Node28</title>
<path fill="none" stroke="midnightblue" d="M326.288,-291.083C326.288,-284.006 326.288,-273.861 326.288,-264.986"/>
<polygon fill="midnightblue" stroke="midnightblue" points="329.788,-264.751 326.288,-254.751 322.788,-264.751 329.788,-264.751"/>
</g>
<!-- Node29 -->
<g id="node29" class="node"><title>Node29</title>
<polygon fill="white" stroke="#bfbfbf" points="235.288,-174 235.288,-193 277.288,-193 277.288,-174 235.288,-174"/>
<text text-anchor="middle" x="256.288" y="-181" font-family="Helvetica,sans-Serif" font-size="10.00">limits</text>
</g>
<!-- Node28&#45;&gt;Node29 -->
<g id="edge35" class="edge"><title>Node28&#45;&gt;Node29</title>
<path fill="none" stroke="midnightblue" d="M316.258,-235.475C305.238,-226.108 287.327,-210.884 273.944,-199.508"/>
<polygon fill="midnightblue" stroke="midnightblue" points="276.184,-196.819 266.298,-193.009 271.651,-202.152 276.184,-196.819"/>
</g>
<!-- Node30 -->
<g id="node30" class="node"><title>Node30</title>
<g id="a_node30"><a xlink:href="Index_8inl.html" target="_top" xlink:title="Core/Index/Index.inl">
<polygon fill="white" stroke="black" points="295.288,-174 295.288,-193 405.288,-193 405.288,-174 295.288,-174"/>
<text text-anchor="middle" x="350.288" y="-181" font-family="Helvetica,sans-Serif" font-size="10.00">Core/Index/Index.inl</text>
</a>
</g>
</g>
<!-- Node28&#45;&gt;Node30 -->
<g id="edge36" class="edge"><title>Node28&#45;&gt;Node30</title>
<path fill="none" stroke="midnightblue" d="M329.726,-235.475C333.184,-226.904 338.62,-213.427 343.034,-202.483"/>
<polygon fill="midnightblue" stroke="midnightblue" points="346.36,-203.592 346.855,-193.009 339.869,-200.974 346.36,-203.592"/>
</g>
<!-- Node31&#45;&gt;Node14 -->
<g id="edge41" class="edge"><title>Node31&#45;&gt;Node14</title>
<path fill="none" stroke="midnightblue" d="M691.426,-291.324C705.154,-282.9 726.224,-269.971 742.352,-260.074"/>
<polygon fill="midnightblue" stroke="midnightblue" points="744.491,-262.868 751.184,-254.655 740.83,-256.902 744.491,-262.868"/>
</g>
<!-- Node31&#45;&gt;Node15 -->
<g id="edge40" class="edge"><title>Node31&#45;&gt;Node15</title>
<path fill="none" stroke="midnightblue" d="M624.208,-292.139C621.192,-291.741 618.202,-291.358 615.288,-291 536.148,-281.27 325.154,-298.435 258.288,-255 223.738,-232.557 200.434,-200.078 226.288,-168 244.554,-145.336 319.378,-133.495 373.831,-127.757"/>
<polygon fill="midnightblue" stroke="midnightblue" points="374.487,-131.209 384.085,-126.723 373.784,-124.244 374.487,-131.209"/>
</g>
<!-- Node31&#45;&gt;Node17 -->
<g id="edge42" class="edge"><title>Node31&#45;&gt;Node17</title>
<path fill="none" stroke="midnightblue" d="M664.585,-291.319C635.835,-271.67 565.512,-223.609 529.821,-199.217"/>
<polygon fill="midnightblue" stroke="midnightblue" points="531.368,-196.035 521.137,-193.282 527.419,-201.814 531.368,-196.035"/>
</g>
<!-- Node32&#45;&gt;Node26 -->
<g id="edge44" class="edge"><title>Node32&#45;&gt;Node26</title>
<path fill="none" stroke="midnightblue" d="M520.185,-310.509C522.017,-318.898 522.491,-331.996 521.604,-342.817"/>
<polygon fill="midnightblue" stroke="midnightblue" points="518.102,-342.588 520.188,-352.975 525.035,-343.554 518.102,-342.588"/>
</g>
</g>
</svg>
