<?xml version="1.0" encoding="UTF-8" standalone="no"?>
<!DOCTYPE svg PUBLIC "-//W3C//DTD SVG 1.1//EN"
 "http://www.w3.org/Graphics/SVG/1.1/DTD/svg11.dtd">
<!-- Generated by graphviz version 2.38.0 (20140413.2041)
 -->
<!-- Title: /home/travis/build/STORM&#45;IRIT/Radium&#45;Engine/src/Engine/Managers/LightManager/LightStorage.hpp Pages: 1 -->
<svg width="1135pt" height="542pt"
 viewBox="0.00 0.00 1135.28 542.00" xmlns="http://www.w3.org/2000/svg" xmlns:xlink="http://www.w3.org/1999/xlink">
<g id="graph0" class="graph" transform="scale(1 1) rotate(0) translate(4 538)">
<title>/home/travis/build/STORM&#45;IRIT/Radium&#45;Engine/src/Engine/Managers/LightManager/LightStorage.hpp</title>
<polygon fill="white" stroke="none" points="-4,4 -4,-538 1131.28,-538 1131.28,4 -4,4"/>
<!-- Node1 -->
<g id="node1" class="node"><title>Node1</title>
<polygon fill="#bfbfbf" stroke="black" points="267.943,-481.5 267.943,-533.5 455.943,-533.5 455.943,-481.5 267.943,-481.5"/>
<text text-anchor="start" x="275.943" y="-521.5" font-family="Helvetica,sans-Serif" font-size="10.00">/home/travis/build</text>
<text text-anchor="start" x="275.943" y="-510.5" font-family="Helvetica,sans-Serif" font-size="10.00">/STORM&#45;IRIT/Radium&#45;Engine</text>
<text text-anchor="start" x="275.943" y="-499.5" font-family="Helvetica,sans-Serif" font-size="10.00">/src/Engine/Managers/LightManager</text>
<text text-anchor="middle" x="361.943" y="-488.5" font-family="Helvetica,sans-Serif" font-size="10.00">/LightStorage.hpp</text>
</g>
<!-- Node2 -->
<g id="node2" class="node"><title>Node2</title>
<g id="a_node2"><a xlink:href="RaEngine_8hpp.html" target="_top" xlink:title="../../RaEngine.hpp">
<polygon fill="white" stroke="black" points="267.943,-291.5 267.943,-310.5 367.943,-310.5 367.943,-291.5 267.943,-291.5"/>
<text text-anchor="middle" x="317.943" y="-298.5" font-family="Helvetica,sans-Serif" font-size="10.00">../../RaEngine.hpp</text>
</a>
</g>
</g>
<!-- Node1&#45;&gt;Node2 -->
<g id="edge1" class="edge"><title>Node1&#45;&gt;Node2</title>
<path fill="none" stroke="midnightblue" d="M356.418,-481.396C350.733,-455.503 341.643,-413.945 333.943,-378 329.762,-358.479 325.065,-336.116 321.848,-320.728"/>
<polygon fill="midnightblue" stroke="midnightblue" points="325.265,-319.97 319.795,-310.897 318.413,-321.401 325.265,-319.97"/>
</g>
<!-- Node9 -->
<g id="node9" class="node"><title>Node9</title>
<g id="a_node9"><a xlink:href="Light_8hpp.html" target="_top" xlink:title="../../Renderer/Light\l/Light.hpp">
<polygon fill="white" stroke="black" points="373.943,-414.5 373.943,-444.5 477.943,-444.5 477.943,-414.5 373.943,-414.5"/>
<text text-anchor="start" x="381.943" y="-432.5" font-family="Helvetica,sans-Serif" font-size="10.00">../../Renderer/Light</text>
<text text-anchor="middle" x="425.943" y="-421.5" font-family="Helvetica,sans-Serif" font-size="10.00">/Light.hpp</text>
</a>
</g>
</g>
<!-- Node1&#45;&gt;Node9 -->
<g id="edge8" class="edge"><title>Node1&#45;&gt;Node9</title>
<path fill="none" stroke="midnightblue" d="M383.254,-481.193C391.05,-471.936 399.801,-461.544 407.341,-452.59"/>
<polygon fill="midnightblue" stroke="midnightblue" points="410.099,-454.749 413.863,-444.845 404.744,-450.24 410.099,-454.749"/>
</g>
<!-- Node3 -->
<g id="node3" class="node"><title>Node3</title>
<g id="a_node3"><a xlink:href="CoreMacros_8hpp.html" target="_top" xlink:title="Core/CoreMacros.hpp">
<polygon fill="white" stroke="black" points="315.943,-56.5 315.943,-75.5 435.943,-75.5 435.943,-56.5 315.943,-56.5"/>
<text text-anchor="middle" x="375.943" y="-63.5" font-family="Helvetica,sans-Serif" font-size="10.00">Core/CoreMacros.hpp</text>
</a>
</g>
</g>
<!-- Node2&#45;&gt;Node3 -->
<g id="edge2" class="edge"><title>Node2&#45;&gt;Node3</title>
<path fill="none" stroke="midnightblue" d="M267.92,-297.638C166.083,-290.801 -50.6856,-264.769 10.9432,-168 42.5818,-118.321 208.706,-88.7093 305.582,-75.4087"/>
<polygon fill="midnightblue" stroke="midnightblue" points="306.156,-78.8631 315.598,-74.0577 305.22,-71.9259 306.156,-78.8631"/>
</g>
<!-- Node4 -->
<g id="node4" class="node"><title>Node4</title>
<polygon fill="white" stroke="#bfbfbf" points="212.943,-0.5 212.943,-19.5 264.943,-19.5 264.943,-0.5 212.943,-0.5"/>
<text text-anchor="middle" x="238.943" y="-7.5" font-family="Helvetica,sans-Serif" font-size="10.00">cassert</text>
</g>
<!-- Node3&#45;&gt;Node4 -->
<g id="edge3" class="edge"><title>Node3&#45;&gt;Node4</title>
<path fill="none" stroke="midnightblue" d="M354.235,-56.4435C331.588,-47.5171 295.871,-33.4387 270.191,-23.3168"/>
<polygon fill="midnightblue" stroke="midnightblue" points="271.137,-19.9273 260.55,-19.5164 268.57,-26.4397 271.137,-19.9273"/>
</g>
<!-- Node5 -->
<g id="node5" class="node"><title>Node5</title>
<polygon fill="white" stroke="#bfbfbf" points="283.443,-0.5 283.443,-19.5 328.443,-19.5 328.443,-0.5 283.443,-0.5"/>
<text text-anchor="middle" x="305.943" y="-7.5" font-family="Helvetica,sans-Serif" font-size="10.00">cstdio</text>
</g>
<!-- Node3&#45;&gt;Node5 -->
<g id="edge4" class="edge"><title>Node3&#45;&gt;Node5</title>
<path fill="none" stroke="midnightblue" d="M364.696,-56.324C354.146,-48.1849 338.143,-35.8395 325.501,-26.0874"/>
<polygon fill="midnightblue" stroke="midnightblue" points="327.45,-23.1707 317.395,-19.8339 323.175,-28.7132 327.45,-23.1707"/>
</g>
<!-- Node6 -->
<g id="node6" class="node"><title>Node6</title>
<polygon fill="white" stroke="#bfbfbf" points="346.443,-0.5 346.443,-19.5 405.443,-19.5 405.443,-0.5 346.443,-0.5"/>
<text text-anchor="middle" x="375.943" y="-7.5" font-family="Helvetica,sans-Serif" font-size="10.00">iostream</text>
</g>
<!-- Node3&#45;&gt;Node6 -->
<g id="edge5" class="edge"><title>Node3&#45;&gt;Node6</title>
<path fill="none" stroke="midnightblue" d="M375.943,-56.083C375.943,-49.0059 375.943,-38.8611 375.943,-29.9865"/>
<polygon fill="midnightblue" stroke="midnightblue" points="379.443,-29.751 375.943,-19.7511 372.443,-29.7511 379.443,-29.751"/>
</g>
<!-- Node7 -->
<g id="node7" class="node"><title>Node7</title>
<polygon fill="white" stroke="#bfbfbf" points="423.943,-0.5 423.943,-19.5 479.943,-19.5 479.943,-0.5 423.943,-0.5"/>
<text text-anchor="middle" x="451.943" y="-7.5" font-family="Helvetica,sans-Serif" font-size="10.00">sstream</text>
</g>
<!-- Node3&#45;&gt;Node7 -->
<g id="edge6" class="edge"><title>Node3&#45;&gt;Node7</title>
<path fill="none" stroke="midnightblue" d="M388.154,-56.324C399.719,-48.1066 417.319,-35.6017 431.104,-25.8069"/>
<polygon fill="midnightblue" stroke="midnightblue" points="433.386,-28.4791 439.51,-19.8339 429.331,-22.7729 433.386,-28.4791"/>
</g>
<!-- Node8 -->
<g id="node8" class="node"><title>Node8</title>
<polygon fill="white" stroke="#bfbfbf" points="497.943,-0.5 497.943,-19.5 545.943,-19.5 545.943,-0.5 497.943,-0.5"/>
<text text-anchor="middle" x="521.943" y="-7.5" font-family="Helvetica,sans-Serif" font-size="10.00">thread</text>
</g>
<!-- Node3&#45;&gt;Node8 -->
<g id="edge7" class="edge"><title>Node3&#45;&gt;Node8</title>
<path fill="none" stroke="midnightblue" d="M399.077,-56.4435C423.425,-47.4381 461.95,-33.1891 489.366,-23.049"/>
<polygon fill="midnightblue" stroke="midnightblue" points="490.752,-26.2681 498.917,-19.5164 488.324,-19.7028 490.752,-26.2681"/>
</g>
<!-- Node9&#45;&gt;Node2 -->
<g id="edge9" class="edge"><title>Node9&#45;&gt;Node2</title>
<path fill="none" stroke="midnightblue" d="M400.6,-414.418C386.143,-405.434 368.466,-392.726 355.943,-378 341.205,-360.669 330.433,-336.638 324.198,-320.269"/>
<polygon fill="midnightblue" stroke="midnightblue" points="327.453,-318.979 320.759,-310.766 320.871,-321.361 327.453,-318.979"/>
</g>
<!-- Node10 -->
<g id="node10" class="node"><title>Node10</title>
<g id="a_node10"><a xlink:href="LinearAlgebra_8hpp.html" target="_top" xlink:title="Core/Math/LinearAlgebra.hpp">
<polygon fill="white" stroke="black" points="457.943,-235.5 457.943,-254.5 613.943,-254.5 613.943,-235.5 457.943,-235.5"/>
<text text-anchor="middle" x="535.943" y="-242.5" font-family="Helvetica,sans-Serif" font-size="10.00">Core/Math/LinearAlgebra.hpp</text>
</a>
</g>
</g>
<!-- Node9&#45;&gt;Node10 -->
<g id="edge10" class="edge"><title>Node9&#45;&gt;Node10</title>
<path fill="none" stroke="midnightblue" d="M452.843,-414.435C467.189,-405.694 484.074,-393.222 494.943,-378 520.078,-342.798 530.144,-291.728 533.9,-264.586"/>
<polygon fill="midnightblue" stroke="midnightblue" points="537.389,-264.891 535.149,-254.535 530.443,-264.027 537.389,-264.891"/>
</g>
<!-- Node22 -->
<g id="node22" class="node"><title>Node22</title>
<g id="a_node22"><a xlink:href="Component_8hpp.html" target="_top" xlink:title="Engine/Component/Component.hpp">
<polygon fill="white" stroke="black" points="542.943,-353 542.943,-372 730.943,-372 730.943,-353 542.943,-353"/>
<text text-anchor="middle" x="636.943" y="-360" font-family="Helvetica,sans-Serif" font-size="10.00">Engine/Component/Component.hpp</text>
</a>
</g>
</g>
<!-- Node9&#45;&gt;Node22 -->
<g id="edge25" class="edge"><title>Node9&#45;&gt;Node22</title>
<path fill="none" stroke="midnightblue" d="M471.467,-414.476C509.783,-402.673 563.902,-386.001 599.681,-374.979"/>
<polygon fill="midnightblue" stroke="midnightblue" points="600.731,-378.318 609.258,-372.029 598.671,-371.628 600.731,-378.318"/>
</g>
<!-- Node29 -->
<g id="node29" class="node"><title>Node29</title>
<g id="a_node29"><a xlink:href="Light_8inl.html" target="_top" xlink:title="Engine/Renderer/Light\l/Light.inl">
<polygon fill="white" stroke="black" points="365.443,-347.5 365.443,-377.5 486.443,-377.5 486.443,-347.5 365.443,-347.5"/>
<text text-anchor="start" x="373.443" y="-365.5" font-family="Helvetica,sans-Serif" font-size="10.00">Engine/Renderer/Light</text>
<text text-anchor="middle" x="425.943" y="-354.5" font-family="Helvetica,sans-Serif" font-size="10.00">/Light.inl</text>
</a>
</g>
</g>
<!-- Node9&#45;&gt;Node29 -->
<g id="edge39" class="edge"><title>Node9&#45;&gt;Node29</title>
<path fill="none" stroke="midnightblue" d="M425.943,-414.396C425.943,-406.645 425.943,-396.812 425.943,-387.86"/>
<polygon fill="midnightblue" stroke="midnightblue" points="429.443,-387.576 425.943,-377.577 422.443,-387.577 429.443,-387.576"/>
</g>
<!-- Node11 -->
<g id="node11" class="node"><title>Node11</title>
<g id="a_node11"><a xlink:href="RaCore_8hpp.html" target="_top" xlink:title="Core/RaCore.hpp">
<polygon fill="white" stroke="black" points="709.943,-112.5 709.943,-131.5 807.943,-131.5 807.943,-112.5 709.943,-112.5"/>
<text text-anchor="middle" x="758.943" y="-119.5" font-family="Helvetica,sans-Serif" font-size="10.00">Core/RaCore.hpp</text>
</a>
</g>
</g>
<!-- Node10&#45;&gt;Node11 -->
<g id="edge11" class="edge"><title>Node10&#45;&gt;Node11</title>
<path fill="none" stroke="midnightblue" d="M612.967,-235.482C662.862,-228.414 721.808,-216.637 739.943,-199 755.22,-184.143 758.914,-159.004 759.481,-141.734"/>
<polygon fill="midnightblue" stroke="midnightblue" points="762.981,-141.712 759.492,-131.708 755.981,-141.704 762.981,-141.712"/>
</g>
<!-- Node12 -->
<g id="node12" class="node"><title>Node12</title>
<polygon fill="white" stroke="#bfbfbf" points="319.943,-174 319.943,-193 387.943,-193 387.943,-174 319.943,-174"/>
<text text-anchor="middle" x="353.943" y="-181" font-family="Helvetica,sans-Serif" font-size="10.00">Eigen/Core</text>
</g>
<!-- Node10&#45;&gt;Node12 -->
<g id="edge13" class="edge"><title>Node10&#45;&gt;Node12</title>
<path fill="none" stroke="midnightblue" d="M509.265,-235.469C481.259,-226.489 435.959,-211.893 396.943,-199 394.367,-198.149 391.706,-197.264 389.029,-196.37"/>
<polygon fill="midnightblue" stroke="midnightblue" points="389.986,-193 379.392,-193.138 387.76,-199.636 389.986,-193"/>
</g>
<!-- Node13 -->
<g id="node13" class="node"><title>Node13</title>
<polygon fill="white" stroke="#bfbfbf" points="786.943,-174 786.943,-193 880.943,-193 880.943,-174 786.943,-174"/>
<text text-anchor="middle" x="833.943" y="-181" font-family="Helvetica,sans-Serif" font-size="10.00">Eigen/Geometry</text>
</g>
<!-- Node10&#45;&gt;Node13 -->
<g id="edge14" class="edge"><title>Node10&#45;&gt;Node13</title>
<path fill="none" stroke="midnightblue" d="M584.641,-235.426C632.645,-226.816 708.027,-212.871 772.943,-199 778.266,-197.863 783.836,-196.617 789.355,-195.347"/>
<polygon fill="midnightblue" stroke="midnightblue" points="790.224,-198.739 799.167,-193.057 788.633,-191.922 790.224,-198.739"/>
</g>
<!-- Node14 -->
<g id="node14" class="node"><title>Node14</title>
<polygon fill="white" stroke="#bfbfbf" points="405.943,-174 405.943,-193 485.943,-193 485.943,-174 405.943,-174"/>
<text text-anchor="middle" x="445.943" y="-181" font-family="Helvetica,sans-Serif" font-size="10.00">Eigen/Sparse</text>
</g>
<!-- Node10&#45;&gt;Node14 -->
<g id="edge15" class="edge"><title>Node10&#45;&gt;Node14</title>
<path fill="none" stroke="midnightblue" d="M523.048,-235.475C508.479,-225.843 484.541,-210.017 467.198,-198.552"/>
<polygon fill="midnightblue" stroke="midnightblue" points="469.086,-195.604 458.814,-193.009 465.226,-201.444 469.086,-195.604"/>
</g>
<!-- Node15 -->
<g id="node15" class="node"><title>Node15</title>
<polygon fill="white" stroke="#bfbfbf" points="504.443,-174 504.443,-193 567.443,-193 567.443,-174 504.443,-174"/>
<text text-anchor="middle" x="535.943" y="-181" font-family="Helvetica,sans-Serif" font-size="10.00">functional</text>
</g>
<!-- Node10&#45;&gt;Node15 -->
<g id="edge16" class="edge"><title>Node10&#45;&gt;Node15</title>
<path fill="none" stroke="midnightblue" d="M535.943,-235.475C535.943,-227.08 535.943,-213.981 535.943,-203.163"/>
<polygon fill="midnightblue" stroke="midnightblue" points="539.443,-203.009 535.943,-193.009 532.443,-203.009 539.443,-203.009"/>
</g>
<!-- Node16 -->
<g id="node16" class="node"><title>Node16</title>
<polygon fill="white" stroke="#bfbfbf" points="585.443,-168.5 585.443,-198.5 730.443,-198.5 730.443,-168.5 585.443,-168.5"/>
<text text-anchor="start" x="593.443" y="-186.5" font-family="Helvetica,sans-Serif" font-size="10.00">unsupported/Eigen/Aligned</text>
<text text-anchor="middle" x="657.943" y="-175.5" font-family="Helvetica,sans-Serif" font-size="10.00">Vector3</text>
</g>
<!-- Node10&#45;&gt;Node16 -->
<g id="edge17" class="edge"><title>Node10&#45;&gt;Node16</title>
<path fill="none" stroke="midnightblue" d="M553.423,-235.475C570.718,-227.04 597.753,-213.855 619.994,-203.008"/>
<polygon fill="midnightblue" stroke="midnightblue" points="621.736,-206.052 629.19,-198.523 618.668,-199.761 621.736,-206.052"/>
</g>
<!-- Node17 -->
<g id="node17" class="node"><title>Node17</title>
<g id="a_node17"><a xlink:href="Math_8hpp.html" target="_top" xlink:title="Core/Math/Math.hpp">
<polygon fill="white" stroke="black" points="187.943,-174 187.943,-193 301.943,-193 301.943,-174 187.943,-174"/>
<text text-anchor="middle" x="244.943" y="-181" font-family="Helvetica,sans-Serif" font-size="10.00">Core/Math/Math.hpp</text>
</a>
</g>
</g>
<!-- Node10&#45;&gt;Node17 -->
<g id="edge18" class="edge"><title>Node10&#45;&gt;Node17</title>
<path fill="none" stroke="midnightblue" d="M491.917,-235.45C446.522,-226.574 373.712,-212.171 310.943,-199 305.206,-197.796 299.194,-196.51 293.233,-195.219"/>
<polygon fill="midnightblue" stroke="midnightblue" points="293.823,-191.766 283.307,-193.057 292.332,-198.605 293.823,-191.766"/>
</g>
<!-- Node21 -->
<g id="node21" class="node"><title>Node21</title>
<g id="a_node21"><a xlink:href="LinearAlgebra_8inl.html" target="_top" xlink:title="Core/Math/LinearAlgebra.inl">
<polygon fill="white" stroke="black" points="20.4432,-174 20.4432,-193 169.443,-193 169.443,-174 20.4432,-174"/>
<text text-anchor="middle" x="94.9432" y="-181" font-family="Helvetica,sans-Serif" font-size="10.00">Core/Math/LinearAlgebra.inl</text>
</a>
</g>
</g>
<!-- Node10&#45;&gt;Node21 -->
<g id="edge24" class="edge"><title>Node10&#45;&gt;Node21</title>
<path fill="none" stroke="midnightblue" d="M460.242,-235.471C387.884,-227.08 275.792,-213.455 178.943,-199 170.223,-197.698 161.012,-196.217 152.011,-194.711"/>
<polygon fill="midnightblue" stroke="midnightblue" points="152.42,-191.23 141.975,-193.007 151.248,-198.131 152.42,-191.23"/>
</g>
<!-- Node11&#45;&gt;Node3 -->
<g id="edge12" class="edge"><title>Node11&#45;&gt;Node3</title>
<path fill="none" stroke="midnightblue" d="M709.657,-114.051C642.659,-104.605 522.459,-87.6576 446.077,-76.8883"/>
<polygon fill="midnightblue" stroke="midnightblue" points="446.453,-73.4068 436.063,-75.4763 445.476,-80.3383 446.453,-73.4068"/>
</g>
<!-- Node17&#45;&gt;Node11 -->
<g id="edge19" class="edge"><title>Node17&#45;&gt;Node11</title>
<path fill="none" stroke="midnightblue" d="M280.079,-173.988C290.013,-171.797 300.864,-169.608 310.943,-168 449.285,-145.932 613.489,-132.708 699.546,-126.761"/>
<polygon fill="midnightblue" stroke="midnightblue" points="699.908,-130.244 709.646,-126.071 699.431,-123.26 699.908,-130.244"/>
</g>
<!-- Node18 -->
<g id="node18" class="node"><title>Node18</title>
<polygon fill="white" stroke="#bfbfbf" points="264.943,-112.5 264.943,-131.5 326.943,-131.5 326.943,-112.5 264.943,-112.5"/>
<text text-anchor="middle" x="295.943" y="-119.5" font-family="Helvetica,sans-Serif" font-size="10.00">algorithm</text>
</g>
<!-- Node17&#45;&gt;Node18 -->
<g id="edge20" class="edge"><title>Node17&#45;&gt;Node18</title>
<path fill="none" stroke="midnightblue" d="M252.25,-173.975C259.976,-164.962 272.351,-150.525 281.962,-139.312"/>
<polygon fill="midnightblue" stroke="midnightblue" points="284.799,-141.379 288.65,-131.509 279.484,-136.824 284.799,-141.379"/>
</g>
<!-- Node19 -->
<g id="node19" class="node"><title>Node19</title>
<polygon fill="white" stroke="#bfbfbf" points="345.443,-112.5 345.443,-131.5 392.443,-131.5 392.443,-112.5 345.443,-112.5"/>
<text text-anchor="middle" x="368.943" y="-119.5" font-family="Helvetica,sans-Serif" font-size="10.00">cmath</text>
</g>
<!-- Node17&#45;&gt;Node19 -->
<g id="edge21" class="edge"><title>Node17&#45;&gt;Node19</title>
<path fill="none" stroke="midnightblue" d="M262.709,-173.975C283.427,-164.034 317.895,-147.495 341.932,-135.961"/>
<polygon fill="midnightblue" stroke="midnightblue" points="343.708,-138.991 351.21,-131.509 340.68,-132.68 343.708,-138.991"/>
</g>
<!-- Node20 -->
<g id="node20" class="node"><title>Node20</title>
<g id="a_node20"><a xlink:href="Math_8inl.html" target="_top" xlink:title="Core/Math/Math.inl">
<polygon fill="white" stroke="black" points="140.443,-112.5 140.443,-131.5 247.443,-131.5 247.443,-112.5 140.443,-112.5"/>
<text text-anchor="middle" x="193.943" y="-119.5" font-family="Helvetica,sans-Serif" font-size="10.00">Core/Math/Math.inl</text>
</a>
</g>
</g>
<!-- Node17&#45;&gt;Node20 -->
<g id="edge22" class="edge"><title>Node17&#45;&gt;Node20</title>
<path fill="none" stroke="midnightblue" d="M232.736,-173.975C223.234,-165.138 210.77,-151.089 202.33,-139.975"/>
<polygon fill="midnightblue" stroke="midnightblue" points="204.973,-137.651 196.34,-131.509 199.259,-141.694 204.973,-137.651"/>
</g>
<!-- Node20&#45;&gt;Node17 -->
<g id="edge23" class="edge"><title>Node20&#45;&gt;Node17</title>
<path fill="none" stroke="midnightblue" d="M206.134,-131.509C215.632,-140.34 228.096,-154.388 236.541,-165.505"/>
<polygon fill="midnightblue" stroke="midnightblue" points="233.902,-167.835 242.537,-173.975 239.616,-163.791 233.902,-167.835"/>
</g>
<!-- Node22&#45;&gt;Node2 -->
<g id="edge26" class="edge"><title>Node22&#45;&gt;Node2</title>
<path fill="none" stroke="midnightblue" d="M591.238,-352.975C533.794,-342.261 435.261,-323.882 373.519,-312.366"/>
<polygon fill="midnightblue" stroke="midnightblue" points="374.036,-308.902 363.563,-310.509 372.752,-315.783 374.036,-308.902"/>
</g>
<!-- Node22&#45;&gt;Node10 -->
<g id="edge32" class="edge"><title>Node22&#45;&gt;Node10</title>
<path fill="none" stroke="midnightblue" d="M668.006,-352.95C704.215,-341.448 756.412,-319.148 733.943,-291 719.832,-273.322 670.11,-262.059 624.028,-255.222"/>
<polygon fill="midnightblue" stroke="midnightblue" points="624.352,-251.733 613.958,-253.788 623.365,-258.663 624.352,-251.733"/>
</g>
<!-- Node23 -->
<g id="node23" class="node"><title>Node23</title>
<g id="a_node23"><a xlink:href="IndexedObject_8hpp.html" target="_top" xlink:title="Core/Index/IndexedObject.hpp">
<polygon fill="white" stroke="black" points="941.943,-291.5 941.943,-310.5 1101.94,-310.5 1101.94,-291.5 941.943,-291.5"/>
<text text-anchor="middle" x="1021.94" y="-298.5" font-family="Helvetica,sans-Serif" font-size="10.00">Core/Index/IndexedObject.hpp</text>
</a>
</g>
</g>
<!-- Node22&#45;&gt;Node23 -->
<g id="edge27" class="edge"><title>Node22&#45;&gt;Node23</title>
<path fill="none" stroke="midnightblue" d="M692.104,-352.975C762.005,-342.172 882.318,-323.578 956.703,-312.083"/>
<polygon fill="midnightblue" stroke="midnightblue" points="957.536,-315.495 966.884,-310.509 956.467,-308.578 957.536,-315.495"/>
</g>
<!-- Node27 -->
<g id="node27" class="node"><title>Node27</title>
<g id="a_node27"><a xlink:href="Ray_8hpp.html" target="_top" xlink:title="Core/Math/Ray.hpp">
<polygon fill="white" stroke="black" points="780.943,-291.5 780.943,-310.5 886.943,-310.5 886.943,-291.5 780.943,-291.5"/>
<text text-anchor="middle" x="833.943" y="-298.5" font-family="Helvetica,sans-Serif" font-size="10.00">Core/Math/Ray.hpp</text>
</a>
</g>
</g>
<!-- Node22&#45;&gt;Node27 -->
<g id="edge33" class="edge"><title>Node22&#45;&gt;Node27</title>
<path fill="none" stroke="midnightblue" d="M665.169,-352.975C699.546,-342.592 757.754,-325.012 796.02,-313.454"/>
<polygon fill="midnightblue" stroke="midnightblue" points="797.209,-316.751 805.77,-310.509 795.185,-310.05 797.209,-316.751"/>
</g>
<!-- Node28 -->
<g id="node28" class="node"><title>Node28</title>
<g id="a_node28"><a xlink:href="Component_8inl.html" target="_top" xlink:title="Engine/Component/Component.inl">
<polygon fill="white" stroke="black" points="543.443,-291.5 543.443,-310.5 724.443,-310.5 724.443,-291.5 543.443,-291.5"/>
<text text-anchor="middle" x="633.943" y="-298.5" font-family="Helvetica,sans-Serif" font-size="10.00">Engine/Component/Component.inl</text>
</a>
</g>
</g>
<!-- Node22&#45;&gt;Node28 -->
<g id="edge37" class="edge"><title>Node22&#45;&gt;Node28</title>
<path fill="none" stroke="midnightblue" d="M631.613,-352.975C629.359,-344.58 628.227,-331.481 628.569,-320.663"/>
<polygon fill="midnightblue" stroke="midnightblue" points="632.073,-320.781 629.475,-310.509 625.1,-320.159 632.073,-320.781"/>
</g>
<!-- Node23&#45;&gt;Node11 -->
<g id="edge31" class="edge"><title>Node23&#45;&gt;Node11</title>
<path fill="none" stroke="midnightblue" d="M1040.44,-291.368C1055.41,-283.611 1076.19,-270.99 1089.94,-255 1116.26,-224.407 1142.64,-198.268 1115.94,-168 1096.61,-146.075 914.692,-132.154 818.28,-126.254"/>
<polygon fill="midnightblue" stroke="midnightblue" points="818.286,-122.748 808.094,-125.641 817.865,-129.736 818.286,-122.748"/>
</g>
<!-- Node24 -->
<g id="node24" class="node"><title>Node24</title>
<g id="a_node24"><a xlink:href="Index_8hpp.html" target="_top" xlink:title="Core/Index/Index.hpp">
<polygon fill="white" stroke="black" points="963.443,-235.5 963.443,-254.5 1080.44,-254.5 1080.44,-235.5 963.443,-235.5"/>
<text text-anchor="middle" x="1021.94" y="-242.5" font-family="Helvetica,sans-Serif" font-size="10.00">Core/Index/Index.hpp</text>
</a>
</g>
</g>
<!-- Node23&#45;&gt;Node24 -->
<g id="edge28" class="edge"><title>Node23&#45;&gt;Node24</title>
<path fill="none" stroke="midnightblue" d="M1021.94,-291.083C1021.94,-284.006 1021.94,-273.861 1021.94,-264.986"/>
<polygon fill="midnightblue" stroke="midnightblue" points="1025.44,-264.751 1021.94,-254.751 1018.44,-264.751 1025.44,-264.751"/>
</g>
<!-- Node25 -->
<g id="node25" class="node"><title>Node25</title>
<polygon fill="white" stroke="#bfbfbf" points="936.943,-174 936.943,-193 978.943,-193 978.943,-174 936.943,-174"/>
<text text-anchor="middle" x="957.943" y="-181" font-family="Helvetica,sans-Serif" font-size="10.00">limits</text>
</g>
<!-- Node24&#45;&gt;Node25 -->
<g id="edge29" class="edge"><title>Node24&#45;&gt;Node25</title>
<path fill="none" stroke="midnightblue" d="M1012.77,-235.475C1002.79,-226.197 986.631,-211.171 974.434,-199.831"/>
<polygon fill="midnightblue" stroke="midnightblue" points="976.803,-197.255 967.096,-193.009 972.037,-202.381 976.803,-197.255"/>
</g>
<!-- Node26 -->
<g id="node26" class="node"><title>Node26</title>
<g id="a_node26"><a xlink:href="Index_8inl.html" target="_top" xlink:title="Core/Index/Index.inl">
<polygon fill="white" stroke="black" points="996.943,-174 996.943,-193 1106.94,-193 1106.94,-174 996.943,-174"/>
<text text-anchor="middle" x="1051.94" y="-181" font-family="Helvetica,sans-Serif" font-size="10.00">Core/Index/Index.inl</text>
</a>
</g>
</g>
<!-- Node24&#45;&gt;Node26 -->
<g id="edge30" class="edge"><title>Node24&#45;&gt;Node26</title>
<path fill="none" stroke="midnightblue" d="M1026.24,-235.475C1030.61,-226.815 1037.5,-213.149 1043.05,-202.145"/>
<polygon fill="midnightblue" stroke="midnightblue" points="1046.28,-203.514 1047.65,-193.009 1040.03,-200.363 1046.28,-203.514"/>
</g>
<!-- Node27&#45;&gt;Node10 -->
<g id="edge35" class="edge"><title>Node27&#45;&gt;Node10</title>
<path fill="none" stroke="midnightblue" d="M786.724,-291.444C734.194,-281.925 649.333,-266.547 593.095,-256.356"/>
<polygon fill="midnightblue" stroke="midnightblue" points="593.405,-252.856 582.941,-254.516 592.157,-259.743 593.405,-252.856"/>
</g>
<!-- Node27&#45;&gt;Node11 -->
<g id="edge34" class="edge"><title>Node27&#45;&gt;Node11</title>
<path fill="none" stroke="midnightblue" d="M843.255,-291.316C865.847,-269.194 919.593,-209.535 889.943,-168 873.528,-145.004 844.587,-133.638 818.076,-128.07"/>
<polygon fill="midnightblue" stroke="midnightblue" points="818.537,-124.596 808.065,-126.207 817.257,-131.477 818.537,-124.596"/>
</g>
<!-- Node27&#45;&gt;Node13 -->
<g id="edge36" class="edge"><title>Node27&#45;&gt;Node13</title>
<path fill="none" stroke="midnightblue" d="M833.943,-291.319C833.943,-272.757 833.943,-228.839 833.943,-203.473"/>
<polygon fill="midnightblue" stroke="midnightblue" points="837.443,-203.282 833.943,-193.282 830.443,-203.282 837.443,-203.282"/>
</g>
<!-- Node28&#45;&gt;Node22 -->
<g id="edge38" class="edge"><title>Node28&#45;&gt;Node22</title>
<path fill="none" stroke="midnightblue" d="M639.269,-310.509C641.525,-318.898 642.659,-331.996 642.318,-342.817"/>
<polygon fill="midnightblue" stroke="midnightblue" points="638.814,-342.704 641.414,-352.975 645.786,-343.325 638.814,-342.704"/>
</g>
</g>
</svg>
