<?xml version="1.0" encoding="UTF-8" standalone="no"?>
<!DOCTYPE svg PUBLIC "-//W3C//DTD SVG 1.1//EN"
 "http://www.w3.org/Graphics/SVG/1.1/DTD/svg11.dtd">
<!-- Generated by graphviz version 2.38.0 (20140413.2041)
 -->
<!-- Title: /home/travis/build/STORM&#45;IRIT/Radium&#45;Engine/src/Engine/Renderer/Light/Light.hpp Pages: 1 -->
<svg width="1219pt" height="475pt"
 viewBox="0.00 0.00 1219.00 475.00" xmlns="http://www.w3.org/2000/svg" xmlns:xlink="http://www.w3.org/1999/xlink">
<g id="graph0" class="graph" transform="scale(1 1) rotate(0) translate(4 471)">
<title>/home/travis/build/STORM&#45;IRIT/Radium&#45;Engine/src/Engine/Renderer/Light/Light.hpp</title>
<polygon fill="white" stroke="none" points="-4,4 -4,-471 1215,-471 1215,4 -4,4"/>
<!-- Node1 -->
<g id="node1" class="node"><title>Node1</title>
<polygon fill="#bfbfbf" stroke="black" points="793.5,-414.5 793.5,-466.5 941.5,-466.5 941.5,-414.5 793.5,-414.5"/>
<text text-anchor="start" x="801.5" y="-454.5" font-family="Helvetica,sans-Serif" font-size="10.00">/home/travis/build</text>
<text text-anchor="start" x="801.5" y="-443.5" font-family="Helvetica,sans-Serif" font-size="10.00">/STORM&#45;IRIT/Radium&#45;Engine</text>
<text text-anchor="start" x="801.5" y="-432.5" font-family="Helvetica,sans-Serif" font-size="10.00">/src/Engine/Renderer/Light</text>
<text text-anchor="middle" x="867.5" y="-421.5" font-family="Helvetica,sans-Serif" font-size="10.00">/Light.hpp</text>
</g>
<!-- Node2 -->
<g id="node2" class="node"><title>Node2</title>
<g id="a_node2"><a xlink:href="RaEngine_8hpp.html" target="_top" xlink:title="Engine/RaEngine.hpp">
<polygon fill="white" stroke="black" points="1094,-291.5 1094,-310.5 1211,-310.5 1211,-291.5 1094,-291.5"/>
<text text-anchor="middle" x="1152.5" y="-298.5" font-family="Helvetica,sans-Serif" font-size="10.00">Engine/RaEngine.hpp</text>
</a>
</g>
</g>
<!-- Node1&#45;&gt;Node2 -->
<g id="edge1" class="edge"><title>Node1&#45;&gt;Node2</title>
<path fill="none" stroke="midnightblue" d="M882.651,-414.278C896.765,-393.022 919.768,-363.507 947.5,-347 970.469,-333.328 1034.45,-320.546 1084.88,-312.125"/>
<polygon fill="midnightblue" stroke="midnightblue" points="1085.47,-315.575 1094.77,-310.5 1084.34,-308.668 1085.47,-315.575"/>
</g>
<!-- Node9 -->
<g id="node9" class="node"><title>Node9</title>
<g id="a_node9"><a xlink:href="LinearAlgebra_8hpp.html" target="_top" xlink:title="Core/Math/LinearAlgebra.hpp">
<polygon fill="white" stroke="black" points="447.5,-235.5 447.5,-254.5 603.5,-254.5 603.5,-235.5 447.5,-235.5"/>
<text text-anchor="middle" x="525.5" y="-242.5" font-family="Helvetica,sans-Serif" font-size="10.00">Core/Math/LinearAlgebra.hpp</text>
</a>
</g>
</g>
<!-- Node1&#45;&gt;Node9 -->
<g id="edge8" class="edge"><title>Node1&#45;&gt;Node9</title>
<path fill="none" stroke="midnightblue" d="M793.225,-425.86C723.657,-409.553 620.875,-375.899 555.5,-311 542.567,-298.161 534.607,-278.706 530.167,-264.426"/>
<polygon fill="midnightblue" stroke="midnightblue" points="533.511,-263.388 527.433,-254.709 526.772,-265.284 533.511,-263.388"/>
</g>
<!-- Node21 -->
<g id="node21" class="node"><title>Node21</title>
<g id="a_node21"><a xlink:href="Component_8hpp.html" target="_top" xlink:title="Engine/Component/Component.hpp">
<polygon fill="white" stroke="black" points="712.5,-353 712.5,-372 900.5,-372 900.5,-353 712.5,-353"/>
<text text-anchor="middle" x="806.5" y="-360" font-family="Helvetica,sans-Serif" font-size="10.00">Engine/Component/Component.hpp</text>
</a>
</g>
</g>
<!-- Node1&#45;&gt;Node21 -->
<g id="edge23" class="edge"><title>Node1&#45;&gt;Node21</title>
<path fill="none" stroke="midnightblue" d="M847.188,-414.193C838.181,-402.972 827.835,-390.082 819.83,-380.108"/>
<polygon fill="midnightblue" stroke="midnightblue" points="822.479,-377.817 813.49,-372.209 817.02,-382.198 822.479,-377.817"/>
</g>
<!-- Node28 -->
<g id="node28" class="node"><title>Node28</title>
<g id="a_node28"><a xlink:href="Light_8inl.html" target="_top" xlink:title="Engine/Renderer/Light\l/Light.inl">
<polygon fill="white" stroke="black" points="957,-347.5 957,-377.5 1078,-377.5 1078,-347.5 957,-347.5"/>
<text text-anchor="start" x="965" y="-365.5" font-family="Helvetica,sans-Serif" font-size="10.00">Engine/Renderer/Light</text>
<text text-anchor="middle" x="1017.5" y="-354.5" font-family="Helvetica,sans-Serif" font-size="10.00">/Light.inl</text>
</a>
</g>
</g>
<!-- Node1&#45;&gt;Node28 -->
<g id="edge37" class="edge"><title>Node1&#45;&gt;Node28</title>
<path fill="none" stroke="midnightblue" d="M917.031,-414.404C937.712,-403.926 961.324,-391.963 980.459,-382.267"/>
<polygon fill="midnightblue" stroke="midnightblue" points="982.122,-385.348 989.461,-377.707 978.958,-379.104 982.122,-385.348"/>
</g>
<!-- Node3 -->
<g id="node3" class="node"><title>Node3</title>
<g id="a_node3"><a xlink:href="CoreMacros_8hpp.html" target="_top" xlink:title="Core/CoreMacros.hpp">
<polygon fill="white" stroke="black" points="960.5,-56.5 960.5,-75.5 1080.5,-75.5 1080.5,-56.5 960.5,-56.5"/>
<text text-anchor="middle" x="1020.5" y="-63.5" font-family="Helvetica,sans-Serif" font-size="10.00">Core/CoreMacros.hpp</text>
</a>
</g>
</g>
<!-- Node2&#45;&gt;Node3 -->
<g id="edge2" class="edge"><title>Node2&#45;&gt;Node3</title>
<path fill="none" stroke="midnightblue" d="M1153.21,-291.351C1154.62,-269.312 1155.93,-209.83 1133.5,-168 1112.7,-129.21 1070.84,-97.9892 1044.32,-81.0078"/>
<polygon fill="midnightblue" stroke="midnightblue" points="1045.97,-77.9177 1035.63,-75.6061 1042.28,-83.861 1045.97,-77.9177"/>
</g>
<!-- Node4 -->
<g id="node4" class="node"><title>Node4</title>
<polygon fill="white" stroke="#bfbfbf" points="857.5,-0.5 857.5,-19.5 909.5,-19.5 909.5,-0.5 857.5,-0.5"/>
<text text-anchor="middle" x="883.5" y="-7.5" font-family="Helvetica,sans-Serif" font-size="10.00">cassert</text>
</g>
<!-- Node3&#45;&gt;Node4 -->
<g id="edge3" class="edge"><title>Node3&#45;&gt;Node4</title>
<path fill="none" stroke="midnightblue" d="M998.792,-56.4435C976.145,-47.5171 940.428,-33.4387 914.748,-23.3168"/>
<polygon fill="midnightblue" stroke="midnightblue" points="915.693,-19.9273 905.106,-19.5164 913.126,-26.4397 915.693,-19.9273"/>
</g>
<!-- Node5 -->
<g id="node5" class="node"><title>Node5</title>
<polygon fill="white" stroke="#bfbfbf" points="928,-0.5 928,-19.5 973,-19.5 973,-0.5 928,-0.5"/>
<text text-anchor="middle" x="950.5" y="-7.5" font-family="Helvetica,sans-Serif" font-size="10.00">cstdio</text>
</g>
<!-- Node3&#45;&gt;Node5 -->
<g id="edge4" class="edge"><title>Node3&#45;&gt;Node5</title>
<path fill="none" stroke="midnightblue" d="M1009.25,-56.324C998.703,-48.1849 982.699,-35.8395 970.058,-26.0874"/>
<polygon fill="midnightblue" stroke="midnightblue" points="972.007,-23.1707 961.951,-19.8339 967.731,-28.7132 972.007,-23.1707"/>
</g>
<!-- Node6 -->
<g id="node6" class="node"><title>Node6</title>
<polygon fill="white" stroke="#bfbfbf" points="991,-0.5 991,-19.5 1050,-19.5 1050,-0.5 991,-0.5"/>
<text text-anchor="middle" x="1020.5" y="-7.5" font-family="Helvetica,sans-Serif" font-size="10.00">iostream</text>
</g>
<!-- Node3&#45;&gt;Node6 -->
<g id="edge5" class="edge"><title>Node3&#45;&gt;Node6</title>
<path fill="none" stroke="midnightblue" d="M1020.5,-56.083C1020.5,-49.0059 1020.5,-38.8611 1020.5,-29.9865"/>
<polygon fill="midnightblue" stroke="midnightblue" points="1024,-29.751 1020.5,-19.7511 1017,-29.7511 1024,-29.751"/>
</g>
<!-- Node7 -->
<g id="node7" class="node"><title>Node7</title>
<polygon fill="white" stroke="#bfbfbf" points="1068.5,-0.5 1068.5,-19.5 1124.5,-19.5 1124.5,-0.5 1068.5,-0.5"/>
<text text-anchor="middle" x="1096.5" y="-7.5" font-family="Helvetica,sans-Serif" font-size="10.00">sstream</text>
</g>
<!-- Node3&#45;&gt;Node7 -->
<g id="edge6" class="edge"><title>Node3&#45;&gt;Node7</title>
<path fill="none" stroke="midnightblue" d="M1032.71,-56.324C1044.28,-48.1066 1061.88,-35.6017 1075.66,-25.8069"/>
<polygon fill="midnightblue" stroke="midnightblue" points="1077.94,-28.4791 1084.07,-19.8339 1073.89,-22.7729 1077.94,-28.4791"/>
</g>
<!-- Node8 -->
<g id="node8" class="node"><title>Node8</title>
<polygon fill="white" stroke="#bfbfbf" points="1142.5,-0.5 1142.5,-19.5 1190.5,-19.5 1190.5,-0.5 1142.5,-0.5"/>
<text text-anchor="middle" x="1166.5" y="-7.5" font-family="Helvetica,sans-Serif" font-size="10.00">thread</text>
</g>
<!-- Node3&#45;&gt;Node8 -->
<g id="edge7" class="edge"><title>Node3&#45;&gt;Node8</title>
<path fill="none" stroke="midnightblue" d="M1043.63,-56.4435C1067.98,-47.4381 1106.51,-33.1891 1133.92,-23.049"/>
<polygon fill="midnightblue" stroke="midnightblue" points="1135.31,-26.2681 1143.47,-19.5164 1132.88,-19.7028 1135.31,-26.2681"/>
</g>
<!-- Node10 -->
<g id="node10" class="node"><title>Node10</title>
<g id="a_node10"><a xlink:href="RaCore_8hpp.html" target="_top" xlink:title="Core/RaCore.hpp">
<polygon fill="white" stroke="black" points="839.5,-112.5 839.5,-131.5 937.5,-131.5 937.5,-112.5 839.5,-112.5"/>
<text text-anchor="middle" x="888.5" y="-119.5" font-family="Helvetica,sans-Serif" font-size="10.00">Core/RaCore.hpp</text>
</a>
</g>
</g>
<!-- Node9&#45;&gt;Node10 -->
<g id="edge9" class="edge"><title>Node9&#45;&gt;Node10</title>
<path fill="none" stroke="midnightblue" d="M594.521,-235.493C632.483,-228.976 679.626,-217.795 718.5,-199 738.435,-189.362 738.082,-178.64 757.5,-168 784.709,-153.092 817.765,-141.781 843.865,-134.228"/>
<polygon fill="midnightblue" stroke="midnightblue" points="844.821,-137.594 853.5,-131.517 842.926,-130.856 844.821,-137.594"/>
</g>
<!-- Node11 -->
<g id="node11" class="node"><title>Node11</title>
<polygon fill="white" stroke="#bfbfbf" points="299.5,-174 299.5,-193 367.5,-193 367.5,-174 299.5,-174"/>
<text text-anchor="middle" x="333.5" y="-181" font-family="Helvetica,sans-Serif" font-size="10.00">Eigen/Core</text>
</g>
<!-- Node9&#45;&gt;Node11 -->
<g id="edge11" class="edge"><title>Node9&#45;&gt;Node11</title>
<path fill="none" stroke="midnightblue" d="M496.293,-235.479C466.19,-226.626 417.941,-212.241 376.5,-199 373.756,-198.123 370.919,-197.201 368.071,-196.265"/>
<polygon fill="midnightblue" stroke="midnightblue" points="369.061,-192.905 358.467,-193.069 366.851,-199.547 369.061,-192.905"/>
</g>
<!-- Node12 -->
<g id="node12" class="node"><title>Node12</title>
<polygon fill="white" stroke="#bfbfbf" points="766.5,-174 766.5,-193 860.5,-193 860.5,-174 766.5,-174"/>
<text text-anchor="middle" x="813.5" y="-181" font-family="Helvetica,sans-Serif" font-size="10.00">Eigen/Geometry</text>
</g>
<!-- Node9&#45;&gt;Node12 -->
<g id="edge12" class="edge"><title>Node9&#45;&gt;Node12</title>
<path fill="none" stroke="midnightblue" d="M571.258,-235.454C617.177,-226.754 689.887,-212.643 752.5,-199 757.818,-197.841 763.385,-196.582 768.902,-195.306"/>
<polygon fill="midnightblue" stroke="midnightblue" points="769.775,-198.696 778.713,-193.008 768.178,-191.881 769.775,-198.696"/>
</g>
<!-- Node13 -->
<g id="node13" class="node"><title>Node13</title>
<polygon fill="white" stroke="#bfbfbf" points="385.5,-174 385.5,-193 465.5,-193 465.5,-174 385.5,-174"/>
<text text-anchor="middle" x="425.5" y="-181" font-family="Helvetica,sans-Serif" font-size="10.00">Eigen/Sparse</text>
</g>
<!-- Node9&#45;&gt;Node13 -->
<g id="edge13" class="edge"><title>Node9&#45;&gt;Node13</title>
<path fill="none" stroke="midnightblue" d="M511.172,-235.475C494.836,-225.755 467.898,-209.727 448.588,-198.237"/>
<polygon fill="midnightblue" stroke="midnightblue" points="450.185,-195.115 439.801,-193.009 446.605,-201.13 450.185,-195.115"/>
</g>
<!-- Node14 -->
<g id="node14" class="node"><title>Node14</title>
<polygon fill="white" stroke="#bfbfbf" points="484,-174 484,-193 547,-193 547,-174 484,-174"/>
<text text-anchor="middle" x="515.5" y="-181" font-family="Helvetica,sans-Serif" font-size="10.00">functional</text>
</g>
<!-- Node9&#45;&gt;Node14 -->
<g id="edge14" class="edge"><title>Node9&#45;&gt;Node14</title>
<path fill="none" stroke="midnightblue" d="M524.067,-235.475C522.656,-227.08 520.455,-213.981 518.637,-203.163"/>
<polygon fill="midnightblue" stroke="midnightblue" points="522.039,-202.291 516.93,-193.009 515.136,-203.451 522.039,-202.291"/>
</g>
<!-- Node15 -->
<g id="node15" class="node"><title>Node15</title>
<polygon fill="white" stroke="#bfbfbf" points="565,-168.5 565,-198.5 710,-198.5 710,-168.5 565,-168.5"/>
<text text-anchor="start" x="573" y="-186.5" font-family="Helvetica,sans-Serif" font-size="10.00">unsupported/Eigen/Aligned</text>
<text text-anchor="middle" x="637.5" y="-175.5" font-family="Helvetica,sans-Serif" font-size="10.00">Vector3</text>
</g>
<!-- Node9&#45;&gt;Node15 -->
<g id="edge15" class="edge"><title>Node9&#45;&gt;Node15</title>
<path fill="none" stroke="midnightblue" d="M541.547,-235.475C557.283,-227.115 581.801,-214.09 602.114,-203.299"/>
<polygon fill="midnightblue" stroke="midnightblue" points="603.915,-206.305 611.104,-198.523 600.631,-200.124 603.915,-206.305"/>
</g>
<!-- Node16 -->
<g id="node16" class="node"><title>Node16</title>
<g id="a_node16"><a xlink:href="Math_8hpp.html" target="_top" xlink:title="Core/Math/Math.hpp">
<polygon fill="white" stroke="black" points="167.5,-174 167.5,-193 281.5,-193 281.5,-174 167.5,-174"/>
<text text-anchor="middle" x="224.5" y="-181" font-family="Helvetica,sans-Serif" font-size="10.00">Core/Math/Math.hpp</text>
</a>
</g>
</g>
<!-- Node9&#45;&gt;Node16 -->
<g id="edge16" class="edge"><title>Node9&#45;&gt;Node16</title>
<path fill="none" stroke="midnightblue" d="M479.054,-235.49C431.596,-226.704 355.806,-212.424 290.5,-199 284.684,-197.805 278.589,-196.515 272.551,-195.215"/>
<polygon fill="midnightblue" stroke="midnightblue" points="273.019,-191.736 262.504,-193.034 271.534,-198.576 273.019,-191.736"/>
</g>
<!-- Node20 -->
<g id="node20" class="node"><title>Node20</title>
<g id="a_node20"><a xlink:href="LinearAlgebra_8inl.html" target="_top" xlink:title="Core/Math/LinearAlgebra.inl">
<polygon fill="white" stroke="black" points="0,-174 0,-193 149,-193 149,-174 0,-174"/>
<text text-anchor="middle" x="74.5" y="-181" font-family="Helvetica,sans-Serif" font-size="10.00">Core/Math/LinearAlgebra.inl</text>
</a>
</g>
</g>
<!-- Node9&#45;&gt;Node20 -->
<g id="edge22" class="edge"><title>Node9&#45;&gt;Node20</title>
<path fill="none" stroke="midnightblue" d="M447.315,-235.535C372.913,-227.215 257.885,-213.662 158.5,-199 149.777,-197.713 140.565,-196.24 131.564,-194.737"/>
<polygon fill="midnightblue" stroke="midnightblue" points="131.972,-191.256 121.528,-193.035 130.802,-198.158 131.972,-191.256"/>
</g>
<!-- Node10&#45;&gt;Node3 -->
<g id="edge10" class="edge"><title>Node10&#45;&gt;Node3</title>
<path fill="none" stroke="midnightblue" d="M909.416,-112.444C931.236,-103.517 965.65,-89.4387 990.392,-79.3168"/>
<polygon fill="midnightblue" stroke="midnightblue" points="991.752,-82.5422 999.682,-75.5164 989.101,-76.0634 991.752,-82.5422"/>
</g>
<!-- Node16&#45;&gt;Node10 -->
<g id="edge17" class="edge"><title>Node16&#45;&gt;Node10</title>
<path fill="none" stroke="midnightblue" d="M258.927,-173.974C269.045,-171.73 280.169,-169.516 290.5,-168 486.589,-139.229 721.709,-128.364 829.39,-124.684"/>
<polygon fill="midnightblue" stroke="midnightblue" points="829.53,-128.181 839.408,-124.35 829.297,-121.185 829.53,-128.181"/>
</g>
<!-- Node17 -->
<g id="node17" class="node"><title>Node17</title>
<polygon fill="white" stroke="#bfbfbf" points="244.5,-112.5 244.5,-131.5 306.5,-131.5 306.5,-112.5 244.5,-112.5"/>
<text text-anchor="middle" x="275.5" y="-119.5" font-family="Helvetica,sans-Serif" font-size="10.00">algorithm</text>
</g>
<!-- Node16&#45;&gt;Node17 -->
<g id="edge18" class="edge"><title>Node16&#45;&gt;Node17</title>
<path fill="none" stroke="midnightblue" d="M231.807,-173.975C239.533,-164.962 251.908,-150.525 261.518,-139.312"/>
<polygon fill="midnightblue" stroke="midnightblue" points="264.356,-141.379 268.206,-131.509 259.041,-136.824 264.356,-141.379"/>
</g>
<!-- Node18 -->
<g id="node18" class="node"><title>Node18</title>
<polygon fill="white" stroke="#bfbfbf" points="325,-112.5 325,-131.5 372,-131.5 372,-112.5 325,-112.5"/>
<text text-anchor="middle" x="348.5" y="-119.5" font-family="Helvetica,sans-Serif" font-size="10.00">cmath</text>
</g>
<!-- Node16&#45;&gt;Node18 -->
<g id="edge19" class="edge"><title>Node16&#45;&gt;Node18</title>
<path fill="none" stroke="midnightblue" d="M242.266,-173.975C262.984,-164.034 297.452,-147.495 321.489,-135.961"/>
<polygon fill="midnightblue" stroke="midnightblue" points="323.265,-138.991 330.767,-131.509 320.237,-132.68 323.265,-138.991"/>
</g>
<!-- Node19 -->
<g id="node19" class="node"><title>Node19</title>
<g id="a_node19"><a xlink:href="Math_8inl.html" target="_top" xlink:title="Core/Math/Math.inl">
<polygon fill="white" stroke="black" points="120,-112.5 120,-131.5 227,-131.5 227,-112.5 120,-112.5"/>
<text text-anchor="middle" x="173.5" y="-119.5" font-family="Helvetica,sans-Serif" font-size="10.00">Core/Math/Math.inl</text>
</a>
</g>
</g>
<!-- Node16&#45;&gt;Node19 -->
<g id="edge20" class="edge"><title>Node16&#45;&gt;Node19</title>
<path fill="none" stroke="midnightblue" d="M212.292,-173.975C202.791,-165.138 190.327,-151.089 181.887,-139.975"/>
<polygon fill="midnightblue" stroke="midnightblue" points="184.53,-137.651 175.896,-131.509 178.815,-141.694 184.53,-137.651"/>
</g>
<!-- Node19&#45;&gt;Node16 -->
<g id="edge21" class="edge"><title>Node19&#45;&gt;Node16</title>
<path fill="none" stroke="midnightblue" d="M185.691,-131.509C195.189,-140.34 207.653,-154.388 216.098,-165.505"/>
<polygon fill="midnightblue" stroke="midnightblue" points="213.459,-167.835 222.094,-173.975 219.173,-163.791 213.459,-167.835"/>
</g>
<!-- Node21&#45;&gt;Node2 -->
<g id="edge24" class="edge"><title>Node21&#45;&gt;Node2</title>
<path fill="none" stroke="midnightblue" d="M856.073,-352.975C918.636,-342.216 1026.14,-323.73 1093.05,-312.224"/>
<polygon fill="midnightblue" stroke="midnightblue" points="1093.76,-315.653 1103.02,-310.509 1092.57,-308.755 1093.76,-315.653"/>
</g>
<!-- Node21&#45;&gt;Node9 -->
<g id="edge30" class="edge"><title>Node21&#45;&gt;Node9</title>
<path fill="none" stroke="midnightblue" d="M712.257,-353.558C670.258,-346.776 621.565,-334.221 582.5,-311 562.815,-299.299 546.347,-278.456 536.254,-263.525"/>
<polygon fill="midnightblue" stroke="midnightblue" points="538.936,-261.226 530.572,-254.722 533.054,-265.022 538.936,-261.226"/>
</g>
<!-- Node22 -->
<g id="node22" class="node"><title>Node22</title>
<g id="a_node22"><a xlink:href="IndexedObject_8hpp.html" target="_top" xlink:title="Core/Index/IndexedObject.hpp">
<polygon fill="white" stroke="black" points="915.5,-291.5 915.5,-310.5 1075.5,-310.5 1075.5,-291.5 915.5,-291.5"/>
<text text-anchor="middle" x="995.5" y="-298.5" font-family="Helvetica,sans-Serif" font-size="10.00">Core/Index/IndexedObject.hpp</text>
</a>
</g>
</g>
<!-- Node21&#45;&gt;Node22 -->
<g id="edge25" class="edge"><title>Node21&#45;&gt;Node22</title>
<path fill="none" stroke="midnightblue" d="M833.579,-352.975C866.42,-342.636 921.93,-325.161 958.648,-313.602"/>
<polygon fill="midnightblue" stroke="midnightblue" points="959.984,-316.85 968.471,-310.509 957.882,-310.174 959.984,-316.85"/>
</g>
<!-- Node26 -->
<g id="node26" class="node"><title>Node26</title>
<g id="a_node26"><a xlink:href="Ray_8hpp.html" target="_top" xlink:title="Core/Math/Ray.hpp">
<polygon fill="white" stroke="black" points="591.5,-291.5 591.5,-310.5 697.5,-310.5 697.5,-291.5 591.5,-291.5"/>
<text text-anchor="middle" x="644.5" y="-298.5" font-family="Helvetica,sans-Serif" font-size="10.00">Core/Math/Ray.hpp</text>
</a>
</g>
</g>
<!-- Node21&#45;&gt;Node26 -->
<g id="edge31" class="edge"><title>Node21&#45;&gt;Node26</title>
<path fill="none" stroke="midnightblue" d="M783.289,-352.975C755.501,-342.769 708.777,-325.608 677.306,-314.049"/>
<polygon fill="midnightblue" stroke="midnightblue" points="678.261,-310.671 667.668,-310.509 675.848,-317.242 678.261,-310.671"/>
</g>
<!-- Node27 -->
<g id="node27" class="node"><title>Node27</title>
<g id="a_node27"><a xlink:href="Component_8inl.html" target="_top" xlink:title="Engine/Component/Component.inl">
<polygon fill="white" stroke="black" points="716,-291.5 716,-310.5 897,-310.5 897,-291.5 716,-291.5"/>
<text text-anchor="middle" x="806.5" y="-298.5" font-family="Helvetica,sans-Serif" font-size="10.00">Engine/Component/Component.inl</text>
</a>
</g>
</g>
<!-- Node21&#45;&gt;Node27 -->
<g id="edge35" class="edge"><title>Node21&#45;&gt;Node27</title>
<path fill="none" stroke="midnightblue" d="M801.599,-352.975C799.768,-344.58 799.297,-331.481 800.185,-320.663"/>
<polygon fill="midnightblue" stroke="midnightblue" points="803.686,-320.897 801.603,-310.509 796.754,-319.929 803.686,-320.897"/>
</g>
<!-- Node22&#45;&gt;Node10 -->
<g id="edge29" class="edge"><title>Node22&#45;&gt;Node10</title>
<path fill="none" stroke="midnightblue" d="M983.009,-291.218C971.954,-282.925 955.991,-269.608 945.5,-255 931.759,-235.866 907.295,-173.192 895.39,-141.582"/>
<polygon fill="midnightblue" stroke="midnightblue" points="898.52,-139.961 891.741,-131.819 891.963,-142.412 898.52,-139.961"/>
</g>
<!-- Node23 -->
<g id="node23" class="node"><title>Node23</title>
<g id="a_node23"><a xlink:href="Index_8hpp.html" target="_top" xlink:title="Core/Index/Index.hpp">
<polygon fill="white" stroke="black" points="955,-235.5 955,-254.5 1072,-254.5 1072,-235.5 955,-235.5"/>
<text text-anchor="middle" x="1013.5" y="-242.5" font-family="Helvetica,sans-Serif" font-size="10.00">Core/Index/Index.hpp</text>
</a>
</g>
</g>
<!-- Node22&#45;&gt;Node23 -->
<g id="edge26" class="edge"><title>Node22&#45;&gt;Node23</title>
<path fill="none" stroke="midnightblue" d="M998.472,-291.083C1000.88,-283.849 1004.36,-273.409 1007.37,-264.397"/>
<polygon fill="midnightblue" stroke="midnightblue" points="1010.74,-265.345 1010.58,-254.751 1004.1,-263.131 1010.74,-265.345"/>
</g>
<!-- Node24 -->
<g id="node24" class="node"><title>Node24</title>
<polygon fill="white" stroke="#bfbfbf" points="1082.5,-174 1082.5,-193 1124.5,-193 1124.5,-174 1082.5,-174"/>
<text text-anchor="middle" x="1103.5" y="-181" font-family="Helvetica,sans-Serif" font-size="10.00">limits</text>
</g>
<!-- Node23&#45;&gt;Node24 -->
<g id="edge27" class="edge"><title>Node23&#45;&gt;Node24</title>
<path fill="none" stroke="midnightblue" d="M1026.39,-235.475C1040.96,-225.843 1064.9,-210.017 1082.25,-198.552"/>
<polygon fill="midnightblue" stroke="midnightblue" points="1084.22,-201.444 1090.63,-193.009 1080.36,-195.604 1084.22,-201.444"/>
</g>
<!-- Node25 -->
<g id="node25" class="node"><title>Node25</title>
<g id="a_node25"><a xlink:href="Index_8inl.html" target="_top" xlink:title="Core/Index/Index.inl">
<polygon fill="white" stroke="black" points="954.5,-174 954.5,-193 1064.5,-193 1064.5,-174 954.5,-174"/>
<text text-anchor="middle" x="1009.5" y="-181" font-family="Helvetica,sans-Serif" font-size="10.00">Core/Index/Index.inl</text>
</a>
</g>
</g>
<!-- Node23&#45;&gt;Node25 -->
<g id="edge28" class="edge"><title>Node23&#45;&gt;Node25</title>
<path fill="none" stroke="midnightblue" d="M1012.93,-235.475C1012.36,-227.08 1011.48,-213.981 1010.75,-203.163"/>
<polygon fill="midnightblue" stroke="midnightblue" points="1014.24,-202.752 1010.07,-193.009 1007.25,-203.221 1014.24,-202.752"/>
</g>
<!-- Node26&#45;&gt;Node9 -->
<g id="edge33" class="edge"><title>Node26&#45;&gt;Node9</title>
<path fill="none" stroke="midnightblue" d="M625.644,-291.444C606.234,-282.636 575.77,-268.812 553.535,-258.722"/>
<polygon fill="midnightblue" stroke="midnightblue" points="554.82,-255.462 544.268,-254.516 551.928,-261.836 554.82,-255.462"/>
</g>
<!-- Node26&#45;&gt;Node10 -->
<g id="edge32" class="edge"><title>Node26&#45;&gt;Node10</title>
<path fill="none" stroke="midnightblue" d="M691.923,-291.43C743.304,-279.632 824.016,-253.339 869.5,-199 882.976,-182.9 887.109,-158.581 888.266,-141.81"/>
<polygon fill="midnightblue" stroke="midnightblue" points="891.772,-141.729 888.67,-131.599 884.777,-141.452 891.772,-141.729"/>
</g>
<!-- Node26&#45;&gt;Node12 -->
<g id="edge34" class="edge"><title>Node26&#45;&gt;Node12</title>
<path fill="none" stroke="midnightblue" d="M657.202,-291.319C685.953,-271.67 756.276,-223.609 791.966,-199.217"/>
<polygon fill="midnightblue" stroke="midnightblue" points="794.369,-201.814 800.65,-193.282 790.419,-196.035 794.369,-201.814"/>
</g>
<!-- Node27&#45;&gt;Node21 -->
<g id="edge36" class="edge"><title>Node27&#45;&gt;Node21</title>
<path fill="none" stroke="midnightblue" d="M811.397,-310.509C813.23,-318.898 813.703,-331.996 812.817,-342.817"/>
<polygon fill="midnightblue" stroke="midnightblue" points="809.315,-342.588 811.401,-352.975 816.248,-343.554 809.315,-342.588"/>
</g>
</g>
</svg>
