<?xml version="1.0" encoding="UTF-8" standalone="no"?>
<!DOCTYPE svg PUBLIC "-//W3C//DTD SVG 1.1//EN"
 "http://www.w3.org/Graphics/SVG/1.1/DTD/svg11.dtd">
<!-- Generated by graphviz version 2.38.0 (20140413.2041)
 -->
<!-- Title: /home/travis/build/STORM&#45;IRIT/Radium&#45;Engine/src/Core/Animation/Skinning/LinearBlendSkinning.hpp Pages: 1 -->
<svg width="1143pt" height="430pt"
 viewBox="0.00 0.00 1143.00 430.00" xmlns="http://www.w3.org/2000/svg" xmlns:xlink="http://www.w3.org/1999/xlink">
<g id="graph0" class="graph" transform="scale(1 1) rotate(0) translate(4 426)">
<title>/home/travis/build/STORM&#45;IRIT/Radium&#45;Engine/src/Core/Animation/Skinning/LinearBlendSkinning.hpp</title>
<polygon fill="white" stroke="none" points="-4,4 -4,-426 1139,-426 1139,4 -4,4"/>
<!-- Node1 -->
<g id="node1" class="node"><title>Node1</title>
<polygon fill="#bfbfbf" stroke="black" points="662.5,-369.5 662.5,-421.5 817.5,-421.5 817.5,-369.5 662.5,-369.5"/>
<text text-anchor="start" x="670.5" y="-409.5" font-family="Helvetica,sans-Serif" font-size="10.00">/home/travis/build</text>
<text text-anchor="start" x="670.5" y="-398.5" font-family="Helvetica,sans-Serif" font-size="10.00">/STORM&#45;IRIT/Radium&#45;Engine</text>
<text text-anchor="start" x="670.5" y="-387.5" font-family="Helvetica,sans-Serif" font-size="10.00">/src/Core/Animation/Skinning</text>
<text text-anchor="middle" x="740" y="-376.5" font-family="Helvetica,sans-Serif" font-size="10.00">/LinearBlendSkinning.hpp</text>
</g>
<!-- Node2 -->
<g id="node2" class="node"><title>Node2</title>
<g id="a_node2"><a xlink:href="HandleWeight_8hpp.html" target="_top" xlink:title="Core/Animation/Handle\l/HandleWeight.hpp">
<polygon fill="white" stroke="black" points="606,-302.5 606,-332.5 734,-332.5 734,-302.5 606,-302.5"/>
<text text-anchor="start" x="614" y="-320.5" font-family="Helvetica,sans-Serif" font-size="10.00">Core/Animation/Handle</text>
<text text-anchor="middle" x="670" y="-309.5" font-family="Helvetica,sans-Serif" font-size="10.00">/HandleWeight.hpp</text>
</a>
</g>
</g>
<!-- Node1&#45;&gt;Node2 -->
<g id="edge1" class="edge"><title>Node1&#45;&gt;Node2</title>
<path fill="none" stroke="midnightblue" d="M716.691,-369.193C708.078,-359.842 698.398,-349.332 690.094,-340.316"/>
<polygon fill="midnightblue" stroke="midnightblue" points="692.562,-337.83 683.213,-332.845 687.413,-342.572 692.562,-337.83"/>
</g>
<!-- Node13 -->
<g id="node13" class="node"><title>Node13</title>
<g id="a_node13"><a xlink:href="LinearAlgebra_8hpp.html" target="_top" xlink:title="Core/Math/LinearAlgebra.hpp">
<polygon fill="white" stroke="black" points="537,-241 537,-260 693,-260 693,-241 537,-241"/>
<text text-anchor="middle" x="615" y="-248" font-family="Helvetica,sans-Serif" font-size="10.00">Core/Math/LinearAlgebra.hpp</text>
</a>
</g>
</g>
<!-- Node1&#45;&gt;Node13 -->
<g id="edge35" class="edge"><title>Node1&#45;&gt;Node13</title>
<path fill="none" stroke="midnightblue" d="M662.346,-379.101C637.185,-370.036 611.937,-355.684 597,-333 584.276,-313.677 594.425,-286.755 603.866,-269.229"/>
<polygon fill="midnightblue" stroke="midnightblue" points="607.16,-270.527 609.164,-260.124 601.109,-267.007 607.16,-270.527"/>
</g>
<!-- Node25 -->
<g id="node25" class="node"><title>Node25</title>
<g id="a_node25"><a xlink:href="Pose_8hpp.html" target="_top" xlink:title="Core/Animation/Pose\l/Pose.hpp">
<polygon fill="white" stroke="black" points="752.5,-302.5 752.5,-332.5 869.5,-332.5 869.5,-302.5 752.5,-302.5"/>
<text text-anchor="start" x="760.5" y="-320.5" font-family="Helvetica,sans-Serif" font-size="10.00">Core/Animation/Pose</text>
<text text-anchor="middle" x="811" y="-309.5" font-family="Helvetica,sans-Serif" font-size="10.00">/Pose.hpp</text>
</a>
</g>
</g>
<!-- Node1&#45;&gt;Node25 -->
<g id="edge27" class="edge"><title>Node1&#45;&gt;Node25</title>
<path fill="none" stroke="midnightblue" d="M763.642,-369.193C772.378,-359.842 782.197,-349.332 790.619,-340.316"/>
<polygon fill="midnightblue" stroke="midnightblue" points="793.329,-342.542 797.599,-332.845 788.214,-337.763 793.329,-342.542"/>
</g>
<!-- Node26 -->
<g id="node26" class="node"><title>Node26</title>
<g id="a_node26"><a xlink:href="VectorArray_8hpp.html" target="_top" xlink:title="Core/Containers/VectorArray.hpp">
<polygon fill="white" stroke="black" points="887.5,-308 887.5,-327 1060.5,-327 1060.5,-308 887.5,-308"/>
<text text-anchor="middle" x="974" y="-315" font-family="Helvetica,sans-Serif" font-size="10.00">Core/Containers/VectorArray.hpp</text>
</a>
</g>
</g>
<!-- Node1&#45;&gt;Node26 -->
<g id="edge30" class="edge"><title>Node1&#45;&gt;Node26</title>
<path fill="none" stroke="midnightblue" d="M817.269,-369.404C857.87,-356.217 905.715,-340.678 937.767,-330.268"/>
<polygon fill="midnightblue" stroke="midnightblue" points="939.159,-333.496 947.589,-327.078 936.997,-326.838 939.159,-333.496"/>
</g>
<!-- Node3 -->
<g id="node3" class="node"><title>Node3</title>
<g id="a_node3"><a xlink:href="AlignedStdVector_8hpp.html" target="_top" xlink:title="Core/Containers/AlignedStd\lVector.hpp">
<polygon fill="white" stroke="black" points="856.5,-235.5 856.5,-265.5 1005.5,-265.5 1005.5,-235.5 856.5,-235.5"/>
<text text-anchor="start" x="864.5" y="-253.5" font-family="Helvetica,sans-Serif" font-size="10.00">Core/Containers/AlignedStd</text>
<text text-anchor="middle" x="931" y="-242.5" font-family="Helvetica,sans-Serif" font-size="10.00">Vector.hpp</text>
</a>
</g>
</g>
<!-- Node2&#45;&gt;Node3 -->
<g id="edge2" class="edge"><title>Node2&#45;&gt;Node3</title>
<path fill="none" stroke="midnightblue" d="M726.312,-302.476C766.908,-292.366 821.847,-278.684 864.586,-268.04"/>
<polygon fill="midnightblue" stroke="midnightblue" points="865.481,-271.424 874.339,-265.611 863.79,-264.631 865.481,-271.424"/>
</g>
<!-- Node2&#45;&gt;Node13 -->
<g id="edge12" class="edge"><title>Node2&#45;&gt;Node13</title>
<path fill="none" stroke="midnightblue" d="M658.066,-302.396C649.49,-292.261 637.903,-278.567 628.908,-267.937"/>
<polygon fill="midnightblue" stroke="midnightblue" points="631.488,-265.568 622.357,-260.195 626.145,-270.089 631.488,-265.568"/>
</g>
<!-- Node24 -->
<g id="node24" class="node"><title>Node24</title>
<polygon fill="white" stroke="#bfbfbf" points="481,-241 481,-260 519,-260 519,-241 481,-241"/>
<text text-anchor="middle" x="500" y="-248" font-family="Helvetica,sans-Serif" font-size="10.00">map</text>
</g>
<!-- Node2&#45;&gt;Node24 -->
<g id="edge26" class="edge"><title>Node2&#45;&gt;Node24</title>
<path fill="none" stroke="midnightblue" d="M625.582,-302.436C597.279,-293.051 560.039,-279.916 528,-266 526.971,-265.553 525.927,-265.084 524.877,-264.601"/>
<polygon fill="midnightblue" stroke="midnightblue" points="526.035,-261.271 515.516,-260.011 522.954,-267.556 526.035,-261.271"/>
</g>
<!-- Node4 -->
<g id="node4" class="node"><title>Node4</title>
<g id="a_node4"><a xlink:href="RaCore_8hpp.html" target="_top" xlink:title="Core/RaCore.hpp">
<polygon fill="white" stroke="black" points="916,-112.5 916,-131.5 1014,-131.5 1014,-112.5 916,-112.5"/>
<text text-anchor="middle" x="965" y="-119.5" font-family="Helvetica,sans-Serif" font-size="10.00">Core/RaCore.hpp</text>
</a>
</g>
</g>
<!-- Node3&#45;&gt;Node4 -->
<g id="edge3" class="edge"><title>Node3&#45;&gt;Node4</title>
<path fill="none" stroke="midnightblue" d="M950.841,-235.329C961.683,-226.313 974.079,-213.604 980,-199 987.71,-179.983 980.901,-156.638 974.141,-140.878"/>
<polygon fill="midnightblue" stroke="midnightblue" points="977.272,-139.31 969.859,-131.74 970.933,-142.28 977.272,-139.31"/>
</g>
<!-- Node11 -->
<g id="node11" class="node"><title>Node11</title>
<polygon fill="white" stroke="#bfbfbf" points="878.5,-174 878.5,-193 971.5,-193 971.5,-174 878.5,-174"/>
<text text-anchor="middle" x="925" y="-181" font-family="Helvetica,sans-Serif" font-size="10.00">Eigen/StdVector</text>
</g>
<!-- Node3&#45;&gt;Node11 -->
<g id="edge10" class="edge"><title>Node3&#45;&gt;Node11</title>
<path fill="none" stroke="midnightblue" d="M929.698,-235.396C928.827,-225.963 927.672,-213.448 926.725,-203.189"/>
<polygon fill="midnightblue" stroke="midnightblue" points="930.207,-202.83 925.803,-193.195 923.237,-203.474 930.207,-202.83"/>
</g>
<!-- Node12 -->
<g id="node12" class="node"><title>Node12</title>
<polygon fill="white" stroke="#bfbfbf" points="1028.5,-174 1028.5,-193 1075.5,-193 1075.5,-174 1028.5,-174"/>
<text text-anchor="middle" x="1052" y="-181" font-family="Helvetica,sans-Serif" font-size="10.00">vector</text>
</g>
<!-- Node3&#45;&gt;Node12 -->
<g id="edge11" class="edge"><title>Node3&#45;&gt;Node12</title>
<path fill="none" stroke="midnightblue" d="M957.255,-235.396C978.016,-224.243 1006.8,-208.781 1027.18,-197.834"/>
<polygon fill="midnightblue" stroke="midnightblue" points="1029.01,-200.823 1036.16,-193.007 1025.7,-194.656 1029.01,-200.823"/>
</g>
<!-- Node5 -->
<g id="node5" class="node"><title>Node5</title>
<g id="a_node5"><a xlink:href="CoreMacros_8hpp.html" target="_top" xlink:title="Core/CoreMacros.hpp">
<polygon fill="white" stroke="black" points="905,-56.5 905,-75.5 1025,-75.5 1025,-56.5 905,-56.5"/>
<text text-anchor="middle" x="965" y="-63.5" font-family="Helvetica,sans-Serif" font-size="10.00">Core/CoreMacros.hpp</text>
</a>
</g>
</g>
<!-- Node4&#45;&gt;Node5 -->
<g id="edge4" class="edge"><title>Node4&#45;&gt;Node5</title>
<path fill="none" stroke="midnightblue" d="M965,-112.083C965,-105.006 965,-94.8611 965,-85.9865"/>
<polygon fill="midnightblue" stroke="midnightblue" points="968.5,-85.751 965,-75.7511 961.5,-85.7511 968.5,-85.751"/>
</g>
<!-- Node6 -->
<g id="node6" class="node"><title>Node6</title>
<polygon fill="white" stroke="#bfbfbf" points="802,-0.5 802,-19.5 854,-19.5 854,-0.5 802,-0.5"/>
<text text-anchor="middle" x="828" y="-7.5" font-family="Helvetica,sans-Serif" font-size="10.00">cassert</text>
</g>
<!-- Node5&#45;&gt;Node6 -->
<g id="edge5" class="edge"><title>Node5&#45;&gt;Node6</title>
<path fill="none" stroke="midnightblue" d="M943.292,-56.4435C920.645,-47.5171 884.928,-33.4387 859.248,-23.3168"/>
<polygon fill="midnightblue" stroke="midnightblue" points="860.193,-19.9273 849.606,-19.5164 857.626,-26.4397 860.193,-19.9273"/>
</g>
<!-- Node7 -->
<g id="node7" class="node"><title>Node7</title>
<polygon fill="white" stroke="#bfbfbf" points="872.5,-0.5 872.5,-19.5 917.5,-19.5 917.5,-0.5 872.5,-0.5"/>
<text text-anchor="middle" x="895" y="-7.5" font-family="Helvetica,sans-Serif" font-size="10.00">cstdio</text>
</g>
<!-- Node5&#45;&gt;Node7 -->
<g id="edge6" class="edge"><title>Node5&#45;&gt;Node7</title>
<path fill="none" stroke="midnightblue" d="M953.753,-56.324C943.203,-48.1849 927.199,-35.8395 914.558,-26.0874"/>
<polygon fill="midnightblue" stroke="midnightblue" points="916.507,-23.1707 906.451,-19.8339 912.231,-28.7132 916.507,-23.1707"/>
</g>
<!-- Node8 -->
<g id="node8" class="node"><title>Node8</title>
<polygon fill="white" stroke="#bfbfbf" points="935.5,-0.5 935.5,-19.5 994.5,-19.5 994.5,-0.5 935.5,-0.5"/>
<text text-anchor="middle" x="965" y="-7.5" font-family="Helvetica,sans-Serif" font-size="10.00">iostream</text>
</g>
<!-- Node5&#45;&gt;Node8 -->
<g id="edge7" class="edge"><title>Node5&#45;&gt;Node8</title>
<path fill="none" stroke="midnightblue" d="M965,-56.083C965,-49.0059 965,-38.8611 965,-29.9865"/>
<polygon fill="midnightblue" stroke="midnightblue" points="968.5,-29.751 965,-19.7511 961.5,-29.7511 968.5,-29.751"/>
</g>
<!-- Node9 -->
<g id="node9" class="node"><title>Node9</title>
<polygon fill="white" stroke="#bfbfbf" points="1013,-0.5 1013,-19.5 1069,-19.5 1069,-0.5 1013,-0.5"/>
<text text-anchor="middle" x="1041" y="-7.5" font-family="Helvetica,sans-Serif" font-size="10.00">sstream</text>
</g>
<!-- Node5&#45;&gt;Node9 -->
<g id="edge8" class="edge"><title>Node5&#45;&gt;Node9</title>
<path fill="none" stroke="midnightblue" d="M977.211,-56.324C988.776,-48.1066 1006.38,-35.6017 1020.16,-25.8069"/>
<polygon fill="midnightblue" stroke="midnightblue" points="1022.44,-28.4791 1028.57,-19.8339 1018.39,-22.7729 1022.44,-28.4791"/>
</g>
<!-- Node10 -->
<g id="node10" class="node"><title>Node10</title>
<polygon fill="white" stroke="#bfbfbf" points="1087,-0.5 1087,-19.5 1135,-19.5 1135,-0.5 1087,-0.5"/>
<text text-anchor="middle" x="1111" y="-7.5" font-family="Helvetica,sans-Serif" font-size="10.00">thread</text>
</g>
<!-- Node5&#45;&gt;Node10 -->
<g id="edge9" class="edge"><title>Node5&#45;&gt;Node10</title>
<path fill="none" stroke="midnightblue" d="M988.134,-56.4435C1012.48,-47.4381 1051.01,-33.1891 1078.42,-23.049"/>
<polygon fill="midnightblue" stroke="midnightblue" points="1079.81,-26.2681 1087.97,-19.5164 1077.38,-19.7028 1079.81,-26.2681"/>
</g>
<!-- Node13&#45;&gt;Node4 -->
<g id="edge13" class="edge"><title>Node13&#45;&gt;Node4</title>
<path fill="none" stroke="midnightblue" d="M687.32,-240.978C730.651,-233.865 785.9,-221.176 831,-199 850.559,-189.383 850.549,-179.602 869,-168 889.529,-155.092 914.352,-143.552 933.614,-135.39"/>
<polygon fill="midnightblue" stroke="midnightblue" points="934.96,-138.621 942.853,-131.553 932.275,-132.157 934.96,-138.621"/>
</g>
<!-- Node14 -->
<g id="node14" class="node"><title>Node14</title>
<polygon fill="white" stroke="#bfbfbf" points="0,-174 0,-193 68,-193 68,-174 0,-174"/>
<text text-anchor="middle" x="34" y="-181" font-family="Helvetica,sans-Serif" font-size="10.00">Eigen/Core</text>
</g>
<!-- Node13&#45;&gt;Node14 -->
<g id="edge14" class="edge"><title>Node13&#45;&gt;Node14</title>
<path fill="none" stroke="midnightblue" d="M568.149,-240.937C555.177,-238.772 541.07,-236.608 528,-235 328.422,-210.449 273.976,-239.43 77,-199 73.3101,-198.243 69.4986,-197.262 65.7396,-196.169"/>
<polygon fill="midnightblue" stroke="midnightblue" points="66.6219,-192.777 56.0316,-193.085 64.5028,-199.448 66.6219,-192.777"/>
</g>
<!-- Node15 -->
<g id="node15" class="node"><title>Node15</title>
<polygon fill="white" stroke="#bfbfbf" points="86,-174 86,-193 180,-193 180,-174 86,-174"/>
<text text-anchor="middle" x="133" y="-181" font-family="Helvetica,sans-Serif" font-size="10.00">Eigen/Geometry</text>
</g>
<!-- Node13&#45;&gt;Node15 -->
<g id="edge15" class="edge"><title>Node13&#45;&gt;Node15</title>
<path fill="none" stroke="midnightblue" d="M566.758,-240.936C554.165,-238.844 540.593,-236.717 528,-235 377.874,-214.537 338.077,-226.063 189,-199 183.627,-198.025 178.01,-196.809 172.495,-195.5"/>
<polygon fill="midnightblue" stroke="midnightblue" points="173.303,-192.095 162.753,-193.074 171.611,-198.887 173.303,-192.095"/>
</g>
<!-- Node16 -->
<g id="node16" class="node"><title>Node16</title>
<polygon fill="white" stroke="#bfbfbf" points="198,-174 198,-193 278,-193 278,-174 198,-174"/>
<text text-anchor="middle" x="238" y="-181" font-family="Helvetica,sans-Serif" font-size="10.00">Eigen/Sparse</text>
</g>
<!-- Node13&#45;&gt;Node16 -->
<g id="edge16" class="edge"><title>Node13&#45;&gt;Node16</title>
<path fill="none" stroke="midnightblue" d="M564.878,-240.998C552.808,-238.992 539.949,-236.888 528,-235 421.028,-218.097 392.736,-222.422 287,-199 282.81,-198.072 278.454,-196.977 274.144,-195.811"/>
<polygon fill="midnightblue" stroke="midnightblue" points="274.847,-192.372 264.271,-193.007 272.935,-199.106 274.847,-192.372"/>
</g>
<!-- Node17 -->
<g id="node17" class="node"><title>Node17</title>
<polygon fill="white" stroke="#bfbfbf" points="296.5,-174 296.5,-193 359.5,-193 359.5,-174 296.5,-174"/>
<text text-anchor="middle" x="328" y="-181" font-family="Helvetica,sans-Serif" font-size="10.00">functional</text>
</g>
<!-- Node13&#45;&gt;Node17 -->
<g id="edge17" class="edge"><title>Node13&#45;&gt;Node17</title>
<path fill="none" stroke="midnightblue" d="M561.945,-240.965C511.56,-232.318 433.93,-217.582 368,-199 365.201,-198.211 362.316,-197.322 359.439,-196.382"/>
<polygon fill="midnightblue" stroke="midnightblue" points="360.413,-193.015 349.819,-193.062 358.13,-199.632 360.413,-193.015"/>
</g>
<!-- Node18 -->
<g id="node18" class="node"><title>Node18</title>
<polygon fill="white" stroke="#bfbfbf" points="377.5,-168.5 377.5,-198.5 522.5,-198.5 522.5,-168.5 377.5,-168.5"/>
<text text-anchor="start" x="385.5" y="-186.5" font-family="Helvetica,sans-Serif" font-size="10.00">unsupported/Eigen/Aligned</text>
<text text-anchor="middle" x="450" y="-175.5" font-family="Helvetica,sans-Serif" font-size="10.00">Vector3</text>
</g>
<!-- Node13&#45;&gt;Node18 -->
<g id="edge18" class="edge"><title>Node13&#45;&gt;Node18</title>
<path fill="none" stroke="midnightblue" d="M593.089,-240.869C568.223,-231.073 526.991,-214.83 495.158,-202.29"/>
<polygon fill="midnightblue" stroke="midnightblue" points="496.197,-198.937 485.61,-198.528 493.631,-205.45 496.197,-198.937"/>
</g>
<!-- Node19 -->
<g id="node19" class="node"><title>Node19</title>
<g id="a_node19"><a xlink:href="Math_8hpp.html" target="_top" xlink:title="Core/Math/Math.hpp">
<polygon fill="white" stroke="black" points="708,-174 708,-193 822,-193 822,-174 708,-174"/>
<text text-anchor="middle" x="765" y="-181" font-family="Helvetica,sans-Serif" font-size="10.00">Core/Math/Math.hpp</text>
</a>
</g>
</g>
<!-- Node13&#45;&gt;Node19 -->
<g id="edge19" class="edge"><title>Node13&#45;&gt;Node19</title>
<path fill="none" stroke="midnightblue" d="M634.919,-240.869C660.695,-229.699 705.815,-210.147 735.553,-197.26"/>
<polygon fill="midnightblue" stroke="midnightblue" points="737.215,-200.355 744.999,-193.167 734.432,-193.932 737.215,-200.355"/>
</g>
<!-- Node23 -->
<g id="node23" class="node"><title>Node23</title>
<g id="a_node23"><a xlink:href="LinearAlgebra_8inl.html" target="_top" xlink:title="Core/Math/LinearAlgebra.inl">
<polygon fill="white" stroke="black" points="540.5,-174 540.5,-193 689.5,-193 689.5,-174 540.5,-174"/>
<text text-anchor="middle" x="615" y="-181" font-family="Helvetica,sans-Serif" font-size="10.00">Core/Math/LinearAlgebra.inl</text>
</a>
</g>
</g>
<!-- Node13&#45;&gt;Node23 -->
<g id="edge25" class="edge"><title>Node13&#45;&gt;Node23</title>
<path fill="none" stroke="midnightblue" d="M615,-240.734C615,-231.183 615,-215.618 615,-203.283"/>
<polygon fill="midnightblue" stroke="midnightblue" points="618.5,-203.127 615,-193.127 611.5,-203.127 618.5,-203.127"/>
</g>
<!-- Node19&#45;&gt;Node4 -->
<g id="edge20" class="edge"><title>Node19&#45;&gt;Node4</title>
<path fill="none" stroke="midnightblue" d="M793.655,-173.975C828.556,-163.592 887.65,-146.012 926.5,-134.454"/>
<polygon fill="midnightblue" stroke="midnightblue" points="927.811,-137.715 936.398,-131.509 925.815,-131.006 927.811,-137.715"/>
</g>
<!-- Node20 -->
<g id="node20" class="node"><title>Node20</title>
<polygon fill="white" stroke="#bfbfbf" points="752,-112.5 752,-131.5 814,-131.5 814,-112.5 752,-112.5"/>
<text text-anchor="middle" x="783" y="-119.5" font-family="Helvetica,sans-Serif" font-size="10.00">algorithm</text>
</g>
<!-- Node19&#45;&gt;Node20 -->
<g id="edge21" class="edge"><title>Node19&#45;&gt;Node20</title>
<path fill="none" stroke="midnightblue" d="M767.579,-173.975C770.145,-165.492 774.165,-152.204 777.457,-141.322"/>
<polygon fill="midnightblue" stroke="midnightblue" points="780.88,-142.094 780.426,-131.509 774.18,-140.067 780.88,-142.094"/>
</g>
<!-- Node21 -->
<g id="node21" class="node"><title>Node21</title>
<polygon fill="white" stroke="#bfbfbf" points="832.5,-112.5 832.5,-131.5 879.5,-131.5 879.5,-112.5 832.5,-112.5"/>
<text text-anchor="middle" x="856" y="-119.5" font-family="Helvetica,sans-Serif" font-size="10.00">cmath</text>
</g>
<!-- Node19&#45;&gt;Node21 -->
<g id="edge22" class="edge"><title>Node19&#45;&gt;Node21</title>
<path fill="none" stroke="midnightblue" d="M778.038,-173.975C792.769,-164.343 816.973,-148.517 834.509,-137.052"/>
<polygon fill="midnightblue" stroke="midnightblue" points="836.532,-139.911 842.986,-131.509 832.701,-134.052 836.532,-139.911"/>
</g>
<!-- Node22 -->
<g id="node22" class="node"><title>Node22</title>
<g id="a_node22"><a xlink:href="Math_8inl.html" target="_top" xlink:title="Core/Math/Math.inl">
<polygon fill="white" stroke="black" points="627.5,-112.5 627.5,-131.5 734.5,-131.5 734.5,-112.5 627.5,-112.5"/>
<text text-anchor="middle" x="681" y="-119.5" font-family="Helvetica,sans-Serif" font-size="10.00">Core/Math/Math.inl</text>
</a>
</g>
</g>
<!-- Node19&#45;&gt;Node22 -->
<g id="edge23" class="edge"><title>Node19&#45;&gt;Node22</title>
<path fill="none" stroke="midnightblue" d="M748.064,-173.975C732.797,-164.608 710.954,-149.384 696.236,-138.008"/>
<polygon fill="midnightblue" stroke="midnightblue" points="698.11,-135.025 688.116,-131.509 693.736,-140.49 698.11,-135.025"/>
</g>
<!-- Node22&#45;&gt;Node19 -->
<g id="edge24" class="edge"><title>Node22&#45;&gt;Node19</title>
<path fill="none" stroke="midnightblue" d="M697.91,-131.509C713.169,-140.869 735.013,-156.093 749.739,-167.473"/>
<polygon fill="midnightblue" stroke="midnightblue" points="747.871,-170.46 757.865,-173.975 752.244,-164.995 747.871,-170.46"/>
</g>
<!-- Node25&#45;&gt;Node3 -->
<g id="edge28" class="edge"><title>Node25&#45;&gt;Node3</title>
<path fill="none" stroke="midnightblue" d="M837.038,-302.396C854.336,-293.026 877.248,-280.615 896.117,-270.395"/>
<polygon fill="midnightblue" stroke="midnightblue" points="897.887,-273.417 905.013,-265.577 894.553,-267.262 897.887,-273.417"/>
</g>
<!-- Node25&#45;&gt;Node13 -->
<g id="edge29" class="edge"><title>Node25&#45;&gt;Node13</title>
<path fill="none" stroke="midnightblue" d="M768.471,-302.396C733.167,-290.688 683.544,-274.231 650.381,-263.234"/>
<polygon fill="midnightblue" stroke="midnightblue" points="651.245,-259.833 640.652,-260.007 649.042,-266.477 651.245,-259.833"/>
</g>
<!-- Node26&#45;&gt;Node3 -->
<g id="edge31" class="edge"><title>Node26&#45;&gt;Node3</title>
<path fill="none" stroke="midnightblue" d="M968.201,-307.734C962.501,-299.118 953.565,-285.61 945.879,-273.992"/>
<polygon fill="midnightblue" stroke="midnightblue" points="948.757,-271.998 940.32,-265.589 942.919,-275.86 948.757,-271.998"/>
</g>
<!-- Node26&#45;&gt;Node4 -->
<g id="edge33" class="edge"><title>Node26&#45;&gt;Node4</title>
<path fill="none" stroke="midnightblue" d="M989.249,-307.941C1027.45,-285.397 1121.57,-222.375 1084,-168 1070.33,-148.213 1046.76,-137.118 1024.18,-130.9"/>
<polygon fill="midnightblue" stroke="midnightblue" points="1024.81,-127.449 1014.26,-128.447 1023.13,-134.245 1024.81,-127.449"/>
</g>
<!-- Node26&#45;&gt;Node12 -->
<g id="edge34" class="edge"><title>Node26&#45;&gt;Node12</title>
<path fill="none" stroke="midnightblue" d="M982.052,-307.669C990.658,-297.943 1004.36,-281.608 1014,-266 1026.77,-245.318 1038.06,-219.649 1044.95,-202.708"/>
<polygon fill="midnightblue" stroke="midnightblue" points="1048.2,-203.996 1048.64,-193.41 1041.7,-201.411 1048.2,-203.996"/>
</g>
<!-- Node26&#45;&gt;Node13 -->
<g id="edge32" class="edge"><title>Node26&#45;&gt;Node13</title>
<path fill="none" stroke="midnightblue" d="M926.698,-307.936C861.095,-296.058 742.629,-274.608 672.158,-261.849"/>
<polygon fill="midnightblue" stroke="midnightblue" points="672.585,-258.369 662.121,-260.032 671.338,-265.257 672.585,-258.369"/>
</g>
</g>
</svg>
