<?xml version="1.0" encoding="UTF-8" standalone="no"?>
<!DOCTYPE svg PUBLIC "-//W3C//DTD SVG 1.1//EN"
 "http://www.w3.org/Graphics/SVG/1.1/DTD/svg11.dtd">
<!-- Generated by graphviz version 2.38.0 (20140413.2041)
 -->
<!-- Title: /home/travis/build/STORM&#45;IRIT/Radium&#45;Engine/src/Core/Log/Log.hpp Pages: 1 -->
<svg width="423pt" height="274pt"
 viewBox="0.00 0.00 423.00 274.00" xmlns="http://www.w3.org/2000/svg" xmlns:xlink="http://www.w3.org/1999/xlink">
<g id="graph0" class="graph" transform="scale(1 1) rotate(0) translate(4 270)">
<title>/home/travis/build/STORM&#45;IRIT/Radium&#45;Engine/src/Core/Log/Log.hpp</title>
<polygon fill="white" stroke="none" points="-4,4 -4,-270 419,-270 419,4 -4,4"/>
<!-- Node1 -->
<g id="node1" class="node"><title>Node1</title>
<polygon fill="#bfbfbf" stroke="black" points="111,-224.5 111,-265.5 259,-265.5 259,-224.5 111,-224.5"/>
<text text-anchor="start" x="119" y="-253.5" font-family="Helvetica,sans-Serif" font-size="10.00">/home/travis/build</text>
<text text-anchor="start" x="119" y="-242.5" font-family="Helvetica,sans-Serif" font-size="10.00">/STORM&#45;IRIT/Radium&#45;Engine</text>
<text text-anchor="middle" x="185" y="-231.5" font-family="Helvetica,sans-Serif" font-size="10.00">/src/Core/Log/Log.hpp</text>
</g>
<!-- Node2 -->
<g id="node2" class="node"><title>Node2</title>
<g id="a_node2"><a xlink:href="RaCore_8hpp.html" target="_top" xlink:title="Core/RaCore.hpp">
<polygon fill="white" stroke="black" points="104,-112.5 104,-131.5 202,-131.5 202,-112.5 104,-112.5"/>
<text text-anchor="middle" x="153" y="-119.5" font-family="Helvetica,sans-Serif" font-size="10.00">Core/RaCore.hpp</text>
</a>
</g>
</g>
<!-- Node1&#45;&gt;Node2 -->
<g id="edge1" class="edge"><title>Node1&#45;&gt;Node2</title>
<path fill="none" stroke="midnightblue" d="M133.931,-224.472C118.282,-215.796 102.868,-203.87 94,-188 82.7319,-167.835 105.489,-148.763 125.931,-136.558"/>
<polygon fill="midnightblue" stroke="midnightblue" points="127.733,-139.56 134.736,-131.609 124.304,-133.457 127.733,-139.56"/>
</g>
<!-- Node7 -->
<g id="node7" class="node"><title>Node7</title>
<polygon fill="white" stroke="#bfbfbf" points="0,-0.5 0,-19.5 56,-19.5 56,-0.5 0,-0.5"/>
<text text-anchor="middle" x="28" y="-7.5" font-family="Helvetica,sans-Serif" font-size="10.00">sstream</text>
</g>
<!-- Node1&#45;&gt;Node7 -->
<g id="edge8" class="edge"><title>Node1&#45;&gt;Node7</title>
<path fill="none" stroke="midnightblue" d="M136.084,-224.494C118.886,-215.575 100.703,-203.485 88,-188 48.6186,-139.994 34.5867,-64.8524 30.0117,-29.9701"/>
<polygon fill="midnightblue" stroke="midnightblue" points="33.4564,-29.2978 28.7997,-19.7812 26.5054,-30.1246 33.4564,-29.2978"/>
</g>
<!-- Node9 -->
<g id="node9" class="node"><title>Node9</title>
<polygon fill="white" stroke="#bfbfbf" points="103.5,-168.5 103.5,-187.5 152.5,-187.5 152.5,-168.5 103.5,-168.5"/>
<text text-anchor="middle" x="128" y="-175.5" font-family="Helvetica,sans-Serif" font-size="10.00">stdio.h</text>
</g>
<!-- Node1&#45;&gt;Node9 -->
<g id="edge9" class="edge"><title>Node1&#45;&gt;Node9</title>
<path fill="none" stroke="midnightblue" d="M167.898,-224.498C159.747,-215.203 150.107,-204.21 142.345,-195.358"/>
<polygon fill="midnightblue" stroke="midnightblue" points="144.812,-192.863 135.588,-187.652 139.549,-197.479 144.812,-192.863"/>
</g>
<!-- Node10 -->
<g id="node10" class="node"><title>Node10</title>
<polygon fill="white" stroke="#bfbfbf" points="304,-112.5 304,-131.5 348,-131.5 348,-112.5 304,-112.5"/>
<text text-anchor="middle" x="326" y="-119.5" font-family="Helvetica,sans-Serif" font-size="10.00">string</text>
</g>
<!-- Node1&#45;&gt;Node10 -->
<g id="edge10" class="edge"><title>Node1&#45;&gt;Node10</title>
<path fill="none" stroke="midnightblue" d="M259.262,-231.091C283.908,-222.942 308.888,-209.655 324,-188 333.279,-174.704 332.777,-155.87 330.547,-141.896"/>
<polygon fill="midnightblue" stroke="midnightblue" points="333.946,-141.043 328.543,-131.93 327.083,-142.424 333.946,-141.043"/>
</g>
<!-- Node11 -->
<g id="node11" class="node"><title>Node11</title>
<g id="a_node11"><a xlink:href="StringUtils_8hpp.html" target="_top" xlink:title="Core/String/StringUtils.hpp">
<polygon fill="white" stroke="black" points="171,-168.5 171,-187.5 315,-187.5 315,-168.5 171,-168.5"/>
<text text-anchor="middle" x="243" y="-175.5" font-family="Helvetica,sans-Serif" font-size="10.00">Core/String/StringUtils.hpp</text>
</a>
</g>
</g>
<!-- Node1&#45;&gt;Node11 -->
<g id="edge11" class="edge"><title>Node1&#45;&gt;Node11</title>
<path fill="none" stroke="midnightblue" d="M202.402,-224.498C210.696,-215.203 220.505,-204.21 228.404,-195.358"/>
<polygon fill="midnightblue" stroke="midnightblue" points="231.233,-197.444 235.279,-187.652 226.01,-192.784 231.233,-197.444"/>
</g>
<!-- Node13 -->
<g id="node13" class="node"><title>Node13</title>
<polygon fill="white" stroke="#bfbfbf" points="371,-168.5 371,-187.5 415,-187.5 415,-168.5 371,-168.5"/>
<text text-anchor="middle" x="393" y="-175.5" font-family="Helvetica,sans-Serif" font-size="10.00">ctime</text>
</g>
<!-- Node1&#45;&gt;Node13 -->
<g id="edge15" class="edge"><title>Node1&#45;&gt;Node13</title>
<path fill="none" stroke="midnightblue" d="M247.407,-224.498C284.928,-212.773 331.097,-198.345 361.249,-188.922"/>
<polygon fill="midnightblue" stroke="midnightblue" points="362.324,-192.253 370.825,-185.93 360.236,-185.572 362.324,-192.253"/>
</g>
<!-- Node3 -->
<g id="node3" class="node"><title>Node3</title>
<g id="a_node3"><a xlink:href="CoreMacros_8hpp.html" target="_top" xlink:title="Core/CoreMacros.hpp">
<polygon fill="white" stroke="black" points="105,-56.5 105,-75.5 225,-75.5 225,-56.5 105,-56.5"/>
<text text-anchor="middle" x="165" y="-63.5" font-family="Helvetica,sans-Serif" font-size="10.00">Core/CoreMacros.hpp</text>
</a>
</g>
</g>
<!-- Node2&#45;&gt;Node3 -->
<g id="edge2" class="edge"><title>Node2&#45;&gt;Node3</title>
<path fill="none" stroke="midnightblue" d="M154.982,-112.083C156.572,-104.927 158.859,-94.6353 160.846,-85.6911"/>
<polygon fill="midnightblue" stroke="midnightblue" points="164.303,-86.2722 163.055,-75.7511 157.469,-84.7537 164.303,-86.2722"/>
</g>
<!-- Node4 -->
<g id="node4" class="node"><title>Node4</title>
<polygon fill="white" stroke="#bfbfbf" points="281,-0.5 281,-19.5 333,-19.5 333,-0.5 281,-0.5"/>
<text text-anchor="middle" x="307" y="-7.5" font-family="Helvetica,sans-Serif" font-size="10.00">cassert</text>
</g>
<!-- Node3&#45;&gt;Node4 -->
<g id="edge3" class="edge"><title>Node3&#45;&gt;Node4</title>
<path fill="none" stroke="midnightblue" d="M187.5,-56.4435C211.077,-47.4776 248.322,-33.314 274.964,-23.1827"/>
<polygon fill="midnightblue" stroke="midnightblue" points="276.502,-26.3424 284.605,-19.5164 274.014,-19.7995 276.502,-26.3424"/>
</g>
<!-- Node5 -->
<g id="node5" class="node"><title>Node5</title>
<polygon fill="white" stroke="#bfbfbf" points="74.5,-0.5 74.5,-19.5 119.5,-19.5 119.5,-0.5 74.5,-0.5"/>
<text text-anchor="middle" x="97" y="-7.5" font-family="Helvetica,sans-Serif" font-size="10.00">cstdio</text>
</g>
<!-- Node3&#45;&gt;Node5 -->
<g id="edge4" class="edge"><title>Node3&#45;&gt;Node5</title>
<path fill="none" stroke="midnightblue" d="M154.075,-56.324C143.825,-48.1849 128.279,-35.8395 115.999,-26.0874"/>
<polygon fill="midnightblue" stroke="midnightblue" points="118.132,-23.3119 108.124,-19.8339 113.779,-28.7937 118.132,-23.3119"/>
</g>
<!-- Node6 -->
<g id="node6" class="node"><title>Node6</title>
<polygon fill="white" stroke="#bfbfbf" points="137.5,-0.5 137.5,-19.5 196.5,-19.5 196.5,-0.5 137.5,-0.5"/>
<text text-anchor="middle" x="167" y="-7.5" font-family="Helvetica,sans-Serif" font-size="10.00">iostream</text>
</g>
<!-- Node3&#45;&gt;Node6 -->
<g id="edge5" class="edge"><title>Node3&#45;&gt;Node6</title>
<path fill="none" stroke="midnightblue" d="M165.33,-56.083C165.592,-49.0059 165.968,-38.8611 166.297,-29.9865"/>
<polygon fill="midnightblue" stroke="midnightblue" points="169.803,-29.8738 166.676,-19.7511 162.808,-29.6147 169.803,-29.8738"/>
</g>
<!-- Node3&#45;&gt;Node7 -->
<g id="edge6" class="edge"><title>Node3&#45;&gt;Node7</title>
<path fill="none" stroke="midnightblue" d="M143.292,-56.4435C120.645,-47.5171 84.9279,-33.4387 59.2482,-23.3168"/>
<polygon fill="midnightblue" stroke="midnightblue" points="60.1934,-19.9273 49.6065,-19.5164 57.6264,-26.4397 60.1934,-19.9273"/>
</g>
<!-- Node8 -->
<g id="node8" class="node"><title>Node8</title>
<polygon fill="white" stroke="#bfbfbf" points="215,-0.5 215,-19.5 263,-19.5 263,-0.5 215,-0.5"/>
<text text-anchor="middle" x="239" y="-7.5" font-family="Helvetica,sans-Serif" font-size="10.00">thread</text>
</g>
<!-- Node3&#45;&gt;Node8 -->
<g id="edge7" class="edge"><title>Node3&#45;&gt;Node8</title>
<path fill="none" stroke="midnightblue" d="M176.889,-56.324C188.15,-48.1066 205.287,-35.6017 218.709,-25.8069"/>
<polygon fill="midnightblue" stroke="midnightblue" points="220.88,-28.5559 226.894,-19.8339 216.753,-22.9014 220.88,-28.5559"/>
</g>
<!-- Node11&#45;&gt;Node2 -->
<g id="edge12" class="edge"><title>Node11&#45;&gt;Node2</title>
<path fill="none" stroke="midnightblue" d="M228.54,-168.324C214.5,-159.9 192.952,-146.971 176.457,-137.074"/>
<polygon fill="midnightblue" stroke="midnightblue" points="177.8,-133.798 167.424,-131.655 174.198,-139.801 177.8,-133.798"/>
</g>
<!-- Node11&#45;&gt;Node10 -->
<g id="edge13" class="edge"><title>Node11&#45;&gt;Node10</title>
<path fill="none" stroke="midnightblue" d="M256.335,-168.324C269.162,-159.979 288.785,-147.212 303.94,-137.352"/>
<polygon fill="midnightblue" stroke="midnightblue" points="306.224,-140.042 312.698,-131.655 302.407,-134.174 306.224,-140.042"/>
</g>
<!-- Node12 -->
<g id="node12" class="node"><title>Node12</title>
<polygon fill="white" stroke="#bfbfbf" points="220.5,-112.5 220.5,-131.5 267.5,-131.5 267.5,-112.5 220.5,-112.5"/>
<text text-anchor="middle" x="244" y="-119.5" font-family="Helvetica,sans-Serif" font-size="10.00">vector</text>
</g>
<!-- Node11&#45;&gt;Node12 -->
<g id="edge14" class="edge"><title>Node11&#45;&gt;Node12</title>
<path fill="none" stroke="midnightblue" d="M243.165,-168.083C243.296,-161.006 243.484,-150.861 243.648,-141.986"/>
<polygon fill="midnightblue" stroke="midnightblue" points="247.152,-141.814 243.838,-131.751 240.153,-141.685 247.152,-141.814"/>
</g>
</g>
</svg>
