<?xml version="1.0" encoding="UTF-8" standalone="no"?>
<!DOCTYPE svg PUBLIC "-//W3C//DTD SVG 1.1//EN"
 "http://www.w3.org/Graphics/SVG/1.1/DTD/svg11.dtd">
<!-- Generated by graphviz version 2.38.0 (20140413.2041)
 -->
<!-- Title: /home/travis/build/STORM&#45;IRIT/Radium&#45;Engine/src/Core/File/MaterialData.hpp Pages: 1 -->
<svg width="1818pt" height="397pt"
 viewBox="0.00 0.00 1817.51 397.00" xmlns="http://www.w3.org/2000/svg" xmlns:xlink="http://www.w3.org/1999/xlink">
<g id="graph0" class="graph" transform="scale(1 1) rotate(0) translate(4 393)">
<title>/home/travis/build/STORM&#45;IRIT/Radium&#45;Engine/src/Core/File/MaterialData.hpp</title>
<polygon fill="white" stroke="none" points="-4,4 -4,-393 1813.51,-393 1813.51,4 -4,4"/>
<!-- Node1 -->
<g id="node1" class="node"><title>Node1</title>
<polygon fill="#bfbfbf" stroke="black" points="624.007,-347.5 624.007,-388.5 787.007,-388.5 787.007,-347.5 624.007,-347.5"/>
<text text-anchor="start" x="632.007" y="-376.5" font-family="Helvetica,sans-Serif" font-size="10.00">/home/travis/build</text>
<text text-anchor="start" x="632.007" y="-365.5" font-family="Helvetica,sans-Serif" font-size="10.00">/STORM&#45;IRIT/Radium&#45;Engine</text>
<text text-anchor="middle" x="705.507" y="-354.5" font-family="Helvetica,sans-Serif" font-size="10.00">/src/Core/File/MaterialData.hpp</text>
</g>
<!-- Node2 -->
<g id="node2" class="node"><title>Node2</title>
<polygon fill="white" stroke="#bfbfbf" points="1584.51,-112.5 1584.51,-131.5 1628.51,-131.5 1628.51,-112.5 1584.51,-112.5"/>
<text text-anchor="middle" x="1606.51" y="-119.5" font-family="Helvetica,sans-Serif" font-size="10.00">string</text>
</g>
<!-- Node1&#45;&gt;Node2 -->
<g id="edge1" class="edge"><title>Node1&#45;&gt;Node2</title>
<path fill="none" stroke="midnightblue" d="M787.112,-365.504C999.767,-361.126 1559.74,-346.348 1635.51,-311 1672.83,-293.589 1693.9,-275.826 1688.51,-235 1684.47,-204.431 1688.18,-193.269 1670.51,-168 1661.3,-154.833 1646.94,-144.226 1634.15,-136.625"/>
<polygon fill="midnightblue" stroke="midnightblue" points="1635.65,-133.453 1625.21,-131.628 1632.23,-139.563 1635.65,-133.453"/>
</g>
<!-- Node3 -->
<g id="node3" class="node"><title>Node3</title>
<polygon fill="white" stroke="#bfbfbf" points="171.007,-112.5 171.007,-131.5 218.007,-131.5 218.007,-112.5 171.007,-112.5"/>
<text text-anchor="middle" x="194.507" y="-119.5" font-family="Helvetica,sans-Serif" font-size="10.00">vector</text>
</g>
<!-- Node1&#45;&gt;Node3 -->
<g id="edge2" class="edge"><title>Node1&#45;&gt;Node3</title>
<path fill="none" stroke="midnightblue" d="M623.967,-367.781C479.022,-367.829 183.476,-361.49 95.5067,-311 32.3456,-274.748 -29.273,-225.431 15.5067,-168 17.7764,-165.089 109.554,-143.046 160.784,-130.927"/>
<polygon fill="midnightblue" stroke="midnightblue" points="161.825,-134.278 170.753,-128.573 160.216,-127.465 161.825,-134.278"/>
</g>
<!-- Node4 -->
<g id="node4" class="node"><title>Node4</title>
<g id="a_node4"><a xlink:href="VectorArray_8hpp.html" target="_top" xlink:title="Core/Containers/VectorArray.hpp">
<polygon fill="white" stroke="black" points="105.007,-291.5 105.007,-310.5 278.007,-310.5 278.007,-291.5 105.007,-291.5"/>
<text text-anchor="middle" x="191.507" y="-298.5" font-family="Helvetica,sans-Serif" font-size="10.00">Core/Containers/VectorArray.hpp</text>
</a>
</g>
</g>
<!-- Node1&#45;&gt;Node4 -->
<g id="edge3" class="edge"><title>Node1&#45;&gt;Node4</title>
<path fill="none" stroke="midnightblue" d="M623.778,-356.665C526.348,-344.344 364.731,-323.906 269.142,-311.818"/>
<polygon fill="midnightblue" stroke="midnightblue" points="269.323,-308.313 258.962,-310.53 268.444,-315.257 269.323,-308.313"/>
</g>
<!-- Node6 -->
<g id="node6" class="node"><title>Node6</title>
<g id="a_node6"><a xlink:href="RaCore_8hpp.html" target="_top" xlink:title="Core/RaCore.hpp">
<polygon fill="white" stroke="black" points="1074.51,-112.5 1074.51,-131.5 1172.51,-131.5 1172.51,-112.5 1074.51,-112.5"/>
<text text-anchor="middle" x="1123.51" y="-119.5" font-family="Helvetica,sans-Serif" font-size="10.00">Core/RaCore.hpp</text>
</a>
</g>
</g>
<!-- Node1&#45;&gt;Node6 -->
<g id="edge31" class="edge"><title>Node1&#45;&gt;Node6</title>
<path fill="none" stroke="midnightblue" d="M623.993,-354.827C485.172,-330.983 226.915,-271.242 324.507,-168 349.858,-141.181 883.656,-127.879 1064.33,-124.133"/>
<polygon fill="midnightblue" stroke="midnightblue" points="1064.52,-127.63 1074.45,-123.926 1064.38,-120.632 1064.52,-127.63"/>
</g>
<!-- Node14 -->
<g id="node14" class="node"><title>Node14</title>
<g id="a_node14"><a xlink:href="LinearAlgebra_8hpp.html" target="_top" xlink:title="Core/Math/LinearAlgebra.hpp">
<polygon fill="white" stroke="black" points="548.507,-235.5 548.507,-254.5 704.507,-254.5 704.507,-235.5 548.507,-235.5"/>
<text text-anchor="middle" x="626.507" y="-242.5" font-family="Helvetica,sans-Serif" font-size="10.00">Core/Math/LinearAlgebra.hpp</text>
</a>
</g>
</g>
<!-- Node1&#45;&gt;Node14 -->
<g id="edge30" class="edge"><title>Node1&#45;&gt;Node14</title>
<path fill="none" stroke="midnightblue" d="M692.638,-347.29C677.336,-323.852 652.051,-285.125 637.583,-262.965"/>
<polygon fill="midnightblue" stroke="midnightblue" points="640.503,-261.035 632.105,-254.575 634.641,-264.862 640.503,-261.035"/>
</g>
<!-- Node25 -->
<g id="node25" class="node"><title>Node25</title>
<g id="a_node25"><a xlink:href="AssetData_8hpp.html" target="_top" xlink:title="Core/File/AssetData.hpp">
<polygon fill="white" stroke="black" points="1252.01,-174 1252.01,-193 1383.01,-193 1383.01,-174 1252.01,-174"/>
<text text-anchor="middle" x="1317.51" y="-181" font-family="Helvetica,sans-Serif" font-size="10.00">Core/File/AssetData.hpp</text>
</a>
</g>
</g>
<!-- Node1&#45;&gt;Node25 -->
<g id="edge32" class="edge"><title>Node1&#45;&gt;Node25</title>
<path fill="none" stroke="midnightblue" d="M771.001,-347.469C898.597,-309.42 1176.91,-226.428 1278.98,-195.989"/>
<polygon fill="midnightblue" stroke="midnightblue" points="1280.28,-199.254 1288.86,-193.042 1278.28,-192.546 1280.28,-199.254"/>
</g>
<!-- Node26 -->
<g id="node26" class="node"><title>Node26</title>
<g id="a_node26"><a xlink:href="MaterialData_8inl.html" target="_top" xlink:title="Core/File/MaterialData.inl">
<polygon fill="white" stroke="black" points="1491.01,-291.5 1491.01,-310.5 1626.01,-310.5 1626.01,-291.5 1491.01,-291.5"/>
<text text-anchor="middle" x="1558.51" y="-298.5" font-family="Helvetica,sans-Serif" font-size="10.00">Core/File/MaterialData.inl</text>
</a>
</g>
</g>
<!-- Node1&#45;&gt;Node26 -->
<g id="edge35" class="edge"><title>Node1&#45;&gt;Node26</title>
<path fill="none" stroke="midnightblue" d="M787.328,-360.44C951.677,-347.658 1319.7,-319.62 1480.69,-307.625"/>
<polygon fill="midnightblue" stroke="midnightblue" points="1481.27,-311.091 1490.99,-306.858 1480.75,-304.11 1481.27,-311.091"/>
</g>
<!-- Node4&#45;&gt;Node3 -->
<g id="edge29" class="edge"><title>Node4&#45;&gt;Node3</title>
<path fill="none" stroke="midnightblue" d="M191.651,-291.463C192.11,-264.428 193.537,-180.239 194.183,-142.109"/>
<polygon fill="midnightblue" stroke="midnightblue" points="197.686,-141.926 194.356,-131.868 190.687,-141.808 197.686,-141.926"/>
</g>
<!-- Node5 -->
<g id="node5" class="node"><title>Node5</title>
<g id="a_node5"><a xlink:href="AlignedStdVector_8hpp.html" target="_top" xlink:title="Core/Containers/AlignedStd\lVector.hpp">
<polygon fill="white" stroke="black" points="25.0067,-168.5 25.0067,-198.5 174.007,-198.5 174.007,-168.5 25.0067,-168.5"/>
<text text-anchor="start" x="33.0067" y="-186.5" font-family="Helvetica,sans-Serif" font-size="10.00">Core/Containers/AlignedStd</text>
<text text-anchor="middle" x="99.5067" y="-175.5" font-family="Helvetica,sans-Serif" font-size="10.00">Vector.hpp</text>
</a>
</g>
</g>
<!-- Node4&#45;&gt;Node5 -->
<g id="edge4" class="edge"><title>Node4&#45;&gt;Node5</title>
<path fill="none" stroke="midnightblue" d="M184.592,-291.319C170.4,-273.502 137.601,-232.324 117.122,-206.615"/>
<polygon fill="midnightblue" stroke="midnightblue" points="119.662,-204.187 110.694,-198.545 114.187,-208.548 119.662,-204.187"/>
</g>
<!-- Node4&#45;&gt;Node6 -->
<g id="edge28" class="edge"><title>Node4&#45;&gt;Node6</title>
<path fill="none" stroke="midnightblue" d="M194.927,-291.332C205.759,-264.356 239.98,-182.811 263.507,-168 330.839,-125.611 880.814,-122.602 1064.23,-122.792"/>
<polygon fill="midnightblue" stroke="midnightblue" points="1064.48,-126.292 1074.49,-122.806 1064.49,-119.292 1064.48,-126.292"/>
</g>
<!-- Node4&#45;&gt;Node14 -->
<g id="edge14" class="edge"><title>Node4&#45;&gt;Node14</title>
<path fill="none" stroke="midnightblue" d="M260.434,-291.444C338.625,-281.737 465.889,-265.939 547.885,-255.76"/>
<polygon fill="midnightblue" stroke="midnightblue" points="548.41,-259.222 557.902,-254.516 547.547,-252.275 548.41,-259.222"/>
</g>
<!-- Node5&#45;&gt;Node3 -->
<g id="edge13" class="edge"><title>Node5&#45;&gt;Node3</title>
<path fill="none" stroke="midnightblue" d="M122.02,-168.399C137.106,-158.951 156.892,-146.559 171.98,-137.109"/>
<polygon fill="midnightblue" stroke="midnightblue" points="174.066,-139.932 180.683,-131.658 170.351,-134 174.066,-139.932"/>
</g>
<!-- Node5&#45;&gt;Node6 -->
<g id="edge5" class="edge"><title>Node5&#45;&gt;Node6</title>
<path fill="none" stroke="midnightblue" d="M174.049,-173.116C190.948,-171.213 208.829,-169.376 225.507,-168 540.812,-141.984 919.728,-128.956 1063.9,-124.658"/>
<polygon fill="midnightblue" stroke="midnightblue" points="1064.38,-128.145 1074.27,-124.351 1064.18,-121.148 1064.38,-128.145"/>
</g>
<!-- Node13 -->
<g id="node13" class="node"><title>Node13</title>
<polygon fill="white" stroke="#bfbfbf" points="53.0067,-112.5 53.0067,-131.5 146.007,-131.5 146.007,-112.5 53.0067,-112.5"/>
<text text-anchor="middle" x="99.5067" y="-119.5" font-family="Helvetica,sans-Serif" font-size="10.00">Eigen/StdVector</text>
</g>
<!-- Node5&#45;&gt;Node13 -->
<g id="edge12" class="edge"><title>Node5&#45;&gt;Node13</title>
<path fill="none" stroke="midnightblue" d="M99.5067,-168.399C99.5067,-160.466 99.5067,-150.458 99.5067,-141.858"/>
<polygon fill="midnightblue" stroke="midnightblue" points="103.007,-141.658 99.5067,-131.658 96.0068,-141.658 103.007,-141.658"/>
</g>
<!-- Node7 -->
<g id="node7" class="node"><title>Node7</title>
<g id="a_node7"><a xlink:href="CoreMacros_8hpp.html" target="_top" xlink:title="Core/CoreMacros.hpp">
<polygon fill="white" stroke="black" points="1193.51,-56.5 1193.51,-75.5 1313.51,-75.5 1313.51,-56.5 1193.51,-56.5"/>
<text text-anchor="middle" x="1253.51" y="-63.5" font-family="Helvetica,sans-Serif" font-size="10.00">Core/CoreMacros.hpp</text>
</a>
</g>
</g>
<!-- Node6&#45;&gt;Node7 -->
<g id="edge6" class="edge"><title>Node6&#45;&gt;Node7</title>
<path fill="none" stroke="midnightblue" d="M1144.11,-112.444C1165.5,-103.557 1199.19,-89.5632 1223.53,-79.4514"/>
<polygon fill="midnightblue" stroke="midnightblue" points="1225.11,-82.5848 1233,-75.5164 1222.43,-76.1203 1225.11,-82.5848"/>
</g>
<!-- Node8 -->
<g id="node8" class="node"><title>Node8</title>
<polygon fill="white" stroke="#bfbfbf" points="1331.51,-0.5 1331.51,-19.5 1383.51,-19.5 1383.51,-0.5 1331.51,-0.5"/>
<text text-anchor="middle" x="1357.51" y="-7.5" font-family="Helvetica,sans-Serif" font-size="10.00">cassert</text>
</g>
<!-- Node7&#45;&gt;Node8 -->
<g id="edge7" class="edge"><title>Node7&#45;&gt;Node8</title>
<path fill="none" stroke="midnightblue" d="M1270.22,-56.324C1286.82,-47.7034 1312.51,-34.3643 1331.73,-24.3855"/>
<polygon fill="midnightblue" stroke="midnightblue" points="1333.58,-27.3689 1340.84,-19.6545 1330.35,-21.1565 1333.58,-27.3689"/>
</g>
<!-- Node9 -->
<g id="node9" class="node"><title>Node9</title>
<polygon fill="white" stroke="#bfbfbf" points="1125.01,-0.5 1125.01,-19.5 1170.01,-19.5 1170.01,-0.5 1125.01,-0.5"/>
<text text-anchor="middle" x="1147.51" y="-7.5" font-family="Helvetica,sans-Serif" font-size="10.00">cstdio</text>
</g>
<!-- Node7&#45;&gt;Node9 -->
<g id="edge8" class="edge"><title>Node7&#45;&gt;Node9</title>
<path fill="none" stroke="midnightblue" d="M1236.48,-56.324C1219.48,-47.6641 1193.13,-34.2424 1173.51,-24.249"/>
<polygon fill="midnightblue" stroke="midnightblue" points="1174.99,-21.0752 1164.5,-19.6545 1171.82,-27.3125 1174.99,-21.0752"/>
</g>
<!-- Node10 -->
<g id="node10" class="node"><title>Node10</title>
<polygon fill="white" stroke="#bfbfbf" points="1188.01,-0.5 1188.01,-19.5 1247.01,-19.5 1247.01,-0.5 1188.01,-0.5"/>
<text text-anchor="middle" x="1217.51" y="-7.5" font-family="Helvetica,sans-Serif" font-size="10.00">iostream</text>
</g>
<!-- Node7&#45;&gt;Node10 -->
<g id="edge9" class="edge"><title>Node7&#45;&gt;Node10</title>
<path fill="none" stroke="midnightblue" d="M1247.56,-56.083C1242.53,-48.5341 1235.17,-37.4948 1228.99,-28.2298"/>
<polygon fill="midnightblue" stroke="midnightblue" points="1231.8,-26.1301 1223.34,-19.7511 1225.98,-30.0131 1231.8,-26.1301"/>
</g>
<!-- Node11 -->
<g id="node11" class="node"><title>Node11</title>
<polygon fill="white" stroke="#bfbfbf" points="1495.51,-0.5 1495.51,-19.5 1551.51,-19.5 1551.51,-0.5 1495.51,-0.5"/>
<text text-anchor="middle" x="1523.51" y="-7.5" font-family="Helvetica,sans-Serif" font-size="10.00">sstream</text>
</g>
<!-- Node7&#45;&gt;Node11 -->
<g id="edge10" class="edge"><title>Node7&#45;&gt;Node11</title>
<path fill="none" stroke="midnightblue" d="M1296.29,-56.4435C1348.35,-46.0319 1435.45,-28.6112 1485.33,-18.635"/>
<polygon fill="midnightblue" stroke="midnightblue" points="1486.27,-22.0176 1495.39,-16.6243 1484.89,-15.1536 1486.27,-22.0176"/>
</g>
<!-- Node12 -->
<g id="node12" class="node"><title>Node12</title>
<polygon fill="white" stroke="#bfbfbf" points="1265.51,-0.5 1265.51,-19.5 1313.51,-19.5 1313.51,-0.5 1265.51,-0.5"/>
<text text-anchor="middle" x="1289.51" y="-7.5" font-family="Helvetica,sans-Serif" font-size="10.00">thread</text>
</g>
<!-- Node7&#45;&gt;Node12 -->
<g id="edge11" class="edge"><title>Node7&#45;&gt;Node12</title>
<path fill="none" stroke="midnightblue" d="M1259.45,-56.083C1264.48,-48.5341 1271.84,-37.4948 1278.02,-28.2298"/>
<polygon fill="midnightblue" stroke="midnightblue" points="1281.04,-30.0131 1283.67,-19.7511 1275.21,-26.1301 1281.04,-30.0131"/>
</g>
<!-- Node14&#45;&gt;Node6 -->
<g id="edge15" class="edge"><title>Node14&#45;&gt;Node6</title>
<path fill="none" stroke="midnightblue" d="M548.251,-243.01C471.302,-240.18 361.555,-230.536 334.507,-199 325.537,-188.542 325.046,-178.016 334.507,-168 359.503,-141.537 885.439,-128.021 1064.45,-124.175"/>
<polygon fill="midnightblue" stroke="midnightblue" points="1064.56,-127.673 1074.48,-123.962 1064.41,-120.675 1064.56,-127.673"/>
</g>
<!-- Node15 -->
<g id="node15" class="node"><title>Node15</title>
<polygon fill="white" stroke="#bfbfbf" points="343.507,-174 343.507,-193 411.507,-193 411.507,-174 343.507,-174"/>
<text text-anchor="middle" x="377.507" y="-181" font-family="Helvetica,sans-Serif" font-size="10.00">Eigen/Core</text>
</g>
<!-- Node14&#45;&gt;Node15 -->
<g id="edge16" class="edge"><title>Node14&#45;&gt;Node15</title>
<path fill="none" stroke="midnightblue" d="M580.333,-235.427C538.348,-227.274 474.837,-214.045 420.507,-199 417.491,-198.165 414.376,-197.24 411.265,-196.273"/>
<polygon fill="midnightblue" stroke="midnightblue" points="412.061,-192.852 401.469,-193.101 409.904,-199.511 412.061,-192.852"/>
</g>
<!-- Node16 -->
<g id="node16" class="node"><title>Node16</title>
<polygon fill="white" stroke="#bfbfbf" points="429.507,-174 429.507,-193 523.507,-193 523.507,-174 429.507,-174"/>
<text text-anchor="middle" x="476.507" y="-181" font-family="Helvetica,sans-Serif" font-size="10.00">Eigen/Geometry</text>
</g>
<!-- Node14&#45;&gt;Node16 -->
<g id="edge17" class="edge"><title>Node14&#45;&gt;Node16</title>
<path fill="none" stroke="midnightblue" d="M605.015,-235.475C579.396,-225.313 536.397,-208.256 507.262,-196.7"/>
<polygon fill="midnightblue" stroke="midnightblue" points="508.544,-193.443 497.958,-193.009 505.963,-199.95 508.544,-193.443"/>
</g>
<!-- Node17 -->
<g id="node17" class="node"><title>Node17</title>
<polygon fill="white" stroke="#bfbfbf" points="541.507,-174 541.507,-193 621.507,-193 621.507,-174 541.507,-174"/>
<text text-anchor="middle" x="581.507" y="-181" font-family="Helvetica,sans-Serif" font-size="10.00">Eigen/Sparse</text>
</g>
<!-- Node14&#45;&gt;Node17 -->
<g id="edge18" class="edge"><title>Node14&#45;&gt;Node17</title>
<path fill="none" stroke="midnightblue" d="M620.059,-235.475C613.309,-226.55 602.537,-212.307 594.094,-201.143"/>
<polygon fill="midnightblue" stroke="midnightblue" points="596.766,-198.874 587.942,-193.009 591.183,-203.096 596.766,-198.874"/>
</g>
<!-- Node18 -->
<g id="node18" class="node"><title>Node18</title>
<polygon fill="white" stroke="#bfbfbf" points="640.007,-174 640.007,-193 703.007,-193 703.007,-174 640.007,-174"/>
<text text-anchor="middle" x="671.507" y="-181" font-family="Helvetica,sans-Serif" font-size="10.00">functional</text>
</g>
<!-- Node14&#45;&gt;Node18 -->
<g id="edge19" class="edge"><title>Node14&#45;&gt;Node18</title>
<path fill="none" stroke="midnightblue" d="M632.954,-235.475C639.704,-226.55 650.476,-212.307 658.92,-201.143"/>
<polygon fill="midnightblue" stroke="midnightblue" points="661.831,-203.096 665.071,-193.009 656.248,-198.874 661.831,-203.096"/>
</g>
<!-- Node19 -->
<g id="node19" class="node"><title>Node19</title>
<polygon fill="white" stroke="#bfbfbf" points="721.007,-168.5 721.007,-198.5 866.007,-198.5 866.007,-168.5 721.007,-168.5"/>
<text text-anchor="start" x="729.007" y="-186.5" font-family="Helvetica,sans-Serif" font-size="10.00">unsupported/Eigen/Aligned</text>
<text text-anchor="middle" x="793.507" y="-175.5" font-family="Helvetica,sans-Serif" font-size="10.00">Vector3</text>
</g>
<!-- Node14&#45;&gt;Node19 -->
<g id="edge20" class="edge"><title>Node14&#45;&gt;Node19</title>
<path fill="none" stroke="midnightblue" d="M650.434,-235.475C674.848,-226.776 713.441,-213.026 744.394,-201.998"/>
<polygon fill="midnightblue" stroke="midnightblue" points="745.903,-205.176 754.148,-198.523 743.553,-198.582 745.903,-205.176"/>
</g>
<!-- Node20 -->
<g id="node20" class="node"><title>Node20</title>
<g id="a_node20"><a xlink:href="Math_8hpp.html" target="_top" xlink:title="Core/Math/Math.hpp">
<polygon fill="white" stroke="black" points="1401.51,-174 1401.51,-193 1515.51,-193 1515.51,-174 1401.51,-174"/>
<text text-anchor="middle" x="1458.51" y="-181" font-family="Helvetica,sans-Serif" font-size="10.00">Core/Math/Math.hpp</text>
</a>
</g>
</g>
<!-- Node14&#45;&gt;Node20 -->
<g id="edge21" class="edge"><title>Node14&#45;&gt;Node20</title>
<path fill="none" stroke="midnightblue" d="M704.647,-243.464C843.655,-241.609 1142.78,-233.549 1392.51,-199 1399.7,-198.005 1407.27,-196.644 1414.61,-195.152"/>
<polygon fill="midnightblue" stroke="midnightblue" points="1415.39,-198.566 1424.44,-193.059 1413.93,-191.72 1415.39,-198.566"/>
</g>
<!-- Node24 -->
<g id="node24" class="node"><title>Node24</title>
<g id="a_node24"><a xlink:href="LinearAlgebra_8inl.html" target="_top" xlink:title="Core/Math/LinearAlgebra.inl">
<polygon fill="white" stroke="black" points="884.007,-174 884.007,-193 1033.01,-193 1033.01,-174 884.007,-174"/>
<text text-anchor="middle" x="958.507" y="-181" font-family="Helvetica,sans-Serif" font-size="10.00">Core/Math/LinearAlgebra.inl</text>
</a>
</g>
</g>
<!-- Node14&#45;&gt;Node24 -->
<g id="edge27" class="edge"><title>Node14&#45;&gt;Node24</title>
<path fill="none" stroke="midnightblue" d="M674.074,-235.475C733.982,-224.739 836.831,-206.306 901.063,-194.795"/>
<polygon fill="midnightblue" stroke="midnightblue" points="901.802,-198.218 911.027,-193.009 900.567,-191.328 901.802,-198.218"/>
</g>
<!-- Node20&#45;&gt;Node6 -->
<g id="edge22" class="edge"><title>Node20&#45;&gt;Node6</title>
<path fill="none" stroke="midnightblue" d="M1421.23,-173.965C1411.87,-171.918 1401.84,-169.804 1392.51,-168 1320.66,-154.108 1237.53,-140.589 1182.92,-132.056"/>
<polygon fill="midnightblue" stroke="midnightblue" points="1183.15,-128.549 1172.73,-130.47 1182.07,-135.466 1183.15,-128.549"/>
</g>
<!-- Node21 -->
<g id="node21" class="node"><title>Node21</title>
<polygon fill="white" stroke="#bfbfbf" points="1747.51,-112.5 1747.51,-131.5 1809.51,-131.5 1809.51,-112.5 1747.51,-112.5"/>
<text text-anchor="middle" x="1778.51" y="-119.5" font-family="Helvetica,sans-Serif" font-size="10.00">algorithm</text>
</g>
<!-- Node20&#45;&gt;Node21 -->
<g id="edge23" class="edge"><title>Node20&#45;&gt;Node21</title>
<path fill="none" stroke="midnightblue" d="M1496.72,-173.973C1506.12,-171.947 1516.17,-169.841 1525.51,-168 1599.88,-153.343 1686.98,-138.319 1737.15,-129.871"/>
<polygon fill="midnightblue" stroke="midnightblue" points="1738,-133.279 1747.28,-128.171 1736.84,-126.375 1738,-133.279"/>
</g>
<!-- Node22 -->
<g id="node22" class="node"><title>Node22</title>
<polygon fill="white" stroke="#bfbfbf" points="1340.01,-112.5 1340.01,-131.5 1387.01,-131.5 1387.01,-112.5 1340.01,-112.5"/>
<text text-anchor="middle" x="1363.51" y="-119.5" font-family="Helvetica,sans-Serif" font-size="10.00">cmath</text>
</g>
<!-- Node20&#45;&gt;Node22 -->
<g id="edge24" class="edge"><title>Node20&#45;&gt;Node22</title>
<path fill="none" stroke="midnightblue" d="M1444.9,-173.975C1429.45,-164.299 1404.02,-148.372 1385.69,-136.894"/>
<polygon fill="midnightblue" stroke="midnightblue" points="1387.43,-133.851 1377.09,-131.509 1383.71,-139.783 1387.43,-133.851"/>
</g>
<!-- Node23 -->
<g id="node23" class="node"><title>Node23</title>
<g id="a_node23"><a xlink:href="Math_8inl.html" target="_top" xlink:title="Core/Math/Math.inl">
<polygon fill="white" stroke="black" points="1405.01,-112.5 1405.01,-131.5 1512.01,-131.5 1512.01,-112.5 1405.01,-112.5"/>
<text text-anchor="middle" x="1458.51" y="-119.5" font-family="Helvetica,sans-Serif" font-size="10.00">Core/Math/Math.inl</text>
</a>
</g>
</g>
<!-- Node20&#45;&gt;Node23 -->
<g id="edge25" class="edge"><title>Node20&#45;&gt;Node23</title>
<path fill="none" stroke="midnightblue" d="M1453.61,-173.975C1451.78,-165.58 1451.3,-152.481 1452.19,-141.663"/>
<polygon fill="midnightblue" stroke="midnightblue" points="1455.69,-141.897 1453.61,-131.509 1448.76,-140.929 1455.69,-141.897"/>
</g>
<!-- Node23&#45;&gt;Node20 -->
<g id="edge26" class="edge"><title>Node23&#45;&gt;Node20</title>
<path fill="none" stroke="midnightblue" d="M1463.4,-131.509C1465.24,-139.898 1465.71,-152.996 1464.82,-163.817"/>
<polygon fill="midnightblue" stroke="midnightblue" points="1461.32,-163.588 1463.41,-173.975 1468.25,-164.554 1461.32,-163.588"/>
</g>
<!-- Node25&#45;&gt;Node2 -->
<g id="edge34" class="edge"><title>Node25&#45;&gt;Node2</title>
<path fill="none" stroke="midnightblue" d="M1358.91,-173.975C1417.03,-162.01 1521.56,-140.488 1574.27,-129.638"/>
<polygon fill="midnightblue" stroke="midnightblue" points="1575.3,-132.999 1584.39,-127.554 1573.89,-126.142 1575.3,-132.999"/>
</g>
<!-- Node25&#45;&gt;Node6 -->
<g id="edge33" class="edge"><title>Node25&#45;&gt;Node6</title>
<path fill="none" stroke="midnightblue" d="M1289.71,-173.975C1255.86,-163.592 1198.54,-146.012 1160.85,-134.454"/>
<polygon fill="midnightblue" stroke="midnightblue" points="1161.84,-131.095 1151.25,-131.509 1159.78,-137.788 1161.84,-131.095"/>
</g>
<!-- Node26&#45;&gt;Node1 -->
<g id="edge36" class="edge"><title>Node26&#45;&gt;Node1</title>
<path fill="none" stroke="midnightblue" d="M1490.96,-307.448C1338.9,-319.311 969.836,-347.443 797.252,-360.336"/>
<polygon fill="midnightblue" stroke="midnightblue" points="796.888,-356.854 787.176,-361.088 797.409,-363.834 796.888,-356.854"/>
</g>
<!-- Node26&#45;&gt;Node21 -->
<g id="edge47" class="edge"><title>Node26&#45;&gt;Node21</title>
<path fill="none" stroke="midnightblue" d="M1605.29,-291.427C1631.72,-284.819 1664.22,-273.569 1688.51,-255 1728.95,-224.076 1757.66,-169.638 1770.68,-141.302"/>
<polygon fill="midnightblue" stroke="midnightblue" points="1774.03,-142.383 1774.89,-131.824 1767.63,-139.541 1774.03,-142.383"/>
</g>
<!-- Node27 -->
<g id="node27" class="node"><title>Node27</title>
<g id="a_node27"><a xlink:href="Log_8hpp.html" target="_top" xlink:title="Core/Log/Log.hpp">
<polygon fill="white" stroke="black" points="1508.01,-235.5 1508.01,-254.5 1609.01,-254.5 1609.01,-235.5 1508.01,-235.5"/>
<text text-anchor="middle" x="1558.51" y="-242.5" font-family="Helvetica,sans-Serif" font-size="10.00">Core/Log/Log.hpp</text>
</a>
</g>
</g>
<!-- Node26&#45;&gt;Node27 -->
<g id="edge37" class="edge"><title>Node26&#45;&gt;Node27</title>
<path fill="none" stroke="midnightblue" d="M1558.51,-291.083C1558.51,-284.006 1558.51,-273.861 1558.51,-264.986"/>
<polygon fill="midnightblue" stroke="midnightblue" points="1562.01,-264.751 1558.51,-254.751 1555.01,-264.751 1562.01,-264.751"/>
</g>
<!-- Node31 -->
<g id="node31" class="node"><title>Node31</title>
<polygon fill="white" stroke="#bfbfbf" points="1627.51,-235.5 1627.51,-254.5 1679.51,-254.5 1679.51,-235.5 1627.51,-235.5"/>
<text text-anchor="middle" x="1653.51" y="-242.5" font-family="Helvetica,sans-Serif" font-size="10.00">iterator</text>
</g>
<!-- Node26&#45;&gt;Node31 -->
<g id="edge48" class="edge"><title>Node26&#45;&gt;Node31</title>
<path fill="none" stroke="midnightblue" d="M1573.77,-291.324C1588.73,-282.822 1611.76,-269.729 1629.23,-259.797"/>
<polygon fill="midnightblue" stroke="midnightblue" points="1631.32,-262.639 1638.28,-254.655 1627.86,-256.553 1631.32,-262.639"/>
</g>
<!-- Node27&#45;&gt;Node2 -->
<g id="edge41" class="edge"><title>Node27&#45;&gt;Node2</title>
<path fill="none" stroke="midnightblue" d="M1599.98,-235.497C1620.09,-229.06 1642.46,-217.952 1654.51,-199 1661.9,-187.373 1659.98,-180.642 1654.51,-168 1649.24,-155.84 1638.89,-145.459 1629.14,-137.743"/>
<polygon fill="midnightblue" stroke="midnightblue" points="1631.01,-134.771 1620.88,-131.67 1626.86,-140.412 1631.01,-134.771"/>
</g>
<!-- Node27&#45;&gt;Node6 -->
<g id="edge38" class="edge"><title>Node27&#45;&gt;Node6</title>
<path fill="none" stroke="midnightblue" d="M1507.72,-240.099C1430.86,-233.637 1289.01,-219.373 1242.51,-199 1222.54,-190.255 1222.55,-180.229 1204.51,-168 1187.03,-156.154 1166.18,-144.627 1150.02,-136.205"/>
<polygon fill="midnightblue" stroke="midnightblue" points="1151.59,-133.08 1141.1,-131.626 1148.4,-139.308 1151.59,-133.08"/>
</g>
<!-- Node27&#45;&gt;Node11 -->
<g id="edge39" class="edge"><title>Node27&#45;&gt;Node11</title>
<path fill="none" stroke="midnightblue" d="M1609.27,-236.65C1631.99,-230.553 1656.72,-219.4 1670.51,-199 1678.22,-187.585 1674.13,-181.292 1670.51,-168 1652.3,-101.249 1583.44,-48.8749 1546.79,-25.0369"/>
<polygon fill="midnightblue" stroke="midnightblue" points="1548.53,-21.9998 1538.21,-19.5999 1544.78,-27.9113 1548.53,-21.9998"/>
</g>
<!-- Node28 -->
<g id="node28" class="node"><title>Node28</title>
<polygon fill="white" stroke="#bfbfbf" points="1534.01,-174 1534.01,-193 1583.01,-193 1583.01,-174 1534.01,-174"/>
<text text-anchor="middle" x="1558.51" y="-181" font-family="Helvetica,sans-Serif" font-size="10.00">stdio.h</text>
</g>
<!-- Node27&#45;&gt;Node28 -->
<g id="edge40" class="edge"><title>Node27&#45;&gt;Node28</title>
<path fill="none" stroke="midnightblue" d="M1558.51,-235.475C1558.51,-227.08 1558.51,-213.981 1558.51,-203.163"/>
<polygon fill="midnightblue" stroke="midnightblue" points="1562.01,-203.009 1558.51,-193.009 1555.01,-203.009 1562.01,-203.009"/>
</g>
<!-- Node29 -->
<g id="node29" class="node"><title>Node29</title>
<g id="a_node29"><a xlink:href="StringUtils_8hpp.html" target="_top" xlink:title="Core/String/StringUtils.hpp">
<polygon fill="white" stroke="black" points="1051.51,-174 1051.51,-193 1195.51,-193 1195.51,-174 1051.51,-174"/>
<text text-anchor="middle" x="1123.51" y="-181" font-family="Helvetica,sans-Serif" font-size="10.00">Core/String/StringUtils.hpp</text>
</a>
</g>
</g>
<!-- Node27&#45;&gt;Node29 -->
<g id="edge42" class="edge"><title>Node27&#45;&gt;Node29</title>
<path fill="none" stroke="midnightblue" d="M1507.85,-238.093C1439.87,-230.024 1315.41,-214.749 1209.51,-199 1200.6,-197.675 1191.19,-196.183 1181.99,-194.673"/>
<polygon fill="midnightblue" stroke="midnightblue" points="1182.56,-191.22 1172.12,-193.035 1181.41,-198.126 1182.56,-191.22"/>
</g>
<!-- Node30 -->
<g id="node30" class="node"><title>Node30</title>
<polygon fill="white" stroke="#bfbfbf" points="1601.51,-174 1601.51,-193 1645.51,-193 1645.51,-174 1601.51,-174"/>
<text text-anchor="middle" x="1623.51" y="-181" font-family="Helvetica,sans-Serif" font-size="10.00">ctime</text>
</g>
<!-- Node27&#45;&gt;Node30 -->
<g id="edge46" class="edge"><title>Node27&#45;&gt;Node30</title>
<path fill="none" stroke="midnightblue" d="M1567.82,-235.475C1577.96,-226.197 1594.37,-211.171 1606.76,-199.831"/>
<polygon fill="midnightblue" stroke="midnightblue" points="1609.2,-202.343 1614.21,-193.009 1604.47,-197.18 1609.2,-202.343"/>
</g>
<!-- Node29&#45;&gt;Node2 -->
<g id="edge44" class="edge"><title>Node29&#45;&gt;Node2</title>
<path fill="none" stroke="midnightblue" d="M1192.71,-173.975C1298.59,-160.932 1496.67,-136.531 1574.21,-126.979"/>
<polygon fill="midnightblue" stroke="midnightblue" points="1574.83,-130.429 1584.33,-125.732 1573.97,-123.481 1574.83,-130.429"/>
</g>
<!-- Node29&#45;&gt;Node3 -->
<g id="edge45" class="edge"><title>Node29&#45;&gt;Node3</title>
<path fill="none" stroke="midnightblue" d="M1081.09,-173.984C1068.41,-171.712 1054.43,-169.481 1041.51,-168 726.872,-131.96 343.111,-124.715 228.42,-123.319"/>
<polygon fill="midnightblue" stroke="midnightblue" points="228.212,-119.817 218.173,-123.202 228.132,-126.816 228.212,-119.817"/>
</g>
<!-- Node29&#45;&gt;Node6 -->
<g id="edge43" class="edge"><title>Node29&#45;&gt;Node6</title>
<path fill="none" stroke="midnightblue" d="M1123.51,-173.975C1123.51,-165.58 1123.51,-152.481 1123.51,-141.663"/>
<polygon fill="midnightblue" stroke="midnightblue" points="1127.01,-141.509 1123.51,-131.509 1120.01,-141.509 1127.01,-141.509"/>
</g>
</g>
</svg>
