<?xml version="1.0" encoding="UTF-8" standalone="no"?>
<!DOCTYPE svg PUBLIC "-//W3C//DTD SVG 1.1//EN"
 "http://www.w3.org/Graphics/SVG/1.1/DTD/svg11.dtd">
<!-- Generated by graphviz version 2.38.0 (20140413.2041)
 -->
<!-- Title: /home/travis/build/STORM&#45;IRIT/Radium&#45;Engine/src/Core/File/MaterialData.hpp Pages: 1 -->
<svg width="3323pt" height="473pt"
 viewBox="0.00 0.00 3323.00 473.00" xmlns="http://www.w3.org/2000/svg" xmlns:xlink="http://www.w3.org/1999/xlink">
<g id="graph0" class="graph" transform="scale(1 1) rotate(0) translate(4 469)">
<title>/home/travis/build/STORM&#45;IRIT/Radium&#45;Engine/src/Core/File/MaterialData.hpp</title>
<polygon fill="white" stroke="none" points="-4,4 -4,-469 3319,-469 3319,4 -4,4"/>
<!-- Node1 -->
<g id="node1" class="node"><title>Node1</title>
<polygon fill="#bfbfbf" stroke="black" points="1242.5,-423.5 1242.5,-464.5 1405.5,-464.5 1405.5,-423.5 1242.5,-423.5"/>
<text text-anchor="start" x="1250.5" y="-452.5" font-family="Helvetica,sans-Serif" font-size="10.00">/home/travis/build</text>
<text text-anchor="start" x="1250.5" y="-441.5" font-family="Helvetica,sans-Serif" font-size="10.00">/STORM&#45;IRIT/Radium&#45;Engine</text>
<text text-anchor="middle" x="1324" y="-430.5" font-family="Helvetica,sans-Serif" font-size="10.00">/src/Core/File/MaterialData.hpp</text>
</g>
<!-- Node2 -->
<g id="node2" class="node"><title>Node2</title>
<g id="a_node2"><a xlink:href="BlinnPhongMaterialData_8hpp.html" target="_top" xlink:title="/home/travis/build\l/STORM&#45;IRIT/Radium&#45;Engine\l/src/Core/File/BlinnPhongMaterial\lData.hpp">
<polygon fill="white" stroke="black" points="281,-334.5 281,-386.5 453,-386.5 453,-334.5 281,-334.5"/>
<text text-anchor="start" x="289" y="-374.5" font-family="Helvetica,sans-Serif" font-size="10.00">/home/travis/build</text>
<text text-anchor="start" x="289" y="-363.5" font-family="Helvetica,sans-Serif" font-size="10.00">/STORM&#45;IRIT/Radium&#45;Engine</text>
<text text-anchor="start" x="289" y="-352.5" font-family="Helvetica,sans-Serif" font-size="10.00">/src/Core/File/BlinnPhongMaterial</text>
<text text-anchor="middle" x="367" y="-341.5" font-family="Helvetica,sans-Serif" font-size="10.00">Data.hpp</text>
</a>
</g>
</g>
<!-- Node1&#45;&gt;Node2 -->
<g id="edge1" class="edge"><title>Node1&#45;&gt;Node2</title>
<path fill="none" stroke="midnightblue" d="M1232.18,-435.18C1047.44,-419.447 633.148,-384.166 453.185,-368.84"/>
<polygon fill="midnightblue" stroke="midnightblue" points="1232.15,-438.69 1242.41,-436.051 1232.74,-431.715 1232.15,-438.69"/>
</g>
<!-- Node7 -->
<g id="node7" class="node"><title>Node7</title>
<g id="a_node7"><a xlink:href="GeometryData_8hpp.html" target="_top" xlink:title="/home/travis/build\l/STORM&#45;IRIT/Radium&#45;Engine\l/src/Core/File/GeometryData.hpp">
<polygon fill="white" stroke="black" points="1051.5,-340 1051.5,-381 1224.5,-381 1224.5,-340 1051.5,-340"/>
<text text-anchor="start" x="1059.5" y="-369" font-family="Helvetica,sans-Serif" font-size="10.00">/home/travis/build</text>
<text text-anchor="start" x="1059.5" y="-358" font-family="Helvetica,sans-Serif" font-size="10.00">/STORM&#45;IRIT/Radium&#45;Engine</text>
<text text-anchor="middle" x="1138" y="-347" font-family="Helvetica,sans-Serif" font-size="10.00">/src/Core/File/GeometryData.hpp</text>
</a>
</g>
</g>
<!-- Node1&#45;&gt;Node7 -->
<g id="edge7" class="edge"><title>Node1&#45;&gt;Node7</title>
<path fill="none" stroke="midnightblue" d="M1270.25,-419.449C1242.43,-407.257 1208.86,-392.55 1182.51,-381.003"/>
<polygon fill="midnightblue" stroke="midnightblue" points="1268.88,-422.671 1279.45,-423.479 1271.69,-416.26 1268.88,-422.671"/>
</g>
<!-- Node28 -->
<g id="node28" class="node"><title>Node28</title>
<g id="a_node28"><a xlink:href="MaterialData_8cpp.html" target="_top" xlink:title="/home/travis/build\l/STORM&#45;IRIT/Radium&#45;Engine\l/src/Core/File/MaterialData.cpp">
<polygon fill="white" stroke="black" points="1243,-340 1243,-381 1405,-381 1405,-340 1243,-340"/>
<text text-anchor="start" x="1251" y="-369" font-family="Helvetica,sans-Serif" font-size="10.00">/home/travis/build</text>
<text text-anchor="start" x="1251" y="-358" font-family="Helvetica,sans-Serif" font-size="10.00">/STORM&#45;IRIT/Radium&#45;Engine</text>
<text text-anchor="middle" x="1324" y="-347" font-family="Helvetica,sans-Serif" font-size="10.00">/src/Core/File/MaterialData.cpp</text>
</a>
</g>
</g>
<!-- Node1&#45;&gt;Node28 -->
<g id="edge36" class="edge"><title>Node1&#45;&gt;Node28</title>
<path fill="none" stroke="midnightblue" d="M1324,-413.065C1324,-402.382 1324,-390.63 1324,-381.047"/>
<polygon fill="midnightblue" stroke="midnightblue" points="1320.5,-413.271 1324,-423.271 1327.5,-413.271 1320.5,-413.271"/>
</g>
<!-- Node29 -->
<g id="node29" class="node"><title>Node29</title>
<g id="a_node29"><a xlink:href="MaterialData_8inl.html" target="_top" xlink:title="/home/travis/build\l/STORM&#45;IRIT/Radium&#45;Engine\l/src/Core/File/MaterialData.inl">
<polygon fill="white" stroke="black" points="1423.5,-340 1423.5,-381 1578.5,-381 1578.5,-340 1423.5,-340"/>
<text text-anchor="start" x="1431.5" y="-369" font-family="Helvetica,sans-Serif" font-size="10.00">/home/travis/build</text>
<text text-anchor="start" x="1431.5" y="-358" font-family="Helvetica,sans-Serif" font-size="10.00">/STORM&#45;IRIT/Radium&#45;Engine</text>
<text text-anchor="middle" x="1501" y="-347" font-family="Helvetica,sans-Serif" font-size="10.00">/src/Core/File/MaterialData.inl</text>
</a>
</g>
</g>
<!-- Node1&#45;&gt;Node29 -->
<g id="edge37" class="edge"><title>Node1&#45;&gt;Node29</title>
<path fill="none" stroke="midnightblue" d="M1369.63,-419.13C1395.15,-407.002 1426.87,-392.45 1452.79,-381.003"/>
<polygon fill="midnightblue" stroke="midnightblue" points="1368.05,-416.008 1360.54,-423.479 1371.07,-422.324 1368.05,-416.008"/>
</g>
<!-- Node3 -->
<g id="node3" class="node"><title>Node3</title>
<g id="a_node3"><a xlink:href="BlinnPhongMaterialData_8cpp.html" target="_top" xlink:title="/home/travis/build\l/STORM&#45;IRIT/Radium&#45;Engine\l/src/Core/File/BlinnPhongMaterial\lData.cpp">
<polygon fill="white" stroke="black" points="0,-245.5 0,-297.5 172,-297.5 172,-245.5 0,-245.5"/>
<text text-anchor="start" x="8" y="-285.5" font-family="Helvetica,sans-Serif" font-size="10.00">/home/travis/build</text>
<text text-anchor="start" x="8" y="-274.5" font-family="Helvetica,sans-Serif" font-size="10.00">/STORM&#45;IRIT/Radium&#45;Engine</text>
<text text-anchor="start" x="8" y="-263.5" font-family="Helvetica,sans-Serif" font-size="10.00">/src/Core/File/BlinnPhongMaterial</text>
<text text-anchor="middle" x="86" y="-252.5" font-family="Helvetica,sans-Serif" font-size="10.00">Data.cpp</text>
</a>
</g>
</g>
<!-- Node2&#45;&gt;Node3 -->
<g id="edge2" class="edge"><title>Node2&#45;&gt;Node3</title>
<path fill="none" stroke="midnightblue" d="M276.299,-331.418C241.069,-320.511 201.04,-308.117 166.815,-297.521"/>
<polygon fill="midnightblue" stroke="midnightblue" points="275.512,-334.838 286.1,-334.453 277.583,-328.152 275.512,-334.838"/>
</g>
<!-- Node4 -->
<g id="node4" class="node"><title>Node4</title>
<g id="a_node4"><a xlink:href="BlinnPhongMaterialData_8inl.html" target="_top" xlink:title="/home/travis/build\l/STORM&#45;IRIT/Radium&#45;Engine\l/src/Core/File/BlinnPhongMaterial\lData.inl">
<polygon fill="white" stroke="black" points="190,-245.5 190,-297.5 362,-297.5 362,-245.5 190,-245.5"/>
<text text-anchor="start" x="198" y="-285.5" font-family="Helvetica,sans-Serif" font-size="10.00">/home/travis/build</text>
<text text-anchor="start" x="198" y="-274.5" font-family="Helvetica,sans-Serif" font-size="10.00">/STORM&#45;IRIT/Radium&#45;Engine</text>
<text text-anchor="start" x="198" y="-263.5" font-family="Helvetica,sans-Serif" font-size="10.00">/src/Core/File/BlinnPhongMaterial</text>
<text text-anchor="middle" x="276" y="-252.5" font-family="Helvetica,sans-Serif" font-size="10.00">Data.inl</text>
</a>
</g>
</g>
<!-- Node2&#45;&gt;Node4 -->
<g id="edge3" class="edge"><title>Node2&#45;&gt;Node4</title>
<path fill="none" stroke="midnightblue" d="M326.845,-327.363C316.203,-317.542 305.181,-306.89 296.08,-297.607"/>
<polygon fill="midnightblue" stroke="midnightblue" points="324.745,-330.185 334.493,-334.336 329.461,-325.012 324.745,-330.185"/>
</g>
<!-- Node5 -->
<g id="node5" class="node"><title>Node5</title>
<g id="a_node5"><a xlink:href="BlinnPhongMaterial_8cpp.html" target="_top" xlink:title="/home/travis/build\l/STORM&#45;IRIT/Radium&#45;Engine\l/src/Engine/Renderer/Material\l/BlinnPhongMaterial.cpp">
<polygon fill="white" stroke="black" points="380,-245.5 380,-297.5 536,-297.5 536,-245.5 380,-245.5"/>
<text text-anchor="start" x="388" y="-285.5" font-family="Helvetica,sans-Serif" font-size="10.00">/home/travis/build</text>
<text text-anchor="start" x="388" y="-274.5" font-family="Helvetica,sans-Serif" font-size="10.00">/STORM&#45;IRIT/Radium&#45;Engine</text>
<text text-anchor="start" x="388" y="-263.5" font-family="Helvetica,sans-Serif" font-size="10.00">/src/Engine/Renderer/Material</text>
<text text-anchor="middle" x="458" y="-252.5" font-family="Helvetica,sans-Serif" font-size="10.00">/BlinnPhongMaterial.cpp</text>
</a>
</g>
</g>
<!-- Node2&#45;&gt;Node5 -->
<g id="edge5" class="edge"><title>Node2&#45;&gt;Node5</title>
<path fill="none" stroke="midnightblue" d="M400.614,-327.363C410.887,-317.542 422.029,-306.89 431.738,-297.607"/>
<polygon fill="midnightblue" stroke="midnightblue" points="398.13,-324.896 393.321,-334.336 402.968,-329.955 398.13,-324.896"/>
</g>
<!-- Node6 -->
<g id="node6" class="node"><title>Node6</title>
<g id="a_node6"><a xlink:href="AssimpGeometryDataLoader_8cpp.html" target="_top" xlink:title="/home/travis/build\l/STORM&#45;IRIT/Radium&#45;Engine\l/src/IO/AssimpLoader/AssimpGeometry\lDataLoader.cpp">
<polygon fill="white" stroke="black" points="554,-245.5 554,-297.5 758,-297.5 758,-245.5 554,-245.5"/>
<text text-anchor="start" x="562" y="-285.5" font-family="Helvetica,sans-Serif" font-size="10.00">/home/travis/build</text>
<text text-anchor="start" x="562" y="-274.5" font-family="Helvetica,sans-Serif" font-size="10.00">/STORM&#45;IRIT/Radium&#45;Engine</text>
<text text-anchor="start" x="562" y="-263.5" font-family="Helvetica,sans-Serif" font-size="10.00">/src/IO/AssimpLoader/AssimpGeometry</text>
<text text-anchor="middle" x="656" y="-252.5" font-family="Helvetica,sans-Serif" font-size="10.00">DataLoader.cpp</text>
</a>
</g>
</g>
<!-- Node2&#45;&gt;Node6 -->
<g id="edge6" class="edge"><title>Node2&#45;&gt;Node6</title>
<path fill="none" stroke="midnightblue" d="M459.819,-331.558C496.164,-320.617 537.534,-308.163 572.884,-297.521"/>
<polygon fill="midnightblue" stroke="midnightblue" points="458.77,-328.219 450.203,-334.453 460.788,-334.921 458.77,-328.219"/>
</g>
<!-- Node4&#45;&gt;Node2 -->
<g id="edge4" class="edge"><title>Node4&#45;&gt;Node2</title>
<path fill="none" stroke="midnightblue" d="M316.091,-304.577C326.731,-314.395 337.756,-325.048 346.865,-334.336"/>
<polygon fill="midnightblue" stroke="midnightblue" points="318.192,-301.757 308.444,-297.607 313.477,-306.931 318.192,-301.757"/>
</g>
<!-- Node7&#45;&gt;Node6 -->
<g id="edge34" class="edge"><title>Node7&#45;&gt;Node6</title>
<path fill="none" stroke="midnightblue" d="M1041.04,-344.559C967.128,-332.843 862.923,-315.621 772,-298 767.445,-297.117 762.795,-296.193 758.102,-295.241"/>
<polygon fill="midnightblue" stroke="midnightblue" points="1040.84,-348.07 1051.26,-346.175 1041.93,-341.156 1040.84,-348.07"/>
</g>
<!-- Node8 -->
<g id="node8" class="node"><title>Node8</title>
<g id="a_node8"><a xlink:href="FileData_8inl.html" target="_top" xlink:title="/home/travis/build\l/STORM&#45;IRIT/Radium&#45;Engine\l/src/Core/File/FileData.inl">
<polygon fill="white" stroke="black" points="1243,-251 1243,-292 1391,-292 1391,-251 1243,-251"/>
<text text-anchor="start" x="1251" y="-280" font-family="Helvetica,sans-Serif" font-size="10.00">/home/travis/build</text>
<text text-anchor="start" x="1251" y="-269" font-family="Helvetica,sans-Serif" font-size="10.00">/STORM&#45;IRIT/Radium&#45;Engine</text>
<text text-anchor="middle" x="1317" y="-258" font-family="Helvetica,sans-Serif" font-size="10.00">/src/Core/File/FileData.inl</text>
</a>
</g>
</g>
<!-- Node7&#45;&gt;Node8 -->
<g id="edge8" class="edge"><title>Node7&#45;&gt;Node8</title>
<path fill="none" stroke="midnightblue" d="M1187.42,-335.481C1215.5,-321.831 1250.22,-304.955 1276.65,-292.11"/>
<polygon fill="midnightblue" stroke="midnightblue" points="1185.64,-332.456 1178.17,-339.976 1188.7,-338.752 1185.64,-332.456"/>
</g>
<!-- Node11 -->
<g id="node11" class="node"><title>Node11</title>
<g id="a_node11"><a xlink:href="GeometryComponent_8cpp.html" target="_top" xlink:title="/home/travis/build\l/STORM&#45;IRIT/Radium&#45;Engine\l/src/Engine/Component/GeometryComponent.cpp">
<polygon fill="white" stroke="black" points="444,-84 444,-125 700,-125 700,-84 444,-84"/>
<text text-anchor="start" x="452" y="-113" font-family="Helvetica,sans-Serif" font-size="10.00">/home/travis/build</text>
<text text-anchor="start" x="452" y="-102" font-family="Helvetica,sans-Serif" font-size="10.00">/STORM&#45;IRIT/Radium&#45;Engine</text>
<text text-anchor="middle" x="572" y="-91" font-family="Helvetica,sans-Serif" font-size="10.00">/src/Engine/Component/GeometryComponent.cpp</text>
</a>
</g>
</g>
<!-- Node7&#45;&gt;Node11 -->
<g id="edge28" class="edge"><title>Node7&#45;&gt;Node11</title>
<path fill="none" stroke="midnightblue" d="M1085.19,-335.802C974.119,-285.956 718.141,-171.083 615.621,-125.076"/>
<polygon fill="midnightblue" stroke="midnightblue" points="1083.97,-339.09 1094.53,-339.991 1086.84,-332.703 1083.97,-339.09"/>
</g>
<!-- Node13 -->
<g id="node13" class="node"><title>Node13</title>
<g id="a_node13"><a xlink:href="LightManager_8cpp.html" target="_top" xlink:title="/home/travis/build\l/STORM&#45;IRIT/Radium&#45;Engine\l/src/Engine/Managers/LightManager\l/LightManager.cpp">
<polygon fill="white" stroke="black" points="954,-78.5 954,-130.5 1142,-130.5 1142,-78.5 954,-78.5"/>
<text text-anchor="start" x="962" y="-118.5" font-family="Helvetica,sans-Serif" font-size="10.00">/home/travis/build</text>
<text text-anchor="start" x="962" y="-107.5" font-family="Helvetica,sans-Serif" font-size="10.00">/STORM&#45;IRIT/Radium&#45;Engine</text>
<text text-anchor="start" x="962" y="-96.5" font-family="Helvetica,sans-Serif" font-size="10.00">/src/Engine/Managers/LightManager</text>
<text text-anchor="middle" x="1048" y="-85.5" font-family="Helvetica,sans-Serif" font-size="10.00">/LightManager.cpp</text>
</a>
</g>
</g>
<!-- Node7&#45;&gt;Node13 -->
<g id="edge32" class="edge"><title>Node7&#45;&gt;Node13</title>
<path fill="none" stroke="midnightblue" d="M1140.35,-329.925C1142.19,-290.505 1140.88,-219.609 1114,-167 1106.87,-153.053 1095.24,-140.618 1083.72,-130.642"/>
<polygon fill="midnightblue" stroke="midnightblue" points="1136.86,-329.753 1139.79,-339.935 1143.85,-330.15 1136.86,-329.753"/>
</g>
<!-- Node16 -->
<g id="node16" class="node"><title>Node16</title>
<g id="a_node16"><a xlink:href="GeometrySystem_8cpp.html" target="_top" xlink:title="/home/travis/build\l/STORM&#45;IRIT/Radium&#45;Engine\l/src/Engine/System/GeometrySystem.cpp">
<polygon fill="white" stroke="black" points="718.5,-84 718.5,-125 935.5,-125 935.5,-84 718.5,-84"/>
<text text-anchor="start" x="726.5" y="-113" font-family="Helvetica,sans-Serif" font-size="10.00">/home/travis/build</text>
<text text-anchor="start" x="726.5" y="-102" font-family="Helvetica,sans-Serif" font-size="10.00">/STORM&#45;IRIT/Radium&#45;Engine</text>
<text text-anchor="middle" x="827" y="-91" font-family="Helvetica,sans-Serif" font-size="10.00">/src/Engine/System/GeometrySystem.cpp</text>
</a>
</g>
</g>
<!-- Node7&#45;&gt;Node16 -->
<g id="edge33" class="edge"><title>Node7&#45;&gt;Node16</title>
<path fill="none" stroke="midnightblue" d="M1132.93,-329.82C1124.1,-281.617 1104.59,-189.432 1081,-167 1074.79,-161.099 987.539,-140.762 917.006,-125.073"/>
<polygon fill="midnightblue" stroke="midnightblue" points="1129.48,-330.45 1134.69,-339.675 1136.37,-329.214 1129.48,-330.45"/>
</g>
<!-- Node22 -->
<g id="node22" class="node"><title>Node22</title>
<g id="a_node22"><a xlink:href="MeshPaintSystem_8cpp.html" target="_top" xlink:title="/home/travis/build\l/STORM&#45;IRIT/Radium&#45;Engine\l/Plugins/MeshPaint/src/MeshPaint\lSystem.cpp">
<polygon fill="white" stroke="black" points="3141,-78.5 3141,-130.5 3315,-130.5 3315,-78.5 3141,-78.5"/>
<text text-anchor="start" x="3149" y="-118.5" font-family="Helvetica,sans-Serif" font-size="10.00">/home/travis/build</text>
<text text-anchor="start" x="3149" y="-107.5" font-family="Helvetica,sans-Serif" font-size="10.00">/STORM&#45;IRIT/Radium&#45;Engine</text>
<text text-anchor="start" x="3149" y="-96.5" font-family="Helvetica,sans-Serif" font-size="10.00">/Plugins/MeshPaint/src/MeshPaint</text>
<text text-anchor="middle" x="3228" y="-85.5" font-family="Helvetica,sans-Serif" font-size="10.00">System.cpp</text>
</a>
</g>
</g>
<!-- Node7&#45;&gt;Node22 -->
<g id="edge35" class="edge"><title>Node7&#45;&gt;Node22</title>
<path fill="none" stroke="midnightblue" d="M1219.84,-337.491C1224.62,-336.288 1229.37,-335.116 1234,-334 1307.39,-316.305 1326.71,-316.1 1400,-298 1485.53,-276.878 1504.21,-260.101 1591,-245 2267.6,-127.283 2454.76,-244.978 3132,-131 3134.89,-130.513 3137.82,-129.979 3140.77,-129.405"/>
<polygon fill="midnightblue" stroke="midnightblue" points="1218.82,-334.139 1209.99,-339.995 1220.54,-340.923 1218.82,-334.139"/>
</g>
<!-- Node25 -->
<g id="node25" class="node"><title>Node25</title>
<g id="a_node25"><a xlink:href="GeometryData_8cpp.html" target="_top" xlink:title="/home/travis/build\l/STORM&#45;IRIT/Radium&#45;Engine\l/src/Core/File/GeometryData.cpp">
<polygon fill="white" stroke="black" points="1600,-251 1600,-292 1772,-292 1772,-251 1600,-251"/>
<text text-anchor="start" x="1608" y="-280" font-family="Helvetica,sans-Serif" font-size="10.00">/home/travis/build</text>
<text text-anchor="start" x="1608" y="-269" font-family="Helvetica,sans-Serif" font-size="10.00">/STORM&#45;IRIT/Radium&#45;Engine</text>
<text text-anchor="middle" x="1686" y="-258" font-family="Helvetica,sans-Serif" font-size="10.00">/src/Core/File/GeometryData.cpp</text>
</a>
</g>
</g>
<!-- Node7&#45;&gt;Node25 -->
<g id="edge25" class="edge"><title>Node7&#45;&gt;Node25</title>
<path fill="none" stroke="midnightblue" d="M1216.21,-337.64C1222.21,-336.298 1228.19,-335.063 1234,-334 1388.7,-305.726 1431.16,-325.504 1586,-298 1595.35,-296.339 1605.11,-294.273 1614.72,-292.041"/>
<polygon fill="midnightblue" stroke="midnightblue" points="1215.08,-334.31 1206.14,-339.989 1216.67,-341.127 1215.08,-334.31"/>
</g>
<!-- Node26 -->
<g id="node26" class="node"><title>Node26</title>
<g id="a_node26"><a xlink:href="GeometryData_8inl.html" target="_top" xlink:title="/home/travis/build\l/STORM&#45;IRIT/Radium&#45;Engine\l/src/Core/File/GeometryData.inl">
<polygon fill="white" stroke="black" points="1790.5,-251 1790.5,-292 1955.5,-292 1955.5,-251 1790.5,-251"/>
<text text-anchor="start" x="1798.5" y="-280" font-family="Helvetica,sans-Serif" font-size="10.00">/home/travis/build</text>
<text text-anchor="start" x="1798.5" y="-269" font-family="Helvetica,sans-Serif" font-size="10.00">/STORM&#45;IRIT/Radium&#45;Engine</text>
<text text-anchor="middle" x="1873" y="-258" font-family="Helvetica,sans-Serif" font-size="10.00">/src/Core/File/GeometryData.inl</text>
</a>
</g>
</g>
<!-- Node7&#45;&gt;Node26 -->
<g id="edge26" class="edge"><title>Node7&#45;&gt;Node26</title>
<path fill="none" stroke="midnightblue" d="M1205.9,-337.684C1212.31,-336.284 1218.75,-335.026 1225,-334 1465.42,-294.541 1531.8,-338.751 1772,-298 1781.15,-296.448 1790.7,-294.354 1800.13,-292.031"/>
<polygon fill="midnightblue" stroke="midnightblue" points="1204.83,-334.337 1195.87,-339.991 1206.4,-341.159 1204.83,-334.337"/>
</g>
<!-- Node27 -->
<g id="node27" class="node"><title>Node27</title>
<g id="a_node27"><a xlink:href="GeometryComponent_8hpp.html" target="_top" xlink:title="/home/travis/build\l/STORM&#45;IRIT/Radium&#45;Engine\l/src/Engine/Component/GeometryComponent.hpp">
<polygon fill="white" stroke="black" points="814.5,-167.5 814.5,-208.5 1071.5,-208.5 1071.5,-167.5 814.5,-167.5"/>
<text text-anchor="start" x="822.5" y="-196.5" font-family="Helvetica,sans-Serif" font-size="10.00">/home/travis/build</text>
<text text-anchor="start" x="822.5" y="-185.5" font-family="Helvetica,sans-Serif" font-size="10.00">/STORM&#45;IRIT/Radium&#45;Engine</text>
<text text-anchor="middle" x="943" y="-174.5" font-family="Helvetica,sans-Serif" font-size="10.00">/src/Engine/Component/GeometryComponent.hpp</text>
</a>
</g>
</g>
<!-- Node7&#45;&gt;Node27 -->
<g id="edge29" class="edge"><title>Node7&#45;&gt;Node27</title>
<path fill="none" stroke="midnightblue" d="M1107.68,-332.991C1068.3,-298.556 1000.46,-239.237 965.408,-208.592"/>
<polygon fill="midnightblue" stroke="midnightblue" points="1105.8,-335.994 1115.63,-339.941 1110.41,-330.724 1105.8,-335.994"/>
</g>
<!-- Node9 -->
<g id="node9" class="node"><title>Node9</title>
<g id="a_node9"><a xlink:href="FileData_8hpp.html" target="_top" xlink:title="/home/travis/build\l/STORM&#45;IRIT/Radium&#45;Engine\l/src/Core/File/FileData.hpp">
<polygon fill="white" stroke="black" points="1487,-167.5 1487,-208.5 1635,-208.5 1635,-167.5 1487,-167.5"/>
<text text-anchor="start" x="1495" y="-196.5" font-family="Helvetica,sans-Serif" font-size="10.00">/home/travis/build</text>
<text text-anchor="start" x="1495" y="-185.5" font-family="Helvetica,sans-Serif" font-size="10.00">/STORM&#45;IRIT/Radium&#45;Engine</text>
<text text-anchor="middle" x="1561" y="-174.5" font-family="Helvetica,sans-Serif" font-size="10.00">/src/Core/File/FileData.hpp</text>
</a>
</g>
</g>
<!-- Node8&#45;&gt;Node9 -->
<g id="edge9" class="edge"><title>Node8&#45;&gt;Node9</title>
<path fill="none" stroke="midnightblue" d="M1385.14,-247.74C1422.09,-235.398 1467.29,-220.301 1502.61,-208.503"/>
<polygon fill="midnightblue" stroke="midnightblue" points="1383.82,-244.491 1375.44,-250.979 1386.04,-251.13 1383.82,-244.491"/>
</g>
<!-- Node10 -->
<g id="node10" class="node"><title>Node10</title>
<g id="a_node10"><a xlink:href="FileData_8cpp.html" target="_top" xlink:title="/home/travis/build\l/STORM&#45;IRIT/Radium&#45;Engine\l/src/Core/File/FileData.cpp">
<polygon fill="white" stroke="black" points="2192,-84 2192,-125 2340,-125 2340,-84 2192,-84"/>
<text text-anchor="start" x="2200" y="-113" font-family="Helvetica,sans-Serif" font-size="10.00">/home/travis/build</text>
<text text-anchor="start" x="2200" y="-102" font-family="Helvetica,sans-Serif" font-size="10.00">/STORM&#45;IRIT/Radium&#45;Engine</text>
<text text-anchor="middle" x="2266" y="-91" font-family="Helvetica,sans-Serif" font-size="10.00">/src/Core/File/FileData.cpp</text>
</a>
</g>
</g>
<!-- Node9&#45;&gt;Node10 -->
<g id="edge10" class="edge"><title>Node9&#45;&gt;Node10</title>
<path fill="none" stroke="midnightblue" d="M1645.18,-167.58C1646.46,-167.379 1647.74,-167.185 1649,-167 1884.36,-132.536 1949.09,-174.217 2183,-131 2191.3,-129.466 2199.94,-127.383 2208.38,-125.065"/>
<polygon fill="midnightblue" stroke="midnightblue" points="1644.54,-164.14 1635.26,-169.265 1645.71,-171.041 1644.54,-164.14"/>
</g>
<!-- Node9&#45;&gt;Node11 -->
<g id="edge11" class="edge"><title>Node9&#45;&gt;Node11</title>
<path fill="none" stroke="midnightblue" d="M1476.46,-184.713C1323.17,-179.838 989.344,-165.879 710,-131 696.945,-129.37 683.257,-127.293 669.784,-125.03"/>
<polygon fill="midnightblue" stroke="midnightblue" points="1476.63,-188.22 1486.73,-185.035 1476.85,-181.223 1476.63,-188.22"/>
</g>
<!-- Node12 -->
<g id="node12" class="node"><title>Node12</title>
<g id="a_node12"><a xlink:href="CameraManager_8cpp.html" target="_top" xlink:title="/home/travis/build\l/STORM&#45;IRIT/Radium&#45;Engine\l/src/Engine/Managers/CameraManager\l/CameraManager.cpp">
<polygon fill="white" stroke="black" points="2358.5,-78.5 2358.5,-130.5 2561.5,-130.5 2561.5,-78.5 2358.5,-78.5"/>
<text text-anchor="start" x="2366.5" y="-118.5" font-family="Helvetica,sans-Serif" font-size="10.00">/home/travis/build</text>
<text text-anchor="start" x="2366.5" y="-107.5" font-family="Helvetica,sans-Serif" font-size="10.00">/STORM&#45;IRIT/Radium&#45;Engine</text>
<text text-anchor="start" x="2366.5" y="-96.5" font-family="Helvetica,sans-Serif" font-size="10.00">/src/Engine/Managers/CameraManager</text>
<text text-anchor="middle" x="2460" y="-85.5" font-family="Helvetica,sans-Serif" font-size="10.00">/CameraManager.cpp</text>
</a>
</g>
</g>
<!-- Node9&#45;&gt;Node12 -->
<g id="edge12" class="edge"><title>Node9&#45;&gt;Node12</title>
<path fill="none" stroke="midnightblue" d="M1645.18,-167.552C1646.46,-167.359 1647.73,-167.175 1649,-167 1957.59,-124.322 2040.47,-174.038 2349,-131 2352.04,-130.577 2355.11,-130.111 2358.21,-129.61"/>
<polygon fill="midnightblue" stroke="midnightblue" points="1644.55,-164.108 1635.25,-169.18 1645.69,-171.015 1644.55,-164.108"/>
</g>
<!-- Node9&#45;&gt;Node13 -->
<g id="edge13" class="edge"><title>Node9&#45;&gt;Node13</title>
<path fill="none" stroke="midnightblue" d="M1476.6,-178.051C1393.61,-168.639 1263.51,-152.245 1152,-131 1148.71,-130.374 1145.37,-129.709 1142.01,-129.016"/>
<polygon fill="midnightblue" stroke="midnightblue" points="1476.41,-181.551 1486.74,-179.192 1477.19,-174.595 1476.41,-181.551"/>
</g>
<!-- Node14 -->
<g id="node14" class="node"><title>Node14</title>
<g id="a_node14"><a xlink:href="RadiumEngine_8cpp.html" target="_top" xlink:title="/home/travis/build\l/STORM&#45;IRIT/Radium&#45;Engine\l/src/Engine/RadiumEngine.cpp">
<polygon fill="white" stroke="black" points="2579.5,-84 2579.5,-125 2740.5,-125 2740.5,-84 2579.5,-84"/>
<text text-anchor="start" x="2587.5" y="-113" font-family="Helvetica,sans-Serif" font-size="10.00">/home/travis/build</text>
<text text-anchor="start" x="2587.5" y="-102" font-family="Helvetica,sans-Serif" font-size="10.00">/STORM&#45;IRIT/Radium&#45;Engine</text>
<text text-anchor="middle" x="2660" y="-91" font-family="Helvetica,sans-Serif" font-size="10.00">/src/Engine/RadiumEngine.cpp</text>
</a>
</g>
</g>
<!-- Node9&#45;&gt;Node14 -->
<g id="edge14" class="edge"><title>Node9&#45;&gt;Node14</title>
<path fill="none" stroke="midnightblue" d="M1645.18,-167.53C1646.46,-167.344 1647.73,-167.167 1649,-167 2055.56,-113.33 2166.08,-195.944 2571,-131 2580.2,-129.524 2589.81,-127.407 2599.15,-125.017"/>
<polygon fill="midnightblue" stroke="midnightblue" points="1644.57,-164.083 1635.24,-169.114 1645.67,-170.995 1644.57,-164.083"/>
</g>
<!-- Node15 -->
<g id="node15" class="node"><title>Node15</title>
<g id="a_node15"><a xlink:href="Renderer_8cpp.html" target="_top" xlink:title="/home/travis/build\l/STORM&#45;IRIT/Radium&#45;Engine\l/src/Engine/Renderer/Renderer.cpp">
<polygon fill="white" stroke="black" points="2759,-84 2759,-125 2939,-125 2939,-84 2759,-84"/>
<text text-anchor="start" x="2767" y="-113" font-family="Helvetica,sans-Serif" font-size="10.00">/home/travis/build</text>
<text text-anchor="start" x="2767" y="-102" font-family="Helvetica,sans-Serif" font-size="10.00">/STORM&#45;IRIT/Radium&#45;Engine</text>
<text text-anchor="middle" x="2849" y="-91" font-family="Helvetica,sans-Serif" font-size="10.00">/src/Engine/Renderer/Renderer.cpp</text>
</a>
</g>
</g>
<!-- Node9&#45;&gt;Node15 -->
<g id="edge15" class="edge"><title>Node9&#45;&gt;Node15</title>
<path fill="none" stroke="midnightblue" d="M1645.17,-167.519C1646.46,-167.336 1647.73,-167.163 1649,-167 2134.58,-104.463 2265.36,-200.479 2750,-131 2760.19,-129.539 2770.84,-127.431 2781.23,-125.045"/>
<polygon fill="midnightblue" stroke="midnightblue" points="1644.57,-164.07 1635.24,-169.081 1645.66,-170.985 1644.57,-164.07"/>
</g>
<!-- Node9&#45;&gt;Node16 -->
<g id="edge16" class="edge"><title>Node9&#45;&gt;Node16</title>
<path fill="none" stroke="midnightblue" d="M1476.55,-182.598C1357.49,-175.649 1133.76,-159.865 945,-131 934.019,-129.321 922.528,-127.244 911.207,-125.006"/>
<polygon fill="midnightblue" stroke="midnightblue" points="1476.5,-186.101 1486.69,-183.183 1476.9,-179.112 1476.5,-186.101"/>
</g>
<!-- Node17 -->
<g id="node17" class="node"><title>Node17</title>
<g id="a_node17"><a xlink:href="Viewer_8cpp.html" target="_top" xlink:title="/home/travis/build\l/STORM&#45;IRIT/Radium&#45;Engine\l/src/GuiBase/Viewer/Viewer.cpp">
<polygon fill="white" stroke="black" points="2957.5,-84 2957.5,-125 3122.5,-125 3122.5,-84 2957.5,-84"/>
<text text-anchor="start" x="2965.5" y="-113" font-family="Helvetica,sans-Serif" font-size="10.00">/home/travis/build</text>
<text text-anchor="start" x="2965.5" y="-102" font-family="Helvetica,sans-Serif" font-size="10.00">/STORM&#45;IRIT/Radium&#45;Engine</text>
<text text-anchor="middle" x="3040" y="-91" font-family="Helvetica,sans-Serif" font-size="10.00">/src/GuiBase/Viewer/Viewer.cpp</text>
</a>
</g>
</g>
<!-- Node9&#45;&gt;Node17 -->
<g id="edge17" class="edge"><title>Node9&#45;&gt;Node17</title>
<path fill="none" stroke="midnightblue" d="M1645.17,-167.51C1646.46,-167.33 1647.73,-167.16 1649,-167 2222.01,-94.6545 2376.85,-216.764 2948,-131 2957.51,-129.572 2967.43,-127.483 2977.09,-125.104"/>
<polygon fill="midnightblue" stroke="midnightblue" points="1644.58,-164.06 1635.24,-169.054 1645.65,-170.977 1644.58,-164.06"/>
</g>
<!-- Node18 -->
<g id="node18" class="node"><title>Node18</title>
<g id="a_node18"><a xlink:href="AssimpFileLoader_8cpp.html" target="_top" xlink:title="/home/travis/build\l/STORM&#45;IRIT/Radium&#45;Engine\l/src/IO/AssimpLoader/AssimpFile\lLoader.cpp">
<polygon fill="white" stroke="black" points="1160.5,-78.5 1160.5,-130.5 1331.5,-130.5 1331.5,-78.5 1160.5,-78.5"/>
<text text-anchor="start" x="1168.5" y="-118.5" font-family="Helvetica,sans-Serif" font-size="10.00">/home/travis/build</text>
<text text-anchor="start" x="1168.5" y="-107.5" font-family="Helvetica,sans-Serif" font-size="10.00">/STORM&#45;IRIT/Radium&#45;Engine</text>
<text text-anchor="start" x="1168.5" y="-96.5" font-family="Helvetica,sans-Serif" font-size="10.00">/src/IO/AssimpLoader/AssimpFile</text>
<text text-anchor="middle" x="1246" y="-85.5" font-family="Helvetica,sans-Serif" font-size="10.00">Loader.cpp</text>
</a>
</g>
</g>
<!-- Node9&#45;&gt;Node18 -->
<g id="edge18" class="edge"><title>Node9&#45;&gt;Node18</title>
<path fill="none" stroke="midnightblue" d="M1477.16,-165.93C1436.09,-155.539 1385.92,-142.745 1341,-131 1337.94,-130.201 1334.83,-129.384 1331.69,-128.556"/>
<polygon fill="midnightblue" stroke="midnightblue" points="1476.3,-169.323 1486.85,-168.381 1478.01,-162.537 1476.3,-169.323"/>
</g>
<!-- Node19 -->
<g id="node19" class="node"><title>Node19</title>
<g id="a_node19"><a xlink:href="CameraLoader_8cpp.html" target="_top" xlink:title="/home/travis/build\l/STORM&#45;IRIT/Radium&#45;Engine\l/src/IO/CameraLoader/CameraLoader.cpp">
<polygon fill="white" stroke="black" points="1349.5,-84 1349.5,-125 1564.5,-125 1564.5,-84 1349.5,-84"/>
<text text-anchor="start" x="1357.5" y="-113" font-family="Helvetica,sans-Serif" font-size="10.00">/home/travis/build</text>
<text text-anchor="start" x="1357.5" y="-102" font-family="Helvetica,sans-Serif" font-size="10.00">/STORM&#45;IRIT/Radium&#45;Engine</text>
<text text-anchor="middle" x="1457" y="-91" font-family="Helvetica,sans-Serif" font-size="10.00">/src/IO/CameraLoader/CameraLoader.cpp</text>
</a>
</g>
</g>
<!-- Node9&#45;&gt;Node19 -->
<g id="edge19" class="edge"><title>Node9&#45;&gt;Node19</title>
<path fill="none" stroke="midnightblue" d="M1528.1,-161.22C1513.21,-149.548 1495.89,-135.973 1482.07,-125.144"/>
<polygon fill="midnightblue" stroke="midnightblue" points="1526.06,-164.065 1536.09,-167.479 1530.38,-158.556 1526.06,-164.065"/>
</g>
<!-- Node20 -->
<g id="node20" class="node"><title>Node20</title>
<g id="a_node20"><a xlink:href="TinyPlyFileLoader_8cpp.html" target="_top" xlink:title="/home/travis/build\l/STORM&#45;IRIT/Radium&#45;Engine\l/src/IO/TinyPlyLoader/TinyPlyFile\lLoader.cpp">
<polygon fill="white" stroke="black" points="1582.5,-78.5 1582.5,-130.5 1747.5,-130.5 1747.5,-78.5 1582.5,-78.5"/>
<text text-anchor="start" x="1590.5" y="-118.5" font-family="Helvetica,sans-Serif" font-size="10.00">/home/travis/build</text>
<text text-anchor="start" x="1590.5" y="-107.5" font-family="Helvetica,sans-Serif" font-size="10.00">/STORM&#45;IRIT/Radium&#45;Engine</text>
<text text-anchor="start" x="1590.5" y="-96.5" font-family="Helvetica,sans-Serif" font-size="10.00">/src/IO/TinyPlyLoader/TinyPlyFile</text>
<text text-anchor="middle" x="1665" y="-85.5" font-family="Helvetica,sans-Serif" font-size="10.00">Loader.cpp</text>
</a>
</g>
</g>
<!-- Node9&#45;&gt;Node20 -->
<g id="edge20" class="edge"><title>Node9&#45;&gt;Node20</title>
<path fill="none" stroke="midnightblue" d="M1593.81,-161.289C1606.26,-151.533 1620.42,-140.439 1632.81,-130.728"/>
<polygon fill="midnightblue" stroke="midnightblue" points="1591.62,-158.556 1585.91,-167.479 1595.94,-164.065 1591.62,-158.556"/>
</g>
<!-- Node21 -->
<g id="node21" class="node"><title>Node21</title>
<g id="a_node21"><a xlink:href="AnimationSystem_8cpp.html" target="_top" xlink:title="/home/travis/build\l/STORM&#45;IRIT/Radium&#45;Engine\l/Plugins/Animation/src/Animation\lSystem.cpp">
<polygon fill="white" stroke="black" points="1766,-78.5 1766,-130.5 1940,-130.5 1940,-78.5 1766,-78.5"/>
<text text-anchor="start" x="1774" y="-118.5" font-family="Helvetica,sans-Serif" font-size="10.00">/home/travis/build</text>
<text text-anchor="start" x="1774" y="-107.5" font-family="Helvetica,sans-Serif" font-size="10.00">/STORM&#45;IRIT/Radium&#45;Engine</text>
<text text-anchor="start" x="1774" y="-96.5" font-family="Helvetica,sans-Serif" font-size="10.00">/Plugins/Animation/src/Animation</text>
<text text-anchor="middle" x="1853" y="-85.5" font-family="Helvetica,sans-Serif" font-size="10.00">System.cpp</text>
</a>
</g>
</g>
<!-- Node9&#45;&gt;Node21 -->
<g id="edge21" class="edge"><title>Node9&#45;&gt;Node21</title>
<path fill="none" stroke="midnightblue" d="M1640.62,-164.777C1679.4,-153.952 1726.12,-140.912 1765.86,-129.822"/>
<polygon fill="midnightblue" stroke="midnightblue" points="1639.63,-161.419 1630.94,-167.479 1641.51,-168.161 1639.63,-161.419"/>
</g>
<!-- Node9&#45;&gt;Node22 -->
<g id="edge22" class="edge"><title>Node9&#45;&gt;Node22</title>
<path fill="none" stroke="midnightblue" d="M1645.17,-167.504C1646.46,-167.326 1647.73,-167.158 1649,-167 2303.25,-85.5383 2479.33,-224.274 3132,-131 3134.9,-130.585 3137.84,-130.113 3140.8,-129.593"/>
<polygon fill="midnightblue" stroke="midnightblue" points="1644.58,-164.053 1635.23,-169.036 1645.65,-170.971 1644.58,-164.053"/>
</g>
<!-- Node23 -->
<g id="node23" class="node"><title>Node23</title>
<g id="a_node23"><a xlink:href="SkinningSystem_8hpp.html" target="_top" xlink:title="/home/travis/build\l/STORM&#45;IRIT/Radium&#45;Engine\l/Plugins/Skinning/src/SkinningSystem.hpp">
<polygon fill="white" stroke="black" points="1958.5,-84 1958.5,-125 2173.5,-125 2173.5,-84 1958.5,-84"/>
<text text-anchor="start" x="1966.5" y="-113" font-family="Helvetica,sans-Serif" font-size="10.00">/home/travis/build</text>
<text text-anchor="start" x="1966.5" y="-102" font-family="Helvetica,sans-Serif" font-size="10.00">/STORM&#45;IRIT/Radium&#45;Engine</text>
<text text-anchor="middle" x="2066" y="-91" font-family="Helvetica,sans-Serif" font-size="10.00">/Plugins/Skinning/src/SkinningSystem.hpp</text>
</a>
</g>
</g>
<!-- Node9&#45;&gt;Node23 -->
<g id="edge23" class="edge"><title>Node9&#45;&gt;Node23</title>
<path fill="none" stroke="midnightblue" d="M1645.2,-167.673C1646.47,-167.442 1647.74,-167.218 1649,-167 1781.32,-144.088 1816.58,-153.324 1949,-131 1959.35,-129.255 1970.17,-127.206 1980.88,-125.041"/>
<polygon fill="midnightblue" stroke="midnightblue" points="1644.48,-164.245 1635.31,-169.54 1645.78,-171.124 1644.48,-164.245"/>
</g>
<!-- Node24 -->
<g id="node24" class="node"><title>Node24</title>
<g id="a_node24"><a xlink:href="SkinningPlugin_8cpp.html" target="_top" xlink:title="/home/travis/build\l/STORM&#45;IRIT/Radium&#45;Engine\l/Plugins/Skinning/src/SkinningPlugin.cpp">
<polygon fill="white" stroke="black" points="1963,-0.5 1963,-41.5 2169,-41.5 2169,-0.5 1963,-0.5"/>
<text text-anchor="start" x="1971" y="-29.5" font-family="Helvetica,sans-Serif" font-size="10.00">/home/travis/build</text>
<text text-anchor="start" x="1971" y="-18.5" font-family="Helvetica,sans-Serif" font-size="10.00">/STORM&#45;IRIT/Radium&#45;Engine</text>
<text text-anchor="middle" x="2066" y="-7.5" font-family="Helvetica,sans-Serif" font-size="10.00">/Plugins/Skinning/src/SkinningPlugin.cpp</text>
</a>
</g>
</g>
<!-- Node23&#45;&gt;Node24 -->
<g id="edge24" class="edge"><title>Node23&#45;&gt;Node24</title>
<path fill="none" stroke="midnightblue" d="M2066,-73.5646C2066,-62.8819 2066,-51.1303 2066,-41.5472"/>
<polygon fill="midnightblue" stroke="midnightblue" points="2062.5,-73.7711 2066,-83.7711 2069.5,-73.7712 2062.5,-73.7711"/>
</g>
<!-- Node26&#45;&gt;Node7 -->
<g id="edge27" class="edge"><title>Node26&#45;&gt;Node7</title>
<path fill="none" stroke="midnightblue" d="M1807.89,-294.432C1801.89,-295.789 1795.86,-297.005 1790,-298 1549.8,-338.751 1483.42,-294.541 1243,-334 1233.47,-335.564 1223.52,-337.664 1213.69,-339.991"/>
<polygon fill="midnightblue" stroke="midnightblue" points="1809.03,-297.759 1817.94,-292.031 1807.4,-290.95 1809.03,-297.759"/>
</g>
<!-- Node27&#45;&gt;Node11 -->
<g id="edge30" class="edge"><title>Node27&#45;&gt;Node11</title>
<path fill="none" stroke="midnightblue" d="M844.027,-165.258C787.024,-152.736 715.973,-137.127 660.781,-125.003"/>
<polygon fill="midnightblue" stroke="midnightblue" points="843.618,-168.752 854.136,-167.479 845.12,-161.915 843.618,-168.752"/>
</g>
<!-- Node27&#45;&gt;Node16 -->
<g id="edge31" class="edge"><title>Node27&#45;&gt;Node16</title>
<path fill="none" stroke="midnightblue" d="M906.767,-161.543C890.052,-149.799 870.515,-136.073 854.96,-125.144"/>
<polygon fill="midnightblue" stroke="midnightblue" points="905.021,-164.594 915.215,-167.479 909.045,-158.866 905.021,-164.594"/>
</g>
<!-- Node29&#45;&gt;Node1 -->
<g id="edge38" class="edge"><title>Node29&#45;&gt;Node1</title>
<path fill="none" stroke="midnightblue" d="M1455.41,-385.351C1429.9,-397.476 1398.18,-412.029 1372.26,-423.479"/>
<polygon fill="midnightblue" stroke="midnightblue" points="1456.99,-388.474 1464.5,-381.003 1453.97,-382.158 1456.99,-388.474"/>
</g>
</g>
</svg>
