<?xml version="1.0" encoding="UTF-8" standalone="no"?>
<!DOCTYPE svg PUBLIC "-//W3C//DTD SVG 1.1//EN"
 "http://www.w3.org/Graphics/SVG/1.1/DTD/svg11.dtd">
<!-- Generated by graphviz version 2.38.0 (20140413.2041)
 -->
<!-- Title: /home/travis/build/STORM&#45;IRIT/Radium&#45;Engine/src/Core/File/MaterialData.cpp Pages: 1 -->
<svg width="1818pt" height="453pt"
 viewBox="0.00 0.00 1817.54 453.00" xmlns="http://www.w3.org/2000/svg" xmlns:xlink="http://www.w3.org/1999/xlink">
<g id="graph0" class="graph" transform="scale(1 1) rotate(0) translate(4 449)">
<title>/home/travis/build/STORM&#45;IRIT/Radium&#45;Engine/src/Core/File/MaterialData.cpp</title>
<polygon fill="white" stroke="none" points="-4,4 -4,-449 1813.54,-449 1813.54,4 -4,4"/>
<!-- Node1 -->
<g id="node1" class="node"><title>Node1</title>
<polygon fill="#bfbfbf" stroke="black" points="624.539,-403.5 624.539,-444.5 786.539,-444.5 786.539,-403.5 624.539,-403.5"/>
<text text-anchor="start" x="632.539" y="-432.5" font-family="Helvetica,sans-Serif" font-size="10.00">/home/travis/build</text>
<text text-anchor="start" x="632.539" y="-421.5" font-family="Helvetica,sans-Serif" font-size="10.00">/STORM&#45;IRIT/Radium&#45;Engine</text>
<text text-anchor="middle" x="705.539" y="-410.5" font-family="Helvetica,sans-Serif" font-size="10.00">/src/Core/File/MaterialData.cpp</text>
</g>
<!-- Node2 -->
<g id="node2" class="node"><title>Node2</title>
<g id="a_node2"><a xlink:href="MaterialData_8hpp.html" target="_top" xlink:title="Core/File/MaterialData.hpp">
<polygon fill="white" stroke="black" points="634.039,-347.5 634.039,-366.5 777.039,-366.5 777.039,-347.5 634.039,-347.5"/>
<text text-anchor="middle" x="705.539" y="-354.5" font-family="Helvetica,sans-Serif" font-size="10.00">Core/File/MaterialData.hpp</text>
</a>
</g>
</g>
<!-- Node1&#45;&gt;Node2 -->
<g id="edge1" class="edge"><title>Node1&#45;&gt;Node2</title>
<path fill="none" stroke="midnightblue" d="M705.539,-403.498C705.539,-395.065 705.539,-385.235 705.539,-376.874"/>
<polygon fill="midnightblue" stroke="midnightblue" points="709.04,-376.652 705.539,-366.652 702.04,-376.653 709.04,-376.652"/>
</g>
<!-- Node3 -->
<g id="node3" class="node"><title>Node3</title>
<polygon fill="white" stroke="#bfbfbf" points="1584.54,-112.5 1584.54,-131.5 1628.54,-131.5 1628.54,-112.5 1584.54,-112.5"/>
<text text-anchor="middle" x="1606.54" y="-119.5" font-family="Helvetica,sans-Serif" font-size="10.00">string</text>
</g>
<!-- Node2&#45;&gt;Node3 -->
<g id="edge2" class="edge"><title>Node2&#45;&gt;Node3</title>
<path fill="none" stroke="midnightblue" d="M777.361,-355.595C982.017,-354.012 1558.42,-346.426 1635.54,-311 1672.96,-293.81 1693.93,-275.826 1688.54,-235 1684.5,-204.431 1688.21,-193.269 1670.54,-168 1661.33,-154.833 1646.97,-144.226 1634.18,-136.625"/>
<polygon fill="midnightblue" stroke="midnightblue" points="1635.68,-133.453 1625.24,-131.628 1632.26,-139.563 1635.68,-133.453"/>
</g>
<!-- Node4 -->
<g id="node4" class="node"><title>Node4</title>
<polygon fill="white" stroke="#bfbfbf" points="171.039,-112.5 171.039,-131.5 218.039,-131.5 218.039,-112.5 171.039,-112.5"/>
<text text-anchor="middle" x="194.539" y="-119.5" font-family="Helvetica,sans-Serif" font-size="10.00">vector</text>
</g>
<!-- Node2&#45;&gt;Node4 -->
<g id="edge3" class="edge"><title>Node2&#45;&gt;Node4</title>
<path fill="none" stroke="midnightblue" d="M633.994,-354.117C482.926,-349.655 141.477,-336.822 95.5395,-311 32.0562,-275.316 -29.2403,-225.431 15.5395,-168 17.8091,-165.089 109.587,-143.046 160.817,-130.927"/>
<polygon fill="midnightblue" stroke="midnightblue" points="161.857,-134.278 170.785,-128.573 160.249,-127.465 161.857,-134.278"/>
</g>
<!-- Node5 -->
<g id="node5" class="node"><title>Node5</title>
<g id="a_node5"><a xlink:href="VectorArray_8hpp.html" target="_top" xlink:title="Core/Containers/VectorArray.hpp">
<polygon fill="white" stroke="black" points="105.039,-291.5 105.039,-310.5 278.039,-310.5 278.039,-291.5 105.039,-291.5"/>
<text text-anchor="middle" x="191.539" y="-298.5" font-family="Helvetica,sans-Serif" font-size="10.00">Core/Containers/VectorArray.hpp</text>
</a>
</g>
</g>
<!-- Node2&#45;&gt;Node5 -->
<g id="edge4" class="edge"><title>Node2&#45;&gt;Node5</title>
<path fill="none" stroke="midnightblue" d="M633.8,-348.463C541.985,-338.817 382.844,-322.098 282.583,-311.565"/>
<polygon fill="midnightblue" stroke="midnightblue" points="282.777,-308.066 272.466,-310.502 282.046,-315.028 282.777,-308.066"/>
</g>
<!-- Node7 -->
<g id="node7" class="node"><title>Node7</title>
<g id="a_node7"><a xlink:href="RaCore_8hpp.html" target="_top" xlink:title="Core/RaCore.hpp">
<polygon fill="white" stroke="black" points="1074.54,-112.5 1074.54,-131.5 1172.54,-131.5 1172.54,-112.5 1074.54,-112.5"/>
<text text-anchor="middle" x="1123.54" y="-119.5" font-family="Helvetica,sans-Serif" font-size="10.00">Core/RaCore.hpp</text>
</a>
</g>
</g>
<!-- Node2&#45;&gt;Node7 -->
<g id="edge32" class="edge"><title>Node2&#45;&gt;Node7</title>
<path fill="none" stroke="midnightblue" d="M638.25,-347.472C504.15,-328.003 224.722,-273.597 324.539,-168 349.891,-141.181 883.689,-127.879 1064.37,-124.133"/>
<polygon fill="midnightblue" stroke="midnightblue" points="1064.56,-127.63 1074.48,-123.926 1064.41,-120.632 1064.56,-127.63"/>
</g>
<!-- Node15 -->
<g id="node15" class="node"><title>Node15</title>
<g id="a_node15"><a xlink:href="LinearAlgebra_8hpp.html" target="_top" xlink:title="Core/Math/LinearAlgebra.hpp">
<polygon fill="white" stroke="black" points="548.539,-235.5 548.539,-254.5 704.539,-254.5 704.539,-235.5 548.539,-235.5"/>
<text text-anchor="middle" x="626.539" y="-242.5" font-family="Helvetica,sans-Serif" font-size="10.00">Core/Math/LinearAlgebra.hpp</text>
</a>
</g>
</g>
<!-- Node2&#45;&gt;Node15 -->
<g id="edge31" class="edge"><title>Node2&#45;&gt;Node15</title>
<path fill="none" stroke="midnightblue" d="M699.34,-347.368C686.303,-329.215 655.842,-286.802 638.742,-262.99"/>
<polygon fill="midnightblue" stroke="midnightblue" points="641.386,-260.672 632.71,-254.591 635.7,-264.755 641.386,-260.672"/>
</g>
<!-- Node26 -->
<g id="node26" class="node"><title>Node26</title>
<g id="a_node26"><a xlink:href="AssetData_8hpp.html" target="_top" xlink:title="Core/File/AssetData.hpp">
<polygon fill="white" stroke="black" points="1252.04,-174 1252.04,-193 1383.04,-193 1383.04,-174 1252.04,-174"/>
<text text-anchor="middle" x="1317.54" y="-181" font-family="Helvetica,sans-Serif" font-size="10.00">Core/File/AssetData.hpp</text>
</a>
</g>
</g>
<!-- Node2&#45;&gt;Node26 -->
<g id="edge33" class="edge"><title>Node2&#45;&gt;Node26</title>
<path fill="none" stroke="midnightblue" d="M735.889,-347.495C837.03,-319.153 1162.67,-227.898 1277.22,-195.798"/>
<polygon fill="midnightblue" stroke="midnightblue" points="1278.32,-199.125 1287.01,-193.056 1276.43,-192.384 1278.32,-199.125"/>
</g>
<!-- Node27 -->
<g id="node27" class="node"><title>Node27</title>
<g id="a_node27"><a xlink:href="MaterialData_8inl.html" target="_top" xlink:title="Core/File/MaterialData.inl">
<polygon fill="white" stroke="black" points="1491.04,-291.5 1491.04,-310.5 1626.04,-310.5 1626.04,-291.5 1491.04,-291.5"/>
<text text-anchor="middle" x="1558.54" y="-298.5" font-family="Helvetica,sans-Serif" font-size="10.00">Core/File/MaterialData.inl</text>
</a>
</g>
</g>
<!-- Node2&#45;&gt;Node27 -->
<g id="edge36" class="edge"><title>Node2&#45;&gt;Node27</title>
<path fill="none" stroke="midnightblue" d="M777.191,-351.208C936.018,-340.924 1316.33,-316.849 1480.72,-306.673"/>
<polygon fill="midnightblue" stroke="midnightblue" points="1480.99,-310.163 1490.76,-306.052 1480.56,-303.176 1480.99,-310.163"/>
</g>
<!-- Node5&#45;&gt;Node4 -->
<g id="edge30" class="edge"><title>Node5&#45;&gt;Node4</title>
<path fill="none" stroke="midnightblue" d="M191.684,-291.463C192.142,-264.428 193.569,-180.239 194.216,-142.109"/>
<polygon fill="midnightblue" stroke="midnightblue" points="197.719,-141.926 194.389,-131.868 190.72,-141.808 197.719,-141.926"/>
</g>
<!-- Node6 -->
<g id="node6" class="node"><title>Node6</title>
<g id="a_node6"><a xlink:href="AlignedStdVector_8hpp.html" target="_top" xlink:title="Core/Containers/AlignedStd\lVector.hpp">
<polygon fill="white" stroke="black" points="25.0395,-168.5 25.0395,-198.5 174.039,-198.5 174.039,-168.5 25.0395,-168.5"/>
<text text-anchor="start" x="33.0395" y="-186.5" font-family="Helvetica,sans-Serif" font-size="10.00">Core/Containers/AlignedStd</text>
<text text-anchor="middle" x="99.5395" y="-175.5" font-family="Helvetica,sans-Serif" font-size="10.00">Vector.hpp</text>
</a>
</g>
</g>
<!-- Node5&#45;&gt;Node6 -->
<g id="edge5" class="edge"><title>Node5&#45;&gt;Node6</title>
<path fill="none" stroke="midnightblue" d="M184.625,-291.319C170.433,-273.502 137.633,-232.324 117.155,-206.615"/>
<polygon fill="midnightblue" stroke="midnightblue" points="119.695,-204.187 110.727,-198.545 114.22,-208.548 119.695,-204.187"/>
</g>
<!-- Node5&#45;&gt;Node7 -->
<g id="edge29" class="edge"><title>Node5&#45;&gt;Node7</title>
<path fill="none" stroke="midnightblue" d="M194.96,-291.332C205.792,-264.356 240.013,-182.811 263.539,-168 330.872,-125.611 880.846,-122.602 1064.26,-122.792"/>
<polygon fill="midnightblue" stroke="midnightblue" points="1064.52,-126.292 1074.52,-122.806 1064.53,-119.292 1064.52,-126.292"/>
</g>
<!-- Node5&#45;&gt;Node15 -->
<g id="edge15" class="edge"><title>Node5&#45;&gt;Node15</title>
<path fill="none" stroke="midnightblue" d="M260.467,-291.444C338.658,-281.737 465.922,-265.939 547.918,-255.76"/>
<polygon fill="midnightblue" stroke="midnightblue" points="548.442,-259.222 557.935,-254.516 547.58,-252.275 548.442,-259.222"/>
</g>
<!-- Node6&#45;&gt;Node4 -->
<g id="edge14" class="edge"><title>Node6&#45;&gt;Node4</title>
<path fill="none" stroke="midnightblue" d="M122.053,-168.399C137.139,-158.951 156.924,-146.559 172.013,-137.109"/>
<polygon fill="midnightblue" stroke="midnightblue" points="174.099,-139.932 180.716,-131.658 170.383,-134 174.099,-139.932"/>
</g>
<!-- Node6&#45;&gt;Node7 -->
<g id="edge6" class="edge"><title>Node6&#45;&gt;Node7</title>
<path fill="none" stroke="midnightblue" d="M174.082,-173.116C190.981,-171.213 208.861,-169.376 225.539,-168 540.845,-141.984 919.761,-128.956 1063.93,-124.658"/>
<polygon fill="midnightblue" stroke="midnightblue" points="1064.41,-128.145 1074.31,-124.351 1064.21,-121.148 1064.41,-128.145"/>
</g>
<!-- Node14 -->
<g id="node14" class="node"><title>Node14</title>
<polygon fill="white" stroke="#bfbfbf" points="53.0395,-112.5 53.0395,-131.5 146.039,-131.5 146.039,-112.5 53.0395,-112.5"/>
<text text-anchor="middle" x="99.5395" y="-119.5" font-family="Helvetica,sans-Serif" font-size="10.00">Eigen/StdVector</text>
</g>
<!-- Node6&#45;&gt;Node14 -->
<g id="edge13" class="edge"><title>Node6&#45;&gt;Node14</title>
<path fill="none" stroke="midnightblue" d="M99.5395,-168.399C99.5395,-160.466 99.5395,-150.458 99.5395,-141.858"/>
<polygon fill="midnightblue" stroke="midnightblue" points="103.04,-141.658 99.5395,-131.658 96.0396,-141.658 103.04,-141.658"/>
</g>
<!-- Node8 -->
<g id="node8" class="node"><title>Node8</title>
<g id="a_node8"><a xlink:href="CoreMacros_8hpp.html" target="_top" xlink:title="Core/CoreMacros.hpp">
<polygon fill="white" stroke="black" points="1193.54,-56.5 1193.54,-75.5 1313.54,-75.5 1313.54,-56.5 1193.54,-56.5"/>
<text text-anchor="middle" x="1253.54" y="-63.5" font-family="Helvetica,sans-Serif" font-size="10.00">Core/CoreMacros.hpp</text>
</a>
</g>
</g>
<!-- Node7&#45;&gt;Node8 -->
<g id="edge7" class="edge"><title>Node7&#45;&gt;Node8</title>
<path fill="none" stroke="midnightblue" d="M1144.14,-112.444C1165.53,-103.557 1199.22,-89.5632 1223.56,-79.4514"/>
<polygon fill="midnightblue" stroke="midnightblue" points="1225.14,-82.5848 1233.04,-75.5164 1222.46,-76.1203 1225.14,-82.5848"/>
</g>
<!-- Node9 -->
<g id="node9" class="node"><title>Node9</title>
<polygon fill="white" stroke="#bfbfbf" points="1331.54,-0.5 1331.54,-19.5 1383.54,-19.5 1383.54,-0.5 1331.54,-0.5"/>
<text text-anchor="middle" x="1357.54" y="-7.5" font-family="Helvetica,sans-Serif" font-size="10.00">cassert</text>
</g>
<!-- Node8&#45;&gt;Node9 -->
<g id="edge8" class="edge"><title>Node8&#45;&gt;Node9</title>
<path fill="none" stroke="midnightblue" d="M1270.25,-56.324C1286.85,-47.7034 1312.54,-34.3643 1331.76,-24.3855"/>
<polygon fill="midnightblue" stroke="midnightblue" points="1333.61,-27.3689 1340.87,-19.6545 1330.38,-21.1565 1333.61,-27.3689"/>
</g>
<!-- Node10 -->
<g id="node10" class="node"><title>Node10</title>
<polygon fill="white" stroke="#bfbfbf" points="1125.04,-0.5 1125.04,-19.5 1170.04,-19.5 1170.04,-0.5 1125.04,-0.5"/>
<text text-anchor="middle" x="1147.54" y="-7.5" font-family="Helvetica,sans-Serif" font-size="10.00">cstdio</text>
</g>
<!-- Node8&#45;&gt;Node10 -->
<g id="edge9" class="edge"><title>Node8&#45;&gt;Node10</title>
<path fill="none" stroke="midnightblue" d="M1236.51,-56.324C1219.51,-47.6641 1193.16,-34.2424 1173.55,-24.249"/>
<polygon fill="midnightblue" stroke="midnightblue" points="1175.03,-21.0752 1164.53,-19.6545 1171.85,-27.3125 1175.03,-21.0752"/>
</g>
<!-- Node11 -->
<g id="node11" class="node"><title>Node11</title>
<polygon fill="white" stroke="#bfbfbf" points="1188.04,-0.5 1188.04,-19.5 1247.04,-19.5 1247.04,-0.5 1188.04,-0.5"/>
<text text-anchor="middle" x="1217.54" y="-7.5" font-family="Helvetica,sans-Serif" font-size="10.00">iostream</text>
</g>
<!-- Node8&#45;&gt;Node11 -->
<g id="edge10" class="edge"><title>Node8&#45;&gt;Node11</title>
<path fill="none" stroke="midnightblue" d="M1247.59,-56.083C1242.56,-48.5341 1235.2,-37.4948 1229.03,-28.2298"/>
<polygon fill="midnightblue" stroke="midnightblue" points="1231.83,-26.1301 1223.37,-19.7511 1226.01,-30.0131 1231.83,-26.1301"/>
</g>
<!-- Node12 -->
<g id="node12" class="node"><title>Node12</title>
<polygon fill="white" stroke="#bfbfbf" points="1495.54,-0.5 1495.54,-19.5 1551.54,-19.5 1551.54,-0.5 1495.54,-0.5"/>
<text text-anchor="middle" x="1523.54" y="-7.5" font-family="Helvetica,sans-Serif" font-size="10.00">sstream</text>
</g>
<!-- Node8&#45;&gt;Node12 -->
<g id="edge11" class="edge"><title>Node8&#45;&gt;Node12</title>
<path fill="none" stroke="midnightblue" d="M1296.32,-56.4435C1348.38,-46.0319 1435.48,-28.6112 1485.36,-18.635"/>
<polygon fill="midnightblue" stroke="midnightblue" points="1486.3,-22.0176 1495.42,-16.6243 1484.93,-15.1536 1486.3,-22.0176"/>
</g>
<!-- Node13 -->
<g id="node13" class="node"><title>Node13</title>
<polygon fill="white" stroke="#bfbfbf" points="1265.54,-0.5 1265.54,-19.5 1313.54,-19.5 1313.54,-0.5 1265.54,-0.5"/>
<text text-anchor="middle" x="1289.54" y="-7.5" font-family="Helvetica,sans-Serif" font-size="10.00">thread</text>
</g>
<!-- Node8&#45;&gt;Node13 -->
<g id="edge12" class="edge"><title>Node8&#45;&gt;Node13</title>
<path fill="none" stroke="midnightblue" d="M1259.48,-56.083C1264.52,-48.5341 1271.88,-37.4948 1278.05,-28.2298"/>
<polygon fill="midnightblue" stroke="midnightblue" points="1281.07,-30.0131 1283.71,-19.7511 1275.25,-26.1301 1281.07,-30.0131"/>
</g>
<!-- Node15&#45;&gt;Node7 -->
<g id="edge16" class="edge"><title>Node15&#45;&gt;Node7</title>
<path fill="none" stroke="midnightblue" d="M548.284,-243.01C471.335,-240.18 361.588,-230.536 334.539,-199 325.57,-188.542 325.079,-178.016 334.539,-168 359.536,-141.537 885.472,-128.021 1064.49,-124.175"/>
<polygon fill="midnightblue" stroke="midnightblue" points="1064.59,-127.673 1074.51,-123.962 1064.44,-120.675 1064.59,-127.673"/>
</g>
<!-- Node16 -->
<g id="node16" class="node"><title>Node16</title>
<polygon fill="white" stroke="#bfbfbf" points="343.539,-174 343.539,-193 411.539,-193 411.539,-174 343.539,-174"/>
<text text-anchor="middle" x="377.539" y="-181" font-family="Helvetica,sans-Serif" font-size="10.00">Eigen/Core</text>
</g>
<!-- Node15&#45;&gt;Node16 -->
<g id="edge17" class="edge"><title>Node15&#45;&gt;Node16</title>
<path fill="none" stroke="midnightblue" d="M580.366,-235.427C538.381,-227.274 474.87,-214.045 420.539,-199 417.524,-198.165 414.409,-197.24 411.298,-196.273"/>
<polygon fill="midnightblue" stroke="midnightblue" points="412.094,-192.852 401.502,-193.101 409.937,-199.511 412.094,-192.852"/>
</g>
<!-- Node17 -->
<g id="node17" class="node"><title>Node17</title>
<polygon fill="white" stroke="#bfbfbf" points="429.539,-174 429.539,-193 523.539,-193 523.539,-174 429.539,-174"/>
<text text-anchor="middle" x="476.539" y="-181" font-family="Helvetica,sans-Serif" font-size="10.00">Eigen/Geometry</text>
</g>
<!-- Node15&#45;&gt;Node17 -->
<g id="edge18" class="edge"><title>Node15&#45;&gt;Node17</title>
<path fill="none" stroke="midnightblue" d="M605.048,-235.475C579.429,-225.313 536.43,-208.256 507.295,-196.7"/>
<polygon fill="midnightblue" stroke="midnightblue" points="508.577,-193.443 497.991,-193.009 505.996,-199.95 508.577,-193.443"/>
</g>
<!-- Node18 -->
<g id="node18" class="node"><title>Node18</title>
<polygon fill="white" stroke="#bfbfbf" points="541.539,-174 541.539,-193 621.539,-193 621.539,-174 541.539,-174"/>
<text text-anchor="middle" x="581.539" y="-181" font-family="Helvetica,sans-Serif" font-size="10.00">Eigen/Sparse</text>
</g>
<!-- Node15&#45;&gt;Node18 -->
<g id="edge19" class="edge"><title>Node15&#45;&gt;Node18</title>
<path fill="none" stroke="midnightblue" d="M620.092,-235.475C613.342,-226.55 602.57,-212.307 594.126,-201.143"/>
<polygon fill="midnightblue" stroke="midnightblue" points="596.799,-198.874 587.975,-193.009 591.216,-203.096 596.799,-198.874"/>
</g>
<!-- Node19 -->
<g id="node19" class="node"><title>Node19</title>
<polygon fill="white" stroke="#bfbfbf" points="640.039,-174 640.039,-193 703.039,-193 703.039,-174 640.039,-174"/>
<text text-anchor="middle" x="671.539" y="-181" font-family="Helvetica,sans-Serif" font-size="10.00">functional</text>
</g>
<!-- Node15&#45;&gt;Node19 -->
<g id="edge20" class="edge"><title>Node15&#45;&gt;Node19</title>
<path fill="none" stroke="midnightblue" d="M632.987,-235.475C639.737,-226.55 650.509,-212.307 658.953,-201.143"/>
<polygon fill="midnightblue" stroke="midnightblue" points="661.863,-203.096 665.104,-193.009 656.28,-198.874 661.863,-203.096"/>
</g>
<!-- Node20 -->
<g id="node20" class="node"><title>Node20</title>
<polygon fill="white" stroke="#bfbfbf" points="721.039,-168.5 721.039,-198.5 866.039,-198.5 866.039,-168.5 721.039,-168.5"/>
<text text-anchor="start" x="729.039" y="-186.5" font-family="Helvetica,sans-Serif" font-size="10.00">unsupported/Eigen/Aligned</text>
<text text-anchor="middle" x="793.539" y="-175.5" font-family="Helvetica,sans-Serif" font-size="10.00">Vector3</text>
</g>
<!-- Node15&#45;&gt;Node20 -->
<g id="edge21" class="edge"><title>Node15&#45;&gt;Node20</title>
<path fill="none" stroke="midnightblue" d="M650.466,-235.475C674.881,-226.776 713.474,-213.026 744.427,-201.998"/>
<polygon fill="midnightblue" stroke="midnightblue" points="745.936,-205.176 754.181,-198.523 743.586,-198.582 745.936,-205.176"/>
</g>
<!-- Node21 -->
<g id="node21" class="node"><title>Node21</title>
<g id="a_node21"><a xlink:href="Math_8hpp.html" target="_top" xlink:title="Core/Math/Math.hpp">
<polygon fill="white" stroke="black" points="1401.54,-174 1401.54,-193 1515.54,-193 1515.54,-174 1401.54,-174"/>
<text text-anchor="middle" x="1458.54" y="-181" font-family="Helvetica,sans-Serif" font-size="10.00">Core/Math/Math.hpp</text>
</a>
</g>
</g>
<!-- Node15&#45;&gt;Node21 -->
<g id="edge22" class="edge"><title>Node15&#45;&gt;Node21</title>
<path fill="none" stroke="midnightblue" d="M704.68,-243.464C843.688,-241.609 1142.81,-233.549 1392.54,-199 1399.73,-198.005 1407.3,-196.644 1414.65,-195.152"/>
<polygon fill="midnightblue" stroke="midnightblue" points="1415.42,-198.566 1424.47,-193.059 1413.96,-191.72 1415.42,-198.566"/>
</g>
<!-- Node25 -->
<g id="node25" class="node"><title>Node25</title>
<g id="a_node25"><a xlink:href="LinearAlgebra_8inl.html" target="_top" xlink:title="Core/Math/LinearAlgebra.inl">
<polygon fill="white" stroke="black" points="884.039,-174 884.039,-193 1033.04,-193 1033.04,-174 884.039,-174"/>
<text text-anchor="middle" x="958.539" y="-181" font-family="Helvetica,sans-Serif" font-size="10.00">Core/Math/LinearAlgebra.inl</text>
</a>
</g>
</g>
<!-- Node15&#45;&gt;Node25 -->
<g id="edge28" class="edge"><title>Node15&#45;&gt;Node25</title>
<path fill="none" stroke="midnightblue" d="M674.107,-235.475C734.015,-224.739 836.864,-206.306 901.096,-194.795"/>
<polygon fill="midnightblue" stroke="midnightblue" points="901.834,-198.218 911.06,-193.009 900.6,-191.328 901.834,-198.218"/>
</g>
<!-- Node21&#45;&gt;Node7 -->
<g id="edge23" class="edge"><title>Node21&#45;&gt;Node7</title>
<path fill="none" stroke="midnightblue" d="M1421.26,-173.965C1411.9,-171.918 1401.87,-169.804 1392.54,-168 1320.7,-154.108 1237.56,-140.589 1182.95,-132.056"/>
<polygon fill="midnightblue" stroke="midnightblue" points="1183.18,-128.549 1172.76,-130.47 1182.1,-135.466 1183.18,-128.549"/>
</g>
<!-- Node22 -->
<g id="node22" class="node"><title>Node22</title>
<polygon fill="white" stroke="#bfbfbf" points="1747.54,-112.5 1747.54,-131.5 1809.54,-131.5 1809.54,-112.5 1747.54,-112.5"/>
<text text-anchor="middle" x="1778.54" y="-119.5" font-family="Helvetica,sans-Serif" font-size="10.00">algorithm</text>
</g>
<!-- Node21&#45;&gt;Node22 -->
<g id="edge24" class="edge"><title>Node21&#45;&gt;Node22</title>
<path fill="none" stroke="midnightblue" d="M1496.75,-173.973C1506.15,-171.947 1516.2,-169.841 1525.54,-168 1599.91,-153.343 1687.01,-138.319 1737.18,-129.871"/>
<polygon fill="midnightblue" stroke="midnightblue" points="1738.03,-133.279 1747.31,-128.171 1736.87,-126.375 1738.03,-133.279"/>
</g>
<!-- Node23 -->
<g id="node23" class="node"><title>Node23</title>
<polygon fill="white" stroke="#bfbfbf" points="1340.04,-112.5 1340.04,-131.5 1387.04,-131.5 1387.04,-112.5 1340.04,-112.5"/>
<text text-anchor="middle" x="1363.54" y="-119.5" font-family="Helvetica,sans-Serif" font-size="10.00">cmath</text>
</g>
<!-- Node21&#45;&gt;Node23 -->
<g id="edge25" class="edge"><title>Node21&#45;&gt;Node23</title>
<path fill="none" stroke="midnightblue" d="M1444.93,-173.975C1429.48,-164.299 1404.05,-148.372 1385.72,-136.894"/>
<polygon fill="midnightblue" stroke="midnightblue" points="1387.46,-133.851 1377.13,-131.509 1383.74,-139.783 1387.46,-133.851"/>
</g>
<!-- Node24 -->
<g id="node24" class="node"><title>Node24</title>
<g id="a_node24"><a xlink:href="Math_8inl.html" target="_top" xlink:title="Core/Math/Math.inl">
<polygon fill="white" stroke="black" points="1405.04,-112.5 1405.04,-131.5 1512.04,-131.5 1512.04,-112.5 1405.04,-112.5"/>
<text text-anchor="middle" x="1458.54" y="-119.5" font-family="Helvetica,sans-Serif" font-size="10.00">Core/Math/Math.inl</text>
</a>
</g>
</g>
<!-- Node21&#45;&gt;Node24 -->
<g id="edge26" class="edge"><title>Node21&#45;&gt;Node24</title>
<path fill="none" stroke="midnightblue" d="M1453.64,-173.975C1451.81,-165.58 1451.34,-152.481 1452.22,-141.663"/>
<polygon fill="midnightblue" stroke="midnightblue" points="1455.73,-141.897 1453.64,-131.509 1448.79,-140.929 1455.73,-141.897"/>
</g>
<!-- Node24&#45;&gt;Node21 -->
<g id="edge27" class="edge"><title>Node24&#45;&gt;Node21</title>
<path fill="none" stroke="midnightblue" d="M1463.44,-131.509C1465.27,-139.898 1465.74,-152.996 1464.86,-163.817"/>
<polygon fill="midnightblue" stroke="midnightblue" points="1461.35,-163.588 1463.44,-173.975 1468.29,-164.554 1461.35,-163.588"/>
</g>
<!-- Node26&#45;&gt;Node3 -->
<g id="edge35" class="edge"><title>Node26&#45;&gt;Node3</title>
<path fill="none" stroke="midnightblue" d="M1358.95,-173.975C1417.06,-162.01 1521.6,-140.488 1574.3,-129.638"/>
<polygon fill="midnightblue" stroke="midnightblue" points="1575.33,-132.999 1584.42,-127.554 1573.92,-126.142 1575.33,-132.999"/>
</g>
<!-- Node26&#45;&gt;Node7 -->
<g id="edge34" class="edge"><title>Node26&#45;&gt;Node7</title>
<path fill="none" stroke="midnightblue" d="M1289.74,-173.975C1255.89,-163.592 1198.57,-146.012 1160.88,-134.454"/>
<polygon fill="midnightblue" stroke="midnightblue" points="1161.87,-131.095 1151.28,-131.509 1159.82,-137.788 1161.87,-131.095"/>
</g>
<!-- Node27&#45;&gt;Node2 -->
<g id="edge37" class="edge"><title>Node27&#45;&gt;Node2</title>
<path fill="none" stroke="midnightblue" d="M1490.95,-306.529C1335.79,-316.585 954.836,-340.704 787.058,-351.098"/>
<polygon fill="midnightblue" stroke="midnightblue" points="786.811,-347.607 777.046,-351.718 787.243,-354.593 786.811,-347.607"/>
</g>
<!-- Node27&#45;&gt;Node22 -->
<g id="edge48" class="edge"><title>Node27&#45;&gt;Node22</title>
<path fill="none" stroke="midnightblue" d="M1605.33,-291.427C1631.75,-284.819 1664.25,-273.569 1688.54,-255 1728.98,-224.076 1757.7,-169.638 1770.71,-141.302"/>
<polygon fill="midnightblue" stroke="midnightblue" points="1774.06,-142.383 1774.92,-131.824 1767.66,-139.541 1774.06,-142.383"/>
</g>
<!-- Node28 -->
<g id="node28" class="node"><title>Node28</title>
<g id="a_node28"><a xlink:href="Log_8hpp.html" target="_top" xlink:title="Core/Log/Log.hpp">
<polygon fill="white" stroke="black" points="1508.04,-235.5 1508.04,-254.5 1609.04,-254.5 1609.04,-235.5 1508.04,-235.5"/>
<text text-anchor="middle" x="1558.54" y="-242.5" font-family="Helvetica,sans-Serif" font-size="10.00">Core/Log/Log.hpp</text>
</a>
</g>
</g>
<!-- Node27&#45;&gt;Node28 -->
<g id="edge38" class="edge"><title>Node27&#45;&gt;Node28</title>
<path fill="none" stroke="midnightblue" d="M1558.54,-291.083C1558.54,-284.006 1558.54,-273.861 1558.54,-264.986"/>
<polygon fill="midnightblue" stroke="midnightblue" points="1562.04,-264.751 1558.54,-254.751 1555.04,-264.751 1562.04,-264.751"/>
</g>
<!-- Node32 -->
<g id="node32" class="node"><title>Node32</title>
<polygon fill="white" stroke="#bfbfbf" points="1627.54,-235.5 1627.54,-254.5 1679.54,-254.5 1679.54,-235.5 1627.54,-235.5"/>
<text text-anchor="middle" x="1653.54" y="-242.5" font-family="Helvetica,sans-Serif" font-size="10.00">iterator</text>
</g>
<!-- Node27&#45;&gt;Node32 -->
<g id="edge49" class="edge"><title>Node27&#45;&gt;Node32</title>
<path fill="none" stroke="midnightblue" d="M1573.8,-291.324C1588.76,-282.822 1611.79,-269.729 1629.27,-259.797"/>
<polygon fill="midnightblue" stroke="midnightblue" points="1631.35,-262.639 1638.31,-254.655 1627.89,-256.553 1631.35,-262.639"/>
</g>
<!-- Node28&#45;&gt;Node3 -->
<g id="edge42" class="edge"><title>Node28&#45;&gt;Node3</title>
<path fill="none" stroke="midnightblue" d="M1600.01,-235.497C1620.13,-229.06 1642.49,-217.952 1654.54,-199 1661.93,-187.373 1660.02,-180.642 1654.54,-168 1649.27,-155.84 1638.92,-145.459 1629.17,-137.743"/>
<polygon fill="midnightblue" stroke="midnightblue" points="1631.04,-134.771 1620.91,-131.67 1626.9,-140.412 1631.04,-134.771"/>
</g>
<!-- Node28&#45;&gt;Node7 -->
<g id="edge39" class="edge"><title>Node28&#45;&gt;Node7</title>
<path fill="none" stroke="midnightblue" d="M1507.75,-240.099C1430.89,-233.637 1289.05,-219.373 1242.54,-199 1222.58,-190.255 1222.58,-180.229 1204.54,-168 1187.06,-156.154 1166.22,-144.627 1150.05,-136.205"/>
<polygon fill="midnightblue" stroke="midnightblue" points="1151.63,-133.08 1141.13,-131.626 1148.43,-139.308 1151.63,-133.08"/>
</g>
<!-- Node28&#45;&gt;Node12 -->
<g id="edge40" class="edge"><title>Node28&#45;&gt;Node12</title>
<path fill="none" stroke="midnightblue" d="M1609.31,-236.65C1632.03,-230.553 1656.75,-219.4 1670.54,-199 1678.25,-187.585 1674.16,-181.292 1670.54,-168 1652.33,-101.249 1583.47,-48.8749 1546.82,-25.0369"/>
<polygon fill="midnightblue" stroke="midnightblue" points="1548.56,-21.9998 1538.25,-19.5999 1544.82,-27.9113 1548.56,-21.9998"/>
</g>
<!-- Node29 -->
<g id="node29" class="node"><title>Node29</title>
<polygon fill="white" stroke="#bfbfbf" points="1534.04,-174 1534.04,-193 1583.04,-193 1583.04,-174 1534.04,-174"/>
<text text-anchor="middle" x="1558.54" y="-181" font-family="Helvetica,sans-Serif" font-size="10.00">stdio.h</text>
</g>
<!-- Node28&#45;&gt;Node29 -->
<g id="edge41" class="edge"><title>Node28&#45;&gt;Node29</title>
<path fill="none" stroke="midnightblue" d="M1558.54,-235.475C1558.54,-227.08 1558.54,-213.981 1558.54,-203.163"/>
<polygon fill="midnightblue" stroke="midnightblue" points="1562.04,-203.009 1558.54,-193.009 1555.04,-203.009 1562.04,-203.009"/>
</g>
<!-- Node30 -->
<g id="node30" class="node"><title>Node30</title>
<g id="a_node30"><a xlink:href="StringUtils_8hpp.html" target="_top" xlink:title="Core/String/StringUtils.hpp">
<polygon fill="white" stroke="black" points="1051.54,-174 1051.54,-193 1195.54,-193 1195.54,-174 1051.54,-174"/>
<text text-anchor="middle" x="1123.54" y="-181" font-family="Helvetica,sans-Serif" font-size="10.00">Core/String/StringUtils.hpp</text>
</a>
</g>
</g>
<!-- Node28&#45;&gt;Node30 -->
<g id="edge43" class="edge"><title>Node28&#45;&gt;Node30</title>
<path fill="none" stroke="midnightblue" d="M1507.88,-238.093C1439.9,-230.024 1315.44,-214.749 1209.54,-199 1200.63,-197.675 1191.22,-196.183 1182.02,-194.673"/>
<polygon fill="midnightblue" stroke="midnightblue" points="1182.59,-191.22 1172.15,-193.035 1181.44,-198.126 1182.59,-191.22"/>
</g>
<!-- Node31 -->
<g id="node31" class="node"><title>Node31</title>
<polygon fill="white" stroke="#bfbfbf" points="1601.54,-174 1601.54,-193 1645.54,-193 1645.54,-174 1601.54,-174"/>
<text text-anchor="middle" x="1623.54" y="-181" font-family="Helvetica,sans-Serif" font-size="10.00">ctime</text>
</g>
<!-- Node28&#45;&gt;Node31 -->
<g id="edge47" class="edge"><title>Node28&#45;&gt;Node31</title>
<path fill="none" stroke="midnightblue" d="M1567.85,-235.475C1577.99,-226.197 1594.4,-211.171 1606.79,-199.831"/>
<polygon fill="midnightblue" stroke="midnightblue" points="1609.23,-202.343 1614.24,-193.009 1604.5,-197.18 1609.23,-202.343"/>
</g>
<!-- Node30&#45;&gt;Node3 -->
<g id="edge45" class="edge"><title>Node30&#45;&gt;Node3</title>
<path fill="none" stroke="midnightblue" d="M1192.74,-173.975C1298.62,-160.932 1496.7,-136.531 1574.24,-126.979"/>
<polygon fill="midnightblue" stroke="midnightblue" points="1574.86,-130.429 1584.36,-125.732 1574.01,-123.481 1574.86,-130.429"/>
</g>
<!-- Node30&#45;&gt;Node4 -->
<g id="edge46" class="edge"><title>Node30&#45;&gt;Node4</title>
<path fill="none" stroke="midnightblue" d="M1081.12,-173.984C1068.44,-171.712 1054.47,-169.481 1041.54,-168 726.904,-131.96 343.143,-124.715 228.453,-123.319"/>
<polygon fill="midnightblue" stroke="midnightblue" points="228.245,-119.817 218.205,-123.202 228.164,-126.816 228.245,-119.817"/>
</g>
<!-- Node30&#45;&gt;Node7 -->
<g id="edge44" class="edge"><title>Node30&#45;&gt;Node7</title>
<path fill="none" stroke="midnightblue" d="M1123.54,-173.975C1123.54,-165.58 1123.54,-152.481 1123.54,-141.663"/>
<polygon fill="midnightblue" stroke="midnightblue" points="1127.04,-141.509 1123.54,-131.509 1120.04,-141.509 1127.04,-141.509"/>
</g>
</g>
</svg>
