<?xml version="1.0" encoding="UTF-8" standalone="no"?>
<!DOCTYPE svg PUBLIC "-//W3C//DTD SVG 1.1//EN"
 "http://www.w3.org/Graphics/SVG/1.1/DTD/svg11.dtd">
<!-- Generated by graphviz version 2.38.0 (20140413.2041)
 -->
<!-- Title: /home/travis/build/STORM&#45;IRIT/Radium&#45;Engine/src/Core/File/MaterialData.inl Pages: 1 -->
<svg width="1847pt" height="464pt"
 viewBox="0.00 0.00 1847.00 464.00" xmlns="http://www.w3.org/2000/svg" xmlns:xlink="http://www.w3.org/1999/xlink">
<g id="graph0" class="graph" transform="scale(1 1) rotate(0) translate(4 460)">
<title>/home/travis/build/STORM&#45;IRIT/Radium&#45;Engine/src/Core/File/MaterialData.inl</title>
<polygon fill="white" stroke="none" points="-4,4 -4,-460 1843,-460 1843,4 -4,4"/>
<!-- Node1 -->
<g id="node1" class="node"><title>Node1</title>
<polygon fill="#bfbfbf" stroke="black" points="1501.5,-414.5 1501.5,-455.5 1656.5,-455.5 1656.5,-414.5 1501.5,-414.5"/>
<text text-anchor="start" x="1509.5" y="-443.5" font-family="Helvetica,sans-Serif" font-size="10.00">/home/travis/build</text>
<text text-anchor="start" x="1509.5" y="-432.5" font-family="Helvetica,sans-Serif" font-size="10.00">/STORM&#45;IRIT/Radium&#45;Engine</text>
<text text-anchor="middle" x="1579" y="-421.5" font-family="Helvetica,sans-Serif" font-size="10.00">/src/Core/File/MaterialData.inl</text>
</g>
<!-- Node2 -->
<g id="node2" class="node"><title>Node2</title>
<g id="a_node2"><a xlink:href="MaterialData_8hpp.html" target="_top" xlink:title="Core/File/MaterialData.hpp">
<polygon fill="white" stroke="black" points="1172.5,-358.5 1172.5,-377.5 1315.5,-377.5 1315.5,-358.5 1172.5,-358.5"/>
<text text-anchor="middle" x="1244" y="-365.5" font-family="Helvetica,sans-Serif" font-size="10.00">Core/File/MaterialData.hpp</text>
</a>
</g>
</g>
<!-- Node1&#45;&gt;Node2 -->
<g id="edge1" class="edge"><title>Node1&#45;&gt;Node2</title>
<path fill="none" stroke="midnightblue" d="M1501.48,-420.056C1437.24,-407.905 1347.97,-390.551 1293.15,-379.531"/>
<polygon fill="midnightblue" stroke="midnightblue" points="1293.82,-376.097 1283.32,-377.55 1292.44,-382.958 1293.82,-376.097"/>
</g>
<!-- Node22 -->
<g id="node22" class="node"><title>Node22</title>
<polygon fill="white" stroke="#bfbfbf" points="1441,-112.5 1441,-131.5 1503,-131.5 1503,-112.5 1441,-112.5"/>
<text text-anchor="middle" x="1472" y="-119.5" font-family="Helvetica,sans-Serif" font-size="10.00">algorithm</text>
</g>
<!-- Node1&#45;&gt;Node22 -->
<g id="edge47" class="edge"><title>Node1&#45;&gt;Node22</title>
<path fill="none" stroke="midnightblue" d="M1656.38,-414.454C1705.17,-396.962 1759,-365.716 1759,-313 1759,-313 1759,-313 1759,-249.5 1759,-143.452 1592.89,-125.546 1513.42,-123.047"/>
<polygon fill="midnightblue" stroke="midnightblue" points="1513.34,-119.545 1503.26,-122.798 1513.17,-126.543 1513.34,-119.545"/>
</g>
<!-- Node27 -->
<g id="node27" class="node"><title>Node27</title>
<g id="a_node27"><a xlink:href="Log_8hpp.html" target="_top" xlink:title="Core/Log/Log.hpp">
<polygon fill="white" stroke="black" points="1528.5,-302.5 1528.5,-321.5 1629.5,-321.5 1629.5,-302.5 1528.5,-302.5"/>
<text text-anchor="middle" x="1579" y="-309.5" font-family="Helvetica,sans-Serif" font-size="10.00">Core/Log/Log.hpp</text>
</a>
</g>
</g>
<!-- Node1&#45;&gt;Node27 -->
<g id="edge37" class="edge"><title>Node1&#45;&gt;Node27</title>
<path fill="none" stroke="midnightblue" d="M1579,-414.29C1579,-391.48 1579,-354.189 1579,-331.781"/>
<polygon fill="midnightblue" stroke="midnightblue" points="1582.5,-331.575 1579,-321.575 1575.5,-331.575 1582.5,-331.575"/>
</g>
<!-- Node31 -->
<g id="node31" class="node"><title>Node31</title>
<polygon fill="white" stroke="#bfbfbf" points="1787,-358.5 1787,-377.5 1839,-377.5 1839,-358.5 1787,-358.5"/>
<text text-anchor="middle" x="1813" y="-365.5" font-family="Helvetica,sans-Serif" font-size="10.00">iterator</text>
</g>
<!-- Node1&#45;&gt;Node31 -->
<g id="edge48" class="edge"><title>Node1&#45;&gt;Node31</title>
<path fill="none" stroke="midnightblue" d="M1649.21,-414.498C1691.3,-402.806 1743.06,-388.427 1776.99,-379.003"/>
<polygon fill="midnightblue" stroke="midnightblue" points="1778.22,-382.295 1786.91,-376.246 1776.34,-375.55 1778.22,-382.295"/>
</g>
<!-- Node2&#45;&gt;Node1 -->
<g id="edge36" class="edge"><title>Node2&#45;&gt;Node1</title>
<path fill="none" stroke="midnightblue" d="M1292.94,-377.574C1344.91,-387.255 1427.98,-403.285 1491.28,-415.79"/>
<polygon fill="midnightblue" stroke="midnightblue" points="1490.77,-419.257 1501.26,-417.765 1492.13,-412.391 1490.77,-419.257"/>
</g>
<!-- Node3 -->
<g id="node3" class="node"><title>Node3</title>
<polygon fill="white" stroke="#bfbfbf" points="1318,-174 1318,-193 1362,-193 1362,-174 1318,-174"/>
<text text-anchor="middle" x="1340" y="-181" font-family="Helvetica,sans-Serif" font-size="10.00">string</text>
</g>
<!-- Node2&#45;&gt;Node3 -->
<g id="edge2" class="edge"><title>Node2&#45;&gt;Node3</title>
<path fill="none" stroke="midnightblue" d="M1255.93,-358.215C1266.46,-349.92 1281.54,-336.602 1291,-322 1315.94,-283.489 1330.11,-230.674 1336.27,-203.052"/>
<polygon fill="midnightblue" stroke="midnightblue" points="1339.72,-203.681 1338.37,-193.172 1332.87,-202.228 1339.72,-203.681"/>
</g>
<!-- Node4 -->
<g id="node4" class="node"><title>Node4</title>
<polygon fill="white" stroke="#bfbfbf" points="1065.5,-174 1065.5,-193 1112.5,-193 1112.5,-174 1065.5,-174"/>
<text text-anchor="middle" x="1089" y="-181" font-family="Helvetica,sans-Serif" font-size="10.00">vector</text>
</g>
<!-- Node2&#45;&gt;Node4 -->
<g id="edge3" class="edge"><title>Node2&#45;&gt;Node4</title>
<path fill="none" stroke="midnightblue" d="M1224.82,-358.264C1194.95,-343.629 1137.68,-311.249 1108,-266 1095.51,-246.966 1091.2,-220.702 1089.72,-203.188"/>
<polygon fill="midnightblue" stroke="midnightblue" points="1093.21,-202.875 1089.11,-193.107 1086.22,-203.301 1093.21,-202.875"/>
</g>
<!-- Node5 -->
<g id="node5" class="node"><title>Node5</title>
<g id="a_node5"><a xlink:href="VectorArray_8hpp.html" target="_top" xlink:title="Core/Containers/VectorArray.hpp">
<polygon fill="white" stroke="black" points="887.5,-302.5 887.5,-321.5 1060.5,-321.5 1060.5,-302.5 887.5,-302.5"/>
<text text-anchor="middle" x="974" y="-309.5" font-family="Helvetica,sans-Serif" font-size="10.00">Core/Containers/VectorArray.hpp</text>
</a>
</g>
</g>
<!-- Node2&#45;&gt;Node5 -->
<g id="edge4" class="edge"><title>Node2&#45;&gt;Node5</title>
<path fill="none" stroke="midnightblue" d="M1201.22,-358.444C1153.82,-348.964 1077.37,-333.675 1026.42,-323.483"/>
<polygon fill="midnightblue" stroke="midnightblue" points="1027.07,-320.046 1016.58,-321.516 1025.7,-326.91 1027.07,-320.046"/>
</g>
<!-- Node7 -->
<g id="node7" class="node"><title>Node7</title>
<g id="a_node7"><a xlink:href="RaCore_8hpp.html" target="_top" xlink:title="Core/RaCore.hpp">
<polygon fill="white" stroke="black" points="1134,-112.5 1134,-131.5 1232,-131.5 1232,-112.5 1134,-112.5"/>
<text text-anchor="middle" x="1183" y="-119.5" font-family="Helvetica,sans-Serif" font-size="10.00">Core/RaCore.hpp</text>
</a>
</g>
</g>
<!-- Node2&#45;&gt;Node7 -->
<g id="edge32" class="edge"><title>Node2&#45;&gt;Node7</title>
<path fill="none" stroke="midnightblue" d="M1247.06,-358.442C1254.24,-337.098 1270.52,-279.989 1257,-235 1245.5,-196.748 1216.23,-159.515 1198.14,-139.081"/>
<polygon fill="midnightblue" stroke="midnightblue" points="1200.69,-136.682 1191.37,-131.634 1195.51,-141.389 1200.69,-136.682"/>
</g>
<!-- Node15 -->
<g id="node15" class="node"><title>Node15</title>
<g id="a_node15"><a xlink:href="LinearAlgebra_8hpp.html" target="_top" xlink:title="Core/Math/LinearAlgebra.hpp">
<polygon fill="white" stroke="black" points="501,-241 501,-260 657,-260 657,-241 501,-241"/>
<text text-anchor="middle" x="579" y="-248" font-family="Helvetica,sans-Serif" font-size="10.00">Core/Math/LinearAlgebra.hpp</text>
</a>
</g>
</g>
<!-- Node2&#45;&gt;Node15 -->
<g id="edge31" class="edge"><title>Node2&#45;&gt;Node15</title>
<path fill="none" stroke="midnightblue" d="M1172.46,-360.538C1098.43,-353.305 979.621,-340.171 878,-322 784.89,-305.35 677.286,-277.934 619.958,-262.659"/>
<polygon fill="midnightblue" stroke="midnightblue" points="620.755,-259.249 610.19,-260.044 618.945,-266.011 620.755,-259.249"/>
</g>
<!-- Node26 -->
<g id="node26" class="node"><title>Node26</title>
<g id="a_node26"><a xlink:href="AssetData_8hpp.html" target="_top" xlink:title="Core/File/AssetData.hpp">
<polygon fill="white" stroke="black" points="1117.5,-241 1117.5,-260 1248.5,-260 1248.5,-241 1117.5,-241"/>
<text text-anchor="middle" x="1183" y="-248" font-family="Helvetica,sans-Serif" font-size="10.00">Core/File/AssetData.hpp</text>
</a>
</g>
</g>
<!-- Node2&#45;&gt;Node26 -->
<g id="edge33" class="edge"><title>Node2&#45;&gt;Node26</title>
<path fill="none" stroke="midnightblue" d="M1239.42,-358.319C1229.48,-339.506 1205.79,-294.648 1192.48,-269.455"/>
<polygon fill="midnightblue" stroke="midnightblue" points="1195.4,-267.49 1187.64,-260.282 1189.21,-270.759 1195.4,-267.49"/>
</g>
<!-- Node5&#45;&gt;Node4 -->
<g id="edge30" class="edge"><title>Node5&#45;&gt;Node4</title>
<path fill="none" stroke="midnightblue" d="M985.586,-302.351C996.767,-293.739 1013.88,-279.842 1027,-266 1046.61,-245.314 1065.97,-218.576 1077.71,-201.477"/>
<polygon fill="midnightblue" stroke="midnightblue" points="1080.69,-203.313 1083.4,-193.069 1074.89,-199.39 1080.69,-203.313"/>
</g>
<!-- Node6 -->
<g id="node6" class="node"><title>Node6</title>
<g id="a_node6"><a xlink:href="AlignedStdVector_8hpp.html" target="_top" xlink:title="Core/Containers/AlignedStd\lVector.hpp">
<polygon fill="white" stroke="black" points="836.5,-235.5 836.5,-265.5 985.5,-265.5 985.5,-235.5 836.5,-235.5"/>
<text text-anchor="start" x="844.5" y="-253.5" font-family="Helvetica,sans-Serif" font-size="10.00">Core/Containers/AlignedStd</text>
<text text-anchor="middle" x="911" y="-242.5" font-family="Helvetica,sans-Serif" font-size="10.00">Vector.hpp</text>
</a>
</g>
</g>
<!-- Node5&#45;&gt;Node6 -->
<g id="edge5" class="edge"><title>Node5&#45;&gt;Node6</title>
<path fill="none" stroke="midnightblue" d="M964.974,-302.475C956.76,-294.718 944.293,-282.943 933.409,-272.665"/>
<polygon fill="midnightblue" stroke="midnightblue" points="935.521,-269.845 925.848,-265.523 930.715,-274.934 935.521,-269.845"/>
</g>
<!-- Node5&#45;&gt;Node7 -->
<g id="edge29" class="edge"><title>Node5&#45;&gt;Node7</title>
<path fill="none" stroke="midnightblue" d="M977.999,-302.3C990.984,-274.364 1032.49,-187.618 1056,-168 1075.64,-151.609 1101.69,-141.01 1125.07,-134.245"/>
<polygon fill="midnightblue" stroke="midnightblue" points="1126.17,-137.574 1134.91,-131.575 1124.34,-130.818 1126.17,-137.574"/>
</g>
<!-- Node5&#45;&gt;Node15 -->
<g id="edge15" class="edge"><title>Node5&#45;&gt;Node15</title>
<path fill="none" stroke="midnightblue" d="M917.406,-302.475C845.543,-291.65 721.747,-273.002 645.467,-261.512"/>
<polygon fill="midnightblue" stroke="midnightblue" points="645.899,-258.038 635.489,-260.009 644.856,-264.96 645.899,-258.038"/>
</g>
<!-- Node6&#45;&gt;Node4 -->
<g id="edge14" class="edge"><title>Node6&#45;&gt;Node4</title>
<path fill="none" stroke="midnightblue" d="M949.623,-235.396C981.408,-223.789 1025.98,-207.515 1056.09,-196.519"/>
<polygon fill="midnightblue" stroke="midnightblue" points="1057.51,-199.725 1065.7,-193.007 1055.11,-193.15 1057.51,-199.725"/>
</g>
<!-- Node6&#45;&gt;Node7 -->
<g id="edge6" class="edge"><title>Node6&#45;&gt;Node7</title>
<path fill="none" stroke="midnightblue" d="M929.921,-235.464C960.512,-212.81 1017.94,-170.453 1023,-168 1055.68,-152.148 1094.91,-141.005 1126.34,-133.773"/>
<polygon fill="midnightblue" stroke="midnightblue" points="1127.26,-137.155 1136.25,-131.562 1125.73,-130.323 1127.26,-137.155"/>
</g>
<!-- Node14 -->
<g id="node14" class="node"><title>Node14</title>
<polygon fill="white" stroke="#bfbfbf" points="877.5,-174 877.5,-193 970.5,-193 970.5,-174 877.5,-174"/>
<text text-anchor="middle" x="924" y="-181" font-family="Helvetica,sans-Serif" font-size="10.00">Eigen/StdVector</text>
</g>
<!-- Node6&#45;&gt;Node14 -->
<g id="edge13" class="edge"><title>Node6&#45;&gt;Node14</title>
<path fill="none" stroke="midnightblue" d="M913.821,-235.396C915.707,-225.963 918.21,-213.448 920.262,-203.189"/>
<polygon fill="midnightblue" stroke="midnightblue" points="923.732,-203.687 922.261,-193.195 916.868,-202.314 923.732,-203.687"/>
</g>
<!-- Node8 -->
<g id="node8" class="node"><title>Node8</title>
<g id="a_node8"><a xlink:href="CoreMacros_8hpp.html" target="_top" xlink:title="Core/CoreMacros.hpp">
<polygon fill="white" stroke="black" points="1241,-56.5 1241,-75.5 1361,-75.5 1361,-56.5 1241,-56.5"/>
<text text-anchor="middle" x="1301" y="-63.5" font-family="Helvetica,sans-Serif" font-size="10.00">Core/CoreMacros.hpp</text>
</a>
</g>
</g>
<!-- Node7&#45;&gt;Node8 -->
<g id="edge7" class="edge"><title>Node7&#45;&gt;Node8</title>
<path fill="none" stroke="midnightblue" d="M1201.7,-112.444C1220.94,-103.636 1251.15,-89.8116 1273.2,-79.722"/>
<polygon fill="midnightblue" stroke="midnightblue" points="1274.75,-82.8603 1282.39,-75.5164 1271.84,-76.4951 1274.75,-82.8603"/>
</g>
<!-- Node9 -->
<g id="node9" class="node"><title>Node9</title>
<polygon fill="white" stroke="#bfbfbf" points="1379,-0.5 1379,-19.5 1431,-19.5 1431,-0.5 1379,-0.5"/>
<text text-anchor="middle" x="1405" y="-7.5" font-family="Helvetica,sans-Serif" font-size="10.00">cassert</text>
</g>
<!-- Node8&#45;&gt;Node9 -->
<g id="edge8" class="edge"><title>Node8&#45;&gt;Node9</title>
<path fill="none" stroke="midnightblue" d="M1317.71,-56.324C1334.31,-47.7034 1360,-34.3643 1379.22,-24.3855"/>
<polygon fill="midnightblue" stroke="midnightblue" points="1381.07,-27.3689 1388.33,-19.6545 1377.84,-21.1565 1381.07,-27.3689"/>
</g>
<!-- Node10 -->
<g id="node10" class="node"><title>Node10</title>
<polygon fill="white" stroke="#bfbfbf" points="1172.5,-0.5 1172.5,-19.5 1217.5,-19.5 1217.5,-0.5 1172.5,-0.5"/>
<text text-anchor="middle" x="1195" y="-7.5" font-family="Helvetica,sans-Serif" font-size="10.00">cstdio</text>
</g>
<!-- Node8&#45;&gt;Node10 -->
<g id="edge9" class="edge"><title>Node8&#45;&gt;Node10</title>
<path fill="none" stroke="midnightblue" d="M1283.97,-56.324C1266.97,-47.6641 1240.62,-34.2424 1221.01,-24.249"/>
<polygon fill="midnightblue" stroke="midnightblue" points="1222.49,-21.0752 1211.99,-19.6545 1219.31,-27.3125 1222.49,-21.0752"/>
</g>
<!-- Node11 -->
<g id="node11" class="node"><title>Node11</title>
<polygon fill="white" stroke="#bfbfbf" points="1235.5,-0.5 1235.5,-19.5 1294.5,-19.5 1294.5,-0.5 1235.5,-0.5"/>
<text text-anchor="middle" x="1265" y="-7.5" font-family="Helvetica,sans-Serif" font-size="10.00">iostream</text>
</g>
<!-- Node8&#45;&gt;Node11 -->
<g id="edge10" class="edge"><title>Node8&#45;&gt;Node11</title>
<path fill="none" stroke="midnightblue" d="M1295.06,-56.083C1290.02,-48.5341 1282.66,-37.4948 1276.49,-28.2298"/>
<polygon fill="midnightblue" stroke="midnightblue" points="1279.29,-26.1301 1270.83,-19.7511 1273.47,-30.0131 1279.29,-26.1301"/>
</g>
<!-- Node12 -->
<g id="node12" class="node"><title>Node12</title>
<polygon fill="white" stroke="#bfbfbf" points="1530,-0.5 1530,-19.5 1586,-19.5 1586,-0.5 1530,-0.5"/>
<text text-anchor="middle" x="1558" y="-7.5" font-family="Helvetica,sans-Serif" font-size="10.00">sstream</text>
</g>
<!-- Node8&#45;&gt;Node12 -->
<g id="edge11" class="edge"><title>Node8&#45;&gt;Node12</title>
<path fill="none" stroke="midnightblue" d="M1341.72,-56.4435C1390.64,-46.1645 1472.08,-29.0539 1519.83,-19.0198"/>
<polygon fill="midnightblue" stroke="midnightblue" points="1520.71,-22.4123 1529.77,-16.9308 1519.27,-15.5619 1520.71,-22.4123"/>
</g>
<!-- Node13 -->
<g id="node13" class="node"><title>Node13</title>
<polygon fill="white" stroke="#bfbfbf" points="1313,-0.5 1313,-19.5 1361,-19.5 1361,-0.5 1313,-0.5"/>
<text text-anchor="middle" x="1337" y="-7.5" font-family="Helvetica,sans-Serif" font-size="10.00">thread</text>
</g>
<!-- Node8&#45;&gt;Node13 -->
<g id="edge12" class="edge"><title>Node8&#45;&gt;Node13</title>
<path fill="none" stroke="midnightblue" d="M1306.94,-56.083C1311.98,-48.5341 1319.34,-37.4948 1325.51,-28.2298"/>
<polygon fill="midnightblue" stroke="midnightblue" points="1328.53,-30.0131 1331.17,-19.7511 1322.71,-26.1301 1328.53,-30.0131"/>
</g>
<!-- Node15&#45;&gt;Node7 -->
<g id="edge16" class="edge"><title>Node15&#45;&gt;Node7</title>
<path fill="none" stroke="midnightblue" d="M657.003,-243.604C708.168,-237.418 775.444,-224.779 830,-199 849.707,-189.688 848.038,-176.75 868,-168 912.669,-148.421 1045.57,-134.442 1123.75,-127.653"/>
<polygon fill="midnightblue" stroke="midnightblue" points="1124.27,-131.122 1133.93,-126.782 1123.67,-124.147 1124.27,-131.122"/>
</g>
<!-- Node16 -->
<g id="node16" class="node"><title>Node16</title>
<polygon fill="white" stroke="#bfbfbf" points="753,-174 753,-193 821,-193 821,-174 753,-174"/>
<text text-anchor="middle" x="787" y="-181" font-family="Helvetica,sans-Serif" font-size="10.00">Eigen/Core</text>
</g>
<!-- Node15&#45;&gt;Node16 -->
<g id="edge17" class="edge"><title>Node15&#45;&gt;Node16</title>
<path fill="none" stroke="midnightblue" d="M607.692,-240.986C640.668,-231.139 696.373,-214.315 744,-199 746.742,-198.118 749.578,-197.193 752.425,-196.253"/>
<polygon fill="midnightblue" stroke="midnightblue" points="753.647,-199.536 762.028,-193.054 751.434,-192.895 753.647,-199.536"/>
</g>
<!-- Node17 -->
<g id="node17" class="node"><title>Node17</title>
<polygon fill="white" stroke="#bfbfbf" points="132,-174 132,-193 226,-193 226,-174 132,-174"/>
<text text-anchor="middle" x="179" y="-181" font-family="Helvetica,sans-Serif" font-size="10.00">Eigen/Geometry</text>
</g>
<!-- Node15&#45;&gt;Node17 -->
<g id="edge18" class="edge"><title>Node15&#45;&gt;Node17</title>
<path fill="none" stroke="midnightblue" d="M505.123,-240.99C435.192,-232.383 327.444,-217.697 235,-199 229.901,-197.969 224.573,-196.761 219.318,-195.491"/>
<polygon fill="midnightblue" stroke="midnightblue" points="219.93,-192.036 209.379,-193.001 218.228,-198.826 219.93,-192.036"/>
</g>
<!-- Node18 -->
<g id="node18" class="node"><title>Node18</title>
<polygon fill="white" stroke="#bfbfbf" points="244,-174 244,-193 324,-193 324,-174 244,-174"/>
<text text-anchor="middle" x="284" y="-181" font-family="Helvetica,sans-Serif" font-size="10.00">Eigen/Sparse</text>
</g>
<!-- Node15&#45;&gt;Node18 -->
<g id="edge19" class="edge"><title>Node15&#45;&gt;Node18</title>
<path fill="none" stroke="midnightblue" d="M531.109,-240.921C481.335,-231.712 401.308,-216.085 333,-199 329.141,-198.035 325.13,-196.963 321.139,-195.851"/>
<polygon fill="midnightblue" stroke="midnightblue" points="321.935,-192.438 311.358,-193.044 320.004,-199.167 321.935,-192.438"/>
</g>
<!-- Node19 -->
<g id="node19" class="node"><title>Node19</title>
<polygon fill="white" stroke="#bfbfbf" points="342.5,-174 342.5,-193 405.5,-193 405.5,-174 342.5,-174"/>
<text text-anchor="middle" x="374" y="-181" font-family="Helvetica,sans-Serif" font-size="10.00">functional</text>
</g>
<!-- Node15&#45;&gt;Node19 -->
<g id="edge20" class="edge"><title>Node15&#45;&gt;Node19</title>
<path fill="none" stroke="midnightblue" d="M549.348,-240.918C516.209,-231.212 461.025,-214.708 414,-199 411.609,-198.201 409.145,-197.358 406.669,-196.496"/>
<polygon fill="midnightblue" stroke="midnightblue" points="407.791,-193.18 397.197,-193.134 405.45,-199.777 407.791,-193.18"/>
</g>
<!-- Node20 -->
<g id="node20" class="node"><title>Node20</title>
<polygon fill="white" stroke="#bfbfbf" points="423.5,-168.5 423.5,-198.5 568.5,-198.5 568.5,-168.5 423.5,-168.5"/>
<text text-anchor="start" x="431.5" y="-186.5" font-family="Helvetica,sans-Serif" font-size="10.00">unsupported/Eigen/Aligned</text>
<text text-anchor="middle" x="496" y="-175.5" font-family="Helvetica,sans-Serif" font-size="10.00">Vector3</text>
</g>
<!-- Node15&#45;&gt;Node20 -->
<g id="edge21" class="edge"><title>Node15&#45;&gt;Node20</title>
<path fill="none" stroke="midnightblue" d="M567.806,-240.734C556.158,-231.611 537.505,-217.004 522.13,-204.963"/>
<polygon fill="midnightblue" stroke="midnightblue" points="524.022,-201.999 513.991,-198.589 519.706,-207.51 524.022,-201.999"/>
</g>
<!-- Node21 -->
<g id="node21" class="node"><title>Node21</title>
<g id="a_node21"><a xlink:href="Math_8hpp.html" target="_top" xlink:title="Core/Math/Math.hpp">
<polygon fill="white" stroke="black" points="0,-174 0,-193 114,-193 114,-174 0,-174"/>
<text text-anchor="middle" x="57" y="-181" font-family="Helvetica,sans-Serif" font-size="10.00">Core/Math/Math.hpp</text>
</a>
</g>
</g>
<!-- Node15&#45;&gt;Node21 -->
<g id="edge22" class="edge"><title>Node15&#45;&gt;Node21</title>
<path fill="none" stroke="midnightblue" d="M500.794,-243.377C409.694,-235.658 254.837,-220.72 123,-199 116.311,-197.898 109.28,-196.555 102.401,-195.136"/>
<polygon fill="midnightblue" stroke="midnightblue" points="103,-191.685 92.4895,-193.021 101.539,-198.53 103,-191.685"/>
</g>
<!-- Node25 -->
<g id="node25" class="node"><title>Node25</title>
<g id="a_node25"><a xlink:href="LinearAlgebra_8inl.html" target="_top" xlink:title="Core/Math/LinearAlgebra.inl">
<polygon fill="white" stroke="black" points="586.5,-174 586.5,-193 735.5,-193 735.5,-174 586.5,-174"/>
<text text-anchor="middle" x="661" y="-181" font-family="Helvetica,sans-Serif" font-size="10.00">Core/Math/LinearAlgebra.inl</text>
</a>
</g>
</g>
<!-- Node15&#45;&gt;Node25 -->
<g id="edge28" class="edge"><title>Node15&#45;&gt;Node25</title>
<path fill="none" stroke="midnightblue" d="M590.059,-240.734C603.338,-230.208 625.829,-212.379 641.929,-199.617"/>
<polygon fill="midnightblue" stroke="midnightblue" points="644.454,-202.082 650.116,-193.127 640.106,-196.596 644.454,-202.082"/>
</g>
<!-- Node21&#45;&gt;Node7 -->
<g id="edge23" class="edge"><title>Node21&#45;&gt;Node7</title>
<path fill="none" stroke="midnightblue" d="M90.3774,-173.986C100.763,-171.656 112.297,-169.392 123,-168 318.833,-142.528 930.297,-128.155 1123.72,-124.159"/>
<polygon fill="midnightblue" stroke="midnightblue" points="1124.04,-127.654 1133.96,-123.949 1123.89,-120.655 1124.04,-127.654"/>
</g>
<!-- Node21&#45;&gt;Node22 -->
<g id="edge24" class="edge"><title>Node21&#45;&gt;Node22</title>
<path fill="none" stroke="midnightblue" d="M90.0305,-173.995C100.503,-171.635 112.174,-169.352 123,-168 616.315,-106.401 744.168,-149.677 1241,-132 1307.42,-129.637 1384.57,-126.565 1430.78,-124.69"/>
<polygon fill="midnightblue" stroke="midnightblue" points="1431.14,-128.178 1440.99,-124.275 1430.86,-121.184 1431.14,-128.178"/>
</g>
<!-- Node23 -->
<g id="node23" class="node"><title>Node23</title>
<polygon fill="white" stroke="#bfbfbf" points="128.5,-112.5 128.5,-131.5 175.5,-131.5 175.5,-112.5 128.5,-112.5"/>
<text text-anchor="middle" x="152" y="-119.5" font-family="Helvetica,sans-Serif" font-size="10.00">cmath</text>
</g>
<!-- Node21&#45;&gt;Node23 -->
<g id="edge25" class="edge"><title>Node21&#45;&gt;Node23</title>
<path fill="none" stroke="midnightblue" d="M70.6112,-173.975C86.0605,-164.299 111.49,-148.372 129.816,-136.894"/>
<polygon fill="midnightblue" stroke="midnightblue" points="131.797,-139.783 138.414,-131.509 128.081,-133.851 131.797,-139.783"/>
</g>
<!-- Node24 -->
<g id="node24" class="node"><title>Node24</title>
<g id="a_node24"><a xlink:href="Math_8inl.html" target="_top" xlink:title="Core/Math/Math.inl">
<polygon fill="white" stroke="black" points="3.5,-112.5 3.5,-131.5 110.5,-131.5 110.5,-112.5 3.5,-112.5"/>
<text text-anchor="middle" x="57" y="-119.5" font-family="Helvetica,sans-Serif" font-size="10.00">Core/Math/Math.inl</text>
</a>
</g>
</g>
<!-- Node21&#45;&gt;Node24 -->
<g id="edge26" class="edge"><title>Node21&#45;&gt;Node24</title>
<path fill="none" stroke="midnightblue" d="M52.0994,-173.975C50.2684,-165.58 49.797,-152.481 50.6851,-141.663"/>
<polygon fill="midnightblue" stroke="midnightblue" points="54.1864,-141.897 52.1029,-131.509 47.2536,-140.929 54.1864,-141.897"/>
</g>
<!-- Node24&#45;&gt;Node21 -->
<g id="edge27" class="edge"><title>Node24&#45;&gt;Node21</title>
<path fill="none" stroke="midnightblue" d="M61.8971,-131.509C63.7298,-139.898 64.203,-152.996 63.3165,-163.817"/>
<polygon fill="midnightblue" stroke="midnightblue" points="59.8147,-163.588 61.9006,-173.975 66.7476,-164.554 59.8147,-163.588"/>
</g>
<!-- Node26&#45;&gt;Node3 -->
<g id="edge35" class="edge"><title>Node26&#45;&gt;Node3</title>
<path fill="none" stroke="midnightblue" d="M1203.85,-240.869C1230.94,-229.65 1278.46,-209.977 1309.58,-197.092"/>
<polygon fill="midnightblue" stroke="midnightblue" points="1311.16,-200.226 1319.07,-193.167 1308.49,-193.759 1311.16,-200.226"/>
</g>
<!-- Node26&#45;&gt;Node7 -->
<g id="edge34" class="edge"><title>Node26&#45;&gt;Node7</title>
<path fill="none" stroke="midnightblue" d="M1183,-240.805C1183,-220.494 1183,-169.553 1183,-141.777"/>
<polygon fill="midnightblue" stroke="midnightblue" points="1186.5,-141.756 1183,-131.756 1179.5,-141.756 1186.5,-141.756"/>
</g>
<!-- Node27&#45;&gt;Node3 -->
<g id="edge41" class="edge"><title>Node27&#45;&gt;Node3</title>
<path fill="none" stroke="midnightblue" d="M1528.37,-305.502C1474.9,-298.757 1395.17,-285.73 1372,-266 1353.32,-250.093 1345.47,-221.844 1342.23,-203.141"/>
<polygon fill="midnightblue" stroke="midnightblue" points="1345.68,-202.552 1340.77,-193.161 1338.75,-203.562 1345.68,-202.552"/>
</g>
<!-- Node27&#45;&gt;Node7 -->
<g id="edge38" class="edge"><title>Node27&#45;&gt;Node7</title>
<path fill="none" stroke="midnightblue" d="M1575.79,-302.442C1569.7,-287.187 1555.17,-255.021 1534,-235 1452.84,-158.227 1319.04,-134.079 1242.21,-126.484"/>
<polygon fill="midnightblue" stroke="midnightblue" points="1242.49,-122.996 1232.21,-125.558 1241.85,-129.966 1242.49,-122.996"/>
</g>
<!-- Node27&#45;&gt;Node12 -->
<g id="edge39" class="edge"><title>Node27&#45;&gt;Node12</title>
<path fill="none" stroke="midnightblue" d="M1629.71,-303.993C1654.82,-297.966 1683.61,-286.772 1702,-266 1726.65,-238.15 1721,-221.694 1721,-184.5 1721,-184.5 1721,-184.5 1721,-121 1721,-60.9202 1643.97,-31.4601 1595.82,-18.9132"/>
<polygon fill="midnightblue" stroke="midnightblue" points="1596.57,-15.4931 1586.02,-16.4876 1594.89,-22.288 1596.57,-15.4931"/>
</g>
<!-- Node28 -->
<g id="node28" class="node"><title>Node28</title>
<polygon fill="white" stroke="#bfbfbf" points="1581.5,-241 1581.5,-260 1630.5,-260 1630.5,-241 1581.5,-241"/>
<text text-anchor="middle" x="1606" y="-248" font-family="Helvetica,sans-Serif" font-size="10.00">stdio.h</text>
</g>
<!-- Node27&#45;&gt;Node28 -->
<g id="edge40" class="edge"><title>Node27&#45;&gt;Node28</title>
<path fill="none" stroke="midnightblue" d="M1582.87,-302.475C1586.8,-293.815 1593,-280.149 1597.99,-269.145"/>
<polygon fill="midnightblue" stroke="midnightblue" points="1601.19,-270.562 1602.14,-260.009 1594.82,-267.669 1601.19,-270.562"/>
</g>
<!-- Node29 -->
<g id="node29" class="node"><title>Node29</title>
<g id="a_node29"><a xlink:href="StringUtils_8hpp.html" target="_top" xlink:title="Core/String/StringUtils.hpp">
<polygon fill="white" stroke="black" points="1381,-241 1381,-260 1525,-260 1525,-241 1381,-241"/>
<text text-anchor="middle" x="1453" y="-248" font-family="Helvetica,sans-Serif" font-size="10.00">Core/String/StringUtils.hpp</text>
</a>
</g>
</g>
<!-- Node27&#45;&gt;Node29 -->
<g id="edge42" class="edge"><title>Node27&#45;&gt;Node29</title>
<path fill="none" stroke="midnightblue" d="M1560.95,-302.475C1539.8,-292.49 1504.56,-275.848 1480.12,-264.307"/>
<polygon fill="midnightblue" stroke="midnightblue" points="1481.56,-261.114 1471.02,-260.009 1478.57,-267.444 1481.56,-261.114"/>
</g>
<!-- Node30 -->
<g id="node30" class="node"><title>Node30</title>
<polygon fill="white" stroke="#bfbfbf" points="1649,-241 1649,-260 1693,-260 1693,-241 1649,-241"/>
<text text-anchor="middle" x="1671" y="-248" font-family="Helvetica,sans-Serif" font-size="10.00">ctime</text>
</g>
<!-- Node27&#45;&gt;Node30 -->
<g id="edge46" class="edge"><title>Node27&#45;&gt;Node30</title>
<path fill="none" stroke="midnightblue" d="M1592.18,-302.475C1607.07,-292.843 1631.54,-277.017 1649.27,-265.552"/>
<polygon fill="midnightblue" stroke="midnightblue" points="1651.35,-268.379 1657.84,-260.009 1647.55,-262.501 1651.35,-268.379"/>
</g>
<!-- Node29&#45;&gt;Node3 -->
<g id="edge44" class="edge"><title>Node29&#45;&gt;Node3</title>
<path fill="none" stroke="midnightblue" d="M1437.76,-240.734C1418.78,-229.818 1386.15,-211.049 1363.85,-198.221"/>
<polygon fill="midnightblue" stroke="midnightblue" points="1365.41,-195.08 1355,-193.127 1361.92,-201.147 1365.41,-195.08"/>
</g>
<!-- Node29&#45;&gt;Node4 -->
<g id="edge45" class="edge"><title>Node29&#45;&gt;Node4</title>
<path fill="none" stroke="midnightblue" d="M1405.04,-240.936C1330.25,-227.58 1187.68,-202.122 1122.74,-190.525"/>
<polygon fill="midnightblue" stroke="midnightblue" points="1123.1,-187.034 1112.64,-188.721 1121.87,-193.925 1123.1,-187.034"/>
</g>
<!-- Node29&#45;&gt;Node7 -->
<g id="edge43" class="edge"><title>Node29&#45;&gt;Node7</title>
<path fill="none" stroke="midnightblue" d="M1446.89,-240.811C1434.56,-223.989 1405.01,-186.963 1371,-168 1331.31,-145.87 1281.01,-134.561 1242.43,-128.817"/>
<polygon fill="midnightblue" stroke="midnightblue" points="1242.78,-125.331 1232.39,-127.407 1241.8,-132.263 1242.78,-125.331"/>
</g>
</g>
</svg>
