<?xml version="1.0" encoding="UTF-8" standalone="no"?>
<!DOCTYPE svg PUBLIC "-//W3C//DTD SVG 1.1//EN"
 "http://www.w3.org/Graphics/SVG/1.1/DTD/svg11.dtd">
<!-- Generated by graphviz version 2.38.0 (20140413.2041)
 -->
<!-- Title: /home/travis/build/STORM&#45;IRIT/Radium&#45;Engine/src/Engine/Renderer/Mesh/Mesh.inl Pages: 1 -->
<svg width="2083pt" height="587pt"
 viewBox="0.00 0.00 2082.61 587.00" xmlns="http://www.w3.org/2000/svg" xmlns:xlink="http://www.w3.org/1999/xlink">
<g id="graph0" class="graph" transform="scale(1 1) rotate(0) translate(4 583)">
<title>/home/travis/build/STORM&#45;IRIT/Radium&#45;Engine/src/Engine/Renderer/Mesh/Mesh.inl</title>
<polygon fill="white" stroke="none" points="-4,4 -4,-583 2078.61,-583 2078.61,4 -4,4"/>
<!-- Node1 -->
<g id="node1" class="node"><title>Node1</title>
<polygon fill="#bfbfbf" stroke="black" points="539,-526.5 539,-578.5 687,-578.5 687,-526.5 539,-526.5"/>
<text text-anchor="start" x="547" y="-566.5" font-family="Helvetica,sans-Serif" font-size="10.00">/home/travis/build</text>
<text text-anchor="start" x="547" y="-555.5" font-family="Helvetica,sans-Serif" font-size="10.00">/STORM&#45;IRIT/Radium&#45;Engine</text>
<text text-anchor="start" x="547" y="-544.5" font-family="Helvetica,sans-Serif" font-size="10.00">/src/Engine/Renderer/Mesh</text>
<text text-anchor="middle" x="613" y="-533.5" font-family="Helvetica,sans-Serif" font-size="10.00">/Mesh.inl</text>
</g>
<!-- Node2 -->
<g id="node2" class="node"><title>Node2</title>
<g id="a_node2"><a xlink:href="Mesh_8hpp.html" target="_top" xlink:title="Mesh.hpp">
<polygon fill="white" stroke="black" points="581.5,-470.5 581.5,-489.5 644.5,-489.5 644.5,-470.5 581.5,-470.5"/>
<text text-anchor="middle" x="613" y="-477.5" font-family="Helvetica,sans-Serif" font-size="10.00">Mesh.hpp</text>
</a>
</g>
</g>
<!-- Node1&#45;&gt;Node2 -->
<g id="edge1" class="edge"><title>Node1&#45;&gt;Node2</title>
<path fill="none" stroke="midnightblue" d="M606.507,-526.446C606.05,-517.63 606.202,-507.883 606.962,-499.684"/>
<polygon fill="midnightblue" stroke="midnightblue" points="610.439,-500.087 608.375,-489.695 603.508,-499.106 610.439,-500.087"/>
</g>
<!-- Node2&#45;&gt;Node1 -->
<g id="edge67" class="edge"><title>Node2&#45;&gt;Node1</title>
<path fill="none" stroke="midnightblue" d="M617.625,-489.695C619.042,-496.475 619.751,-506.371 619.75,-516.266"/>
<polygon fill="midnightblue" stroke="midnightblue" points="616.247,-516.36 619.493,-526.446 623.244,-516.538 616.247,-516.36"/>
</g>
<!-- Node3 -->
<g id="node3" class="node"><title>Node3</title>
<g id="a_node3"><a xlink:href="RaEngine_8hpp.html" target="_top" xlink:title="Engine/RaEngine.hpp">
<polygon fill="white" stroke="black" points="1678.5,-358.5 1678.5,-377.5 1795.5,-377.5 1795.5,-358.5 1678.5,-358.5"/>
<text text-anchor="middle" x="1737" y="-365.5" font-family="Helvetica,sans-Serif" font-size="10.00">Engine/RaEngine.hpp</text>
</a>
</g>
</g>
<!-- Node2&#45;&gt;Node3 -->
<g id="edge2" class="edge"><title>Node2&#45;&gt;Node3</title>
<path fill="none" stroke="midnightblue" d="M644.624,-476.62C727.266,-470.338 956.474,-452.52 1147,-434 1335.98,-415.631 1558.55,-390.033 1668.47,-377.127"/>
<polygon fill="midnightblue" stroke="midnightblue" points="1668.91,-380.6 1678.43,-375.956 1668.09,-373.648 1668.91,-380.6"/>
</g>
<!-- Node10 -->
<g id="node10" class="node"><title>Node10</title>
<polygon fill="white" stroke="#bfbfbf" points="511.5,-414.5 511.5,-433.5 552.5,-433.5 552.5,-414.5 511.5,-414.5"/>
<text text-anchor="middle" x="532" y="-421.5" font-family="Helvetica,sans-Serif" font-size="10.00">array</text>
</g>
<!-- Node2&#45;&gt;Node10 -->
<g id="edge9" class="edge"><title>Node2&#45;&gt;Node10</title>
<path fill="none" stroke="midnightblue" d="M599.986,-470.324C587.468,-461.979 568.318,-449.212 553.529,-439.352"/>
<polygon fill="midnightblue" stroke="midnightblue" points="555.244,-436.289 544.982,-433.655 551.361,-442.114 555.244,-436.289"/>
</g>
<!-- Node11 -->
<g id="node11" class="node"><title>Node11</title>
<polygon fill="white" stroke="#bfbfbf" points="571,-414.5 571,-433.5 609,-433.5 609,-414.5 571,-414.5"/>
<text text-anchor="middle" x="590" y="-421.5" font-family="Helvetica,sans-Serif" font-size="10.00">map</text>
</g>
<!-- Node2&#45;&gt;Node11 -->
<g id="edge10" class="edge"><title>Node2&#45;&gt;Node11</title>
<path fill="none" stroke="midnightblue" d="M609.202,-470.083C606.087,-462.77 601.577,-452.181 597.711,-443.103"/>
<polygon fill="midnightblue" stroke="midnightblue" points="600.866,-441.58 593.727,-433.751 594.426,-444.323 600.866,-441.58"/>
</g>
<!-- Node12 -->
<g id="node12" class="node"><title>Node12</title>
<polygon fill="white" stroke="#bfbfbf" points="401.5,-174 401.5,-193 448.5,-193 448.5,-174 401.5,-174"/>
<text text-anchor="middle" x="425" y="-181" font-family="Helvetica,sans-Serif" font-size="10.00">vector</text>
</g>
<!-- Node2&#45;&gt;Node12 -->
<g id="edge11" class="edge"><title>Node2&#45;&gt;Node12</title>
<path fill="none" stroke="midnightblue" d="M581.11,-476.514C523.045,-470.062 406,-447.341 406,-369 406,-369 406,-369 406,-311 406,-272.273 414.816,-227.609 420.438,-203.066"/>
<polygon fill="midnightblue" stroke="midnightblue" points="423.917,-203.561 422.82,-193.023 417.106,-201.945 423.917,-203.561"/>
</g>
<!-- Node13 -->
<g id="node13" class="node"><title>Node13</title>
<g id="a_node13"><a xlink:href="VectorArray_8hpp.html" target="_top" xlink:title="Core/Containers/VectorArray.hpp">
<polygon fill="white" stroke="black" points="550.5,-302.5 550.5,-321.5 723.5,-321.5 723.5,-302.5 550.5,-302.5"/>
<text text-anchor="middle" x="637" y="-309.5" font-family="Helvetica,sans-Serif" font-size="10.00">Core/Containers/VectorArray.hpp</text>
</a>
</g>
</g>
<!-- Node2&#45;&gt;Node13 -->
<g id="edge12" class="edge"><title>Node2&#45;&gt;Node13</title>
<path fill="none" stroke="midnightblue" d="M614.29,-470.075C618.068,-443.945 629.162,-367.211 634.314,-331.577"/>
<polygon fill="midnightblue" stroke="midnightblue" points="637.794,-331.966 635.761,-321.568 630.866,-330.964 637.794,-331.966"/>
</g>
<!-- Node28 -->
<g id="node28" class="node"><title>Node28</title>
<g id="a_node28"><a xlink:href="TriangleMesh_8hpp.html" target="_top" xlink:title="Core/Mesh/TriangleMesh.hpp">
<polygon fill="white" stroke="black" points="985.5,-414.5 985.5,-433.5 1138.5,-433.5 1138.5,-414.5 985.5,-414.5"/>
<text text-anchor="middle" x="1062" y="-421.5" font-family="Helvetica,sans-Serif" font-size="10.00">Core/Mesh/TriangleMesh.hpp</text>
</a>
</g>
</g>
<!-- Node2&#45;&gt;Node28 -->
<g id="edge34" class="edge"><title>Node2&#45;&gt;Node28</title>
<path fill="none" stroke="midnightblue" d="M644.573,-475.203C713.758,-466.882 880.563,-446.821 981.116,-434.728"/>
<polygon fill="midnightblue" stroke="midnightblue" points="981.724,-438.18 991.235,-433.511 980.888,-431.23 981.724,-438.18"/>
</g>
<!-- Node4 -->
<g id="node4" class="node"><title>Node4</title>
<g id="a_node4"><a xlink:href="CoreMacros_8hpp.html" target="_top" xlink:title="Core/CoreMacros.hpp">
<polygon fill="white" stroke="black" points="607,-56.5 607,-75.5 727,-75.5 727,-56.5 607,-56.5"/>
<text text-anchor="middle" x="667" y="-63.5" font-family="Helvetica,sans-Serif" font-size="10.00">Core/CoreMacros.hpp</text>
</a>
</g>
</g>
<!-- Node3&#45;&gt;Node4 -->
<g id="edge3" class="edge"><title>Node3&#45;&gt;Node4</title>
<path fill="none" stroke="midnightblue" d="M1795.53,-359.155C1891.79,-344.593 2073,-309.483 2073,-251.5 2073,-251.5 2073,-251.5 2073,-182.5 2073,-150.049 2079.44,-132.152 2054,-112 2002,-70.8028 1012.43,-67.1853 737.391,-66.9777"/>
<polygon fill="midnightblue" stroke="midnightblue" points="737.142,-63.4777 727.139,-66.9713 737.137,-70.4777 737.142,-63.4777"/>
</g>
<!-- Node5 -->
<g id="node5" class="node"><title>Node5</title>
<polygon fill="white" stroke="#bfbfbf" points="745,-0.5 745,-19.5 797,-19.5 797,-0.5 745,-0.5"/>
<text text-anchor="middle" x="771" y="-7.5" font-family="Helvetica,sans-Serif" font-size="10.00">cassert</text>
</g>
<!-- Node4&#45;&gt;Node5 -->
<g id="edge4" class="edge"><title>Node4&#45;&gt;Node5</title>
<path fill="none" stroke="midnightblue" d="M683.709,-56.324C700.312,-47.7034 726.002,-34.3643 745.22,-24.3855"/>
<polygon fill="midnightblue" stroke="midnightblue" points="747.07,-27.3689 754.332,-19.6545 743.844,-21.1565 747.07,-27.3689"/>
</g>
<!-- Node6 -->
<g id="node6" class="node"><title>Node6</title>
<polygon fill="white" stroke="#bfbfbf" points="538.5,-0.5 538.5,-19.5 583.5,-19.5 583.5,-0.5 538.5,-0.5"/>
<text text-anchor="middle" x="561" y="-7.5" font-family="Helvetica,sans-Serif" font-size="10.00">cstdio</text>
</g>
<!-- Node4&#45;&gt;Node6 -->
<g id="edge5" class="edge"><title>Node4&#45;&gt;Node6</title>
<path fill="none" stroke="midnightblue" d="M649.969,-56.324C632.97,-47.6641 606.624,-34.2424 587.007,-24.249"/>
<polygon fill="midnightblue" stroke="midnightblue" points="588.488,-21.0752 577.988,-19.6545 585.31,-27.3125 588.488,-21.0752"/>
</g>
<!-- Node7 -->
<g id="node7" class="node"><title>Node7</title>
<polygon fill="white" stroke="#bfbfbf" points="601.5,-0.5 601.5,-19.5 660.5,-19.5 660.5,-0.5 601.5,-0.5"/>
<text text-anchor="middle" x="631" y="-7.5" font-family="Helvetica,sans-Serif" font-size="10.00">iostream</text>
</g>
<!-- Node4&#45;&gt;Node7 -->
<g id="edge6" class="edge"><title>Node4&#45;&gt;Node7</title>
<path fill="none" stroke="midnightblue" d="M661.055,-56.083C656.023,-48.5341 648.663,-37.4948 642.487,-28.2298"/>
<polygon fill="midnightblue" stroke="midnightblue" points="645.293,-26.1301 636.834,-19.7511 639.469,-30.0131 645.293,-26.1301"/>
</g>
<!-- Node8 -->
<g id="node8" class="node"><title>Node8</title>
<polygon fill="white" stroke="#bfbfbf" points="218,-0.5 218,-19.5 274,-19.5 274,-0.5 218,-0.5"/>
<text text-anchor="middle" x="246" y="-7.5" font-family="Helvetica,sans-Serif" font-size="10.00">sstream</text>
</g>
<!-- Node4&#45;&gt;Node8 -->
<g id="edge7" class="edge"><title>Node4&#45;&gt;Node8</title>
<path fill="none" stroke="midnightblue" d="M606.681,-57.2631C518.698,-45.9779 357.678,-25.3245 284.282,-15.9102"/>
<polygon fill="midnightblue" stroke="midnightblue" points="284.472,-12.406 274.108,-14.6052 283.581,-19.3491 284.472,-12.406"/>
</g>
<!-- Node9 -->
<g id="node9" class="node"><title>Node9</title>
<polygon fill="white" stroke="#bfbfbf" points="679,-0.5 679,-19.5 727,-19.5 727,-0.5 679,-0.5"/>
<text text-anchor="middle" x="703" y="-7.5" font-family="Helvetica,sans-Serif" font-size="10.00">thread</text>
</g>
<!-- Node4&#45;&gt;Node9 -->
<g id="edge8" class="edge"><title>Node4&#45;&gt;Node9</title>
<path fill="none" stroke="midnightblue" d="M672.945,-56.083C677.977,-48.5341 685.337,-37.4948 691.513,-28.2298"/>
<polygon fill="midnightblue" stroke="midnightblue" points="694.531,-30.0131 697.166,-19.7511 688.707,-26.1301 694.531,-30.0131"/>
</g>
<!-- Node13&#45;&gt;Node12 -->
<g id="edge33" class="edge"><title>Node13&#45;&gt;Node12</title>
<path fill="none" stroke="midnightblue" d="M552.104,-302.408C523.038,-296.036 491.865,-285.015 468,-266 447.709,-249.833 435.87,-221.443 429.918,-202.804"/>
<polygon fill="midnightblue" stroke="midnightblue" points="433.25,-201.731 427.074,-193.122 426.534,-203.704 433.25,-201.731"/>
</g>
<!-- Node14 -->
<g id="node14" class="node"><title>Node14</title>
<g id="a_node14"><a xlink:href="AlignedStdVector_8hpp.html" target="_top" xlink:title="Core/Containers/AlignedStd\lVector.hpp">
<polygon fill="white" stroke="black" points="509.5,-235.5 509.5,-265.5 658.5,-265.5 658.5,-235.5 509.5,-235.5"/>
<text text-anchor="start" x="517.5" y="-253.5" font-family="Helvetica,sans-Serif" font-size="10.00">Core/Containers/AlignedStd</text>
<text text-anchor="middle" x="584" y="-242.5" font-family="Helvetica,sans-Serif" font-size="10.00">Vector.hpp</text>
</a>
</g>
</g>
<!-- Node13&#45;&gt;Node14 -->
<g id="edge13" class="edge"><title>Node13&#45;&gt;Node14</title>
<path fill="none" stroke="midnightblue" d="M629.406,-302.475C622.631,-294.869 612.414,-283.399 603.387,-273.265"/>
<polygon fill="midnightblue" stroke="midnightblue" points="605.756,-270.662 596.491,-265.523 600.529,-275.318 605.756,-270.662"/>
</g>
<!-- Node15 -->
<g id="node15" class="node"><title>Node15</title>
<g id="a_node15"><a xlink:href="RaCore_8hpp.html" target="_top" xlink:title="Core/RaCore.hpp">
<polygon fill="white" stroke="black" points="618,-112.5 618,-131.5 716,-131.5 716,-112.5 618,-112.5"/>
<text text-anchor="middle" x="667" y="-119.5" font-family="Helvetica,sans-Serif" font-size="10.00">Core/RaCore.hpp</text>
</a>
</g>
</g>
<!-- Node13&#45;&gt;Node15 -->
<g id="edge32" class="edge"><title>Node13&#45;&gt;Node15</title>
<path fill="none" stroke="midnightblue" d="M557.712,-302.437C535.469,-295.953 513.655,-284.858 500,-266 491.919,-254.841 498.293,-248.672 500,-235 503.807,-204.515 495.748,-190.185 517,-168 540.403,-143.569 576.494,-132.257 607.41,-127.082"/>
<polygon fill="midnightblue" stroke="midnightblue" points="608.296,-130.488 617.67,-125.552 607.264,-123.565 608.296,-130.488"/>
</g>
<!-- Node17 -->
<g id="node17" class="node"><title>Node17</title>
<g id="a_node17"><a xlink:href="LinearAlgebra_8hpp.html" target="_top" xlink:title="Core/Math/LinearAlgebra.hpp">
<polygon fill="white" stroke="black" points="1241,-241 1241,-260 1397,-260 1397,-241 1241,-241"/>
<text text-anchor="middle" x="1319" y="-248" font-family="Helvetica,sans-Serif" font-size="10.00">Core/Math/LinearAlgebra.hpp</text>
</a>
</g>
</g>
<!-- Node13&#45;&gt;Node17 -->
<g id="edge18" class="edge"><title>Node13&#45;&gt;Node17</title>
<path fill="none" stroke="midnightblue" d="M723.614,-303.889C828.403,-295.227 1010.17,-280.012 1166,-266 1186.99,-264.113 1209.59,-262.009 1230.82,-260.003"/>
<polygon fill="midnightblue" stroke="midnightblue" points="1231.16,-263.487 1240.79,-259.059 1230.5,-256.518 1231.16,-263.487"/>
</g>
<!-- Node14&#45;&gt;Node12 -->
<g id="edge17" class="edge"><title>Node14&#45;&gt;Node12</title>
<path fill="none" stroke="midnightblue" d="M549.499,-235.396C521.354,-223.89 481.989,-207.797 455.105,-196.807"/>
<polygon fill="midnightblue" stroke="midnightblue" points="456.39,-193.551 445.809,-193.007 453.741,-200.031 456.39,-193.551"/>
</g>
<!-- Node14&#45;&gt;Node15 -->
<g id="edge14" class="edge"><title>Node14&#45;&gt;Node15</title>
<path fill="none" stroke="midnightblue" d="M598.093,-235.245C607.267,-225.527 619.13,-212.093 628,-199 640.691,-180.266 652.108,-156.866 659.261,-141.017"/>
<polygon fill="midnightblue" stroke="midnightblue" points="662.486,-142.379 663.317,-131.817 656.08,-139.556 662.486,-142.379"/>
</g>
<!-- Node16 -->
<g id="node16" class="node"><title>Node16</title>
<polygon fill="white" stroke="#bfbfbf" points="526.5,-174 526.5,-193 619.5,-193 619.5,-174 526.5,-174"/>
<text text-anchor="middle" x="573" y="-181" font-family="Helvetica,sans-Serif" font-size="10.00">Eigen/StdVector</text>
</g>
<!-- Node14&#45;&gt;Node16 -->
<g id="edge16" class="edge"><title>Node14&#45;&gt;Node16</title>
<path fill="none" stroke="midnightblue" d="M581.613,-235.396C580.017,-225.963 577.899,-213.448 576.163,-203.189"/>
<polygon fill="midnightblue" stroke="midnightblue" points="579.591,-202.47 574.471,-193.195 572.689,-203.638 579.591,-202.47"/>
</g>
<!-- Node15&#45;&gt;Node4 -->
<g id="edge15" class="edge"><title>Node15&#45;&gt;Node4</title>
<path fill="none" stroke="midnightblue" d="M667,-112.083C667,-105.006 667,-94.8611 667,-85.9865"/>
<polygon fill="midnightblue" stroke="midnightblue" points="670.5,-85.751 667,-75.7511 663.5,-85.7511 670.5,-85.751"/>
</g>
<!-- Node17&#45;&gt;Node15 -->
<g id="edge19" class="edge"><title>Node17&#45;&gt;Node15</title>
<path fill="none" stroke="midnightblue" d="M1286.9,-240.919C1257.39,-232.38 1212.91,-217.842 1177,-199 1156.14,-188.055 1156.05,-176.307 1134,-168 1060.81,-140.421 834.598,-128.895 726.156,-124.858"/>
<polygon fill="midnightblue" stroke="midnightblue" points="726.159,-121.356 716.039,-124.491 725.905,-128.351 726.159,-121.356"/>
</g>
<!-- Node18 -->
<g id="node18" class="node"><title>Node18</title>
<polygon fill="white" stroke="#bfbfbf" points="1186,-174 1186,-193 1254,-193 1254,-174 1186,-174"/>
<text text-anchor="middle" x="1220" y="-181" font-family="Helvetica,sans-Serif" font-size="10.00">Eigen/Core</text>
</g>
<!-- Node17&#45;&gt;Node18 -->
<g id="edge20" class="edge"><title>Node17&#45;&gt;Node18</title>
<path fill="none" stroke="midnightblue" d="M1305.65,-240.734C1289.25,-229.964 1261.2,-211.55 1241.69,-198.739"/>
<polygon fill="midnightblue" stroke="midnightblue" points="1243.42,-195.69 1233.14,-193.127 1239.58,-201.542 1243.42,-195.69"/>
</g>
<!-- Node19 -->
<g id="node19" class="node"><title>Node19</title>
<polygon fill="white" stroke="#bfbfbf" points="1272,-174 1272,-193 1366,-193 1366,-174 1272,-174"/>
<text text-anchor="middle" x="1319" y="-181" font-family="Helvetica,sans-Serif" font-size="10.00">Eigen/Geometry</text>
</g>
<!-- Node17&#45;&gt;Node19 -->
<g id="edge21" class="edge"><title>Node17&#45;&gt;Node19</title>
<path fill="none" stroke="midnightblue" d="M1319,-240.734C1319,-231.183 1319,-215.618 1319,-203.283"/>
<polygon fill="midnightblue" stroke="midnightblue" points="1322.5,-203.127 1319,-193.127 1315.5,-203.127 1322.5,-203.127"/>
</g>
<!-- Node20 -->
<g id="node20" class="node"><title>Node20</title>
<polygon fill="white" stroke="#bfbfbf" points="1384,-174 1384,-193 1464,-193 1464,-174 1384,-174"/>
<text text-anchor="middle" x="1424" y="-181" font-family="Helvetica,sans-Serif" font-size="10.00">Eigen/Sparse</text>
</g>
<!-- Node17&#45;&gt;Node20 -->
<g id="edge22" class="edge"><title>Node17&#45;&gt;Node20</title>
<path fill="none" stroke="midnightblue" d="M1333.16,-240.734C1350.71,-229.867 1380.84,-211.216 1401.56,-198.393"/>
<polygon fill="midnightblue" stroke="midnightblue" points="1403.4,-201.367 1410.06,-193.127 1399.72,-195.415 1403.4,-201.367"/>
</g>
<!-- Node21 -->
<g id="node21" class="node"><title>Node21</title>
<polygon fill="white" stroke="#bfbfbf" points="1482.5,-174 1482.5,-193 1545.5,-193 1545.5,-174 1482.5,-174"/>
<text text-anchor="middle" x="1514" y="-181" font-family="Helvetica,sans-Serif" font-size="10.00">functional</text>
</g>
<!-- Node17&#45;&gt;Node21 -->
<g id="edge23" class="edge"><title>Node17&#45;&gt;Node21</title>
<path fill="none" stroke="midnightblue" d="M1345.77,-240.928C1376.54,-231.028 1428.52,-214.155 1473,-199 1475.44,-198.169 1477.96,-197.302 1480.49,-196.423"/>
<polygon fill="midnightblue" stroke="midnightblue" points="1481.9,-199.636 1490.18,-193.027 1479.59,-193.029 1481.9,-199.636"/>
</g>
<!-- Node22 -->
<g id="node22" class="node"><title>Node22</title>
<polygon fill="white" stroke="#bfbfbf" points="1563.5,-168.5 1563.5,-198.5 1708.5,-198.5 1708.5,-168.5 1563.5,-168.5"/>
<text text-anchor="start" x="1571.5" y="-186.5" font-family="Helvetica,sans-Serif" font-size="10.00">unsupported/Eigen/Aligned</text>
<text text-anchor="middle" x="1636" y="-175.5" font-family="Helvetica,sans-Serif" font-size="10.00">Vector3</text>
</g>
<!-- Node17&#45;&gt;Node22 -->
<g id="edge24" class="edge"><title>Node17&#45;&gt;Node22</title>
<path fill="none" stroke="midnightblue" d="M1360.77,-240.936C1410.62,-230.714 1495.03,-213.406 1557.26,-200.646"/>
<polygon fill="midnightblue" stroke="midnightblue" points="1558.34,-203.997 1567.43,-198.559 1556.94,-197.139 1558.34,-203.997"/>
</g>
<!-- Node23 -->
<g id="node23" class="node"><title>Node23</title>
<g id="a_node23"><a xlink:href="Math_8hpp.html" target="_top" xlink:title="Core/Math/Math.hpp">
<polygon fill="white" stroke="black" points="1931,-174 1931,-193 2045,-193 2045,-174 1931,-174"/>
<text text-anchor="middle" x="1988" y="-181" font-family="Helvetica,sans-Serif" font-size="10.00">Core/Math/Math.hpp</text>
</a>
</g>
</g>
<!-- Node17&#45;&gt;Node23 -->
<g id="edge25" class="edge"><title>Node17&#45;&gt;Node23</title>
<path fill="none" stroke="midnightblue" d="M1397.27,-243.733C1506.44,-235.408 1710.57,-218.828 1884,-199 1895.89,-197.641 1908.51,-196.026 1920.72,-194.375"/>
<polygon fill="midnightblue" stroke="midnightblue" points="1921.42,-197.813 1930.85,-192.985 1920.46,-190.878 1921.42,-197.813"/>
</g>
<!-- Node27 -->
<g id="node27" class="node"><title>Node27</title>
<g id="a_node27"><a xlink:href="LinearAlgebra_8inl.html" target="_top" xlink:title="Core/Math/LinearAlgebra.inl">
<polygon fill="white" stroke="black" points="1726.5,-174 1726.5,-193 1875.5,-193 1875.5,-174 1726.5,-174"/>
<text text-anchor="middle" x="1801" y="-181" font-family="Helvetica,sans-Serif" font-size="10.00">Core/Math/LinearAlgebra.inl</text>
</a>
</g>
</g>
<!-- Node17&#45;&gt;Node27 -->
<g id="edge31" class="edge"><title>Node17&#45;&gt;Node27</title>
<path fill="none" stroke="midnightblue" d="M1394.33,-240.959C1474.47,-231.635 1604.89,-215.78 1717,-199 1725.72,-197.695 1734.93,-196.212 1743.93,-194.704"/>
<polygon fill="midnightblue" stroke="midnightblue" points="1744.69,-198.125 1753.97,-193 1743.52,-191.224 1744.69,-198.125"/>
</g>
<!-- Node23&#45;&gt;Node15 -->
<g id="edge26" class="edge"><title>Node23&#45;&gt;Node15</title>
<path fill="none" stroke="midnightblue" d="M1934.41,-173.968C1918.25,-171.681 1900.43,-169.446 1884,-168 1440.28,-128.966 902.656,-123.702 726.204,-123.062"/>
<polygon fill="midnightblue" stroke="midnightblue" points="726.104,-119.561 716.092,-123.029 726.081,-126.561 726.104,-119.561"/>
</g>
<!-- Node24 -->
<g id="node24" class="node"><title>Node24</title>
<polygon fill="white" stroke="#bfbfbf" points="1792,-112.5 1792,-131.5 1854,-131.5 1854,-112.5 1792,-112.5"/>
<text text-anchor="middle" x="1823" y="-119.5" font-family="Helvetica,sans-Serif" font-size="10.00">algorithm</text>
</g>
<!-- Node23&#45;&gt;Node24 -->
<g id="edge27" class="edge"><title>Node23&#45;&gt;Node24</title>
<path fill="none" stroke="midnightblue" d="M1964.36,-173.975C1936.06,-163.769 1888.47,-146.608 1856.41,-135.049"/>
<polygon fill="midnightblue" stroke="midnightblue" points="1857.19,-131.609 1846.6,-131.509 1854.82,-138.194 1857.19,-131.609"/>
</g>
<!-- Node25 -->
<g id="node25" class="node"><title>Node25</title>
<polygon fill="white" stroke="#bfbfbf" points="1872.5,-112.5 1872.5,-131.5 1919.5,-131.5 1919.5,-112.5 1872.5,-112.5"/>
<text text-anchor="middle" x="1896" y="-119.5" font-family="Helvetica,sans-Serif" font-size="10.00">cmath</text>
</g>
<!-- Node23&#45;&gt;Node25 -->
<g id="edge28" class="edge"><title>Node23&#45;&gt;Node25</title>
<path fill="none" stroke="midnightblue" d="M1974.82,-173.975C1959.93,-164.343 1935.46,-148.517 1917.73,-137.052"/>
<polygon fill="midnightblue" stroke="midnightblue" points="1919.45,-134.001 1909.16,-131.509 1915.65,-139.879 1919.45,-134.001"/>
</g>
<!-- Node26 -->
<g id="node26" class="node"><title>Node26</title>
<g id="a_node26"><a xlink:href="Math_8inl.html" target="_top" xlink:title="Core/Math/Math.inl">
<polygon fill="white" stroke="black" points="1937.5,-112.5 1937.5,-131.5 2044.5,-131.5 2044.5,-112.5 1937.5,-112.5"/>
<text text-anchor="middle" x="1991" y="-119.5" font-family="Helvetica,sans-Serif" font-size="10.00">Core/Math/Math.inl</text>
</a>
</g>
</g>
<!-- Node23&#45;&gt;Node26 -->
<g id="edge29" class="edge"><title>Node23&#45;&gt;Node26</title>
<path fill="none" stroke="midnightblue" d="M1983.53,-173.975C1982.12,-165.58 1982.31,-152.481 1983.74,-141.663"/>
<polygon fill="midnightblue" stroke="midnightblue" points="1987.25,-141.987 1985.67,-131.509 1980.37,-140.68 1987.25,-141.987"/>
</g>
<!-- Node26&#45;&gt;Node23 -->
<g id="edge30" class="edge"><title>Node26&#45;&gt;Node23</title>
<path fill="none" stroke="midnightblue" d="M1995.47,-131.509C1996.88,-139.898 1996.69,-152.996 1995.26,-163.817"/>
<polygon fill="midnightblue" stroke="midnightblue" points="1991.76,-163.498 1993.33,-173.975 1998.63,-164.803 1991.76,-163.498"/>
</g>
<!-- Node28&#45;&gt;Node13 -->
<g id="edge35" class="edge"><title>Node28&#45;&gt;Node13</title>
<path fill="none" stroke="midnightblue" d="M1029,-414.46C952.822,-394.742 764.711,-346.055 679.803,-324.078"/>
<polygon fill="midnightblue" stroke="midnightblue" points="680.532,-320.652 669.974,-321.535 678.778,-327.429 680.532,-320.652"/>
</g>
<!-- Node28&#45;&gt;Node15 -->
<g id="edge43" class="edge"><title>Node28&#45;&gt;Node15</title>
<path fill="none" stroke="midnightblue" d="M1054.61,-414.251C1047.61,-405.566 1037.27,-391.615 1031,-378 1003.5,-318.266 1037.82,-283.126 993,-235 972.837,-213.348 789.298,-158.316 706.82,-134.394"/>
<polygon fill="midnightblue" stroke="midnightblue" points="707.625,-130.983 697.046,-131.567 705.68,-137.708 707.625,-130.983"/>
</g>
<!-- Node28&#45;&gt;Node17 -->
<g id="edge36" class="edge"><title>Node28&#45;&gt;Node17</title>
<path fill="none" stroke="midnightblue" d="M1112.55,-414.453C1142.94,-407.754 1181.51,-396.401 1212,-378 1257.4,-350.602 1292.9,-297.06 1309.22,-269.238"/>
<polygon fill="midnightblue" stroke="midnightblue" points="1312.43,-270.669 1314.34,-260.248 1306.35,-267.202 1312.43,-270.669"/>
</g>
<!-- Node29 -->
<g id="node29" class="node"><title>Node29</title>
<g id="a_node29"><a xlink:href="MeshTypes_8hpp.html" target="_top" xlink:title="Core/Mesh/MeshTypes.hpp">
<polygon fill="white" stroke="black" points="1115.5,-302.5 1115.5,-321.5 1258.5,-321.5 1258.5,-302.5 1115.5,-302.5"/>
<text text-anchor="middle" x="1187" y="-309.5" font-family="Helvetica,sans-Serif" font-size="10.00">Core/Mesh/MeshTypes.hpp</text>
</a>
</g>
</g>
<!-- Node28&#45;&gt;Node29 -->
<g id="edge37" class="edge"><title>Node28&#45;&gt;Node29</title>
<path fill="none" stroke="midnightblue" d="M1137.28,-414.42C1159.48,-407.981 1181.43,-396.916 1195,-378 1204.61,-364.601 1200.77,-345.522 1195.62,-331.499"/>
<polygon fill="midnightblue" stroke="midnightblue" points="1198.72,-329.824 1191.64,-321.939 1192.26,-332.516 1198.72,-329.824"/>
</g>
<!-- Node33 -->
<g id="node33" class="node"><title>Node33</title>
<g id="a_node33"><a xlink:href="Attribs_8hpp.html" target="_top" xlink:title="Core/Utils/Attribs.hpp">
<polygon fill="white" stroke="black" points="665.5,-358.5 665.5,-377.5 784.5,-377.5 784.5,-358.5 665.5,-358.5"/>
<text text-anchor="middle" x="725" y="-365.5" font-family="Helvetica,sans-Serif" font-size="10.00">Core/Utils/Attribs.hpp</text>
</a>
</g>
</g>
<!-- Node28&#45;&gt;Node33 -->
<g id="edge44" class="edge"><title>Node28&#45;&gt;Node33</title>
<path fill="none" stroke="midnightblue" d="M1008.6,-414.444C948.703,-404.846 851.634,-389.292 788.055,-379.104"/>
<polygon fill="midnightblue" stroke="midnightblue" points="788.577,-375.643 778.149,-377.516 787.469,-382.555 788.577,-375.643"/>
</g>
<!-- Node43 -->
<g id="node43" class="node"><title>Node43</title>
<g id="a_node43"><a xlink:href="TriangleMesh_8inl.html" target="_top" xlink:title="Core/Mesh/TriangleMesh.inl">
<polygon fill="white" stroke="black" points="1040,-358.5 1040,-377.5 1186,-377.5 1186,-358.5 1040,-358.5"/>
<text text-anchor="middle" x="1113" y="-365.5" font-family="Helvetica,sans-Serif" font-size="10.00">Core/Mesh/TriangleMesh.inl</text>
</a>
</g>
</g>
<!-- Node28&#45;&gt;Node43 -->
<g id="edge65" class="edge"><title>Node28&#45;&gt;Node43</title>
<path fill="none" stroke="midnightblue" d="M1065.26,-414.083C1071.14,-406.062 1082.1,-394.101 1092.17,-384.515"/>
<polygon fill="midnightblue" stroke="midnightblue" points="1094.56,-387.07 1099.6,-377.751 1089.85,-381.893 1094.56,-387.07"/>
</g>
<!-- Node29&#45;&gt;Node15 -->
<g id="edge42" class="edge"><title>Node29&#45;&gt;Node15</title>
<path fill="none" stroke="midnightblue" d="M1186.05,-302.489C1184.12,-287.852 1178.79,-257.334 1166,-235 1163.42,-230.499 1105.67,-170.265 1101,-168 1036.43,-136.657 829.663,-127.059 726.584,-124.187"/>
<polygon fill="midnightblue" stroke="midnightblue" points="726.43,-120.682 716.34,-123.915 726.244,-127.679 726.43,-120.682"/>
</g>
<!-- Node29&#45;&gt;Node17 -->
<g id="edge41" class="edge"><title>Node29&#45;&gt;Node17</title>
<path fill="none" stroke="midnightblue" d="M1205.91,-302.475C1228.16,-292.445 1265.31,-275.7 1290.93,-264.155"/>
<polygon fill="midnightblue" stroke="midnightblue" points="1292.44,-267.309 1300.12,-260.009 1289.57,-260.928 1292.44,-267.309"/>
</g>
<!-- Node30 -->
<g id="node30" class="node"><title>Node30</title>
<g id="a_node30"><a xlink:href="Index_8hpp.html" target="_top" xlink:title="Core/Index/Index.hpp">
<polygon fill="white" stroke="black" points="1040.5,-241 1040.5,-260 1157.5,-260 1157.5,-241 1040.5,-241"/>
<text text-anchor="middle" x="1099" y="-248" font-family="Helvetica,sans-Serif" font-size="10.00">Core/Index/Index.hpp</text>
</a>
</g>
</g>
<!-- Node29&#45;&gt;Node30 -->
<g id="edge38" class="edge"><title>Node29&#45;&gt;Node30</title>
<path fill="none" stroke="midnightblue" d="M1174.39,-302.475C1160.28,-292.931 1137.17,-277.307 1120.25,-265.868"/>
<polygon fill="midnightblue" stroke="midnightblue" points="1121.83,-262.711 1111.58,-260.009 1117.91,-268.51 1121.83,-262.711"/>
</g>
<!-- Node31 -->
<g id="node31" class="node"><title>Node31</title>
<polygon fill="white" stroke="#bfbfbf" points="1050,-174 1050,-193 1092,-193 1092,-174 1050,-174"/>
<text text-anchor="middle" x="1071" y="-181" font-family="Helvetica,sans-Serif" font-size="10.00">limits</text>
</g>
<!-- Node30&#45;&gt;Node31 -->
<g id="edge39" class="edge"><title>Node30&#45;&gt;Node31</title>
<path fill="none" stroke="midnightblue" d="M1095.22,-240.734C1091.03,-230.988 1084.13,-214.981 1078.77,-202.532"/>
<polygon fill="midnightblue" stroke="midnightblue" points="1081.89,-200.927 1074.72,-193.127 1075.46,-203.696 1081.89,-200.927"/>
</g>
<!-- Node32 -->
<g id="node32" class="node"><title>Node32</title>
<g id="a_node32"><a xlink:href="Index_8inl.html" target="_top" xlink:title="Core/Index/Index.inl">
<polygon fill="white" stroke="black" points="922,-174 922,-193 1032,-193 1032,-174 922,-174"/>
<text text-anchor="middle" x="977" y="-181" font-family="Helvetica,sans-Serif" font-size="10.00">Core/Index/Index.inl</text>
</a>
</g>
</g>
<!-- Node30&#45;&gt;Node32 -->
<g id="edge40" class="edge"><title>Node30&#45;&gt;Node32</title>
<path fill="none" stroke="midnightblue" d="M1082.8,-240.869C1062.2,-229.893 1026.41,-210.824 1002.22,-197.938"/>
<polygon fill="midnightblue" stroke="midnightblue" points="1003.74,-194.78 993.268,-193.167 1000.45,-200.958 1003.74,-194.78"/>
</g>
<!-- Node33&#45;&gt;Node13 -->
<g id="edge45" class="edge"><title>Node33&#45;&gt;Node13</title>
<path fill="none" stroke="midnightblue" d="M710.861,-358.324C697.134,-349.9 676.064,-336.971 659.936,-327.074"/>
<polygon fill="midnightblue" stroke="midnightblue" points="661.457,-323.902 651.104,-321.655 657.796,-329.868 661.457,-323.902"/>
</g>
<!-- Node33&#45;&gt;Node15 -->
<g id="edge64" class="edge"><title>Node33&#45;&gt;Node15</title>
<path fill="none" stroke="midnightblue" d="M665.141,-367.604C565.296,-367.365 359.041,-361.54 190,-322 123.942,-306.548 86.1705,-322.085 48,-266 26.0049,-233.682 80.2597,-169.163 82,-168 124.968,-139.293 467.382,-127.822 607.525,-124.299"/>
<polygon fill="midnightblue" stroke="midnightblue" points="607.748,-127.795 617.658,-124.049 607.575,-120.797 607.748,-127.795"/>
</g>
<!-- Node34 -->
<g id="node34" class="node"><title>Node34</title>
<g id="a_node34"><a xlink:href="IndexMap_8hpp.html" target="_top" xlink:title="Core/Index/IndexMap.hpp">
<polygon fill="white" stroke="black" points="794.5,-302.5 794.5,-321.5 931.5,-321.5 931.5,-302.5 794.5,-302.5"/>
<text text-anchor="middle" x="863" y="-309.5" font-family="Helvetica,sans-Serif" font-size="10.00">Core/Index/IndexMap.hpp</text>
</a>
</g>
</g>
<!-- Node33&#45;&gt;Node34 -->
<g id="edge46" class="edge"><title>Node33&#45;&gt;Node34</title>
<path fill="none" stroke="midnightblue" d="M746.867,-358.444C769.779,-349.478 805.975,-335.314 831.866,-325.183"/>
<polygon fill="midnightblue" stroke="midnightblue" points="833.199,-328.42 841.236,-321.516 830.648,-321.901 833.199,-328.42"/>
</g>
<!-- Node38 -->
<g id="node38" class="node"><title>Node38</title>
<g id="a_node38"><a xlink:href="Log_8hpp.html" target="_top" xlink:title="Core/Log/Log.hpp">
<polygon fill="white" stroke="black" points="199.5,-302.5 199.5,-321.5 300.5,-321.5 300.5,-302.5 199.5,-302.5"/>
<text text-anchor="middle" x="250" y="-309.5" font-family="Helvetica,sans-Serif" font-size="10.00">Core/Log/Log.hpp</text>
</a>
</g>
</g>
<!-- Node33&#45;&gt;Node38 -->
<g id="edge54" class="edge"><title>Node33&#45;&gt;Node38</title>
<path fill="none" stroke="midnightblue" d="M665.322,-360.216C574.419,-349.881 402.193,-330.302 310.69,-319.9"/>
<polygon fill="midnightblue" stroke="midnightblue" points="311.08,-316.421 300.748,-318.769 310.289,-323.377 311.08,-316.421"/>
</g>
<!-- Node34&#45;&gt;Node15 -->
<g id="edge47" class="edge"><title>Node34&#45;&gt;Node15</title>
<path fill="none" stroke="midnightblue" d="M794.126,-306.591C763.099,-301.152 728.286,-289.703 705,-266 671.637,-232.04 666.664,-172.308 666.461,-141.915"/>
<polygon fill="midnightblue" stroke="midnightblue" points="669.962,-141.854 666.568,-131.818 662.962,-141.78 669.962,-141.854"/>
</g>
<!-- Node34&#45;&gt;Node24 -->
<g id="edge48" class="edge"><title>Node34&#45;&gt;Node24</title>
<path fill="none" stroke="midnightblue" d="M931.756,-308.744C1150.78,-300.851 1821.43,-270.947 1884,-199 1893.04,-188.603 1890.21,-180.299 1884,-168 1877.19,-154.52 1864.23,-144.083 1852,-136.67"/>
<polygon fill="midnightblue" stroke="midnightblue" points="1853.34,-133.41 1842.91,-131.59 1849.93,-139.521 1853.34,-133.41"/>
</g>
<!-- Node34&#45;&gt;Node30 -->
<g id="edge51" class="edge"><title>Node34&#45;&gt;Node30</title>
<path fill="none" stroke="midnightblue" d="M896.813,-302.475C938.522,-291.959 1009.51,-274.062 1055.31,-262.514"/>
<polygon fill="midnightblue" stroke="midnightblue" points="1056.41,-265.848 1065.25,-260.009 1054.7,-259.06 1056.41,-265.848"/>
</g>
<!-- Node35 -->
<g id="node35" class="node"><title>Node35</title>
<polygon fill="white" stroke="#bfbfbf" points="714,-241 714,-260 770,-260 770,-241 714,-241"/>
<text text-anchor="middle" x="742" y="-248" font-family="Helvetica,sans-Serif" font-size="10.00">assert.h</text>
</g>
<!-- Node34&#45;&gt;Node35 -->
<g id="edge49" class="edge"><title>Node34&#45;&gt;Node35</title>
<path fill="none" stroke="midnightblue" d="M845.664,-302.475C825.447,-292.534 791.813,-275.995 768.358,-264.461"/>
<polygon fill="midnightblue" stroke="midnightblue" points="769.822,-261.281 759.304,-260.009 766.733,-267.563 769.822,-261.281"/>
</g>
<!-- Node36 -->
<g id="node36" class="node"><title>Node36</title>
<polygon fill="white" stroke="#bfbfbf" points="788.5,-241 788.5,-260 835.5,-260 835.5,-241 788.5,-241"/>
<text text-anchor="middle" x="812" y="-248" font-family="Helvetica,sans-Serif" font-size="10.00">deque</text>
</g>
<!-- Node34&#45;&gt;Node36 -->
<g id="edge50" class="edge"><title>Node34&#45;&gt;Node36</title>
<path fill="none" stroke="midnightblue" d="M855.693,-302.475C847.967,-293.462 835.592,-279.025 825.982,-267.812"/>
<polygon fill="midnightblue" stroke="midnightblue" points="828.459,-265.324 819.294,-260.009 823.144,-269.879 828.459,-265.324"/>
</g>
<!-- Node37 -->
<g id="node37" class="node"><title>Node37</title>
<g id="a_node37"><a xlink:href="IndexMap_8inl.html" target="_top" xlink:title="Core/Index/IndexMap.inl">
<polygon fill="white" stroke="black" points="854,-241 854,-260 984,-260 984,-241 854,-241"/>
<text text-anchor="middle" x="919" y="-248" font-family="Helvetica,sans-Serif" font-size="10.00">Core/Index/IndexMap.inl</text>
</a>
</g>
</g>
<!-- Node34&#45;&gt;Node37 -->
<g id="edge52" class="edge"><title>Node34&#45;&gt;Node37</title>
<path fill="none" stroke="midnightblue" d="M866.123,-302.475C872.832,-293.197 886.611,-278.171 898.582,-266.831"/>
<polygon fill="midnightblue" stroke="midnightblue" points="901.044,-269.323 906.094,-260.009 896.338,-264.141 901.044,-269.323"/>
</g>
<!-- Node37&#45;&gt;Node34 -->
<g id="edge53" class="edge"><title>Node37&#45;&gt;Node34</title>
<path fill="none" stroke="midnightblue" d="M915.889,-260.009C909.188,-269.281 895.411,-284.306 883.439,-295.65"/>
<polygon fill="midnightblue" stroke="midnightblue" points="880.973,-293.161 875.924,-302.475 885.68,-298.343 880.973,-293.161"/>
</g>
<!-- Node38&#45;&gt;Node8 -->
<g id="edge56" class="edge"><title>Node38&#45;&gt;Node8</title>
<path fill="none" stroke="midnightblue" d="M199.372,-310.686C155.511,-308.03 92.31,-298.23 48,-266 14.0044,-241.272 0,-226.538 0,-184.5 0,-184.5 0,-184.5 0,-121 0,-31.1115 138.572,-14.1886 207.71,-11.3393"/>
<polygon fill="midnightblue" stroke="midnightblue" points="207.903,-14.8349 217.781,-11.0038 207.67,-7.8388 207.903,-14.8349"/>
</g>
<!-- Node38&#45;&gt;Node15 -->
<g id="edge55" class="edge"><title>Node38&#45;&gt;Node15</title>
<path fill="none" stroke="midnightblue" d="M283.057,-302.372C303.924,-295.48 330.204,-283.947 348,-266 381.617,-232.097 354.151,-197.103 392,-168 424.898,-142.704 537.211,-131.103 607.721,-126.201"/>
<polygon fill="midnightblue" stroke="midnightblue" points="608.062,-129.686 617.806,-125.526 607.594,-122.702 608.062,-129.686"/>
</g>
<!-- Node39 -->
<g id="node39" class="node"><title>Node39</title>
<polygon fill="white" stroke="#bfbfbf" points="290.5,-241 290.5,-260 339.5,-260 339.5,-241 290.5,-241"/>
<text text-anchor="middle" x="315" y="-248" font-family="Helvetica,sans-Serif" font-size="10.00">stdio.h</text>
</g>
<!-- Node38&#45;&gt;Node39 -->
<g id="edge57" class="edge"><title>Node38&#45;&gt;Node39</title>
<path fill="none" stroke="midnightblue" d="M259.313,-302.475C269.449,-293.197 285.864,-278.171 298.252,-266.831"/>
<polygon fill="midnightblue" stroke="midnightblue" points="300.691,-269.343 305.704,-260.009 295.965,-264.18 300.691,-269.343"/>
</g>
<!-- Node40 -->
<g id="node40" class="node"><title>Node40</title>
<polygon fill="white" stroke="#bfbfbf" points="91,-174 91,-193 135,-193 135,-174 91,-174"/>
<text text-anchor="middle" x="113" y="-181" font-family="Helvetica,sans-Serif" font-size="10.00">string</text>
</g>
<!-- Node38&#45;&gt;Node40 -->
<g id="edge58" class="edge"><title>Node38&#45;&gt;Node40</title>
<path fill="none" stroke="midnightblue" d="M199.465,-306.249C148.361,-300.277 74.4853,-288.031 57,-266 39.1141,-243.464 68.6457,-215.506 91.1765,-198.884"/>
<polygon fill="midnightblue" stroke="midnightblue" points="93.2094,-201.733 99.3554,-193.103 89.1691,-196.017 93.2094,-201.733"/>
</g>
<!-- Node41 -->
<g id="node41" class="node"><title>Node41</title>
<g id="a_node41"><a xlink:href="StringUtils_8hpp.html" target="_top" xlink:title="Core/String/StringUtils.hpp">
<polygon fill="white" stroke="black" points="66,-241 66,-260 210,-260 210,-241 66,-241"/>
<text text-anchor="middle" x="138" y="-248" font-family="Helvetica,sans-Serif" font-size="10.00">Core/String/StringUtils.hpp</text>
</a>
</g>
</g>
<!-- Node38&#45;&gt;Node41 -->
<g id="edge59" class="edge"><title>Node38&#45;&gt;Node41</title>
<path fill="none" stroke="midnightblue" d="M233.953,-302.475C215.407,-292.622 184.66,-276.288 162.978,-264.77"/>
<polygon fill="midnightblue" stroke="midnightblue" points="164.49,-261.61 154.017,-260.009 161.206,-267.792 164.49,-261.61"/>
</g>
<!-- Node42 -->
<g id="node42" class="node"><title>Node42</title>
<polygon fill="white" stroke="#bfbfbf" points="228,-241 228,-260 272,-260 272,-241 228,-241"/>
<text text-anchor="middle" x="250" y="-248" font-family="Helvetica,sans-Serif" font-size="10.00">ctime</text>
</g>
<!-- Node38&#45;&gt;Node42 -->
<g id="edge63" class="edge"><title>Node38&#45;&gt;Node42</title>
<path fill="none" stroke="midnightblue" d="M250,-302.475C250,-294.08 250,-280.981 250,-270.163"/>
<polygon fill="midnightblue" stroke="midnightblue" points="253.5,-270.009 250,-260.009 246.5,-270.009 253.5,-270.009"/>
</g>
<!-- Node41&#45;&gt;Node12 -->
<g id="edge62" class="edge"><title>Node41&#45;&gt;Node12</title>
<path fill="none" stroke="midnightblue" d="M175.815,-240.936C232.182,-228.17 337.364,-204.348 391.263,-192.141"/>
<polygon fill="midnightblue" stroke="midnightblue" points="392.349,-195.483 401.329,-189.861 390.803,-188.656 392.349,-195.483"/>
</g>
<!-- Node41&#45;&gt;Node15 -->
<g id="edge60" class="edge"><title>Node41&#45;&gt;Node15</title>
<path fill="none" stroke="midnightblue" d="M156.621,-240.883C193.48,-224.187 278.696,-187.372 354,-168 440.752,-145.683 544.071,-133.533 607.596,-127.657"/>
<polygon fill="midnightblue" stroke="midnightblue" points="608.181,-131.118 617.826,-126.733 607.551,-124.146 608.181,-131.118"/>
</g>
<!-- Node41&#45;&gt;Node40 -->
<g id="edge61" class="edge"><title>Node41&#45;&gt;Node40</title>
<path fill="none" stroke="midnightblue" d="M134.628,-240.734C130.88,-230.988 124.723,-214.981 119.935,-202.532"/>
<polygon fill="midnightblue" stroke="midnightblue" points="123.175,-201.204 116.318,-193.127 116.641,-203.717 123.175,-201.204"/>
</g>
<!-- Node43&#45;&gt;Node28 -->
<g id="edge66" class="edge"><title>Node43&#45;&gt;Node28</title>
<path fill="none" stroke="midnightblue" d="M1109.81,-377.834C1103.93,-385.869 1092.9,-397.909 1082.77,-407.537"/>
<polygon fill="midnightblue" stroke="midnightblue" points="1080.35,-405.007 1075.31,-414.324 1085.06,-410.186 1080.35,-405.007"/>
</g>
</g>
</svg>
