<?xml version="1.0" encoding="UTF-8" standalone="no"?>
<!DOCTYPE svg PUBLIC "-//W3C//DTD SVG 1.1//EN"
 "http://www.w3.org/Graphics/SVG/1.1/DTD/svg11.dtd">
<!-- Generated by graphviz version 2.38.0 (20140413.2041)
 -->
<!-- Title: /home/travis/build/STORM&#45;IRIT/Radium&#45;Engine/Plugins/MeshFeatureTracking/src/MeshFeatureTrackingPlugin.hpp Pages: 1 -->
<svg width="1354pt" height="531pt"
 viewBox="0.00 0.00 1353.50 531.00" xmlns="http://www.w3.org/2000/svg" xmlns:xlink="http://www.w3.org/1999/xlink">
<g id="graph0" class="graph" transform="scale(1 1) rotate(0) translate(4 527)">
<title>/home/travis/build/STORM&#45;IRIT/Radium&#45;Engine/Plugins/MeshFeatureTracking/src/MeshFeatureTrackingPlugin.hpp</title>
<polygon fill="white" stroke="none" points="-4,4 -4,-527 1349.5,-527 1349.5,4 -4,4"/>
<!-- Node1 -->
<g id="node1" class="node"><title>Node1</title>
<polygon fill="#bfbfbf" stroke="black" points="636,-470.5 636,-522.5 822,-522.5 822,-470.5 636,-470.5"/>
<text text-anchor="start" x="644" y="-510.5" font-family="Helvetica,sans-Serif" font-size="10.00">/home/travis/build</text>
<text text-anchor="start" x="644" y="-499.5" font-family="Helvetica,sans-Serif" font-size="10.00">/STORM&#45;IRIT/Radium&#45;Engine</text>
<text text-anchor="start" x="644" y="-488.5" font-family="Helvetica,sans-Serif" font-size="10.00">/Plugins/MeshFeatureTracking</text>
<text text-anchor="middle" x="729" y="-477.5" font-family="Helvetica,sans-Serif" font-size="10.00">/src/MeshFeatureTrackingPlugin.hpp</text>
</g>
<!-- Node2 -->
<g id="node2" class="node"><title>Node2</title>
<g id="a_node2"><a xlink:href="CoreMacros_8hpp.html" target="_top" xlink:title="Core/CoreMacros.hpp">
<polygon fill="white" stroke="black" points="103,-56.5 103,-75.5 223,-75.5 223,-56.5 103,-56.5"/>
<text text-anchor="middle" x="163" y="-63.5" font-family="Helvetica,sans-Serif" font-size="10.00">Core/CoreMacros.hpp</text>
</a>
</g>
</g>
<!-- Node1&#45;&gt;Node2 -->
<g id="edge1" class="edge"><title>Node1&#45;&gt;Node2</title>
<path fill="none" stroke="midnightblue" d="M635.991,-496.236C458.067,-495.122 87,-479.548 87,-369 87,-369 87,-369 87,-182.5 87,-140.812 121.978,-102.53 144.475,-82.2185"/>
<polygon fill="midnightblue" stroke="midnightblue" points="146.864,-84.7796 152.111,-75.5755 142.269,-79.4985 146.864,-84.7796"/>
</g>
<!-- Node8 -->
<g id="node8" class="node"><title>Node8</title>
<g id="a_node8"><a xlink:href="RadiumPluginInterface_8hpp.html" target="_top" xlink:title="PluginBase/RadiumPluginInterface.hpp">
<polygon fill="white" stroke="black" points="629,-414.5 629,-433.5 829,-433.5 829,-414.5 629,-414.5"/>
<text text-anchor="middle" x="729" y="-421.5" font-family="Helvetica,sans-Serif" font-size="10.00">PluginBase/RadiumPluginInterface.hpp</text>
</a>
</g>
</g>
<!-- Node1&#45;&gt;Node8 -->
<g id="edge7" class="edge"><title>Node1&#45;&gt;Node8</title>
<path fill="none" stroke="midnightblue" d="M729,-470.446C729,-461.73 729,-452.104 729,-443.964"/>
<polygon fill="midnightblue" stroke="midnightblue" points="732.5,-443.695 729,-433.695 725.5,-443.696 732.5,-443.695"/>
</g>
<!-- Node11 -->
<g id="node11" class="node"><title>Node11</title>
<polygon fill="white" stroke="#bfbfbf" points="812,-358.5 812,-377.5 868,-377.5 868,-358.5 812,-358.5"/>
<text text-anchor="middle" x="840" y="-365.5" font-family="Helvetica,sans-Serif" font-size="10.00">QtPlugin</text>
</g>
<!-- Node1&#45;&gt;Node11 -->
<g id="edge13" class="edge"><title>Node1&#45;&gt;Node11</title>
<path fill="none" stroke="midnightblue" d="M798.27,-470.344C813.928,-461.321 828.667,-449.432 838,-434 846.308,-420.264 846.004,-401.734 844.092,-387.974"/>
<polygon fill="midnightblue" stroke="midnightblue" points="847.468,-386.973 842.261,-377.746 840.578,-388.207 847.468,-386.973"/>
</g>
<!-- Node12 -->
<g id="node12" class="node"><title>Node12</title>
<polygon fill="white" stroke="#bfbfbf" points="885,-414.5 885,-433.5 939,-433.5 939,-414.5 885,-414.5"/>
<text text-anchor="middle" x="912" y="-421.5" font-family="Helvetica,sans-Serif" font-size="10.00">QAction</text>
</g>
<!-- Node1&#45;&gt;Node12 -->
<g id="edge11" class="edge"><title>Node1&#45;&gt;Node12</title>
<path fill="none" stroke="midnightblue" d="M794.034,-470.446C823.339,-459.156 856.606,-446.34 880.325,-437.203"/>
<polygon fill="midnightblue" stroke="midnightblue" points="881.793,-440.388 889.866,-433.527 879.276,-433.856 881.793,-440.388"/>
</g>
<!-- Node13 -->
<g id="node13" class="node"><title>Node13</title>
<polygon fill="white" stroke="#bfbfbf" points="957.5,-414.5 957.5,-433.5 1012.5,-433.5 1012.5,-414.5 957.5,-414.5"/>
<text text-anchor="middle" x="985" y="-421.5" font-family="Helvetica,sans-Serif" font-size="10.00">QObject</text>
</g>
<!-- Node1&#45;&gt;Node13 -->
<g id="edge12" class="edge"><title>Node1&#45;&gt;Node13</title>
<path fill="none" stroke="midnightblue" d="M819.977,-470.446C863.868,-458.359 914.114,-444.521 947.517,-435.323"/>
<polygon fill="midnightblue" stroke="midnightblue" points="948.605,-438.653 957.316,-432.624 946.746,-431.905 948.605,-438.653"/>
</g>
<!-- Node14 -->
<g id="node14" class="node"><title>Node14</title>
<g id="a_node14"><a xlink:href="MeshFeatureTrackingUI_8h.html" target="_top" xlink:title="UI/MeshFeatureTrackingUI.h">
<polygon fill="white" stroke="black" points="463,-414.5 463,-433.5 611,-433.5 611,-414.5 463,-414.5"/>
<text text-anchor="middle" x="537" y="-421.5" font-family="Helvetica,sans-Serif" font-size="10.00">UI/MeshFeatureTrackingUI.h</text>
</a>
</g>
</g>
<!-- Node1&#45;&gt;Node14 -->
<g id="edge14" class="edge"><title>Node1&#45;&gt;Node14</title>
<path fill="none" stroke="midnightblue" d="M660.767,-470.446C629.884,-459.106 594.806,-446.226 569.9,-437.081"/>
<polygon fill="midnightblue" stroke="midnightblue" points="570.816,-433.688 560.222,-433.527 568.403,-440.259 570.816,-433.688"/>
</g>
<!-- Node37 -->
<g id="node37" class="node"><title>Node37</title>
<g id="a_node37"><a xlink:href="MeshFeatureTrackingPluginMacros_8hpp.html" target="_top" xlink:title="MeshFeatureTrackingPlugin\lMacros.hpp">
<polygon fill="white" stroke="black" points="159.5,-291.5 159.5,-321.5 304.5,-321.5 304.5,-291.5 159.5,-291.5"/>
<text text-anchor="start" x="167.5" y="-309.5" font-family="Helvetica,sans-Serif" font-size="10.00">MeshFeatureTrackingPlugin</text>
<text text-anchor="middle" x="232" y="-298.5" font-family="Helvetica,sans-Serif" font-size="10.00">Macros.hpp</text>
</a>
</g>
</g>
<!-- Node1&#45;&gt;Node37 -->
<g id="edge47" class="edge"><title>Node1&#45;&gt;Node37</title>
<path fill="none" stroke="midnightblue" d="M635.938,-481.802C581.693,-472.08 512.634,-456.673 454,-434 379.992,-405.382 301.021,-354.996 260.156,-327.234"/>
<polygon fill="midnightblue" stroke="midnightblue" points="262.021,-324.269 251.793,-321.506 258.065,-330.045 262.021,-324.269"/>
</g>
<!-- Node3 -->
<g id="node3" class="node"><title>Node3</title>
<polygon fill="white" stroke="#bfbfbf" points="0,-0.5 0,-19.5 52,-19.5 52,-0.5 0,-0.5"/>
<text text-anchor="middle" x="26" y="-7.5" font-family="Helvetica,sans-Serif" font-size="10.00">cassert</text>
</g>
<!-- Node2&#45;&gt;Node3 -->
<g id="edge2" class="edge"><title>Node2&#45;&gt;Node3</title>
<path fill="none" stroke="midnightblue" d="M141.292,-56.4435C118.645,-47.5171 82.9279,-33.4387 57.2482,-23.3168"/>
<polygon fill="midnightblue" stroke="midnightblue" points="58.1934,-19.9273 47.6065,-19.5164 55.6264,-26.4397 58.1934,-19.9273"/>
</g>
<!-- Node4 -->
<g id="node4" class="node"><title>Node4</title>
<polygon fill="white" stroke="#bfbfbf" points="70.5,-0.5 70.5,-19.5 115.5,-19.5 115.5,-0.5 70.5,-0.5"/>
<text text-anchor="middle" x="93" y="-7.5" font-family="Helvetica,sans-Serif" font-size="10.00">cstdio</text>
</g>
<!-- Node2&#45;&gt;Node4 -->
<g id="edge3" class="edge"><title>Node2&#45;&gt;Node4</title>
<path fill="none" stroke="midnightblue" d="M151.753,-56.324C141.203,-48.1849 125.199,-35.8395 112.558,-26.0874"/>
<polygon fill="midnightblue" stroke="midnightblue" points="114.507,-23.1707 104.451,-19.8339 110.231,-28.7132 114.507,-23.1707"/>
</g>
<!-- Node5 -->
<g id="node5" class="node"><title>Node5</title>
<polygon fill="white" stroke="#bfbfbf" points="133.5,-0.5 133.5,-19.5 192.5,-19.5 192.5,-0.5 133.5,-0.5"/>
<text text-anchor="middle" x="163" y="-7.5" font-family="Helvetica,sans-Serif" font-size="10.00">iostream</text>
</g>
<!-- Node2&#45;&gt;Node5 -->
<g id="edge4" class="edge"><title>Node2&#45;&gt;Node5</title>
<path fill="none" stroke="midnightblue" d="M163,-56.083C163,-49.0059 163,-38.8611 163,-29.9865"/>
<polygon fill="midnightblue" stroke="midnightblue" points="166.5,-29.751 163,-19.7511 159.5,-29.7511 166.5,-29.751"/>
</g>
<!-- Node6 -->
<g id="node6" class="node"><title>Node6</title>
<polygon fill="white" stroke="#bfbfbf" points="211,-0.5 211,-19.5 267,-19.5 267,-0.5 211,-0.5"/>
<text text-anchor="middle" x="239" y="-7.5" font-family="Helvetica,sans-Serif" font-size="10.00">sstream</text>
</g>
<!-- Node2&#45;&gt;Node6 -->
<g id="edge5" class="edge"><title>Node2&#45;&gt;Node6</title>
<path fill="none" stroke="midnightblue" d="M175.211,-56.324C186.776,-48.1066 204.375,-35.6017 218.161,-25.8069"/>
<polygon fill="midnightblue" stroke="midnightblue" points="220.443,-28.4791 226.567,-19.8339 216.388,-22.7729 220.443,-28.4791"/>
</g>
<!-- Node7 -->
<g id="node7" class="node"><title>Node7</title>
<polygon fill="white" stroke="#bfbfbf" points="285,-0.5 285,-19.5 333,-19.5 333,-0.5 285,-0.5"/>
<text text-anchor="middle" x="309" y="-7.5" font-family="Helvetica,sans-Serif" font-size="10.00">thread</text>
</g>
<!-- Node2&#45;&gt;Node7 -->
<g id="edge6" class="edge"><title>Node2&#45;&gt;Node7</title>
<path fill="none" stroke="midnightblue" d="M186.134,-56.4435C210.482,-47.4381 249.007,-33.1891 276.423,-23.049"/>
<polygon fill="midnightblue" stroke="midnightblue" points="277.809,-26.2681 285.974,-19.5164 275.381,-19.7028 277.809,-26.2681"/>
</g>
<!-- Node9 -->
<g id="node9" class="node"><title>Node9</title>
<polygon fill="white" stroke="#bfbfbf" points="872.5,-235.5 872.5,-254.5 929.5,-254.5 929.5,-235.5 872.5,-235.5"/>
<text text-anchor="middle" x="901" y="-242.5" font-family="Helvetica,sans-Serif" font-size="10.00">memory</text>
</g>
<!-- Node8&#45;&gt;Node9 -->
<g id="edge8" class="edge"><title>Node8&#45;&gt;Node9</title>
<path fill="none" stroke="midnightblue" d="M728.496,-414.271C727.646,-390.984 728.622,-326.733 762,-291 775.809,-276.217 826.371,-262.386 862.526,-254.06"/>
<polygon fill="midnightblue" stroke="midnightblue" points="863.312,-257.471 872.299,-251.861 861.775,-250.641 863.312,-257.471"/>
</g>
<!-- Node10 -->
<g id="node10" class="node"><title>Node10</title>
<polygon fill="white" stroke="#bfbfbf" points="947.5,-235.5 947.5,-254.5 994.5,-254.5 994.5,-235.5 947.5,-235.5"/>
<text text-anchor="middle" x="971" y="-242.5" font-family="Helvetica,sans-Serif" font-size="10.00">vector</text>
</g>
<!-- Node8&#45;&gt;Node10 -->
<g id="edge9" class="edge"><title>Node8&#45;&gt;Node10</title>
<path fill="none" stroke="midnightblue" d="M738.236,-414.169C751.915,-401.258 778.579,-376.734 803,-358 852.616,-319.939 914.661,-280.537 947.721,-260.145"/>
<polygon fill="midnightblue" stroke="midnightblue" points="949.931,-262.895 956.624,-254.682 946.27,-256.929 949.931,-262.895"/>
</g>
<!-- Node8&#45;&gt;Node11 -->
<g id="edge10" class="edge"><title>Node8&#45;&gt;Node11</title>
<path fill="none" stroke="midnightblue" d="M746.834,-414.324C764.716,-405.625 792.475,-392.12 813.046,-382.113"/>
<polygon fill="midnightblue" stroke="midnightblue" points="814.749,-385.177 822.21,-377.655 811.687,-378.882 814.749,-385.177"/>
</g>
<!-- Node15 -->
<g id="node15" class="node"><title>Node15</title>
<polygon fill="white" stroke="#bfbfbf" points="429,-358.5 429,-377.5 483,-377.5 483,-358.5 429,-358.5"/>
<text text-anchor="middle" x="456" y="-365.5" font-family="Helvetica,sans-Serif" font-size="10.00">QFrame</text>
</g>
<!-- Node14&#45;&gt;Node15 -->
<g id="edge15" class="edge"><title>Node14&#45;&gt;Node15</title>
<path fill="none" stroke="midnightblue" d="M523.986,-414.324C511.468,-405.979 492.318,-393.212 477.529,-383.352"/>
<polygon fill="midnightblue" stroke="midnightblue" points="479.244,-380.289 468.982,-377.655 475.361,-386.114 479.244,-380.289"/>
</g>
<!-- Node16 -->
<g id="node16" class="node"><title>Node16</title>
<g id="a_node16"><a xlink:href="PickingManager_8hpp.html" target="_top" xlink:title="GuiBase/Utils/PickingManager.hpp">
<polygon fill="white" stroke="black" points="501.5,-358.5 501.5,-377.5 680.5,-377.5 680.5,-358.5 501.5,-358.5"/>
<text text-anchor="middle" x="591" y="-365.5" font-family="Helvetica,sans-Serif" font-size="10.00">GuiBase/Utils/PickingManager.hpp</text>
</a>
</g>
</g>
<!-- Node14&#45;&gt;Node16 -->
<g id="edge16" class="edge"><title>Node14&#45;&gt;Node16</title>
<path fill="none" stroke="midnightblue" d="M545.917,-414.083C553.78,-406.22 565.431,-394.569 574.919,-385.081"/>
<polygon fill="midnightblue" stroke="midnightblue" points="577.653,-387.297 582.249,-377.751 572.703,-382.347 577.653,-387.297"/>
</g>
<!-- Node17 -->
<g id="node17" class="node"><title>Node17</title>
<g id="a_node17"><a xlink:href="RaGuiBase_8hpp.html" target="_top" xlink:title="GuiBase/RaGuiBase.hpp">
<polygon fill="white" stroke="black" points="358,-297 358,-316 490,-316 490,-297 358,-297"/>
<text text-anchor="middle" x="424" y="-304" font-family="Helvetica,sans-Serif" font-size="10.00">GuiBase/RaGuiBase.hpp</text>
</a>
</g>
</g>
<!-- Node16&#45;&gt;Node17 -->
<g id="edge17" class="edge"><title>Node16&#45;&gt;Node17</title>
<path fill="none" stroke="midnightblue" d="M567.073,-358.475C538.303,-348.225 489.844,-330.959 457.398,-319.399"/>
<polygon fill="midnightblue" stroke="midnightblue" points="458.477,-316.068 447.883,-316.009 456.128,-322.662 458.477,-316.068"/>
</g>
<!-- Node18 -->
<g id="node18" class="node"><title>Node18</title>
<g id="a_node18"><a xlink:href="Renderer_8hpp.html" target="_top" xlink:title="Engine/Renderer/Renderer.hpp">
<polygon fill="white" stroke="black" points="525.5,-297 525.5,-316 686.5,-316 686.5,-297 525.5,-297"/>
<text text-anchor="middle" x="606" y="-304" font-family="Helvetica,sans-Serif" font-size="10.00">Engine/Renderer/Renderer.hpp</text>
</a>
</g>
</g>
<!-- Node16&#45;&gt;Node18 -->
<g id="edge19" class="edge"><title>Node16&#45;&gt;Node18</title>
<path fill="none" stroke="midnightblue" d="M593.149,-358.475C595.288,-349.992 598.638,-336.704 601.381,-325.822"/>
<polygon fill="midnightblue" stroke="midnightblue" points="604.804,-326.561 603.855,-316.009 598.016,-324.85 604.804,-326.561"/>
</g>
<!-- Node17&#45;&gt;Node2 -->
<g id="edge18" class="edge"><title>Node17&#45;&gt;Node2</title>
<path fill="none" stroke="midnightblue" d="M365.442,-296.959C297.824,-286.535 194.257,-268.617 182,-255 139.237,-207.493 150.562,-123.396 158.413,-85.9273"/>
<polygon fill="midnightblue" stroke="midnightblue" points="161.892,-86.4129 160.675,-75.8882 155.063,-84.8746 161.892,-86.4129"/>
</g>
<!-- Node18&#45;&gt;Node9 -->
<g id="edge24" class="edge"><title>Node18&#45;&gt;Node9</title>
<path fill="none" stroke="midnightblue" d="M649.276,-296.944C699.494,-286.989 784.782,-269.998 858,-255 859.448,-254.703 860.923,-254.4 862.412,-254.093"/>
<polygon fill="midnightblue" stroke="midnightblue" points="863.245,-257.495 872.326,-252.037 861.824,-250.641 863.245,-257.495"/>
</g>
<!-- Node18&#45;&gt;Node10 -->
<g id="edge26" class="edge"><title>Node18&#45;&gt;Node10</title>
<path fill="none" stroke="midnightblue" d="M677.994,-296.984C743.291,-288.705 842.321,-274.769 937.496,-254.888"/>
<polygon fill="midnightblue" stroke="midnightblue" points="938.227,-258.311 947.287,-252.819 936.779,-251.462 938.227,-258.311"/>
</g>
<!-- Node19 -->
<g id="node19" class="node"><title>Node19</title>
<g id="a_node19"><a xlink:href="RaEngine_8hpp.html" target="_top" xlink:title="Engine/RaEngine.hpp">
<polygon fill="white" stroke="black" points="1228.5,-112.5 1228.5,-131.5 1345.5,-131.5 1345.5,-112.5 1228.5,-112.5"/>
<text text-anchor="middle" x="1287" y="-119.5" font-family="Helvetica,sans-Serif" font-size="10.00">Engine/RaEngine.hpp</text>
</a>
</g>
</g>
<!-- Node18&#45;&gt;Node19 -->
<g id="edge20" class="edge"><title>Node18&#45;&gt;Node19</title>
<path fill="none" stroke="midnightblue" d="M660.685,-296.934C705.69,-288.933 770.682,-275.17 825,-255 842.892,-248.356 844.723,-240.495 863,-235 1016.99,-188.7 1080.77,-274.006 1223,-199 1247.72,-185.965 1266.78,-158.993 1277.45,-140.943"/>
<polygon fill="midnightblue" stroke="midnightblue" points="1280.64,-142.41 1282.49,-131.978 1274.54,-138.977 1280.64,-142.41"/>
</g>
<!-- Node20 -->
<g id="node20" class="node"><title>Node20</title>
<polygon fill="white" stroke="#bfbfbf" points="497.5,-235.5 497.5,-254.5 538.5,-254.5 538.5,-235.5 497.5,-235.5"/>
<text text-anchor="middle" x="518" y="-242.5" font-family="Helvetica,sans-Serif" font-size="10.00">array</text>
</g>
<!-- Node18&#45;&gt;Node20 -->
<g id="edge22" class="edge"><title>Node18&#45;&gt;Node20</title>
<path fill="none" stroke="midnightblue" d="M593.392,-296.975C579.277,-287.431 556.169,-271.807 539.251,-260.368"/>
<polygon fill="midnightblue" stroke="midnightblue" points="540.829,-257.211 530.585,-254.509 536.909,-263.01 540.829,-257.211"/>
</g>
<!-- Node21 -->
<g id="node21" class="node"><title>Node21</title>
<polygon fill="white" stroke="#bfbfbf" points="286,-174 286,-193 336,-193 336,-174 286,-174"/>
<text text-anchor="middle" x="311" y="-181" font-family="Helvetica,sans-Serif" font-size="10.00">chrono</text>
</g>
<!-- Node18&#45;&gt;Node21 -->
<g id="edge23" class="edge"><title>Node18&#45;&gt;Node21</title>
<path fill="none" stroke="midnightblue" d="M610.258,-296.904C616.827,-282.268 627.178,-252.406 612,-235 573.376,-190.706 406.996,-213.326 350,-199 347.014,-198.249 343.941,-197.347 340.893,-196.364"/>
<polygon fill="midnightblue" stroke="midnightblue" points="341.973,-193.033 331.378,-193.036 339.662,-199.641 341.973,-193.033"/>
</g>
<!-- Node22 -->
<g id="node22" class="node"><title>Node22</title>
<polygon fill="white" stroke="#bfbfbf" points="556.5,-235.5 556.5,-254.5 603.5,-254.5 603.5,-235.5 556.5,-235.5"/>
<text text-anchor="middle" x="580" y="-242.5" font-family="Helvetica,sans-Serif" font-size="10.00">mutex</text>
</g>
<!-- Node18&#45;&gt;Node22 -->
<g id="edge25" class="edge"><title>Node18&#45;&gt;Node22</title>
<path fill="none" stroke="midnightblue" d="M602.275,-296.975C598.529,-288.404 592.64,-274.927 587.858,-263.983"/>
<polygon fill="midnightblue" stroke="midnightblue" points="590.93,-262.271 583.718,-254.509 584.515,-265.074 590.93,-262.271"/>
</g>
<!-- Node23 -->
<g id="node23" class="node"><title>Node23</title>
<g id="a_node23"><a xlink:href="EventEnums_8hpp.html" target="_top" xlink:title="Core/Event/EventEnums.hpp">
<polygon fill="white" stroke="black" points="191.5,-235.5 191.5,-254.5 344.5,-254.5 344.5,-235.5 191.5,-235.5"/>
<text text-anchor="middle" x="268" y="-242.5" font-family="Helvetica,sans-Serif" font-size="10.00">Core/Event/EventEnums.hpp</text>
</a>
</g>
</g>
<!-- Node18&#45;&gt;Node23 -->
<g id="edge27" class="edge"><title>Node18&#45;&gt;Node23</title>
<path fill="none" stroke="midnightblue" d="M557.573,-296.975C496.582,-286.239 391.874,-267.806 326.482,-256.295"/>
<polygon fill="midnightblue" stroke="midnightblue" points="326.793,-252.796 316.337,-254.509 325.579,-259.69 326.793,-252.796"/>
</g>
<!-- Node25 -->
<g id="node25" class="node"><title>Node25</title>
<g id="a_node25"><a xlink:href="LinearAlgebra_8hpp.html" target="_top" xlink:title="Core/Math/LinearAlgebra.hpp">
<polygon fill="white" stroke="black" points="660,-235.5 660,-254.5 816,-254.5 816,-235.5 660,-235.5"/>
<text text-anchor="middle" x="738" y="-242.5" font-family="Helvetica,sans-Serif" font-size="10.00">Core/Math/LinearAlgebra.hpp</text>
</a>
</g>
</g>
<!-- Node18&#45;&gt;Node25 -->
<g id="edge30" class="edge"><title>Node18&#45;&gt;Node25</title>
<path fill="none" stroke="midnightblue" d="M624.912,-296.975C647.163,-286.945 684.312,-270.2 709.926,-258.655"/>
<polygon fill="midnightblue" stroke="midnightblue" points="711.444,-261.809 719.123,-254.509 708.568,-255.428 711.444,-261.809"/>
</g>
<!-- Node36 -->
<g id="node36" class="node"><title>Node36</title>
<g id="a_node36"><a xlink:href="Timer_8hpp.html" target="_top" xlink:title="Core/Time/Timer.hpp">
<polygon fill="white" stroke="black" points="363,-235.5 363,-254.5 479,-254.5 479,-235.5 363,-235.5"/>
<text text-anchor="middle" x="421" y="-242.5" font-family="Helvetica,sans-Serif" font-size="10.00">Core/Time/Timer.hpp</text>
</a>
</g>
</g>
<!-- Node18&#45;&gt;Node36 -->
<g id="edge44" class="edge"><title>Node18&#45;&gt;Node36</title>
<path fill="none" stroke="midnightblue" d="M579.494,-296.975C547.348,-286.636 493.013,-269.161 457.073,-257.602"/>
<polygon fill="midnightblue" stroke="midnightblue" points="458.048,-254.239 447.457,-254.509 455.905,-260.903 458.048,-254.239"/>
</g>
<!-- Node19&#45;&gt;Node2 -->
<g id="edge21" class="edge"><title>Node19&#45;&gt;Node2</title>
<path fill="none" stroke="midnightblue" d="M1228.21,-112.795C1225.44,-112.505 1222.69,-112.237 1220,-112 849.075,-79.2598 402.745,-70.1536 233.066,-67.7816"/>
<polygon fill="midnightblue" stroke="midnightblue" points="233.063,-64.2813 223.016,-67.6445 232.967,-71.2807 233.063,-64.2813"/>
</g>
<!-- Node24 -->
<g id="node24" class="node"><title>Node24</title>
<g id="a_node24"><a xlink:href="RaCore_8hpp.html" target="_top" xlink:title="Core/RaCore.hpp">
<polygon fill="white" stroke="black" points="209,-112.5 209,-131.5 307,-131.5 307,-112.5 209,-112.5"/>
<text text-anchor="middle" x="258" y="-119.5" font-family="Helvetica,sans-Serif" font-size="10.00">Core/RaCore.hpp</text>
</a>
</g>
</g>
<!-- Node23&#45;&gt;Node24 -->
<g id="edge28" class="edge"><title>Node23&#45;&gt;Node24</title>
<path fill="none" stroke="midnightblue" d="M261.633,-235.232C255.74,-226.532 247.393,-212.572 244,-199 239.082,-179.33 244.85,-156.398 250.4,-140.911"/>
<polygon fill="midnightblue" stroke="midnightblue" points="253.694,-142.097 254.075,-131.509 247.175,-139.549 253.694,-142.097"/>
</g>
<!-- Node24&#45;&gt;Node2 -->
<g id="edge29" class="edge"><title>Node24&#45;&gt;Node2</title>
<path fill="none" stroke="midnightblue" d="M242.737,-112.324C227.779,-103.822 204.745,-90.7288 187.273,-80.7975"/>
<polygon fill="midnightblue" stroke="midnightblue" points="188.649,-77.5534 178.226,-75.6545 185.19,-83.639 188.649,-77.5534"/>
</g>
<!-- Node25&#45;&gt;Node24 -->
<g id="edge31" class="edge"><title>Node25&#45;&gt;Node24</title>
<path fill="none" stroke="midnightblue" d="M659.709,-236.386C562.912,-226.613 407.836,-209.653 383,-199 362.969,-190.408 363.222,-179.96 345,-168 326.288,-155.718 303.818,-144.17 286.402,-135.848"/>
<polygon fill="midnightblue" stroke="midnightblue" points="287.841,-132.657 277.302,-131.572 284.864,-138.992 287.841,-132.657"/>
</g>
<!-- Node26 -->
<g id="node26" class="node"><title>Node26</title>
<polygon fill="white" stroke="#bfbfbf" points="392,-174 392,-193 460,-193 460,-174 392,-174"/>
<text text-anchor="middle" x="426" y="-181" font-family="Helvetica,sans-Serif" font-size="10.00">Eigen/Core</text>
</g>
<!-- Node25&#45;&gt;Node26 -->
<g id="edge32" class="edge"><title>Node25&#45;&gt;Node26</title>
<path fill="none" stroke="midnightblue" d="M668.546,-235.483C613.855,-228.033 535.944,-215.773 469,-199 465.611,-198.151 462.106,-197.161 458.627,-196.104"/>
<polygon fill="midnightblue" stroke="midnightblue" points="459.599,-192.741 449.008,-193.012 457.457,-199.405 459.599,-192.741"/>
</g>
<!-- Node27 -->
<g id="node27" class="node"><title>Node27</title>
<polygon fill="white" stroke="#bfbfbf" points="478,-174 478,-193 572,-193 572,-174 478,-174"/>
<text text-anchor="middle" x="525" y="-181" font-family="Helvetica,sans-Serif" font-size="10.00">Eigen/Geometry</text>
</g>
<!-- Node25&#45;&gt;Node27 -->
<g id="edge33" class="edge"><title>Node25&#45;&gt;Node27</title>
<path fill="none" stroke="midnightblue" d="M707.482,-235.475C670.075,-225.026 606.573,-207.287 565.213,-195.733"/>
<polygon fill="midnightblue" stroke="midnightblue" points="566.034,-192.329 555.461,-193.009 564.151,-199.071 566.034,-192.329"/>
</g>
<!-- Node28 -->
<g id="node28" class="node"><title>Node28</title>
<polygon fill="white" stroke="#bfbfbf" points="590,-174 590,-193 670,-193 670,-174 590,-174"/>
<text text-anchor="middle" x="630" y="-181" font-family="Helvetica,sans-Serif" font-size="10.00">Eigen/Sparse</text>
</g>
<!-- Node25&#45;&gt;Node28 -->
<g id="edge34" class="edge"><title>Node25&#45;&gt;Node28</title>
<path fill="none" stroke="midnightblue" d="M722.526,-235.475C704.722,-225.666 675.259,-209.435 654.368,-197.925"/>
<polygon fill="midnightblue" stroke="midnightblue" points="655.893,-194.769 645.445,-193.009 652.515,-200.9 655.893,-194.769"/>
</g>
<!-- Node29 -->
<g id="node29" class="node"><title>Node29</title>
<polygon fill="white" stroke="#bfbfbf" points="688.5,-174 688.5,-193 751.5,-193 751.5,-174 688.5,-174"/>
<text text-anchor="middle" x="720" y="-181" font-family="Helvetica,sans-Serif" font-size="10.00">functional</text>
</g>
<!-- Node25&#45;&gt;Node29 -->
<g id="edge35" class="edge"><title>Node25&#45;&gt;Node29</title>
<path fill="none" stroke="midnightblue" d="M735.421,-235.475C732.855,-226.992 728.835,-213.704 725.543,-202.822"/>
<polygon fill="midnightblue" stroke="midnightblue" points="728.82,-201.567 722.574,-193.009 722.12,-203.594 728.82,-201.567"/>
</g>
<!-- Node30 -->
<g id="node30" class="node"><title>Node30</title>
<polygon fill="white" stroke="#bfbfbf" points="769.5,-168.5 769.5,-198.5 914.5,-198.5 914.5,-168.5 769.5,-168.5"/>
<text text-anchor="start" x="777.5" y="-186.5" font-family="Helvetica,sans-Serif" font-size="10.00">unsupported/Eigen/Aligned</text>
<text text-anchor="middle" x="842" y="-175.5" font-family="Helvetica,sans-Serif" font-size="10.00">Vector3</text>
</g>
<!-- Node25&#45;&gt;Node30 -->
<g id="edge36" class="edge"><title>Node25&#45;&gt;Node30</title>
<path fill="none" stroke="midnightblue" d="M752.901,-235.475C767.381,-227.191 789.87,-214.325 808.63,-203.591"/>
<polygon fill="midnightblue" stroke="midnightblue" points="810.547,-206.527 817.489,-198.523 807.071,-200.451 810.547,-206.527"/>
</g>
<!-- Node31 -->
<g id="node31" class="node"><title>Node31</title>
<g id="a_node31"><a xlink:href="Math_8hpp.html" target="_top" xlink:title="Core/Math/Math.hpp">
<polygon fill="white" stroke="black" points="1100,-174 1100,-193 1214,-193 1214,-174 1100,-174"/>
<text text-anchor="middle" x="1157" y="-181" font-family="Helvetica,sans-Serif" font-size="10.00">Core/Math/Math.hpp</text>
</a>
</g>
</g>
<!-- Node25&#45;&gt;Node31 -->
<g id="edge37" class="edge"><title>Node25&#45;&gt;Node31</title>
<path fill="none" stroke="midnightblue" d="M816.231,-235.95C887.754,-228.128 996.341,-215.091 1090,-199 1096.62,-197.863 1103.58,-196.522 1110.4,-195.123"/>
<polygon fill="midnightblue" stroke="midnightblue" points="1111.19,-198.535 1120.25,-193.049 1109.74,-191.685 1111.19,-198.535"/>
</g>
<!-- Node35 -->
<g id="node35" class="node"><title>Node35</title>
<g id="a_node35"><a xlink:href="LinearAlgebra_8inl.html" target="_top" xlink:title="Core/Math/LinearAlgebra.inl">
<polygon fill="white" stroke="black" points="932.5,-174 932.5,-193 1081.5,-193 1081.5,-174 932.5,-174"/>
<text text-anchor="middle" x="1007" y="-181" font-family="Helvetica,sans-Serif" font-size="10.00">Core/Math/LinearAlgebra.inl</text>
</a>
</g>
</g>
<!-- Node25&#45;&gt;Node35 -->
<g id="edge43" class="edge"><title>Node25&#45;&gt;Node35</title>
<path fill="none" stroke="midnightblue" d="M776.541,-235.475C824.482,-224.871 906.361,-206.76 958.515,-195.224"/>
<polygon fill="midnightblue" stroke="midnightblue" points="959.522,-198.586 968.53,-193.009 958.01,-191.751 959.522,-198.586"/>
</g>
<!-- Node31&#45;&gt;Node24 -->
<g id="edge38" class="edge"><title>Node31&#45;&gt;Node24</title>
<path fill="none" stroke="midnightblue" d="M1122.76,-173.992C1112.3,-171.692 1100.73,-169.442 1090,-168 802.163,-129.32 454.074,-123.632 317.275,-122.979"/>
<polygon fill="midnightblue" stroke="midnightblue" points="317.033,-119.478 307.019,-122.937 317.004,-126.478 317.033,-119.478"/>
</g>
<!-- Node32 -->
<g id="node32" class="node"><title>Node32</title>
<polygon fill="white" stroke="#bfbfbf" points="958,-112.5 958,-131.5 1020,-131.5 1020,-112.5 958,-112.5"/>
<text text-anchor="middle" x="989" y="-119.5" font-family="Helvetica,sans-Serif" font-size="10.00">algorithm</text>
</g>
<!-- Node31&#45;&gt;Node32 -->
<g id="edge39" class="edge"><title>Node31&#45;&gt;Node32</title>
<path fill="none" stroke="midnightblue" d="M1132.93,-173.975C1103.99,-163.725 1055.24,-146.459 1022.6,-134.899"/>
<polygon fill="midnightblue" stroke="midnightblue" points="1023.62,-131.548 1013.03,-131.509 1021.28,-138.147 1023.62,-131.548"/>
</g>
<!-- Node33 -->
<g id="node33" class="node"><title>Node33</title>
<polygon fill="white" stroke="#bfbfbf" points="1038.5,-112.5 1038.5,-131.5 1085.5,-131.5 1085.5,-112.5 1038.5,-112.5"/>
<text text-anchor="middle" x="1062" y="-119.5" font-family="Helvetica,sans-Serif" font-size="10.00">cmath</text>
</g>
<!-- Node31&#45;&gt;Node33 -->
<g id="edge40" class="edge"><title>Node31&#45;&gt;Node33</title>
<path fill="none" stroke="midnightblue" d="M1143.39,-173.975C1127.94,-164.299 1102.51,-148.372 1084.18,-136.894"/>
<polygon fill="midnightblue" stroke="midnightblue" points="1085.92,-133.851 1075.59,-131.509 1082.2,-139.783 1085.92,-133.851"/>
</g>
<!-- Node34 -->
<g id="node34" class="node"><title>Node34</title>
<g id="a_node34"><a xlink:href="Math_8inl.html" target="_top" xlink:title="Core/Math/Math.inl">
<polygon fill="white" stroke="black" points="1103.5,-112.5 1103.5,-131.5 1210.5,-131.5 1210.5,-112.5 1103.5,-112.5"/>
<text text-anchor="middle" x="1157" y="-119.5" font-family="Helvetica,sans-Serif" font-size="10.00">Core/Math/Math.inl</text>
</a>
</g>
</g>
<!-- Node31&#45;&gt;Node34 -->
<g id="edge41" class="edge"><title>Node31&#45;&gt;Node34</title>
<path fill="none" stroke="midnightblue" d="M1152.1,-173.975C1150.27,-165.58 1149.8,-152.481 1150.69,-141.663"/>
<polygon fill="midnightblue" stroke="midnightblue" points="1154.19,-141.897 1152.1,-131.509 1147.25,-140.929 1154.19,-141.897"/>
</g>
<!-- Node34&#45;&gt;Node31 -->
<g id="edge42" class="edge"><title>Node34&#45;&gt;Node31</title>
<path fill="none" stroke="midnightblue" d="M1161.9,-131.509C1163.73,-139.898 1164.2,-152.996 1163.32,-163.817"/>
<polygon fill="midnightblue" stroke="midnightblue" points="1159.81,-163.588 1161.9,-173.975 1166.75,-164.554 1159.81,-163.588"/>
</g>
<!-- Node36&#45;&gt;Node21 -->
<g id="edge46" class="edge"><title>Node36&#45;&gt;Node21</title>
<path fill="none" stroke="midnightblue" d="M405.24,-235.475C387.024,-225.622 356.827,-209.288 335.532,-197.77"/>
<polygon fill="midnightblue" stroke="midnightblue" points="337.192,-194.688 326.731,-193.009 333.862,-200.845 337.192,-194.688"/>
</g>
<!-- Node36&#45;&gt;Node24 -->
<g id="edge45" class="edge"><title>Node36&#45;&gt;Node24</title>
<path fill="none" stroke="midnightblue" d="M378.308,-235.487C341.105,-227.232 290.977,-213.811 277,-199 262.59,-183.73 258.65,-159.24 257.793,-142.202"/>
<polygon fill="midnightblue" stroke="midnightblue" points="261.285,-141.736 257.601,-131.802 254.286,-141.865 261.285,-141.736"/>
</g>
<!-- Node37&#45;&gt;Node2 -->
<g id="edge48" class="edge"><title>Node37&#45;&gt;Node2</title>
<path fill="none" stroke="midnightblue" d="M191.981,-291.385C175.606,-283.401 158.34,-271.615 149,-255 117.897,-199.668 141.954,-120.277 155.446,-85.0346"/>
<polygon fill="midnightblue" stroke="midnightblue" points="158.76,-86.175 159.222,-75.5903 152.26,-83.5767 158.76,-86.175"/>
</g>
</g>
</svg>
