<?xml version="1.0" encoding="UTF-8" standalone="no"?>
<!DOCTYPE svg PUBLIC "-//W3C//DTD SVG 1.1//EN"
 "http://www.w3.org/Graphics/SVG/1.1/DTD/svg11.dtd">
<!-- Generated by graphviz version 2.38.0 (20140413.2041)
 -->
<!-- Title: /home/travis/build/STORM&#45;IRIT/Radium&#45;Engine/src/Core/Mesh/MeshUtils.hpp Pages: 1 -->
<svg width="3743pt" height="395pt"
 viewBox="0.00 0.00 3742.50 395.00" xmlns="http://www.w3.org/2000/svg" xmlns:xlink="http://www.w3.org/1999/xlink">
<g id="graph0" class="graph" transform="scale(1 1) rotate(0) translate(4 391)">
<title>/home/travis/build/STORM&#45;IRIT/Radium&#45;Engine/src/Core/Mesh/MeshUtils.hpp</title>
<polygon fill="white" stroke="none" points="-4,4 -4,-391 3738.5,-391 3738.5,4 -4,4"/>
<!-- Node1 -->
<g id="node1" class="node"><title>Node1</title>
<polygon fill="#bfbfbf" stroke="black" points="1843.5,-345.5 1843.5,-386.5 2001.5,-386.5 2001.5,-345.5 1843.5,-345.5"/>
<text text-anchor="start" x="1851.5" y="-374.5" font-family="Helvetica,sans-Serif" font-size="10.00">/home/travis/build</text>
<text text-anchor="start" x="1851.5" y="-363.5" font-family="Helvetica,sans-Serif" font-size="10.00">/STORM&#45;IRIT/Radium&#45;Engine</text>
<text text-anchor="middle" x="1922.5" y="-352.5" font-family="Helvetica,sans-Serif" font-size="10.00">/src/Core/Mesh/MeshUtils.hpp</text>
</g>
<!-- Node2 -->
<g id="node2" class="node"><title>Node2</title>
<g id="a_node2"><a xlink:href="RotationCenterSkinning_8cpp.html" target="_top" xlink:title="/home/travis/build\l/STORM&#45;IRIT/Radium&#45;Engine\l/src/Core/Animation/Skinning\l/RotationCenterSkinning.cpp">
<polygon fill="white" stroke="black" points="441,-256.5 441,-308.5 596,-308.5 596,-256.5 441,-256.5"/>
<text text-anchor="start" x="449" y="-296.5" font-family="Helvetica,sans-Serif" font-size="10.00">/home/travis/build</text>
<text text-anchor="start" x="449" y="-285.5" font-family="Helvetica,sans-Serif" font-size="10.00">/STORM&#45;IRIT/Radium&#45;Engine</text>
<text text-anchor="start" x="449" y="-274.5" font-family="Helvetica,sans-Serif" font-size="10.00">/src/Core/Animation/Skinning</text>
<text text-anchor="middle" x="518.5" y="-263.5" font-family="Helvetica,sans-Serif" font-size="10.00">/RotationCenterSkinning.cpp</text>
</a>
</g>
</g>
<!-- Node1&#45;&gt;Node2 -->
<g id="edge1" class="edge"><title>Node1&#45;&gt;Node2</title>
<path fill="none" stroke="midnightblue" d="M1833.35,-364.063C1577.12,-360.917 841.774,-348.597 604.5,-309 601.735,-308.539 598.934,-308.016 596.115,-307.443"/>
<polygon fill="midnightblue" stroke="midnightblue" points="1833.32,-367.563 1843.37,-364.184 1833.41,-360.563 1833.32,-367.563"/>
</g>
<!-- Node3 -->
<g id="node3" class="node"><title>Node3</title>
<g id="a_node3"><a xlink:href="DistanceQueries_8inl.html" target="_top" xlink:title="/home/travis/build\l/STORM&#45;IRIT/Radium&#45;Engine\l/src/Core/Geometry/Distance\l/DistanceQueries.inl">
<polygon fill="white" stroke="black" points="614,-256.5 614,-308.5 769,-308.5 769,-256.5 614,-256.5"/>
<text text-anchor="start" x="622" y="-296.5" font-family="Helvetica,sans-Serif" font-size="10.00">/home/travis/build</text>
<text text-anchor="start" x="622" y="-285.5" font-family="Helvetica,sans-Serif" font-size="10.00">/STORM&#45;IRIT/Radium&#45;Engine</text>
<text text-anchor="start" x="622" y="-274.5" font-family="Helvetica,sans-Serif" font-size="10.00">/src/Core/Geometry/Distance</text>
<text text-anchor="middle" x="691.5" y="-263.5" font-family="Helvetica,sans-Serif" font-size="10.00">/DistanceQueries.inl</text>
</a>
</g>
</g>
<!-- Node1&#45;&gt;Node3 -->
<g id="edge2" class="edge"><title>Node1&#45;&gt;Node3</title>
<path fill="none" stroke="midnightblue" d="M1833.22,-359.307C1676.84,-349.31 1343.21,-327.869 1061.5,-309 960.475,-302.233 843.955,-294.158 769.094,-288.935"/>
<polygon fill="midnightblue" stroke="midnightblue" points="1833.05,-362.804 1843.26,-359.949 1833.5,-355.818 1833.05,-362.804"/>
</g>
<!-- Node9 -->
<g id="node9" class="node"><title>Node9</title>
<g id="a_node9"><a xlink:href="MeshPrimitives_8inl.html" target="_top" xlink:title="/home/travis/build\l/STORM&#45;IRIT/Radium&#45;Engine\l/src/Core/Mesh/MeshPrimitives.inl">
<polygon fill="white" stroke="black" points="1070.5,-262 1070.5,-303 1246.5,-303 1246.5,-262 1070.5,-262"/>
<text text-anchor="start" x="1078.5" y="-291" font-family="Helvetica,sans-Serif" font-size="10.00">/home/travis/build</text>
<text text-anchor="start" x="1078.5" y="-280" font-family="Helvetica,sans-Serif" font-size="10.00">/STORM&#45;IRIT/Radium&#45;Engine</text>
<text text-anchor="middle" x="1158.5" y="-269" font-family="Helvetica,sans-Serif" font-size="10.00">/src/Core/Mesh/MeshPrimitives.inl</text>
</a>
</g>
</g>
<!-- Node1&#45;&gt;Node9 -->
<g id="edge10" class="edge"><title>Node1&#45;&gt;Node9</title>
<path fill="none" stroke="midnightblue" d="M1833.21,-361.683C1706.17,-355.994 1466.29,-341.666 1264.5,-309 1254.41,-307.367 1243.86,-305.288 1233.49,-303.024"/>
<polygon fill="midnightblue" stroke="midnightblue" points="1833.13,-365.183 1843.28,-362.126 1833.44,-358.19 1833.13,-365.183"/>
</g>
<!-- Node14 -->
<g id="node14" class="node"><title>Node14</title>
<g id="a_node14"><a xlink:href="DrawPrimitives_8cpp.html" target="_top" xlink:title="/home/travis/build\l/STORM&#45;IRIT/Radium&#45;Engine\l/src/Engine/Renderer/RenderObject\l/Primitives/DrawPrimitives.cpp">
<polygon fill="white" stroke="black" points="1814.5,-78.5 1814.5,-130.5 1996.5,-130.5 1996.5,-78.5 1814.5,-78.5"/>
<text text-anchor="start" x="1822.5" y="-118.5" font-family="Helvetica,sans-Serif" font-size="10.00">/home/travis/build</text>
<text text-anchor="start" x="1822.5" y="-107.5" font-family="Helvetica,sans-Serif" font-size="10.00">/STORM&#45;IRIT/Radium&#45;Engine</text>
<text text-anchor="start" x="1822.5" y="-96.5" font-family="Helvetica,sans-Serif" font-size="10.00">/src/Engine/Renderer/RenderObject</text>
<text text-anchor="middle" x="1905.5" y="-85.5" font-family="Helvetica,sans-Serif" font-size="10.00">/Primitives/DrawPrimitives.cpp</text>
</a>
</g>
</g>
<!-- Node1&#45;&gt;Node14 -->
<g id="edge30" class="edge"><title>Node1&#45;&gt;Node14</title>
<path fill="none" stroke="midnightblue" d="M1833.29,-363.527C1669.2,-359.886 1332.92,-347.734 1297.5,-309 1136.34,-132.757 1572.17,-186.292 1804.5,-131 1807.75,-130.225 1811.07,-129.43 1814.41,-128.62"/>
<polygon fill="midnightblue" stroke="midnightblue" points="1833.3,-367.027 1843.37,-363.744 1833.45,-360.029 1833.3,-367.027"/>
</g>
<!-- Node19 -->
<g id="node19" class="node"><title>Node19</title>
<g id="a_node19"><a xlink:href="MeshUtils_8cpp.html" target="_top" xlink:title="/home/travis/build\l/STORM&#45;IRIT/Radium&#45;Engine\l/src/Core/Mesh/MeshUtils.cpp">
<polygon fill="white" stroke="black" points="1306.5,-262 1306.5,-303 1464.5,-303 1464.5,-262 1306.5,-262"/>
<text text-anchor="start" x="1314.5" y="-291" font-family="Helvetica,sans-Serif" font-size="10.00">/home/travis/build</text>
<text text-anchor="start" x="1314.5" y="-280" font-family="Helvetica,sans-Serif" font-size="10.00">/STORM&#45;IRIT/Radium&#45;Engine</text>
<text text-anchor="middle" x="1385.5" y="-269" font-family="Helvetica,sans-Serif" font-size="10.00">/src/Core/Mesh/MeshUtils.cpp</text>
</a>
</g>
</g>
<!-- Node1&#45;&gt;Node19 -->
<g id="edge21" class="edge"><title>Node1&#45;&gt;Node19</title>
<path fill="none" stroke="midnightblue" d="M1833.19,-358.048C1742.1,-349.98 1596.98,-334.424 1473.5,-309 1465.4,-307.332 1456.96,-305.289 1448.65,-303.093"/>
<polygon fill="midnightblue" stroke="midnightblue" points="1832.94,-361.539 1843.21,-358.924 1833.55,-354.566 1832.94,-361.539"/>
</g>
<!-- Node20 -->
<g id="node20" class="node"><title>Node20</title>
<g id="a_node20"><a xlink:href="MeshUtils_8inl.html" target="_top" xlink:title="/home/travis/build\l/STORM&#45;IRIT/Radium&#45;Engine\l/src/Core/Mesh/MeshUtils.inl">
<polygon fill="white" stroke="black" points="1483,-262 1483,-303 1634,-303 1634,-262 1483,-262"/>
<text text-anchor="start" x="1491" y="-291" font-family="Helvetica,sans-Serif" font-size="10.00">/home/travis/build</text>
<text text-anchor="start" x="1491" y="-280" font-family="Helvetica,sans-Serif" font-size="10.00">/STORM&#45;IRIT/Radium&#45;Engine</text>
<text text-anchor="middle" x="1558.5" y="-269" font-family="Helvetica,sans-Serif" font-size="10.00">/src/Core/Mesh/MeshUtils.inl</text>
</a>
</g>
</g>
<!-- Node1&#45;&gt;Node20 -->
<g id="edge22" class="edge"><title>Node1&#45;&gt;Node20</title>
<path fill="none" stroke="midnightblue" d="M1833.25,-350.692C1776,-340.394 1700.4,-325.461 1634.5,-309 1627.33,-307.208 1619.85,-305.191 1612.51,-303.098"/>
<polygon fill="midnightblue" stroke="midnightblue" points="1832.9,-354.185 1843.36,-352.496 1834.13,-347.294 1832.9,-354.185"/>
</g>
<!-- Node21 -->
<g id="node21" class="node"><title>Node21</title>
<g id="a_node21"><a xlink:href="BVH_8inl.html" target="_top" xlink:title="/home/travis/build\l/STORM&#45;IRIT/Radium&#45;Engine\l/src/Core/TreeStructures\l/BVH.inl">
<polygon fill="white" stroke="black" points="1652.5,-256.5 1652.5,-308.5 1800.5,-308.5 1800.5,-256.5 1652.5,-256.5"/>
<text text-anchor="start" x="1660.5" y="-296.5" font-family="Helvetica,sans-Serif" font-size="10.00">/home/travis/build</text>
<text text-anchor="start" x="1660.5" y="-285.5" font-family="Helvetica,sans-Serif" font-size="10.00">/STORM&#45;IRIT/Radium&#45;Engine</text>
<text text-anchor="start" x="1660.5" y="-274.5" font-family="Helvetica,sans-Serif" font-size="10.00">/src/Core/TreeStructures</text>
<text text-anchor="middle" x="1726.5" y="-263.5" font-family="Helvetica,sans-Serif" font-size="10.00">/BVH.inl</text>
</a>
</g>
</g>
<!-- Node1&#45;&gt;Node21 -->
<g id="edge24" class="edge"><title>Node1&#45;&gt;Node21</title>
<path fill="none" stroke="midnightblue" d="M1866.26,-341.613C1841.39,-331.275 1812.12,-319.103 1786.81,-308.576"/>
<polygon fill="midnightblue" stroke="midnightblue" points="1864.98,-344.871 1875.55,-345.479 1867.66,-338.407 1864.98,-344.871"/>
</g>
<!-- Node23 -->
<g id="node23" class="node"><title>Node23</title>
<g id="a_node23"><a xlink:href="Component_8cpp.html" target="_top" xlink:title="/home/travis/build\l/STORM&#45;IRIT/Radium&#45;Engine\l/src/Engine/Component/Component.cpp">
<polygon fill="white" stroke="black" points="1818.5,-262 1818.5,-303 2026.5,-303 2026.5,-262 1818.5,-262"/>
<text text-anchor="start" x="1826.5" y="-291" font-family="Helvetica,sans-Serif" font-size="10.00">/home/travis/build</text>
<text text-anchor="start" x="1826.5" y="-280" font-family="Helvetica,sans-Serif" font-size="10.00">/STORM&#45;IRIT/Radium&#45;Engine</text>
<text text-anchor="middle" x="1922.5" y="-269" font-family="Helvetica,sans-Serif" font-size="10.00">/src/Engine/Component/Component.cpp</text>
</a>
</g>
</g>
<!-- Node1&#45;&gt;Node23 -->
<g id="edge27" class="edge"><title>Node1&#45;&gt;Node23</title>
<path fill="none" stroke="midnightblue" d="M1922.5,-335.065C1922.5,-324.382 1922.5,-312.63 1922.5,-303.047"/>
<polygon fill="midnightblue" stroke="midnightblue" points="1919,-335.271 1922.5,-345.271 1926,-335.271 1919,-335.271"/>
</g>
<!-- Node24 -->
<g id="node24" class="node"><title>Node24</title>
<g id="a_node24"><a xlink:href="GeometryComponent_8cpp.html" target="_top" xlink:title="/home/travis/build\l/STORM&#45;IRIT/Radium&#45;Engine\l/src/Engine/Component/GeometryComponent.cpp">
<polygon fill="white" stroke="black" points="2044.5,-262 2044.5,-303 2300.5,-303 2300.5,-262 2044.5,-262"/>
<text text-anchor="start" x="2052.5" y="-291" font-family="Helvetica,sans-Serif" font-size="10.00">/home/travis/build</text>
<text text-anchor="start" x="2052.5" y="-280" font-family="Helvetica,sans-Serif" font-size="10.00">/STORM&#45;IRIT/Radium&#45;Engine</text>
<text text-anchor="middle" x="2172.5" y="-269" font-family="Helvetica,sans-Serif" font-size="10.00">/src/Engine/Component/GeometryComponent.cpp</text>
</a>
</g>
</g>
<!-- Node1&#45;&gt;Node24 -->
<g id="edge28" class="edge"><title>Node1&#45;&gt;Node24</title>
<path fill="none" stroke="midnightblue" d="M1992.32,-342.24C2030.17,-329.898 2076.48,-314.801 2112.67,-303.003"/>
<polygon fill="midnightblue" stroke="midnightblue" points="1990.8,-339.052 1982.38,-345.479 1992.97,-345.707 1990.8,-339.052"/>
</g>
<!-- Node25 -->
<g id="node25" class="node"><title>Node25</title>
<g id="a_node25"><a xlink:href="Mesh_8cpp.html" target="_top" xlink:title="/home/travis/build\l/STORM&#45;IRIT/Radium&#45;Engine\l/src/Engine/Renderer/Mesh\l/Mesh.cpp">
<polygon fill="white" stroke="black" points="2318.5,-256.5 2318.5,-308.5 2466.5,-308.5 2466.5,-256.5 2318.5,-256.5"/>
<text text-anchor="start" x="2326.5" y="-296.5" font-family="Helvetica,sans-Serif" font-size="10.00">/home/travis/build</text>
<text text-anchor="start" x="2326.5" y="-285.5" font-family="Helvetica,sans-Serif" font-size="10.00">/STORM&#45;IRIT/Radium&#45;Engine</text>
<text text-anchor="start" x="2326.5" y="-274.5" font-family="Helvetica,sans-Serif" font-size="10.00">/src/Engine/Renderer/Mesh</text>
<text text-anchor="middle" x="2392.5" y="-263.5" font-family="Helvetica,sans-Serif" font-size="10.00">/Mesh.cpp</text>
</a>
</g>
</g>
<!-- Node1&#45;&gt;Node25 -->
<g id="edge29" class="edge"><title>Node1&#45;&gt;Node25</title>
<path fill="none" stroke="midnightblue" d="M2012.11,-356.006C2091,-347.146 2208.71,-331.633 2309.5,-309 2312.44,-308.339 2315.43,-307.626 2318.44,-306.873"/>
<polygon fill="midnightblue" stroke="midnightblue" points="2011.27,-352.577 2001.72,-357.159 2012.04,-359.534 2011.27,-352.577"/>
</g>
<!-- Node26 -->
<g id="node26" class="node"><title>Node26</title>
<g id="a_node26"><a xlink:href="RenderObject_8cpp.html" target="_top" xlink:title="/home/travis/build\l/STORM&#45;IRIT/Radium&#45;Engine\l/src/Engine/Renderer/RenderObject\l/RenderObject.cpp">
<polygon fill="white" stroke="black" points="2484.5,-256.5 2484.5,-308.5 2666.5,-308.5 2666.5,-256.5 2484.5,-256.5"/>
<text text-anchor="start" x="2492.5" y="-296.5" font-family="Helvetica,sans-Serif" font-size="10.00">/home/travis/build</text>
<text text-anchor="start" x="2492.5" y="-285.5" font-family="Helvetica,sans-Serif" font-size="10.00">/STORM&#45;IRIT/Radium&#45;Engine</text>
<text text-anchor="start" x="2492.5" y="-274.5" font-family="Helvetica,sans-Serif" font-size="10.00">/src/Engine/Renderer/RenderObject</text>
<text text-anchor="middle" x="2575.5" y="-263.5" font-family="Helvetica,sans-Serif" font-size="10.00">/RenderObject.cpp</text>
</a>
</g>
</g>
<!-- Node1&#45;&gt;Node26 -->
<g id="edge31" class="edge"><title>Node1&#45;&gt;Node26</title>
<path fill="none" stroke="midnightblue" d="M2011.81,-360.056C2121.6,-353.038 2313.33,-337.723 2475.5,-309 2478.41,-308.484 2481.36,-307.929 2484.34,-307.342"/>
<polygon fill="midnightblue" stroke="midnightblue" points="2011.52,-356.567 2001.77,-360.689 2011.97,-363.553 2011.52,-356.567"/>
</g>
<!-- Node27 -->
<g id="node27" class="node"><title>Node27</title>
<g id="a_node27"><a xlink:href="BaseApplication_8cpp.html" target="_top" xlink:title="/home/travis/build\l/STORM&#45;IRIT/Radium&#45;Engine\l/src/GuiBase/BaseApplication.cpp">
<polygon fill="white" stroke="black" points="2684.5,-262 2684.5,-303 2860.5,-303 2860.5,-262 2684.5,-262"/>
<text text-anchor="start" x="2692.5" y="-291" font-family="Helvetica,sans-Serif" font-size="10.00">/home/travis/build</text>
<text text-anchor="start" x="2692.5" y="-280" font-family="Helvetica,sans-Serif" font-size="10.00">/STORM&#45;IRIT/Radium&#45;Engine</text>
<text text-anchor="middle" x="2772.5" y="-269" font-family="Helvetica,sans-Serif" font-size="10.00">/src/GuiBase/BaseApplication.cpp</text>
</a>
</g>
</g>
<!-- Node1&#45;&gt;Node27 -->
<g id="edge32" class="edge"><title>Node1&#45;&gt;Node27</title>
<path fill="none" stroke="midnightblue" d="M2012.03,-363.622C2153.75,-360.259 2438.04,-348.699 2675.5,-309 2684.95,-307.421 2694.81,-305.343 2704.48,-303.054"/>
<polygon fill="midnightblue" stroke="midnightblue" points="2011.58,-360.132 2001.66,-363.86 2011.74,-367.13 2011.58,-360.132"/>
</g>
<!-- Node28 -->
<g id="node28" class="node"><title>Node28</title>
<g id="a_node28"><a xlink:href="SkeletonBoneDrawable_8hpp.html" target="_top" xlink:title="/home/travis/build\l/STORM&#45;IRIT/Radium&#45;Engine\l/Plugins/Animation/src/Drawing\l/SkeletonBoneDrawable.hpp">
<polygon fill="white" stroke="black" points="2878.5,-256.5 2878.5,-308.5 3042.5,-308.5 3042.5,-256.5 2878.5,-256.5"/>
<text text-anchor="start" x="2886.5" y="-296.5" font-family="Helvetica,sans-Serif" font-size="10.00">/home/travis/build</text>
<text text-anchor="start" x="2886.5" y="-285.5" font-family="Helvetica,sans-Serif" font-size="10.00">/STORM&#45;IRIT/Radium&#45;Engine</text>
<text text-anchor="start" x="2886.5" y="-274.5" font-family="Helvetica,sans-Serif" font-size="10.00">/Plugins/Animation/src/Drawing</text>
<text text-anchor="middle" x="2960.5" y="-263.5" font-family="Helvetica,sans-Serif" font-size="10.00">/SkeletonBoneDrawable.hpp</text>
</a>
</g>
</g>
<!-- Node1&#45;&gt;Node28 -->
<g id="edge33" class="edge"><title>Node1&#45;&gt;Node28</title>
<path fill="none" stroke="midnightblue" d="M2011.56,-362.17C2214.45,-355.327 2706.07,-336.404 2869.5,-309 2872.41,-308.512 2875.37,-307.966 2878.34,-307.373"/>
<polygon fill="midnightblue" stroke="midnightblue" points="2011.41,-358.673 2001.53,-362.506 2011.64,-365.669 2011.41,-358.673"/>
</g>
<!-- Node32 -->
<g id="node32" class="node"><title>Node32</title>
<g id="a_node32"><a xlink:href="DummyComponent_8cpp.html" target="_top" xlink:title="/home/travis/build\l/STORM&#45;IRIT/Radium&#45;Engine\l/Plugins/Dummy/src/DummyComponent.cpp">
<polygon fill="white" stroke="black" points="3060.5,-262 3060.5,-303 3290.5,-303 3290.5,-262 3060.5,-262"/>
<text text-anchor="start" x="3068.5" y="-291" font-family="Helvetica,sans-Serif" font-size="10.00">/home/travis/build</text>
<text text-anchor="start" x="3068.5" y="-280" font-family="Helvetica,sans-Serif" font-size="10.00">/STORM&#45;IRIT/Radium&#45;Engine</text>
<text text-anchor="middle" x="3175.5" y="-269" font-family="Helvetica,sans-Serif" font-size="10.00">/Plugins/Dummy/src/DummyComponent.cpp</text>
</a>
</g>
</g>
<!-- Node1&#45;&gt;Node32 -->
<g id="edge37" class="edge"><title>Node1&#45;&gt;Node32</title>
<path fill="none" stroke="midnightblue" d="M2011.57,-365.207C2202.8,-364.639 2666.58,-357.832 3051.5,-309 3063.71,-307.451 3076.51,-305.359 3089.06,-303.037"/>
<polygon fill="midnightblue" stroke="midnightblue" points="2011.56,-361.707 2001.57,-365.232 2011.58,-368.707 2011.56,-361.707"/>
</g>
<!-- Node33 -->
<g id="node33" class="node"><title>Node33</title>
<g id="a_node33"><a xlink:href="MeshPaintComponent_8cpp.html" target="_top" xlink:title="/home/travis/build\l/STORM&#45;IRIT/Radium&#45;Engine\l/Plugins/MeshPaint/src/MeshPaint\lComponent.cpp">
<polygon fill="white" stroke="black" points="3308.5,-256.5 3308.5,-308.5 3482.5,-308.5 3482.5,-256.5 3308.5,-256.5"/>
<text text-anchor="start" x="3316.5" y="-296.5" font-family="Helvetica,sans-Serif" font-size="10.00">/home/travis/build</text>
<text text-anchor="start" x="3316.5" y="-285.5" font-family="Helvetica,sans-Serif" font-size="10.00">/STORM&#45;IRIT/Radium&#45;Engine</text>
<text text-anchor="start" x="3316.5" y="-274.5" font-family="Helvetica,sans-Serif" font-size="10.00">/Plugins/MeshPaint/src/MeshPaint</text>
<text text-anchor="middle" x="3395.5" y="-263.5" font-family="Helvetica,sans-Serif" font-size="10.00">Component.cpp</text>
</a>
</g>
</g>
<!-- Node1&#45;&gt;Node33 -->
<g id="edge38" class="edge"><title>Node1&#45;&gt;Node33</title>
<path fill="none" stroke="midnightblue" d="M2011.84,-363.92C2275.9,-360.323 3049.85,-346.765 3299.5,-309 3302.4,-308.562 3305.34,-308.069 3308.29,-307.531"/>
<polygon fill="midnightblue" stroke="midnightblue" points="2011.49,-360.424 2001.53,-364.059 2011.58,-367.424 2011.49,-360.424"/>
</g>
<!-- Node34 -->
<g id="node34" class="node"><title>Node34</title>
<g id="a_node34"><a xlink:href="SkinningComponent_8cpp.html" target="_top" xlink:title="/home/travis/build\l/STORM&#45;IRIT/Radium&#45;Engine\l/Plugins/Skinning/src/SkinningComponent.cpp">
<polygon fill="white" stroke="black" points="3500.5,-262 3500.5,-303 3734.5,-303 3734.5,-262 3500.5,-262"/>
<text text-anchor="start" x="3508.5" y="-291" font-family="Helvetica,sans-Serif" font-size="10.00">/home/travis/build</text>
<text text-anchor="start" x="3508.5" y="-280" font-family="Helvetica,sans-Serif" font-size="10.00">/STORM&#45;IRIT/Radium&#45;Engine</text>
<text text-anchor="middle" x="3617.5" y="-269" font-family="Helvetica,sans-Serif" font-size="10.00">/Plugins/Skinning/src/SkinningComponent.cpp</text>
</a>
</g>
</g>
<!-- Node1&#45;&gt;Node34 -->
<g id="edge39" class="edge"><title>Node1&#45;&gt;Node34</title>
<path fill="none" stroke="midnightblue" d="M2012.03,-363.736C2300.22,-359.365 3201.89,-343.239 3491.5,-309 3504.24,-307.493 3517.62,-305.377 3530.7,-303.001"/>
<polygon fill="midnightblue" stroke="midnightblue" points="2011.57,-360.243 2001.63,-363.893 2011.68,-367.242 2011.57,-360.243"/>
</g>
<!-- Node4 -->
<g id="node4" class="node"><title>Node4</title>
<g id="a_node4"><a xlink:href="DistanceQueries_8hpp.html" target="_top" xlink:title="/home/travis/build\l/STORM&#45;IRIT/Radium&#45;Engine\l/src/Core/Geometry/Distance\l/DistanceQueries.hpp">
<polygon fill="white" stroke="black" points="472,-167.5 472,-219.5 627,-219.5 627,-167.5 472,-167.5"/>
<text text-anchor="start" x="480" y="-207.5" font-family="Helvetica,sans-Serif" font-size="10.00">/home/travis/build</text>
<text text-anchor="start" x="480" y="-196.5" font-family="Helvetica,sans-Serif" font-size="10.00">/STORM&#45;IRIT/Radium&#45;Engine</text>
<text text-anchor="start" x="480" y="-185.5" font-family="Helvetica,sans-Serif" font-size="10.00">/src/Core/Geometry/Distance</text>
<text text-anchor="middle" x="549.5" y="-174.5" font-family="Helvetica,sans-Serif" font-size="10.00">/DistanceQueries.hpp</text>
</a>
</g>
</g>
<!-- Node3&#45;&gt;Node4 -->
<g id="edge3" class="edge"><title>Node3&#45;&gt;Node4</title>
<path fill="none" stroke="midnightblue" d="M635.362,-251.07C618.128,-240.788 599.687,-229.431 584.298,-219.607"/>
<polygon fill="midnightblue" stroke="midnightblue" points="633.855,-254.246 644.242,-256.336 637.425,-248.225 633.855,-254.246"/>
</g>
<!-- Node4&#45;&gt;Node3 -->
<g id="edge4" class="edge"><title>Node4&#45;&gt;Node3</title>
<path fill="none" stroke="midnightblue" d="M605.539,-224.87C622.768,-235.149 641.212,-246.507 656.614,-256.336"/>
<polygon fill="midnightblue" stroke="midnightblue" points="607.049,-221.697 596.662,-219.607 603.479,-227.718 607.049,-221.697"/>
</g>
<!-- Node5 -->
<g id="node5" class="node"><title>Node5</title>
<g id="a_node5"><a xlink:href="PolyLine_8hpp.html" target="_top" xlink:title="/home/travis/build\l/STORM&#45;IRIT/Radium&#45;Engine\l/src/Core/Math/PolyLine.hpp">
<polygon fill="white" stroke="black" points="167,-84 167,-125 316,-125 316,-84 167,-84"/>
<text text-anchor="start" x="175" y="-113" font-family="Helvetica,sans-Serif" font-size="10.00">/home/travis/build</text>
<text text-anchor="start" x="175" y="-102" font-family="Helvetica,sans-Serif" font-size="10.00">/STORM&#45;IRIT/Radium&#45;Engine</text>
<text text-anchor="middle" x="241.5" y="-91" font-family="Helvetica,sans-Serif" font-size="10.00">/src/Core/Math/PolyLine.hpp</text>
</a>
</g>
</g>
<!-- Node4&#45;&gt;Node5 -->
<g id="edge5" class="edge"><title>Node4&#45;&gt;Node5</title>
<path fill="none" stroke="midnightblue" d="M462.069,-169.078C420.607,-157.822 370.423,-143.983 325.5,-131 318.911,-129.096 312.044,-127.073 305.198,-125.033"/>
<polygon fill="midnightblue" stroke="midnightblue" points="461.298,-172.496 471.865,-171.734 463.13,-165.74 461.298,-172.496"/>
</g>
<!-- Node8 -->
<g id="node8" class="node"><title>Node8</title>
<g id="a_node8"><a xlink:href="trianglekdtree_8hpp.html" target="_top" xlink:title="/home/travis/build\l/STORM&#45;IRIT/Radium&#45;Engine\l/src/Core/TreeStructures\l/trianglekdtree.hpp">
<polygon fill="white" stroke="black" points="334.5,-78.5 334.5,-130.5 482.5,-130.5 482.5,-78.5 334.5,-78.5"/>
<text text-anchor="start" x="342.5" y="-118.5" font-family="Helvetica,sans-Serif" font-size="10.00">/home/travis/build</text>
<text text-anchor="start" x="342.5" y="-107.5" font-family="Helvetica,sans-Serif" font-size="10.00">/STORM&#45;IRIT/Radium&#45;Engine</text>
<text text-anchor="start" x="342.5" y="-96.5" font-family="Helvetica,sans-Serif" font-size="10.00">/src/Core/TreeStructures</text>
<text text-anchor="middle" x="408.5" y="-85.5" font-family="Helvetica,sans-Serif" font-size="10.00">/trianglekdtree.hpp</text>
</a>
</g>
</g>
<!-- Node4&#45;&gt;Node8 -->
<g id="edge9" class="edge"><title>Node4&#45;&gt;Node8</title>
<path fill="none" stroke="midnightblue" d="M500.183,-162.07C483.518,-151.788 465.112,-140.431 449.191,-130.607"/>
<polygon fill="midnightblue" stroke="midnightblue" points="498.369,-165.064 508.717,-167.336 502.044,-159.106 498.369,-165.064"/>
</g>
<!-- Node6 -->
<g id="node6" class="node"><title>Node6</title>
<g id="a_node6"><a xlink:href="PolyLine_8cpp.html" target="_top" xlink:title="/home/travis/build\l/STORM&#45;IRIT/Radium&#45;Engine\l/src/Core/Math/PolyLine.cpp">
<polygon fill="white" stroke="black" points="0,-0.5 0,-41.5 149,-41.5 149,-0.5 0,-0.5"/>
<text text-anchor="start" x="8" y="-29.5" font-family="Helvetica,sans-Serif" font-size="10.00">/home/travis/build</text>
<text text-anchor="start" x="8" y="-18.5" font-family="Helvetica,sans-Serif" font-size="10.00">/STORM&#45;IRIT/Radium&#45;Engine</text>
<text text-anchor="middle" x="74.5" y="-7.5" font-family="Helvetica,sans-Serif" font-size="10.00">/src/Core/Math/PolyLine.cpp</text>
</a>
</g>
</g>
<!-- Node5&#45;&gt;Node6 -->
<g id="edge6" class="edge"><title>Node5&#45;&gt;Node6</title>
<path fill="none" stroke="midnightblue" d="M192.262,-79.4705C167.475,-67.3741 137.816,-52.8995 114.463,-41.5031"/>
<polygon fill="midnightblue" stroke="midnightblue" points="190.977,-82.7383 201.499,-83.9787 194.047,-76.4474 190.977,-82.7383"/>
</g>
<!-- Node7 -->
<g id="node7" class="node"><title>Node7</title>
<g id="a_node7"><a xlink:href="PolyLine_8inl.html" target="_top" xlink:title="/home/travis/build\l/STORM&#45;IRIT/Radium&#45;Engine\l/src/Core/Math/PolyLine.inl">
<polygon fill="white" stroke="black" points="167.5,-0.5 167.5,-41.5 315.5,-41.5 315.5,-0.5 167.5,-0.5"/>
<text text-anchor="start" x="175.5" y="-29.5" font-family="Helvetica,sans-Serif" font-size="10.00">/home/travis/build</text>
<text text-anchor="start" x="175.5" y="-18.5" font-family="Helvetica,sans-Serif" font-size="10.00">/STORM&#45;IRIT/Radium&#45;Engine</text>
<text text-anchor="middle" x="241.5" y="-7.5" font-family="Helvetica,sans-Serif" font-size="10.00">/src/Core/Math/PolyLine.inl</text>
</a>
</g>
</g>
<!-- Node5&#45;&gt;Node7 -->
<g id="edge7" class="edge"><title>Node5&#45;&gt;Node7</title>
<path fill="none" stroke="midnightblue" d="M234.966,-73.5646C234.53,-62.8819 234.754,-51.1303 235.638,-41.5472"/>
<polygon fill="midnightblue" stroke="midnightblue" points="231.488,-74.0162 235.622,-83.7711 238.473,-73.5672 231.488,-74.0162"/>
</g>
<!-- Node7&#45;&gt;Node5 -->
<g id="edge8" class="edge"><title>Node7&#45;&gt;Node5</title>
<path fill="none" stroke="midnightblue" d="M248.026,-51.7332C248.47,-62.4023 248.254,-74.1607 247.378,-83.7711"/>
<polygon fill="midnightblue" stroke="midnightblue" points="251.505,-51.2982 247.362,-41.5472 244.52,-51.7538 251.505,-51.2982"/>
</g>
<!-- Node10 -->
<g id="node10" class="node"><title>Node10</title>
<g id="a_node10"><a xlink:href="MeshPrimitives_8hpp.html" target="_top" xlink:title="/home/travis/build\l/STORM&#45;IRIT/Radium&#45;Engine\l/src/Core/Mesh/MeshPrimitives.hpp">
<polygon fill="white" stroke="black" points="1066.5,-173 1066.5,-214 1250.5,-214 1250.5,-173 1066.5,-173"/>
<text text-anchor="start" x="1074.5" y="-202" font-family="Helvetica,sans-Serif" font-size="10.00">/home/travis/build</text>
<text text-anchor="start" x="1074.5" y="-191" font-family="Helvetica,sans-Serif" font-size="10.00">/STORM&#45;IRIT/Radium&#45;Engine</text>
<text text-anchor="middle" x="1158.5" y="-180" font-family="Helvetica,sans-Serif" font-size="10.00">/src/Core/Mesh/MeshPrimitives.hpp</text>
</a>
</g>
</g>
<!-- Node9&#45;&gt;Node10 -->
<g id="edge11" class="edge"><title>Node9&#45;&gt;Node10</title>
<path fill="none" stroke="midnightblue" d="M1152.04,-251.441C1151.49,-239.101 1151.72,-225.162 1152.75,-214.164"/>
<polygon fill="midnightblue" stroke="midnightblue" points="1148.58,-252.016 1152.74,-261.758 1155.56,-251.546 1148.58,-252.016"/>
</g>
<!-- Node10&#45;&gt;Node9 -->
<g id="edge13" class="edge"><title>Node10&#45;&gt;Node9</title>
<path fill="none" stroke="midnightblue" d="M1164.95,-224.472C1165.51,-236.803 1165.28,-250.746 1164.26,-261.758"/>
<polygon fill="midnightblue" stroke="midnightblue" points="1168.42,-223.904 1164.25,-214.164 1161.44,-224.377 1168.42,-223.904"/>
</g>
<!-- Node11 -->
<g id="node11" class="node"><title>Node11</title>
<g id="a_node11"><a xlink:href="MeshPrimitives_8cpp.html" target="_top" xlink:title="/home/travis/build\l/STORM&#45;IRIT/Radium&#45;Engine\l/src/Core/Mesh/MeshPrimitives.cpp">
<polygon fill="white" stroke="black" points="501,-84 501,-125 684,-125 684,-84 501,-84"/>
<text text-anchor="start" x="509" y="-113" font-family="Helvetica,sans-Serif" font-size="10.00">/home/travis/build</text>
<text text-anchor="start" x="509" y="-102" font-family="Helvetica,sans-Serif" font-size="10.00">/STORM&#45;IRIT/Radium&#45;Engine</text>
<text text-anchor="middle" x="592.5" y="-91" font-family="Helvetica,sans-Serif" font-size="10.00">/src/Core/Mesh/MeshPrimitives.cpp</text>
</a>
</g>
</g>
<!-- Node10&#45;&gt;Node11 -->
<g id="edge12" class="edge"><title>Node10&#45;&gt;Node11</title>
<path fill="none" stroke="midnightblue" d="M1056.1,-182.404C961.514,-172.264 817.349,-154.742 693.5,-131 684.442,-129.264 674.984,-127.207 665.646,-125.027"/>
<polygon fill="midnightblue" stroke="midnightblue" points="1055.92,-185.905 1066.24,-183.483 1056.66,-178.944 1055.92,-185.905"/>
</g>
<!-- Node12 -->
<g id="node12" class="node"><title>Node12</title>
<g id="a_node12"><a xlink:href="Renderer_8cpp.html" target="_top" xlink:title="/home/travis/build\l/STORM&#45;IRIT/Radium&#45;Engine\l/src/Engine/Renderer/Renderer.cpp">
<polygon fill="white" stroke="black" points="702.5,-84 702.5,-125 882.5,-125 882.5,-84 702.5,-84"/>
<text text-anchor="start" x="710.5" y="-113" font-family="Helvetica,sans-Serif" font-size="10.00">/home/travis/build</text>
<text text-anchor="start" x="710.5" y="-102" font-family="Helvetica,sans-Serif" font-size="10.00">/STORM&#45;IRIT/Radium&#45;Engine</text>
<text text-anchor="middle" x="792.5" y="-91" font-family="Helvetica,sans-Serif" font-size="10.00">/src/Engine/Renderer/Renderer.cpp</text>
</a>
</g>
</g>
<!-- Node10&#45;&gt;Node12 -->
<g id="edge14" class="edge"><title>Node10&#45;&gt;Node12</title>
<path fill="none" stroke="midnightblue" d="M1061.22,-170.724C1010.55,-159.222 947.606,-144.685 891.5,-131 883.741,-129.107 875.65,-127.092 867.585,-125.056"/>
<polygon fill="midnightblue" stroke="midnightblue" points="1060.66,-174.186 1071.19,-172.983 1062.21,-167.359 1060.66,-174.186"/>
</g>
<!-- Node13 -->
<g id="node13" class="node"><title>Node13</title>
<g id="a_node13"><a xlink:href="DebugRender_8cpp.html" target="_top" xlink:title="/home/travis/build\l/STORM&#45;IRIT/Radium&#45;Engine\l/src/Engine/Renderer/Renderers\l/DebugRender.cpp">
<polygon fill="white" stroke="black" points="900.5,-78.5 900.5,-130.5 1066.5,-130.5 1066.5,-78.5 900.5,-78.5"/>
<text text-anchor="start" x="908.5" y="-118.5" font-family="Helvetica,sans-Serif" font-size="10.00">/home/travis/build</text>
<text text-anchor="start" x="908.5" y="-107.5" font-family="Helvetica,sans-Serif" font-size="10.00">/STORM&#45;IRIT/Radium&#45;Engine</text>
<text text-anchor="start" x="908.5" y="-96.5" font-family="Helvetica,sans-Serif" font-size="10.00">/src/Engine/Renderer/Renderers</text>
<text text-anchor="middle" x="983.5" y="-85.5" font-family="Helvetica,sans-Serif" font-size="10.00">/DebugRender.cpp</text>
</a>
</g>
</g>
<!-- Node10&#45;&gt;Node13 -->
<g id="edge15" class="edge"><title>Node10&#45;&gt;Node13</title>
<path fill="none" stroke="midnightblue" d="M1110.07,-168.424C1086.39,-156.651 1057.9,-142.49 1033.96,-130.585"/>
<polygon fill="midnightblue" stroke="midnightblue" points="1108.71,-171.658 1119.23,-172.976 1111.83,-165.39 1108.71,-171.658"/>
</g>
<!-- Node10&#45;&gt;Node14 -->
<g id="edge16" class="edge"><title>Node10&#45;&gt;Node14</title>
<path fill="none" stroke="midnightblue" d="M1242.63,-170.896C1249.99,-169.419 1257.36,-168.089 1264.5,-167 1502.28,-130.74 1566.92,-168.594 1804.5,-131 1807.72,-130.491 1810.98,-129.928 1814.26,-129.32"/>
<polygon fill="midnightblue" stroke="midnightblue" points="1241.68,-167.519 1232.6,-172.99 1243.11,-174.371 1241.68,-167.519"/>
</g>
<!-- Node15 -->
<g id="node15" class="node"><title>Node15</title>
<g id="a_node15"><a xlink:href="RotateGizmo_8cpp.html" target="_top" xlink:title="/home/travis/build\l/STORM&#45;IRIT/Radium&#45;Engine\l/src/GuiBase/Viewer/Gizmo\l/RotateGizmo.cpp">
<polygon fill="white" stroke="black" points="1084.5,-78.5 1084.5,-130.5 1232.5,-130.5 1232.5,-78.5 1084.5,-78.5"/>
<text text-anchor="start" x="1092.5" y="-118.5" font-family="Helvetica,sans-Serif" font-size="10.00">/home/travis/build</text>
<text text-anchor="start" x="1092.5" y="-107.5" font-family="Helvetica,sans-Serif" font-size="10.00">/STORM&#45;IRIT/Radium&#45;Engine</text>
<text text-anchor="start" x="1092.5" y="-96.5" font-family="Helvetica,sans-Serif" font-size="10.00">/src/GuiBase/Viewer/Gizmo</text>
<text text-anchor="middle" x="1158.5" y="-85.5" font-family="Helvetica,sans-Serif" font-size="10.00">/RotateGizmo.cpp</text>
</a>
</g>
</g>
<!-- Node10&#45;&gt;Node15 -->
<g id="edge17" class="edge"><title>Node10&#45;&gt;Node15</title>
<path fill="none" stroke="midnightblue" d="M1158.5,-162.509C1158.5,-152.174 1158.5,-140.71 1158.5,-130.788"/>
<polygon fill="midnightblue" stroke="midnightblue" points="1155,-162.758 1158.5,-172.758 1162,-162.758 1155,-162.758"/>
</g>
<!-- Node16 -->
<g id="node16" class="node"><title>Node16</title>
<g id="a_node16"><a xlink:href="ScaleGizmo_8cpp.html" target="_top" xlink:title="/home/travis/build\l/STORM&#45;IRIT/Radium&#45;Engine\l/src/GuiBase/Viewer/Gizmo\l/ScaleGizmo.cpp">
<polygon fill="white" stroke="black" points="1250.5,-78.5 1250.5,-130.5 1398.5,-130.5 1398.5,-78.5 1250.5,-78.5"/>
<text text-anchor="start" x="1258.5" y="-118.5" font-family="Helvetica,sans-Serif" font-size="10.00">/home/travis/build</text>
<text text-anchor="start" x="1258.5" y="-107.5" font-family="Helvetica,sans-Serif" font-size="10.00">/STORM&#45;IRIT/Radium&#45;Engine</text>
<text text-anchor="start" x="1258.5" y="-96.5" font-family="Helvetica,sans-Serif" font-size="10.00">/src/GuiBase/Viewer/Gizmo</text>
<text text-anchor="middle" x="1324.5" y="-85.5" font-family="Helvetica,sans-Serif" font-size="10.00">/ScaleGizmo.cpp</text>
</a>
</g>
</g>
<!-- Node10&#45;&gt;Node16 -->
<g id="edge18" class="edge"><title>Node10&#45;&gt;Node16</title>
<path fill="none" stroke="midnightblue" d="M1204.74,-168.268C1227.14,-156.526 1254.02,-142.437 1276.64,-130.585"/>
<polygon fill="midnightblue" stroke="midnightblue" points="1202.99,-165.233 1195.75,-172.976 1206.24,-171.433 1202.99,-165.233"/>
</g>
<!-- Node17 -->
<g id="node17" class="node"><title>Node17</title>
<g id="a_node17"><a xlink:href="TranslateGizmo_8cpp.html" target="_top" xlink:title="/home/travis/build\l/STORM&#45;IRIT/Radium&#45;Engine\l/src/GuiBase/Viewer/Gizmo\l/TranslateGizmo.cpp">
<polygon fill="white" stroke="black" points="1416.5,-78.5 1416.5,-130.5 1564.5,-130.5 1564.5,-78.5 1416.5,-78.5"/>
<text text-anchor="start" x="1424.5" y="-118.5" font-family="Helvetica,sans-Serif" font-size="10.00">/home/travis/build</text>
<text text-anchor="start" x="1424.5" y="-107.5" font-family="Helvetica,sans-Serif" font-size="10.00">/STORM&#45;IRIT/Radium&#45;Engine</text>
<text text-anchor="start" x="1424.5" y="-96.5" font-family="Helvetica,sans-Serif" font-size="10.00">/src/GuiBase/Viewer/Gizmo</text>
<text text-anchor="middle" x="1490.5" y="-85.5" font-family="Helvetica,sans-Serif" font-size="10.00">/TranslateGizmo.cpp</text>
</a>
</g>
</g>
<!-- Node10&#45;&gt;Node17 -->
<g id="edge19" class="edge"><title>Node10&#45;&gt;Node17</title>
<path fill="none" stroke="midnightblue" d="M1249.55,-170.577C1307.83,-156.433 1377.89,-139.199 1407.5,-131 1410.41,-130.196 1413.36,-129.361 1416.35,-128.506"/>
<polygon fill="midnightblue" stroke="midnightblue" points="1248.45,-167.24 1239.56,-172.998 1250.1,-174.043 1248.45,-167.24"/>
</g>
<!-- Node18 -->
<g id="node18" class="node"><title>Node18</title>
<g id="a_node18"><a xlink:href="MeshFeatureTrackingComponent_8cpp.html" target="_top" xlink:title="/home/travis/build\l/STORM&#45;IRIT/Radium&#45;Engine\l/Plugins/MeshFeatureTracking\l/src/MeshFeatureTrackingComponent.cpp">
<polygon fill="white" stroke="black" points="1583,-78.5 1583,-130.5 1796,-130.5 1796,-78.5 1583,-78.5"/>
<text text-anchor="start" x="1591" y="-118.5" font-family="Helvetica,sans-Serif" font-size="10.00">/home/travis/build</text>
<text text-anchor="start" x="1591" y="-107.5" font-family="Helvetica,sans-Serif" font-size="10.00">/STORM&#45;IRIT/Radium&#45;Engine</text>
<text text-anchor="start" x="1591" y="-96.5" font-family="Helvetica,sans-Serif" font-size="10.00">/Plugins/MeshFeatureTracking</text>
<text text-anchor="middle" x="1689.5" y="-85.5" font-family="Helvetica,sans-Serif" font-size="10.00">/src/MeshFeatureTrackingComponent.cpp</text>
</a>
</g>
</g>
<!-- Node10&#45;&gt;Node18 -->
<g id="edge20" class="edge"><title>Node10&#45;&gt;Node18</title>
<path fill="none" stroke="midnightblue" d="M1245.21,-170.748C1251.72,-169.389 1258.2,-168.12 1264.5,-167 1400.63,-142.787 1437.14,-153.871 1573.5,-131 1576.55,-130.488 1579.64,-129.949 1582.76,-129.387"/>
<polygon fill="midnightblue" stroke="midnightblue" points="1244.02,-167.423 1234.98,-172.949 1245.5,-174.266 1244.02,-167.423"/>
</g>
<!-- Node20&#45;&gt;Node1 -->
<g id="edge23" class="edge"><title>Node20&#45;&gt;Node1</title>
<path fill="none" stroke="midnightblue" d="M1640.16,-305.789C1644.33,-306.913 1648.46,-307.992 1652.5,-309 1716.37,-324.953 1789.34,-339.471 1843.36,-349.725"/>
<polygon fill="midnightblue" stroke="midnightblue" points="1640.96,-302.377 1630.39,-303.098 1639.1,-309.126 1640.96,-302.377"/>
</g>
<!-- Node22 -->
<g id="node22" class="node"><title>Node22</title>
<g id="a_node22"><a xlink:href="BVH_8hpp.html" target="_top" xlink:title="/home/travis/build\l/STORM&#45;IRIT/Radium&#45;Engine\l/src/Core/TreeStructures\l/BVH.hpp">
<polygon fill="white" stroke="black" points="1652.5,-167.5 1652.5,-219.5 1800.5,-219.5 1800.5,-167.5 1652.5,-167.5"/>
<text text-anchor="start" x="1660.5" y="-207.5" font-family="Helvetica,sans-Serif" font-size="10.00">/home/travis/build</text>
<text text-anchor="start" x="1660.5" y="-196.5" font-family="Helvetica,sans-Serif" font-size="10.00">/STORM&#45;IRIT/Radium&#45;Engine</text>
<text text-anchor="start" x="1660.5" y="-185.5" font-family="Helvetica,sans-Serif" font-size="10.00">/src/Core/TreeStructures</text>
<text text-anchor="middle" x="1726.5" y="-174.5" font-family="Helvetica,sans-Serif" font-size="10.00">/BVH.hpp</text>
</a>
</g>
</g>
<!-- Node21&#45;&gt;Node22 -->
<g id="edge25" class="edge"><title>Node21&#45;&gt;Node22</title>
<path fill="none" stroke="midnightblue" d="M1719.86,-246.191C1719.62,-237.282 1719.77,-227.899 1720.32,-219.607"/>
<polygon fill="midnightblue" stroke="midnightblue" points="1716.37,-246.503 1720.31,-256.336 1723.36,-246.189 1716.37,-246.503"/>
</g>
<!-- Node22&#45;&gt;Node21 -->
<g id="edge26" class="edge"><title>Node22&#45;&gt;Node21</title>
<path fill="none" stroke="midnightblue" d="M1733.14,-229.749C1733.38,-238.655 1733.23,-248.04 1732.69,-256.336"/>
<polygon fill="midnightblue" stroke="midnightblue" points="1736.63,-229.439 1732.68,-219.607 1729.64,-229.755 1736.63,-229.439"/>
</g>
<!-- Node29 -->
<g id="node29" class="node"><title>Node29</title>
<g id="a_node29"><a xlink:href="AnimationComponent_8cpp.html" target="_top" xlink:title="/home/travis/build\l/STORM&#45;IRIT/Radium&#45;Engine\l/Plugins/Animation/src/Animation\lComponent.cpp">
<polygon fill="white" stroke="black" points="2681.5,-167.5 2681.5,-219.5 2855.5,-219.5 2855.5,-167.5 2681.5,-167.5"/>
<text text-anchor="start" x="2689.5" y="-207.5" font-family="Helvetica,sans-Serif" font-size="10.00">/home/travis/build</text>
<text text-anchor="start" x="2689.5" y="-196.5" font-family="Helvetica,sans-Serif" font-size="10.00">/STORM&#45;IRIT/Radium&#45;Engine</text>
<text text-anchor="start" x="2689.5" y="-185.5" font-family="Helvetica,sans-Serif" font-size="10.00">/Plugins/Animation/src/Animation</text>
<text text-anchor="middle" x="2768.5" y="-174.5" font-family="Helvetica,sans-Serif" font-size="10.00">Component.cpp</text>
</a>
</g>
</g>
<!-- Node28&#45;&gt;Node29 -->
<g id="edge34" class="edge"><title>Node28&#45;&gt;Node29</title>
<path fill="none" stroke="midnightblue" d="M2896.05,-252.295C2872.59,-241.665 2846.3,-229.755 2823.72,-219.521"/>
<polygon fill="midnightblue" stroke="midnightblue" points="2894.67,-255.513 2905.22,-256.453 2897.56,-249.137 2894.67,-255.513"/>
</g>
<!-- Node30 -->
<g id="node30" class="node"><title>Node30</title>
<g id="a_node30"><a xlink:href="AnimationSystem_8cpp.html" target="_top" xlink:title="/home/travis/build\l/STORM&#45;IRIT/Radium&#45;Engine\l/Plugins/Animation/src/Animation\lSystem.cpp">
<polygon fill="white" stroke="black" points="2873.5,-167.5 2873.5,-219.5 3047.5,-219.5 3047.5,-167.5 2873.5,-167.5"/>
<text text-anchor="start" x="2881.5" y="-207.5" font-family="Helvetica,sans-Serif" font-size="10.00">/home/travis/build</text>
<text text-anchor="start" x="2881.5" y="-196.5" font-family="Helvetica,sans-Serif" font-size="10.00">/STORM&#45;IRIT/Radium&#45;Engine</text>
<text text-anchor="start" x="2881.5" y="-185.5" font-family="Helvetica,sans-Serif" font-size="10.00">/Plugins/Animation/src/Animation</text>
<text text-anchor="middle" x="2960.5" y="-174.5" font-family="Helvetica,sans-Serif" font-size="10.00">System.cpp</text>
</a>
</g>
</g>
<!-- Node28&#45;&gt;Node30 -->
<g id="edge35" class="edge"><title>Node28&#45;&gt;Node30</title>
<path fill="none" stroke="midnightblue" d="M2960.5,-246.191C2960.5,-237.282 2960.5,-227.899 2960.5,-219.607"/>
<polygon fill="midnightblue" stroke="midnightblue" points="2957,-246.336 2960.5,-256.336 2964,-246.336 2957,-246.336"/>
</g>
<!-- Node31 -->
<g id="node31" class="node"><title>Node31</title>
<g id="a_node31"><a xlink:href="SkeletonBoneDrawable_8cpp.html" target="_top" xlink:title="/home/travis/build\l/STORM&#45;IRIT/Radium&#45;Engine\l/Plugins/Animation/src/Drawing\l/SkeletonBoneDrawable.cpp">
<polygon fill="white" stroke="black" points="3065.5,-167.5 3065.5,-219.5 3229.5,-219.5 3229.5,-167.5 3065.5,-167.5"/>
<text text-anchor="start" x="3073.5" y="-207.5" font-family="Helvetica,sans-Serif" font-size="10.00">/home/travis/build</text>
<text text-anchor="start" x="3073.5" y="-196.5" font-family="Helvetica,sans-Serif" font-size="10.00">/STORM&#45;IRIT/Radium&#45;Engine</text>
<text text-anchor="start" x="3073.5" y="-185.5" font-family="Helvetica,sans-Serif" font-size="10.00">/Plugins/Animation/src/Drawing</text>
<text text-anchor="middle" x="3147.5" y="-174.5" font-family="Helvetica,sans-Serif" font-size="10.00">/SkeletonBoneDrawable.cpp</text>
</a>
</g>
</g>
<!-- Node28&#45;&gt;Node31 -->
<g id="edge36" class="edge"><title>Node28&#45;&gt;Node31</title>
<path fill="none" stroke="midnightblue" d="M3023.58,-252.153C3046.35,-241.56 3071.82,-229.71 3093.72,-219.521"/>
<polygon fill="midnightblue" stroke="midnightblue" points="3021.93,-249.061 3014.34,-256.453 3024.88,-255.408 3021.93,-249.061"/>
</g>
</g>
</svg>
