<?xml version="1.0" encoding="UTF-8" standalone="no"?>
<!DOCTYPE svg PUBLIC "-//W3C//DTD SVG 1.1//EN"
 "http://www.w3.org/Graphics/SVG/1.1/DTD/svg11.dtd">
<!-- Generated by graphviz version 2.38.0 (20140413.2041)
 -->
<!-- Title: /home/travis/build/STORM&#45;IRIT/Radium&#45;Engine/Plugins/MeshFeatureTracking/src/UI/MeshFeatureTrackingUI.cpp Pages: 1 -->
<svg width="1571pt" height="520pt"
 viewBox="0.00 0.00 1571.00 520.00" xmlns="http://www.w3.org/2000/svg" xmlns:xlink="http://www.w3.org/1999/xlink">
<g id="graph0" class="graph" transform="scale(1 1) rotate(0) translate(4 516)">
<title>/home/travis/build/STORM&#45;IRIT/Radium&#45;Engine/Plugins/MeshFeatureTracking/src/UI/MeshFeatureTrackingUI.cpp</title>
<polygon fill="white" stroke="none" points="-4,4 -4,-516 1567,-516 1567,4 -4,4"/>
<!-- Node1 -->
<g id="node1" class="node"><title>Node1</title>
<polygon fill="#bfbfbf" stroke="black" points="1297,-459.5 1297,-511.5 1476,-511.5 1476,-459.5 1297,-459.5"/>
<text text-anchor="start" x="1305" y="-499.5" font-family="Helvetica,sans-Serif" font-size="10.00">/home/travis/build</text>
<text text-anchor="start" x="1305" y="-488.5" font-family="Helvetica,sans-Serif" font-size="10.00">/STORM&#45;IRIT/Radium&#45;Engine</text>
<text text-anchor="start" x="1305" y="-477.5" font-family="Helvetica,sans-Serif" font-size="10.00">/Plugins/MeshFeatureTracking</text>
<text text-anchor="middle" x="1386.5" y="-466.5" font-family="Helvetica,sans-Serif" font-size="10.00">/src/UI/MeshFeatureTrackingUI.cpp</text>
</g>
<!-- Node2 -->
<g id="node2" class="node"><title>Node2</title>
<g id="a_node2"><a xlink:href="MeshFeatureTrackingUI_8h.html" target="_top" xlink:title="MeshFeatureTrackingUI.h">
<polygon fill="white" stroke="black" points="1223,-403.5 1223,-422.5 1358,-422.5 1358,-403.5 1223,-403.5"/>
<text text-anchor="middle" x="1290.5" y="-410.5" font-family="Helvetica,sans-Serif" font-size="10.00">MeshFeatureTrackingUI.h</text>
</a>
</g>
</g>
<!-- Node1&#45;&gt;Node2 -->
<g id="edge1" class="edge"><title>Node1&#45;&gt;Node2</title>
<path fill="none" stroke="midnightblue" d="M1352.38,-459.446C1338.33,-449.127 1322.55,-437.533 1310.43,-428.638"/>
<polygon fill="midnightblue" stroke="midnightblue" points="1312.47,-425.794 1302.34,-422.695 1308.33,-431.436 1312.47,-425.794"/>
</g>
<!-- Node9 -->
<g id="node9" class="node"><title>Node9</title>
<polygon fill="white" stroke="#bfbfbf" points="1296,-0.5 1296,-19.5 1355,-19.5 1355,-0.5 1296,-0.5"/>
<text text-anchor="middle" x="1325.5" y="-7.5" font-family="Helvetica,sans-Serif" font-size="10.00">iostream</text>
</g>
<!-- Node1&#45;&gt;Node9 -->
<g id="edge39" class="edge"><title>Node1&#45;&gt;Node9</title>
<path fill="none" stroke="midnightblue" d="M1386.5,-459.299C1386.5,-433.768 1386.5,-393.139 1386.5,-358 1386.5,-358 1386.5,-358 1386.5,-121 1386.5,-83.5742 1359.16,-46.9577 1341.09,-26.8412"/>
<polygon fill="midnightblue" stroke="midnightblue" points="1343.62,-24.4285 1334.24,-19.5071 1338.51,-29.2053 1343.62,-24.4285"/>
</g>
<!-- Node33 -->
<g id="node33" class="node"><title>Node33</title>
<polygon fill="white" stroke="#bfbfbf" points="1414,-403.5 1414,-422.5 1563,-422.5 1563,-403.5 1414,-403.5"/>
<text text-anchor="middle" x="1488.5" y="-410.5" font-family="Helvetica,sans-Serif" font-size="10.00">ui_MeshFeatureTrackingUI.h</text>
</g>
<!-- Node1&#45;&gt;Node33 -->
<g id="edge40" class="edge"><title>Node1&#45;&gt;Node33</title>
<path fill="none" stroke="midnightblue" d="M1422.75,-459.446C1437.68,-449.127 1454.45,-437.533 1467.32,-428.638"/>
<polygon fill="midnightblue" stroke="midnightblue" points="1469.68,-431.261 1475.92,-422.695 1465.7,-425.502 1469.68,-431.261"/>
</g>
<!-- Node3 -->
<g id="node3" class="node"><title>Node3</title>
<polygon fill="white" stroke="#bfbfbf" points="1284.5,-347.5 1284.5,-366.5 1338.5,-366.5 1338.5,-347.5 1284.5,-347.5"/>
<text text-anchor="middle" x="1311.5" y="-354.5" font-family="Helvetica,sans-Serif" font-size="10.00">QFrame</text>
</g>
<!-- Node2&#45;&gt;Node3 -->
<g id="edge2" class="edge"><title>Node2&#45;&gt;Node3</title>
<path fill="none" stroke="midnightblue" d="M1293.97,-403.083C1296.81,-395.77 1300.93,-385.181 1304.46,-376.103"/>
<polygon fill="midnightblue" stroke="midnightblue" points="1307.73,-377.34 1308.1,-366.751 1301.21,-374.803 1307.73,-377.34"/>
</g>
<!-- Node4 -->
<g id="node4" class="node"><title>Node4</title>
<g id="a_node4"><a xlink:href="PickingManager_8hpp.html" target="_top" xlink:title="GuiBase/Utils/PickingManager.hpp">
<polygon fill="white" stroke="black" points="1087,-347.5 1087,-366.5 1266,-366.5 1266,-347.5 1087,-347.5"/>
<text text-anchor="middle" x="1176.5" y="-354.5" font-family="Helvetica,sans-Serif" font-size="10.00">GuiBase/Utils/PickingManager.hpp</text>
</a>
</g>
</g>
<!-- Node2&#45;&gt;Node4 -->
<g id="edge3" class="edge"><title>Node2&#45;&gt;Node4</title>
<path fill="none" stroke="midnightblue" d="M1272.44,-403.444C1253.93,-394.675 1224.92,-380.935 1203.64,-370.858"/>
<polygon fill="midnightblue" stroke="midnightblue" points="1205.01,-367.634 1194.48,-366.516 1202.02,-373.96 1205.01,-367.634"/>
</g>
<!-- Node5 -->
<g id="node5" class="node"><title>Node5</title>
<g id="a_node5"><a xlink:href="RaGuiBase_8hpp.html" target="_top" xlink:title="GuiBase/RaGuiBase.hpp">
<polygon fill="white" stroke="black" points="1190.5,-291.5 1190.5,-310.5 1322.5,-310.5 1322.5,-291.5 1190.5,-291.5"/>
<text text-anchor="middle" x="1256.5" y="-298.5" font-family="Helvetica,sans-Serif" font-size="10.00">GuiBase/RaGuiBase.hpp</text>
</a>
</g>
</g>
<!-- Node4&#45;&gt;Node5 -->
<g id="edge4" class="edge"><title>Node4&#45;&gt;Node5</title>
<path fill="none" stroke="midnightblue" d="M1189.35,-347.324C1201.72,-338.979 1220.63,-326.212 1235.24,-316.352"/>
<polygon fill="midnightblue" stroke="midnightblue" points="1237.35,-319.15 1243.68,-310.655 1233.43,-313.348 1237.35,-319.15"/>
</g>
<!-- Node12 -->
<g id="node12" class="node"><title>Node12</title>
<g id="a_node12"><a xlink:href="Renderer_8hpp.html" target="_top" xlink:title="Engine/Renderer/Renderer.hpp">
<polygon fill="white" stroke="black" points="993,-291.5 993,-310.5 1154,-310.5 1154,-291.5 993,-291.5"/>
<text text-anchor="middle" x="1073.5" y="-298.5" font-family="Helvetica,sans-Serif" font-size="10.00">Engine/Renderer/Renderer.hpp</text>
</a>
</g>
</g>
<!-- Node4&#45;&gt;Node12 -->
<g id="edge11" class="edge"><title>Node4&#45;&gt;Node12</title>
<path fill="none" stroke="midnightblue" d="M1159.95,-347.324C1143.51,-338.703 1118.07,-325.364 1099.03,-315.386"/>
<polygon fill="midnightblue" stroke="midnightblue" points="1100.49,-312.198 1090.01,-310.655 1097.24,-318.398 1100.49,-312.198"/>
</g>
<!-- Node6 -->
<g id="node6" class="node"><title>Node6</title>
<g id="a_node6"><a xlink:href="CoreMacros_8hpp.html" target="_top" xlink:title="Core/CoreMacros.hpp">
<polygon fill="white" stroke="black" points="1013.5,-56.5 1013.5,-75.5 1133.5,-75.5 1133.5,-56.5 1013.5,-56.5"/>
<text text-anchor="middle" x="1073.5" y="-63.5" font-family="Helvetica,sans-Serif" font-size="10.00">Core/CoreMacros.hpp</text>
</a>
</g>
</g>
<!-- Node5&#45;&gt;Node6 -->
<g id="edge5" class="edge"><title>Node5&#45;&gt;Node6</title>
<path fill="none" stroke="midnightblue" d="M1280.78,-291.325C1306.95,-280.48 1343.12,-260.236 1329.5,-235 1282.95,-148.77 1170.7,-99.6156 1111.51,-78.8528"/>
<polygon fill="midnightblue" stroke="midnightblue" points="1112.39,-75.4537 1101.79,-75.5327 1110.12,-82.0778 1112.39,-75.4537"/>
</g>
<!-- Node7 -->
<g id="node7" class="node"><title>Node7</title>
<polygon fill="white" stroke="#bfbfbf" points="1150.5,-0.5 1150.5,-19.5 1202.5,-19.5 1202.5,-0.5 1150.5,-0.5"/>
<text text-anchor="middle" x="1176.5" y="-7.5" font-family="Helvetica,sans-Serif" font-size="10.00">cassert</text>
</g>
<!-- Node6&#45;&gt;Node7 -->
<g id="edge6" class="edge"><title>Node6&#45;&gt;Node7</title>
<path fill="none" stroke="midnightblue" d="M1090.05,-56.324C1106.49,-47.7034 1131.93,-34.3643 1150.97,-24.3855"/>
<polygon fill="midnightblue" stroke="midnightblue" points="1152.76,-27.3977 1159.99,-19.6545 1149.51,-21.198 1152.76,-27.3977"/>
</g>
<!-- Node8 -->
<g id="node8" class="node"><title>Node8</title>
<polygon fill="white" stroke="#bfbfbf" points="947,-0.5 947,-19.5 992,-19.5 992,-0.5 947,-0.5"/>
<text text-anchor="middle" x="969.5" y="-7.5" font-family="Helvetica,sans-Serif" font-size="10.00">cstdio</text>
</g>
<!-- Node6&#45;&gt;Node8 -->
<g id="edge7" class="edge"><title>Node6&#45;&gt;Node8</title>
<path fill="none" stroke="midnightblue" d="M1056.79,-56.324C1040.19,-47.7034 1014.5,-34.3643 995.28,-24.3855"/>
<polygon fill="midnightblue" stroke="midnightblue" points="996.656,-21.1565 986.168,-19.6545 993.43,-27.3689 996.656,-21.1565"/>
</g>
<!-- Node6&#45;&gt;Node9 -->
<g id="edge8" class="edge"><title>Node6&#45;&gt;Node9</title>
<path fill="none" stroke="midnightblue" d="M1113.43,-56.4435C1160.75,-46.303 1239.1,-29.5138 1286.16,-19.4293"/>
<polygon fill="midnightblue" stroke="midnightblue" points="1286.95,-22.8406 1295.99,-17.323 1285.48,-15.996 1286.95,-22.8406"/>
</g>
<!-- Node10 -->
<g id="node10" class="node"><title>Node10</title>
<polygon fill="white" stroke="#bfbfbf" points="1010.5,-0.5 1010.5,-19.5 1066.5,-19.5 1066.5,-0.5 1010.5,-0.5"/>
<text text-anchor="middle" x="1038.5" y="-7.5" font-family="Helvetica,sans-Serif" font-size="10.00">sstream</text>
</g>
<!-- Node6&#45;&gt;Node10 -->
<g id="edge9" class="edge"><title>Node6&#45;&gt;Node10</title>
<path fill="none" stroke="midnightblue" d="M1067.72,-56.083C1062.83,-48.5341 1055.67,-37.4948 1049.67,-28.2298"/>
<polygon fill="midnightblue" stroke="midnightblue" points="1052.55,-26.239 1044.17,-19.7511 1046.67,-30.0463 1052.55,-26.239"/>
</g>
<!-- Node11 -->
<g id="node11" class="node"><title>Node11</title>
<polygon fill="white" stroke="#bfbfbf" points="1084.5,-0.5 1084.5,-19.5 1132.5,-19.5 1132.5,-0.5 1084.5,-0.5"/>
<text text-anchor="middle" x="1108.5" y="-7.5" font-family="Helvetica,sans-Serif" font-size="10.00">thread</text>
</g>
<!-- Node6&#45;&gt;Node11 -->
<g id="edge10" class="edge"><title>Node6&#45;&gt;Node11</title>
<path fill="none" stroke="midnightblue" d="M1079.28,-56.083C1084.17,-48.5341 1091.33,-37.4948 1097.33,-28.2298"/>
<polygon fill="midnightblue" stroke="midnightblue" points="1100.33,-30.0463 1102.83,-19.7511 1094.45,-26.239 1100.33,-30.0463"/>
</g>
<!-- Node13 -->
<g id="node13" class="node"><title>Node13</title>
<g id="a_node13"><a xlink:href="RaEngine_8hpp.html" target="_top" xlink:title="Engine/RaEngine.hpp">
<polygon fill="white" stroke="black" points="0,-112.5 0,-131.5 117,-131.5 117,-112.5 0,-112.5"/>
<text text-anchor="middle" x="58.5" y="-119.5" font-family="Helvetica,sans-Serif" font-size="10.00">Engine/RaEngine.hpp</text>
</a>
</g>
</g>
<!-- Node12&#45;&gt;Node13 -->
<g id="edge12" class="edge"><title>Node12&#45;&gt;Node13</title>
<path fill="none" stroke="midnightblue" d="M992.702,-299.317C791.135,-296.377 271.592,-280.845 122.5,-199 98.0039,-185.553 78.8817,-158.69 68.1417,-140.776"/>
<polygon fill="midnightblue" stroke="midnightblue" points="71.0599,-138.829 63.0564,-131.887 64.9838,-142.305 71.0599,-138.829"/>
</g>
<!-- Node14 -->
<g id="node14" class="node"><title>Node14</title>
<polygon fill="white" stroke="#bfbfbf" points="1035,-235.5 1035,-254.5 1076,-254.5 1076,-235.5 1035,-235.5"/>
<text text-anchor="middle" x="1055.5" y="-242.5" font-family="Helvetica,sans-Serif" font-size="10.00">array</text>
</g>
<!-- Node12&#45;&gt;Node14 -->
<g id="edge14" class="edge"><title>Node12&#45;&gt;Node14</title>
<path fill="none" stroke="midnightblue" d="M1070.53,-291.083C1068.12,-283.849 1064.64,-273.409 1061.63,-264.397"/>
<polygon fill="midnightblue" stroke="midnightblue" points="1064.9,-263.131 1058.42,-254.751 1058.26,-265.345 1064.9,-263.131"/>
</g>
<!-- Node15 -->
<g id="node15" class="node"><title>Node15</title>
<polygon fill="white" stroke="#bfbfbf" points="1084.5,-174 1084.5,-193 1134.5,-193 1134.5,-174 1084.5,-174"/>
<text text-anchor="middle" x="1109.5" y="-181" font-family="Helvetica,sans-Serif" font-size="10.00">chrono</text>
</g>
<!-- Node12&#45;&gt;Node15 -->
<g id="edge15" class="edge"><title>Node12&#45;&gt;Node15</title>
<path fill="none" stroke="midnightblue" d="M1076.21,-291.319C1082.02,-272.673 1095.8,-228.443 1103.69,-203.132"/>
<polygon fill="midnightblue" stroke="midnightblue" points="1107.13,-203.871 1106.76,-193.282 1100.45,-201.788 1107.13,-203.871"/>
</g>
<!-- Node16 -->
<g id="node16" class="node"><title>Node16</title>
<polygon fill="white" stroke="#bfbfbf" points="1133,-235.5 1133,-254.5 1190,-254.5 1190,-235.5 1133,-235.5"/>
<text text-anchor="middle" x="1161.5" y="-242.5" font-family="Helvetica,sans-Serif" font-size="10.00">memory</text>
</g>
<!-- Node12&#45;&gt;Node16 -->
<g id="edge16" class="edge"><title>Node12&#45;&gt;Node16</title>
<path fill="none" stroke="midnightblue" d="M1087.64,-291.324C1101.37,-282.9 1122.44,-269.971 1138.56,-260.074"/>
<polygon fill="midnightblue" stroke="midnightblue" points="1140.7,-262.868 1147.4,-254.655 1137.04,-256.902 1140.7,-262.868"/>
</g>
<!-- Node17 -->
<g id="node17" class="node"><title>Node17</title>
<polygon fill="white" stroke="#bfbfbf" points="1208,-235.5 1208,-254.5 1255,-254.5 1255,-235.5 1208,-235.5"/>
<text text-anchor="middle" x="1231.5" y="-242.5" font-family="Helvetica,sans-Serif" font-size="10.00">mutex</text>
</g>
<!-- Node12&#45;&gt;Node17 -->
<g id="edge17" class="edge"><title>Node12&#45;&gt;Node17</title>
<path fill="none" stroke="midnightblue" d="M1098.54,-291.444C1125.51,-282.226 1168.55,-267.513 1198.33,-257.338"/>
<polygon fill="midnightblue" stroke="midnightblue" points="1199.54,-260.621 1207.87,-254.075 1197.28,-253.998 1199.54,-260.621"/>
</g>
<!-- Node18 -->
<g id="node18" class="node"><title>Node18</title>
<polygon fill="white" stroke="#bfbfbf" points="1273,-235.5 1273,-254.5 1320,-254.5 1320,-235.5 1273,-235.5"/>
<text text-anchor="middle" x="1296.5" y="-242.5" font-family="Helvetica,sans-Serif" font-size="10.00">vector</text>
</g>
<!-- Node12&#45;&gt;Node18 -->
<g id="edge18" class="edge"><title>Node12&#45;&gt;Node18</title>
<path fill="none" stroke="midnightblue" d="M1112.03,-291.431C1148.58,-283.19 1205.26,-270.118 1262.78,-255.373"/>
<polygon fill="midnightblue" stroke="midnightblue" points="1263.96,-258.684 1272.76,-252.797 1262.21,-251.905 1263.96,-258.684"/>
</g>
<!-- Node19 -->
<g id="node19" class="node"><title>Node19</title>
<g id="a_node19"><a xlink:href="EventEnums_8hpp.html" target="_top" xlink:title="Core/Event/EventEnums.hpp">
<polygon fill="white" stroke="black" points="729,-235.5 729,-254.5 882,-254.5 882,-235.5 729,-235.5"/>
<text text-anchor="middle" x="805.5" y="-242.5" font-family="Helvetica,sans-Serif" font-size="10.00">Core/Event/EventEnums.hpp</text>
</a>
</g>
</g>
<!-- Node12&#45;&gt;Node19 -->
<g id="edge19" class="edge"><title>Node12&#45;&gt;Node19</title>
<path fill="none" stroke="midnightblue" d="M1031.03,-291.444C984.087,-281.984 908.424,-266.738 857.846,-256.547"/>
<polygon fill="midnightblue" stroke="midnightblue" points="858.261,-253.061 847.767,-254.516 856.878,-259.923 858.261,-253.061"/>
</g>
<!-- Node21 -->
<g id="node21" class="node"><title>Node21</title>
<g id="a_node21"><a xlink:href="LinearAlgebra_8hpp.html" target="_top" xlink:title="Core/Math/LinearAlgebra.hpp">
<polygon fill="white" stroke="black" points="549.5,-235.5 549.5,-254.5 705.5,-254.5 705.5,-235.5 549.5,-235.5"/>
<text text-anchor="middle" x="627.5" y="-242.5" font-family="Helvetica,sans-Serif" font-size="10.00">Core/Math/LinearAlgebra.hpp</text>
</a>
</g>
</g>
<!-- Node12&#45;&gt;Node21 -->
<g id="edge22" class="edge"><title>Node12&#45;&gt;Node21</title>
<path fill="none" stroke="midnightblue" d="M1002.83,-291.444C922.58,-281.727 791.914,-265.907 707.853,-255.729"/>
<polygon fill="midnightblue" stroke="midnightblue" points="708.188,-252.244 697.839,-254.516 707.346,-259.193 708.188,-252.244"/>
</g>
<!-- Node32 -->
<g id="node32" class="node"><title>Node32</title>
<g id="a_node32"><a xlink:href="Timer_8hpp.html" target="_top" xlink:title="Core/Time/Timer.hpp">
<polygon fill="white" stroke="black" points="900.5,-235.5 900.5,-254.5 1016.5,-254.5 1016.5,-235.5 900.5,-235.5"/>
<text text-anchor="middle" x="958.5" y="-242.5" font-family="Helvetica,sans-Serif" font-size="10.00">Core/Time/Timer.hpp</text>
</a>
</g>
</g>
<!-- Node12&#45;&gt;Node32 -->
<g id="edge36" class="edge"><title>Node12&#45;&gt;Node32</title>
<path fill="none" stroke="midnightblue" d="M1055.28,-291.444C1036.6,-282.675 1007.34,-268.935 985.883,-258.858"/>
<polygon fill="midnightblue" stroke="midnightblue" points="987.176,-255.599 976.637,-254.516 984.201,-261.935 987.176,-255.599"/>
</g>
<!-- Node13&#45;&gt;Node6 -->
<g id="edge13" class="edge"><title>Node13&#45;&gt;Node6</title>
<path fill="none" stroke="midnightblue" d="M117.294,-112.811C120.066,-112.517 122.812,-112.244 125.5,-112 453.061,-82.2808 846.188,-71.5482 1003.47,-68.2622"/>
<polygon fill="midnightblue" stroke="midnightblue" points="1003.56,-71.7612 1013.48,-68.0564 1003.41,-64.7627 1003.56,-71.7612"/>
</g>
<!-- Node20 -->
<g id="node20" class="node"><title>Node20</title>
<g id="a_node20"><a xlink:href="RaCore_8hpp.html" target="_top" xlink:title="Core/RaCore.hpp">
<polygon fill="white" stroke="black" points="969.5,-112.5 969.5,-131.5 1067.5,-131.5 1067.5,-112.5 969.5,-112.5"/>
<text text-anchor="middle" x="1018.5" y="-119.5" font-family="Helvetica,sans-Serif" font-size="10.00">Core/RaCore.hpp</text>
</a>
</g>
</g>
<!-- Node19&#45;&gt;Node20 -->
<g id="edge20" class="edge"><title>Node19&#45;&gt;Node20</title>
<path fill="none" stroke="midnightblue" d="M875.729,-235.491C923.812,-228.257 981.933,-216.27 999.5,-199 1014.7,-184.061 1018.41,-158.94 1019,-141.696"/>
<polygon fill="midnightblue" stroke="midnightblue" points="1022.5,-141.699 1019.03,-131.689 1015.5,-141.678 1022.5,-141.699"/>
</g>
<!-- Node20&#45;&gt;Node6 -->
<g id="edge21" class="edge"><title>Node20&#45;&gt;Node6</title>
<path fill="none" stroke="midnightblue" d="M1027.58,-112.083C1035.67,-104.141 1047.7,-92.3354 1057.41,-82.7973"/>
<polygon fill="midnightblue" stroke="midnightblue" points="1059.9,-85.2545 1064.59,-75.7511 1055,-80.2595 1059.9,-85.2545"/>
</g>
<!-- Node21&#45;&gt;Node20 -->
<g id="edge23" class="edge"><title>Node21&#45;&gt;Node20</title>
<path fill="none" stroke="midnightblue" d="M696.084,-235.467C758.095,-227.046 844.304,-213.379 875.5,-199 895.294,-189.876 894.857,-179.292 913.5,-168 935.76,-154.518 962.787,-143.034 983.845,-135.042"/>
<polygon fill="midnightblue" stroke="midnightblue" points="985.2,-138.272 993.359,-131.513 982.766,-131.709 985.2,-138.272"/>
</g>
<!-- Node22 -->
<g id="node22" class="node"><title>Node22</title>
<polygon fill="white" stroke="#bfbfbf" points="922.5,-174 922.5,-193 990.5,-193 990.5,-174 922.5,-174"/>
<text text-anchor="middle" x="956.5" y="-181" font-family="Helvetica,sans-Serif" font-size="10.00">Eigen/Core</text>
</g>
<!-- Node21&#45;&gt;Node22 -->
<g id="edge24" class="edge"><title>Node21&#45;&gt;Node22</title>
<path fill="none" stroke="midnightblue" d="M697.29,-235.482C754.456,-227.87 837.239,-215.391 908.5,-199 912.444,-198.093 916.538,-197.037 920.598,-195.917"/>
<polygon fill="midnightblue" stroke="midnightblue" points="921.882,-199.189 930.514,-193.046 919.935,-192.465 921.882,-199.189"/>
</g>
<!-- Node23 -->
<g id="node23" class="node"><title>Node23</title>
<polygon fill="white" stroke="#bfbfbf" points="263.5,-174 263.5,-193 357.5,-193 357.5,-174 263.5,-174"/>
<text text-anchor="middle" x="310.5" y="-181" font-family="Helvetica,sans-Serif" font-size="10.00">Eigen/Geometry</text>
</g>
<!-- Node21&#45;&gt;Node23 -->
<g id="edge25" class="edge"><title>Node21&#45;&gt;Node23</title>
<path fill="none" stroke="midnightblue" d="M569.957,-235.478C516.897,-227.29 436.062,-213.976 366.5,-199 361.534,-197.931 356.345,-196.718 351.214,-195.461"/>
<polygon fill="midnightblue" stroke="midnightblue" points="352.045,-192.061 341.493,-193.012 350.335,-198.849 352.045,-192.061"/>
</g>
<!-- Node24 -->
<g id="node24" class="node"><title>Node24</title>
<polygon fill="white" stroke="#bfbfbf" points="375.5,-174 375.5,-193 455.5,-193 455.5,-174 375.5,-174"/>
<text text-anchor="middle" x="415.5" y="-181" font-family="Helvetica,sans-Serif" font-size="10.00">Eigen/Sparse</text>
</g>
<!-- Node21&#45;&gt;Node24 -->
<g id="edge26" class="edge"><title>Node21&#45;&gt;Node24</title>
<path fill="none" stroke="midnightblue" d="M595.899,-235.46C563.026,-226.533 510.085,-212.036 464.5,-199 460.966,-197.989 457.291,-196.926 453.616,-195.853"/>
<polygon fill="midnightblue" stroke="midnightblue" points="454.557,-192.482 443.976,-193.022 452.584,-199.198 454.557,-192.482"/>
</g>
<!-- Node25 -->
<g id="node25" class="node"><title>Node25</title>
<polygon fill="white" stroke="#bfbfbf" points="474,-174 474,-193 537,-193 537,-174 474,-174"/>
<text text-anchor="middle" x="505.5" y="-181" font-family="Helvetica,sans-Serif" font-size="10.00">functional</text>
</g>
<!-- Node21&#45;&gt;Node25 -->
<g id="edge27" class="edge"><title>Node21&#45;&gt;Node25</title>
<path fill="none" stroke="midnightblue" d="M610.02,-235.475C589.637,-225.534 555.725,-208.995 532.075,-197.461"/>
<polygon fill="midnightblue" stroke="midnightblue" points="533.469,-194.247 522.947,-193.009 530.401,-200.538 533.469,-194.247"/>
</g>
<!-- Node26 -->
<g id="node26" class="node"><title>Node26</title>
<polygon fill="white" stroke="#bfbfbf" points="555,-168.5 555,-198.5 700,-198.5 700,-168.5 555,-168.5"/>
<text text-anchor="start" x="563" y="-186.5" font-family="Helvetica,sans-Serif" font-size="10.00">unsupported/Eigen/Aligned</text>
<text text-anchor="middle" x="627.5" y="-175.5" font-family="Helvetica,sans-Serif" font-size="10.00">Vector3</text>
</g>
<!-- Node21&#45;&gt;Node26 -->
<g id="edge28" class="edge"><title>Node21&#45;&gt;Node26</title>
<path fill="none" stroke="midnightblue" d="M627.5,-235.475C627.5,-228.471 627.5,-218.192 627.5,-208.696"/>
<polygon fill="midnightblue" stroke="midnightblue" points="631,-208.523 627.5,-198.523 624,-208.523 631,-208.523"/>
</g>
<!-- Node27 -->
<g id="node27" class="node"><title>Node27</title>
<g id="a_node27"><a xlink:href="Math_8hpp.html" target="_top" xlink:title="Core/Math/Math.hpp">
<polygon fill="white" stroke="black" points="131.5,-174 131.5,-193 245.5,-193 245.5,-174 131.5,-174"/>
<text text-anchor="middle" x="188.5" y="-181" font-family="Helvetica,sans-Serif" font-size="10.00">Core/Math/Math.hpp</text>
</a>
</g>
</g>
<!-- Node21&#45;&gt;Node27 -->
<g id="edge29" class="edge"><title>Node21&#45;&gt;Node27</title>
<path fill="none" stroke="midnightblue" d="M549.315,-236.777C473.626,-229.265 355.783,-216.194 254.5,-199 247.895,-197.879 240.952,-196.536 234.151,-195.127"/>
<polygon fill="midnightblue" stroke="midnightblue" points="234.854,-191.698 224.344,-193.032 233.392,-198.544 234.854,-191.698"/>
</g>
<!-- Node31 -->
<g id="node31" class="node"><title>Node31</title>
<g id="a_node31"><a xlink:href="LinearAlgebra_8inl.html" target="_top" xlink:title="Core/Math/LinearAlgebra.inl">
<polygon fill="white" stroke="black" points="718,-174 718,-193 867,-193 867,-174 718,-174"/>
<text text-anchor="middle" x="792.5" y="-181" font-family="Helvetica,sans-Serif" font-size="10.00">Core/Math/LinearAlgebra.inl</text>
</a>
</g>
</g>
<!-- Node21&#45;&gt;Node31 -->
<g id="edge35" class="edge"><title>Node21&#45;&gt;Node31</title>
<path fill="none" stroke="midnightblue" d="M651.14,-235.475C679.444,-225.269 727.033,-208.108 759.086,-196.549"/>
<polygon fill="midnightblue" stroke="midnightblue" points="760.684,-199.694 768.903,-193.009 758.309,-193.109 760.684,-199.694"/>
</g>
<!-- Node27&#45;&gt;Node20 -->
<g id="edge30" class="edge"><title>Node27&#45;&gt;Node20</title>
<path fill="none" stroke="midnightblue" d="M222.571,-173.942C232.779,-171.67 244.041,-169.448 254.5,-168 515.272,-131.904 830.038,-124.726 959.012,-123.325"/>
<polygon fill="midnightblue" stroke="midnightblue" points="959.113,-126.825 969.077,-123.224 959.042,-119.825 959.113,-126.825"/>
</g>
<!-- Node28 -->
<g id="node28" class="node"><title>Node28</title>
<polygon fill="white" stroke="#bfbfbf" points="259.5,-112.5 259.5,-131.5 321.5,-131.5 321.5,-112.5 259.5,-112.5"/>
<text text-anchor="middle" x="290.5" y="-119.5" font-family="Helvetica,sans-Serif" font-size="10.00">algorithm</text>
</g>
<!-- Node27&#45;&gt;Node28 -->
<g id="edge31" class="edge"><title>Node27&#45;&gt;Node28</title>
<path fill="none" stroke="midnightblue" d="M203.114,-173.975C219.853,-164.211 247.504,-148.081 267.219,-136.581"/>
<polygon fill="midnightblue" stroke="midnightblue" points="269.039,-139.571 275.913,-131.509 265.512,-133.525 269.039,-139.571"/>
</g>
<!-- Node29 -->
<g id="node29" class="node"><title>Node29</title>
<polygon fill="white" stroke="#bfbfbf" points="340,-112.5 340,-131.5 387,-131.5 387,-112.5 340,-112.5"/>
<text text-anchor="middle" x="363.5" y="-119.5" font-family="Helvetica,sans-Serif" font-size="10.00">cmath</text>
</g>
<!-- Node27&#45;&gt;Node29 -->
<g id="edge32" class="edge"><title>Node27&#45;&gt;Node29</title>
<path fill="none" stroke="midnightblue" d="M213.573,-173.975C244.282,-163.534 296.396,-145.815 330.379,-134.261"/>
<polygon fill="midnightblue" stroke="midnightblue" points="331.534,-137.565 339.875,-131.033 329.28,-130.938 331.534,-137.565"/>
</g>
<!-- Node30 -->
<g id="node30" class="node"><title>Node30</title>
<g id="a_node30"><a xlink:href="Math_8inl.html" target="_top" xlink:title="Core/Math/Math.inl">
<polygon fill="white" stroke="black" points="135,-112.5 135,-131.5 242,-131.5 242,-112.5 135,-112.5"/>
<text text-anchor="middle" x="188.5" y="-119.5" font-family="Helvetica,sans-Serif" font-size="10.00">Core/Math/Math.inl</text>
</a>
</g>
</g>
<!-- Node27&#45;&gt;Node30 -->
<g id="edge33" class="edge"><title>Node27&#45;&gt;Node30</title>
<path fill="none" stroke="midnightblue" d="M183.599,-173.975C181.768,-165.58 181.297,-152.481 182.185,-141.663"/>
<polygon fill="midnightblue" stroke="midnightblue" points="185.686,-141.897 183.603,-131.509 178.754,-140.929 185.686,-141.897"/>
</g>
<!-- Node30&#45;&gt;Node27 -->
<g id="edge34" class="edge"><title>Node30&#45;&gt;Node27</title>
<path fill="none" stroke="midnightblue" d="M193.397,-131.509C195.23,-139.898 195.703,-152.996 194.817,-163.817"/>
<polygon fill="midnightblue" stroke="midnightblue" points="191.315,-163.588 193.401,-173.975 198.248,-164.554 191.315,-163.588"/>
</g>
<!-- Node32&#45;&gt;Node15 -->
<g id="edge38" class="edge"><title>Node32&#45;&gt;Node15</title>
<path fill="none" stroke="midnightblue" d="M980.135,-235.475C1005.92,-225.313 1049.21,-208.256 1078.54,-196.7"/>
<polygon fill="midnightblue" stroke="midnightblue" points="1079.88,-199.932 1087.91,-193.009 1077.32,-193.419 1079.88,-199.932"/>
</g>
<!-- Node32&#45;&gt;Node20 -->
<g id="edge37" class="edge"><title>Node32&#45;&gt;Node20</title>
<path fill="none" stroke="midnightblue" d="M985.429,-235.356C1002.22,-228.411 1022.48,-216.825 1032.5,-199 1042.64,-180.965 1035.48,-157.078 1028.19,-140.935"/>
<polygon fill="midnightblue" stroke="midnightblue" points="1031.13,-138.991 1023.56,-131.584 1024.86,-142.099 1031.13,-138.991"/>
</g>
</g>
</svg>
