<?xml version="1.0" encoding="UTF-8" standalone="no"?>
<!DOCTYPE svg PUBLIC "-//W3C//DTD SVG 1.1//EN"
 "http://www.w3.org/Graphics/SVG/1.1/DTD/svg11.dtd">
<!-- Generated by graphviz version 2.38.0 (20140413.2041)
 -->
<!-- Title: Ra::Core::PointCloud::pcaObb Pages: 1 -->
<svg width="606pt" height="152pt"
 viewBox="0.00 0.00 606.00 152.00" xmlns="http://www.w3.org/2000/svg" xmlns:xlink="http://www.w3.org/1999/xlink">
<g id="graph0" class="graph" transform="scale(1 1) rotate(0) translate(4 148)">
<title>Ra::Core::PointCloud::pcaObb</title>
<polygon fill="white" stroke="none" points="-4,4 -4,-148 602,-148 602,4 -4,4"/>
<!-- Node1 -->
<g id="node1" class="node"><title>Node1</title>
<polygon fill="#bfbfbf" stroke="black" points="0,-29.5 0,-59.5 114,-59.5 114,-29.5 0,-29.5"/>
<text text-anchor="start" x="8" y="-47.5" font-family="Helvetica,sans-Serif" font-size="10.00">Ra::Core::PointCloud</text>
<text text-anchor="middle" x="57" y="-36.5" font-family="Helvetica,sans-Serif" font-size="10.00">::pcaObb</text>
</g>
<!-- Node2 -->
<g id="node2" class="node"><title>Node2</title>
<g id="a_node2"><a xlink:href="namespaceRa_1_1Core_1_1PointCloud.html#a9c8a5113de8c8d4fc6cad4123837f32a" target="_top" xlink:title="Returns a transform computed by PCA of the given set of points. ">
<polygon fill="white" stroke="black" points="150,-59.5 150,-89.5 264,-89.5 264,-59.5 150,-59.5"/>
<text text-anchor="start" x="158" y="-77.5" font-family="Helvetica,sans-Serif" font-size="10.00">Ra::Core::PointCloud</text>
<text text-anchor="middle" x="207" y="-66.5" font-family="Helvetica,sans-Serif" font-size="10.00">::principalAxis</text>
</a>
</g>
</g>
<!-- Node1&#45;&gt;Node2 -->
<g id="edge1" class="edge"><title>Node1&#45;&gt;Node2</title>
<path fill="none" stroke="midnightblue" d="M114.375,-55.9273C122.712,-57.6173 131.366,-59.3716 139.88,-61.0973"/>
<polygon fill="midnightblue" stroke="midnightblue" points="139.286,-64.548 149.782,-63.1045 140.677,-57.6875 139.286,-64.548"/>
</g>
<!-- Node6 -->
<g id="node6" class="node"><title>Node6</title>
<g id="a_node6"><a xlink:href="namespaceRa_1_1Core_1_1PointCloud.html#a28a01328c4602562cb1901d6cc618635" target="_top" xlink:title="Returns the axis&#45;aligned bounding box of a set of points. ">
<polygon fill="white" stroke="black" points="150,-0.5 150,-30.5 264,-30.5 264,-0.5 150,-0.5"/>
<text text-anchor="start" x="158" y="-18.5" font-family="Helvetica,sans-Serif" font-size="10.00">Ra::Core::PointCloud</text>
<text text-anchor="middle" x="207" y="-7.5" font-family="Helvetica,sans-Serif" font-size="10.00">::aabb</text>
</a>
</g>
</g>
<!-- Node1&#45;&gt;Node6 -->
<g id="edge6" class="edge"><title>Node1&#45;&gt;Node6</title>
<path fill="none" stroke="midnightblue" d="M114.375,-33.4536C122.712,-31.8199 131.366,-30.1242 139.88,-28.456"/>
<polygon fill="midnightblue" stroke="midnightblue" points="140.642,-31.8733 149.782,-26.5157 139.296,-25.004 140.642,-31.8733"/>
</g>
<!-- Node3 -->
<g id="node3" class="node"><title>Node3</title>
<g id="a_node3"><a xlink:href="namespaceRa_1_1Core_1_1PointCloud.html#acf3cbd5e18e3e0ac93463cd9e936b9d5" target="_top" xlink:title="Compute the mean point of a set of points, i.e. the barycenter. ">
<polygon fill="white" stroke="black" points="314.5,-113.5 314.5,-143.5 428.5,-143.5 428.5,-113.5 314.5,-113.5"/>
<text text-anchor="start" x="322.5" y="-131.5" font-family="Helvetica,sans-Serif" font-size="10.00">Ra::Core::PointCloud</text>
<text text-anchor="middle" x="371.5" y="-120.5" font-family="Helvetica,sans-Serif" font-size="10.00">::meanPoint</text>
</a>
</g>
</g>
<!-- Node2&#45;&gt;Node3 -->
<g id="edge2" class="edge"><title>Node2&#45;&gt;Node3</title>
<path fill="none" stroke="midnightblue" d="M253.265,-89.542C272.554,-95.9517 295.233,-103.488 315.478,-110.216"/>
<polygon fill="midnightblue" stroke="midnightblue" points="314.602,-113.613 325.196,-113.445 316.81,-106.97 314.602,-113.613"/>
</g>
<!-- Node4 -->
<g id="node4" class="node"><title>Node4</title>
<g id="a_node4"><a xlink:href="classRa_1_1Core_1_1VectorArray.html#a33438b558d38baf22e7975d26b5c61ca" target="_top" xlink:title="Returns the array as an Eigen Matrix Map. ">
<polygon fill="white" stroke="black" points="479,-69.5 479,-99.5 598,-99.5 598,-69.5 479,-69.5"/>
<text text-anchor="start" x="487" y="-87.5" font-family="Helvetica,sans-Serif" font-size="10.00">Ra::Core::VectorArray</text>
<text text-anchor="middle" x="538.5" y="-76.5" font-family="Helvetica,sans-Serif" font-size="10.00">::getMap</text>
</a>
</g>
</g>
<!-- Node2&#45;&gt;Node4 -->
<g id="edge4" class="edge"><title>Node2&#45;&gt;Node4</title>
<path fill="none" stroke="midnightblue" d="M264.269,-76.2077C320.826,-77.9242 408.087,-80.5725 468.721,-82.4126"/>
<polygon fill="midnightblue" stroke="midnightblue" points="468.865,-85.9185 478.966,-82.7236 469.077,-78.9217 468.865,-85.9185"/>
</g>
<!-- Node5 -->
<g id="node5" class="node"><title>Node5</title>
<g id="a_node5"><a xlink:href="namespaceRa_1_1Core_1_1Math.html#af36b0dc40414af4cc329f037d428dada" target="_top" xlink:title="Returns true if |a &#45;b| &lt; eps. ">
<polygon fill="white" stroke="black" points="300,-25.5 300,-55.5 443,-55.5 443,-25.5 300,-25.5"/>
<text text-anchor="start" x="308" y="-43.5" font-family="Helvetica,sans-Serif" font-size="10.00">Ra::Core::Math::areApprox</text>
<text text-anchor="middle" x="371.5" y="-32.5" font-family="Helvetica,sans-Serif" font-size="10.00">Equal</text>
</a>
</g>
</g>
<!-- Node2&#45;&gt;Node5 -->
<g id="edge5" class="edge"><title>Node2&#45;&gt;Node5</title>
<path fill="none" stroke="midnightblue" d="M264.379,-62.7039C272.704,-60.962 281.415,-59.1394 290.112,-57.3196"/>
<polygon fill="midnightblue" stroke="midnightblue" points="290.834,-60.7444 299.905,-55.2705 289.401,-53.8928 290.834,-60.7444"/>
</g>
<!-- Node3&#45;&gt;Node4 -->
<g id="edge3" class="edge"><title>Node3&#45;&gt;Node4</title>
<path fill="none" stroke="midnightblue" d="M428.822,-113.481C442.42,-109.855 457.075,-105.947 471.087,-102.21"/>
<polygon fill="midnightblue" stroke="midnightblue" points="472.391,-105.485 481.152,-99.5262 470.588,-98.7211 472.391,-105.485"/>
</g>
<!-- Node6&#45;&gt;Node4 -->
<g id="edge7" class="edge"><title>Node6&#45;&gt;Node4</title>
<path fill="none" stroke="midnightblue" d="M264.131,-5.91725C312.724,0.150297 384.238,3.66974 443,-15.5 471.136,-24.6787 497.853,-45.757 515.654,-62.2184"/>
<polygon fill="midnightblue" stroke="midnightblue" points="513.528,-65.0268 523.179,-69.3975 518.36,-59.9621 513.528,-65.0268"/>
</g>
</g>
</svg>
