<?xml version="1.0" encoding="UTF-8" standalone="no"?>
<!DOCTYPE svg PUBLIC "-//W3C//DTD SVG 1.1//EN"
 "http://www.w3.org/Graphics/SVG/1.1/DTD/svg11.dtd">
<!-- Generated by graphviz version 2.38.0 (20140413.2041)
 -->
<!-- Title: Ra::Core::MeshUtils::makeSharpBox Pages: 1 -->
<svg width="902pt" height="190pt"
 viewBox="0.00 0.00 902.00 189.64" xmlns="http://www.w3.org/2000/svg" xmlns:xlink="http://www.w3.org/1999/xlink">
<g id="graph0" class="graph" transform="scale(1 1) rotate(0) translate(4 185.644)">
<title>Ra::Core::MeshUtils::makeSharpBox</title>
<polygon fill="white" stroke="none" points="-4,4 -4,-185.644 898,-185.644 898,4 -4,4"/>
<!-- Node1 -->
<g id="node1" class="node"><title>Node1</title>
<polygon fill="#bfbfbf" stroke="black" points="0,-82.4397 0,-112.44 110,-112.44 110,-82.4397 0,-82.4397"/>
<text text-anchor="start" x="8" y="-100.44" font-family="Helvetica,sans-Serif" font-size="10.00">Ra::Core::MeshUtils</text>
<text text-anchor="middle" x="55" y="-89.4397" font-family="Helvetica,sans-Serif" font-size="10.00">::makeSharpBox</text>
</g>
<!-- Node2 -->
<g id="node2" class="node"><title>Node2</title>
<g id="a_node2"><a xlink:href="classRa_1_1Core_1_1TriangleMesh.html#a495116f40cfec8bb6504698d786d4b8c" target="_top" xlink:title="Access the vertices positions. ">
<polygon fill="white" stroke="black" points="602,-97.4397 602,-127.44 727,-127.44 727,-97.4397 602,-97.4397"/>
<text text-anchor="start" x="610" y="-115.44" font-family="Helvetica,sans-Serif" font-size="10.00">Ra::Core::TriangleMesh</text>
<text text-anchor="middle" x="664.5" y="-104.44" font-family="Helvetica,sans-Serif" font-size="10.00">::vertices</text>
</a>
</g>
</g>
<!-- Node1&#45;&gt;Node2 -->
<g id="edge1" class="edge"><title>Node1&#45;&gt;Node2</title>
<path fill="none" stroke="midnightblue" d="M89.515,-112.51C134.492,-131.829 217.372,-164.281 292,-176.44 408.446,-195.412 545.111,-155.928 615.776,-130.908"/>
<polygon fill="midnightblue" stroke="midnightblue" points="617.076,-134.16 625.3,-127.482 614.706,-127.574 617.076,-134.16"/>
</g>
<!-- Node4 -->
<g id="node4" class="node"><title>Node4</title>
<g id="a_node4"><a xlink:href="classRa_1_1Core_1_1TriangleMesh.html#a40d31b7b2943947d6eac5d906f0182fd" target="_top" xlink:title="Access the vertices normals. ">
<polygon fill="white" stroke="black" points="292,-11.4397 292,-41.4397 417,-41.4397 417,-11.4397 292,-11.4397"/>
<text text-anchor="start" x="300" y="-29.4397" font-family="Helvetica,sans-Serif" font-size="10.00">Ra::Core::TriangleMesh</text>
<text text-anchor="middle" x="354.5" y="-18.4397" font-family="Helvetica,sans-Serif" font-size="10.00">::normals</text>
</a>
</g>
</g>
<!-- Node1&#45;&gt;Node4 -->
<g id="edge3" class="edge"><title>Node1&#45;&gt;Node4</title>
<path fill="none" stroke="midnightblue" d="M108.226,-82.4299C120.578,-79.0195 133.727,-75.5023 146,-72.4397 190.885,-61.2386 241.575,-49.9758 281.618,-41.3982"/>
<polygon fill="midnightblue" stroke="midnightblue" points="282.51,-44.7869 291.559,-39.277 281.049,-37.941 282.51,-44.7869"/>
</g>
<!-- Node5 -->
<g id="node5" class="node"><title>Node5</title>
<g id="a_node5"><a xlink:href="namespaceRa_1_1Core_1_1MeshUtils.html#a5398f7b15335cb47b83a2d573f277640" target="_top" xlink:title="Check that the mesh is well built, asserting when it is not. ">
<polygon fill="white" stroke="black" points="146,-82.4397 146,-112.44 256,-112.44 256,-82.4397 146,-82.4397"/>
<text text-anchor="start" x="154" y="-100.44" font-family="Helvetica,sans-Serif" font-size="10.00">Ra::Core::MeshUtils</text>
<text text-anchor="middle" x="201" y="-89.4397" font-family="Helvetica,sans-Serif" font-size="10.00">::checkConsistency</text>
</a>
</g>
</g>
<!-- Node1&#45;&gt;Node5 -->
<g id="edge5" class="edge"><title>Node1&#45;&gt;Node5</title>
<path fill="none" stroke="midnightblue" d="M110.03,-97.4397C118.314,-97.4397 126.936,-97.4397 135.42,-97.4397"/>
<polygon fill="midnightblue" stroke="midnightblue" points="135.667,-100.94 145.667,-97.4397 135.667,-93.9398 135.667,-100.94"/>
</g>
<!-- Node3 -->
<g id="node3" class="node"><title>Node3</title>
<g id="a_node3"><a xlink:href="classRa_1_1Core_1_1AttribManager.html#aaa6088620425c1e1d74b50f1b50eb596" target="_top" xlink:title="Get attribute by handle. ">
<polygon fill="white" stroke="black" points="763,-32.4397 763,-62.4397 894,-62.4397 894,-32.4397 763,-32.4397"/>
<text text-anchor="start" x="771" y="-50.4397" font-family="Helvetica,sans-Serif" font-size="10.00">Ra::Core::AttribManager</text>
<text text-anchor="middle" x="828.5" y="-39.4397" font-family="Helvetica,sans-Serif" font-size="10.00">::getAttrib</text>
</a>
</g>
</g>
<!-- Node2&#45;&gt;Node3 -->
<g id="edge2" class="edge"><title>Node2&#45;&gt;Node3</title>
<path fill="none" stroke="midnightblue" d="M703.073,-97.364C726.095,-88.1268 755.762,-76.2233 780.353,-66.3566"/>
<polygon fill="midnightblue" stroke="midnightblue" points="781.873,-69.5182 789.85,-62.5461 779.266,-63.0216 781.873,-69.5182"/>
</g>
<!-- Node4&#45;&gt;Node3 -->
<g id="edge4" class="edge"><title>Node4&#45;&gt;Node3</title>
<path fill="none" stroke="midnightblue" d="M404.137,-11.4146C419.6,-7.32949 436.876,-3.47392 453,-1.4397 486.061,2.73144 722.303,-3.43137 727,-4.4397 749.223,-9.21026 772.649,-18.9285 791.288,-27.921"/>
<polygon fill="midnightblue" stroke="midnightblue" points="789.783,-31.0812 800.297,-32.3892 792.893,-24.8102 789.783,-31.0812"/>
</g>
<!-- Node5&#45;&gt;Node2 -->
<g id="edge6" class="edge"><title>Node5&#45;&gt;Node2</title>
<path fill="none" stroke="midnightblue" d="M256.297,-99.2045C339.549,-101.91 498.811,-107.087 591.569,-110.102"/>
<polygon fill="midnightblue" stroke="midnightblue" points="591.605,-113.605 601.713,-110.431 591.832,-106.608 591.605,-113.605"/>
</g>
<!-- Node5&#45;&gt;Node4 -->
<g id="edge14" class="edge"><title>Node5&#45;&gt;Node4</title>
<path fill="none" stroke="midnightblue" d="M229.188,-82.251C246.846,-72.634 270.497,-60.2148 292,-50.4397 295.652,-48.7796 299.455,-47.1248 303.299,-45.505"/>
<polygon fill="midnightblue" stroke="midnightblue" points="304.96,-48.6065 312.878,-41.5671 302.298,-42.1322 304.96,-48.6065"/>
</g>
<!-- Node6 -->
<g id="node6" class="node"><title>Node6</title>
<g id="a_node6"><a xlink:href="namespaceRa_1_1Core_1_1Algorithm.html#aea294cdb6f4f0d85955bdcccb22886ec" target="_top" xlink:title="Ra::Core::Algorithm::t">
<polygon fill="white" stroke="black" points="295,-147.94 295,-166.94 414,-166.94 414,-147.94 295,-147.94"/>
<text text-anchor="middle" x="354.5" y="-154.94" font-family="Helvetica,sans-Serif" font-size="10.00">Ra::Core::Algorithm::t</text>
</a>
</g>
</g>
<!-- Node5&#45;&gt;Node6 -->
<g id="edge7" class="edge"><title>Node5&#45;&gt;Node6</title>
<path fill="none" stroke="midnightblue" d="M239.63,-112.574C255.746,-119.034 274.784,-126.637 292,-133.44 300.924,-136.966 310.588,-140.752 319.555,-144.252"/>
<polygon fill="midnightblue" stroke="midnightblue" points="318.353,-147.54 328.942,-147.911 320.895,-141.018 318.353,-147.54"/>
</g>
<!-- Node7 -->
<g id="node7" class="node"><title>Node7</title>
<g id="a_node7"><a xlink:href="namespaceRa_1_1Core_1_1MeshUtils.html#a746199d436bb1dc31c4bccb3953743b9" target="_top" xlink:title="Returns the area of a given triangle. ">
<polygon fill="white" stroke="black" points="299.5,-60.4397 299.5,-90.4397 409.5,-90.4397 409.5,-60.4397 299.5,-60.4397"/>
<text text-anchor="start" x="307.5" y="-78.4397" font-family="Helvetica,sans-Serif" font-size="10.00">Ra::Core::MeshUtils</text>
<text text-anchor="middle" x="354.5" y="-67.4397" font-family="Helvetica,sans-Serif" font-size="10.00">::getTriangleArea</text>
</a>
</g>
</g>
<!-- Node5&#45;&gt;Node7 -->
<g id="edge8" class="edge"><title>Node5&#45;&gt;Node7</title>
<path fill="none" stroke="midnightblue" d="M256.267,-89.5593C266.993,-88.0018 278.345,-86.3533 289.362,-84.7535"/>
<polygon fill="midnightblue" stroke="midnightblue" points="289.964,-88.2028 299.357,-83.302 288.958,-81.2755 289.964,-88.2028"/>
</g>
<!-- Node8 -->
<g id="node8" class="node"><title>Node8</title>
<g id="a_node8"><a xlink:href="namespaceRa_1_1Core_1_1MeshUtils.html#afbee0fe3203a295fb1f93b33dfb33f81" target="_top" xlink:title="Fills the given array with the vertices of a given triangle. ">
<polygon fill="white" stroke="black" points="453,-60.4397 453,-90.4397 566,-90.4397 566,-60.4397 453,-60.4397"/>
<text text-anchor="start" x="461" y="-78.4397" font-family="Helvetica,sans-Serif" font-size="10.00">Ra::Core::MeshUtils</text>
<text text-anchor="middle" x="509.5" y="-67.4397" font-family="Helvetica,sans-Serif" font-size="10.00">::getTriangleVertices</text>
</a>
</g>
</g>
<!-- Node7&#45;&gt;Node8 -->
<g id="edge9" class="edge"><title>Node7&#45;&gt;Node8</title>
<path fill="none" stroke="midnightblue" d="M409.873,-75.4397C420.417,-75.4397 431.576,-75.4397 442.447,-75.4397"/>
<polygon fill="midnightblue" stroke="midnightblue" points="442.753,-78.9398 452.753,-75.4397 442.753,-71.9398 442.753,-78.9398"/>
</g>
<!-- Node9 -->
<g id="node9" class="node"><title>Node9</title>
<g id="a_node9"><a xlink:href="namespaceRa_1_1Core_1_1Geometry.html#a178f2b7309fe2ea5bc31a3abcb25368e" target="_top" xlink:title="Ra::Core::Geometry\l::triangleArea">
<polygon fill="white" stroke="black" points="454,-11.4397 454,-41.4397 565,-41.4397 565,-11.4397 454,-11.4397"/>
<text text-anchor="start" x="462" y="-29.4397" font-family="Helvetica,sans-Serif" font-size="10.00">Ra::Core::Geometry</text>
<text text-anchor="middle" x="509.5" y="-18.4397" font-family="Helvetica,sans-Serif" font-size="10.00">::triangleArea</text>
</a>
</g>
</g>
<!-- Node7&#45;&gt;Node9 -->
<g id="edge11" class="edge"><title>Node7&#45;&gt;Node9</title>
<path fill="none" stroke="midnightblue" d="M402.653,-60.3383C418.141,-55.3782 435.52,-49.8123 451.649,-44.6468"/>
<polygon fill="midnightblue" stroke="midnightblue" points="453.046,-47.8746 461.502,-41.4913 450.911,-41.2081 453.046,-47.8746"/>
</g>
<!-- Node8&#45;&gt;Node2 -->
<g id="edge10" class="edge"><title>Node8&#45;&gt;Node2</title>
<path fill="none" stroke="midnightblue" d="M566.169,-88.9022C574.612,-90.9439 583.421,-93.0743 592.141,-95.1829"/>
<polygon fill="midnightblue" stroke="midnightblue" points="591.381,-98.6 601.924,-97.5487 593.026,-91.7961 591.381,-98.6"/>
</g>
<!-- Node10 -->
<g id="node10" class="node"><title>Node10</title>
<g id="a_node10"><a xlink:href="namespaceOpenMesh.html#a71e7f1dd3eac016d2b8245ac408a291c" target="_top" xlink:title="OpenMesh::cross">
<polygon fill="white" stroke="black" points="615,-13.9397 615,-32.9397 714,-32.9397 714,-13.9397 615,-13.9397"/>
<text text-anchor="middle" x="664.5" y="-20.9397" font-family="Helvetica,sans-Serif" font-size="10.00">OpenMesh::cross</text>
</a>
</g>
</g>
<!-- Node9&#45;&gt;Node10 -->
<g id="edge12" class="edge"><title>Node9&#45;&gt;Node10</title>
<path fill="none" stroke="midnightblue" d="M565.304,-25.3651C578.092,-25.1144 591.761,-24.8463 604.713,-24.5924"/>
<polygon fill="midnightblue" stroke="midnightblue" points="604.987,-28.0878 614.917,-24.3923 604.85,-21.0891 604.987,-28.0878"/>
</g>
<!-- Node11 -->
<g id="node11" class="node"><title>Node11</title>
<g id="a_node11"><a xlink:href="namespaceOpenMesh.html#a8205f789ce08919bc11c58383574596c" target="_top" xlink:title="OpenMesh::norm">
<polygon fill="white" stroke="black" points="615,-51.9397 615,-70.9397 714,-70.9397 714,-51.9397 615,-51.9397"/>
<text text-anchor="middle" x="664.5" y="-58.9397" font-family="Helvetica,sans-Serif" font-size="10.00">OpenMesh::norm</text>
</a>
</g>
</g>
<!-- Node9&#45;&gt;Node11 -->
<g id="edge13" class="edge"><title>Node9&#45;&gt;Node11</title>
<path fill="none" stroke="midnightblue" d="M565.304,-38.9766C580.353,-42.4191 596.622,-46.1408 611.507,-49.5459"/>
<polygon fill="midnightblue" stroke="midnightblue" points="611.031,-53.0272 621.559,-51.8454 612.592,-46.2035 611.031,-53.0272"/>
</g>
</g>
</svg>
