<?xml version="1.0" encoding="UTF-8" standalone="no"?>
<!DOCTYPE svg PUBLIC "-//W3C//DTD SVG 1.1//EN"
 "http://www.w3.org/Graphics/SVG/1.1/DTD/svg11.dtd">
<!-- Generated by graphviz version 2.38.0 (20140413.2041)
 -->
<!-- Title: Ra::Core::MeshUtils::getAabb Pages: 1 -->
<svg width="446pt" height="88pt"
 viewBox="0.00 0.00 446.00 88.00" xmlns="http://www.w3.org/2000/svg" xmlns:xlink="http://www.w3.org/1999/xlink">
<g id="graph0" class="graph" transform="scale(1 1) rotate(0) translate(4 84)">
<title>Ra::Core::MeshUtils::getAabb</title>
<polygon fill="white" stroke="none" points="-4,4 -4,-84 442,-84 442,4 -4,4"/>
<!-- Node1 -->
<g id="node1" class="node"><title>Node1</title>
<polygon fill="#bfbfbf" stroke="black" points="0,-24.5 0,-54.5 110,-54.5 110,-24.5 0,-24.5"/>
<text text-anchor="start" x="8" y="-42.5" font-family="Helvetica,sans-Serif" font-size="10.00">Ra::Core::MeshUtils</text>
<text text-anchor="middle" x="55" y="-31.5" font-family="Helvetica,sans-Serif" font-size="10.00">::getAabb</text>
</g>
<!-- Node2 -->
<g id="node2" class="node"><title>Node2</title>
<g id="a_node2"><a xlink:href="namespaceRa_1_1Core_1_1PointCloud.html#a28a01328c4602562cb1901d6cc618635" target="_top" xlink:title="Returns the axis&#45;aligned bounding box of a set of points. ">
<polygon fill="white" stroke="black" points="151.5,-49.5 151.5,-79.5 265.5,-79.5 265.5,-49.5 151.5,-49.5"/>
<text text-anchor="start" x="159.5" y="-67.5" font-family="Helvetica,sans-Serif" font-size="10.00">Ra::Core::PointCloud</text>
<text text-anchor="middle" x="208.5" y="-56.5" font-family="Helvetica,sans-Serif" font-size="10.00">::aabb</text>
</a>
</g>
</g>
<!-- Node1&#45;&gt;Node2 -->
<g id="edge1" class="edge"><title>Node1&#45;&gt;Node2</title>
<path fill="none" stroke="midnightblue" d="M110.267,-48.455C120.369,-50.1219 131.026,-51.8805 141.435,-53.5983"/>
<polygon fill="midnightblue" stroke="midnightblue" points="140.877,-57.0533 151.313,-55.2283 142.017,-50.1467 140.877,-57.0533"/>
</g>
<!-- Node4 -->
<g id="node4" class="node"><title>Node4</title>
<g id="a_node4"><a xlink:href="classRa_1_1Core_1_1TriangleMesh.html#a495116f40cfec8bb6504698d786d4b8c" target="_top" xlink:title="Access the vertices positions. ">
<polygon fill="white" stroke="black" points="146,-0.5 146,-30.5 271,-30.5 271,-0.5 146,-0.5"/>
<text text-anchor="start" x="154" y="-18.5" font-family="Helvetica,sans-Serif" font-size="10.00">Ra::Core::TriangleMesh</text>
<text text-anchor="middle" x="208.5" y="-7.5" font-family="Helvetica,sans-Serif" font-size="10.00">::vertices</text>
</a>
</g>
</g>
<!-- Node1&#45;&gt;Node4 -->
<g id="edge3" class="edge"><title>Node1&#45;&gt;Node4</title>
<path fill="none" stroke="midnightblue" d="M110.267,-30.9032C118.567,-29.5885 127.241,-28.2143 135.845,-26.8513"/>
<polygon fill="midnightblue" stroke="midnightblue" points="136.557,-30.2823 145.886,-25.2606 135.461,-23.3685 136.557,-30.2823"/>
</g>
<!-- Node3 -->
<g id="node3" class="node"><title>Node3</title>
<g id="a_node3"><a xlink:href="classRa_1_1Core_1_1VectorArray.html#a33438b558d38baf22e7975d26b5c61ca" target="_top" xlink:title="Returns the array as an Eigen Matrix Map. ">
<polygon fill="white" stroke="black" points="313,-49.5 313,-79.5 432,-79.5 432,-49.5 313,-49.5"/>
<text text-anchor="start" x="321" y="-67.5" font-family="Helvetica,sans-Serif" font-size="10.00">Ra::Core::VectorArray</text>
<text text-anchor="middle" x="372.5" y="-56.5" font-family="Helvetica,sans-Serif" font-size="10.00">::getMap</text>
</a>
</g>
</g>
<!-- Node2&#45;&gt;Node3 -->
<g id="edge2" class="edge"><title>Node2&#45;&gt;Node3</title>
<path fill="none" stroke="midnightblue" d="M265.705,-64.5C277.628,-64.5 290.344,-64.5 302.675,-64.5"/>
<polygon fill="midnightblue" stroke="midnightblue" points="302.917,-68.0001 312.917,-64.5 302.917,-61.0001 302.917,-68.0001"/>
</g>
<!-- Node5 -->
<g id="node5" class="node"><title>Node5</title>
<g id="a_node5"><a xlink:href="classRa_1_1Core_1_1AttribManager.html#aaa6088620425c1e1d74b50f1b50eb596" target="_top" xlink:title="Get attribute by handle. ">
<polygon fill="white" stroke="black" points="307,-0.5 307,-30.5 438,-30.5 438,-0.5 307,-0.5"/>
<text text-anchor="start" x="315" y="-18.5" font-family="Helvetica,sans-Serif" font-size="10.00">Ra::Core::AttribManager</text>
<text text-anchor="middle" x="372.5" y="-7.5" font-family="Helvetica,sans-Serif" font-size="10.00">::getAttrib</text>
</a>
</g>
</g>
<!-- Node4&#45;&gt;Node5 -->
<g id="edge4" class="edge"><title>Node4&#45;&gt;Node5</title>
<path fill="none" stroke="midnightblue" d="M271.207,-15.5C279.471,-15.5 288.02,-15.5 296.481,-15.5"/>
<polygon fill="midnightblue" stroke="midnightblue" points="296.733,-19.0001 306.733,-15.5 296.733,-12.0001 296.733,-19.0001"/>
</g>
</g>
</svg>
