<?xml version="1.0" encoding="UTF-8" standalone="no"?>
<!DOCTYPE svg PUBLIC "-//W3C//DTD SVG 1.1//EN"
 "http://www.w3.org/Graphics/SVG/1.1/DTD/svg11.dtd">
<!-- Generated by graphviz version 2.38.0 (20140413.2041)
 -->
<!-- Title: Ra::Engine::DrawPrimitives::Frame Pages: 1 -->
<svg width="315pt" height="104pt"
 viewBox="0.00 0.00 315.00 104.00" xmlns="http://www.w3.org/2000/svg" xmlns:xlink="http://www.w3.org/1999/xlink">
<g id="graph0" class="graph" transform="scale(1 1) rotate(0) translate(4 100)">
<title>Ra::Engine::DrawPrimitives::Frame</title>
<polygon fill="white" stroke="none" points="-4,4 -4,-100 311,-100 311,4 -4,4"/>
<!-- Node1 -->
<g id="node1" class="node"><title>Node1</title>
<polygon fill="#bfbfbf" stroke="black" points="0,-33 0,-63 143,-63 143,-33 0,-33"/>
<text text-anchor="start" x="8" y="-51" font-family="Helvetica,sans-Serif" font-size="10.00">Ra::Engine::DrawPrimitives</text>
<text text-anchor="middle" x="71.5" y="-40" font-family="Helvetica,sans-Serif" font-size="10.00">::Frame</text>
</g>
<!-- Node2 -->
<g id="node2" class="node"><title>Node2</title>
<g id="a_node2"><a xlink:href="namespaceRa_1_1Core_1_1Colors.html#a5106b4a3ae9cf36ed9f57b733062346c" target="_top" xlink:title="Ra::Core::Colors::Red">
<polygon fill="white" stroke="black" points="185,-76.5 185,-95.5 301,-95.5 301,-76.5 185,-76.5"/>
<text text-anchor="middle" x="243" y="-83.5" font-family="Helvetica,sans-Serif" font-size="10.00">Ra::Core::Colors::Red</text>
</a>
</g>
</g>
<!-- Node1&#45;&gt;Node2 -->
<g id="edge1" class="edge"><title>Node1&#45;&gt;Node2</title>
<path fill="none" stroke="midnightblue" d="M139.491,-63.0186C156.039,-66.7285 173.533,-70.6504 189.293,-74.1836"/>
<polygon fill="midnightblue" stroke="midnightblue" points="188.848,-77.6708 199.372,-76.4432 190.379,-70.8403 188.848,-77.6708"/>
</g>
<!-- Node3 -->
<g id="node3" class="node"><title>Node3</title>
<g id="a_node3"><a xlink:href="namespaceRa_1_1Core_1_1Colors.html#ac6dad1afb4fbb6af3fb605e380dfe34b" target="_top" xlink:title="Ra::Core::Colors::Green">
<polygon fill="white" stroke="black" points="179,-38.5 179,-57.5 307,-57.5 307,-38.5 179,-38.5"/>
<text text-anchor="middle" x="243" y="-45.5" font-family="Helvetica,sans-Serif" font-size="10.00">Ra::Core::Colors::Green</text>
</a>
</g>
</g>
<!-- Node1&#45;&gt;Node3 -->
<g id="edge2" class="edge"><title>Node1&#45;&gt;Node3</title>
<path fill="none" stroke="midnightblue" d="M143.401,-48C151.785,-48 160.356,-48 168.771,-48"/>
<polygon fill="midnightblue" stroke="midnightblue" points="168.937,-51.5001 178.937,-48 168.937,-44.5001 168.937,-51.5001"/>
</g>
<!-- Node4 -->
<g id="node4" class="node"><title>Node4</title>
<g id="a_node4"><a xlink:href="namespaceRa_1_1Core_1_1Colors.html#a749b34eb900efbaade04345f6eea99db" target="_top" xlink:title="Ra::Core::Colors::Blue">
<polygon fill="white" stroke="black" points="183,-0.5 183,-19.5 303,-19.5 303,-0.5 183,-0.5"/>
<text text-anchor="middle" x="243" y="-7.5" font-family="Helvetica,sans-Serif" font-size="10.00">Ra::Core::Colors::Blue</text>
</a>
</g>
</g>
<!-- Node1&#45;&gt;Node4 -->
<g id="edge3" class="edge"><title>Node1&#45;&gt;Node4</title>
<path fill="none" stroke="midnightblue" d="M139.491,-32.9814C156.039,-29.2715 173.533,-25.3496 189.293,-21.8164"/>
<polygon fill="midnightblue" stroke="midnightblue" points="190.379,-25.1597 199.372,-19.5568 188.848,-18.3292 190.379,-25.1597"/>
</g>
</g>
</svg>
