<?xml version="1.0" encoding="UTF-8" standalone="no"?>
<!DOCTYPE svg PUBLIC "-//W3C//DTD SVG 1.1//EN"
 "http://www.w3.org/Graphics/SVG/1.1/DTD/svg11.dtd">
<!-- Generated by graphviz version 2.38.0 (20140413.2041)
 -->
<!-- Title: Ra::Core::Geometry::findParametrization Pages: 1 -->
<svg width="484pt" height="470pt"
 viewBox="0.00 0.00 484.00 470.00" xmlns="http://www.w3.org/2000/svg" xmlns:xlink="http://www.w3.org/1999/xlink">
<g id="graph0" class="graph" transform="scale(1 1) rotate(0) translate(4 466)">
<title>Ra::Core::Geometry::findParametrization</title>
<polygon fill="white" stroke="none" points="-4,4 -4,-466 480,-466 480,4 -4,4"/>
<!-- Node1 -->
<g id="node1" class="node"><title>Node1</title>
<polygon fill="#bfbfbf" stroke="black" points="0,-220.5 0,-250.5 116,-250.5 116,-220.5 0,-220.5"/>
<text text-anchor="start" x="8" y="-238.5" font-family="Helvetica,sans-Serif" font-size="10.00">Ra::Core::Geometry</text>
<text text-anchor="middle" x="58" y="-227.5" font-family="Helvetica,sans-Serif" font-size="10.00">::findParametrization</text>
</g>
<!-- Node2 -->
<g id="node2" class="node"><title>Node2</title>
<g id="a_node2"><a xlink:href="classRa_1_1Core_1_1TriangleMesh.html#a495116f40cfec8bb6504698d786d4b8c" target="_top" xlink:title="Access the vertices positions. ">
<polygon fill="white" stroke="black" points="168,-431.5 168,-461.5 293,-461.5 293,-431.5 168,-431.5"/>
<text text-anchor="start" x="176" y="-449.5" font-family="Helvetica,sans-Serif" font-size="10.00">Ra::Core::TriangleMesh</text>
<text text-anchor="middle" x="230.5" y="-438.5" font-family="Helvetica,sans-Serif" font-size="10.00">::vertices</text>
</a>
</g>
</g>
<!-- Node1&#45;&gt;Node2 -->
<g id="edge1" class="edge"><title>Node1&#45;&gt;Node2</title>
<path fill="none" stroke="midnightblue" d="M62.3465,-250.756C70.8845,-286.084 96.8116,-374.103 152,-421.5 154.212,-423.4 156.571,-425.156 159.038,-426.779"/>
<polygon fill="midnightblue" stroke="midnightblue" points="157.375,-429.859 167.79,-431.8 160.858,-423.788 157.375,-429.859"/>
</g>
<!-- Node4 -->
<g id="node4" class="node"><title>Node4</title>
<g id="a_node4"><a xlink:href="namespaceRa_1_1Core_1_1Algorithm.html#aea294cdb6f4f0d85955bdcccb22886ec" target="_top" xlink:title="Ra::Core::Algorithm::t">
<polygon fill="white" stroke="black" points="171,-393 171,-412 290,-412 290,-393 171,-393"/>
<text text-anchor="middle" x="230.5" y="-400" font-family="Helvetica,sans-Serif" font-size="10.00">Ra::Core::Algorithm::t</text>
</a>
</g>
</g>
<!-- Node1&#45;&gt;Node4 -->
<g id="edge3" class="edge"><title>Node1&#45;&gt;Node4</title>
<path fill="none" stroke="midnightblue" d="M64.1511,-250.807C75.1719,-281.126 104.014,-348.872 152,-383.5 154.896,-385.59 157.995,-387.452 161.226,-389.11"/>
<polygon fill="midnightblue" stroke="midnightblue" points="160.064,-392.423 170.625,-393.265 162.895,-386.021 160.064,-392.423"/>
</g>
<!-- Node5 -->
<g id="node5" class="node"><title>Node5</title>
<g id="a_node5"><a xlink:href="namespaceRa_1_1Core_1_1Geometry.html#a2ce97206423345716bf1b55f60c1c227" target="_top" xlink:title="Ra::Core::Geometry\l::triangleNormal">
<polygon fill="white" stroke="black" points="175,-343.5 175,-373.5 286,-373.5 286,-343.5 175,-343.5"/>
<text text-anchor="start" x="183" y="-361.5" font-family="Helvetica,sans-Serif" font-size="10.00">Ra::Core::Geometry</text>
<text text-anchor="middle" x="230.5" y="-350.5" font-family="Helvetica,sans-Serif" font-size="10.00">::triangleNormal</text>
</a>
</g>
</g>
<!-- Node1&#45;&gt;Node5 -->
<g id="edge4" class="edge"><title>Node1&#45;&gt;Node5</title>
<path fill="none" stroke="midnightblue" d="M69.2049,-250.548C84.6485,-272.201 116.002,-312.008 152,-334.5 156.295,-337.183 160.912,-339.586 165.676,-341.735"/>
<polygon fill="midnightblue" stroke="midnightblue" points="164.393,-344.992 174.972,-345.56 167.056,-338.518 164.393,-344.992"/>
</g>
<!-- Node7 -->
<g id="node7" class="node"><title>Node7</title>
<g id="a_node7"><a xlink:href="namespaceRa_1_1Core_1_1Geometry.html#aecb62214bedc582489bc41417f946abd" target="_top" xlink:title="Ra::Core::Geometry\l::barycentricCoordinate">
<polygon fill="white" stroke="black" points="166.5,-294.5 166.5,-324.5 294.5,-324.5 294.5,-294.5 166.5,-294.5"/>
<text text-anchor="start" x="174.5" y="-312.5" font-family="Helvetica,sans-Serif" font-size="10.00">Ra::Core::Geometry</text>
<text text-anchor="middle" x="230.5" y="-301.5" font-family="Helvetica,sans-Serif" font-size="10.00">::barycentricCoordinate</text>
</a>
</g>
</g>
<!-- Node1&#45;&gt;Node7 -->
<g id="edge6" class="edge"><title>Node1&#45;&gt;Node7</title>
<path fill="none" stroke="midnightblue" d="M84.0085,-250.657C102.37,-261.357 128.161,-275.511 152,-285.5 156.671,-287.457 161.558,-289.338 166.509,-291.125"/>
<polygon fill="midnightblue" stroke="midnightblue" points="165.474,-294.471 176.068,-294.442 167.769,-287.857 165.474,-294.471"/>
</g>
<!-- Node8 -->
<g id="node8" class="node"><title>Node8</title>
<g id="a_node8"><a xlink:href="classRa_1_1Core_1_1Geometry_1_1Mapping.html#a88b94043360f55730de9899181cbd31f" target="_top" xlink:title="Ra::Core::Geometry\l::Mapping::isBoundToElement">
<polygon fill="white" stroke="black" points="152,-245.5 152,-275.5 309,-275.5 309,-245.5 152,-245.5"/>
<text text-anchor="start" x="160" y="-263.5" font-family="Helvetica,sans-Serif" font-size="10.00">Ra::Core::Geometry</text>
<text text-anchor="middle" x="230.5" y="-252.5" font-family="Helvetica,sans-Serif" font-size="10.00">::Mapping::isBoundToElement</text>
</a>
</g>
</g>
<!-- Node1&#45;&gt;Node8 -->
<g id="edge7" class="edge"><title>Node1&#45;&gt;Node8</title>
<path fill="none" stroke="midnightblue" d="M116.248,-243.894C124.453,-245.097 133.048,-246.357 141.677,-247.623"/>
<polygon fill="midnightblue" stroke="midnightblue" points="141.4,-251.119 151.802,-249.107 142.416,-244.194 141.4,-251.119"/>
</g>
<!-- Node10 -->
<g id="node10" class="node"><title>Node10</title>
<g id="a_node10"><a xlink:href="classRa_1_1Core_1_1Geometry_1_1Mapping.html#a77e6d8203213675dd143a7e48866cca2" target="_top" xlink:title="DELTA. ">
<polygon fill="white" stroke="black" points="175,-196.5 175,-226.5 286,-226.5 286,-196.5 175,-196.5"/>
<text text-anchor="start" x="183" y="-214.5" font-family="Helvetica,sans-Serif" font-size="10.00">Ra::Core::Geometry</text>
<text text-anchor="middle" x="230.5" y="-203.5" font-family="Helvetica,sans-Serif" font-size="10.00">::Mapping::getDelta</text>
</a>
</g>
</g>
<!-- Node1&#45;&gt;Node10 -->
<g id="edge9" class="edge"><title>Node1&#45;&gt;Node10</title>
<path fill="none" stroke="midnightblue" d="M116.248,-227.442C131.803,-225.252 148.756,-222.866 164.696,-220.622"/>
<polygon fill="midnightblue" stroke="midnightblue" points="165.585,-224.031 175,-219.172 164.609,-217.1 165.585,-224.031"/>
</g>
<!-- Node11 -->
<g id="node11" class="node"><title>Node11</title>
<g id="a_node11"><a xlink:href="classRa_1_1Core_1_1Geometry_1_1Mapping.html#a02cc79d48245d002d8fb6587a7ab6df9" target="_top" xlink:title="Ra::Core::Geometry\l::Mapping::setID">
<polygon fill="white" stroke="black" points="175,-147.5 175,-177.5 286,-177.5 286,-147.5 175,-147.5"/>
<text text-anchor="start" x="183" y="-165.5" font-family="Helvetica,sans-Serif" font-size="10.00">Ra::Core::Geometry</text>
<text text-anchor="middle" x="230.5" y="-154.5" font-family="Helvetica,sans-Serif" font-size="10.00">::Mapping::setID</text>
</a>
</g>
</g>
<!-- Node1&#45;&gt;Node11 -->
<g id="edge10" class="edge"><title>Node1&#45;&gt;Node11</title>
<path fill="none" stroke="midnightblue" d="M85.306,-220.446C103.634,-210.327 128.85,-197.131 152,-187.5 157.435,-185.239 163.153,-183.052 168.917,-180.974"/>
<polygon fill="midnightblue" stroke="midnightblue" points="170.332,-184.188 178.62,-177.589 168.026,-177.579 170.332,-184.188"/>
</g>
<!-- Node12 -->
<g id="node12" class="node"><title>Node12</title>
<g id="a_node12"><a xlink:href="classRa_1_1Core_1_1Geometry_1_1Mapping.html#a34a8b68d4ff74a12aa4019b515ca68f4" target="_top" xlink:title="Ra::Core::Geometry\l::Mapping::setDelta">
<polygon fill="white" stroke="black" points="175,-98.5 175,-128.5 286,-128.5 286,-98.5 175,-98.5"/>
<text text-anchor="start" x="183" y="-116.5" font-family="Helvetica,sans-Serif" font-size="10.00">Ra::Core::Geometry</text>
<text text-anchor="middle" x="230.5" y="-105.5" font-family="Helvetica,sans-Serif" font-size="10.00">::Mapping::setDelta</text>
</a>
</g>
</g>
<!-- Node1&#45;&gt;Node12 -->
<g id="edge11" class="edge"><title>Node1&#45;&gt;Node12</title>
<path fill="none" stroke="midnightblue" d="M69.5722,-220.466C85.2372,-199.252 116.601,-160.656 152,-138.5 156.127,-135.917 160.546,-133.576 165.104,-131.46"/>
<polygon fill="midnightblue" stroke="midnightblue" points="166.77,-134.555 174.605,-127.424 164.033,-128.112 166.77,-134.555"/>
</g>
<!-- Node14 -->
<g id="node14" class="node"><title>Node14</title>
<g id="a_node14"><a xlink:href="classRa_1_1Core_1_1Geometry_1_1Mapping.html#a2404a199905a44261da201539c62db97" target="_top" xlink:title="Ra::Core::Geometry\l::Mapping::setAlpha">
<polygon fill="white" stroke="black" points="175,-49.5 175,-79.5 286,-79.5 286,-49.5 175,-49.5"/>
<text text-anchor="start" x="183" y="-67.5" font-family="Helvetica,sans-Serif" font-size="10.00">Ra::Core::Geometry</text>
<text text-anchor="middle" x="230.5" y="-56.5" font-family="Helvetica,sans-Serif" font-size="10.00">::Mapping::setAlpha</text>
</a>
</g>
</g>
<!-- Node1&#45;&gt;Node14 -->
<g id="edge13" class="edge"><title>Node1&#45;&gt;Node14</title>
<path fill="none" stroke="midnightblue" d="M64.6042,-220.23C76.245,-190.611 105.864,-125.146 152,-89.5 156.159,-86.2869 160.743,-83.4799 165.543,-81.0287"/>
<polygon fill="midnightblue" stroke="midnightblue" points="167.326,-84.0631 174.983,-76.7402 164.43,-77.69 167.326,-84.0631"/>
</g>
<!-- Node15 -->
<g id="node15" class="node"><title>Node15</title>
<g id="a_node15"><a xlink:href="classRa_1_1Core_1_1Geometry_1_1Mapping.html#a982c41a377dbe1cd10e67b463c3d57b2" target="_top" xlink:title="Ra::Core::Geometry\l::Mapping::setBeta">
<polygon fill="white" stroke="black" points="175,-0.5 175,-30.5 286,-30.5 286,-0.5 175,-0.5"/>
<text text-anchor="start" x="183" y="-18.5" font-family="Helvetica,sans-Serif" font-size="10.00">Ra::Core::Geometry</text>
<text text-anchor="middle" x="230.5" y="-7.5" font-family="Helvetica,sans-Serif" font-size="10.00">::Mapping::setBeta</text>
</a>
</g>
</g>
<!-- Node1&#45;&gt;Node15 -->
<g id="edge14" class="edge"><title>Node1&#45;&gt;Node15</title>
<path fill="none" stroke="midnightblue" d="M61.9404,-220.334C69.7972,-183.878 94.7031,-90.643 152,-40.5 156.123,-36.8922 160.773,-33.8038 165.696,-31.1602"/>
<polygon fill="midnightblue" stroke="midnightblue" points="167.248,-34.298 174.799,-26.866 164.262,-27.967 167.248,-34.298"/>
</g>
<!-- Node3 -->
<g id="node3" class="node"><title>Node3</title>
<g id="a_node3"><a xlink:href="classRa_1_1Core_1_1AttribManager.html#aaa6088620425c1e1d74b50f1b50eb596" target="_top" xlink:title="Get attribute by handle. ">
<polygon fill="white" stroke="black" points="345,-431.5 345,-461.5 476,-461.5 476,-431.5 345,-431.5"/>
<text text-anchor="start" x="353" y="-449.5" font-family="Helvetica,sans-Serif" font-size="10.00">Ra::Core::AttribManager</text>
<text text-anchor="middle" x="410.5" y="-438.5" font-family="Helvetica,sans-Serif" font-size="10.00">::getAttrib</text>
</a>
</g>
</g>
<!-- Node2&#45;&gt;Node3 -->
<g id="edge2" class="edge"><title>Node2&#45;&gt;Node3</title>
<path fill="none" stroke="midnightblue" d="M293.256,-446.5C306.539,-446.5 320.717,-446.5 334.442,-446.5"/>
<polygon fill="midnightblue" stroke="midnightblue" points="334.827,-450 344.827,-446.5 334.827,-443 334.827,-450"/>
</g>
<!-- Node6 -->
<g id="node6" class="node"><title>Node6</title>
<g id="a_node6"><a xlink:href="namespaceOpenMesh.html#a71e7f1dd3eac016d2b8245ac408a291c" target="_top" xlink:title="OpenMesh::cross">
<polygon fill="white" stroke="black" points="361,-349 361,-368 460,-368 460,-349 361,-349"/>
<text text-anchor="middle" x="410.5" y="-356" font-family="Helvetica,sans-Serif" font-size="10.00">OpenMesh::cross</text>
</a>
</g>
</g>
<!-- Node5&#45;&gt;Node6 -->
<g id="edge5" class="edge"><title>Node5&#45;&gt;Node6</title>
<path fill="none" stroke="midnightblue" d="M286.358,-358.5C306.719,-358.5 329.89,-358.5 350.597,-358.5"/>
<polygon fill="midnightblue" stroke="midnightblue" points="350.856,-362 360.856,-358.5 350.856,-355 350.856,-362"/>
</g>
<!-- Node9 -->
<g id="node9" class="node"><title>Node9</title>
<g id="a_node9"><a xlink:href="classRa_1_1Core_1_1Geometry_1_1Mapping.html#a4f14c58a7a6f13376064743c9284019c" target="_top" xlink:title="ID. ">
<polygon fill="white" stroke="black" points="355,-245.5 355,-275.5 466,-275.5 466,-245.5 355,-245.5"/>
<text text-anchor="start" x="363" y="-263.5" font-family="Helvetica,sans-Serif" font-size="10.00">Ra::Core::Geometry</text>
<text text-anchor="middle" x="410.5" y="-252.5" font-family="Helvetica,sans-Serif" font-size="10.00">::Mapping::getID</text>
</a>
</g>
</g>
<!-- Node8&#45;&gt;Node9 -->
<g id="edge8" class="edge"><title>Node8&#45;&gt;Node9</title>
<path fill="none" stroke="midnightblue" d="M309.056,-260.5C321.012,-260.5 333.248,-260.5 344.882,-260.5"/>
<polygon fill="midnightblue" stroke="midnightblue" points="344.928,-264 354.928,-260.5 344.928,-257 344.928,-264"/>
</g>
<!-- Node13 -->
<g id="node13" class="node"><title>Node13</title>
<g id="a_node13"><a xlink:href="namespaceRa_1_1Core_1_1Algorithm.html#abebfe08bb2303204bea2baea8195439d" target="_top" xlink:title="Ra::Core::Algorithm\l::delta">
<polygon fill="white" stroke="black" points="355.5,-98.5 355.5,-128.5 465.5,-128.5 465.5,-98.5 355.5,-98.5"/>
<text text-anchor="start" x="363.5" y="-116.5" font-family="Helvetica,sans-Serif" font-size="10.00">Ra::Core::Algorithm</text>
<text text-anchor="middle" x="410.5" y="-105.5" font-family="Helvetica,sans-Serif" font-size="10.00">::delta</text>
</a>
</g>
</g>
<!-- Node12&#45;&gt;Node13 -->
<g id="edge12" class="edge"><title>Node12&#45;&gt;Node13</title>
<path fill="none" stroke="midnightblue" d="M286.358,-113.5C304.975,-113.5 325.94,-113.5 345.224,-113.5"/>
<polygon fill="midnightblue" stroke="midnightblue" points="345.434,-117 355.434,-113.5 345.434,-110 345.434,-117"/>
</g>
</g>
</svg>
