<?xml version="1.0" encoding="UTF-8" standalone="no"?>
<!DOCTYPE svg PUBLIC "-//W3C//DTD SVG 1.1//EN"
 "http://www.w3.org/Graphics/SVG/1.1/DTD/svg11.dtd">
<!-- Generated by graphviz version 2.38.0 (20140413.2041)
 -->
<!-- Title: Ra::Core::DistanceQueries::segmentToTriSq Pages: 1 -->
<svg width="506pt" height="105pt"
 viewBox="0.00 0.00 506.00 104.50" xmlns="http://www.w3.org/2000/svg" xmlns:xlink="http://www.w3.org/1999/xlink">
<g id="graph0" class="graph" transform="scale(1 1) rotate(0) translate(4 100.5)">
<title>Ra::Core::DistanceQueries::segmentToTriSq</title>
<polygon fill="white" stroke="none" points="-4,4 -4,-100.5 502,-100.5 502,4 -4,4"/>
<!-- Node1 -->
<g id="node1" class="node"><title>Node1</title>
<polygon fill="#bfbfbf" stroke="black" points="0,-24.5 0,-54.5 142,-54.5 142,-24.5 0,-24.5"/>
<text text-anchor="start" x="8" y="-42.5" font-family="Helvetica,sans-Serif" font-size="10.00">Ra::Core::DistanceQueries</text>
<text text-anchor="middle" x="71" y="-31.5" font-family="Helvetica,sans-Serif" font-size="10.00">::segmentToTriSq</text>
</g>
<!-- Node2 -->
<g id="node2" class="node"><title>Node2</title>
<g id="a_node2"><a xlink:href="namespaceRa_1_1Core_1_1DistanceQueries.html#a69de99ca80dd56c39c37e8f604da3ddb" target="_top" xlink:title="Computes the squared distance from a query line to the triangle v. ">
<polygon fill="white" stroke="black" points="178,-49.5 178,-79.5 320,-79.5 320,-49.5 178,-49.5"/>
<text text-anchor="start" x="186" y="-67.5" font-family="Helvetica,sans-Serif" font-size="10.00">Ra::Core::DistanceQueries</text>
<text text-anchor="middle" x="249" y="-56.5" font-family="Helvetica,sans-Serif" font-size="10.00">::lineToTriSq</text>
</a>
</g>
</g>
<!-- Node1&#45;&gt;Node2 -->
<g id="edge1" class="edge"><title>Node1&#45;&gt;Node2</title>
<path fill="none" stroke="midnightblue" d="M142.066,-49.4525C150.54,-50.6563 159.247,-51.893 167.852,-53.1154"/>
<polygon fill="midnightblue" stroke="midnightblue" points="167.495,-56.5997 177.888,-54.5409 168.48,-49.6693 167.495,-56.5997"/>
</g>
<!-- Node5 -->
<g id="node5" class="node"><title>Node5</title>
<g id="a_node5"><a xlink:href="namespaceRa_1_1Core_1_1DistanceQueries.html#afc2a145fc94c30b5945a7e1d12305c79" target="_top" xlink:title="Computes the squared distance from a query point Q to the triangle ABC. ">
<polygon fill="white" stroke="black" points="178,-0.5 178,-30.5 320,-30.5 320,-0.5 178,-0.5"/>
<text text-anchor="start" x="186" y="-18.5" font-family="Helvetica,sans-Serif" font-size="10.00">Ra::Core::DistanceQueries</text>
<text text-anchor="middle" x="249" y="-7.5" font-family="Helvetica,sans-Serif" font-size="10.00">::pointToTriSq</text>
</a>
</g>
</g>
<!-- Node1&#45;&gt;Node5 -->
<g id="edge4" class="edge"><title>Node1&#45;&gt;Node5</title>
<path fill="none" stroke="midnightblue" d="M142.066,-29.9456C150.54,-28.79 159.247,-27.6027 167.852,-26.4292"/>
<polygon fill="midnightblue" stroke="midnightblue" points="168.453,-29.8799 177.888,-25.0607 167.507,-22.944 168.453,-29.8799"/>
</g>
<!-- Node3 -->
<g id="node3" class="node"><title>Node3</title>
<g id="a_node3"><a xlink:href="namespaceOpenMesh.html#a575b338f0fc9ecb5393d23e977e6ac38" target="_top" xlink:title="OpenMesh::dot">
<polygon fill="white" stroke="black" points="382.5,-77 382.5,-96 471.5,-96 471.5,-77 382.5,-77"/>
<text text-anchor="middle" x="427" y="-84" font-family="Helvetica,sans-Serif" font-size="10.00">OpenMesh::dot</text>
</a>
</g>
</g>
<!-- Node2&#45;&gt;Node3 -->
<g id="edge2" class="edge"><title>Node2&#45;&gt;Node3</title>
<path fill="none" stroke="midnightblue" d="M320.066,-73.2582C337.451,-75.4314 355.811,-77.7264 372.275,-79.7844"/>
<polygon fill="midnightblue" stroke="midnightblue" points="371.898,-83.2644 382.255,-81.0319 372.766,-76.3185 371.898,-83.2644"/>
</g>
<!-- Node4 -->
<g id="node4" class="node"><title>Node4</title>
<g id="a_node4"><a xlink:href="namespaceRa_1_1Core_1_1DistanceQueries.html#aac62676101f136df40b1f238e3db48be" target="_top" xlink:title="Computes the squared distance from a query line to a segment. ">
<polygon fill="white" stroke="black" points="356,-27.5 356,-57.5 498,-57.5 498,-27.5 356,-27.5"/>
<text text-anchor="start" x="364" y="-45.5" font-family="Helvetica,sans-Serif" font-size="10.00">Ra::Core::DistanceQueries</text>
<text text-anchor="middle" x="427" y="-34.5" font-family="Helvetica,sans-Serif" font-size="10.00">::lineToSegSq</text>
</a>
</g>
</g>
<!-- Node2&#45;&gt;Node4 -->
<g id="edge3" class="edge"><title>Node2&#45;&gt;Node4</title>
<path fill="none" stroke="midnightblue" d="M320.066,-55.7418C328.54,-54.6825 337.247,-53.5942 345.852,-52.5185"/>
<polygon fill="midnightblue" stroke="midnightblue" points="346.399,-55.9774 355.888,-51.264 345.531,-49.0315 346.399,-55.9774"/>
</g>
</g>
</svg>
