<?xml version="1.0" encoding="UTF-8" standalone="no"?>
<!DOCTYPE svg PUBLIC "-//W3C//DTD SVG 1.1//EN"
 "http://www.w3.org/Graphics/SVG/1.1/DTD/svg11.dtd">
<!-- Generated by graphviz version 2.38.0 (20140413.2041)
 -->
<!-- Title: Ra::Core::MeshUtils::makeGeodesicSphere Pages: 1 -->
<svg width="926pt" height="181pt"
 viewBox="0.00 0.00 926.00 181.45" xmlns="http://www.w3.org/2000/svg" xmlns:xlink="http://www.w3.org/1999/xlink">
<g id="graph0" class="graph" transform="scale(1 1) rotate(0) translate(4 177.452)">
<title>Ra::Core::MeshUtils::makeGeodesicSphere</title>
<polygon fill="white" stroke="none" points="-4,4 -4,-177.452 922,-177.452 922,4 -4,4"/>
<!-- Node1 -->
<g id="node1" class="node"><title>Node1</title>
<polygon fill="#bfbfbf" stroke="black" points="0,-88.5 0,-118.5 128,-118.5 128,-88.5 0,-88.5"/>
<text text-anchor="start" x="8" y="-106.5" font-family="Helvetica,sans-Serif" font-size="10.00">Ra::Core::MeshUtils</text>
<text text-anchor="middle" x="64" y="-95.5" font-family="Helvetica,sans-Serif" font-size="10.00">::makeGeodesicSphere</text>
</g>
<!-- Node2 -->
<g id="node2" class="node"><title>Node2</title>
<g id="a_node2"><a xlink:href="classRa_1_1Core_1_1TriangleMesh.html#a495116f40cfec8bb6504698d786d4b8c" target="_top" xlink:title="Access the vertices positions. ">
<polygon fill="white" stroke="black" points="626,-126.5 626,-156.5 751,-156.5 751,-126.5 626,-126.5"/>
<text text-anchor="start" x="634" y="-144.5" font-family="Helvetica,sans-Serif" font-size="10.00">Ra::Core::TriangleMesh</text>
<text text-anchor="middle" x="688.5" y="-133.5" font-family="Helvetica,sans-Serif" font-size="10.00">::vertices</text>
</a>
</g>
</g>
<!-- Node1&#45;&gt;Node2 -->
<g id="edge1" class="edge"><title>Node1&#45;&gt;Node2</title>
<path fill="none" stroke="midnightblue" d="M91.3291,-118.602C110.733,-128.871 138.139,-141.622 164,-147.5 348.666,-189.471 401.176,-170.94 590,-156.5 598.346,-155.862 607.059,-154.92 615.695,-153.815"/>
<polygon fill="midnightblue" stroke="midnightblue" points="616.331,-157.261 625.77,-152.45 615.391,-150.324 616.331,-157.261"/>
</g>
<!-- Node4 -->
<g id="node4" class="node"><title>Node4</title>
<g id="a_node4"><a xlink:href="classRa_1_1Core_1_1TriangleMesh.html#a40d31b7b2943947d6eac5d906f0182fd" target="_top" xlink:title="Access the vertices normals. ">
<polygon fill="white" stroke="black" points="316,-0.5 316,-30.5 441,-30.5 441,-0.5 316,-0.5"/>
<text text-anchor="start" x="324" y="-18.5" font-family="Helvetica,sans-Serif" font-size="10.00">Ra::Core::TriangleMesh</text>
<text text-anchor="middle" x="378.5" y="-7.5" font-family="Helvetica,sans-Serif" font-size="10.00">::normals</text>
</a>
</g>
</g>
<!-- Node1&#45;&gt;Node4 -->
<g id="edge3" class="edge"><title>Node1&#45;&gt;Node4</title>
<path fill="none" stroke="midnightblue" d="M118.366,-88.4722C172.664,-73.1818 256.803,-49.4884 314.378,-33.2751"/>
<polygon fill="midnightblue" stroke="midnightblue" points="315.416,-36.619 324.093,-30.5394 313.519,-29.881 315.416,-36.619"/>
</g>
<!-- Node5 -->
<g id="node5" class="node"><title>Node5</title>
<g id="a_node5"><a xlink:href="namespaceRa_1_1Core_1_1Vector.html#a42d87f3bd0658bac532d72f0ec528827" target="_top" xlink:title="Get the cosine of the angle between two vectors. ">
<polygon fill="white" stroke="black" points="164,-12 164,-31 280,-31 280,-12 164,-12"/>
<text text-anchor="middle" x="222" y="-19" font-family="Helvetica,sans-Serif" font-size="10.00">Ra::Core::Vector::cos</text>
</a>
</g>
</g>
<!-- Node1&#45;&gt;Node5 -->
<g id="edge5" class="edge"><title>Node1&#45;&gt;Node5</title>
<path fill="none" stroke="midnightblue" d="M88.9176,-88.2896C108.669,-76.0229 137.639,-58.7001 164,-45.5 171.291,-41.8493 179.271,-38.2526 186.891,-34.9992"/>
<polygon fill="midnightblue" stroke="midnightblue" points="188.392,-38.1658 196.271,-31.0835 185.695,-31.706 188.392,-38.1658"/>
</g>
<!-- Node6 -->
<g id="node6" class="node"><title>Node6</title>
<g id="a_node6"><a xlink:href="namespaceRa_1_1Core_1_1MeshUtils.html#afbee0fe3203a295fb1f93b33dfb33f81" target="_top" xlink:title="Fills the given array with the vertices of a given triangle. ">
<polygon fill="white" stroke="black" points="477,-88.5 477,-118.5 590,-118.5 590,-88.5 477,-88.5"/>
<text text-anchor="start" x="485" y="-106.5" font-family="Helvetica,sans-Serif" font-size="10.00">Ra::Core::MeshUtils</text>
<text text-anchor="middle" x="533.5" y="-95.5" font-family="Helvetica,sans-Serif" font-size="10.00">::getTriangleVertices</text>
</a>
</g>
</g>
<!-- Node1&#45;&gt;Node6 -->
<g id="edge6" class="edge"><title>Node1&#45;&gt;Node6</title>
<path fill="none" stroke="midnightblue" d="M114.399,-118.526C130.101,-122.611 147.64,-126.466 164,-128.5 286.171,-143.687 318.982,-144.869 441,-128.5 452.859,-126.909 465.356,-124.208 477.175,-121.154"/>
<polygon fill="midnightblue" stroke="midnightblue" points="478.173,-124.51 486.914,-118.523 476.347,-117.752 478.173,-124.51"/>
</g>
<!-- Node7 -->
<g id="node7" class="node"><title>Node7</title>
<g id="a_node7"><a xlink:href="namespaceRa_1_1Core_1_1MeshUtils.html#a5398f7b15335cb47b83a2d573f277640" target="_top" xlink:title="Check that the mesh is well built, asserting when it is not. ">
<polygon fill="white" stroke="black" points="167,-88.5 167,-118.5 277,-118.5 277,-88.5 167,-88.5"/>
<text text-anchor="start" x="175" y="-106.5" font-family="Helvetica,sans-Serif" font-size="10.00">Ra::Core::MeshUtils</text>
<text text-anchor="middle" x="222" y="-95.5" font-family="Helvetica,sans-Serif" font-size="10.00">::checkConsistency</text>
</a>
</g>
</g>
<!-- Node1&#45;&gt;Node7 -->
<g id="edge8" class="edge"><title>Node1&#45;&gt;Node7</title>
<path fill="none" stroke="midnightblue" d="M128.002,-103.5C137.441,-103.5 147.185,-103.5 156.651,-103.5"/>
<polygon fill="midnightblue" stroke="midnightblue" points="156.788,-107 166.788,-103.5 156.788,-100 156.788,-107"/>
</g>
<!-- Node3 -->
<g id="node3" class="node"><title>Node3</title>
<g id="a_node3"><a xlink:href="classRa_1_1Core_1_1AttribManager.html#aaa6088620425c1e1d74b50f1b50eb596" target="_top" xlink:title="Get attribute by handle. ">
<polygon fill="white" stroke="black" points="787,-60.5 787,-90.5 918,-90.5 918,-60.5 787,-60.5"/>
<text text-anchor="start" x="795" y="-78.5" font-family="Helvetica,sans-Serif" font-size="10.00">Ra::Core::AttribManager</text>
<text text-anchor="middle" x="852.5" y="-67.5" font-family="Helvetica,sans-Serif" font-size="10.00">::getAttrib</text>
</a>
</g>
</g>
<!-- Node2&#45;&gt;Node3 -->
<g id="edge2" class="edge"><title>Node2&#45;&gt;Node3</title>
<path fill="none" stroke="midnightblue" d="M726.666,-126.358C749.922,-116.884 780.076,-104.599 804.922,-94.4763"/>
<polygon fill="midnightblue" stroke="midnightblue" points="806.566,-97.5856 814.507,-90.5713 803.925,-91.103 806.566,-97.5856"/>
</g>
<!-- Node4&#45;&gt;Node3 -->
<g id="edge4" class="edge"><title>Node4&#45;&gt;Node3</title>
<path fill="none" stroke="midnightblue" d="M441.212,-11.6617C515.67,-8.54831 644.165,-8.04706 751,-32.5 772.998,-37.535 796.243,-47.1699 814.831,-56.0452"/>
<polygon fill="midnightblue" stroke="midnightblue" points="813.305,-59.1951 823.825,-60.4528 816.386,-52.9093 813.305,-59.1951"/>
</g>
<!-- Node6&#45;&gt;Node2 -->
<g id="edge7" class="edge"><title>Node6&#45;&gt;Node2</title>
<path fill="none" stroke="midnightblue" d="M590.169,-117.326C598.954,-119.508 608.135,-121.788 617.199,-124.04"/>
<polygon fill="midnightblue" stroke="midnightblue" points="616.416,-127.451 626.965,-126.465 618.104,-120.658 616.416,-127.451"/>
</g>
<!-- Node7&#45;&gt;Node2 -->
<g id="edge9" class="edge"><title>Node7&#45;&gt;Node2</title>
<path fill="none" stroke="midnightblue" d="M270.828,-118.589C285.207,-122.517 301.119,-126.269 316,-128.5 419.32,-143.988 540.526,-145.086 615.681,-143.801"/>
<polygon fill="midnightblue" stroke="midnightblue" points="616.041,-147.294 625.973,-143.605 615.908,-140.296 616.041,-147.294"/>
</g>
<!-- Node7&#45;&gt;Node4 -->
<g id="edge16" class="edge"><title>Node7&#45;&gt;Node4</title>
<path fill="none" stroke="midnightblue" d="M255.213,-88.3913C263.54,-83.9942 272.318,-78.906 280,-73.5 297.75,-61.0088 297.657,-52.1034 316,-40.5 319.105,-38.536 322.39,-36.6736 325.762,-34.9178"/>
<polygon fill="midnightblue" stroke="midnightblue" points="327.357,-38.0343 334.829,-30.5227 324.303,-31.7353 327.357,-38.0343"/>
</g>
<!-- Node8 -->
<g id="node8" class="node"><title>Node8</title>
<g id="a_node8"><a xlink:href="namespaceRa_1_1Core_1_1Algorithm.html#aea294cdb6f4f0d85955bdcccb22886ec" target="_top" xlink:title="Ra::Core::Algorithm::t">
<polygon fill="white" stroke="black" points="319,-50 319,-69 438,-69 438,-50 319,-50"/>
<text text-anchor="middle" x="378.5" y="-57" font-family="Helvetica,sans-Serif" font-size="10.00">Ra::Core::Algorithm::t</text>
</a>
</g>
</g>
<!-- Node7&#45;&gt;Node8 -->
<g id="edge10" class="edge"><title>Node7&#45;&gt;Node8</title>
<path fill="none" stroke="midnightblue" d="M275.738,-88.4808C294.768,-83.0613 316.011,-77.0114 334.146,-71.8468"/>
<polygon fill="midnightblue" stroke="midnightblue" points="335.208,-75.1835 343.867,-69.0783 333.291,-68.4512 335.208,-75.1835"/>
</g>
<!-- Node9 -->
<g id="node9" class="node"><title>Node9</title>
<g id="a_node9"><a xlink:href="namespaceRa_1_1Core_1_1MeshUtils.html#a746199d436bb1dc31c4bccb3953743b9" target="_top" xlink:title="Returns the area of a given triangle. ">
<polygon fill="white" stroke="black" points="323.5,-88.5 323.5,-118.5 433.5,-118.5 433.5,-88.5 323.5,-88.5"/>
<text text-anchor="start" x="331.5" y="-106.5" font-family="Helvetica,sans-Serif" font-size="10.00">Ra::Core::MeshUtils</text>
<text text-anchor="middle" x="378.5" y="-95.5" font-family="Helvetica,sans-Serif" font-size="10.00">::getTriangleArea</text>
</a>
</g>
</g>
<!-- Node7&#45;&gt;Node9 -->
<g id="edge11" class="edge"><title>Node7&#45;&gt;Node9</title>
<path fill="none" stroke="midnightblue" d="M277.037,-103.5C288.798,-103.5 301.35,-103.5 313.457,-103.5"/>
<polygon fill="midnightblue" stroke="midnightblue" points="313.494,-107 323.494,-103.5 313.494,-100 313.494,-107"/>
</g>
<!-- Node9&#45;&gt;Node6 -->
<g id="edge12" class="edge"><title>Node9&#45;&gt;Node6</title>
<path fill="none" stroke="midnightblue" d="M433.873,-103.5C444.417,-103.5 455.576,-103.5 466.447,-103.5"/>
<polygon fill="midnightblue" stroke="midnightblue" points="466.753,-107 476.753,-103.5 466.753,-100 466.753,-107"/>
</g>
<!-- Node10 -->
<g id="node10" class="node"><title>Node10</title>
<g id="a_node10"><a xlink:href="namespaceRa_1_1Core_1_1Geometry.html#a178f2b7309fe2ea5bc31a3abcb25368e" target="_top" xlink:title="Ra::Core::Geometry\l::triangleArea">
<polygon fill="white" stroke="black" points="478,-39.5 478,-69.5 589,-69.5 589,-39.5 478,-39.5"/>
<text text-anchor="start" x="486" y="-57.5" font-family="Helvetica,sans-Serif" font-size="10.00">Ra::Core::Geometry</text>
<text text-anchor="middle" x="533.5" y="-46.5" font-family="Helvetica,sans-Serif" font-size="10.00">::triangleArea</text>
</a>
</g>
</g>
<!-- Node9&#45;&gt;Node10 -->
<g id="edge13" class="edge"><title>Node9&#45;&gt;Node10</title>
<path fill="none" stroke="midnightblue" d="M426.653,-88.3986C442.141,-83.4385 459.52,-77.8726 475.649,-72.7071"/>
<polygon fill="midnightblue" stroke="midnightblue" points="477.046,-75.9349 485.502,-69.5516 474.911,-69.2684 477.046,-75.9349"/>
</g>
<!-- Node11 -->
<g id="node11" class="node"><title>Node11</title>
<g id="a_node11"><a xlink:href="namespaceOpenMesh.html#a71e7f1dd3eac016d2b8245ac408a291c" target="_top" xlink:title="OpenMesh::cross">
<polygon fill="white" stroke="black" points="639,-80 639,-99 738,-99 738,-80 639,-80"/>
<text text-anchor="middle" x="688.5" y="-87" font-family="Helvetica,sans-Serif" font-size="10.00">OpenMesh::cross</text>
</a>
</g>
</g>
<!-- Node10&#45;&gt;Node11 -->
<g id="edge14" class="edge"><title>Node10&#45;&gt;Node11</title>
<path fill="none" stroke="midnightblue" d="M589.304,-67.0369C604.353,-70.4794 620.622,-74.2011 635.507,-77.6062"/>
<polygon fill="midnightblue" stroke="midnightblue" points="635.031,-81.0875 645.559,-79.9057 636.592,-74.2638 635.031,-81.0875"/>
</g>
<!-- Node12 -->
<g id="node12" class="node"><title>Node12</title>
<g id="a_node12"><a xlink:href="namespaceOpenMesh.html#a8205f789ce08919bc11c58383574596c" target="_top" xlink:title="OpenMesh::norm">
<polygon fill="white" stroke="black" points="639,-42 639,-61 738,-61 738,-42 639,-42"/>
<text text-anchor="middle" x="688.5" y="-49" font-family="Helvetica,sans-Serif" font-size="10.00">OpenMesh::norm</text>
</a>
</g>
</g>
<!-- Node10&#45;&gt;Node12 -->
<g id="edge15" class="edge"><title>Node10&#45;&gt;Node12</title>
<path fill="none" stroke="midnightblue" d="M589.304,-53.4254C602.092,-53.1747 615.761,-52.9066 628.713,-52.6527"/>
<polygon fill="midnightblue" stroke="midnightblue" points="628.987,-56.1481 638.917,-52.4526 628.85,-49.1494 628.987,-56.1481"/>
</g>
</g>
</svg>
