<?xml version="1.0" encoding="UTF-8" standalone="no"?>
<!DOCTYPE svg PUBLIC "-//W3C//DTD SVG 1.1//EN"
 "http://www.w3.org/Graphics/SVG/1.1/DTD/svg11.dtd">
<!-- Generated by graphviz version 2.38.0 (20140413.2041)
 -->
<!-- Title: Ra::Core::Geometry::meanCurvature Pages: 1 -->
<svg width="274pt" height="88pt"
 viewBox="0.00 0.00 274.00 88.00" xmlns="http://www.w3.org/2000/svg" xmlns:xlink="http://www.w3.org/1999/xlink">
<g id="graph0" class="graph" transform="scale(1 1) rotate(0) translate(4 84)">
<title>Ra::Core::Geometry::meanCurvature</title>
<polygon fill="white" stroke="none" points="-4,4 -4,-84 270,-84 270,4 -4,4"/>
<!-- Node1 -->
<g id="node1" class="node"><title>Node1</title>
<polygon fill="#bfbfbf" stroke="black" points="0,-24.5 0,-54.5 111,-54.5 111,-24.5 0,-24.5"/>
<text text-anchor="start" x="8" y="-42.5" font-family="Helvetica,sans-Serif" font-size="10.00">Ra::Core::Geometry</text>
<text text-anchor="middle" x="55.5" y="-31.5" font-family="Helvetica,sans-Serif" font-size="10.00">::meanCurvature</text>
</g>
<!-- Node2 -->
<g id="node2" class="node"><title>Node2</title>
<g id="a_node2"><a xlink:href="classRa_1_1Core_1_1VectorArray_3_01Scalar_01_4.html#a3cfc72a2196c1216308c2a7df2f9e4cc" target="_top" xlink:title="Returns the array as an Eigen Matrix Map. ">
<polygon fill="white" stroke="black" points="147,-49.5 147,-79.5 266,-79.5 266,-49.5 147,-49.5"/>
<text text-anchor="start" x="155" y="-67.5" font-family="Helvetica,sans-Serif" font-size="10.00">Ra::Core::VectorArray</text>
<text text-anchor="middle" x="206.5" y="-56.5" font-family="Helvetica,sans-Serif" font-size="10.00">&lt; Scalar &gt;::getMap</text>
</a>
</g>
</g>
<!-- Node1&#45;&gt;Node2 -->
<g id="edge1" class="edge"><title>Node1&#45;&gt;Node2</title>
<path fill="none" stroke="midnightblue" d="M111.136,-48.6671C119.494,-50.0694 128.211,-51.532 136.824,-52.9771"/>
<polygon fill="midnightblue" stroke="midnightblue" points="136.417,-56.4578 146.859,-54.6608 137.576,-49.5543 136.417,-56.4578"/>
</g>
<!-- Node3 -->
<g id="node3" class="node"><title>Node3</title>
<g id="a_node3"><a xlink:href="classRa_1_1Core_1_1VectorArray.html#a33438b558d38baf22e7975d26b5c61ca" target="_top" xlink:title="Returns the array as an Eigen Matrix Map. ">
<polygon fill="white" stroke="black" points="147,-0.5 147,-30.5 266,-30.5 266,-0.5 147,-0.5"/>
<text text-anchor="start" x="155" y="-18.5" font-family="Helvetica,sans-Serif" font-size="10.00">Ra::Core::VectorArray</text>
<text text-anchor="middle" x="206.5" y="-7.5" font-family="Helvetica,sans-Serif" font-size="10.00">::getMap</text>
</a>
</g>
</g>
<!-- Node1&#45;&gt;Node3 -->
<g id="edge2" class="edge"><title>Node1&#45;&gt;Node3</title>
<path fill="none" stroke="midnightblue" d="M111.136,-30.6996C119.494,-29.3534 128.211,-27.9493 136.824,-26.562"/>
<polygon fill="midnightblue" stroke="midnightblue" points="137.542,-29.9914 146.859,-24.9456 136.429,-23.0805 137.542,-29.9914"/>
</g>
</g>
</svg>
