<?xml version="1.0" encoding="UTF-8" standalone="no"?>
<!DOCTYPE svg PUBLIC "-//W3C//DTD SVG 1.1//EN"
 "http://www.w3.org/Graphics/SVG/1.1/DTD/svg11.dtd">
<!-- Generated by graphviz version 2.38.0 (20140413.2041)
 -->
<!-- Title: Ra::Core::MeshUtils::makeParametricTorus Pages: 1 -->
<svg width="924pt" height="254pt"
 viewBox="0.00 0.00 924.00 254.00" xmlns="http://www.w3.org/2000/svg" xmlns:xlink="http://www.w3.org/1999/xlink">
<g id="graph0" class="graph" transform="scale(1 1) rotate(0) translate(4 250)">
<title>Ra::Core::MeshUtils::makeParametricTorus</title>
<polygon fill="white" stroke="none" points="-4,4 -4,-250 920,-250 920,4 -4,4"/>
<!-- Node1 -->
<g id="node1" class="node"><title>Node1</title>
<polygon fill="#bfbfbf" stroke="black" points="0,-52 0,-82 126,-82 126,-52 0,-52"/>
<text text-anchor="start" x="8" y="-70" font-family="Helvetica,sans-Serif" font-size="10.00">Ra::Core::MeshUtils</text>
<text text-anchor="middle" x="63" y="-59" font-family="Helvetica,sans-Serif" font-size="10.00">::makeParametricTorus</text>
</g>
<!-- Node2 -->
<g id="node2" class="node"><title>Node2</title>
<g id="a_node2"><a xlink:href="classRa_1_1Core_1_1TriangleMesh.html#a495116f40cfec8bb6504698d786d4b8c" target="_top" xlink:title="Access the vertices positions. ">
<polygon fill="white" stroke="black" points="624,-90 624,-120 749,-120 749,-90 624,-90"/>
<text text-anchor="start" x="632" y="-108" font-family="Helvetica,sans-Serif" font-size="10.00">Ra::Core::TriangleMesh</text>
<text text-anchor="middle" x="686.5" y="-97" font-family="Helvetica,sans-Serif" font-size="10.00">::vertices</text>
</a>
</g>
</g>
<!-- Node1&#45;&gt;Node2 -->
<g id="edge1" class="edge"><title>Node1&#45;&gt;Node2</title>
<path fill="none" stroke="midnightblue" d="M126.15,-70.8C242.171,-77.8938 491.052,-93.111 613.899,-100.622"/>
<polygon fill="midnightblue" stroke="midnightblue" points="613.76,-104.12 623.955,-101.237 614.188,-97.1332 613.76,-104.12"/>
</g>
<!-- Node4 -->
<g id="node4" class="node"><title>Node4</title>
<g id="a_node4"><a xlink:href="classRa_1_1Core_1_1TriangleMesh.html#a40d31b7b2943947d6eac5d906f0182fd" target="_top" xlink:title="Access the vertices normals. ">
<polygon fill="white" stroke="black" points="314,-27 314,-57 439,-57 439,-27 314,-27"/>
<text text-anchor="start" x="322" y="-45" font-family="Helvetica,sans-Serif" font-size="10.00">Ra::Core::TriangleMesh</text>
<text text-anchor="middle" x="376.5" y="-34" font-family="Helvetica,sans-Serif" font-size="10.00">::normals</text>
</a>
</g>
</g>
<!-- Node1&#45;&gt;Node4 -->
<g id="edge3" class="edge"><title>Node1&#45;&gt;Node4</title>
<path fill="none" stroke="midnightblue" d="M126.288,-62.001C177.494,-57.8913 250.089,-52.0651 303.728,-47.7602"/>
<polygon fill="midnightblue" stroke="midnightblue" points="304.164,-51.2366 313.851,-46.9477 303.604,-44.259 304.164,-51.2366"/>
</g>
<!-- Node5 -->
<g id="node5" class="node"><title>Node5</title>
<g id="a_node5"><a xlink:href="namespaceRa_1_1Core_1_1Vector.html#a42d87f3bd0658bac532d72f0ec528827" target="_top" xlink:title="Get the cosine of the angle between two vectors. ">
<polygon fill="white" stroke="black" points="162,-0.5 162,-19.5 278,-19.5 278,-0.5 162,-0.5"/>
<text text-anchor="middle" x="220" y="-7.5" font-family="Helvetica,sans-Serif" font-size="10.00">Ra::Core::Vector::cos</text>
</a>
</g>
</g>
<!-- Node1&#45;&gt;Node5 -->
<g id="edge5" class="edge"><title>Node1&#45;&gt;Node5</title>
<path fill="none" stroke="midnightblue" d="M105.13,-51.8747C129.458,-42.9285 159.969,-31.7083 183.283,-23.1346"/>
<polygon fill="midnightblue" stroke="midnightblue" points="184.618,-26.373 192.795,-19.6365 182.202,-19.8031 184.618,-26.373"/>
</g>
<!-- Node6 -->
<g id="node6" class="node"><title>Node6</title>
<g id="a_node6"><a xlink:href="namespaceRa_1_1Core_1_1MeshUtils.html#a5398f7b15335cb47b83a2d573f277640" target="_top" xlink:title="Check that the mesh is well built, asserting when it is not. ">
<polygon fill="white" stroke="black" points="165,-115 165,-145 275,-145 275,-115 165,-115"/>
<text text-anchor="start" x="173" y="-133" font-family="Helvetica,sans-Serif" font-size="10.00">Ra::Core::MeshUtils</text>
<text text-anchor="middle" x="220" y="-122" font-family="Helvetica,sans-Serif" font-size="10.00">::checkConsistency</text>
</a>
</g>
</g>
<!-- Node1&#45;&gt;Node6 -->
<g id="edge6" class="edge"><title>Node1&#45;&gt;Node6</title>
<path fill="none" stroke="midnightblue" d="M101.126,-82.0901C122.52,-90.7857 149.609,-101.796 172.422,-111.068"/>
<polygon fill="midnightblue" stroke="midnightblue" points="171.326,-114.401 181.908,-114.924 173.962,-107.916 171.326,-114.401"/>
</g>
<!-- Node3 -->
<g id="node3" class="node"><title>Node3</title>
<g id="a_node3"><a xlink:href="classRa_1_1Core_1_1AttribManager.html#aaa6088620425c1e1d74b50f1b50eb596" target="_top" xlink:title="Get attribute by handle. ">
<polygon fill="white" stroke="black" points="785,-60 785,-90 916,-90 916,-60 785,-60"/>
<text text-anchor="start" x="793" y="-78" font-family="Helvetica,sans-Serif" font-size="10.00">Ra::Core::AttribManager</text>
<text text-anchor="middle" x="850.5" y="-67" font-family="Helvetica,sans-Serif" font-size="10.00">::getAttrib</text>
</a>
</g>
</g>
<!-- Node2&#45;&gt;Node3 -->
<g id="edge2" class="edge"><title>Node2&#45;&gt;Node3</title>
<path fill="none" stroke="midnightblue" d="M749.207,-93.5727C757.562,-92.0255 766.208,-90.4245 774.76,-88.8408"/>
<polygon fill="midnightblue" stroke="midnightblue" points="775.538,-92.2563 784.733,-86.9939 774.263,-85.3734 775.538,-92.2563"/>
</g>
<!-- Node4&#45;&gt;Node3 -->
<g id="edge4" class="edge"><title>Node4&#45;&gt;Node3</title>
<path fill="none" stroke="midnightblue" d="M439.206,-46.3142C525.432,-52.3427 681.795,-63.2748 774.591,-69.7627"/>
<polygon fill="midnightblue" stroke="midnightblue" points="774.532,-73.2671 784.752,-70.4731 775.021,-66.2841 774.532,-73.2671"/>
</g>
<!-- Node6&#45;&gt;Node2 -->
<g id="edge7" class="edge"><title>Node6&#45;&gt;Node2</title>
<path fill="none" stroke="midnightblue" d="M275.193,-127.083C359.041,-122.57 520.271,-113.893 613.712,-108.864"/>
<polygon fill="midnightblue" stroke="midnightblue" points="614.13,-112.346 623.928,-108.314 613.754,-105.356 614.13,-112.346"/>
</g>
<!-- Node6&#45;&gt;Node4 -->
<g id="edge15" class="edge"><title>Node6&#45;&gt;Node4</title>
<path fill="none" stroke="midnightblue" d="M247.559,-114.872C273.173,-100.284 312.097,-78.1131 340.285,-62.0578"/>
<polygon fill="midnightblue" stroke="midnightblue" points="342.072,-65.0679 349.029,-57.0773 338.607,-58.9854 342.072,-65.0679"/>
</g>
<!-- Node7 -->
<g id="node7" class="node"><title>Node7</title>
<g id="a_node7"><a xlink:href="namespaceRa_1_1Core_1_1Algorithm.html#aea294cdb6f4f0d85955bdcccb22886ec" target="_top" xlink:title="Ra::Core::Algorithm::t">
<polygon fill="white" stroke="black" points="317,-202.5 317,-221.5 436,-221.5 436,-202.5 317,-202.5"/>
<text text-anchor="middle" x="376.5" y="-209.5" font-family="Helvetica,sans-Serif" font-size="10.00">Ra::Core::Algorithm::t</text>
</a>
</g>
</g>
<!-- Node6&#45;&gt;Node7 -->
<g id="edge8" class="edge"><title>Node6&#45;&gt;Node7</title>
<path fill="none" stroke="midnightblue" d="M240.366,-145.212C258.549,-158.922 286.933,-178.885 314,-192 319.308,-194.572 325.027,-196.93 330.765,-199.055"/>
<polygon fill="midnightblue" stroke="midnightblue" points="329.775,-202.416 340.37,-202.405 332.081,-195.807 329.775,-202.416"/>
</g>
<!-- Node8 -->
<g id="node8" class="node"><title>Node8</title>
<g id="a_node8"><a xlink:href="namespaceRa_1_1Core_1_1MeshUtils.html#a746199d436bb1dc31c4bccb3953743b9" target="_top" xlink:title="Returns the area of a given triangle. ">
<polygon fill="white" stroke="black" points="321.5,-153 321.5,-183 431.5,-183 431.5,-153 321.5,-153"/>
<text text-anchor="start" x="329.5" y="-171" font-family="Helvetica,sans-Serif" font-size="10.00">Ra::Core::MeshUtils</text>
<text text-anchor="middle" x="376.5" y="-160" font-family="Helvetica,sans-Serif" font-size="10.00">::getTriangleArea</text>
</a>
</g>
</g>
<!-- Node6&#45;&gt;Node8 -->
<g id="edge9" class="edge"><title>Node6&#45;&gt;Node8</title>
<path fill="none" stroke="midnightblue" d="M275.037,-143.291C286.798,-146.183 299.35,-149.271 311.457,-152.248"/>
<polygon fill="midnightblue" stroke="midnightblue" points="310.947,-155.727 321.494,-154.717 312.619,-148.93 310.947,-155.727"/>
</g>
<!-- Node9 -->
<g id="node9" class="node"><title>Node9</title>
<g id="a_node9"><a xlink:href="namespaceRa_1_1Core_1_1MeshUtils.html#afbee0fe3203a295fb1f93b33dfb33f81" target="_top" xlink:title="Fills the given array with the vertices of a given triangle. ">
<polygon fill="white" stroke="black" points="475,-153 475,-183 588,-183 588,-153 475,-153"/>
<text text-anchor="start" x="483" y="-171" font-family="Helvetica,sans-Serif" font-size="10.00">Ra::Core::MeshUtils</text>
<text text-anchor="middle" x="531.5" y="-160" font-family="Helvetica,sans-Serif" font-size="10.00">::getTriangleVertices</text>
</a>
</g>
</g>
<!-- Node8&#45;&gt;Node9 -->
<g id="edge10" class="edge"><title>Node8&#45;&gt;Node9</title>
<path fill="none" stroke="midnightblue" d="M431.873,-168C442.417,-168 453.576,-168 464.447,-168"/>
<polygon fill="midnightblue" stroke="midnightblue" points="464.753,-171.5 474.753,-168 464.753,-164.5 464.753,-171.5"/>
</g>
<!-- Node10 -->
<g id="node10" class="node"><title>Node10</title>
<g id="a_node10"><a xlink:href="namespaceRa_1_1Core_1_1Geometry.html#a178f2b7309fe2ea5bc31a3abcb25368e" target="_top" xlink:title="Ra::Core::Geometry\l::triangleArea">
<polygon fill="white" stroke="black" points="476,-202 476,-232 587,-232 587,-202 476,-202"/>
<text text-anchor="start" x="484" y="-220" font-family="Helvetica,sans-Serif" font-size="10.00">Ra::Core::Geometry</text>
<text text-anchor="middle" x="531.5" y="-209" font-family="Helvetica,sans-Serif" font-size="10.00">::triangleArea</text>
</a>
</g>
</g>
<!-- Node8&#45;&gt;Node10 -->
<g id="edge12" class="edge"><title>Node8&#45;&gt;Node10</title>
<path fill="none" stroke="midnightblue" d="M424.653,-183.101C440.141,-188.062 457.52,-193.627 473.649,-198.793"/>
<polygon fill="midnightblue" stroke="midnightblue" points="472.911,-202.232 483.502,-201.948 475.046,-195.565 472.911,-202.232"/>
</g>
<!-- Node9&#45;&gt;Node2 -->
<g id="edge11" class="edge"><title>Node9&#45;&gt;Node2</title>
<path fill="none" stroke="midnightblue" d="M569.147,-152.91C590.265,-144.214 617.005,-133.204 639.523,-123.932"/>
<polygon fill="midnightblue" stroke="midnightblue" points="640.973,-127.12 648.887,-120.076 638.307,-120.647 640.973,-127.12"/>
</g>
<!-- Node11 -->
<g id="node11" class="node"><title>Node11</title>
<g id="a_node11"><a xlink:href="namespaceOpenMesh.html#a71e7f1dd3eac016d2b8245ac408a291c" target="_top" xlink:title="OpenMesh::cross">
<polygon fill="white" stroke="black" points="637,-226.5 637,-245.5 736,-245.5 736,-226.5 637,-226.5"/>
<text text-anchor="middle" x="686.5" y="-233.5" font-family="Helvetica,sans-Serif" font-size="10.00">OpenMesh::cross</text>
</a>
</g>
</g>
<!-- Node10&#45;&gt;Node11 -->
<g id="edge13" class="edge"><title>Node10&#45;&gt;Node11</title>
<path fill="none" stroke="midnightblue" d="M587.304,-223.806C600.092,-225.394 613.761,-227.091 626.713,-228.7"/>
<polygon fill="midnightblue" stroke="midnightblue" points="626.561,-232.208 636.917,-229.967 627.424,-225.261 626.561,-232.208"/>
</g>
<!-- Node12 -->
<g id="node12" class="node"><title>Node12</title>
<g id="a_node12"><a xlink:href="namespaceOpenMesh.html#a8205f789ce08919bc11c58383574596c" target="_top" xlink:title="OpenMesh::norm">
<polygon fill="white" stroke="black" points="637,-188.5 637,-207.5 736,-207.5 736,-188.5 637,-188.5"/>
<text text-anchor="middle" x="686.5" y="-195.5" font-family="Helvetica,sans-Serif" font-size="10.00">OpenMesh::norm</text>
</a>
</g>
</g>
<!-- Node10&#45;&gt;Node12 -->
<g id="edge14" class="edge"><title>Node10&#45;&gt;Node12</title>
<path fill="none" stroke="midnightblue" d="M587.304,-210.194C600.092,-208.606 613.761,-206.909 626.713,-205.3"/>
<polygon fill="midnightblue" stroke="midnightblue" points="627.424,-208.739 636.917,-204.033 626.561,-201.792 627.424,-208.739"/>
</g>
</g>
</svg>
