<?xml version="1.0" encoding="UTF-8" standalone="no"?>
<!DOCTYPE svg PUBLIC "-//W3C//DTD SVG 1.1//EN"
 "http://www.w3.org/Graphics/SVG/1.1/DTD/svg11.dtd">
<!-- Generated by graphviz version 2.38.0 (20140413.2041)
 -->
<!-- Title: Ra::Core::Geometry::mixedArea Pages: 1 -->
<svg width="443pt" height="239pt"
 viewBox="0.00 0.00 443.00 238.50" xmlns="http://www.w3.org/2000/svg" xmlns:xlink="http://www.w3.org/1999/xlink">
<g id="graph0" class="graph" transform="scale(1 1) rotate(0) translate(4 234.5)">
<title>Ra::Core::Geometry::mixedArea</title>
<polygon fill="white" stroke="none" points="-4,4 -4,-234.5 439,-234.5 439,4 -4,4"/>
<!-- Node1 -->
<g id="node1" class="node"><title>Node1</title>
<polygon fill="#bfbfbf" stroke="black" points="0,-102 0,-132 111,-132 111,-102 0,-102"/>
<text text-anchor="start" x="8" y="-120" font-family="Helvetica,sans-Serif" font-size="10.00">Ra::Core::Geometry</text>
<text text-anchor="middle" x="55.5" y="-109" font-family="Helvetica,sans-Serif" font-size="10.00">::mixedArea</text>
</g>
<!-- Node2 -->
<g id="node2" class="node"><title>Node2</title>
<g id="a_node2"><a xlink:href="classRa_1_1Core_1_1CircularIndex.html#a209650affef46390ab727a90c8b51920" target="_top" xlink:title="Ra::Core::CircularIndex\l::setSize">
<polygon fill="white" stroke="black" points="148,-200 148,-230 273,-230 273,-200 148,-200"/>
<text text-anchor="start" x="156" y="-218" font-family="Helvetica,sans-Serif" font-size="10.00">Ra::Core::CircularIndex</text>
<text text-anchor="middle" x="210.5" y="-207" font-family="Helvetica,sans-Serif" font-size="10.00">::setSize</text>
</a>
</g>
</g>
<!-- Node1&#45;&gt;Node2 -->
<g id="edge1" class="edge"><title>Node1&#45;&gt;Node2</title>
<path fill="none" stroke="midnightblue" d="M71.6982,-132.03C88.8154,-148.305 118.04,-174.186 147,-191 149.815,-192.634 152.761,-194.198 155.777,-195.687"/>
<polygon fill="midnightblue" stroke="midnightblue" points="154.424,-198.917 164.971,-199.927 157.356,-192.561 154.424,-198.917"/>
</g>
<!-- Node4 -->
<g id="node4" class="node"><title>Node4</title>
<g id="a_node4"><a xlink:href="classRa_1_1Core_1_1CircularIndex.html#a748a857d5d9affc123a4ecc9c5ffc344" target="_top" xlink:title="Ra::Core::CircularIndex\l::setValue">
<polygon fill="white" stroke="black" points="148,-151 148,-181 273,-181 273,-151 148,-151"/>
<text text-anchor="start" x="156" y="-169" font-family="Helvetica,sans-Serif" font-size="10.00">Ra::Core::CircularIndex</text>
<text text-anchor="middle" x="210.5" y="-158" font-family="Helvetica,sans-Serif" font-size="10.00">::setValue</text>
</a>
</g>
</g>
<!-- Node1&#45;&gt;Node4 -->
<g id="edge3" class="edge"><title>Node1&#45;&gt;Node4</title>
<path fill="none" stroke="midnightblue" d="M103.653,-132.101C119.141,-137.062 136.52,-142.627 152.649,-147.793"/>
<polygon fill="midnightblue" stroke="midnightblue" points="151.911,-151.232 162.502,-150.948 154.046,-144.565 151.911,-151.232"/>
</g>
<!-- Node5 -->
<g id="node5" class="node"><title>Node5</title>
<g id="a_node5"><a xlink:href="namespaceRa_1_1Core_1_1Geometry.html#a80e2472f741c08ef62e73b2b5ce8f371" target="_top" xlink:title="Ra::Core::Geometry\l::isTriangleObtuse">
<polygon fill="white" stroke="black" points="155,-102 155,-132 266,-132 266,-102 155,-102"/>
<text text-anchor="start" x="163" y="-120" font-family="Helvetica,sans-Serif" font-size="10.00">Ra::Core::Geometry</text>
<text text-anchor="middle" x="210.5" y="-109" font-family="Helvetica,sans-Serif" font-size="10.00">::isTriangleObtuse</text>
</a>
</g>
</g>
<!-- Node1&#45;&gt;Node5 -->
<g id="edge4" class="edge"><title>Node1&#45;&gt;Node5</title>
<path fill="none" stroke="midnightblue" d="M111.304,-117C122.136,-117 133.601,-117 144.727,-117"/>
<polygon fill="midnightblue" stroke="midnightblue" points="144.821,-120.5 154.821,-117 144.821,-113.5 144.821,-120.5"/>
</g>
<!-- Node7 -->
<g id="node7" class="node"><title>Node7</title>
<g id="a_node7"><a xlink:href="namespaceRa_1_1Core_1_1Vector.html#aa91aaef62c026259378ace5b5b0e86da" target="_top" xlink:title="Get the cotangent of the angle between two vectors. ">
<polygon fill="white" stroke="black" points="147,-63.5 147,-82.5 274,-82.5 274,-63.5 147,-63.5"/>
<text text-anchor="middle" x="210.5" y="-70.5" font-family="Helvetica,sans-Serif" font-size="10.00">Ra::Core::Vector::cotan</text>
</a>
</g>
</g>
<!-- Node1&#45;&gt;Node7 -->
<g id="edge6" class="edge"><title>Node1&#45;&gt;Node7</title>
<path fill="none" stroke="midnightblue" d="M108.726,-101.981C127.571,-96.5613 148.608,-90.5114 166.567,-85.3468"/>
<polygon fill="midnightblue" stroke="midnightblue" points="167.551,-88.7058 176.194,-82.5783 165.616,-81.9785 167.551,-88.7058"/>
</g>
<!-- Node8 -->
<g id="node8" class="node"><title>Node8</title>
<g id="a_node8"><a xlink:href="namespaceRa_1_1Core_1_1Geometry.html#a178f2b7309fe2ea5bc31a3abcb25368e" target="_top" xlink:title="Ra::Core::Geometry\l::triangleArea">
<polygon fill="white" stroke="black" points="155,-14 155,-44 266,-44 266,-14 155,-14"/>
<text text-anchor="start" x="163" y="-32" font-family="Helvetica,sans-Serif" font-size="10.00">Ra::Core::Geometry</text>
<text text-anchor="middle" x="210.5" y="-21" font-family="Helvetica,sans-Serif" font-size="10.00">::triangleArea</text>
</a>
</g>
</g>
<!-- Node1&#45;&gt;Node8 -->
<g id="edge7" class="edge"><title>Node1&#45;&gt;Node8</title>
<path fill="none" stroke="midnightblue" d="M75.4474,-101.893C93.2123,-88.2036 120.879,-68.0778 147,-54 150.704,-52.004 154.601,-50.075 158.566,-48.2336"/>
<polygon fill="midnightblue" stroke="midnightblue" points="160.153,-51.3585 167.876,-44.1057 157.316,-44.9592 160.153,-51.3585"/>
</g>
<!-- Node3 -->
<g id="node3" class="node"><title>Node3</title>
<g id="a_node3"><a xlink:href="classRa_1_1Core_1_1CircularIndex.html#a49f32351ed0de532b6b5f125c81ad2ae" target="_top" xlink:title="DIMENSION. ">
<polygon fill="white" stroke="black" points="310,-200 310,-230 435,-230 435,-200 310,-200"/>
<text text-anchor="start" x="318" y="-218" font-family="Helvetica,sans-Serif" font-size="10.00">Ra::Core::CircularIndex</text>
<text text-anchor="middle" x="372.5" y="-207" font-family="Helvetica,sans-Serif" font-size="10.00">::size</text>
</a>
</g>
</g>
<!-- Node2&#45;&gt;Node3 -->
<g id="edge2" class="edge"><title>Node2&#45;&gt;Node3</title>
<path fill="none" stroke="midnightblue" d="M273.36,-215C281.956,-215 290.847,-215 299.607,-215"/>
<polygon fill="midnightblue" stroke="midnightblue" points="299.804,-218.5 309.804,-215 299.804,-211.5 299.804,-218.5"/>
</g>
<!-- Node6 -->
<g id="node6" class="node"><title>Node6</title>
<g id="a_node6"><a xlink:href="namespaceOpenMesh.html#a575b338f0fc9ecb5393d23e977e6ac38" target="_top" xlink:title="OpenMesh::dot">
<polygon fill="white" stroke="black" points="328,-107.5 328,-126.5 417,-126.5 417,-107.5 328,-107.5"/>
<text text-anchor="middle" x="372.5" y="-114.5" font-family="Helvetica,sans-Serif" font-size="10.00">OpenMesh::dot</text>
</a>
</g>
</g>
<!-- Node5&#45;&gt;Node6 -->
<g id="edge5" class="edge"><title>Node5&#45;&gt;Node6</title>
<path fill="none" stroke="midnightblue" d="M266.115,-117C282.834,-117 301.202,-117 317.855,-117"/>
<polygon fill="midnightblue" stroke="midnightblue" points="317.972,-120.5 327.972,-117 317.972,-113.5 317.972,-120.5"/>
</g>
<!-- Node9 -->
<g id="node9" class="node"><title>Node9</title>
<g id="a_node9"><a xlink:href="namespaceOpenMesh.html#a71e7f1dd3eac016d2b8245ac408a291c" target="_top" xlink:title="OpenMesh::cross">
<polygon fill="white" stroke="black" points="323,-38.5 323,-57.5 422,-57.5 422,-38.5 323,-38.5"/>
<text text-anchor="middle" x="372.5" y="-45.5" font-family="Helvetica,sans-Serif" font-size="10.00">OpenMesh::cross</text>
</a>
</g>
</g>
<!-- Node8&#45;&gt;Node9 -->
<g id="edge8" class="edge"><title>Node8&#45;&gt;Node9</title>
<path fill="none" stroke="midnightblue" d="M266.115,-35.4856C281.047,-37.2587 297.295,-39.1881 312.461,-40.9892"/>
<polygon fill="midnightblue" stroke="midnightblue" points="312.416,-44.5083 322.759,-42.212 313.241,-37.5571 312.416,-44.5083"/>
</g>
<!-- Node10 -->
<g id="node10" class="node"><title>Node10</title>
<g id="a_node10"><a xlink:href="namespaceOpenMesh.html#a8205f789ce08919bc11c58383574596c" target="_top" xlink:title="OpenMesh::norm">
<polygon fill="white" stroke="black" points="323,-0.5 323,-19.5 422,-19.5 422,-0.5 323,-0.5"/>
<text text-anchor="middle" x="372.5" y="-7.5" font-family="Helvetica,sans-Serif" font-size="10.00">OpenMesh::norm</text>
</a>
</g>
</g>
<!-- Node8&#45;&gt;Node10 -->
<g id="edge9" class="edge"><title>Node8&#45;&gt;Node10</title>
<path fill="none" stroke="midnightblue" d="M266.115,-22.5144C281.047,-20.7413 297.295,-18.8119 312.461,-17.0108"/>
<polygon fill="midnightblue" stroke="midnightblue" points="313.241,-20.4429 322.759,-15.788 312.416,-13.4917 313.241,-20.4429"/>
</g>
</g>
</svg>
