<?xml version="1.0" encoding="UTF-8" standalone="no"?>
<!DOCTYPE svg PUBLIC "-//W3C//DTD SVG 1.1//EN"
 "http://www.w3.org/Graphics/SVG/1.1/DTD/svg11.dtd">
<!-- Generated by graphviz version 2.38.0 (20140413.2041)
 -->
<!-- Title: SkinningPlugin::uniformNormal Pages: 1 -->
<svg width="462pt" height="78pt"
 viewBox="0.00 0.00 462.00 77.50" xmlns="http://www.w3.org/2000/svg" xmlns:xlink="http://www.w3.org/1999/xlink">
<g id="graph0" class="graph" transform="scale(1 1) rotate(0) translate(4 73.5)">
<title>SkinningPlugin::uniformNormal</title>
<polygon fill="white" stroke="none" points="-4,4 -4,-73.5 458,-73.5 458,4 -4,4"/>
<!-- Node1 -->
<g id="node1" class="node"><title>Node1</title>
<polygon fill="#bfbfbf" stroke="black" points="0,-28 0,-47 164,-47 164,-28 0,-28"/>
<text text-anchor="middle" x="82" y="-35" font-family="Helvetica,sans-Serif" font-size="10.00">SkinningPlugin::uniformNormal</text>
</g>
<!-- Node2 -->
<g id="node2" class="node"><title>Node2</title>
<g id="a_node2"><a xlink:href="namespaceRa_1_1Core_1_1Algorithm.html#aea294cdb6f4f0d85955bdcccb22886ec" target="_top" xlink:title="Ra::Core::Algorithm::t">
<polygon fill="white" stroke="black" points="200,-50 200,-69 319,-69 319,-50 200,-50"/>
<text text-anchor="middle" x="259.5" y="-57" font-family="Helvetica,sans-Serif" font-size="10.00">Ra::Core::Algorithm::t</text>
</a>
</g>
</g>
<!-- Node1&#45;&gt;Node2 -->
<g id="edge1" class="edge"><title>Node1&#45;&gt;Node2</title>
<path fill="none" stroke="midnightblue" d="M158.956,-47.0216C169.239,-48.3106 179.742,-49.6272 189.886,-50.8988"/>
<polygon fill="midnightblue" stroke="midnightblue" points="189.532,-54.3817 199.89,-52.1528 190.403,-47.4361 189.532,-54.3817"/>
</g>
<!-- Node3 -->
<g id="node3" class="node"><title>Node3</title>
<g id="a_node3"><a xlink:href="namespaceRa_1_1Core_1_1Geometry.html#a2ce97206423345716bf1b55f60c1c227" target="_top" xlink:title="Ra::Core::Geometry\l::triangleNormal">
<polygon fill="white" stroke="black" points="204,-0.5 204,-30.5 315,-30.5 315,-0.5 204,-0.5"/>
<text text-anchor="start" x="212" y="-18.5" font-family="Helvetica,sans-Serif" font-size="10.00">Ra::Core::Geometry</text>
<text text-anchor="middle" x="259.5" y="-7.5" font-family="Helvetica,sans-Serif" font-size="10.00">::triangleNormal</text>
</a>
</g>
</g>
<!-- Node1&#45;&gt;Node3 -->
<g id="edge2" class="edge"><title>Node1&#45;&gt;Node3</title>
<path fill="none" stroke="midnightblue" d="M158.956,-27.9784C170.517,-26.5292 182.356,-25.0451 193.651,-23.6292"/>
<polygon fill="midnightblue" stroke="midnightblue" points="194.36,-27.0678 203.847,-22.351 193.49,-20.1221 194.36,-27.0678"/>
</g>
<!-- Node4 -->
<g id="node4" class="node"><title>Node4</title>
<g id="a_node4"><a xlink:href="namespaceOpenMesh.html#a71e7f1dd3eac016d2b8245ac408a291c" target="_top" xlink:title="OpenMesh::cross">
<polygon fill="white" stroke="black" points="355,-6 355,-25 454,-25 454,-6 355,-6"/>
<text text-anchor="middle" x="404.5" y="-13" font-family="Helvetica,sans-Serif" font-size="10.00">OpenMesh::cross</text>
</a>
</g>
</g>
<!-- Node3&#45;&gt;Node4 -->
<g id="edge3" class="edge"><title>Node3&#45;&gt;Node4</title>
<path fill="none" stroke="midnightblue" d="M315.379,-15.5C324.865,-15.5 334.764,-15.5 344.357,-15.5"/>
<polygon fill="midnightblue" stroke="midnightblue" points="344.613,-19.0001 354.613,-15.5 344.612,-12.0001 344.613,-19.0001"/>
</g>
</g>
</svg>
