<?xml version="1.0" encoding="UTF-8" standalone="no"?>
<!DOCTYPE svg PUBLIC "-//W3C//DTD SVG 1.1//EN"
 "http://www.w3.org/Graphics/SVG/1.1/DTD/svg11.dtd">
<!-- Generated by graphviz version 2.38.0 (20140413.2041)
 -->
<!-- Title: Ra::Core::Geometry::oneRingArea Pages: 1 -->
<svg width="409pt" height="91pt"
 viewBox="0.00 0.00 409.00 91.00" xmlns="http://www.w3.org/2000/svg" xmlns:xlink="http://www.w3.org/1999/xlink">
<g id="graph0" class="graph" transform="scale(1 1) rotate(0) translate(4 87)">
<title>Ra::Core::Geometry::oneRingArea</title>
<polygon fill="white" stroke="none" points="-4,4 -4,-87 405,-87 405,4 -4,4"/>
<!-- Node1 -->
<g id="node1" class="node"><title>Node1</title>
<polygon fill="#bfbfbf" stroke="black" points="0,-36 0,-66 111,-66 111,-36 0,-36"/>
<text text-anchor="start" x="8" y="-54" font-family="Helvetica,sans-Serif" font-size="10.00">Ra::Core::Geometry</text>
<text text-anchor="middle" x="55.5" y="-43" font-family="Helvetica,sans-Serif" font-size="10.00">::oneRingArea</text>
</g>
<!-- Node2 -->
<g id="node2" class="node"><title>Node2</title>
<g id="a_node2"><a xlink:href="namespaceRa_1_1Core_1_1Algorithm.html#aea294cdb6f4f0d85955bdcccb22886ec" target="_top" xlink:title="Ra::Core::Algorithm::t">
<polygon fill="white" stroke="black" points="147,-63.5 147,-82.5 266,-82.5 266,-63.5 147,-63.5"/>
<text text-anchor="middle" x="206.5" y="-70.5" font-family="Helvetica,sans-Serif" font-size="10.00">Ra::Core::Algorithm::t</text>
</a>
</g>
</g>
<!-- Node1&#45;&gt;Node2 -->
<g id="edge1" class="edge"><title>Node1&#45;&gt;Node2</title>
<path fill="none" stroke="midnightblue" d="M111.136,-59.0671C119.494,-60.3011 128.211,-61.5882 136.824,-62.8599"/>
<polygon fill="midnightblue" stroke="midnightblue" points="136.455,-66.3432 146.859,-64.3415 137.477,-59.4183 136.455,-66.3432"/>
</g>
<!-- Node3 -->
<g id="node3" class="node"><title>Node3</title>
<g id="a_node3"><a xlink:href="namespaceRa_1_1Core_1_1Geometry.html#a178f2b7309fe2ea5bc31a3abcb25368e" target="_top" xlink:title="Ra::Core::Geometry\l::triangleArea">
<polygon fill="white" stroke="black" points="151,-14 151,-44 262,-44 262,-14 151,-14"/>
<text text-anchor="start" x="159" y="-32" font-family="Helvetica,sans-Serif" font-size="10.00">Ra::Core::Geometry</text>
<text text-anchor="middle" x="206.5" y="-21" font-family="Helvetica,sans-Serif" font-size="10.00">::triangleArea</text>
</a>
</g>
</g>
<!-- Node1&#45;&gt;Node3 -->
<g id="edge2" class="edge"><title>Node1&#45;&gt;Node3</title>
<path fill="none" stroke="midnightblue" d="M111.136,-42.9329C120.752,-41.5131 130.845,-40.0229 140.707,-38.5668"/>
<polygon fill="midnightblue" stroke="midnightblue" points="141.489,-41.9893 150.871,-37.0661 140.467,-35.0644 141.489,-41.9893"/>
</g>
<!-- Node4 -->
<g id="node4" class="node"><title>Node4</title>
<g id="a_node4"><a xlink:href="namespaceOpenMesh.html#a71e7f1dd3eac016d2b8245ac408a291c" target="_top" xlink:title="OpenMesh::cross">
<polygon fill="white" stroke="black" points="302,-38.5 302,-57.5 401,-57.5 401,-38.5 302,-38.5"/>
<text text-anchor="middle" x="351.5" y="-45.5" font-family="Helvetica,sans-Serif" font-size="10.00">OpenMesh::cross</text>
</a>
</g>
</g>
<!-- Node3&#45;&gt;Node4 -->
<g id="edge3" class="edge"><title>Node3&#45;&gt;Node4</title>
<path fill="none" stroke="midnightblue" d="M262.379,-36.2916C271.966,-37.5653 281.975,-38.8952 291.663,-40.1825"/>
<polygon fill="midnightblue" stroke="midnightblue" points="291.239,-43.6568 301.613,-41.5045 292.161,-36.7178 291.239,-43.6568"/>
</g>
<!-- Node5 -->
<g id="node5" class="node"><title>Node5</title>
<g id="a_node5"><a xlink:href="namespaceOpenMesh.html#a8205f789ce08919bc11c58383574596c" target="_top" xlink:title="OpenMesh::norm">
<polygon fill="white" stroke="black" points="302,-0.5 302,-19.5 401,-19.5 401,-0.5 302,-0.5"/>
<text text-anchor="middle" x="351.5" y="-7.5" font-family="Helvetica,sans-Serif" font-size="10.00">OpenMesh::norm</text>
</a>
</g>
</g>
<!-- Node3&#45;&gt;Node5 -->
<g id="edge4" class="edge"><title>Node3&#45;&gt;Node5</title>
<path fill="none" stroke="midnightblue" d="M262.379,-21.7084C271.966,-20.4347 281.975,-19.1048 291.663,-17.8175"/>
<polygon fill="midnightblue" stroke="midnightblue" points="292.161,-21.2822 301.613,-16.4955 291.239,-14.3432 292.161,-21.2822"/>
</g>
</g>
</svg>
