<?xml version="1.0" encoding="UTF-8" standalone="no"?>
<!DOCTYPE svg PUBLIC "-//W3C//DTD SVG 1.1//EN"
 "http://www.w3.org/Graphics/SVG/1.1/DTD/svg11.dtd">
<!-- Generated by graphviz version 2.38.0 (20140413.2041)
 -->
<!-- Title: Ra::Core::Colors::scatter Pages: 1 -->
<svg width="477pt" height="66pt"
 viewBox="0.00 0.00 477.00 66.00" xmlns="http://www.w3.org/2000/svg" xmlns:xlink="http://www.w3.org/1999/xlink">
<g id="graph0" class="graph" transform="scale(1 1) rotate(0) translate(4 62)">
<title>Ra::Core::Colors::scatter</title>
<polygon fill="white" stroke="none" points="-4,4 -4,-62 473,-62 473,4 -4,4"/>
<!-- Node1 -->
<g id="node1" class="node"><title>Node1</title>
<polygon fill="#bfbfbf" stroke="black" points="0,-19.5 0,-38.5 133,-38.5 133,-19.5 0,-19.5"/>
<text text-anchor="middle" x="66.5" y="-26.5" font-family="Helvetica,sans-Serif" font-size="10.00">Ra::Core::Colors::scatter</text>
</g>
<!-- Node2 -->
<g id="node2" class="node"><title>Node2</title>
<g id="a_node2"><a xlink:href="namespaceRa_1_1Core_1_1Colors.html#a7b99d6d60a6fe356e854cc7253ec8bb7" target="_top" xlink:title="Ra::Core::Colors::fromHSV">
<polygon fill="white" stroke="black" points="169,-38.5 169,-57.5 312,-57.5 312,-38.5 169,-38.5"/>
<text text-anchor="middle" x="240.5" y="-45.5" font-family="Helvetica,sans-Serif" font-size="10.00">Ra::Core::Colors::fromHSV</text>
</a>
</g>
</g>
<!-- Node1&#45;&gt;Node2 -->
<g id="edge1" class="edge"><title>Node1&#45;&gt;Node2</title>
<path fill="none" stroke="midnightblue" d="M133.016,-36.2373C141.409,-37.1644 150.079,-38.1221 158.679,-39.0721"/>
<polygon fill="midnightblue" stroke="midnightblue" points="158.398,-42.5622 168.722,-40.1815 159.166,-35.6046 158.398,-42.5622"/>
</g>
<!-- Node4 -->
<g id="node4" class="node"><title>Node4</title>
<g id="a_node4"><a xlink:href="namespaceRa_1_1Core_1_1Colors.html#a5106b4a3ae9cf36ed9f57b733062346c" target="_top" xlink:title="Ra::Core::Colors::Red">
<polygon fill="white" stroke="black" points="182.5,-0.5 182.5,-19.5 298.5,-19.5 298.5,-0.5 182.5,-0.5"/>
<text text-anchor="middle" x="240.5" y="-7.5" font-family="Helvetica,sans-Serif" font-size="10.00">Ra::Core::Colors::Red</text>
</a>
</g>
</g>
<!-- Node1&#45;&gt;Node4 -->
<g id="edge3" class="edge"><title>Node1&#45;&gt;Node4</title>
<path fill="none" stroke="midnightblue" d="M133.016,-21.7627C145.826,-20.3477 159.28,-18.8616 172.148,-17.4401"/>
<polygon fill="midnightblue" stroke="midnightblue" points="172.764,-20.8934 182.319,-16.3165 171.995,-13.9357 172.764,-20.8934"/>
</g>
<!-- Node3 -->
<g id="node3" class="node"><title>Node3</title>
<g id="a_node3"><a xlink:href="namespaceRa_1_1Core_1_1Vector.html#af564521564244ea832d4b66d9cff6fcc" target="_top" xlink:title="Component&#45;wise floor() function on a floating&#45;point vector. ">
<polygon fill="white" stroke="black" points="348,-38.5 348,-57.5 469,-57.5 469,-38.5 348,-38.5"/>
<text text-anchor="middle" x="408.5" y="-45.5" font-family="Helvetica,sans-Serif" font-size="10.00">Ra::Core::Vector::floor</text>
</a>
</g>
</g>
<!-- Node2&#45;&gt;Node3 -->
<g id="edge2" class="edge"><title>Node2&#45;&gt;Node3</title>
<path fill="none" stroke="midnightblue" d="M312.38,-48C320.775,-48 329.339,-48 337.719,-48"/>
<polygon fill="midnightblue" stroke="midnightblue" points="337.825,-51.5001 347.825,-48 337.825,-44.5001 337.825,-51.5001"/>
</g>
</g>
</svg>
