<?xml version="1.0" encoding="UTF-8" standalone="no"?>
<!DOCTYPE svg PUBLIC "-//W3C//DTD SVG 1.1//EN"
 "http://www.w3.org/Graphics/SVG/1.1/DTD/svg11.dtd">
<!-- Generated by graphviz version 2.38.0 (20140413.2041)
 -->
<!-- Title: Ra::Engine::DrawPrimitives::Spline Pages: 1 -->
<svg width="464pt" height="66pt"
 viewBox="0.00 0.00 464.00 66.00" xmlns="http://www.w3.org/2000/svg" xmlns:xlink="http://www.w3.org/1999/xlink">
<g id="graph0" class="graph" transform="scale(1 1) rotate(0) translate(4 62)">
<title>Ra::Engine::DrawPrimitives::Spline</title>
<polygon fill="white" stroke="none" points="-4,4 -4,-62 460,-62 460,4 -4,4"/>
<!-- Node1 -->
<g id="node1" class="node"><title>Node1</title>
<polygon fill="#bfbfbf" stroke="black" points="0,-14 0,-44 143,-44 143,-14 0,-14"/>
<text text-anchor="start" x="8" y="-32" font-family="Helvetica,sans-Serif" font-size="10.00">Ra::Engine::DrawPrimitives</text>
<text text-anchor="middle" x="71.5" y="-21" font-family="Helvetica,sans-Serif" font-size="10.00">::Spline</text>
</g>
<!-- Node2 -->
<g id="node2" class="node"><title>Node2</title>
<g id="a_node2"><a xlink:href="namespaceRa_1_1Core_1_1Algorithm.html#aea294cdb6f4f0d85955bdcccb22886ec" target="_top" xlink:title="Ra::Core::Algorithm::t">
<polygon fill="white" stroke="black" points="179,-38.5 179,-57.5 298,-57.5 298,-38.5 179,-38.5"/>
<text text-anchor="middle" x="238.5" y="-45.5" font-family="Helvetica,sans-Serif" font-size="10.00">Ra::Core::Algorithm::t</text>
</a>
</g>
</g>
<!-- Node1&#45;&gt;Node2 -->
<g id="edge1" class="edge"><title>Node1&#45;&gt;Node2</title>
<path fill="none" stroke="midnightblue" d="M143.432,-37.168C151.816,-38.1333 160.361,-39.1173 168.714,-40.0792"/>
<polygon fill="midnightblue" stroke="midnightblue" points="168.448,-43.5716 178.783,-41.2386 169.249,-36.6175 168.448,-43.5716"/>
</g>
<!-- Node3 -->
<g id="node3" class="node"><title>Node3</title>
<g id="a_node3"><a xlink:href="classRa_1_1Core_1_1Spline.html#a28b1d348289fbf5a4355486c5140834e" target="_top" xlink:title="Evaluate position of the spline. ">
<polygon fill="white" stroke="black" points="188,-0.5 188,-19.5 289,-19.5 289,-0.5 188,-0.5"/>
<text text-anchor="middle" x="238.5" y="-7.5" font-family="Helvetica,sans-Serif" font-size="10.00">Ra::Core::Spline::f</text>
</a>
</g>
</g>
<!-- Node1&#45;&gt;Node3 -->
<g id="edge2" class="edge"><title>Node1&#45;&gt;Node3</title>
<path fill="none" stroke="midnightblue" d="M143.432,-20.832C154.801,-19.5229 166.468,-18.1794 177.548,-16.9035"/>
<polygon fill="midnightblue" stroke="midnightblue" points="177.999,-20.3749 187.533,-15.7538 177.198,-13.4208 177.999,-20.3749"/>
</g>
<!-- Node4 -->
<g id="node4" class="node"><title>Node4</title>
<g id="a_node4"><a xlink:href="namespaceRa_1_1Core_1_1Math.html#a43a856c00d750c5f5c28f362b5df8664" target="_top" xlink:title="Returns value v clamped between bounds min and max. ">
<polygon fill="white" stroke="black" points="334,-0.5 334,-19.5 456,-19.5 456,-0.5 334,-0.5"/>
<text text-anchor="middle" x="395" y="-7.5" font-family="Helvetica,sans-Serif" font-size="10.00">Ra::Core::Math::clamp</text>
</a>
</g>
</g>
<!-- Node3&#45;&gt;Node4 -->
<g id="edge3" class="edge"><title>Node3&#45;&gt;Node4</title>
<path fill="none" stroke="midnightblue" d="M289.235,-10C300.22,-10 312.058,-10 323.685,-10"/>
<polygon fill="midnightblue" stroke="midnightblue" points="323.822,-13.5001 333.822,-10 323.822,-6.5001 323.822,-13.5001"/>
</g>
</g>
</svg>
