<?xml version="1.0" encoding="UTF-8" standalone="no"?>
<!DOCTYPE svg PUBLIC "-//W3C//DTD SVG 1.1//EN"
 "http://www.w3.org/Graphics/SVG/1.1/DTD/svg11.dtd">
<!-- Generated by graphviz version 2.38.0 (20140413.2041)
 -->
<!-- Title: Ra::Core::Geometry::print Pages: 1 -->
<svg width="574pt" height="210pt"
 viewBox="0.00 0.00 574.00 210.00" xmlns="http://www.w3.org/2000/svg" xmlns:xlink="http://www.w3.org/1999/xlink">
<g id="graph0" class="graph" transform="scale(1 1) rotate(0) translate(4 206)">
<title>Ra::Core::Geometry::print</title>
<polygon fill="white" stroke="none" points="-4,4 -4,-206 570,-206 570,4 -4,4"/>
<!-- Node1 -->
<g id="node1" class="node"><title>Node1</title>
<polygon fill="#bfbfbf" stroke="black" points="0,-93.5 0,-123.5 111,-123.5 111,-93.5 0,-93.5"/>
<text text-anchor="start" x="8" y="-111.5" font-family="Helvetica,sans-Serif" font-size="10.00">Ra::Core::Geometry</text>
<text text-anchor="middle" x="55.5" y="-100.5" font-family="Helvetica,sans-Serif" font-size="10.00">::print</text>
</g>
<!-- Node2 -->
<g id="node2" class="node"><title>Node2</title>
<g id="a_node2"><a xlink:href="namespaceRa_1_1Core_1_1Geometry.html#a5cb3feb0eb10cad8141ea9214efaf1fb" target="_top" xlink:title="Ra::Core::Geometry\l::print">
<polygon fill="white" stroke="black" points="147,-93.5 147,-123.5 258,-123.5 258,-93.5 147,-93.5"/>
<text text-anchor="start" x="155" y="-111.5" font-family="Helvetica,sans-Serif" font-size="10.00">Ra::Core::Geometry</text>
<text text-anchor="middle" x="202.5" y="-100.5" font-family="Helvetica,sans-Serif" font-size="10.00">::print</text>
</a>
</g>
</g>
<!-- Node1&#45;&gt;Node2 -->
<g id="edge1" class="edge"><title>Node1&#45;&gt;Node2</title>
<path fill="none" stroke="midnightblue" d="M111.318,-108.5C119.529,-108.5 128.061,-108.5 136.459,-108.5"/>
<polygon fill="midnightblue" stroke="midnightblue" points="136.604,-112 146.604,-108.5 136.604,-105 136.604,-112"/>
</g>
<!-- Node3 -->
<g id="node3" class="node"><title>Node3</title>
<g id="a_node3"><a xlink:href="classRa_1_1Core_1_1Geometry_1_1Mapping.html#a763871f983029ce49872c463a7e9a6d4" target="_top" xlink:title="BARYCENTRIC COORDINATE. ">
<polygon fill="white" stroke="black" points="454,-171.5 454,-201.5 566,-201.5 566,-171.5 454,-171.5"/>
<text text-anchor="start" x="462" y="-189.5" font-family="Helvetica,sans-Serif" font-size="10.00">Ra::Core::Geometry</text>
<text text-anchor="middle" x="510" y="-178.5" font-family="Helvetica,sans-Serif" font-size="10.00">::Mapping::getAlpha</text>
</a>
</g>
</g>
<!-- Node2&#45;&gt;Node3 -->
<g id="edge2" class="edge"><title>Node2&#45;&gt;Node3</title>
<path fill="none" stroke="midnightblue" d="M217.457,-123.656C233.91,-140.343 262.967,-166.291 294,-177.5 341.981,-194.831 399.948,-196.234 443.596,-193.77"/>
<polygon fill="midnightblue" stroke="midnightblue" points="444.052,-197.247 453.805,-193.109 443.599,-190.262 444.052,-197.247"/>
</g>
<!-- Node4 -->
<g id="node4" class="node"><title>Node4</title>
<g id="a_node4"><a xlink:href="classRa_1_1Core_1_1Geometry_1_1Mapping.html#a8d49ef820cb4bc114f9d044b634e546e" target="_top" xlink:title="Ra::Core::Geometry\l::Mapping::getBeta">
<polygon fill="white" stroke="black" points="454.5,-112.5 454.5,-142.5 565.5,-142.5 565.5,-112.5 454.5,-112.5"/>
<text text-anchor="start" x="462.5" y="-130.5" font-family="Helvetica,sans-Serif" font-size="10.00">Ra::Core::Geometry</text>
<text text-anchor="middle" x="510" y="-119.5" font-family="Helvetica,sans-Serif" font-size="10.00">::Mapping::getBeta</text>
</a>
</g>
</g>
<!-- Node2&#45;&gt;Node4 -->
<g id="edge3" class="edge"><title>Node2&#45;&gt;Node4</title>
<path fill="none" stroke="midnightblue" d="M258.117,-111.897C310.304,-115.142 388.993,-120.036 444.299,-123.476"/>
<polygon fill="midnightblue" stroke="midnightblue" points="444.143,-126.973 454.341,-124.101 444.578,-119.987 444.143,-126.973"/>
</g>
<!-- Node5 -->
<g id="node5" class="node"><title>Node5</title>
<g id="a_node5"><a xlink:href="classRa_1_1Core_1_1Geometry_1_1Mapping.html#aec7531b8e9481ce1814af6578687e725" target="_top" xlink:title="Ra::Core::Geometry\l::Mapping::getGamma">
<polygon fill="white" stroke="black" points="294,-137.5 294,-167.5 418,-167.5 418,-137.5 294,-137.5"/>
<text text-anchor="start" x="302" y="-155.5" font-family="Helvetica,sans-Serif" font-size="10.00">Ra::Core::Geometry</text>
<text text-anchor="middle" x="356" y="-144.5" font-family="Helvetica,sans-Serif" font-size="10.00">::Mapping::getGamma</text>
</a>
</g>
</g>
<!-- Node2&#45;&gt;Node5 -->
<g id="edge4" class="edge"><title>Node2&#45;&gt;Node5</title>
<path fill="none" stroke="midnightblue" d="M255.214,-123.519C267.578,-127.11 280.894,-130.978 293.646,-134.681"/>
<polygon fill="midnightblue" stroke="midnightblue" points="292.683,-138.046 303.262,-137.474 294.635,-131.324 292.683,-138.046"/>
</g>
<!-- Node6 -->
<g id="node6" class="node"><title>Node6</title>
<g id="a_node6"><a xlink:href="classRa_1_1Core_1_1Geometry_1_1Mapping.html#a77e6d8203213675dd143a7e48866cca2" target="_top" xlink:title="DELTA. ">
<polygon fill="white" stroke="black" points="300.5,-49.5 300.5,-79.5 411.5,-79.5 411.5,-49.5 300.5,-49.5"/>
<text text-anchor="start" x="308.5" y="-67.5" font-family="Helvetica,sans-Serif" font-size="10.00">Ra::Core::Geometry</text>
<text text-anchor="middle" x="356" y="-56.5" font-family="Helvetica,sans-Serif" font-size="10.00">::Mapping::getDelta</text>
</a>
</g>
</g>
<!-- Node2&#45;&gt;Node6 -->
<g id="edge7" class="edge"><title>Node2&#45;&gt;Node6</title>
<path fill="none" stroke="midnightblue" d="M255.214,-93.4808C267.578,-89.89 280.894,-86.0224 293.646,-82.319"/>
<polygon fill="midnightblue" stroke="midnightblue" points="294.635,-85.6764 303.262,-79.5262 292.683,-78.9542 294.635,-85.6764"/>
</g>
<!-- Node7 -->
<g id="node7" class="node"><title>Node7</title>
<g id="a_node7"><a xlink:href="classRa_1_1Core_1_1Geometry_1_1Mapping.html#a4f14c58a7a6f13376064743c9284019c" target="_top" xlink:title="ID. ">
<polygon fill="white" stroke="black" points="300.5,-0.5 300.5,-30.5 411.5,-30.5 411.5,-0.5 300.5,-0.5"/>
<text text-anchor="start" x="308.5" y="-18.5" font-family="Helvetica,sans-Serif" font-size="10.00">Ra::Core::Geometry</text>
<text text-anchor="middle" x="356" y="-7.5" font-family="Helvetica,sans-Serif" font-size="10.00">::Mapping::getID</text>
</a>
</g>
</g>
<!-- Node2&#45;&gt;Node7 -->
<g id="edge8" class="edge"><title>Node2&#45;&gt;Node7</title>
<path fill="none" stroke="midnightblue" d="M220.931,-93.2586C238.5,-78.4292 266.831,-55.9361 294,-40.5 297.429,-38.5521 301.039,-36.6757 304.721,-34.8868"/>
<polygon fill="midnightblue" stroke="midnightblue" points="306.339,-37.995 313.954,-30.6296 303.408,-31.638 306.339,-37.995"/>
</g>
<!-- Node5&#45;&gt;Node3 -->
<g id="edge5" class="edge"><title>Node5&#45;&gt;Node3</title>
<path fill="none" stroke="midnightblue" d="M418.386,-166.231C426.795,-168.112 435.453,-170.049 443.925,-171.944"/>
<polygon fill="midnightblue" stroke="midnightblue" points="443.237,-175.376 453.76,-174.144 444.765,-168.545 443.237,-175.376"/>
</g>
<!-- Node5&#45;&gt;Node4 -->
<g id="edge6" class="edge"><title>Node5&#45;&gt;Node4</title>
<path fill="none" stroke="midnightblue" d="M418.386,-142.404C426.914,-141.001 435.697,-139.556 444.283,-138.144"/>
<polygon fill="midnightblue" stroke="midnightblue" points="444.946,-141.582 454.245,-136.506 443.81,-134.675 444.946,-141.582"/>
</g>
</g>
</svg>
