<?xml version="1.0" encoding="UTF-8" standalone="no"?>
<!DOCTYPE svg PUBLIC "-//W3C//DTD SVG 1.1//EN"
 "http://www.w3.org/Graphics/SVG/1.1/DTD/svg11.dtd">
<!-- Generated by graphviz version 2.38.0 (20140413.2041)
 -->
<!-- Title: Ra::Core::MeshUtils::checkConsistency Pages: 1 -->
<svg width="762pt" height="159pt"
 viewBox="0.00 0.00 762.00 159.00" xmlns="http://www.w3.org/2000/svg" xmlns:xlink="http://www.w3.org/1999/xlink">
<g id="graph0" class="graph" transform="scale(1 1) rotate(0) translate(4 155)">
<title>Ra::Core::MeshUtils::checkConsistency</title>
<polygon fill="white" stroke="none" points="-4,4 -4,-155 758,-155 758,4 -4,4"/>
<!-- Node1 -->
<g id="node1" class="node"><title>Node1</title>
<polygon fill="#bfbfbf" stroke="black" points="0,-76.5 0,-106.5 110,-106.5 110,-76.5 0,-76.5"/>
<text text-anchor="start" x="8" y="-94.5" font-family="Helvetica,sans-Serif" font-size="10.00">Ra::Core::MeshUtils</text>
<text text-anchor="middle" x="55" y="-83.5" font-family="Helvetica,sans-Serif" font-size="10.00">::checkConsistency</text>
</g>
<!-- Node2 -->
<g id="node2" class="node"><title>Node2</title>
<g id="a_node2"><a xlink:href="classRa_1_1Core_1_1TriangleMesh.html#a495116f40cfec8bb6504698d786d4b8c" target="_top" xlink:title="Access the vertices positions. ">
<polygon fill="white" stroke="black" points="462,-120.5 462,-150.5 587,-150.5 587,-120.5 462,-120.5"/>
<text text-anchor="start" x="470" y="-138.5" font-family="Helvetica,sans-Serif" font-size="10.00">Ra::Core::TriangleMesh</text>
<text text-anchor="middle" x="524.5" y="-127.5" font-family="Helvetica,sans-Serif" font-size="10.00">::vertices</text>
</a>
</g>
</g>
<!-- Node1&#45;&gt;Node2 -->
<g id="edge1" class="edge"><title>Node1&#45;&gt;Node2</title>
<path fill="none" stroke="midnightblue" d="M81.799,-106.574C99.2837,-115.941 123.263,-127.18 146,-132.5 250.132,-156.866 374.886,-151.389 451.667,-144.214"/>
<polygon fill="midnightblue" stroke="midnightblue" points="452.097,-147.688 461.713,-143.239 451.421,-140.721 452.097,-147.688"/>
</g>
<!-- Node4 -->
<g id="node4" class="node"><title>Node4</title>
<g id="a_node4"><a xlink:href="namespaceRa_1_1Core_1_1Algorithm.html#aea294cdb6f4f0d85955bdcccb22886ec" target="_top" xlink:title="Ra::Core::Algorithm::t">
<polygon fill="white" stroke="black" points="146,-104 146,-123 265,-123 265,-104 146,-104"/>
<text text-anchor="middle" x="205.5" y="-111" font-family="Helvetica,sans-Serif" font-size="10.00">Ra::Core::Algorithm::t</text>
</a>
</g>
</g>
<!-- Node1&#45;&gt;Node4 -->
<g id="edge3" class="edge"><title>Node1&#45;&gt;Node4</title>
<path fill="none" stroke="midnightblue" d="M110.032,-99.5047C118.436,-100.75 127.215,-102.05 135.89,-103.336"/>
<polygon fill="midnightblue" stroke="midnightblue" points="135.593,-106.83 145.998,-104.833 136.619,-99.9052 135.593,-106.83"/>
</g>
<!-- Node5 -->
<g id="node5" class="node"><title>Node5</title>
<g id="a_node5"><a xlink:href="namespaceRa_1_1Core_1_1MeshUtils.html#a746199d436bb1dc31c4bccb3953743b9" target="_top" xlink:title="Returns the area of a given triangle. ">
<polygon fill="white" stroke="black" points="150.5,-54.5 150.5,-84.5 260.5,-84.5 260.5,-54.5 150.5,-54.5"/>
<text text-anchor="start" x="158.5" y="-72.5" font-family="Helvetica,sans-Serif" font-size="10.00">Ra::Core::MeshUtils</text>
<text text-anchor="middle" x="205.5" y="-61.5" font-family="Helvetica,sans-Serif" font-size="10.00">::getTriangleArea</text>
</a>
</g>
</g>
<!-- Node1&#45;&gt;Node5 -->
<g id="edge4" class="edge"><title>Node1&#45;&gt;Node5</title>
<path fill="none" stroke="midnightblue" d="M110.032,-83.4953C119.859,-82.0394 130.198,-80.5077 140.285,-79.0134"/>
<polygon fill="midnightblue" stroke="midnightblue" points="140.88,-82.4634 150.259,-77.5356 139.854,-75.539 140.88,-82.4634"/>
</g>
<!-- Node10 -->
<g id="node10" class="node"><title>Node10</title>
<g id="a_node10"><a xlink:href="classRa_1_1Core_1_1TriangleMesh.html#a40d31b7b2943947d6eac5d906f0182fd" target="_top" xlink:title="Access the vertices normals. ">
<polygon fill="white" stroke="black" points="301,-0.5 301,-30.5 426,-30.5 426,-0.5 301,-0.5"/>
<text text-anchor="start" x="309" y="-18.5" font-family="Helvetica,sans-Serif" font-size="10.00">Ra::Core::TriangleMesh</text>
<text text-anchor="middle" x="363.5" y="-7.5" font-family="Helvetica,sans-Serif" font-size="10.00">::normals</text>
</a>
</g>
</g>
<!-- Node1&#45;&gt;Node10 -->
<g id="edge10" class="edge"><title>Node1&#45;&gt;Node10</title>
<path fill="none" stroke="midnightblue" d="M79.4528,-76.3432C97.0597,-65.7023 122.141,-52.0694 146,-44.5 192.85,-29.6366 247.755,-22.39 290.551,-18.8576"/>
<polygon fill="midnightblue" stroke="midnightblue" points="290.9,-22.341 300.6,-18.0776 290.359,-15.362 290.9,-22.341"/>
</g>
<!-- Node3 -->
<g id="node3" class="node"><title>Node3</title>
<g id="a_node3"><a xlink:href="classRa_1_1Core_1_1AttribManager.html#aaa6088620425c1e1d74b50f1b50eb596" target="_top" xlink:title="Get attribute by handle. ">
<polygon fill="white" stroke="black" points="623,-60.5 623,-90.5 754,-90.5 754,-60.5 623,-60.5"/>
<text text-anchor="start" x="631" y="-78.5" font-family="Helvetica,sans-Serif" font-size="10.00">Ra::Core::AttribManager</text>
<text text-anchor="middle" x="688.5" y="-67.5" font-family="Helvetica,sans-Serif" font-size="10.00">::getAttrib</text>
</a>
</g>
</g>
<!-- Node2&#45;&gt;Node3 -->
<g id="edge2" class="edge"><title>Node2&#45;&gt;Node3</title>
<path fill="none" stroke="midnightblue" d="M566.379,-120.359C587.95,-112.37 614.598,-102.501 637.403,-94.0546"/>
<polygon fill="midnightblue" stroke="midnightblue" points="638.753,-97.287 646.915,-90.5317 636.321,-90.7227 638.753,-97.287"/>
</g>
<!-- Node6 -->
<g id="node6" class="node"><title>Node6</title>
<g id="a_node6"><a xlink:href="namespaceRa_1_1Core_1_1MeshUtils.html#afbee0fe3203a295fb1f93b33dfb33f81" target="_top" xlink:title="Fills the given array with the vertices of a given triangle. ">
<polygon fill="white" stroke="black" points="307,-98.5 307,-128.5 420,-128.5 420,-98.5 307,-98.5"/>
<text text-anchor="start" x="315" y="-116.5" font-family="Helvetica,sans-Serif" font-size="10.00">Ra::Core::MeshUtils</text>
<text text-anchor="middle" x="363.5" y="-105.5" font-family="Helvetica,sans-Serif" font-size="10.00">::getTriangleVertices</text>
</a>
</g>
</g>
<!-- Node5&#45;&gt;Node6 -->
<g id="edge5" class="edge"><title>Node5&#45;&gt;Node6</title>
<path fill="none" stroke="midnightblue" d="M259.75,-84.5192C272.481,-88.11 286.193,-91.9776 299.324,-95.681"/>
<polygon fill="midnightblue" stroke="midnightblue" points="298.651,-99.1277 309.225,-98.4738 300.551,-92.3905 298.651,-99.1277"/>
</g>
<!-- Node7 -->
<g id="node7" class="node"><title>Node7</title>
<g id="a_node7"><a xlink:href="namespaceRa_1_1Core_1_1Geometry.html#a178f2b7309fe2ea5bc31a3abcb25368e" target="_top" xlink:title="Ra::Core::Geometry\l::triangleArea">
<polygon fill="white" stroke="black" points="308,-49.5 308,-79.5 419,-79.5 419,-49.5 308,-49.5"/>
<text text-anchor="start" x="316" y="-67.5" font-family="Helvetica,sans-Serif" font-size="10.00">Ra::Core::Geometry</text>
<text text-anchor="middle" x="363.5" y="-56.5" font-family="Helvetica,sans-Serif" font-size="10.00">::triangleArea</text>
</a>
</g>
</g>
<!-- Node5&#45;&gt;Node7 -->
<g id="edge7" class="edge"><title>Node5&#45;&gt;Node7</title>
<path fill="none" stroke="midnightblue" d="M260.623,-67.7653C272.586,-67.3819 285.378,-66.9719 297.715,-66.5764"/>
<polygon fill="midnightblue" stroke="midnightblue" points="298.061,-70.0672 307.944,-66.2486 297.837,-63.0708 298.061,-70.0672"/>
</g>
<!-- Node6&#45;&gt;Node2 -->
<g id="edge6" class="edge"><title>Node6&#45;&gt;Node2</title>
<path fill="none" stroke="midnightblue" d="M420.11,-121.195C430.358,-122.612 441.189,-124.111 451.832,-125.584"/>
<polygon fill="midnightblue" stroke="midnightblue" points="451.566,-129.08 461.952,-126.984 452.526,-122.146 451.566,-129.08"/>
</g>
<!-- Node8 -->
<g id="node8" class="node"><title>Node8</title>
<g id="a_node8"><a xlink:href="namespaceOpenMesh.html#a71e7f1dd3eac016d2b8245ac408a291c" target="_top" xlink:title="OpenMesh::cross">
<polygon fill="white" stroke="black" points="475,-82 475,-101 574,-101 574,-82 475,-82"/>
<text text-anchor="middle" x="524.5" y="-89" font-family="Helvetica,sans-Serif" font-size="10.00">OpenMesh::cross</text>
</a>
</g>
</g>
<!-- Node7&#45;&gt;Node8 -->
<g id="edge8" class="edge"><title>Node7&#45;&gt;Node8</title>
<path fill="none" stroke="midnightblue" d="M419.219,-73.7919C433.889,-76.2831 449.81,-78.9867 464.692,-81.5138"/>
<polygon fill="midnightblue" stroke="midnightblue" points="464.356,-85.0067 474.801,-83.2303 465.528,-78.1054 464.356,-85.0067"/>
</g>
<!-- Node9 -->
<g id="node9" class="node"><title>Node9</title>
<g id="a_node9"><a xlink:href="namespaceOpenMesh.html#a8205f789ce08919bc11c58383574596c" target="_top" xlink:title="OpenMesh::norm">
<polygon fill="white" stroke="black" points="475,-44 475,-63 574,-63 574,-44 475,-44"/>
<text text-anchor="middle" x="524.5" y="-51" font-family="Helvetica,sans-Serif" font-size="10.00">OpenMesh::norm</text>
</a>
</g>
</g>
<!-- Node7&#45;&gt;Node9 -->
<g id="edge9" class="edge"><title>Node7&#45;&gt;Node9</title>
<path fill="none" stroke="midnightblue" d="M419.219,-60.7144C433.889,-59.6995 449.81,-58.598 464.692,-57.5685"/>
<polygon fill="midnightblue" stroke="midnightblue" points="465.066,-61.0511 474.801,-56.8691 464.583,-54.0678 465.066,-61.0511"/>
</g>
<!-- Node10&#45;&gt;Node3 -->
<g id="edge11" class="edge"><title>Node10&#45;&gt;Node3</title>
<path fill="none" stroke="midnightblue" d="M426.207,-15.7963C471.314,-17.2085 533.666,-21.659 587,-34.5 607.905,-39.5333 630.142,-48.2255 648.369,-56.3148"/>
<polygon fill="midnightblue" stroke="midnightblue" points="646.955,-59.5166 657.507,-60.4675 649.851,-53.1438 646.955,-59.5166"/>
</g>
</g>
</svg>
