<?xml version="1.0" encoding="UTF-8" standalone="no"?>
<!DOCTYPE svg PUBLIC "-//W3C//DTD SVG 1.1//EN"
 "http://www.w3.org/Graphics/SVG/1.1/DTD/svg11.dtd">
<!-- Generated by graphviz version 2.38.0 (20140413.2041)
 -->
<!-- Title: /home/travis/build/STORM&#45;IRIT/Radium&#45;Engine/src/Core/Math/Obb.inl Pages: 1 -->
<svg width="1022pt" height="397pt"
 viewBox="0.00 0.00 1021.50 397.00" xmlns="http://www.w3.org/2000/svg" xmlns:xlink="http://www.w3.org/1999/xlink">
<g id="graph0" class="graph" transform="scale(1 1) rotate(0) translate(4 393)">
<title>/home/travis/build/STORM&#45;IRIT/Radium&#45;Engine/src/Core/Math/Obb.inl</title>
<polygon fill="white" stroke="none" points="-4,4 -4,-393 1017.5,-393 1017.5,4 -4,4"/>
<!-- Node1 -->
<g id="node1" class="node"><title>Node1</title>
<polygon fill="#bfbfbf" stroke="black" points="203,-347.5 203,-388.5 351,-388.5 351,-347.5 203,-347.5"/>
<text text-anchor="start" x="211" y="-376.5" font-family="Helvetica,sans-Serif" font-size="10.00">/home/travis/build</text>
<text text-anchor="start" x="211" y="-365.5" font-family="Helvetica,sans-Serif" font-size="10.00">/STORM&#45;IRIT/Radium&#45;Engine</text>
<text text-anchor="middle" x="277" y="-354.5" font-family="Helvetica,sans-Serif" font-size="10.00">/src/Core/Math/Obb.inl</text>
</g>
<!-- Node2 -->
<g id="node2" class="node"><title>Node2</title>
<g id="a_node2"><a xlink:href="Obb_8hpp.html" target="_top" xlink:title="Obb.hpp">
<polygon fill="white" stroke="black" points="248.5,-291.5 248.5,-310.5 305.5,-310.5 305.5,-291.5 248.5,-291.5"/>
<text text-anchor="middle" x="277" y="-298.5" font-family="Helvetica,sans-Serif" font-size="10.00">Obb.hpp</text>
</a>
</g>
</g>
<!-- Node1&#45;&gt;Node2 -->
<g id="edge1" class="edge"><title>Node1&#45;&gt;Node2</title>
<path fill="none" stroke="midnightblue" d="M270.755,-347.498C270.057,-338.969 270.083,-329.011 270.833,-320.59"/>
<polygon fill="midnightblue" stroke="midnightblue" points="274.303,-321.044 272.236,-310.652 267.372,-320.065 274.303,-321.044"/>
</g>
<!-- Node2&#45;&gt;Node1 -->
<g id="edge23" class="edge"><title>Node2&#45;&gt;Node1</title>
<path fill="none" stroke="midnightblue" d="M281.764,-310.652C283.227,-317.524 283.881,-327.559 283.728,-337.263"/>
<polygon fill="midnightblue" stroke="midnightblue" points="280.221,-337.344 283.245,-347.498 287.213,-337.674 280.221,-337.344"/>
</g>
<!-- Node3 -->
<g id="node3" class="node"><title>Node3</title>
<g id="a_node3"><a xlink:href="RaCore_8hpp.html" target="_top" xlink:title="Core/RaCore.hpp">
<polygon fill="white" stroke="black" points="114,-112.5 114,-131.5 212,-131.5 212,-112.5 114,-112.5"/>
<text text-anchor="middle" x="163" y="-119.5" font-family="Helvetica,sans-Serif" font-size="10.00">Core/RaCore.hpp</text>
</a>
</g>
</g>
<!-- Node2&#45;&gt;Node3 -->
<g id="edge2" class="edge"><title>Node2&#45;&gt;Node3</title>
<path fill="none" stroke="midnightblue" d="M260.047,-291.337C233.301,-276.587 182.272,-243.784 162,-199 153.856,-181.007 155.576,-158.075 158.411,-142.13"/>
<polygon fill="midnightblue" stroke="midnightblue" points="161.924,-142.429 160.546,-131.924 155.072,-140.995 161.924,-142.429"/>
</g>
<!-- Node10 -->
<g id="node10" class="node"><title>Node10</title>
<g id="a_node10"><a xlink:href="LinearAlgebra_8hpp.html" target="_top" xlink:title="Core/Math/LinearAlgebra.hpp">
<polygon fill="white" stroke="black" points="351,-235.5 351,-254.5 507,-254.5 507,-235.5 351,-235.5"/>
<text text-anchor="middle" x="429" y="-242.5" font-family="Helvetica,sans-Serif" font-size="10.00">Core/Math/LinearAlgebra.hpp</text>
</a>
</g>
</g>
<!-- Node2&#45;&gt;Node10 -->
<g id="edge9" class="edge"><title>Node2&#45;&gt;Node10</title>
<path fill="none" stroke="midnightblue" d="M301.085,-291.444C326.545,-282.399 366.894,-268.064 395.459,-257.916"/>
<polygon fill="midnightblue" stroke="midnightblue" points="396.777,-261.162 405.028,-254.516 394.433,-254.566 396.777,-261.162"/>
</g>
<!-- Node4 -->
<g id="node4" class="node"><title>Node4</title>
<g id="a_node4"><a xlink:href="CoreMacros_8hpp.html" target="_top" xlink:title="Core/CoreMacros.hpp">
<polygon fill="white" stroke="black" points="103,-56.5 103,-75.5 223,-75.5 223,-56.5 103,-56.5"/>
<text text-anchor="middle" x="163" y="-63.5" font-family="Helvetica,sans-Serif" font-size="10.00">Core/CoreMacros.hpp</text>
</a>
</g>
</g>
<!-- Node3&#45;&gt;Node4 -->
<g id="edge3" class="edge"><title>Node3&#45;&gt;Node4</title>
<path fill="none" stroke="midnightblue" d="M163,-112.083C163,-105.006 163,-94.8611 163,-85.9865"/>
<polygon fill="midnightblue" stroke="midnightblue" points="166.5,-85.751 163,-75.7511 159.5,-85.7511 166.5,-85.751"/>
</g>
<!-- Node5 -->
<g id="node5" class="node"><title>Node5</title>
<polygon fill="white" stroke="#bfbfbf" points="0,-0.5 0,-19.5 52,-19.5 52,-0.5 0,-0.5"/>
<text text-anchor="middle" x="26" y="-7.5" font-family="Helvetica,sans-Serif" font-size="10.00">cassert</text>
</g>
<!-- Node4&#45;&gt;Node5 -->
<g id="edge4" class="edge"><title>Node4&#45;&gt;Node5</title>
<path fill="none" stroke="midnightblue" d="M141.292,-56.4435C118.645,-47.5171 82.9279,-33.4387 57.2482,-23.3168"/>
<polygon fill="midnightblue" stroke="midnightblue" points="58.1934,-19.9273 47.6065,-19.5164 55.6264,-26.4397 58.1934,-19.9273"/>
</g>
<!-- Node6 -->
<g id="node6" class="node"><title>Node6</title>
<polygon fill="white" stroke="#bfbfbf" points="70.5,-0.5 70.5,-19.5 115.5,-19.5 115.5,-0.5 70.5,-0.5"/>
<text text-anchor="middle" x="93" y="-7.5" font-family="Helvetica,sans-Serif" font-size="10.00">cstdio</text>
</g>
<!-- Node4&#45;&gt;Node6 -->
<g id="edge5" class="edge"><title>Node4&#45;&gt;Node6</title>
<path fill="none" stroke="midnightblue" d="M151.753,-56.324C141.203,-48.1849 125.199,-35.8395 112.558,-26.0874"/>
<polygon fill="midnightblue" stroke="midnightblue" points="114.507,-23.1707 104.451,-19.8339 110.231,-28.7132 114.507,-23.1707"/>
</g>
<!-- Node7 -->
<g id="node7" class="node"><title>Node7</title>
<polygon fill="white" stroke="#bfbfbf" points="133.5,-0.5 133.5,-19.5 192.5,-19.5 192.5,-0.5 133.5,-0.5"/>
<text text-anchor="middle" x="163" y="-7.5" font-family="Helvetica,sans-Serif" font-size="10.00">iostream</text>
</g>
<!-- Node4&#45;&gt;Node7 -->
<g id="edge6" class="edge"><title>Node4&#45;&gt;Node7</title>
<path fill="none" stroke="midnightblue" d="M163,-56.083C163,-49.0059 163,-38.8611 163,-29.9865"/>
<polygon fill="midnightblue" stroke="midnightblue" points="166.5,-29.751 163,-19.7511 159.5,-29.7511 166.5,-29.751"/>
</g>
<!-- Node8 -->
<g id="node8" class="node"><title>Node8</title>
<polygon fill="white" stroke="#bfbfbf" points="211,-0.5 211,-19.5 267,-19.5 267,-0.5 211,-0.5"/>
<text text-anchor="middle" x="239" y="-7.5" font-family="Helvetica,sans-Serif" font-size="10.00">sstream</text>
</g>
<!-- Node4&#45;&gt;Node8 -->
<g id="edge7" class="edge"><title>Node4&#45;&gt;Node8</title>
<path fill="none" stroke="midnightblue" d="M175.211,-56.324C186.776,-48.1066 204.375,-35.6017 218.161,-25.8069"/>
<polygon fill="midnightblue" stroke="midnightblue" points="220.443,-28.4791 226.567,-19.8339 216.388,-22.7729 220.443,-28.4791"/>
</g>
<!-- Node9 -->
<g id="node9" class="node"><title>Node9</title>
<polygon fill="white" stroke="#bfbfbf" points="285,-0.5 285,-19.5 333,-19.5 333,-0.5 285,-0.5"/>
<text text-anchor="middle" x="309" y="-7.5" font-family="Helvetica,sans-Serif" font-size="10.00">thread</text>
</g>
<!-- Node4&#45;&gt;Node9 -->
<g id="edge8" class="edge"><title>Node4&#45;&gt;Node9</title>
<path fill="none" stroke="midnightblue" d="M186.134,-56.4435C210.482,-47.4381 249.007,-33.1891 276.423,-23.049"/>
<polygon fill="midnightblue" stroke="midnightblue" points="277.809,-26.2681 285.974,-19.5164 275.381,-19.7028 277.809,-26.2681"/>
</g>
<!-- Node10&#45;&gt;Node3 -->
<g id="edge10" class="edge"><title>Node10&#45;&gt;Node3</title>
<path fill="none" stroke="midnightblue" d="M350.859,-238.885C287.902,-233.155 206.051,-221.542 182,-199 166.371,-184.352 162.781,-158.961 162.332,-141.59"/>
<polygon fill="midnightblue" stroke="midnightblue" points="165.833,-141.549 162.396,-131.527 158.833,-141.504 165.833,-141.549"/>
</g>
<!-- Node11 -->
<g id="node11" class="node"><title>Node11</title>
<polygon fill="white" stroke="#bfbfbf" points="191,-174 191,-193 259,-193 259,-174 191,-174"/>
<text text-anchor="middle" x="225" y="-181" font-family="Helvetica,sans-Serif" font-size="10.00">Eigen/Core</text>
</g>
<!-- Node10&#45;&gt;Node11 -->
<g id="edge11" class="edge"><title>Node10&#45;&gt;Node11</title>
<path fill="none" stroke="midnightblue" d="M396.474,-235.449C363.85,-226.745 312.239,-212.631 268,-199 265.083,-198.101 262.063,-197.142 259.039,-196.162"/>
<polygon fill="midnightblue" stroke="midnightblue" points="260.079,-192.819 249.486,-193.005 257.883,-199.466 260.079,-192.819"/>
</g>
<!-- Node12 -->
<g id="node12" class="node"><title>Node12</title>
<polygon fill="white" stroke="#bfbfbf" points="277,-174 277,-193 371,-193 371,-174 277,-174"/>
<text text-anchor="middle" x="324" y="-181" font-family="Helvetica,sans-Serif" font-size="10.00">Eigen/Geometry</text>
</g>
<!-- Node10&#45;&gt;Node12 -->
<g id="edge12" class="edge"><title>Node10&#45;&gt;Node12</title>
<path fill="none" stroke="midnightblue" d="M413.956,-235.475C396.725,-225.711 368.26,-209.581 347.966,-198.081"/>
<polygon fill="midnightblue" stroke="midnightblue" points="349.442,-194.894 339.016,-193.009 345.991,-200.984 349.442,-194.894"/>
</g>
<!-- Node13 -->
<g id="node13" class="node"><title>Node13</title>
<polygon fill="white" stroke="#bfbfbf" points="389,-174 389,-193 469,-193 469,-174 389,-174"/>
<text text-anchor="middle" x="429" y="-181" font-family="Helvetica,sans-Serif" font-size="10.00">Eigen/Sparse</text>
</g>
<!-- Node10&#45;&gt;Node13 -->
<g id="edge13" class="edge"><title>Node10&#45;&gt;Node13</title>
<path fill="none" stroke="midnightblue" d="M429,-235.475C429,-227.08 429,-213.981 429,-203.163"/>
<polygon fill="midnightblue" stroke="midnightblue" points="432.5,-203.009 429,-193.009 425.5,-203.009 432.5,-203.009"/>
</g>
<!-- Node14 -->
<g id="node14" class="node"><title>Node14</title>
<polygon fill="white" stroke="#bfbfbf" points="487.5,-174 487.5,-193 550.5,-193 550.5,-174 487.5,-174"/>
<text text-anchor="middle" x="519" y="-181" font-family="Helvetica,sans-Serif" font-size="10.00">functional</text>
</g>
<!-- Node10&#45;&gt;Node14 -->
<g id="edge14" class="edge"><title>Node10&#45;&gt;Node14</title>
<path fill="none" stroke="midnightblue" d="M441.895,-235.475C456.464,-225.843 480.402,-210.017 497.745,-198.552"/>
<polygon fill="midnightblue" stroke="midnightblue" points="499.717,-201.444 506.129,-193.009 495.857,-195.604 499.717,-201.444"/>
</g>
<!-- Node15 -->
<g id="node15" class="node"><title>Node15</title>
<polygon fill="white" stroke="#bfbfbf" points="568.5,-168.5 568.5,-198.5 713.5,-198.5 713.5,-168.5 568.5,-168.5"/>
<text text-anchor="start" x="576.5" y="-186.5" font-family="Helvetica,sans-Serif" font-size="10.00">unsupported/Eigen/Aligned</text>
<text text-anchor="middle" x="641" y="-175.5" font-family="Helvetica,sans-Serif" font-size="10.00">Vector3</text>
</g>
<!-- Node10&#45;&gt;Node15 -->
<g id="edge15" class="edge"><title>Node10&#45;&gt;Node15</title>
<path fill="none" stroke="midnightblue" d="M459.374,-235.475C491.039,-226.588 541.489,-212.429 581.191,-201.286"/>
<polygon fill="midnightblue" stroke="midnightblue" points="582.354,-204.595 591.036,-198.523 580.462,-197.855 582.354,-204.595"/>
</g>
<!-- Node16 -->
<g id="node16" class="node"><title>Node16</title>
<g id="a_node16"><a xlink:href="Math_8hpp.html" target="_top" xlink:title="Core/Math/Math.hpp">
<polygon fill="white" stroke="black" points="732,-174 732,-193 846,-193 846,-174 732,-174"/>
<text text-anchor="middle" x="789" y="-181" font-family="Helvetica,sans-Serif" font-size="10.00">Core/Math/Math.hpp</text>
</a>
</g>
</g>
<!-- Node10&#45;&gt;Node16 -->
<g id="edge16" class="edge"><title>Node10&#45;&gt;Node16</title>
<path fill="none" stroke="midnightblue" d="M491.771,-235.485C551.227,-227.153 642.926,-213.615 722,-199 728.298,-197.836 734.908,-196.521 741.422,-195.169"/>
<polygon fill="midnightblue" stroke="midnightblue" points="742.46,-198.527 751.519,-193.032 741.011,-191.679 742.46,-198.527"/>
</g>
<!-- Node20 -->
<g id="node20" class="node"><title>Node20</title>
<g id="a_node20"><a xlink:href="LinearAlgebra_8inl.html" target="_top" xlink:title="Core/Math/LinearAlgebra.inl">
<polygon fill="white" stroke="black" points="864.5,-174 864.5,-193 1013.5,-193 1013.5,-174 864.5,-174"/>
<text text-anchor="middle" x="939" y="-181" font-family="Helvetica,sans-Serif" font-size="10.00">Core/Math/LinearAlgebra.inl</text>
</a>
</g>
</g>
<!-- Node10&#45;&gt;Node20 -->
<g id="edge22" class="edge"><title>Node10&#45;&gt;Node20</title>
<path fill="none" stroke="midnightblue" d="M507.312,-237.282C592.911,-229.577 734.01,-215.814 855,-199 864.042,-197.743 873.604,-196.25 882.91,-194.708"/>
<polygon fill="midnightblue" stroke="midnightblue" points="883.595,-198.142 892.871,-193.024 882.428,-191.24 883.595,-198.142"/>
</g>
<!-- Node16&#45;&gt;Node3 -->
<g id="edge17" class="edge"><title>Node16&#45;&gt;Node3</title>
<path fill="none" stroke="midnightblue" d="M753.694,-173.94C743.515,-171.723 732.361,-169.531 722,-168 541.118,-141.267 324.792,-129.539 222.369,-125.188"/>
<polygon fill="midnightblue" stroke="midnightblue" points="222.362,-121.684 212.225,-124.765 222.071,-128.678 222.362,-121.684"/>
</g>
<!-- Node17 -->
<g id="node17" class="node"><title>Node17</title>
<polygon fill="white" stroke="#bfbfbf" points="637,-112.5 637,-131.5 699,-131.5 699,-112.5 637,-112.5"/>
<text text-anchor="middle" x="668" y="-119.5" font-family="Helvetica,sans-Serif" font-size="10.00">algorithm</text>
</g>
<!-- Node16&#45;&gt;Node17 -->
<g id="edge18" class="edge"><title>Node16&#45;&gt;Node17</title>
<path fill="none" stroke="midnightblue" d="M771.664,-173.975C751.447,-164.034 717.813,-147.495 694.358,-135.961"/>
<polygon fill="midnightblue" stroke="midnightblue" points="695.822,-132.781 685.304,-131.509 692.733,-139.063 695.822,-132.781"/>
</g>
<!-- Node18 -->
<g id="node18" class="node"><title>Node18</title>
<polygon fill="white" stroke="#bfbfbf" points="717.5,-112.5 717.5,-131.5 764.5,-131.5 764.5,-112.5 717.5,-112.5"/>
<text text-anchor="middle" x="741" y="-119.5" font-family="Helvetica,sans-Serif" font-size="10.00">cmath</text>
</g>
<!-- Node16&#45;&gt;Node18 -->
<g id="edge19" class="edge"><title>Node16&#45;&gt;Node18</title>
<path fill="none" stroke="midnightblue" d="M782.123,-173.975C774.851,-164.962 763.205,-150.525 754.159,-139.312"/>
<polygon fill="midnightblue" stroke="midnightblue" points="756.867,-137.095 747.864,-131.509 751.419,-141.49 756.867,-137.095"/>
</g>
<!-- Node19 -->
<g id="node19" class="node"><title>Node19</title>
<g id="a_node19"><a xlink:href="Math_8inl.html" target="_top" xlink:title="Core/Math/Math.inl">
<polygon fill="white" stroke="black" points="782.5,-112.5 782.5,-131.5 889.5,-131.5 889.5,-112.5 782.5,-112.5"/>
<text text-anchor="middle" x="836" y="-119.5" font-family="Helvetica,sans-Serif" font-size="10.00">Core/Math/Math.inl</text>
</a>
</g>
</g>
<!-- Node16&#45;&gt;Node19 -->
<g id="edge20" class="edge"><title>Node16&#45;&gt;Node19</title>
<path fill="none" stroke="midnightblue" d="M790.833,-173.975C796.038,-164.873 807.209,-150.241 817.313,-138.983"/>
<polygon fill="midnightblue" stroke="midnightblue" points="820.053,-141.18 824.381,-131.509 814.967,-136.37 820.053,-141.18"/>
</g>
<!-- Node19&#45;&gt;Node16 -->
<g id="edge21" class="edge"><title>Node19&#45;&gt;Node16</title>
<path fill="none" stroke="midnightblue" d="M834.176,-131.509C828.978,-140.604 817.81,-155.236 807.704,-166.497"/>
<polygon fill="midnightblue" stroke="midnightblue" points="804.961,-164.304 800.635,-173.975 810.048,-169.113 804.961,-164.304"/>
</g>
</g>
</svg>
