<?xml version="1.0" encoding="UTF-8" standalone="no"?>
<!DOCTYPE svg PUBLIC "-//W3C//DTD SVG 1.1//EN"
 "http://www.w3.org/Graphics/SVG/1.1/DTD/svg11.dtd">
<!-- Generated by graphviz version 2.38.0 (20140413.2041)
 -->
<!-- Title: /home/travis/build/STORM&#45;IRIT/Radium&#45;Engine/src/Core/Mesh/TopologicalTriMesh/OpenMesh.h Pages: 1 -->
<svg width="984pt" height="328pt"
 viewBox="0.00 0.00 984.00 328.00" xmlns="http://www.w3.org/2000/svg" xmlns:xlink="http://www.w3.org/1999/xlink">
<g id="graph0" class="graph" transform="scale(1 1) rotate(0) translate(4 324)">
<title>/home/travis/build/STORM&#45;IRIT/Radium&#45;Engine/src/Core/Mesh/TopologicalTriMesh/OpenMesh.h</title>
<polygon fill="white" stroke="none" points="-4,4 -4,-324 980,-324 980,4 -4,4"/>
<!-- Node1 -->
<g id="node1" class="node"><title>Node1</title>
<polygon fill="#bfbfbf" stroke="black" points="406,-267.5 406,-319.5 584,-319.5 584,-267.5 406,-267.5"/>
<text text-anchor="start" x="414" y="-307.5" font-family="Helvetica,sans-Serif" font-size="10.00">/home/travis/build</text>
<text text-anchor="start" x="414" y="-296.5" font-family="Helvetica,sans-Serif" font-size="10.00">/STORM&#45;IRIT/Radium&#45;Engine</text>
<text text-anchor="start" x="414" y="-285.5" font-family="Helvetica,sans-Serif" font-size="10.00">/src/Core/Mesh/TopologicalTriMesh</text>
<text text-anchor="middle" x="495" y="-274.5" font-family="Helvetica,sans-Serif" font-size="10.00">/OpenMesh.h</text>
</g>
<!-- Node2 -->
<g id="node2" class="node"><title>Node2</title>
<g id="a_node2"><a xlink:href="TopologicalMesh_8hpp.html" target="_top" xlink:title="/home/travis/build\l/STORM&#45;IRIT/Radium&#45;Engine\l/src/Core/Mesh/TopologicalTriMesh\l/TopologicalMesh.hpp">
<polygon fill="white" stroke="black" points="406,-178.5 406,-230.5 584,-230.5 584,-178.5 406,-178.5"/>
<text text-anchor="start" x="414" y="-218.5" font-family="Helvetica,sans-Serif" font-size="10.00">/home/travis/build</text>
<text text-anchor="start" x="414" y="-207.5" font-family="Helvetica,sans-Serif" font-size="10.00">/STORM&#45;IRIT/Radium&#45;Engine</text>
<text text-anchor="start" x="414" y="-196.5" font-family="Helvetica,sans-Serif" font-size="10.00">/src/Core/Mesh/TopologicalTriMesh</text>
<text text-anchor="middle" x="495" y="-185.5" font-family="Helvetica,sans-Serif" font-size="10.00">/TopologicalMesh.hpp</text>
</a>
</g>
</g>
<!-- Node1&#45;&gt;Node2 -->
<g id="edge1" class="edge"><title>Node1&#45;&gt;Node2</title>
<path fill="none" stroke="midnightblue" d="M495,-257.191C495,-248.282 495,-238.899 495,-230.607"/>
<polygon fill="midnightblue" stroke="midnightblue" points="491.5,-257.336 495,-267.336 498.5,-257.336 491.5,-257.336"/>
</g>
<!-- Node3 -->
<g id="node3" class="node"><title>Node3</title>
<g id="a_node3"><a xlink:href="CatmullClarkSubdivider_8hpp.html" target="_top" xlink:title="/home/travis/build\l/STORM&#45;IRIT/Radium&#45;Engine\l/src/Core/Algorithm/Subdivision\l/CatmullClarkSubdivider.hpp">
<polygon fill="white" stroke="black" points="0,-89.5 0,-141.5 166,-141.5 166,-89.5 0,-89.5"/>
<text text-anchor="start" x="8" y="-129.5" font-family="Helvetica,sans-Serif" font-size="10.00">/home/travis/build</text>
<text text-anchor="start" x="8" y="-118.5" font-family="Helvetica,sans-Serif" font-size="10.00">/STORM&#45;IRIT/Radium&#45;Engine</text>
<text text-anchor="start" x="8" y="-107.5" font-family="Helvetica,sans-Serif" font-size="10.00">/src/Core/Algorithm/Subdivision</text>
<text text-anchor="middle" x="83" y="-96.5" font-family="Helvetica,sans-Serif" font-size="10.00">/CatmullClarkSubdivider.hpp</text>
</a>
</g>
</g>
<!-- Node2&#45;&gt;Node3 -->
<g id="edge2" class="edge"><title>Node2&#45;&gt;Node3</title>
<path fill="none" stroke="midnightblue" d="M395.964,-186.591C332.525,-175.236 248.589,-159.241 175,-142 172.095,-141.319 169.144,-140.609 166.168,-139.875"/>
<polygon fill="midnightblue" stroke="midnightblue" points="395.506,-190.064 405.965,-188.373 396.734,-183.173 395.506,-190.064"/>
</g>
<!-- Node5 -->
<g id="node5" class="node"><title>Node5</title>
<g id="a_node5"><a xlink:href="LoopSubdivider_8hpp.html" target="_top" xlink:title="/home/travis/build\l/STORM&#45;IRIT/Radium&#45;Engine\l/src/Core/Algorithm/Subdivision\l/LoopSubdivider.hpp">
<polygon fill="white" stroke="black" points="184,-89.5 184,-141.5 350,-141.5 350,-89.5 184,-89.5"/>
<text text-anchor="start" x="192" y="-129.5" font-family="Helvetica,sans-Serif" font-size="10.00">/home/travis/build</text>
<text text-anchor="start" x="192" y="-118.5" font-family="Helvetica,sans-Serif" font-size="10.00">/STORM&#45;IRIT/Radium&#45;Engine</text>
<text text-anchor="start" x="192" y="-107.5" font-family="Helvetica,sans-Serif" font-size="10.00">/src/Core/Algorithm/Subdivision</text>
<text text-anchor="middle" x="267" y="-96.5" font-family="Helvetica,sans-Serif" font-size="10.00">/LoopSubdivider.hpp</text>
</a>
</g>
</g>
<!-- Node2&#45;&gt;Node5 -->
<g id="edge4" class="edge"><title>Node2&#45;&gt;Node5</title>
<path fill="none" stroke="midnightblue" d="M419.937,-174.858C391.712,-164.087 359.868,-151.936 332.573,-141.521"/>
<polygon fill="midnightblue" stroke="midnightblue" points="418.768,-178.158 429.359,-178.453 421.264,-171.618 418.768,-178.158"/>
</g>
<!-- Node7 -->
<g id="node7" class="node"><title>Node7</title>
<g id="a_node7"><a xlink:href="RotationCenterSkinning_8cpp.html" target="_top" xlink:title="/home/travis/build\l/STORM&#45;IRIT/Radium&#45;Engine\l/src/Core/Animation/Skinning\l/RotationCenterSkinning.cpp">
<polygon fill="white" stroke="black" points="368.5,-0.5 368.5,-52.5 523.5,-52.5 523.5,-0.5 368.5,-0.5"/>
<text text-anchor="start" x="376.5" y="-40.5" font-family="Helvetica,sans-Serif" font-size="10.00">/home/travis/build</text>
<text text-anchor="start" x="376.5" y="-29.5" font-family="Helvetica,sans-Serif" font-size="10.00">/STORM&#45;IRIT/Radium&#45;Engine</text>
<text text-anchor="start" x="376.5" y="-18.5" font-family="Helvetica,sans-Serif" font-size="10.00">/src/Core/Animation/Skinning</text>
<text text-anchor="middle" x="446" y="-7.5" font-family="Helvetica,sans-Serif" font-size="10.00">/RotationCenterSkinning.cpp</text>
</a>
</g>
</g>
<!-- Node2&#45;&gt;Node7 -->
<g id="edge6" class="edge"><title>Node2&#45;&gt;Node7</title>
<path fill="none" stroke="midnightblue" d="M425.755,-172.769C414.218,-164.48 403.806,-154.306 397,-142 385.6,-121.387 389.225,-111.235 397,-89 401.686,-75.5979 410.652,-62.9352 419.646,-52.6228"/>
<polygon fill="midnightblue" stroke="midnightblue" points="424.057,-175.843 434.32,-178.475 427.938,-170.017 424.057,-175.843"/>
</g>
<!-- Node8 -->
<g id="node8" class="node"><title>Node8</title>
<g id="a_node8"><a xlink:href="EdgeSplit_8hpp.html" target="_top" xlink:title="/home/travis/build\l/STORM&#45;IRIT/Radium&#45;Engine\l/src/Core/Mesh/TopologicalTriMesh\l/Operations/EdgeSplit.hpp">
<polygon fill="white" stroke="black" points="406,-89.5 406,-141.5 584,-141.5 584,-89.5 406,-89.5"/>
<text text-anchor="start" x="414" y="-129.5" font-family="Helvetica,sans-Serif" font-size="10.00">/home/travis/build</text>
<text text-anchor="start" x="414" y="-118.5" font-family="Helvetica,sans-Serif" font-size="10.00">/STORM&#45;IRIT/Radium&#45;Engine</text>
<text text-anchor="start" x="414" y="-107.5" font-family="Helvetica,sans-Serif" font-size="10.00">/src/Core/Mesh/TopologicalTriMesh</text>
<text text-anchor="middle" x="495" y="-96.5" font-family="Helvetica,sans-Serif" font-size="10.00">/Operations/EdgeSplit.hpp</text>
</a>
</g>
</g>
<!-- Node2&#45;&gt;Node8 -->
<g id="edge7" class="edge"><title>Node2&#45;&gt;Node8</title>
<path fill="none" stroke="midnightblue" d="M495,-168.191C495,-159.282 495,-149.899 495,-141.607"/>
<polygon fill="midnightblue" stroke="midnightblue" points="491.5,-168.336 495,-178.336 498.5,-168.336 491.5,-168.336"/>
</g>
<!-- Node10 -->
<g id="node10" class="node"><title>Node10</title>
<g id="a_node10"><a xlink:href="TopologicalMesh_8cpp.html" target="_top" xlink:title="/home/travis/build\l/STORM&#45;IRIT/Radium&#45;Engine\l/src/Core/Mesh/TopologicalTriMesh\l/TopologicalMesh.cpp">
<polygon fill="white" stroke="black" points="602,-89.5 602,-141.5 780,-141.5 780,-89.5 602,-89.5"/>
<text text-anchor="start" x="610" y="-129.5" font-family="Helvetica,sans-Serif" font-size="10.00">/home/travis/build</text>
<text text-anchor="start" x="610" y="-118.5" font-family="Helvetica,sans-Serif" font-size="10.00">/STORM&#45;IRIT/Radium&#45;Engine</text>
<text text-anchor="start" x="610" y="-107.5" font-family="Helvetica,sans-Serif" font-size="10.00">/src/Core/Mesh/TopologicalTriMesh</text>
<text text-anchor="middle" x="691" y="-96.5" font-family="Helvetica,sans-Serif" font-size="10.00">/TopologicalMesh.cpp</text>
</a>
</g>
</g>
<!-- Node2&#45;&gt;Node10 -->
<g id="edge10" class="edge"><title>Node2&#45;&gt;Node10</title>
<path fill="none" stroke="midnightblue" d="M560.796,-174.295C584.742,-163.665 611.575,-151.755 634.631,-141.521"/>
<polygon fill="midnightblue" stroke="midnightblue" points="559.148,-171.197 551.428,-178.453 561.988,-177.595 559.148,-171.197"/>
</g>
<!-- Node11 -->
<g id="node11" class="node"><title>Node11</title>
<g id="a_node11"><a xlink:href="TopologicalMesh_8inl.html" target="_top" xlink:title="/home/travis/build\l/STORM&#45;IRIT/Radium&#45;Engine\l/src/Core/Mesh/TopologicalTriMesh\l/TopologicalMesh.inl">
<polygon fill="white" stroke="black" points="798,-89.5 798,-141.5 976,-141.5 976,-89.5 798,-89.5"/>
<text text-anchor="start" x="806" y="-129.5" font-family="Helvetica,sans-Serif" font-size="10.00">/home/travis/build</text>
<text text-anchor="start" x="806" y="-118.5" font-family="Helvetica,sans-Serif" font-size="10.00">/STORM&#45;IRIT/Radium&#45;Engine</text>
<text text-anchor="start" x="806" y="-107.5" font-family="Helvetica,sans-Serif" font-size="10.00">/src/Core/Mesh/TopologicalTriMesh</text>
<text text-anchor="middle" x="887" y="-96.5" font-family="Helvetica,sans-Serif" font-size="10.00">/TopologicalMesh.inl</text>
</a>
</g>
</g>
<!-- Node2&#45;&gt;Node11 -->
<g id="edge11" class="edge"><title>Node2&#45;&gt;Node11</title>
<path fill="none" stroke="midnightblue" d="M594.148,-182.374C649.026,-171.042 718.346,-156.461 780,-142 785.819,-140.635 791.822,-139.183 797.877,-137.691"/>
<polygon fill="midnightblue" stroke="midnightblue" points="593.162,-179.004 584.075,-184.452 594.576,-185.86 593.162,-179.004"/>
</g>
<!-- Node4 -->
<g id="node4" class="node"><title>Node4</title>
<g id="a_node4"><a xlink:href="CatmullClarkSubdivider_8cpp.html" target="_top" xlink:title="/home/travis/build\l/STORM&#45;IRIT/Radium&#45;Engine\l/src/Core/Algorithm/Subdivision\l/CatmullClarkSubdivider.cpp">
<polygon fill="white" stroke="black" points="0,-0.5 0,-52.5 166,-52.5 166,-0.5 0,-0.5"/>
<text text-anchor="start" x="8" y="-40.5" font-family="Helvetica,sans-Serif" font-size="10.00">/home/travis/build</text>
<text text-anchor="start" x="8" y="-29.5" font-family="Helvetica,sans-Serif" font-size="10.00">/STORM&#45;IRIT/Radium&#45;Engine</text>
<text text-anchor="start" x="8" y="-18.5" font-family="Helvetica,sans-Serif" font-size="10.00">/src/Core/Algorithm/Subdivision</text>
<text text-anchor="middle" x="83" y="-7.5" font-family="Helvetica,sans-Serif" font-size="10.00">/CatmullClarkSubdivider.cpp</text>
</a>
</g>
</g>
<!-- Node3&#45;&gt;Node4 -->
<g id="edge3" class="edge"><title>Node3&#45;&gt;Node4</title>
<path fill="none" stroke="midnightblue" d="M83,-79.1908C83,-70.2824 83,-60.8986 83,-52.6075"/>
<polygon fill="midnightblue" stroke="midnightblue" points="79.5001,-79.336 83,-89.336 86.5001,-79.336 79.5001,-79.336"/>
</g>
<!-- Node6 -->
<g id="node6" class="node"><title>Node6</title>
<g id="a_node6"><a xlink:href="LoopSubdivider_8cpp.html" target="_top" xlink:title="/home/travis/build\l/STORM&#45;IRIT/Radium&#45;Engine\l/src/Core/Algorithm/Subdivision\l/LoopSubdivider.cpp">
<polygon fill="white" stroke="black" points="184,-0.5 184,-52.5 350,-52.5 350,-0.5 184,-0.5"/>
<text text-anchor="start" x="192" y="-40.5" font-family="Helvetica,sans-Serif" font-size="10.00">/home/travis/build</text>
<text text-anchor="start" x="192" y="-29.5" font-family="Helvetica,sans-Serif" font-size="10.00">/STORM&#45;IRIT/Radium&#45;Engine</text>
<text text-anchor="start" x="192" y="-18.5" font-family="Helvetica,sans-Serif" font-size="10.00">/src/Core/Algorithm/Subdivision</text>
<text text-anchor="middle" x="267" y="-7.5" font-family="Helvetica,sans-Serif" font-size="10.00">/LoopSubdivider.cpp</text>
</a>
</g>
</g>
<!-- Node5&#45;&gt;Node6 -->
<g id="edge5" class="edge"><title>Node5&#45;&gt;Node6</title>
<path fill="none" stroke="midnightblue" d="M267,-79.1908C267,-70.2824 267,-60.8986 267,-52.6075"/>
<polygon fill="midnightblue" stroke="midnightblue" points="263.5,-79.336 267,-89.336 270.5,-79.336 263.5,-79.336"/>
</g>
<!-- Node8&#45;&gt;Node7 -->
<g id="edge8" class="edge"><title>Node8&#45;&gt;Node7</title>
<path fill="none" stroke="midnightblue" d="M475.766,-80.3499C470.557,-71.1005 465.014,-61.2591 460.141,-52.6075"/>
<polygon fill="midnightblue" stroke="midnightblue" points="472.87,-82.3405 480.827,-89.336 478.969,-78.9053 472.87,-82.3405"/>
</g>
<!-- Node9 -->
<g id="node9" class="node"><title>Node9</title>
<g id="a_node9"><a xlink:href="EdgeSplit_8cpp.html" target="_top" xlink:title="/home/travis/build\l/STORM&#45;IRIT/Radium&#45;Engine\l/src/Core/Mesh/TopologicalTriMesh\l/Operations/EdgeSplit.cpp">
<polygon fill="white" stroke="black" points="542,-0.5 542,-52.5 720,-52.5 720,-0.5 542,-0.5"/>
<text text-anchor="start" x="550" y="-40.5" font-family="Helvetica,sans-Serif" font-size="10.00">/home/travis/build</text>
<text text-anchor="start" x="550" y="-29.5" font-family="Helvetica,sans-Serif" font-size="10.00">/STORM&#45;IRIT/Radium&#45;Engine</text>
<text text-anchor="start" x="550" y="-18.5" font-family="Helvetica,sans-Serif" font-size="10.00">/src/Core/Mesh/TopologicalTriMesh</text>
<text text-anchor="middle" x="631" y="-7.5" font-family="Helvetica,sans-Serif" font-size="10.00">/Operations/EdgeSplit.cpp</text>
</a>
</g>
</g>
<!-- Node8&#45;&gt;Node9 -->
<g id="edge9" class="edge"><title>Node8&#45;&gt;Node9</title>
<path fill="none" stroke="midnightblue" d="M543.011,-83.7872C558.968,-73.5794 576.537,-62.3405 591.752,-52.6075"/>
<polygon fill="midnightblue" stroke="midnightblue" points="540.875,-80.9988 534.337,-89.336 544.647,-86.8955 540.875,-80.9988"/>
</g>
<!-- Node11&#45;&gt;Node2 -->
<g id="edge12" class="edge"><title>Node11&#45;&gt;Node2</title>
<path fill="none" stroke="midnightblue" d="M790.106,-143.836C719.241,-160.27 642.066,-176.213 584.165,-187.52"/>
<polygon fill="midnightblue" stroke="midnightblue" points="791.118,-147.195 800.061,-141.515 789.528,-140.378 791.118,-147.195"/>
</g>
</g>
</svg>
