<?xml version="1.0" encoding="UTF-8" standalone="no"?>
<!DOCTYPE svg PUBLIC "-//W3C//DTD SVG 1.1//EN"
 "http://www.w3.org/Graphics/SVG/1.1/DTD/svg11.dtd">
<!-- Generated by graphviz version 2.38.0 (20140413.2041)
 -->
<!-- Title: /home/travis/build/STORM&#45;IRIT/Radium&#45;Engine/src/Core/Geometry/Partition/Partition.hpp Pages: 1 -->
<svg width="2171pt" height="542pt"
 viewBox="0.00 0.00 2170.50 542.00" xmlns="http://www.w3.org/2000/svg" xmlns:xlink="http://www.w3.org/1999/xlink">
<g id="graph0" class="graph" transform="scale(1 1) rotate(0) translate(4 538)">
<title>/home/travis/build/STORM&#45;IRIT/Radium&#45;Engine/src/Core/Geometry/Partition/Partition.hpp</title>
<polygon fill="white" stroke="none" points="-4,4 -4,-538 2166.5,-538 2166.5,4 -4,4"/>
<!-- Node1 -->
<g id="node1" class="node"><title>Node1</title>
<polygon fill="#bfbfbf" stroke="black" points="749.5,-481.5 749.5,-533.5 901.5,-533.5 901.5,-481.5 749.5,-481.5"/>
<text text-anchor="start" x="757.5" y="-521.5" font-family="Helvetica,sans-Serif" font-size="10.00">/home/travis/build</text>
<text text-anchor="start" x="757.5" y="-510.5" font-family="Helvetica,sans-Serif" font-size="10.00">/STORM&#45;IRIT/Radium&#45;Engine</text>
<text text-anchor="start" x="757.5" y="-499.5" font-family="Helvetica,sans-Serif" font-size="10.00">/src/Core/Geometry/Partition</text>
<text text-anchor="middle" x="825.5" y="-488.5" font-family="Helvetica,sans-Serif" font-size="10.00">/Partition.hpp</text>
</g>
<!-- Node2 -->
<g id="node2" class="node"><title>Node2</title>
<polygon fill="white" stroke="#bfbfbf" points="689.5,-425.5 689.5,-444.5 721.5,-444.5 721.5,-425.5 689.5,-425.5"/>
<text text-anchor="middle" x="705.5" y="-432.5" font-family="Helvetica,sans-Serif" font-size="10.00">set</text>
</g>
<!-- Node1&#45;&gt;Node2 -->
<g id="edge1" class="edge"><title>Node1&#45;&gt;Node2</title>
<path fill="none" stroke="midnightblue" d="M782.855,-481.446C764.668,-470.761 744.154,-458.709 728.823,-449.702"/>
<polygon fill="midnightblue" stroke="midnightblue" points="730.409,-446.575 720.014,-444.527 726.863,-452.61 730.409,-446.575"/>
</g>
<!-- Node3 -->
<g id="node3" class="node"><title>Node3</title>
<g id="a_node3"><a xlink:href="HandleWeight_8hpp.html" target="_top" xlink:title="Core/Animation/Handle\l/HandleWeight.hpp">
<polygon fill="white" stroke="black" points="626.5,-302.5 626.5,-332.5 754.5,-332.5 754.5,-302.5 626.5,-302.5"/>
<text text-anchor="start" x="634.5" y="-320.5" font-family="Helvetica,sans-Serif" font-size="10.00">Core/Animation/Handle</text>
<text text-anchor="middle" x="690.5" y="-309.5" font-family="Helvetica,sans-Serif" font-size="10.00">/HandleWeight.hpp</text>
</a>
</g>
</g>
<!-- Node1&#45;&gt;Node3 -->
<g id="edge2" class="edge"><title>Node1&#45;&gt;Node3</title>
<path fill="none" stroke="midnightblue" d="M803.03,-481.333C793.596,-470.413 782.701,-457.325 773.5,-445 747.33,-409.944 720.081,-366.961 704.234,-341.202"/>
<polygon fill="midnightblue" stroke="midnightblue" points="707.138,-339.242 698.935,-332.537 701.167,-342.894 707.138,-339.242"/>
</g>
<!-- Node4 -->
<g id="node4" class="node"><title>Node4</title>
<g id="a_node4"><a xlink:href="AlignedStdVector_8hpp.html" target="_top" xlink:title="Core/Containers/AlignedStd\lVector.hpp">
<polygon fill="white" stroke="black" points="608,-235.5 608,-265.5 757,-265.5 757,-235.5 608,-235.5"/>
<text text-anchor="start" x="616" y="-253.5" font-family="Helvetica,sans-Serif" font-size="10.00">Core/Containers/AlignedStd</text>
<text text-anchor="middle" x="682.5" y="-242.5" font-family="Helvetica,sans-Serif" font-size="10.00">Vector.hpp</text>
</a>
</g>
</g>
<!-- Node1&#45;&gt;Node4 -->
<g id="edge28" class="edge"><title>Node1&#45;&gt;Node4</title>
<path fill="none" stroke="midnightblue" d="M823.543,-481.277C819.182,-439.908 805.471,-356.773 763.5,-302 753.495,-288.944 739.072,-278.42 725.16,-270.428"/>
<polygon fill="midnightblue" stroke="midnightblue" points="726.603,-267.229 716.144,-265.541 723.267,-273.383 726.603,-267.229"/>
</g>
<!-- Node14 -->
<g id="node14" class="node"><title>Node14</title>
<g id="a_node14"><a xlink:href="LinearAlgebra_8hpp.html" target="_top" xlink:title="Core/Math/LinearAlgebra.hpp">
<polygon fill="white" stroke="black" points="775.5,-241 775.5,-260 931.5,-260 931.5,-241 775.5,-241"/>
<text text-anchor="middle" x="853.5" y="-248" font-family="Helvetica,sans-Serif" font-size="10.00">Core/Math/LinearAlgebra.hpp</text>
</a>
</g>
</g>
<!-- Node1&#45;&gt;Node14 -->
<g id="edge34" class="edge"><title>Node1&#45;&gt;Node14</title>
<path fill="none" stroke="midnightblue" d="M828.287,-481.117C833.912,-429.895 846.504,-315.215 851.45,-270.172"/>
<polygon fill="midnightblue" stroke="midnightblue" points="854.945,-270.402 852.558,-260.08 847.987,-269.638 854.945,-270.402"/>
</g>
<!-- Node26 -->
<g id="node26" class="node"><title>Node26</title>
<g id="a_node26"><a xlink:href="VectorArray_8hpp.html" target="_top" xlink:title="Core/Containers/VectorArray.hpp">
<polygon fill="white" stroke="black" points="930,-308 930,-327 1103,-327 1103,-308 930,-308"/>
<text text-anchor="middle" x="1016.5" y="-315" font-family="Helvetica,sans-Serif" font-size="10.00">Core/Containers/VectorArray.hpp</text>
</a>
</g>
</g>
<!-- Node1&#45;&gt;Node26 -->
<g id="edge29" class="edge"><title>Node1&#45;&gt;Node26</title>
<path fill="none" stroke="midnightblue" d="M846.183,-481.488C870.237,-452.997 911.744,-405.65 951.5,-369 965.5,-356.094 982.537,-342.941 995.655,-333.295"/>
<polygon fill="midnightblue" stroke="midnightblue" points="997.986,-335.929 1004.03,-327.224 993.876,-330.262 997.986,-335.929"/>
</g>
<!-- Node27 -->
<g id="node27" class="node"><title>Node27</title>
<g id="a_node27"><a xlink:href="MeshTypes_8hpp.html" target="_top" xlink:title="Core/Mesh/MeshTypes.hpp">
<polygon fill="white" stroke="black" points="1170,-308 1170,-327 1313,-327 1313,-308 1170,-308"/>
<text text-anchor="middle" x="1241.5" y="-315" font-family="Helvetica,sans-Serif" font-size="10.00">Core/Mesh/MeshTypes.hpp</text>
</a>
</g>
</g>
<!-- Node1&#45;&gt;Node27 -->
<g id="edge35" class="edge"><title>Node1&#45;&gt;Node27</title>
<path fill="none" stroke="midnightblue" d="M901.658,-503.064C965.114,-497.449 1056.16,-482.834 1126.5,-445 1175.14,-418.841 1213.82,-363.884 1231.33,-335.808"/>
<polygon fill="midnightblue" stroke="midnightblue" points="1234.43,-337.455 1236.62,-327.09 1228.44,-333.823 1234.43,-337.455"/>
</g>
<!-- Node31 -->
<g id="node31" class="node"><title>Node31</title>
<g id="a_node31"><a xlink:href="TriangleMesh_8hpp.html" target="_top" xlink:title="Core/Mesh/TriangleMesh.hpp">
<polygon fill="white" stroke="black" points="964,-425.5 964,-444.5 1117,-444.5 1117,-425.5 964,-425.5"/>
<text text-anchor="middle" x="1040.5" y="-432.5" font-family="Helvetica,sans-Serif" font-size="10.00">Core/Mesh/TriangleMesh.hpp</text>
</a>
</g>
</g>
<!-- Node1&#45;&gt;Node31 -->
<g id="edge41" class="edge"><title>Node1&#45;&gt;Node31</title>
<path fill="none" stroke="midnightblue" d="M901.604,-481.545C936.677,-470.044 976.637,-456.941 1004.66,-447.751"/>
<polygon fill="midnightblue" stroke="midnightblue" points="1006.01,-450.994 1014.42,-444.552 1003.83,-444.343 1006.01,-450.994"/>
</g>
<!-- Node3&#45;&gt;Node4 -->
<g id="edge3" class="edge"><title>Node3&#45;&gt;Node4</title>
<path fill="none" stroke="midnightblue" d="M688.764,-302.396C687.8,-294.56 686.573,-284.596 685.462,-275.565"/>
<polygon fill="midnightblue" stroke="midnightblue" points="688.928,-275.074 684.232,-265.577 681.98,-275.929 688.928,-275.074"/>
</g>
<!-- Node3&#45;&gt;Node14 -->
<g id="edge13" class="edge"><title>Node3&#45;&gt;Node14</title>
<path fill="none" stroke="midnightblue" d="M725.869,-302.396C754.722,-290.89 795.077,-274.797 822.637,-263.807"/>
<polygon fill="midnightblue" stroke="midnightblue" points="824.175,-266.962 832.167,-260.007 821.582,-260.46 824.175,-266.962"/>
</g>
<!-- Node25 -->
<g id="node25" class="node"><title>Node25</title>
<polygon fill="white" stroke="#bfbfbf" points="552.5,-241 552.5,-260 590.5,-260 590.5,-241 552.5,-241"/>
<text text-anchor="middle" x="571.5" y="-248" font-family="Helvetica,sans-Serif" font-size="10.00">map</text>
</g>
<!-- Node3&#45;&gt;Node25 -->
<g id="edge27" class="edge"><title>Node3&#45;&gt;Node25</title>
<path fill="none" stroke="midnightblue" d="M664.679,-302.396C644.261,-291.243 615.953,-275.781 595.911,-264.834"/>
<polygon fill="midnightblue" stroke="midnightblue" points="597.528,-261.729 587.074,-260.007 594.173,-267.872 597.528,-261.729"/>
</g>
<!-- Node5 -->
<g id="node5" class="node"><title>Node5</title>
<g id="a_node5"><a xlink:href="RaCore_8hpp.html" target="_top" xlink:title="Core/RaCore.hpp">
<polygon fill="white" stroke="black" points="1130.5,-112.5 1130.5,-131.5 1228.5,-131.5 1228.5,-112.5 1130.5,-112.5"/>
<text text-anchor="middle" x="1179.5" y="-119.5" font-family="Helvetica,sans-Serif" font-size="10.00">Core/RaCore.hpp</text>
</a>
</g>
</g>
<!-- Node4&#45;&gt;Node5 -->
<g id="edge4" class="edge"><title>Node4&#45;&gt;Node5</title>
<path fill="none" stroke="midnightblue" d="M607.879,-236.234C605.052,-235.805 602.252,-235.391 599.5,-235 452.626,-214.107 170.231,-275.469 272.5,-168 301.746,-137.267 923.173,-126.401 1120.16,-123.721"/>
<polygon fill="midnightblue" stroke="midnightblue" points="1120.37,-127.219 1130.32,-123.585 1120.27,-120.219 1120.37,-127.219"/>
</g>
<!-- Node12 -->
<g id="node12" class="node"><title>Node12</title>
<polygon fill="white" stroke="#bfbfbf" points="0,-174 0,-193 93,-193 93,-174 0,-174"/>
<text text-anchor="middle" x="46.5" y="-181" font-family="Helvetica,sans-Serif" font-size="10.00">Eigen/StdVector</text>
</g>
<!-- Node4&#45;&gt;Node12 -->
<g id="edge11" class="edge"><title>Node4&#45;&gt;Node12</title>
<path fill="none" stroke="midnightblue" d="M607.896,-236.102C605.065,-235.709 602.258,-235.34 599.5,-235 379.696,-207.909 321.038,-234.904 102.5,-199 96.9256,-198.084 91.0973,-196.871 85.3957,-195.535"/>
<polygon fill="midnightblue" stroke="midnightblue" points="85.9012,-192.054 75.3519,-193.035 84.2107,-198.847 85.9012,-192.054"/>
</g>
<!-- Node13 -->
<g id="node13" class="node"><title>Node13</title>
<polygon fill="white" stroke="#bfbfbf" points="1028,-174 1028,-193 1075,-193 1075,-174 1028,-174"/>
<text text-anchor="middle" x="1051.5" y="-181" font-family="Helvetica,sans-Serif" font-size="10.00">vector</text>
</g>
<!-- Node4&#45;&gt;Node13 -->
<g id="edge12" class="edge"><title>Node4&#45;&gt;Node13</title>
<path fill="none" stroke="midnightblue" d="M757.153,-236.6C760.311,-236.058 763.437,-235.523 766.5,-235 861.138,-218.834 885.095,-216.479 979.5,-199 992.009,-196.684 1005.7,-193.971 1017.76,-191.522"/>
<polygon fill="midnightblue" stroke="midnightblue" points="1018.77,-194.888 1027.86,-189.454 1017.36,-188.03 1018.77,-194.888"/>
</g>
<!-- Node6 -->
<g id="node6" class="node"><title>Node6</title>
<g id="a_node6"><a xlink:href="CoreMacros_8hpp.html" target="_top" xlink:title="Core/CoreMacros.hpp">
<polygon fill="white" stroke="black" points="1348.5,-56.5 1348.5,-75.5 1468.5,-75.5 1468.5,-56.5 1348.5,-56.5"/>
<text text-anchor="middle" x="1408.5" y="-63.5" font-family="Helvetica,sans-Serif" font-size="10.00">Core/CoreMacros.hpp</text>
</a>
</g>
</g>
<!-- Node5&#45;&gt;Node6 -->
<g id="edge5" class="edge"><title>Node5&#45;&gt;Node6</title>
<path fill="none" stroke="midnightblue" d="M1215.79,-112.444C1255.48,-103.083 1319.21,-88.0561 1362.41,-77.868"/>
<polygon fill="midnightblue" stroke="midnightblue" points="1363.45,-81.2182 1372.38,-75.5164 1361.85,-74.4051 1363.45,-81.2182"/>
</g>
<!-- Node7 -->
<g id="node7" class="node"><title>Node7</title>
<polygon fill="white" stroke="#bfbfbf" points="1416.5,-0.5 1416.5,-19.5 1468.5,-19.5 1468.5,-0.5 1416.5,-0.5"/>
<text text-anchor="middle" x="1442.5" y="-7.5" font-family="Helvetica,sans-Serif" font-size="10.00">cassert</text>
</g>
<!-- Node6&#45;&gt;Node7 -->
<g id="edge6" class="edge"><title>Node6&#45;&gt;Node7</title>
<path fill="none" stroke="midnightblue" d="M1414.11,-56.083C1418.87,-48.5341 1425.82,-37.4948 1431.65,-28.2298"/>
<polygon fill="midnightblue" stroke="midnightblue" points="1434.62,-30.0783 1436.99,-19.7511 1428.7,-26.3486 1434.62,-30.0783"/>
</g>
<!-- Node8 -->
<g id="node8" class="node"><title>Node8</title>
<polygon fill="white" stroke="#bfbfbf" points="1487,-0.5 1487,-19.5 1532,-19.5 1532,-0.5 1487,-0.5"/>
<text text-anchor="middle" x="1509.5" y="-7.5" font-family="Helvetica,sans-Serif" font-size="10.00">cstdio</text>
</g>
<!-- Node6&#45;&gt;Node8 -->
<g id="edge7" class="edge"><title>Node6&#45;&gt;Node8</title>
<path fill="none" stroke="midnightblue" d="M1424.73,-56.324C1440.85,-47.7034 1465.8,-34.3643 1484.46,-24.3855"/>
<polygon fill="midnightblue" stroke="midnightblue" points="1486.14,-27.456 1493.31,-19.6545 1482.84,-21.283 1486.14,-27.456"/>
</g>
<!-- Node9 -->
<g id="node9" class="node"><title>Node9</title>
<polygon fill="white" stroke="#bfbfbf" points="1273,-0.5 1273,-19.5 1332,-19.5 1332,-0.5 1273,-0.5"/>
<text text-anchor="middle" x="1302.5" y="-7.5" font-family="Helvetica,sans-Serif" font-size="10.00">iostream</text>
</g>
<!-- Node6&#45;&gt;Node9 -->
<g id="edge8" class="edge"><title>Node6&#45;&gt;Node9</title>
<path fill="none" stroke="midnightblue" d="M1391.47,-56.324C1374.47,-47.6641 1348.12,-34.2424 1328.51,-24.249"/>
<polygon fill="midnightblue" stroke="midnightblue" points="1329.99,-21.0752 1319.49,-19.6545 1326.81,-27.3125 1329.99,-21.0752"/>
</g>
<!-- Node10 -->
<g id="node10" class="node"><title>Node10</title>
<polygon fill="white" stroke="#bfbfbf" points="1745.5,-0.5 1745.5,-19.5 1801.5,-19.5 1801.5,-0.5 1745.5,-0.5"/>
<text text-anchor="middle" x="1773.5" y="-7.5" font-family="Helvetica,sans-Serif" font-size="10.00">sstream</text>
</g>
<!-- Node6&#45;&gt;Node10 -->
<g id="edge9" class="edge"><title>Node6&#45;&gt;Node10</title>
<path fill="none" stroke="midnightblue" d="M1466.34,-56.4435C1541.55,-45.316 1670.88,-26.1825 1735.06,-16.6874"/>
<polygon fill="midnightblue" stroke="midnightblue" points="1735.77,-20.1202 1745.15,-15.1943 1734.75,-13.1956 1735.77,-20.1202"/>
</g>
<!-- Node11 -->
<g id="node11" class="node"><title>Node11</title>
<polygon fill="white" stroke="#bfbfbf" points="1350.5,-0.5 1350.5,-19.5 1398.5,-19.5 1398.5,-0.5 1350.5,-0.5"/>
<text text-anchor="middle" x="1374.5" y="-7.5" font-family="Helvetica,sans-Serif" font-size="10.00">thread</text>
</g>
<!-- Node6&#45;&gt;Node11 -->
<g id="edge10" class="edge"><title>Node6&#45;&gt;Node11</title>
<path fill="none" stroke="midnightblue" d="M1402.89,-56.083C1398.13,-48.5341 1391.18,-37.4948 1385.35,-28.2298"/>
<polygon fill="midnightblue" stroke="midnightblue" points="1388.3,-26.3486 1380.01,-19.7511 1382.38,-30.0783 1388.3,-26.3486"/>
</g>
<!-- Node14&#45;&gt;Node5 -->
<g id="edge14" class="edge"><title>Node14&#45;&gt;Node5</title>
<path fill="none" stroke="midnightblue" d="M881.355,-240.942C907.623,-232.277 947.611,-217.53 979.5,-199 998.645,-187.875 998.78,-178.069 1018.5,-168 1050.45,-151.685 1089.09,-140.633 1120.5,-133.566"/>
<polygon fill="midnightblue" stroke="midnightblue" points="1121.4,-136.953 1130.43,-131.41 1119.92,-130.112 1121.4,-136.953"/>
</g>
<!-- Node15 -->
<g id="node15" class="node"><title>Node15</title>
<polygon fill="white" stroke="#bfbfbf" points="611.5,-174 611.5,-193 679.5,-193 679.5,-174 611.5,-174"/>
<text text-anchor="middle" x="645.5" y="-181" font-family="Helvetica,sans-Serif" font-size="10.00">Eigen/Core</text>
</g>
<!-- Node14&#45;&gt;Node15 -->
<g id="edge15" class="edge"><title>Node14&#45;&gt;Node15</title>
<path fill="none" stroke="midnightblue" d="M824.808,-240.986C791.832,-231.139 736.127,-214.315 688.5,-199 685.758,-198.118 682.922,-197.193 680.075,-196.253"/>
<polygon fill="midnightblue" stroke="midnightblue" points="681.066,-192.895 670.472,-193.054 678.853,-199.536 681.066,-192.895"/>
</g>
<!-- Node16 -->
<g id="node16" class="node"><title>Node16</title>
<polygon fill="white" stroke="#bfbfbf" points="697.5,-174 697.5,-193 791.5,-193 791.5,-174 697.5,-174"/>
<text text-anchor="middle" x="744.5" y="-181" font-family="Helvetica,sans-Serif" font-size="10.00">Eigen/Geometry</text>
</g>
<!-- Node14&#45;&gt;Node16 -->
<g id="edge16" class="edge"><title>Node14&#45;&gt;Node16</title>
<path fill="none" stroke="midnightblue" d="M838.8,-240.734C820.577,-229.867 789.301,-211.216 767.798,-198.393"/>
<polygon fill="midnightblue" stroke="midnightblue" points="769.349,-195.243 758.967,-193.127 765.764,-201.255 769.349,-195.243"/>
</g>
<!-- Node17 -->
<g id="node17" class="node"><title>Node17</title>
<polygon fill="white" stroke="#bfbfbf" points="809.5,-174 809.5,-193 889.5,-193 889.5,-174 809.5,-174"/>
<text text-anchor="middle" x="849.5" y="-181" font-family="Helvetica,sans-Serif" font-size="10.00">Eigen/Sparse</text>
</g>
<!-- Node14&#45;&gt;Node17 -->
<g id="edge17" class="edge"><title>Node14&#45;&gt;Node17</title>
<path fill="none" stroke="midnightblue" d="M852.961,-240.734C852.373,-231.183 851.415,-215.618 850.656,-203.283"/>
<polygon fill="midnightblue" stroke="midnightblue" points="854.139,-202.893 850.031,-193.127 847.152,-203.323 854.139,-202.893"/>
</g>
<!-- Node18 -->
<g id="node18" class="node"><title>Node18</title>
<polygon fill="white" stroke="#bfbfbf" points="908,-174 908,-193 971,-193 971,-174 908,-174"/>
<text text-anchor="middle" x="939.5" y="-181" font-family="Helvetica,sans-Serif" font-size="10.00">functional</text>
</g>
<!-- Node14&#45;&gt;Node18 -->
<g id="edge18" class="edge"><title>Node14&#45;&gt;Node18</title>
<path fill="none" stroke="midnightblue" d="M865.098,-240.734C879.154,-230.111 903.051,-212.049 919.966,-199.264"/>
<polygon fill="midnightblue" stroke="midnightblue" points="922.218,-201.949 928.085,-193.127 917.997,-196.365 922.218,-201.949"/>
</g>
<!-- Node19 -->
<g id="node19" class="node"><title>Node19</title>
<polygon fill="white" stroke="#bfbfbf" points="282,-168.5 282,-198.5 427,-198.5 427,-168.5 282,-168.5"/>
<text text-anchor="start" x="290" y="-186.5" font-family="Helvetica,sans-Serif" font-size="10.00">unsupported/Eigen/Aligned</text>
<text text-anchor="middle" x="354.5" y="-175.5" font-family="Helvetica,sans-Serif" font-size="10.00">Vector3</text>
</g>
<!-- Node14&#45;&gt;Node19 -->
<g id="edge19" class="edge"><title>Node14&#45;&gt;Node19</title>
<path fill="none" stroke="midnightblue" d="M804.697,-240.971C791.96,-238.879 778.233,-236.742 765.5,-235 622.608,-215.448 583.285,-219.799 437.537,-199.236"/>
<polygon fill="midnightblue" stroke="midnightblue" points="437.714,-195.726 427.32,-197.778 436.725,-202.655 437.714,-195.726"/>
</g>
<!-- Node20 -->
<g id="node20" class="node"><title>Node20</title>
<g id="a_node20"><a xlink:href="Math_8hpp.html" target="_top" xlink:title="Core/Math/Math.hpp">
<polygon fill="white" stroke="black" points="111.5,-174 111.5,-193 225.5,-193 225.5,-174 111.5,-174"/>
<text text-anchor="middle" x="168.5" y="-181" font-family="Helvetica,sans-Serif" font-size="10.00">Core/Math/Math.hpp</text>
</a>
</g>
</g>
<!-- Node14&#45;&gt;Node20 -->
<g id="edge20" class="edge"><title>Node14&#45;&gt;Node20</title>
<path fill="none" stroke="midnightblue" d="M806.572,-240.961C793.325,-238.77 778.877,-236.587 765.5,-235 547.336,-209.115 490.968,-222.181 272.5,-199 260.198,-197.695 247.111,-196.063 234.518,-194.369"/>
<polygon fill="midnightblue" stroke="midnightblue" points="234.933,-190.893 224.55,-193.002 233.982,-197.828 234.933,-190.893"/>
</g>
<!-- Node24 -->
<g id="node24" class="node"><title>Node24</title>
<g id="a_node24"><a xlink:href="LinearAlgebra_8inl.html" target="_top" xlink:title="Core/Math/LinearAlgebra.inl">
<polygon fill="white" stroke="black" points="445,-174 445,-193 594,-193 594,-174 445,-174"/>
<text text-anchor="middle" x="519.5" y="-181" font-family="Helvetica,sans-Serif" font-size="10.00">Core/Math/LinearAlgebra.inl</text>
</a>
</g>
</g>
<!-- Node14&#45;&gt;Node24 -->
<g id="edge26" class="edge"><title>Node14&#45;&gt;Node24</title>
<path fill="none" stroke="midnightblue" d="M809.492,-240.936C748.708,-229.106 639.143,-207.784 573.486,-195.006"/>
<polygon fill="midnightblue" stroke="midnightblue" points="573.824,-191.507 563.34,-193.032 572.487,-198.378 573.824,-191.507"/>
</g>
<!-- Node20&#45;&gt;Node5 -->
<g id="edge21" class="edge"><title>Node20&#45;&gt;Node5</title>
<path fill="none" stroke="midnightblue" d="M204.807,-173.968C215.885,-171.667 228.14,-169.423 239.5,-168 411.064,-146.504 941.502,-129.792 1120.11,-124.648"/>
<polygon fill="midnightblue" stroke="midnightblue" points="1120.46,-128.139 1130.36,-124.354 1120.26,-121.142 1120.46,-128.139"/>
</g>
<!-- Node21 -->
<g id="node21" class="node"><title>Node21</title>
<polygon fill="white" stroke="#bfbfbf" points="644.5,-112.5 644.5,-131.5 706.5,-131.5 706.5,-112.5 644.5,-112.5"/>
<text text-anchor="middle" x="675.5" y="-119.5" font-family="Helvetica,sans-Serif" font-size="10.00">algorithm</text>
</g>
<!-- Node20&#45;&gt;Node21 -->
<g id="edge22" class="edge"><title>Node20&#45;&gt;Node21</title>
<path fill="none" stroke="midnightblue" d="M206.697,-173.979C217.284,-171.814 228.805,-169.64 239.5,-168 383.716,-145.887 556.476,-131.655 634.128,-125.903"/>
<polygon fill="midnightblue" stroke="midnightblue" points="634.724,-129.369 644.441,-125.148 634.212,-122.388 634.724,-129.369"/>
</g>
<!-- Node22 -->
<g id="node22" class="node"><title>Node22</title>
<polygon fill="white" stroke="#bfbfbf" points="50,-112.5 50,-131.5 97,-131.5 97,-112.5 50,-112.5"/>
<text text-anchor="middle" x="73.5" y="-119.5" font-family="Helvetica,sans-Serif" font-size="10.00">cmath</text>
</g>
<!-- Node20&#45;&gt;Node22 -->
<g id="edge23" class="edge"><title>Node20&#45;&gt;Node22</title>
<path fill="none" stroke="midnightblue" d="M154.889,-173.975C139.439,-164.299 114.01,-148.372 95.6839,-136.894"/>
<polygon fill="midnightblue" stroke="midnightblue" points="97.4187,-133.851 87.0859,-131.509 93.7031,-139.783 97.4187,-133.851"/>
</g>
<!-- Node23 -->
<g id="node23" class="node"><title>Node23</title>
<g id="a_node23"><a xlink:href="Math_8inl.html" target="_top" xlink:title="Core/Math/Math.inl">
<polygon fill="white" stroke="black" points="115,-112.5 115,-131.5 222,-131.5 222,-112.5 115,-112.5"/>
<text text-anchor="middle" x="168.5" y="-119.5" font-family="Helvetica,sans-Serif" font-size="10.00">Core/Math/Math.inl</text>
</a>
</g>
</g>
<!-- Node20&#45;&gt;Node23 -->
<g id="edge24" class="edge"><title>Node20&#45;&gt;Node23</title>
<path fill="none" stroke="midnightblue" d="M163.599,-173.975C161.768,-165.58 161.297,-152.481 162.185,-141.663"/>
<polygon fill="midnightblue" stroke="midnightblue" points="165.686,-141.897 163.603,-131.509 158.754,-140.929 165.686,-141.897"/>
</g>
<!-- Node23&#45;&gt;Node20 -->
<g id="edge25" class="edge"><title>Node23&#45;&gt;Node20</title>
<path fill="none" stroke="midnightblue" d="M173.397,-131.509C175.23,-139.898 175.703,-152.996 174.817,-163.817"/>
<polygon fill="midnightblue" stroke="midnightblue" points="171.315,-163.588 173.401,-173.975 178.248,-164.554 171.315,-163.588"/>
</g>
<!-- Node26&#45;&gt;Node4 -->
<g id="edge30" class="edge"><title>Node26&#45;&gt;Node4</title>
<path fill="none" stroke="midnightblue" d="M972.492,-307.936C919.754,-297.672 830.297,-280.263 764.655,-267.488"/>
<polygon fill="midnightblue" stroke="midnightblue" points="765.227,-264.034 754.742,-265.559 763.89,-270.905 765.227,-264.034"/>
</g>
<!-- Node26&#45;&gt;Node5 -->
<g id="edge32" class="edge"><title>Node26&#45;&gt;Node5</title>
<path fill="none" stroke="midnightblue" d="M1021.93,-307.964C1037.12,-284.409 1081.88,-217.002 1127.5,-168 1137.54,-157.214 1149.99,-146.367 1160.19,-138.026"/>
<polygon fill="midnightblue" stroke="midnightblue" points="1162.51,-140.65 1168.12,-131.665 1158.13,-135.188 1162.51,-140.65"/>
</g>
<!-- Node26&#45;&gt;Node13 -->
<g id="edge33" class="edge"><title>Node26&#45;&gt;Node13</title>
<path fill="none" stroke="midnightblue" d="M1018.8,-307.839C1024.41,-286.674 1038.92,-231.948 1046.59,-203.033"/>
<polygon fill="midnightblue" stroke="midnightblue" points="1050.06,-203.584 1049.24,-193.021 1043.29,-201.79 1050.06,-203.584"/>
</g>
<!-- Node26&#45;&gt;Node14 -->
<g id="edge31" class="edge"><title>Node26&#45;&gt;Node14</title>
<path fill="none" stroke="midnightblue" d="M994.855,-307.869C966.523,-296.571 916.684,-276.696 884.391,-263.818"/>
<polygon fill="midnightblue" stroke="midnightblue" points="885.56,-260.517 874.975,-260.064 882.967,-267.019 885.56,-260.517"/>
</g>
<!-- Node27&#45;&gt;Node5 -->
<g id="edge40" class="edge"><title>Node27&#45;&gt;Node5</title>
<path fill="none" stroke="midnightblue" d="M1237.94,-307.764C1230.13,-288.403 1211.19,-240.324 1198.5,-199 1192.53,-179.54 1187.04,-156.857 1183.52,-141.37"/>
<polygon fill="midnightblue" stroke="midnightblue" points="1186.91,-140.513 1181.32,-131.515 1180.08,-142.037 1186.91,-140.513"/>
</g>
<!-- Node27&#45;&gt;Node14 -->
<g id="edge39" class="edge"><title>Node27&#45;&gt;Node14</title>
<path fill="none" stroke="midnightblue" d="M1190.38,-307.936C1119.18,-296.009 990.388,-274.432 914.342,-261.693"/>
<polygon fill="midnightblue" stroke="midnightblue" points="914.869,-258.232 904.428,-260.032 913.712,-265.136 914.869,-258.232"/>
</g>
<!-- Node28 -->
<g id="node28" class="node"><title>Node28</title>
<g id="a_node28"><a xlink:href="Index_8hpp.html" target="_top" xlink:title="Core/Index/Index.hpp">
<polygon fill="white" stroke="black" points="1234,-241 1234,-260 1351,-260 1351,-241 1234,-241"/>
<text text-anchor="middle" x="1292.5" y="-248" font-family="Helvetica,sans-Serif" font-size="10.00">Core/Index/Index.hpp</text>
</a>
</g>
</g>
<!-- Node27&#45;&gt;Node28 -->
<g id="edge36" class="edge"><title>Node27&#45;&gt;Node28</title>
<path fill="none" stroke="midnightblue" d="M1248.38,-307.734C1256.33,-297.598 1269.6,-280.69 1279.51,-268.056"/>
<polygon fill="midnightblue" stroke="midnightblue" points="1282.31,-270.155 1285.73,-260.127 1276.8,-265.834 1282.31,-270.155"/>
</g>
<!-- Node29 -->
<g id="node29" class="node"><title>Node29</title>
<polygon fill="white" stroke="#bfbfbf" points="1207.5,-174 1207.5,-193 1249.5,-193 1249.5,-174 1207.5,-174"/>
<text text-anchor="middle" x="1228.5" y="-181" font-family="Helvetica,sans-Serif" font-size="10.00">limits</text>
</g>
<!-- Node28&#45;&gt;Node29 -->
<g id="edge37" class="edge"><title>Node28&#45;&gt;Node29</title>
<path fill="none" stroke="midnightblue" d="M1283.87,-240.734C1273.7,-230.403 1256.6,-213.037 1244.09,-200.332"/>
<polygon fill="midnightblue" stroke="midnightblue" points="1246.5,-197.797 1236.99,-193.127 1241.52,-202.709 1246.5,-197.797"/>
</g>
<!-- Node30 -->
<g id="node30" class="node"><title>Node30</title>
<g id="a_node30"><a xlink:href="Index_8inl.html" target="_top" xlink:title="Core/Index/Index.inl">
<polygon fill="white" stroke="black" points="1267.5,-174 1267.5,-193 1377.5,-193 1377.5,-174 1267.5,-174"/>
<text text-anchor="middle" x="1322.5" y="-181" font-family="Helvetica,sans-Serif" font-size="10.00">Core/Index/Index.inl</text>
</a>
</g>
</g>
<!-- Node28&#45;&gt;Node30 -->
<g id="edge38" class="edge"><title>Node28&#45;&gt;Node30</title>
<path fill="none" stroke="midnightblue" d="M1296.55,-240.734C1301.04,-230.988 1308.43,-214.981 1314.18,-202.532"/>
<polygon fill="midnightblue" stroke="midnightblue" points="1317.51,-203.674 1318.52,-193.127 1311.15,-200.74 1317.51,-203.674"/>
</g>
<!-- Node31&#45;&gt;Node5 -->
<g id="edge45" class="edge"><title>Node31&#45;&gt;Node5</title>
<path fill="none" stroke="midnightblue" d="M1067.88,-425.362C1085.91,-418.32 1108.65,-406.62 1122.5,-389 1142.55,-363.485 1141.5,-350.951 1141.5,-318.5 1141.5,-318.5 1141.5,-318.5 1141.5,-249.5 1141.5,-209.35 1159.28,-164.946 1170.51,-140.889"/>
<polygon fill="midnightblue" stroke="midnightblue" points="1173.79,-142.152 1174.99,-131.625 1167.49,-139.104 1173.79,-142.152"/>
</g>
<!-- Node31&#45;&gt;Node14 -->
<g id="edge43" class="edge"><title>Node31&#45;&gt;Node14</title>
<path fill="none" stroke="midnightblue" d="M1016.33,-425.494C997.284,-417.963 970.804,-405.588 951.5,-389 910.51,-353.779 877.734,-297.976 862.599,-269.503"/>
<polygon fill="midnightblue" stroke="midnightblue" points="865.554,-267.599 857.838,-260.338 859.342,-270.825 865.554,-267.599"/>
</g>
<!-- Node31&#45;&gt;Node26 -->
<g id="edge42" class="edge"><title>Node31&#45;&gt;Node26</title>
<path fill="none" stroke="midnightblue" d="M1008.69,-425.385C990.554,-418.661 969.336,-407.306 958.5,-389 945.856,-367.638 970.394,-346.025 991.35,-332.465"/>
<polygon fill="midnightblue" stroke="midnightblue" points="993.294,-335.379 999.993,-327.171 989.637,-329.41 993.294,-335.379"/>
</g>
<!-- Node31&#45;&gt;Node27 -->
<g id="edge44" class="edge"><title>Node31&#45;&gt;Node27</title>
<path fill="none" stroke="midnightblue" d="M1069.53,-425.449C1093.5,-417.74 1127.94,-405.145 1155.5,-389 1181.89,-373.546 1208.54,-350.227 1225.03,-334.692"/>
<polygon fill="midnightblue" stroke="midnightblue" points="1227.88,-336.809 1232.68,-327.36 1223.04,-331.757 1227.88,-336.809"/>
</g>
<!-- Node32 -->
<g id="node32" class="node"><title>Node32</title>
<g id="a_node32"><a xlink:href="Attribs_8hpp.html" target="_top" xlink:title="Core/Utils/Attribs.hpp">
<polygon fill="white" stroke="black" points="1464,-369.5 1464,-388.5 1583,-388.5 1583,-369.5 1464,-369.5"/>
<text text-anchor="middle" x="1523.5" y="-376.5" font-family="Helvetica,sans-Serif" font-size="10.00">Core/Utils/Attribs.hpp</text>
</a>
</g>
</g>
<!-- Node31&#45;&gt;Node32 -->
<g id="edge46" class="edge"><title>Node31&#45;&gt;Node32</title>
<path fill="none" stroke="midnightblue" d="M1116.77,-425.473C1209.3,-415.128 1364.01,-397.832 1453.58,-387.817"/>
<polygon fill="midnightblue" stroke="midnightblue" points="1454.09,-391.282 1463.64,-386.692 1453.31,-384.325 1454.09,-391.282"/>
</g>
<!-- Node42 -->
<g id="node42" class="node"><title>Node42</title>
<g id="a_node42"><a xlink:href="TriangleMesh_8inl.html" target="_top" xlink:title="Core/Mesh/TriangleMesh.inl">
<polygon fill="white" stroke="black" points="967.5,-369.5 967.5,-388.5 1113.5,-388.5 1113.5,-369.5 967.5,-369.5"/>
<text text-anchor="middle" x="1040.5" y="-376.5" font-family="Helvetica,sans-Serif" font-size="10.00">Core/Mesh/TriangleMesh.inl</text>
</a>
</g>
</g>
<!-- Node31&#45;&gt;Node42 -->
<g id="edge67" class="edge"><title>Node31&#45;&gt;Node42</title>
<path fill="none" stroke="midnightblue" d="M1035.33,-425.083C1033.82,-417.927 1033.39,-407.635 1034.04,-398.691"/>
<polygon fill="midnightblue" stroke="midnightblue" points="1037.52,-399.126 1035.37,-388.751 1030.58,-398.2 1037.52,-399.126"/>
</g>
<!-- Node32&#45;&gt;Node5 -->
<g id="edge66" class="edge"><title>Node32&#45;&gt;Node5</title>
<path fill="none" stroke="midnightblue" d="M1583.29,-377.262C1699.15,-375.086 1949.74,-366.529 2028.5,-333 2079.47,-311.304 2129.09,-285.119 2105.5,-235 2085.61,-192.728 2068.02,-184.988 2024.5,-168 1951.88,-139.654 1418.8,-127.378 1238.73,-124.01"/>
<polygon fill="midnightblue" stroke="midnightblue" points="1238.71,-120.509 1228.65,-123.824 1238.58,-127.508 1238.71,-120.509"/>
</g>
<!-- Node32&#45;&gt;Node26 -->
<g id="edge47" class="edge"><title>Node32&#45;&gt;Node26</title>
<path fill="none" stroke="midnightblue" d="M1463.85,-371C1373.41,-360.386 1201.33,-340.191 1098.97,-328.178"/>
<polygon fill="midnightblue" stroke="midnightblue" points="1099.32,-324.696 1088.98,-327.006 1098.5,-331.648 1099.32,-324.696"/>
</g>
<!-- Node33 -->
<g id="node33" class="node"><title>Node33</title>
<g id="a_node33"><a xlink:href="IndexMap_8hpp.html" target="_top" xlink:title="Core/Index/IndexMap.hpp">
<polygon fill="white" stroke="black" points="1455,-308 1455,-327 1592,-327 1592,-308 1455,-308"/>
<text text-anchor="middle" x="1523.5" y="-315" font-family="Helvetica,sans-Serif" font-size="10.00">Core/Index/IndexMap.hpp</text>
</a>
</g>
</g>
<!-- Node32&#45;&gt;Node33 -->
<g id="edge48" class="edge"><title>Node32&#45;&gt;Node33</title>
<path fill="none" stroke="midnightblue" d="M1523.5,-369.475C1523.5,-361.08 1523.5,-347.981 1523.5,-337.163"/>
<polygon fill="midnightblue" stroke="midnightblue" points="1527,-337.009 1523.5,-327.009 1520,-337.009 1527,-337.009"/>
</g>
<!-- Node37 -->
<g id="node37" class="node"><title>Node37</title>
<g id="a_node37"><a xlink:href="Log_8hpp.html" target="_top" xlink:title="Core/Log/Log.hpp">
<polygon fill="white" stroke="black" points="1918,-308 1918,-327 2019,-327 2019,-308 1918,-308"/>
<text text-anchor="middle" x="1968.5" y="-315" font-family="Helvetica,sans-Serif" font-size="10.00">Core/Log/Log.hpp</text>
</a>
</g>
</g>
<!-- Node32&#45;&gt;Node37 -->
<g id="edge56" class="edge"><title>Node32&#45;&gt;Node37</title>
<path fill="none" stroke="midnightblue" d="M1583.05,-370.037C1667.83,-358.702 1822.46,-338.027 1907.84,-326.611"/>
<polygon fill="midnightblue" stroke="midnightblue" points="1908.45,-330.06 1917.9,-325.266 1907.52,-323.122 1908.45,-330.06"/>
</g>
<!-- Node33&#45;&gt;Node5 -->
<g id="edge49" class="edge"><title>Node33&#45;&gt;Node5</title>
<path fill="none" stroke="midnightblue" d="M1504.05,-307.861C1487.28,-299.46 1463.61,-285.165 1449.5,-266 1422.5,-229.315 1453.46,-198.361 1419.5,-168 1393.38,-144.647 1300.93,-132.69 1238.7,-127.149"/>
<polygon fill="midnightblue" stroke="midnightblue" points="1238.86,-123.651 1228.6,-126.283 1238.27,-130.625 1238.86,-123.651"/>
</g>
<!-- Node33&#45;&gt;Node21 -->
<g id="edge50" class="edge"><title>Node33&#45;&gt;Node21</title>
<path fill="none" stroke="midnightblue" d="M1499.84,-307.942C1479.99,-299.758 1452.01,-285.734 1433.5,-266 1400.46,-230.765 1426.55,-195.012 1386.5,-168 1330.98,-130.552 860.508,-124.259 716.935,-123.209"/>
<polygon fill="midnightblue" stroke="midnightblue" points="716.805,-119.708 706.782,-123.139 716.757,-126.708 716.805,-119.708"/>
</g>
<!-- Node33&#45;&gt;Node28 -->
<g id="edge53" class="edge"><title>Node33&#45;&gt;Node28</title>
<path fill="none" stroke="midnightblue" d="M1492.82,-307.869C1451.64,-296.278 1378.37,-275.662 1332.78,-262.834"/>
<polygon fill="midnightblue" stroke="midnightblue" points="1333.51,-259.403 1322.93,-260.064 1331.61,-266.142 1333.51,-259.403"/>
</g>
<!-- Node34 -->
<g id="node34" class="node"><title>Node34</title>
<polygon fill="white" stroke="#bfbfbf" points="1606.5,-241 1606.5,-260 1662.5,-260 1662.5,-241 1606.5,-241"/>
<text text-anchor="middle" x="1634.5" y="-248" font-family="Helvetica,sans-Serif" font-size="10.00">assert.h</text>
</g>
<!-- Node33&#45;&gt;Node34 -->
<g id="edge51" class="edge"><title>Node33&#45;&gt;Node34</title>
<path fill="none" stroke="midnightblue" d="M1538.47,-307.734C1557.11,-296.818 1589.16,-278.049 1611.07,-265.221"/>
<polygon fill="midnightblue" stroke="midnightblue" points="1612.91,-268.201 1619.77,-260.127 1609.37,-262.16 1612.91,-268.201"/>
</g>
<!-- Node35 -->
<g id="node35" class="node"><title>Node35</title>
<polygon fill="white" stroke="#bfbfbf" points="1681,-241 1681,-260 1728,-260 1728,-241 1681,-241"/>
<text text-anchor="middle" x="1704.5" y="-248" font-family="Helvetica,sans-Serif" font-size="10.00">deque</text>
</g>
<!-- Node33&#45;&gt;Node35 -->
<g id="edge52" class="edge"><title>Node33&#45;&gt;Node35</title>
<path fill="none" stroke="midnightblue" d="M1550.76,-307.97C1580.64,-298.438 1629.88,-282.209 1671.5,-266 1673.1,-265.375 1674.74,-264.718 1676.39,-264.041"/>
<polygon fill="midnightblue" stroke="midnightblue" points="1677.93,-267.19 1685.77,-260.061 1675.2,-260.747 1677.93,-267.19"/>
</g>
<!-- Node36 -->
<g id="node36" class="node"><title>Node36</title>
<g id="a_node36"><a xlink:href="IndexMap_8inl.html" target="_top" xlink:title="Core/Index/IndexMap.inl">
<polygon fill="white" stroke="black" points="1458.5,-241 1458.5,-260 1588.5,-260 1588.5,-241 1458.5,-241"/>
<text text-anchor="middle" x="1523.5" y="-248" font-family="Helvetica,sans-Serif" font-size="10.00">Core/Index/IndexMap.inl</text>
</a>
</g>
</g>
<!-- Node33&#45;&gt;Node36 -->
<g id="edge54" class="edge"><title>Node33&#45;&gt;Node36</title>
<path fill="none" stroke="midnightblue" d="M1518.71,-307.734C1516.7,-298.183 1516.24,-282.618 1517.32,-270.283"/>
<polygon fill="midnightblue" stroke="midnightblue" points="1520.82,-270.517 1518.74,-260.127 1513.88,-269.544 1520.82,-270.517"/>
</g>
<!-- Node36&#45;&gt;Node33 -->
<g id="edge55" class="edge"><title>Node36&#45;&gt;Node33</title>
<path fill="none" stroke="midnightblue" d="M1528.26,-260.127C1530.28,-269.62 1530.76,-285.17 1529.7,-297.537"/>
<polygon fill="midnightblue" stroke="midnightblue" points="1526.19,-297.348 1528.29,-307.734 1533.13,-298.308 1526.19,-297.348"/>
</g>
<!-- Node37&#45;&gt;Node5 -->
<g id="edge57" class="edge"><title>Node37&#45;&gt;Node5</title>
<path fill="none" stroke="midnightblue" d="M1963.94,-307.917C1954.43,-290.943 1930.76,-253.163 1899.5,-235 1786.96,-169.609 1390.16,-136.978 1238.78,-126.691"/>
<polygon fill="midnightblue" stroke="midnightblue" points="1238.95,-123.195 1228.74,-126.017 1238.48,-130.179 1238.95,-123.195"/>
</g>
<!-- Node37&#45;&gt;Node10 -->
<g id="edge58" class="edge"><title>Node37&#45;&gt;Node10</title>
<path fill="none" stroke="midnightblue" d="M2009.64,-307.894C2066.59,-293.297 2162.5,-257.828 2162.5,-184.5 2162.5,-184.5 2162.5,-184.5 2162.5,-121 2162.5,-48.629 1910.04,-21.4729 1811.88,-13.6498"/>
<polygon fill="midnightblue" stroke="midnightblue" points="1812.03,-10.1506 1801.79,-12.8704 1811.49,-17.1298 1812.03,-10.1506"/>
</g>
<!-- Node38 -->
<g id="node38" class="node"><title>Node38</title>
<polygon fill="white" stroke="#bfbfbf" points="2047,-241 2047,-260 2096,-260 2096,-241 2047,-241"/>
<text text-anchor="middle" x="2071.5" y="-248" font-family="Helvetica,sans-Serif" font-size="10.00">stdio.h</text>
</g>
<!-- Node37&#45;&gt;Node38 -->
<g id="edge59" class="edge"><title>Node37&#45;&gt;Node38</title>
<path fill="none" stroke="midnightblue" d="M1982.39,-307.734C1999.53,-296.916 2028.9,-278.383 2049.21,-265.566"/>
<polygon fill="midnightblue" stroke="midnightblue" points="2051.24,-268.424 2057.83,-260.127 2047.5,-262.504 2051.24,-268.424"/>
</g>
<!-- Node39 -->
<g id="node39" class="node"><title>Node39</title>
<polygon fill="white" stroke="#bfbfbf" points="1971.5,-174 1971.5,-193 2015.5,-193 2015.5,-174 1971.5,-174"/>
<text text-anchor="middle" x="1993.5" y="-181" font-family="Helvetica,sans-Serif" font-size="10.00">string</text>
</g>
<!-- Node37&#45;&gt;Node39 -->
<g id="edge60" class="edge"><title>Node37&#45;&gt;Node39</title>
<path fill="none" stroke="midnightblue" d="M1975.86,-307.912C1983.48,-298.395 1994.91,-282.236 1999.5,-266 2005.39,-245.144 2002.12,-220.161 1998.52,-203.401"/>
<polygon fill="midnightblue" stroke="midnightblue" points="2001.82,-202.169 1996.08,-193.263 1995.01,-203.804 2001.82,-202.169"/>
</g>
<!-- Node40 -->
<g id="node40" class="node"><title>Node40</title>
<g id="a_node40"><a xlink:href="StringUtils_8hpp.html" target="_top" xlink:title="Core/String/StringUtils.hpp">
<polygon fill="white" stroke="black" points="1746.5,-241 1746.5,-260 1890.5,-260 1890.5,-241 1746.5,-241"/>
<text text-anchor="middle" x="1818.5" y="-248" font-family="Helvetica,sans-Serif" font-size="10.00">Core/String/StringUtils.hpp</text>
</a>
</g>
</g>
<!-- Node37&#45;&gt;Node40 -->
<g id="edge61" class="edge"><title>Node37&#45;&gt;Node40</title>
<path fill="none" stroke="midnightblue" d="M1948.58,-307.869C1922.81,-296.699 1877.68,-277.147 1847.95,-264.26"/>
<polygon fill="midnightblue" stroke="midnightblue" points="1849.07,-260.932 1838.5,-260.167 1846.29,-267.355 1849.07,-260.932"/>
</g>
<!-- Node41 -->
<g id="node41" class="node"><title>Node41</title>
<polygon fill="white" stroke="#bfbfbf" points="1946.5,-241 1946.5,-260 1990.5,-260 1990.5,-241 1946.5,-241"/>
<text text-anchor="middle" x="1968.5" y="-248" font-family="Helvetica,sans-Serif" font-size="10.00">ctime</text>
</g>
<!-- Node37&#45;&gt;Node41 -->
<g id="edge65" class="edge"><title>Node37&#45;&gt;Node41</title>
<path fill="none" stroke="midnightblue" d="M1968.5,-307.734C1968.5,-298.183 1968.5,-282.618 1968.5,-270.283"/>
<polygon fill="midnightblue" stroke="midnightblue" points="1972,-270.127 1968.5,-260.127 1965,-270.127 1972,-270.127"/>
</g>
<!-- Node40&#45;&gt;Node5 -->
<g id="edge62" class="edge"><title>Node40&#45;&gt;Node5</title>
<path fill="none" stroke="midnightblue" d="M1784.05,-240.979C1720.01,-225.303 1578.14,-191.359 1457.5,-168 1382.37,-153.454 1295.2,-139.874 1238.79,-131.516"/>
<polygon fill="midnightblue" stroke="midnightblue" points="1239.03,-128.014 1228.62,-130.017 1238.01,-134.939 1239.03,-128.014"/>
</g>
<!-- Node40&#45;&gt;Node13 -->
<g id="edge64" class="edge"><title>Node40&#45;&gt;Node13</title>
<path fill="none" stroke="midnightblue" d="M1775.76,-240.937C1763.45,-238.72 1749.98,-236.529 1737.5,-235 1499.19,-205.802 1437.77,-218.786 1198.5,-199 1159.69,-195.791 1115.2,-191.287 1085.42,-188.153"/>
<polygon fill="midnightblue" stroke="midnightblue" points="1085.47,-184.639 1075.16,-187.066 1084.73,-191.6 1085.47,-184.639"/>
</g>
<!-- Node40&#45;&gt;Node39 -->
<g id="edge63" class="edge"><title>Node40&#45;&gt;Node39</title>
<path fill="none" stroke="midnightblue" d="M1841.74,-240.869C1872.54,-229.428 1927.02,-209.192 1961.64,-196.333"/>
<polygon fill="midnightblue" stroke="midnightblue" points="1963.12,-199.519 1971.27,-192.756 1960.68,-192.957 1963.12,-199.519"/>
</g>
<!-- Node42&#45;&gt;Node31 -->
<g id="edge68" class="edge"><title>Node42&#45;&gt;Node31</title>
<path fill="none" stroke="midnightblue" d="M1045.63,-388.751C1047.16,-395.858 1047.6,-406.136 1046.97,-415.101"/>
<polygon fill="midnightblue" stroke="midnightblue" points="1043.49,-414.713 1045.67,-425.083 1050.43,-415.622 1043.49,-414.713"/>
</g>
</g>
</svg>
