<?xml version="1.0" encoding="UTF-8" standalone="no"?>
<!DOCTYPE svg PUBLIC "-//W3C//DTD SVG 1.1//EN"
 "http://www.w3.org/Graphics/SVG/1.1/DTD/svg11.dtd">
<!-- Generated by graphviz version 2.38.0 (20140413.2041)
 -->
<!-- Title: /home/travis/build/STORM&#45;IRIT/Radium&#45;Engine/src/Core/Geometry/PointCloud/PointCloud.inl Pages: 1 -->
<svg width="1212pt" height="475pt"
 viewBox="0.00 0.00 1212.36 475.00" xmlns="http://www.w3.org/2000/svg" xmlns:xlink="http://www.w3.org/1999/xlink">
<g id="graph0" class="graph" transform="scale(1 1) rotate(0) translate(4 471)">
<title>/home/travis/build/STORM&#45;IRIT/Radium&#45;Engine/src/Core/Geometry/PointCloud/PointCloud.inl</title>
<polygon fill="white" stroke="none" points="-4,4 -4,-471 1208.36,-471 1208.36,4 -4,4"/>
<!-- Node1 -->
<g id="node1" class="node"><title>Node1</title>
<polygon fill="#bfbfbf" stroke="black" points="394.864,-414.5 394.864,-466.5 558.864,-466.5 558.864,-414.5 394.864,-414.5"/>
<text text-anchor="start" x="402.864" y="-454.5" font-family="Helvetica,sans-Serif" font-size="10.00">/home/travis/build</text>
<text text-anchor="start" x="402.864" y="-443.5" font-family="Helvetica,sans-Serif" font-size="10.00">/STORM&#45;IRIT/Radium&#45;Engine</text>
<text text-anchor="start" x="402.864" y="-432.5" font-family="Helvetica,sans-Serif" font-size="10.00">/src/Core/Geometry/PointCloud</text>
<text text-anchor="middle" x="476.864" y="-421.5" font-family="Helvetica,sans-Serif" font-size="10.00">/PointCloud.inl</text>
</g>
<!-- Node2 -->
<g id="node2" class="node"><title>Node2</title>
<g id="a_node2"><a xlink:href="PointCloud_8hpp.html" target="_top" xlink:title="PointCloud.hpp">
<polygon fill="white" stroke="black" points="432.364,-358.5 432.364,-377.5 521.364,-377.5 521.364,-358.5 432.364,-358.5"/>
<text text-anchor="middle" x="476.864" y="-365.5" font-family="Helvetica,sans-Serif" font-size="10.00">PointCloud.hpp</text>
</a>
</g>
</g>
<!-- Node1&#45;&gt;Node2 -->
<g id="edge1" class="edge"><title>Node1&#45;&gt;Node2</title>
<path fill="none" stroke="midnightblue" d="M470.372,-414.446C469.915,-405.63 470.066,-395.883 470.826,-387.684"/>
<polygon fill="midnightblue" stroke="midnightblue" points="474.304,-388.087 472.239,-377.695 467.373,-387.106 474.304,-388.087"/>
</g>
<!-- Node2&#45;&gt;Node1 -->
<g id="edge38" class="edge"><title>Node2&#45;&gt;Node1</title>
<path fill="none" stroke="midnightblue" d="M481.489,-377.695C482.907,-384.475 483.615,-394.371 483.614,-404.266"/>
<polygon fill="midnightblue" stroke="midnightblue" points="480.111,-404.36 483.357,-414.446 487.109,-404.538 480.111,-404.36"/>
</g>
<!-- Node3 -->
<g id="node3" class="node"><title>Node3</title>
<g id="a_node3"><a xlink:href="RaCore_8hpp.html" target="_top" xlink:title="Core/RaCore.hpp">
<polygon fill="white" stroke="black" points="477.864,-112.5 477.864,-131.5 575.864,-131.5 575.864,-112.5 477.864,-112.5"/>
<text text-anchor="middle" x="526.864" y="-119.5" font-family="Helvetica,sans-Serif" font-size="10.00">Core/RaCore.hpp</text>
</a>
</g>
</g>
<!-- Node2&#45;&gt;Node3 -->
<g id="edge2" class="edge"><title>Node2&#45;&gt;Node3</title>
<path fill="none" stroke="midnightblue" d="M431.883,-363.427C295.056,-351.008 -99.469,-302.86 23.8643,-168 53.2873,-135.827 340.652,-126.483 467.362,-123.916"/>
<polygon fill="midnightblue" stroke="midnightblue" points="467.728,-127.409 477.658,-123.715 467.591,-120.411 467.728,-127.409"/>
</g>
<!-- Node10 -->
<g id="node10" class="node"><title>Node10</title>
<polygon fill="white" stroke="#bfbfbf" points="205.364,-302.5 205.364,-321.5 308.364,-321.5 308.364,-302.5 205.364,-302.5"/>
<text text-anchor="middle" x="256.864" y="-309.5" font-family="Helvetica,sans-Serif" font-size="10.00">Eigen/Eigenvalues</text>
</g>
<!-- Node2&#45;&gt;Node10 -->
<g id="edge9" class="edge"><title>Node2&#45;&gt;Node10</title>
<path fill="none" stroke="midnightblue" d="M442.005,-358.444C403.948,-349.102 342.906,-334.119 301.404,-323.933"/>
<polygon fill="midnightblue" stroke="midnightblue" points="302.107,-320.501 291.561,-321.516 300.438,-327.299 302.107,-320.501"/>
</g>
<!-- Node11 -->
<g id="node11" class="node"><title>Node11</title>
<g id="a_node11"><a xlink:href="VectorArray_8hpp.html" target="_top" xlink:title="Core/Containers/VectorArray.hpp">
<polygon fill="white" stroke="black" points="326.364,-302.5 326.364,-321.5 499.364,-321.5 499.364,-302.5 326.364,-302.5"/>
<text text-anchor="middle" x="412.864" y="-309.5" font-family="Helvetica,sans-Serif" font-size="10.00">Core/Containers/VectorArray.hpp</text>
</a>
</g>
</g>
<!-- Node2&#45;&gt;Node11 -->
<g id="edge10" class="edge"><title>Node2&#45;&gt;Node11</title>
<path fill="none" stroke="midnightblue" d="M466.582,-358.324C457.028,-350.263 442.585,-338.077 431.08,-328.369"/>
<polygon fill="midnightblue" stroke="midnightblue" points="433.234,-325.608 423.334,-321.834 428.72,-330.958 433.234,-325.608"/>
</g>
<!-- Node15 -->
<g id="node15" class="node"><title>Node15</title>
<g id="a_node15"><a xlink:href="LinearAlgebra_8hpp.html" target="_top" xlink:title="Core/Math/LinearAlgebra.hpp">
<polygon fill="white" stroke="black" points="513.864,-241 513.864,-260 669.864,-260 669.864,-241 513.864,-241"/>
<text text-anchor="middle" x="591.864" y="-248" font-family="Helvetica,sans-Serif" font-size="10.00">Core/Math/LinearAlgebra.hpp</text>
</a>
</g>
</g>
<!-- Node2&#45;&gt;Node15 -->
<g id="edge31" class="edge"><title>Node2&#45;&gt;Node15</title>
<path fill="none" stroke="midnightblue" d="M485.508,-358.319C504.739,-339.004 551.304,-292.237 575.951,-267.483"/>
<polygon fill="midnightblue" stroke="midnightblue" points="578.545,-269.838 583.12,-260.282 573.584,-264.899 578.545,-269.838"/>
</g>
<!-- Node21 -->
<g id="node21" class="node"><title>Node21</title>
<g id="a_node21"><a xlink:href="Math_8hpp.html" target="_top" xlink:title="Core/Math/Math.hpp">
<polygon fill="white" stroke="black" points="1046.86,-174 1046.86,-193 1160.86,-193 1160.86,-174 1046.86,-174"/>
<text text-anchor="middle" x="1103.86" y="-181" font-family="Helvetica,sans-Serif" font-size="10.00">Core/Math/Math.hpp</text>
</a>
</g>
</g>
<!-- Node2&#45;&gt;Node21 -->
<g id="edge32" class="edge"><title>Node2&#45;&gt;Node21</title>
<path fill="none" stroke="midnightblue" d="M521.719,-366.647C638.605,-365.224 950.114,-358.056 1045.86,-322 1084.8,-307.34 1102.22,-303.188 1120.86,-266 1131.15,-245.478 1122.13,-219.049 1113.8,-201.943"/>
<polygon fill="midnightblue" stroke="midnightblue" points="1116.88,-200.281 1109.13,-193.063 1110.69,-203.542 1116.88,-200.281"/>
</g>
<!-- Node26 -->
<g id="node26" class="node"><title>Node26</title>
<g id="a_node26"><a xlink:href="Obb_8hpp.html" target="_top" xlink:title="Core/Math/Obb.hpp">
<polygon fill="white" stroke="black" points="926.864,-302.5 926.864,-321.5 1036.86,-321.5 1036.86,-302.5 926.864,-302.5"/>
<text text-anchor="middle" x="981.864" y="-309.5" font-family="Helvetica,sans-Serif" font-size="10.00">Core/Math/Obb.hpp</text>
</a>
</g>
</g>
<!-- Node2&#45;&gt;Node26 -->
<g id="edge33" class="edge"><title>Node2&#45;&gt;Node26</title>
<path fill="none" stroke="midnightblue" d="M521.68,-362.208C611.153,-352.64 812.257,-331.136 916.473,-319.992"/>
<polygon fill="midnightblue" stroke="midnightblue" points="916.982,-323.458 926.554,-318.914 916.238,-316.498 916.982,-323.458"/>
</g>
<!-- Node4 -->
<g id="node4" class="node"><title>Node4</title>
<g id="a_node4"><a xlink:href="CoreMacros_8hpp.html" target="_top" xlink:title="Core/CoreMacros.hpp">
<polygon fill="white" stroke="black" points="466.864,-56.5 466.864,-75.5 586.864,-75.5 586.864,-56.5 466.864,-56.5"/>
<text text-anchor="middle" x="526.864" y="-63.5" font-family="Helvetica,sans-Serif" font-size="10.00">Core/CoreMacros.hpp</text>
</a>
</g>
</g>
<!-- Node3&#45;&gt;Node4 -->
<g id="edge3" class="edge"><title>Node3&#45;&gt;Node4</title>
<path fill="none" stroke="midnightblue" d="M526.864,-112.083C526.864,-105.006 526.864,-94.8611 526.864,-85.9865"/>
<polygon fill="midnightblue" stroke="midnightblue" points="530.364,-85.751 526.864,-75.7511 523.364,-85.7511 530.364,-85.751"/>
</g>
<!-- Node5 -->
<g id="node5" class="node"><title>Node5</title>
<polygon fill="white" stroke="#bfbfbf" points="363.864,-0.5 363.864,-19.5 415.864,-19.5 415.864,-0.5 363.864,-0.5"/>
<text text-anchor="middle" x="389.864" y="-7.5" font-family="Helvetica,sans-Serif" font-size="10.00">cassert</text>
</g>
<!-- Node4&#45;&gt;Node5 -->
<g id="edge4" class="edge"><title>Node4&#45;&gt;Node5</title>
<path fill="none" stroke="midnightblue" d="M505.156,-56.4435C482.509,-47.5171 446.792,-33.4387 421.113,-23.3168"/>
<polygon fill="midnightblue" stroke="midnightblue" points="422.058,-19.9273 411.471,-19.5164 419.491,-26.4397 422.058,-19.9273"/>
</g>
<!-- Node6 -->
<g id="node6" class="node"><title>Node6</title>
<polygon fill="white" stroke="#bfbfbf" points="434.364,-0.5 434.364,-19.5 479.364,-19.5 479.364,-0.5 434.364,-0.5"/>
<text text-anchor="middle" x="456.864" y="-7.5" font-family="Helvetica,sans-Serif" font-size="10.00">cstdio</text>
</g>
<!-- Node4&#45;&gt;Node6 -->
<g id="edge5" class="edge"><title>Node4&#45;&gt;Node6</title>
<path fill="none" stroke="midnightblue" d="M515.618,-56.324C505.067,-48.1849 489.064,-35.8395 476.422,-26.0874"/>
<polygon fill="midnightblue" stroke="midnightblue" points="478.371,-23.1707 468.316,-19.8339 474.096,-28.7132 478.371,-23.1707"/>
</g>
<!-- Node7 -->
<g id="node7" class="node"><title>Node7</title>
<polygon fill="white" stroke="#bfbfbf" points="497.364,-0.5 497.364,-19.5 556.364,-19.5 556.364,-0.5 497.364,-0.5"/>
<text text-anchor="middle" x="526.864" y="-7.5" font-family="Helvetica,sans-Serif" font-size="10.00">iostream</text>
</g>
<!-- Node4&#45;&gt;Node7 -->
<g id="edge6" class="edge"><title>Node4&#45;&gt;Node7</title>
<path fill="none" stroke="midnightblue" d="M526.864,-56.083C526.864,-49.0059 526.864,-38.8611 526.864,-29.9865"/>
<polygon fill="midnightblue" stroke="midnightblue" points="530.364,-29.751 526.864,-19.7511 523.364,-29.7511 530.364,-29.751"/>
</g>
<!-- Node8 -->
<g id="node8" class="node"><title>Node8</title>
<polygon fill="white" stroke="#bfbfbf" points="574.864,-0.5 574.864,-19.5 630.864,-19.5 630.864,-0.5 574.864,-0.5"/>
<text text-anchor="middle" x="602.864" y="-7.5" font-family="Helvetica,sans-Serif" font-size="10.00">sstream</text>
</g>
<!-- Node4&#45;&gt;Node8 -->
<g id="edge7" class="edge"><title>Node4&#45;&gt;Node8</title>
<path fill="none" stroke="midnightblue" d="M539.075,-56.324C550.64,-48.1066 568.24,-35.6017 582.025,-25.8069"/>
<polygon fill="midnightblue" stroke="midnightblue" points="584.307,-28.4791 590.431,-19.8339 580.252,-22.7729 584.307,-28.4791"/>
</g>
<!-- Node9 -->
<g id="node9" class="node"><title>Node9</title>
<polygon fill="white" stroke="#bfbfbf" points="648.864,-0.5 648.864,-19.5 696.864,-19.5 696.864,-0.5 648.864,-0.5"/>
<text text-anchor="middle" x="672.864" y="-7.5" font-family="Helvetica,sans-Serif" font-size="10.00">thread</text>
</g>
<!-- Node4&#45;&gt;Node9 -->
<g id="edge8" class="edge"><title>Node4&#45;&gt;Node9</title>
<path fill="none" stroke="midnightblue" d="M549.998,-56.4435C574.346,-47.4381 612.871,-33.1891 640.287,-23.049"/>
<polygon fill="midnightblue" stroke="midnightblue" points="641.673,-26.2681 649.838,-19.5164 639.245,-19.7028 641.673,-26.2681"/>
</g>
<!-- Node11&#45;&gt;Node3 -->
<g id="edge29" class="edge"><title>Node11&#45;&gt;Node3</title>
<path fill="none" stroke="midnightblue" d="M341.004,-302.497C258.585,-292.394 132.158,-275.69 111.864,-266 62.8536,-242.597 2.26596,-208.128 38.8643,-168 67.2698,-136.855 344.147,-126.963 467.772,-124.083"/>
<polygon fill="midnightblue" stroke="midnightblue" points="467.907,-127.581 477.826,-123.857 467.749,-120.583 467.907,-127.581"/>
</g>
<!-- Node12 -->
<g id="node12" class="node"><title>Node12</title>
<g id="a_node12"><a xlink:href="AlignedStdVector_8hpp.html" target="_top" xlink:title="Core/Containers/AlignedStd\lVector.hpp">
<polygon fill="white" stroke="black" points="121.364,-235.5 121.364,-265.5 270.364,-265.5 270.364,-235.5 121.364,-235.5"/>
<text text-anchor="start" x="129.364" y="-253.5" font-family="Helvetica,sans-Serif" font-size="10.00">Core/Containers/AlignedStd</text>
<text text-anchor="middle" x="195.864" y="-242.5" font-family="Helvetica,sans-Serif" font-size="10.00">Vector.hpp</text>
</a>
</g>
</g>
<!-- Node11&#45;&gt;Node12 -->
<g id="edge11" class="edge"><title>Node11&#45;&gt;Node12</title>
<path fill="none" stroke="midnightblue" d="M381.773,-302.475C349.294,-293.569 297.503,-279.369 256.825,-268.215"/>
<polygon fill="midnightblue" stroke="midnightblue" points="257.576,-264.792 247.007,-265.523 255.725,-271.543 257.576,-264.792"/>
</g>
<!-- Node14 -->
<g id="node14" class="node"><title>Node14</title>
<polygon fill="white" stroke="#bfbfbf" points="198.364,-174 198.364,-193 245.364,-193 245.364,-174 198.364,-174"/>
<text text-anchor="middle" x="221.864" y="-181" font-family="Helvetica,sans-Serif" font-size="10.00">vector</text>
</g>
<!-- Node11&#45;&gt;Node14 -->
<g id="edge30" class="edge"><title>Node11&#45;&gt;Node14</title>
<path fill="none" stroke="midnightblue" d="M399.736,-302.305C367.287,-280.814 283.06,-225.03 243.275,-198.68"/>
<polygon fill="midnightblue" stroke="midnightblue" points="245.102,-195.692 234.832,-193.088 241.236,-201.528 245.102,-195.692"/>
</g>
<!-- Node11&#45;&gt;Node15 -->
<g id="edge15" class="edge"><title>Node11&#45;&gt;Node15</title>
<path fill="none" stroke="midnightblue" d="M438.511,-302.475C469.481,-292.18 521.738,-274.81 556.515,-263.25"/>
<polygon fill="midnightblue" stroke="midnightblue" points="557.88,-266.485 566.266,-260.009 555.672,-259.842 557.88,-266.485"/>
</g>
<!-- Node12&#45;&gt;Node3 -->
<g id="edge12" class="edge"><title>Node12&#45;&gt;Node3</title>
<path fill="none" stroke="midnightblue" d="M189.159,-235.493C181.669,-217.56 172.585,-186.59 188.864,-168 206.908,-147.395 375.498,-133.064 467.545,-126.705"/>
<polygon fill="midnightblue" stroke="midnightblue" points="467.822,-130.194 477.562,-126.023 467.347,-123.21 467.822,-130.194"/>
</g>
<!-- Node13 -->
<g id="node13" class="node"><title>Node13</title>
<polygon fill="white" stroke="#bfbfbf" points="48.3643,-174 48.3643,-193 141.364,-193 141.364,-174 48.3643,-174"/>
<text text-anchor="middle" x="94.8643" y="-181" font-family="Helvetica,sans-Serif" font-size="10.00">Eigen/StdVector</text>
</g>
<!-- Node12&#45;&gt;Node13 -->
<g id="edge13" class="edge"><title>Node12&#45;&gt;Node13</title>
<path fill="none" stroke="midnightblue" d="M173.949,-235.396C157.011,-224.496 133.677,-209.479 116.748,-198.584"/>
<polygon fill="midnightblue" stroke="midnightblue" points="118.386,-195.476 108.083,-193.007 114.598,-201.362 118.386,-195.476"/>
</g>
<!-- Node12&#45;&gt;Node14 -->
<g id="edge14" class="edge"><title>Node12&#45;&gt;Node14</title>
<path fill="none" stroke="midnightblue" d="M201.506,-235.396C205.359,-225.763 210.498,-212.914 214.649,-202.537"/>
<polygon fill="midnightblue" stroke="midnightblue" points="217.922,-203.779 218.386,-193.195 211.423,-201.179 217.922,-203.779"/>
</g>
<!-- Node15&#45;&gt;Node3 -->
<g id="edge16" class="edge"><title>Node15&#45;&gt;Node3</title>
<path fill="none" stroke="midnightblue" d="M670.015,-250.355C767.174,-249.553 924.776,-241.495 961.864,-199 970.924,-188.62 971.092,-178.231 961.864,-168 937.179,-140.629 699.648,-128.89 586.382,-124.816"/>
<polygon fill="midnightblue" stroke="midnightblue" points="586.264,-121.31 576.147,-124.457 586.018,-128.306 586.264,-121.31"/>
</g>
<!-- Node16 -->
<g id="node16" class="node"><title>Node16</title>
<polygon fill="white" stroke="#bfbfbf" points="263.864,-174 263.864,-193 331.864,-193 331.864,-174 263.864,-174"/>
<text text-anchor="middle" x="297.864" y="-181" font-family="Helvetica,sans-Serif" font-size="10.00">Eigen/Core</text>
</g>
<!-- Node15&#45;&gt;Node16 -->
<g id="edge17" class="edge"><title>Node15&#45;&gt;Node16</title>
<path fill="none" stroke="midnightblue" d="M539.501,-240.958C488.412,-232.158 408.7,-217.183 340.864,-199 337.668,-198.143 334.363,-197.177 331.072,-196.161"/>
<polygon fill="midnightblue" stroke="midnightblue" points="331.949,-192.767 321.357,-193.021 329.796,-199.427 331.949,-192.767"/>
</g>
<!-- Node17 -->
<g id="node17" class="node"><title>Node17</title>
<polygon fill="white" stroke="#bfbfbf" points="349.864,-174 349.864,-193 443.864,-193 443.864,-174 349.864,-174"/>
<text text-anchor="middle" x="396.864" y="-181" font-family="Helvetica,sans-Serif" font-size="10.00">Eigen/Geometry</text>
</g>
<!-- Node15&#45;&gt;Node17 -->
<g id="edge18" class="edge"><title>Node15&#45;&gt;Node17</title>
<path fill="none" stroke="midnightblue" d="M565.97,-240.869C531.638,-229.424 470.906,-209.181 432.331,-196.322"/>
<polygon fill="midnightblue" stroke="midnightblue" points="433.149,-192.906 422.555,-193.064 430.935,-199.546 433.149,-192.906"/>
</g>
<!-- Node18 -->
<g id="node18" class="node"><title>Node18</title>
<polygon fill="white" stroke="#bfbfbf" points="461.864,-174 461.864,-193 541.864,-193 541.864,-174 461.864,-174"/>
<text text-anchor="middle" x="501.864" y="-181" font-family="Helvetica,sans-Serif" font-size="10.00">Eigen/Sparse</text>
</g>
<!-- Node15&#45;&gt;Node18 -->
<g id="edge19" class="edge"><title>Node15&#45;&gt;Node18</title>
<path fill="none" stroke="midnightblue" d="M579.726,-240.734C565.017,-230.111 540.008,-212.049 522.307,-199.264"/>
<polygon fill="midnightblue" stroke="midnightblue" points="523.966,-196.145 513.81,-193.127 519.867,-201.82 523.966,-196.145"/>
</g>
<!-- Node19 -->
<g id="node19" class="node"><title>Node19</title>
<polygon fill="white" stroke="#bfbfbf" points="560.364,-174 560.364,-193 623.364,-193 623.364,-174 560.364,-174"/>
<text text-anchor="middle" x="591.864" y="-181" font-family="Helvetica,sans-Serif" font-size="10.00">functional</text>
</g>
<!-- Node15&#45;&gt;Node19 -->
<g id="edge20" class="edge"><title>Node15&#45;&gt;Node19</title>
<path fill="none" stroke="midnightblue" d="M591.864,-240.734C591.864,-231.183 591.864,-215.618 591.864,-203.283"/>
<polygon fill="midnightblue" stroke="midnightblue" points="595.364,-203.127 591.864,-193.127 588.364,-203.127 595.364,-203.127"/>
</g>
<!-- Node20 -->
<g id="node20" class="node"><title>Node20</title>
<polygon fill="white" stroke="#bfbfbf" points="641.364,-168.5 641.364,-198.5 786.364,-198.5 786.364,-168.5 641.364,-168.5"/>
<text text-anchor="start" x="649.364" y="-186.5" font-family="Helvetica,sans-Serif" font-size="10.00">unsupported/Eigen/Aligned</text>
<text text-anchor="middle" x="713.864" y="-175.5" font-family="Helvetica,sans-Serif" font-size="10.00">Vector3</text>
</g>
<!-- Node15&#45;&gt;Node20 -->
<g id="edge21" class="edge"><title>Node15&#45;&gt;Node20</title>
<path fill="none" stroke="midnightblue" d="M608.065,-240.869C625.918,-231.357 655.181,-215.765 678.412,-203.389"/>
<polygon fill="midnightblue" stroke="midnightblue" points="680.123,-206.443 687.303,-198.652 676.831,-200.265 680.123,-206.443"/>
</g>
<!-- Node15&#45;&gt;Node21 -->
<g id="edge22" class="edge"><title>Node15&#45;&gt;Node21</title>
<path fill="none" stroke="midnightblue" d="M661.056,-240.992C741.35,-231.08 877.729,-214.13 994.864,-199 1008.42,-197.249 1022.93,-195.342 1036.79,-193.505"/>
<polygon fill="midnightblue" stroke="midnightblue" points="1037.29,-196.969 1046.74,-192.182 1036.37,-190.03 1037.29,-196.969"/>
</g>
<!-- Node25 -->
<g id="node25" class="node"><title>Node25</title>
<g id="a_node25"><a xlink:href="LinearAlgebra_8inl.html" target="_top" xlink:title="Core/Math/LinearAlgebra.inl">
<polygon fill="white" stroke="black" points="804.364,-174 804.364,-193 953.364,-193 953.364,-174 804.364,-174"/>
<text text-anchor="middle" x="878.864" y="-181" font-family="Helvetica,sans-Serif" font-size="10.00">Core/Math/LinearAlgebra.inl</text>
</a>
</g>
</g>
<!-- Node15&#45;&gt;Node25 -->
<g id="edge28" class="edge"><title>Node15&#45;&gt;Node25</title>
<path fill="none" stroke="midnightblue" d="M629.68,-240.936C681.516,-229.196 774.638,-208.105 831.191,-195.297"/>
<polygon fill="midnightblue" stroke="midnightblue" points="831.985,-198.706 840.965,-193.083 830.439,-191.879 831.985,-198.706"/>
</g>
<!-- Node21&#45;&gt;Node3 -->
<g id="edge23" class="edge"><title>Node21&#45;&gt;Node3</title>
<path fill="none" stroke="midnightblue" d="M1066.05,-173.955C1055.36,-171.764 1043.69,-169.582 1032.86,-168 872.206,-144.527 680.937,-131.543 586.169,-126.1"/>
<polygon fill="midnightblue" stroke="midnightblue" points="586.107,-122.591 575.925,-125.52 585.711,-129.58 586.107,-122.591"/>
</g>
<!-- Node22 -->
<g id="node22" class="node"><title>Node22</title>
<polygon fill="white" stroke="#bfbfbf" points="951.864,-112.5 951.864,-131.5 1013.86,-131.5 1013.86,-112.5 951.864,-112.5"/>
<text text-anchor="middle" x="982.864" y="-119.5" font-family="Helvetica,sans-Serif" font-size="10.00">algorithm</text>
</g>
<!-- Node21&#45;&gt;Node22 -->
<g id="edge24" class="edge"><title>Node21&#45;&gt;Node22</title>
<path fill="none" stroke="midnightblue" d="M1086.53,-173.975C1066.31,-164.034 1032.68,-147.495 1009.22,-135.961"/>
<polygon fill="midnightblue" stroke="midnightblue" points="1010.69,-132.781 1000.17,-131.509 1007.6,-139.063 1010.69,-132.781"/>
</g>
<!-- Node23 -->
<g id="node23" class="node"><title>Node23</title>
<polygon fill="white" stroke="#bfbfbf" points="1032.36,-112.5 1032.36,-131.5 1079.36,-131.5 1079.36,-112.5 1032.36,-112.5"/>
<text text-anchor="middle" x="1055.86" y="-119.5" font-family="Helvetica,sans-Serif" font-size="10.00">cmath</text>
</g>
<!-- Node21&#45;&gt;Node23 -->
<g id="edge25" class="edge"><title>Node21&#45;&gt;Node23</title>
<path fill="none" stroke="midnightblue" d="M1096.99,-173.975C1089.72,-164.962 1078.07,-150.525 1069.02,-139.312"/>
<polygon fill="midnightblue" stroke="midnightblue" points="1071.73,-137.095 1062.73,-131.509 1066.28,-141.49 1071.73,-137.095"/>
</g>
<!-- Node24 -->
<g id="node24" class="node"><title>Node24</title>
<g id="a_node24"><a xlink:href="Math_8inl.html" target="_top" xlink:title="Core/Math/Math.inl">
<polygon fill="white" stroke="black" points="1097.36,-112.5 1097.36,-131.5 1204.36,-131.5 1204.36,-112.5 1097.36,-112.5"/>
<text text-anchor="middle" x="1150.86" y="-119.5" font-family="Helvetica,sans-Serif" font-size="10.00">Core/Math/Math.inl</text>
</a>
</g>
</g>
<!-- Node21&#45;&gt;Node24 -->
<g id="edge26" class="edge"><title>Node21&#45;&gt;Node24</title>
<path fill="none" stroke="midnightblue" d="M1105.7,-173.975C1110.9,-164.873 1122.07,-150.241 1132.18,-138.983"/>
<polygon fill="midnightblue" stroke="midnightblue" points="1134.92,-141.18 1139.25,-131.509 1129.83,-136.37 1134.92,-141.18"/>
</g>
<!-- Node24&#45;&gt;Node21 -->
<g id="edge27" class="edge"><title>Node24&#45;&gt;Node21</title>
<path fill="none" stroke="midnightblue" d="M1149.04,-131.509C1143.84,-140.604 1132.67,-155.236 1122.57,-166.497"/>
<polygon fill="midnightblue" stroke="midnightblue" points="1119.83,-164.304 1115.5,-173.975 1124.91,-169.113 1119.83,-164.304"/>
</g>
<!-- Node26&#45;&gt;Node3 -->
<g id="edge34" class="edge"><title>Node26&#45;&gt;Node3</title>
<path fill="none" stroke="midnightblue" d="M985.236,-302.174C994.086,-277.346 1014.96,-206.22 979.864,-168 953.723,-139.536 703.08,-128.298 586.256,-124.58"/>
<polygon fill="midnightblue" stroke="midnightblue" points="586.158,-121.075 576.054,-124.263 585.941,-128.072 586.158,-121.075"/>
</g>
<!-- Node26&#45;&gt;Node15 -->
<g id="edge35" class="edge"><title>Node26&#45;&gt;Node15</title>
<path fill="none" stroke="midnightblue" d="M926.814,-302.601C855.98,-291.795 733.075,-273.044 657.469,-261.509"/>
<polygon fill="midnightblue" stroke="midnightblue" points="657.994,-258.049 647.581,-260 656.938,-264.969 657.994,-258.049"/>
</g>
<!-- Node27 -->
<g id="node27" class="node"><title>Node27</title>
<g id="a_node27"><a xlink:href="Obb_8inl.html" target="_top" xlink:title="Core/Math/Obb.inl">
<polygon fill="white" stroke="black" points="1009.86,-241 1009.86,-260 1111.86,-260 1111.86,-241 1009.86,-241"/>
<text text-anchor="middle" x="1060.86" y="-248" font-family="Helvetica,sans-Serif" font-size="10.00">Core/Math/Obb.inl</text>
</a>
</g>
</g>
<!-- Node26&#45;&gt;Node27 -->
<g id="edge36" class="edge"><title>Node26&#45;&gt;Node27</title>
<path fill="none" stroke="midnightblue" d="M988.282,-302.475C998.872,-292.931 1019.29,-277.307 1035.91,-265.868"/>
<polygon fill="midnightblue" stroke="midnightblue" points="1038.3,-268.479 1044.67,-260.009 1034.41,-262.662 1038.3,-268.479"/>
</g>
<!-- Node27&#45;&gt;Node26 -->
<g id="edge37" class="edge"><title>Node27&#45;&gt;Node26</title>
<path fill="none" stroke="midnightblue" d="M1054.46,-260.009C1043.88,-269.546 1023.47,-285.169 1006.84,-296.613"/>
<polygon fill="midnightblue" stroke="midnightblue" points="1004.45,-294.004 998.084,-302.475 1008.34,-299.822 1004.45,-294.004"/>
</g>
</g>
</svg>
