<?xml version="1.0" encoding="UTF-8" standalone="no"?>
<!DOCTYPE svg PUBLIC "-//W3C//DTD SVG 1.1//EN"
 "http://www.w3.org/Graphics/SVG/1.1/DTD/svg11.dtd">
<!-- Generated by graphviz version 2.38.0 (20140413.2041)
 -->
<!-- Title: /home/travis/build/STORM&#45;IRIT/Radium&#45;Engine/src/Core/Geometry/PointCloud/PointCloud.hpp Pages: 1 -->
<svg width="1196pt" height="430pt"
 viewBox="0.00 0.00 1195.95 430.00" xmlns="http://www.w3.org/2000/svg" xmlns:xlink="http://www.w3.org/1999/xlink">
<g id="graph0" class="graph" transform="scale(1 1) rotate(0) translate(4 426)">
<title>/home/travis/build/STORM&#45;IRIT/Radium&#45;Engine/src/Core/Geometry/PointCloud/PointCloud.hpp</title>
<polygon fill="white" stroke="none" points="-4,4 -4,-426 1191.95,-426 1191.95,4 -4,4"/>
<!-- Node1 -->
<g id="node1" class="node"><title>Node1</title>
<polygon fill="#bfbfbf" stroke="black" points="723.949,-369.5 723.949,-421.5 887.949,-421.5 887.949,-369.5 723.949,-369.5"/>
<text text-anchor="start" x="731.949" y="-409.5" font-family="Helvetica,sans-Serif" font-size="10.00">/home/travis/build</text>
<text text-anchor="start" x="731.949" y="-398.5" font-family="Helvetica,sans-Serif" font-size="10.00">/STORM&#45;IRIT/Radium&#45;Engine</text>
<text text-anchor="start" x="731.949" y="-387.5" font-family="Helvetica,sans-Serif" font-size="10.00">/src/Core/Geometry/PointCloud</text>
<text text-anchor="middle" x="805.949" y="-376.5" font-family="Helvetica,sans-Serif" font-size="10.00">/PointCloud.hpp</text>
</g>
<!-- Node2 -->
<g id="node2" class="node"><title>Node2</title>
<g id="a_node2"><a xlink:href="RaCore_8hpp.html" target="_top" xlink:title="Core/RaCore.hpp">
<polygon fill="white" stroke="black" points="452.949,-112.5 452.949,-131.5 550.949,-131.5 550.949,-112.5 452.949,-112.5"/>
<text text-anchor="middle" x="501.949" y="-119.5" font-family="Helvetica,sans-Serif" font-size="10.00">Core/RaCore.hpp</text>
</a>
</g>
</g>
<!-- Node1&#45;&gt;Node2 -->
<g id="edge1" class="edge"><title>Node1&#45;&gt;Node2</title>
<path fill="none" stroke="midnightblue" d="M723.673,-390.92C546.828,-381.659 138.006,-351.358 32.9486,-266 7.90049,-245.649 11.2947,-230.643 4.9486,-199 2.2394,-185.491 -4.34412,-178.172 4.9486,-168 33.9709,-136.231 317.257,-126.669 442.694,-123.98"/>
<polygon fill="midnightblue" stroke="midnightblue" points="442.964,-127.475 452.889,-123.769 442.819,-120.477 442.964,-127.475"/>
</g>
<!-- Node9 -->
<g id="node9" class="node"><title>Node9</title>
<polygon fill="white" stroke="#bfbfbf" points="391.449,-308 391.449,-327 494.449,-327 494.449,-308 391.449,-308"/>
<text text-anchor="middle" x="442.949" y="-315" font-family="Helvetica,sans-Serif" font-size="10.00">Eigen/Eigenvalues</text>
</g>
<!-- Node1&#45;&gt;Node9 -->
<g id="edge8" class="edge"><title>Node1&#45;&gt;Node9</title>
<path fill="none" stroke="midnightblue" d="M723.792,-378.675C662.742,-366.71 577.485,-349.565 502.949,-333 497.912,-331.881 492.649,-330.67 487.421,-329.441"/>
<polygon fill="midnightblue" stroke="midnightblue" points="488.02,-325.986 477.481,-327.076 486.399,-332.796 488.02,-325.986"/>
</g>
<!-- Node10 -->
<g id="node10" class="node"><title>Node10</title>
<g id="a_node10"><a xlink:href="VectorArray_8hpp.html" target="_top" xlink:title="Core/Containers/VectorArray.hpp">
<polygon fill="white" stroke="black" points="512.449,-308 512.449,-327 685.449,-327 685.449,-308 512.449,-308"/>
<text text-anchor="middle" x="598.949" y="-315" font-family="Helvetica,sans-Serif" font-size="10.00">Core/Containers/VectorArray.hpp</text>
</a>
</g>
</g>
<!-- Node1&#45;&gt;Node10 -->
<g id="edge9" class="edge"><title>Node1&#45;&gt;Node10</title>
<path fill="none" stroke="midnightblue" d="M737.595,-369.404C701.99,-356.331 660.087,-340.947 631.741,-330.54"/>
<polygon fill="midnightblue" stroke="midnightblue" points="632.906,-327.239 622.312,-327.078 630.493,-333.81 632.906,-327.239"/>
</g>
<!-- Node14 -->
<g id="node14" class="node"><title>Node14</title>
<g id="a_node14"><a xlink:href="LinearAlgebra_8hpp.html" target="_top" xlink:title="Core/Math/LinearAlgebra.hpp">
<polygon fill="white" stroke="black" points="610.949,-241 610.949,-260 766.949,-260 766.949,-241 610.949,-241"/>
<text text-anchor="middle" x="688.949" y="-248" font-family="Helvetica,sans-Serif" font-size="10.00">Core/Math/LinearAlgebra.hpp</text>
</a>
</g>
</g>
<!-- Node1&#45;&gt;Node14 -->
<g id="edge30" class="edge"><title>Node1&#45;&gt;Node14</title>
<path fill="none" stroke="midnightblue" d="M785.301,-369.264C761.358,-340 722.59,-292.618 702.299,-267.817"/>
<polygon fill="midnightblue" stroke="midnightblue" points="704.988,-265.577 695.947,-260.053 699.57,-270.009 704.988,-265.577"/>
</g>
<!-- Node20 -->
<g id="node20" class="node"><title>Node20</title>
<g id="a_node20"><a xlink:href="Math_8hpp.html" target="_top" xlink:title="Core/Math/Math.hpp">
<polygon fill="white" stroke="black" points="1021.95,-174 1021.95,-193 1135.95,-193 1135.95,-174 1021.95,-174"/>
<text text-anchor="middle" x="1078.95" y="-181" font-family="Helvetica,sans-Serif" font-size="10.00">Core/Math/Math.hpp</text>
</a>
</g>
</g>
<!-- Node1&#45;&gt;Node20 -->
<g id="edge31" class="edge"><title>Node1&#45;&gt;Node20</title>
<path fill="none" stroke="midnightblue" d="M859.787,-369.382C879.922,-359.115 902.589,-346.482 921.949,-333 958.628,-307.457 964.419,-296.654 996.949,-266 1020.55,-243.76 1047.02,-217.131 1063.34,-200.51"/>
<polygon fill="midnightblue" stroke="midnightblue" points="1065.98,-202.813 1070.48,-193.218 1060.98,-197.916 1065.98,-202.813"/>
</g>
<!-- Node25 -->
<g id="node25" class="node"><title>Node25</title>
<g id="a_node25"><a xlink:href="Obb_8hpp.html" target="_top" xlink:title="Core/Math/Obb.hpp">
<polygon fill="white" stroke="black" points="802.949,-308 802.949,-327 912.949,-327 912.949,-308 802.949,-308"/>
<text text-anchor="middle" x="857.949" y="-315" font-family="Helvetica,sans-Serif" font-size="10.00">Core/Math/Obb.hpp</text>
</a>
</g>
</g>
<!-- Node1&#45;&gt;Node25 -->
<g id="edge32" class="edge"><title>Node1&#45;&gt;Node25</title>
<path fill="none" stroke="midnightblue" d="M823.264,-369.193C830.787,-358.198 839.405,-345.602 846.169,-335.716"/>
<polygon fill="midnightblue" stroke="midnightblue" points="849.232,-337.438 851.99,-327.209 843.454,-333.486 849.232,-337.438"/>
</g>
<!-- Node27 -->
<g id="node27" class="node"><title>Node27</title>
<g id="a_node27"><a xlink:href="PointCloud_8inl.html" target="_top" xlink:title="Core/Geometry/PointCloud\l/PointCloud.inl">
<polygon fill="white" stroke="black" points="1043.95,-302.5 1043.95,-332.5 1187.95,-332.5 1187.95,-302.5 1043.95,-302.5"/>
<text text-anchor="start" x="1051.95" y="-320.5" font-family="Helvetica,sans-Serif" font-size="10.00">Core/Geometry/PointCloud</text>
<text text-anchor="middle" x="1115.95" y="-309.5" font-family="Helvetica,sans-Serif" font-size="10.00">/PointCloud.inl</text>
</a>
</g>
</g>
<!-- Node1&#45;&gt;Node27 -->
<g id="edge37" class="edge"><title>Node1&#45;&gt;Node27</title>
<path fill="none" stroke="midnightblue" d="M888.204,-372.823C936.466,-360.765 996.858,-346 1043.35,-334.908"/>
<polygon fill="midnightblue" stroke="midnightblue" points="1044.44,-338.248 1053.35,-332.528 1042.81,-331.438 1044.44,-338.248"/>
</g>
<!-- Node3 -->
<g id="node3" class="node"><title>Node3</title>
<g id="a_node3"><a xlink:href="CoreMacros_8hpp.html" target="_top" xlink:title="Core/CoreMacros.hpp">
<polygon fill="white" stroke="black" points="441.949,-56.5 441.949,-75.5 561.949,-75.5 561.949,-56.5 441.949,-56.5"/>
<text text-anchor="middle" x="501.949" y="-63.5" font-family="Helvetica,sans-Serif" font-size="10.00">Core/CoreMacros.hpp</text>
</a>
</g>
</g>
<!-- Node2&#45;&gt;Node3 -->
<g id="edge2" class="edge"><title>Node2&#45;&gt;Node3</title>
<path fill="none" stroke="midnightblue" d="M501.949,-112.083C501.949,-105.006 501.949,-94.8611 501.949,-85.9865"/>
<polygon fill="midnightblue" stroke="midnightblue" points="505.449,-85.751 501.949,-75.7511 498.449,-85.7511 505.449,-85.751"/>
</g>
<!-- Node4 -->
<g id="node4" class="node"><title>Node4</title>
<polygon fill="white" stroke="#bfbfbf" points="338.949,-0.5 338.949,-19.5 390.949,-19.5 390.949,-0.5 338.949,-0.5"/>
<text text-anchor="middle" x="364.949" y="-7.5" font-family="Helvetica,sans-Serif" font-size="10.00">cassert</text>
</g>
<!-- Node3&#45;&gt;Node4 -->
<g id="edge3" class="edge"><title>Node3&#45;&gt;Node4</title>
<path fill="none" stroke="midnightblue" d="M480.241,-56.4435C457.594,-47.5171 421.876,-33.4387 396.197,-23.3168"/>
<polygon fill="midnightblue" stroke="midnightblue" points="397.142,-19.9273 386.555,-19.5164 394.575,-26.4397 397.142,-19.9273"/>
</g>
<!-- Node5 -->
<g id="node5" class="node"><title>Node5</title>
<polygon fill="white" stroke="#bfbfbf" points="409.449,-0.5 409.449,-19.5 454.449,-19.5 454.449,-0.5 409.449,-0.5"/>
<text text-anchor="middle" x="431.949" y="-7.5" font-family="Helvetica,sans-Serif" font-size="10.00">cstdio</text>
</g>
<!-- Node3&#45;&gt;Node5 -->
<g id="edge4" class="edge"><title>Node3&#45;&gt;Node5</title>
<path fill="none" stroke="midnightblue" d="M490.702,-56.324C480.151,-48.1849 464.148,-35.8395 451.506,-26.0874"/>
<polygon fill="midnightblue" stroke="midnightblue" points="453.456,-23.1707 443.4,-19.8339 449.18,-28.7132 453.456,-23.1707"/>
</g>
<!-- Node6 -->
<g id="node6" class="node"><title>Node6</title>
<polygon fill="white" stroke="#bfbfbf" points="472.449,-0.5 472.449,-19.5 531.449,-19.5 531.449,-0.5 472.449,-0.5"/>
<text text-anchor="middle" x="501.949" y="-7.5" font-family="Helvetica,sans-Serif" font-size="10.00">iostream</text>
</g>
<!-- Node3&#45;&gt;Node6 -->
<g id="edge5" class="edge"><title>Node3&#45;&gt;Node6</title>
<path fill="none" stroke="midnightblue" d="M501.949,-56.083C501.949,-49.0059 501.949,-38.8611 501.949,-29.9865"/>
<polygon fill="midnightblue" stroke="midnightblue" points="505.449,-29.751 501.949,-19.7511 498.449,-29.7511 505.449,-29.751"/>
</g>
<!-- Node7 -->
<g id="node7" class="node"><title>Node7</title>
<polygon fill="white" stroke="#bfbfbf" points="549.949,-0.5 549.949,-19.5 605.949,-19.5 605.949,-0.5 549.949,-0.5"/>
<text text-anchor="middle" x="577.949" y="-7.5" font-family="Helvetica,sans-Serif" font-size="10.00">sstream</text>
</g>
<!-- Node3&#45;&gt;Node7 -->
<g id="edge6" class="edge"><title>Node3&#45;&gt;Node7</title>
<path fill="none" stroke="midnightblue" d="M514.159,-56.324C525.724,-48.1066 543.324,-35.6017 557.109,-25.8069"/>
<polygon fill="midnightblue" stroke="midnightblue" points="559.391,-28.4791 565.516,-19.8339 555.337,-22.7729 559.391,-28.4791"/>
</g>
<!-- Node8 -->
<g id="node8" class="node"><title>Node8</title>
<polygon fill="white" stroke="#bfbfbf" points="623.949,-0.5 623.949,-19.5 671.949,-19.5 671.949,-0.5 623.949,-0.5"/>
<text text-anchor="middle" x="647.949" y="-7.5" font-family="Helvetica,sans-Serif" font-size="10.00">thread</text>
</g>
<!-- Node3&#45;&gt;Node8 -->
<g id="edge7" class="edge"><title>Node3&#45;&gt;Node8</title>
<path fill="none" stroke="midnightblue" d="M525.083,-56.4435C549.431,-47.4381 587.956,-33.1891 615.372,-23.049"/>
<polygon fill="midnightblue" stroke="midnightblue" points="616.758,-26.2681 624.923,-19.5164 614.33,-19.7028 616.758,-26.2681"/>
</g>
<!-- Node10&#45;&gt;Node2 -->
<g id="edge28" class="edge"><title>Node10&#45;&gt;Node2</title>
<path fill="none" stroke="midnightblue" d="M546.715,-307.994C532.539,-305.854 517.176,-303.688 502.949,-302 410.805,-291.065 171.883,-303.365 86.9486,-266 46.6387,-248.267 31.6686,-239.316 13.9486,-199 8.40471,-186.387 4.6643,-178.18 13.9486,-168 42.3541,-136.855 319.232,-126.963 442.856,-124.083"/>
<polygon fill="midnightblue" stroke="midnightblue" points="442.992,-127.581 452.91,-123.857 442.834,-120.583 442.992,-127.581"/>
</g>
<!-- Node11 -->
<g id="node11" class="node"><title>Node11</title>
<g id="a_node11"><a xlink:href="AlignedStdVector_8hpp.html" target="_top" xlink:title="Core/Containers/AlignedStd\lVector.hpp">
<polygon fill="white" stroke="black" points="96.4486,-235.5 96.4486,-265.5 245.449,-265.5 245.449,-235.5 96.4486,-235.5"/>
<text text-anchor="start" x="104.449" y="-253.5" font-family="Helvetica,sans-Serif" font-size="10.00">Core/Containers/AlignedStd</text>
<text text-anchor="middle" x="170.949" y="-242.5" font-family="Helvetica,sans-Serif" font-size="10.00">Vector.hpp</text>
</a>
</g>
</g>
<!-- Node10&#45;&gt;Node11 -->
<g id="edge10" class="edge"><title>Node10&#45;&gt;Node11</title>
<path fill="none" stroke="midnightblue" d="M542.555,-307.936C469.19,-296.794 340.37,-277.23 255.342,-264.317"/>
<polygon fill="midnightblue" stroke="midnightblue" points="255.867,-260.856 245.455,-262.815 254.816,-267.777 255.867,-260.856"/>
</g>
<!-- Node13 -->
<g id="node13" class="node"><title>Node13</title>
<polygon fill="white" stroke="#bfbfbf" points="173.449,-174 173.449,-193 220.449,-193 220.449,-174 173.449,-174"/>
<text text-anchor="middle" x="196.949" y="-181" font-family="Helvetica,sans-Serif" font-size="10.00">vector</text>
</g>
<!-- Node10&#45;&gt;Node13 -->
<g id="edge29" class="edge"><title>Node10&#45;&gt;Node13</title>
<path fill="none" stroke="midnightblue" d="M568.443,-307.973C504.804,-289.927 353.538,-245.68 229.949,-199 228.339,-198.392 226.694,-197.747 225.04,-197.081"/>
<polygon fill="midnightblue" stroke="midnightblue" points="226.229,-193.783 215.654,-193.129 223.512,-200.235 226.229,-193.783"/>
</g>
<!-- Node10&#45;&gt;Node14 -->
<g id="edge14" class="edge"><title>Node10&#45;&gt;Node14</title>
<path fill="none" stroke="midnightblue" d="M611.086,-307.734C625.796,-297.111 650.804,-279.049 668.506,-266.264"/>
<polygon fill="midnightblue" stroke="midnightblue" points="670.946,-268.82 677.003,-260.127 666.847,-263.145 670.946,-268.82"/>
</g>
<!-- Node11&#45;&gt;Node2 -->
<g id="edge11" class="edge"><title>Node11&#45;&gt;Node2</title>
<path fill="none" stroke="midnightblue" d="M164.243,-235.493C156.754,-217.56 147.669,-186.59 163.949,-168 181.992,-147.395 350.582,-133.064 442.629,-126.705"/>
<polygon fill="midnightblue" stroke="midnightblue" points="442.907,-130.194 452.646,-126.023 442.432,-123.21 442.907,-130.194"/>
</g>
<!-- Node12 -->
<g id="node12" class="node"><title>Node12</title>
<polygon fill="white" stroke="#bfbfbf" points="23.4486,-174 23.4486,-193 116.449,-193 116.449,-174 23.4486,-174"/>
<text text-anchor="middle" x="69.9486" y="-181" font-family="Helvetica,sans-Serif" font-size="10.00">Eigen/StdVector</text>
</g>
<!-- Node11&#45;&gt;Node12 -->
<g id="edge12" class="edge"><title>Node11&#45;&gt;Node12</title>
<path fill="none" stroke="midnightblue" d="M149.033,-235.396C132.096,-224.496 108.762,-209.479 91.8322,-198.584"/>
<polygon fill="midnightblue" stroke="midnightblue" points="93.4704,-195.476 83.1672,-193.007 89.6821,-201.362 93.4704,-195.476"/>
</g>
<!-- Node11&#45;&gt;Node13 -->
<g id="edge13" class="edge"><title>Node11&#45;&gt;Node13</title>
<path fill="none" stroke="midnightblue" d="M176.59,-235.396C180.443,-225.763 185.583,-212.914 189.734,-202.537"/>
<polygon fill="midnightblue" stroke="midnightblue" points="193.006,-203.779 193.471,-193.195 186.507,-201.179 193.006,-203.779"/>
</g>
<!-- Node14&#45;&gt;Node2 -->
<g id="edge15" class="edge"><title>Node14&#45;&gt;Node2</title>
<path fill="none" stroke="midnightblue" d="M767.071,-244.165C831.529,-237.943 915.718,-224.989 936.949,-199 945.665,-188.33 946.176,-178.231 936.949,-168 912.263,-140.629 674.732,-128.89 561.466,-124.816"/>
<polygon fill="midnightblue" stroke="midnightblue" points="561.348,-121.31 551.231,-124.457 561.102,-128.306 561.348,-121.31"/>
</g>
<!-- Node15 -->
<g id="node15" class="node"><title>Node15</title>
<polygon fill="white" stroke="#bfbfbf" points="238.949,-174 238.949,-193 306.949,-193 306.949,-174 238.949,-174"/>
<text text-anchor="middle" x="272.949" y="-181" font-family="Helvetica,sans-Serif" font-size="10.00">Eigen/Core</text>
</g>
<!-- Node14&#45;&gt;Node15 -->
<g id="edge16" class="edge"><title>Node14&#45;&gt;Node15</title>
<path fill="none" stroke="midnightblue" d="M633.896,-240.985C620.505,-238.969 606.219,-236.864 592.949,-235 470.009,-217.729 436.904,-226.969 315.949,-199 312.466,-198.195 308.867,-197.219 305.302,-196.159"/>
<polygon fill="midnightblue" stroke="midnightblue" points="306.063,-192.728 295.472,-193.02 303.933,-199.396 306.063,-192.728"/>
</g>
<!-- Node16 -->
<g id="node16" class="node"><title>Node16</title>
<polygon fill="white" stroke="#bfbfbf" points="324.949,-174 324.949,-193 418.949,-193 418.949,-174 324.949,-174"/>
<text text-anchor="middle" x="371.949" y="-181" font-family="Helvetica,sans-Serif" font-size="10.00">Eigen/Geometry</text>
</g>
<!-- Node14&#45;&gt;Node16 -->
<g id="edge17" class="edge"><title>Node14&#45;&gt;Node16</title>
<path fill="none" stroke="midnightblue" d="M640.175,-241C587.601,-231.619 501.553,-215.633 427.949,-199 423.237,-197.935 418.32,-196.759 413.44,-195.55"/>
<polygon fill="midnightblue" stroke="midnightblue" points="414.107,-192.109 403.554,-193.05 412.39,-198.895 414.107,-192.109"/>
</g>
<!-- Node17 -->
<g id="node17" class="node"><title>Node17</title>
<polygon fill="white" stroke="#bfbfbf" points="436.949,-174 436.949,-193 516.949,-193 516.949,-174 436.949,-174"/>
<text text-anchor="middle" x="476.949" y="-181" font-family="Helvetica,sans-Serif" font-size="10.00">Eigen/Sparse</text>
</g>
<!-- Node14&#45;&gt;Node17 -->
<g id="edge18" class="edge"><title>Node14&#45;&gt;Node17</title>
<path fill="none" stroke="midnightblue" d="M660.797,-240.869C623.154,-229.327 556.32,-208.835 514.442,-195.996"/>
<polygon fill="midnightblue" stroke="midnightblue" points="515.466,-192.649 504.879,-193.064 513.414,-199.341 515.466,-192.649"/>
</g>
<!-- Node18 -->
<g id="node18" class="node"><title>Node18</title>
<polygon fill="white" stroke="#bfbfbf" points="535.449,-174 535.449,-193 598.449,-193 598.449,-174 535.449,-174"/>
<text text-anchor="middle" x="566.949" y="-181" font-family="Helvetica,sans-Serif" font-size="10.00">functional</text>
</g>
<!-- Node14&#45;&gt;Node18 -->
<g id="edge19" class="edge"><title>Node14&#45;&gt;Node18</title>
<path fill="none" stroke="midnightblue" d="M672.748,-240.869C652.148,-229.893 616.357,-210.824 592.172,-197.938"/>
<polygon fill="midnightblue" stroke="midnightblue" points="593.688,-194.78 583.216,-193.167 590.396,-200.958 593.688,-194.78"/>
</g>
<!-- Node19 -->
<g id="node19" class="node"><title>Node19</title>
<polygon fill="white" stroke="#bfbfbf" points="616.449,-168.5 616.449,-198.5 761.449,-198.5 761.449,-168.5 616.449,-168.5"/>
<text text-anchor="start" x="624.449" y="-186.5" font-family="Helvetica,sans-Serif" font-size="10.00">unsupported/Eigen/Aligned</text>
<text text-anchor="middle" x="688.949" y="-175.5" font-family="Helvetica,sans-Serif" font-size="10.00">Vector3</text>
</g>
<!-- Node14&#45;&gt;Node19 -->
<g id="edge20" class="edge"><title>Node14&#45;&gt;Node19</title>
<path fill="none" stroke="midnightblue" d="M688.949,-240.734C688.949,-232.541 688.949,-219.923 688.949,-208.714"/>
<polygon fill="midnightblue" stroke="midnightblue" points="692.449,-208.589 688.949,-198.589 685.449,-208.589 692.449,-208.589"/>
</g>
<!-- Node14&#45;&gt;Node20 -->
<g id="edge21" class="edge"><title>Node14&#45;&gt;Node20</title>
<path fill="none" stroke="midnightblue" d="M740.335,-240.936C811.895,-229.009 941.355,-207.432 1017.79,-194.693"/>
<polygon fill="midnightblue" stroke="midnightblue" points="1018.47,-198.128 1027.76,-193.032 1017.32,-191.223 1018.47,-198.128"/>
</g>
<!-- Node24 -->
<g id="node24" class="node"><title>Node24</title>
<g id="a_node24"><a xlink:href="LinearAlgebra_8inl.html" target="_top" xlink:title="Core/Math/LinearAlgebra.inl">
<polygon fill="white" stroke="black" points="779.449,-174 779.449,-193 928.449,-193 928.449,-174 779.449,-174"/>
<text text-anchor="middle" x="853.949" y="-181" font-family="Helvetica,sans-Serif" font-size="10.00">Core/Math/LinearAlgebra.inl</text>
</a>
</g>
</g>
<!-- Node14&#45;&gt;Node24 -->
<g id="edge27" class="edge"><title>Node14&#45;&gt;Node24</title>
<path fill="none" stroke="midnightblue" d="M710.859,-240.869C739.539,-229.571 789.989,-209.696 822.679,-196.818"/>
<polygon fill="midnightblue" stroke="midnightblue" points="824.189,-199.985 832.21,-193.064 821.623,-193.473 824.189,-199.985"/>
</g>
<!-- Node20&#45;&gt;Node2 -->
<g id="edge22" class="edge"><title>Node20&#45;&gt;Node2</title>
<path fill="none" stroke="midnightblue" d="M1041.14,-173.955C1030.45,-171.764 1018.78,-169.582 1007.95,-168 847.29,-144.527 656.021,-131.543 561.254,-126.1"/>
<polygon fill="midnightblue" stroke="midnightblue" points="561.191,-122.591 551.009,-125.52 560.795,-129.58 561.191,-122.591"/>
</g>
<!-- Node21 -->
<g id="node21" class="node"><title>Node21</title>
<polygon fill="white" stroke="#bfbfbf" points="926.949,-112.5 926.949,-131.5 988.949,-131.5 988.949,-112.5 926.949,-112.5"/>
<text text-anchor="middle" x="957.949" y="-119.5" font-family="Helvetica,sans-Serif" font-size="10.00">algorithm</text>
</g>
<!-- Node20&#45;&gt;Node21 -->
<g id="edge23" class="edge"><title>Node20&#45;&gt;Node21</title>
<path fill="none" stroke="midnightblue" d="M1061.61,-173.975C1041.4,-164.034 1007.76,-147.495 984.306,-135.961"/>
<polygon fill="midnightblue" stroke="midnightblue" points="985.771,-132.781 975.253,-131.509 982.682,-139.063 985.771,-132.781"/>
</g>
<!-- Node22 -->
<g id="node22" class="node"><title>Node22</title>
<polygon fill="white" stroke="#bfbfbf" points="1007.45,-112.5 1007.45,-131.5 1054.45,-131.5 1054.45,-112.5 1007.45,-112.5"/>
<text text-anchor="middle" x="1030.95" y="-119.5" font-family="Helvetica,sans-Serif" font-size="10.00">cmath</text>
</g>
<!-- Node20&#45;&gt;Node22 -->
<g id="edge24" class="edge"><title>Node20&#45;&gt;Node22</title>
<path fill="none" stroke="midnightblue" d="M1072.07,-173.975C1064.8,-164.962 1053.15,-150.525 1044.11,-139.312"/>
<polygon fill="midnightblue" stroke="midnightblue" points="1046.82,-137.095 1037.81,-131.509 1041.37,-141.49 1046.82,-137.095"/>
</g>
<!-- Node23 -->
<g id="node23" class="node"><title>Node23</title>
<g id="a_node23"><a xlink:href="Math_8inl.html" target="_top" xlink:title="Core/Math/Math.inl">
<polygon fill="white" stroke="black" points="1072.45,-112.5 1072.45,-131.5 1179.45,-131.5 1179.45,-112.5 1072.45,-112.5"/>
<text text-anchor="middle" x="1125.95" y="-119.5" font-family="Helvetica,sans-Serif" font-size="10.00">Core/Math/Math.inl</text>
</a>
</g>
</g>
<!-- Node20&#45;&gt;Node23 -->
<g id="edge25" class="edge"><title>Node20&#45;&gt;Node23</title>
<path fill="none" stroke="midnightblue" d="M1080.78,-173.975C1085.99,-164.873 1097.16,-150.241 1107.26,-138.983"/>
<polygon fill="midnightblue" stroke="midnightblue" points="1110,-141.18 1114.33,-131.509 1104.92,-136.37 1110,-141.18"/>
</g>
<!-- Node23&#45;&gt;Node20 -->
<g id="edge26" class="edge"><title>Node23&#45;&gt;Node20</title>
<path fill="none" stroke="midnightblue" d="M1124.12,-131.509C1118.93,-140.604 1107.76,-155.236 1097.65,-166.497"/>
<polygon fill="midnightblue" stroke="midnightblue" points="1094.91,-164.304 1090.58,-173.975 1100,-169.113 1094.91,-164.304"/>
</g>
<!-- Node25&#45;&gt;Node2 -->
<g id="edge33" class="edge"><title>Node25&#45;&gt;Node2</title>
<path fill="none" stroke="midnightblue" d="M857.613,-307.82C857.451,-291.656 859.328,-256.625 876.949,-235 901.067,-205.401 934.371,-231.161 954.949,-199 962.374,-187.394 964.197,-178.213 954.949,-168 929.007,-139.354 678.258,-128.212 561.374,-124.549"/>
<polygon fill="midnightblue" stroke="midnightblue" points="561.269,-121.044 551.166,-124.238 561.055,-128.041 561.269,-121.044"/>
</g>
<!-- Node25&#45;&gt;Node14 -->
<g id="edge34" class="edge"><title>Node25&#45;&gt;Node14</title>
<path fill="none" stroke="midnightblue" d="M835.507,-307.869C806.132,-296.571 754.458,-276.696 720.976,-263.818"/>
<polygon fill="midnightblue" stroke="midnightblue" points="721.804,-260.387 711.214,-260.064 719.291,-266.92 721.804,-260.387"/>
</g>
<!-- Node26 -->
<g id="node26" class="node"><title>Node26</title>
<g id="a_node26"><a xlink:href="Obb_8inl.html" target="_top" xlink:title="Core/Math/Obb.inl">
<polygon fill="white" stroke="black" points="885.949,-241 885.949,-260 987.949,-260 987.949,-241 885.949,-241"/>
<text text-anchor="middle" x="936.949" y="-248" font-family="Helvetica,sans-Serif" font-size="10.00">Core/Math/Obb.inl</text>
</a>
</g>
</g>
<!-- Node25&#45;&gt;Node26 -->
<g id="edge35" class="edge"><title>Node25&#45;&gt;Node26</title>
<path fill="none" stroke="midnightblue" d="M863.814,-307.734C874.49,-297.111 896.118,-279.049 913.242,-266.264"/>
<polygon fill="midnightblue" stroke="midnightblue" points="915.663,-268.831 921.704,-260.127 911.554,-263.165 915.663,-268.831"/>
</g>
<!-- Node26&#45;&gt;Node25 -->
<g id="edge36" class="edge"><title>Node26&#45;&gt;Node25</title>
<path fill="none" stroke="midnightblue" d="M931.222,-260.127C920.642,-270.685 899.043,-288.738 881.88,-301.568"/>
<polygon fill="midnightblue" stroke="midnightblue" points="879.425,-299.025 873.391,-307.734 883.539,-304.689 879.425,-299.025"/>
</g>
<!-- Node27&#45;&gt;Node1 -->
<g id="edge38" class="edge"><title>Node27&#45;&gt;Node1</title>
<path fill="none" stroke="midnightblue" d="M1063.92,-332.575C1018.7,-344.037 952.222,-360.395 898.05,-373.42"/>
<polygon fill="midnightblue" stroke="midnightblue" points="896.994,-370.074 888.087,-375.811 898.627,-376.881 896.994,-370.074"/>
</g>
</g>
</svg>
