<?xml version="1.0" encoding="UTF-8" standalone="no"?>
<!DOCTYPE svg PUBLIC "-//W3C//DTD SVG 1.1//EN"
 "http://www.w3.org/Graphics/SVG/1.1/DTD/svg11.dtd">
<!-- Generated by graphviz version 2.38.0 (20140413.2041)
 -->
<!-- Title: /home/travis/build/STORM&#45;IRIT/Radium&#45;Engine/src/Core/Geometry/PointCloud/PointCloud.inl Pages: 1 -->
<svg width="3366pt" height="651pt"
 viewBox="0.00 0.00 3366.00 651.00" xmlns="http://www.w3.org/2000/svg" xmlns:xlink="http://www.w3.org/1999/xlink">
<g id="graph0" class="graph" transform="scale(1 1) rotate(0) translate(4 647)">
<title>/home/travis/build/STORM&#45;IRIT/Radium&#45;Engine/src/Core/Geometry/PointCloud/PointCloud.inl</title>
<polygon fill="white" stroke="none" points="-4,4 -4,-647 3362,-647 3362,4 -4,4"/>
<!-- Node1 -->
<g id="node1" class="node"><title>Node1</title>
<polygon fill="#bfbfbf" stroke="black" points="658,-590.5 658,-642.5 822,-642.5 822,-590.5 658,-590.5"/>
<text text-anchor="start" x="666" y="-630.5" font-family="Helvetica,sans-Serif" font-size="10.00">/home/travis/build</text>
<text text-anchor="start" x="666" y="-619.5" font-family="Helvetica,sans-Serif" font-size="10.00">/STORM&#45;IRIT/Radium&#45;Engine</text>
<text text-anchor="start" x="666" y="-608.5" font-family="Helvetica,sans-Serif" font-size="10.00">/src/Core/Geometry/PointCloud</text>
<text text-anchor="middle" x="740" y="-597.5" font-family="Helvetica,sans-Serif" font-size="10.00">/PointCloud.inl</text>
</g>
<!-- Node2 -->
<g id="node2" class="node"><title>Node2</title>
<g id="a_node2"><a xlink:href="PointCloud_8hpp.html" target="_top" xlink:title="/home/travis/build\l/STORM&#45;IRIT/Radium&#45;Engine\l/src/Core/Geometry/PointCloud\l/PointCloud.hpp">
<polygon fill="white" stroke="black" points="658,-501.5 658,-553.5 822,-553.5 822,-501.5 658,-501.5"/>
<text text-anchor="start" x="666" y="-541.5" font-family="Helvetica,sans-Serif" font-size="10.00">/home/travis/build</text>
<text text-anchor="start" x="666" y="-530.5" font-family="Helvetica,sans-Serif" font-size="10.00">/STORM&#45;IRIT/Radium&#45;Engine</text>
<text text-anchor="start" x="666" y="-519.5" font-family="Helvetica,sans-Serif" font-size="10.00">/src/Core/Geometry/PointCloud</text>
<text text-anchor="middle" x="740" y="-508.5" font-family="Helvetica,sans-Serif" font-size="10.00">/PointCloud.hpp</text>
</a>
</g>
</g>
<!-- Node1&#45;&gt;Node2 -->
<g id="edge1" class="edge"><title>Node1&#45;&gt;Node2</title>
<path fill="none" stroke="midnightblue" d="M733.358,-580.191C733.121,-571.282 733.275,-561.899 733.818,-553.607"/>
<polygon fill="midnightblue" stroke="midnightblue" points="729.868,-580.503 733.814,-590.336 736.861,-580.189 729.868,-580.503"/>
</g>
<!-- Node2&#45;&gt;Node1 -->
<g id="edge2" class="edge"><title>Node2&#45;&gt;Node1</title>
<path fill="none" stroke="midnightblue" d="M746.641,-563.749C746.879,-572.655 746.727,-582.04 746.186,-590.336"/>
<polygon fill="midnightblue" stroke="midnightblue" points="750.131,-563.439 746.182,-553.607 743.138,-563.755 750.131,-563.439"/>
</g>
<!-- Node3 -->
<g id="node3" class="node"><title>Node3</title>
<g id="a_node3"><a xlink:href="PolyLine_8inl.html" target="_top" xlink:title="/home/travis/build\l/STORM&#45;IRIT/Radium&#45;Engine\l/src/Core/Math/PolyLine.inl">
<polygon fill="white" stroke="black" points="0,-0.5 0,-41.5 148,-41.5 148,-0.5 0,-0.5"/>
<text text-anchor="start" x="8" y="-29.5" font-family="Helvetica,sans-Serif" font-size="10.00">/home/travis/build</text>
<text text-anchor="start" x="8" y="-18.5" font-family="Helvetica,sans-Serif" font-size="10.00">/STORM&#45;IRIT/Radium&#45;Engine</text>
<text text-anchor="middle" x="74" y="-7.5" font-family="Helvetica,sans-Serif" font-size="10.00">/src/Core/Math/PolyLine.inl</text>
</a>
</g>
</g>
<!-- Node2&#45;&gt;Node3 -->
<g id="edge3" class="edge"><title>Node2&#45;&gt;Node3</title>
<path fill="none" stroke="midnightblue" d="M647.584,-525.126C453.862,-519.738 23,-493.533 23,-367 23,-367 23,-367 23,-192.5 23,-140.986 23.6162,-126.492 41,-78 45.6078,-65.1465 53.2322,-51.9329 59.992,-41.5712"/>
<polygon fill="midnightblue" stroke="midnightblue" points="647.662,-528.629 657.751,-525.396 647.847,-521.632 647.662,-528.629"/>
</g>
<!-- Node6 -->
<g id="node6" class="node"><title>Node6</title>
<g id="a_node6"><a xlink:href="MeshUtils_8inl.html" target="_top" xlink:title="/home/travis/build\l/STORM&#45;IRIT/Radium&#45;Engine\l/src/Core/Mesh/MeshUtils.inl">
<polygon fill="white" stroke="black" points="1595.5,-423.5 1595.5,-464.5 1746.5,-464.5 1746.5,-423.5 1595.5,-423.5"/>
<text text-anchor="start" x="1603.5" y="-452.5" font-family="Helvetica,sans-Serif" font-size="10.00">/home/travis/build</text>
<text text-anchor="start" x="1603.5" y="-441.5" font-family="Helvetica,sans-Serif" font-size="10.00">/STORM&#45;IRIT/Radium&#45;Engine</text>
<text text-anchor="middle" x="1671" y="-430.5" font-family="Helvetica,sans-Serif" font-size="10.00">/src/Core/Mesh/MeshUtils.inl</text>
</a>
</g>
</g>
<!-- Node2&#45;&gt;Node6 -->
<g id="edge7" class="edge"><title>Node2&#45;&gt;Node6</title>
<path fill="none" stroke="midnightblue" d="M832.409,-518.41C1016.53,-502.293 1425.95,-466.452 1595.36,-451.622"/>
<polygon fill="midnightblue" stroke="midnightblue" points="831.868,-514.944 822.212,-519.303 832.479,-521.918 831.868,-514.944"/>
</g>
<!-- Node4 -->
<g id="node4" class="node"><title>Node4</title>
<g id="a_node4"><a xlink:href="PolyLine_8hpp.html" target="_top" xlink:title="/home/travis/build\l/STORM&#45;IRIT/Radium&#45;Engine\l/src/Core/Math/PolyLine.hpp">
<polygon fill="white" stroke="black" points="50.5,-84 50.5,-125 199.5,-125 199.5,-84 50.5,-84"/>
<text text-anchor="start" x="58.5" y="-113" font-family="Helvetica,sans-Serif" font-size="10.00">/home/travis/build</text>
<text text-anchor="start" x="58.5" y="-102" font-family="Helvetica,sans-Serif" font-size="10.00">/STORM&#45;IRIT/Radium&#45;Engine</text>
<text text-anchor="middle" x="125" y="-91" font-family="Helvetica,sans-Serif" font-size="10.00">/src/Core/Math/PolyLine.hpp</text>
</a>
</g>
</g>
<!-- Node3&#45;&gt;Node4 -->
<g id="edge4" class="edge"><title>Node3&#45;&gt;Node4</title>
<path fill="none" stroke="midnightblue" d="M98.0198,-50.0755C105.503,-61.1717 113.127,-73.6602 118.533,-83.7711"/>
<polygon fill="midnightblue" stroke="midnightblue" points="100.674,-47.762 92.0936,-41.5472 94.9258,-51.7565 100.674,-47.762"/>
</g>
<!-- Node4&#45;&gt;Node3 -->
<g id="edge6" class="edge"><title>Node4&#45;&gt;Node3</title>
<path fill="none" stroke="midnightblue" d="M101.068,-75.5543C93.5116,-64.3594 85.8025,-51.7293 80.3704,-41.5472"/>
<polygon fill="midnightblue" stroke="midnightblue" points="98.1962,-77.5553 106.776,-83.7711 103.945,-73.5615 98.1962,-77.5553"/>
</g>
<!-- Node5 -->
<g id="node5" class="node"><title>Node5</title>
<g id="a_node5"><a xlink:href="PolyLine_8cpp.html" target="_top" xlink:title="/home/travis/build\l/STORM&#45;IRIT/Radium&#45;Engine\l/src/Core/Math/PolyLine.cpp">
<polygon fill="white" stroke="black" points="166.5,-0.5 166.5,-41.5 315.5,-41.5 315.5,-0.5 166.5,-0.5"/>
<text text-anchor="start" x="174.5" y="-29.5" font-family="Helvetica,sans-Serif" font-size="10.00">/home/travis/build</text>
<text text-anchor="start" x="174.5" y="-18.5" font-family="Helvetica,sans-Serif" font-size="10.00">/STORM&#45;IRIT/Radium&#45;Engine</text>
<text text-anchor="middle" x="241" y="-7.5" font-family="Helvetica,sans-Serif" font-size="10.00">/src/Core/Math/PolyLine.cpp</text>
</a>
</g>
</g>
<!-- Node4&#45;&gt;Node5 -->
<g id="edge5" class="edge"><title>Node4&#45;&gt;Node5</title>
<path fill="none" stroke="midnightblue" d="M161.233,-78.0434C177.948,-66.2994 197.485,-52.5732 213.04,-41.6445"/>
<polygon fill="midnightblue" stroke="midnightblue" points="158.955,-75.366 152.785,-83.9787 162.979,-81.0937 158.955,-75.366"/>
</g>
<!-- Node7 -->
<g id="node7" class="node"><title>Node7</title>
<g id="a_node7"><a xlink:href="MeshUtils_8hpp.html" target="_top" xlink:title="/home/travis/build\l/STORM&#45;IRIT/Radium&#45;Engine\l/src/Core/Mesh/MeshUtils.hpp">
<polygon fill="white" stroke="black" points="1592,-345.5 1592,-386.5 1750,-386.5 1750,-345.5 1592,-345.5"/>
<text text-anchor="start" x="1600" y="-374.5" font-family="Helvetica,sans-Serif" font-size="10.00">/home/travis/build</text>
<text text-anchor="start" x="1600" y="-363.5" font-family="Helvetica,sans-Serif" font-size="10.00">/STORM&#45;IRIT/Radium&#45;Engine</text>
<text text-anchor="middle" x="1671" y="-352.5" font-family="Helvetica,sans-Serif" font-size="10.00">/src/Core/Mesh/MeshUtils.hpp</text>
</a>
</g>
</g>
<!-- Node6&#45;&gt;Node7 -->
<g id="edge8" class="edge"><title>Node6&#45;&gt;Node7</title>
<path fill="none" stroke="midnightblue" d="M1664.4,-413.297C1664.08,-404.301 1664.28,-394.653 1665.02,-386.506"/>
<polygon fill="midnightblue" stroke="midnightblue" points="1660.91,-413.659 1665.01,-423.428 1667.9,-413.234 1660.91,-413.659"/>
</g>
<!-- Node7&#45;&gt;Node6 -->
<g id="edge27" class="edge"><title>Node7&#45;&gt;Node6</title>
<path fill="none" stroke="midnightblue" d="M1677.6,-396.63C1677.92,-405.622 1677.72,-415.272 1676.99,-423.428"/>
<polygon fill="midnightblue" stroke="midnightblue" points="1681.09,-396.273 1676.98,-386.506 1674.1,-396.701 1681.09,-396.273"/>
</g>
<!-- Node8 -->
<g id="node8" class="node"><title>Node8</title>
<g id="a_node8"><a xlink:href="RotationCenterSkinning_8cpp.html" target="_top" xlink:title="/home/travis/build\l/STORM&#45;IRIT/Radium&#45;Engine\l/src/Core/Animation/Skinning\l/RotationCenterSkinning.cpp">
<polygon fill="white" stroke="black" points="329.5,-256.5 329.5,-308.5 484.5,-308.5 484.5,-256.5 329.5,-256.5"/>
<text text-anchor="start" x="337.5" y="-296.5" font-family="Helvetica,sans-Serif" font-size="10.00">/home/travis/build</text>
<text text-anchor="start" x="337.5" y="-285.5" font-family="Helvetica,sans-Serif" font-size="10.00">/STORM&#45;IRIT/Radium&#45;Engine</text>
<text text-anchor="start" x="337.5" y="-274.5" font-family="Helvetica,sans-Serif" font-size="10.00">/src/Core/Animation/Skinning</text>
<text text-anchor="middle" x="407" y="-263.5" font-family="Helvetica,sans-Serif" font-size="10.00">/RotationCenterSkinning.cpp</text>
</a>
</g>
</g>
<!-- Node7&#45;&gt;Node8 -->
<g id="edge9" class="edge"><title>Node7&#45;&gt;Node8</title>
<path fill="none" stroke="midnightblue" d="M1581.6,-363.533C1344.24,-359.193 702.104,-344.437 493,-309 490.236,-308.532 487.436,-308.003 484.618,-307.425"/>
<polygon fill="midnightblue" stroke="midnightblue" points="1581.85,-367.038 1591.91,-363.72 1581.98,-360.039 1581.85,-367.038"/>
</g>
<!-- Node9 -->
<g id="node9" class="node"><title>Node9</title>
<g id="a_node9"><a xlink:href="DistanceQueries_8inl.html" target="_top" xlink:title="/home/travis/build\l/STORM&#45;IRIT/Radium&#45;Engine\l/src/Core/Geometry/Distance\l/DistanceQueries.inl">
<polygon fill="white" stroke="black" points="502.5,-256.5 502.5,-308.5 657.5,-308.5 657.5,-256.5 502.5,-256.5"/>
<text text-anchor="start" x="510.5" y="-296.5" font-family="Helvetica,sans-Serif" font-size="10.00">/home/travis/build</text>
<text text-anchor="start" x="510.5" y="-285.5" font-family="Helvetica,sans-Serif" font-size="10.00">/STORM&#45;IRIT/Radium&#45;Engine</text>
<text text-anchor="start" x="510.5" y="-274.5" font-family="Helvetica,sans-Serif" font-size="10.00">/src/Core/Geometry/Distance</text>
<text text-anchor="middle" x="580" y="-263.5" font-family="Helvetica,sans-Serif" font-size="10.00">/DistanceQueries.inl</text>
</a>
</g>
</g>
<!-- Node7&#45;&gt;Node9 -->
<g id="edge10" class="edge"><title>Node7&#45;&gt;Node9</title>
<path fill="none" stroke="midnightblue" d="M1581.73,-359.536C1431.89,-350.212 1120.29,-330.172 857,-309 789.606,-303.58 713.082,-296.462 657.568,-291.124"/>
<polygon fill="midnightblue" stroke="midnightblue" points="1581.61,-363.035 1591.8,-360.162 1582.04,-356.048 1581.61,-363.035"/>
</g>
<!-- Node12 -->
<g id="node12" class="node"><title>Node12</title>
<g id="a_node12"><a xlink:href="MeshPrimitives_8inl.html" target="_top" xlink:title="/home/travis/build\l/STORM&#45;IRIT/Radium&#45;Engine\l/src/Core/Mesh/MeshPrimitives.inl">
<polygon fill="white" stroke="black" points="866,-262 866,-303 1042,-303 1042,-262 866,-262"/>
<text text-anchor="start" x="874" y="-291" font-family="Helvetica,sans-Serif" font-size="10.00">/home/travis/build</text>
<text text-anchor="start" x="874" y="-280" font-family="Helvetica,sans-Serif" font-size="10.00">/STORM&#45;IRIT/Radium&#45;Engine</text>
<text text-anchor="middle" x="954" y="-269" font-family="Helvetica,sans-Serif" font-size="10.00">/src/Core/Mesh/MeshPrimitives.inl</text>
</a>
</g>
</g>
<!-- Node7&#45;&gt;Node12 -->
<g id="edge15" class="edge"><title>Node7&#45;&gt;Node12</title>
<path fill="none" stroke="midnightblue" d="M1581.42,-361.013C1461.54,-354.723 1242.61,-339.887 1058,-309 1048.19,-307.359 1037.94,-305.29 1027.86,-303.044"/>
<polygon fill="midnightblue" stroke="midnightblue" points="1581.48,-364.521 1591.65,-361.542 1581.84,-357.53 1581.48,-364.521"/>
</g>
<!-- Node17 -->
<g id="node17" class="node"><title>Node17</title>
<g id="a_node17"><a xlink:href="DrawPrimitives_8cpp.html" target="_top" xlink:title="/home/travis/build\l/STORM&#45;IRIT/Radium&#45;Engine\l/src/Engine/Renderer/RenderObject\l/Primitives/DrawPrimitives.cpp">
<polygon fill="white" stroke="black" points="1698,-78.5 1698,-130.5 1880,-130.5 1880,-78.5 1698,-78.5"/>
<text text-anchor="start" x="1706" y="-118.5" font-family="Helvetica,sans-Serif" font-size="10.00">/home/travis/build</text>
<text text-anchor="start" x="1706" y="-107.5" font-family="Helvetica,sans-Serif" font-size="10.00">/STORM&#45;IRIT/Radium&#45;Engine</text>
<text text-anchor="start" x="1706" y="-96.5" font-family="Helvetica,sans-Serif" font-size="10.00">/src/Engine/Renderer/RenderObject</text>
<text text-anchor="middle" x="1789" y="-85.5" font-family="Helvetica,sans-Serif" font-size="10.00">/Primitives/DrawPrimitives.cpp</text>
</a>
</g>
</g>
<!-- Node7&#45;&gt;Node17 -->
<g id="edge34" class="edge"><title>Node7&#45;&gt;Node17</title>
<path fill="none" stroke="midnightblue" d="M1581.39,-362.838C1426.78,-358.173 1123.28,-344.552 1091,-309 1075.16,-291.562 1078.66,-276.066 1091,-256 1136.91,-181.332 1182.68,-190.949 1267,-167 1447.65,-115.69 1502.8,-162.087 1688,-131 1691.21,-130.461 1694.47,-129.872 1697.75,-129.242"/>
<polygon fill="midnightblue" stroke="midnightblue" points="1581.71,-366.349 1591.81,-363.145 1581.91,-359.352 1581.71,-366.349"/>
</g>
<!-- Node22 -->
<g id="node22" class="node"><title>Node22</title>
<g id="a_node22"><a xlink:href="MeshUtils_8cpp.html" target="_top" xlink:title="/home/travis/build\l/STORM&#45;IRIT/Radium&#45;Engine\l/src/Core/Mesh/MeshUtils.cpp">
<polygon fill="white" stroke="black" points="1100,-262 1100,-303 1258,-303 1258,-262 1100,-262"/>
<text text-anchor="start" x="1108" y="-291" font-family="Helvetica,sans-Serif" font-size="10.00">/home/travis/build</text>
<text text-anchor="start" x="1108" y="-280" font-family="Helvetica,sans-Serif" font-size="10.00">/STORM&#45;IRIT/Radium&#45;Engine</text>
<text text-anchor="middle" x="1179" y="-269" font-family="Helvetica,sans-Serif" font-size="10.00">/src/Core/Mesh/MeshUtils.cpp</text>
</a>
</g>
</g>
<!-- Node7&#45;&gt;Node22 -->
<g id="edge26" class="edge"><title>Node7&#45;&gt;Node22</title>
<path fill="none" stroke="midnightblue" d="M1581.76,-356.371C1499.47,-347.532 1374.2,-331.837 1267,-309 1259.07,-307.31 1250.8,-305.281 1242.65,-303.116"/>
<polygon fill="midnightblue" stroke="midnightblue" points="1581.52,-359.865 1591.83,-357.441 1582.26,-352.904 1581.52,-359.865"/>
</g>
<!-- Node23 -->
<g id="node23" class="node"><title>Node23</title>
<g id="a_node23"><a xlink:href="BVH_8inl.html" target="_top" xlink:title="/home/travis/build\l/STORM&#45;IRIT/Radium&#45;Engine\l/src/Core/TreeStructures\l/BVH.inl">
<polygon fill="white" stroke="black" points="1276,-256.5 1276,-308.5 1424,-308.5 1424,-256.5 1276,-256.5"/>
<text text-anchor="start" x="1284" y="-296.5" font-family="Helvetica,sans-Serif" font-size="10.00">/home/travis/build</text>
<text text-anchor="start" x="1284" y="-285.5" font-family="Helvetica,sans-Serif" font-size="10.00">/STORM&#45;IRIT/Radium&#45;Engine</text>
<text text-anchor="start" x="1284" y="-274.5" font-family="Helvetica,sans-Serif" font-size="10.00">/src/Core/TreeStructures</text>
<text text-anchor="middle" x="1350" y="-263.5" font-family="Helvetica,sans-Serif" font-size="10.00">/BVH.inl</text>
</a>
</g>
</g>
<!-- Node7&#45;&gt;Node23 -->
<g id="edge28" class="edge"><title>Node7&#45;&gt;Node23</title>
<path fill="none" stroke="midnightblue" d="M1581.88,-345.52C1537.04,-335.341 1481.95,-322.261 1433,-309 1430.09,-308.212 1427.13,-307.391 1424.14,-306.547"/>
<polygon fill="midnightblue" stroke="midnightblue" points="1581.35,-348.988 1591.87,-347.779 1582.89,-342.16 1581.35,-348.988"/>
</g>
<!-- Node25 -->
<g id="node25" class="node"><title>Node25</title>
<g id="a_node25"><a xlink:href="Component_8cpp.html" target="_top" xlink:title="/home/travis/build\l/STORM&#45;IRIT/Radium&#45;Engine\l/src/Engine/Component/Component.cpp">
<polygon fill="white" stroke="black" points="1442,-262 1442,-303 1650,-303 1650,-262 1442,-262"/>
<text text-anchor="start" x="1450" y="-291" font-family="Helvetica,sans-Serif" font-size="10.00">/home/travis/build</text>
<text text-anchor="start" x="1450" y="-280" font-family="Helvetica,sans-Serif" font-size="10.00">/STORM&#45;IRIT/Radium&#45;Engine</text>
<text text-anchor="middle" x="1546" y="-269" font-family="Helvetica,sans-Serif" font-size="10.00">/src/Engine/Component/Component.cpp</text>
</a>
</g>
</g>
<!-- Node7&#45;&gt;Node25 -->
<g id="edge31" class="edge"><title>Node7&#45;&gt;Node25</title>
<path fill="none" stroke="midnightblue" d="M1632.45,-339.866C1614.33,-328.052 1593.05,-314.173 1576.13,-303.144"/>
<polygon fill="midnightblue" stroke="midnightblue" points="1630.77,-342.949 1641.06,-345.479 1634.59,-337.085 1630.77,-342.949"/>
</g>
<!-- Node26 -->
<g id="node26" class="node"><title>Node26</title>
<g id="a_node26"><a xlink:href="GeometryComponent_8cpp.html" target="_top" xlink:title="/home/travis/build\l/STORM&#45;IRIT/Radium&#45;Engine\l/src/Engine/Component/GeometryComponent.cpp">
<polygon fill="white" stroke="black" points="1668,-262 1668,-303 1924,-303 1924,-262 1668,-262"/>
<text text-anchor="start" x="1676" y="-291" font-family="Helvetica,sans-Serif" font-size="10.00">/home/travis/build</text>
<text text-anchor="start" x="1676" y="-280" font-family="Helvetica,sans-Serif" font-size="10.00">/STORM&#45;IRIT/Radium&#45;Engine</text>
<text text-anchor="middle" x="1796" y="-269" font-family="Helvetica,sans-Serif" font-size="10.00">/src/Engine/Component/GeometryComponent.cpp</text>
</a>
</g>
</g>
<!-- Node7&#45;&gt;Node26 -->
<g id="edge32" class="edge"><title>Node7&#45;&gt;Node26</title>
<path fill="none" stroke="midnightblue" d="M1709.55,-339.866C1727.67,-328.052 1748.95,-314.173 1765.87,-303.144"/>
<polygon fill="midnightblue" stroke="midnightblue" points="1707.41,-337.085 1700.94,-345.479 1711.23,-342.949 1707.41,-337.085"/>
</g>
<!-- Node27 -->
<g id="node27" class="node"><title>Node27</title>
<g id="a_node27"><a xlink:href="Mesh_8cpp.html" target="_top" xlink:title="/home/travis/build\l/STORM&#45;IRIT/Radium&#45;Engine\l/src/Engine/Renderer/Mesh\l/Mesh.cpp">
<polygon fill="white" stroke="black" points="1942,-256.5 1942,-308.5 2090,-308.5 2090,-256.5 1942,-256.5"/>
<text text-anchor="start" x="1950" y="-296.5" font-family="Helvetica,sans-Serif" font-size="10.00">/home/travis/build</text>
<text text-anchor="start" x="1950" y="-285.5" font-family="Helvetica,sans-Serif" font-size="10.00">/STORM&#45;IRIT/Radium&#45;Engine</text>
<text text-anchor="start" x="1950" y="-274.5" font-family="Helvetica,sans-Serif" font-size="10.00">/src/Engine/Renderer/Mesh</text>
<text text-anchor="middle" x="2016" y="-263.5" font-family="Helvetica,sans-Serif" font-size="10.00">/Mesh.cpp</text>
</a>
</g>
</g>
<!-- Node7&#45;&gt;Node27 -->
<g id="edge33" class="edge"><title>Node7&#45;&gt;Node27</title>
<path fill="none" stroke="midnightblue" d="M1760.23,-347.944C1811.11,-337.716 1875.92,-323.838 1933,-309 1935.92,-308.241 1938.89,-307.446 1941.88,-306.624"/>
<polygon fill="midnightblue" stroke="midnightblue" points="1759.36,-344.548 1750.24,-349.94 1760.74,-351.412 1759.36,-344.548"/>
</g>
<!-- Node28 -->
<g id="node28" class="node"><title>Node28</title>
<g id="a_node28"><a xlink:href="RenderObject_8cpp.html" target="_top" xlink:title="/home/travis/build\l/STORM&#45;IRIT/Radium&#45;Engine\l/src/Engine/Renderer/RenderObject\l/RenderObject.cpp">
<polygon fill="white" stroke="black" points="2108,-256.5 2108,-308.5 2290,-308.5 2290,-256.5 2108,-256.5"/>
<text text-anchor="start" x="2116" y="-296.5" font-family="Helvetica,sans-Serif" font-size="10.00">/home/travis/build</text>
<text text-anchor="start" x="2116" y="-285.5" font-family="Helvetica,sans-Serif" font-size="10.00">/STORM&#45;IRIT/Radium&#45;Engine</text>
<text text-anchor="start" x="2116" y="-274.5" font-family="Helvetica,sans-Serif" font-size="10.00">/src/Engine/Renderer/RenderObject</text>
<text text-anchor="middle" x="2199" y="-263.5" font-family="Helvetica,sans-Serif" font-size="10.00">/RenderObject.cpp</text>
</a>
</g>
</g>
<!-- Node7&#45;&gt;Node28 -->
<g id="edge35" class="edge"><title>Node7&#45;&gt;Node28</title>
<path fill="none" stroke="midnightblue" d="M1760.43,-356.447C1847.37,-347.392 1982.91,-331.314 2099,-309 2101.9,-308.442 2104.85,-307.85 2107.82,-307.231"/>
<polygon fill="midnightblue" stroke="midnightblue" points="1759.92,-352.98 1750.34,-357.489 1760.64,-359.943 1759.92,-352.98"/>
</g>
<!-- Node29 -->
<g id="node29" class="node"><title>Node29</title>
<g id="a_node29"><a xlink:href="BaseApplication_8cpp.html" target="_top" xlink:title="/home/travis/build\l/STORM&#45;IRIT/Radium&#45;Engine\l/src/GuiBase/BaseApplication.cpp">
<polygon fill="white" stroke="black" points="2308,-262 2308,-303 2484,-303 2484,-262 2308,-262"/>
<text text-anchor="start" x="2316" y="-291" font-family="Helvetica,sans-Serif" font-size="10.00">/home/travis/build</text>
<text text-anchor="start" x="2316" y="-280" font-family="Helvetica,sans-Serif" font-size="10.00">/STORM&#45;IRIT/Radium&#45;Engine</text>
<text text-anchor="middle" x="2396" y="-269" font-family="Helvetica,sans-Serif" font-size="10.00">/src/GuiBase/BaseApplication.cpp</text>
</a>
</g>
</g>
<!-- Node7&#45;&gt;Node29 -->
<g id="edge36" class="edge"><title>Node7&#45;&gt;Node29</title>
<path fill="none" stroke="midnightblue" d="M1760.44,-361.755C1882.81,-356.243 2108.91,-342.219 2299,-309 2308.26,-307.381 2317.93,-305.311 2327.43,-303.052"/>
<polygon fill="midnightblue" stroke="midnightblue" points="1760.21,-358.262 1750.37,-362.2 1760.52,-365.255 1760.21,-358.262"/>
</g>
<!-- Node30 -->
<g id="node30" class="node"><title>Node30</title>
<g id="a_node30"><a xlink:href="SkeletonBoneDrawable_8hpp.html" target="_top" xlink:title="/home/travis/build\l/STORM&#45;IRIT/Radium&#45;Engine\l/Plugins/Animation/src/Drawing\l/SkeletonBoneDrawable.hpp">
<polygon fill="white" stroke="black" points="2502,-256.5 2502,-308.5 2666,-308.5 2666,-256.5 2502,-256.5"/>
<text text-anchor="start" x="2510" y="-296.5" font-family="Helvetica,sans-Serif" font-size="10.00">/home/travis/build</text>
<text text-anchor="start" x="2510" y="-285.5" font-family="Helvetica,sans-Serif" font-size="10.00">/STORM&#45;IRIT/Radium&#45;Engine</text>
<text text-anchor="start" x="2510" y="-274.5" font-family="Helvetica,sans-Serif" font-size="10.00">/Plugins/Animation/src/Drawing</text>
<text text-anchor="middle" x="2584" y="-263.5" font-family="Helvetica,sans-Serif" font-size="10.00">/SkeletonBoneDrawable.hpp</text>
</a>
</g>
</g>
<!-- Node7&#45;&gt;Node30 -->
<g id="edge37" class="edge"><title>Node7&#45;&gt;Node30</title>
<path fill="none" stroke="midnightblue" d="M1760.32,-364.888C1912.04,-363.37 2229.29,-354.435 2493,-309 2495.91,-308.499 2498.86,-307.942 2501.83,-307.339"/>
<polygon fill="midnightblue" stroke="midnightblue" points="1760.1,-361.39 1750.13,-364.981 1760.16,-368.39 1760.1,-361.39"/>
</g>
<!-- Node34 -->
<g id="node34" class="node"><title>Node34</title>
<g id="a_node34"><a xlink:href="DummyComponent_8cpp.html" target="_top" xlink:title="/home/travis/build\l/STORM&#45;IRIT/Radium&#45;Engine\l/Plugins/Dummy/src/DummyComponent.cpp">
<polygon fill="white" stroke="black" points="2684,-262 2684,-303 2914,-303 2914,-262 2684,-262"/>
<text text-anchor="start" x="2692" y="-291" font-family="Helvetica,sans-Serif" font-size="10.00">/home/travis/build</text>
<text text-anchor="start" x="2692" y="-280" font-family="Helvetica,sans-Serif" font-size="10.00">/STORM&#45;IRIT/Radium&#45;Engine</text>
<text text-anchor="middle" x="2799" y="-269" font-family="Helvetica,sans-Serif" font-size="10.00">/Plugins/Dummy/src/DummyComponent.cpp</text>
</a>
</g>
</g>
<!-- Node7&#45;&gt;Node34 -->
<g id="edge41" class="edge"><title>Node7&#45;&gt;Node34</title>
<path fill="none" stroke="midnightblue" d="M1760.35,-364.416C1936.21,-362.296 2339.34,-352.633 2675,-309 2687.1,-307.428 2699.78,-305.338 2712.22,-303.031"/>
<polygon fill="midnightblue" stroke="midnightblue" points="1760.07,-360.919 1750.11,-364.534 1760.15,-367.918 1760.07,-360.919"/>
</g>
<!-- Node35 -->
<g id="node35" class="node"><title>Node35</title>
<g id="a_node35"><a xlink:href="MeshPaintComponent_8cpp.html" target="_top" xlink:title="/home/travis/build\l/STORM&#45;IRIT/Radium&#45;Engine\l/Plugins/MeshPaint/src/MeshPaint\lComponent.cpp">
<polygon fill="white" stroke="black" points="2932,-256.5 2932,-308.5 3106,-308.5 3106,-256.5 2932,-256.5"/>
<text text-anchor="start" x="2940" y="-296.5" font-family="Helvetica,sans-Serif" font-size="10.00">/home/travis/build</text>
<text text-anchor="start" x="2940" y="-285.5" font-family="Helvetica,sans-Serif" font-size="10.00">/STORM&#45;IRIT/Radium&#45;Engine</text>
<text text-anchor="start" x="2940" y="-274.5" font-family="Helvetica,sans-Serif" font-size="10.00">/Plugins/MeshPaint/src/MeshPaint</text>
<text text-anchor="middle" x="3019" y="-263.5" font-family="Helvetica,sans-Serif" font-size="10.00">Component.cpp</text>
</a>
</g>
</g>
<!-- Node7&#45;&gt;Node35 -->
<g id="edge42" class="edge"><title>Node7&#45;&gt;Node35</title>
<path fill="none" stroke="midnightblue" d="M1760.33,-363.498C2007.77,-358.94 2698.55,-343.42 2923,-309 2925.9,-308.556 2928.83,-308.058 2931.79,-307.516"/>
<polygon fill="midnightblue" stroke="midnightblue" points="1760.24,-359.999 1750.3,-363.681 1760.36,-366.998 1760.24,-359.999"/>
</g>
<!-- Node36 -->
<g id="node36" class="node"><title>Node36</title>
<g id="a_node36"><a xlink:href="SkinningComponent_8cpp.html" target="_top" xlink:title="/home/travis/build\l/STORM&#45;IRIT/Radium&#45;Engine\l/Plugins/Skinning/src/SkinningComponent.cpp">
<polygon fill="white" stroke="black" points="3124,-262 3124,-303 3358,-303 3358,-262 3124,-262"/>
<text text-anchor="start" x="3132" y="-291" font-family="Helvetica,sans-Serif" font-size="10.00">/home/travis/build</text>
<text text-anchor="start" x="3132" y="-280" font-family="Helvetica,sans-Serif" font-size="10.00">/STORM&#45;IRIT/Radium&#45;Engine</text>
<text text-anchor="middle" x="3241" y="-269" font-family="Helvetica,sans-Serif" font-size="10.00">/Plugins/Skinning/src/SkinningComponent.cpp</text>
</a>
</g>
</g>
<!-- Node7&#45;&gt;Node36 -->
<g id="edge43" class="edge"><title>Node7&#45;&gt;Node36</title>
<path fill="none" stroke="midnightblue" d="M1760.34,-363.42C2032.82,-358.302 2850.77,-340.653 3115,-309 3127.63,-307.487 3140.88,-305.383 3153.86,-303.027"/>
<polygon fill="midnightblue" stroke="midnightblue" points="1760.03,-359.925 1750.1,-363.611 1760.17,-366.923 1760.03,-359.925"/>
</g>
<!-- Node10 -->
<g id="node10" class="node"><title>Node10</title>
<g id="a_node10"><a xlink:href="DistanceQueries_8hpp.html" target="_top" xlink:title="/home/travis/build\l/STORM&#45;IRIT/Radium&#45;Engine\l/src/Core/Geometry/Distance\l/DistanceQueries.hpp">
<polygon fill="white" stroke="black" points="358.5,-167.5 358.5,-219.5 513.5,-219.5 513.5,-167.5 358.5,-167.5"/>
<text text-anchor="start" x="366.5" y="-207.5" font-family="Helvetica,sans-Serif" font-size="10.00">/home/travis/build</text>
<text text-anchor="start" x="366.5" y="-196.5" font-family="Helvetica,sans-Serif" font-size="10.00">/STORM&#45;IRIT/Radium&#45;Engine</text>
<text text-anchor="start" x="366.5" y="-185.5" font-family="Helvetica,sans-Serif" font-size="10.00">/src/Core/Geometry/Distance</text>
<text text-anchor="middle" x="436" y="-174.5" font-family="Helvetica,sans-Serif" font-size="10.00">/DistanceQueries.hpp</text>
</a>
</g>
</g>
<!-- Node9&#45;&gt;Node10 -->
<g id="edge11" class="edge"><title>Node9&#45;&gt;Node10</title>
<path fill="none" stroke="midnightblue" d="M523.162,-251.07C505.692,-240.788 486.99,-229.431 471.375,-219.607"/>
<polygon fill="midnightblue" stroke="midnightblue" points="521.764,-254.308 532.163,-256.336 525.299,-248.265 521.764,-254.308"/>
</g>
<!-- Node10&#45;&gt;Node4 -->
<g id="edge13" class="edge"><title>Node10&#45;&gt;Node4</title>
<path fill="none" stroke="midnightblue" d="M348.652,-169.495C306.388,-158.195 254.965,-144.2 209,-131 202.408,-129.107 195.538,-127.092 188.692,-125.055"/>
<polygon fill="midnightblue" stroke="midnightblue" points="347.791,-172.887 358.355,-172.085 349.596,-166.124 347.791,-172.887"/>
</g>
<!-- Node10&#45;&gt;Node9 -->
<g id="edge12" class="edge"><title>Node10&#45;&gt;Node9</title>
<path fill="none" stroke="midnightblue" d="M492.737,-224.87C510.203,-235.149 528.908,-246.507 544.535,-256.336"/>
<polygon fill="midnightblue" stroke="midnightblue" points="494.138,-221.635 483.739,-219.607 490.604,-227.678 494.138,-221.635"/>
</g>
<!-- Node11 -->
<g id="node11" class="node"><title>Node11</title>
<g id="a_node11"><a xlink:href="trianglekdtree_8hpp.html" target="_top" xlink:title="/home/travis/build\l/STORM&#45;IRIT/Radium&#45;Engine\l/src/Core/TreeStructures\l/trianglekdtree.hpp">
<polygon fill="white" stroke="black" points="218,-78.5 218,-130.5 366,-130.5 366,-78.5 218,-78.5"/>
<text text-anchor="start" x="226" y="-118.5" font-family="Helvetica,sans-Serif" font-size="10.00">/home/travis/build</text>
<text text-anchor="start" x="226" y="-107.5" font-family="Helvetica,sans-Serif" font-size="10.00">/STORM&#45;IRIT/Radium&#45;Engine</text>
<text text-anchor="start" x="226" y="-96.5" font-family="Helvetica,sans-Serif" font-size="10.00">/src/Core/TreeStructures</text>
<text text-anchor="middle" x="292" y="-85.5" font-family="Helvetica,sans-Serif" font-size="10.00">/trianglekdtree.hpp</text>
</a>
</g>
</g>
<!-- Node10&#45;&gt;Node11 -->
<g id="edge14" class="edge"><title>Node10&#45;&gt;Node11</title>
<path fill="none" stroke="midnightblue" d="M385.634,-162.07C368.614,-151.788 349.816,-140.431 333.557,-130.607"/>
<polygon fill="midnightblue" stroke="midnightblue" points="383.98,-165.161 394.349,-167.336 387.6,-159.169 383.98,-165.161"/>
</g>
<!-- Node13 -->
<g id="node13" class="node"><title>Node13</title>
<g id="a_node13"><a xlink:href="MeshPrimitives_8hpp.html" target="_top" xlink:title="/home/travis/build\l/STORM&#45;IRIT/Radium&#45;Engine\l/src/Core/Mesh/MeshPrimitives.hpp">
<polygon fill="white" stroke="black" points="862,-173 862,-214 1046,-214 1046,-173 862,-173"/>
<text text-anchor="start" x="870" y="-202" font-family="Helvetica,sans-Serif" font-size="10.00">/home/travis/build</text>
<text text-anchor="start" x="870" y="-191" font-family="Helvetica,sans-Serif" font-size="10.00">/STORM&#45;IRIT/Radium&#45;Engine</text>
<text text-anchor="middle" x="954" y="-180" font-family="Helvetica,sans-Serif" font-size="10.00">/src/Core/Mesh/MeshPrimitives.hpp</text>
</a>
</g>
</g>
<!-- Node12&#45;&gt;Node13 -->
<g id="edge16" class="edge"><title>Node12&#45;&gt;Node13</title>
<path fill="none" stroke="midnightblue" d="M947.545,-251.441C946.987,-239.101 947.221,-225.162 948.246,-214.164"/>
<polygon fill="midnightblue" stroke="midnightblue" points="944.076,-252.016 948.239,-261.758 951.06,-251.546 944.076,-252.016"/>
</g>
<!-- Node13&#45;&gt;Node12 -->
<g id="edge18" class="edge"><title>Node13&#45;&gt;Node12</title>
<path fill="none" stroke="midnightblue" d="M960.451,-224.472C961.013,-236.803 960.783,-250.746 959.761,-261.758"/>
<polygon fill="midnightblue" stroke="midnightblue" points="963.921,-223.904 959.754,-214.164 956.937,-224.377 963.921,-223.904"/>
</g>
<!-- Node14 -->
<g id="node14" class="node"><title>Node14</title>
<g id="a_node14"><a xlink:href="MeshPrimitives_8cpp.html" target="_top" xlink:title="/home/travis/build\l/STORM&#45;IRIT/Radium&#45;Engine\l/src/Core/Mesh/MeshPrimitives.cpp">
<polygon fill="white" stroke="black" points="384.5,-84 384.5,-125 567.5,-125 567.5,-84 384.5,-84"/>
<text text-anchor="start" x="392.5" y="-113" font-family="Helvetica,sans-Serif" font-size="10.00">/home/travis/build</text>
<text text-anchor="start" x="392.5" y="-102" font-family="Helvetica,sans-Serif" font-size="10.00">/STORM&#45;IRIT/Radium&#45;Engine</text>
<text text-anchor="middle" x="476" y="-91" font-family="Helvetica,sans-Serif" font-size="10.00">/src/Core/Mesh/MeshPrimitives.cpp</text>
</a>
</g>
</g>
<!-- Node13&#45;&gt;Node14 -->
<g id="edge17" class="edge"><title>Node13&#45;&gt;Node14</title>
<path fill="none" stroke="midnightblue" d="M851.733,-178.237C775.651,-167.04 669.44,-150.173 577,-131 568.323,-129.2 559.267,-127.155 550.296,-125.025"/>
<polygon fill="midnightblue" stroke="midnightblue" points="851.392,-181.724 861.794,-179.71 852.407,-174.798 851.392,-181.724"/>
</g>
<!-- Node15 -->
<g id="node15" class="node"><title>Node15</title>
<g id="a_node15"><a xlink:href="Renderer_8cpp.html" target="_top" xlink:title="/home/travis/build\l/STORM&#45;IRIT/Radium&#45;Engine\l/src/Engine/Renderer/Renderer.cpp">
<polygon fill="white" stroke="black" points="586,-84 586,-125 766,-125 766,-84 586,-84"/>
<text text-anchor="start" x="594" y="-113" font-family="Helvetica,sans-Serif" font-size="10.00">/home/travis/build</text>
<text text-anchor="start" x="594" y="-102" font-family="Helvetica,sans-Serif" font-size="10.00">/STORM&#45;IRIT/Radium&#45;Engine</text>
<text text-anchor="middle" x="676" y="-91" font-family="Helvetica,sans-Serif" font-size="10.00">/src/Engine/Renderer/Renderer.cpp</text>
</a>
</g>
</g>
<!-- Node13&#45;&gt;Node15 -->
<g id="edge19" class="edge"><title>Node13&#45;&gt;Node15</title>
<path fill="none" stroke="midnightblue" d="M882.041,-169.98C837.634,-156.083 781.225,-138.43 738.661,-125.11"/>
<polygon fill="midnightblue" stroke="midnightblue" points="881.022,-173.329 891.611,-172.976 883.113,-166.649 881.022,-173.329"/>
</g>
<!-- Node16 -->
<g id="node16" class="node"><title>Node16</title>
<g id="a_node16"><a xlink:href="DebugRender_8cpp.html" target="_top" xlink:title="/home/travis/build\l/STORM&#45;IRIT/Radium&#45;Engine\l/src/Engine/Renderer/Renderers\l/DebugRender.cpp">
<polygon fill="white" stroke="black" points="784,-78.5 784,-130.5 950,-130.5 950,-78.5 784,-78.5"/>
<text text-anchor="start" x="792" y="-118.5" font-family="Helvetica,sans-Serif" font-size="10.00">/home/travis/build</text>
<text text-anchor="start" x="792" y="-107.5" font-family="Helvetica,sans-Serif" font-size="10.00">/STORM&#45;IRIT/Radium&#45;Engine</text>
<text text-anchor="start" x="792" y="-96.5" font-family="Helvetica,sans-Serif" font-size="10.00">/src/Engine/Renderer/Renderers</text>
<text text-anchor="middle" x="867" y="-85.5" font-family="Helvetica,sans-Serif" font-size="10.00">/DebugRender.cpp</text>
</a>
</g>
</g>
<!-- Node13&#45;&gt;Node16 -->
<g id="edge20" class="edge"><title>Node13&#45;&gt;Node16</title>
<path fill="none" stroke="midnightblue" d="M926.914,-165.414C915.86,-154.36 903.15,-141.65 892.288,-130.788"/>
<polygon fill="midnightblue" stroke="midnightblue" points="924.712,-168.162 934.258,-172.758 929.662,-163.212 924.712,-168.162"/>
</g>
<!-- Node13&#45;&gt;Node17 -->
<g id="edge21" class="edge"><title>Node13&#45;&gt;Node17</title>
<path fill="none" stroke="midnightblue" d="M1037.66,-170.913C1045.18,-169.416 1052.71,-168.077 1060,-167 1336.57,-126.142 1411.67,-173.41 1688,-131 1691.22,-130.506 1694.48,-129.956 1697.77,-129.359"/>
<polygon fill="midnightblue" stroke="midnightblue" points="1036.88,-167.501 1027.8,-172.963 1038.31,-174.355 1036.88,-167.501"/>
</g>
<!-- Node18 -->
<g id="node18" class="node"><title>Node18</title>
<g id="a_node18"><a xlink:href="RotateGizmo_8cpp.html" target="_top" xlink:title="/home/travis/build\l/STORM&#45;IRIT/Radium&#45;Engine\l/src/GuiBase/Viewer/Gizmo\l/RotateGizmo.cpp">
<polygon fill="white" stroke="black" points="968,-78.5 968,-130.5 1116,-130.5 1116,-78.5 968,-78.5"/>
<text text-anchor="start" x="976" y="-118.5" font-family="Helvetica,sans-Serif" font-size="10.00">/home/travis/build</text>
<text text-anchor="start" x="976" y="-107.5" font-family="Helvetica,sans-Serif" font-size="10.00">/STORM&#45;IRIT/Radium&#45;Engine</text>
<text text-anchor="start" x="976" y="-96.5" font-family="Helvetica,sans-Serif" font-size="10.00">/src/GuiBase/Viewer/Gizmo</text>
<text text-anchor="middle" x="1042" y="-85.5" font-family="Helvetica,sans-Serif" font-size="10.00">/RotateGizmo.cpp</text>
</a>
</g>
</g>
<!-- Node13&#45;&gt;Node18 -->
<g id="edge22" class="edge"><title>Node13&#45;&gt;Node18</title>
<path fill="none" stroke="midnightblue" d="M981.398,-165.414C992.578,-154.36 1005.43,-141.65 1016.42,-130.788"/>
<polygon fill="midnightblue" stroke="midnightblue" points="978.619,-163.239 973.969,-172.758 983.541,-168.217 978.619,-163.239"/>
</g>
<!-- Node19 -->
<g id="node19" class="node"><title>Node19</title>
<g id="a_node19"><a xlink:href="ScaleGizmo_8cpp.html" target="_top" xlink:title="/home/travis/build\l/STORM&#45;IRIT/Radium&#45;Engine\l/src/GuiBase/Viewer/Gizmo\l/ScaleGizmo.cpp">
<polygon fill="white" stroke="black" points="1134,-78.5 1134,-130.5 1282,-130.5 1282,-78.5 1134,-78.5"/>
<text text-anchor="start" x="1142" y="-118.5" font-family="Helvetica,sans-Serif" font-size="10.00">/home/travis/build</text>
<text text-anchor="start" x="1142" y="-107.5" font-family="Helvetica,sans-Serif" font-size="10.00">/STORM&#45;IRIT/Radium&#45;Engine</text>
<text text-anchor="start" x="1142" y="-96.5" font-family="Helvetica,sans-Serif" font-size="10.00">/src/GuiBase/Viewer/Gizmo</text>
<text text-anchor="middle" x="1208" y="-85.5" font-family="Helvetica,sans-Serif" font-size="10.00">/ScaleGizmo.cpp</text>
</a>
</g>
</g>
<!-- Node13&#45;&gt;Node19 -->
<g id="edge23" class="edge"><title>Node13&#45;&gt;Node19</title>
<path fill="none" stroke="midnightblue" d="M1020.67,-169.665C1055.73,-157.657 1098.78,-142.911 1134.76,-130.585"/>
<polygon fill="midnightblue" stroke="midnightblue" points="1019.33,-166.424 1011,-172.976 1021.6,-173.046 1019.33,-166.424"/>
</g>
<!-- Node20 -->
<g id="node20" class="node"><title>Node20</title>
<g id="a_node20"><a xlink:href="TranslateGizmo_8cpp.html" target="_top" xlink:title="/home/travis/build\l/STORM&#45;IRIT/Radium&#45;Engine\l/src/GuiBase/Viewer/Gizmo\l/TranslateGizmo.cpp">
<polygon fill="white" stroke="black" points="1300,-78.5 1300,-130.5 1448,-130.5 1448,-78.5 1300,-78.5"/>
<text text-anchor="start" x="1308" y="-118.5" font-family="Helvetica,sans-Serif" font-size="10.00">/home/travis/build</text>
<text text-anchor="start" x="1308" y="-107.5" font-family="Helvetica,sans-Serif" font-size="10.00">/STORM&#45;IRIT/Radium&#45;Engine</text>
<text text-anchor="start" x="1308" y="-96.5" font-family="Helvetica,sans-Serif" font-size="10.00">/src/GuiBase/Viewer/Gizmo</text>
<text text-anchor="middle" x="1374" y="-85.5" font-family="Helvetica,sans-Serif" font-size="10.00">/TranslateGizmo.cpp</text>
</a>
</g>
</g>
<!-- Node13&#45;&gt;Node20 -->
<g id="edge24" class="edge"><title>Node13&#45;&gt;Node20</title>
<path fill="none" stroke="midnightblue" d="M1042.15,-170.72C1048.18,-169.407 1054.17,-168.153 1060,-167 1161.93,-146.832 1189.74,-154.318 1291,-131 1293.94,-130.323 1296.92,-129.597 1299.93,-128.832"/>
<polygon fill="midnightblue" stroke="midnightblue" points="1040.99,-167.391 1031.99,-172.976 1042.51,-174.224 1040.99,-167.391"/>
</g>
<!-- Node21 -->
<g id="node21" class="node"><title>Node21</title>
<g id="a_node21"><a xlink:href="MeshFeatureTrackingComponent_8cpp.html" target="_top" xlink:title="/home/travis/build\l/STORM&#45;IRIT/Radium&#45;Engine\l/Plugins/MeshFeatureTracking\l/src/MeshFeatureTrackingComponent.cpp">
<polygon fill="white" stroke="black" points="1466.5,-78.5 1466.5,-130.5 1679.5,-130.5 1679.5,-78.5 1466.5,-78.5"/>
<text text-anchor="start" x="1474.5" y="-118.5" font-family="Helvetica,sans-Serif" font-size="10.00">/home/travis/build</text>
<text text-anchor="start" x="1474.5" y="-107.5" font-family="Helvetica,sans-Serif" font-size="10.00">/STORM&#45;IRIT/Radium&#45;Engine</text>
<text text-anchor="start" x="1474.5" y="-96.5" font-family="Helvetica,sans-Serif" font-size="10.00">/Plugins/MeshFeatureTracking</text>
<text text-anchor="middle" x="1573" y="-85.5" font-family="Helvetica,sans-Serif" font-size="10.00">/src/MeshFeatureTrackingComponent.cpp</text>
</a>
</g>
</g>
<!-- Node13&#45;&gt;Node21 -->
<g id="edge25" class="edge"><title>Node13&#45;&gt;Node21</title>
<path fill="none" stroke="midnightblue" d="M1039.44,-170.818C1046.37,-169.404 1053.29,-168.106 1060,-167 1234.81,-138.204 1281.91,-158.073 1457,-131 1460.06,-130.527 1463.15,-130.023 1466.27,-129.491"/>
<polygon fill="midnightblue" stroke="midnightblue" points="1038.35,-167.471 1029.29,-172.965 1039.8,-174.319 1038.35,-167.471"/>
</g>
<!-- Node24 -->
<g id="node24" class="node"><title>Node24</title>
<g id="a_node24"><a xlink:href="BVH_8hpp.html" target="_top" xlink:title="/home/travis/build\l/STORM&#45;IRIT/Radium&#45;Engine\l/src/Core/TreeStructures\l/BVH.hpp">
<polygon fill="white" stroke="black" points="1276,-167.5 1276,-219.5 1424,-219.5 1424,-167.5 1276,-167.5"/>
<text text-anchor="start" x="1284" y="-207.5" font-family="Helvetica,sans-Serif" font-size="10.00">/home/travis/build</text>
<text text-anchor="start" x="1284" y="-196.5" font-family="Helvetica,sans-Serif" font-size="10.00">/STORM&#45;IRIT/Radium&#45;Engine</text>
<text text-anchor="start" x="1284" y="-185.5" font-family="Helvetica,sans-Serif" font-size="10.00">/src/Core/TreeStructures</text>
<text text-anchor="middle" x="1350" y="-174.5" font-family="Helvetica,sans-Serif" font-size="10.00">/BVH.hpp</text>
</a>
</g>
</g>
<!-- Node23&#45;&gt;Node24 -->
<g id="edge29" class="edge"><title>Node23&#45;&gt;Node24</title>
<path fill="none" stroke="midnightblue" d="M1343.36,-246.191C1343.12,-237.282 1343.27,-227.899 1343.82,-219.607"/>
<polygon fill="midnightblue" stroke="midnightblue" points="1339.87,-246.503 1343.81,-256.336 1346.86,-246.189 1339.87,-246.503"/>
</g>
<!-- Node24&#45;&gt;Node23 -->
<g id="edge30" class="edge"><title>Node24&#45;&gt;Node23</title>
<path fill="none" stroke="midnightblue" d="M1356.64,-229.749C1356.88,-238.655 1356.73,-248.04 1356.19,-256.336"/>
<polygon fill="midnightblue" stroke="midnightblue" points="1360.13,-229.439 1356.18,-219.607 1353.14,-229.755 1360.13,-229.439"/>
</g>
<!-- Node31 -->
<g id="node31" class="node"><title>Node31</title>
<g id="a_node31"><a xlink:href="AnimationComponent_8cpp.html" target="_top" xlink:title="/home/travis/build\l/STORM&#45;IRIT/Radium&#45;Engine\l/Plugins/Animation/src/Animation\lComponent.cpp">
<polygon fill="white" stroke="black" points="2305,-167.5 2305,-219.5 2479,-219.5 2479,-167.5 2305,-167.5"/>
<text text-anchor="start" x="2313" y="-207.5" font-family="Helvetica,sans-Serif" font-size="10.00">/home/travis/build</text>
<text text-anchor="start" x="2313" y="-196.5" font-family="Helvetica,sans-Serif" font-size="10.00">/STORM&#45;IRIT/Radium&#45;Engine</text>
<text text-anchor="start" x="2313" y="-185.5" font-family="Helvetica,sans-Serif" font-size="10.00">/Plugins/Animation/src/Animation</text>
<text text-anchor="middle" x="2392" y="-174.5" font-family="Helvetica,sans-Serif" font-size="10.00">Component.cpp</text>
</a>
</g>
</g>
<!-- Node30&#45;&gt;Node31 -->
<g id="edge38" class="edge"><title>Node30&#45;&gt;Node31</title>
<path fill="none" stroke="midnightblue" d="M2519.55,-252.295C2496.09,-241.665 2469.8,-229.755 2447.22,-219.521"/>
<polygon fill="midnightblue" stroke="midnightblue" points="2518.17,-255.513 2528.72,-256.453 2521.06,-249.137 2518.17,-255.513"/>
</g>
<!-- Node32 -->
<g id="node32" class="node"><title>Node32</title>
<g id="a_node32"><a xlink:href="AnimationSystem_8cpp.html" target="_top" xlink:title="/home/travis/build\l/STORM&#45;IRIT/Radium&#45;Engine\l/Plugins/Animation/src/Animation\lSystem.cpp">
<polygon fill="white" stroke="black" points="2497,-167.5 2497,-219.5 2671,-219.5 2671,-167.5 2497,-167.5"/>
<text text-anchor="start" x="2505" y="-207.5" font-family="Helvetica,sans-Serif" font-size="10.00">/home/travis/build</text>
<text text-anchor="start" x="2505" y="-196.5" font-family="Helvetica,sans-Serif" font-size="10.00">/STORM&#45;IRIT/Radium&#45;Engine</text>
<text text-anchor="start" x="2505" y="-185.5" font-family="Helvetica,sans-Serif" font-size="10.00">/Plugins/Animation/src/Animation</text>
<text text-anchor="middle" x="2584" y="-174.5" font-family="Helvetica,sans-Serif" font-size="10.00">System.cpp</text>
</a>
</g>
</g>
<!-- Node30&#45;&gt;Node32 -->
<g id="edge39" class="edge"><title>Node30&#45;&gt;Node32</title>
<path fill="none" stroke="midnightblue" d="M2584,-246.191C2584,-237.282 2584,-227.899 2584,-219.607"/>
<polygon fill="midnightblue" stroke="midnightblue" points="2580.5,-246.336 2584,-256.336 2587.5,-246.336 2580.5,-246.336"/>
</g>
<!-- Node33 -->
<g id="node33" class="node"><title>Node33</title>
<g id="a_node33"><a xlink:href="SkeletonBoneDrawable_8cpp.html" target="_top" xlink:title="/home/travis/build\l/STORM&#45;IRIT/Radium&#45;Engine\l/Plugins/Animation/src/Drawing\l/SkeletonBoneDrawable.cpp">
<polygon fill="white" stroke="black" points="2689,-167.5 2689,-219.5 2853,-219.5 2853,-167.5 2689,-167.5"/>
<text text-anchor="start" x="2697" y="-207.5" font-family="Helvetica,sans-Serif" font-size="10.00">/home/travis/build</text>
<text text-anchor="start" x="2697" y="-196.5" font-family="Helvetica,sans-Serif" font-size="10.00">/STORM&#45;IRIT/Radium&#45;Engine</text>
<text text-anchor="start" x="2697" y="-185.5" font-family="Helvetica,sans-Serif" font-size="10.00">/Plugins/Animation/src/Drawing</text>
<text text-anchor="middle" x="2771" y="-174.5" font-family="Helvetica,sans-Serif" font-size="10.00">/SkeletonBoneDrawable.cpp</text>
</a>
</g>
</g>
<!-- Node30&#45;&gt;Node33 -->
<g id="edge40" class="edge"><title>Node30&#45;&gt;Node33</title>
<path fill="none" stroke="midnightblue" d="M2647.08,-252.153C2669.85,-241.56 2695.32,-229.71 2717.22,-219.521"/>
<polygon fill="midnightblue" stroke="midnightblue" points="2645.43,-249.061 2637.84,-256.453 2648.38,-255.408 2645.43,-249.061"/>
</g>
</g>
</svg>
