<?xml version="1.0" encoding="UTF-8" standalone="no"?>
<!DOCTYPE svg PUBLIC "-//W3C//DTD SVG 1.1//EN"
 "http://www.w3.org/Graphics/SVG/1.1/DTD/svg11.dtd">
<!-- Generated by graphviz version 2.38.0 (20140413.2041)
 -->
<!-- Title: /home/travis/build/STORM&#45;IRIT/Radium&#45;Engine/src/Core/Animation/Pose/PoseOperation.cpp Pages: 1 -->
<svg width="1083pt" height="497pt"
 viewBox="0.00 0.00 1082.50 497.00" xmlns="http://www.w3.org/2000/svg" xmlns:xlink="http://www.w3.org/1999/xlink">
<g id="graph0" class="graph" transform="scale(1 1) rotate(0) translate(4 493)">
<title>/home/travis/build/STORM&#45;IRIT/Radium&#45;Engine/src/Core/Animation/Pose/PoseOperation.cpp</title>
<polygon fill="white" stroke="none" points="-4,4 -4,-493 1078.5,-493 1078.5,4 -4,4"/>
<!-- Node1 -->
<g id="node1" class="node"><title>Node1</title>
<polygon fill="#bfbfbf" stroke="black" points="782.5,-436.5 782.5,-488.5 930.5,-488.5 930.5,-436.5 782.5,-436.5"/>
<text text-anchor="start" x="790.5" y="-476.5" font-family="Helvetica,sans-Serif" font-size="10.00">/home/travis/build</text>
<text text-anchor="start" x="790.5" y="-465.5" font-family="Helvetica,sans-Serif" font-size="10.00">/STORM&#45;IRIT/Radium&#45;Engine</text>
<text text-anchor="start" x="790.5" y="-454.5" font-family="Helvetica,sans-Serif" font-size="10.00">/src/Core/Animation/Pose</text>
<text text-anchor="middle" x="856.5" y="-443.5" font-family="Helvetica,sans-Serif" font-size="10.00">/PoseOperation.cpp</text>
</g>
<!-- Node2 -->
<g id="node2" class="node"><title>Node2</title>
<g id="a_node2"><a xlink:href="PoseOperation_8hpp.html" target="_top" xlink:title="Core/Animation/Pose\l/PoseOperation.hpp">
<polygon fill="white" stroke="black" points="658,-369.5 658,-399.5 775,-399.5 775,-369.5 658,-369.5"/>
<text text-anchor="start" x="666" y="-387.5" font-family="Helvetica,sans-Serif" font-size="10.00">Core/Animation/Pose</text>
<text text-anchor="middle" x="716.5" y="-376.5" font-family="Helvetica,sans-Serif" font-size="10.00">/PoseOperation.hpp</text>
</a>
</g>
</g>
<!-- Node1&#45;&gt;Node2 -->
<g id="edge1" class="edge"><title>Node1&#45;&gt;Node2</title>
<path fill="none" stroke="midnightblue" d="M810.271,-436.404C791.144,-426.021 769.331,-414.18 751.56,-404.532"/>
<polygon fill="midnightblue" stroke="midnightblue" points="753.128,-401.402 742.67,-399.707 749.789,-407.554 753.128,-401.402"/>
</g>
<!-- Node16 -->
<g id="node16" class="node"><title>Node16</title>
<polygon fill="white" stroke="#bfbfbf" points="980.5,-174 980.5,-193 1074.5,-193 1074.5,-174 980.5,-174"/>
<text text-anchor="middle" x="1027.5" y="-181" font-family="Helvetica,sans-Serif" font-size="10.00">Eigen/Geometry</text>
</g>
<!-- Node1&#45;&gt;Node16 -->
<g id="edge27" class="edge"><title>Node1&#45;&gt;Node16</title>
<path fill="none" stroke="midnightblue" d="M871.977,-436.43C906.209,-380.977 987.621,-249.099 1016.84,-201.776"/>
<polygon fill="midnightblue" stroke="midnightblue" points="1019.97,-203.366 1022.24,-193.019 1014.01,-199.689 1019.97,-203.366"/>
</g>
<!-- Node3 -->
<g id="node3" class="node"><title>Node3</title>
<g id="a_node3"><a xlink:href="Pose_8hpp.html" target="_top" xlink:title="Core/Animation/Pose\l/Pose.hpp">
<polygon fill="white" stroke="black" points="588,-302.5 588,-332.5 705,-332.5 705,-302.5 588,-302.5"/>
<text text-anchor="start" x="596" y="-320.5" font-family="Helvetica,sans-Serif" font-size="10.00">Core/Animation/Pose</text>
<text text-anchor="middle" x="646.5" y="-309.5" font-family="Helvetica,sans-Serif" font-size="10.00">/Pose.hpp</text>
</a>
</g>
</g>
<!-- Node2&#45;&gt;Node3 -->
<g id="edge2" class="edge"><title>Node2&#45;&gt;Node3</title>
<path fill="none" stroke="midnightblue" d="M701.311,-369.396C691.955,-360.708 679.782,-349.405 669.285,-339.658"/>
<polygon fill="midnightblue" stroke="midnightblue" points="671.369,-336.816 661.659,-332.577 666.606,-341.946 671.369,-336.816"/>
</g>
<!-- Node4 -->
<g id="node4" class="node"><title>Node4</title>
<g id="a_node4"><a xlink:href="AlignedStdVector_8hpp.html" target="_top" xlink:title="Core/Containers/AlignedStd\lVector.hpp">
<polygon fill="white" stroke="black" points="39,-235.5 39,-265.5 188,-265.5 188,-235.5 39,-235.5"/>
<text text-anchor="start" x="47" y="-253.5" font-family="Helvetica,sans-Serif" font-size="10.00">Core/Containers/AlignedStd</text>
<text text-anchor="middle" x="113.5" y="-242.5" font-family="Helvetica,sans-Serif" font-size="10.00">Vector.hpp</text>
</a>
</g>
</g>
<!-- Node3&#45;&gt;Node4 -->
<g id="edge3" class="edge"><title>Node3&#45;&gt;Node4</title>
<path fill="none" stroke="midnightblue" d="M587.935,-309.358C493.528,-297.845 307.295,-275.134 198.347,-261.847"/>
<polygon fill="midnightblue" stroke="midnightblue" points="198.725,-258.367 188.375,-260.631 197.877,-265.316 198.725,-258.367"/>
</g>
<!-- Node14 -->
<g id="node14" class="node"><title>Node14</title>
<g id="a_node14"><a xlink:href="LinearAlgebra_8hpp.html" target="_top" xlink:title="Core/Math/LinearAlgebra.hpp">
<polygon fill="white" stroke="black" points="568.5,-241 568.5,-260 724.5,-260 724.5,-241 568.5,-241"/>
<text text-anchor="middle" x="646.5" y="-248" font-family="Helvetica,sans-Serif" font-size="10.00">Core/Math/LinearAlgebra.hpp</text>
</a>
</g>
</g>
<!-- Node3&#45;&gt;Node14 -->
<g id="edge13" class="edge"><title>Node3&#45;&gt;Node14</title>
<path fill="none" stroke="midnightblue" d="M646.5,-302.396C646.5,-293.064 646.5,-280.714 646.5,-270.517"/>
<polygon fill="midnightblue" stroke="midnightblue" points="650,-270.195 646.5,-260.195 643,-270.195 650,-270.195"/>
</g>
<!-- Node5 -->
<g id="node5" class="node"><title>Node5</title>
<g id="a_node5"><a xlink:href="RaCore_8hpp.html" target="_top" xlink:title="Core/RaCore.hpp">
<polygon fill="white" stroke="black" points="420.5,-112.5 420.5,-131.5 518.5,-131.5 518.5,-112.5 420.5,-112.5"/>
<text text-anchor="middle" x="469.5" y="-119.5" font-family="Helvetica,sans-Serif" font-size="10.00">Core/RaCore.hpp</text>
</a>
</g>
</g>
<!-- Node4&#45;&gt;Node5 -->
<g id="edge4" class="edge"><title>Node4&#45;&gt;Node5</title>
<path fill="none" stroke="midnightblue" d="M103.543,-235.283C92.3606,-217.411 77.8194,-186.802 94.5,-168 115.062,-144.823 309.678,-131.34 410.126,-125.87"/>
<polygon fill="midnightblue" stroke="midnightblue" points="410.332,-129.364 420.131,-125.335 409.958,-122.374 410.332,-129.364"/>
</g>
<!-- Node12 -->
<g id="node12" class="node"><title>Node12</title>
<polygon fill="white" stroke="#bfbfbf" points="104,-174 104,-193 197,-193 197,-174 104,-174"/>
<text text-anchor="middle" x="150.5" y="-181" font-family="Helvetica,sans-Serif" font-size="10.00">Eigen/StdVector</text>
</g>
<!-- Node4&#45;&gt;Node12 -->
<g id="edge11" class="edge"><title>Node4&#45;&gt;Node12</title>
<path fill="none" stroke="midnightblue" d="M121.528,-235.396C127.126,-225.562 134.631,-212.378 140.6,-201.892"/>
<polygon fill="midnightblue" stroke="midnightblue" points="143.646,-203.617 145.551,-193.195 137.562,-200.154 143.646,-203.617"/>
</g>
<!-- Node13 -->
<g id="node13" class="node"><title>Node13</title>
<polygon fill="white" stroke="#bfbfbf" points="0,-174 0,-193 47,-193 47,-174 0,-174"/>
<text text-anchor="middle" x="23.5" y="-181" font-family="Helvetica,sans-Serif" font-size="10.00">vector</text>
</g>
<!-- Node4&#45;&gt;Node13 -->
<g id="edge12" class="edge"><title>Node4&#45;&gt;Node13</title>
<path fill="none" stroke="midnightblue" d="M93.9713,-235.396C79.0183,-224.597 58.4704,-209.756 43.4207,-198.887"/>
<polygon fill="midnightblue" stroke="midnightblue" points="45.435,-196.025 35.2789,-193.007 41.3365,-201.699 45.435,-196.025"/>
</g>
<!-- Node6 -->
<g id="node6" class="node"><title>Node6</title>
<g id="a_node6"><a xlink:href="CoreMacros_8hpp.html" target="_top" xlink:title="Core/CoreMacros.hpp">
<polygon fill="white" stroke="black" points="409.5,-56.5 409.5,-75.5 529.5,-75.5 529.5,-56.5 409.5,-56.5"/>
<text text-anchor="middle" x="469.5" y="-63.5" font-family="Helvetica,sans-Serif" font-size="10.00">Core/CoreMacros.hpp</text>
</a>
</g>
</g>
<!-- Node5&#45;&gt;Node6 -->
<g id="edge5" class="edge"><title>Node5&#45;&gt;Node6</title>
<path fill="none" stroke="midnightblue" d="M469.5,-112.083C469.5,-105.006 469.5,-94.8611 469.5,-85.9865"/>
<polygon fill="midnightblue" stroke="midnightblue" points="473,-85.751 469.5,-75.7511 466,-85.7511 473,-85.751"/>
</g>
<!-- Node7 -->
<g id="node7" class="node"><title>Node7</title>
<polygon fill="white" stroke="#bfbfbf" points="306.5,-0.5 306.5,-19.5 358.5,-19.5 358.5,-0.5 306.5,-0.5"/>
<text text-anchor="middle" x="332.5" y="-7.5" font-family="Helvetica,sans-Serif" font-size="10.00">cassert</text>
</g>
<!-- Node6&#45;&gt;Node7 -->
<g id="edge6" class="edge"><title>Node6&#45;&gt;Node7</title>
<path fill="none" stroke="midnightblue" d="M447.792,-56.4435C425.145,-47.5171 389.428,-33.4387 363.748,-23.3168"/>
<polygon fill="midnightblue" stroke="midnightblue" points="364.693,-19.9273 354.106,-19.5164 362.126,-26.4397 364.693,-19.9273"/>
</g>
<!-- Node8 -->
<g id="node8" class="node"><title>Node8</title>
<polygon fill="white" stroke="#bfbfbf" points="377,-0.5 377,-19.5 422,-19.5 422,-0.5 377,-0.5"/>
<text text-anchor="middle" x="399.5" y="-7.5" font-family="Helvetica,sans-Serif" font-size="10.00">cstdio</text>
</g>
<!-- Node6&#45;&gt;Node8 -->
<g id="edge7" class="edge"><title>Node6&#45;&gt;Node8</title>
<path fill="none" stroke="midnightblue" d="M458.253,-56.324C447.703,-48.1849 431.699,-35.8395 419.058,-26.0874"/>
<polygon fill="midnightblue" stroke="midnightblue" points="421.007,-23.1707 410.951,-19.8339 416.731,-28.7132 421.007,-23.1707"/>
</g>
<!-- Node9 -->
<g id="node9" class="node"><title>Node9</title>
<polygon fill="white" stroke="#bfbfbf" points="440,-0.5 440,-19.5 499,-19.5 499,-0.5 440,-0.5"/>
<text text-anchor="middle" x="469.5" y="-7.5" font-family="Helvetica,sans-Serif" font-size="10.00">iostream</text>
</g>
<!-- Node6&#45;&gt;Node9 -->
<g id="edge8" class="edge"><title>Node6&#45;&gt;Node9</title>
<path fill="none" stroke="midnightblue" d="M469.5,-56.083C469.5,-49.0059 469.5,-38.8611 469.5,-29.9865"/>
<polygon fill="midnightblue" stroke="midnightblue" points="473,-29.751 469.5,-19.7511 466,-29.7511 473,-29.751"/>
</g>
<!-- Node10 -->
<g id="node10" class="node"><title>Node10</title>
<polygon fill="white" stroke="#bfbfbf" points="517.5,-0.5 517.5,-19.5 573.5,-19.5 573.5,-0.5 517.5,-0.5"/>
<text text-anchor="middle" x="545.5" y="-7.5" font-family="Helvetica,sans-Serif" font-size="10.00">sstream</text>
</g>
<!-- Node6&#45;&gt;Node10 -->
<g id="edge9" class="edge"><title>Node6&#45;&gt;Node10</title>
<path fill="none" stroke="midnightblue" d="M481.711,-56.324C493.276,-48.1066 510.875,-35.6017 524.661,-25.8069"/>
<polygon fill="midnightblue" stroke="midnightblue" points="526.943,-28.4791 533.067,-19.8339 522.888,-22.7729 526.943,-28.4791"/>
</g>
<!-- Node11 -->
<g id="node11" class="node"><title>Node11</title>
<polygon fill="white" stroke="#bfbfbf" points="591.5,-0.5 591.5,-19.5 639.5,-19.5 639.5,-0.5 591.5,-0.5"/>
<text text-anchor="middle" x="615.5" y="-7.5" font-family="Helvetica,sans-Serif" font-size="10.00">thread</text>
</g>
<!-- Node6&#45;&gt;Node11 -->
<g id="edge10" class="edge"><title>Node6&#45;&gt;Node11</title>
<path fill="none" stroke="midnightblue" d="M492.634,-56.4435C516.982,-47.4381 555.507,-33.1891 582.923,-23.049"/>
<polygon fill="midnightblue" stroke="midnightblue" points="584.309,-26.2681 592.474,-19.5164 581.881,-19.7028 584.309,-26.2681"/>
</g>
<!-- Node14&#45;&gt;Node5 -->
<g id="edge14" class="edge"><title>Node14&#45;&gt;Node5</title>
<path fill="none" stroke="midnightblue" d="M568.211,-240.986C539.229,-234.034 508.38,-221.507 487.5,-199 473.264,-183.654 469.652,-159.179 469.027,-142.166"/>
<polygon fill="midnightblue" stroke="midnightblue" points="472.526,-141.767 468.978,-131.784 465.526,-141.8 472.526,-141.767"/>
</g>
<!-- Node15 -->
<g id="node15" class="node"><title>Node15</title>
<polygon fill="white" stroke="#bfbfbf" points="796.5,-174 796.5,-193 864.5,-193 864.5,-174 796.5,-174"/>
<text text-anchor="middle" x="830.5" y="-181" font-family="Helvetica,sans-Serif" font-size="10.00">Eigen/Core</text>
</g>
<!-- Node14&#45;&gt;Node15 -->
<g id="edge15" class="edge"><title>Node14&#45;&gt;Node15</title>
<path fill="none" stroke="midnightblue" d="M670.934,-240.869C703.191,-229.473 760.147,-209.353 796.568,-196.487"/>
<polygon fill="midnightblue" stroke="midnightblue" points="797.995,-199.695 806.258,-193.064 795.663,-193.094 797.995,-199.695"/>
</g>
<!-- Node14&#45;&gt;Node16 -->
<g id="edge16" class="edge"><title>Node14&#45;&gt;Node16</title>
<path fill="none" stroke="midnightblue" d="M714.074,-240.99C780.056,-232.214 883.147,-217.256 971.5,-199 976.534,-197.96 981.794,-196.756 986.988,-195.495"/>
<polygon fill="midnightblue" stroke="midnightblue" points="987.971,-198.857 996.819,-193.029 986.268,-192.068 987.971,-198.857"/>
</g>
<!-- Node17 -->
<g id="node17" class="node"><title>Node17</title>
<polygon fill="white" stroke="#bfbfbf" points="882.5,-174 882.5,-193 962.5,-193 962.5,-174 882.5,-174"/>
<text text-anchor="middle" x="922.5" y="-181" font-family="Helvetica,sans-Serif" font-size="10.00">Eigen/Sparse</text>
</g>
<!-- Node14&#45;&gt;Node17 -->
<g id="edge17" class="edge"><title>Node14&#45;&gt;Node17</title>
<path fill="none" stroke="midnightblue" d="M688.963,-240.964C734.726,-231.554 809.596,-215.542 873.5,-199 877.304,-198.015 881.259,-196.937 885.199,-195.827"/>
<polygon fill="midnightblue" stroke="midnightblue" points="886.227,-199.174 894.865,-193.039 884.287,-192.448 886.227,-199.174"/>
</g>
<!-- Node18 -->
<g id="node18" class="node"><title>Node18</title>
<polygon fill="white" stroke="#bfbfbf" points="215,-174 215,-193 278,-193 278,-174 215,-174"/>
<text text-anchor="middle" x="246.5" y="-181" font-family="Helvetica,sans-Serif" font-size="10.00">functional</text>
</g>
<!-- Node14&#45;&gt;Node18 -->
<g id="edge18" class="edge"><title>Node14&#45;&gt;Node18</title>
<path fill="none" stroke="midnightblue" d="M568.359,-243.272C494.829,-236.303 382.049,-222.744 286.5,-199 283.444,-198.241 280.297,-197.332 277.174,-196.345"/>
<polygon fill="midnightblue" stroke="midnightblue" points="278.014,-192.934 267.419,-193.012 275.751,-199.558 278.014,-192.934"/>
</g>
<!-- Node19 -->
<g id="node19" class="node"><title>Node19</title>
<polygon fill="white" stroke="#bfbfbf" points="296,-168.5 296,-198.5 441,-198.5 441,-168.5 296,-168.5"/>
<text text-anchor="start" x="304" y="-186.5" font-family="Helvetica,sans-Serif" font-size="10.00">unsupported/Eigen/Aligned</text>
<text text-anchor="middle" x="368.5" y="-175.5" font-family="Helvetica,sans-Serif" font-size="10.00">Vector3</text>
</g>
<!-- Node14&#45;&gt;Node19 -->
<g id="edge19" class="edge"><title>Node14&#45;&gt;Node19</title>
<path fill="none" stroke="midnightblue" d="M609.87,-240.936C566.426,-230.778 493.043,-213.62 438.57,-200.883"/>
<polygon fill="midnightblue" stroke="midnightblue" points="439.164,-197.428 428.63,-198.559 437.57,-204.244 439.164,-197.428"/>
</g>
<!-- Node20 -->
<g id="node20" class="node"><title>Node20</title>
<g id="a_node20"><a xlink:href="Math_8hpp.html" target="_top" xlink:title="Core/Math/Math.hpp">
<polygon fill="white" stroke="black" points="664.5,-174 664.5,-193 778.5,-193 778.5,-174 664.5,-174"/>
<text text-anchor="middle" x="721.5" y="-181" font-family="Helvetica,sans-Serif" font-size="10.00">Core/Math/Math.hpp</text>
</a>
</g>
</g>
<!-- Node14&#45;&gt;Node20 -->
<g id="edge20" class="edge"><title>Node14&#45;&gt;Node20</title>
<path fill="none" stroke="midnightblue" d="M656.615,-240.734C668.648,-230.305 688.951,-212.709 703.646,-199.973"/>
<polygon fill="midnightblue" stroke="midnightblue" points="706.281,-202.322 711.545,-193.127 701.696,-197.032 706.281,-202.322"/>
</g>
<!-- Node24 -->
<g id="node24" class="node"><title>Node24</title>
<g id="a_node24"><a xlink:href="LinearAlgebra_8inl.html" target="_top" xlink:title="Core/Math/LinearAlgebra.inl">
<polygon fill="white" stroke="black" points="497,-174 497,-193 646,-193 646,-174 497,-174"/>
<text text-anchor="middle" x="571.5" y="-181" font-family="Helvetica,sans-Serif" font-size="10.00">Core/Math/LinearAlgebra.inl</text>
</a>
</g>
</g>
<!-- Node14&#45;&gt;Node24 -->
<g id="edge26" class="edge"><title>Node14&#45;&gt;Node24</title>
<path fill="none" stroke="midnightblue" d="M636.385,-240.734C624.352,-230.305 604.049,-212.709 589.354,-199.973"/>
<polygon fill="midnightblue" stroke="midnightblue" points="591.304,-197.032 581.455,-193.127 586.719,-202.322 591.304,-197.032"/>
</g>
<!-- Node20&#45;&gt;Node5 -->
<g id="edge21" class="edge"><title>Node20&#45;&gt;Node5</title>
<path fill="none" stroke="midnightblue" d="M685.395,-173.975C640.671,-163.415 564.417,-145.411 515.533,-133.869"/>
<polygon fill="midnightblue" stroke="midnightblue" points="516.075,-130.401 505.538,-131.509 514.467,-137.213 516.075,-130.401"/>
</g>
<!-- Node21 -->
<g id="node21" class="node"><title>Node21</title>
<polygon fill="white" stroke="#bfbfbf" points="576.5,-112.5 576.5,-131.5 638.5,-131.5 638.5,-112.5 576.5,-112.5"/>
<text text-anchor="middle" x="607.5" y="-119.5" font-family="Helvetica,sans-Serif" font-size="10.00">algorithm</text>
</g>
<!-- Node20&#45;&gt;Node21 -->
<g id="edge22" class="edge"><title>Node20&#45;&gt;Node21</title>
<path fill="none" stroke="midnightblue" d="M705.167,-173.975C686.289,-164.122 654.993,-147.788 632.924,-136.27"/>
<polygon fill="midnightblue" stroke="midnightblue" points="634.288,-133.033 623.803,-131.509 631.049,-139.239 634.288,-133.033"/>
</g>
<!-- Node22 -->
<g id="node22" class="node"><title>Node22</title>
<polygon fill="white" stroke="#bfbfbf" points="657,-112.5 657,-131.5 704,-131.5 704,-112.5 657,-112.5"/>
<text text-anchor="middle" x="680.5" y="-119.5" font-family="Helvetica,sans-Serif" font-size="10.00">cmath</text>
</g>
<!-- Node20&#45;&gt;Node22 -->
<g id="edge23" class="edge"><title>Node20&#45;&gt;Node22</title>
<path fill="none" stroke="midnightblue" d="M715.626,-173.975C709.537,-165.138 699.855,-151.089 692.197,-139.975"/>
<polygon fill="midnightblue" stroke="midnightblue" points="694.92,-137.758 686.363,-131.509 689.156,-141.729 694.92,-137.758"/>
</g>
<!-- Node23 -->
<g id="node23" class="node"><title>Node23</title>
<g id="a_node23"><a xlink:href="Math_8inl.html" target="_top" xlink:title="Core/Math/Math.inl">
<polygon fill="white" stroke="black" points="722,-112.5 722,-131.5 829,-131.5 829,-112.5 722,-112.5"/>
<text text-anchor="middle" x="775.5" y="-119.5" font-family="Helvetica,sans-Serif" font-size="10.00">Core/Math/Math.inl</text>
</a>
</g>
</g>
<!-- Node20&#45;&gt;Node23 -->
<g id="edge24" class="edge"><title>Node20&#45;&gt;Node23</title>
<path fill="none" stroke="midnightblue" d="M724.336,-173.975C730.672,-164.785 743.755,-149.956 755.265,-138.656"/>
<polygon fill="midnightblue" stroke="midnightblue" points="757.984,-140.905 762.88,-131.509 753.193,-135.8 757.984,-140.905"/>
</g>
<!-- Node23&#45;&gt;Node20 -->
<g id="edge25" class="edge"><title>Node23&#45;&gt;Node20</title>
<path fill="none" stroke="midnightblue" d="M772.675,-131.509C766.346,-140.693 753.266,-155.52 741.754,-166.825"/>
<polygon fill="midnightblue" stroke="midnightblue" points="739.033,-164.579 734.137,-173.975 743.824,-169.683 739.033,-164.579"/>
</g>
</g>
</svg>
