<?xml version="1.0" encoding="UTF-8" standalone="no"?>
<!DOCTYPE svg PUBLIC "-//W3C//DTD SVG 1.1//EN"
 "http://www.w3.org/Graphics/SVG/1.1/DTD/svg11.dtd">
<!-- Generated by graphviz version 2.38.0 (20140413.2041)
 -->
<!-- Title: /home/travis/build/STORM&#45;IRIT/Radium&#45;Engine/src/Core/Math/Quadric.inl Pages: 1 -->
<svg width="1028pt" height="397pt"
 viewBox="0.00 0.00 1028.00 397.00" xmlns="http://www.w3.org/2000/svg" xmlns:xlink="http://www.w3.org/1999/xlink">
<g id="graph0" class="graph" transform="scale(1 1) rotate(0) translate(4 393)">
<title>/home/travis/build/STORM&#45;IRIT/Radium&#45;Engine/src/Core/Math/Quadric.inl</title>
<polygon fill="white" stroke="none" points="-4,4 -4,-393 1024,-393 1024,4 -4,4"/>
<!-- Node1 -->
<g id="node1" class="node"><title>Node1</title>
<polygon fill="#bfbfbf" stroke="black" points="814,-347.5 814,-388.5 962,-388.5 962,-347.5 814,-347.5"/>
<text text-anchor="start" x="822" y="-376.5" font-family="Helvetica,sans-Serif" font-size="10.00">/home/travis/build</text>
<text text-anchor="start" x="822" y="-365.5" font-family="Helvetica,sans-Serif" font-size="10.00">/STORM&#45;IRIT/Radium&#45;Engine</text>
<text text-anchor="middle" x="888" y="-354.5" font-family="Helvetica,sans-Serif" font-size="10.00">/src/Core/Math/Quadric.inl</text>
</g>
<!-- Node2 -->
<g id="node2" class="node"><title>Node2</title>
<g id="a_node2"><a xlink:href="Quadric_8hpp.html" target="_top" xlink:title="Quadric.hpp">
<polygon fill="white" stroke="black" points="851,-291.5 851,-310.5 925,-310.5 925,-291.5 851,-291.5"/>
<text text-anchor="middle" x="888" y="-298.5" font-family="Helvetica,sans-Serif" font-size="10.00">Quadric.hpp</text>
</a>
</g>
</g>
<!-- Node1&#45;&gt;Node2 -->
<g id="edge1" class="edge"><title>Node1&#45;&gt;Node2</title>
<path fill="none" stroke="midnightblue" d="M881.755,-347.498C881.057,-338.969 881.083,-329.011 881.833,-320.59"/>
<polygon fill="midnightblue" stroke="midnightblue" points="885.303,-321.044 883.236,-310.652 878.372,-320.065 885.303,-321.044"/>
</g>
<!-- Node2&#45;&gt;Node1 -->
<g id="edge24" class="edge"><title>Node2&#45;&gt;Node1</title>
<path fill="none" stroke="midnightblue" d="M892.764,-310.652C894.227,-317.524 894.881,-327.559 894.728,-337.263"/>
<polygon fill="midnightblue" stroke="midnightblue" points="891.221,-337.344 894.245,-347.498 898.213,-337.674 891.221,-337.344"/>
</g>
<!-- Node3 -->
<g id="node3" class="node"><title>Node3</title>
<g id="a_node3"><a xlink:href="LinearAlgebra_8hpp.html" target="_top" xlink:title="Core/Math/LinearAlgebra.hpp">
<polygon fill="white" stroke="black" points="372,-235.5 372,-254.5 528,-254.5 528,-235.5 372,-235.5"/>
<text text-anchor="middle" x="450" y="-242.5" font-family="Helvetica,sans-Serif" font-size="10.00">Core/Math/LinearAlgebra.hpp</text>
</a>
</g>
</g>
<!-- Node2&#45;&gt;Node3 -->
<g id="edge2" class="edge"><title>Node2&#45;&gt;Node3</title>
<path fill="none" stroke="midnightblue" d="M850.656,-295.396C779.797,-286.66 624.436,-267.506 529.346,-255.782"/>
<polygon fill="midnightblue" stroke="midnightblue" points="529.552,-252.281 519.198,-254.531 528.695,-259.229 529.552,-252.281"/>
</g>
<!-- Node4 -->
<g id="node4" class="node"><title>Node4</title>
<g id="a_node4"><a xlink:href="RaCore_8hpp.html" target="_top" xlink:title="Core/RaCore.hpp">
<polygon fill="white" stroke="black" points="801,-112.5 801,-131.5 899,-131.5 899,-112.5 801,-112.5"/>
<text text-anchor="middle" x="850" y="-119.5" font-family="Helvetica,sans-Serif" font-size="10.00">Core/RaCore.hpp</text>
</a>
</g>
</g>
<!-- Node2&#45;&gt;Node4 -->
<g id="edge22" class="edge"><title>Node2&#45;&gt;Node4</title>
<path fill="none" stroke="midnightblue" d="M886.167,-291.463C880.363,-264.428 862.289,-180.239 854.102,-142.109"/>
<polygon fill="midnightblue" stroke="midnightblue" points="857.425,-140.911 851.904,-131.868 850.581,-142.38 857.425,-140.911"/>
</g>
<!-- Node21 -->
<g id="node21" class="node"><title>Node21</title>
<polygon fill="white" stroke="#bfbfbf" points="916.5,-235.5 916.5,-254.5 1019.5,-254.5 1019.5,-235.5 916.5,-235.5"/>
<text text-anchor="middle" x="968" y="-242.5" font-family="Helvetica,sans-Serif" font-size="10.00">Eigen/Eigenvalues</text>
</g>
<!-- Node2&#45;&gt;Node21 -->
<g id="edge23" class="edge"><title>Node2&#45;&gt;Node21</title>
<path fill="none" stroke="midnightblue" d="M900.853,-291.324C913.216,-282.979 932.13,-270.212 946.737,-260.352"/>
<polygon fill="midnightblue" stroke="midnightblue" points="948.848,-263.15 955.179,-254.655 944.932,-257.348 948.848,-263.15"/>
</g>
<!-- Node3&#45;&gt;Node4 -->
<g id="edge3" class="edge"><title>Node3&#45;&gt;Node4</title>
<path fill="none" stroke="midnightblue" d="M528.156,-239.546C633.303,-232.841 809.781,-218.795 832,-199 847.946,-184.794 851.084,-159.301 851.138,-141.787"/>
<polygon fill="midnightblue" stroke="midnightblue" points="854.632,-141.518 850.832,-131.628 847.635,-141.729 854.632,-141.518"/>
</g>
<!-- Node11 -->
<g id="node11" class="node"><title>Node11</title>
<polygon fill="white" stroke="#bfbfbf" points="0,-174 0,-193 68,-193 68,-174 0,-174"/>
<text text-anchor="middle" x="34" y="-181" font-family="Helvetica,sans-Serif" font-size="10.00">Eigen/Core</text>
</g>
<!-- Node3&#45;&gt;Node11 -->
<g id="edge10" class="edge"><title>Node3&#45;&gt;Node11</title>
<path fill="none" stroke="midnightblue" d="M371.694,-239.243C295.664,-233.527 177.355,-221.721 77,-199 73.5135,-198.211 69.912,-197.246 66.3458,-196.192"/>
<polygon fill="midnightblue" stroke="midnightblue" points="67.1045,-192.76 56.5139,-193.06 64.9798,-199.43 67.1045,-192.76"/>
</g>
<!-- Node12 -->
<g id="node12" class="node"><title>Node12</title>
<polygon fill="white" stroke="#bfbfbf" points="86,-174 86,-193 180,-193 180,-174 86,-174"/>
<text text-anchor="middle" x="133" y="-181" font-family="Helvetica,sans-Serif" font-size="10.00">Eigen/Geometry</text>
</g>
<!-- Node3&#45;&gt;Node12 -->
<g id="edge11" class="edge"><title>Node3&#45;&gt;Node12</title>
<path fill="none" stroke="midnightblue" d="M392.457,-235.478C339.397,-227.29 258.562,-213.976 189,-199 184.034,-197.931 178.845,-196.718 173.714,-195.461"/>
<polygon fill="midnightblue" stroke="midnightblue" points="174.545,-192.061 163.993,-193.012 172.835,-198.849 174.545,-192.061"/>
</g>
<!-- Node13 -->
<g id="node13" class="node"><title>Node13</title>
<polygon fill="white" stroke="#bfbfbf" points="198,-174 198,-193 278,-193 278,-174 198,-174"/>
<text text-anchor="middle" x="238" y="-181" font-family="Helvetica,sans-Serif" font-size="10.00">Eigen/Sparse</text>
</g>
<!-- Node3&#45;&gt;Node13 -->
<g id="edge12" class="edge"><title>Node3&#45;&gt;Node13</title>
<path fill="none" stroke="midnightblue" d="M418.914,-235.477C386.28,-226.504 333.49,-211.914 288,-199 284.443,-197.99 280.747,-196.933 277.046,-195.869"/>
<polygon fill="midnightblue" stroke="midnightblue" points="277.91,-192.476 267.331,-193.066 275.969,-199.201 277.91,-192.476"/>
</g>
<!-- Node14 -->
<g id="node14" class="node"><title>Node14</title>
<polygon fill="white" stroke="#bfbfbf" points="296.5,-174 296.5,-193 359.5,-193 359.5,-174 296.5,-174"/>
<text text-anchor="middle" x="328" y="-181" font-family="Helvetica,sans-Serif" font-size="10.00">functional</text>
</g>
<!-- Node3&#45;&gt;Node14 -->
<g id="edge13" class="edge"><title>Node3&#45;&gt;Node14</title>
<path fill="none" stroke="midnightblue" d="M432.52,-235.475C412.137,-225.534 378.225,-208.995 354.575,-197.461"/>
<polygon fill="midnightblue" stroke="midnightblue" points="355.969,-194.247 345.447,-193.009 352.901,-200.538 355.969,-194.247"/>
</g>
<!-- Node15 -->
<g id="node15" class="node"><title>Node15</title>
<polygon fill="white" stroke="#bfbfbf" points="377.5,-168.5 377.5,-198.5 522.5,-198.5 522.5,-168.5 377.5,-168.5"/>
<text text-anchor="start" x="385.5" y="-186.5" font-family="Helvetica,sans-Serif" font-size="10.00">unsupported/Eigen/Aligned</text>
<text text-anchor="middle" x="450" y="-175.5" font-family="Helvetica,sans-Serif" font-size="10.00">Vector3</text>
</g>
<!-- Node3&#45;&gt;Node15 -->
<g id="edge14" class="edge"><title>Node3&#45;&gt;Node15</title>
<path fill="none" stroke="midnightblue" d="M450,-235.475C450,-228.471 450,-218.192 450,-208.696"/>
<polygon fill="midnightblue" stroke="midnightblue" points="453.5,-208.523 450,-198.523 446.5,-208.523 453.5,-208.523"/>
</g>
<!-- Node16 -->
<g id="node16" class="node"><title>Node16</title>
<g id="a_node16"><a xlink:href="Math_8hpp.html" target="_top" xlink:title="Core/Math/Math.hpp">
<polygon fill="white" stroke="black" points="541,-174 541,-193 655,-193 655,-174 541,-174"/>
<text text-anchor="middle" x="598" y="-181" font-family="Helvetica,sans-Serif" font-size="10.00">Core/Math/Math.hpp</text>
</a>
</g>
</g>
<!-- Node3&#45;&gt;Node16 -->
<g id="edge15" class="edge"><title>Node3&#45;&gt;Node16</title>
<path fill="none" stroke="midnightblue" d="M471.205,-235.475C496.372,-225.357 538.54,-208.405 567.279,-196.851"/>
<polygon fill="midnightblue" stroke="midnightblue" points="568.862,-199.987 576.835,-193.009 566.251,-193.492 568.862,-199.987"/>
</g>
<!-- Node20 -->
<g id="node20" class="node"><title>Node20</title>
<g id="a_node20"><a xlink:href="LinearAlgebra_8inl.html" target="_top" xlink:title="Core/Math/LinearAlgebra.inl">
<polygon fill="white" stroke="black" points="673.5,-174 673.5,-193 822.5,-193 822.5,-174 673.5,-174"/>
<text text-anchor="middle" x="748" y="-181" font-family="Helvetica,sans-Serif" font-size="10.00">Core/Math/LinearAlgebra.inl</text>
</a>
</g>
</g>
<!-- Node3&#45;&gt;Node20 -->
<g id="edge21" class="edge"><title>Node3&#45;&gt;Node20</title>
<path fill="none" stroke="midnightblue" d="M492.696,-235.475C546.137,-224.805 637.647,-206.534 695.367,-195.009"/>
<polygon fill="midnightblue" stroke="midnightblue" points="696.262,-198.399 705.383,-193.009 694.891,-191.535 696.262,-198.399"/>
</g>
<!-- Node5 -->
<g id="node5" class="node"><title>Node5</title>
<g id="a_node5"><a xlink:href="CoreMacros_8hpp.html" target="_top" xlink:title="Core/CoreMacros.hpp">
<polygon fill="white" stroke="black" points="790,-56.5 790,-75.5 910,-75.5 910,-56.5 790,-56.5"/>
<text text-anchor="middle" x="850" y="-63.5" font-family="Helvetica,sans-Serif" font-size="10.00">Core/CoreMacros.hpp</text>
</a>
</g>
</g>
<!-- Node4&#45;&gt;Node5 -->
<g id="edge4" class="edge"><title>Node4&#45;&gt;Node5</title>
<path fill="none" stroke="midnightblue" d="M850,-112.083C850,-105.006 850,-94.8611 850,-85.9865"/>
<polygon fill="midnightblue" stroke="midnightblue" points="853.5,-85.751 850,-75.7511 846.5,-85.7511 853.5,-85.751"/>
</g>
<!-- Node6 -->
<g id="node6" class="node"><title>Node6</title>
<polygon fill="white" stroke="#bfbfbf" points="687,-0.5 687,-19.5 739,-19.5 739,-0.5 687,-0.5"/>
<text text-anchor="middle" x="713" y="-7.5" font-family="Helvetica,sans-Serif" font-size="10.00">cassert</text>
</g>
<!-- Node5&#45;&gt;Node6 -->
<g id="edge5" class="edge"><title>Node5&#45;&gt;Node6</title>
<path fill="none" stroke="midnightblue" d="M828.292,-56.4435C805.645,-47.5171 769.928,-33.4387 744.248,-23.3168"/>
<polygon fill="midnightblue" stroke="midnightblue" points="745.193,-19.9273 734.606,-19.5164 742.626,-26.4397 745.193,-19.9273"/>
</g>
<!-- Node7 -->
<g id="node7" class="node"><title>Node7</title>
<polygon fill="white" stroke="#bfbfbf" points="757.5,-0.5 757.5,-19.5 802.5,-19.5 802.5,-0.5 757.5,-0.5"/>
<text text-anchor="middle" x="780" y="-7.5" font-family="Helvetica,sans-Serif" font-size="10.00">cstdio</text>
</g>
<!-- Node5&#45;&gt;Node7 -->
<g id="edge6" class="edge"><title>Node5&#45;&gt;Node7</title>
<path fill="none" stroke="midnightblue" d="M838.753,-56.324C828.203,-48.1849 812.199,-35.8395 799.558,-26.0874"/>
<polygon fill="midnightblue" stroke="midnightblue" points="801.507,-23.1707 791.451,-19.8339 797.231,-28.7132 801.507,-23.1707"/>
</g>
<!-- Node8 -->
<g id="node8" class="node"><title>Node8</title>
<polygon fill="white" stroke="#bfbfbf" points="820.5,-0.5 820.5,-19.5 879.5,-19.5 879.5,-0.5 820.5,-0.5"/>
<text text-anchor="middle" x="850" y="-7.5" font-family="Helvetica,sans-Serif" font-size="10.00">iostream</text>
</g>
<!-- Node5&#45;&gt;Node8 -->
<g id="edge7" class="edge"><title>Node5&#45;&gt;Node8</title>
<path fill="none" stroke="midnightblue" d="M850,-56.083C850,-49.0059 850,-38.8611 850,-29.9865"/>
<polygon fill="midnightblue" stroke="midnightblue" points="853.5,-29.751 850,-19.7511 846.5,-29.7511 853.5,-29.751"/>
</g>
<!-- Node9 -->
<g id="node9" class="node"><title>Node9</title>
<polygon fill="white" stroke="#bfbfbf" points="898,-0.5 898,-19.5 954,-19.5 954,-0.5 898,-0.5"/>
<text text-anchor="middle" x="926" y="-7.5" font-family="Helvetica,sans-Serif" font-size="10.00">sstream</text>
</g>
<!-- Node5&#45;&gt;Node9 -->
<g id="edge8" class="edge"><title>Node5&#45;&gt;Node9</title>
<path fill="none" stroke="midnightblue" d="M862.211,-56.324C873.776,-48.1066 891.375,-35.6017 905.161,-25.8069"/>
<polygon fill="midnightblue" stroke="midnightblue" points="907.443,-28.4791 913.567,-19.8339 903.388,-22.7729 907.443,-28.4791"/>
</g>
<!-- Node10 -->
<g id="node10" class="node"><title>Node10</title>
<polygon fill="white" stroke="#bfbfbf" points="972,-0.5 972,-19.5 1020,-19.5 1020,-0.5 972,-0.5"/>
<text text-anchor="middle" x="996" y="-7.5" font-family="Helvetica,sans-Serif" font-size="10.00">thread</text>
</g>
<!-- Node5&#45;&gt;Node10 -->
<g id="edge9" class="edge"><title>Node5&#45;&gt;Node10</title>
<path fill="none" stroke="midnightblue" d="M873.134,-56.4435C897.482,-47.4381 936.007,-33.1891 963.423,-23.049"/>
<polygon fill="midnightblue" stroke="midnightblue" points="964.809,-26.2681 972.974,-19.5164 962.381,-19.7028 964.809,-26.2681"/>
</g>
<!-- Node16&#45;&gt;Node4 -->
<g id="edge16" class="edge"><title>Node16&#45;&gt;Node4</title>
<path fill="none" stroke="midnightblue" d="M634.105,-173.975C678.829,-163.415 755.083,-145.411 803.967,-133.869"/>
<polygon fill="midnightblue" stroke="midnightblue" points="805.033,-137.213 813.962,-131.509 803.425,-130.401 805.033,-137.213"/>
</g>
<!-- Node17 -->
<g id="node17" class="node"><title>Node17</title>
<polygon fill="white" stroke="#bfbfbf" points="447,-112.5 447,-131.5 509,-131.5 509,-112.5 447,-112.5"/>
<text text-anchor="middle" x="478" y="-119.5" font-family="Helvetica,sans-Serif" font-size="10.00">algorithm</text>
</g>
<!-- Node16&#45;&gt;Node17 -->
<g id="edge17" class="edge"><title>Node16&#45;&gt;Node17</title>
<path fill="none" stroke="midnightblue" d="M580.807,-173.975C560.757,-164.034 527.401,-147.495 504.14,-135.961"/>
<polygon fill="midnightblue" stroke="midnightblue" points="505.675,-132.816 495.161,-131.509 502.566,-139.087 505.675,-132.816"/>
</g>
<!-- Node18 -->
<g id="node18" class="node"><title>Node18</title>
<polygon fill="white" stroke="#bfbfbf" points="527.5,-112.5 527.5,-131.5 574.5,-131.5 574.5,-112.5 527.5,-112.5"/>
<text text-anchor="middle" x="551" y="-119.5" font-family="Helvetica,sans-Serif" font-size="10.00">cmath</text>
</g>
<!-- Node16&#45;&gt;Node18 -->
<g id="edge18" class="edge"><title>Node16&#45;&gt;Node18</title>
<path fill="none" stroke="midnightblue" d="M591.266,-173.975C584.216,-165.05 572.965,-150.807 564.146,-139.643"/>
<polygon fill="midnightblue" stroke="midnightblue" points="566.667,-137.187 557.721,-131.509 561.174,-141.526 566.667,-137.187"/>
</g>
<!-- Node19 -->
<g id="node19" class="node"><title>Node19</title>
<g id="a_node19"><a xlink:href="Math_8inl.html" target="_top" xlink:title="Core/Math/Math.inl">
<polygon fill="white" stroke="black" points="592.5,-112.5 592.5,-131.5 699.5,-131.5 699.5,-112.5 592.5,-112.5"/>
<text text-anchor="middle" x="646" y="-119.5" font-family="Helvetica,sans-Serif" font-size="10.00">Core/Math/Math.inl</text>
</a>
</g>
</g>
<!-- Node16&#45;&gt;Node19 -->
<g id="edge19" class="edge"><title>Node16&#45;&gt;Node19</title>
<path fill="none" stroke="midnightblue" d="M599.977,-173.975C605.334,-164.873 616.751,-150.241 627.045,-138.983"/>
<polygon fill="midnightblue" stroke="midnightblue" points="629.825,-141.141 634.238,-131.509 624.782,-136.287 629.825,-141.141"/>
</g>
<!-- Node19&#45;&gt;Node16 -->
<g id="edge20" class="edge"><title>Node19&#45;&gt;Node16</title>
<path fill="none" stroke="midnightblue" d="M644.033,-131.509C638.682,-140.604 627.268,-155.236 616.973,-166.497"/>
<polygon fill="midnightblue" stroke="midnightblue" points="614.19,-164.343 609.778,-173.975 619.234,-169.196 614.19,-164.343"/>
</g>
</g>
</svg>
