<?xml version="1.0" encoding="UTF-8" standalone="no"?>
<!DOCTYPE svg PUBLIC "-//W3C//DTD SVG 1.1//EN"
 "http://www.w3.org/Graphics/SVG/1.1/DTD/svg11.dtd">
<!-- Generated by graphviz version 2.38.0 (20140413.2041)
 -->
<!-- Title: /home/travis/build/STORM&#45;IRIT/Radium&#45;Engine/src/Engine/Renderer/RenderObject/RenderObjectManager.hpp Pages: 1 -->
<svg width="1595pt" height="363pt"
 viewBox="0.00 0.00 1595.00 363.00" xmlns="http://www.w3.org/2000/svg" xmlns:xlink="http://www.w3.org/1999/xlink">
<g id="graph0" class="graph" transform="scale(1 1) rotate(0) translate(4 359)">
<title>/home/travis/build/STORM&#45;IRIT/Radium&#45;Engine/src/Engine/Renderer/RenderObject/RenderObjectManager.hpp</title>
<polygon fill="white" stroke="none" points="-4,4 -4,-359 1591,-359 1591,4 -4,4"/>
<!-- Node1 -->
<g id="node1" class="node"><title>Node1</title>
<polygon fill="#bfbfbf" stroke="black" points="206.5,-302.5 206.5,-354.5 388.5,-354.5 388.5,-302.5 206.5,-302.5"/>
<text text-anchor="start" x="214.5" y="-342.5" font-family="Helvetica,sans-Serif" font-size="10.00">/home/travis/build</text>
<text text-anchor="start" x="214.5" y="-331.5" font-family="Helvetica,sans-Serif" font-size="10.00">/STORM&#45;IRIT/Radium&#45;Engine</text>
<text text-anchor="start" x="214.5" y="-320.5" font-family="Helvetica,sans-Serif" font-size="10.00">/src/Engine/Renderer/RenderObject</text>
<text text-anchor="middle" x="297.5" y="-309.5" font-family="Helvetica,sans-Serif" font-size="10.00">/RenderObjectManager.hpp</text>
</g>
<!-- Node2 -->
<g id="node2" class="node"><title>Node2</title>
<g id="a_node2"><a xlink:href="RaEngine_8hpp.html" target="_top" xlink:title="Engine/RaEngine.hpp">
<polygon fill="white" stroke="black" points="0,-112.5 0,-131.5 117,-131.5 117,-112.5 0,-112.5"/>
<text text-anchor="middle" x="58.5" y="-119.5" font-family="Helvetica,sans-Serif" font-size="10.00">Engine/RaEngine.hpp</text>
</a>
</g>
</g>
<!-- Node1&#45;&gt;Node2 -->
<g id="edge1" class="edge"><title>Node1&#45;&gt;Node2</title>
<path fill="none" stroke="midnightblue" d="M206.456,-317.325C142.083,-308.036 63.7695,-291.763 43.5,-266 14.6428,-229.322 35.9346,-169.948 49.5183,-140.59"/>
<polygon fill="midnightblue" stroke="midnightblue" points="52.691,-142.069 53.9068,-131.544 46.393,-139.014 52.691,-142.069"/>
</g>
<!-- Node9 -->
<g id="node9" class="node"><title>Node9</title>
<polygon fill="white" stroke="#bfbfbf" points="53,-241 53,-260 94,-260 94,-241 53,-241"/>
<text text-anchor="middle" x="73.5" y="-248" font-family="Helvetica,sans-Serif" font-size="10.00">array</text>
</g>
<!-- Node1&#45;&gt;Node9 -->
<g id="edge8" class="edge"><title>Node1&#45;&gt;Node9</title>
<path fill="none" stroke="midnightblue" d="M207.628,-302.406C174.208,-292.229 136.228,-279.651 102.5,-266 101.297,-265.513 100.075,-264.996 98.8474,-264.458"/>
<polygon fill="midnightblue" stroke="midnightblue" points="100.089,-261.175 89.5501,-260.09 97.1123,-267.51 100.089,-261.175"/>
</g>
<!-- Node10 -->
<g id="node10" class="node"><title>Node10</title>
<polygon fill="white" stroke="#bfbfbf" points="112,-241 112,-260 169,-260 169,-241 112,-241"/>
<text text-anchor="middle" x="140.5" y="-248" font-family="Helvetica,sans-Serif" font-size="10.00">memory</text>
</g>
<!-- Node1&#45;&gt;Node10 -->
<g id="edge9" class="edge"><title>Node1&#45;&gt;Node10</title>
<path fill="none" stroke="midnightblue" d="M245.657,-302.404C219.477,-289.731 188.809,-274.885 167.371,-264.508"/>
<polygon fill="midnightblue" stroke="midnightblue" points="168.746,-261.285 158.22,-260.078 165.696,-267.585 168.746,-261.285"/>
</g>
<!-- Node11 -->
<g id="node11" class="node"><title>Node11</title>
<polygon fill="white" stroke="#bfbfbf" points="187,-241 187,-260 234,-260 234,-241 187,-241"/>
<text text-anchor="middle" x="210.5" y="-248" font-family="Helvetica,sans-Serif" font-size="10.00">mutex</text>
</g>
<!-- Node1&#45;&gt;Node11 -->
<g id="edge10" class="edge"><title>Node1&#45;&gt;Node11</title>
<path fill="none" stroke="midnightblue" d="M268.53,-302.193C255.166,-290.518 239.733,-277.037 228.144,-266.913"/>
<polygon fill="midnightblue" stroke="midnightblue" points="230.303,-264.152 220.469,-260.209 225.698,-269.424 230.303,-264.152"/>
</g>
<!-- Node12 -->
<g id="node12" class="node"><title>Node12</title>
<polygon fill="white" stroke="#bfbfbf" points="252.5,-241 252.5,-260 284.5,-260 284.5,-241 252.5,-241"/>
<text text-anchor="middle" x="268.5" y="-248" font-family="Helvetica,sans-Serif" font-size="10.00">set</text>
</g>
<!-- Node1&#45;&gt;Node12 -->
<g id="edge11" class="edge"><title>Node1&#45;&gt;Node12</title>
<path fill="none" stroke="midnightblue" d="M287.843,-302.193C283.778,-291.538 279.138,-279.379 275.422,-269.641"/>
<polygon fill="midnightblue" stroke="midnightblue" points="278.658,-268.304 271.823,-260.209 272.118,-270.8 278.658,-268.304"/>
</g>
<!-- Node13 -->
<g id="node13" class="node"><title>Node13</title>
<polygon fill="white" stroke="#bfbfbf" points="303,-241 303,-260 350,-260 350,-241 303,-241"/>
<text text-anchor="middle" x="326.5" y="-248" font-family="Helvetica,sans-Serif" font-size="10.00">vector</text>
</g>
<!-- Node1&#45;&gt;Node13 -->
<g id="edge12" class="edge"><title>Node1&#45;&gt;Node13</title>
<path fill="none" stroke="midnightblue" d="M307.157,-302.193C311.222,-291.538 315.862,-279.379 319.578,-269.641"/>
<polygon fill="midnightblue" stroke="midnightblue" points="322.882,-270.8 323.177,-260.209 316.342,-268.304 322.882,-270.8"/>
</g>
<!-- Node14 -->
<g id="node14" class="node"><title>Node14</title>
<g id="a_node14"><a xlink:href="Index_8hpp.html" target="_top" xlink:title="Core/Index/Index.hpp">
<polygon fill="white" stroke="black" points="166,-174 166,-193 283,-193 283,-174 166,-174"/>
<text text-anchor="middle" x="224.5" y="-181" font-family="Helvetica,sans-Serif" font-size="10.00">Core/Index/Index.hpp</text>
</a>
</g>
</g>
<!-- Node1&#45;&gt;Node14 -->
<g id="edge13" class="edge"><title>Node1&#45;&gt;Node14</title>
<path fill="none" stroke="midnightblue" d="M332.261,-302.172C353.573,-283.468 374.041,-257.464 358.5,-235 348.008,-219.834 304.675,-205.286 270.087,-195.733"/>
<polygon fill="midnightblue" stroke="midnightblue" points="270.707,-192.275 260.14,-193.054 268.886,-199.034 270.707,-192.275"/>
</g>
<!-- Node17 -->
<g id="node17" class="node"><title>Node17</title>
<g id="a_node17"><a xlink:href="IndexMap_8hpp.html" target="_top" xlink:title="Core/Index/IndexMap.hpp">
<polygon fill="white" stroke="black" points="407,-241 407,-260 544,-260 544,-241 407,-241"/>
<text text-anchor="middle" x="475.5" y="-248" font-family="Helvetica,sans-Serif" font-size="10.00">Core/Index/IndexMap.hpp</text>
</a>
</g>
</g>
<!-- Node1&#45;&gt;Node17 -->
<g id="edge16" class="edge"><title>Node1&#45;&gt;Node17</title>
<path fill="none" stroke="midnightblue" d="M356.277,-302.404C386.36,-289.56 421.67,-274.484 446.014,-264.089"/>
<polygon fill="midnightblue" stroke="midnightblue" points="447.587,-267.224 455.41,-260.078 444.838,-260.786 447.587,-267.224"/>
</g>
<!-- Node23 -->
<g id="node23" class="node"><title>Node23</title>
<g id="a_node23"><a xlink:href="LinearAlgebra_8hpp.html" target="_top" xlink:title="Core/Math/LinearAlgebra.hpp">
<polygon fill="white" stroke="black" points="875.5,-241 875.5,-260 1031.5,-260 1031.5,-241 875.5,-241"/>
<text text-anchor="middle" x="953.5" y="-248" font-family="Helvetica,sans-Serif" font-size="10.00">Core/Math/LinearAlgebra.hpp</text>
</a>
</g>
</g>
<!-- Node1&#45;&gt;Node23 -->
<g id="edge25" class="edge"><title>Node1&#45;&gt;Node23</title>
<path fill="none" stroke="midnightblue" d="M388.714,-316.933C516.268,-302.155 746.119,-275.526 869.613,-261.219"/>
<polygon fill="midnightblue" stroke="midnightblue" points="870.241,-264.669 879.772,-260.042 869.435,-257.716 870.241,-264.669"/>
</g>
<!-- Node33 -->
<g id="node33" class="node"><title>Node33</title>
<g id="a_node33"><a xlink:href="RenderObjectTypes_8hpp.html" target="_top" xlink:title="Engine/Renderer/RenderObject\l/RenderObjectTypes.hpp">
<polygon fill="white" stroke="black" points="1050,-235.5 1050,-265.5 1211,-265.5 1211,-235.5 1050,-235.5"/>
<text text-anchor="start" x="1058" y="-253.5" font-family="Helvetica,sans-Serif" font-size="10.00">Engine/Renderer/RenderObject</text>
<text text-anchor="middle" x="1130.5" y="-242.5" font-family="Helvetica,sans-Serif" font-size="10.00">/RenderObjectTypes.hpp</text>
</a>
</g>
</g>
<!-- Node1&#45;&gt;Node33 -->
<g id="edge39" class="edge"><title>Node1&#45;&gt;Node33</title>
<path fill="none" stroke="midnightblue" d="M388.661,-322.227C527.094,-313.715 798.778,-295.031 1039.59,-266.049"/>
<polygon fill="midnightblue" stroke="midnightblue" points="1040.08,-269.515 1049.59,-264.838 1039.24,-262.566 1040.08,-269.515"/>
</g>
<!-- Node3 -->
<g id="node3" class="node"><title>Node3</title>
<g id="a_node3"><a xlink:href="CoreMacros_8hpp.html" target="_top" xlink:title="Core/CoreMacros.hpp">
<polygon fill="white" stroke="black" points="271.5,-56.5 271.5,-75.5 391.5,-75.5 391.5,-56.5 271.5,-56.5"/>
<text text-anchor="middle" x="331.5" y="-63.5" font-family="Helvetica,sans-Serif" font-size="10.00">Core/CoreMacros.hpp</text>
</a>
</g>
</g>
<!-- Node2&#45;&gt;Node3 -->
<g id="edge2" class="edge"><title>Node2&#45;&gt;Node3</title>
<path fill="none" stroke="midnightblue" d="M101.758,-112.444C149.681,-102.964 226.978,-87.6747 278.5,-77.4835"/>
<polygon fill="midnightblue" stroke="midnightblue" points="279.314,-80.8904 288.445,-75.5164 277.956,-74.0235 279.314,-80.8904"/>
</g>
<!-- Node4 -->
<g id="node4" class="node"><title>Node4</title>
<polygon fill="white" stroke="#bfbfbf" points="168.5,-0.5 168.5,-19.5 220.5,-19.5 220.5,-0.5 168.5,-0.5"/>
<text text-anchor="middle" x="194.5" y="-7.5" font-family="Helvetica,sans-Serif" font-size="10.00">cassert</text>
</g>
<!-- Node3&#45;&gt;Node4 -->
<g id="edge3" class="edge"><title>Node3&#45;&gt;Node4</title>
<path fill="none" stroke="midnightblue" d="M309.792,-56.4435C287.145,-47.5171 251.428,-33.4387 225.748,-23.3168"/>
<polygon fill="midnightblue" stroke="midnightblue" points="226.693,-19.9273 216.106,-19.5164 224.126,-26.4397 226.693,-19.9273"/>
</g>
<!-- Node5 -->
<g id="node5" class="node"><title>Node5</title>
<polygon fill="white" stroke="#bfbfbf" points="239,-0.5 239,-19.5 284,-19.5 284,-0.5 239,-0.5"/>
<text text-anchor="middle" x="261.5" y="-7.5" font-family="Helvetica,sans-Serif" font-size="10.00">cstdio</text>
</g>
<!-- Node3&#45;&gt;Node5 -->
<g id="edge4" class="edge"><title>Node3&#45;&gt;Node5</title>
<path fill="none" stroke="midnightblue" d="M320.253,-56.324C309.703,-48.1849 293.699,-35.8395 281.058,-26.0874"/>
<polygon fill="midnightblue" stroke="midnightblue" points="283.007,-23.1707 272.951,-19.8339 278.731,-28.7132 283.007,-23.1707"/>
</g>
<!-- Node6 -->
<g id="node6" class="node"><title>Node6</title>
<polygon fill="white" stroke="#bfbfbf" points="302,-0.5 302,-19.5 361,-19.5 361,-0.5 302,-0.5"/>
<text text-anchor="middle" x="331.5" y="-7.5" font-family="Helvetica,sans-Serif" font-size="10.00">iostream</text>
</g>
<!-- Node3&#45;&gt;Node6 -->
<g id="edge5" class="edge"><title>Node3&#45;&gt;Node6</title>
<path fill="none" stroke="midnightblue" d="M331.5,-56.083C331.5,-49.0059 331.5,-38.8611 331.5,-29.9865"/>
<polygon fill="midnightblue" stroke="midnightblue" points="335,-29.751 331.5,-19.7511 328,-29.7511 335,-29.751"/>
</g>
<!-- Node7 -->
<g id="node7" class="node"><title>Node7</title>
<polygon fill="white" stroke="#bfbfbf" points="379.5,-0.5 379.5,-19.5 435.5,-19.5 435.5,-0.5 379.5,-0.5"/>
<text text-anchor="middle" x="407.5" y="-7.5" font-family="Helvetica,sans-Serif" font-size="10.00">sstream</text>
</g>
<!-- Node3&#45;&gt;Node7 -->
<g id="edge6" class="edge"><title>Node3&#45;&gt;Node7</title>
<path fill="none" stroke="midnightblue" d="M343.711,-56.324C355.276,-48.1066 372.875,-35.6017 386.661,-25.8069"/>
<polygon fill="midnightblue" stroke="midnightblue" points="388.943,-28.4791 395.067,-19.8339 384.888,-22.7729 388.943,-28.4791"/>
</g>
<!-- Node8 -->
<g id="node8" class="node"><title>Node8</title>
<polygon fill="white" stroke="#bfbfbf" points="453.5,-0.5 453.5,-19.5 501.5,-19.5 501.5,-0.5 453.5,-0.5"/>
<text text-anchor="middle" x="477.5" y="-7.5" font-family="Helvetica,sans-Serif" font-size="10.00">thread</text>
</g>
<!-- Node3&#45;&gt;Node8 -->
<g id="edge7" class="edge"><title>Node3&#45;&gt;Node8</title>
<path fill="none" stroke="midnightblue" d="M354.634,-56.4435C378.982,-47.4381 417.507,-33.1891 444.923,-23.049"/>
<polygon fill="midnightblue" stroke="midnightblue" points="446.309,-26.2681 454.474,-19.5164 443.881,-19.7028 446.309,-26.2681"/>
</g>
<!-- Node15 -->
<g id="node15" class="node"><title>Node15</title>
<polygon fill="white" stroke="#bfbfbf" points="280.5,-112.5 280.5,-131.5 322.5,-131.5 322.5,-112.5 280.5,-112.5"/>
<text text-anchor="middle" x="301.5" y="-119.5" font-family="Helvetica,sans-Serif" font-size="10.00">limits</text>
</g>
<!-- Node14&#45;&gt;Node15 -->
<g id="edge14" class="edge"><title>Node14&#45;&gt;Node15</title>
<path fill="none" stroke="midnightblue" d="M235.532,-173.975C247.768,-164.52 267.729,-149.096 282.493,-137.687"/>
<polygon fill="midnightblue" stroke="midnightblue" points="284.715,-140.393 290.488,-131.509 280.435,-134.854 284.715,-140.393"/>
</g>
<!-- Node16 -->
<g id="node16" class="node"><title>Node16</title>
<g id="a_node16"><a xlink:href="Index_8inl.html" target="_top" xlink:title="Core/Index/Index.inl">
<polygon fill="white" stroke="black" points="152.5,-112.5 152.5,-131.5 262.5,-131.5 262.5,-112.5 152.5,-112.5"/>
<text text-anchor="middle" x="207.5" y="-119.5" font-family="Helvetica,sans-Serif" font-size="10.00">Core/Index/Index.inl</text>
</a>
</g>
</g>
<!-- Node14&#45;&gt;Node16 -->
<g id="edge15" class="edge"><title>Node14&#45;&gt;Node16</title>
<path fill="none" stroke="midnightblue" d="M222.064,-173.975C219.641,-165.492 215.844,-152.204 212.735,-141.322"/>
<polygon fill="midnightblue" stroke="midnightblue" points="216.044,-140.163 209.931,-131.509 209.313,-142.086 216.044,-140.163"/>
</g>
<!-- Node17&#45;&gt;Node14 -->
<g id="edge22" class="edge"><title>Node17&#45;&gt;Node14</title>
<path fill="none" stroke="midnightblue" d="M442.428,-240.936C397.469,-229.293 316.999,-208.454 267.429,-195.617"/>
<polygon fill="midnightblue" stroke="midnightblue" points="268.203,-192.202 257.645,-193.083 266.448,-198.979 268.203,-192.202"/>
</g>
<!-- Node18 -->
<g id="node18" class="node"><title>Node18</title>
<g id="a_node18"><a xlink:href="RaCore_8hpp.html" target="_top" xlink:title="Core/RaCore.hpp">
<polygon fill="white" stroke="black" points="555.5,-112.5 555.5,-131.5 653.5,-131.5 653.5,-112.5 555.5,-112.5"/>
<text text-anchor="middle" x="604.5" y="-119.5" font-family="Helvetica,sans-Serif" font-size="10.00">Core/RaCore.hpp</text>
</a>
</g>
</g>
<!-- Node17&#45;&gt;Node18 -->
<g id="edge17" class="edge"><title>Node17&#45;&gt;Node18</title>
<path fill="none" stroke="midnightblue" d="M430.528,-240.962C378.617,-229.159 304.153,-205.027 335.5,-168 361.818,-136.914 474.249,-127.286 545.167,-124.315"/>
<polygon fill="midnightblue" stroke="midnightblue" points="545.456,-127.806 555.314,-123.923 545.186,-120.812 545.456,-127.806"/>
</g>
<!-- Node19 -->
<g id="node19" class="node"><title>Node19</title>
<polygon fill="white" stroke="#bfbfbf" points="904.5,-112.5 904.5,-131.5 966.5,-131.5 966.5,-112.5 904.5,-112.5"/>
<text text-anchor="middle" x="935.5" y="-119.5" font-family="Helvetica,sans-Serif" font-size="10.00">algorithm</text>
</g>
<!-- Node17&#45;&gt;Node19 -->
<g id="edge19" class="edge"><title>Node17&#45;&gt;Node19</title>
<path fill="none" stroke="midnightblue" d="M446.953,-240.944C406.274,-227.394 339.582,-199.304 368.5,-168 386.321,-148.709 766.187,-130.4 893.977,-124.766"/>
<polygon fill="midnightblue" stroke="midnightblue" points="894.305,-128.255 904.143,-124.321 893.999,-121.262 894.305,-128.255"/>
</g>
<!-- Node20 -->
<g id="node20" class="node"><title>Node20</title>
<polygon fill="white" stroke="#bfbfbf" points="377.5,-174 377.5,-193 433.5,-193 433.5,-174 377.5,-174"/>
<text text-anchor="middle" x="405.5" y="-181" font-family="Helvetica,sans-Serif" font-size="10.00">assert.h</text>
</g>
<!-- Node17&#45;&gt;Node20 -->
<g id="edge20" class="edge"><title>Node17&#45;&gt;Node20</title>
<path fill="none" stroke="midnightblue" d="M466.059,-240.734C454.829,-230.305 435.879,-212.709 422.163,-199.973"/>
<polygon fill="midnightblue" stroke="midnightblue" points="424.5,-197.367 414.791,-193.127 419.737,-202.497 424.5,-197.367"/>
</g>
<!-- Node21 -->
<g id="node21" class="node"><title>Node21</title>
<polygon fill="white" stroke="#bfbfbf" points="452,-174 452,-193 499,-193 499,-174 452,-174"/>
<text text-anchor="middle" x="475.5" y="-181" font-family="Helvetica,sans-Serif" font-size="10.00">deque</text>
</g>
<!-- Node17&#45;&gt;Node21 -->
<g id="edge21" class="edge"><title>Node17&#45;&gt;Node21</title>
<path fill="none" stroke="midnightblue" d="M475.5,-240.734C475.5,-231.183 475.5,-215.618 475.5,-203.283"/>
<polygon fill="midnightblue" stroke="midnightblue" points="479,-203.127 475.5,-193.127 472,-203.127 479,-203.127"/>
</g>
<!-- Node22 -->
<g id="node22" class="node"><title>Node22</title>
<g id="a_node22"><a xlink:href="IndexMap_8inl.html" target="_top" xlink:title="Core/Index/IndexMap.inl">
<polygon fill="white" stroke="black" points="517.5,-174 517.5,-193 647.5,-193 647.5,-174 517.5,-174"/>
<text text-anchor="middle" x="582.5" y="-181" font-family="Helvetica,sans-Serif" font-size="10.00">Core/Index/IndexMap.inl</text>
</a>
</g>
</g>
<!-- Node17&#45;&gt;Node22 -->
<g id="edge23" class="edge"><title>Node17&#45;&gt;Node22</title>
<path fill="none" stroke="midnightblue" d="M485.142,-240.734C500.884,-229.769 531.705,-210.881 554.592,-198.049"/>
<polygon fill="midnightblue" stroke="midnightblue" points="556.464,-201.014 563.539,-193.127 553.09,-194.881 556.464,-201.014"/>
</g>
<!-- Node18&#45;&gt;Node3 -->
<g id="edge18" class="edge"><title>Node18&#45;&gt;Node3</title>
<path fill="none" stroke="midnightblue" d="M561.242,-112.444C513.319,-102.964 436.022,-87.6747 384.5,-77.4835"/>
<polygon fill="midnightblue" stroke="midnightblue" points="385.044,-74.0235 374.555,-75.5164 383.686,-80.8904 385.044,-74.0235"/>
</g>
<!-- Node22&#45;&gt;Node17 -->
<g id="edge24" class="edge"><title>Node22&#45;&gt;Node17</title>
<path fill="none" stroke="midnightblue" d="M573.057,-193.127C557.444,-204.024 526.653,-222.905 503.7,-235.787"/>
<polygon fill="midnightblue" stroke="midnightblue" points="501.79,-232.843 494.719,-240.734 505.167,-238.975 501.79,-232.843"/>
</g>
<!-- Node23&#45;&gt;Node18 -->
<g id="edge26" class="edge"><title>Node23&#45;&gt;Node18</title>
<path fill="none" stroke="midnightblue" d="M935.647,-240.921C916.69,-231.535 886.126,-215.601 861.5,-199 843.427,-186.817 843.187,-177.352 823.5,-168 772.651,-143.845 709.128,-132.616 663.611,-127.42"/>
<polygon fill="midnightblue" stroke="midnightblue" points="663.924,-123.933 653.606,-126.341 663.174,-130.893 663.924,-123.933"/>
</g>
<!-- Node24 -->
<g id="node24" class="node"><title>Node24</title>
<polygon fill="white" stroke="#bfbfbf" points="870.5,-174 870.5,-193 938.5,-193 938.5,-174 870.5,-174"/>
<text text-anchor="middle" x="904.5" y="-181" font-family="Helvetica,sans-Serif" font-size="10.00">Eigen/Core</text>
</g>
<!-- Node23&#45;&gt;Node24 -->
<g id="edge27" class="edge"><title>Node23&#45;&gt;Node24</title>
<path fill="none" stroke="midnightblue" d="M946.892,-240.734C939.324,-230.695 926.749,-214.014 917.256,-201.421"/>
<polygon fill="midnightblue" stroke="midnightblue" points="919.818,-199.006 911.004,-193.127 914.228,-203.219 919.818,-199.006"/>
</g>
<!-- Node25 -->
<g id="node25" class="node"><title>Node25</title>
<polygon fill="white" stroke="#bfbfbf" points="956.5,-174 956.5,-193 1050.5,-193 1050.5,-174 956.5,-174"/>
<text text-anchor="middle" x="1003.5" y="-181" font-family="Helvetica,sans-Serif" font-size="10.00">Eigen/Geometry</text>
</g>
<!-- Node23&#45;&gt;Node25 -->
<g id="edge28" class="edge"><title>Node23&#45;&gt;Node25</title>
<path fill="none" stroke="midnightblue" d="M960.243,-240.734C968.04,-230.598 981.046,-213.69 990.765,-201.056"/>
<polygon fill="midnightblue" stroke="midnightblue" points="993.541,-203.188 996.864,-193.127 987.992,-198.92 993.541,-203.188"/>
</g>
<!-- Node26 -->
<g id="node26" class="node"><title>Node26</title>
<polygon fill="white" stroke="#bfbfbf" points="1068.5,-174 1068.5,-193 1148.5,-193 1148.5,-174 1068.5,-174"/>
<text text-anchor="middle" x="1108.5" y="-181" font-family="Helvetica,sans-Serif" font-size="10.00">Eigen/Sparse</text>
</g>
<!-- Node23&#45;&gt;Node26 -->
<g id="edge29" class="edge"><title>Node23&#45;&gt;Node26</title>
<path fill="none" stroke="midnightblue" d="M974.083,-240.869C1000.83,-229.65 1047.75,-209.977 1078.47,-197.092"/>
<polygon fill="midnightblue" stroke="midnightblue" points="1079.96,-200.262 1087.83,-193.167 1077.26,-193.807 1079.96,-200.262"/>
</g>
<!-- Node27 -->
<g id="node27" class="node"><title>Node27</title>
<polygon fill="white" stroke="#bfbfbf" points="1167,-174 1167,-193 1230,-193 1230,-174 1167,-174"/>
<text text-anchor="middle" x="1198.5" y="-181" font-family="Helvetica,sans-Serif" font-size="10.00">functional</text>
</g>
<!-- Node23&#45;&gt;Node27 -->
<g id="edge30" class="edge"><title>Node23&#45;&gt;Node27</title>
<path fill="none" stroke="midnightblue" d="M992.915,-240.94C1034.23,-231.689 1100.88,-215.975 1157.5,-199 1160.28,-198.167 1163.15,-197.256 1166.02,-196.312"/>
<polygon fill="midnightblue" stroke="midnightblue" points="1167.31,-199.569 1175.64,-193.026 1165.05,-192.944 1167.31,-199.569"/>
</g>
<!-- Node28 -->
<g id="node28" class="node"><title>Node28</title>
<polygon fill="white" stroke="#bfbfbf" points="1248,-168.5 1248,-198.5 1393,-198.5 1393,-168.5 1248,-168.5"/>
<text text-anchor="start" x="1256" y="-186.5" font-family="Helvetica,sans-Serif" font-size="10.00">unsupported/Eigen/Aligned</text>
<text text-anchor="middle" x="1320.5" y="-175.5" font-family="Helvetica,sans-Serif" font-size="10.00">Vector3</text>
</g>
<!-- Node23&#45;&gt;Node28 -->
<g id="edge31" class="edge"><title>Node23&#45;&gt;Node28</title>
<path fill="none" stroke="midnightblue" d="M1002.09,-240.957C1056.94,-231.304 1149.14,-215.055 1237.7,-199.318"/>
<polygon fill="midnightblue" stroke="midnightblue" points="1238.41,-202.747 1247.64,-197.551 1237.19,-195.855 1238.41,-202.747"/>
</g>
<!-- Node29 -->
<g id="node29" class="node"><title>Node29</title>
<g id="a_node29"><a xlink:href="Math_8hpp.html" target="_top" xlink:title="Core/Math/Math.hpp">
<polygon fill="white" stroke="black" points="1411.5,-174 1411.5,-193 1525.5,-193 1525.5,-174 1411.5,-174"/>
<text text-anchor="middle" x="1468.5" y="-181" font-family="Helvetica,sans-Serif" font-size="10.00">Core/Math/Math.hpp</text>
</a>
</g>
</g>
<!-- Node23&#45;&gt;Node29 -->
<g id="edge32" class="edge"><title>Node23&#45;&gt;Node29</title>
<path fill="none" stroke="midnightblue" d="M1001.83,-240.966C1014.7,-238.85 1028.61,-236.703 1041.5,-235 1201.35,-213.882 1243.26,-224.343 1402.5,-199 1409.27,-197.922 1416.39,-196.581 1423.35,-195.152"/>
<polygon fill="midnightblue" stroke="midnightblue" points="1424.31,-198.525 1433.37,-193.017 1422.86,-191.679 1424.31,-198.525"/>
</g>
<!-- Node32 -->
<g id="node32" class="node"><title>Node32</title>
<g id="a_node32"><a xlink:href="LinearAlgebra_8inl.html" target="_top" xlink:title="Core/Math/LinearAlgebra.inl">
<polygon fill="white" stroke="black" points="666,-174 666,-193 815,-193 815,-174 666,-174"/>
<text text-anchor="middle" x="740.5" y="-181" font-family="Helvetica,sans-Serif" font-size="10.00">Core/Math/LinearAlgebra.inl</text>
</a>
</g>
</g>
<!-- Node23&#45;&gt;Node32 -->
<g id="edge38" class="edge"><title>Node23&#45;&gt;Node32</title>
<path fill="none" stroke="midnightblue" d="M925.215,-240.869C887.395,-229.327 820.245,-208.835 778.17,-195.996"/>
<polygon fill="midnightblue" stroke="midnightblue" points="779.149,-192.635 768.562,-193.064 777.105,-199.33 779.149,-192.635"/>
</g>
<!-- Node29&#45;&gt;Node18 -->
<g id="edge33" class="edge"><title>Node29&#45;&gt;Node18</title>
<path fill="none" stroke="midnightblue" d="M1434.43,-173.926C1424.22,-171.653 1412.96,-169.435 1402.5,-168 1259.74,-148.421 823.384,-130.992 663.777,-125.111"/>
<polygon fill="midnightblue" stroke="midnightblue" points="663.792,-121.609 653.671,-124.74 663.536,-128.605 663.792,-121.609"/>
</g>
<!-- Node29&#45;&gt;Node19 -->
<g id="edge34" class="edge"><title>Node29&#45;&gt;Node19</title>
<path fill="none" stroke="midnightblue" d="M1433.37,-173.961C1423.43,-171.771 1412.58,-169.587 1402.5,-168 1246.38,-143.419 1058.63,-130.248 976.892,-125.312"/>
<polygon fill="midnightblue" stroke="midnightblue" points="976.726,-121.797 966.536,-124.697 976.311,-128.784 976.726,-121.797"/>
</g>
<!-- Node30 -->
<g id="node30" class="node"><title>Node30</title>
<polygon fill="white" stroke="#bfbfbf" points="1540,-112.5 1540,-131.5 1587,-131.5 1587,-112.5 1540,-112.5"/>
<text text-anchor="middle" x="1563.5" y="-119.5" font-family="Helvetica,sans-Serif" font-size="10.00">cmath</text>
</g>
<!-- Node29&#45;&gt;Node30 -->
<g id="edge35" class="edge"><title>Node29&#45;&gt;Node30</title>
<path fill="none" stroke="midnightblue" d="M1482.11,-173.975C1497.56,-164.299 1522.99,-148.372 1541.32,-136.894"/>
<polygon fill="midnightblue" stroke="midnightblue" points="1543.3,-139.783 1549.91,-131.509 1539.58,-133.851 1543.3,-139.783"/>
</g>
<!-- Node31 -->
<g id="node31" class="node"><title>Node31</title>
<g id="a_node31"><a xlink:href="Math_8inl.html" target="_top" xlink:title="Core/Math/Math.inl">
<polygon fill="white" stroke="black" points="1415,-112.5 1415,-131.5 1522,-131.5 1522,-112.5 1415,-112.5"/>
<text text-anchor="middle" x="1468.5" y="-119.5" font-family="Helvetica,sans-Serif" font-size="10.00">Core/Math/Math.inl</text>
</a>
</g>
</g>
<!-- Node29&#45;&gt;Node31 -->
<g id="edge36" class="edge"><title>Node29&#45;&gt;Node31</title>
<path fill="none" stroke="midnightblue" d="M1463.6,-173.975C1461.77,-165.58 1461.3,-152.481 1462.19,-141.663"/>
<polygon fill="midnightblue" stroke="midnightblue" points="1465.69,-141.897 1463.6,-131.509 1458.75,-140.929 1465.69,-141.897"/>
</g>
<!-- Node31&#45;&gt;Node29 -->
<g id="edge37" class="edge"><title>Node31&#45;&gt;Node29</title>
<path fill="none" stroke="midnightblue" d="M1473.4,-131.509C1475.23,-139.898 1475.7,-152.996 1474.82,-163.817"/>
<polygon fill="midnightblue" stroke="midnightblue" points="1471.31,-163.588 1473.4,-173.975 1478.25,-164.554 1471.31,-163.588"/>
</g>
</g>
</svg>
