<?xml version="1.0" encoding="UTF-8" standalone="no"?>
<!DOCTYPE svg PUBLIC "-//W3C//DTD SVG 1.1//EN"
 "http://www.w3.org/Graphics/SVG/1.1/DTD/svg11.dtd">
<!-- Generated by graphviz version 2.38.0 (20140413.2041)
 -->
<!-- Title: /home/travis/build/STORM&#45;IRIT/Radium&#45;Engine/src/Core/Algorithm/ScalarField/ScalarField.hpp Pages: 1 -->
<svg width="1371pt" height="419pt"
 viewBox="0.00 0.00 1371.42 419.00" xmlns="http://www.w3.org/2000/svg" xmlns:xlink="http://www.w3.org/1999/xlink">
<g id="graph0" class="graph" transform="scale(1 1) rotate(0) translate(4 415)">
<title>/home/travis/build/STORM&#45;IRIT/Radium&#45;Engine/src/Core/Algorithm/ScalarField/ScalarField.hpp</title>
<polygon fill="white" stroke="none" points="-4,4 -4,-415 1367.42,-415 1367.42,4 -4,4"/>
<!-- Node1 -->
<g id="node1" class="node"><title>Node1</title>
<polygon fill="#bfbfbf" stroke="black" points="117.92,-358.5 117.92,-410.5 280.92,-410.5 280.92,-358.5 117.92,-358.5"/>
<text text-anchor="start" x="125.92" y="-398.5" font-family="Helvetica,sans-Serif" font-size="10.00">/home/travis/build</text>
<text text-anchor="start" x="125.92" y="-387.5" font-family="Helvetica,sans-Serif" font-size="10.00">/STORM&#45;IRIT/Radium&#45;Engine</text>
<text text-anchor="start" x="125.92" y="-376.5" font-family="Helvetica,sans-Serif" font-size="10.00">/src/Core/Algorithm/ScalarField</text>
<text text-anchor="middle" x="199.42" y="-365.5" font-family="Helvetica,sans-Serif" font-size="10.00">/ScalarField.hpp</text>
</g>
<!-- Node2 -->
<g id="node2" class="node"><title>Node2</title>
<g id="a_node2"><a xlink:href="VectorArray_8hpp.html" target="_top" xlink:title="Core/Containers/VectorArray.hpp">
<polygon fill="white" stroke="black" points="112.92,-302.5 112.92,-321.5 285.92,-321.5 285.92,-302.5 112.92,-302.5"/>
<text text-anchor="middle" x="199.42" y="-309.5" font-family="Helvetica,sans-Serif" font-size="10.00">Core/Containers/VectorArray.hpp</text>
</a>
</g>
</g>
<!-- Node1&#45;&gt;Node2 -->
<g id="edge1" class="edge"><title>Node1&#45;&gt;Node2</title>
<path fill="none" stroke="midnightblue" d="M199.42,-358.446C199.42,-349.73 199.42,-340.104 199.42,-331.964"/>
<polygon fill="midnightblue" stroke="midnightblue" points="202.92,-331.695 199.42,-321.695 195.92,-331.696 202.92,-331.695"/>
</g>
<!-- Node4 -->
<g id="node4" class="node"><title>Node4</title>
<g id="a_node4"><a xlink:href="RaCore_8hpp.html" target="_top" xlink:title="Core/RaCore.hpp">
<polygon fill="white" stroke="black" points="220.42,-112.5 220.42,-131.5 318.42,-131.5 318.42,-112.5 220.42,-112.5"/>
<text text-anchor="middle" x="269.42" y="-119.5" font-family="Helvetica,sans-Serif" font-size="10.00">Core/RaCore.hpp</text>
</a>
</g>
</g>
<!-- Node1&#45;&gt;Node4 -->
<g id="edge34" class="edge"><title>Node1&#45;&gt;Node4</title>
<path fill="none" stroke="midnightblue" d="M150.142,-358.41C77.7612,-318.346 -42.7371,-237.366 15.4196,-168 39.7769,-138.948 143.016,-128.641 210.144,-124.992"/>
<polygon fill="midnightblue" stroke="midnightblue" points="210.372,-128.485 220.181,-124.481 210.016,-121.494 210.372,-128.485"/>
</g>
<!-- Node24 -->
<g id="node24" class="node"><title>Node24</title>
<g id="a_node24"><a xlink:href="MeshTypes_8hpp.html" target="_top" xlink:title="Core/Mesh/MeshTypes.hpp">
<polygon fill="white" stroke="black" points="744.92,-302.5 744.92,-321.5 887.92,-321.5 887.92,-302.5 744.92,-302.5"/>
<text text-anchor="middle" x="816.42" y="-309.5" font-family="Helvetica,sans-Serif" font-size="10.00">Core/Mesh/MeshTypes.hpp</text>
</a>
</g>
</g>
<!-- Node1&#45;&gt;Node24 -->
<g id="edge28" class="edge"><title>Node1&#45;&gt;Node24</title>
<path fill="none" stroke="midnightblue" d="M281.034,-374.175C399.102,-360.684 616.322,-335.864 734.539,-322.356"/>
<polygon fill="midnightblue" stroke="midnightblue" points="735.08,-325.817 744.618,-321.204 734.286,-318.862 735.08,-325.817"/>
</g>
<!-- Node3 -->
<g id="node3" class="node"><title>Node3</title>
<g id="a_node3"><a xlink:href="AlignedStdVector_8hpp.html" target="_top" xlink:title="Core/Containers/AlignedStd\lVector.hpp">
<polygon fill="white" stroke="black" points="73.9196,-235.5 73.9196,-265.5 222.92,-265.5 222.92,-235.5 73.9196,-235.5"/>
<text text-anchor="start" x="81.9196" y="-253.5" font-family="Helvetica,sans-Serif" font-size="10.00">Core/Containers/AlignedStd</text>
<text text-anchor="middle" x="148.42" y="-242.5" font-family="Helvetica,sans-Serif" font-size="10.00">Vector.hpp</text>
</a>
</g>
</g>
<!-- Node2&#45;&gt;Node3 -->
<g id="edge2" class="edge"><title>Node2&#45;&gt;Node3</title>
<path fill="none" stroke="midnightblue" d="M192.113,-302.475C185.593,-294.869 175.762,-283.399 167.075,-273.265"/>
<polygon fill="midnightblue" stroke="midnightblue" points="169.605,-270.838 160.439,-265.523 164.29,-275.393 169.605,-270.838"/>
</g>
<!-- Node2&#45;&gt;Node4 -->
<g id="edge26" class="edge"><title>Node2&#45;&gt;Node4</title>
<path fill="none" stroke="midnightblue" d="M207.068,-302.293C214.302,-293.639 224.983,-279.711 231.42,-266 251.185,-223.9 262,-169.822 266.638,-141.767"/>
<polygon fill="midnightblue" stroke="midnightblue" points="270.117,-142.174 268.211,-131.752 263.202,-141.088 270.117,-142.174"/>
</g>
<!-- Node12 -->
<g id="node12" class="node"><title>Node12</title>
<polygon fill="white" stroke="#bfbfbf" points="24.9196,-174 24.9196,-193 71.9196,-193 71.9196,-174 24.9196,-174"/>
<text text-anchor="middle" x="48.4196" y="-181" font-family="Helvetica,sans-Serif" font-size="10.00">vector</text>
</g>
<!-- Node2&#45;&gt;Node12 -->
<g id="edge27" class="edge"><title>Node2&#45;&gt;Node12</title>
<path fill="none" stroke="midnightblue" d="M130.405,-302.466C106.363,-296.123 81.2264,-285.106 64.4196,-266 49.3485,-248.867 46.7962,-221.772 47.0444,-203.579"/>
<polygon fill="midnightblue" stroke="midnightblue" points="50.552,-203.48 47.4911,-193.337 43.5587,-203.175 50.552,-203.48"/>
</g>
<!-- Node13 -->
<g id="node13" class="node"><title>Node13</title>
<g id="a_node13"><a xlink:href="LinearAlgebra_8hpp.html" target="_top" xlink:title="Core/Math/LinearAlgebra.hpp">
<polygon fill="white" stroke="black" points="521.42,-241 521.42,-260 677.42,-260 677.42,-241 521.42,-241"/>
<text text-anchor="middle" x="599.42" y="-248" font-family="Helvetica,sans-Serif" font-size="10.00">Core/Math/LinearAlgebra.hpp</text>
</a>
</g>
</g>
<!-- Node2&#45;&gt;Node13 -->
<g id="edge12" class="edge"><title>Node2&#45;&gt;Node13</title>
<path fill="none" stroke="midnightblue" d="M256.73,-302.475C329.502,-291.65 454.866,-273.002 532.111,-261.512"/>
<polygon fill="midnightblue" stroke="midnightblue" points="532.84,-264.942 542.216,-260.009 531.81,-258.019 532.84,-264.942"/>
</g>
<!-- Node3&#45;&gt;Node4 -->
<g id="edge3" class="edge"><title>Node3&#45;&gt;Node4</title>
<path fill="none" stroke="midnightblue" d="M135.881,-235.326C122.179,-218.046 104.09,-188.604 119.42,-168 140.215,-140.05 177.771,-128.806 210.101,-124.546"/>
<polygon fill="midnightblue" stroke="midnightblue" points="210.836,-127.986 220.385,-123.396 210.058,-121.029 210.836,-127.986"/>
</g>
<!-- Node11 -->
<g id="node11" class="node"><title>Node11</title>
<polygon fill="white" stroke="#bfbfbf" points="128.92,-174 128.92,-193 221.92,-193 221.92,-174 128.92,-174"/>
<text text-anchor="middle" x="175.42" y="-181" font-family="Helvetica,sans-Serif" font-size="10.00">Eigen/StdVector</text>
</g>
<!-- Node3&#45;&gt;Node11 -->
<g id="edge10" class="edge"><title>Node3&#45;&gt;Node11</title>
<path fill="none" stroke="midnightblue" d="M154.278,-235.396C158.28,-225.763 163.617,-212.914 167.927,-202.537"/>
<polygon fill="midnightblue" stroke="midnightblue" points="171.204,-203.772 171.808,-193.195 164.74,-201.087 171.204,-203.772"/>
</g>
<!-- Node3&#45;&gt;Node12 -->
<g id="edge11" class="edge"><title>Node3&#45;&gt;Node12</title>
<path fill="none" stroke="midnightblue" d="M126.721,-235.396C109.951,-224.496 86.8484,-209.479 70.0866,-198.584"/>
<polygon fill="midnightblue" stroke="midnightblue" points="71.7993,-195.522 61.5073,-193.007 67.9843,-201.391 71.7993,-195.522"/>
</g>
<!-- Node5 -->
<g id="node5" class="node"><title>Node5</title>
<g id="a_node5"><a xlink:href="CoreMacros_8hpp.html" target="_top" xlink:title="Core/CoreMacros.hpp">
<polygon fill="white" stroke="black" points="209.42,-56.5 209.42,-75.5 329.42,-75.5 329.42,-56.5 209.42,-56.5"/>
<text text-anchor="middle" x="269.42" y="-63.5" font-family="Helvetica,sans-Serif" font-size="10.00">Core/CoreMacros.hpp</text>
</a>
</g>
</g>
<!-- Node4&#45;&gt;Node5 -->
<g id="edge4" class="edge"><title>Node4&#45;&gt;Node5</title>
<path fill="none" stroke="midnightblue" d="M269.42,-112.083C269.42,-105.006 269.42,-94.8611 269.42,-85.9865"/>
<polygon fill="midnightblue" stroke="midnightblue" points="272.92,-85.751 269.42,-75.7511 265.92,-85.7511 272.92,-85.751"/>
</g>
<!-- Node6 -->
<g id="node6" class="node"><title>Node6</title>
<polygon fill="white" stroke="#bfbfbf" points="106.42,-0.5 106.42,-19.5 158.42,-19.5 158.42,-0.5 106.42,-0.5"/>
<text text-anchor="middle" x="132.42" y="-7.5" font-family="Helvetica,sans-Serif" font-size="10.00">cassert</text>
</g>
<!-- Node5&#45;&gt;Node6 -->
<g id="edge5" class="edge"><title>Node5&#45;&gt;Node6</title>
<path fill="none" stroke="midnightblue" d="M247.712,-56.4435C225.065,-47.5171 189.347,-33.4387 163.668,-23.3168"/>
<polygon fill="midnightblue" stroke="midnightblue" points="164.613,-19.9273 154.026,-19.5164 162.046,-26.4397 164.613,-19.9273"/>
</g>
<!-- Node7 -->
<g id="node7" class="node"><title>Node7</title>
<polygon fill="white" stroke="#bfbfbf" points="176.92,-0.5 176.92,-19.5 221.92,-19.5 221.92,-0.5 176.92,-0.5"/>
<text text-anchor="middle" x="199.42" y="-7.5" font-family="Helvetica,sans-Serif" font-size="10.00">cstdio</text>
</g>
<!-- Node5&#45;&gt;Node7 -->
<g id="edge6" class="edge"><title>Node5&#45;&gt;Node7</title>
<path fill="none" stroke="midnightblue" d="M258.173,-56.324C247.622,-48.1849 231.619,-35.8395 218.977,-26.0874"/>
<polygon fill="midnightblue" stroke="midnightblue" points="220.927,-23.1707 210.871,-19.8339 216.651,-28.7132 220.927,-23.1707"/>
</g>
<!-- Node8 -->
<g id="node8" class="node"><title>Node8</title>
<polygon fill="white" stroke="#bfbfbf" points="239.92,-0.5 239.92,-19.5 298.92,-19.5 298.92,-0.5 239.92,-0.5"/>
<text text-anchor="middle" x="269.42" y="-7.5" font-family="Helvetica,sans-Serif" font-size="10.00">iostream</text>
</g>
<!-- Node5&#45;&gt;Node8 -->
<g id="edge7" class="edge"><title>Node5&#45;&gt;Node8</title>
<path fill="none" stroke="midnightblue" d="M269.42,-56.083C269.42,-49.0059 269.42,-38.8611 269.42,-29.9865"/>
<polygon fill="midnightblue" stroke="midnightblue" points="272.92,-29.751 269.42,-19.7511 265.92,-29.7511 272.92,-29.751"/>
</g>
<!-- Node9 -->
<g id="node9" class="node"><title>Node9</title>
<polygon fill="white" stroke="#bfbfbf" points="317.42,-0.5 317.42,-19.5 373.42,-19.5 373.42,-0.5 317.42,-0.5"/>
<text text-anchor="middle" x="345.42" y="-7.5" font-family="Helvetica,sans-Serif" font-size="10.00">sstream</text>
</g>
<!-- Node5&#45;&gt;Node9 -->
<g id="edge8" class="edge"><title>Node5&#45;&gt;Node9</title>
<path fill="none" stroke="midnightblue" d="M281.63,-56.324C293.196,-48.1066 310.795,-35.6017 324.58,-25.8069"/>
<polygon fill="midnightblue" stroke="midnightblue" points="326.862,-28.4791 332.987,-19.8339 322.808,-22.7729 326.862,-28.4791"/>
</g>
<!-- Node10 -->
<g id="node10" class="node"><title>Node10</title>
<polygon fill="white" stroke="#bfbfbf" points="391.42,-0.5 391.42,-19.5 439.42,-19.5 439.42,-0.5 391.42,-0.5"/>
<text text-anchor="middle" x="415.42" y="-7.5" font-family="Helvetica,sans-Serif" font-size="10.00">thread</text>
</g>
<!-- Node5&#45;&gt;Node10 -->
<g id="edge9" class="edge"><title>Node5&#45;&gt;Node10</title>
<path fill="none" stroke="midnightblue" d="M292.554,-56.4435C316.902,-47.4381 355.427,-33.1891 382.843,-23.049"/>
<polygon fill="midnightblue" stroke="midnightblue" points="384.229,-26.2681 392.394,-19.5164 381.801,-19.7028 384.229,-26.2681"/>
</g>
<!-- Node13&#45;&gt;Node4 -->
<g id="edge13" class="edge"><title>Node13&#45;&gt;Node4</title>
<path fill="none" stroke="midnightblue" d="M521.314,-243.911C446.587,-237.184 340.503,-223.591 307.42,-199 288.595,-185.008 278.495,-159.079 273.544,-141.439"/>
<polygon fill="midnightblue" stroke="midnightblue" points="276.93,-140.55 271.095,-131.707 270.142,-142.259 276.93,-140.55"/>
</g>
<!-- Node14 -->
<g id="node14" class="node"><title>Node14</title>
<polygon fill="white" stroke="#bfbfbf" points="316.42,-174 316.42,-193 384.42,-193 384.42,-174 316.42,-174"/>
<text text-anchor="middle" x="350.42" y="-181" font-family="Helvetica,sans-Serif" font-size="10.00">Eigen/Core</text>
</g>
<!-- Node13&#45;&gt;Node14 -->
<g id="edge14" class="edge"><title>Node13&#45;&gt;Node14</title>
<path fill="none" stroke="midnightblue" d="M560.432,-240.98C518.811,-231.643 451.056,-215.75 393.42,-199 390.488,-198.148 387.459,-197.222 384.429,-196.263"/>
<polygon fill="midnightblue" stroke="midnightblue" points="385.457,-192.917 374.865,-193.143 383.286,-199.572 385.457,-192.917"/>
</g>
<!-- Node15 -->
<g id="node15" class="node"><title>Node15</title>
<polygon fill="white" stroke="#bfbfbf" points="402.42,-174 402.42,-193 496.42,-193 496.42,-174 402.42,-174"/>
<text text-anchor="middle" x="449.42" y="-181" font-family="Helvetica,sans-Serif" font-size="10.00">Eigen/Geometry</text>
</g>
<!-- Node13&#45;&gt;Node15 -->
<g id="edge15" class="edge"><title>Node13&#45;&gt;Node15</title>
<path fill="none" stroke="midnightblue" d="M579.501,-240.869C553.725,-229.699 508.605,-210.147 478.866,-197.26"/>
<polygon fill="midnightblue" stroke="midnightblue" points="479.988,-193.932 469.421,-193.167 477.205,-200.355 479.988,-193.932"/>
</g>
<!-- Node16 -->
<g id="node16" class="node"><title>Node16</title>
<polygon fill="white" stroke="#bfbfbf" points="514.42,-174 514.42,-193 594.42,-193 594.42,-174 514.42,-174"/>
<text text-anchor="middle" x="554.42" y="-181" font-family="Helvetica,sans-Serif" font-size="10.00">Eigen/Sparse</text>
</g>
<!-- Node13&#45;&gt;Node16 -->
<g id="edge16" class="edge"><title>Node13&#45;&gt;Node16</title>
<path fill="none" stroke="midnightblue" d="M593.351,-240.734C586.401,-230.695 574.853,-214.014 566.134,-201.421"/>
<polygon fill="midnightblue" stroke="midnightblue" points="568.962,-199.357 560.392,-193.127 563.207,-203.341 568.962,-199.357"/>
</g>
<!-- Node17 -->
<g id="node17" class="node"><title>Node17</title>
<polygon fill="white" stroke="#bfbfbf" points="612.92,-174 612.92,-193 675.92,-193 675.92,-174 612.92,-174"/>
<text text-anchor="middle" x="644.42" y="-181" font-family="Helvetica,sans-Serif" font-size="10.00">functional</text>
</g>
<!-- Node13&#45;&gt;Node17 -->
<g id="edge17" class="edge"><title>Node13&#45;&gt;Node17</title>
<path fill="none" stroke="midnightblue" d="M605.489,-240.734C612.438,-230.695 623.987,-214.014 632.705,-201.421"/>
<polygon fill="midnightblue" stroke="midnightblue" points="635.632,-203.341 638.447,-193.127 629.877,-199.357 635.632,-203.341"/>
</g>
<!-- Node18 -->
<g id="node18" class="node"><title>Node18</title>
<polygon fill="white" stroke="#bfbfbf" points="693.92,-168.5 693.92,-198.5 838.92,-198.5 838.92,-168.5 693.92,-168.5"/>
<text text-anchor="start" x="701.92" y="-186.5" font-family="Helvetica,sans-Serif" font-size="10.00">unsupported/Eigen/Aligned</text>
<text text-anchor="middle" x="766.42" y="-175.5" font-family="Helvetica,sans-Serif" font-size="10.00">Vector3</text>
</g>
<!-- Node13&#45;&gt;Node18 -->
<g id="edge18" class="edge"><title>Node13&#45;&gt;Node18</title>
<path fill="none" stroke="midnightblue" d="M621.596,-240.869C646.763,-231.073 688.496,-214.83 720.714,-202.29"/>
<polygon fill="midnightblue" stroke="midnightblue" points="722.329,-205.417 730.378,-198.528 719.79,-198.894 722.329,-205.417"/>
</g>
<!-- Node19 -->
<g id="node19" class="node"><title>Node19</title>
<g id="a_node19"><a xlink:href="Math_8hpp.html" target="_top" xlink:title="Core/Math/Math.hpp">
<polygon fill="white" stroke="black" points="1061.42,-174 1061.42,-193 1175.42,-193 1175.42,-174 1061.42,-174"/>
<text text-anchor="middle" x="1118.42" y="-181" font-family="Helvetica,sans-Serif" font-size="10.00">Core/Math/Math.hpp</text>
</a>
</g>
</g>
<!-- Node13&#45;&gt;Node19 -->
<g id="edge19" class="edge"><title>Node13&#45;&gt;Node19</title>
<path fill="none" stroke="midnightblue" d="M673.116,-240.983C756.308,-231.27 895.675,-214.695 1015.42,-199 1027.03,-197.478 1039.37,-195.797 1051.32,-194.135"/>
<polygon fill="midnightblue" stroke="midnightblue" points="1051.82,-197.598 1061.24,-192.747 1050.85,-190.666 1051.82,-197.598"/>
</g>
<!-- Node23 -->
<g id="node23" class="node"><title>Node23</title>
<g id="a_node23"><a xlink:href="LinearAlgebra_8inl.html" target="_top" xlink:title="Core/Math/LinearAlgebra.inl">
<polygon fill="white" stroke="black" points="856.92,-174 856.92,-193 1005.92,-193 1005.92,-174 856.92,-174"/>
<text text-anchor="middle" x="931.42" y="-181" font-family="Helvetica,sans-Serif" font-size="10.00">Core/Math/LinearAlgebra.inl</text>
</a>
</g>
</g>
<!-- Node13&#45;&gt;Node23 -->
<g id="edge25" class="edge"><title>Node13&#45;&gt;Node23</title>
<path fill="none" stroke="midnightblue" d="M643.164,-240.936C703.584,-229.106 812.493,-207.784 877.757,-195.006"/>
<polygon fill="midnightblue" stroke="midnightblue" points="878.701,-198.388 887.842,-193.032 877.356,-191.518 878.701,-198.388"/>
</g>
<!-- Node19&#45;&gt;Node4 -->
<g id="edge20" class="edge"><title>Node19&#45;&gt;Node4</title>
<path fill="none" stroke="midnightblue" d="M1081.74,-173.962C1070.76,-171.69 1058.65,-169.463 1047.42,-168 780.949,-133.267 459.64,-125.342 328.992,-123.534"/>
<polygon fill="midnightblue" stroke="midnightblue" points="328.848,-120.032 318.802,-123.4 328.756,-127.031 328.848,-120.032"/>
</g>
<!-- Node20 -->
<g id="node20" class="node"><title>Node20</title>
<polygon fill="white" stroke="#bfbfbf" points="1189.42,-112.5 1189.42,-131.5 1251.42,-131.5 1251.42,-112.5 1189.42,-112.5"/>
<text text-anchor="middle" x="1220.42" y="-119.5" font-family="Helvetica,sans-Serif" font-size="10.00">algorithm</text>
</g>
<!-- Node19&#45;&gt;Node20 -->
<g id="edge21" class="edge"><title>Node19&#45;&gt;Node20</title>
<path fill="none" stroke="midnightblue" d="M1133.03,-173.975C1149.77,-164.211 1177.42,-148.081 1197.14,-136.581"/>
<polygon fill="midnightblue" stroke="midnightblue" points="1198.96,-139.571 1205.83,-131.509 1195.43,-133.525 1198.96,-139.571"/>
</g>
<!-- Node21 -->
<g id="node21" class="node"><title>Node21</title>
<polygon fill="white" stroke="#bfbfbf" points="999.92,-112.5 999.92,-131.5 1046.92,-131.5 1046.92,-112.5 999.92,-112.5"/>
<text text-anchor="middle" x="1023.42" y="-119.5" font-family="Helvetica,sans-Serif" font-size="10.00">cmath</text>
</g>
<!-- Node19&#45;&gt;Node21 -->
<g id="edge22" class="edge"><title>Node19&#45;&gt;Node21</title>
<path fill="none" stroke="midnightblue" d="M1104.81,-173.975C1089.36,-164.299 1063.93,-148.372 1045.6,-136.894"/>
<polygon fill="midnightblue" stroke="midnightblue" points="1047.34,-133.851 1037.01,-131.509 1043.62,-139.783 1047.34,-133.851"/>
</g>
<!-- Node22 -->
<g id="node22" class="node"><title>Node22</title>
<g id="a_node22"><a xlink:href="Math_8inl.html" target="_top" xlink:title="Core/Math/Math.inl">
<polygon fill="white" stroke="black" points="1064.92,-112.5 1064.92,-131.5 1171.92,-131.5 1171.92,-112.5 1064.92,-112.5"/>
<text text-anchor="middle" x="1118.42" y="-119.5" font-family="Helvetica,sans-Serif" font-size="10.00">Core/Math/Math.inl</text>
</a>
</g>
</g>
<!-- Node19&#45;&gt;Node22 -->
<g id="edge23" class="edge"><title>Node19&#45;&gt;Node22</title>
<path fill="none" stroke="midnightblue" d="M1113.52,-173.975C1111.69,-165.58 1111.22,-152.481 1112.1,-141.663"/>
<polygon fill="midnightblue" stroke="midnightblue" points="1115.61,-141.897 1113.52,-131.509 1108.67,-140.929 1115.61,-141.897"/>
</g>
<!-- Node22&#45;&gt;Node19 -->
<g id="edge24" class="edge"><title>Node22&#45;&gt;Node19</title>
<path fill="none" stroke="midnightblue" d="M1123.32,-131.509C1125.15,-139.898 1125.62,-152.996 1124.74,-163.817"/>
<polygon fill="midnightblue" stroke="midnightblue" points="1121.23,-163.588 1123.32,-173.975 1128.17,-164.554 1121.23,-163.588"/>
</g>
<!-- Node24&#45;&gt;Node4 -->
<g id="edge33" class="edge"><title>Node24&#45;&gt;Node4</title>
<path fill="none" stroke="midnightblue" d="M848.931,-302.433C919.091,-282.515 1073.82,-230.028 1015.42,-168 991.981,-143.105 501.234,-128.695 328.739,-124.384"/>
<polygon fill="midnightblue" stroke="midnightblue" points="328.656,-120.881 318.572,-124.132 328.483,-127.879 328.656,-120.881"/>
</g>
<!-- Node24&#45;&gt;Node13 -->
<g id="edge32" class="edge"><title>Node24&#45;&gt;Node13</title>
<path fill="none" stroke="midnightblue" d="M785.329,-302.475C747.139,-292.004 682.251,-274.212 640.121,-262.66"/>
<polygon fill="midnightblue" stroke="midnightblue" points="641.022,-259.278 630.453,-260.009 639.171,-266.029 641.022,-259.278"/>
</g>
<!-- Node25 -->
<g id="node25" class="node"><title>Node25</title>
<g id="a_node25"><a xlink:href="Index_8hpp.html" target="_top" xlink:title="Core/Index/Index.hpp">
<polygon fill="white" stroke="black" points="1189.92,-241 1189.92,-260 1306.92,-260 1306.92,-241 1189.92,-241"/>
<text text-anchor="middle" x="1248.42" y="-248" font-family="Helvetica,sans-Serif" font-size="10.00">Core/Index/Index.hpp</text>
</a>
</g>
</g>
<!-- Node24&#45;&gt;Node25 -->
<g id="edge29" class="edge"><title>Node24&#45;&gt;Node25</title>
<path fill="none" stroke="midnightblue" d="M878.315,-302.475C958.158,-291.478 1096.62,-272.408 1179.66,-260.97"/>
<polygon fill="midnightblue" stroke="midnightblue" points="1180.33,-264.412 1189.76,-259.58 1179.37,-257.477 1180.33,-264.412"/>
</g>
<!-- Node26 -->
<g id="node26" class="node"><title>Node26</title>
<polygon fill="white" stroke="#bfbfbf" points="1321.42,-174 1321.42,-193 1363.42,-193 1363.42,-174 1321.42,-174"/>
<text text-anchor="middle" x="1342.42" y="-181" font-family="Helvetica,sans-Serif" font-size="10.00">limits</text>
</g>
<!-- Node25&#45;&gt;Node26 -->
<g id="edge30" class="edge"><title>Node25&#45;&gt;Node26</title>
<path fill="none" stroke="midnightblue" d="M1261.1,-240.734C1276.6,-230.013 1303.06,-211.716 1321.58,-198.914"/>
<polygon fill="midnightblue" stroke="midnightblue" points="1323.71,-201.694 1329.94,-193.127 1319.73,-195.936 1323.71,-201.694"/>
</g>
<!-- Node27 -->
<g id="node27" class="node"><title>Node27</title>
<g id="a_node27"><a xlink:href="Index_8inl.html" target="_top" xlink:title="Core/Index/Index.inl">
<polygon fill="white" stroke="black" points="1193.42,-174 1193.42,-193 1303.42,-193 1303.42,-174 1193.42,-174"/>
<text text-anchor="middle" x="1248.42" y="-181" font-family="Helvetica,sans-Serif" font-size="10.00">Core/Index/Index.inl</text>
</a>
</g>
</g>
<!-- Node25&#45;&gt;Node27 -->
<g id="edge31" class="edge"><title>Node25&#45;&gt;Node27</title>
<path fill="none" stroke="midnightblue" d="M1248.42,-240.734C1248.42,-231.183 1248.42,-215.618 1248.42,-203.283"/>
<polygon fill="midnightblue" stroke="midnightblue" points="1251.92,-203.127 1248.42,-193.127 1244.92,-203.127 1251.92,-203.127"/>
</g>
</g>
</svg>
