<?xml version="1.0" encoding="UTF-8" standalone="no"?>
<!DOCTYPE svg PUBLIC "-//W3C//DTD SVG 1.1//EN"
 "http://www.w3.org/Graphics/SVG/1.1/DTD/svg11.dtd">
<!-- Generated by graphviz version 2.38.0 (20140413.2041)
 -->
<!-- Title: /home/travis/build/STORM&#45;IRIT/Radium&#45;Engine/src/Core/Algorithm/ScalarField/ScalarField.cpp Pages: 1 -->
<svg width="1350pt" height="486pt"
 viewBox="0.00 0.00 1349.90 486.00" xmlns="http://www.w3.org/2000/svg" xmlns:xlink="http://www.w3.org/1999/xlink">
<g id="graph0" class="graph" transform="scale(1 1) rotate(0) translate(4 482)">
<title>/home/travis/build/STORM&#45;IRIT/Radium&#45;Engine/src/Core/Algorithm/ScalarField/ScalarField.cpp</title>
<polygon fill="white" stroke="none" points="-4,4 -4,-482 1345.9,-482 1345.9,4 -4,4"/>
<!-- Node1 -->
<g id="node1" class="node"><title>Node1</title>
<polygon fill="#bfbfbf" stroke="black" points="320.904,-425.5 320.904,-477.5 483.904,-477.5 483.904,-425.5 320.904,-425.5"/>
<text text-anchor="start" x="328.904" y="-465.5" font-family="Helvetica,sans-Serif" font-size="10.00">/home/travis/build</text>
<text text-anchor="start" x="328.904" y="-454.5" font-family="Helvetica,sans-Serif" font-size="10.00">/STORM&#45;IRIT/Radium&#45;Engine</text>
<text text-anchor="start" x="328.904" y="-443.5" font-family="Helvetica,sans-Serif" font-size="10.00">/src/Core/Algorithm/ScalarField</text>
<text text-anchor="middle" x="402.404" y="-432.5" font-family="Helvetica,sans-Serif" font-size="10.00">/ScalarField.cpp</text>
</g>
<!-- Node2 -->
<g id="node2" class="node"><title>Node2</title>
<g id="a_node2"><a xlink:href="ScalarField_8hpp.html" target="_top" xlink:title="Core/Algorithm/ScalarField\l/ScalarField.hpp">
<polygon fill="white" stroke="black" points="195.904,-358.5 195.904,-388.5 338.904,-388.5 338.904,-358.5 195.904,-358.5"/>
<text text-anchor="start" x="203.904" y="-376.5" font-family="Helvetica,sans-Serif" font-size="10.00">Core/Algorithm/ScalarField</text>
<text text-anchor="middle" x="267.404" y="-365.5" font-family="Helvetica,sans-Serif" font-size="10.00">/ScalarField.hpp</text>
</a>
</g>
</g>
<!-- Node1&#45;&gt;Node2 -->
<g id="edge1" class="edge"><title>Node1&#45;&gt;Node2</title>
<path fill="none" stroke="midnightblue" d="M357.826,-425.404C339.551,-415.117 318.734,-403.397 301.684,-393.798"/>
<polygon fill="midnightblue" stroke="midnightblue" points="303.07,-390.562 292.639,-388.707 299.636,-396.662 303.07,-390.562"/>
</g>
<!-- Node29 -->
<g id="node29" class="node"><title>Node29</title>
<g id="a_node29"><a xlink:href="TriangleOperation_8hpp.html" target="_top" xlink:title="Core/Geometry/Triangle\l/TriangleOperation.hpp">
<polygon fill="white" stroke="black" points="472.904,-358.5 472.904,-388.5 601.904,-388.5 601.904,-358.5 472.904,-358.5"/>
<text text-anchor="start" x="480.904" y="-376.5" font-family="Helvetica,sans-Serif" font-size="10.00">Core/Geometry/Triangle</text>
<text text-anchor="middle" x="537.404" y="-365.5" font-family="Helvetica,sans-Serif" font-size="10.00">/TriangleOperation.hpp</text>
</a>
</g>
</g>
<!-- Node1&#45;&gt;Node29 -->
<g id="edge36" class="edge"><title>Node1&#45;&gt;Node29</title>
<path fill="none" stroke="midnightblue" d="M446.982,-425.404C465.256,-415.117 486.073,-403.397 503.124,-393.798"/>
<polygon fill="midnightblue" stroke="midnightblue" points="505.171,-396.662 512.168,-388.707 501.737,-390.562 505.171,-396.662"/>
</g>
<!-- Node3 -->
<g id="node3" class="node"><title>Node3</title>
<g id="a_node3"><a xlink:href="VectorArray_8hpp.html" target="_top" xlink:title="Core/Containers/VectorArray.hpp">
<polygon fill="white" stroke="black" points="122.904,-302.5 122.904,-321.5 295.904,-321.5 295.904,-302.5 122.904,-302.5"/>
<text text-anchor="middle" x="209.404" y="-309.5" font-family="Helvetica,sans-Serif" font-size="10.00">Core/Containers/VectorArray.hpp</text>
</a>
</g>
</g>
<!-- Node2&#45;&gt;Node3 -->
<g id="edge2" class="edge"><title>Node2&#45;&gt;Node3</title>
<path fill="none" stroke="midnightblue" d="M253.659,-358.399C245.057,-349.575 233.952,-338.183 225.018,-329.018"/>
<polygon fill="midnightblue" stroke="midnightblue" points="227.33,-326.375 217.843,-321.658 222.317,-331.262 227.33,-326.375"/>
</g>
<!-- Node5 -->
<g id="node5" class="node"><title>Node5</title>
<g id="a_node5"><a xlink:href="RaCore_8hpp.html" target="_top" xlink:title="Core/RaCore.hpp">
<polygon fill="white" stroke="black" points="198.404,-112.5 198.404,-131.5 296.404,-131.5 296.404,-112.5 198.404,-112.5"/>
<text text-anchor="middle" x="247.404" y="-119.5" font-family="Helvetica,sans-Serif" font-size="10.00">Core/RaCore.hpp</text>
</a>
</g>
</g>
<!-- Node2&#45;&gt;Node5 -->
<g id="edge35" class="edge"><title>Node2&#45;&gt;Node5</title>
<path fill="none" stroke="midnightblue" d="M195.779,-366.328C132.495,-356.547 44.2539,-331.275 4.40371,-266 -10.6562,-241.332 18.6637,-172.384 23.4037,-168 46.9265,-146.246 129.965,-134.027 188.036,-127.973"/>
<polygon fill="midnightblue" stroke="midnightblue" points="188.609,-131.433 198.207,-126.948 187.907,-124.468 188.609,-131.433"/>
</g>
<!-- Node25 -->
<g id="node25" class="node"><title>Node25</title>
<g id="a_node25"><a xlink:href="MeshTypes_8hpp.html" target="_top" xlink:title="Core/Mesh/MeshTypes.hpp">
<polygon fill="white" stroke="black" points="313.904,-302.5 313.904,-321.5 456.904,-321.5 456.904,-302.5 313.904,-302.5"/>
<text text-anchor="middle" x="385.404" y="-309.5" font-family="Helvetica,sans-Serif" font-size="10.00">Core/Mesh/MeshTypes.hpp</text>
</a>
</g>
</g>
<!-- Node2&#45;&gt;Node25 -->
<g id="edge29" class="edge"><title>Node2&#45;&gt;Node25</title>
<path fill="none" stroke="midnightblue" d="M295.368,-358.399C314.725,-348.639 340.311,-335.737 359.26,-326.183"/>
<polygon fill="midnightblue" stroke="midnightblue" points="360.88,-329.285 368.234,-321.658 357.729,-323.035 360.88,-329.285"/>
</g>
<!-- Node4 -->
<g id="node4" class="node"><title>Node4</title>
<g id="a_node4"><a xlink:href="AlignedStdVector_8hpp.html" target="_top" xlink:title="Core/Containers/AlignedStd\lVector.hpp">
<polygon fill="white" stroke="black" points="13.9037,-235.5 13.9037,-265.5 162.904,-265.5 162.904,-235.5 13.9037,-235.5"/>
<text text-anchor="start" x="21.9037" y="-253.5" font-family="Helvetica,sans-Serif" font-size="10.00">Core/Containers/AlignedStd</text>
<text text-anchor="middle" x="88.4037" y="-242.5" font-family="Helvetica,sans-Serif" font-size="10.00">Vector.hpp</text>
</a>
</g>
</g>
<!-- Node3&#45;&gt;Node4 -->
<g id="edge3" class="edge"><title>Node3&#45;&gt;Node4</title>
<path fill="none" stroke="midnightblue" d="M192.067,-302.475C174.914,-294.04 148.101,-280.855 126.042,-270.008"/>
<polygon fill="midnightblue" stroke="midnightblue" points="127.439,-266.795 116.921,-265.523 124.35,-273.077 127.439,-266.795"/>
</g>
<!-- Node3&#45;&gt;Node5 -->
<g id="edge27" class="edge"><title>Node3&#45;&gt;Node5</title>
<path fill="none" stroke="midnightblue" d="M211.135,-302.434C216.909,-273.867 235.594,-181.426 243.65,-141.57"/>
<polygon fill="midnightblue" stroke="midnightblue" points="247.111,-142.112 245.662,-131.617 240.25,-140.725 247.111,-142.112"/>
</g>
<!-- Node13 -->
<g id="node13" class="node"><title>Node13</title>
<polygon fill="white" stroke="#bfbfbf" points="152.904,-174 152.904,-193 199.904,-193 199.904,-174 152.904,-174"/>
<text text-anchor="middle" x="176.404" y="-181" font-family="Helvetica,sans-Serif" font-size="10.00">vector</text>
</g>
<!-- Node3&#45;&gt;Node13 -->
<g id="edge28" class="edge"><title>Node3&#45;&gt;Node13</title>
<path fill="none" stroke="midnightblue" d="M207.135,-302.305C201.837,-281.994 188.548,-231.053 181.302,-203.277"/>
<polygon fill="midnightblue" stroke="midnightblue" points="184.599,-202.048 178.688,-193.256 177.825,-203.815 184.599,-202.048"/>
</g>
<!-- Node14 -->
<g id="node14" class="node"><title>Node14</title>
<g id="a_node14"><a xlink:href="LinearAlgebra_8hpp.html" target="_top" xlink:title="Core/Math/LinearAlgebra.hpp">
<polygon fill="white" stroke="black" points="608.404,-241 608.404,-260 764.404,-260 764.404,-241 608.404,-241"/>
<text text-anchor="middle" x="686.404" y="-248" font-family="Helvetica,sans-Serif" font-size="10.00">Core/Math/LinearAlgebra.hpp</text>
</a>
</g>
</g>
<!-- Node3&#45;&gt;Node14 -->
<g id="edge13" class="edge"><title>Node3&#45;&gt;Node14</title>
<path fill="none" stroke="midnightblue" d="M277.746,-302.475C365.147,-291.573 516.163,-272.736 608.104,-261.267"/>
<polygon fill="midnightblue" stroke="midnightblue" points="608.698,-264.72 618.188,-260.009 607.832,-257.774 608.698,-264.72"/>
</g>
<!-- Node4&#45;&gt;Node5 -->
<g id="edge4" class="edge"><title>Node4&#45;&gt;Node5</title>
<path fill="none" stroke="midnightblue" d="M67.0583,-235.462C44.3749,-218.824 14.11,-190.519 32.4037,-168 51.7013,-144.245 131.32,-132.588 188.033,-127.197"/>
<polygon fill="midnightblue" stroke="midnightblue" points="188.693,-130.652 198.336,-126.262 188.06,-123.68 188.693,-130.652"/>
</g>
<!-- Node12 -->
<g id="node12" class="node"><title>Node12</title>
<polygon fill="white" stroke="#bfbfbf" points="41.9037,-174 41.9037,-193 134.904,-193 134.904,-174 41.9037,-174"/>
<text text-anchor="middle" x="88.4037" y="-181" font-family="Helvetica,sans-Serif" font-size="10.00">Eigen/StdVector</text>
</g>
<!-- Node4&#45;&gt;Node12 -->
<g id="edge11" class="edge"><title>Node4&#45;&gt;Node12</title>
<path fill="none" stroke="midnightblue" d="M88.4037,-235.396C88.4037,-226.064 88.4037,-213.714 88.4037,-203.517"/>
<polygon fill="midnightblue" stroke="midnightblue" points="91.9038,-203.195 88.4037,-193.195 84.9038,-203.195 91.9038,-203.195"/>
</g>
<!-- Node4&#45;&gt;Node13 -->
<g id="edge12" class="edge"><title>Node4&#45;&gt;Node13</title>
<path fill="none" stroke="midnightblue" d="M107.498,-235.396C121.983,-224.697 141.835,-210.033 156.512,-199.193"/>
<polygon fill="midnightblue" stroke="midnightblue" points="158.922,-201.764 164.887,-193.007 154.763,-196.133 158.922,-201.764"/>
</g>
<!-- Node6 -->
<g id="node6" class="node"><title>Node6</title>
<g id="a_node6"><a xlink:href="CoreMacros_8hpp.html" target="_top" xlink:title="Core/CoreMacros.hpp">
<polygon fill="white" stroke="black" points="187.404,-56.5 187.404,-75.5 307.404,-75.5 307.404,-56.5 187.404,-56.5"/>
<text text-anchor="middle" x="247.404" y="-63.5" font-family="Helvetica,sans-Serif" font-size="10.00">Core/CoreMacros.hpp</text>
</a>
</g>
</g>
<!-- Node5&#45;&gt;Node6 -->
<g id="edge5" class="edge"><title>Node5&#45;&gt;Node6</title>
<path fill="none" stroke="midnightblue" d="M247.404,-112.083C247.404,-105.006 247.404,-94.8611 247.404,-85.9865"/>
<polygon fill="midnightblue" stroke="midnightblue" points="250.904,-85.751 247.404,-75.7511 243.904,-85.7511 250.904,-85.751"/>
</g>
<!-- Node7 -->
<g id="node7" class="node"><title>Node7</title>
<polygon fill="white" stroke="#bfbfbf" points="84.4037,-0.5 84.4037,-19.5 136.404,-19.5 136.404,-0.5 84.4037,-0.5"/>
<text text-anchor="middle" x="110.404" y="-7.5" font-family="Helvetica,sans-Serif" font-size="10.00">cassert</text>
</g>
<!-- Node6&#45;&gt;Node7 -->
<g id="edge6" class="edge"><title>Node6&#45;&gt;Node7</title>
<path fill="none" stroke="midnightblue" d="M225.696,-56.4435C203.049,-47.5171 167.332,-33.4387 141.652,-23.3168"/>
<polygon fill="midnightblue" stroke="midnightblue" points="142.597,-19.9273 132.01,-19.5164 140.03,-26.4397 142.597,-19.9273"/>
</g>
<!-- Node8 -->
<g id="node8" class="node"><title>Node8</title>
<polygon fill="white" stroke="#bfbfbf" points="154.904,-0.5 154.904,-19.5 199.904,-19.5 199.904,-0.5 154.904,-0.5"/>
<text text-anchor="middle" x="177.404" y="-7.5" font-family="Helvetica,sans-Serif" font-size="10.00">cstdio</text>
</g>
<!-- Node6&#45;&gt;Node8 -->
<g id="edge7" class="edge"><title>Node6&#45;&gt;Node8</title>
<path fill="none" stroke="midnightblue" d="M236.157,-56.324C225.606,-48.1849 209.603,-35.8395 196.962,-26.0874"/>
<polygon fill="midnightblue" stroke="midnightblue" points="198.911,-23.1707 188.855,-19.8339 194.635,-28.7132 198.911,-23.1707"/>
</g>
<!-- Node9 -->
<g id="node9" class="node"><title>Node9</title>
<polygon fill="white" stroke="#bfbfbf" points="217.904,-0.5 217.904,-19.5 276.904,-19.5 276.904,-0.5 217.904,-0.5"/>
<text text-anchor="middle" x="247.404" y="-7.5" font-family="Helvetica,sans-Serif" font-size="10.00">iostream</text>
</g>
<!-- Node6&#45;&gt;Node9 -->
<g id="edge8" class="edge"><title>Node6&#45;&gt;Node9</title>
<path fill="none" stroke="midnightblue" d="M247.404,-56.083C247.404,-49.0059 247.404,-38.8611 247.404,-29.9865"/>
<polygon fill="midnightblue" stroke="midnightblue" points="250.904,-29.751 247.404,-19.7511 243.904,-29.7511 250.904,-29.751"/>
</g>
<!-- Node10 -->
<g id="node10" class="node"><title>Node10</title>
<polygon fill="white" stroke="#bfbfbf" points="295.404,-0.5 295.404,-19.5 351.404,-19.5 351.404,-0.5 295.404,-0.5"/>
<text text-anchor="middle" x="323.404" y="-7.5" font-family="Helvetica,sans-Serif" font-size="10.00">sstream</text>
</g>
<!-- Node6&#45;&gt;Node10 -->
<g id="edge9" class="edge"><title>Node6&#45;&gt;Node10</title>
<path fill="none" stroke="midnightblue" d="M259.614,-56.324C271.18,-48.1066 288.779,-35.6017 302.564,-25.8069"/>
<polygon fill="midnightblue" stroke="midnightblue" points="304.846,-28.4791 310.971,-19.8339 300.792,-22.7729 304.846,-28.4791"/>
</g>
<!-- Node11 -->
<g id="node11" class="node"><title>Node11</title>
<polygon fill="white" stroke="#bfbfbf" points="369.404,-0.5 369.404,-19.5 417.404,-19.5 417.404,-0.5 369.404,-0.5"/>
<text text-anchor="middle" x="393.404" y="-7.5" font-family="Helvetica,sans-Serif" font-size="10.00">thread</text>
</g>
<!-- Node6&#45;&gt;Node11 -->
<g id="edge10" class="edge"><title>Node6&#45;&gt;Node11</title>
<path fill="none" stroke="midnightblue" d="M270.538,-56.4435C294.886,-47.4381 333.411,-33.1891 360.827,-23.049"/>
<polygon fill="midnightblue" stroke="midnightblue" points="362.213,-26.2681 370.378,-19.5164 359.785,-19.7028 362.213,-26.2681"/>
</g>
<!-- Node14&#45;&gt;Node5 -->
<g id="edge14" class="edge"><title>Node14&#45;&gt;Node5</title>
<path fill="none" stroke="midnightblue" d="M637.627,-240.935C601.369,-233.284 551.458,-219.986 511.404,-199 492.097,-188.885 493.12,-177.292 473.404,-168 420.303,-142.974 353.826,-131.853 306.752,-126.918"/>
<polygon fill="midnightblue" stroke="midnightblue" points="307.012,-123.427 296.717,-125.929 306.325,-130.393 307.012,-123.427"/>
</g>
<!-- Node15 -->
<g id="node15" class="node"><title>Node15</title>
<polygon fill="white" stroke="#bfbfbf" points="652.404,-174 652.404,-193 720.404,-193 720.404,-174 652.404,-174"/>
<text text-anchor="middle" x="686.404" y="-181" font-family="Helvetica,sans-Serif" font-size="10.00">Eigen/Core</text>
</g>
<!-- Node14&#45;&gt;Node15 -->
<g id="edge15" class="edge"><title>Node14&#45;&gt;Node15</title>
<path fill="none" stroke="midnightblue" d="M686.404,-240.734C686.404,-231.183 686.404,-215.618 686.404,-203.283"/>
<polygon fill="midnightblue" stroke="midnightblue" points="689.904,-203.127 686.404,-193.127 682.904,-203.127 689.904,-203.127"/>
</g>
<!-- Node16 -->
<g id="node16" class="node"><title>Node16</title>
<polygon fill="white" stroke="#bfbfbf" points="738.404,-174 738.404,-193 832.404,-193 832.404,-174 738.404,-174"/>
<text text-anchor="middle" x="785.404" y="-181" font-family="Helvetica,sans-Serif" font-size="10.00">Eigen/Geometry</text>
</g>
<!-- Node14&#45;&gt;Node16 -->
<g id="edge16" class="edge"><title>Node14&#45;&gt;Node16</title>
<path fill="none" stroke="midnightblue" d="M699.755,-240.734C716.158,-229.964 744.204,-211.55 763.716,-198.739"/>
<polygon fill="midnightblue" stroke="midnightblue" points="765.825,-201.542 772.264,-193.127 761.983,-195.69 765.825,-201.542"/>
</g>
<!-- Node17 -->
<g id="node17" class="node"><title>Node17</title>
<polygon fill="white" stroke="#bfbfbf" points="850.404,-174 850.404,-193 930.404,-193 930.404,-174 850.404,-174"/>
<text text-anchor="middle" x="890.404" y="-181" font-family="Helvetica,sans-Serif" font-size="10.00">Eigen/Sparse</text>
</g>
<!-- Node14&#45;&gt;Node17 -->
<g id="edge17" class="edge"><title>Node14&#45;&gt;Node17</title>
<path fill="none" stroke="midnightblue" d="M713.493,-240.869C749.563,-229.376 813.486,-209.008 853.814,-196.159"/>
<polygon fill="midnightblue" stroke="midnightblue" points="855.062,-199.434 863.527,-193.064 852.936,-192.765 855.062,-199.434"/>
</g>
<!-- Node18 -->
<g id="node18" class="node"><title>Node18</title>
<polygon fill="white" stroke="#bfbfbf" points="948.904,-174 948.904,-193 1011.9,-193 1011.9,-174 948.904,-174"/>
<text text-anchor="middle" x="980.404" y="-181" font-family="Helvetica,sans-Serif" font-size="10.00">functional</text>
</g>
<!-- Node14&#45;&gt;Node18 -->
<g id="edge18" class="edge"><title>Node14&#45;&gt;Node18</title>
<path fill="none" stroke="midnightblue" d="M740.723,-240.97C792.315,-232.327 871.818,-217.594 939.404,-199 942.366,-198.185 945.422,-197.263 948.467,-196.288"/>
<polygon fill="midnightblue" stroke="midnightblue" points="949.674,-199.575 958.031,-193.063 947.437,-192.942 949.674,-199.575"/>
</g>
<!-- Node19 -->
<g id="node19" class="node"><title>Node19</title>
<polygon fill="white" stroke="#bfbfbf" points="1029.9,-168.5 1029.9,-198.5 1174.9,-198.5 1174.9,-168.5 1029.9,-168.5"/>
<text text-anchor="start" x="1037.9" y="-186.5" font-family="Helvetica,sans-Serif" font-size="10.00">unsupported/Eigen/Aligned</text>
<text text-anchor="middle" x="1102.4" y="-175.5" font-family="Helvetica,sans-Serif" font-size="10.00">Vector3</text>
</g>
<!-- Node14&#45;&gt;Node19 -->
<g id="edge19" class="edge"><title>Node14&#45;&gt;Node19</title>
<path fill="none" stroke="midnightblue" d="M746.392,-240.965C811.324,-231.612 918.194,-215.887 1019.47,-199.297"/>
<polygon fill="midnightblue" stroke="midnightblue" points="1020.26,-202.713 1029.56,-197.637 1019.13,-195.806 1020.26,-202.713"/>
</g>
<!-- Node20 -->
<g id="node20" class="node"><title>Node20</title>
<g id="a_node20"><a xlink:href="Math_8hpp.html" target="_top" xlink:title="Core/Math/Math.hpp">
<polygon fill="white" stroke="black" points="520.404,-174 520.404,-193 634.404,-193 634.404,-174 520.404,-174"/>
<text text-anchor="middle" x="577.404" y="-181" font-family="Helvetica,sans-Serif" font-size="10.00">Core/Math/Math.hpp</text>
</a>
</g>
</g>
<!-- Node14&#45;&gt;Node20 -->
<g id="edge20" class="edge"><title>Node14&#45;&gt;Node20</title>
<path fill="none" stroke="midnightblue" d="M671.703,-240.734C653.481,-229.867 622.205,-211.216 600.701,-198.393"/>
<polygon fill="midnightblue" stroke="midnightblue" points="602.252,-195.243 591.871,-193.127 598.667,-201.255 602.252,-195.243"/>
</g>
<!-- Node24 -->
<g id="node24" class="node"><title>Node24</title>
<g id="a_node24"><a xlink:href="LinearAlgebra_8inl.html" target="_top" xlink:title="Core/Math/LinearAlgebra.inl">
<polygon fill="white" stroke="black" points="1192.9,-174 1192.9,-193 1341.9,-193 1341.9,-174 1192.9,-174"/>
<text text-anchor="middle" x="1267.4" y="-181" font-family="Helvetica,sans-Serif" font-size="10.00">Core/Math/LinearAlgebra.inl</text>
</a>
</g>
</g>
<!-- Node14&#45;&gt;Node24 -->
<g id="edge26" class="edge"><title>Node14&#45;&gt;Node24</title>
<path fill="none" stroke="midnightblue" d="M764.672,-243.315C862.933,-235.148 1036.55,-219.385 1184.4,-199 1193.25,-197.781 1202.59,-196.319 1211.7,-194.799"/>
<polygon fill="midnightblue" stroke="midnightblue" points="1212.56,-198.201 1221.83,-193.068 1211.39,-191.301 1212.56,-198.201"/>
</g>
<!-- Node20&#45;&gt;Node5 -->
<g id="edge21" class="edge"><title>Node20&#45;&gt;Node5</title>
<path fill="none" stroke="midnightblue" d="M536.52,-173.937C526.67,-171.932 516.17,-169.845 506.404,-168 438.084,-155.092 359.357,-141.61 306.803,-132.81"/>
<polygon fill="midnightblue" stroke="midnightblue" points="307.092,-129.309 296.652,-131.113 305.938,-136.214 307.092,-129.309"/>
</g>
<!-- Node21 -->
<g id="node21" class="node"><title>Node21</title>
<polygon fill="white" stroke="#bfbfbf" points="648.404,-112.5 648.404,-131.5 710.404,-131.5 710.404,-112.5 648.404,-112.5"/>
<text text-anchor="middle" x="679.404" y="-119.5" font-family="Helvetica,sans-Serif" font-size="10.00">algorithm</text>
</g>
<!-- Node20&#45;&gt;Node21 -->
<g id="edge22" class="edge"><title>Node20&#45;&gt;Node21</title>
<path fill="none" stroke="midnightblue" d="M592.018,-173.975C608.757,-164.211 636.408,-148.081 656.122,-136.581"/>
<polygon fill="midnightblue" stroke="midnightblue" points="657.942,-139.571 664.817,-131.509 654.415,-133.525 657.942,-139.571"/>
</g>
<!-- Node22 -->
<g id="node22" class="node"><title>Node22</title>
<polygon fill="white" stroke="#bfbfbf" points="458.904,-112.5 458.904,-131.5 505.904,-131.5 505.904,-112.5 458.904,-112.5"/>
<text text-anchor="middle" x="482.404" y="-119.5" font-family="Helvetica,sans-Serif" font-size="10.00">cmath</text>
</g>
<!-- Node20&#45;&gt;Node22 -->
<g id="edge23" class="edge"><title>Node20&#45;&gt;Node22</title>
<path fill="none" stroke="midnightblue" d="M563.793,-173.975C548.343,-164.299 522.914,-148.372 504.588,-136.894"/>
<polygon fill="midnightblue" stroke="midnightblue" points="506.322,-133.851 495.99,-131.509 502.607,-139.783 506.322,-133.851"/>
</g>
<!-- Node23 -->
<g id="node23" class="node"><title>Node23</title>
<g id="a_node23"><a xlink:href="Math_8inl.html" target="_top" xlink:title="Core/Math/Math.inl">
<polygon fill="white" stroke="black" points="523.904,-112.5 523.904,-131.5 630.904,-131.5 630.904,-112.5 523.904,-112.5"/>
<text text-anchor="middle" x="577.404" y="-119.5" font-family="Helvetica,sans-Serif" font-size="10.00">Core/Math/Math.inl</text>
</a>
</g>
</g>
<!-- Node20&#45;&gt;Node23 -->
<g id="edge24" class="edge"><title>Node20&#45;&gt;Node23</title>
<path fill="none" stroke="midnightblue" d="M572.503,-173.975C570.672,-165.58 570.201,-152.481 571.089,-141.663"/>
<polygon fill="midnightblue" stroke="midnightblue" points="574.59,-141.897 572.507,-131.509 567.657,-140.929 574.59,-141.897"/>
</g>
<!-- Node23&#45;&gt;Node20 -->
<g id="edge25" class="edge"><title>Node23&#45;&gt;Node20</title>
<path fill="none" stroke="midnightblue" d="M582.301,-131.509C584.134,-139.898 584.607,-152.996 583.72,-163.817"/>
<polygon fill="midnightblue" stroke="midnightblue" points="580.218,-163.588 582.304,-173.975 587.151,-164.554 580.218,-163.588"/>
</g>
<!-- Node25&#45;&gt;Node5 -->
<g id="edge34" class="edge"><title>Node25&#45;&gt;Node5</title>
<path fill="none" stroke="midnightblue" d="M367.291,-302.45C352.354,-294.662 331.417,-281.954 317.404,-266 283.761,-227.696 262.26,-170.359 252.869,-141.296"/>
<polygon fill="midnightblue" stroke="midnightblue" points="256.177,-140.148 249.862,-131.641 249.493,-142.229 256.177,-140.148"/>
</g>
<!-- Node25&#45;&gt;Node14 -->
<g id="edge33" class="edge"><title>Node25&#45;&gt;Node14</title>
<path fill="none" stroke="midnightblue" d="M428.53,-302.475C482.509,-291.805 574.94,-273.534 633.241,-262.009"/>
<polygon fill="midnightblue" stroke="midnightblue" points="634.226,-265.382 643.358,-260.009 632.869,-258.515 634.226,-265.382"/>
</g>
<!-- Node26 -->
<g id="node26" class="node"><title>Node26</title>
<g id="a_node26"><a xlink:href="Index_8hpp.html" target="_top" xlink:title="Core/Index/Index.hpp">
<polygon fill="white" stroke="black" points="326.904,-241 326.904,-260 443.904,-260 443.904,-241 326.904,-241"/>
<text text-anchor="middle" x="385.404" y="-248" font-family="Helvetica,sans-Serif" font-size="10.00">Core/Index/Index.hpp</text>
</a>
</g>
</g>
<!-- Node25&#45;&gt;Node26 -->
<g id="edge30" class="edge"><title>Node25&#45;&gt;Node26</title>
<path fill="none" stroke="midnightblue" d="M385.404,-302.475C385.404,-294.08 385.404,-280.981 385.404,-270.163"/>
<polygon fill="midnightblue" stroke="midnightblue" points="388.904,-270.009 385.404,-260.009 381.904,-270.009 388.904,-270.009"/>
</g>
<!-- Node27 -->
<g id="node27" class="node"><title>Node27</title>
<polygon fill="white" stroke="#bfbfbf" points="294.404,-174 294.404,-193 336.404,-193 336.404,-174 294.404,-174"/>
<text text-anchor="middle" x="315.404" y="-181" font-family="Helvetica,sans-Serif" font-size="10.00">limits</text>
</g>
<!-- Node26&#45;&gt;Node27 -->
<g id="edge31" class="edge"><title>Node26&#45;&gt;Node27</title>
<path fill="none" stroke="midnightblue" d="M375.963,-240.734C364.733,-230.305 345.782,-212.709 332.067,-199.973"/>
<polygon fill="midnightblue" stroke="midnightblue" points="334.404,-197.367 324.695,-193.127 329.641,-202.497 334.404,-197.367"/>
</g>
<!-- Node28 -->
<g id="node28" class="node"><title>Node28</title>
<g id="a_node28"><a xlink:href="Index_8inl.html" target="_top" xlink:title="Core/Index/Index.inl">
<polygon fill="white" stroke="black" points="354.404,-174 354.404,-193 464.404,-193 464.404,-174 354.404,-174"/>
<text text-anchor="middle" x="409.404" y="-181" font-family="Helvetica,sans-Serif" font-size="10.00">Core/Index/Index.inl</text>
</a>
</g>
</g>
<!-- Node26&#45;&gt;Node28 -->
<g id="edge32" class="edge"><title>Node26&#45;&gt;Node28</title>
<path fill="none" stroke="midnightblue" d="M388.64,-240.734C392.239,-230.988 398.149,-214.981 402.746,-202.532"/>
<polygon fill="midnightblue" stroke="midnightblue" points="406.038,-203.721 406.218,-193.127 399.471,-201.296 406.038,-203.721"/>
</g>
<!-- Node29&#45;&gt;Node14 -->
<g id="edge37" class="edge"><title>Node29&#45;&gt;Node14</title>
<path fill="none" stroke="midnightblue" d="M554.788,-358.383C583.033,-335.445 638.652,-290.278 667.716,-266.676"/>
<polygon fill="midnightblue" stroke="midnightblue" points="670.267,-269.113 675.823,-260.092 665.854,-263.679 670.267,-269.113"/>
</g>
</g>
</svg>
