<?xml version="1.0" encoding="UTF-8" standalone="no"?>
<!DOCTYPE svg PUBLIC "-//W3C//DTD SVG 1.1//EN"
 "http://www.w3.org/Graphics/SVG/1.1/DTD/svg11.dtd">
<!-- Generated by graphviz version 2.38.0 (20140413.2041)
 -->
<!-- Title: /home/travis/build/STORM&#45;IRIT/Radium&#45;Engine/src/Core/Animation/Sequence/Sequence.hpp Pages: 1 -->
<svg width="1385pt" height="430pt"
 viewBox="0.00 0.00 1384.50 430.00" xmlns="http://www.w3.org/2000/svg" xmlns:xlink="http://www.w3.org/1999/xlink">
<g id="graph0" class="graph" transform="scale(1 1) rotate(0) translate(4 426)">
<title>/home/travis/build/STORM&#45;IRIT/Radium&#45;Engine/src/Core/Animation/Sequence/Sequence.hpp</title>
<polygon fill="white" stroke="none" points="-4,4 -4,-426 1380.5,-426 1380.5,4 -4,4"/>
<!-- Node1 -->
<g id="node1" class="node"><title>Node1</title>
<polygon fill="#bfbfbf" stroke="black" points="1064.5,-369.5 1064.5,-421.5 1226.5,-421.5 1226.5,-369.5 1064.5,-369.5"/>
<text text-anchor="start" x="1072.5" y="-409.5" font-family="Helvetica,sans-Serif" font-size="10.00">/home/travis/build</text>
<text text-anchor="start" x="1072.5" y="-398.5" font-family="Helvetica,sans-Serif" font-size="10.00">/STORM&#45;IRIT/Radium&#45;Engine</text>
<text text-anchor="start" x="1072.5" y="-387.5" font-family="Helvetica,sans-Serif" font-size="10.00">/src/Core/Animation/Sequence</text>
<text text-anchor="middle" x="1145.5" y="-376.5" font-family="Helvetica,sans-Serif" font-size="10.00">/Sequence.hpp</text>
</g>
<!-- Node2 -->
<g id="node2" class="node"><title>Node2</title>
<g id="a_node2"><a xlink:href="Pose_8hpp.html" target="_top" xlink:title="Core/Animation/Pose\l/Pose.hpp">
<polygon fill="white" stroke="black" points="966,-302.5 966,-332.5 1083,-332.5 1083,-302.5 966,-302.5"/>
<text text-anchor="start" x="974" y="-320.5" font-family="Helvetica,sans-Serif" font-size="10.00">Core/Animation/Pose</text>
<text text-anchor="middle" x="1024.5" y="-309.5" font-family="Helvetica,sans-Serif" font-size="10.00">/Pose.hpp</text>
</a>
</g>
</g>
<!-- Node1&#45;&gt;Node2 -->
<g id="edge1" class="edge"><title>Node1&#45;&gt;Node2</title>
<path fill="none" stroke="midnightblue" d="M1105.54,-369.404C1089.32,-359.212 1070.85,-347.614 1055.65,-338.066"/>
<polygon fill="midnightblue" stroke="midnightblue" points="1057.45,-335.062 1047.12,-332.707 1053.72,-340.989 1057.45,-335.062"/>
</g>
<!-- Node5 -->
<g id="node5" class="node"><title>Node5</title>
<g id="a_node5"><a xlink:href="CoreMacros_8hpp.html" target="_top" xlink:title="Core/CoreMacros.hpp">
<polygon fill="white" stroke="black" points="1104.5,-56.5 1104.5,-75.5 1224.5,-75.5 1224.5,-56.5 1104.5,-56.5"/>
<text text-anchor="middle" x="1164.5" y="-63.5" font-family="Helvetica,sans-Serif" font-size="10.00">Core/CoreMacros.hpp</text>
</a>
</g>
</g>
<!-- Node1&#45;&gt;Node5 -->
<g id="edge26" class="edge"><title>Node1&#45;&gt;Node5</title>
<path fill="none" stroke="midnightblue" d="M1150.89,-369.32C1156.51,-340.859 1164.5,-293.074 1164.5,-251.5 1164.5,-251.5 1164.5,-251.5 1164.5,-182.5 1164.5,-148.364 1164.5,-108.552 1164.5,-85.7092"/>
<polygon fill="midnightblue" stroke="midnightblue" points="1168,-85.6934 1164.5,-75.6934 1161,-85.6934 1168,-85.6934"/>
</g>
<!-- Node12 -->
<g id="node12" class="node"><title>Node12</title>
<polygon fill="white" stroke="#bfbfbf" points="1089,-174 1089,-193 1136,-193 1136,-174 1089,-174"/>
<text text-anchor="middle" x="1112.5" y="-181" font-family="Helvetica,sans-Serif" font-size="10.00">vector</text>
</g>
<!-- Node1&#45;&gt;Node12 -->
<g id="edge31" class="edge"><title>Node1&#45;&gt;Node12</title>
<path fill="none" stroke="midnightblue" d="M1141.52,-369.169C1134.81,-326.461 1121.39,-241.092 1115.45,-203.275"/>
<polygon fill="midnightblue" stroke="midnightblue" points="1118.87,-202.5 1113.86,-193.165 1111.96,-203.587 1118.87,-202.5"/>
</g>
<!-- Node24 -->
<g id="node24" class="node"><title>Node24</title>
<g id="a_node24"><a xlink:href="CircularIndex_8hpp.html" target="_top" xlink:title="Core/Index/CircularIndex.hpp">
<polygon fill="white" stroke="black" points="1210,-308 1210,-327 1363,-327 1363,-308 1210,-308"/>
<text text-anchor="middle" x="1286.5" y="-315" font-family="Helvetica,sans-Serif" font-size="10.00">Core/Index/CircularIndex.hpp</text>
</a>
</g>
</g>
<!-- Node1&#45;&gt;Node24 -->
<g id="edge27" class="edge"><title>Node1&#45;&gt;Node24</title>
<path fill="none" stroke="midnightblue" d="M1192.06,-369.404C1215.25,-356.902 1242.37,-342.286 1261.58,-331.931"/>
<polygon fill="midnightblue" stroke="midnightblue" points="1263.44,-334.904 1270.59,-327.078 1260.12,-328.742 1263.44,-334.904"/>
</g>
<!-- Node3 -->
<g id="node3" class="node"><title>Node3</title>
<g id="a_node3"><a xlink:href="AlignedStdVector_8hpp.html" target="_top" xlink:title="Core/Containers/AlignedStd\lVector.hpp">
<polygon fill="white" stroke="black" points="950,-235.5 950,-265.5 1099,-265.5 1099,-235.5 950,-235.5"/>
<text text-anchor="start" x="958" y="-253.5" font-family="Helvetica,sans-Serif" font-size="10.00">Core/Containers/AlignedStd</text>
<text text-anchor="middle" x="1024.5" y="-242.5" font-family="Helvetica,sans-Serif" font-size="10.00">Vector.hpp</text>
</a>
</g>
</g>
<!-- Node2&#45;&gt;Node3 -->
<g id="edge2" class="edge"><title>Node2&#45;&gt;Node3</title>
<path fill="none" stroke="midnightblue" d="M1024.5,-302.396C1024.5,-294.645 1024.5,-284.812 1024.5,-275.86"/>
<polygon fill="midnightblue" stroke="midnightblue" points="1028,-275.576 1024.5,-265.577 1021,-275.577 1028,-275.576"/>
</g>
<!-- Node13 -->
<g id="node13" class="node"><title>Node13</title>
<g id="a_node13"><a xlink:href="LinearAlgebra_8hpp.html" target="_top" xlink:title="Core/Math/LinearAlgebra.hpp">
<polygon fill="white" stroke="black" points="472.5,-241 472.5,-260 628.5,-260 628.5,-241 472.5,-241"/>
<text text-anchor="middle" x="550.5" y="-248" font-family="Helvetica,sans-Serif" font-size="10.00">Core/Math/LinearAlgebra.hpp</text>
</a>
</g>
</g>
<!-- Node2&#45;&gt;Node13 -->
<g id="edge12" class="edge"><title>Node2&#45;&gt;Node13</title>
<path fill="none" stroke="midnightblue" d="M965.903,-308.465C879.151,-296.568 716.704,-274.292 622.716,-261.403"/>
<polygon fill="midnightblue" stroke="midnightblue" points="623.104,-257.924 612.721,-260.032 622.153,-264.859 623.104,-257.924"/>
</g>
<!-- Node4 -->
<g id="node4" class="node"><title>Node4</title>
<g id="a_node4"><a xlink:href="RaCore_8hpp.html" target="_top" xlink:title="Core/RaCore.hpp">
<polygon fill="white" stroke="black" points="705.5,-112.5 705.5,-131.5 803.5,-131.5 803.5,-112.5 705.5,-112.5"/>
<text text-anchor="middle" x="754.5" y="-119.5" font-family="Helvetica,sans-Serif" font-size="10.00">Core/RaCore.hpp</text>
</a>
</g>
</g>
<!-- Node3&#45;&gt;Node4 -->
<g id="edge3" class="edge"><title>Node3&#45;&gt;Node4</title>
<path fill="none" stroke="midnightblue" d="M1033.57,-235.333C1043.7,-217.514 1056.71,-186.961 1040.5,-168 1011.96,-134.614 889.077,-125.84 813.979,-123.633"/>
<polygon fill="midnightblue" stroke="midnightblue" points="813.802,-120.127 803.714,-123.363 813.618,-127.125 813.802,-120.127"/>
</g>
<!-- Node11 -->
<g id="node11" class="node"><title>Node11</title>
<polygon fill="white" stroke="#bfbfbf" points="939,-174 939,-193 1032,-193 1032,-174 939,-174"/>
<text text-anchor="middle" x="985.5" y="-181" font-family="Helvetica,sans-Serif" font-size="10.00">Eigen/StdVector</text>
</g>
<!-- Node3&#45;&gt;Node11 -->
<g id="edge10" class="edge"><title>Node3&#45;&gt;Node11</title>
<path fill="none" stroke="midnightblue" d="M1016.04,-235.396C1010.14,-225.562 1002.23,-212.378 995.935,-201.892"/>
<polygon fill="midnightblue" stroke="midnightblue" points="998.863,-199.969 990.717,-193.195 992.86,-203.57 998.863,-199.969"/>
</g>
<!-- Node3&#45;&gt;Node12 -->
<g id="edge11" class="edge"><title>Node3&#45;&gt;Node12</title>
<path fill="none" stroke="midnightblue" d="M1043.59,-235.396C1058.08,-224.697 1077.93,-210.033 1092.61,-199.193"/>
<polygon fill="midnightblue" stroke="midnightblue" points="1095.02,-201.764 1100.98,-193.007 1090.86,-196.133 1095.02,-201.764"/>
</g>
<!-- Node4&#45;&gt;Node5 -->
<g id="edge4" class="edge"><title>Node4&#45;&gt;Node5</title>
<path fill="none" stroke="midnightblue" d="M803.548,-114.54C875.881,-105.013 1011.52,-87.1486 1094.36,-76.2386"/>
<polygon fill="midnightblue" stroke="midnightblue" points="1094.98,-79.6868 1104.44,-74.9109 1094.06,-72.7467 1094.98,-79.6868"/>
</g>
<!-- Node6 -->
<g id="node6" class="node"><title>Node6</title>
<polygon fill="white" stroke="#bfbfbf" points="1001.5,-0.5 1001.5,-19.5 1053.5,-19.5 1053.5,-0.5 1001.5,-0.5"/>
<text text-anchor="middle" x="1027.5" y="-7.5" font-family="Helvetica,sans-Serif" font-size="10.00">cassert</text>
</g>
<!-- Node5&#45;&gt;Node6 -->
<g id="edge5" class="edge"><title>Node5&#45;&gt;Node6</title>
<path fill="none" stroke="midnightblue" d="M1142.79,-56.4435C1120.15,-47.5171 1084.43,-33.4387 1058.75,-23.3168"/>
<polygon fill="midnightblue" stroke="midnightblue" points="1059.69,-19.9273 1049.11,-19.5164 1057.13,-26.4397 1059.69,-19.9273"/>
</g>
<!-- Node7 -->
<g id="node7" class="node"><title>Node7</title>
<polygon fill="white" stroke="#bfbfbf" points="1072,-0.5 1072,-19.5 1117,-19.5 1117,-0.5 1072,-0.5"/>
<text text-anchor="middle" x="1094.5" y="-7.5" font-family="Helvetica,sans-Serif" font-size="10.00">cstdio</text>
</g>
<!-- Node5&#45;&gt;Node7 -->
<g id="edge6" class="edge"><title>Node5&#45;&gt;Node7</title>
<path fill="none" stroke="midnightblue" d="M1153.25,-56.324C1142.7,-48.1849 1126.7,-35.8395 1114.06,-26.0874"/>
<polygon fill="midnightblue" stroke="midnightblue" points="1116.01,-23.1707 1105.95,-19.8339 1111.73,-28.7132 1116.01,-23.1707"/>
</g>
<!-- Node8 -->
<g id="node8" class="node"><title>Node8</title>
<polygon fill="white" stroke="#bfbfbf" points="1135,-0.5 1135,-19.5 1194,-19.5 1194,-0.5 1135,-0.5"/>
<text text-anchor="middle" x="1164.5" y="-7.5" font-family="Helvetica,sans-Serif" font-size="10.00">iostream</text>
</g>
<!-- Node5&#45;&gt;Node8 -->
<g id="edge7" class="edge"><title>Node5&#45;&gt;Node8</title>
<path fill="none" stroke="midnightblue" d="M1164.5,-56.083C1164.5,-49.0059 1164.5,-38.8611 1164.5,-29.9865"/>
<polygon fill="midnightblue" stroke="midnightblue" points="1168,-29.751 1164.5,-19.7511 1161,-29.7511 1168,-29.751"/>
</g>
<!-- Node9 -->
<g id="node9" class="node"><title>Node9</title>
<polygon fill="white" stroke="#bfbfbf" points="1212.5,-0.5 1212.5,-19.5 1268.5,-19.5 1268.5,-0.5 1212.5,-0.5"/>
<text text-anchor="middle" x="1240.5" y="-7.5" font-family="Helvetica,sans-Serif" font-size="10.00">sstream</text>
</g>
<!-- Node5&#45;&gt;Node9 -->
<g id="edge8" class="edge"><title>Node5&#45;&gt;Node9</title>
<path fill="none" stroke="midnightblue" d="M1176.71,-56.324C1188.28,-48.1066 1205.88,-35.6017 1219.66,-25.8069"/>
<polygon fill="midnightblue" stroke="midnightblue" points="1221.94,-28.4791 1228.07,-19.8339 1217.89,-22.7729 1221.94,-28.4791"/>
</g>
<!-- Node10 -->
<g id="node10" class="node"><title>Node10</title>
<polygon fill="white" stroke="#bfbfbf" points="1286.5,-0.5 1286.5,-19.5 1334.5,-19.5 1334.5,-0.5 1286.5,-0.5"/>
<text text-anchor="middle" x="1310.5" y="-7.5" font-family="Helvetica,sans-Serif" font-size="10.00">thread</text>
</g>
<!-- Node5&#45;&gt;Node10 -->
<g id="edge9" class="edge"><title>Node5&#45;&gt;Node10</title>
<path fill="none" stroke="midnightblue" d="M1187.63,-56.4435C1211.98,-47.4381 1250.51,-33.1891 1277.92,-23.049"/>
<polygon fill="midnightblue" stroke="midnightblue" points="1279.31,-26.2681 1287.47,-19.5164 1276.88,-19.7028 1279.31,-26.2681"/>
</g>
<!-- Node13&#45;&gt;Node4 -->
<g id="edge13" class="edge"><title>Node13&#45;&gt;Node4</title>
<path fill="none" stroke="midnightblue" d="M529.581,-240.992C497.403,-226.726 441.925,-196.713 466.5,-168 495.296,-134.355 619.329,-125.681 694.919,-123.56"/>
<polygon fill="midnightblue" stroke="midnightblue" points="695.339,-127.051 705.249,-123.302 695.165,-120.053 695.339,-127.051"/>
</g>
<!-- Node14 -->
<g id="node14" class="node"><title>Node14</title>
<polygon fill="white" stroke="#bfbfbf" points="642.5,-174 642.5,-193 710.5,-193 710.5,-174 642.5,-174"/>
<text text-anchor="middle" x="676.5" y="-181" font-family="Helvetica,sans-Serif" font-size="10.00">Eigen/Core</text>
</g>
<!-- Node13&#45;&gt;Node14 -->
<g id="edge14" class="edge"><title>Node13&#45;&gt;Node14</title>
<path fill="none" stroke="midnightblue" d="M567.232,-240.869C588.601,-229.845 625.799,-210.655 650.781,-197.768"/>
<polygon fill="midnightblue" stroke="midnightblue" points="652.416,-200.862 659.699,-193.167 649.207,-194.641 652.416,-200.862"/>
</g>
<!-- Node15 -->
<g id="node15" class="node"><title>Node15</title>
<polygon fill="white" stroke="#bfbfbf" points="728.5,-174 728.5,-193 822.5,-193 822.5,-174 728.5,-174"/>
<text text-anchor="middle" x="775.5" y="-181" font-family="Helvetica,sans-Serif" font-size="10.00">Eigen/Geometry</text>
</g>
<!-- Node13&#45;&gt;Node15 -->
<g id="edge15" class="edge"><title>Node13&#45;&gt;Node15</title>
<path fill="none" stroke="midnightblue" d="M580.378,-240.869C620.414,-229.303 691.561,-208.749 735.988,-195.914"/>
<polygon fill="midnightblue" stroke="midnightblue" points="737.221,-199.202 745.857,-193.064 735.278,-192.477 737.221,-199.202"/>
</g>
<!-- Node16 -->
<g id="node16" class="node"><title>Node16</title>
<polygon fill="white" stroke="#bfbfbf" points="840.5,-174 840.5,-193 920.5,-193 920.5,-174 840.5,-174"/>
<text text-anchor="middle" x="880.5" y="-181" font-family="Helvetica,sans-Serif" font-size="10.00">Eigen/Sparse</text>
</g>
<!-- Node13&#45;&gt;Node16 -->
<g id="edge16" class="edge"><title>Node13&#45;&gt;Node16</title>
<path fill="none" stroke="midnightblue" d="M608.467,-240.99C665.554,-232.162 755.056,-217.122 831.5,-199 835.579,-198.033 839.821,-196.929 844.028,-195.772"/>
<polygon fill="midnightblue" stroke="midnightblue" points="845.031,-199.125 853.685,-193.013 843.108,-192.395 845.031,-199.125"/>
</g>
<!-- Node17 -->
<g id="node17" class="node"><title>Node17</title>
<polygon fill="white" stroke="#bfbfbf" points="194,-174 194,-193 257,-193 257,-174 194,-174"/>
<text text-anchor="middle" x="225.5" y="-181" font-family="Helvetica,sans-Serif" font-size="10.00">functional</text>
</g>
<!-- Node13&#45;&gt;Node17 -->
<g id="edge17" class="edge"><title>Node13&#45;&gt;Node17</title>
<path fill="none" stroke="midnightblue" d="M483.564,-240.967C425.352,-232.759 339.039,-218.687 265.5,-199 262.528,-198.204 259.464,-197.284 256.416,-196.3"/>
<polygon fill="midnightblue" stroke="midnightblue" points="257.467,-192.96 246.872,-193.017 255.19,-199.579 257.467,-192.96"/>
</g>
<!-- Node18 -->
<g id="node18" class="node"><title>Node18</title>
<polygon fill="white" stroke="#bfbfbf" points="275,-168.5 275,-198.5 420,-198.5 420,-168.5 275,-168.5"/>
<text text-anchor="start" x="283" y="-186.5" font-family="Helvetica,sans-Serif" font-size="10.00">unsupported/Eigen/Aligned</text>
<text text-anchor="middle" x="347.5" y="-175.5" font-family="Helvetica,sans-Serif" font-size="10.00">Vector3</text>
</g>
<!-- Node13&#45;&gt;Node18 -->
<g id="edge18" class="edge"><title>Node13&#45;&gt;Node18</title>
<path fill="none" stroke="midnightblue" d="M523.543,-240.869C492.423,-230.904 440.467,-214.268 401.043,-201.644"/>
<polygon fill="midnightblue" stroke="midnightblue" points="401.902,-198.244 391.311,-198.528 399.767,-204.911 401.902,-198.244"/>
</g>
<!-- Node19 -->
<g id="node19" class="node"><title>Node19</title>
<g id="a_node19"><a xlink:href="Math_8hpp.html" target="_top" xlink:title="Core/Math/Math.hpp">
<polygon fill="white" stroke="black" points="61.5,-174 61.5,-193 175.5,-193 175.5,-174 61.5,-174"/>
<text text-anchor="middle" x="118.5" y="-181" font-family="Helvetica,sans-Serif" font-size="10.00">Core/Math/Math.hpp</text>
</a>
</g>
</g>
<!-- Node13&#45;&gt;Node19 -->
<g id="edge19" class="edge"><title>Node13&#45;&gt;Node19</title>
<path fill="none" stroke="midnightblue" d="M475.924,-240.965C401.772,-232.066 284.901,-216.926 184.5,-199 178.209,-197.877 171.608,-196.575 165.112,-195.222"/>
<polygon fill="midnightblue" stroke="midnightblue" points="165.563,-191.739 155.053,-193.071 164.1,-198.585 165.563,-191.739"/>
</g>
<!-- Node23 -->
<g id="node23" class="node"><title>Node23</title>
<g id="a_node23"><a xlink:href="LinearAlgebra_8inl.html" target="_top" xlink:title="Core/Math/LinearAlgebra.inl">
<polygon fill="white" stroke="black" points="476,-174 476,-193 625,-193 625,-174 476,-174"/>
<text text-anchor="middle" x="550.5" y="-181" font-family="Helvetica,sans-Serif" font-size="10.00">Core/Math/LinearAlgebra.inl</text>
</a>
</g>
</g>
<!-- Node13&#45;&gt;Node23 -->
<g id="edge25" class="edge"><title>Node13&#45;&gt;Node23</title>
<path fill="none" stroke="midnightblue" d="M550.5,-240.734C550.5,-231.183 550.5,-215.618 550.5,-203.283"/>
<polygon fill="midnightblue" stroke="midnightblue" points="554,-203.127 550.5,-193.127 547,-203.127 554,-203.127"/>
</g>
<!-- Node19&#45;&gt;Node4 -->
<g id="edge20" class="edge"><title>Node19&#45;&gt;Node4</title>
<path fill="none" stroke="midnightblue" d="M152.93,-173.998C163.048,-171.755 174.172,-169.535 184.5,-168 369.609,-140.492 591.205,-129.095 695.158,-124.998"/>
<polygon fill="midnightblue" stroke="midnightblue" points="695.588,-128.484 705.446,-124.601 695.319,-121.489 695.588,-128.484"/>
</g>
<!-- Node20 -->
<g id="node20" class="node"><title>Node20</title>
<polygon fill="white" stroke="#bfbfbf" points="189.5,-112.5 189.5,-131.5 251.5,-131.5 251.5,-112.5 189.5,-112.5"/>
<text text-anchor="middle" x="220.5" y="-119.5" font-family="Helvetica,sans-Serif" font-size="10.00">algorithm</text>
</g>
<!-- Node19&#45;&gt;Node20 -->
<g id="edge21" class="edge"><title>Node19&#45;&gt;Node20</title>
<path fill="none" stroke="midnightblue" d="M133.114,-173.975C149.853,-164.211 177.504,-148.081 197.219,-136.581"/>
<polygon fill="midnightblue" stroke="midnightblue" points="199.039,-139.571 205.913,-131.509 195.512,-133.525 199.039,-139.571"/>
</g>
<!-- Node21 -->
<g id="node21" class="node"><title>Node21</title>
<polygon fill="white" stroke="#bfbfbf" points="0,-112.5 0,-131.5 47,-131.5 47,-112.5 0,-112.5"/>
<text text-anchor="middle" x="23.5" y="-119.5" font-family="Helvetica,sans-Serif" font-size="10.00">cmath</text>
</g>
<!-- Node19&#45;&gt;Node21 -->
<g id="edge22" class="edge"><title>Node19&#45;&gt;Node21</title>
<path fill="none" stroke="midnightblue" d="M104.889,-173.975C89.4395,-164.299 64.0101,-148.372 45.6839,-136.894"/>
<polygon fill="midnightblue" stroke="midnightblue" points="47.4187,-133.851 37.0859,-131.509 43.7031,-139.783 47.4187,-133.851"/>
</g>
<!-- Node22 -->
<g id="node22" class="node"><title>Node22</title>
<g id="a_node22"><a xlink:href="Math_8inl.html" target="_top" xlink:title="Core/Math/Math.inl">
<polygon fill="white" stroke="black" points="65,-112.5 65,-131.5 172,-131.5 172,-112.5 65,-112.5"/>
<text text-anchor="middle" x="118.5" y="-119.5" font-family="Helvetica,sans-Serif" font-size="10.00">Core/Math/Math.inl</text>
</a>
</g>
</g>
<!-- Node19&#45;&gt;Node22 -->
<g id="edge23" class="edge"><title>Node19&#45;&gt;Node22</title>
<path fill="none" stroke="midnightblue" d="M113.599,-173.975C111.768,-165.58 111.297,-152.481 112.185,-141.663"/>
<polygon fill="midnightblue" stroke="midnightblue" points="115.686,-141.897 113.603,-131.509 108.754,-140.929 115.686,-141.897"/>
</g>
<!-- Node22&#45;&gt;Node19 -->
<g id="edge24" class="edge"><title>Node22&#45;&gt;Node19</title>
<path fill="none" stroke="midnightblue" d="M123.397,-131.509C125.23,-139.898 125.703,-152.996 124.817,-163.817"/>
<polygon fill="midnightblue" stroke="midnightblue" points="121.315,-163.588 123.401,-173.975 128.248,-164.554 121.315,-163.588"/>
</g>
<!-- Node24&#45;&gt;Node5 -->
<g id="edge28" class="edge"><title>Node24&#45;&gt;Node5</title>
<path fill="none" stroke="midnightblue" d="M1270.18,-307.875C1255.35,-299.212 1233.93,-284.508 1221.5,-266 1181.89,-207.002 1198.61,-180.157 1178.5,-112 1175.89,-103.161 1172.87,-93.388 1170.3,-85.2145"/>
<polygon fill="midnightblue" stroke="midnightblue" points="1173.61,-84.0823 1167.26,-75.604 1166.94,-86.194 1173.61,-84.0823"/>
</g>
<!-- Node25 -->
<g id="node25" class="node"><title>Node25</title>
<g id="a_node25"><a xlink:href="CircularIndex_8inl.html" target="_top" xlink:title="Core/Index/CircularIndex.inl">
<polygon fill="white" stroke="black" points="1230.5,-241 1230.5,-260 1376.5,-260 1376.5,-241 1230.5,-241"/>
<text text-anchor="middle" x="1303.5" y="-248" font-family="Helvetica,sans-Serif" font-size="10.00">Core/Index/CircularIndex.inl</text>
</a>
</g>
</g>
<!-- Node24&#45;&gt;Node25 -->
<g id="edge29" class="edge"><title>Node24&#45;&gt;Node25</title>
<path fill="none" stroke="midnightblue" d="M1284,-307.734C1284.5,-297.988 1288.25,-281.981 1292.67,-269.532"/>
<polygon fill="midnightblue" stroke="midnightblue" points="1295.97,-270.709 1296.48,-260.127 1289.48,-268.077 1295.97,-270.709"/>
</g>
<!-- Node25&#45;&gt;Node24 -->
<g id="edge30" class="edge"><title>Node25&#45;&gt;Node24</title>
<path fill="none" stroke="midnightblue" d="M1306,-260.127C1305.54,-269.814 1301.81,-285.808 1297.4,-298.29"/>
<polygon fill="midnightblue" stroke="midnightblue" points="1294.08,-297.151 1293.58,-307.734 1300.57,-299.772 1294.08,-297.151"/>
</g>
</g>
</svg>
