<?xml version="1.0" encoding="UTF-8" standalone="no"?>
<!DOCTYPE svg PUBLIC "-//W3C//DTD SVG 1.1//EN"
 "http://www.w3.org/Graphics/SVG/1.1/DTD/svg11.dtd">
<!-- Generated by graphviz version 2.38.0 (20140413.2041)
 -->
<!-- Title: /home/travis/build/STORM&#45;IRIT/Radium&#45;Engine/src/Core/Animation/Handle/Skeleton.hpp Pages: 1 -->
<svg width="1292pt" height="497pt"
 viewBox="0.00 0.00 1292.00 497.00" xmlns="http://www.w3.org/2000/svg" xmlns:xlink="http://www.w3.org/1999/xlink">
<g id="graph0" class="graph" transform="scale(1 1) rotate(0) translate(4 493)">
<title>/home/travis/build/STORM&#45;IRIT/Radium&#45;Engine/src/Core/Animation/Handle/Skeleton.hpp</title>
<polygon fill="white" stroke="none" points="-4,4 -4,-493 1288,-493 1288,4 -4,4"/>
<!-- Node1 -->
<g id="node1" class="node"><title>Node1</title>
<polygon fill="#bfbfbf" stroke="black" points="972.5,-436.5 972.5,-488.5 1120.5,-488.5 1120.5,-436.5 972.5,-436.5"/>
<text text-anchor="start" x="980.5" y="-476.5" font-family="Helvetica,sans-Serif" font-size="10.00">/home/travis/build</text>
<text text-anchor="start" x="980.5" y="-465.5" font-family="Helvetica,sans-Serif" font-size="10.00">/STORM&#45;IRIT/Radium&#45;Engine</text>
<text text-anchor="start" x="980.5" y="-454.5" font-family="Helvetica,sans-Serif" font-size="10.00">/src/Core/Animation/Handle</text>
<text text-anchor="middle" x="1046.5" y="-443.5" font-family="Helvetica,sans-Serif" font-size="10.00">/Skeleton.hpp</text>
</g>
<!-- Node2 -->
<g id="node2" class="node"><title>Node2</title>
<g id="a_node2"><a xlink:href="Handle_8hpp.html" target="_top" xlink:title="Core/Animation/Handle\l/Handle.hpp">
<polygon fill="white" stroke="black" points="824.5,-369.5 824.5,-399.5 952.5,-399.5 952.5,-369.5 824.5,-369.5"/>
<text text-anchor="start" x="832.5" y="-387.5" font-family="Helvetica,sans-Serif" font-size="10.00">Core/Animation/Handle</text>
<text text-anchor="middle" x="888.5" y="-376.5" font-family="Helvetica,sans-Serif" font-size="10.00">/Handle.hpp</text>
</a>
</g>
</g>
<!-- Node1&#45;&gt;Node2 -->
<g id="edge1" class="edge"><title>Node1&#45;&gt;Node2</title>
<path fill="none" stroke="midnightblue" d="M994.327,-436.404C972.445,-425.878 947.446,-413.854 927.242,-404.135"/>
<polygon fill="midnightblue" stroke="midnightblue" points="928.564,-400.887 918.035,-399.707 925.529,-407.195 928.564,-400.887"/>
</g>
<!-- Node26 -->
<g id="node26" class="node"><title>Node26</title>
<g id="a_node26"><a xlink:href="AdjacencyList_8hpp.html" target="_top" xlink:title="Core/Utils/Graph/Adjacency\lList.hpp">
<polygon fill="white" stroke="black" points="1086,-369.5 1086,-399.5 1233,-399.5 1233,-369.5 1086,-369.5"/>
<text text-anchor="start" x="1094" y="-387.5" font-family="Helvetica,sans-Serif" font-size="10.00">Core/Utils/Graph/Adjacency</text>
<text text-anchor="middle" x="1159.5" y="-376.5" font-family="Helvetica,sans-Serif" font-size="10.00">List.hpp</text>
</a>
</g>
</g>
<!-- Node1&#45;&gt;Node26 -->
<g id="edge31" class="edge"><title>Node1&#45;&gt;Node26</title>
<path fill="none" stroke="midnightblue" d="M1083.81,-436.404C1098.83,-426.307 1115.89,-414.831 1130.01,-405.334"/>
<polygon fill="midnightblue" stroke="midnightblue" points="1132.03,-408.192 1138.38,-399.707 1128.13,-402.383 1132.03,-408.192"/>
</g>
<!-- Node3 -->
<g id="node3" class="node"><title>Node3</title>
<g id="a_node3"><a xlink:href="Pose_8hpp.html" target="_top" xlink:title="Core/Animation/Pose\l/Pose.hpp">
<polygon fill="white" stroke="black" points="963,-302.5 963,-332.5 1080,-332.5 1080,-302.5 963,-302.5"/>
<text text-anchor="start" x="971" y="-320.5" font-family="Helvetica,sans-Serif" font-size="10.00">Core/Animation/Pose</text>
<text text-anchor="middle" x="1021.5" y="-309.5" font-family="Helvetica,sans-Serif" font-size="10.00">/Pose.hpp</text>
</a>
</g>
</g>
<!-- Node2&#45;&gt;Node3 -->
<g id="edge2" class="edge"><title>Node2&#45;&gt;Node3</title>
<path fill="none" stroke="midnightblue" d="M917.359,-369.396C936.792,-359.899 962.619,-347.276 983.691,-336.978"/>
<polygon fill="midnightblue" stroke="midnightblue" points="985.25,-340.112 992.697,-332.577 982.176,-333.823 985.25,-340.112"/>
</g>
<!-- Node5 -->
<g id="node5" class="node"><title>Node5</title>
<g id="a_node5"><a xlink:href="RaCore_8hpp.html" target="_top" xlink:title="Core/RaCore.hpp">
<polygon fill="white" stroke="black" points="866.5,-112.5 866.5,-131.5 964.5,-131.5 964.5,-112.5 866.5,-112.5"/>
<text text-anchor="middle" x="915.5" y="-119.5" font-family="Helvetica,sans-Serif" font-size="10.00">Core/RaCore.hpp</text>
</a>
</g>
</g>
<!-- Node2&#45;&gt;Node5 -->
<g id="edge28" class="edge"><title>Node2&#45;&gt;Node5</title>
<path fill="none" stroke="midnightblue" d="M898.57,-369.26C904.799,-359.548 912.214,-346.115 915.5,-333 932.69,-264.39 923.826,-179.166 918.524,-141.911"/>
<polygon fill="midnightblue" stroke="midnightblue" points="921.919,-140.949 916.966,-131.583 914.997,-141.994 921.919,-140.949"/>
</g>
<!-- Node14 -->
<g id="node14" class="node"><title>Node14</title>
<g id="a_node14"><a xlink:href="LinearAlgebra_8hpp.html" target="_top" xlink:title="Core/Math/LinearAlgebra.hpp">
<polygon fill="white" stroke="black" points="490.5,-241 490.5,-260 646.5,-260 646.5,-241 490.5,-241"/>
<text text-anchor="middle" x="568.5" y="-248" font-family="Helvetica,sans-Serif" font-size="10.00">Core/Math/LinearAlgebra.hpp</text>
</a>
</g>
</g>
<!-- Node2&#45;&gt;Node14 -->
<g id="edge27" class="edge"><title>Node2&#45;&gt;Node14</title>
<path fill="none" stroke="midnightblue" d="M854.557,-369.499C791.781,-343.604 658.5,-288.625 598.674,-263.947"/>
<polygon fill="midnightblue" stroke="midnightblue" points="599.969,-260.695 589.39,-260.117 597.3,-267.166 599.969,-260.695"/>
</g>
<!-- Node25 -->
<g id="node25" class="node"><title>Node25</title>
<g id="a_node25"><a xlink:href="Handle_8inl.html" target="_top" xlink:title="Core/Animation/Handle\l/Handle.inl">
<polygon fill="white" stroke="black" points="778.5,-302.5 778.5,-332.5 906.5,-332.5 906.5,-302.5 778.5,-302.5"/>
<text text-anchor="start" x="786.5" y="-320.5" font-family="Helvetica,sans-Serif" font-size="10.00">Core/Animation/Handle</text>
<text text-anchor="middle" x="842.5" y="-309.5" font-family="Helvetica,sans-Serif" font-size="10.00">/Handle.inl</text>
</a>
</g>
</g>
<!-- Node2&#45;&gt;Node25 -->
<g id="edge29" class="edge"><title>Node2&#45;&gt;Node25</title>
<path fill="none" stroke="midnightblue" d="M872.84,-369.396C865.91,-361.134 858.127,-350.507 852.031,-341.102"/>
<polygon fill="midnightblue" stroke="midnightblue" points="855.008,-339.26 846.787,-332.577 849.046,-342.928 855.008,-339.26"/>
</g>
<!-- Node4 -->
<g id="node4" class="node"><title>Node4</title>
<g id="a_node4"><a xlink:href="AlignedStdVector_8hpp.html" target="_top" xlink:title="Core/Containers/AlignedStd\lVector.hpp">
<polygon fill="white" stroke="black" points="973,-235.5 973,-265.5 1122,-265.5 1122,-235.5 973,-235.5"/>
<text text-anchor="start" x="981" y="-253.5" font-family="Helvetica,sans-Serif" font-size="10.00">Core/Containers/AlignedStd</text>
<text text-anchor="middle" x="1047.5" y="-242.5" font-family="Helvetica,sans-Serif" font-size="10.00">Vector.hpp</text>
</a>
</g>
</g>
<!-- Node3&#45;&gt;Node4 -->
<g id="edge3" class="edge"><title>Node3&#45;&gt;Node4</title>
<path fill="none" stroke="midnightblue" d="M1027.14,-302.396C1030.34,-294.389 1034.44,-284.162 1038.11,-274.978"/>
<polygon fill="midnightblue" stroke="midnightblue" points="1041.41,-276.161 1041.87,-265.577 1034.91,-273.561 1041.41,-276.161"/>
</g>
<!-- Node3&#45;&gt;Node14 -->
<g id="edge13" class="edge"><title>Node3&#45;&gt;Node14</title>
<path fill="none" stroke="midnightblue" d="M962.743,-308.069C879.297,-296.096 726.746,-274.206 637.859,-261.452"/>
<polygon fill="midnightblue" stroke="midnightblue" points="638.268,-257.975 627.873,-260.019 637.274,-264.904 638.268,-257.975"/>
</g>
<!-- Node4&#45;&gt;Node5 -->
<g id="edge4" class="edge"><title>Node4&#45;&gt;Node5</title>
<path fill="none" stroke="midnightblue" d="M1031.12,-235.133C1019.85,-225.144 1004.6,-211.441 991.5,-199 970.069,-178.647 946.064,-154.386 930.874,-138.844"/>
<polygon fill="midnightblue" stroke="midnightblue" points="933.28,-136.298 923.795,-131.579 928.267,-141.183 933.28,-136.298"/>
</g>
<!-- Node12 -->
<g id="node12" class="node"><title>Node12</title>
<polygon fill="white" stroke="#bfbfbf" points="1001,-174 1001,-193 1094,-193 1094,-174 1001,-174"/>
<text text-anchor="middle" x="1047.5" y="-181" font-family="Helvetica,sans-Serif" font-size="10.00">Eigen/StdVector</text>
</g>
<!-- Node4&#45;&gt;Node12 -->
<g id="edge11" class="edge"><title>Node4&#45;&gt;Node12</title>
<path fill="none" stroke="midnightblue" d="M1047.5,-235.396C1047.5,-226.064 1047.5,-213.714 1047.5,-203.517"/>
<polygon fill="midnightblue" stroke="midnightblue" points="1051,-203.195 1047.5,-193.195 1044,-203.195 1051,-203.195"/>
</g>
<!-- Node13 -->
<g id="node13" class="node"><title>Node13</title>
<polygon fill="white" stroke="#bfbfbf" points="1112,-174 1112,-193 1159,-193 1159,-174 1112,-174"/>
<text text-anchor="middle" x="1135.5" y="-181" font-family="Helvetica,sans-Serif" font-size="10.00">vector</text>
</g>
<!-- Node4&#45;&gt;Node13 -->
<g id="edge12" class="edge"><title>Node4&#45;&gt;Node13</title>
<path fill="none" stroke="midnightblue" d="M1066.59,-235.396C1081.08,-224.697 1100.93,-210.033 1115.61,-199.193"/>
<polygon fill="midnightblue" stroke="midnightblue" points="1118.02,-201.764 1123.98,-193.007 1113.86,-196.133 1118.02,-201.764"/>
</g>
<!-- Node6 -->
<g id="node6" class="node"><title>Node6</title>
<g id="a_node6"><a xlink:href="CoreMacros_8hpp.html" target="_top" xlink:title="Core/CoreMacros.hpp">
<polygon fill="white" stroke="black" points="855.5,-56.5 855.5,-75.5 975.5,-75.5 975.5,-56.5 855.5,-56.5"/>
<text text-anchor="middle" x="915.5" y="-63.5" font-family="Helvetica,sans-Serif" font-size="10.00">Core/CoreMacros.hpp</text>
</a>
</g>
</g>
<!-- Node5&#45;&gt;Node6 -->
<g id="edge5" class="edge"><title>Node5&#45;&gt;Node6</title>
<path fill="none" stroke="midnightblue" d="M915.5,-112.083C915.5,-105.006 915.5,-94.8611 915.5,-85.9865"/>
<polygon fill="midnightblue" stroke="midnightblue" points="919,-85.751 915.5,-75.7511 912,-85.7511 919,-85.751"/>
</g>
<!-- Node7 -->
<g id="node7" class="node"><title>Node7</title>
<polygon fill="white" stroke="#bfbfbf" points="752.5,-0.5 752.5,-19.5 804.5,-19.5 804.5,-0.5 752.5,-0.5"/>
<text text-anchor="middle" x="778.5" y="-7.5" font-family="Helvetica,sans-Serif" font-size="10.00">cassert</text>
</g>
<!-- Node6&#45;&gt;Node7 -->
<g id="edge6" class="edge"><title>Node6&#45;&gt;Node7</title>
<path fill="none" stroke="midnightblue" d="M893.792,-56.4435C871.145,-47.5171 835.428,-33.4387 809.748,-23.3168"/>
<polygon fill="midnightblue" stroke="midnightblue" points="810.693,-19.9273 800.106,-19.5164 808.126,-26.4397 810.693,-19.9273"/>
</g>
<!-- Node8 -->
<g id="node8" class="node"><title>Node8</title>
<polygon fill="white" stroke="#bfbfbf" points="823,-0.5 823,-19.5 868,-19.5 868,-0.5 823,-0.5"/>
<text text-anchor="middle" x="845.5" y="-7.5" font-family="Helvetica,sans-Serif" font-size="10.00">cstdio</text>
</g>
<!-- Node6&#45;&gt;Node8 -->
<g id="edge7" class="edge"><title>Node6&#45;&gt;Node8</title>
<path fill="none" stroke="midnightblue" d="M904.253,-56.324C893.703,-48.1849 877.699,-35.8395 865.058,-26.0874"/>
<polygon fill="midnightblue" stroke="midnightblue" points="867.007,-23.1707 856.951,-19.8339 862.731,-28.7132 867.007,-23.1707"/>
</g>
<!-- Node9 -->
<g id="node9" class="node"><title>Node9</title>
<polygon fill="white" stroke="#bfbfbf" points="886,-0.5 886,-19.5 945,-19.5 945,-0.5 886,-0.5"/>
<text text-anchor="middle" x="915.5" y="-7.5" font-family="Helvetica,sans-Serif" font-size="10.00">iostream</text>
</g>
<!-- Node6&#45;&gt;Node9 -->
<g id="edge8" class="edge"><title>Node6&#45;&gt;Node9</title>
<path fill="none" stroke="midnightblue" d="M915.5,-56.083C915.5,-49.0059 915.5,-38.8611 915.5,-29.9865"/>
<polygon fill="midnightblue" stroke="midnightblue" points="919,-29.751 915.5,-19.7511 912,-29.7511 919,-29.751"/>
</g>
<!-- Node10 -->
<g id="node10" class="node"><title>Node10</title>
<polygon fill="white" stroke="#bfbfbf" points="963.5,-0.5 963.5,-19.5 1019.5,-19.5 1019.5,-0.5 963.5,-0.5"/>
<text text-anchor="middle" x="991.5" y="-7.5" font-family="Helvetica,sans-Serif" font-size="10.00">sstream</text>
</g>
<!-- Node6&#45;&gt;Node10 -->
<g id="edge9" class="edge"><title>Node6&#45;&gt;Node10</title>
<path fill="none" stroke="midnightblue" d="M927.711,-56.324C939.276,-48.1066 956.875,-35.6017 970.661,-25.8069"/>
<polygon fill="midnightblue" stroke="midnightblue" points="972.943,-28.4791 979.067,-19.8339 968.888,-22.7729 972.943,-28.4791"/>
</g>
<!-- Node11 -->
<g id="node11" class="node"><title>Node11</title>
<polygon fill="white" stroke="#bfbfbf" points="1037.5,-0.5 1037.5,-19.5 1085.5,-19.5 1085.5,-0.5 1037.5,-0.5"/>
<text text-anchor="middle" x="1061.5" y="-7.5" font-family="Helvetica,sans-Serif" font-size="10.00">thread</text>
</g>
<!-- Node6&#45;&gt;Node11 -->
<g id="edge10" class="edge"><title>Node6&#45;&gt;Node11</title>
<path fill="none" stroke="midnightblue" d="M938.634,-56.4435C962.982,-47.4381 1001.51,-33.1891 1028.92,-23.049"/>
<polygon fill="midnightblue" stroke="midnightblue" points="1030.31,-26.2681 1038.47,-19.5164 1027.88,-19.7028 1030.31,-26.2681"/>
</g>
<!-- Node14&#45;&gt;Node5 -->
<g id="edge14" class="edge"><title>Node14&#45;&gt;Node5</title>
<path fill="none" stroke="midnightblue" d="M646.721,-244.775C725.952,-238.596 841.768,-225.304 877.5,-199 896.389,-185.095 906.473,-159.145 911.403,-141.476"/>
<polygon fill="midnightblue" stroke="midnightblue" points="914.811,-142.277 913.839,-131.727 908.019,-140.58 914.811,-142.277"/>
</g>
<!-- Node15 -->
<g id="node15" class="node"><title>Node15</title>
<polygon fill="white" stroke="#bfbfbf" points="179.5,-174 179.5,-193 247.5,-193 247.5,-174 179.5,-174"/>
<text text-anchor="middle" x="213.5" y="-181" font-family="Helvetica,sans-Serif" font-size="10.00">Eigen/Core</text>
</g>
<!-- Node14&#45;&gt;Node15 -->
<g id="edge15" class="edge"><title>Node14&#45;&gt;Node15</title>
<path fill="none" stroke="midnightblue" d="M494.367,-240.998C430.712,-232.868 336.792,-218.892 256.5,-199 253.109,-198.16 249.603,-197.176 246.122,-196.123"/>
<polygon fill="midnightblue" stroke="midnightblue" points="247.093,-192.759 236.502,-193.035 244.954,-199.424 247.093,-192.759"/>
</g>
<!-- Node16 -->
<g id="node16" class="node"><title>Node16</title>
<polygon fill="white" stroke="#bfbfbf" points="265.5,-174 265.5,-193 359.5,-193 359.5,-174 265.5,-174"/>
<text text-anchor="middle" x="312.5" y="-181" font-family="Helvetica,sans-Serif" font-size="10.00">Eigen/Geometry</text>
</g>
<!-- Node14&#45;&gt;Node16 -->
<g id="edge16" class="edge"><title>Node14&#45;&gt;Node16</title>
<path fill="none" stroke="midnightblue" d="M534.512,-240.984C494.706,-230.996 426.789,-213.905 368.5,-199 364.169,-197.892 359.65,-196.732 355.141,-195.57"/>
<polygon fill="midnightblue" stroke="midnightblue" points="355.918,-192.155 345.36,-193.044 354.168,-198.933 355.918,-192.155"/>
</g>
<!-- Node17 -->
<g id="node17" class="node"><title>Node17</title>
<polygon fill="white" stroke="#bfbfbf" points="377.5,-174 377.5,-193 457.5,-193 457.5,-174 377.5,-174"/>
<text text-anchor="middle" x="417.5" y="-181" font-family="Helvetica,sans-Serif" font-size="10.00">Eigen/Sparse</text>
</g>
<!-- Node14&#45;&gt;Node17 -->
<g id="edge17" class="edge"><title>Node14&#45;&gt;Node17</title>
<path fill="none" stroke="midnightblue" d="M548.448,-240.869C522.501,-229.699 477.079,-210.147 447.143,-197.26"/>
<polygon fill="midnightblue" stroke="midnightblue" points="448.204,-193.906 437.635,-193.167 445.436,-200.336 448.204,-193.906"/>
</g>
<!-- Node18 -->
<g id="node18" class="node"><title>Node18</title>
<polygon fill="white" stroke="#bfbfbf" points="476,-174 476,-193 539,-193 539,-174 476,-174"/>
<text text-anchor="middle" x="507.5" y="-181" font-family="Helvetica,sans-Serif" font-size="10.00">functional</text>
</g>
<!-- Node14&#45;&gt;Node18 -->
<g id="edge18" class="edge"><title>Node14&#45;&gt;Node18</title>
<path fill="none" stroke="midnightblue" d="M560.273,-240.734C550.67,-230.5 534.588,-213.364 522.696,-200.692"/>
<polygon fill="midnightblue" stroke="midnightblue" points="524.992,-198.024 515.596,-193.127 519.887,-202.814 524.992,-198.024"/>
</g>
<!-- Node19 -->
<g id="node19" class="node"><title>Node19</title>
<polygon fill="white" stroke="#bfbfbf" points="557,-168.5 557,-198.5 702,-198.5 702,-168.5 557,-168.5"/>
<text text-anchor="start" x="565" y="-186.5" font-family="Helvetica,sans-Serif" font-size="10.00">unsupported/Eigen/Aligned</text>
<text text-anchor="middle" x="629.5" y="-175.5" font-family="Helvetica,sans-Serif" font-size="10.00">Vector3</text>
</g>
<!-- Node14&#45;&gt;Node19 -->
<g id="edge19" class="edge"><title>Node14&#45;&gt;Node19</title>
<path fill="none" stroke="midnightblue" d="M576.727,-240.734C585.05,-231.865 598.239,-217.811 609.349,-205.972"/>
<polygon fill="midnightblue" stroke="midnightblue" points="611.987,-208.276 616.278,-198.589 606.883,-203.486 611.987,-208.276"/>
</g>
<!-- Node20 -->
<g id="node20" class="node"><title>Node20</title>
<g id="a_node20"><a xlink:href="Math_8hpp.html" target="_top" xlink:title="Core/Math/Math.hpp">
<polygon fill="white" stroke="black" points="47.5,-174 47.5,-193 161.5,-193 161.5,-174 47.5,-174"/>
<text text-anchor="middle" x="104.5" y="-181" font-family="Helvetica,sans-Serif" font-size="10.00">Core/Math/Math.hpp</text>
</a>
</g>
</g>
<!-- Node14&#45;&gt;Node20 -->
<g id="edge20" class="edge"><title>Node14&#45;&gt;Node20</title>
<path fill="none" stroke="midnightblue" d="M490.402,-241.693C409.929,-233.156 280.998,-218.108 170.5,-199 164.128,-197.898 157.439,-196.598 150.866,-195.237"/>
<polygon fill="midnightblue" stroke="midnightblue" points="151.205,-191.731 140.695,-193.067 149.745,-198.577 151.205,-191.731"/>
</g>
<!-- Node24 -->
<g id="node24" class="node"><title>Node24</title>
<g id="a_node24"><a xlink:href="LinearAlgebra_8inl.html" target="_top" xlink:title="Core/Math/LinearAlgebra.inl">
<polygon fill="white" stroke="black" points="720,-174 720,-193 869,-193 869,-174 720,-174"/>
<text text-anchor="middle" x="794.5" y="-181" font-family="Helvetica,sans-Serif" font-size="10.00">Core/Math/LinearAlgebra.inl</text>
</a>
</g>
</g>
<!-- Node14&#45;&gt;Node24 -->
<g id="edge26" class="edge"><title>Node14&#45;&gt;Node24</title>
<path fill="none" stroke="midnightblue" d="M598.511,-240.869C638.809,-229.278 710.489,-208.662 755.094,-195.834"/>
<polygon fill="midnightblue" stroke="midnightblue" points="756.082,-199.191 764.725,-193.064 754.147,-192.464 756.082,-199.191"/>
</g>
<!-- Node20&#45;&gt;Node5 -->
<g id="edge21" class="edge"><title>Node20&#45;&gt;Node5</title>
<path fill="none" stroke="midnightblue" d="M138.572,-173.952C148.78,-171.68 160.042,-169.456 170.5,-168 423.904,-132.73 729.601,-125.097 856.18,-123.45"/>
<polygon fill="midnightblue" stroke="midnightblue" points="856.469,-126.947 866.426,-123.325 856.384,-119.948 856.469,-126.947"/>
</g>
<!-- Node21 -->
<g id="node21" class="node"><title>Node21</title>
<polygon fill="white" stroke="#bfbfbf" points="124.5,-112.5 124.5,-131.5 186.5,-131.5 186.5,-112.5 124.5,-112.5"/>
<text text-anchor="middle" x="155.5" y="-119.5" font-family="Helvetica,sans-Serif" font-size="10.00">algorithm</text>
</g>
<!-- Node20&#45;&gt;Node21 -->
<g id="edge22" class="edge"><title>Node20&#45;&gt;Node21</title>
<path fill="none" stroke="midnightblue" d="M111.807,-173.975C119.533,-164.962 131.908,-150.525 141.518,-139.312"/>
<polygon fill="midnightblue" stroke="midnightblue" points="144.356,-141.379 148.206,-131.509 139.041,-136.824 144.356,-141.379"/>
</g>
<!-- Node22 -->
<g id="node22" class="node"><title>Node22</title>
<polygon fill="white" stroke="#bfbfbf" points="205,-112.5 205,-131.5 252,-131.5 252,-112.5 205,-112.5"/>
<text text-anchor="middle" x="228.5" y="-119.5" font-family="Helvetica,sans-Serif" font-size="10.00">cmath</text>
</g>
<!-- Node20&#45;&gt;Node22 -->
<g id="edge23" class="edge"><title>Node20&#45;&gt;Node22</title>
<path fill="none" stroke="midnightblue" d="M122.266,-173.975C142.984,-164.034 177.452,-147.495 201.489,-135.961"/>
<polygon fill="midnightblue" stroke="midnightblue" points="203.265,-138.991 210.767,-131.509 200.237,-132.68 203.265,-138.991"/>
</g>
<!-- Node23 -->
<g id="node23" class="node"><title>Node23</title>
<g id="a_node23"><a xlink:href="Math_8inl.html" target="_top" xlink:title="Core/Math/Math.inl">
<polygon fill="white" stroke="black" points="0,-112.5 0,-131.5 107,-131.5 107,-112.5 0,-112.5"/>
<text text-anchor="middle" x="53.5" y="-119.5" font-family="Helvetica,sans-Serif" font-size="10.00">Core/Math/Math.inl</text>
</a>
</g>
</g>
<!-- Node20&#45;&gt;Node23 -->
<g id="edge24" class="edge"><title>Node20&#45;&gt;Node23</title>
<path fill="none" stroke="midnightblue" d="M92.2924,-173.975C82.7907,-165.138 70.3271,-151.089 61.8867,-139.975"/>
<polygon fill="midnightblue" stroke="midnightblue" points="64.5296,-137.651 55.8964,-131.509 58.8154,-141.694 64.5296,-137.651"/>
</g>
<!-- Node23&#45;&gt;Node20 -->
<g id="edge25" class="edge"><title>Node23&#45;&gt;Node20</title>
<path fill="none" stroke="midnightblue" d="M65.6906,-131.509C75.1888,-140.34 87.653,-154.388 96.0982,-165.505"/>
<polygon fill="midnightblue" stroke="midnightblue" points="93.4593,-167.835 102.094,-173.975 99.1728,-163.791 93.4593,-167.835"/>
</g>
<!-- Node25&#45;&gt;Node2 -->
<g id="edge30" class="edge"><title>Node25&#45;&gt;Node2</title>
<path fill="none" stroke="midnightblue" d="M858.137,-332.577C865.065,-340.833 872.849,-351.459 878.948,-360.867"/>
<polygon fill="midnightblue" stroke="midnightblue" points="875.975,-362.714 884.197,-369.396 881.937,-359.045 875.975,-362.714"/>
</g>
<!-- Node26&#45;&gt;Node4 -->
<g id="edge32" class="edge"><title>Node26&#45;&gt;Node4</title>
<path fill="none" stroke="midnightblue" d="M1147.51,-369.374C1127.98,-346.349 1089.14,-300.572 1066.03,-273.336"/>
<polygon fill="midnightblue" stroke="midnightblue" points="1068.54,-270.885 1059.4,-265.525 1063.2,-275.414 1068.54,-270.885"/>
</g>
<!-- Node27 -->
<g id="node27" class="node"><title>Node27</title>
<g id="a_node27"><a xlink:href="AdjacencyList_8inl.html" target="_top" xlink:title="Core/Utils/Graph/Adjacency\lList.inl">
<polygon fill="white" stroke="black" points="1137,-302.5 1137,-332.5 1284,-332.5 1284,-302.5 1137,-302.5"/>
<text text-anchor="start" x="1145" y="-320.5" font-family="Helvetica,sans-Serif" font-size="10.00">Core/Utils/Graph/Adjacency</text>
<text text-anchor="middle" x="1210.5" y="-309.5" font-family="Helvetica,sans-Serif" font-size="10.00">List.inl</text>
</a>
</g>
</g>
<!-- Node26&#45;&gt;Node27 -->
<g id="edge33" class="edge"><title>Node26&#45;&gt;Node27</title>
<path fill="none" stroke="midnightblue" d="M1164.89,-369.396C1170.45,-360.878 1178.87,-349.847 1187.04,-340.233"/>
<polygon fill="midnightblue" stroke="midnightblue" points="1189.8,-342.395 1193.78,-332.577 1184.55,-337.769 1189.8,-342.395"/>
</g>
<!-- Node27&#45;&gt;Node26 -->
<g id="edge34" class="edge"><title>Node27&#45;&gt;Node26</title>
<path fill="none" stroke="midnightblue" d="M1205.13,-332.577C1199.57,-341.089 1191.16,-352.119 1182.99,-361.736"/>
<polygon fill="midnightblue" stroke="midnightblue" points="1180.23,-359.577 1176.24,-369.396 1185.48,-364.203 1180.23,-359.577"/>
</g>
<!-- Node28 -->
<g id="node28" class="node"><title>Node28</title>
<polygon fill="white" stroke="#bfbfbf" points="1194.5,-241 1194.5,-260 1226.5,-260 1226.5,-241 1194.5,-241"/>
<text text-anchor="middle" x="1210.5" y="-248" font-family="Helvetica,sans-Serif" font-size="10.00">set</text>
</g>
<!-- Node27&#45;&gt;Node28 -->
<g id="edge35" class="edge"><title>Node27&#45;&gt;Node28</title>
<path fill="none" stroke="midnightblue" d="M1210.5,-302.396C1210.5,-293.064 1210.5,-280.714 1210.5,-270.517"/>
<polygon fill="midnightblue" stroke="midnightblue" points="1214,-270.195 1210.5,-260.195 1207,-270.195 1214,-270.195"/>
</g>
</g>
</svg>
