<?xml version="1.0" encoding="UTF-8" standalone="no"?>
<!DOCTYPE svg PUBLIC "-//W3C//DTD SVG 1.1//EN"
 "http://www.w3.org/Graphics/SVG/1.1/DTD/svg11.dtd">
<!-- Generated by graphviz version 2.38.0 (20140413.2041)
 -->
<!-- Title: /home/travis/build/STORM&#45;IRIT/Radium&#45;Engine/src/Core/Animation/Handle/Skeleton.hpp Pages: 1 -->
<svg width="1216pt" height="406pt"
 viewBox="0.00 0.00 1215.50 406.00" xmlns="http://www.w3.org/2000/svg" xmlns:xlink="http://www.w3.org/1999/xlink">
<g id="graph0" class="graph" transform="scale(1 1) rotate(0) translate(4 402)">
<title>/home/travis/build/STORM&#45;IRIT/Radium&#45;Engine/src/Core/Animation/Handle/Skeleton.hpp</title>
<polygon fill="white" stroke="none" points="-4,4 -4,-402 1211.5,-402 1211.5,4 -4,4"/>
<!-- Node1 -->
<g id="node1" class="node"><title>Node1</title>
<polygon fill="#bfbfbf" stroke="black" points="534.5,-345.5 534.5,-397.5 682.5,-397.5 682.5,-345.5 534.5,-345.5"/>
<text text-anchor="start" x="542.5" y="-385.5" font-family="Helvetica,sans-Serif" font-size="10.00">/home/travis/build</text>
<text text-anchor="start" x="542.5" y="-374.5" font-family="Helvetica,sans-Serif" font-size="10.00">/STORM&#45;IRIT/Radium&#45;Engine</text>
<text text-anchor="start" x="542.5" y="-363.5" font-family="Helvetica,sans-Serif" font-size="10.00">/src/Core/Animation/Handle</text>
<text text-anchor="middle" x="608.5" y="-352.5" font-family="Helvetica,sans-Serif" font-size="10.00">/Skeleton.hpp</text>
</g>
<!-- Node2 -->
<g id="node2" class="node"><title>Node2</title>
<g id="a_node2"><a xlink:href="Skeleton_8cpp.html" target="_top" xlink:title="/home/travis/build\l/STORM&#45;IRIT/Radium&#45;Engine\l/src/Core/Animation/Handle\l/Skeleton.cpp">
<polygon fill="white" stroke="black" points="175.5,-256.5 175.5,-308.5 323.5,-308.5 323.5,-256.5 175.5,-256.5"/>
<text text-anchor="start" x="183.5" y="-296.5" font-family="Helvetica,sans-Serif" font-size="10.00">/home/travis/build</text>
<text text-anchor="start" x="183.5" y="-285.5" font-family="Helvetica,sans-Serif" font-size="10.00">/STORM&#45;IRIT/Radium&#45;Engine</text>
<text text-anchor="start" x="183.5" y="-274.5" font-family="Helvetica,sans-Serif" font-size="10.00">/src/Core/Animation/Handle</text>
<text text-anchor="middle" x="249.5" y="-263.5" font-family="Helvetica,sans-Serif" font-size="10.00">/Skeleton.cpp</text>
</a>
</g>
</g>
<!-- Node1&#45;&gt;Node2 -->
<g id="edge1" class="edge"><title>Node1&#45;&gt;Node2</title>
<path fill="none" stroke="midnightblue" d="M524.286,-353.534C469.408,-342.037 396.389,-325.904 332.5,-309 329.585,-308.229 326.62,-307.423 323.628,-306.591"/>
<polygon fill="midnightblue" stroke="midnightblue" points="523.812,-357.011 534.316,-355.626 525.241,-350.158 523.812,-357.011"/>
</g>
<!-- Node3 -->
<g id="node3" class="node"><title>Node3</title>
<g id="a_node3"><a xlink:href="SkinningData_8hpp.html" target="_top" xlink:title="/home/travis/build\l/STORM&#45;IRIT/Radium&#45;Engine\l/src/Core/Animation/Skinning\l/SkinningData.hpp">
<polygon fill="white" stroke="black" points="342,-256.5 342,-308.5 497,-308.5 497,-256.5 342,-256.5"/>
<text text-anchor="start" x="350" y="-296.5" font-family="Helvetica,sans-Serif" font-size="10.00">/home/travis/build</text>
<text text-anchor="start" x="350" y="-285.5" font-family="Helvetica,sans-Serif" font-size="10.00">/STORM&#45;IRIT/Radium&#45;Engine</text>
<text text-anchor="start" x="350" y="-274.5" font-family="Helvetica,sans-Serif" font-size="10.00">/src/Core/Animation/Skinning</text>
<text text-anchor="middle" x="419.5" y="-263.5" font-family="Helvetica,sans-Serif" font-size="10.00">/SkinningData.hpp</text>
</a>
</g>
</g>
<!-- Node1&#45;&gt;Node3 -->
<g id="edge2" class="edge"><title>Node1&#45;&gt;Node3</title>
<path fill="none" stroke="midnightblue" d="M544.747,-341.153C521.734,-330.56 495.99,-318.71 473.856,-308.521"/>
<polygon fill="midnightblue" stroke="midnightblue" points="543.54,-344.451 554.087,-345.453 546.467,-338.092 543.54,-344.451"/>
</g>
<!-- Node11 -->
<g id="node11" class="node"><title>Node11</title>
<g id="a_node11"><a xlink:href="HandleToSkeleton_8cpp.html" target="_top" xlink:title="/home/travis/build\l/STORM&#45;IRIT/Radium&#45;Engine\l/src/Core/File/HandleToSkeleton.cpp">
<polygon fill="white" stroke="black" points="515.5,-262 515.5,-303 701.5,-303 701.5,-262 515.5,-262"/>
<text text-anchor="start" x="523.5" y="-291" font-family="Helvetica,sans-Serif" font-size="10.00">/home/travis/build</text>
<text text-anchor="start" x="523.5" y="-280" font-family="Helvetica,sans-Serif" font-size="10.00">/STORM&#45;IRIT/Radium&#45;Engine</text>
<text text-anchor="middle" x="608.5" y="-269" font-family="Helvetica,sans-Serif" font-size="10.00">/src/Core/File/HandleToSkeleton.cpp</text>
</a>
</g>
</g>
<!-- Node1&#45;&gt;Node11 -->
<g id="edge12" class="edge"><title>Node1&#45;&gt;Node11</title>
<path fill="none" stroke="midnightblue" d="M608.5,-335.155C608.5,-324.21 608.5,-312.549 608.5,-303.082"/>
<polygon fill="midnightblue" stroke="midnightblue" points="605,-335.336 608.5,-345.336 612,-335.336 605,-335.336"/>
</g>
<!-- Node12 -->
<g id="node12" class="node"><title>Node12</title>
<g id="a_node12"><a xlink:href="AnimationComponent_8hpp.html" target="_top" xlink:title="/home/travis/build\l/STORM&#45;IRIT/Radium&#45;Engine\l/Plugins/Animation/src/Animation\lComponent.hpp">
<polygon fill="white" stroke="black" points="719.5,-256.5 719.5,-308.5 893.5,-308.5 893.5,-256.5 719.5,-256.5"/>
<text text-anchor="start" x="727.5" y="-296.5" font-family="Helvetica,sans-Serif" font-size="10.00">/home/travis/build</text>
<text text-anchor="start" x="727.5" y="-285.5" font-family="Helvetica,sans-Serif" font-size="10.00">/STORM&#45;IRIT/Radium&#45;Engine</text>
<text text-anchor="start" x="727.5" y="-274.5" font-family="Helvetica,sans-Serif" font-size="10.00">/Plugins/Animation/src/Animation</text>
<text text-anchor="middle" x="806.5" y="-263.5" font-family="Helvetica,sans-Serif" font-size="10.00">Component.hpp</text>
</a>
</g>
</g>
<!-- Node1&#45;&gt;Node12 -->
<g id="edge13" class="edge"><title>Node1&#45;&gt;Node12</title>
<path fill="none" stroke="midnightblue" d="M674.968,-341.295C699.158,-330.665 726.264,-318.755 749.555,-308.521"/>
<polygon fill="midnightblue" stroke="midnightblue" points="673.251,-338.226 665.504,-345.453 676.067,-344.634 673.251,-338.226"/>
</g>
<!-- Node15 -->
<g id="node15" class="node"><title>Node15</title>
<g id="a_node15"><a xlink:href="SkeletonBoneDrawable_8hpp.html" target="_top" xlink:title="/home/travis/build\l/STORM&#45;IRIT/Radium&#45;Engine\l/Plugins/Animation/src/Drawing\l/SkeletonBoneDrawable.hpp">
<polygon fill="white" stroke="black" points="839.5,-167.5 839.5,-219.5 1003.5,-219.5 1003.5,-167.5 839.5,-167.5"/>
<text text-anchor="start" x="847.5" y="-207.5" font-family="Helvetica,sans-Serif" font-size="10.00">/home/travis/build</text>
<text text-anchor="start" x="847.5" y="-196.5" font-family="Helvetica,sans-Serif" font-size="10.00">/STORM&#45;IRIT/Radium&#45;Engine</text>
<text text-anchor="start" x="847.5" y="-185.5" font-family="Helvetica,sans-Serif" font-size="10.00">/Plugins/Animation/src/Drawing</text>
<text text-anchor="middle" x="921.5" y="-174.5" font-family="Helvetica,sans-Serif" font-size="10.00">/SkeletonBoneDrawable.hpp</text>
</a>
</g>
</g>
<!-- Node1&#45;&gt;Node15 -->
<g id="edge20" class="edge"><title>Node1&#45;&gt;Node15</title>
<path fill="none" stroke="midnightblue" d="M692.708,-363.382C769.116,-355.121 874.044,-338.67 902.5,-309 925.095,-285.441 926.702,-245.847 924.836,-219.947"/>
<polygon fill="midnightblue" stroke="midnightblue" points="692.178,-359.919 682.599,-364.446 692.91,-366.88 692.178,-359.919"/>
</g>
<!-- Node4 -->
<g id="node4" class="node"><title>Node4</title>
<g id="a_node4"><a xlink:href="RotationCenterSkinning_8hpp.html" target="_top" xlink:title="/home/travis/build\l/STORM&#45;IRIT/Radium&#45;Engine\l/src/Core/Animation/Skinning\l/RotationCenterSkinning.hpp">
<polygon fill="white" stroke="black" points="75,-167.5 75,-219.5 230,-219.5 230,-167.5 75,-167.5"/>
<text text-anchor="start" x="83" y="-207.5" font-family="Helvetica,sans-Serif" font-size="10.00">/home/travis/build</text>
<text text-anchor="start" x="83" y="-196.5" font-family="Helvetica,sans-Serif" font-size="10.00">/STORM&#45;IRIT/Radium&#45;Engine</text>
<text text-anchor="start" x="83" y="-185.5" font-family="Helvetica,sans-Serif" font-size="10.00">/src/Core/Animation/Skinning</text>
<text text-anchor="middle" x="152.5" y="-174.5" font-family="Helvetica,sans-Serif" font-size="10.00">/RotationCenterSkinning.hpp</text>
</a>
</g>
</g>
<!-- Node3&#45;&gt;Node4 -->
<g id="edge3" class="edge"><title>Node3&#45;&gt;Node4</title>
<path fill="none" stroke="midnightblue" d="M332.889,-253.278C299.518,-242.405 261.67,-230.072 229.289,-219.521"/>
<polygon fill="midnightblue" stroke="midnightblue" points="332.038,-256.682 342.631,-256.453 334.207,-250.027 332.038,-256.682"/>
</g>
<!-- Node7 -->
<g id="node7" class="node"><title>Node7</title>
<g id="a_node7"><a xlink:href="SkinningDisplayComponent_8hpp.html" target="_top" xlink:title="/home/travis/build\l/STORM&#45;IRIT/Radium&#45;Engine\l/Plugins/Skinning/src/Display\l/SkinningDisplayComponent.hpp">
<polygon fill="white" stroke="black" points="501.5,-167.5 501.5,-219.5 673.5,-219.5 673.5,-167.5 501.5,-167.5"/>
<text text-anchor="start" x="509.5" y="-207.5" font-family="Helvetica,sans-Serif" font-size="10.00">/home/travis/build</text>
<text text-anchor="start" x="509.5" y="-196.5" font-family="Helvetica,sans-Serif" font-size="10.00">/STORM&#45;IRIT/Radium&#45;Engine</text>
<text text-anchor="start" x="509.5" y="-185.5" font-family="Helvetica,sans-Serif" font-size="10.00">/Plugins/Skinning/src/Display</text>
<text text-anchor="middle" x="587.5" y="-174.5" font-family="Helvetica,sans-Serif" font-size="10.00">/SkinningDisplayComponent.hpp</text>
</a>
</g>
</g>
<!-- Node3&#45;&gt;Node7 -->
<g id="edge6" class="edge"><title>Node3&#45;&gt;Node7</title>
<path fill="none" stroke="midnightblue" d="M477.17,-251.635C497.311,-241.205 519.7,-229.611 539.017,-219.607"/>
<polygon fill="midnightblue" stroke="midnightblue" points="475.363,-248.629 468.093,-256.336 478.582,-254.845 475.363,-248.629"/>
</g>
<!-- Node10 -->
<g id="node10" class="node"><title>Node10</title>
<g id="a_node10"><a xlink:href="SkinningComponent_8hpp.html" target="_top" xlink:title="/home/travis/build\l/STORM&#45;IRIT/Radium&#45;Engine\l/Plugins/Skinning/src/SkinningComponent.hpp">
<polygon fill="white" stroke="black" points="248,-173 248,-214 483,-214 483,-173 248,-173"/>
<text text-anchor="start" x="256" y="-202" font-family="Helvetica,sans-Serif" font-size="10.00">/home/travis/build</text>
<text text-anchor="start" x="256" y="-191" font-family="Helvetica,sans-Serif" font-size="10.00">/STORM&#45;IRIT/Radium&#45;Engine</text>
<text text-anchor="middle" x="365.5" y="-180" font-family="Helvetica,sans-Serif" font-size="10.00">/Plugins/Skinning/src/SkinningComponent.hpp</text>
</a>
</g>
</g>
<!-- Node3&#45;&gt;Node10 -->
<g id="edge9" class="edge"><title>Node3&#45;&gt;Node10</title>
<path fill="none" stroke="midnightblue" d="M398.4,-247.506C391.367,-236.175 383.773,-223.94 377.654,-214.082"/>
<polygon fill="midnightblue" stroke="midnightblue" points="395.634,-249.685 403.881,-256.336 401.581,-245.994 395.634,-249.685"/>
</g>
<!-- Node5 -->
<g id="node5" class="node"><title>Node5</title>
<g id="a_node5"><a xlink:href="RotationCenterSkinning_8cpp.html" target="_top" xlink:title="/home/travis/build\l/STORM&#45;IRIT/Radium&#45;Engine\l/src/Core/Animation/Skinning\l/RotationCenterSkinning.cpp">
<polygon fill="white" stroke="black" points="0,-78.5 0,-130.5 155,-130.5 155,-78.5 0,-78.5"/>
<text text-anchor="start" x="8" y="-118.5" font-family="Helvetica,sans-Serif" font-size="10.00">/home/travis/build</text>
<text text-anchor="start" x="8" y="-107.5" font-family="Helvetica,sans-Serif" font-size="10.00">/STORM&#45;IRIT/Radium&#45;Engine</text>
<text text-anchor="start" x="8" y="-96.5" font-family="Helvetica,sans-Serif" font-size="10.00">/src/Core/Animation/Skinning</text>
<text text-anchor="middle" x="77.5" y="-85.5" font-family="Helvetica,sans-Serif" font-size="10.00">/RotationCenterSkinning.cpp</text>
</a>
</g>
</g>
<!-- Node4&#45;&gt;Node5 -->
<g id="edge4" class="edge"><title>Node4&#45;&gt;Node5</title>
<path fill="none" stroke="midnightblue" d="M124.054,-159.503C115.795,-149.923 106.913,-139.62 99.1444,-130.607"/>
<polygon fill="midnightblue" stroke="midnightblue" points="121.627,-162.047 130.807,-167.336 126.928,-157.477 121.627,-162.047"/>
</g>
<!-- Node6 -->
<g id="node6" class="node"><title>Node6</title>
<g id="a_node6"><a xlink:href="SkinningComponent_8cpp.html" target="_top" xlink:title="/home/travis/build\l/STORM&#45;IRIT/Radium&#45;Engine\l/Plugins/Skinning/src/SkinningComponent.cpp">
<polygon fill="white" stroke="black" points="173.5,-84 173.5,-125 407.5,-125 407.5,-84 173.5,-84"/>
<text text-anchor="start" x="181.5" y="-113" font-family="Helvetica,sans-Serif" font-size="10.00">/home/travis/build</text>
<text text-anchor="start" x="181.5" y="-102" font-family="Helvetica,sans-Serif" font-size="10.00">/STORM&#45;IRIT/Radium&#45;Engine</text>
<text text-anchor="middle" x="290.5" y="-91" font-family="Helvetica,sans-Serif" font-size="10.00">/Plugins/Skinning/src/SkinningComponent.cpp</text>
</a>
</g>
</g>
<!-- Node4&#45;&gt;Node6 -->
<g id="edge5" class="edge"><title>Node4&#45;&gt;Node6</title>
<path fill="none" stroke="midnightblue" d="M201.131,-161.841C220.515,-149.621 242.255,-135.916 259.439,-125.082"/>
<polygon fill="midnightblue" stroke="midnightblue" points="199.008,-159.042 192.415,-167.336 202.741,-164.964 199.008,-159.042"/>
</g>
<!-- Node8 -->
<g id="node8" class="node"><title>Node8</title>
<g id="a_node8"><a xlink:href="SkinningSystem_8hpp.html" target="_top" xlink:title="/home/travis/build\l/STORM&#45;IRIT/Radium&#45;Engine\l/Plugins/Skinning/src/SkinningSystem.hpp">
<polygon fill="white" stroke="black" points="426,-84 426,-125 641,-125 641,-84 426,-84"/>
<text text-anchor="start" x="434" y="-113" font-family="Helvetica,sans-Serif" font-size="10.00">/home/travis/build</text>
<text text-anchor="start" x="434" y="-102" font-family="Helvetica,sans-Serif" font-size="10.00">/STORM&#45;IRIT/Radium&#45;Engine</text>
<text text-anchor="middle" x="533.5" y="-91" font-family="Helvetica,sans-Serif" font-size="10.00">/Plugins/Skinning/src/SkinningSystem.hpp</text>
</a>
</g>
</g>
<!-- Node7&#45;&gt;Node8 -->
<g id="edge7" class="edge"><title>Node7&#45;&gt;Node8</title>
<path fill="none" stroke="midnightblue" d="M566.4,-158.506C559.367,-147.175 551.773,-134.94 545.654,-125.082"/>
<polygon fill="midnightblue" stroke="midnightblue" points="563.634,-160.685 571.881,-167.336 569.581,-156.994 563.634,-160.685"/>
</g>
<!-- Node9 -->
<g id="node9" class="node"><title>Node9</title>
<g id="a_node9"><a xlink:href="SkinningPlugin_8cpp.html" target="_top" xlink:title="/home/travis/build\l/STORM&#45;IRIT/Radium&#45;Engine\l/Plugins/Skinning/src/SkinningPlugin.cpp">
<polygon fill="white" stroke="black" points="430.5,-0.5 430.5,-41.5 636.5,-41.5 636.5,-0.5 430.5,-0.5"/>
<text text-anchor="start" x="438.5" y="-29.5" font-family="Helvetica,sans-Serif" font-size="10.00">/home/travis/build</text>
<text text-anchor="start" x="438.5" y="-18.5" font-family="Helvetica,sans-Serif" font-size="10.00">/STORM&#45;IRIT/Radium&#45;Engine</text>
<text text-anchor="middle" x="533.5" y="-7.5" font-family="Helvetica,sans-Serif" font-size="10.00">/Plugins/Skinning/src/SkinningPlugin.cpp</text>
</a>
</g>
</g>
<!-- Node8&#45;&gt;Node9 -->
<g id="edge8" class="edge"><title>Node8&#45;&gt;Node9</title>
<path fill="none" stroke="midnightblue" d="M533.5,-73.5646C533.5,-62.8819 533.5,-51.1303 533.5,-41.5472"/>
<polygon fill="midnightblue" stroke="midnightblue" points="530,-73.7711 533.5,-83.7711 537,-73.7712 530,-73.7711"/>
</g>
<!-- Node10&#45;&gt;Node6 -->
<g id="edge10" class="edge"><title>Node10&#45;&gt;Node6</title>
<path fill="none" stroke="midnightblue" d="M341.821,-165.033C330.661,-152.087 317.603,-136.94 307.451,-125.164"/>
<polygon fill="midnightblue" stroke="midnightblue" points="339.301,-167.47 348.481,-172.758 344.603,-162.899 339.301,-167.47"/>
</g>
<!-- Node10&#45;&gt;Node8 -->
<g id="edge11" class="edge"><title>Node10&#45;&gt;Node8</title>
<path fill="none" stroke="midnightblue" d="M412.227,-168.302C438.524,-154.684 470.935,-137.9 495.633,-125.11"/>
<polygon fill="midnightblue" stroke="midnightblue" points="410.473,-165.269 403.202,-172.976 413.692,-171.485 410.473,-165.269"/>
</g>
<!-- Node13 -->
<g id="node13" class="node"><title>Node13</title>
<g id="a_node13"><a xlink:href="AnimationComponent_8cpp.html" target="_top" xlink:title="/home/travis/build\l/STORM&#45;IRIT/Radium&#45;Engine\l/Plugins/Animation/src/Animation\lComponent.cpp">
<polygon fill="white" stroke="black" points="659.5,-78.5 659.5,-130.5 833.5,-130.5 833.5,-78.5 659.5,-78.5"/>
<text text-anchor="start" x="667.5" y="-118.5" font-family="Helvetica,sans-Serif" font-size="10.00">/home/travis/build</text>
<text text-anchor="start" x="667.5" y="-107.5" font-family="Helvetica,sans-Serif" font-size="10.00">/STORM&#45;IRIT/Radium&#45;Engine</text>
<text text-anchor="start" x="667.5" y="-96.5" font-family="Helvetica,sans-Serif" font-size="10.00">/Plugins/Animation/src/Animation</text>
<text text-anchor="middle" x="746.5" y="-85.5" font-family="Helvetica,sans-Serif" font-size="10.00">Component.cpp</text>
</a>
</g>
</g>
<!-- Node12&#45;&gt;Node13 -->
<g id="edge14" class="edge"><title>Node12&#45;&gt;Node13</title>
<path fill="none" stroke="midnightblue" d="M794.633,-246.69C782.97,-212.478 765.455,-161.1 755.081,-130.67"/>
<polygon fill="midnightblue" stroke="midnightblue" points="791.364,-247.948 797.903,-256.283 797.989,-245.689 791.364,-247.948"/>
</g>
<!-- Node14 -->
<g id="node14" class="node"><title>Node14</title>
<g id="a_node14"><a xlink:href="AnimationSystem_8cpp.html" target="_top" xlink:title="/home/travis/build\l/STORM&#45;IRIT/Radium&#45;Engine\l/Plugins/Animation/src/Animation\lSystem.cpp">
<polygon fill="white" stroke="black" points="851.5,-78.5 851.5,-130.5 1025.5,-130.5 1025.5,-78.5 851.5,-78.5"/>
<text text-anchor="start" x="859.5" y="-118.5" font-family="Helvetica,sans-Serif" font-size="10.00">/home/travis/build</text>
<text text-anchor="start" x="859.5" y="-107.5" font-family="Helvetica,sans-Serif" font-size="10.00">/STORM&#45;IRIT/Radium&#45;Engine</text>
<text text-anchor="start" x="859.5" y="-96.5" font-family="Helvetica,sans-Serif" font-size="10.00">/Plugins/Animation/src/Animation</text>
<text text-anchor="middle" x="938.5" y="-85.5" font-family="Helvetica,sans-Serif" font-size="10.00">System.cpp</text>
</a>
</g>
</g>
<!-- Node12&#45;&gt;Node14 -->
<g id="edge15" class="edge"><title>Node12&#45;&gt;Node14</title>
<path fill="none" stroke="midnightblue" d="M806.523,-246.104C808.193,-221.781 813.825,-189.875 830.5,-167 841.621,-151.743 857.757,-139.731 874.18,-130.528"/>
<polygon fill="midnightblue" stroke="midnightblue" points="803.014,-246.19 806.018,-256.35 810.006,-246.534 803.014,-246.19"/>
</g>
<!-- Node12&#45;&gt;Node15 -->
<g id="edge16" class="edge"><title>Node12&#45;&gt;Node15</title>
<path fill="none" stroke="midnightblue" d="M847.848,-250.219C861.14,-240.164 875.685,-229.16 888.312,-219.607"/>
<polygon fill="midnightblue" stroke="midnightblue" points="845.626,-247.511 839.763,-256.336 849.849,-253.094 845.626,-247.511"/>
</g>
<!-- Node15&#45;&gt;Node13 -->
<g id="edge17" class="edge"><title>Node15&#45;&gt;Node13</title>
<path fill="none" stroke="midnightblue" d="M861.711,-162.776C840.657,-152.309 817.216,-140.656 797.003,-130.607"/>
<polygon fill="midnightblue" stroke="midnightblue" points="860.37,-166.018 870.883,-167.336 863.486,-159.75 860.37,-166.018"/>
</g>
<!-- Node15&#45;&gt;Node14 -->
<g id="edge18" class="edge"><title>Node15&#45;&gt;Node14</title>
<path fill="none" stroke="midnightblue" d="M928.343,-157.481C930.1,-148.487 931.956,-138.989 933.594,-130.607"/>
<polygon fill="midnightblue" stroke="midnightblue" points="924.9,-156.85 926.417,-167.336 931.77,-158.193 924.9,-156.85"/>
</g>
<!-- Node16 -->
<g id="node16" class="node"><title>Node16</title>
<g id="a_node16"><a xlink:href="SkeletonBoneDrawable_8cpp.html" target="_top" xlink:title="/home/travis/build\l/STORM&#45;IRIT/Radium&#45;Engine\l/Plugins/Animation/src/Drawing\l/SkeletonBoneDrawable.cpp">
<polygon fill="white" stroke="black" points="1043.5,-78.5 1043.5,-130.5 1207.5,-130.5 1207.5,-78.5 1043.5,-78.5"/>
<text text-anchor="start" x="1051.5" y="-118.5" font-family="Helvetica,sans-Serif" font-size="10.00">/home/travis/build</text>
<text text-anchor="start" x="1051.5" y="-107.5" font-family="Helvetica,sans-Serif" font-size="10.00">/STORM&#45;IRIT/Radium&#45;Engine</text>
<text text-anchor="start" x="1051.5" y="-96.5" font-family="Helvetica,sans-Serif" font-size="10.00">/Plugins/Animation/src/Drawing</text>
<text text-anchor="middle" x="1125.5" y="-85.5" font-family="Helvetica,sans-Serif" font-size="10.00">/SkeletonBoneDrawable.cpp</text>
</a>
</g>
</g>
<!-- Node15&#45;&gt;Node16 -->
<g id="edge19" class="edge"><title>Node15&#45;&gt;Node16</title>
<path fill="none" stroke="midnightblue" d="M989.651,-163.436C1014.66,-152.771 1042.73,-140.8 1066.83,-130.521"/>
<polygon fill="midnightblue" stroke="midnightblue" points="988.057,-160.31 980.232,-167.453 990.803,-166.749 988.057,-160.31"/>
</g>
</g>
</svg>
