<?xml version="1.0" encoding="UTF-8" standalone="no"?>
<!DOCTYPE svg PUBLIC "-//W3C//DTD SVG 1.1//EN"
 "http://www.w3.org/Graphics/SVG/1.1/DTD/svg11.dtd">
<!-- Generated by graphviz version 2.38.0 (20140413.2041)
 -->
<!-- Title: /home/travis/build/STORM&#45;IRIT/Radium&#45;Engine/src/Engine/Renderer/Light/SpotLight.hpp Pages: 1 -->
<svg width="1135pt" height="542pt"
 viewBox="0.00 0.00 1135.19 542.00" xmlns="http://www.w3.org/2000/svg" xmlns:xlink="http://www.w3.org/1999/xlink">
<g id="graph0" class="graph" transform="scale(1 1) rotate(0) translate(4 538)">
<title>/home/travis/build/STORM&#45;IRIT/Radium&#45;Engine/src/Engine/Renderer/Light/SpotLight.hpp</title>
<polygon fill="white" stroke="none" points="-4,4 -4,-538 1131.19,-538 1131.19,4 -4,4"/>
<!-- Node1 -->
<g id="node1" class="node"><title>Node1</title>
<polygon fill="#bfbfbf" stroke="black" points="351.854,-481.5 351.854,-533.5 499.854,-533.5 499.854,-481.5 351.854,-481.5"/>
<text text-anchor="start" x="359.854" y="-521.5" font-family="Helvetica,sans-Serif" font-size="10.00">/home/travis/build</text>
<text text-anchor="start" x="359.854" y="-510.5" font-family="Helvetica,sans-Serif" font-size="10.00">/STORM&#45;IRIT/Radium&#45;Engine</text>
<text text-anchor="start" x="359.854" y="-499.5" font-family="Helvetica,sans-Serif" font-size="10.00">/src/Engine/Renderer/Light</text>
<text text-anchor="middle" x="425.854" y="-488.5" font-family="Helvetica,sans-Serif" font-size="10.00">/SpotLight.hpp</text>
</g>
<!-- Node2 -->
<g id="node2" class="node"><title>Node2</title>
<g id="a_node2"><a xlink:href="RaEngine_8hpp.html" target="_top" xlink:title="Engine/RaEngine.hpp">
<polygon fill="white" stroke="black" points="259.354,-291.5 259.354,-310.5 376.354,-310.5 376.354,-291.5 259.354,-291.5"/>
<text text-anchor="middle" x="317.854" y="-298.5" font-family="Helvetica,sans-Serif" font-size="10.00">Engine/RaEngine.hpp</text>
</a>
</g>
</g>
<!-- Node1&#45;&gt;Node2 -->
<g id="edge1" class="edge"><title>Node1&#45;&gt;Node2</title>
<path fill="none" stroke="midnightblue" d="M390.207,-481.458C377.905,-471.329 364.946,-458.769 355.854,-445 329.986,-405.827 321.686,-349.713 319.053,-320.805"/>
<polygon fill="midnightblue" stroke="midnightblue" points="322.543,-320.532 318.277,-310.834 315.564,-321.076 322.543,-320.532"/>
</g>
<!-- Node9 -->
<g id="node9" class="node"><title>Node9</title>
<g id="a_node9"><a xlink:href="Light_8hpp.html" target="_top" xlink:title="Engine/Renderer/Light\l/Light.hpp">
<polygon fill="white" stroke="black" points="365.354,-414.5 365.354,-444.5 486.354,-444.5 486.354,-414.5 365.354,-414.5"/>
<text text-anchor="start" x="373.354" y="-432.5" font-family="Helvetica,sans-Serif" font-size="10.00">Engine/Renderer/Light</text>
<text text-anchor="middle" x="425.854" y="-421.5" font-family="Helvetica,sans-Serif" font-size="10.00">/Light.hpp</text>
</a>
</g>
</g>
<!-- Node1&#45;&gt;Node9 -->
<g id="edge8" class="edge"><title>Node1&#45;&gt;Node9</title>
<path fill="none" stroke="midnightblue" d="M425.854,-481.193C425.854,-472.786 425.854,-463.443 425.854,-455.091"/>
<polygon fill="midnightblue" stroke="midnightblue" points="429.354,-454.845 425.854,-444.845 422.354,-454.845 429.354,-454.845"/>
</g>
<!-- Node30 -->
<g id="node30" class="node"><title>Node30</title>
<g id="a_node30"><a xlink:href="SpotLight_8inl.html" target="_top" xlink:title="Engine/Renderer/Light\l/SpotLight.inl">
<polygon fill="white" stroke="black" points="504.354,-414.5 504.354,-444.5 625.354,-444.5 625.354,-414.5 504.354,-414.5"/>
<text text-anchor="start" x="512.354" y="-432.5" font-family="Helvetica,sans-Serif" font-size="10.00">Engine/Renderer/Light</text>
<text text-anchor="middle" x="564.854" y="-421.5" font-family="Helvetica,sans-Serif" font-size="10.00">/SpotLight.inl</text>
</a>
</g>
</g>
<!-- Node1&#45;&gt;Node30 -->
<g id="edge40" class="edge"><title>Node1&#45;&gt;Node30</title>
<path fill="none" stroke="midnightblue" d="M471.753,-481.404C490.742,-471.021 512.399,-459.18 530.044,-449.532"/>
<polygon fill="midnightblue" stroke="midnightblue" points="531.776,-452.575 538.871,-444.707 528.417,-446.433 531.776,-452.575"/>
</g>
<!-- Node3 -->
<g id="node3" class="node"><title>Node3</title>
<g id="a_node3"><a xlink:href="CoreMacros_8hpp.html" target="_top" xlink:title="Core/CoreMacros.hpp">
<polygon fill="white" stroke="black" points="315.854,-56.5 315.854,-75.5 435.854,-75.5 435.854,-56.5 315.854,-56.5"/>
<text text-anchor="middle" x="375.854" y="-63.5" font-family="Helvetica,sans-Serif" font-size="10.00">Core/CoreMacros.hpp</text>
</a>
</g>
</g>
<!-- Node2&#45;&gt;Node3 -->
<g id="edge2" class="edge"><title>Node2&#45;&gt;Node3</title>
<path fill="none" stroke="midnightblue" d="M259.075,-297.022C154.151,-289.299 -49.0612,-262.078 10.8536,-168 42.4922,-118.321 208.616,-88.7093 305.493,-75.4087"/>
<polygon fill="midnightblue" stroke="midnightblue" points="306.066,-78.8631 315.508,-74.0577 305.13,-71.9259 306.066,-78.8631"/>
</g>
<!-- Node4 -->
<g id="node4" class="node"><title>Node4</title>
<polygon fill="white" stroke="#bfbfbf" points="212.854,-0.5 212.854,-19.5 264.854,-19.5 264.854,-0.5 212.854,-0.5"/>
<text text-anchor="middle" x="238.854" y="-7.5" font-family="Helvetica,sans-Serif" font-size="10.00">cassert</text>
</g>
<!-- Node3&#45;&gt;Node4 -->
<g id="edge3" class="edge"><title>Node3&#45;&gt;Node4</title>
<path fill="none" stroke="midnightblue" d="M354.146,-56.4435C331.499,-47.5171 295.781,-33.4387 270.102,-23.3168"/>
<polygon fill="midnightblue" stroke="midnightblue" points="271.047,-19.9273 260.46,-19.5164 268.48,-26.4397 271.047,-19.9273"/>
</g>
<!-- Node5 -->
<g id="node5" class="node"><title>Node5</title>
<polygon fill="white" stroke="#bfbfbf" points="283.354,-0.5 283.354,-19.5 328.354,-19.5 328.354,-0.5 283.354,-0.5"/>
<text text-anchor="middle" x="305.854" y="-7.5" font-family="Helvetica,sans-Serif" font-size="10.00">cstdio</text>
</g>
<!-- Node3&#45;&gt;Node5 -->
<g id="edge4" class="edge"><title>Node3&#45;&gt;Node5</title>
<path fill="none" stroke="midnightblue" d="M364.607,-56.324C354.056,-48.1849 338.053,-35.8395 325.411,-26.0874"/>
<polygon fill="midnightblue" stroke="midnightblue" points="327.361,-23.1707 317.305,-19.8339 323.085,-28.7132 327.361,-23.1707"/>
</g>
<!-- Node6 -->
<g id="node6" class="node"><title>Node6</title>
<polygon fill="white" stroke="#bfbfbf" points="346.354,-0.5 346.354,-19.5 405.354,-19.5 405.354,-0.5 346.354,-0.5"/>
<text text-anchor="middle" x="375.854" y="-7.5" font-family="Helvetica,sans-Serif" font-size="10.00">iostream</text>
</g>
<!-- Node3&#45;&gt;Node6 -->
<g id="edge5" class="edge"><title>Node3&#45;&gt;Node6</title>
<path fill="none" stroke="midnightblue" d="M375.854,-56.083C375.854,-49.0059 375.854,-38.8611 375.854,-29.9865"/>
<polygon fill="midnightblue" stroke="midnightblue" points="379.354,-29.751 375.854,-19.7511 372.354,-29.7511 379.354,-29.751"/>
</g>
<!-- Node7 -->
<g id="node7" class="node"><title>Node7</title>
<polygon fill="white" stroke="#bfbfbf" points="423.854,-0.5 423.854,-19.5 479.854,-19.5 479.854,-0.5 423.854,-0.5"/>
<text text-anchor="middle" x="451.854" y="-7.5" font-family="Helvetica,sans-Serif" font-size="10.00">sstream</text>
</g>
<!-- Node3&#45;&gt;Node7 -->
<g id="edge6" class="edge"><title>Node3&#45;&gt;Node7</title>
<path fill="none" stroke="midnightblue" d="M388.064,-56.324C399.629,-48.1066 417.229,-35.6017 431.014,-25.8069"/>
<polygon fill="midnightblue" stroke="midnightblue" points="433.296,-28.4791 439.421,-19.8339 429.242,-22.7729 433.296,-28.4791"/>
</g>
<!-- Node8 -->
<g id="node8" class="node"><title>Node8</title>
<polygon fill="white" stroke="#bfbfbf" points="497.854,-0.5 497.854,-19.5 545.854,-19.5 545.854,-0.5 497.854,-0.5"/>
<text text-anchor="middle" x="521.854" y="-7.5" font-family="Helvetica,sans-Serif" font-size="10.00">thread</text>
</g>
<!-- Node3&#45;&gt;Node8 -->
<g id="edge7" class="edge"><title>Node3&#45;&gt;Node8</title>
<path fill="none" stroke="midnightblue" d="M398.988,-56.4435C423.336,-47.4381 461.861,-33.1891 489.277,-23.049"/>
<polygon fill="midnightblue" stroke="midnightblue" points="490.663,-26.2681 498.828,-19.5164 488.235,-19.7028 490.663,-26.2681"/>
</g>
<!-- Node9&#45;&gt;Node2 -->
<g id="edge9" class="edge"><title>Node9&#45;&gt;Node2</title>
<path fill="none" stroke="midnightblue" d="M400.51,-414.418C386.054,-405.434 368.377,-392.726 355.854,-378 341.115,-360.669 330.344,-336.638 324.108,-320.269"/>
<polygon fill="midnightblue" stroke="midnightblue" points="327.363,-318.979 320.67,-310.766 320.781,-321.361 327.363,-318.979"/>
</g>
<!-- Node10 -->
<g id="node10" class="node"><title>Node10</title>
<g id="a_node10"><a xlink:href="LinearAlgebra_8hpp.html" target="_top" xlink:title="Core/Math/LinearAlgebra.hpp">
<polygon fill="white" stroke="black" points="457.854,-235.5 457.854,-254.5 613.854,-254.5 613.854,-235.5 457.854,-235.5"/>
<text text-anchor="middle" x="535.854" y="-242.5" font-family="Helvetica,sans-Serif" font-size="10.00">Core/Math/LinearAlgebra.hpp</text>
</a>
</g>
</g>
<!-- Node9&#45;&gt;Node10 -->
<g id="edge10" class="edge"><title>Node9&#45;&gt;Node10</title>
<path fill="none" stroke="midnightblue" d="M452.754,-414.435C467.1,-405.694 483.985,-393.222 494.854,-378 519.988,-342.798 530.054,-291.728 533.811,-264.586"/>
<polygon fill="midnightblue" stroke="midnightblue" points="537.3,-264.891 535.06,-254.535 530.353,-264.027 537.3,-264.891"/>
</g>
<!-- Node22 -->
<g id="node22" class="node"><title>Node22</title>
<g id="a_node22"><a xlink:href="Component_8hpp.html" target="_top" xlink:title="Engine/Component/Component.hpp">
<polygon fill="white" stroke="black" points="542.854,-353 542.854,-372 730.854,-372 730.854,-353 542.854,-353"/>
<text text-anchor="middle" x="636.854" y="-360" font-family="Helvetica,sans-Serif" font-size="10.00">Engine/Component/Component.hpp</text>
</a>
</g>
</g>
<!-- Node9&#45;&gt;Node22 -->
<g id="edge25" class="edge"><title>Node9&#45;&gt;Node22</title>
<path fill="none" stroke="midnightblue" d="M471.378,-414.476C509.693,-402.673 563.812,-386.001 599.591,-374.979"/>
<polygon fill="midnightblue" stroke="midnightblue" points="600.642,-378.318 609.168,-372.029 598.581,-371.628 600.642,-378.318"/>
</g>
<!-- Node29 -->
<g id="node29" class="node"><title>Node29</title>
<g id="a_node29"><a xlink:href="Light_8inl.html" target="_top" xlink:title="Engine/Renderer/Light\l/Light.inl">
<polygon fill="white" stroke="black" points="365.354,-347.5 365.354,-377.5 486.354,-377.5 486.354,-347.5 365.354,-347.5"/>
<text text-anchor="start" x="373.354" y="-365.5" font-family="Helvetica,sans-Serif" font-size="10.00">Engine/Renderer/Light</text>
<text text-anchor="middle" x="425.854" y="-354.5" font-family="Helvetica,sans-Serif" font-size="10.00">/Light.inl</text>
</a>
</g>
</g>
<!-- Node9&#45;&gt;Node29 -->
<g id="edge39" class="edge"><title>Node9&#45;&gt;Node29</title>
<path fill="none" stroke="midnightblue" d="M425.854,-414.396C425.854,-406.645 425.854,-396.812 425.854,-387.86"/>
<polygon fill="midnightblue" stroke="midnightblue" points="429.354,-387.576 425.854,-377.577 422.354,-387.577 429.354,-387.576"/>
</g>
<!-- Node11 -->
<g id="node11" class="node"><title>Node11</title>
<g id="a_node11"><a xlink:href="RaCore_8hpp.html" target="_top" xlink:title="Core/RaCore.hpp">
<polygon fill="white" stroke="black" points="709.854,-112.5 709.854,-131.5 807.854,-131.5 807.854,-112.5 709.854,-112.5"/>
<text text-anchor="middle" x="758.854" y="-119.5" font-family="Helvetica,sans-Serif" font-size="10.00">Core/RaCore.hpp</text>
</a>
</g>
</g>
<!-- Node10&#45;&gt;Node11 -->
<g id="edge11" class="edge"><title>Node10&#45;&gt;Node11</title>
<path fill="none" stroke="midnightblue" d="M612.877,-235.482C662.772,-228.414 721.718,-216.637 739.854,-199 755.13,-184.143 758.824,-159.004 759.391,-141.734"/>
<polygon fill="midnightblue" stroke="midnightblue" points="762.891,-141.712 759.403,-131.708 755.891,-141.704 762.891,-141.712"/>
</g>
<!-- Node12 -->
<g id="node12" class="node"><title>Node12</title>
<polygon fill="white" stroke="#bfbfbf" points="319.854,-174 319.854,-193 387.854,-193 387.854,-174 319.854,-174"/>
<text text-anchor="middle" x="353.854" y="-181" font-family="Helvetica,sans-Serif" font-size="10.00">Eigen/Core</text>
</g>
<!-- Node10&#45;&gt;Node12 -->
<g id="edge13" class="edge"><title>Node10&#45;&gt;Node12</title>
<path fill="none" stroke="midnightblue" d="M509.175,-235.469C481.169,-226.489 435.87,-211.893 396.854,-199 394.278,-198.149 391.616,-197.264 388.94,-196.37"/>
<polygon fill="midnightblue" stroke="midnightblue" points="389.896,-193 379.302,-193.138 387.671,-199.636 389.896,-193"/>
</g>
<!-- Node13 -->
<g id="node13" class="node"><title>Node13</title>
<polygon fill="white" stroke="#bfbfbf" points="786.854,-174 786.854,-193 880.854,-193 880.854,-174 786.854,-174"/>
<text text-anchor="middle" x="833.854" y="-181" font-family="Helvetica,sans-Serif" font-size="10.00">Eigen/Geometry</text>
</g>
<!-- Node10&#45;&gt;Node13 -->
<g id="edge14" class="edge"><title>Node10&#45;&gt;Node13</title>
<path fill="none" stroke="midnightblue" d="M584.552,-235.426C632.555,-226.816 707.938,-212.871 772.854,-199 778.176,-197.863 783.747,-196.617 789.265,-195.347"/>
<polygon fill="midnightblue" stroke="midnightblue" points="790.135,-198.739 799.077,-193.057 788.543,-191.922 790.135,-198.739"/>
</g>
<!-- Node14 -->
<g id="node14" class="node"><title>Node14</title>
<polygon fill="white" stroke="#bfbfbf" points="405.854,-174 405.854,-193 485.854,-193 485.854,-174 405.854,-174"/>
<text text-anchor="middle" x="445.854" y="-181" font-family="Helvetica,sans-Serif" font-size="10.00">Eigen/Sparse</text>
</g>
<!-- Node10&#45;&gt;Node14 -->
<g id="edge15" class="edge"><title>Node10&#45;&gt;Node14</title>
<path fill="none" stroke="midnightblue" d="M522.959,-235.475C508.389,-225.843 484.451,-210.017 467.108,-198.552"/>
<polygon fill="midnightblue" stroke="midnightblue" points="468.997,-195.604 458.724,-193.009 465.136,-201.444 468.997,-195.604"/>
</g>
<!-- Node15 -->
<g id="node15" class="node"><title>Node15</title>
<polygon fill="white" stroke="#bfbfbf" points="504.354,-174 504.354,-193 567.354,-193 567.354,-174 504.354,-174"/>
<text text-anchor="middle" x="535.854" y="-181" font-family="Helvetica,sans-Serif" font-size="10.00">functional</text>
</g>
<!-- Node10&#45;&gt;Node15 -->
<g id="edge16" class="edge"><title>Node10&#45;&gt;Node15</title>
<path fill="none" stroke="midnightblue" d="M535.854,-235.475C535.854,-227.08 535.854,-213.981 535.854,-203.163"/>
<polygon fill="midnightblue" stroke="midnightblue" points="539.354,-203.009 535.854,-193.009 532.354,-203.009 539.354,-203.009"/>
</g>
<!-- Node16 -->
<g id="node16" class="node"><title>Node16</title>
<polygon fill="white" stroke="#bfbfbf" points="585.354,-168.5 585.354,-198.5 730.354,-198.5 730.354,-168.5 585.354,-168.5"/>
<text text-anchor="start" x="593.354" y="-186.5" font-family="Helvetica,sans-Serif" font-size="10.00">unsupported/Eigen/Aligned</text>
<text text-anchor="middle" x="657.854" y="-175.5" font-family="Helvetica,sans-Serif" font-size="10.00">Vector3</text>
</g>
<!-- Node10&#45;&gt;Node16 -->
<g id="edge17" class="edge"><title>Node10&#45;&gt;Node16</title>
<path fill="none" stroke="midnightblue" d="M553.333,-235.475C570.629,-227.04 597.663,-213.855 619.905,-203.008"/>
<polygon fill="midnightblue" stroke="midnightblue" points="621.647,-206.052 629.101,-198.523 618.578,-199.761 621.647,-206.052"/>
</g>
<!-- Node17 -->
<g id="node17" class="node"><title>Node17</title>
<g id="a_node17"><a xlink:href="Math_8hpp.html" target="_top" xlink:title="Core/Math/Math.hpp">
<polygon fill="white" stroke="black" points="187.854,-174 187.854,-193 301.854,-193 301.854,-174 187.854,-174"/>
<text text-anchor="middle" x="244.854" y="-181" font-family="Helvetica,sans-Serif" font-size="10.00">Core/Math/Math.hpp</text>
</a>
</g>
</g>
<!-- Node10&#45;&gt;Node17 -->
<g id="edge18" class="edge"><title>Node10&#45;&gt;Node17</title>
<path fill="none" stroke="midnightblue" d="M491.827,-235.45C446.433,-226.574 373.623,-212.171 310.854,-199 305.116,-197.796 299.104,-196.51 293.143,-195.219"/>
<polygon fill="midnightblue" stroke="midnightblue" points="293.733,-191.766 283.217,-193.057 292.243,-198.605 293.733,-191.766"/>
</g>
<!-- Node21 -->
<g id="node21" class="node"><title>Node21</title>
<g id="a_node21"><a xlink:href="LinearAlgebra_8inl.html" target="_top" xlink:title="Core/Math/LinearAlgebra.inl">
<polygon fill="white" stroke="black" points="20.3536,-174 20.3536,-193 169.354,-193 169.354,-174 20.3536,-174"/>
<text text-anchor="middle" x="94.8536" y="-181" font-family="Helvetica,sans-Serif" font-size="10.00">Core/Math/LinearAlgebra.inl</text>
</a>
</g>
</g>
<!-- Node10&#45;&gt;Node21 -->
<g id="edge24" class="edge"><title>Node10&#45;&gt;Node21</title>
<path fill="none" stroke="midnightblue" d="M460.153,-235.471C387.794,-227.08 275.702,-213.455 178.854,-199 170.133,-197.698 160.922,-196.217 151.921,-194.711"/>
<polygon fill="midnightblue" stroke="midnightblue" points="152.33,-191.23 141.885,-193.007 151.159,-198.131 152.33,-191.23"/>
</g>
<!-- Node11&#45;&gt;Node3 -->
<g id="edge12" class="edge"><title>Node11&#45;&gt;Node3</title>
<path fill="none" stroke="midnightblue" d="M709.567,-114.051C642.57,-104.605 522.369,-87.6576 445.987,-76.8883"/>
<polygon fill="midnightblue" stroke="midnightblue" points="446.364,-73.4068 435.973,-75.4763 445.386,-80.3383 446.364,-73.4068"/>
</g>
<!-- Node17&#45;&gt;Node11 -->
<g id="edge19" class="edge"><title>Node17&#45;&gt;Node11</title>
<path fill="none" stroke="midnightblue" d="M279.989,-173.988C289.924,-171.797 300.775,-169.608 310.854,-168 449.195,-145.932 613.399,-132.708 699.456,-126.761"/>
<polygon fill="midnightblue" stroke="midnightblue" points="699.818,-130.244 709.557,-126.071 699.341,-123.26 699.818,-130.244"/>
</g>
<!-- Node18 -->
<g id="node18" class="node"><title>Node18</title>
<polygon fill="white" stroke="#bfbfbf" points="264.854,-112.5 264.854,-131.5 326.854,-131.5 326.854,-112.5 264.854,-112.5"/>
<text text-anchor="middle" x="295.854" y="-119.5" font-family="Helvetica,sans-Serif" font-size="10.00">algorithm</text>
</g>
<!-- Node17&#45;&gt;Node18 -->
<g id="edge20" class="edge"><title>Node17&#45;&gt;Node18</title>
<path fill="none" stroke="midnightblue" d="M252.161,-173.975C259.886,-164.962 272.261,-150.525 281.872,-139.312"/>
<polygon fill="midnightblue" stroke="midnightblue" points="284.71,-141.379 288.56,-131.509 279.395,-136.824 284.71,-141.379"/>
</g>
<!-- Node19 -->
<g id="node19" class="node"><title>Node19</title>
<polygon fill="white" stroke="#bfbfbf" points="345.354,-112.5 345.354,-131.5 392.354,-131.5 392.354,-112.5 345.354,-112.5"/>
<text text-anchor="middle" x="368.854" y="-119.5" font-family="Helvetica,sans-Serif" font-size="10.00">cmath</text>
</g>
<!-- Node17&#45;&gt;Node19 -->
<g id="edge21" class="edge"><title>Node17&#45;&gt;Node19</title>
<path fill="none" stroke="midnightblue" d="M262.62,-173.975C283.338,-164.034 317.806,-147.495 341.842,-135.961"/>
<polygon fill="midnightblue" stroke="midnightblue" points="343.619,-138.991 351.12,-131.509 340.59,-132.68 343.619,-138.991"/>
</g>
<!-- Node20 -->
<g id="node20" class="node"><title>Node20</title>
<g id="a_node20"><a xlink:href="Math_8inl.html" target="_top" xlink:title="Core/Math/Math.inl">
<polygon fill="white" stroke="black" points="140.354,-112.5 140.354,-131.5 247.354,-131.5 247.354,-112.5 140.354,-112.5"/>
<text text-anchor="middle" x="193.854" y="-119.5" font-family="Helvetica,sans-Serif" font-size="10.00">Core/Math/Math.inl</text>
</a>
</g>
</g>
<!-- Node17&#45;&gt;Node20 -->
<g id="edge22" class="edge"><title>Node17&#45;&gt;Node20</title>
<path fill="none" stroke="midnightblue" d="M232.646,-173.975C223.144,-165.138 210.681,-151.089 202.24,-139.975"/>
<polygon fill="midnightblue" stroke="midnightblue" points="204.883,-137.651 196.25,-131.509 199.169,-141.694 204.883,-137.651"/>
</g>
<!-- Node20&#45;&gt;Node17 -->
<g id="edge23" class="edge"><title>Node20&#45;&gt;Node17</title>
<path fill="none" stroke="midnightblue" d="M206.044,-131.509C215.542,-140.34 228.007,-154.388 236.452,-165.505"/>
<polygon fill="midnightblue" stroke="midnightblue" points="233.813,-167.835 242.447,-173.975 239.526,-163.791 233.813,-167.835"/>
</g>
<!-- Node22&#45;&gt;Node2 -->
<g id="edge26" class="edge"><title>Node22&#45;&gt;Node2</title>
<path fill="none" stroke="midnightblue" d="M591.149,-352.975C533.705,-342.261 435.171,-323.882 373.43,-312.366"/>
<polygon fill="midnightblue" stroke="midnightblue" points="373.946,-308.902 363.474,-310.509 372.662,-315.783 373.946,-308.902"/>
</g>
<!-- Node22&#45;&gt;Node10 -->
<g id="edge32" class="edge"><title>Node22&#45;&gt;Node10</title>
<path fill="none" stroke="midnightblue" d="M667.917,-352.95C704.125,-341.448 756.322,-319.148 733.854,-291 719.742,-273.322 670.021,-262.059 623.938,-255.222"/>
<polygon fill="midnightblue" stroke="midnightblue" points="624.262,-251.733 613.869,-253.788 623.275,-258.663 624.262,-251.733"/>
</g>
<!-- Node23 -->
<g id="node23" class="node"><title>Node23</title>
<g id="a_node23"><a xlink:href="IndexedObject_8hpp.html" target="_top" xlink:title="Core/Index/IndexedObject.hpp">
<polygon fill="white" stroke="black" points="941.854,-291.5 941.854,-310.5 1101.85,-310.5 1101.85,-291.5 941.854,-291.5"/>
<text text-anchor="middle" x="1021.85" y="-298.5" font-family="Helvetica,sans-Serif" font-size="10.00">Core/Index/IndexedObject.hpp</text>
</a>
</g>
</g>
<!-- Node22&#45;&gt;Node23 -->
<g id="edge27" class="edge"><title>Node22&#45;&gt;Node23</title>
<path fill="none" stroke="midnightblue" d="M692.015,-352.975C761.915,-342.172 882.229,-323.578 956.614,-312.083"/>
<polygon fill="midnightblue" stroke="midnightblue" points="957.447,-315.495 966.795,-310.509 956.378,-308.578 957.447,-315.495"/>
</g>
<!-- Node27 -->
<g id="node27" class="node"><title>Node27</title>
<g id="a_node27"><a xlink:href="Ray_8hpp.html" target="_top" xlink:title="Core/Math/Ray.hpp">
<polygon fill="white" stroke="black" points="780.854,-291.5 780.854,-310.5 886.854,-310.5 886.854,-291.5 780.854,-291.5"/>
<text text-anchor="middle" x="833.854" y="-298.5" font-family="Helvetica,sans-Serif" font-size="10.00">Core/Math/Ray.hpp</text>
</a>
</g>
</g>
<!-- Node22&#45;&gt;Node27 -->
<g id="edge33" class="edge"><title>Node22&#45;&gt;Node27</title>
<path fill="none" stroke="midnightblue" d="M665.079,-352.975C699.457,-342.592 757.664,-325.012 795.931,-313.454"/>
<polygon fill="midnightblue" stroke="midnightblue" points="797.12,-316.751 805.681,-310.509 795.096,-310.05 797.12,-316.751"/>
</g>
<!-- Node28 -->
<g id="node28" class="node"><title>Node28</title>
<g id="a_node28"><a xlink:href="Component_8inl.html" target="_top" xlink:title="Engine/Component/Component.inl">
<polygon fill="white" stroke="black" points="543.354,-291.5 543.354,-310.5 724.354,-310.5 724.354,-291.5 543.354,-291.5"/>
<text text-anchor="middle" x="633.854" y="-298.5" font-family="Helvetica,sans-Serif" font-size="10.00">Engine/Component/Component.inl</text>
</a>
</g>
</g>
<!-- Node22&#45;&gt;Node28 -->
<g id="edge37" class="edge"><title>Node22&#45;&gt;Node28</title>
<path fill="none" stroke="midnightblue" d="M631.523,-352.975C629.269,-344.58 628.137,-331.481 628.48,-320.663"/>
<polygon fill="midnightblue" stroke="midnightblue" points="631.983,-320.781 629.385,-310.509 625.011,-320.159 631.983,-320.781"/>
</g>
<!-- Node23&#45;&gt;Node11 -->
<g id="edge31" class="edge"><title>Node23&#45;&gt;Node11</title>
<path fill="none" stroke="midnightblue" d="M1040.35,-291.368C1055.32,-283.611 1076.1,-270.99 1089.85,-255 1116.17,-224.407 1142.55,-198.268 1115.85,-168 1096.52,-146.075 914.602,-132.154 818.19,-126.254"/>
<polygon fill="midnightblue" stroke="midnightblue" points="818.196,-122.748 808.004,-125.641 817.776,-129.736 818.196,-122.748"/>
</g>
<!-- Node24 -->
<g id="node24" class="node"><title>Node24</title>
<g id="a_node24"><a xlink:href="Index_8hpp.html" target="_top" xlink:title="Core/Index/Index.hpp">
<polygon fill="white" stroke="black" points="963.354,-235.5 963.354,-254.5 1080.35,-254.5 1080.35,-235.5 963.354,-235.5"/>
<text text-anchor="middle" x="1021.85" y="-242.5" font-family="Helvetica,sans-Serif" font-size="10.00">Core/Index/Index.hpp</text>
</a>
</g>
</g>
<!-- Node23&#45;&gt;Node24 -->
<g id="edge28" class="edge"><title>Node23&#45;&gt;Node24</title>
<path fill="none" stroke="midnightblue" d="M1021.85,-291.083C1021.85,-284.006 1021.85,-273.861 1021.85,-264.986"/>
<polygon fill="midnightblue" stroke="midnightblue" points="1025.35,-264.751 1021.85,-254.751 1018.35,-264.751 1025.35,-264.751"/>
</g>
<!-- Node25 -->
<g id="node25" class="node"><title>Node25</title>
<polygon fill="white" stroke="#bfbfbf" points="936.854,-174 936.854,-193 978.854,-193 978.854,-174 936.854,-174"/>
<text text-anchor="middle" x="957.854" y="-181" font-family="Helvetica,sans-Serif" font-size="10.00">limits</text>
</g>
<!-- Node24&#45;&gt;Node25 -->
<g id="edge29" class="edge"><title>Node24&#45;&gt;Node25</title>
<path fill="none" stroke="midnightblue" d="M1012.68,-235.475C1002.7,-226.197 986.541,-211.171 974.344,-199.831"/>
<polygon fill="midnightblue" stroke="midnightblue" points="976.713,-197.255 967.006,-193.009 971.947,-202.381 976.713,-197.255"/>
</g>
<!-- Node26 -->
<g id="node26" class="node"><title>Node26</title>
<g id="a_node26"><a xlink:href="Index_8inl.html" target="_top" xlink:title="Core/Index/Index.inl">
<polygon fill="white" stroke="black" points="996.854,-174 996.854,-193 1106.85,-193 1106.85,-174 996.854,-174"/>
<text text-anchor="middle" x="1051.85" y="-181" font-family="Helvetica,sans-Serif" font-size="10.00">Core/Index/Index.inl</text>
</a>
</g>
</g>
<!-- Node24&#45;&gt;Node26 -->
<g id="edge30" class="edge"><title>Node24&#45;&gt;Node26</title>
<path fill="none" stroke="midnightblue" d="M1026.15,-235.475C1030.52,-226.815 1037.41,-213.149 1042.96,-202.145"/>
<polygon fill="midnightblue" stroke="midnightblue" points="1046.19,-203.514 1047.56,-193.009 1039.94,-200.363 1046.19,-203.514"/>
</g>
<!-- Node27&#45;&gt;Node10 -->
<g id="edge35" class="edge"><title>Node27&#45;&gt;Node10</title>
<path fill="none" stroke="midnightblue" d="M786.635,-291.444C734.104,-281.925 649.244,-266.547 593.005,-256.356"/>
<polygon fill="midnightblue" stroke="midnightblue" points="593.316,-252.856 582.852,-254.516 592.067,-259.743 593.316,-252.856"/>
</g>
<!-- Node27&#45;&gt;Node11 -->
<g id="edge34" class="edge"><title>Node27&#45;&gt;Node11</title>
<path fill="none" stroke="midnightblue" d="M843.166,-291.316C865.757,-269.194 919.503,-209.535 889.854,-168 873.438,-145.004 844.498,-133.638 817.986,-128.07"/>
<polygon fill="midnightblue" stroke="midnightblue" points="818.447,-124.596 807.976,-126.207 817.167,-131.477 818.447,-124.596"/>
</g>
<!-- Node27&#45;&gt;Node13 -->
<g id="edge36" class="edge"><title>Node27&#45;&gt;Node13</title>
<path fill="none" stroke="midnightblue" d="M833.854,-291.319C833.854,-272.757 833.854,-228.839 833.854,-203.473"/>
<polygon fill="midnightblue" stroke="midnightblue" points="837.354,-203.282 833.854,-193.282 830.354,-203.282 837.354,-203.282"/>
</g>
<!-- Node28&#45;&gt;Node22 -->
<g id="edge38" class="edge"><title>Node28&#45;&gt;Node22</title>
<path fill="none" stroke="midnightblue" d="M639.18,-310.509C641.435,-318.898 642.569,-331.996 642.228,-342.817"/>
<polygon fill="midnightblue" stroke="midnightblue" points="638.724,-342.704 641.324,-352.975 645.697,-343.325 638.724,-342.704"/>
</g>
</g>
</svg>
