<?xml version="1.0" encoding="UTF-8" standalone="no"?>
<!DOCTYPE svg PUBLIC "-//W3C//DTD SVG 1.1//EN"
 "http://www.w3.org/Graphics/SVG/1.1/DTD/svg11.dtd">
<!-- Generated by graphviz version 2.38.0 (20140413.2041)
 -->
<!-- Title: /home/travis/build/STORM&#45;IRIT/Radium&#45;Engine/src/Core/String/StringUtils.cpp Pages: 1 -->
<svg width="580pt" height="274pt"
 viewBox="0.00 0.00 580.00 274.00" xmlns="http://www.w3.org/2000/svg" xmlns:xlink="http://www.w3.org/1999/xlink">
<g id="graph0" class="graph" transform="scale(1 1) rotate(0) translate(4 270)">
<title>/home/travis/build/STORM&#45;IRIT/Radium&#45;Engine/src/Core/String/StringUtils.cpp</title>
<polygon fill="white" stroke="none" points="-4,4 -4,-270 576,-270 576,4 -4,4"/>
<!-- Node1 -->
<g id="node1" class="node"><title>Node1</title>
<polygon fill="#bfbfbf" stroke="black" points="184.5,-224.5 184.5,-265.5 348.5,-265.5 348.5,-224.5 184.5,-224.5"/>
<text text-anchor="start" x="192.5" y="-253.5" font-family="Helvetica,sans-Serif" font-size="10.00">/home/travis/build</text>
<text text-anchor="start" x="192.5" y="-242.5" font-family="Helvetica,sans-Serif" font-size="10.00">/STORM&#45;IRIT/Radium&#45;Engine</text>
<text text-anchor="middle" x="266.5" y="-231.5" font-family="Helvetica,sans-Serif" font-size="10.00">/src/Core/String/StringUtils.cpp</text>
</g>
<!-- Node2 -->
<g id="node2" class="node"><title>Node2</title>
<g id="a_node2"><a xlink:href="StringUtils_8hpp.html" target="_top" xlink:title="Core/String/StringUtils.hpp">
<polygon fill="white" stroke="black" points="134.5,-168.5 134.5,-187.5 278.5,-187.5 278.5,-168.5 134.5,-168.5"/>
<text text-anchor="middle" x="206.5" y="-175.5" font-family="Helvetica,sans-Serif" font-size="10.00">Core/String/StringUtils.hpp</text>
</a>
</g>
</g>
<!-- Node1&#45;&gt;Node2 -->
<g id="edge1" class="edge"><title>Node1&#45;&gt;Node2</title>
<path fill="none" stroke="midnightblue" d="M248.498,-224.498C239.83,-215.107 229.561,-203.983 221.347,-195.085"/>
<polygon fill="midnightblue" stroke="midnightblue" points="223.842,-192.627 214.487,-187.652 218.698,-197.375 223.842,-192.627"/>
</g>
<!-- Node4 -->
<g id="node4" class="node"><title>Node4</title>
<g id="a_node4"><a xlink:href="CoreMacros_8hpp.html" target="_top" xlink:title="Core/CoreMacros.hpp">
<polygon fill="white" stroke="black" points="103.5,-56.5 103.5,-75.5 223.5,-75.5 223.5,-56.5 103.5,-56.5"/>
<text text-anchor="middle" x="163.5" y="-63.5" font-family="Helvetica,sans-Serif" font-size="10.00">Core/CoreMacros.hpp</text>
</a>
</g>
</g>
<!-- Node1&#45;&gt;Node4 -->
<g id="edge11" class="edge"><title>Node1&#45;&gt;Node4</title>
<path fill="none" stroke="midnightblue" d="M184.168,-229.318C161.387,-221.06 139.184,-208.158 125.5,-188 106.529,-160.053 113.898,-143.723 125.5,-112 129.557,-100.908 137.688,-90.6651 145.391,-82.7625"/>
<polygon fill="midnightblue" stroke="midnightblue" points="147.975,-85.1351 152.786,-75.6955 143.138,-80.0747 147.975,-85.1351"/>
</g>
<!-- Node6 -->
<g id="node6" class="node"><title>Node6</title>
<polygon fill="white" stroke="#bfbfbf" points="0,-0.5 0,-19.5 45,-19.5 45,-0.5 0,-0.5"/>
<text text-anchor="middle" x="22.5" y="-7.5" font-family="Helvetica,sans-Serif" font-size="10.00">cstdio</text>
</g>
<!-- Node1&#45;&gt;Node6 -->
<g id="edge14" class="edge"><title>Node1&#45;&gt;Node6</title>
<path fill="none" stroke="midnightblue" d="M184.27,-231.776C153.667,-223.686 120.565,-210.262 96.5,-188 49.2882,-144.324 31.1964,-65.8299 25.1562,-29.8947"/>
<polygon fill="midnightblue" stroke="midnightblue" points="28.5855,-29.1679 23.597,-19.8209 21.6679,-30.2387 28.5855,-29.1679"/>
</g>
<!-- Node8 -->
<g id="node8" class="node"><title>Node8</title>
<polygon fill="white" stroke="#bfbfbf" points="63.5,-0.5 63.5,-19.5 119.5,-19.5 119.5,-0.5 63.5,-0.5"/>
<text text-anchor="middle" x="91.5" y="-7.5" font-family="Helvetica,sans-Serif" font-size="10.00">sstream</text>
</g>
<!-- Node1&#45;&gt;Node8 -->
<g id="edge17" class="edge"><title>Node1&#45;&gt;Node8</title>
<path fill="none" stroke="midnightblue" d="M184.426,-231.266C157.813,-223.137 130.533,-209.819 112.5,-188 74.4322,-141.941 81.8453,-64.6585 87.7861,-29.463"/>
<polygon fill="midnightblue" stroke="midnightblue" points="91.2318,-30.0766 89.6036,-19.6076 84.3479,-28.807 91.2318,-30.0766"/>
</g>
<!-- Node12 -->
<g id="node12" class="node"><title>Node12</title>
<polygon fill="white" stroke="#bfbfbf" points="296.5,-168.5 296.5,-187.5 358.5,-187.5 358.5,-168.5 296.5,-168.5"/>
<text text-anchor="middle" x="327.5" y="-175.5" font-family="Helvetica,sans-Serif" font-size="10.00">algorithm</text>
</g>
<!-- Node1&#45;&gt;Node12 -->
<g id="edge12" class="edge"><title>Node1&#45;&gt;Node12</title>
<path fill="none" stroke="midnightblue" d="M284.802,-224.498C293.615,-215.107 304.055,-203.983 312.405,-195.085"/>
<polygon fill="midnightblue" stroke="midnightblue" points="315.089,-197.34 319.38,-187.652 309.985,-192.549 315.089,-197.34"/>
</g>
<!-- Node13 -->
<g id="node13" class="node"><title>Node13</title>
<polygon fill="white" stroke="#bfbfbf" points="377,-168.5 377,-187.5 430,-187.5 430,-168.5 377,-168.5"/>
<text text-anchor="middle" x="403.5" y="-175.5" font-family="Helvetica,sans-Serif" font-size="10.00">cstdarg</text>
</g>
<!-- Node1&#45;&gt;Node13 -->
<g id="edge13" class="edge"><title>Node1&#45;&gt;Node13</title>
<path fill="none" stroke="midnightblue" d="M307.605,-224.498C329.72,-214.005 356.397,-201.348 375.993,-192.051"/>
<polygon fill="midnightblue" stroke="midnightblue" points="377.729,-195.101 385.263,-187.652 374.728,-188.777 377.729,-195.101"/>
</g>
<!-- Node14 -->
<g id="node14" class="node"><title>Node14</title>
<polygon fill="white" stroke="#bfbfbf" points="448,-168.5 448,-187.5 497,-187.5 497,-168.5 448,-168.5"/>
<text text-anchor="middle" x="472.5" y="-175.5" font-family="Helvetica,sans-Serif" font-size="10.00">cstring</text>
</g>
<!-- Node1&#45;&gt;Node14 -->
<g id="edge15" class="edge"><title>Node1&#45;&gt;Node14</title>
<path fill="none" stroke="midnightblue" d="M328.307,-224.498C364.402,-213.108 408.579,-199.169 438.449,-189.744"/>
<polygon fill="midnightblue" stroke="midnightblue" points="439.515,-193.078 447.998,-186.731 437.408,-186.403 439.515,-193.078"/>
</g>
<!-- Node15 -->
<g id="node15" class="node"><title>Node15</title>
<polygon fill="white" stroke="#bfbfbf" points="515,-168.5 515,-187.5 572,-187.5 572,-168.5 515,-168.5"/>
<text text-anchor="middle" x="543.5" y="-175.5" font-family="Helvetica,sans-Serif" font-size="10.00">memory</text>
</g>
<!-- Node1&#45;&gt;Node15 -->
<g id="edge16" class="edge"><title>Node1&#45;&gt;Node15</title>
<path fill="none" stroke="midnightblue" d="M348.742,-225.011C392.564,-214.845 447.647,-201.992 504.872,-188.374"/>
<polygon fill="midnightblue" stroke="midnightblue" points="505.907,-191.726 514.823,-186.004 504.284,-184.916 505.907,-191.726"/>
</g>
<!-- Node3 -->
<g id="node3" class="node"><title>Node3</title>
<g id="a_node3"><a xlink:href="RaCore_8hpp.html" target="_top" xlink:title="Core/RaCore.hpp">
<polygon fill="white" stroke="black" points="134.5,-112.5 134.5,-131.5 232.5,-131.5 232.5,-112.5 134.5,-112.5"/>
<text text-anchor="middle" x="183.5" y="-119.5" font-family="Helvetica,sans-Serif" font-size="10.00">Core/RaCore.hpp</text>
</a>
</g>
</g>
<!-- Node2&#45;&gt;Node3 -->
<g id="edge2" class="edge"><title>Node2&#45;&gt;Node3</title>
<path fill="none" stroke="midnightblue" d="M202.702,-168.083C199.587,-160.77 195.077,-150.181 191.211,-141.103"/>
<polygon fill="midnightblue" stroke="midnightblue" points="194.366,-139.58 187.227,-131.751 187.926,-142.323 194.366,-139.58"/>
</g>
<!-- Node10 -->
<g id="node10" class="node"><title>Node10</title>
<polygon fill="white" stroke="#bfbfbf" points="250.5,-112.5 250.5,-131.5 294.5,-131.5 294.5,-112.5 250.5,-112.5"/>
<text text-anchor="middle" x="272.5" y="-119.5" font-family="Helvetica,sans-Serif" font-size="10.00">string</text>
</g>
<!-- Node2&#45;&gt;Node10 -->
<g id="edge9" class="edge"><title>Node2&#45;&gt;Node10</title>
<path fill="none" stroke="midnightblue" d="M217.104,-168.324C226.956,-160.263 241.851,-148.077 253.715,-138.369"/>
<polygon fill="midnightblue" stroke="midnightblue" points="256.18,-140.875 261.703,-131.834 251.747,-135.457 256.18,-140.875"/>
</g>
<!-- Node11 -->
<g id="node11" class="node"><title>Node11</title>
<polygon fill="white" stroke="#bfbfbf" points="313,-112.5 313,-131.5 360,-131.5 360,-112.5 313,-112.5"/>
<text text-anchor="middle" x="336.5" y="-119.5" font-family="Helvetica,sans-Serif" font-size="10.00">vector</text>
</g>
<!-- Node2&#45;&gt;Node11 -->
<g id="edge10" class="edge"><title>Node2&#45;&gt;Node11</title>
<path fill="none" stroke="midnightblue" d="M227.099,-168.444C248.493,-159.557 282.181,-145.563 306.524,-135.451"/>
<polygon fill="midnightblue" stroke="midnightblue" points="308.105,-138.585 315.997,-131.516 305.42,-132.12 308.105,-138.585"/>
</g>
<!-- Node3&#45;&gt;Node4 -->
<g id="edge3" class="edge"><title>Node3&#45;&gt;Node4</title>
<path fill="none" stroke="midnightblue" d="M180.197,-112.083C177.518,-104.849 173.651,-94.4087 170.314,-85.3968"/>
<polygon fill="midnightblue" stroke="midnightblue" points="173.496,-83.9129 166.741,-75.7511 166.932,-86.3442 173.496,-83.9129"/>
</g>
<!-- Node5 -->
<g id="node5" class="node"><title>Node5</title>
<polygon fill="white" stroke="#bfbfbf" points="137.5,-0.5 137.5,-19.5 189.5,-19.5 189.5,-0.5 137.5,-0.5"/>
<text text-anchor="middle" x="163.5" y="-7.5" font-family="Helvetica,sans-Serif" font-size="10.00">cassert</text>
</g>
<!-- Node4&#45;&gt;Node5 -->
<g id="edge4" class="edge"><title>Node4&#45;&gt;Node5</title>
<path fill="none" stroke="midnightblue" d="M163.5,-56.083C163.5,-49.0059 163.5,-38.8611 163.5,-29.9865"/>
<polygon fill="midnightblue" stroke="midnightblue" points="167,-29.751 163.5,-19.7511 160,-29.7511 167,-29.751"/>
</g>
<!-- Node4&#45;&gt;Node6 -->
<g id="edge5" class="edge"><title>Node4&#45;&gt;Node6</title>
<path fill="none" stroke="midnightblue" d="M141.158,-56.4435C117.747,-47.4776 80.7644,-33.314 54.3104,-23.1827"/>
<polygon fill="midnightblue" stroke="midnightblue" points="55.3277,-19.8245 44.7373,-19.5164 52.8241,-26.3615 55.3277,-19.8245"/>
</g>
<!-- Node7 -->
<g id="node7" class="node"><title>Node7</title>
<polygon fill="white" stroke="#bfbfbf" points="208,-0.5 208,-19.5 267,-19.5 267,-0.5 208,-0.5"/>
<text text-anchor="middle" x="237.5" y="-7.5" font-family="Helvetica,sans-Serif" font-size="10.00">iostream</text>
</g>
<!-- Node4&#45;&gt;Node7 -->
<g id="edge6" class="edge"><title>Node4&#45;&gt;Node7</title>
<path fill="none" stroke="midnightblue" d="M175.389,-56.324C186.65,-48.1066 203.787,-35.6017 217.209,-25.8069"/>
<polygon fill="midnightblue" stroke="midnightblue" points="219.38,-28.5559 225.394,-19.8339 215.253,-22.9014 219.38,-28.5559"/>
</g>
<!-- Node4&#45;&gt;Node8 -->
<g id="edge7" class="edge"><title>Node4&#45;&gt;Node8</title>
<path fill="none" stroke="midnightblue" d="M151.932,-56.324C141.08,-48.1849 124.619,-35.8395 111.617,-26.0874"/>
<polygon fill="midnightblue" stroke="midnightblue" points="113.379,-23.0339 103.279,-19.8339 109.179,-28.6339 113.379,-23.0339"/>
</g>
<!-- Node9 -->
<g id="node9" class="node"><title>Node9</title>
<polygon fill="white" stroke="#bfbfbf" points="285.5,-0.5 285.5,-19.5 333.5,-19.5 333.5,-0.5 285.5,-0.5"/>
<text text-anchor="middle" x="309.5" y="-7.5" font-family="Helvetica,sans-Serif" font-size="10.00">thread</text>
</g>
<!-- Node4&#45;&gt;Node9 -->
<g id="edge8" class="edge"><title>Node4&#45;&gt;Node9</title>
<path fill="none" stroke="midnightblue" d="M186.634,-56.4435C210.982,-47.4381 249.507,-33.1891 276.923,-23.049"/>
<polygon fill="midnightblue" stroke="midnightblue" points="278.309,-26.2681 286.474,-19.5164 275.881,-19.7028 278.309,-26.2681"/>
</g>
</g>
</svg>
