<?xml version="1.0" encoding="UTF-8" standalone="no"?>
<!DOCTYPE svg PUBLIC "-//W3C//DTD SVG 1.1//EN"
 "http://www.w3.org/Graphics/SVG/1.1/DTD/svg11.dtd">
<!-- Generated by graphviz version 2.38.0 (20140413.2041)
 -->
<!-- Title: Super4PCS::TriangleKdTree&lt; _Index &gt;::QueryNode Pages: 1 -->
<svg width="152pt" height="193pt"
 viewBox="0.00 0.00 152.00 193.00" xmlns="http://www.w3.org/2000/svg" xmlns:xlink="http://www.w3.org/1999/xlink">
<g id="graph0" class="graph" transform="scale(1 1) rotate(0) translate(4 189)">
<title>Super4PCS::TriangleKdTree&lt; _Index &gt;::QueryNode</title>
<polygon fill="white" stroke="none" points="-4,4 -4,-189 148,-189 148,4 -4,4"/>
<!-- Node1 -->
<g id="node1" class="node"><title>Node1</title>
<polygon fill="#bfbfbf" stroke="black" points="0,-0.5 0,-79.5 144,-79.5 144,-0.5 0,-0.5"/>
<text text-anchor="start" x="8" y="-67.5" font-family="Helvetica,sans-Serif" font-size="10.00">Super4PCS::TriangleKdTree</text>
<text text-anchor="middle" x="72" y="-56.5" font-family="Helvetica,sans-Serif" font-size="10.00">&lt; _Index &gt;::QueryNode</text>
<polyline fill="none" stroke="black" points="0,-49.5 144,-49.5 "/>
<text text-anchor="middle" x="72" y="-37.5" font-family="Helvetica,sans-Serif" font-size="10.00"> </text>
<polyline fill="none" stroke="black" points="0,-30.5 144,-30.5 "/>
<text text-anchor="start" x="8" y="-18.5" font-family="Helvetica,sans-Serif" font-size="10.00">+ QueryNode()</text>
<text text-anchor="start" x="8" y="-7.5" font-family="Helvetica,sans-Serif" font-size="10.00">+ QueryNode()</text>
</g>
<!-- Node2 -->
<g id="node2" class="node"><title>Node2</title>
<polygon fill="white" stroke="#bfbfbf" points="27,-127.5 27,-184.5 65,-184.5 65,-127.5 27,-127.5"/>
<text text-anchor="middle" x="46" y="-172.5" font-family="Helvetica,sans-Serif" font-size="10.00">float</text>
<polyline fill="none" stroke="#bfbfbf" points="27,-165.5 65,-165.5 "/>
<text text-anchor="middle" x="46" y="-153.5" font-family="Helvetica,sans-Serif" font-size="10.00"> </text>
<polyline fill="none" stroke="#bfbfbf" points="27,-146.5 65,-146.5 "/>
<text text-anchor="middle" x="46" y="-134.5" font-family="Helvetica,sans-Serif" font-size="10.00"> </text>
</g>
<!-- Node2&#45;&gt;Node1 -->
<g id="edge1" class="edge"><title>Node2&#45;&gt;Node1</title>
<path fill="none" stroke="#404040" d="M48.2826,-127.266C49.3502,-117.902 50.8709,-107.434 53,-98 53.4869,-95.8425 54.0235,-93.6514 54.5982,-91.4471"/>
<polygon fill="none" stroke="#404040" points="54.6728,-91.1858 52.475,-84.3178 57.9695,-79.6475 60.1672,-86.5156 54.6728,-91.1858"/>
<text text-anchor="middle" x="64.5" y="-101" font-family="Helvetica,sans-Serif" font-size="10.00"> +sq</text>
</g>
<!-- Node3 -->
<g id="node3" class="node"><title>Node3</title>
<polygon fill="white" stroke="#bfbfbf" points="83.5,-127.5 83.5,-184.5 112.5,-184.5 112.5,-127.5 83.5,-127.5"/>
<text text-anchor="middle" x="98" y="-172.5" font-family="Helvetica,sans-Serif" font-size="10.00">int</text>
<polyline fill="none" stroke="#bfbfbf" points="83.5,-165.5 112.5,-165.5 "/>
<text text-anchor="middle" x="98" y="-153.5" font-family="Helvetica,sans-Serif" font-size="10.00"> </text>
<polyline fill="none" stroke="#bfbfbf" points="83.5,-146.5 112.5,-146.5 "/>
<text text-anchor="middle" x="98" y="-134.5" font-family="Helvetica,sans-Serif" font-size="10.00"> </text>
</g>
<!-- Node3&#45;&gt;Node1 -->
<g id="edge2" class="edge"><title>Node3&#45;&gt;Node1</title>
<path fill="none" stroke="#404040" d="M91.7061,-127.404C89.2489,-116.63 86.3515,-103.926 83.5456,-91.6231"/>
<polygon fill="none" stroke="#404040" points="83.4583,-91.2401 78.2243,-86.2798 80.79,-79.5406 86.024,-84.5009 83.4583,-91.2401"/>
<text text-anchor="middle" x="110" y="-101" font-family="Helvetica,sans-Serif" font-size="10.00"> +nodeId</text>
</g>
</g>
</svg>
