<?xml version="1.0" encoding="UTF-8" standalone="no"?>
<!DOCTYPE svg PUBLIC "-//W3C//DTD SVG 1.1//EN"
 "http://www.w3.org/Graphics/SVG/1.1/DTD/svg11.dtd">
<!-- Generated by graphviz version 2.38.0 (20140413.2041)
 -->
<!-- Title: /home/travis/build/STORM&#45;IRIT/Radium&#45;Engine/src/Engine/Managers/SystemDisplay/SystemDisplay.hpp Pages: 1 -->
<svg width="1863pt" height="542pt"
 viewBox="0.00 0.00 1863.00 542.00" xmlns="http://www.w3.org/2000/svg" xmlns:xlink="http://www.w3.org/1999/xlink">
<g id="graph0" class="graph" transform="scale(1 1) rotate(0) translate(4 538)">
<title>/home/travis/build/STORM&#45;IRIT/Radium&#45;Engine/src/Engine/Managers/SystemDisplay/SystemDisplay.hpp</title>
<polygon fill="white" stroke="none" points="-4,4 -4,-538 1859,-538 1859,4 -4,4"/>
<!-- Node1 -->
<g id="node1" class="node"><title>Node1</title>
<polygon fill="#bfbfbf" stroke="black" points="625.5,-481.5 625.5,-533.5 819.5,-533.5 819.5,-481.5 625.5,-481.5"/>
<text text-anchor="start" x="633.5" y="-521.5" font-family="Helvetica,sans-Serif" font-size="10.00">/home/travis/build</text>
<text text-anchor="start" x="633.5" y="-510.5" font-family="Helvetica,sans-Serif" font-size="10.00">/STORM&#45;IRIT/Radium&#45;Engine</text>
<text text-anchor="start" x="633.5" y="-499.5" font-family="Helvetica,sans-Serif" font-size="10.00">/src/Engine/Managers/SystemDisplay</text>
<text text-anchor="middle" x="722.5" y="-488.5" font-family="Helvetica,sans-Serif" font-size="10.00">/SystemDisplay.hpp</text>
</g>
<!-- Node2 -->
<g id="node2" class="node"><title>Node2</title>
<g id="a_node2"><a xlink:href="RaEngine_8hpp.html" target="_top" xlink:title="Engine/RaEngine.hpp">
<polygon fill="white" stroke="black" points="199,-302.5 199,-321.5 316,-321.5 316,-302.5 199,-302.5"/>
<text text-anchor="middle" x="257.5" y="-309.5" font-family="Helvetica,sans-Serif" font-size="10.00">Engine/RaEngine.hpp</text>
</a>
</g>
</g>
<!-- Node1&#45;&gt;Node2 -->
<g id="edge1" class="edge"><title>Node1&#45;&gt;Node2</title>
<path fill="none" stroke="midnightblue" d="M625.314,-482.587C547.424,-461.242 436.783,-425.937 347.5,-378 320.893,-363.714 293.14,-342.566 275.612,-328.307"/>
<polygon fill="midnightblue" stroke="midnightblue" points="277.376,-325.224 267.438,-321.552 272.917,-330.62 277.376,-325.224"/>
</g>
<!-- Node9 -->
<g id="node9" class="node"><title>Node9</title>
<g id="a_node9"><a xlink:href="ColorPresets_8hpp.html" target="_top" xlink:title="Core/Math/ColorPresets.hpp">
<polygon fill="white" stroke="black" points="595,-420 595,-439 746,-439 746,-420 595,-420"/>
<text text-anchor="middle" x="670.5" y="-427" font-family="Helvetica,sans-Serif" font-size="10.00">Core/Math/ColorPresets.hpp</text>
</a>
</g>
</g>
<!-- Node1&#45;&gt;Node9 -->
<g id="edge8" class="edge"><title>Node1&#45;&gt;Node9</title>
<path fill="none" stroke="midnightblue" d="M705.185,-481.193C697.662,-470.198 689.043,-457.602 682.279,-447.716"/>
<polygon fill="midnightblue" stroke="midnightblue" points="684.994,-445.486 676.459,-439.209 679.217,-449.438 684.994,-445.486"/>
</g>
<!-- Node23 -->
<g id="node23" class="node"><title>Node23</title>
<g id="a_node23"><a xlink:href="Singleton_8hpp.html" target="_top" xlink:title="Core/Utils/Singleton.hpp">
<polygon fill="white" stroke="black" points="1390.5,-420 1390.5,-439 1522.5,-439 1522.5,-420 1390.5,-420"/>
<text text-anchor="middle" x="1456.5" y="-427" font-family="Helvetica,sans-Serif" font-size="10.00">Core/Utils/Singleton.hpp</text>
</a>
</g>
</g>
<!-- Node1&#45;&gt;Node23 -->
<g id="edge25" class="edge"><title>Node1&#45;&gt;Node23</title>
<path fill="none" stroke="midnightblue" d="M819.591,-496.447C967.401,-481.142 1245.84,-452.312 1380.18,-438.402"/>
<polygon fill="midnightblue" stroke="midnightblue" points="1380.79,-441.858 1390.38,-437.346 1380.07,-434.895 1380.79,-441.858"/>
</g>
<!-- Node24 -->
<g id="node24" class="node"><title>Node24</title>
<g id="a_node24"><a xlink:href="Component_8hpp.html" target="_top" xlink:title="Engine/Component/Component.hpp">
<polygon fill="white" stroke="black" points="356.5,-358.5 356.5,-377.5 544.5,-377.5 544.5,-358.5 356.5,-358.5"/>
<text text-anchor="middle" x="450.5" y="-365.5" font-family="Helvetica,sans-Serif" font-size="10.00">Engine/Component/Component.hpp</text>
</a>
</g>
</g>
<!-- Node1&#45;&gt;Node24 -->
<g id="edge27" class="edge"><title>Node1&#45;&gt;Node24</title>
<path fill="none" stroke="midnightblue" d="M663.619,-481.469C639.211,-470.733 610.754,-457.744 585.5,-445 545.508,-424.819 500.414,-398.73 473.782,-382.961"/>
<polygon fill="midnightblue" stroke="midnightblue" points="475.233,-379.752 464.849,-377.649 471.655,-385.769 475.233,-379.752"/>
</g>
<!-- Node31 -->
<g id="node31" class="node"><title>Node31</title>
<g id="a_node31"><a xlink:href="Entity_8hpp.html" target="_top" xlink:title="Engine/Entity/Entity.hpp">
<polygon fill="white" stroke="black" points="710.5,-358.5 710.5,-377.5 838.5,-377.5 838.5,-358.5 710.5,-358.5"/>
<text text-anchor="middle" x="774.5" y="-365.5" font-family="Helvetica,sans-Serif" font-size="10.00">Engine/Entity/Entity.hpp</text>
</a>
</g>
</g>
<!-- Node1&#45;&gt;Node31 -->
<g id="edge41" class="edge"><title>Node1&#45;&gt;Node31</title>
<path fill="none" stroke="midnightblue" d="M737.199,-481.358C743.151,-470.442 749.73,-457.351 754.5,-445 761.857,-425.95 767.448,-403.197 770.823,-387.583"/>
<polygon fill="midnightblue" stroke="midnightblue" points="774.283,-388.131 772.882,-377.63 767.429,-386.713 774.283,-388.131"/>
</g>
<!-- Node36 -->
<g id="node36" class="node"><title>Node36</title>
<g id="a_node36"><a xlink:href="DrawPrimitives_8hpp.html" target="_top" xlink:title="Engine/Renderer/RenderObject\l/Primitives/DrawPrimitives.hpp">
<polygon fill="white" stroke="black" points="984,-414.5 984,-444.5 1145,-444.5 1145,-414.5 984,-414.5"/>
<text text-anchor="start" x="992" y="-432.5" font-family="Helvetica,sans-Serif" font-size="10.00">Engine/Renderer/RenderObject</text>
<text text-anchor="middle" x="1064.5" y="-421.5" font-family="Helvetica,sans-Serif" font-size="10.00">/Primitives/DrawPrimitives.hpp</text>
</a>
</g>
</g>
<!-- Node1&#45;&gt;Node36 -->
<g id="edge52" class="edge"><title>Node1&#45;&gt;Node36</title>
<path fill="none" stroke="midnightblue" d="M819.589,-484.925C874.297,-472.767 941.504,-457.832 991.667,-446.685"/>
<polygon fill="midnightblue" stroke="midnightblue" points="992.461,-450.094 1001.46,-444.508 990.943,-443.261 992.461,-450.094"/>
</g>
<!-- Node3 -->
<g id="node3" class="node"><title>Node3</title>
<g id="a_node3"><a xlink:href="CoreMacros_8hpp.html" target="_top" xlink:title="Core/CoreMacros.hpp">
<polygon fill="white" stroke="black" points="373.5,-56.5 373.5,-75.5 493.5,-75.5 493.5,-56.5 373.5,-56.5"/>
<text text-anchor="middle" x="433.5" y="-63.5" font-family="Helvetica,sans-Serif" font-size="10.00">Core/CoreMacros.hpp</text>
</a>
</g>
</g>
<!-- Node2&#45;&gt;Node3 -->
<g id="edge2" class="edge"><title>Node2&#45;&gt;Node3</title>
<path fill="none" stroke="midnightblue" d="M316.23,-309.528C349.864,-305.393 389.942,-294.251 413.5,-266 457.218,-213.573 445.585,-124.31 437.831,-85.7054"/>
<polygon fill="midnightblue" stroke="midnightblue" points="441.233,-84.8767 435.706,-75.8381 434.39,-86.3509 441.233,-84.8767"/>
</g>
<!-- Node4 -->
<g id="node4" class="node"><title>Node4</title>
<polygon fill="white" stroke="#bfbfbf" points="443.5,-0.5 443.5,-19.5 495.5,-19.5 495.5,-0.5 443.5,-0.5"/>
<text text-anchor="middle" x="469.5" y="-7.5" font-family="Helvetica,sans-Serif" font-size="10.00">cassert</text>
</g>
<!-- Node3&#45;&gt;Node4 -->
<g id="edge3" class="edge"><title>Node3&#45;&gt;Node4</title>
<path fill="none" stroke="midnightblue" d="M439.445,-56.083C444.477,-48.5341 451.837,-37.4948 458.013,-28.2298"/>
<polygon fill="midnightblue" stroke="midnightblue" points="461.031,-30.0131 463.666,-19.7511 455.207,-26.1301 461.031,-30.0131"/>
</g>
<!-- Node5 -->
<g id="node5" class="node"><title>Node5</title>
<polygon fill="white" stroke="#bfbfbf" points="514,-0.5 514,-19.5 559,-19.5 559,-0.5 514,-0.5"/>
<text text-anchor="middle" x="536.5" y="-7.5" font-family="Helvetica,sans-Serif" font-size="10.00">cstdio</text>
</g>
<!-- Node3&#45;&gt;Node5 -->
<g id="edge4" class="edge"><title>Node3&#45;&gt;Node5</title>
<path fill="none" stroke="midnightblue" d="M450.049,-56.324C466.492,-47.7034 491.935,-34.3643 510.968,-24.3855"/>
<polygon fill="midnightblue" stroke="midnightblue" points="512.761,-27.3977 519.992,-19.6545 509.511,-21.198 512.761,-27.3977"/>
</g>
<!-- Node6 -->
<g id="node6" class="node"><title>Node6</title>
<polygon fill="white" stroke="#bfbfbf" points="292,-0.5 292,-19.5 351,-19.5 351,-0.5 292,-0.5"/>
<text text-anchor="middle" x="321.5" y="-7.5" font-family="Helvetica,sans-Serif" font-size="10.00">iostream</text>
</g>
<!-- Node3&#45;&gt;Node6 -->
<g id="edge5" class="edge"><title>Node3&#45;&gt;Node6</title>
<path fill="none" stroke="midnightblue" d="M415.505,-56.324C397.462,-47.6247 369.453,-34.1202 348.697,-24.113"/>
<polygon fill="midnightblue" stroke="midnightblue" points="349.978,-20.8449 339.45,-19.6545 346.938,-27.1502 349.978,-20.8449"/>
</g>
<!-- Node7 -->
<g id="node7" class="node"><title>Node7</title>
<polygon fill="white" stroke="#bfbfbf" points="369.5,-0.5 369.5,-19.5 425.5,-19.5 425.5,-0.5 369.5,-0.5"/>
<text text-anchor="middle" x="397.5" y="-7.5" font-family="Helvetica,sans-Serif" font-size="10.00">sstream</text>
</g>
<!-- Node3&#45;&gt;Node7 -->
<g id="edge6" class="edge"><title>Node3&#45;&gt;Node7</title>
<path fill="none" stroke="midnightblue" d="M427.555,-56.083C422.523,-48.5341 415.163,-37.4948 408.987,-28.2298"/>
<polygon fill="midnightblue" stroke="midnightblue" points="411.793,-26.1301 403.334,-19.7511 405.969,-30.0131 411.793,-26.1301"/>
</g>
<!-- Node8 -->
<g id="node8" class="node"><title>Node8</title>
<polygon fill="white" stroke="#bfbfbf" points="204.5,-0.5 204.5,-19.5 252.5,-19.5 252.5,-0.5 204.5,-0.5"/>
<text text-anchor="middle" x="228.5" y="-7.5" font-family="Helvetica,sans-Serif" font-size="10.00">thread</text>
</g>
<!-- Node3&#45;&gt;Node8 -->
<g id="edge7" class="edge"><title>Node3&#45;&gt;Node8</title>
<path fill="none" stroke="midnightblue" d="M401.017,-56.4435C363.086,-46.4518 300.649,-30.0051 262.202,-19.8775"/>
<polygon fill="midnightblue" stroke="midnightblue" points="263.066,-16.4857 252.504,-17.323 261.282,-23.2548 263.066,-16.4857"/>
</g>
<!-- Node10 -->
<g id="node10" class="node"><title>Node10</title>
<g id="a_node10"><a xlink:href="LinearAlgebra_8hpp.html" target="_top" xlink:title="Core/Math/LinearAlgebra.hpp">
<polygon fill="white" stroke="black" points="909.5,-241 909.5,-260 1065.5,-260 1065.5,-241 909.5,-241"/>
<text text-anchor="middle" x="987.5" y="-248" font-family="Helvetica,sans-Serif" font-size="10.00">Core/Math/LinearAlgebra.hpp</text>
</a>
</g>
</g>
<!-- Node9&#45;&gt;Node10 -->
<g id="edge9" class="edge"><title>Node9&#45;&gt;Node10</title>
<path fill="none" stroke="midnightblue" d="M721.65,-419.948C807.194,-404.471 973.217,-369.009 1006.5,-322 1017.78,-306.064 1008.61,-283.782 999.512,-268.56"/>
<polygon fill="midnightblue" stroke="midnightblue" points="1002.42,-266.604 994.041,-260.114 996.54,-270.41 1002.42,-266.604"/>
</g>
<!-- Node22 -->
<g id="node22" class="node"><title>Node22</title>
<polygon fill="white" stroke="#bfbfbf" points="562.5,-358.5 562.5,-377.5 616.5,-377.5 616.5,-358.5 562.5,-358.5"/>
<text text-anchor="middle" x="589.5" y="-365.5" font-family="Helvetica,sans-Serif" font-size="10.00">random</text>
</g>
<!-- Node9&#45;&gt;Node22 -->
<g id="edge24" class="edge"><title>Node9&#45;&gt;Node22</title>
<path fill="none" stroke="midnightblue" d="M658.895,-419.975C646.023,-410.52 625.026,-395.096 609.494,-383.687"/>
<polygon fill="midnightblue" stroke="midnightblue" points="611.215,-380.608 601.084,-377.509 607.071,-386.25 611.215,-380.608"/>
</g>
<!-- Node11 -->
<g id="node11" class="node"><title>Node11</title>
<g id="a_node11"><a xlink:href="RaCore_8hpp.html" target="_top" xlink:title="Core/RaCore.hpp">
<polygon fill="white" stroke="black" points="1295.5,-112.5 1295.5,-131.5 1393.5,-131.5 1393.5,-112.5 1295.5,-112.5"/>
<text text-anchor="middle" x="1344.5" y="-119.5" font-family="Helvetica,sans-Serif" font-size="10.00">Core/RaCore.hpp</text>
</a>
</g>
</g>
<!-- Node10&#45;&gt;Node11 -->
<g id="edge10" class="edge"><title>Node10&#45;&gt;Node11</title>
<path fill="none" stroke="midnightblue" d="M1043,-240.994C1105.16,-230.978 1201.64,-213.828 1235.5,-199 1257.08,-189.549 1259.21,-181.526 1278.5,-168 1293.45,-157.52 1310.47,-145.921 1323.49,-137.123"/>
<polygon fill="midnightblue" stroke="midnightblue" points="1325.45,-140.022 1331.78,-131.529 1321.53,-134.219 1325.45,-140.022"/>
</g>
<!-- Node12 -->
<g id="node12" class="node"><title>Node12</title>
<polygon fill="white" stroke="#bfbfbf" points="649.5,-174 649.5,-193 717.5,-193 717.5,-174 649.5,-174"/>
<text text-anchor="middle" x="683.5" y="-181" font-family="Helvetica,sans-Serif" font-size="10.00">Eigen/Core</text>
</g>
<!-- Node10&#45;&gt;Node12 -->
<g id="edge12" class="edge"><title>Node10&#45;&gt;Node12</title>
<path fill="none" stroke="midnightblue" d="M932.023,-240.985C878.852,-232.303 796.558,-217.501 726.5,-199 723.301,-198.155 719.994,-197.197 716.701,-196.186"/>
<polygon fill="midnightblue" stroke="midnightblue" points="717.576,-192.791 706.984,-193.053 715.427,-199.453 717.576,-192.791"/>
</g>
<!-- Node13 -->
<g id="node13" class="node"><title>Node13</title>
<polygon fill="white" stroke="#bfbfbf" points="537.5,-174 537.5,-193 631.5,-193 631.5,-174 537.5,-174"/>
<text text-anchor="middle" x="584.5" y="-181" font-family="Helvetica,sans-Serif" font-size="10.00">Eigen/Geometry</text>
</g>
<!-- Node10&#45;&gt;Node13 -->
<g id="edge13" class="edge"><title>Node10&#45;&gt;Node13</title>
<path fill="none" stroke="midnightblue" d="M912.638,-240.995C842.086,-232.416 733.596,-217.769 640.5,-199 635.401,-197.972 630.072,-196.766 624.816,-195.497"/>
<polygon fill="midnightblue" stroke="midnightblue" points="625.428,-192.042 614.878,-193.008 623.728,-198.832 625.428,-192.042"/>
</g>
<!-- Node14 -->
<g id="node14" class="node"><title>Node14</title>
<polygon fill="white" stroke="#bfbfbf" points="735.5,-174 735.5,-193 815.5,-193 815.5,-174 735.5,-174"/>
<text text-anchor="middle" x="775.5" y="-181" font-family="Helvetica,sans-Serif" font-size="10.00">Eigen/Sparse</text>
</g>
<!-- Node10&#45;&gt;Node14 -->
<g id="edge14" class="edge"><title>Node10&#45;&gt;Node14</title>
<path fill="none" stroke="midnightblue" d="M959.348,-240.869C921.705,-229.327 854.871,-208.835 812.993,-195.996"/>
<polygon fill="midnightblue" stroke="midnightblue" points="814.017,-192.649 803.431,-193.064 811.965,-199.341 814.017,-192.649"/>
</g>
<!-- Node15 -->
<g id="node15" class="node"><title>Node15</title>
<polygon fill="white" stroke="#bfbfbf" points="834,-174 834,-193 897,-193 897,-174 834,-174"/>
<text text-anchor="middle" x="865.5" y="-181" font-family="Helvetica,sans-Serif" font-size="10.00">functional</text>
</g>
<!-- Node10&#45;&gt;Node15 -->
<g id="edge15" class="edge"><title>Node10&#45;&gt;Node15</title>
<path fill="none" stroke="midnightblue" d="M971.299,-240.869C950.7,-229.893 914.909,-210.824 890.723,-197.938"/>
<polygon fill="midnightblue" stroke="midnightblue" points="892.239,-194.78 881.768,-193.167 888.947,-200.958 892.239,-194.78"/>
</g>
<!-- Node16 -->
<g id="node16" class="node"><title>Node16</title>
<polygon fill="white" stroke="#bfbfbf" points="915,-168.5 915,-198.5 1060,-198.5 1060,-168.5 915,-168.5"/>
<text text-anchor="start" x="923" y="-186.5" font-family="Helvetica,sans-Serif" font-size="10.00">unsupported/Eigen/Aligned</text>
<text text-anchor="middle" x="987.5" y="-175.5" font-family="Helvetica,sans-Serif" font-size="10.00">Vector3</text>
</g>
<!-- Node10&#45;&gt;Node16 -->
<g id="edge16" class="edge"><title>Node10&#45;&gt;Node16</title>
<path fill="none" stroke="midnightblue" d="M987.5,-240.734C987.5,-232.541 987.5,-219.923 987.5,-208.714"/>
<polygon fill="midnightblue" stroke="midnightblue" points="991,-208.589 987.5,-198.589 984,-208.589 991,-208.589"/>
</g>
<!-- Node17 -->
<g id="node17" class="node"><title>Node17</title>
<g id="a_node17"><a xlink:href="Math_8hpp.html" target="_top" xlink:title="Core/Math/Math.hpp">
<polygon fill="white" stroke="black" points="1650.5,-174 1650.5,-193 1764.5,-193 1764.5,-174 1650.5,-174"/>
<text text-anchor="middle" x="1707.5" y="-181" font-family="Helvetica,sans-Serif" font-size="10.00">Core/Math/Math.hpp</text>
</a>
</g>
</g>
<!-- Node10&#45;&gt;Node17 -->
<g id="edge17" class="edge"><title>Node10&#45;&gt;Node17</title>
<path fill="none" stroke="midnightblue" d="M1065.58,-242.451C1207.68,-229.623 1506.2,-202.673 1640.05,-190.589"/>
<polygon fill="midnightblue" stroke="midnightblue" points="1640.53,-194.06 1650.17,-189.675 1639.9,-187.089 1640.53,-194.06"/>
</g>
<!-- Node21 -->
<g id="node21" class="node"><title>Node21</title>
<g id="a_node21"><a xlink:href="LinearAlgebra_8inl.html" target="_top" xlink:title="Core/Math/LinearAlgebra.inl">
<polygon fill="white" stroke="black" points="1078,-174 1078,-193 1227,-193 1227,-174 1078,-174"/>
<text text-anchor="middle" x="1152.5" y="-181" font-family="Helvetica,sans-Serif" font-size="10.00">Core/Math/LinearAlgebra.inl</text>
</a>
</g>
</g>
<!-- Node10&#45;&gt;Node21 -->
<g id="edge23" class="edge"><title>Node10&#45;&gt;Node21</title>
<path fill="none" stroke="midnightblue" d="M1009.41,-240.869C1038.09,-229.571 1088.54,-209.696 1121.23,-196.818"/>
<polygon fill="midnightblue" stroke="midnightblue" points="1122.74,-199.985 1130.76,-193.064 1120.17,-193.473 1122.74,-199.985"/>
</g>
<!-- Node11&#45;&gt;Node3 -->
<g id="edge11" class="edge"><title>Node11&#45;&gt;Node3</title>
<path fill="none" stroke="midnightblue" d="M1295.2,-118.078C1143.12,-109.063 680.925,-81.6662 503.699,-71.1611"/>
<polygon fill="midnightblue" stroke="midnightblue" points="503.894,-67.6666 493.704,-70.5687 503.48,-74.6543 503.894,-67.6666"/>
</g>
<!-- Node17&#45;&gt;Node11 -->
<g id="edge18" class="edge"><title>Node17&#45;&gt;Node11</title>
<path fill="none" stroke="midnightblue" d="M1667.39,-173.954C1657.32,-171.907 1646.53,-169.796 1636.5,-168 1556.08,-153.6 1462.69,-139.698 1403.6,-131.249"/>
<polygon fill="midnightblue" stroke="midnightblue" points="1404.1,-127.784 1393.7,-129.839 1403.11,-134.714 1404.1,-127.784"/>
</g>
<!-- Node18 -->
<g id="node18" class="node"><title>Node18</title>
<polygon fill="white" stroke="#bfbfbf" points="1727.5,-112.5 1727.5,-131.5 1789.5,-131.5 1789.5,-112.5 1727.5,-112.5"/>
<text text-anchor="middle" x="1758.5" y="-119.5" font-family="Helvetica,sans-Serif" font-size="10.00">algorithm</text>
</g>
<!-- Node17&#45;&gt;Node18 -->
<g id="edge19" class="edge"><title>Node17&#45;&gt;Node18</title>
<path fill="none" stroke="midnightblue" d="M1714.81,-173.975C1722.53,-164.962 1734.91,-150.525 1744.52,-139.312"/>
<polygon fill="midnightblue" stroke="midnightblue" points="1747.36,-141.379 1751.21,-131.509 1742.04,-136.824 1747.36,-141.379"/>
</g>
<!-- Node19 -->
<g id="node19" class="node"><title>Node19</title>
<polygon fill="white" stroke="#bfbfbf" points="1808,-112.5 1808,-131.5 1855,-131.5 1855,-112.5 1808,-112.5"/>
<text text-anchor="middle" x="1831.5" y="-119.5" font-family="Helvetica,sans-Serif" font-size="10.00">cmath</text>
</g>
<!-- Node17&#45;&gt;Node19 -->
<g id="edge20" class="edge"><title>Node17&#45;&gt;Node19</title>
<path fill="none" stroke="midnightblue" d="M1725.27,-173.975C1745.98,-164.034 1780.45,-147.495 1804.49,-135.961"/>
<polygon fill="midnightblue" stroke="midnightblue" points="1806.27,-138.991 1813.77,-131.509 1803.24,-132.68 1806.27,-138.991"/>
</g>
<!-- Node20 -->
<g id="node20" class="node"><title>Node20</title>
<g id="a_node20"><a xlink:href="Math_8inl.html" target="_top" xlink:title="Core/Math/Math.inl">
<polygon fill="white" stroke="black" points="1603,-112.5 1603,-131.5 1710,-131.5 1710,-112.5 1603,-112.5"/>
<text text-anchor="middle" x="1656.5" y="-119.5" font-family="Helvetica,sans-Serif" font-size="10.00">Core/Math/Math.inl</text>
</a>
</g>
</g>
<!-- Node17&#45;&gt;Node20 -->
<g id="edge21" class="edge"><title>Node17&#45;&gt;Node20</title>
<path fill="none" stroke="midnightblue" d="M1695.29,-173.975C1685.79,-165.138 1673.33,-151.089 1664.89,-139.975"/>
<polygon fill="midnightblue" stroke="midnightblue" points="1667.53,-137.651 1658.9,-131.509 1661.82,-141.694 1667.53,-137.651"/>
</g>
<!-- Node20&#45;&gt;Node17 -->
<g id="edge22" class="edge"><title>Node20&#45;&gt;Node17</title>
<path fill="none" stroke="midnightblue" d="M1668.69,-131.509C1678.19,-140.34 1690.65,-154.388 1699.1,-165.505"/>
<polygon fill="midnightblue" stroke="midnightblue" points="1696.46,-167.835 1705.09,-173.975 1702.17,-163.791 1696.46,-167.835"/>
</g>
<!-- Node23&#45;&gt;Node11 -->
<g id="edge26" class="edge"><title>Node23&#45;&gt;Node11</title>
<path fill="none" stroke="midnightblue" d="M1522.59,-420.046C1598.91,-406.784 1710.76,-374.655 1683.5,-302 1655.73,-227.975 1634.85,-207.73 1566.5,-168 1516.45,-138.911 1450.56,-128.396 1403.59,-124.713"/>
<polygon fill="midnightblue" stroke="midnightblue" points="1403.8,-121.218 1393.57,-124.008 1403.3,-128.201 1403.8,-121.218"/>
</g>
<!-- Node24&#45;&gt;Node2 -->
<g id="edge28" class="edge"><title>Node24&#45;&gt;Node2</title>
<path fill="none" stroke="midnightblue" d="M419.919,-358.444C386.885,-349.201 334.112,-334.436 297.734,-324.257"/>
<polygon fill="midnightblue" stroke="midnightblue" points="298.512,-320.84 287.938,-321.516 296.625,-327.582 298.512,-320.84"/>
</g>
<!-- Node24&#45;&gt;Node10 -->
<g id="edge34" class="edge"><title>Node24&#45;&gt;Node10</title>
<path fill="none" stroke="midnightblue" d="M496.458,-358.482C540.155,-350.124 607.618,-336.545 665.5,-322 696.052,-314.323 702.909,-309.524 733.5,-302 799.398,-285.793 875.887,-271.142 927.569,-261.846"/>
<polygon fill="midnightblue" stroke="midnightblue" points="928.337,-265.265 937.565,-260.06 927.105,-258.374 928.337,-265.265"/>
</g>
<!-- Node25 -->
<g id="node25" class="node"><title>Node25</title>
<g id="a_node25"><a xlink:href="IndexedObject_8hpp.html" target="_top" xlink:title="Core/Index/IndexedObject.hpp">
<polygon fill="white" stroke="black" points="372.5,-302.5 372.5,-321.5 532.5,-321.5 532.5,-302.5 372.5,-302.5"/>
<text text-anchor="middle" x="452.5" y="-309.5" font-family="Helvetica,sans-Serif" font-size="10.00">Core/Index/IndexedObject.hpp</text>
</a>
</g>
</g>
<!-- Node24&#45;&gt;Node25 -->
<g id="edge29" class="edge"><title>Node24&#45;&gt;Node25</title>
<path fill="none" stroke="midnightblue" d="M450.83,-358.083C451.092,-351.006 451.468,-340.861 451.797,-331.986"/>
<polygon fill="midnightblue" stroke="midnightblue" points="455.303,-331.874 452.176,-321.751 448.308,-331.615 455.303,-331.874"/>
</g>
<!-- Node29 -->
<g id="node29" class="node"><title>Node29</title>
<g id="a_node29"><a xlink:href="Ray_8hpp.html" target="_top" xlink:title="Core/Math/Ray.hpp">
<polygon fill="white" stroke="black" points="550.5,-302.5 550.5,-321.5 656.5,-321.5 656.5,-302.5 550.5,-302.5"/>
<text text-anchor="middle" x="603.5" y="-309.5" font-family="Helvetica,sans-Serif" font-size="10.00">Core/Math/Ray.hpp</text>
</a>
</g>
</g>
<!-- Node24&#45;&gt;Node29 -->
<g id="edge35" class="edge"><title>Node24&#45;&gt;Node29</title>
<path fill="none" stroke="midnightblue" d="M474.743,-358.444C500.371,-349.399 540.985,-335.064 569.738,-324.916"/>
<polygon fill="midnightblue" stroke="midnightblue" points="571.105,-328.145 579.37,-321.516 568.775,-321.544 571.105,-328.145"/>
</g>
<!-- Node30 -->
<g id="node30" class="node"><title>Node30</title>
<g id="a_node30"><a xlink:href="Component_8inl.html" target="_top" xlink:title="Engine/Component/Component.inl">
<polygon fill="white" stroke="black" points="0,-302.5 0,-321.5 181,-321.5 181,-302.5 0,-302.5"/>
<text text-anchor="middle" x="90.5" y="-309.5" font-family="Helvetica,sans-Serif" font-size="10.00">Engine/Component/Component.inl</text>
</a>
</g>
</g>
<!-- Node24&#45;&gt;Node30 -->
<g id="edge39" class="edge"><title>Node24&#45;&gt;Node30</title>
<path fill="none" stroke="midnightblue" d="M388.368,-358.444C322.277,-348.846 218.479,-333.292 152.457,-323.104"/>
<polygon fill="midnightblue" stroke="midnightblue" points="152.614,-319.586 142.196,-321.516 151.544,-326.504 152.614,-319.586"/>
</g>
<!-- Node25&#45;&gt;Node11 -->
<g id="edge33" class="edge"><title>Node25&#45;&gt;Node11</title>
<path fill="none" stroke="midnightblue" d="M453.167,-302.326C455.659,-276.629 466.848,-200.665 513.5,-168 576.267,-124.052 1105.61,-122.039 1285.19,-122.64"/>
<polygon fill="midnightblue" stroke="midnightblue" points="1285.23,-126.14 1295.24,-122.677 1285.26,-119.14 1285.23,-126.14"/>
</g>
<!-- Node26 -->
<g id="node26" class="node"><title>Node26</title>
<g id="a_node26"><a xlink:href="Index_8hpp.html" target="_top" xlink:title="Core/Index/Index.hpp">
<polygon fill="white" stroke="black" points="288,-241 288,-260 405,-260 405,-241 288,-241"/>
<text text-anchor="middle" x="346.5" y="-248" font-family="Helvetica,sans-Serif" font-size="10.00">Core/Index/Index.hpp</text>
</a>
</g>
</g>
<!-- Node25&#45;&gt;Node26 -->
<g id="edge30" class="edge"><title>Node25&#45;&gt;Node26</title>
<path fill="none" stroke="midnightblue" d="M437.313,-302.475C419.838,-292.666 390.921,-276.435 370.417,-264.925"/>
<polygon fill="midnightblue" stroke="midnightblue" points="372.092,-261.852 361.659,-260.009 368.666,-267.956 372.092,-261.852"/>
</g>
<!-- Node27 -->
<g id="node27" class="node"><title>Node27</title>
<polygon fill="white" stroke="#bfbfbf" points="235.5,-174 235.5,-193 277.5,-193 277.5,-174 235.5,-174"/>
<text text-anchor="middle" x="256.5" y="-181" font-family="Helvetica,sans-Serif" font-size="10.00">limits</text>
</g>
<!-- Node26&#45;&gt;Node27 -->
<g id="edge31" class="edge"><title>Node26&#45;&gt;Node27</title>
<path fill="none" stroke="midnightblue" d="M334.362,-240.734C319.653,-230.111 294.644,-212.049 276.943,-199.264"/>
<polygon fill="midnightblue" stroke="midnightblue" points="278.602,-196.145 268.445,-193.127 274.503,-201.82 278.602,-196.145"/>
</g>
<!-- Node28 -->
<g id="node28" class="node"><title>Node28</title>
<g id="a_node28"><a xlink:href="Index_8inl.html" target="_top" xlink:title="Core/Index/Index.inl">
<polygon fill="white" stroke="black" points="295.5,-174 295.5,-193 405.5,-193 405.5,-174 295.5,-174"/>
<text text-anchor="middle" x="350.5" y="-181" font-family="Helvetica,sans-Serif" font-size="10.00">Core/Index/Index.inl</text>
</a>
</g>
</g>
<!-- Node26&#45;&gt;Node28 -->
<g id="edge32" class="edge"><title>Node26&#45;&gt;Node28</title>
<path fill="none" stroke="midnightblue" d="M347.039,-240.734C347.627,-231.183 348.585,-215.618 349.344,-203.283"/>
<polygon fill="midnightblue" stroke="midnightblue" points="352.848,-203.323 349.969,-193.127 345.861,-202.893 352.848,-203.323"/>
</g>
<!-- Node29&#45;&gt;Node10 -->
<g id="edge37" class="edge"><title>Node29&#45;&gt;Node10</title>
<path fill="none" stroke="midnightblue" d="M656.894,-302.727C726.273,-291.977 847.356,-273.215 922.15,-261.626"/>
<polygon fill="midnightblue" stroke="midnightblue" points="923.04,-265.03 932.386,-260.04 921.968,-258.112 923.04,-265.03"/>
</g>
<!-- Node29&#45;&gt;Node11 -->
<g id="edge36" class="edge"><title>Node29&#45;&gt;Node11</title>
<path fill="none" stroke="midnightblue" d="M592.351,-302.27C562.982,-278.284 488.42,-210.352 528.5,-168 554.463,-140.566 1101.98,-127.634 1285.3,-124.061"/>
<polygon fill="midnightblue" stroke="midnightblue" points="1285.37,-127.561 1295.3,-123.869 1285.23,-120.562 1285.37,-127.561"/>
</g>
<!-- Node29&#45;&gt;Node13 -->
<g id="edge38" class="edge"><title>Node29&#45;&gt;Node13</title>
<path fill="none" stroke="midnightblue" d="M602.194,-302.305C599.143,-281.994 591.492,-231.053 587.32,-203.277"/>
<polygon fill="midnightblue" stroke="midnightblue" points="590.762,-202.625 585.815,-193.256 583.839,-203.665 590.762,-202.625"/>
</g>
<!-- Node30&#45;&gt;Node24 -->
<g id="edge40" class="edge"><title>Node30&#45;&gt;Node24</title>
<path fill="none" stroke="midnightblue" d="M152.356,-321.516C218.342,-331.098 322.14,-346.651 388.268,-356.854"/>
<polygon fill="midnightblue" stroke="midnightblue" points="388.128,-360.374 398.546,-358.444 389.198,-353.456 388.128,-360.374"/>
</g>
<!-- Node31&#45;&gt;Node2 -->
<g id="edge42" class="edge"><title>Node31&#45;&gt;Node2</title>
<path fill="none" stroke="midnightblue" d="M710.485,-360.951C624.15,-352.693 465.625,-337.175 330.5,-322 329.033,-321.835 327.549,-321.667 326.054,-321.496"/>
<polygon fill="midnightblue" stroke="midnightblue" points="326.395,-318.012 316.058,-320.333 325.586,-324.965 326.395,-318.012"/>
</g>
<!-- Node31&#45;&gt;Node8 -->
<g id="edge45" class="edge"><title>Node31&#45;&gt;Node8</title>
<path fill="none" stroke="midnightblue" d="M710.484,-361.656C603.118,-352.444 395.324,-333.466 363.5,-322 342.219,-314.333 295.102,-281.363 278.5,-266 250.834,-240.398 238.715,-234.66 226.5,-199 206.259,-139.907 217.397,-64.1072 224.311,-29.5994"/>
<polygon fill="midnightblue" stroke="midnightblue" points="227.789,-30.0725 226.443,-19.5635 220.942,-28.6181 227.789,-30.0725"/>
</g>
<!-- Node31&#45;&gt;Node10 -->
<g id="edge48" class="edge"><title>Node31&#45;&gt;Node10</title>
<path fill="none" stroke="midnightblue" d="M764.173,-358.321C749.763,-345.172 726.942,-319.85 741.5,-302 761.37,-277.636 836.928,-264.696 899.121,-258.041"/>
<polygon fill="midnightblue" stroke="midnightblue" points="899.782,-261.491 909.372,-256.987 899.066,-254.528 899.782,-261.491"/>
</g>
<!-- Node31&#45;&gt;Node25 -->
<g id="edge47" class="edge"><title>Node31&#45;&gt;Node25</title>
<path fill="none" stroke="midnightblue" d="M723.478,-358.444C666.482,-348.885 574.261,-333.419 513.5,-323.23"/>
<polygon fill="midnightblue" stroke="midnightblue" points="513.724,-319.719 503.283,-321.516 512.567,-326.622 513.724,-319.719"/>
</g>
<!-- Node31&#45;&gt;Node29 -->
<g id="edge49" class="edge"><title>Node31&#45;&gt;Node29</title>
<path fill="none" stroke="midnightblue" d="M747.405,-358.444C718.512,-349.32 672.575,-334.813 640.395,-324.651"/>
<polygon fill="midnightblue" stroke="midnightblue" points="641.059,-321.19 630.469,-321.516 638.951,-327.865 641.059,-321.19"/>
</g>
<!-- Node32 -->
<g id="node32" class="node"><title>Node32</title>
<polygon fill="white" stroke="#bfbfbf" points="951,-302.5 951,-321.5 998,-321.5 998,-302.5 951,-302.5"/>
<text text-anchor="middle" x="974.5" y="-309.5" font-family="Helvetica,sans-Serif" font-size="10.00">mutex</text>
</g>
<!-- Node31&#45;&gt;Node32 -->
<g id="edge43" class="edge"><title>Node31&#45;&gt;Node32</title>
<path fill="none" stroke="midnightblue" d="M806.212,-358.486C837.842,-349.987 888.08,-336.469 940.834,-322.175"/>
<polygon fill="midnightblue" stroke="midnightblue" points="941.973,-325.492 950.709,-319.498 940.142,-318.736 941.973,-325.492"/>
</g>
<!-- Node33 -->
<g id="node33" class="node"><title>Node33</title>
<polygon fill="white" stroke="#bfbfbf" points="750.5,-302.5 750.5,-321.5 794.5,-321.5 794.5,-302.5 750.5,-302.5"/>
<text text-anchor="middle" x="772.5" y="-309.5" font-family="Helvetica,sans-Serif" font-size="10.00">string</text>
</g>
<!-- Node31&#45;&gt;Node33 -->
<g id="edge44" class="edge"><title>Node31&#45;&gt;Node33</title>
<path fill="none" stroke="midnightblue" d="M774.17,-358.083C773.908,-351.006 773.532,-340.861 773.203,-331.986"/>
<polygon fill="midnightblue" stroke="midnightblue" points="776.692,-331.615 772.824,-321.751 769.697,-331.874 776.692,-331.615"/>
</g>
<!-- Node34 -->
<g id="node34" class="node"><title>Node34</title>
<polygon fill="white" stroke="#bfbfbf" points="1321,-174 1321,-193 1368,-193 1368,-174 1321,-174"/>
<text text-anchor="middle" x="1344.5" y="-181" font-family="Helvetica,sans-Serif" font-size="10.00">vector</text>
</g>
<!-- Node31&#45;&gt;Node34 -->
<g id="edge46" class="edge"><title>Node31&#45;&gt;Node34</title>
<path fill="none" stroke="midnightblue" d="M838.972,-360.022C886.355,-353.579 951.748,-341.912 1006.5,-322 1081.47,-294.735 1089.69,-265.26 1163.5,-235 1213.09,-214.671 1273.57,-199.636 1310.55,-191.473"/>
<polygon fill="midnightblue" stroke="midnightblue" points="1311.74,-194.795 1320.77,-189.258 1310.26,-187.954 1311.74,-194.795"/>
</g>
<!-- Node35 -->
<g id="node35" class="node"><title>Node35</title>
<g id="a_node35"><a xlink:href="Entity_8inl.html" target="_top" xlink:title="Engine/Entity/Entity.inl">
<polygon fill="white" stroke="black" points="812,-302.5 812,-321.5 933,-321.5 933,-302.5 812,-302.5"/>
<text text-anchor="middle" x="872.5" y="-309.5" font-family="Helvetica,sans-Serif" font-size="10.00">Engine/Entity/Entity.inl</text>
</a>
</g>
</g>
<!-- Node31&#45;&gt;Node35 -->
<g id="edge50" class="edge"><title>Node31&#45;&gt;Node35</title>
<path fill="none" stroke="midnightblue" d="M785.131,-358.324C798.972,-349.664 823.067,-336.242 842.553,-326.249"/>
<polygon fill="midnightblue" stroke="midnightblue" points="844.324,-329.276 851.684,-321.655 841.177,-323.023 844.324,-329.276"/>
</g>
<!-- Node35&#45;&gt;Node31 -->
<g id="edge51" class="edge"><title>Node35&#45;&gt;Node31</title>
<path fill="none" stroke="midnightblue" d="M861.904,-321.655C848.08,-330.307 823.989,-343.727 804.495,-353.726"/>
<polygon fill="midnightblue" stroke="midnightblue" points="802.719,-350.702 795.36,-358.324 805.866,-356.954 802.719,-350.702"/>
</g>
<!-- Node36&#45;&gt;Node2 -->
<g id="edge53" class="edge"><title>Node36&#45;&gt;Node2</title>
<path fill="none" stroke="midnightblue" d="M983.876,-427.68C900.83,-424.717 768.63,-414.043 660.5,-378 643.503,-372.334 642.505,-363.641 625.5,-358 500.133,-316.415 461.601,-338.081 330.5,-322 329.035,-321.82 327.552,-321.638 326.058,-321.455"/>
<polygon fill="midnightblue" stroke="midnightblue" points="326.422,-317.973 316.07,-320.227 325.569,-324.921 326.422,-317.973"/>
</g>
<!-- Node36&#45;&gt;Node10 -->
<g id="edge54" class="edge"><title>Node36&#45;&gt;Node10</title>
<path fill="none" stroke="midnightblue" d="M1064.57,-414.278C1064.12,-389.831 1060.59,-338.91 1040.5,-302 1032.85,-287.946 1019.9,-275.5 1008.72,-266.481"/>
<polygon fill="midnightblue" stroke="midnightblue" points="1010.7,-263.586 1000.63,-260.282 1006.44,-269.142 1010.7,-263.586"/>
</g>
<!-- Node36&#45;&gt;Node29 -->
<g id="edge60" class="edge"><title>Node36&#45;&gt;Node29</title>
<path fill="none" stroke="midnightblue" d="M983.736,-427.476C908.451,-424.175 794.18,-413.09 701.5,-378 670.677,-366.33 639.758,-343.53 621.12,-328.279"/>
<polygon fill="midnightblue" stroke="midnightblue" points="623.152,-325.415 613.239,-321.674 618.656,-330.78 623.152,-325.415"/>
</g>
<!-- Node37 -->
<g id="node37" class="node"><title>Node37</title>
<g id="a_node37"><a xlink:href="Obb_8hpp.html" target="_top" xlink:title="Core/Math/Obb.hpp">
<polygon fill="white" stroke="black" points="1166.5,-302.5 1166.5,-321.5 1276.5,-321.5 1276.5,-302.5 1166.5,-302.5"/>
<text text-anchor="middle" x="1221.5" y="-309.5" font-family="Helvetica,sans-Serif" font-size="10.00">Core/Math/Obb.hpp</text>
</a>
</g>
</g>
<!-- Node36&#45;&gt;Node37 -->
<g id="edge55" class="edge"><title>Node36&#45;&gt;Node37</title>
<path fill="none" stroke="midnightblue" d="M1073.01,-414.402C1082.98,-398.861 1100.81,-373.955 1121.5,-358 1140.2,-343.58 1164.26,-332.569 1184.09,-325.049"/>
<polygon fill="midnightblue" stroke="midnightblue" points="1185.53,-328.247 1193.73,-321.537 1183.14,-321.67 1185.53,-328.247"/>
</g>
<!-- Node39 -->
<g id="node39" class="node"><title>Node39</title>
<g id="a_node39"><a xlink:href="Spline_8hpp.html" target="_top" xlink:title="Core/Math/Spline.hpp">
<polygon fill="white" stroke="black" points="1417,-358.5 1417,-377.5 1536,-377.5 1536,-358.5 1417,-358.5"/>
<text text-anchor="middle" x="1476.5" y="-365.5" font-family="Helvetica,sans-Serif" font-size="10.00">Core/Math/Spline.hpp</text>
</a>
</g>
</g>
<!-- Node36&#45;&gt;Node39 -->
<g id="edge61" class="edge"><title>Node36&#45;&gt;Node39</title>
<path fill="none" stroke="midnightblue" d="M1145.41,-416.816C1221.84,-405.777 1335.25,-389.399 1407.51,-378.963"/>
<polygon fill="midnightblue" stroke="midnightblue" points="1408.03,-382.424 1417.43,-377.531 1407.03,-375.496 1408.03,-382.424"/>
</g>
<!-- Node44 -->
<g id="node44" class="node"><title>Node44</title>
<polygon fill="white" stroke="#bfbfbf" points="1131,-358.5 1131,-377.5 1188,-377.5 1188,-358.5 1131,-358.5"/>
<text text-anchor="middle" x="1159.5" y="-365.5" font-family="Helvetica,sans-Serif" font-size="10.00">memory</text>
</g>
<!-- Node36&#45;&gt;Node44 -->
<g id="edge75" class="edge"><title>Node36&#45;&gt;Node44</title>
<path fill="none" stroke="midnightblue" d="M1087.01,-414.399C1102.1,-404.951 1121.89,-392.559 1136.97,-383.109"/>
<polygon fill="midnightblue" stroke="midnightblue" points="1139.06,-385.932 1145.68,-377.658 1135.34,-380 1139.06,-385.932"/>
</g>
<!-- Node37&#45;&gt;Node10 -->
<g id="edge57" class="edge"><title>Node37&#45;&gt;Node10</title>
<path fill="none" stroke="midnightblue" d="M1187.97,-302.475C1146.62,-291.959 1076.23,-274.062 1030.82,-262.514"/>
<polygon fill="midnightblue" stroke="midnightblue" points="1031.52,-259.081 1020.96,-260.009 1029.79,-265.866 1031.52,-259.081"/>
</g>
<!-- Node37&#45;&gt;Node11 -->
<g id="edge56" class="edge"><title>Node37&#45;&gt;Node11</title>
<path fill="none" stroke="midnightblue" d="M1203.11,-302.471C1189.4,-294.997 1171.69,-282.71 1163.5,-266 1157.44,-253.627 1155.44,-246.177 1163.5,-235 1193.08,-193.954 1228.73,-226.032 1271.5,-199 1296.42,-183.248 1318.9,-157.21 1332.13,-140.079"/>
<polygon fill="midnightblue" stroke="midnightblue" points="1335.29,-141.701 1338.48,-131.6 1329.69,-137.502 1335.29,-141.701"/>
</g>
<!-- Node38 -->
<g id="node38" class="node"><title>Node38</title>
<g id="a_node38"><a xlink:href="Obb_8inl.html" target="_top" xlink:title="Core/Math/Obb.inl">
<polygon fill="white" stroke="black" points="1172.5,-241 1172.5,-260 1274.5,-260 1274.5,-241 1172.5,-241"/>
<text text-anchor="middle" x="1223.5" y="-248" font-family="Helvetica,sans-Serif" font-size="10.00">Core/Math/Obb.inl</text>
</a>
</g>
</g>
<!-- Node37&#45;&gt;Node38 -->
<g id="edge58" class="edge"><title>Node37&#45;&gt;Node38</title>
<path fill="none" stroke="midnightblue" d="M1216.89,-302.475C1215.34,-294.08 1215.31,-280.981 1216.56,-270.163"/>
<polygon fill="midnightblue" stroke="midnightblue" points="1220.06,-270.46 1218.32,-260.009 1213.16,-269.265 1220.06,-270.46"/>
</g>
<!-- Node38&#45;&gt;Node37 -->
<g id="edge59" class="edge"><title>Node38&#45;&gt;Node37</title>
<path fill="none" stroke="midnightblue" d="M1228.11,-260.009C1229.66,-268.398 1229.69,-281.496 1228.44,-292.317"/>
<polygon fill="midnightblue" stroke="midnightblue" points="1224.94,-292.025 1226.69,-302.475 1231.84,-293.218 1224.94,-292.025"/>
</g>
<!-- Node39&#45;&gt;Node11 -->
<g id="edge70" class="edge"><title>Node39&#45;&gt;Node11</title>
<path fill="none" stroke="midnightblue" d="M1484.68,-358.431C1511.95,-328.821 1595.33,-229.279 1545.5,-168 1527.84,-146.282 1456.6,-134.297 1403.93,-128.263"/>
<polygon fill="midnightblue" stroke="midnightblue" points="1403.98,-124.749 1393.66,-127.135 1403.22,-131.707 1403.98,-124.749"/>
</g>
<!-- Node39&#45;&gt;Node34 -->
<g id="edge71" class="edge"><title>Node39&#45;&gt;Node34</title>
<path fill="none" stroke="midnightblue" d="M1424.34,-358.49C1384.99,-350.882 1335.77,-338.405 1323.5,-322 1296.83,-286.354 1319.46,-230.739 1334.22,-202.403"/>
<polygon fill="midnightblue" stroke="midnightblue" points="1337.48,-203.74 1339.19,-193.285 1331.33,-200.387 1337.48,-203.74"/>
</g>
<!-- Node40 -->
<g id="node40" class="node"><title>Node40</title>
<g id="a_node40"><a xlink:href="VectorArray_8hpp.html" target="_top" xlink:title="Core/Containers/VectorArray.hpp">
<polygon fill="white" stroke="black" points="1333,-302.5 1333,-321.5 1506,-321.5 1506,-302.5 1333,-302.5"/>
<text text-anchor="middle" x="1419.5" y="-309.5" font-family="Helvetica,sans-Serif" font-size="10.00">Core/Containers/VectorArray.hpp</text>
</a>
</g>
</g>
<!-- Node39&#45;&gt;Node40 -->
<g id="edge62" class="edge"><title>Node39&#45;&gt;Node40</title>
<path fill="none" stroke="midnightblue" d="M1467.34,-358.324C1459,-350.42 1446.47,-338.548 1436.32,-328.938"/>
<polygon fill="midnightblue" stroke="midnightblue" points="1438.49,-326.171 1428.82,-321.834 1433.68,-331.252 1438.49,-326.171"/>
</g>
<!-- Node43 -->
<g id="node43" class="node"><title>Node43</title>
<g id="a_node43"><a xlink:href="Spline_8inl.html" target="_top" xlink:title="Core/Math/Spline.inl">
<polygon fill="white" stroke="black" points="1562.5,-302.5 1562.5,-321.5 1674.5,-321.5 1674.5,-302.5 1562.5,-302.5"/>
<text text-anchor="middle" x="1618.5" y="-309.5" font-family="Helvetica,sans-Serif" font-size="10.00">Core/Math/Spline.inl</text>
</a>
</g>
</g>
<!-- Node39&#45;&gt;Node43 -->
<g id="edge72" class="edge"><title>Node39&#45;&gt;Node43</title>
<path fill="none" stroke="midnightblue" d="M1493.91,-358.444C1515.71,-349.399 1553.2,-335.064 1581.46,-324.916"/>
<polygon fill="midnightblue" stroke="midnightblue" points="1582.77,-328.162 1591.02,-321.516 1580.43,-321.566 1582.77,-328.162"/>
</g>
<!-- Node40&#45;&gt;Node10 -->
<g id="edge67" class="edge"><title>Node40&#45;&gt;Node10</title>
<path fill="none" stroke="midnightblue" d="M1357.6,-302.475C1278.77,-291.617 1142.79,-272.888 1059.43,-261.407"/>
<polygon fill="midnightblue" stroke="midnightblue" points="1059.66,-257.906 1049.28,-260.009 1058.71,-264.841 1059.66,-257.906"/>
</g>
<!-- Node40&#45;&gt;Node11 -->
<g id="edge68" class="edge"><title>Node40&#45;&gt;Node11</title>
<path fill="none" stroke="midnightblue" d="M1471.03,-302.44C1492.23,-296.104 1514.77,-285.098 1527.5,-266 1536.31,-252.779 1544.01,-190.029 1526.5,-168 1511.26,-148.832 1451.07,-136.651 1404.02,-129.865"/>
<polygon fill="midnightblue" stroke="midnightblue" points="1404.29,-126.369 1393.9,-128.458 1403.33,-133.302 1404.29,-126.369"/>
</g>
<!-- Node40&#45;&gt;Node34 -->
<g id="edge69" class="edge"><title>Node40&#45;&gt;Node34</title>
<path fill="none" stroke="midnightblue" d="M1402.24,-302.374C1388.72,-294.7 1370.57,-282.189 1360.5,-266 1348.57,-246.817 1345.25,-220.587 1344.47,-203.121"/>
<polygon fill="midnightblue" stroke="midnightblue" points="1347.97,-202.996 1344.26,-193.072 1340.97,-203.143 1347.97,-202.996"/>
</g>
<!-- Node41 -->
<g id="node41" class="node"><title>Node41</title>
<g id="a_node41"><a xlink:href="AlignedStdVector_8hpp.html" target="_top" xlink:title="Core/Containers/AlignedStd\lVector.hpp">
<polygon fill="white" stroke="black" points="1370,-235.5 1370,-265.5 1519,-265.5 1519,-235.5 1370,-235.5"/>
<text text-anchor="start" x="1378" y="-253.5" font-family="Helvetica,sans-Serif" font-size="10.00">Core/Containers/AlignedStd</text>
<text text-anchor="middle" x="1444.5" y="-242.5" font-family="Helvetica,sans-Serif" font-size="10.00">Vector.hpp</text>
</a>
</g>
</g>
<!-- Node40&#45;&gt;Node41 -->
<g id="edge63" class="edge"><title>Node40&#45;&gt;Node41</title>
<path fill="none" stroke="midnightblue" d="M1423.08,-302.475C1426.12,-295.245 1430.62,-284.525 1434.72,-274.779"/>
<polygon fill="midnightblue" stroke="midnightblue" points="1437.96,-276.098 1438.61,-265.523 1431.51,-273.386 1437.96,-276.098"/>
</g>
<!-- Node41&#45;&gt;Node11 -->
<g id="edge64" class="edge"><title>Node41&#45;&gt;Node11</title>
<path fill="none" stroke="midnightblue" d="M1433.42,-235.479C1414.86,-212.001 1377.58,-164.841 1357.69,-139.692"/>
<polygon fill="midnightblue" stroke="midnightblue" points="1360.39,-137.463 1351.45,-131.789 1354.9,-141.804 1360.39,-137.463"/>
</g>
<!-- Node41&#45;&gt;Node34 -->
<g id="edge66" class="edge"><title>Node41&#45;&gt;Node34</title>
<path fill="none" stroke="midnightblue" d="M1422.8,-235.396C1406.03,-224.496 1382.93,-209.479 1366.17,-198.584"/>
<polygon fill="midnightblue" stroke="midnightblue" points="1367.88,-195.522 1357.59,-193.007 1364.06,-201.391 1367.88,-195.522"/>
</g>
<!-- Node42 -->
<g id="node42" class="node"><title>Node42</title>
<polygon fill="white" stroke="#bfbfbf" points="1425,-174 1425,-193 1518,-193 1518,-174 1425,-174"/>
<text text-anchor="middle" x="1471.5" y="-181" font-family="Helvetica,sans-Serif" font-size="10.00">Eigen/StdVector</text>
</g>
<!-- Node41&#45;&gt;Node42 -->
<g id="edge65" class="edge"><title>Node41&#45;&gt;Node42</title>
<path fill="none" stroke="midnightblue" d="M1450.36,-235.396C1454.36,-225.763 1459.7,-212.914 1464.01,-202.537"/>
<polygon fill="midnightblue" stroke="midnightblue" points="1467.28,-203.772 1467.89,-193.195 1460.82,-201.087 1467.28,-203.772"/>
</g>
<!-- Node43&#45;&gt;Node17 -->
<g id="edge74" class="edge"><title>Node43&#45;&gt;Node17</title>
<path fill="none" stroke="midnightblue" d="M1624.62,-302.305C1639.22,-281.543 1676.35,-228.774 1695.57,-201.46"/>
<polygon fill="midnightblue" stroke="midnightblue" points="1698.45,-203.448 1701.34,-193.256 1692.72,-199.42 1698.45,-203.448"/>
</g>
<!-- Node43&#45;&gt;Node39 -->
<g id="edge73" class="edge"><title>Node43&#45;&gt;Node39</title>
<path fill="none" stroke="midnightblue" d="M1601.18,-321.516C1579.43,-330.546 1541.95,-344.879 1513.67,-355.039"/>
<polygon fill="midnightblue" stroke="midnightblue" points="1512.34,-351.797 1504.09,-358.444 1514.68,-358.393 1512.34,-351.797"/>
</g>
</g>
</svg>
