<?xml version="1.0" encoding="UTF-8" standalone="no"?>
<!DOCTYPE svg PUBLIC "-//W3C//DTD SVG 1.1//EN"
 "http://www.w3.org/Graphics/SVG/1.1/DTD/svg11.dtd">
<!-- Generated by graphviz version 2.38.0 (20140413.2041)
 -->
<!-- Title: /home/travis/build/STORM&#45;IRIT/Radium&#45;Engine/src/Core/Tasks/TaskQueue.cpp Pages: 1 -->
<svg width="803pt" height="330pt"
 viewBox="0.00 0.00 802.50 330.00" xmlns="http://www.w3.org/2000/svg" xmlns:xlink="http://www.w3.org/1999/xlink">
<g id="graph0" class="graph" transform="scale(1 1) rotate(0) translate(4 326)">
<title>/home/travis/build/STORM&#45;IRIT/Radium&#45;Engine/src/Core/Tasks/TaskQueue.cpp</title>
<polygon fill="white" stroke="none" points="-4,4 -4,-326 798.5,-326 798.5,4 -4,4"/>
<!-- Node1 -->
<g id="node1" class="node"><title>Node1</title>
<polygon fill="#bfbfbf" stroke="black" points="265.5,-280.5 265.5,-321.5 428.5,-321.5 428.5,-280.5 265.5,-280.5"/>
<text text-anchor="start" x="273.5" y="-309.5" font-family="Helvetica,sans-Serif" font-size="10.00">/home/travis/build</text>
<text text-anchor="start" x="273.5" y="-298.5" font-family="Helvetica,sans-Serif" font-size="10.00">/STORM&#45;IRIT/Radium&#45;Engine</text>
<text text-anchor="middle" x="347" y="-287.5" font-family="Helvetica,sans-Serif" font-size="10.00">/src/Core/Tasks/TaskQueue.cpp</text>
</g>
<!-- Node2 -->
<g id="node2" class="node"><title>Node2</title>
<g id="a_node2"><a xlink:href="Task_8hpp.html" target="_top" xlink:title="Core/Tasks/Task.hpp">
<polygon fill="white" stroke="black" points="89,-224.5 89,-243.5 201,-243.5 201,-224.5 89,-224.5"/>
<text text-anchor="middle" x="145" y="-231.5" font-family="Helvetica,sans-Serif" font-size="10.00">Core/Tasks/Task.hpp</text>
</a>
</g>
</g>
<!-- Node1&#45;&gt;Node2 -->
<g id="edge1" class="edge"><title>Node1&#45;&gt;Node2</title>
<path fill="none" stroke="midnightblue" d="M286.393,-280.498C252.192,-269.493 210.592,-256.106 181.4,-246.713"/>
<polygon fill="midnightblue" stroke="midnightblue" points="182.215,-243.299 171.624,-243.567 180.071,-249.962 182.215,-243.299"/>
</g>
<!-- Node7 -->
<g id="node7" class="node"><title>Node7</title>
<polygon fill="white" stroke="#bfbfbf" points="6.5,-0.5 6.5,-19.5 65.5,-19.5 65.5,-0.5 6.5,-0.5"/>
<text text-anchor="middle" x="36" y="-7.5" font-family="Helvetica,sans-Serif" font-size="10.00">iostream</text>
</g>
<!-- Node1&#45;&gt;Node7 -->
<g id="edge24" class="edge"><title>Node1&#45;&gt;Node7</title>
<path fill="none" stroke="midnightblue" d="M265.232,-292.998C210.665,-285.928 138.474,-271.853 80,-244 38.6401,-224.299 0,-224.812 0,-179 0,-179 0,-179 0,-121 0,-86.9816 15.7442,-49.8497 26.4088,-28.6"/>
<polygon fill="midnightblue" stroke="midnightblue" points="29.6199,-30.0118 31.1449,-19.5273 23.4145,-26.7725 29.6199,-30.0118"/>
</g>
<!-- Node12 -->
<g id="node12" class="node"><title>Node12</title>
<g id="a_node12"><a xlink:href="TaskQueue_8hpp.html" target="_top" xlink:title="Core/Tasks/TaskQueue.hpp">
<polygon fill="white" stroke="black" points="275.5,-224.5 275.5,-243.5 418.5,-243.5 418.5,-224.5 275.5,-224.5"/>
<text text-anchor="middle" x="347" y="-231.5" font-family="Helvetica,sans-Serif" font-size="10.00">Core/Tasks/TaskQueue.hpp</text>
</a>
</g>
</g>
<!-- Node1&#45;&gt;Node12 -->
<g id="edge11" class="edge"><title>Node1&#45;&gt;Node12</title>
<path fill="none" stroke="midnightblue" d="M347,-280.498C347,-272.065 347,-262.235 347,-253.874"/>
<polygon fill="midnightblue" stroke="midnightblue" points="350.5,-253.652 347,-243.652 343.5,-253.653 350.5,-253.652"/>
</g>
<!-- Node20 -->
<g id="node20" class="node"><title>Node20</title>
<polygon fill="white" stroke="#bfbfbf" points="437,-224.5 437,-243.5 499,-243.5 499,-224.5 437,-224.5"/>
<text text-anchor="middle" x="468" y="-231.5" font-family="Helvetica,sans-Serif" font-size="10.00">algorithm</text>
</g>
<!-- Node1&#45;&gt;Node20 -->
<g id="edge23" class="edge"><title>Node1&#45;&gt;Node20</title>
<path fill="none" stroke="midnightblue" d="M383.304,-280.498C402.569,-270.149 425.753,-257.695 442.991,-248.435"/>
<polygon fill="midnightblue" stroke="midnightblue" points="444.74,-251.468 451.893,-243.652 441.427,-245.302 444.74,-251.468"/>
</g>
<!-- Node21 -->
<g id="node21" class="node"><title>Node21</title>
<polygon fill="white" stroke="#bfbfbf" points="517,-224.5 517,-243.5 559,-243.5 559,-224.5 517,-224.5"/>
<text text-anchor="middle" x="538" y="-231.5" font-family="Helvetica,sans-Serif" font-size="10.00">stack</text>
</g>
<!-- Node1&#45;&gt;Node21 -->
<g id="edge25" class="edge"><title>Node1&#45;&gt;Node21</title>
<path fill="none" stroke="midnightblue" d="M404.306,-280.498C438.168,-268.974 479.699,-254.841 507.401,-245.413"/>
<polygon fill="midnightblue" stroke="midnightblue" points="508.603,-248.702 516.942,-242.166 506.347,-242.075 508.603,-248.702"/>
</g>
<!-- Node3 -->
<g id="node3" class="node"><title>Node3</title>
<g id="a_node3"><a xlink:href="RaCore_8hpp.html" target="_top" xlink:title="Core/RaCore.hpp">
<polygon fill="white" stroke="black" points="171,-112.5 171,-131.5 269,-131.5 269,-112.5 171,-112.5"/>
<text text-anchor="middle" x="220" y="-119.5" font-family="Helvetica,sans-Serif" font-size="10.00">Core/RaCore.hpp</text>
</a>
</g>
</g>
<!-- Node2&#45;&gt;Node3 -->
<g id="edge2" class="edge"><title>Node2&#45;&gt;Node3</title>
<path fill="none" stroke="midnightblue" d="M141.164,-224.302C135.986,-211.13 128.54,-185.777 139,-168 147.918,-152.844 163.989,-142.426 179.478,-135.464"/>
<polygon fill="midnightblue" stroke="midnightblue" points="181.056,-138.6 188.977,-131.564 178.397,-132.124 181.056,-138.6"/>
</g>
<!-- Node10 -->
<g id="node10" class="node"><title>Node10</title>
<polygon fill="white" stroke="#bfbfbf" points="28.5,-168.5 28.5,-187.5 91.5,-187.5 91.5,-168.5 28.5,-168.5"/>
<text text-anchor="middle" x="60" y="-175.5" font-family="Helvetica,sans-Serif" font-size="10.00">functional</text>
</g>
<!-- Node2&#45;&gt;Node10 -->
<g id="edge9" class="edge"><title>Node2&#45;&gt;Node10</title>
<path fill="none" stroke="midnightblue" d="M131.343,-224.324C118.084,-215.9 97.732,-202.971 82.1538,-193.074"/>
<polygon fill="midnightblue" stroke="midnightblue" points="83.9404,-190.063 73.6228,-187.655 80.1867,-195.971 83.9404,-190.063"/>
</g>
<!-- Node11 -->
<g id="node11" class="node"><title>Node11</title>
<polygon fill="white" stroke="#bfbfbf" points="148,-168.5 148,-187.5 192,-187.5 192,-168.5 148,-168.5"/>
<text text-anchor="middle" x="170" y="-175.5" font-family="Helvetica,sans-Serif" font-size="10.00">string</text>
</g>
<!-- Node2&#45;&gt;Node11 -->
<g id="edge10" class="edge"><title>Node2&#45;&gt;Node11</title>
<path fill="none" stroke="midnightblue" d="M149.128,-224.083C152.514,-216.77 157.416,-206.181 161.619,-197.103"/>
<polygon fill="midnightblue" stroke="midnightblue" points="164.923,-198.296 165.949,-187.751 158.571,-195.355 164.923,-198.296"/>
</g>
<!-- Node4 -->
<g id="node4" class="node"><title>Node4</title>
<g id="a_node4"><a xlink:href="CoreMacros_8hpp.html" target="_top" xlink:title="Core/CoreMacros.hpp">
<polygon fill="white" stroke="black" points="160,-56.5 160,-75.5 280,-75.5 280,-56.5 160,-56.5"/>
<text text-anchor="middle" x="220" y="-63.5" font-family="Helvetica,sans-Serif" font-size="10.00">Core/CoreMacros.hpp</text>
</a>
</g>
</g>
<!-- Node3&#45;&gt;Node4 -->
<g id="edge3" class="edge"><title>Node3&#45;&gt;Node4</title>
<path fill="none" stroke="midnightblue" d="M220,-112.083C220,-105.006 220,-94.8611 220,-85.9865"/>
<polygon fill="midnightblue" stroke="midnightblue" points="223.5,-85.751 220,-75.7511 216.5,-85.7511 223.5,-85.751"/>
</g>
<!-- Node5 -->
<g id="node5" class="node"><title>Node5</title>
<polygon fill="white" stroke="#bfbfbf" points="194,-0.5 194,-19.5 246,-19.5 246,-0.5 194,-0.5"/>
<text text-anchor="middle" x="220" y="-7.5" font-family="Helvetica,sans-Serif" font-size="10.00">cassert</text>
</g>
<!-- Node4&#45;&gt;Node5 -->
<g id="edge4" class="edge"><title>Node4&#45;&gt;Node5</title>
<path fill="none" stroke="midnightblue" d="M220,-56.083C220,-49.0059 220,-38.8611 220,-29.9865"/>
<polygon fill="midnightblue" stroke="midnightblue" points="223.5,-29.751 220,-19.7511 216.5,-29.7511 223.5,-29.751"/>
</g>
<!-- Node6 -->
<g id="node6" class="node"><title>Node6</title>
<polygon fill="white" stroke="#bfbfbf" points="264.5,-0.5 264.5,-19.5 309.5,-19.5 309.5,-0.5 264.5,-0.5"/>
<text text-anchor="middle" x="287" y="-7.5" font-family="Helvetica,sans-Serif" font-size="10.00">cstdio</text>
</g>
<!-- Node4&#45;&gt;Node6 -->
<g id="edge5" class="edge"><title>Node4&#45;&gt;Node6</title>
<path fill="none" stroke="midnightblue" d="M230.765,-56.324C240.766,-48.2631 255.887,-36.0765 267.93,-26.3695"/>
<polygon fill="midnightblue" stroke="midnightblue" points="270.45,-28.8343 276.039,-19.8339 266.057,-23.3841 270.45,-28.8343"/>
</g>
<!-- Node4&#45;&gt;Node7 -->
<g id="edge6" class="edge"><title>Node4&#45;&gt;Node7</title>
<path fill="none" stroke="midnightblue" d="M190.845,-56.4435C159.487,-47.2406 109.469,-32.5617 74.8034,-22.3879"/>
<polygon fill="midnightblue" stroke="midnightblue" points="75.5999,-18.9742 65.0189,-19.5164 73.6286,-25.6909 75.5999,-18.9742"/>
</g>
<!-- Node8 -->
<g id="node8" class="node"><title>Node8</title>
<polygon fill="white" stroke="#bfbfbf" points="120,-0.5 120,-19.5 176,-19.5 176,-0.5 120,-0.5"/>
<text text-anchor="middle" x="148" y="-7.5" font-family="Helvetica,sans-Serif" font-size="10.00">sstream</text>
</g>
<!-- Node4&#45;&gt;Node8 -->
<g id="edge7" class="edge"><title>Node4&#45;&gt;Node8</title>
<path fill="none" stroke="midnightblue" d="M208.432,-56.324C197.58,-48.1849 181.119,-35.8395 168.117,-26.0874"/>
<polygon fill="midnightblue" stroke="midnightblue" points="169.879,-23.0339 159.779,-19.8339 165.679,-28.6339 169.879,-23.0339"/>
</g>
<!-- Node9 -->
<g id="node9" class="node"><title>Node9</title>
<polygon fill="white" stroke="#bfbfbf" points="451,-0.5 451,-19.5 499,-19.5 499,-0.5 451,-0.5"/>
<text text-anchor="middle" x="475" y="-7.5" font-family="Helvetica,sans-Serif" font-size="10.00">thread</text>
</g>
<!-- Node4&#45;&gt;Node9 -->
<g id="edge8" class="edge"><title>Node4&#45;&gt;Node9</title>
<path fill="none" stroke="midnightblue" d="M260.406,-56.4435C310.28,-45.8819 394.213,-28.1079 440.96,-18.2085"/>
<polygon fill="midnightblue" stroke="midnightblue" points="441.839,-21.6 450.897,-16.1041 440.389,-14.7518 441.839,-21.6"/>
</g>
<!-- Node12&#45;&gt;Node3 -->
<g id="edge12" class="edge"><title>Node12&#45;&gt;Node3</title>
<path fill="none" stroke="midnightblue" d="M304.138,-224.492C281.873,-218 255.868,-206.841 239,-188 227.614,-175.282 223.032,-156.083 221.198,-141.845"/>
<polygon fill="midnightblue" stroke="midnightblue" points="224.665,-141.334 220.239,-131.708 217.697,-141.993 224.665,-141.334"/>
</g>
<!-- Node12&#45;&gt;Node9 -->
<g id="edge18" class="edge"><title>Node12&#45;&gt;Node9</title>
<path fill="none" stroke="midnightblue" d="M413.293,-224.481C478.053,-215.48 568.412,-200.839 579,-188 623.987,-133.449 536.79,-57.1488 495.266,-25.5696"/>
<polygon fill="midnightblue" stroke="midnightblue" points="497.273,-22.7003 487.162,-19.5337 493.091,-28.3141 497.273,-22.7003"/>
</g>
<!-- Node12&#45;&gt;Node11 -->
<g id="edge17" class="edge"><title>Node12&#45;&gt;Node11</title>
<path fill="none" stroke="midnightblue" d="M318.954,-224.444C287.063,-214.714 235.111,-198.864 201.755,-188.688"/>
<polygon fill="midnightblue" stroke="midnightblue" points="202.629,-185.296 192.043,-185.725 200.587,-191.991 202.629,-185.296"/>
</g>
<!-- Node13 -->
<g id="node13" class="node"><title>Node13</title>
<polygon fill="white" stroke="#bfbfbf" points="626.5,-168.5 626.5,-187.5 729.5,-187.5 729.5,-168.5 626.5,-168.5"/>
<text text-anchor="middle" x="678" y="-175.5" font-family="Helvetica,sans-Serif" font-size="10.00">condition_variable</text>
</g>
<!-- Node12&#45;&gt;Node13 -->
<g id="edge13" class="edge"><title>Node12&#45;&gt;Node13</title>
<path fill="none" stroke="midnightblue" d="M399.448,-224.444C458.331,-214.837 553.787,-199.264 616.232,-189.077"/>
<polygon fill="midnightblue" stroke="midnightblue" points="617.036,-192.492 626.342,-187.428 615.909,-185.583 617.036,-192.492"/>
</g>
<!-- Node14 -->
<g id="node14" class="node"><title>Node14</title>
<polygon fill="white" stroke="#bfbfbf" points="747.5,-168.5 747.5,-187.5 794.5,-187.5 794.5,-168.5 747.5,-168.5"/>
<text text-anchor="middle" x="771" y="-175.5" font-family="Helvetica,sans-Serif" font-size="10.00">deque</text>
</g>
<!-- Node12&#45;&gt;Node14 -->
<g id="edge14" class="edge"><title>Node12&#45;&gt;Node14</title>
<path fill="none" stroke="midnightblue" d="M418.939,-224.889C518.914,-213.598 692.03,-193.973 737.284,-187.68"/>
<polygon fill="midnightblue" stroke="midnightblue" points="737.996,-191.111 747.336,-186.111 736.916,-184.195 737.996,-191.111"/>
</g>
<!-- Node15 -->
<g id="node15" class="node"><title>Node15</title>
<polygon fill="white" stroke="#bfbfbf" points="248.5,-168.5 248.5,-187.5 305.5,-187.5 305.5,-168.5 248.5,-168.5"/>
<text text-anchor="middle" x="277" y="-175.5" font-family="Helvetica,sans-Serif" font-size="10.00">memory</text>
</g>
<!-- Node12&#45;&gt;Node15 -->
<g id="edge15" class="edge"><title>Node12&#45;&gt;Node15</title>
<path fill="none" stroke="midnightblue" d="M335.753,-224.324C325.203,-216.185 309.199,-203.839 296.558,-194.087"/>
<polygon fill="midnightblue" stroke="midnightblue" points="298.507,-191.171 288.451,-187.834 294.231,-196.713 298.507,-191.171"/>
</g>
<!-- Node16 -->
<g id="node16" class="node"><title>Node16</title>
<polygon fill="white" stroke="#bfbfbf" points="323.5,-168.5 323.5,-187.5 370.5,-187.5 370.5,-168.5 323.5,-168.5"/>
<text text-anchor="middle" x="347" y="-175.5" font-family="Helvetica,sans-Serif" font-size="10.00">mutex</text>
</g>
<!-- Node12&#45;&gt;Node16 -->
<g id="edge16" class="edge"><title>Node12&#45;&gt;Node16</title>
<path fill="none" stroke="midnightblue" d="M347,-224.083C347,-217.006 347,-206.861 347,-197.986"/>
<polygon fill="midnightblue" stroke="midnightblue" points="350.5,-197.751 347,-187.751 343.5,-197.751 350.5,-197.751"/>
</g>
<!-- Node17 -->
<g id="node17" class="node"><title>Node17</title>
<polygon fill="white" stroke="#bfbfbf" points="388.5,-168.5 388.5,-187.5 435.5,-187.5 435.5,-168.5 388.5,-168.5"/>
<text text-anchor="middle" x="412" y="-175.5" font-family="Helvetica,sans-Serif" font-size="10.00">vector</text>
</g>
<!-- Node12&#45;&gt;Node17 -->
<g id="edge19" class="edge"><title>Node12&#45;&gt;Node17</title>
<path fill="none" stroke="midnightblue" d="M357.443,-224.324C367.146,-216.263 381.815,-204.077 393.5,-194.369"/>
<polygon fill="midnightblue" stroke="midnightblue" points="395.911,-196.916 401.367,-187.834 391.438,-191.532 395.911,-196.916"/>
</g>
<!-- Node18 -->
<g id="node18" class="node"><title>Node18</title>
<g id="a_node18"><a xlink:href="Timer_8hpp.html" target="_top" xlink:title="Core/Time/Timer.hpp">
<polygon fill="white" stroke="black" points="454,-168.5 454,-187.5 570,-187.5 570,-168.5 454,-168.5"/>
<text text-anchor="middle" x="512" y="-175.5" font-family="Helvetica,sans-Serif" font-size="10.00">Core/Time/Timer.hpp</text>
</a>
</g>
</g>
<!-- Node12&#45;&gt;Node18 -->
<g id="edge20" class="edge"><title>Node12&#45;&gt;Node18</title>
<path fill="none" stroke="midnightblue" d="M373.145,-224.444C401.023,-215.32 445.348,-200.813 476.4,-190.651"/>
<polygon fill="midnightblue" stroke="midnightblue" points="477.562,-193.953 485.978,-187.516 475.385,-187.3 477.562,-193.953"/>
</g>
<!-- Node18&#45;&gt;Node3 -->
<g id="edge21" class="edge"><title>Node18&#45;&gt;Node3</title>
<path fill="none" stroke="midnightblue" d="M465.732,-168.444C414.259,-158.925 331.107,-143.547 276.001,-133.356"/>
<polygon fill="midnightblue" stroke="midnightblue" points="276.522,-129.893 266.052,-131.516 275.249,-136.777 276.522,-129.893"/>
</g>
<!-- Node19 -->
<g id="node19" class="node"><title>Node19</title>
<polygon fill="white" stroke="#bfbfbf" points="487,-112.5 487,-131.5 537,-131.5 537,-112.5 487,-112.5"/>
<text text-anchor="middle" x="512" y="-119.5" font-family="Helvetica,sans-Serif" font-size="10.00">chrono</text>
</g>
<!-- Node18&#45;&gt;Node19 -->
<g id="edge22" class="edge"><title>Node18&#45;&gt;Node19</title>
<path fill="none" stroke="midnightblue" d="M512,-168.083C512,-161.006 512,-150.861 512,-141.986"/>
<polygon fill="midnightblue" stroke="midnightblue" points="515.5,-141.751 512,-131.751 508.5,-141.751 515.5,-141.751"/>
</g>
</g>
</svg>
