<?xml version="1.0" encoding="UTF-8" standalone="no"?>
<!DOCTYPE svg PUBLIC "-//W3C//DTD SVG 1.1//EN"
 "http://www.w3.org/Graphics/SVG/1.1/DTD/svg11.dtd">
<!-- Generated by graphviz version 2.38.0 (20140413.2041)
 -->
<!-- Title: /home/travis/build/STORM&#45;IRIT/Radium&#45;Engine/src/Engine/Renderer/Texture/TextureManager.cpp Pages: 1 -->
<svg width="1002pt" height="374pt"
 viewBox="0.00 0.00 1002.00 374.00" xmlns="http://www.w3.org/2000/svg" xmlns:xlink="http://www.w3.org/1999/xlink">
<g id="graph0" class="graph" transform="scale(1 1) rotate(0) translate(4 370)">
<title>/home/travis/build/STORM&#45;IRIT/Radium&#45;Engine/src/Engine/Renderer/Texture/TextureManager.cpp</title>
<polygon fill="white" stroke="none" points="-4,4 -4,-370 998,-370 998,4 -4,4"/>
<!-- Node1 -->
<g id="node1" class="node"><title>Node1</title>
<polygon fill="#bfbfbf" stroke="black" points="460,-313.5 460,-365.5 612,-365.5 612,-313.5 460,-313.5"/>
<text text-anchor="start" x="468" y="-353.5" font-family="Helvetica,sans-Serif" font-size="10.00">/home/travis/build</text>
<text text-anchor="start" x="468" y="-342.5" font-family="Helvetica,sans-Serif" font-size="10.00">/STORM&#45;IRIT/Radium&#45;Engine</text>
<text text-anchor="start" x="468" y="-331.5" font-family="Helvetica,sans-Serif" font-size="10.00">/src/Engine/Renderer/Texture</text>
<text text-anchor="middle" x="536" y="-320.5" font-family="Helvetica,sans-Serif" font-size="10.00">/TextureManager.cpp</text>
</g>
<!-- Node2 -->
<g id="node2" class="node"><title>Node2</title>
<g id="a_node2"><a xlink:href="Texture_8hpp.html" target="_top" xlink:title="Engine/Renderer/Texture\l/Texture.hpp">
<polygon fill="white" stroke="black" points="174,-179.5 174,-209.5 306,-209.5 306,-179.5 174,-179.5"/>
<text text-anchor="start" x="182" y="-197.5" font-family="Helvetica,sans-Serif" font-size="10.00">Engine/Renderer/Texture</text>
<text text-anchor="middle" x="240" y="-186.5" font-family="Helvetica,sans-Serif" font-size="10.00">/Texture.hpp</text>
</a>
</g>
</g>
<!-- Node1&#45;&gt;Node2 -->
<g id="edge1" class="edge"><title>Node1&#45;&gt;Node2</title>
<path fill="none" stroke="midnightblue" d="M459.937,-330.322C412.618,-322.417 352.199,-306.984 306,-277 283.136,-262.161 264.443,-236.806 252.861,-218.309"/>
<polygon fill="midnightblue" stroke="midnightblue" points="255.774,-216.362 247.614,-209.605 249.779,-219.976 255.774,-216.362"/>
</g>
<!-- Node15 -->
<g id="node15" class="node"><title>Node15</title>
<g id="a_node15"><a xlink:href="TextureManager_8hpp.html" target="_top" xlink:title="Engine/Renderer/Texture\l/TextureManager.hpp">
<polygon fill="white" stroke="black" points="315,-246.5 315,-276.5 447,-276.5 447,-246.5 315,-246.5"/>
<text text-anchor="start" x="323" y="-264.5" font-family="Helvetica,sans-Serif" font-size="10.00">Engine/Renderer/Texture</text>
<text text-anchor="middle" x="381" y="-253.5" font-family="Helvetica,sans-Serif" font-size="10.00">/TextureManager.hpp</text>
</a>
</g>
</g>
<!-- Node1&#45;&gt;Node15 -->
<g id="edge14" class="edge"><title>Node1&#45;&gt;Node15</title>
<path fill="none" stroke="midnightblue" d="M484.818,-313.404C463.351,-302.878 438.827,-290.854 419.006,-281.135"/>
<polygon fill="midnightblue" stroke="midnightblue" points="420.494,-277.967 409.974,-276.707 417.412,-284.252 420.494,-277.967"/>
</g>
<!-- Node19 -->
<g id="node19" class="node"><title>Node19</title>
<g id="a_node19"><a xlink:href="Log_8hpp.html" target="_top" xlink:title="Core/Log/Log.hpp">
<polygon fill="white" stroke="black" points="640.5,-252 640.5,-271 741.5,-271 741.5,-252 640.5,-252"/>
<text text-anchor="middle" x="691" y="-259" font-family="Helvetica,sans-Serif" font-size="10.00">Core/Log/Log.hpp</text>
</a>
</g>
</g>
<!-- Node1&#45;&gt;Node19 -->
<g id="edge23" class="edge"><title>Node1&#45;&gt;Node19</title>
<path fill="none" stroke="midnightblue" d="M587.182,-313.404C613.029,-300.731 643.306,-285.885 664.471,-275.508"/>
<polygon fill="midnightblue" stroke="midnightblue" points="666.068,-278.623 673.506,-271.078 662.986,-272.338 666.068,-278.623"/>
</g>
<!-- Node24 -->
<g id="node24" class="node"><title>Node24</title>
<polygon fill="white" stroke="#bfbfbf" points="760,-252 760,-271 854,-271 854,-252 760,-252"/>
<text text-anchor="middle" x="807" y="-259" font-family="Helvetica,sans-Serif" font-size="10.00">stb/stb_image.h</text>
</g>
<!-- Node1&#45;&gt;Node24 -->
<g id="edge33" class="edge"><title>Node1&#45;&gt;Node24</title>
<path fill="none" stroke="midnightblue" d="M612.21,-317.128C662.434,-303.043 726.195,-285.161 766.811,-273.771"/>
<polygon fill="midnightblue" stroke="midnightblue" points="767.932,-277.091 776.616,-271.021 766.042,-270.351 767.932,-277.091"/>
</g>
<!-- Node3 -->
<g id="node3" class="node"><title>Node3</title>
<g id="a_node3"><a xlink:href="RaEngine_8hpp.html" target="_top" xlink:title="Engine/RaEngine.hpp">
<polygon fill="white" stroke="black" points="292.5,-118 292.5,-137 409.5,-137 409.5,-118 292.5,-118"/>
<text text-anchor="middle" x="351" y="-125" font-family="Helvetica,sans-Serif" font-size="10.00">Engine/RaEngine.hpp</text>
</a>
</g>
</g>
<!-- Node2&#45;&gt;Node3 -->
<g id="edge2" class="edge"><title>Node2&#45;&gt;Node3</title>
<path fill="none" stroke="midnightblue" d="M264.085,-179.396C282.958,-168.344 309.058,-153.061 327.721,-142.132"/>
<polygon fill="midnightblue" stroke="midnightblue" points="329.612,-145.081 336.473,-137.007 326.075,-139.04 329.612,-145.081"/>
</g>
<!-- Node10 -->
<g id="node10" class="node"><title>Node10</title>
<polygon fill="white" stroke="#bfbfbf" points="217.5,-118 217.5,-137 274.5,-137 274.5,-118 217.5,-118"/>
<text text-anchor="middle" x="246" y="-125" font-family="Helvetica,sans-Serif" font-size="10.00">memory</text>
</g>
<!-- Node2&#45;&gt;Node10 -->
<g id="edge9" class="edge"><title>Node2&#45;&gt;Node10</title>
<path fill="none" stroke="midnightblue" d="M241.302,-179.396C242.173,-169.963 243.328,-157.448 244.275,-147.189"/>
<polygon fill="midnightblue" stroke="midnightblue" points="247.763,-147.474 245.197,-137.195 240.793,-146.83 247.763,-147.474"/>
</g>
<!-- Node11 -->
<g id="node11" class="node"><title>Node11</title>
<polygon fill="white" stroke="#bfbfbf" points="428,-118 428,-137 472,-137 472,-118 428,-118"/>
<text text-anchor="middle" x="450" y="-125" font-family="Helvetica,sans-Serif" font-size="10.00">string</text>
</g>
<!-- Node2&#45;&gt;Node11 -->
<g id="edge10" class="edge"><title>Node2&#45;&gt;Node11</title>
<path fill="none" stroke="midnightblue" d="M297.608,-179.485C332.8,-170.351 378.485,-157.467 418,-143 419.614,-142.409 421.261,-141.772 422.914,-141.107"/>
<polygon fill="midnightblue" stroke="midnightblue" points="424.441,-144.261 432.255,-137.107 421.685,-137.826 424.441,-144.261"/>
</g>
<!-- Node12 -->
<g id="node12" class="node"><title>Node12</title>
<g id="a_node12"><a xlink:href="OpenGL_8hpp.html" target="_top" xlink:title="Engine/Renderer/OpenGL\l/OpenGL.hpp">
<polygon fill="white" stroke="black" points="63,-112.5 63,-142.5 199,-142.5 199,-112.5 63,-112.5"/>
<text text-anchor="start" x="71" y="-130.5" font-family="Helvetica,sans-Serif" font-size="10.00">Engine/Renderer/OpenGL</text>
<text text-anchor="middle" x="131" y="-119.5" font-family="Helvetica,sans-Serif" font-size="10.00">/OpenGL.hpp</text>
</a>
</g>
</g>
<!-- Node2&#45;&gt;Node12 -->
<g id="edge11" class="edge"><title>Node2&#45;&gt;Node12</title>
<path fill="none" stroke="midnightblue" d="M216.349,-179.396C200.922,-170.197 180.58,-158.066 163.624,-147.955"/>
<polygon fill="midnightblue" stroke="midnightblue" points="164.987,-144.692 154.605,-142.577 161.401,-150.704 164.987,-144.692"/>
</g>
<!-- Node4 -->
<g id="node4" class="node"><title>Node4</title>
<g id="a_node4"><a xlink:href="CoreMacros_8hpp.html" target="_top" xlink:title="Core/CoreMacros.hpp">
<polygon fill="white" stroke="black" points="658,-56.5 658,-75.5 778,-75.5 778,-56.5 658,-56.5"/>
<text text-anchor="middle" x="718" y="-63.5" font-family="Helvetica,sans-Serif" font-size="10.00">Core/CoreMacros.hpp</text>
</a>
</g>
</g>
<!-- Node3&#45;&gt;Node4 -->
<g id="edge3" class="edge"><title>Node3&#45;&gt;Node4</title>
<path fill="none" stroke="midnightblue" d="M389.042,-117.962C398.785,-115.893 409.261,-113.769 419,-112 496.997,-97.8284 587.019,-84.7173 647.738,-76.347"/>
<polygon fill="midnightblue" stroke="midnightblue" points="648.542,-79.7695 657.974,-74.9426 647.591,-72.8345 648.542,-79.7695"/>
</g>
<!-- Node5 -->
<g id="node5" class="node"><title>Node5</title>
<polygon fill="white" stroke="#bfbfbf" points="692,-0.5 692,-19.5 744,-19.5 744,-0.5 692,-0.5"/>
<text text-anchor="middle" x="718" y="-7.5" font-family="Helvetica,sans-Serif" font-size="10.00">cassert</text>
</g>
<!-- Node4&#45;&gt;Node5 -->
<g id="edge4" class="edge"><title>Node4&#45;&gt;Node5</title>
<path fill="none" stroke="midnightblue" d="M718,-56.083C718,-49.0059 718,-38.8611 718,-29.9865"/>
<polygon fill="midnightblue" stroke="midnightblue" points="721.5,-29.751 718,-19.7511 714.5,-29.7511 721.5,-29.751"/>
</g>
<!-- Node6 -->
<g id="node6" class="node"><title>Node6</title>
<polygon fill="white" stroke="#bfbfbf" points="762.5,-0.5 762.5,-19.5 807.5,-19.5 807.5,-0.5 762.5,-0.5"/>
<text text-anchor="middle" x="785" y="-7.5" font-family="Helvetica,sans-Serif" font-size="10.00">cstdio</text>
</g>
<!-- Node4&#45;&gt;Node6 -->
<g id="edge5" class="edge"><title>Node4&#45;&gt;Node6</title>
<path fill="none" stroke="midnightblue" d="M728.765,-56.324C738.766,-48.2631 753.887,-36.0765 765.93,-26.3695"/>
<polygon fill="midnightblue" stroke="midnightblue" points="768.45,-28.8343 774.039,-19.8339 764.057,-23.3841 768.45,-28.8343"/>
</g>
<!-- Node7 -->
<g id="node7" class="node"><title>Node7</title>
<polygon fill="white" stroke="#bfbfbf" points="548.5,-0.5 548.5,-19.5 607.5,-19.5 607.5,-0.5 548.5,-0.5"/>
<text text-anchor="middle" x="578" y="-7.5" font-family="Helvetica,sans-Serif" font-size="10.00">iostream</text>
</g>
<!-- Node4&#45;&gt;Node7 -->
<g id="edge6" class="edge"><title>Node4&#45;&gt;Node7</title>
<path fill="none" stroke="midnightblue" d="M695.817,-56.4435C672.572,-47.4776 635.851,-33.314 609.585,-23.1827"/>
<polygon fill="midnightblue" stroke="midnightblue" points="610.669,-19.8497 600.08,-19.5164 608.15,-26.3807 610.669,-19.8497"/>
</g>
<!-- Node8 -->
<g id="node8" class="node"><title>Node8</title>
<polygon fill="white" stroke="#bfbfbf" points="826,-0.5 826,-19.5 882,-19.5 882,-0.5 826,-0.5"/>
<text text-anchor="middle" x="854" y="-7.5" font-family="Helvetica,sans-Serif" font-size="10.00">sstream</text>
</g>
<!-- Node4&#45;&gt;Node8 -->
<g id="edge7" class="edge"><title>Node4&#45;&gt;Node8</title>
<path fill="none" stroke="midnightblue" d="M739.55,-56.4435C762.031,-47.5171 797.488,-33.4387 822.98,-23.3168"/>
<polygon fill="midnightblue" stroke="midnightblue" points="824.549,-26.4598 832.551,-19.5164 821.965,-19.9539 824.549,-26.4598"/>
</g>
<!-- Node9 -->
<g id="node9" class="node"><title>Node9</title>
<polygon fill="white" stroke="#bfbfbf" points="626,-0.5 626,-19.5 674,-19.5 674,-0.5 626,-0.5"/>
<text text-anchor="middle" x="650" y="-7.5" font-family="Helvetica,sans-Serif" font-size="10.00">thread</text>
</g>
<!-- Node4&#45;&gt;Node9 -->
<g id="edge8" class="edge"><title>Node4&#45;&gt;Node9</title>
<path fill="none" stroke="midnightblue" d="M707.075,-56.324C696.825,-48.1849 681.279,-35.8395 668.999,-26.0874"/>
<polygon fill="midnightblue" stroke="midnightblue" points="671.132,-23.3119 661.124,-19.8339 666.779,-28.7937 671.132,-23.3119"/>
</g>
<!-- Node13 -->
<g id="node13" class="node"><title>Node13</title>
<polygon fill="white" stroke="#bfbfbf" points="0,-56.5 0,-75.5 124,-75.5 124,-56.5 0,-56.5"/>
<text text-anchor="middle" x="62" y="-63.5" font-family="Helvetica,sans-Serif" font-size="10.00">glbinding/gl45core/gl.h</text>
</g>
<!-- Node12&#45;&gt;Node13 -->
<g id="edge12" class="edge"><title>Node12&#45;&gt;Node13</title>
<path fill="none" stroke="midnightblue" d="M114.648,-112.399C104.105,-103.308 90.4001,-91.4899 79.6164,-82.1909"/>
<polygon fill="midnightblue" stroke="midnightblue" points="81.899,-79.5377 72.0401,-75.6578 77.3276,-84.8389 81.899,-79.5377"/>
</g>
<!-- Node14 -->
<g id="node14" class="node"><title>Node14</title>
<polygon fill="white" stroke="#bfbfbf" points="142,-56.5 142,-75.5 260,-75.5 260,-56.5 142,-56.5"/>
<text text-anchor="middle" x="201" y="-63.5" font-family="Helvetica,sans-Serif" font-size="10.00">glbinding/gl45ext/gl.h</text>
</g>
<!-- Node12&#45;&gt;Node14 -->
<g id="edge13" class="edge"><title>Node12&#45;&gt;Node14</title>
<path fill="none" stroke="midnightblue" d="M147.589,-112.399C158.285,-103.308 172.188,-91.4899 183.128,-82.1909"/>
<polygon fill="midnightblue" stroke="midnightblue" points="185.462,-84.8011 190.814,-75.6578 180.928,-79.4675 185.462,-84.8011"/>
</g>
<!-- Node15&#45;&gt;Node2 -->
<g id="edge22" class="edge"><title>Node15&#45;&gt;Node2</title>
<path fill="none" stroke="midnightblue" d="M350.405,-246.396C329.711,-236.856 302.177,-224.163 279.783,-213.84"/>
<polygon fill="midnightblue" stroke="midnightblue" points="281.082,-210.585 270.535,-209.577 278.151,-216.942 281.082,-210.585"/>
</g>
<!-- Node15&#45;&gt;Node3 -->
<g id="edge15" class="edge"><title>Node15&#45;&gt;Node3</title>
<path fill="none" stroke="midnightblue" d="M370.668,-246.287C364.255,-236.587 356.576,-223.156 353,-210 347.329,-189.137 347.714,-164.155 348.946,-147.397"/>
<polygon fill="midnightblue" stroke="midnightblue" points="352.448,-147.538 349.871,-137.261 345.477,-146.902 352.448,-147.538"/>
</g>
<!-- Node15&#45;&gt;Node11 -->
<g id="edge17" class="edge"><title>Node15&#45;&gt;Node11</title>
<path fill="none" stroke="midnightblue" d="M388.998,-246.434C394.683,-236.348 402.442,-222.408 409,-210 420.522,-188.198 433.194,-162.771 441.355,-146.192"/>
<polygon fill="midnightblue" stroke="midnightblue" points="444.542,-147.643 445.803,-137.124 438.257,-144.56 444.542,-147.643"/>
</g>
<!-- Node15&#45;&gt;Node12 -->
<g id="edge21" class="edge"><title>Node15&#45;&gt;Node12</title>
<path fill="none" stroke="midnightblue" d="M314.888,-251.758C260.008,-243.311 187.447,-229.007 165,-210 147.884,-195.507 139.227,-170.964 134.951,-152.59"/>
<polygon fill="midnightblue" stroke="midnightblue" points="138.342,-151.703 132.908,-142.607 131.484,-153.106 138.342,-151.703"/>
</g>
<!-- Node16 -->
<g id="node16" class="node"><title>Node16</title>
<polygon fill="white" stroke="#bfbfbf" points="362,-185 362,-204 400,-204 400,-185 362,-185"/>
<text text-anchor="middle" x="381" y="-192" font-family="Helvetica,sans-Serif" font-size="10.00">map</text>
</g>
<!-- Node15&#45;&gt;Node16 -->
<g id="edge16" class="edge"><title>Node15&#45;&gt;Node16</title>
<path fill="none" stroke="midnightblue" d="M381,-246.396C381,-237.064 381,-224.714 381,-214.517"/>
<polygon fill="midnightblue" stroke="midnightblue" points="384.5,-214.195 381,-204.195 377.5,-214.195 384.5,-214.195"/>
</g>
<!-- Node17 -->
<g id="node17" class="node"><title>Node17</title>
<g id="a_node17"><a xlink:href="Singleton_8hpp.html" target="_top" xlink:title="Core/Utils/Singleton.hpp">
<polygon fill="white" stroke="black" points="656,-185 656,-204 788,-204 788,-185 656,-185"/>
<text text-anchor="middle" x="722" y="-192" font-family="Helvetica,sans-Serif" font-size="10.00">Core/Utils/Singleton.hpp</text>
</a>
</g>
</g>
<!-- Node15&#45;&gt;Node17 -->
<g id="edge18" class="edge"><title>Node15&#45;&gt;Node17</title>
<path fill="none" stroke="midnightblue" d="M447.147,-248.006C500.974,-237.823 578.906,-223.046 647,-210 653.738,-208.709 660.816,-207.348 667.821,-205.997"/>
<polygon fill="midnightblue" stroke="midnightblue" points="668.829,-209.367 677.984,-204.035 667.502,-202.494 668.829,-209.367"/>
</g>
<!-- Node18 -->
<g id="node18" class="node"><title>Node18</title>
<g id="a_node18"><a xlink:href="RaCore_8hpp.html" target="_top" xlink:title="Core/RaCore.hpp">
<polygon fill="white" stroke="black" points="671,-118 671,-137 769,-137 769,-118 671,-118"/>
<text text-anchor="middle" x="720" y="-125" font-family="Helvetica,sans-Serif" font-size="10.00">Core/RaCore.hpp</text>
</a>
</g>
</g>
<!-- Node17&#45;&gt;Node18 -->
<g id="edge19" class="edge"><title>Node17&#45;&gt;Node18</title>
<path fill="none" stroke="midnightblue" d="M721.73,-184.734C721.436,-175.183 720.957,-159.618 720.578,-147.283"/>
<polygon fill="midnightblue" stroke="midnightblue" points="724.071,-147.015 720.265,-137.127 717.075,-147.23 724.071,-147.015"/>
</g>
<!-- Node18&#45;&gt;Node4 -->
<g id="edge20" class="edge"><title>Node18&#45;&gt;Node4</title>
<path fill="none" stroke="midnightblue" d="M719.713,-117.975C719.431,-109.58 718.991,-96.4806 718.627,-85.6631"/>
<polygon fill="midnightblue" stroke="midnightblue" points="722.12,-85.3858 718.286,-75.5091 715.124,-85.6211 722.12,-85.3858"/>
</g>
<!-- Node19&#45;&gt;Node8 -->
<g id="edge25" class="edge"><title>Node19&#45;&gt;Node8</title>
<path fill="none" stroke="midnightblue" d="M719.988,-251.962C752.025,-241.952 800.732,-224.842 813,-210 856.993,-156.779 857.68,-68.5962 855.566,-30.0359"/>
<polygon fill="midnightblue" stroke="midnightblue" points="859.038,-29.4944 854.865,-19.7557 852.054,-29.9707 859.038,-29.4944"/>
</g>
<!-- Node19&#45;&gt;Node11 -->
<g id="edge27" class="edge"><title>Node19&#45;&gt;Node11</title>
<path fill="none" stroke="midnightblue" d="M640.443,-260.347C594.883,-257.622 528.551,-246.89 485,-210 466.034,-193.934 457.07,-165.727 453.036,-147.076"/>
<polygon fill="midnightblue" stroke="midnightblue" points="456.452,-146.303 451.153,-137.128 449.574,-147.604 456.452,-146.303"/>
</g>
<!-- Node19&#45;&gt;Node18 -->
<g id="edge24" class="edge"><title>Node19&#45;&gt;Node18</title>
<path fill="none" stroke="midnightblue" d="M733.015,-251.963C756.157,-244.885 782.963,-232.236 797,-210 804.355,-198.349 803.547,-191.123 797,-179 787.729,-161.832 769.797,-149.556 753.569,-141.409"/>
<polygon fill="midnightblue" stroke="midnightblue" points="754.832,-138.136 744.289,-137.084 751.874,-144.481 754.832,-138.136"/>
</g>
<!-- Node20 -->
<g id="node20" class="node"><title>Node20</title>
<polygon fill="white" stroke="#bfbfbf" points="882.5,-185 882.5,-204 931.5,-204 931.5,-185 882.5,-185"/>
<text text-anchor="middle" x="907" y="-192" font-family="Helvetica,sans-Serif" font-size="10.00">stdio.h</text>
</g>
<!-- Node19&#45;&gt;Node20 -->
<g id="edge26" class="edge"><title>Node19&#45;&gt;Node20</title>
<path fill="none" stroke="midnightblue" d="M723.855,-251.95C759.568,-242.465 818.203,-226.333 868,-210 870.402,-209.212 872.877,-208.368 875.359,-207.499"/>
<polygon fill="midnightblue" stroke="midnightblue" points="876.612,-210.768 884.832,-204.083 874.237,-204.183 876.612,-210.768"/>
</g>
<!-- Node21 -->
<g id="node21" class="node"><title>Node21</title>
<g id="a_node21"><a xlink:href="StringUtils_8hpp.html" target="_top" xlink:title="Core/String/StringUtils.hpp">
<polygon fill="white" stroke="black" points="494,-185 494,-204 638,-204 638,-185 494,-185"/>
<text text-anchor="middle" x="566" y="-192" font-family="Helvetica,sans-Serif" font-size="10.00">Core/String/StringUtils.hpp</text>
</a>
</g>
</g>
<!-- Node19&#45;&gt;Node21 -->
<g id="edge28" class="edge"><title>Node19&#45;&gt;Node21</title>
<path fill="none" stroke="midnightblue" d="M674.401,-251.869C653.295,-240.893 616.624,-221.824 591.843,-208.938"/>
<polygon fill="midnightblue" stroke="midnightblue" points="593.155,-205.676 582.668,-204.167 589.925,-211.886 593.155,-205.676"/>
</g>
<!-- Node23 -->
<g id="node23" class="node"><title>Node23</title>
<polygon fill="white" stroke="#bfbfbf" points="950,-185 950,-204 994,-204 994,-185 950,-185"/>
<text text-anchor="middle" x="972" y="-192" font-family="Helvetica,sans-Serif" font-size="10.00">ctime</text>
</g>
<!-- Node19&#45;&gt;Node23 -->
<g id="edge32" class="edge"><title>Node19&#45;&gt;Node23</title>
<path fill="none" stroke="midnightblue" d="M724.885,-251.999C733.392,-249.951 742.514,-247.828 751,-246 835.019,-227.9 859.213,-236.414 941,-210 942.671,-209.46 944.37,-208.852 946.068,-208.198"/>
<polygon fill="midnightblue" stroke="midnightblue" points="947.771,-211.275 955.578,-204.113 945.008,-204.844 947.771,-211.275"/>
</g>
<!-- Node21&#45;&gt;Node11 -->
<g id="edge30" class="edge"><title>Node21&#45;&gt;Node11</title>
<path fill="none" stroke="midnightblue" d="M550.356,-184.734C530.789,-173.769 497.08,-154.881 474.181,-142.049"/>
<polygon fill="midnightblue" stroke="midnightblue" points="475.831,-138.962 465.396,-137.127 472.409,-145.069 475.831,-138.962"/>
</g>
<!-- Node21&#45;&gt;Node18 -->
<g id="edge29" class="edge"><title>Node21&#45;&gt;Node18</title>
<path fill="none" stroke="midnightblue" d="M586.45,-184.869C613.028,-173.65 659.64,-153.977 690.166,-141.092"/>
<polygon fill="midnightblue" stroke="midnightblue" points="691.613,-144.28 699.465,-137.167 688.891,-137.831 691.613,-144.28"/>
</g>
<!-- Node22 -->
<g id="node22" class="node"><title>Node22</title>
<polygon fill="white" stroke="#bfbfbf" points="542.5,-118 542.5,-137 589.5,-137 589.5,-118 542.5,-118"/>
<text text-anchor="middle" x="566" y="-125" font-family="Helvetica,sans-Serif" font-size="10.00">vector</text>
</g>
<!-- Node21&#45;&gt;Node22 -->
<g id="edge31" class="edge"><title>Node21&#45;&gt;Node22</title>
<path fill="none" stroke="midnightblue" d="M566,-184.734C566,-175.183 566,-159.618 566,-147.283"/>
<polygon fill="midnightblue" stroke="midnightblue" points="569.5,-147.127 566,-137.127 562.5,-147.127 569.5,-147.127"/>
</g>
</g>
</svg>
