<?xml version="1.0" encoding="UTF-8" standalone="no"?>
<!DOCTYPE svg PUBLIC "-//W3C//DTD SVG 1.1//EN"
 "http://www.w3.org/Graphics/SVG/1.1/DTD/svg11.dtd">
<!-- Generated by graphviz version 2.38.0 (20140413.2041)
 -->
<!-- Title: /home/travis/build/STORM&#45;IRIT/Radium&#45;Engine/src/Core/Mesh/TopologicalTriMesh/TopologicalMesh.hpp Pages: 1 -->
<svg width="1968pt" height="553pt"
 viewBox="0.00 0.00 1967.50 553.00" xmlns="http://www.w3.org/2000/svg" xmlns:xlink="http://www.w3.org/1999/xlink">
<g id="graph0" class="graph" transform="scale(1 1) rotate(0) translate(4 549)">
<title>/home/travis/build/STORM&#45;IRIT/Radium&#45;Engine/src/Core/Mesh/TopologicalTriMesh/TopologicalMesh.hpp</title>
<polygon fill="white" stroke="none" points="-4,4 -4,-549 1963.5,-549 1963.5,4 -4,4"/>
<!-- Node1 -->
<g id="node1" class="node"><title>Node1</title>
<polygon fill="#bfbfbf" stroke="black" points="825,-492.5 825,-544.5 1003,-544.5 1003,-492.5 825,-492.5"/>
<text text-anchor="start" x="833" y="-532.5" font-family="Helvetica,sans-Serif" font-size="10.00">/home/travis/build</text>
<text text-anchor="start" x="833" y="-521.5" font-family="Helvetica,sans-Serif" font-size="10.00">/STORM&#45;IRIT/Radium&#45;Engine</text>
<text text-anchor="start" x="833" y="-510.5" font-family="Helvetica,sans-Serif" font-size="10.00">/src/Core/Mesh/TopologicalTriMesh</text>
<text text-anchor="middle" x="914" y="-499.5" font-family="Helvetica,sans-Serif" font-size="10.00">/TopologicalMesh.hpp</text>
</g>
<!-- Node2 -->
<g id="node2" class="node"><title>Node2</title>
<g id="a_node2"><a xlink:href="OpenMesh_8h.html" target="_top" xlink:title="Core/Mesh/TopologicalTri\lMesh/OpenMesh.h">
<polygon fill="white" stroke="black" points="306,-302.5 306,-332.5 438,-332.5 438,-302.5 306,-302.5"/>
<text text-anchor="start" x="314" y="-320.5" font-family="Helvetica,sans-Serif" font-size="10.00">Core/Mesh/TopologicalTri</text>
<text text-anchor="middle" x="372" y="-309.5" font-family="Helvetica,sans-Serif" font-size="10.00">Mesh/OpenMesh.h</text>
</a>
</g>
</g>
<!-- Node1&#45;&gt;Node2 -->
<g id="edge1" class="edge"><title>Node1&#45;&gt;Node2</title>
<path fill="none" stroke="midnightblue" d="M824.925,-507.97C761.73,-499.27 675.744,-483.45 604,-456 524.391,-425.541 440.682,-368.867 398.964,-338.667"/>
<polygon fill="midnightblue" stroke="midnightblue" points="400.855,-335.714 390.715,-332.643 396.727,-341.367 400.855,-335.714"/>
</g>
<!-- Node3 -->
<g id="node3" class="node"><title>Node3</title>
<g id="a_node3"><a xlink:href="RaCore_8hpp.html" target="_top" xlink:title="Core/RaCore.hpp">
<polygon fill="white" stroke="black" points="1179,-112.5 1179,-131.5 1277,-131.5 1277,-112.5 1179,-112.5"/>
<text text-anchor="middle" x="1228" y="-119.5" font-family="Helvetica,sans-Serif" font-size="10.00">Core/RaCore.hpp</text>
</a>
</g>
</g>
<!-- Node1&#45;&gt;Node3 -->
<g id="edge69" class="edge"><title>Node1&#45;&gt;Node3</title>
<path fill="none" stroke="midnightblue" d="M907.057,-492.285C891.177,-428.496 859.808,-259.304 945,-168 974.538,-136.343 1094.74,-126.931 1168.66,-124.15"/>
<polygon fill="midnightblue" stroke="midnightblue" points="1168.9,-127.644 1178.77,-123.8 1168.66,-120.648 1168.9,-127.644"/>
</g>
<!-- Node10 -->
<g id="node10" class="node"><title>Node10</title>
<polygon fill="white" stroke="#bfbfbf" points="0,-174 0,-193 68,-193 68,-174 0,-174"/>
<text text-anchor="middle" x="34" y="-181" font-family="Helvetica,sans-Serif" font-size="10.00">Eigen/Core</text>
</g>
<!-- Node1&#45;&gt;Node10 -->
<g id="edge74" class="edge"><title>Node1&#45;&gt;Node10</title>
<path fill="none" stroke="midnightblue" d="M824.729,-514.635C659.366,-508.538 311.796,-491.807 197,-456 132.007,-435.727 64,-448.081 64,-380 64,-380 64,-380 64,-316.5 64,-275.147 49.8266,-228.279 40.9639,-203.014"/>
<polygon fill="midnightblue" stroke="midnightblue" points="44.1422,-201.512 37.4414,-193.305 37.5619,-203.899 44.1422,-201.512"/>
</g>
<!-- Node11 -->
<g id="node11" class="node"><title>Node11</title>
<polygon fill="white" stroke="#bfbfbf" points="86,-174 86,-193 180,-193 180,-174 86,-174"/>
<text text-anchor="middle" x="133" y="-181" font-family="Helvetica,sans-Serif" font-size="10.00">Eigen/Geometry</text>
</g>
<!-- Node1&#45;&gt;Node11 -->
<g id="edge75" class="edge"><title>Node1&#45;&gt;Node11</title>
<path fill="none" stroke="midnightblue" d="M824.621,-511.325C616.677,-495.764 118,-451.041 118,-380 118,-380 118,-380 118,-316.5 118,-275.898 125.093,-228.718 129.524,-203.206"/>
<polygon fill="midnightblue" stroke="midnightblue" points="133.014,-203.572 131.337,-193.11 126.124,-202.334 133.014,-203.572"/>
</g>
<!-- Node12 -->
<g id="node12" class="node"><title>Node12</title>
<g id="a_node12"><a xlink:href="LinearAlgebra_8hpp.html" target="_top" xlink:title="Core/Math/LinearAlgebra.hpp">
<polygon fill="white" stroke="black" points="609,-241 609,-260 765,-260 765,-241 609,-241"/>
<text text-anchor="middle" x="687" y="-248" font-family="Helvetica,sans-Serif" font-size="10.00">Core/Math/LinearAlgebra.hpp</text>
</a>
</g>
</g>
<!-- Node1&#45;&gt;Node12 -->
<g id="edge30" class="edge"><title>Node1&#45;&gt;Node12</title>
<path fill="none" stroke="midnightblue" d="M892.644,-492.475C846.608,-438.53 739.094,-312.544 700.827,-267.702"/>
<polygon fill="midnightblue" stroke="midnightblue" points="703.479,-265.419 694.326,-260.084 698.155,-269.963 703.479,-265.419"/>
</g>
<!-- Node21 -->
<g id="node21" class="node"><title>Node21</title>
<polygon fill="white" stroke="#bfbfbf" points="146,-235.5 146,-265.5 268,-265.5 268,-235.5 146,-235.5"/>
<text text-anchor="start" x="154" y="-253.5" font-family="Helvetica,sans-Serif" font-size="10.00">OpenMesh/Core/Mesh</text>
<text text-anchor="middle" x="207" y="-242.5" font-family="Helvetica,sans-Serif" font-size="10.00">/Traits.hh</text>
</g>
<!-- Node1&#45;&gt;Node21 -->
<g id="edge71" class="edge"><title>Node1&#45;&gt;Node21</title>
<path fill="none" stroke="midnightblue" d="M824.698,-511.207C746.24,-503.781 629.824,-488.113 533,-456 420.734,-418.766 394.072,-400.581 297,-333 271.346,-315.14 245.214,-290.625 227.766,-273.157"/>
<polygon fill="midnightblue" stroke="midnightblue" points="229.906,-270.342 220.393,-265.677 224.92,-275.256 229.906,-270.342"/>
</g>
<!-- Node22 -->
<g id="node22" class="node"><title>Node22</title>
<polygon fill="white" stroke="#bfbfbf" points="421,-235.5 421,-265.5 555,-265.5 555,-235.5 421,-235.5"/>
<text text-anchor="start" x="429" y="-253.5" font-family="Helvetica,sans-Serif" font-size="10.00">OpenMesh/Core/Mesh</text>
<text text-anchor="middle" x="488" y="-242.5" font-family="Helvetica,sans-Serif" font-size="10.00">/TriMesh_ArrayKernelT.hh</text>
</g>
<!-- Node1&#45;&gt;Node22 -->
<g id="edge72" class="edge"><title>Node1&#45;&gt;Node22</title>
<path fill="none" stroke="midnightblue" d="M873.923,-492.475C789.533,-439.781 595.065,-318.353 519.154,-270.953"/>
<polygon fill="midnightblue" stroke="midnightblue" points="520.836,-267.877 510.5,-265.549 517.128,-273.814 520.836,-267.877"/>
</g>
<!-- Node23 -->
<g id="node23" class="node"><title>Node23</title>
<g id="a_node23"><a xlink:href="Index_8hpp.html" target="_top" xlink:title="Core/Index/Index.hpp">
<polygon fill="white" stroke="black" points="1006.5,-241 1006.5,-260 1123.5,-260 1123.5,-241 1006.5,-241"/>
<text text-anchor="middle" x="1065" y="-248" font-family="Helvetica,sans-Serif" font-size="10.00">Core/Index/Index.hpp</text>
</a>
</g>
</g>
<!-- Node1&#45;&gt;Node23 -->
<g id="edge27" class="edge"><title>Node1&#45;&gt;Node23</title>
<path fill="none" stroke="midnightblue" d="M921.219,-492.476C934.157,-450.386 964.196,-363.956 1009,-302 1018.78,-288.474 1032.71,-275.895 1044.23,-266.674"/>
<polygon fill="midnightblue" stroke="midnightblue" points="1046.68,-269.2 1052.46,-260.318 1042.41,-263.66 1046.68,-269.2"/>
</g>
<!-- Node26 -->
<g id="node26" class="node"><title>Node26</title>
<g id="a_node26"><a xlink:href="TriangleMesh_8hpp.html" target="_top" xlink:title="Core/Mesh/TriangleMesh.hpp">
<polygon fill="white" stroke="black" points="996.5,-431 996.5,-450 1149.5,-450 1149.5,-431 996.5,-431"/>
<text text-anchor="middle" x="1073" y="-438" font-family="Helvetica,sans-Serif" font-size="10.00">Core/Mesh/TriangleMesh.hpp</text>
</a>
</g>
</g>
<!-- Node1&#45;&gt;Node26 -->
<g id="edge31" class="edge"><title>Node1&#45;&gt;Node26</title>
<path fill="none" stroke="midnightblue" d="M966.503,-492.404C993.017,-479.731 1024.08,-464.885 1045.79,-454.508"/>
<polygon fill="midnightblue" stroke="midnightblue" points="1047.54,-457.548 1055.05,-450.078 1044.52,-451.233 1047.54,-457.548"/>
</g>
<!-- Node43 -->
<g id="node43" class="node"><title>Node43</title>
<polygon fill="white" stroke="#bfbfbf" points="1167.5,-425.5 1167.5,-455.5 1310.5,-455.5 1310.5,-425.5 1167.5,-425.5"/>
<text text-anchor="start" x="1175.5" y="-443.5" font-family="Helvetica,sans-Serif" font-size="10.00">OpenMesh/Core/Mesh</text>
<text text-anchor="middle" x="1239" y="-432.5" font-family="Helvetica,sans-Serif" font-size="10.00">/PolyMesh_ArrayKernelT.hh</text>
</g>
<!-- Node1&#45;&gt;Node43 -->
<g id="edge70" class="edge"><title>Node1&#45;&gt;Node43</title>
<path fill="none" stroke="midnightblue" d="M1003.24,-496.632C1055.45,-484.422 1120.43,-469.228 1168.94,-457.884"/>
<polygon fill="midnightblue" stroke="midnightblue" points="1169.78,-461.281 1178.72,-455.596 1168.19,-454.465 1169.78,-461.281"/>
</g>
<!-- Node44 -->
<g id="node44" class="node"><title>Node44</title>
<polygon fill="white" stroke="#bfbfbf" points="1328.5,-425.5 1328.5,-455.5 1445.5,-455.5 1445.5,-425.5 1328.5,-425.5"/>
<text text-anchor="start" x="1336.5" y="-443.5" font-family="Helvetica,sans-Serif" font-size="10.00">OpenMesh/Core/Utils</text>
<text text-anchor="middle" x="1387" y="-432.5" font-family="Helvetica,sans-Serif" font-size="10.00">/Property.hh</text>
</g>
<!-- Node1&#45;&gt;Node44 -->
<g id="edge73" class="edge"><title>Node1&#45;&gt;Node44</title>
<path fill="none" stroke="midnightblue" d="M1003.14,-505.515C1083.04,-494.416 1203.66,-476.78 1318.42,-456.039"/>
<polygon fill="midnightblue" stroke="midnightblue" points="1319.23,-459.45 1328.44,-454.218 1317.97,-452.563 1319.23,-459.45"/>
</g>
<!-- Node45 -->
<g id="node45" class="node"><title>Node45</title>
<g id="a_node45"><a xlink:href="TopologicalMesh_8inl.html" target="_top" xlink:title="Core/Mesh/TopologicalTri\lMesh/TopologicalMesh.inl">
<polygon fill="white" stroke="black" points="1464,-425.5 1464,-455.5 1600,-455.5 1600,-425.5 1464,-425.5"/>
<text text-anchor="start" x="1472" y="-443.5" font-family="Helvetica,sans-Serif" font-size="10.00">Core/Mesh/TopologicalTri</text>
<text text-anchor="middle" x="1532" y="-432.5" font-family="Helvetica,sans-Serif" font-size="10.00">Mesh/TopologicalMesh.inl</text>
</a>
</g>
</g>
<!-- Node1&#45;&gt;Node45 -->
<g id="edge76" class="edge"><title>Node1&#45;&gt;Node45</title>
<path fill="none" stroke="midnightblue" d="M1003.31,-508.64C1109.03,-498.164 1290.1,-479.19 1445,-456 1447.87,-455.57 1450.8,-455.112 1453.76,-454.634"/>
<polygon fill="midnightblue" stroke="midnightblue" points="1454.64,-458.038 1463.92,-452.943 1453.49,-451.133 1454.64,-458.038"/>
</g>
<!-- Node2&#45;&gt;Node3 -->
<g id="edge2" class="edge"><title>Node2&#45;&gt;Node3</title>
<path fill="none" stroke="midnightblue" d="M364.653,-302.364C350.517,-272.98 323.894,-204.971 359,-168 386.866,-138.653 977.07,-126.905 1168.58,-123.857"/>
<polygon fill="midnightblue" stroke="midnightblue" points="1168.79,-127.354 1178.74,-123.697 1168.68,-120.355 1168.79,-127.354"/>
</g>
<!-- Node2&#45;&gt;Node10 -->
<g id="edge9" class="edge"><title>Node2&#45;&gt;Node10</title>
<path fill="none" stroke="midnightblue" d="M354.086,-302.46C341.553,-292.503 324.522,-278.707 310,-266 294.856,-252.749 294.976,-244.044 277,-235 196.318,-194.409 164.472,-221.49 77,-199 73.7953,-198.176 70.4848,-197.232 67.1894,-196.23"/>
<polygon fill="midnightblue" stroke="midnightblue" points="68.0608,-192.834 57.4695,-193.109 65.921,-199.499 68.0608,-192.834"/>
</g>
<!-- Node2&#45;&gt;Node11 -->
<g id="edge10" class="edge"><title>Node2&#45;&gt;Node11</title>
<path fill="none" stroke="midnightblue" d="M365.023,-302.455C355.231,-284.189 335.692,-252.546 310,-235 304.279,-231.093 225.068,-209.301 174.571,-195.651"/>
<polygon fill="midnightblue" stroke="midnightblue" points="175.451,-192.263 164.884,-193.037 173.627,-199.021 175.451,-192.263"/>
</g>
<!-- Node2&#45;&gt;Node12 -->
<g id="edge11" class="edge"><title>Node2&#45;&gt;Node12</title>
<path fill="none" stroke="midnightblue" d="M438.034,-302.874C496.845,-290.738 581.694,-273.23 635.582,-262.11"/>
<polygon fill="midnightblue" stroke="midnightblue" points="636.514,-265.492 645.6,-260.043 635.099,-258.636 636.514,-265.492"/>
</g>
<!-- Node2&#45;&gt;Node21 -->
<g id="edge25" class="edge"><title>Node2&#45;&gt;Node21</title>
<path fill="none" stroke="midnightblue" d="M336.197,-302.396C311.548,-292.686 278.607,-279.709 252.157,-269.289"/>
<polygon fill="midnightblue" stroke="midnightblue" points="253.32,-265.985 242.733,-265.577 250.754,-272.498 253.32,-265.985"/>
</g>
<!-- Node2&#45;&gt;Node22 -->
<g id="edge26" class="edge"><title>Node2&#45;&gt;Node22</title>
<path fill="none" stroke="midnightblue" d="M397.17,-302.396C413.739,-293.112 435.638,-280.841 453.781,-270.674"/>
<polygon fill="midnightblue" stroke="midnightblue" points="455.866,-273.518 462.879,-265.577 452.444,-267.412 455.866,-273.518"/>
</g>
<!-- Node4 -->
<g id="node4" class="node"><title>Node4</title>
<g id="a_node4"><a xlink:href="CoreMacros_8hpp.html" target="_top" xlink:title="Core/CoreMacros.hpp">
<polygon fill="white" stroke="black" points="1281,-56.5 1281,-75.5 1401,-75.5 1401,-56.5 1281,-56.5"/>
<text text-anchor="middle" x="1341" y="-63.5" font-family="Helvetica,sans-Serif" font-size="10.00">Core/CoreMacros.hpp</text>
</a>
</g>
</g>
<!-- Node3&#45;&gt;Node4 -->
<g id="edge3" class="edge"><title>Node3&#45;&gt;Node4</title>
<path fill="none" stroke="midnightblue" d="M1245.91,-112.444C1264.25,-103.675 1293.01,-89.9355 1314.09,-79.8579"/>
<polygon fill="midnightblue" stroke="midnightblue" points="1315.67,-82.9862 1323.18,-75.5164 1312.65,-76.6703 1315.67,-82.9862"/>
</g>
<!-- Node5 -->
<g id="node5" class="node"><title>Node5</title>
<polygon fill="white" stroke="#bfbfbf" points="1419,-0.5 1419,-19.5 1471,-19.5 1471,-0.5 1419,-0.5"/>
<text text-anchor="middle" x="1445" y="-7.5" font-family="Helvetica,sans-Serif" font-size="10.00">cassert</text>
</g>
<!-- Node4&#45;&gt;Node5 -->
<g id="edge4" class="edge"><title>Node4&#45;&gt;Node5</title>
<path fill="none" stroke="midnightblue" d="M1357.71,-56.324C1374.31,-47.7034 1400,-34.3643 1419.22,-24.3855"/>
<polygon fill="midnightblue" stroke="midnightblue" points="1421.07,-27.3689 1428.33,-19.6545 1417.84,-21.1565 1421.07,-27.3689"/>
</g>
<!-- Node6 -->
<g id="node6" class="node"><title>Node6</title>
<polygon fill="white" stroke="#bfbfbf" points="1212.5,-0.5 1212.5,-19.5 1257.5,-19.5 1257.5,-0.5 1212.5,-0.5"/>
<text text-anchor="middle" x="1235" y="-7.5" font-family="Helvetica,sans-Serif" font-size="10.00">cstdio</text>
</g>
<!-- Node4&#45;&gt;Node6 -->
<g id="edge5" class="edge"><title>Node4&#45;&gt;Node6</title>
<path fill="none" stroke="midnightblue" d="M1323.97,-56.324C1306.97,-47.6641 1280.62,-34.2424 1261.01,-24.249"/>
<polygon fill="midnightblue" stroke="midnightblue" points="1262.49,-21.0752 1251.99,-19.6545 1259.31,-27.3125 1262.49,-21.0752"/>
</g>
<!-- Node7 -->
<g id="node7" class="node"><title>Node7</title>
<polygon fill="white" stroke="#bfbfbf" points="1275.5,-0.5 1275.5,-19.5 1334.5,-19.5 1334.5,-0.5 1275.5,-0.5"/>
<text text-anchor="middle" x="1305" y="-7.5" font-family="Helvetica,sans-Serif" font-size="10.00">iostream</text>
</g>
<!-- Node4&#45;&gt;Node7 -->
<g id="edge6" class="edge"><title>Node4&#45;&gt;Node7</title>
<path fill="none" stroke="midnightblue" d="M1335.06,-56.083C1330.02,-48.5341 1322.66,-37.4948 1316.49,-28.2298"/>
<polygon fill="midnightblue" stroke="midnightblue" points="1319.29,-26.1301 1310.83,-19.7511 1313.47,-30.0131 1319.29,-26.1301"/>
</g>
<!-- Node8 -->
<g id="node8" class="node"><title>Node8</title>
<polygon fill="white" stroke="#bfbfbf" points="1566,-0.5 1566,-19.5 1622,-19.5 1622,-0.5 1566,-0.5"/>
<text text-anchor="middle" x="1594" y="-7.5" font-family="Helvetica,sans-Serif" font-size="10.00">sstream</text>
</g>
<!-- Node4&#45;&gt;Node8 -->
<g id="edge7" class="edge"><title>Node4&#45;&gt;Node8</title>
<path fill="none" stroke="midnightblue" d="M1381.09,-56.4435C1429.12,-46.1922 1508.98,-29.146 1556.05,-19.101"/>
<polygon fill="midnightblue" stroke="midnightblue" points="1556.8,-22.5188 1565.85,-17.0084 1555.34,-15.673 1556.8,-22.5188"/>
</g>
<!-- Node9 -->
<g id="node9" class="node"><title>Node9</title>
<polygon fill="white" stroke="#bfbfbf" points="1353,-0.5 1353,-19.5 1401,-19.5 1401,-0.5 1353,-0.5"/>
<text text-anchor="middle" x="1377" y="-7.5" font-family="Helvetica,sans-Serif" font-size="10.00">thread</text>
</g>
<!-- Node4&#45;&gt;Node9 -->
<g id="edge8" class="edge"><title>Node4&#45;&gt;Node9</title>
<path fill="none" stroke="midnightblue" d="M1346.94,-56.083C1351.98,-48.5341 1359.34,-37.4948 1365.51,-28.2298"/>
<polygon fill="midnightblue" stroke="midnightblue" points="1368.53,-30.0131 1371.17,-19.7511 1362.71,-26.1301 1368.53,-30.0131"/>
</g>
<!-- Node12&#45;&gt;Node3 -->
<g id="edge12" class="edge"><title>Node12&#45;&gt;Node3</title>
<path fill="none" stroke="midnightblue" d="M735.414,-240.939C773.079,-233.141 825.99,-219.652 869,-199 890.238,-188.802 890.148,-176.805 912,-168 996.77,-133.842 1103.47,-125.019 1168.66,-123.064"/>
<polygon fill="midnightblue" stroke="midnightblue" points="1168.85,-126.561 1178.76,-122.807 1168.67,-119.563 1168.85,-126.561"/>
</g>
<!-- Node12&#45;&gt;Node10 -->
<g id="edge13" class="edge"><title>Node12&#45;&gt;Node10</title>
<path fill="none" stroke="midnightblue" d="M619.387,-240.993C601.403,-238.877 581.979,-236.723 564,-235 347.955,-214.29 289.73,-242.014 77,-199 73.3079,-198.253 69.495,-197.28 65.7352,-196.19"/>
<polygon fill="midnightblue" stroke="midnightblue" points="66.6166,-192.798 56.0264,-193.111 64.5003,-199.471 66.6166,-192.798"/>
</g>
<!-- Node12&#45;&gt;Node11 -->
<g id="edge14" class="edge"><title>Node12&#45;&gt;Node11</title>
<path fill="none" stroke="midnightblue" d="M617.104,-240.994C599.76,-238.957 581.211,-236.84 564,-235 397.516,-217.198 353.889,-228.075 189,-199 183.56,-198.041 177.873,-196.825 172.296,-195.506"/>
<polygon fill="midnightblue" stroke="midnightblue" points="173.002,-192.075 162.453,-193.055 171.311,-198.868 173.002,-192.075"/>
</g>
<!-- Node13 -->
<g id="node13" class="node"><title>Node13</title>
<polygon fill="white" stroke="#bfbfbf" points="780,-174 780,-193 860,-193 860,-174 780,-174"/>
<text text-anchor="middle" x="820" y="-181" font-family="Helvetica,sans-Serif" font-size="10.00">Eigen/Sparse</text>
</g>
<!-- Node12&#45;&gt;Node13 -->
<g id="edge15" class="edge"><title>Node12&#45;&gt;Node13</title>
<path fill="none" stroke="midnightblue" d="M704.661,-240.869C727.317,-229.796 766.828,-210.486 793.2,-197.598"/>
<polygon fill="midnightblue" stroke="midnightblue" points="794.818,-200.703 802.266,-193.167 791.744,-194.414 794.818,-200.703"/>
</g>
<!-- Node14 -->
<g id="node14" class="node"><title>Node14</title>
<polygon fill="white" stroke="#bfbfbf" points="368.5,-174 368.5,-193 431.5,-193 431.5,-174 368.5,-174"/>
<text text-anchor="middle" x="400" y="-181" font-family="Helvetica,sans-Serif" font-size="10.00">functional</text>
</g>
<!-- Node12&#45;&gt;Node14 -->
<g id="edge16" class="edge"><title>Node12&#45;&gt;Node14</title>
<path fill="none" stroke="midnightblue" d="M633.945,-240.965C583.56,-232.318 505.93,-217.582 440,-199 437.201,-198.211 434.316,-197.322 431.439,-196.382"/>
<polygon fill="midnightblue" stroke="midnightblue" points="432.413,-193.015 421.819,-193.062 430.13,-199.632 432.413,-193.015"/>
</g>
<!-- Node15 -->
<g id="node15" class="node"><title>Node15</title>
<polygon fill="white" stroke="#bfbfbf" points="449.5,-168.5 449.5,-198.5 594.5,-198.5 594.5,-168.5 449.5,-168.5"/>
<text text-anchor="start" x="457.5" y="-186.5" font-family="Helvetica,sans-Serif" font-size="10.00">unsupported/Eigen/Aligned</text>
<text text-anchor="middle" x="522" y="-175.5" font-family="Helvetica,sans-Serif" font-size="10.00">Vector3</text>
</g>
<!-- Node12&#45;&gt;Node15 -->
<g id="edge17" class="edge"><title>Node12&#45;&gt;Node15</title>
<path fill="none" stroke="midnightblue" d="M665.089,-240.869C640.223,-231.073 598.991,-214.83 567.158,-202.29"/>
<polygon fill="midnightblue" stroke="midnightblue" points="568.197,-198.937 557.61,-198.528 565.631,-205.45 568.197,-198.937"/>
</g>
<!-- Node16 -->
<g id="node16" class="node"><title>Node16</title>
<g id="a_node16"><a xlink:href="Math_8hpp.html" target="_top" xlink:title="Core/Math/Math.hpp">
<polygon fill="white" stroke="black" points="198,-174 198,-193 312,-193 312,-174 198,-174"/>
<text text-anchor="middle" x="255" y="-181" font-family="Helvetica,sans-Serif" font-size="10.00">Core/Math/Math.hpp</text>
</a>
</g>
</g>
<!-- Node12&#45;&gt;Node16 -->
<g id="edge18" class="edge"><title>Node12&#45;&gt;Node16</title>
<path fill="none" stroke="midnightblue" d="M630.079,-240.936C550.49,-228.96 406.24,-207.256 321.708,-194.537"/>
<polygon fill="midnightblue" stroke="midnightblue" points="322.113,-191.059 311.703,-193.032 321.071,-197.981 322.113,-191.059"/>
</g>
<!-- Node20 -->
<g id="node20" class="node"><title>Node20</title>
<g id="a_node20"><a xlink:href="LinearAlgebra_8inl.html" target="_top" xlink:title="Core/Math/LinearAlgebra.inl">
<polygon fill="white" stroke="black" points="612.5,-174 612.5,-193 761.5,-193 761.5,-174 612.5,-174"/>
<text text-anchor="middle" x="687" y="-181" font-family="Helvetica,sans-Serif" font-size="10.00">Core/Math/LinearAlgebra.inl</text>
</a>
</g>
</g>
<!-- Node12&#45;&gt;Node20 -->
<g id="edge24" class="edge"><title>Node12&#45;&gt;Node20</title>
<path fill="none" stroke="midnightblue" d="M687,-240.734C687,-231.183 687,-215.618 687,-203.283"/>
<polygon fill="midnightblue" stroke="midnightblue" points="690.5,-203.127 687,-193.127 683.5,-203.127 690.5,-203.127"/>
</g>
<!-- Node16&#45;&gt;Node3 -->
<g id="edge19" class="edge"><title>Node16&#45;&gt;Node3</title>
<path fill="none" stroke="midnightblue" d="M291.308,-173.982C302.387,-171.682 314.642,-169.435 326,-168 489.875,-147.3 994.998,-130.191 1168.65,-124.784"/>
<polygon fill="midnightblue" stroke="midnightblue" points="1168.98,-128.276 1178.87,-124.468 1168.77,-121.279 1168.98,-128.276"/>
</g>
<!-- Node17 -->
<g id="node17" class="node"><title>Node17</title>
<polygon fill="white" stroke="#bfbfbf" points="712,-112.5 712,-131.5 774,-131.5 774,-112.5 712,-112.5"/>
<text text-anchor="middle" x="743" y="-119.5" font-family="Helvetica,sans-Serif" font-size="10.00">algorithm</text>
</g>
<!-- Node16&#45;&gt;Node17 -->
<g id="edge20" class="edge"><title>Node16&#45;&gt;Node17</title>
<path fill="none" stroke="midnightblue" d="M293.572,-173.937C304.057,-171.797 315.434,-169.645 326,-168 462.919,-146.679 626.704,-132.19 701.755,-126.158"/>
<polygon fill="midnightblue" stroke="midnightblue" points="702.053,-129.645 711.744,-125.363 701.497,-122.667 702.053,-129.645"/>
</g>
<!-- Node18 -->
<g id="node18" class="node"><title>Node18</title>
<polygon fill="white" stroke="#bfbfbf" points="136.5,-112.5 136.5,-131.5 183.5,-131.5 183.5,-112.5 136.5,-112.5"/>
<text text-anchor="middle" x="160" y="-119.5" font-family="Helvetica,sans-Serif" font-size="10.00">cmath</text>
</g>
<!-- Node16&#45;&gt;Node18 -->
<g id="edge21" class="edge"><title>Node16&#45;&gt;Node18</title>
<path fill="none" stroke="midnightblue" d="M241.389,-173.975C225.939,-164.299 200.51,-148.372 182.184,-136.894"/>
<polygon fill="midnightblue" stroke="midnightblue" points="183.919,-133.851 173.586,-131.509 180.203,-139.783 183.919,-133.851"/>
</g>
<!-- Node19 -->
<g id="node19" class="node"><title>Node19</title>
<g id="a_node19"><a xlink:href="Math_8inl.html" target="_top" xlink:title="Core/Math/Math.inl">
<polygon fill="white" stroke="black" points="201.5,-112.5 201.5,-131.5 308.5,-131.5 308.5,-112.5 201.5,-112.5"/>
<text text-anchor="middle" x="255" y="-119.5" font-family="Helvetica,sans-Serif" font-size="10.00">Core/Math/Math.inl</text>
</a>
</g>
</g>
<!-- Node16&#45;&gt;Node19 -->
<g id="edge22" class="edge"><title>Node16&#45;&gt;Node19</title>
<path fill="none" stroke="midnightblue" d="M250.099,-173.975C248.268,-165.58 247.797,-152.481 248.685,-141.663"/>
<polygon fill="midnightblue" stroke="midnightblue" points="252.186,-141.897 250.103,-131.509 245.254,-140.929 252.186,-141.897"/>
</g>
<!-- Node19&#45;&gt;Node16 -->
<g id="edge23" class="edge"><title>Node19&#45;&gt;Node16</title>
<path fill="none" stroke="midnightblue" d="M259.897,-131.509C261.73,-139.898 262.203,-152.996 261.317,-163.817"/>
<polygon fill="midnightblue" stroke="midnightblue" points="257.815,-163.588 259.901,-173.975 264.748,-164.554 257.815,-163.588"/>
</g>
<!-- Node24 -->
<g id="node24" class="node"><title>Node24</title>
<polygon fill="white" stroke="#bfbfbf" points="954,-174 954,-193 996,-193 996,-174 954,-174"/>
<text text-anchor="middle" x="975" y="-181" font-family="Helvetica,sans-Serif" font-size="10.00">limits</text>
</g>
<!-- Node23&#45;&gt;Node24 -->
<g id="edge28" class="edge"><title>Node23&#45;&gt;Node24</title>
<path fill="none" stroke="midnightblue" d="M1052.86,-240.734C1038.15,-230.111 1013.14,-212.049 995.443,-199.264"/>
<polygon fill="midnightblue" stroke="midnightblue" points="997.102,-196.145 986.945,-193.127 993.003,-201.82 997.102,-196.145"/>
</g>
<!-- Node25 -->
<g id="node25" class="node"><title>Node25</title>
<g id="a_node25"><a xlink:href="Index_8inl.html" target="_top" xlink:title="Core/Index/Index.inl">
<polygon fill="white" stroke="black" points="1014,-174 1014,-193 1124,-193 1124,-174 1014,-174"/>
<text text-anchor="middle" x="1069" y="-181" font-family="Helvetica,sans-Serif" font-size="10.00">Core/Index/Index.inl</text>
</a>
</g>
</g>
<!-- Node23&#45;&gt;Node25 -->
<g id="edge29" class="edge"><title>Node23&#45;&gt;Node25</title>
<path fill="none" stroke="midnightblue" d="M1065.54,-240.734C1066.13,-231.183 1067.09,-215.618 1067.84,-203.283"/>
<polygon fill="midnightblue" stroke="midnightblue" points="1071.35,-203.323 1068.47,-193.127 1064.36,-202.893 1071.35,-203.323"/>
</g>
<!-- Node26&#45;&gt;Node3 -->
<g id="edge45" class="edge"><title>Node26&#45;&gt;Node3</title>
<path fill="none" stroke="midnightblue" d="M1083.81,-430.743C1103.84,-413.928 1146.81,-375.044 1170,-333 1205.76,-268.171 1220.75,-179.7 1225.82,-141.648"/>
<polygon fill="midnightblue" stroke="midnightblue" points="1229.31,-141.897 1227.08,-131.539 1222.37,-141.026 1229.31,-141.897"/>
</g>
<!-- Node26&#45;&gt;Node12 -->
<g id="edge40" class="edge"><title>Node26&#45;&gt;Node12</title>
<path fill="none" stroke="midnightblue" d="M1055.82,-430.84C1012.32,-408.947 894.229,-349.732 795,-302 767.987,-289.006 736.974,-274.552 715.132,-264.449"/>
<polygon fill="midnightblue" stroke="midnightblue" points="716.335,-261.149 705.789,-260.134 713.4,-267.504 716.335,-261.149"/>
</g>
<!-- Node27 -->
<g id="node27" class="node"><title>Node27</title>
<g id="a_node27"><a xlink:href="VectorArray_8hpp.html" target="_top" xlink:title="Core/Containers/VectorArray.hpp">
<polygon fill="white" stroke="black" points="1534.5,-308 1534.5,-327 1707.5,-327 1707.5,-308 1534.5,-308"/>
<text text-anchor="middle" x="1621" y="-315" font-family="Helvetica,sans-Serif" font-size="10.00">Core/Containers/VectorArray.hpp</text>
</a>
</g>
</g>
<!-- Node26&#45;&gt;Node27 -->
<g id="edge32" class="edge"><title>Node26&#45;&gt;Node27</title>
<path fill="none" stroke="midnightblue" d="M1120.59,-430.993C1132.77,-428.923 1145.86,-426.791 1158,-425 1286.05,-406.112 1321.73,-421.58 1447,-389 1501.55,-374.813 1561.8,-347.623 1595.16,-331.471"/>
<polygon fill="midnightblue" stroke="midnightblue" points="1596.78,-334.575 1604.22,-327.033 1593.7,-328.288 1596.78,-334.575"/>
</g>
<!-- Node31 -->
<g id="node31" class="node"><title>Node31</title>
<g id="a_node31"><a xlink:href="MeshTypes_8hpp.html" target="_top" xlink:title="Core/Mesh/MeshTypes.hpp">
<polygon fill="white" stroke="black" points="1018.5,-308 1018.5,-327 1161.5,-327 1161.5,-308 1018.5,-308"/>
<text text-anchor="middle" x="1090" y="-315" font-family="Helvetica,sans-Serif" font-size="10.00">Core/Mesh/MeshTypes.hpp</text>
</a>
</g>
</g>
<!-- Node26&#45;&gt;Node31 -->
<g id="edge41" class="edge"><title>Node26&#45;&gt;Node31</title>
<path fill="none" stroke="midnightblue" d="M1074.22,-430.798C1076.97,-411.263 1083.67,-363.565 1087.39,-337.047"/>
<polygon fill="midnightblue" stroke="midnightblue" points="1090.86,-337.513 1088.79,-327.123 1083.93,-336.539 1090.86,-337.513"/>
</g>
<!-- Node32 -->
<g id="node32" class="node"><title>Node32</title>
<g id="a_node32"><a xlink:href="Attribs_8hpp.html" target="_top" xlink:title="Core/Utils/Attribs.hpp">
<polygon fill="white" stroke="black" points="1319.5,-369.5 1319.5,-388.5 1438.5,-388.5 1438.5,-369.5 1319.5,-369.5"/>
<text text-anchor="middle" x="1379" y="-376.5" font-family="Helvetica,sans-Serif" font-size="10.00">Core/Utils/Attribs.hpp</text>
</a>
</g>
</g>
<!-- Node26&#45;&gt;Node32 -->
<g id="edge46" class="edge"><title>Node26&#45;&gt;Node32</title>
<path fill="none" stroke="midnightblue" d="M1116.84,-430.975C1171.83,-420.283 1266.07,-401.958 1325.32,-390.437"/>
<polygon fill="midnightblue" stroke="midnightblue" points="1326.09,-393.854 1335.24,-388.509 1324.75,-386.982 1326.09,-393.854"/>
</g>
<!-- Node42 -->
<g id="node42" class="node"><title>Node42</title>
<g id="a_node42"><a xlink:href="TriangleMesh_8inl.html" target="_top" xlink:title="Core/Mesh/TriangleMesh.inl">
<polygon fill="white" stroke="black" points="1155,-369.5 1155,-388.5 1301,-388.5 1301,-369.5 1155,-369.5"/>
<text text-anchor="middle" x="1228" y="-376.5" font-family="Helvetica,sans-Serif" font-size="10.00">Core/Mesh/TriangleMesh.inl</text>
</a>
</g>
</g>
<!-- Node26&#45;&gt;Node42 -->
<g id="edge67" class="edge"><title>Node26&#45;&gt;Node42</title>
<path fill="none" stroke="midnightblue" d="M1090.31,-430.975C1114.77,-420.725 1159.54,-403.459 1191.48,-391.899"/>
<polygon fill="midnightblue" stroke="midnightblue" points="1192.7,-395.177 1200.94,-388.509 1190.34,-388.588 1192.7,-395.177"/>
</g>
<!-- Node27&#45;&gt;Node3 -->
<g id="edge38" class="edge"><title>Node27&#45;&gt;Node3</title>
<path fill="none" stroke="midnightblue" d="M1622.93,-307.947C1626.13,-291.362 1630.38,-254.732 1611,-235 1570.9,-194.168 1409.99,-217.979 1356,-199 1353.17,-198.007 1287.29,-158.578 1251.17,-136.915"/>
<polygon fill="midnightblue" stroke="midnightblue" points="1252.65,-133.718 1242.27,-131.574 1249.05,-139.72 1252.65,-133.718"/>
</g>
<!-- Node27&#45;&gt;Node12 -->
<g id="edge37" class="edge"><title>Node27&#45;&gt;Node12</title>
<path fill="none" stroke="midnightblue" d="M1534.11,-309.166C1505.14,-306.789 1472.68,-304.2 1443,-302 1201.6,-284.106 916.614,-265.843 775.439,-256.988"/>
<polygon fill="midnightblue" stroke="midnightblue" points="775.313,-253.473 765.113,-256.341 774.875,-260.46 775.313,-253.473"/>
</g>
<!-- Node28 -->
<g id="node28" class="node"><title>Node28</title>
<g id="a_node28"><a xlink:href="AlignedStdVector_8hpp.html" target="_top" xlink:title="Core/Containers/AlignedStd\lVector.hpp">
<polygon fill="white" stroke="black" points="1775.5,-168.5 1775.5,-198.5 1924.5,-198.5 1924.5,-168.5 1775.5,-168.5"/>
<text text-anchor="start" x="1783.5" y="-186.5" font-family="Helvetica,sans-Serif" font-size="10.00">Core/Containers/AlignedStd</text>
<text text-anchor="middle" x="1850" y="-175.5" font-family="Helvetica,sans-Serif" font-size="10.00">Vector.hpp</text>
</a>
</g>
</g>
<!-- Node27&#45;&gt;Node28 -->
<g id="edge33" class="edge"><title>Node27&#45;&gt;Node28</title>
<path fill="none" stroke="midnightblue" d="M1660.89,-307.99C1691.74,-300.221 1734.66,-286.743 1768,-266 1793.71,-249.999 1817.6,-224.547 1832.89,-206.343"/>
<polygon fill="midnightblue" stroke="midnightblue" points="1835.64,-208.501 1839.28,-198.55 1830.23,-204.062 1835.64,-208.501"/>
</g>
<!-- Node30 -->
<g id="node30" class="node"><title>Node30</title>
<polygon fill="white" stroke="#bfbfbf" points="1801.5,-112.5 1801.5,-131.5 1848.5,-131.5 1848.5,-112.5 1801.5,-112.5"/>
<text text-anchor="middle" x="1825" y="-119.5" font-family="Helvetica,sans-Serif" font-size="10.00">vector</text>
</g>
<!-- Node27&#45;&gt;Node30 -->
<g id="edge39" class="edge"><title>Node27&#45;&gt;Node30</title>
<path fill="none" stroke="midnightblue" d="M1707.55,-311.629C1782.6,-302.143 1886.29,-275.088 1933,-199 1940.21,-187.258 1940.64,-179.464 1933,-168 1924.28,-154.923 1886.64,-141.212 1858.23,-132.412"/>
<polygon fill="midnightblue" stroke="midnightblue" points="1859.21,-129.053 1848.62,-129.513 1857.18,-135.754 1859.21,-129.053"/>
</g>
<!-- Node28&#45;&gt;Node3 -->
<g id="edge34" class="edge"><title>Node28&#45;&gt;Node3</title>
<path fill="none" stroke="midnightblue" d="M1775.28,-175.352C1650.39,-163.405 1401.71,-139.617 1287.67,-128.708"/>
<polygon fill="midnightblue" stroke="midnightblue" points="1287.67,-125.193 1277.39,-127.724 1287.01,-132.161 1287.67,-125.193"/>
</g>
<!-- Node29 -->
<g id="node29" class="node"><title>Node29</title>
<polygon fill="white" stroke="#bfbfbf" points="1866.5,-112.5 1866.5,-131.5 1959.5,-131.5 1959.5,-112.5 1866.5,-112.5"/>
<text text-anchor="middle" x="1913" y="-119.5" font-family="Helvetica,sans-Serif" font-size="10.00">Eigen/StdVector</text>
</g>
<!-- Node28&#45;&gt;Node29 -->
<g id="edge35" class="edge"><title>Node28&#45;&gt;Node29</title>
<path fill="none" stroke="midnightblue" d="M1864.93,-168.399C1874.37,-159.486 1886.58,-147.952 1896.33,-138.741"/>
<polygon fill="midnightblue" stroke="midnightblue" points="1898.97,-141.069 1903.83,-131.658 1894.16,-135.979 1898.97,-141.069"/>
</g>
<!-- Node28&#45;&gt;Node30 -->
<g id="edge36" class="edge"><title>Node28&#45;&gt;Node30</title>
<path fill="none" stroke="midnightblue" d="M1844.08,-168.399C1840.63,-160.199 1836.25,-149.781 1832.56,-140.994"/>
<polygon fill="midnightblue" stroke="midnightblue" points="1835.74,-139.521 1828.64,-131.658 1829.28,-142.233 1835.74,-139.521"/>
</g>
<!-- Node31&#45;&gt;Node3 -->
<g id="edge44" class="edge"><title>Node31&#45;&gt;Node3</title>
<path fill="none" stroke="midnightblue" d="M1098.54,-307.769C1107.65,-298.129 1122.1,-281.866 1132,-266 1157.28,-225.495 1147.5,-206.303 1176,-168 1184.57,-156.476 1196.58,-145.845 1206.89,-137.813"/>
<polygon fill="midnightblue" stroke="midnightblue" points="1209.13,-140.507 1215.04,-131.714 1204.94,-134.901 1209.13,-140.507"/>
</g>
<!-- Node31&#45;&gt;Node12 -->
<g id="edge43" class="edge"><title>Node31&#45;&gt;Node12</title>
<path fill="none" stroke="midnightblue" d="M1036.9,-307.936C962.955,-296.009 829.18,-274.432 750.194,-261.693"/>
<polygon fill="midnightblue" stroke="midnightblue" points="750.326,-258.169 739.897,-260.032 749.212,-265.079 750.326,-258.169"/>
</g>
<!-- Node31&#45;&gt;Node23 -->
<g id="edge42" class="edge"><title>Node31&#45;&gt;Node23</title>
<path fill="none" stroke="midnightblue" d="M1086.63,-307.734C1082.88,-297.988 1076.72,-281.981 1071.94,-269.532"/>
<polygon fill="midnightblue" stroke="midnightblue" points="1075.17,-268.204 1068.32,-260.127 1068.64,-270.717 1075.17,-268.204"/>
</g>
<!-- Node32&#45;&gt;Node3 -->
<g id="edge66" class="edge"><title>Node32&#45;&gt;Node3</title>
<path fill="none" stroke="midnightblue" d="M1347,-369.441C1327.35,-362.619 1303.12,-351.14 1288,-333 1240.05,-275.478 1230.37,-181.718 1228.46,-141.873"/>
<polygon fill="midnightblue" stroke="midnightblue" points="1231.95,-141.602 1228.08,-131.736 1224.95,-141.857 1231.95,-141.602"/>
</g>
<!-- Node32&#45;&gt;Node27 -->
<g id="edge47" class="edge"><title>Node32&#45;&gt;Node27</title>
<path fill="none" stroke="midnightblue" d="M1413.67,-369.475C1456.53,-358.937 1529.54,-340.986 1576.5,-329.441"/>
<polygon fill="midnightblue" stroke="midnightblue" points="1577.52,-332.796 1586.39,-327.009 1575.85,-325.998 1577.52,-332.796"/>
</g>
<!-- Node33 -->
<g id="node33" class="node"><title>Node33</title>
<g id="a_node33"><a xlink:href="IndexMap_8hpp.html" target="_top" xlink:title="Core/Index/IndexMap.hpp">
<polygon fill="white" stroke="black" points="1297.5,-308 1297.5,-327 1434.5,-327 1434.5,-308 1297.5,-308"/>
<text text-anchor="middle" x="1366" y="-315" font-family="Helvetica,sans-Serif" font-size="10.00">Core/Index/IndexMap.hpp</text>
</a>
</g>
</g>
<!-- Node32&#45;&gt;Node33 -->
<g id="edge48" class="edge"><title>Node32&#45;&gt;Node33</title>
<path fill="none" stroke="midnightblue" d="M1377.14,-369.475C1375.28,-360.992 1372.38,-347.704 1370,-336.822"/>
<polygon fill="midnightblue" stroke="midnightblue" points="1373.41,-336.032 1367.86,-327.009 1366.57,-337.526 1373.41,-336.032"/>
</g>
<!-- Node37 -->
<g id="node37" class="node"><title>Node37</title>
<g id="a_node37"><a xlink:href="Log_8hpp.html" target="_top" xlink:title="Core/Log/Log.hpp">
<polygon fill="white" stroke="black" points="1658.5,-241 1658.5,-260 1759.5,-260 1759.5,-241 1658.5,-241"/>
<text text-anchor="middle" x="1709" y="-248" font-family="Helvetica,sans-Serif" font-size="10.00">Core/Log/Log.hpp</text>
</a>
</g>
</g>
<!-- Node32&#45;&gt;Node37 -->
<g id="edge56" class="edge"><title>Node32&#45;&gt;Node37</title>
<path fill="none" stroke="midnightblue" d="M1393.03,-369.405C1418.52,-354.089 1474.46,-321.831 1525,-302 1568.83,-284.802 1620.71,-271.134 1658.19,-262.378"/>
<polygon fill="midnightblue" stroke="midnightblue" points="1659.4,-265.691 1668.36,-260.039 1657.83,-258.869 1659.4,-265.691"/>
</g>
<!-- Node33&#45;&gt;Node3 -->
<g id="edge49" class="edge"><title>Node33&#45;&gt;Node3</title>
<path fill="none" stroke="midnightblue" d="M1357.21,-307.823C1347.85,-298.23 1333.02,-282.006 1323,-266 1297.76,-225.687 1308.23,-206.279 1280,-168 1271.47,-156.44 1259.48,-145.806 1249.15,-137.782"/>
<polygon fill="midnightblue" stroke="midnightblue" points="1251.1,-134.865 1240.99,-131.692 1246.91,-140.476 1251.1,-134.865"/>
</g>
<!-- Node33&#45;&gt;Node17 -->
<g id="edge50" class="edge"><title>Node33&#45;&gt;Node17</title>
<path fill="none" stroke="midnightblue" d="M1356.21,-307.863C1325.73,-281.536 1228.83,-202.024 1133,-168 1069.43,-145.43 870.981,-130.858 784.255,-125.41"/>
<polygon fill="midnightblue" stroke="midnightblue" points="784.447,-121.916 774.249,-124.791 784.014,-128.902 784.447,-121.916"/>
</g>
<!-- Node33&#45;&gt;Node23 -->
<g id="edge53" class="edge"><title>Node33&#45;&gt;Node23</title>
<path fill="none" stroke="midnightblue" d="M1326.34,-307.936C1271.86,-296.171 1173.91,-275.018 1114.63,-262.218"/>
<polygon fill="midnightblue" stroke="midnightblue" points="1115.26,-258.773 1104.75,-260.083 1113.78,-265.615 1115.26,-258.773"/>
</g>
<!-- Node34 -->
<g id="node34" class="node"><title>Node34</title>
<polygon fill="white" stroke="#bfbfbf" points="1332,-241 1332,-260 1388,-260 1388,-241 1332,-241"/>
<text text-anchor="middle" x="1360" y="-248" font-family="Helvetica,sans-Serif" font-size="10.00">assert.h</text>
</g>
<!-- Node33&#45;&gt;Node34 -->
<g id="edge51" class="edge"><title>Node33&#45;&gt;Node34</title>
<path fill="none" stroke="midnightblue" d="M1365.19,-307.734C1364.31,-298.183 1362.87,-282.618 1361.73,-270.283"/>
<polygon fill="midnightblue" stroke="midnightblue" points="1365.2,-269.763 1360.8,-260.127 1358.23,-270.407 1365.2,-269.763"/>
</g>
<!-- Node35 -->
<g id="node35" class="node"><title>Node35</title>
<polygon fill="white" stroke="#bfbfbf" points="1406.5,-241 1406.5,-260 1453.5,-260 1453.5,-241 1406.5,-241"/>
<text text-anchor="middle" x="1430" y="-248" font-family="Helvetica,sans-Serif" font-size="10.00">deque</text>
</g>
<!-- Node33&#45;&gt;Node35 -->
<g id="edge52" class="edge"><title>Node33&#45;&gt;Node35</title>
<path fill="none" stroke="midnightblue" d="M1374.63,-307.734C1384.8,-297.403 1401.9,-280.037 1414.41,-267.332"/>
<polygon fill="midnightblue" stroke="midnightblue" points="1416.98,-269.709 1421.51,-260.127 1412,-264.797 1416.98,-269.709"/>
</g>
<!-- Node36 -->
<g id="node36" class="node"><title>Node36</title>
<g id="a_node36"><a xlink:href="IndexMap_8inl.html" target="_top" xlink:title="Core/Index/IndexMap.inl">
<polygon fill="white" stroke="black" points="1472,-241 1472,-260 1602,-260 1602,-241 1472,-241"/>
<text text-anchor="middle" x="1537" y="-248" font-family="Helvetica,sans-Serif" font-size="10.00">Core/Index/IndexMap.inl</text>
</a>
</g>
</g>
<!-- Node33&#45;&gt;Node36 -->
<g id="edge54" class="edge"><title>Node33&#45;&gt;Node36</title>
<path fill="none" stroke="midnightblue" d="M1383.95,-307.869C1411.5,-296.473 1464.22,-276.353 1500.09,-263.487"/>
<polygon fill="midnightblue" stroke="midnightblue" points="1501.47,-266.71 1509.73,-260.064 1499.13,-260.114 1501.47,-266.71"/>
</g>
<!-- Node36&#45;&gt;Node33 -->
<g id="edge55" class="edge"><title>Node36&#45;&gt;Node33</title>
<path fill="none" stroke="midnightblue" d="M1518.97,-260.167C1491.44,-271.549 1438.92,-291.591 1403.09,-304.446"/>
<polygon fill="midnightblue" stroke="midnightblue" points="1401.72,-301.221 1393.47,-307.869 1404.06,-307.817 1401.72,-301.221"/>
</g>
<!-- Node37&#45;&gt;Node3 -->
<g id="edge57" class="edge"><title>Node37&#45;&gt;Node3</title>
<path fill="none" stroke="midnightblue" d="M1673,-240.973C1663.59,-238.881 1653.44,-236.743 1644,-235 1535.77,-215.005 1500.99,-240.36 1399,-199 1377.17,-190.146 1376.88,-178.908 1356,-168 1328.63,-153.703 1295.72,-142.248 1270.13,-134.473"/>
<polygon fill="midnightblue" stroke="midnightblue" points="1270.94,-131.062 1260.35,-131.574 1268.95,-137.773 1270.94,-131.062"/>
</g>
<!-- Node37&#45;&gt;Node8 -->
<g id="edge58" class="edge"><title>Node37&#45;&gt;Node8</title>
<path fill="none" stroke="midnightblue" d="M1710.56,-240.804C1712.97,-225.757 1716.74,-193.983 1711,-168 1697.46,-106.671 1642.52,-52.0881 1612.99,-26.4591"/>
<polygon fill="midnightblue" stroke="midnightblue" points="1614.95,-23.5291 1605.05,-19.7371 1610.42,-28.8708 1614.95,-23.5291"/>
</g>
<!-- Node38 -->
<g id="node38" class="node"><title>Node38</title>
<polygon fill="white" stroke="#bfbfbf" points="1408.5,-174 1408.5,-193 1457.5,-193 1457.5,-174 1408.5,-174"/>
<text text-anchor="middle" x="1433" y="-181" font-family="Helvetica,sans-Serif" font-size="10.00">stdio.h</text>
</g>
<!-- Node37&#45;&gt;Node38 -->
<g id="edge59" class="edge"><title>Node37&#45;&gt;Node38</title>
<path fill="none" stroke="midnightblue" d="M1671.22,-240.946C1662.3,-238.961 1652.82,-236.881 1644,-235 1565.49,-218.26 1543.65,-222.868 1467,-199 1464.86,-198.333 1462.67,-197.579 1460.48,-196.772"/>
<polygon fill="midnightblue" stroke="midnightblue" points="1461.68,-193.481 1451.1,-193.02 1459.08,-199.981 1461.68,-193.481"/>
</g>
<!-- Node39 -->
<g id="node39" class="node"><title>Node39</title>
<polygon fill="white" stroke="#bfbfbf" points="1632,-112.5 1632,-131.5 1676,-131.5 1676,-112.5 1632,-112.5"/>
<text text-anchor="middle" x="1654" y="-119.5" font-family="Helvetica,sans-Serif" font-size="10.00">string</text>
</g>
<!-- Node37&#45;&gt;Node39 -->
<g id="edge60" class="edge"><title>Node37&#45;&gt;Node39</title>
<path fill="none" stroke="midnightblue" d="M1708.43,-240.979C1707.13,-225.659 1703.04,-192.758 1691,-168 1685.82,-157.359 1677.65,-147.045 1670.3,-138.982"/>
<polygon fill="midnightblue" stroke="midnightblue" points="1672.81,-136.543 1663.37,-131.74 1667.75,-141.384 1672.81,-136.543"/>
</g>
<!-- Node40 -->
<g id="node40" class="node"><title>Node40</title>
<g id="a_node40"><a xlink:href="StringUtils_8hpp.html" target="_top" xlink:title="Core/String/StringUtils.hpp">
<polygon fill="white" stroke="black" points="1538,-174 1538,-193 1682,-193 1682,-174 1538,-174"/>
<text text-anchor="middle" x="1610" y="-181" font-family="Helvetica,sans-Serif" font-size="10.00">Core/String/StringUtils.hpp</text>
</a>
</g>
</g>
<!-- Node37&#45;&gt;Node40 -->
<g id="edge61" class="edge"><title>Node37&#45;&gt;Node40</title>
<path fill="none" stroke="midnightblue" d="M1695.65,-240.734C1679.25,-229.964 1651.2,-211.55 1631.69,-198.739"/>
<polygon fill="midnightblue" stroke="midnightblue" points="1633.42,-195.69 1623.14,-193.127 1629.58,-201.542 1633.42,-195.69"/>
</g>
<!-- Node41 -->
<g id="node41" class="node"><title>Node41</title>
<polygon fill="white" stroke="#bfbfbf" points="1476,-174 1476,-193 1520,-193 1520,-174 1476,-174"/>
<text text-anchor="middle" x="1498" y="-181" font-family="Helvetica,sans-Serif" font-size="10.00">ctime</text>
</g>
<!-- Node37&#45;&gt;Node41 -->
<g id="edge65" class="edge"><title>Node37&#45;&gt;Node41</title>
<path fill="none" stroke="midnightblue" d="M1671.89,-240.98C1635.1,-232.093 1577.38,-216.963 1529,-199 1527.57,-198.47 1526.12,-197.901 1524.66,-197.306"/>
<polygon fill="midnightblue" stroke="midnightblue" points="1525.73,-193.952 1515.17,-193.14 1522.92,-200.362 1525.73,-193.952"/>
</g>
<!-- Node40&#45;&gt;Node3 -->
<g id="edge62" class="edge"><title>Node40&#45;&gt;Node3</title>
<path fill="none" stroke="midnightblue" d="M1563.78,-173.989C1552.42,-171.963 1540.28,-169.852 1529,-168 1445.21,-154.24 1348,-140.023 1287.24,-131.344"/>
<polygon fill="midnightblue" stroke="midnightblue" points="1287.47,-127.841 1277.08,-129.895 1286.48,-134.771 1287.47,-127.841"/>
</g>
<!-- Node40&#45;&gt;Node30 -->
<g id="edge64" class="edge"><title>Node40&#45;&gt;Node30</title>
<path fill="none" stroke="midnightblue" d="M1640.8,-173.975C1680.73,-162.926 1750.11,-143.726 1791.37,-132.307"/>
<polygon fill="midnightblue" stroke="midnightblue" points="1792.52,-135.621 1801.22,-129.581 1790.65,-128.875 1792.52,-135.621"/>
</g>
<!-- Node40&#45;&gt;Node39 -->
<g id="edge63" class="edge"><title>Node40&#45;&gt;Node39</title>
<path fill="none" stroke="midnightblue" d="M1616.3,-173.975C1622.9,-165.05 1633.44,-150.807 1641.69,-139.643"/>
<polygon fill="midnightblue" stroke="midnightblue" points="1644.58,-141.631 1647.71,-131.509 1638.95,-137.468 1644.58,-141.631"/>
</g>
<!-- Node42&#45;&gt;Node26 -->
<g id="edge68" class="edge"><title>Node42&#45;&gt;Node26</title>
<path fill="none" stroke="midnightblue" d="M1210.73,-388.509C1186.28,-398.752 1141.52,-416.017 1109.57,-427.583"/>
<polygon fill="midnightblue" stroke="midnightblue" points="1108.34,-424.307 1100.11,-430.975 1110.7,-430.896 1108.34,-424.307"/>
</g>
<!-- Node45&#45;&gt;Node1 -->
<g id="edge77" class="edge"><title>Node45&#45;&gt;Node1</title>
<path fill="none" stroke="midnightblue" d="M1465.88,-455.563C1464.91,-455.711 1463.95,-455.857 1463,-456 1306.68,-479.402 1123.71,-498.511 1013.39,-508.925"/>
<polygon fill="midnightblue" stroke="midnightblue" points="1012.9,-505.456 1003.27,-509.875 1013.55,-512.425 1012.9,-505.456"/>
</g>
</g>
</svg>
