<?xml version="1.0" encoding="UTF-8" standalone="no"?>
<!DOCTYPE svg PUBLIC "-//W3C//DTD SVG 1.1//EN"
 "http://www.w3.org/Graphics/SVG/1.1/DTD/svg11.dtd">
<!-- Generated by graphviz version 2.38.0 (20140413.2041)
 -->
<!-- Title: /home/travis/build/STORM&#45;IRIT/Radium&#45;Engine/src/Core/Mesh/TopologicalTriMesh/TopologicalMesh.inl Pages: 1 -->
<svg width="1968pt" height="609pt"
 viewBox="0.00 0.00 1967.50 609.00" xmlns="http://www.w3.org/2000/svg" xmlns:xlink="http://www.w3.org/1999/xlink">
<g id="graph0" class="graph" transform="scale(1 1) rotate(0) translate(4 605)">
<title>/home/travis/build/STORM&#45;IRIT/Radium&#45;Engine/src/Core/Mesh/TopologicalTriMesh/TopologicalMesh.inl</title>
<polygon fill="white" stroke="none" points="-4,4 -4,-605 1963.5,-605 1963.5,4 -4,4"/>
<!-- Node1 -->
<g id="node1" class="node"><title>Node1</title>
<polygon fill="#bfbfbf" stroke="black" points="554,-548.5 554,-600.5 732,-600.5 732,-548.5 554,-548.5"/>
<text text-anchor="start" x="562" y="-588.5" font-family="Helvetica,sans-Serif" font-size="10.00">/home/travis/build</text>
<text text-anchor="start" x="562" y="-577.5" font-family="Helvetica,sans-Serif" font-size="10.00">/STORM&#45;IRIT/Radium&#45;Engine</text>
<text text-anchor="start" x="562" y="-566.5" font-family="Helvetica,sans-Serif" font-size="10.00">/src/Core/Mesh/TopologicalTriMesh</text>
<text text-anchor="middle" x="643" y="-555.5" font-family="Helvetica,sans-Serif" font-size="10.00">/TopologicalMesh.inl</text>
</g>
<!-- Node2 -->
<g id="node2" class="node"><title>Node2</title>
<g id="a_node2"><a xlink:href="TopologicalMesh_8hpp.html" target="_top" xlink:title="TopologicalMesh.hpp">
<polygon fill="white" stroke="black" points="585.5,-492.5 585.5,-511.5 700.5,-511.5 700.5,-492.5 585.5,-492.5"/>
<text text-anchor="middle" x="643" y="-499.5" font-family="Helvetica,sans-Serif" font-size="10.00">TopologicalMesh.hpp</text>
</a>
</g>
</g>
<!-- Node1&#45;&gt;Node2 -->
<g id="edge1" class="edge"><title>Node1&#45;&gt;Node2</title>
<path fill="none" stroke="midnightblue" d="M636.507,-548.446C636.05,-539.63 636.202,-529.883 636.962,-521.684"/>
<polygon fill="midnightblue" stroke="midnightblue" points="640.439,-522.087 638.375,-511.695 633.508,-521.106 640.439,-522.087"/>
</g>
<!-- Node2&#45;&gt;Node1 -->
<g id="edge77" class="edge"><title>Node2&#45;&gt;Node1</title>
<path fill="none" stroke="midnightblue" d="M647.625,-511.695C649.042,-518.475 649.751,-528.371 649.75,-538.266"/>
<polygon fill="midnightblue" stroke="midnightblue" points="646.247,-538.36 649.493,-548.446 653.244,-538.538 646.247,-538.36"/>
</g>
<!-- Node3 -->
<g id="node3" class="node"><title>Node3</title>
<g id="a_node3"><a xlink:href="OpenMesh_8h.html" target="_top" xlink:title="Core/Mesh/TopologicalTri\lMesh/OpenMesh.h">
<polygon fill="white" stroke="black" points="285,-302.5 285,-332.5 417,-332.5 417,-302.5 285,-302.5"/>
<text text-anchor="start" x="293" y="-320.5" font-family="Helvetica,sans-Serif" font-size="10.00">Core/Mesh/TopologicalTri</text>
<text text-anchor="middle" x="351" y="-309.5" font-family="Helvetica,sans-Serif" font-size="10.00">Mesh/OpenMesh.h</text>
</a>
</g>
</g>
<!-- Node2&#45;&gt;Node3 -->
<g id="edge2" class="edge"><title>Node2&#45;&gt;Node3</title>
<path fill="none" stroke="midnightblue" d="M603.127,-492.486C574.786,-485.366 536.498,-473.523 506,-456 450.691,-424.222 397.634,-370.493 370.248,-340.472"/>
<polygon fill="midnightblue" stroke="midnightblue" points="372.516,-337.76 363.223,-332.671 367.314,-342.444 372.516,-337.76"/>
</g>
<!-- Node4 -->
<g id="node4" class="node"><title>Node4</title>
<g id="a_node4"><a xlink:href="RaCore_8hpp.html" target="_top" xlink:title="Core/RaCore.hpp">
<polygon fill="white" stroke="black" points="1179,-112.5 1179,-131.5 1277,-131.5 1277,-112.5 1179,-112.5"/>
<text text-anchor="middle" x="1228" y="-119.5" font-family="Helvetica,sans-Serif" font-size="10.00">Core/RaCore.hpp</text>
</a>
</g>
</g>
<!-- Node2&#45;&gt;Node4 -->
<g id="edge70" class="edge"><title>Node2&#45;&gt;Node4</title>
<path fill="none" stroke="midnightblue" d="M650.215,-492.383C692.287,-442.228 905.444,-189.401 945,-168 982.638,-147.636 1097.5,-134.32 1168.79,-127.775"/>
<polygon fill="midnightblue" stroke="midnightblue" points="1169.33,-131.24 1178.98,-126.859 1168.7,-124.269 1169.33,-131.24"/>
</g>
<!-- Node11 -->
<g id="node11" class="node"><title>Node11</title>
<polygon fill="white" stroke="#bfbfbf" points="0,-174 0,-193 68,-193 68,-174 0,-174"/>
<text text-anchor="middle" x="34" y="-181" font-family="Helvetica,sans-Serif" font-size="10.00">Eigen/Core</text>
</g>
<!-- Node2&#45;&gt;Node11 -->
<g id="edge75" class="edge"><title>Node2&#45;&gt;Node11</title>
<path fill="none" stroke="midnightblue" d="M585.211,-501.152C467.256,-500.635 203.157,-495.003 123,-456 81.4351,-435.775 52,-426.224 52,-380 52,-380 52,-380 52,-316.5 52,-275.784 43.4884,-228.647 38.1713,-203.173"/>
<polygon fill="midnightblue" stroke="midnightblue" points="41.5268,-202.129 35.9951,-193.093 34.6845,-203.607 41.5268,-202.129"/>
</g>
<!-- Node12 -->
<g id="node12" class="node"><title>Node12</title>
<polygon fill="white" stroke="#bfbfbf" points="86,-174 86,-193 180,-193 180,-174 86,-174"/>
<text text-anchor="middle" x="133" y="-181" font-family="Helvetica,sans-Serif" font-size="10.00">Eigen/Geometry</text>
</g>
<!-- Node2&#45;&gt;Node12 -->
<g id="edge76" class="edge"><title>Node2&#45;&gt;Node12</title>
<path fill="none" stroke="midnightblue" d="M585.343,-500.327C444.991,-497.134 97,-479.215 97,-380 97,-380 97,-380 97,-316.5 97,-274.515 114.161,-227.582 124.786,-202.547"/>
<polygon fill="midnightblue" stroke="midnightblue" points="128.058,-203.801 128.87,-193.237 121.648,-200.989 128.058,-203.801"/>
</g>
<!-- Node13 -->
<g id="node13" class="node"><title>Node13</title>
<g id="a_node13"><a xlink:href="LinearAlgebra_8hpp.html" target="_top" xlink:title="Core/Math/LinearAlgebra.hpp">
<polygon fill="white" stroke="black" points="565,-241 565,-260 721,-260 721,-241 565,-241"/>
<text text-anchor="middle" x="643" y="-248" font-family="Helvetica,sans-Serif" font-size="10.00">Core/Math/LinearAlgebra.hpp</text>
</a>
</g>
</g>
<!-- Node2&#45;&gt;Node13 -->
<g id="edge31" class="edge"><title>Node2&#45;&gt;Node13</title>
<path fill="none" stroke="midnightblue" d="M643,-492.412C643,-456.798 643,-320.252 643,-270.109"/>
<polygon fill="midnightblue" stroke="midnightblue" points="646.5,-270.052 643,-260.052 639.5,-270.052 646.5,-270.052"/>
</g>
<!-- Node22 -->
<g id="node22" class="node"><title>Node22</title>
<polygon fill="white" stroke="#bfbfbf" points="125,-235.5 125,-265.5 247,-265.5 247,-235.5 125,-235.5"/>
<text text-anchor="start" x="133" y="-253.5" font-family="Helvetica,sans-Serif" font-size="10.00">OpenMesh/Core/Mesh</text>
<text text-anchor="middle" x="186" y="-242.5" font-family="Helvetica,sans-Serif" font-size="10.00">/Traits.hh</text>
</g>
<!-- Node2&#45;&gt;Node22 -->
<g id="edge72" class="edge"><title>Node2&#45;&gt;Node22</title>
<path fill="none" stroke="midnightblue" d="M586.171,-492.439C548.923,-485.552 499.763,-474 459,-456 353.433,-409.386 250.395,-315.241 207.206,-272.938"/>
<polygon fill="midnightblue" stroke="midnightblue" points="209.423,-270.208 199.851,-265.666 204.501,-275.186 209.423,-270.208"/>
</g>
<!-- Node23 -->
<g id="node23" class="node"><title>Node23</title>
<polygon fill="white" stroke="#bfbfbf" points="401,-235.5 401,-265.5 535,-265.5 535,-235.5 401,-235.5"/>
<text text-anchor="start" x="409" y="-253.5" font-family="Helvetica,sans-Serif" font-size="10.00">OpenMesh/Core/Mesh</text>
<text text-anchor="middle" x="468" y="-242.5" font-family="Helvetica,sans-Serif" font-size="10.00">/TriMesh_ArrayKernelT.hh</text>
</g>
<!-- Node2&#45;&gt;Node23 -->
<g id="edge73" class="edge"><title>Node2&#45;&gt;Node23</title>
<path fill="none" stroke="midnightblue" d="M636.976,-492.412C612.603,-457.662 520.829,-326.819 483.718,-273.909"/>
<polygon fill="midnightblue" stroke="midnightblue" points="486.457,-271.719 477.849,-265.542 480.726,-275.739 486.457,-271.719"/>
</g>
<!-- Node24 -->
<g id="node24" class="node"><title>Node24</title>
<g id="a_node24"><a xlink:href="Index_8hpp.html" target="_top" xlink:title="Core/Index/Index.hpp">
<polygon fill="white" stroke="black" points="1006.5,-241 1006.5,-260 1123.5,-260 1123.5,-241 1006.5,-241"/>
<text text-anchor="middle" x="1065" y="-248" font-family="Helvetica,sans-Serif" font-size="10.00">Core/Index/Index.hpp</text>
</a>
</g>
</g>
<!-- Node2&#45;&gt;Node24 -->
<g id="edge28" class="edge"><title>Node2&#45;&gt;Node24</title>
<path fill="none" stroke="midnightblue" d="M700.773,-497.939C773.299,-493.08 892.521,-481.415 928,-456 990.869,-410.966 961.548,-363.065 1009,-302 1019.37,-288.655 1033.52,-275.927 1045,-266.588"/>
<polygon fill="midnightblue" stroke="midnightblue" points="1047.48,-269.095 1053.16,-260.152 1043.14,-263.601 1047.48,-269.095"/>
</g>
<!-- Node27 -->
<g id="node27" class="node"><title>Node27</title>
<g id="a_node27"><a xlink:href="TriangleMesh_8hpp.html" target="_top" xlink:title="Core/Mesh/TriangleMesh.hpp">
<polygon fill="white" stroke="black" points="1060.5,-431 1060.5,-450 1213.5,-450 1213.5,-431 1060.5,-431"/>
<text text-anchor="middle" x="1137" y="-438" font-family="Helvetica,sans-Serif" font-size="10.00">Core/Mesh/TriangleMesh.hpp</text>
</a>
</g>
</g>
<!-- Node2&#45;&gt;Node27 -->
<g id="edge32" class="edge"><title>Node2&#45;&gt;Node27</title>
<path fill="none" stroke="midnightblue" d="M700.635,-494.058C788.48,-483.478 956.187,-463.278 1056.16,-451.236"/>
<polygon fill="midnightblue" stroke="midnightblue" points="1056.71,-454.696 1066.22,-450.025 1055.87,-447.746 1056.71,-454.696"/>
</g>
<!-- Node44 -->
<g id="node44" class="node"><title>Node44</title>
<polygon fill="white" stroke="#bfbfbf" points="1231.5,-425.5 1231.5,-455.5 1374.5,-455.5 1374.5,-425.5 1231.5,-425.5"/>
<text text-anchor="start" x="1239.5" y="-443.5" font-family="Helvetica,sans-Serif" font-size="10.00">OpenMesh/Core/Mesh</text>
<text text-anchor="middle" x="1303" y="-432.5" font-family="Helvetica,sans-Serif" font-size="10.00">/PolyMesh_ArrayKernelT.hh</text>
</g>
<!-- Node2&#45;&gt;Node44 -->
<g id="edge71" class="edge"><title>Node2&#45;&gt;Node44</title>
<path fill="none" stroke="midnightblue" d="M700.721,-498.421C803.354,-493.418 1024.49,-480.76 1221.13,-456.023"/>
<polygon fill="midnightblue" stroke="midnightblue" points="1221.59,-459.493 1231.07,-454.76 1220.71,-452.549 1221.59,-459.493"/>
</g>
<!-- Node45 -->
<g id="node45" class="node"><title>Node45</title>
<polygon fill="white" stroke="#bfbfbf" points="1392.5,-425.5 1392.5,-455.5 1509.5,-455.5 1509.5,-425.5 1392.5,-425.5"/>
<text text-anchor="start" x="1400.5" y="-443.5" font-family="Helvetica,sans-Serif" font-size="10.00">OpenMesh/Core/Utils</text>
<text text-anchor="middle" x="1451" y="-432.5" font-family="Helvetica,sans-Serif" font-size="10.00">/Property.hh</text>
</g>
<!-- Node2&#45;&gt;Node45 -->
<g id="edge74" class="edge"><title>Node2&#45;&gt;Node45</title>
<path fill="none" stroke="midnightblue" d="M700.857,-500.415C824.321,-498.533 1122.78,-490.609 1382.49,-455.908"/>
<polygon fill="midnightblue" stroke="midnightblue" points="1383.05,-459.364 1392.49,-454.556 1382.11,-452.427 1383.05,-459.364"/>
</g>
<!-- Node3&#45;&gt;Node4 -->
<g id="edge3" class="edge"><title>Node3&#45;&gt;Node4</title>
<path fill="none" stroke="midnightblue" d="M346.342,-302.198C337.668,-272.499 322.997,-203.928 359,-168 387.646,-139.414 977.324,-127.153 1168.64,-123.917"/>
<polygon fill="midnightblue" stroke="midnightblue" points="1168.85,-127.414 1178.79,-123.748 1168.73,-120.415 1168.85,-127.414"/>
</g>
<!-- Node3&#45;&gt;Node11 -->
<g id="edge10" class="edge"><title>Node3&#45;&gt;Node11</title>
<path fill="none" stroke="midnightblue" d="M333.086,-302.46C320.553,-292.503 303.522,-278.707 289,-266 273.856,-252.749 273.883,-244.227 256,-235 183.884,-197.793 155.382,-220.007 77,-199 73.8039,-198.143 70.4991,-197.178 67.2073,-196.162"/>
<polygon fill="midnightblue" stroke="midnightblue" points="68.0845,-192.767 57.4927,-193.021 65.9312,-199.427 68.0845,-192.767"/>
</g>
<!-- Node3&#45;&gt;Node12 -->
<g id="edge11" class="edge"><title>Node3&#45;&gt;Node12</title>
<path fill="none" stroke="midnightblue" d="M343.759,-302.278C333.808,-284.113 314.235,-252.892 289,-235 279.251,-228.088 215.172,-208.516 172.232,-195.866"/>
<polygon fill="midnightblue" stroke="midnightblue" points="173.198,-192.502 162.618,-193.045 171.228,-199.219 173.198,-192.502"/>
</g>
<!-- Node3&#45;&gt;Node13 -->
<g id="edge12" class="edge"><title>Node3&#45;&gt;Node13</title>
<path fill="none" stroke="midnightblue" d="M414,-302.476C468.27,-290.395 545.452,-273.215 594.882,-262.211"/>
<polygon fill="midnightblue" stroke="midnightblue" points="595.686,-265.618 604.687,-260.029 594.165,-258.785 595.686,-265.618"/>
</g>
<!-- Node3&#45;&gt;Node22 -->
<g id="edge26" class="edge"><title>Node3&#45;&gt;Node22</title>
<path fill="none" stroke="midnightblue" d="M315.197,-302.396C290.548,-292.686 257.607,-279.709 231.157,-269.289"/>
<polygon fill="midnightblue" stroke="midnightblue" points="232.32,-265.985 221.733,-265.577 229.754,-272.498 232.32,-265.985"/>
</g>
<!-- Node3&#45;&gt;Node23 -->
<g id="edge27" class="edge"><title>Node3&#45;&gt;Node23</title>
<path fill="none" stroke="midnightblue" d="M376.387,-302.396C393.176,-293.069 415.389,-280.728 433.738,-270.534"/>
<polygon fill="midnightblue" stroke="midnightblue" points="435.62,-273.493 442.662,-265.577 432.221,-267.373 435.62,-273.493"/>
</g>
<!-- Node5 -->
<g id="node5" class="node"><title>Node5</title>
<g id="a_node5"><a xlink:href="CoreMacros_8hpp.html" target="_top" xlink:title="Core/CoreMacros.hpp">
<polygon fill="white" stroke="black" points="1281,-56.5 1281,-75.5 1401,-75.5 1401,-56.5 1281,-56.5"/>
<text text-anchor="middle" x="1341" y="-63.5" font-family="Helvetica,sans-Serif" font-size="10.00">Core/CoreMacros.hpp</text>
</a>
</g>
</g>
<!-- Node4&#45;&gt;Node5 -->
<g id="edge4" class="edge"><title>Node4&#45;&gt;Node5</title>
<path fill="none" stroke="midnightblue" d="M1245.91,-112.444C1264.25,-103.675 1293.01,-89.9355 1314.09,-79.8579"/>
<polygon fill="midnightblue" stroke="midnightblue" points="1315.67,-82.9862 1323.18,-75.5164 1312.65,-76.6703 1315.67,-82.9862"/>
</g>
<!-- Node6 -->
<g id="node6" class="node"><title>Node6</title>
<polygon fill="white" stroke="#bfbfbf" points="1419,-0.5 1419,-19.5 1471,-19.5 1471,-0.5 1419,-0.5"/>
<text text-anchor="middle" x="1445" y="-7.5" font-family="Helvetica,sans-Serif" font-size="10.00">cassert</text>
</g>
<!-- Node5&#45;&gt;Node6 -->
<g id="edge5" class="edge"><title>Node5&#45;&gt;Node6</title>
<path fill="none" stroke="midnightblue" d="M1357.71,-56.324C1374.31,-47.7034 1400,-34.3643 1419.22,-24.3855"/>
<polygon fill="midnightblue" stroke="midnightblue" points="1421.07,-27.3689 1428.33,-19.6545 1417.84,-21.1565 1421.07,-27.3689"/>
</g>
<!-- Node7 -->
<g id="node7" class="node"><title>Node7</title>
<polygon fill="white" stroke="#bfbfbf" points="1212.5,-0.5 1212.5,-19.5 1257.5,-19.5 1257.5,-0.5 1212.5,-0.5"/>
<text text-anchor="middle" x="1235" y="-7.5" font-family="Helvetica,sans-Serif" font-size="10.00">cstdio</text>
</g>
<!-- Node5&#45;&gt;Node7 -->
<g id="edge6" class="edge"><title>Node5&#45;&gt;Node7</title>
<path fill="none" stroke="midnightblue" d="M1323.97,-56.324C1306.97,-47.6641 1280.62,-34.2424 1261.01,-24.249"/>
<polygon fill="midnightblue" stroke="midnightblue" points="1262.49,-21.0752 1251.99,-19.6545 1259.31,-27.3125 1262.49,-21.0752"/>
</g>
<!-- Node8 -->
<g id="node8" class="node"><title>Node8</title>
<polygon fill="white" stroke="#bfbfbf" points="1275.5,-0.5 1275.5,-19.5 1334.5,-19.5 1334.5,-0.5 1275.5,-0.5"/>
<text text-anchor="middle" x="1305" y="-7.5" font-family="Helvetica,sans-Serif" font-size="10.00">iostream</text>
</g>
<!-- Node5&#45;&gt;Node8 -->
<g id="edge7" class="edge"><title>Node5&#45;&gt;Node8</title>
<path fill="none" stroke="midnightblue" d="M1335.06,-56.083C1330.02,-48.5341 1322.66,-37.4948 1316.49,-28.2298"/>
<polygon fill="midnightblue" stroke="midnightblue" points="1319.29,-26.1301 1310.83,-19.7511 1313.47,-30.0131 1319.29,-26.1301"/>
</g>
<!-- Node9 -->
<g id="node9" class="node"><title>Node9</title>
<polygon fill="white" stroke="#bfbfbf" points="1566,-0.5 1566,-19.5 1622,-19.5 1622,-0.5 1566,-0.5"/>
<text text-anchor="middle" x="1594" y="-7.5" font-family="Helvetica,sans-Serif" font-size="10.00">sstream</text>
</g>
<!-- Node5&#45;&gt;Node9 -->
<g id="edge8" class="edge"><title>Node5&#45;&gt;Node9</title>
<path fill="none" stroke="midnightblue" d="M1381.09,-56.4435C1429.12,-46.1922 1508.98,-29.146 1556.05,-19.101"/>
<polygon fill="midnightblue" stroke="midnightblue" points="1556.8,-22.5188 1565.85,-17.0084 1555.34,-15.673 1556.8,-22.5188"/>
</g>
<!-- Node10 -->
<g id="node10" class="node"><title>Node10</title>
<polygon fill="white" stroke="#bfbfbf" points="1353,-0.5 1353,-19.5 1401,-19.5 1401,-0.5 1353,-0.5"/>
<text text-anchor="middle" x="1377" y="-7.5" font-family="Helvetica,sans-Serif" font-size="10.00">thread</text>
</g>
<!-- Node5&#45;&gt;Node10 -->
<g id="edge9" class="edge"><title>Node5&#45;&gt;Node10</title>
<path fill="none" stroke="midnightblue" d="M1346.94,-56.083C1351.98,-48.5341 1359.34,-37.4948 1365.51,-28.2298"/>
<polygon fill="midnightblue" stroke="midnightblue" points="1368.53,-30.0131 1371.17,-19.7511 1362.71,-26.1301 1368.53,-30.0131"/>
</g>
<!-- Node13&#45;&gt;Node4 -->
<g id="edge13" class="edge"><title>Node13&#45;&gt;Node4</title>
<path fill="none" stroke="midnightblue" d="M715.09,-240.985C760.686,-233.783 820.042,-220.995 869,-199 890.491,-189.345 890.148,-176.805 912,-168 996.77,-133.842 1103.47,-125.019 1168.66,-123.064"/>
<polygon fill="midnightblue" stroke="midnightblue" points="1168.85,-126.561 1178.76,-122.807 1168.67,-119.563 1168.85,-126.561"/>
</g>
<!-- Node13&#45;&gt;Node11 -->
<g id="edge14" class="edge"><title>Node13&#45;&gt;Node11</title>
<path fill="none" stroke="midnightblue" d="M589.395,-240.965C574.704,-238.812 558.76,-236.648 544,-235 337.114,-211.903 280.977,-240.579 77,-199 73.3091,-198.248 69.4969,-197.271 65.7376,-196.179"/>
<polygon fill="midnightblue" stroke="midnightblue" points="66.6194,-192.787 56.0292,-193.097 64.5016,-199.459 66.6194,-192.787"/>
</g>
<!-- Node13&#45;&gt;Node12 -->
<g id="edge15" class="edge"><title>Node13&#45;&gt;Node12</title>
<path fill="none" stroke="midnightblue" d="M587.816,-240.975C573.559,-238.894 558.222,-236.762 544,-235 386.616,-215.504 345.103,-226.957 189,-199 183.563,-198.026 177.877,-196.802 172.301,-195.479"/>
<polygon fill="midnightblue" stroke="midnightblue" points="173.008,-192.048 162.458,-193.025 171.315,-198.84 173.008,-192.048"/>
</g>
<!-- Node14 -->
<g id="node14" class="node"><title>Node14</title>
<polygon fill="white" stroke="#bfbfbf" points="780,-174 780,-193 860,-193 860,-174 780,-174"/>
<text text-anchor="middle" x="820" y="-181" font-family="Helvetica,sans-Serif" font-size="10.00">Eigen/Sparse</text>
</g>
<!-- Node13&#45;&gt;Node14 -->
<g id="edge16" class="edge"><title>Node13&#45;&gt;Node14</title>
<path fill="none" stroke="midnightblue" d="M666.504,-240.869C697.402,-229.522 751.856,-209.525 786.909,-196.652"/>
<polygon fill="midnightblue" stroke="midnightblue" points="788.5,-199.796 796.68,-193.064 786.087,-193.225 788.5,-199.796"/>
</g>
<!-- Node15 -->
<g id="node15" class="node"><title>Node15</title>
<polygon fill="white" stroke="#bfbfbf" points="368.5,-174 368.5,-193 431.5,-193 431.5,-174 368.5,-174"/>
<text text-anchor="middle" x="400" y="-181" font-family="Helvetica,sans-Serif" font-size="10.00">functional</text>
</g>
<!-- Node13&#45;&gt;Node15 -->
<g id="edge17" class="edge"><title>Node13&#45;&gt;Node15</title>
<path fill="none" stroke="midnightblue" d="M603.372,-240.925C562.212,-231.721 496.105,-216.097 440,-199 437.375,-198.2 434.669,-197.327 431.961,-196.418"/>
<polygon fill="midnightblue" stroke="midnightblue" points="432.882,-193.033 422.287,-193.043 430.576,-199.642 432.882,-193.033"/>
</g>
<!-- Node16 -->
<g id="node16" class="node"><title>Node16</title>
<polygon fill="white" stroke="#bfbfbf" points="449.5,-168.5 449.5,-198.5 594.5,-198.5 594.5,-168.5 449.5,-168.5"/>
<text text-anchor="start" x="457.5" y="-186.5" font-family="Helvetica,sans-Serif" font-size="10.00">unsupported/Eigen/Aligned</text>
<text text-anchor="middle" x="522" y="-175.5" font-family="Helvetica,sans-Serif" font-size="10.00">Vector3</text>
</g>
<!-- Node13&#45;&gt;Node16 -->
<g id="edge18" class="edge"><title>Node13&#45;&gt;Node16</title>
<path fill="none" stroke="midnightblue" d="M626.681,-240.734C608.992,-231.231 580.223,-215.777 557.317,-203.472"/>
<polygon fill="midnightblue" stroke="midnightblue" points="558.693,-200.238 548.227,-198.589 555.38,-206.405 558.693,-200.238"/>
</g>
<!-- Node17 -->
<g id="node17" class="node"><title>Node17</title>
<g id="a_node17"><a xlink:href="Math_8hpp.html" target="_top" xlink:title="Core/Math/Math.hpp">
<polygon fill="white" stroke="black" points="198,-174 198,-193 312,-193 312,-174 198,-174"/>
<text text-anchor="middle" x="255" y="-181" font-family="Helvetica,sans-Serif" font-size="10.00">Core/Math/Math.hpp</text>
</a>
</g>
</g>
<!-- Node13&#45;&gt;Node17 -->
<g id="edge19" class="edge"><title>Node13&#45;&gt;Node17</title>
<path fill="none" stroke="midnightblue" d="M591.877,-240.936C520.684,-229.009 391.888,-207.432 315.842,-194.693"/>
<polygon fill="midnightblue" stroke="midnightblue" points="316.369,-191.232 305.928,-193.032 315.212,-198.136 316.369,-191.232"/>
</g>
<!-- Node21 -->
<g id="node21" class="node"><title>Node21</title>
<g id="a_node21"><a xlink:href="LinearAlgebra_8inl.html" target="_top" xlink:title="Core/Math/LinearAlgebra.inl">
<polygon fill="white" stroke="black" points="612.5,-174 612.5,-193 761.5,-193 761.5,-174 612.5,-174"/>
<text text-anchor="middle" x="687" y="-181" font-family="Helvetica,sans-Serif" font-size="10.00">Core/Math/LinearAlgebra.inl</text>
</a>
</g>
</g>
<!-- Node13&#45;&gt;Node21 -->
<g id="edge25" class="edge"><title>Node13&#45;&gt;Node21</title>
<path fill="none" stroke="midnightblue" d="M648.934,-240.734C655.729,-230.695 667.021,-214.014 675.546,-201.421"/>
<polygon fill="midnightblue" stroke="midnightblue" points="678.453,-203.37 681.16,-193.127 672.656,-199.446 678.453,-203.37"/>
</g>
<!-- Node17&#45;&gt;Node4 -->
<g id="edge20" class="edge"><title>Node17&#45;&gt;Node4</title>
<path fill="none" stroke="midnightblue" d="M291.308,-173.982C302.387,-171.682 314.642,-169.435 326,-168 489.875,-147.3 994.998,-130.191 1168.65,-124.784"/>
<polygon fill="midnightblue" stroke="midnightblue" points="1168.98,-128.276 1178.87,-124.468 1168.77,-121.279 1168.98,-128.276"/>
</g>
<!-- Node18 -->
<g id="node18" class="node"><title>Node18</title>
<polygon fill="white" stroke="#bfbfbf" points="712,-112.5 712,-131.5 774,-131.5 774,-112.5 712,-112.5"/>
<text text-anchor="middle" x="743" y="-119.5" font-family="Helvetica,sans-Serif" font-size="10.00">algorithm</text>
</g>
<!-- Node17&#45;&gt;Node18 -->
<g id="edge21" class="edge"><title>Node17&#45;&gt;Node18</title>
<path fill="none" stroke="midnightblue" d="M293.572,-173.937C304.057,-171.797 315.434,-169.645 326,-168 462.919,-146.679 626.704,-132.19 701.755,-126.158"/>
<polygon fill="midnightblue" stroke="midnightblue" points="702.053,-129.645 711.744,-125.363 701.497,-122.667 702.053,-129.645"/>
</g>
<!-- Node19 -->
<g id="node19" class="node"><title>Node19</title>
<polygon fill="white" stroke="#bfbfbf" points="136.5,-112.5 136.5,-131.5 183.5,-131.5 183.5,-112.5 136.5,-112.5"/>
<text text-anchor="middle" x="160" y="-119.5" font-family="Helvetica,sans-Serif" font-size="10.00">cmath</text>
</g>
<!-- Node17&#45;&gt;Node19 -->
<g id="edge22" class="edge"><title>Node17&#45;&gt;Node19</title>
<path fill="none" stroke="midnightblue" d="M241.389,-173.975C225.939,-164.299 200.51,-148.372 182.184,-136.894"/>
<polygon fill="midnightblue" stroke="midnightblue" points="183.919,-133.851 173.586,-131.509 180.203,-139.783 183.919,-133.851"/>
</g>
<!-- Node20 -->
<g id="node20" class="node"><title>Node20</title>
<g id="a_node20"><a xlink:href="Math_8inl.html" target="_top" xlink:title="Core/Math/Math.inl">
<polygon fill="white" stroke="black" points="201.5,-112.5 201.5,-131.5 308.5,-131.5 308.5,-112.5 201.5,-112.5"/>
<text text-anchor="middle" x="255" y="-119.5" font-family="Helvetica,sans-Serif" font-size="10.00">Core/Math/Math.inl</text>
</a>
</g>
</g>
<!-- Node17&#45;&gt;Node20 -->
<g id="edge23" class="edge"><title>Node17&#45;&gt;Node20</title>
<path fill="none" stroke="midnightblue" d="M250.099,-173.975C248.268,-165.58 247.797,-152.481 248.685,-141.663"/>
<polygon fill="midnightblue" stroke="midnightblue" points="252.186,-141.897 250.103,-131.509 245.254,-140.929 252.186,-141.897"/>
</g>
<!-- Node20&#45;&gt;Node17 -->
<g id="edge24" class="edge"><title>Node20&#45;&gt;Node17</title>
<path fill="none" stroke="midnightblue" d="M259.897,-131.509C261.73,-139.898 262.203,-152.996 261.317,-163.817"/>
<polygon fill="midnightblue" stroke="midnightblue" points="257.815,-163.588 259.901,-173.975 264.748,-164.554 257.815,-163.588"/>
</g>
<!-- Node25 -->
<g id="node25" class="node"><title>Node25</title>
<polygon fill="white" stroke="#bfbfbf" points="954,-174 954,-193 996,-193 996,-174 954,-174"/>
<text text-anchor="middle" x="975" y="-181" font-family="Helvetica,sans-Serif" font-size="10.00">limits</text>
</g>
<!-- Node24&#45;&gt;Node25 -->
<g id="edge29" class="edge"><title>Node24&#45;&gt;Node25</title>
<path fill="none" stroke="midnightblue" d="M1052.86,-240.734C1038.15,-230.111 1013.14,-212.049 995.443,-199.264"/>
<polygon fill="midnightblue" stroke="midnightblue" points="997.102,-196.145 986.945,-193.127 993.003,-201.82 997.102,-196.145"/>
</g>
<!-- Node26 -->
<g id="node26" class="node"><title>Node26</title>
<g id="a_node26"><a xlink:href="Index_8inl.html" target="_top" xlink:title="Core/Index/Index.inl">
<polygon fill="white" stroke="black" points="1014,-174 1014,-193 1124,-193 1124,-174 1014,-174"/>
<text text-anchor="middle" x="1069" y="-181" font-family="Helvetica,sans-Serif" font-size="10.00">Core/Index/Index.inl</text>
</a>
</g>
</g>
<!-- Node24&#45;&gt;Node26 -->
<g id="edge30" class="edge"><title>Node24&#45;&gt;Node26</title>
<path fill="none" stroke="midnightblue" d="M1065.54,-240.734C1066.13,-231.183 1067.09,-215.618 1067.84,-203.283"/>
<polygon fill="midnightblue" stroke="midnightblue" points="1071.35,-203.323 1068.47,-193.127 1064.36,-202.893 1071.35,-203.323"/>
</g>
<!-- Node27&#45;&gt;Node4 -->
<g id="edge46" class="edge"><title>Node27&#45;&gt;Node4</title>
<path fill="none" stroke="midnightblue" d="M1139.74,-430.968C1145.52,-412.935 1159.28,-369.595 1170,-333 1190.62,-262.605 1213.29,-178.347 1223.06,-141.631"/>
<polygon fill="midnightblue" stroke="midnightblue" points="1226.48,-142.394 1225.67,-131.83 1219.72,-140.596 1226.48,-142.394"/>
</g>
<!-- Node27&#45;&gt;Node13 -->
<g id="edge41" class="edge"><title>Node27&#45;&gt;Node13</title>
<path fill="none" stroke="midnightblue" d="M1114.49,-430.934C1035,-400.681 767.263,-298.79 674.756,-263.585"/>
<polygon fill="midnightblue" stroke="midnightblue" points="675.95,-260.295 665.359,-260.009 673.46,-266.837 675.95,-260.295"/>
</g>
<!-- Node28 -->
<g id="node28" class="node"><title>Node28</title>
<g id="a_node28"><a xlink:href="VectorArray_8hpp.html" target="_top" xlink:title="Core/Containers/VectorArray.hpp">
<polygon fill="white" stroke="black" points="1538.5,-308 1538.5,-327 1711.5,-327 1711.5,-308 1538.5,-308"/>
<text text-anchor="middle" x="1625" y="-315" font-family="Helvetica,sans-Serif" font-size="10.00">Core/Containers/VectorArray.hpp</text>
</a>
</g>
</g>
<!-- Node27&#45;&gt;Node28 -->
<g id="edge33" class="edge"><title>Node27&#45;&gt;Node28</title>
<path fill="none" stroke="midnightblue" d="M1185.5,-430.938C1197.42,-428.913 1210.16,-426.816 1222,-425 1339.05,-407.041 1372.96,-424.273 1486,-389 1529.9,-375.301 1576.78,-348.717 1603.33,-332.395"/>
<polygon fill="midnightblue" stroke="midnightblue" points="1605.2,-335.351 1611.83,-327.088 1601.5,-329.413 1605.2,-335.351"/>
</g>
<!-- Node32 -->
<g id="node32" class="node"><title>Node32</title>
<g id="a_node32"><a xlink:href="MeshTypes_8hpp.html" target="_top" xlink:title="Core/Mesh/MeshTypes.hpp">
<polygon fill="white" stroke="black" points="1018.5,-308 1018.5,-327 1161.5,-327 1161.5,-308 1018.5,-308"/>
<text text-anchor="middle" x="1090" y="-315" font-family="Helvetica,sans-Serif" font-size="10.00">Core/Mesh/MeshTypes.hpp</text>
</a>
</g>
</g>
<!-- Node27&#45;&gt;Node32 -->
<g id="edge42" class="edge"><title>Node27&#45;&gt;Node32</title>
<path fill="none" stroke="midnightblue" d="M1133.62,-430.798C1126,-411.176 1107.34,-363.138 1097.07,-336.693"/>
<polygon fill="midnightblue" stroke="midnightblue" points="1100.23,-335.177 1093.35,-327.123 1093.71,-337.712 1100.23,-335.177"/>
</g>
<!-- Node33 -->
<g id="node33" class="node"><title>Node33</title>
<g id="a_node33"><a xlink:href="Attribs_8hpp.html" target="_top" xlink:title="Core/Utils/Attribs.hpp">
<polygon fill="white" stroke="black" points="1358.5,-369.5 1358.5,-388.5 1477.5,-388.5 1477.5,-369.5 1358.5,-369.5"/>
<text text-anchor="middle" x="1418" y="-376.5" font-family="Helvetica,sans-Serif" font-size="10.00">Core/Utils/Attribs.hpp</text>
</a>
</g>
</g>
<!-- Node27&#45;&gt;Node33 -->
<g id="edge47" class="edge"><title>Node27&#45;&gt;Node33</title>
<path fill="none" stroke="midnightblue" d="M1177.26,-430.975C1227.44,-420.349 1313.23,-402.185 1367.69,-390.652"/>
<polygon fill="midnightblue" stroke="midnightblue" points="1368.76,-394.005 1377.81,-388.509 1367.31,-387.157 1368.76,-394.005"/>
</g>
<!-- Node43 -->
<g id="node43" class="node"><title>Node43</title>
<g id="a_node43"><a xlink:href="TriangleMesh_8inl.html" target="_top" xlink:title="Core/Mesh/TriangleMesh.inl">
<polygon fill="white" stroke="black" points="1194,-369.5 1194,-388.5 1340,-388.5 1340,-369.5 1194,-369.5"/>
<text text-anchor="middle" x="1267" y="-376.5" font-family="Helvetica,sans-Serif" font-size="10.00">Core/Mesh/TriangleMesh.inl</text>
</a>
</g>
</g>
<!-- Node27&#45;&gt;Node43 -->
<g id="edge68" class="edge"><title>Node27&#45;&gt;Node43</title>
<path fill="none" stroke="midnightblue" d="M1150.73,-430.975C1170.54,-420.901 1207.11,-404.053 1234.07,-392.502"/>
<polygon fill="midnightblue" stroke="midnightblue" points="1235.66,-395.627 1243.51,-388.509 1232.94,-389.179 1235.66,-395.627"/>
</g>
<!-- Node28&#45;&gt;Node4 -->
<g id="edge39" class="edge"><title>Node28&#45;&gt;Node4</title>
<path fill="none" stroke="midnightblue" d="M1626.45,-307.888C1628.72,-291.2 1630.99,-254.398 1611,-235 1569.93,-195.142 1409.99,-217.979 1356,-199 1350.38,-197.023 1286.37,-158.416 1251.05,-137.007"/>
<polygon fill="midnightblue" stroke="midnightblue" points="1252.7,-133.913 1242.34,-131.718 1249.07,-139.898 1252.7,-133.913"/>
</g>
<!-- Node28&#45;&gt;Node13 -->
<g id="edge38" class="edge"><title>Node28&#45;&gt;Node13</title>
<path fill="none" stroke="midnightblue" d="M1543.07,-307.986C1521.29,-305.87 1497.76,-303.718 1476,-302 1204.92,-280.6 883.574,-263.434 731.38,-255.797"/>
<polygon fill="midnightblue" stroke="midnightblue" points="731.322,-252.29 721.16,-255.286 730.973,-259.281 731.322,-252.29"/>
</g>
<!-- Node29 -->
<g id="node29" class="node"><title>Node29</title>
<g id="a_node29"><a xlink:href="AlignedStdVector_8hpp.html" target="_top" xlink:title="Core/Containers/AlignedStd\lVector.hpp">
<polygon fill="white" stroke="black" points="1775.5,-168.5 1775.5,-198.5 1924.5,-198.5 1924.5,-168.5 1775.5,-168.5"/>
<text text-anchor="start" x="1783.5" y="-186.5" font-family="Helvetica,sans-Serif" font-size="10.00">Core/Containers/AlignedStd</text>
<text text-anchor="middle" x="1850" y="-175.5" font-family="Helvetica,sans-Serif" font-size="10.00">Vector.hpp</text>
</a>
</g>
</g>
<!-- Node28&#45;&gt;Node29 -->
<g id="edge34" class="edge"><title>Node28&#45;&gt;Node29</title>
<path fill="none" stroke="midnightblue" d="M1663.18,-307.948C1693.23,-300.091 1735.34,-286.519 1768,-266 1793.65,-249.889 1817.55,-224.456 1832.85,-206.287"/>
<polygon fill="midnightblue" stroke="midnightblue" points="1835.6,-208.456 1839.25,-198.51 1830.2,-204.007 1835.6,-208.456"/>
</g>
<!-- Node31 -->
<g id="node31" class="node"><title>Node31</title>
<polygon fill="white" stroke="#bfbfbf" points="1801.5,-112.5 1801.5,-131.5 1848.5,-131.5 1848.5,-112.5 1801.5,-112.5"/>
<text text-anchor="middle" x="1825" y="-119.5" font-family="Helvetica,sans-Serif" font-size="10.00">vector</text>
</g>
<!-- Node28&#45;&gt;Node31 -->
<g id="edge40" class="edge"><title>Node28&#45;&gt;Node31</title>
<path fill="none" stroke="midnightblue" d="M1711.85,-311.033C1785.79,-301.109 1887.12,-273.747 1933,-199 1940.21,-187.258 1940.64,-179.464 1933,-168 1924.28,-154.923 1886.64,-141.212 1858.23,-132.412"/>
<polygon fill="midnightblue" stroke="midnightblue" points="1859.21,-129.053 1848.62,-129.513 1857.18,-135.754 1859.21,-129.053"/>
</g>
<!-- Node29&#45;&gt;Node4 -->
<g id="edge35" class="edge"><title>Node29&#45;&gt;Node4</title>
<path fill="none" stroke="midnightblue" d="M1775.28,-175.352C1650.39,-163.405 1401.71,-139.617 1287.67,-128.708"/>
<polygon fill="midnightblue" stroke="midnightblue" points="1287.67,-125.193 1277.39,-127.724 1287.01,-132.161 1287.67,-125.193"/>
</g>
<!-- Node30 -->
<g id="node30" class="node"><title>Node30</title>
<polygon fill="white" stroke="#bfbfbf" points="1866.5,-112.5 1866.5,-131.5 1959.5,-131.5 1959.5,-112.5 1866.5,-112.5"/>
<text text-anchor="middle" x="1913" y="-119.5" font-family="Helvetica,sans-Serif" font-size="10.00">Eigen/StdVector</text>
</g>
<!-- Node29&#45;&gt;Node30 -->
<g id="edge36" class="edge"><title>Node29&#45;&gt;Node30</title>
<path fill="none" stroke="midnightblue" d="M1864.93,-168.399C1874.37,-159.486 1886.58,-147.952 1896.33,-138.741"/>
<polygon fill="midnightblue" stroke="midnightblue" points="1898.97,-141.069 1903.83,-131.658 1894.16,-135.979 1898.97,-141.069"/>
</g>
<!-- Node29&#45;&gt;Node31 -->
<g id="edge37" class="edge"><title>Node29&#45;&gt;Node31</title>
<path fill="none" stroke="midnightblue" d="M1844.08,-168.399C1840.63,-160.199 1836.25,-149.781 1832.56,-140.994"/>
<polygon fill="midnightblue" stroke="midnightblue" points="1835.74,-139.521 1828.64,-131.658 1829.28,-142.233 1835.74,-139.521"/>
</g>
<!-- Node32&#45;&gt;Node4 -->
<g id="edge45" class="edge"><title>Node32&#45;&gt;Node4</title>
<path fill="none" stroke="midnightblue" d="M1098.54,-307.769C1107.65,-298.129 1122.1,-281.866 1132,-266 1157.28,-225.495 1147.5,-206.303 1176,-168 1184.57,-156.476 1196.58,-145.845 1206.89,-137.813"/>
<polygon fill="midnightblue" stroke="midnightblue" points="1209.13,-140.507 1215.04,-131.714 1204.94,-134.901 1209.13,-140.507"/>
</g>
<!-- Node32&#45;&gt;Node13 -->
<g id="edge44" class="edge"><title>Node32&#45;&gt;Node13</title>
<path fill="none" stroke="midnightblue" d="M1031.1,-307.936C948.666,-295.948 799.188,-274.212 711.757,-261.498"/>
<polygon fill="midnightblue" stroke="midnightblue" points="712.072,-258.007 701.672,-260.032 711.064,-264.934 712.072,-258.007"/>
</g>
<!-- Node32&#45;&gt;Node24 -->
<g id="edge43" class="edge"><title>Node32&#45;&gt;Node24</title>
<path fill="none" stroke="midnightblue" d="M1086.63,-307.734C1082.88,-297.988 1076.72,-281.981 1071.94,-269.532"/>
<polygon fill="midnightblue" stroke="midnightblue" points="1075.17,-268.204 1068.32,-260.127 1068.64,-270.717 1075.17,-268.204"/>
</g>
<!-- Node33&#45;&gt;Node4 -->
<g id="edge67" class="edge"><title>Node33&#45;&gt;Node4</title>
<path fill="none" stroke="midnightblue" d="M1385.71,-369.477C1364.97,-362.583 1338.7,-351.008 1321,-333 1265.68,-276.709 1240.31,-181.93 1231.65,-141.826"/>
<polygon fill="midnightblue" stroke="midnightblue" points="1235.04,-140.931 1229.6,-131.839 1228.18,-142.339 1235.04,-140.931"/>
</g>
<!-- Node33&#45;&gt;Node28 -->
<g id="edge48" class="edge"><title>Node33&#45;&gt;Node28</title>
<path fill="none" stroke="midnightblue" d="M1447.66,-369.475C1483.93,-359.048 1545.46,-341.362 1585.66,-329.807"/>
<polygon fill="midnightblue" stroke="midnightblue" points="1586.75,-333.135 1595.4,-327.009 1584.82,-326.408 1586.75,-333.135"/>
</g>
<!-- Node34 -->
<g id="node34" class="node"><title>Node34</title>
<g id="a_node34"><a xlink:href="IndexMap_8hpp.html" target="_top" xlink:title="Core/Index/IndexMap.hpp">
<polygon fill="white" stroke="black" points="1330.5,-308 1330.5,-327 1467.5,-327 1467.5,-308 1330.5,-308"/>
<text text-anchor="middle" x="1399" y="-315" font-family="Helvetica,sans-Serif" font-size="10.00">Core/Index/IndexMap.hpp</text>
</a>
</g>
</g>
<!-- Node33&#45;&gt;Node34 -->
<g id="edge49" class="edge"><title>Node33&#45;&gt;Node34</title>
<path fill="none" stroke="midnightblue" d="M1415.28,-369.475C1412.57,-360.992 1408.33,-347.704 1404.85,-336.822"/>
<polygon fill="midnightblue" stroke="midnightblue" points="1408.09,-335.47 1401.72,-327.009 1401.43,-337.6 1408.09,-335.47"/>
</g>
<!-- Node38 -->
<g id="node38" class="node"><title>Node38</title>
<g id="a_node38"><a xlink:href="Log_8hpp.html" target="_top" xlink:title="Core/Log/Log.hpp">
<polygon fill="white" stroke="black" points="1658.5,-241 1658.5,-260 1759.5,-260 1759.5,-241 1658.5,-241"/>
<text text-anchor="middle" x="1709" y="-248" font-family="Helvetica,sans-Serif" font-size="10.00">Core/Log/Log.hpp</text>
</a>
</g>
</g>
<!-- Node33&#45;&gt;Node38 -->
<g id="edge57" class="edge"><title>Node33&#45;&gt;Node38</title>
<path fill="none" stroke="midnightblue" d="M1428.02,-369.44C1446.69,-353.892 1488.58,-320.877 1529,-302 1568.78,-283.419 1616.78,-270.374 1653.21,-262.203"/>
<polygon fill="midnightblue" stroke="midnightblue" points="1654.14,-265.582 1663.16,-260.027 1652.64,-258.744 1654.14,-265.582"/>
</g>
<!-- Node34&#45;&gt;Node4 -->
<g id="edge50" class="edge"><title>Node34&#45;&gt;Node4</title>
<path fill="none" stroke="midnightblue" d="M1380.22,-307.899C1363.33,-299.346 1338.8,-284.798 1323,-266 1292.4,-229.587 1308.23,-206.279 1280,-168 1271.47,-156.44 1259.48,-145.806 1249.15,-137.782"/>
<polygon fill="midnightblue" stroke="midnightblue" points="1251.1,-134.865 1240.99,-131.692 1246.91,-140.476 1251.1,-134.865"/>
</g>
<!-- Node34&#45;&gt;Node18 -->
<g id="edge51" class="edge"><title>Node34&#45;&gt;Node18</title>
<path fill="none" stroke="midnightblue" d="M1382.05,-307.972C1362.6,-298.113 1329.78,-281.277 1302,-266 1225.92,-224.164 1215.41,-195.328 1133,-168 1010.76,-127.465 856.496,-122.252 784.082,-122.302"/>
<polygon fill="midnightblue" stroke="midnightblue" points="783.991,-118.802 774.006,-122.344 784.02,-125.802 783.991,-118.802"/>
</g>
<!-- Node34&#45;&gt;Node24 -->
<g id="edge54" class="edge"><title>Node34&#45;&gt;Node24</title>
<path fill="none" stroke="midnightblue" d="M1354.99,-307.936C1294.21,-296.106 1184.64,-274.784 1118.99,-262.006"/>
<polygon fill="midnightblue" stroke="midnightblue" points="1119.32,-258.507 1108.84,-260.032 1117.99,-265.378 1119.32,-258.507"/>
</g>
<!-- Node35 -->
<g id="node35" class="node"><title>Node35</title>
<polygon fill="white" stroke="#bfbfbf" points="1332,-241 1332,-260 1388,-260 1388,-241 1332,-241"/>
<text text-anchor="middle" x="1360" y="-248" font-family="Helvetica,sans-Serif" font-size="10.00">assert.h</text>
</g>
<!-- Node34&#45;&gt;Node35 -->
<g id="edge52" class="edge"><title>Node34&#45;&gt;Node35</title>
<path fill="none" stroke="midnightblue" d="M1393.74,-307.734C1387.78,-297.793 1377.9,-281.338 1370.37,-268.789"/>
<polygon fill="midnightblue" stroke="midnightblue" points="1373.32,-266.901 1365.18,-260.127 1367.32,-270.503 1373.32,-266.901"/>
</g>
<!-- Node36 -->
<g id="node36" class="node"><title>Node36</title>
<polygon fill="white" stroke="#bfbfbf" points="1406.5,-241 1406.5,-260 1453.5,-260 1453.5,-241 1406.5,-241"/>
<text text-anchor="middle" x="1430" y="-248" font-family="Helvetica,sans-Serif" font-size="10.00">deque</text>
</g>
<!-- Node34&#45;&gt;Node36 -->
<g id="edge53" class="edge"><title>Node34&#45;&gt;Node36</title>
<path fill="none" stroke="midnightblue" d="M1403.18,-307.734C1407.88,-297.89 1415.62,-281.66 1421.58,-269.159"/>
<polygon fill="midnightblue" stroke="midnightblue" points="1424.74,-270.66 1425.89,-260.127 1418.42,-267.647 1424.74,-270.66"/>
</g>
<!-- Node37 -->
<g id="node37" class="node"><title>Node37</title>
<g id="a_node37"><a xlink:href="IndexMap_8inl.html" target="_top" xlink:title="Core/Index/IndexMap.inl">
<polygon fill="white" stroke="black" points="1472,-241 1472,-260 1602,-260 1602,-241 1472,-241"/>
<text text-anchor="middle" x="1537" y="-248" font-family="Helvetica,sans-Serif" font-size="10.00">Core/Index/IndexMap.inl</text>
</a>
</g>
</g>
<!-- Node34&#45;&gt;Node37 -->
<g id="edge55" class="edge"><title>Node34&#45;&gt;Node37</title>
<path fill="none" stroke="midnightblue" d="M1412.57,-307.869C1433.9,-296.699 1475.16,-277.147 1504.42,-264.26"/>
<polygon fill="midnightblue" stroke="midnightblue" points="1506.06,-267.364 1513.83,-260.167 1503.27,-260.945 1506.06,-267.364"/>
</g>
<!-- Node37&#45;&gt;Node34 -->
<g id="edge56" class="edge"><title>Node37&#45;&gt;Node34</title>
<path fill="none" stroke="midnightblue" d="M1523.37,-260.167C1501.99,-271.355 1460.72,-290.909 1431.49,-303.781"/>
<polygon fill="midnightblue" stroke="midnightblue" points="1429.86,-300.672 1422.09,-307.869 1432.65,-307.092 1429.86,-300.672"/>
</g>
<!-- Node38&#45;&gt;Node4 -->
<g id="edge58" class="edge"><title>Node38&#45;&gt;Node4</title>
<path fill="none" stroke="midnightblue" d="M1673,-240.973C1663.59,-238.881 1653.44,-236.743 1644,-235 1535.77,-215.005 1500.99,-240.36 1399,-199 1377.17,-190.146 1376.88,-178.908 1356,-168 1328.63,-153.703 1295.72,-142.248 1270.13,-134.473"/>
<polygon fill="midnightblue" stroke="midnightblue" points="1270.94,-131.062 1260.35,-131.574 1268.95,-137.773 1270.94,-131.062"/>
</g>
<!-- Node38&#45;&gt;Node9 -->
<g id="edge59" class="edge"><title>Node38&#45;&gt;Node9</title>
<path fill="none" stroke="midnightblue" d="M1710.56,-240.804C1712.97,-225.757 1716.74,-193.983 1711,-168 1697.46,-106.671 1642.52,-52.0881 1612.99,-26.4591"/>
<polygon fill="midnightblue" stroke="midnightblue" points="1614.95,-23.5291 1605.05,-19.7371 1610.42,-28.8708 1614.95,-23.5291"/>
</g>
<!-- Node39 -->
<g id="node39" class="node"><title>Node39</title>
<polygon fill="white" stroke="#bfbfbf" points="1408.5,-174 1408.5,-193 1457.5,-193 1457.5,-174 1408.5,-174"/>
<text text-anchor="middle" x="1433" y="-181" font-family="Helvetica,sans-Serif" font-size="10.00">stdio.h</text>
</g>
<!-- Node38&#45;&gt;Node39 -->
<g id="edge60" class="edge"><title>Node38&#45;&gt;Node39</title>
<path fill="none" stroke="midnightblue" d="M1671.22,-240.946C1662.3,-238.961 1652.82,-236.881 1644,-235 1565.49,-218.26 1543.65,-222.868 1467,-199 1464.86,-198.333 1462.67,-197.579 1460.48,-196.772"/>
<polygon fill="midnightblue" stroke="midnightblue" points="1461.68,-193.481 1451.1,-193.02 1459.08,-199.981 1461.68,-193.481"/>
</g>
<!-- Node40 -->
<g id="node40" class="node"><title>Node40</title>
<polygon fill="white" stroke="#bfbfbf" points="1632,-112.5 1632,-131.5 1676,-131.5 1676,-112.5 1632,-112.5"/>
<text text-anchor="middle" x="1654" y="-119.5" font-family="Helvetica,sans-Serif" font-size="10.00">string</text>
</g>
<!-- Node38&#45;&gt;Node40 -->
<g id="edge61" class="edge"><title>Node38&#45;&gt;Node40</title>
<path fill="none" stroke="midnightblue" d="M1708.43,-240.979C1707.13,-225.659 1703.04,-192.758 1691,-168 1685.82,-157.359 1677.65,-147.045 1670.3,-138.982"/>
<polygon fill="midnightblue" stroke="midnightblue" points="1672.81,-136.543 1663.37,-131.74 1667.75,-141.384 1672.81,-136.543"/>
</g>
<!-- Node41 -->
<g id="node41" class="node"><title>Node41</title>
<g id="a_node41"><a xlink:href="StringUtils_8hpp.html" target="_top" xlink:title="Core/String/StringUtils.hpp">
<polygon fill="white" stroke="black" points="1538,-174 1538,-193 1682,-193 1682,-174 1538,-174"/>
<text text-anchor="middle" x="1610" y="-181" font-family="Helvetica,sans-Serif" font-size="10.00">Core/String/StringUtils.hpp</text>
</a>
</g>
</g>
<!-- Node38&#45;&gt;Node41 -->
<g id="edge62" class="edge"><title>Node38&#45;&gt;Node41</title>
<path fill="none" stroke="midnightblue" d="M1695.65,-240.734C1679.25,-229.964 1651.2,-211.55 1631.69,-198.739"/>
<polygon fill="midnightblue" stroke="midnightblue" points="1633.42,-195.69 1623.14,-193.127 1629.58,-201.542 1633.42,-195.69"/>
</g>
<!-- Node42 -->
<g id="node42" class="node"><title>Node42</title>
<polygon fill="white" stroke="#bfbfbf" points="1476,-174 1476,-193 1520,-193 1520,-174 1476,-174"/>
<text text-anchor="middle" x="1498" y="-181" font-family="Helvetica,sans-Serif" font-size="10.00">ctime</text>
</g>
<!-- Node38&#45;&gt;Node42 -->
<g id="edge66" class="edge"><title>Node38&#45;&gt;Node42</title>
<path fill="none" stroke="midnightblue" d="M1671.89,-240.98C1635.1,-232.093 1577.38,-216.963 1529,-199 1527.57,-198.47 1526.12,-197.901 1524.66,-197.306"/>
<polygon fill="midnightblue" stroke="midnightblue" points="1525.73,-193.952 1515.17,-193.14 1522.92,-200.362 1525.73,-193.952"/>
</g>
<!-- Node41&#45;&gt;Node4 -->
<g id="edge63" class="edge"><title>Node41&#45;&gt;Node4</title>
<path fill="none" stroke="midnightblue" d="M1563.78,-173.989C1552.42,-171.963 1540.28,-169.852 1529,-168 1445.21,-154.24 1348,-140.023 1287.24,-131.344"/>
<polygon fill="midnightblue" stroke="midnightblue" points="1287.47,-127.841 1277.08,-129.895 1286.48,-134.771 1287.47,-127.841"/>
</g>
<!-- Node41&#45;&gt;Node31 -->
<g id="edge65" class="edge"><title>Node41&#45;&gt;Node31</title>
<path fill="none" stroke="midnightblue" d="M1640.8,-173.975C1680.73,-162.926 1750.11,-143.726 1791.37,-132.307"/>
<polygon fill="midnightblue" stroke="midnightblue" points="1792.52,-135.621 1801.22,-129.581 1790.65,-128.875 1792.52,-135.621"/>
</g>
<!-- Node41&#45;&gt;Node40 -->
<g id="edge64" class="edge"><title>Node41&#45;&gt;Node40</title>
<path fill="none" stroke="midnightblue" d="M1616.3,-173.975C1622.9,-165.05 1633.44,-150.807 1641.69,-139.643"/>
<polygon fill="midnightblue" stroke="midnightblue" points="1644.58,-141.631 1647.71,-131.509 1638.95,-137.468 1644.58,-141.631"/>
</g>
<!-- Node43&#45;&gt;Node27 -->
<g id="edge69" class="edge"><title>Node43&#45;&gt;Node27</title>
<path fill="none" stroke="midnightblue" d="M1253.31,-388.509C1233.51,-398.576 1196.94,-415.424 1169.98,-426.98"/>
<polygon fill="midnightblue" stroke="midnightblue" points="1168.37,-423.857 1160.53,-430.975 1171.1,-430.305 1168.37,-423.857"/>
</g>
</g>
</svg>
