<?xml version="1.0" encoding="UTF-8" standalone="no"?>
<!DOCTYPE svg PUBLIC "-//W3C//DTD SVG 1.1//EN"
 "http://www.w3.org/Graphics/SVG/1.1/DTD/svg11.dtd">
<!-- Generated by graphviz version 2.38.0 (20140413.2041)
 -->
<!-- Title: /home/travis/build/STORM&#45;IRIT/Radium&#45;Engine/src/GuiBase/TransformEditor/TransformEditor.cpp Pages: 1 -->
<svg width="1588pt" height="475pt"
 viewBox="0.00 0.00 1587.67 475.00" xmlns="http://www.w3.org/2000/svg" xmlns:xlink="http://www.w3.org/1999/xlink">
<g id="graph0" class="graph" transform="scale(1 1) rotate(0) translate(4 471)">
<title>/home/travis/build/STORM&#45;IRIT/Radium&#45;Engine/src/GuiBase/TransformEditor/TransformEditor.cpp</title>
<polygon fill="white" stroke="none" points="-4,4 -4,-471 1583.67,-471 1583.67,4 -4,4"/>
<!-- Node1 -->
<g id="node1" class="node"><title>Node1</title>
<polygon fill="#bfbfbf" stroke="black" points="1068.35,-414.5 1068.35,-466.5 1223.35,-466.5 1223.35,-414.5 1068.35,-414.5"/>
<text text-anchor="start" x="1076.35" y="-454.5" font-family="Helvetica,sans-Serif" font-size="10.00">/home/travis/build</text>
<text text-anchor="start" x="1076.35" y="-443.5" font-family="Helvetica,sans-Serif" font-size="10.00">/STORM&#45;IRIT/Radium&#45;Engine</text>
<text text-anchor="start" x="1076.35" y="-432.5" font-family="Helvetica,sans-Serif" font-size="10.00">/src/GuiBase/TransformEditor</text>
<text text-anchor="middle" x="1145.85" y="-421.5" font-family="Helvetica,sans-Serif" font-size="10.00">/TransformEditor.cpp</text>
</g>
<!-- Node2 -->
<g id="node2" class="node"><title>Node2</title>
<g id="a_node2"><a xlink:href="TransformEditor_8hpp.html" target="_top" xlink:title="GuiBase/TransformEditor\l/TransformEditor.hpp">
<polygon fill="white" stroke="black" points="1078.85,-347.5 1078.85,-377.5 1212.85,-377.5 1212.85,-347.5 1078.85,-347.5"/>
<text text-anchor="start" x="1086.85" y="-365.5" font-family="Helvetica,sans-Serif" font-size="10.00">GuiBase/TransformEditor</text>
<text text-anchor="middle" x="1145.85" y="-354.5" font-family="Helvetica,sans-Serif" font-size="10.00">/TransformEditor.hpp</text>
</a>
</g>
</g>
<!-- Node1&#45;&gt;Node2 -->
<g id="edge1" class="edge"><title>Node1&#45;&gt;Node2</title>
<path fill="none" stroke="midnightblue" d="M1145.85,-414.193C1145.85,-405.786 1145.85,-396.443 1145.85,-388.091"/>
<polygon fill="midnightblue" stroke="midnightblue" points="1149.35,-387.845 1145.85,-377.845 1142.35,-387.845 1149.35,-387.845"/>
</g>
<!-- Node30 -->
<g id="node30" class="node"><title>Node30</title>
<g id="a_node30"><a xlink:href="Component_8hpp.html" target="_top" xlink:title="Engine/Component/Component.hpp">
<polygon fill="white" stroke="black" points="581.853,-353 581.853,-372 769.853,-372 769.853,-353 581.853,-353"/>
<text text-anchor="middle" x="675.853" y="-360" font-family="Helvetica,sans-Serif" font-size="10.00">Engine/Component/Component.hpp</text>
</a>
</g>
</g>
<!-- Node1&#45;&gt;Node30 -->
<g id="edge33" class="edge"><title>Node1&#45;&gt;Node30</title>
<path fill="none" stroke="midnightblue" d="M1068.24,-426.95C976.042,-412.041 824.021,-387.459 738.794,-373.678"/>
<polygon fill="midnightblue" stroke="midnightblue" points="739.171,-370.193 728.741,-372.052 738.054,-377.104 739.171,-370.193"/>
</g>
<!-- Node34 -->
<g id="node34" class="node"><title>Node34</title>
<g id="a_node34"><a xlink:href="Entity_8hpp.html" target="_top" xlink:title="Engine/Entity/Entity.hpp">
<polygon fill="white" stroke="black" points="1233.85,-353 1233.85,-372 1361.85,-372 1361.85,-353 1233.85,-353"/>
<text text-anchor="middle" x="1297.85" y="-360" font-family="Helvetica,sans-Serif" font-size="10.00">Engine/Entity/Entity.hpp</text>
</a>
</g>
</g>
<!-- Node1&#45;&gt;Node34 -->
<g id="edge45" class="edge"><title>Node1&#45;&gt;Node34</title>
<path fill="none" stroke="midnightblue" d="M1196.04,-414.404C1221.28,-401.788 1250.82,-387.019 1271.56,-376.648"/>
<polygon fill="midnightblue" stroke="midnightblue" points="1273.32,-379.681 1280.7,-372.078 1270.19,-373.42 1273.32,-379.681"/>
</g>
<!-- Node3 -->
<g id="node3" class="node"><title>Node3</title>
<g id="a_node3"><a xlink:href="LinearAlgebra_8hpp.html" target="_top" xlink:title="Core/Math/LinearAlgebra.hpp">
<polygon fill="white" stroke="black" points="524.853,-235.5 524.853,-254.5 680.853,-254.5 680.853,-235.5 524.853,-235.5"/>
<text text-anchor="middle" x="602.853" y="-242.5" font-family="Helvetica,sans-Serif" font-size="10.00">Core/Math/LinearAlgebra.hpp</text>
</a>
</g>
</g>
<!-- Node2&#45;&gt;Node3 -->
<g id="edge2" class="edge"><title>Node2&#45;&gt;Node3</title>
<path fill="none" stroke="midnightblue" d="M1078.79,-359.85C996.819,-356.328 854.604,-345.324 737.853,-311 696.289,-298.78 651.667,-274.949 625.559,-259.787"/>
<polygon fill="midnightblue" stroke="midnightblue" points="627.209,-256.697 616.817,-254.63 623.652,-262.726 627.209,-256.697"/>
</g>
<!-- Node21 -->
<g id="node21" class="node"><title>Node21</title>
<g id="a_node21"><a xlink:href="ItemEntry_8hpp.html" target="_top" xlink:title="Engine/ItemModel/ItemEntry.hpp">
<polygon fill="white" stroke="black" points="1060.35,-291.5 1060.35,-310.5 1231.35,-310.5 1231.35,-291.5 1060.35,-291.5"/>
<text text-anchor="middle" x="1145.85" y="-298.5" font-family="Helvetica,sans-Serif" font-size="10.00">Engine/ItemModel/ItemEntry.hpp</text>
</a>
</g>
</g>
<!-- Node2&#45;&gt;Node21 -->
<g id="edge22" class="edge"><title>Node2&#45;&gt;Node21</title>
<path fill="none" stroke="midnightblue" d="M1145.85,-347.399C1145.85,-339.466 1145.85,-329.458 1145.85,-320.858"/>
<polygon fill="midnightblue" stroke="midnightblue" points="1149.35,-320.658 1145.85,-310.658 1142.35,-320.658 1149.35,-320.658"/>
</g>
<!-- Node29 -->
<g id="node29" class="node"><title>Node29</title>
<g id="a_node29"><a xlink:href="RaGuiBase_8hpp.html" target="_top" xlink:title="GuiBase/RaGuiBase.hpp">
<polygon fill="white" stroke="black" points="1185.85,-112.5 1185.85,-131.5 1317.85,-131.5 1317.85,-112.5 1185.85,-112.5"/>
<text text-anchor="middle" x="1251.85" y="-119.5" font-family="Helvetica,sans-Serif" font-size="10.00">GuiBase/RaGuiBase.hpp</text>
</a>
</g>
</g>
<!-- Node2&#45;&gt;Node29 -->
<g id="edge31" class="edge"><title>Node2&#45;&gt;Node29</title>
<path fill="none" stroke="midnightblue" d="M1193.47,-347.406C1211.35,-339.621 1229.96,-327.98 1240.85,-311 1274.94,-257.858 1263.86,-177.92 1256.36,-141.846"/>
<polygon fill="midnightblue" stroke="midnightblue" points="1259.7,-140.763 1254.11,-131.765 1252.87,-142.287 1259.7,-140.763"/>
</g>
<!-- Node4 -->
<g id="node4" class="node"><title>Node4</title>
<g id="a_node4"><a xlink:href="RaCore_8hpp.html" target="_top" xlink:title="Core/RaCore.hpp">
<polygon fill="white" stroke="black" points="620.853,-112.5 620.853,-131.5 718.853,-131.5 718.853,-112.5 620.853,-112.5"/>
<text text-anchor="middle" x="669.853" y="-119.5" font-family="Helvetica,sans-Serif" font-size="10.00">Core/RaCore.hpp</text>
</a>
</g>
</g>
<!-- Node3&#45;&gt;Node4 -->
<g id="edge3" class="edge"><title>Node3&#45;&gt;Node4</title>
<path fill="none" stroke="midnightblue" d="M524.534,-241.697C403.159,-237.31 180.993,-225.698 156.853,-199 147.612,-188.78 147.546,-178.159 156.853,-168 186.988,-135.105 481.975,-126.15 610.503,-123.8"/>
<polygon fill="midnightblue" stroke="midnightblue" points="610.633,-127.299 620.57,-123.624 610.51,-120.3 610.633,-127.299"/>
</g>
<!-- Node11 -->
<g id="node11" class="node"><title>Node11</title>
<polygon fill="white" stroke="#bfbfbf" points="576.853,-174 576.853,-193 644.853,-193 644.853,-174 576.853,-174"/>
<text text-anchor="middle" x="610.853" y="-181" font-family="Helvetica,sans-Serif" font-size="10.00">Eigen/Core</text>
</g>
<!-- Node3&#45;&gt;Node11 -->
<g id="edge10" class="edge"><title>Node3&#45;&gt;Node11</title>
<path fill="none" stroke="midnightblue" d="M603.999,-235.475C605.128,-227.08 606.889,-213.981 608.344,-203.163"/>
<polygon fill="midnightblue" stroke="midnightblue" points="611.845,-203.386 609.709,-193.009 604.907,-202.453 611.845,-203.386"/>
</g>
<!-- Node12 -->
<g id="node12" class="node"><title>Node12</title>
<polygon fill="white" stroke="#bfbfbf" points="15.8529,-174 15.8529,-193 109.853,-193 109.853,-174 15.8529,-174"/>
<text text-anchor="middle" x="62.8529" y="-181" font-family="Helvetica,sans-Serif" font-size="10.00">Eigen/Geometry</text>
</g>
<!-- Node3&#45;&gt;Node12 -->
<g id="edge11" class="edge"><title>Node3&#45;&gt;Node12</title>
<path fill="none" stroke="midnightblue" d="M524.434,-240.003C429.211,-234.375 263.953,-222.116 123.853,-199 117.65,-197.977 111.142,-196.677 104.782,-195.278"/>
<polygon fill="midnightblue" stroke="midnightblue" points="105.503,-191.853 94.9734,-193.023 103.935,-198.675 105.503,-191.853"/>
</g>
<!-- Node13 -->
<g id="node13" class="node"><title>Node13</title>
<polygon fill="white" stroke="#bfbfbf" points="662.853,-174 662.853,-193 742.853,-193 742.853,-174 662.853,-174"/>
<text text-anchor="middle" x="702.853" y="-181" font-family="Helvetica,sans-Serif" font-size="10.00">Eigen/Sparse</text>
</g>
<!-- Node3&#45;&gt;Node13 -->
<g id="edge12" class="edge"><title>Node3&#45;&gt;Node13</title>
<path fill="none" stroke="midnightblue" d="M617.18,-235.475C633.517,-225.755 660.455,-209.727 679.765,-198.237"/>
<polygon fill="midnightblue" stroke="midnightblue" points="681.748,-201.13 688.552,-193.009 678.168,-195.115 681.748,-201.13"/>
</g>
<!-- Node14 -->
<g id="node14" class="node"><title>Node14</title>
<polygon fill="white" stroke="#bfbfbf" points="166.353,-174 166.353,-193 229.353,-193 229.353,-174 166.353,-174"/>
<text text-anchor="middle" x="197.853" y="-181" font-family="Helvetica,sans-Serif" font-size="10.00">functional</text>
</g>
<!-- Node3&#45;&gt;Node14 -->
<g id="edge13" class="edge"><title>Node3&#45;&gt;Node14</title>
<path fill="none" stroke="midnightblue" d="M524.692,-239.471C450.163,-233.957 335.179,-222.324 237.853,-199 234.791,-198.266 231.64,-197.375 228.514,-196.399"/>
<polygon fill="midnightblue" stroke="midnightblue" points="229.35,-192.986 218.756,-193.081 227.097,-199.614 229.35,-192.986"/>
</g>
<!-- Node15 -->
<g id="node15" class="node"><title>Node15</title>
<polygon fill="white" stroke="#bfbfbf" points="247.353,-168.5 247.353,-198.5 392.353,-198.5 392.353,-168.5 247.353,-168.5"/>
<text text-anchor="start" x="255.353" y="-186.5" font-family="Helvetica,sans-Serif" font-size="10.00">unsupported/Eigen/Aligned</text>
<text text-anchor="middle" x="319.853" y="-175.5" font-family="Helvetica,sans-Serif" font-size="10.00">Vector3</text>
</g>
<!-- Node3&#45;&gt;Node15 -->
<g id="edge14" class="edge"><title>Node3&#45;&gt;Node15</title>
<path fill="none" stroke="midnightblue" d="M562.306,-235.475C519.142,-226.4 449.826,-211.826 396.343,-200.582"/>
<polygon fill="midnightblue" stroke="midnightblue" points="397.057,-197.155 386.55,-198.523 395.616,-204.006 397.057,-197.155"/>
</g>
<!-- Node16 -->
<g id="node16" class="node"><title>Node16</title>
<g id="a_node16"><a xlink:href="Math_8hpp.html" target="_top" xlink:title="Core/Math/Math.hpp">
<polygon fill="white" stroke="black" points="798.853,-174 798.853,-193 912.853,-193 912.853,-174 798.853,-174"/>
<text text-anchor="middle" x="855.853" y="-181" font-family="Helvetica,sans-Serif" font-size="10.00">Core/Math/Math.hpp</text>
</a>
</g>
</g>
<!-- Node3&#45;&gt;Node16 -->
<g id="edge15" class="edge"><title>Node3&#45;&gt;Node16</title>
<path fill="none" stroke="midnightblue" d="M639.102,-235.475C684.003,-224.915 760.559,-206.911 809.637,-195.369"/>
<polygon fill="midnightblue" stroke="midnightblue" points="810.738,-198.706 819.671,-193.009 809.136,-191.891 810.738,-198.706"/>
</g>
<!-- Node20 -->
<g id="node20" class="node"><title>Node20</title>
<g id="a_node20"><a xlink:href="LinearAlgebra_8inl.html" target="_top" xlink:title="Core/Math/LinearAlgebra.inl">
<polygon fill="white" stroke="black" points="410.353,-174 410.353,-193 559.353,-193 559.353,-174 410.353,-174"/>
<text text-anchor="middle" x="484.853" y="-181" font-family="Helvetica,sans-Serif" font-size="10.00">Core/Math/LinearAlgebra.inl</text>
</a>
</g>
</g>
<!-- Node3&#45;&gt;Node20 -->
<g id="edge21" class="edge"><title>Node3&#45;&gt;Node20</title>
<path fill="none" stroke="midnightblue" d="M585.946,-235.475C566.319,-225.578 533.722,-209.142 510.863,-197.615"/>
<polygon fill="midnightblue" stroke="midnightblue" points="512.233,-194.386 501.728,-193.009 509.081,-200.637 512.233,-194.386"/>
</g>
<!-- Node5 -->
<g id="node5" class="node"><title>Node5</title>
<g id="a_node5"><a xlink:href="CoreMacros_8hpp.html" target="_top" xlink:title="Core/CoreMacros.hpp">
<polygon fill="white" stroke="black" points="1153.85,-56.5 1153.85,-75.5 1273.85,-75.5 1273.85,-56.5 1153.85,-56.5"/>
<text text-anchor="middle" x="1213.85" y="-63.5" font-family="Helvetica,sans-Serif" font-size="10.00">Core/CoreMacros.hpp</text>
</a>
</g>
</g>
<!-- Node4&#45;&gt;Node5 -->
<g id="edge4" class="edge"><title>Node4&#45;&gt;Node5</title>
<path fill="none" stroke="midnightblue" d="M718.871,-113.176C721.908,-112.759 724.92,-112.363 727.853,-112 875.321,-93.7489 1048.8,-79.3866 1143.46,-72.1494"/>
<polygon fill="midnightblue" stroke="midnightblue" points="1143.78,-75.6351 1153.49,-71.3868 1143.25,-68.6552 1143.78,-75.6351"/>
</g>
<!-- Node6 -->
<g id="node6" class="node"><title>Node6</title>
<polygon fill="white" stroke="#bfbfbf" points="1297.85,-0.5 1297.85,-19.5 1349.85,-19.5 1349.85,-0.5 1297.85,-0.5"/>
<text text-anchor="middle" x="1323.85" y="-7.5" font-family="Helvetica,sans-Serif" font-size="10.00">cassert</text>
</g>
<!-- Node5&#45;&gt;Node6 -->
<g id="edge5" class="edge"><title>Node5&#45;&gt;Node6</title>
<path fill="none" stroke="midnightblue" d="M1231.53,-56.324C1249.25,-47.6247 1276.76,-34.1202 1297.14,-24.113"/>
<polygon fill="midnightblue" stroke="midnightblue" points="1298.79,-27.2031 1306.22,-19.6545 1295.7,-20.9195 1298.79,-27.2031"/>
</g>
<!-- Node7 -->
<g id="node7" class="node"><title>Node7</title>
<polygon fill="white" stroke="#bfbfbf" points="1083.35,-0.5 1083.35,-19.5 1128.35,-19.5 1128.35,-0.5 1083.35,-0.5"/>
<text text-anchor="middle" x="1105.85" y="-7.5" font-family="Helvetica,sans-Serif" font-size="10.00">cstdio</text>
</g>
<!-- Node5&#45;&gt;Node7 -->
<g id="edge6" class="edge"><title>Node5&#45;&gt;Node7</title>
<path fill="none" stroke="midnightblue" d="M1196.5,-56.324C1179.18,-47.6641 1152.34,-34.2424 1132.35,-24.249"/>
<polygon fill="midnightblue" stroke="midnightblue" points="1133.67,-20.9962 1123.16,-19.6545 1130.54,-27.2572 1133.67,-20.9962"/>
</g>
<!-- Node8 -->
<g id="node8" class="node"><title>Node8</title>
<polygon fill="white" stroke="#bfbfbf" points="1146.35,-0.5 1146.35,-19.5 1205.35,-19.5 1205.35,-0.5 1146.35,-0.5"/>
<text text-anchor="middle" x="1175.85" y="-7.5" font-family="Helvetica,sans-Serif" font-size="10.00">iostream</text>
</g>
<!-- Node5&#45;&gt;Node8 -->
<g id="edge7" class="edge"><title>Node5&#45;&gt;Node8</title>
<path fill="none" stroke="midnightblue" d="M1207.58,-56.083C1202.21,-48.4554 1194.34,-37.2645 1187.77,-27.9408"/>
<polygon fill="midnightblue" stroke="midnightblue" points="1190.63,-25.9149 1182.01,-19.7511 1184.9,-29.9434 1190.63,-25.9149"/>
</g>
<!-- Node9 -->
<g id="node9" class="node"><title>Node9</title>
<polygon fill="white" stroke="#bfbfbf" points="1223.85,-0.5 1223.85,-19.5 1279.85,-19.5 1279.85,-0.5 1223.85,-0.5"/>
<text text-anchor="middle" x="1251.85" y="-7.5" font-family="Helvetica,sans-Serif" font-size="10.00">sstream</text>
</g>
<!-- Node5&#45;&gt;Node9 -->
<g id="edge8" class="edge"><title>Node5&#45;&gt;Node9</title>
<path fill="none" stroke="midnightblue" d="M1220.13,-56.083C1225.5,-48.4554 1233.37,-37.2645 1239.93,-27.9408"/>
<polygon fill="midnightblue" stroke="midnightblue" points="1242.8,-29.9434 1245.69,-19.7511 1237.08,-25.9149 1242.8,-29.9434"/>
</g>
<!-- Node10 -->
<g id="node10" class="node"><title>Node10</title>
<polygon fill="white" stroke="#bfbfbf" points="1470.85,-0.5 1470.85,-19.5 1518.85,-19.5 1518.85,-0.5 1470.85,-0.5"/>
<text text-anchor="middle" x="1494.85" y="-7.5" font-family="Helvetica,sans-Serif" font-size="10.00">thread</text>
</g>
<!-- Node5&#45;&gt;Node10 -->
<g id="edge9" class="edge"><title>Node5&#45;&gt;Node10</title>
<path fill="none" stroke="midnightblue" d="M1258.38,-56.4435C1314.55,-45.6484 1409.94,-27.3185 1460.7,-17.5637"/>
<polygon fill="midnightblue" stroke="midnightblue" points="1461.37,-20.9993 1470.53,-15.6749 1460.05,-14.1251 1461.37,-20.9993"/>
</g>
<!-- Node16&#45;&gt;Node4 -->
<g id="edge16" class="edge"><title>Node16&#45;&gt;Node4</title>
<path fill="none" stroke="midnightblue" d="M829.204,-173.975C796.884,-163.636 742.256,-146.161 706.12,-134.602"/>
<polygon fill="midnightblue" stroke="midnightblue" points="707.044,-131.222 696.453,-131.509 704.911,-137.89 707.044,-131.222"/>
</g>
<!-- Node17 -->
<g id="node17" class="node"><title>Node17</title>
<polygon fill="white" stroke="#bfbfbf" points="926.853,-112.5 926.853,-131.5 988.853,-131.5 988.853,-112.5 926.853,-112.5"/>
<text text-anchor="middle" x="957.853" y="-119.5" font-family="Helvetica,sans-Serif" font-size="10.00">algorithm</text>
</g>
<!-- Node16&#45;&gt;Node17 -->
<g id="edge17" class="edge"><title>Node16&#45;&gt;Node17</title>
<path fill="none" stroke="midnightblue" d="M870.467,-173.975C887.206,-164.211 914.857,-148.081 934.572,-136.581"/>
<polygon fill="midnightblue" stroke="midnightblue" points="936.392,-139.571 943.266,-131.509 932.865,-133.525 936.392,-139.571"/>
</g>
<!-- Node18 -->
<g id="node18" class="node"><title>Node18</title>
<polygon fill="white" stroke="#bfbfbf" points="737.353,-112.5 737.353,-131.5 784.353,-131.5 784.353,-112.5 737.353,-112.5"/>
<text text-anchor="middle" x="760.853" y="-119.5" font-family="Helvetica,sans-Serif" font-size="10.00">cmath</text>
</g>
<!-- Node16&#45;&gt;Node18 -->
<g id="edge18" class="edge"><title>Node16&#45;&gt;Node18</title>
<path fill="none" stroke="midnightblue" d="M842.242,-173.975C826.792,-164.299 801.363,-148.372 783.037,-136.894"/>
<polygon fill="midnightblue" stroke="midnightblue" points="784.772,-133.851 774.439,-131.509 781.056,-139.783 784.772,-133.851"/>
</g>
<!-- Node19 -->
<g id="node19" class="node"><title>Node19</title>
<g id="a_node19"><a xlink:href="Math_8inl.html" target="_top" xlink:title="Core/Math/Math.inl">
<polygon fill="white" stroke="black" points="802.353,-112.5 802.353,-131.5 909.353,-131.5 909.353,-112.5 802.353,-112.5"/>
<text text-anchor="middle" x="855.853" y="-119.5" font-family="Helvetica,sans-Serif" font-size="10.00">Core/Math/Math.inl</text>
</a>
</g>
</g>
<!-- Node16&#45;&gt;Node19 -->
<g id="edge19" class="edge"><title>Node16&#45;&gt;Node19</title>
<path fill="none" stroke="midnightblue" d="M850.952,-173.975C849.121,-165.58 848.65,-152.481 849.538,-141.663"/>
<polygon fill="midnightblue" stroke="midnightblue" points="853.039,-141.897 850.956,-131.509 846.107,-140.929 853.039,-141.897"/>
</g>
<!-- Node19&#45;&gt;Node16 -->
<g id="edge20" class="edge"><title>Node19&#45;&gt;Node16</title>
<path fill="none" stroke="midnightblue" d="M860.75,-131.509C862.583,-139.898 863.056,-152.996 862.169,-163.817"/>
<polygon fill="midnightblue" stroke="midnightblue" points="858.668,-163.588 860.754,-173.975 865.601,-164.554 858.668,-163.588"/>
</g>
<!-- Node22 -->
<g id="node22" class="node"><title>Node22</title>
<g id="a_node22"><a xlink:href="RaEngine_8hpp.html" target="_top" xlink:title="Engine/RaEngine.hpp">
<polygon fill="white" stroke="black" points="934.353,-235.5 934.353,-254.5 1051.35,-254.5 1051.35,-235.5 934.353,-235.5"/>
<text text-anchor="middle" x="992.853" y="-242.5" font-family="Helvetica,sans-Serif" font-size="10.00">Engine/RaEngine.hpp</text>
</a>
</g>
</g>
<!-- Node21&#45;&gt;Node22 -->
<g id="edge23" class="edge"><title>Node21&#45;&gt;Node22</title>
<path fill="none" stroke="midnightblue" d="M1121.61,-291.444C1095.98,-282.399 1055.37,-268.064 1026.61,-257.916"/>
<polygon fill="midnightblue" stroke="midnightblue" points="1027.58,-254.544 1016.98,-254.516 1025.25,-261.145 1027.58,-254.544"/>
</g>
<!-- Node23 -->
<g id="node23" class="node"><title>Node23</title>
<g id="a_node23"><a xlink:href="Index_8hpp.html" target="_top" xlink:title="Core/Index/Index.hpp">
<polygon fill="white" stroke="black" points="799.353,-235.5 799.353,-254.5 916.353,-254.5 916.353,-235.5 799.353,-235.5"/>
<text text-anchor="middle" x="857.853" y="-242.5" font-family="Helvetica,sans-Serif" font-size="10.00">Core/Index/Index.hpp</text>
</a>
</g>
</g>
<!-- Node21&#45;&gt;Node23 -->
<g id="edge25" class="edge"><title>Node21&#45;&gt;Node23</title>
<path fill="none" stroke="midnightblue" d="M1100.22,-291.444C1049.56,-281.944 967.778,-266.611 913.425,-256.42"/>
<polygon fill="midnightblue" stroke="midnightblue" points="913.748,-252.919 903.274,-254.516 912.458,-259.799 913.748,-252.919"/>
</g>
<!-- Node26 -->
<g id="node26" class="node"><title>Node26</title>
<polygon fill="white" stroke="#bfbfbf" points="1289.85,-235.5 1289.85,-254.5 1333.85,-254.5 1333.85,-235.5 1289.85,-235.5"/>
<text text-anchor="middle" x="1311.85" y="-242.5" font-family="Helvetica,sans-Serif" font-size="10.00">string</text>
</g>
<!-- Node21&#45;&gt;Node26 -->
<g id="edge28" class="edge"><title>Node21&#45;&gt;Node26</title>
<path fill="none" stroke="midnightblue" d="M1172.16,-291.444C1201.44,-281.917 1248.76,-266.523 1280.09,-256.332"/>
<polygon fill="midnightblue" stroke="midnightblue" points="1281.23,-259.642 1289.66,-253.22 1279.06,-252.986 1281.23,-259.642"/>
</g>
<!-- Node27 -->
<g id="node27" class="node"><title>Node27</title>
<polygon fill="white" stroke="#bfbfbf" points="1352.35,-235.5 1352.35,-254.5 1399.35,-254.5 1399.35,-235.5 1352.35,-235.5"/>
<text text-anchor="middle" x="1375.85" y="-242.5" font-family="Helvetica,sans-Serif" font-size="10.00">vector</text>
</g>
<!-- Node21&#45;&gt;Node27 -->
<g id="edge29" class="edge"><title>Node21&#45;&gt;Node27</title>
<path fill="none" stroke="midnightblue" d="M1185.59,-291.433C1223.36,-283.177 1281.98,-270.069 1342.05,-255.121"/>
<polygon fill="midnightblue" stroke="midnightblue" points="1343.24,-258.431 1352.09,-252.608 1341.54,-251.64 1343.24,-258.431"/>
</g>
<!-- Node28 -->
<g id="node28" class="node"><title>Node28</title>
<g id="a_node28"><a xlink:href="ItemEntry_8inl.html" target="_top" xlink:title="Engine/ItemModel/ItemEntry.inl">
<polygon fill="white" stroke="black" points="1069.85,-235.5 1069.85,-254.5 1233.85,-254.5 1233.85,-235.5 1069.85,-235.5"/>
<text text-anchor="middle" x="1151.85" y="-242.5" font-family="Helvetica,sans-Serif" font-size="10.00">Engine/ItemModel/ItemEntry.inl</text>
</a>
</g>
</g>
<!-- Node21&#45;&gt;Node28 -->
<g id="edge30" class="edge"><title>Node21&#45;&gt;Node28</title>
<path fill="none" stroke="midnightblue" d="M1146.84,-291.083C1147.64,-283.927 1148.78,-273.635 1149.78,-264.691"/>
<polygon fill="midnightblue" stroke="midnightblue" points="1153.25,-265.076 1150.88,-254.751 1146.3,-264.303 1153.25,-265.076"/>
</g>
<!-- Node22&#45;&gt;Node5 -->
<g id="edge24" class="edge"><title>Node22&#45;&gt;Node5</title>
<path fill="none" stroke="midnightblue" d="M1029.7,-235.425C1054.13,-228.46 1085.95,-216.826 1109.85,-199 1148.97,-169.821 1146.46,-150.187 1176.85,-112 1184.51,-102.385 1193.23,-91.7598 1200.28,-83.2498"/>
<polygon fill="midnightblue" stroke="midnightblue" points="1202.97,-85.4867 1206.68,-75.5603 1197.59,-81.0104 1202.97,-85.4867"/>
</g>
<!-- Node24 -->
<g id="node24" class="node"><title>Node24</title>
<polygon fill="white" stroke="#bfbfbf" points="1058.85,-174 1058.85,-193 1100.85,-193 1100.85,-174 1058.85,-174"/>
<text text-anchor="middle" x="1079.85" y="-181" font-family="Helvetica,sans-Serif" font-size="10.00">limits</text>
</g>
<!-- Node23&#45;&gt;Node24 -->
<g id="edge26" class="edge"><title>Node23&#45;&gt;Node24</title>
<path fill="none" stroke="midnightblue" d="M907.637,-235.454C946.91,-227.971 1002.73,-215.68 1049.85,-199 1051.28,-198.493 1052.74,-197.938 1054.19,-197.349"/>
<polygon fill="midnightblue" stroke="midnightblue" points="1055.92,-200.413 1063.63,-193.145 1053.07,-194.019 1055.92,-200.413"/>
</g>
<!-- Node25 -->
<g id="node25" class="node"><title>Node25</title>
<g id="a_node25"><a xlink:href="Index_8inl.html" target="_top" xlink:title="Core/Index/Index.inl">
<polygon fill="white" stroke="black" points="930.853,-174 930.853,-193 1040.85,-193 1040.85,-174 930.853,-174"/>
<text text-anchor="middle" x="985.853" y="-181" font-family="Helvetica,sans-Serif" font-size="10.00">Core/Index/Index.inl</text>
</a>
</g>
</g>
<!-- Node23&#45;&gt;Node25 -->
<g id="edge27" class="edge"><title>Node23&#45;&gt;Node25</title>
<path fill="none" stroke="midnightblue" d="M876.192,-235.475C897.673,-225.49 933.475,-208.848 958.301,-197.307"/>
<polygon fill="midnightblue" stroke="midnightblue" points="959.955,-200.398 967.548,-193.009 957.004,-194.051 959.955,-200.398"/>
</g>
<!-- Node29&#45;&gt;Node5 -->
<g id="edge32" class="edge"><title>Node29&#45;&gt;Node5</title>
<path fill="none" stroke="midnightblue" d="M1245.58,-112.083C1240.21,-104.455 1232.34,-93.2645 1225.77,-83.9408"/>
<polygon fill="midnightblue" stroke="midnightblue" points="1228.63,-81.9149 1220.01,-75.7511 1222.9,-85.9434 1228.63,-81.9149"/>
</g>
<!-- Node30&#45;&gt;Node3 -->
<g id="edge38" class="edge"><title>Node30&#45;&gt;Node3</title>
<path fill="none" stroke="midnightblue" d="M675.175,-352.568C673.744,-338.469 669.433,-310.641 656.853,-291 648.959,-278.675 636.609,-268.021 625.711,-260.178"/>
<polygon fill="midnightblue" stroke="midnightblue" points="627.63,-257.25 617.395,-254.512 623.688,-263.035 627.63,-257.25"/>
</g>
<!-- Node30&#45;&gt;Node22 -->
<g id="edge34" class="edge"><title>Node30&#45;&gt;Node22</title>
<path fill="none" stroke="midnightblue" d="M760.928,-352.997C829.187,-344.866 918.45,-330.889 948.853,-311 966.087,-299.726 978.307,-279.111 985.427,-264.112"/>
<polygon fill="midnightblue" stroke="midnightblue" points="988.697,-265.371 989.54,-254.81 982.295,-262.54 988.697,-265.371"/>
</g>
<!-- Node31 -->
<g id="node31" class="node"><title>Node31</title>
<g id="a_node31"><a xlink:href="IndexedObject_8hpp.html" target="_top" xlink:title="Core/Index/IndexedObject.hpp">
<polygon fill="white" stroke="black" points="779.853,-291.5 779.853,-310.5 939.853,-310.5 939.853,-291.5 779.853,-291.5"/>
<text text-anchor="middle" x="859.853" y="-298.5" font-family="Helvetica,sans-Serif" font-size="10.00">Core/Index/IndexedObject.hpp</text>
</a>
</g>
</g>
<!-- Node30&#45;&gt;Node31 -->
<g id="edge35" class="edge"><title>Node30&#45;&gt;Node31</title>
<path fill="none" stroke="midnightblue" d="M702.216,-352.975C734.188,-342.636 788.229,-325.161 823.975,-313.602"/>
<polygon fill="midnightblue" stroke="midnightblue" points="825.101,-316.916 833.539,-310.509 822.947,-310.256 825.101,-316.916"/>
</g>
<!-- Node32 -->
<g id="node32" class="node"><title>Node32</title>
<g id="a_node32"><a xlink:href="Ray_8hpp.html" target="_top" xlink:title="Core/Math/Ray.hpp">
<polygon fill="white" stroke="black" points="541.853,-291.5 541.853,-310.5 647.853,-310.5 647.853,-291.5 541.853,-291.5"/>
<text text-anchor="middle" x="594.853" y="-298.5" font-family="Helvetica,sans-Serif" font-size="10.00">Core/Math/Ray.hpp</text>
</a>
</g>
</g>
<!-- Node30&#45;&gt;Node32 -->
<g id="edge39" class="edge"><title>Node30&#45;&gt;Node32</title>
<path fill="none" stroke="midnightblue" d="M664.248,-352.975C651.376,-343.52 630.379,-328.096 614.847,-316.687"/>
<polygon fill="midnightblue" stroke="midnightblue" points="616.568,-313.608 606.437,-310.509 612.424,-319.25 616.568,-313.608"/>
</g>
<!-- Node33 -->
<g id="node33" class="node"><title>Node33</title>
<g id="a_node33"><a xlink:href="Component_8inl.html" target="_top" xlink:title="Engine/Component/Component.inl">
<polygon fill="white" stroke="black" points="342.353,-291.5 342.353,-310.5 523.353,-310.5 523.353,-291.5 342.353,-291.5"/>
<text text-anchor="middle" x="432.853" y="-298.5" font-family="Helvetica,sans-Serif" font-size="10.00">Engine/Component/Component.inl</text>
</a>
</g>
</g>
<!-- Node30&#45;&gt;Node33 -->
<g id="edge43" class="edge"><title>Node30&#45;&gt;Node33</title>
<path fill="none" stroke="midnightblue" d="M636.136,-352.975C590.897,-342.459 517.641,-324.562 472.454,-313.014"/>
<polygon fill="midnightblue" stroke="midnightblue" points="473.264,-309.609 462.707,-310.509 471.521,-316.388 473.264,-309.609"/>
</g>
<!-- Node31&#45;&gt;Node4 -->
<g id="edge37" class="edge"><title>Node31&#45;&gt;Node4</title>
<path fill="none" stroke="midnightblue" d="M840.393,-291.421C824.949,-283.773 803.72,-271.276 789.853,-255 762.489,-222.882 780.315,-199.149 751.853,-168 738.759,-153.67 720.014,-142.91 703.75,-135.512"/>
<polygon fill="midnightblue" stroke="midnightblue" points="705.092,-132.279 694.523,-131.543 702.326,-138.709 705.092,-132.279"/>
</g>
<!-- Node31&#45;&gt;Node23 -->
<g id="edge36" class="edge"><title>Node31&#45;&gt;Node23</title>
<path fill="none" stroke="midnightblue" d="M859.523,-291.083C859.261,-284.006 858.885,-273.861 858.556,-264.986"/>
<polygon fill="midnightblue" stroke="midnightblue" points="862.045,-264.615 858.177,-254.751 855.05,-264.874 862.045,-264.615"/>
</g>
<!-- Node32&#45;&gt;Node3 -->
<g id="edge41" class="edge"><title>Node32&#45;&gt;Node3</title>
<path fill="none" stroke="midnightblue" d="M596.174,-291.083C597.234,-283.927 598.759,-273.635 600.084,-264.691"/>
<polygon fill="midnightblue" stroke="midnightblue" points="603.553,-265.156 601.556,-254.751 596.629,-264.13 603.553,-265.156"/>
</g>
<!-- Node32&#45;&gt;Node4 -->
<g id="edge40" class="edge"><title>Node32&#45;&gt;Node4</title>
<path fill="none" stroke="midnightblue" d="M541.575,-292.325C468.331,-281.724 340.326,-263.004 293.853,-255 165.777,-232.942 89.4825,-299.311 6.85292,-199 -1.90703,-188.366 -2.55379,-178.067 6.85292,-168 47.5899,-124.404 455.436,-121.882 610.474,-122.519"/>
<polygon fill="midnightblue" stroke="midnightblue" points="610.736,-126.02 620.753,-122.568 610.769,-119.02 610.736,-126.02"/>
</g>
<!-- Node32&#45;&gt;Node12 -->
<g id="edge42" class="edge"><title>Node32&#45;&gt;Node12</title>
<path fill="none" stroke="midnightblue" d="M555.301,-291.413C459.869,-270.694 217.135,-217.995 112.307,-195.237"/>
<polygon fill="midnightblue" stroke="midnightblue" points="112.819,-191.766 102.304,-193.065 111.333,-198.607 112.819,-191.766"/>
</g>
<!-- Node33&#45;&gt;Node30 -->
<g id="edge44" class="edge"><title>Node33&#45;&gt;Node30</title>
<path fill="none" stroke="midnightblue" d="M472.501,-310.509C517.713,-321.017 590.969,-338.915 636.184,-350.468"/>
<polygon fill="midnightblue" stroke="midnightblue" points="635.381,-353.876 645.938,-352.975 637.123,-347.096 635.381,-353.876"/>
</g>
<!-- Node34&#45;&gt;Node3 -->
<g id="edge52" class="edge"><title>Node34&#45;&gt;Node3</title>
<path fill="none" stroke="midnightblue" d="M1257.36,-352.928C1245.92,-350.737 1233.43,-348.562 1221.85,-347 1022.58,-320.118 965.305,-362.209 770.853,-311 750.471,-305.632 747.344,-299.022 727.853,-291 698.102,-278.755 663.663,-266.494 638.476,-257.87"/>
<polygon fill="midnightblue" stroke="midnightblue" points="639.561,-254.543 628.967,-254.637 637.308,-261.17 639.561,-254.543"/>
</g>
<!-- Node34&#45;&gt;Node10 -->
<g id="edge49" class="edge"><title>Node34&#45;&gt;Node10</title>
<path fill="none" stroke="midnightblue" d="M1362,-356.731C1430,-350.39 1531.46,-336.841 1559.85,-311 1582.11,-290.741 1578.85,-276.098 1578.85,-246 1578.85,-246 1578.85,-246 1578.85,-121 1578.85,-79.7307 1541.04,-44.3249 1516.16,-25.4905"/>
<polygon fill="midnightblue" stroke="midnightblue" points="1518.12,-22.5916 1507.98,-19.5372 1514,-28.2514 1518.12,-22.5916"/>
</g>
<!-- Node34&#45;&gt;Node22 -->
<g id="edge46" class="edge"><title>Node34&#45;&gt;Node22</title>
<path fill="none" stroke="midnightblue" d="M1254.38,-352.972C1184.69,-339.252 1055.28,-313.547 1050.85,-311 1030.66,-299.385 1013.77,-278.216 1003.52,-263.194"/>
<polygon fill="midnightblue" stroke="midnightblue" points="1006.42,-261.236 998.021,-254.776 1000.56,-265.063 1006.42,-261.236"/>
</g>
<!-- Node34&#45;&gt;Node26 -->
<g id="edge48" class="edge"><title>Node34&#45;&gt;Node26</title>
<path fill="none" stroke="midnightblue" d="M1298.91,-352.819C1301.16,-334.257 1306.48,-290.339 1309.55,-264.973"/>
<polygon fill="midnightblue" stroke="midnightblue" points="1313.06,-265.131 1310.79,-254.782 1306.11,-264.288 1313.06,-265.131"/>
</g>
<!-- Node34&#45;&gt;Node27 -->
<g id="edge50" class="edge"><title>Node34&#45;&gt;Node27</title>
<path fill="none" stroke="midnightblue" d="M1303.72,-352.819C1316.53,-333.839 1347.25,-288.348 1364.18,-263.288"/>
<polygon fill="midnightblue" stroke="midnightblue" points="1367.23,-265.028 1369.92,-254.782 1361.43,-261.11 1367.23,-265.028"/>
</g>
<!-- Node34&#45;&gt;Node31 -->
<g id="edge51" class="edge"><title>Node34&#45;&gt;Node31</title>
<path fill="none" stroke="midnightblue" d="M1255.73,-352.959C1244.73,-350.867 1232.87,-348.733 1221.85,-347 1129.54,-332.472 1023.37,-319.741 949.995,-311.562"/>
<polygon fill="midnightblue" stroke="midnightblue" points="950.189,-308.062 939.864,-310.439 949.417,-315.02 950.189,-308.062"/>
</g>
<!-- Node34&#45;&gt;Node32 -->
<g id="edge53" class="edge"><title>Node34&#45;&gt;Node32</title>
<path fill="none" stroke="midnightblue" d="M1257.76,-352.943C1246.22,-350.726 1233.57,-348.533 1221.85,-347 1167.07,-339.833 806.586,-315.844 658.349,-306.133"/>
<polygon fill="midnightblue" stroke="midnightblue" points="658.257,-302.62 648.05,-305.459 657.8,-309.605 658.257,-302.62"/>
</g>
<!-- Node35 -->
<g id="node35" class="node"><title>Node35</title>
<polygon fill="white" stroke="#bfbfbf" points="1364.35,-291.5 1364.35,-310.5 1411.35,-310.5 1411.35,-291.5 1364.35,-291.5"/>
<text text-anchor="middle" x="1387.85" y="-298.5" font-family="Helvetica,sans-Serif" font-size="10.00">mutex</text>
</g>
<!-- Node34&#45;&gt;Node35 -->
<g id="edge47" class="edge"><title>Node34&#45;&gt;Node35</title>
<path fill="none" stroke="midnightblue" d="M1310.75,-352.975C1325.32,-343.343 1349.26,-327.517 1366.6,-316.052"/>
<polygon fill="midnightblue" stroke="midnightblue" points="1368.57,-318.944 1374.98,-310.509 1364.71,-313.104 1368.57,-318.944"/>
</g>
<!-- Node36 -->
<g id="node36" class="node"><title>Node36</title>
<g id="a_node36"><a xlink:href="Entity_8inl.html" target="_top" xlink:title="Engine/Entity/Entity.inl">
<polygon fill="white" stroke="black" points="1429.35,-291.5 1429.35,-310.5 1550.35,-310.5 1550.35,-291.5 1429.35,-291.5"/>
<text text-anchor="middle" x="1489.85" y="-298.5" font-family="Helvetica,sans-Serif" font-size="10.00">Engine/Entity/Entity.inl</text>
</a>
</g>
</g>
<!-- Node34&#45;&gt;Node36 -->
<g id="edge54" class="edge"><title>Node34&#45;&gt;Node36</title>
<path fill="none" stroke="midnightblue" d="M1320.46,-352.975C1351.77,-342.57 1408.49,-324.937 1447.69,-313.38"/>
<polygon fill="midnightblue" stroke="midnightblue" points="1448.88,-316.677 1457.5,-310.509 1446.92,-309.959 1448.88,-316.677"/>
</g>
<!-- Node36&#45;&gt;Node34 -->
<g id="edge55" class="edge"><title>Node36&#45;&gt;Node34</title>
<path fill="none" stroke="midnightblue" d="M1467.29,-310.509C1436.01,-320.907 1379.3,-338.54 1340.08,-350.102"/>
<polygon fill="midnightblue" stroke="midnightblue" points="1338.88,-346.807 1330.26,-352.975 1340.84,-353.525 1338.88,-346.807"/>
</g>
</g>
</svg>
