<?xml version="1.0" encoding="UTF-8" standalone="no"?>
<!DOCTYPE svg PUBLIC "-//W3C//DTD SVG 1.1//EN"
 "http://www.w3.org/Graphics/SVG/1.1/DTD/svg11.dtd">
<!-- Generated by graphviz version 2.38.0 (20140413.2041)
 -->
<!-- Title: /home/travis/build/STORM&#45;IRIT/Radium&#45;Engine/src/GuiBase/TreeModel/TreeModel.cpp Pages: 1 -->
<svg width="729pt" height="330pt"
 viewBox="0.00 0.00 728.50 330.00" xmlns="http://www.w3.org/2000/svg" xmlns:xlink="http://www.w3.org/1999/xlink">
<g id="graph0" class="graph" transform="scale(1 1) rotate(0) translate(4 326)">
<title>/home/travis/build/STORM&#45;IRIT/Radium&#45;Engine/src/GuiBase/TreeModel/TreeModel.cpp</title>
<polygon fill="white" stroke="none" points="-4,4 -4,-326 724.5,-326 724.5,4 -4,4"/>
<!-- Node1 -->
<g id="node1" class="node"><title>Node1</title>
<polygon fill="#bfbfbf" stroke="black" points="343,-280.5 343,-321.5 542,-321.5 542,-280.5 343,-280.5"/>
<text text-anchor="start" x="351" y="-309.5" font-family="Helvetica,sans-Serif" font-size="10.00">/home/travis/build</text>
<text text-anchor="start" x="351" y="-298.5" font-family="Helvetica,sans-Serif" font-size="10.00">/STORM&#45;IRIT/Radium&#45;Engine</text>
<text text-anchor="middle" x="442.5" y="-287.5" font-family="Helvetica,sans-Serif" font-size="10.00">/src/GuiBase/TreeModel/TreeModel.cpp</text>
</g>
<!-- Node2 -->
<g id="node2" class="node"><title>Node2</title>
<g id="a_node2"><a xlink:href="TreeModel_8hpp.html" target="_top" xlink:title="GuiBase/TreeModel/TreeModel.hpp">
<polygon fill="white" stroke="black" points="117,-168.5 117,-187.5 296,-187.5 296,-168.5 117,-168.5"/>
<text text-anchor="middle" x="206.5" y="-175.5" font-family="Helvetica,sans-Serif" font-size="10.00">GuiBase/TreeModel/TreeModel.hpp</text>
</a>
</g>
</g>
<!-- Node1&#45;&gt;Node2 -->
<g id="edge1" class="edge"><title>Node1&#45;&gt;Node2</title>
<path fill="none" stroke="midnightblue" d="M404.32,-280.425C355.909,-255.604 273.754,-213.482 232.202,-192.178"/>
<polygon fill="midnightblue" stroke="midnightblue" points="233.761,-189.044 223.266,-187.596 230.567,-195.273 233.761,-189.044"/>
</g>
<!-- Node14 -->
<g id="node14" class="node"><title>Node14</title>
<g id="a_node14"><a xlink:href="Log_8hpp.html" target="_top" xlink:title="Core/Log/Log.hpp">
<polygon fill="white" stroke="black" points="392,-224.5 392,-243.5 493,-243.5 493,-224.5 392,-224.5"/>
<text text-anchor="middle" x="442.5" y="-231.5" font-family="Helvetica,sans-Serif" font-size="10.00">Core/Log/Log.hpp</text>
</a>
</g>
</g>
<!-- Node1&#45;&gt;Node14 -->
<g id="edge13" class="edge"><title>Node1&#45;&gt;Node14</title>
<path fill="none" stroke="midnightblue" d="M442.5,-280.498C442.5,-272.065 442.5,-262.235 442.5,-253.874"/>
<polygon fill="midnightblue" stroke="midnightblue" points="446,-253.652 442.5,-243.652 439,-253.653 446,-253.652"/>
</g>
<!-- Node20 -->
<g id="node20" class="node"><title>Node20</title>
<polygon fill="white" stroke="#bfbfbf" points="511.5,-224.5 511.5,-243.5 553.5,-243.5 553.5,-224.5 511.5,-224.5"/>
<text text-anchor="middle" x="532.5" y="-231.5" font-family="Helvetica,sans-Serif" font-size="10.00">stack</text>
</g>
<!-- Node1&#45;&gt;Node20 -->
<g id="edge24" class="edge"><title>Node1&#45;&gt;Node20</title>
<path fill="none" stroke="midnightblue" d="M469.503,-280.498C483.169,-270.628 499.486,-258.843 512.09,-249.741"/>
<polygon fill="midnightblue" stroke="midnightblue" points="514.462,-252.345 520.52,-243.652 510.364,-246.67 514.462,-252.345"/>
</g>
<!-- Node3 -->
<g id="node3" class="node"><title>Node3</title>
<g id="a_node3"><a xlink:href="RaGuiBase_8hpp.html" target="_top" xlink:title="GuiBase/RaGuiBase.hpp">
<polygon fill="white" stroke="black" points="283.5,-112.5 283.5,-131.5 415.5,-131.5 415.5,-112.5 283.5,-112.5"/>
<text text-anchor="middle" x="349.5" y="-119.5" font-family="Helvetica,sans-Serif" font-size="10.00">GuiBase/RaGuiBase.hpp</text>
</a>
</g>
</g>
<!-- Node2&#45;&gt;Node3 -->
<g id="edge2" class="edge"><title>Node2&#45;&gt;Node3</title>
<path fill="none" stroke="midnightblue" d="M229.159,-168.444C252.902,-159.478 290.409,-145.314 317.238,-135.183"/>
<polygon fill="midnightblue" stroke="midnightblue" points="318.829,-138.324 326.947,-131.516 316.356,-131.775 318.829,-138.324"/>
</g>
<!-- Node10 -->
<g id="node10" class="node"><title>Node10</title>
<polygon fill="white" stroke="#bfbfbf" points="0,-112.5 0,-131.5 57,-131.5 57,-112.5 0,-112.5"/>
<text text-anchor="middle" x="28.5" y="-119.5" font-family="Helvetica,sans-Serif" font-size="10.00">memory</text>
</g>
<!-- Node2&#45;&gt;Node10 -->
<g id="edge9" class="edge"><title>Node2&#45;&gt;Node10</title>
<path fill="none" stroke="midnightblue" d="M178.295,-168.444C148.09,-159.28 99.9886,-144.688 66.4707,-134.519"/>
<polygon fill="midnightblue" stroke="midnightblue" points="67.1581,-131.07 56.5727,-131.516 65.1259,-137.769 67.1581,-131.07"/>
</g>
<!-- Node11 -->
<g id="node11" class="node"><title>Node11</title>
<polygon fill="white" stroke="#bfbfbf" points="434,-112.5 434,-131.5 481,-131.5 481,-112.5 434,-112.5"/>
<text text-anchor="middle" x="457.5" y="-119.5" font-family="Helvetica,sans-Serif" font-size="10.00">vector</text>
</g>
<!-- Node2&#45;&gt;Node11 -->
<g id="edge10" class="edge"><title>Node2&#45;&gt;Node11</title>
<path fill="none" stroke="midnightblue" d="M252.195,-168.433C294.272,-160.35 358.638,-147.499 423.726,-132.065"/>
<polygon fill="midnightblue" stroke="midnightblue" points="424.841,-135.397 433.753,-129.668 423.213,-128.589 424.841,-135.397"/>
</g>
<!-- Node12 -->
<g id="node12" class="node"><title>Node12</title>
<polygon fill="white" stroke="#bfbfbf" points="75,-112.5 75,-131.5 190,-131.5 190,-112.5 75,-112.5"/>
<text text-anchor="middle" x="132.5" y="-119.5" font-family="Helvetica,sans-Serif" font-size="10.00">QAbstractItemModel</text>
</g>
<!-- Node2&#45;&gt;Node12 -->
<g id="edge11" class="edge"><title>Node2&#45;&gt;Node12</title>
<path fill="none" stroke="midnightblue" d="M194.611,-168.324C183.35,-160.107 166.213,-147.602 152.791,-137.807"/>
<polygon fill="midnightblue" stroke="midnightblue" points="154.747,-134.901 144.606,-131.834 150.62,-140.556 154.747,-134.901"/>
</g>
<!-- Node13 -->
<g id="node13" class="node"><title>Node13</title>
<polygon fill="white" stroke="#bfbfbf" points="207.5,-112.5 207.5,-131.5 265.5,-131.5 265.5,-112.5 207.5,-112.5"/>
<text text-anchor="middle" x="236.5" y="-119.5" font-family="Helvetica,sans-Serif" font-size="10.00">QVariant</text>
</g>
<!-- Node2&#45;&gt;Node13 -->
<g id="edge12" class="edge"><title>Node2&#45;&gt;Node13</title>
<path fill="none" stroke="midnightblue" d="M211.454,-168.083C215.604,-160.613 221.653,-149.724 226.767,-140.52"/>
<polygon fill="midnightblue" stroke="midnightblue" points="229.841,-142.192 231.638,-131.751 223.722,-138.793 229.841,-142.192"/>
</g>
<!-- Node4 -->
<g id="node4" class="node"><title>Node4</title>
<g id="a_node4"><a xlink:href="CoreMacros_8hpp.html" target="_top" xlink:title="Core/CoreMacros.hpp">
<polygon fill="white" stroke="black" points="486.5,-56.5 486.5,-75.5 606.5,-75.5 606.5,-56.5 486.5,-56.5"/>
<text text-anchor="middle" x="546.5" y="-63.5" font-family="Helvetica,sans-Serif" font-size="10.00">Core/CoreMacros.hpp</text>
</a>
</g>
</g>
<!-- Node3&#45;&gt;Node4 -->
<g id="edge3" class="edge"><title>Node3&#45;&gt;Node4</title>
<path fill="none" stroke="midnightblue" d="M380.715,-112.444C414.433,-103.201 468.3,-88.4356 505.432,-78.2572"/>
<polygon fill="midnightblue" stroke="midnightblue" points="506.712,-81.5356 515.431,-75.5164 504.861,-74.7846 506.712,-81.5356"/>
</g>
<!-- Node5 -->
<g id="node5" class="node"><title>Node5</title>
<polygon fill="white" stroke="#bfbfbf" points="453.5,-0.5 453.5,-19.5 505.5,-19.5 505.5,-0.5 453.5,-0.5"/>
<text text-anchor="middle" x="479.5" y="-7.5" font-family="Helvetica,sans-Serif" font-size="10.00">cassert</text>
</g>
<!-- Node4&#45;&gt;Node5 -->
<g id="edge4" class="edge"><title>Node4&#45;&gt;Node5</title>
<path fill="none" stroke="midnightblue" d="M535.735,-56.324C525.734,-48.2631 510.613,-36.0765 498.57,-26.3695"/>
<polygon fill="midnightblue" stroke="midnightblue" points="500.443,-23.3841 490.461,-19.8339 496.05,-28.8343 500.443,-23.3841"/>
</g>
<!-- Node6 -->
<g id="node6" class="node"><title>Node6</title>
<polygon fill="white" stroke="#bfbfbf" points="524,-0.5 524,-19.5 569,-19.5 569,-0.5 524,-0.5"/>
<text text-anchor="middle" x="546.5" y="-7.5" font-family="Helvetica,sans-Serif" font-size="10.00">cstdio</text>
</g>
<!-- Node4&#45;&gt;Node6 -->
<g id="edge5" class="edge"><title>Node4&#45;&gt;Node6</title>
<path fill="none" stroke="midnightblue" d="M546.5,-56.083C546.5,-49.0059 546.5,-38.8611 546.5,-29.9865"/>
<polygon fill="midnightblue" stroke="midnightblue" points="550,-29.751 546.5,-19.7511 543,-29.7511 550,-29.751"/>
</g>
<!-- Node7 -->
<g id="node7" class="node"><title>Node7</title>
<polygon fill="white" stroke="#bfbfbf" points="587,-0.5 587,-19.5 646,-19.5 646,-0.5 587,-0.5"/>
<text text-anchor="middle" x="616.5" y="-7.5" font-family="Helvetica,sans-Serif" font-size="10.00">iostream</text>
</g>
<!-- Node4&#45;&gt;Node7 -->
<g id="edge6" class="edge"><title>Node4&#45;&gt;Node7</title>
<path fill="none" stroke="midnightblue" d="M557.747,-56.324C568.297,-48.1849 584.301,-35.8395 596.942,-26.0874"/>
<polygon fill="midnightblue" stroke="midnightblue" points="599.269,-28.7132 605.049,-19.8339 594.993,-23.1707 599.269,-28.7132"/>
</g>
<!-- Node8 -->
<g id="node8" class="node"><title>Node8</title>
<polygon fill="white" stroke="#bfbfbf" points="664.5,-0.5 664.5,-19.5 720.5,-19.5 720.5,-0.5 664.5,-0.5"/>
<text text-anchor="middle" x="692.5" y="-7.5" font-family="Helvetica,sans-Serif" font-size="10.00">sstream</text>
</g>
<!-- Node4&#45;&gt;Node8 -->
<g id="edge7" class="edge"><title>Node4&#45;&gt;Node8</title>
<path fill="none" stroke="midnightblue" d="M569.634,-56.4435C593.982,-47.4381 632.507,-33.1891 659.923,-23.049"/>
<polygon fill="midnightblue" stroke="midnightblue" points="661.309,-26.2681 669.474,-19.5164 658.881,-19.7028 661.309,-26.2681"/>
</g>
<!-- Node9 -->
<g id="node9" class="node"><title>Node9</title>
<polygon fill="white" stroke="#bfbfbf" points="387.5,-0.5 387.5,-19.5 435.5,-19.5 435.5,-0.5 387.5,-0.5"/>
<text text-anchor="middle" x="411.5" y="-7.5" font-family="Helvetica,sans-Serif" font-size="10.00">thread</text>
</g>
<!-- Node4&#45;&gt;Node9 -->
<g id="edge8" class="edge"><title>Node4&#45;&gt;Node9</title>
<path fill="none" stroke="midnightblue" d="M525.109,-56.4435C502.793,-47.5171 467.597,-33.4387 442.292,-23.3168"/>
<polygon fill="midnightblue" stroke="midnightblue" points="443.376,-19.9807 432.791,-19.5164 440.776,-26.4801 443.376,-19.9807"/>
</g>
<!-- Node14&#45;&gt;Node8 -->
<g id="edge16" class="edge"><title>Node14&#45;&gt;Node8</title>
<path fill="none" stroke="midnightblue" d="M493.176,-225.009C552.04,-215.301 642.65,-198.877 654.5,-188 699.42,-146.768 698.08,-66.378 694.797,-29.8596"/>
<polygon fill="midnightblue" stroke="midnightblue" points="698.25,-29.2269 693.719,-19.6498 691.288,-29.9621 698.25,-29.2269"/>
</g>
<!-- Node15 -->
<g id="node15" class="node"><title>Node15</title>
<g id="a_node15"><a xlink:href="RaCore_8hpp.html" target="_top" xlink:title="Core/RaCore.hpp">
<polygon fill="white" stroke="black" points="499.5,-112.5 499.5,-131.5 597.5,-131.5 597.5,-112.5 499.5,-112.5"/>
<text text-anchor="middle" x="548.5" y="-119.5" font-family="Helvetica,sans-Serif" font-size="10.00">Core/RaCore.hpp</text>
</a>
</g>
</g>
<!-- Node14&#45;&gt;Node15 -->
<g id="edge14" class="edge"><title>Node14&#45;&gt;Node15</title>
<path fill="none" stroke="midnightblue" d="M406.464,-224.409C370.086,-214.031 322.109,-194.596 343.5,-168 352.737,-156.516 432.175,-141.574 489.394,-132.132"/>
<polygon fill="midnightblue" stroke="midnightblue" points="490.134,-135.558 499.44,-130.493 489.007,-128.649 490.134,-135.558"/>
</g>
<!-- Node16 -->
<g id="node16" class="node"><title>Node16</title>
<polygon fill="white" stroke="#bfbfbf" points="353,-168.5 353,-187.5 402,-187.5 402,-168.5 353,-168.5"/>
<text text-anchor="middle" x="377.5" y="-175.5" font-family="Helvetica,sans-Serif" font-size="10.00">stdio.h</text>
</g>
<!-- Node14&#45;&gt;Node16 -->
<g id="edge17" class="edge"><title>Node14&#45;&gt;Node16</title>
<path fill="none" stroke="midnightblue" d="M432.057,-224.324C422.354,-216.263 407.685,-204.077 396,-194.369"/>
<polygon fill="midnightblue" stroke="midnightblue" points="398.062,-191.532 388.133,-187.834 393.589,-196.916 398.062,-191.532"/>
</g>
<!-- Node17 -->
<g id="node17" class="node"><title>Node17</title>
<polygon fill="white" stroke="#bfbfbf" points="618.5,-112.5 618.5,-131.5 662.5,-131.5 662.5,-112.5 618.5,-112.5"/>
<text text-anchor="middle" x="640.5" y="-119.5" font-family="Helvetica,sans-Serif" font-size="10.00">string</text>
</g>
<!-- Node14&#45;&gt;Node17 -->
<g id="edge18" class="edge"><title>Node14&#45;&gt;Node17</title>
<path fill="none" stroke="midnightblue" d="M492.869,-224.417C546.864,-214.729 626.145,-198.9 635.5,-188 646.202,-175.53 646.373,-156.298 644.516,-141.984"/>
<polygon fill="midnightblue" stroke="midnightblue" points="647.905,-141.041 642.754,-131.782 641.007,-142.232 647.905,-141.041"/>
</g>
<!-- Node18 -->
<g id="node18" class="node"><title>Node18</title>
<g id="a_node18"><a xlink:href="StringUtils_8hpp.html" target="_top" xlink:title="Core/String/StringUtils.hpp">
<polygon fill="white" stroke="black" points="482.5,-168.5 482.5,-187.5 626.5,-187.5 626.5,-168.5 482.5,-168.5"/>
<text text-anchor="middle" x="554.5" y="-175.5" font-family="Helvetica,sans-Serif" font-size="10.00">Core/String/StringUtils.hpp</text>
</a>
</g>
</g>
<!-- Node14&#45;&gt;Node18 -->
<g id="edge19" class="edge"><title>Node14&#45;&gt;Node18</title>
<path fill="none" stroke="midnightblue" d="M460.495,-224.324C478.538,-215.625 506.547,-202.12 527.303,-192.113"/>
<polygon fill="midnightblue" stroke="midnightblue" points="529.062,-195.15 536.55,-187.655 526.022,-188.845 529.062,-195.15"/>
</g>
<!-- Node19 -->
<g id="node19" class="node"><title>Node19</title>
<polygon fill="white" stroke="#bfbfbf" points="420.5,-168.5 420.5,-187.5 464.5,-187.5 464.5,-168.5 420.5,-168.5"/>
<text text-anchor="middle" x="442.5" y="-175.5" font-family="Helvetica,sans-Serif" font-size="10.00">ctime</text>
</g>
<!-- Node14&#45;&gt;Node19 -->
<g id="edge23" class="edge"><title>Node14&#45;&gt;Node19</title>
<path fill="none" stroke="midnightblue" d="M442.5,-224.083C442.5,-217.006 442.5,-206.861 442.5,-197.986"/>
<polygon fill="midnightblue" stroke="midnightblue" points="446,-197.751 442.5,-187.751 439,-197.751 446,-197.751"/>
</g>
<!-- Node15&#45;&gt;Node4 -->
<g id="edge15" class="edge"><title>Node15&#45;&gt;Node4</title>
<path fill="none" stroke="midnightblue" d="M548.17,-112.083C547.908,-105.006 547.532,-94.8611 547.203,-85.9865"/>
<polygon fill="midnightblue" stroke="midnightblue" points="550.692,-85.6147 546.824,-75.7511 543.697,-85.8738 550.692,-85.6147"/>
</g>
<!-- Node18&#45;&gt;Node11 -->
<g id="edge22" class="edge"><title>Node18&#45;&gt;Node11</title>
<path fill="none" stroke="midnightblue" d="M538.915,-168.324C523.501,-159.743 499.688,-146.486 481.79,-136.522"/>
<polygon fill="midnightblue" stroke="midnightblue" points="483.486,-133.461 473.046,-131.655 480.081,-139.577 483.486,-133.461"/>
</g>
<!-- Node18&#45;&gt;Node15 -->
<g id="edge20" class="edge"><title>Node18&#45;&gt;Node15</title>
<path fill="none" stroke="midnightblue" d="M553.509,-168.083C552.714,-160.927 551.571,-150.635 550.577,-141.691"/>
<polygon fill="midnightblue" stroke="midnightblue" points="554.055,-141.303 549.472,-131.751 547.098,-142.076 554.055,-141.303"/>
</g>
<!-- Node18&#45;&gt;Node17 -->
<g id="edge21" class="edge"><title>Node18&#45;&gt;Node17</title>
<path fill="none" stroke="midnightblue" d="M568.317,-168.324C581.733,-159.9 602.324,-146.971 618.086,-137.074"/>
<polygon fill="midnightblue" stroke="midnightblue" points="620.109,-139.936 626.717,-131.655 616.387,-134.008 620.109,-139.936"/>
</g>
</g>
</svg>
