<?xml version="1.0" encoding="UTF-8" standalone="no"?>
<!DOCTYPE svg PUBLIC "-//W3C//DTD SVG 1.1//EN"
 "http://www.w3.org/Graphics/SVG/1.1/DTD/svg11.dtd">
<!-- Generated by graphviz version 2.38.0 (20140413.2041)
 -->
<!-- Title: /home/travis/build/STORM&#45;IRIT/Radium&#45;Engine/src/Core/Mesh/TriangleMesh.inl Pages: 1 -->
<svg width="1946pt" height="509pt"
 viewBox="0.00 0.00 1945.50 509.00" xmlns="http://www.w3.org/2000/svg" xmlns:xlink="http://www.w3.org/1999/xlink">
<g id="graph0" class="graph" transform="scale(1 1) rotate(0) translate(4 505)">
<title>/home/travis/build/STORM&#45;IRIT/Radium&#45;Engine/src/Core/Mesh/TriangleMesh.inl</title>
<polygon fill="white" stroke="none" points="-4,4 -4,-505 1941.5,-505 1941.5,4 -4,4"/>
<!-- Node1 -->
<g id="node1" class="node"><title>Node1</title>
<polygon fill="#bfbfbf" stroke="black" points="1068.5,-459.5 1068.5,-500.5 1234.5,-500.5 1234.5,-459.5 1068.5,-459.5"/>
<text text-anchor="start" x="1076.5" y="-488.5" font-family="Helvetica,sans-Serif" font-size="10.00">/home/travis/build</text>
<text text-anchor="start" x="1076.5" y="-477.5" font-family="Helvetica,sans-Serif" font-size="10.00">/STORM&#45;IRIT/Radium&#45;Engine</text>
<text text-anchor="middle" x="1151.5" y="-466.5" font-family="Helvetica,sans-Serif" font-size="10.00">/src/Core/Mesh/TriangleMesh.inl</text>
</g>
<!-- Node2 -->
<g id="node2" class="node"><title>Node2</title>
<g id="a_node2"><a xlink:href="TriangleMesh_8hpp.html" target="_top" xlink:title="TriangleMesh.hpp">
<polygon fill="white" stroke="black" points="1102,-403.5 1102,-422.5 1201,-422.5 1201,-403.5 1102,-403.5"/>
<text text-anchor="middle" x="1151.5" y="-410.5" font-family="Helvetica,sans-Serif" font-size="10.00">TriangleMesh.hpp</text>
</a>
</g>
</g>
<!-- Node1&#45;&gt;Node2 -->
<g id="edge1" class="edge"><title>Node1&#45;&gt;Node2</title>
<path fill="none" stroke="midnightblue" d="M1145.25,-459.498C1144.56,-450.969 1144.58,-441.011 1145.33,-432.59"/>
<polygon fill="midnightblue" stroke="midnightblue" points="1148.8,-433.044 1146.74,-422.652 1141.87,-432.065 1148.8,-433.044"/>
</g>
<!-- Node2&#45;&gt;Node1 -->
<g id="edge58" class="edge"><title>Node2&#45;&gt;Node1</title>
<path fill="none" stroke="midnightblue" d="M1156.26,-422.652C1157.73,-429.524 1158.38,-439.559 1158.23,-449.263"/>
<polygon fill="midnightblue" stroke="midnightblue" points="1154.72,-449.344 1157.75,-459.498 1161.71,-449.674 1154.72,-449.344"/>
</g>
<!-- Node3 -->
<g id="node3" class="node"><title>Node3</title>
<g id="a_node3"><a xlink:href="VectorArray_8hpp.html" target="_top" xlink:title="Core/Containers/VectorArray.hpp">
<polygon fill="white" stroke="black" points="889,-291.5 889,-310.5 1062,-310.5 1062,-291.5 889,-291.5"/>
<text text-anchor="middle" x="975.5" y="-298.5" font-family="Helvetica,sans-Serif" font-size="10.00">Core/Containers/VectorArray.hpp</text>
</a>
</g>
</g>
<!-- Node2&#45;&gt;Node3 -->
<g id="edge2" class="edge"><title>Node2&#45;&gt;Node3</title>
<path fill="none" stroke="midnightblue" d="M1137.69,-403.368C1107.36,-384.412 1034.7,-339.001 997.808,-315.942"/>
<polygon fill="midnightblue" stroke="midnightblue" points="999.581,-312.923 989.246,-310.591 995.871,-318.859 999.581,-312.923"/>
</g>
<!-- Node5 -->
<g id="node5" class="node"><title>Node5</title>
<g id="a_node5"><a xlink:href="RaCore_8hpp.html" target="_top" xlink:title="Core/RaCore.hpp">
<polygon fill="white" stroke="black" points="1180.5,-112.5 1180.5,-131.5 1278.5,-131.5 1278.5,-112.5 1180.5,-112.5"/>
<text text-anchor="middle" x="1229.5" y="-119.5" font-family="Helvetica,sans-Serif" font-size="10.00">Core/RaCore.hpp</text>
</a>
</g>
</g>
<!-- Node2&#45;&gt;Node5 -->
<g id="edge36" class="edge"><title>Node2&#45;&gt;Node5</title>
<path fill="none" stroke="midnightblue" d="M1201.26,-410.301C1374.04,-403.75 1937.5,-376.664 1937.5,-302 1937.5,-302 1937.5,-302 1937.5,-244 1937.5,-189.929 1892.83,-187.755 1842.5,-168 1742.78,-128.863 1422.44,-123.435 1288.86,-122.915"/>
<polygon fill="midnightblue" stroke="midnightblue" points="1288.82,-119.415 1278.81,-122.884 1288.8,-126.415 1288.82,-119.415"/>
</g>
<!-- Node14 -->
<g id="node14" class="node"><title>Node14</title>
<g id="a_node14"><a xlink:href="LinearAlgebra_8hpp.html" target="_top" xlink:title="Core/Math/LinearAlgebra.hpp">
<polygon fill="white" stroke="black" points="683.5,-235.5 683.5,-254.5 839.5,-254.5 839.5,-235.5 683.5,-235.5"/>
<text text-anchor="middle" x="761.5" y="-242.5" font-family="Helvetica,sans-Serif" font-size="10.00">Core/Math/LinearAlgebra.hpp</text>
</a>
</g>
</g>
<!-- Node2&#45;&gt;Node14 -->
<g id="edge29" class="edge"><title>Node2&#45;&gt;Node14</title>
<path fill="none" stroke="midnightblue" d="M1124.33,-403.396C1074.76,-387.377 966.744,-350.961 879.5,-311 845.486,-295.42 807.908,-273.932 784.5,-260.002"/>
<polygon fill="midnightblue" stroke="midnightblue" points="786.054,-256.853 775.678,-254.71 782.453,-262.856 786.054,-256.853"/>
</g>
<!-- Node25 -->
<g id="node25" class="node"><title>Node25</title>
<g id="a_node25"><a xlink:href="MeshTypes_8hpp.html" target="_top" xlink:title="Core/Mesh/MeshTypes.hpp">
<polygon fill="white" stroke="black" points="1080,-291.5 1080,-310.5 1223,-310.5 1223,-291.5 1080,-291.5"/>
<text text-anchor="middle" x="1151.5" y="-298.5" font-family="Helvetica,sans-Serif" font-size="10.00">Core/Mesh/MeshTypes.hpp</text>
</a>
</g>
</g>
<!-- Node2&#45;&gt;Node25 -->
<g id="edge30" class="edge"><title>Node2&#45;&gt;Node25</title>
<path fill="none" stroke="midnightblue" d="M1151.5,-403.368C1151.5,-385.617 1151.5,-344.666 1151.5,-320.597"/>
<polygon fill="midnightblue" stroke="midnightblue" points="1155,-320.591 1151.5,-310.591 1148,-320.591 1155,-320.591"/>
</g>
<!-- Node29 -->
<g id="node29" class="node"><title>Node29</title>
<g id="a_node29"><a xlink:href="Attribs_8hpp.html" target="_top" xlink:title="Core/Utils/Attribs.hpp">
<polygon fill="white" stroke="black" points="1192,-347.5 1192,-366.5 1311,-366.5 1311,-347.5 1192,-347.5"/>
<text text-anchor="middle" x="1251.5" y="-354.5" font-family="Helvetica,sans-Serif" font-size="10.00">Core/Utils/Attribs.hpp</text>
</a>
</g>
</g>
<!-- Node2&#45;&gt;Node29 -->
<g id="edge37" class="edge"><title>Node2&#45;&gt;Node29</title>
<path fill="none" stroke="midnightblue" d="M1167.57,-403.324C1183.46,-394.743 1208.01,-381.486 1226.46,-371.522"/>
<polygon fill="midnightblue" stroke="midnightblue" points="1228.34,-374.486 1235.47,-366.655 1225.01,-368.326 1228.34,-374.486"/>
</g>
<!-- Node4 -->
<g id="node4" class="node"><title>Node4</title>
<g id="a_node4"><a xlink:href="AlignedStdVector_8hpp.html" target="_top" xlink:title="Core/Containers/AlignedStd\lVector.hpp">
<polygon fill="white" stroke="black" points="901,-168.5 901,-198.5 1050,-198.5 1050,-168.5 901,-168.5"/>
<text text-anchor="start" x="909" y="-186.5" font-family="Helvetica,sans-Serif" font-size="10.00">Core/Containers/AlignedStd</text>
<text text-anchor="middle" x="975.5" y="-175.5" font-family="Helvetica,sans-Serif" font-size="10.00">Vector.hpp</text>
</a>
</g>
</g>
<!-- Node3&#45;&gt;Node4 -->
<g id="edge3" class="edge"><title>Node3&#45;&gt;Node4</title>
<path fill="none" stroke="midnightblue" d="M975.5,-291.319C975.5,-273.967 975.5,-234.457 975.5,-208.658"/>
<polygon fill="midnightblue" stroke="midnightblue" points="979,-208.545 975.5,-198.545 972,-208.545 979,-208.545"/>
</g>
<!-- Node3&#45;&gt;Node5 -->
<g id="edge27" class="edge"><title>Node3&#45;&gt;Node5</title>
<path fill="none" stroke="midnightblue" d="M987.751,-291.463C1028.23,-263.256 1157.99,-172.831 1208.81,-137.417"/>
<polygon fill="midnightblue" stroke="midnightblue" points="1210.87,-140.248 1217.07,-131.659 1206.87,-134.505 1210.87,-140.248"/>
</g>
<!-- Node13 -->
<g id="node13" class="node"><title>Node13</title>
<polygon fill="white" stroke="#bfbfbf" points="1104,-112.5 1104,-131.5 1151,-131.5 1151,-112.5 1104,-112.5"/>
<text text-anchor="middle" x="1127.5" y="-119.5" font-family="Helvetica,sans-Serif" font-size="10.00">vector</text>
</g>
<!-- Node3&#45;&gt;Node13 -->
<g id="edge28" class="edge"><title>Node3&#45;&gt;Node13</title>
<path fill="none" stroke="midnightblue" d="M982.831,-291.463C1006.55,-263.845 1081.48,-176.584 1113.15,-139.709"/>
<polygon fill="midnightblue" stroke="midnightblue" points="1116.02,-141.735 1119.88,-131.868 1110.71,-137.175 1116.02,-141.735"/>
</g>
<!-- Node3&#45;&gt;Node14 -->
<g id="edge13" class="edge"><title>Node3&#45;&gt;Node14</title>
<path fill="none" stroke="midnightblue" d="M941.591,-291.444C904.651,-282.122 845.446,-267.183 805.082,-256.997"/>
<polygon fill="midnightblue" stroke="midnightblue" points="805.803,-253.57 795.25,-254.516 804.09,-260.357 805.803,-253.57"/>
</g>
<!-- Node4&#45;&gt;Node5 -->
<g id="edge4" class="edge"><title>Node4&#45;&gt;Node5</title>
<path fill="none" stroke="midnightblue" d="M1035.37,-168.475C1080.63,-157.874 1141.84,-143.534 1183.34,-133.812"/>
<polygon fill="midnightblue" stroke="midnightblue" points="1184.25,-137.195 1193.19,-131.506 1182.65,-130.379 1184.25,-137.195"/>
</g>
<!-- Node12 -->
<g id="node12" class="node"><title>Node12</title>
<polygon fill="white" stroke="#bfbfbf" points="913,-112.5 913,-131.5 1006,-131.5 1006,-112.5 913,-112.5"/>
<text text-anchor="middle" x="959.5" y="-119.5" font-family="Helvetica,sans-Serif" font-size="10.00">Eigen/StdVector</text>
</g>
<!-- Node4&#45;&gt;Node12 -->
<g id="edge11" class="edge"><title>Node4&#45;&gt;Node12</title>
<path fill="none" stroke="midnightblue" d="M971.708,-168.399C969.551,-160.377 966.823,-150.233 964.493,-141.569"/>
<polygon fill="midnightblue" stroke="midnightblue" points="967.805,-140.406 961.828,-131.658 961.045,-142.224 967.805,-140.406"/>
</g>
<!-- Node4&#45;&gt;Node13 -->
<g id="edge12" class="edge"><title>Node4&#45;&gt;Node13</title>
<path fill="none" stroke="midnightblue" d="M1011.52,-168.399C1037.14,-158.372 1071.23,-145.028 1095.81,-135.405"/>
<polygon fill="midnightblue" stroke="midnightblue" points="1097.35,-138.562 1105.38,-131.658 1094.79,-132.044 1097.35,-138.562"/>
</g>
<!-- Node6 -->
<g id="node6" class="node"><title>Node6</title>
<g id="a_node6"><a xlink:href="CoreMacros_8hpp.html" target="_top" xlink:title="Core/CoreMacros.hpp">
<polygon fill="white" stroke="black" points="1397.5,-56.5 1397.5,-75.5 1517.5,-75.5 1517.5,-56.5 1397.5,-56.5"/>
<text text-anchor="middle" x="1457.5" y="-63.5" font-family="Helvetica,sans-Serif" font-size="10.00">Core/CoreMacros.hpp</text>
</a>
</g>
</g>
<!-- Node5&#45;&gt;Node6 -->
<g id="edge5" class="edge"><title>Node5&#45;&gt;Node6</title>
<path fill="none" stroke="midnightblue" d="M1265.63,-112.444C1305.15,-103.083 1368.6,-88.0561 1411.61,-77.868"/>
<polygon fill="midnightblue" stroke="midnightblue" points="1412.62,-81.2269 1421.54,-75.5164 1411,-74.4154 1412.62,-81.2269"/>
</g>
<!-- Node7 -->
<g id="node7" class="node"><title>Node7</title>
<polygon fill="white" stroke="#bfbfbf" points="1398.5,-0.5 1398.5,-19.5 1450.5,-19.5 1450.5,-0.5 1398.5,-0.5"/>
<text text-anchor="middle" x="1424.5" y="-7.5" font-family="Helvetica,sans-Serif" font-size="10.00">cassert</text>
</g>
<!-- Node6&#45;&gt;Node7 -->
<g id="edge6" class="edge"><title>Node6&#45;&gt;Node7</title>
<path fill="none" stroke="midnightblue" d="M1452.05,-56.083C1447.49,-48.6127 1440.83,-37.7244 1435.21,-28.5199"/>
<polygon fill="midnightblue" stroke="midnightblue" points="1438.05,-26.4588 1429.85,-19.7511 1432.08,-30.109 1438.05,-26.4588"/>
</g>
<!-- Node8 -->
<g id="node8" class="node"><title>Node8</title>
<polygon fill="white" stroke="#bfbfbf" points="1469,-0.5 1469,-19.5 1514,-19.5 1514,-0.5 1469,-0.5"/>
<text text-anchor="middle" x="1491.5" y="-7.5" font-family="Helvetica,sans-Serif" font-size="10.00">cstdio</text>
</g>
<!-- Node6&#45;&gt;Node8 -->
<g id="edge7" class="edge"><title>Node6&#45;&gt;Node8</title>
<path fill="none" stroke="midnightblue" d="M1463.11,-56.083C1467.87,-48.5341 1474.82,-37.4948 1480.65,-28.2298"/>
<polygon fill="midnightblue" stroke="midnightblue" points="1483.62,-30.0783 1485.99,-19.7511 1477.7,-26.3486 1483.62,-30.0783"/>
</g>
<!-- Node9 -->
<g id="node9" class="node"><title>Node9</title>
<polygon fill="white" stroke="#bfbfbf" points="1532,-0.5 1532,-19.5 1591,-19.5 1591,-0.5 1532,-0.5"/>
<text text-anchor="middle" x="1561.5" y="-7.5" font-family="Helvetica,sans-Serif" font-size="10.00">iostream</text>
</g>
<!-- Node6&#45;&gt;Node9 -->
<g id="edge8" class="edge"><title>Node6&#45;&gt;Node9</title>
<path fill="none" stroke="midnightblue" d="M1474.21,-56.324C1490.81,-47.7034 1516.5,-34.3643 1535.72,-24.3855"/>
<polygon fill="midnightblue" stroke="midnightblue" points="1537.57,-27.3689 1544.83,-19.6545 1534.34,-21.1565 1537.57,-27.3689"/>
</g>
<!-- Node10 -->
<g id="node10" class="node"><title>Node10</title>
<polygon fill="white" stroke="#bfbfbf" points="1740.5,-0.5 1740.5,-19.5 1796.5,-19.5 1796.5,-0.5 1740.5,-0.5"/>
<text text-anchor="middle" x="1768.5" y="-7.5" font-family="Helvetica,sans-Serif" font-size="10.00">sstream</text>
</g>
<!-- Node6&#45;&gt;Node10 -->
<g id="edge9" class="edge"><title>Node6&#45;&gt;Node10</title>
<path fill="none" stroke="midnightblue" d="M1506.78,-56.4435C1568.86,-45.6648 1674.2,-27.3741 1730.44,-17.6081"/>
<polygon fill="midnightblue" stroke="midnightblue" points="1731.1,-21.0468 1740.35,-15.8876 1729.9,-14.15 1731.1,-21.0468"/>
</g>
<!-- Node11 -->
<g id="node11" class="node"><title>Node11</title>
<polygon fill="white" stroke="#bfbfbf" points="1332.5,-0.5 1332.5,-19.5 1380.5,-19.5 1380.5,-0.5 1332.5,-0.5"/>
<text text-anchor="middle" x="1356.5" y="-7.5" font-family="Helvetica,sans-Serif" font-size="10.00">thread</text>
</g>
<!-- Node6&#45;&gt;Node11 -->
<g id="edge10" class="edge"><title>Node6&#45;&gt;Node11</title>
<path fill="none" stroke="midnightblue" d="M1441.27,-56.324C1425.15,-47.7034 1400.2,-34.3643 1381.54,-24.3855"/>
<polygon fill="midnightblue" stroke="midnightblue" points="1383.16,-21.283 1372.69,-19.6545 1379.86,-27.456 1383.16,-21.283"/>
</g>
<!-- Node14&#45;&gt;Node5 -->
<g id="edge14" class="edge"><title>Node14&#45;&gt;Node5</title>
<path fill="none" stroke="midnightblue" d="M839.652,-237.919C900.274,-231.83 985.916,-220.21 1058.5,-199 1087.08,-190.648 1162.4,-155.291 1202.88,-135.884"/>
<polygon fill="midnightblue" stroke="midnightblue" points="1204.4,-139.035 1211.9,-131.546 1201.37,-132.726 1204.4,-139.035"/>
</g>
<!-- Node15 -->
<g id="node15" class="node"><title>Node15</title>
<polygon fill="white" stroke="#bfbfbf" points="523.5,-174 523.5,-193 591.5,-193 591.5,-174 523.5,-174"/>
<text text-anchor="middle" x="557.5" y="-181" font-family="Helvetica,sans-Serif" font-size="10.00">Eigen/Core</text>
</g>
<!-- Node14&#45;&gt;Node15 -->
<g id="edge15" class="edge"><title>Node14&#45;&gt;Node15</title>
<path fill="none" stroke="midnightblue" d="M728.974,-235.449C696.35,-226.745 644.739,-212.631 600.5,-199 597.583,-198.101 594.563,-197.142 591.539,-196.162"/>
<polygon fill="midnightblue" stroke="midnightblue" points="592.579,-192.819 581.986,-193.005 590.383,-199.466 592.579,-192.819"/>
</g>
<!-- Node16 -->
<g id="node16" class="node"><title>Node16</title>
<polygon fill="white" stroke="#bfbfbf" points="609.5,-174 609.5,-193 703.5,-193 703.5,-174 609.5,-174"/>
<text text-anchor="middle" x="656.5" y="-181" font-family="Helvetica,sans-Serif" font-size="10.00">Eigen/Geometry</text>
</g>
<!-- Node14&#45;&gt;Node16 -->
<g id="edge16" class="edge"><title>Node14&#45;&gt;Node16</title>
<path fill="none" stroke="midnightblue" d="M746.456,-235.475C729.225,-225.711 700.76,-209.581 680.466,-198.081"/>
<polygon fill="midnightblue" stroke="midnightblue" points="681.942,-194.894 671.516,-193.009 678.491,-200.984 681.942,-194.894"/>
</g>
<!-- Node17 -->
<g id="node17" class="node"><title>Node17</title>
<polygon fill="white" stroke="#bfbfbf" points="721.5,-174 721.5,-193 801.5,-193 801.5,-174 721.5,-174"/>
<text text-anchor="middle" x="761.5" y="-181" font-family="Helvetica,sans-Serif" font-size="10.00">Eigen/Sparse</text>
</g>
<!-- Node14&#45;&gt;Node17 -->
<g id="edge17" class="edge"><title>Node14&#45;&gt;Node17</title>
<path fill="none" stroke="midnightblue" d="M761.5,-235.475C761.5,-227.08 761.5,-213.981 761.5,-203.163"/>
<polygon fill="midnightblue" stroke="midnightblue" points="765,-203.009 761.5,-193.009 758,-203.009 765,-203.009"/>
</g>
<!-- Node18 -->
<g id="node18" class="node"><title>Node18</title>
<polygon fill="white" stroke="#bfbfbf" points="820,-174 820,-193 883,-193 883,-174 820,-174"/>
<text text-anchor="middle" x="851.5" y="-181" font-family="Helvetica,sans-Serif" font-size="10.00">functional</text>
</g>
<!-- Node14&#45;&gt;Node18 -->
<g id="edge18" class="edge"><title>Node14&#45;&gt;Node18</title>
<path fill="none" stroke="midnightblue" d="M774.395,-235.475C788.964,-225.843 812.902,-210.017 830.245,-198.552"/>
<polygon fill="midnightblue" stroke="midnightblue" points="832.217,-201.444 838.629,-193.009 828.357,-195.604 832.217,-201.444"/>
</g>
<!-- Node19 -->
<g id="node19" class="node"><title>Node19</title>
<polygon fill="white" stroke="#bfbfbf" points="194,-168.5 194,-198.5 339,-198.5 339,-168.5 194,-168.5"/>
<text text-anchor="start" x="202" y="-186.5" font-family="Helvetica,sans-Serif" font-size="10.00">unsupported/Eigen/Aligned</text>
<text text-anchor="middle" x="266.5" y="-175.5" font-family="Helvetica,sans-Serif" font-size="10.00">Vector3</text>
</g>
<!-- Node14&#45;&gt;Node19 -->
<g id="edge19" class="edge"><title>Node14&#45;&gt;Node19</title>
<path fill="none" stroke="midnightblue" d="M683.47,-237.134C602.372,-229.632 471.544,-216.503 349.583,-199.245"/>
<polygon fill="midnightblue" stroke="midnightblue" points="349.714,-195.728 339.319,-197.78 348.724,-202.658 349.714,-195.728"/>
</g>
<!-- Node20 -->
<g id="node20" class="node"><title>Node20</title>
<g id="a_node20"><a xlink:href="Math_8hpp.html" target="_top" xlink:title="Core/Math/Math.hpp">
<polygon fill="white" stroke="black" points="61.5,-174 61.5,-193 175.5,-193 175.5,-174 61.5,-174"/>
<text text-anchor="middle" x="118.5" y="-181" font-family="Helvetica,sans-Serif" font-size="10.00">Core/Math/Math.hpp</text>
</a>
</g>
</g>
<!-- Node14&#45;&gt;Node20 -->
<g id="edge20" class="edge"><title>Node14&#45;&gt;Node20</title>
<path fill="none" stroke="midnightblue" d="M683.187,-241.33C571.856,-236.756 361.669,-225.241 184.5,-199 177.561,-197.972 170.262,-196.633 163.151,-195.185"/>
<polygon fill="midnightblue" stroke="midnightblue" points="163.439,-191.668 152.929,-193.008 161.981,-198.514 163.439,-191.668"/>
</g>
<!-- Node24 -->
<g id="node24" class="node"><title>Node24</title>
<g id="a_node24"><a xlink:href="LinearAlgebra_8inl.html" target="_top" xlink:title="Core/Math/LinearAlgebra.inl">
<polygon fill="white" stroke="black" points="357,-174 357,-193 506,-193 506,-174 357,-174"/>
<text text-anchor="middle" x="431.5" y="-181" font-family="Helvetica,sans-Serif" font-size="10.00">Core/Math/LinearAlgebra.inl</text>
</a>
</g>
</g>
<!-- Node14&#45;&gt;Node24 -->
<g id="edge26" class="edge"><title>Node14&#45;&gt;Node24</title>
<path fill="none" stroke="midnightblue" d="M714.219,-235.475C654.672,-224.739 552.442,-206.306 488.598,-194.795"/>
<polygon fill="midnightblue" stroke="midnightblue" points="489.156,-191.339 478.693,-193.009 487.913,-198.228 489.156,-191.339"/>
</g>
<!-- Node20&#45;&gt;Node5 -->
<g id="edge21" class="edge"><title>Node20&#45;&gt;Node5</title>
<path fill="none" stroke="midnightblue" d="M151.873,-173.95C162.258,-171.618 173.793,-169.363 184.5,-168 614.659,-113.256 727.342,-167.685 1159.5,-132 1162.96,-131.714 1166.52,-131.381 1170.1,-131.015"/>
<polygon fill="midnightblue" stroke="midnightblue" points="1170.67,-134.474 1180.23,-129.907 1169.9,-127.516 1170.67,-134.474"/>
</g>
<!-- Node21 -->
<g id="node21" class="node"><title>Node21</title>
<polygon fill="white" stroke="#bfbfbf" points="1023.5,-112.5 1023.5,-131.5 1085.5,-131.5 1085.5,-112.5 1023.5,-112.5"/>
<text text-anchor="middle" x="1054.5" y="-119.5" font-family="Helvetica,sans-Serif" font-size="10.00">algorithm</text>
</g>
<!-- Node20&#45;&gt;Node21 -->
<g id="edge22" class="edge"><title>Node20&#45;&gt;Node21</title>
<path fill="none" stroke="midnightblue" d="M151.878,-173.992C162.264,-171.663 173.798,-169.397 184.5,-168 547.322,-120.638 646.703,-179.634 1013.07,-131.938"/>
<polygon fill="midnightblue" stroke="midnightblue" points="1013.7,-135.386 1023.15,-130.607 1012.78,-128.446 1013.7,-135.386"/>
</g>
<!-- Node22 -->
<g id="node22" class="node"><title>Node22</title>
<polygon fill="white" stroke="#bfbfbf" points="0,-112.5 0,-131.5 47,-131.5 47,-112.5 0,-112.5"/>
<text text-anchor="middle" x="23.5" y="-119.5" font-family="Helvetica,sans-Serif" font-size="10.00">cmath</text>
</g>
<!-- Node20&#45;&gt;Node22 -->
<g id="edge23" class="edge"><title>Node20&#45;&gt;Node22</title>
<path fill="none" stroke="midnightblue" d="M104.889,-173.975C89.4395,-164.299 64.0101,-148.372 45.6839,-136.894"/>
<polygon fill="midnightblue" stroke="midnightblue" points="47.4187,-133.851 37.0859,-131.509 43.7031,-139.783 47.4187,-133.851"/>
</g>
<!-- Node23 -->
<g id="node23" class="node"><title>Node23</title>
<g id="a_node23"><a xlink:href="Math_8inl.html" target="_top" xlink:title="Core/Math/Math.inl">
<polygon fill="white" stroke="black" points="65,-112.5 65,-131.5 172,-131.5 172,-112.5 65,-112.5"/>
<text text-anchor="middle" x="118.5" y="-119.5" font-family="Helvetica,sans-Serif" font-size="10.00">Core/Math/Math.inl</text>
</a>
</g>
</g>
<!-- Node20&#45;&gt;Node23 -->
<g id="edge24" class="edge"><title>Node20&#45;&gt;Node23</title>
<path fill="none" stroke="midnightblue" d="M113.599,-173.975C111.768,-165.58 111.297,-152.481 112.185,-141.663"/>
<polygon fill="midnightblue" stroke="midnightblue" points="115.686,-141.897 113.603,-131.509 108.754,-140.929 115.686,-141.897"/>
</g>
<!-- Node23&#45;&gt;Node20 -->
<g id="edge25" class="edge"><title>Node23&#45;&gt;Node20</title>
<path fill="none" stroke="midnightblue" d="M123.397,-131.509C125.23,-139.898 125.703,-152.996 124.817,-163.817"/>
<polygon fill="midnightblue" stroke="midnightblue" points="121.315,-163.588 123.401,-173.975 128.248,-164.554 121.315,-163.588"/>
</g>
<!-- Node25&#45;&gt;Node5 -->
<g id="edge35" class="edge"><title>Node25&#45;&gt;Node5</title>
<path fill="none" stroke="midnightblue" d="M1155.26,-291.463C1167.28,-264.195 1204.92,-178.783 1221.51,-141.133"/>
<polygon fill="midnightblue" stroke="midnightblue" points="1224.76,-142.431 1225.59,-131.868 1218.36,-139.608 1224.76,-142.431"/>
</g>
<!-- Node25&#45;&gt;Node14 -->
<g id="edge34" class="edge"><title>Node25&#45;&gt;Node14</title>
<path fill="none" stroke="midnightblue" d="M1089.7,-291.444C1019.96,-281.786 906.662,-266.099 833.113,-255.916"/>
<polygon fill="midnightblue" stroke="midnightblue" points="833.393,-252.421 823.008,-254.516 832.433,-259.355 833.393,-252.421"/>
</g>
<!-- Node26 -->
<g id="node26" class="node"><title>Node26</title>
<g id="a_node26"><a xlink:href="Index_8hpp.html" target="_top" xlink:title="Core/Index/Index.hpp">
<polygon fill="white" stroke="black" points="1258,-235.5 1258,-254.5 1375,-254.5 1375,-235.5 1258,-235.5"/>
<text text-anchor="middle" x="1316.5" y="-242.5" font-family="Helvetica,sans-Serif" font-size="10.00">Core/Index/Index.hpp</text>
</a>
</g>
</g>
<!-- Node25&#45;&gt;Node26 -->
<g id="edge31" class="edge"><title>Node25&#45;&gt;Node26</title>
<path fill="none" stroke="midnightblue" d="M1177.64,-291.444C1205.52,-282.32 1249.85,-267.813 1280.9,-257.651"/>
<polygon fill="midnightblue" stroke="midnightblue" points="1282.06,-260.953 1290.48,-254.516 1279.88,-254.3 1282.06,-260.953"/>
</g>
<!-- Node27 -->
<g id="node27" class="node"><title>Node27</title>
<polygon fill="white" stroke="#bfbfbf" points="1257.5,-174 1257.5,-193 1299.5,-193 1299.5,-174 1257.5,-174"/>
<text text-anchor="middle" x="1278.5" y="-181" font-family="Helvetica,sans-Serif" font-size="10.00">limits</text>
</g>
<!-- Node26&#45;&gt;Node27 -->
<g id="edge32" class="edge"><title>Node26&#45;&gt;Node27</title>
<path fill="none" stroke="midnightblue" d="M1311.06,-235.475C1305.41,-226.638 1296.44,-212.589 1289.34,-201.475"/>
<polygon fill="midnightblue" stroke="midnightblue" points="1292.27,-199.553 1283.93,-193.009 1286.37,-203.321 1292.27,-199.553"/>
</g>
<!-- Node28 -->
<g id="node28" class="node"><title>Node28</title>
<g id="a_node28"><a xlink:href="Index_8inl.html" target="_top" xlink:title="Core/Index/Index.inl">
<polygon fill="white" stroke="black" points="1317.5,-174 1317.5,-193 1427.5,-193 1427.5,-174 1317.5,-174"/>
<text text-anchor="middle" x="1372.5" y="-181" font-family="Helvetica,sans-Serif" font-size="10.00">Core/Index/Index.inl</text>
</a>
</g>
</g>
<!-- Node26&#45;&gt;Node28 -->
<g id="edge33" class="edge"><title>Node26&#45;&gt;Node28</title>
<path fill="none" stroke="midnightblue" d="M1324.52,-235.475C1333.09,-226.373 1346.86,-211.741 1357.46,-200.483"/>
<polygon fill="midnightblue" stroke="midnightblue" points="1360.19,-202.69 1364.49,-193.009 1355.09,-197.892 1360.19,-202.69"/>
</g>
<!-- Node29&#45;&gt;Node3 -->
<g id="edge38" class="edge"><title>Node29&#45;&gt;Node3</title>
<path fill="none" stroke="midnightblue" d="M1207.77,-347.444C1159.32,-337.964 1081.17,-322.675 1029.08,-312.483"/>
<polygon fill="midnightblue" stroke="midnightblue" points="1029.51,-309.002 1019.03,-310.516 1028.17,-315.871 1029.51,-309.002"/>
</g>
<!-- Node29&#45;&gt;Node5 -->
<g id="edge57" class="edge"><title>Node29&#45;&gt;Node5</title>
<path fill="none" stroke="midnightblue" d="M1250.69,-347.431C1247.51,-313.754 1235.83,-189.994 1231.3,-142.102"/>
<polygon fill="midnightblue" stroke="midnightblue" points="1234.76,-141.522 1230.34,-131.896 1227.8,-142.181 1234.76,-141.522"/>
</g>
<!-- Node30 -->
<g id="node30" class="node"><title>Node30</title>
<g id="a_node30"><a xlink:href="IndexMap_8hpp.html" target="_top" xlink:title="Core/Index/IndexMap.hpp">
<polygon fill="white" stroke="black" points="1428,-291.5 1428,-310.5 1565,-310.5 1565,-291.5 1428,-291.5"/>
<text text-anchor="middle" x="1496.5" y="-298.5" font-family="Helvetica,sans-Serif" font-size="10.00">Core/Index/IndexMap.hpp</text>
</a>
</g>
</g>
<!-- Node29&#45;&gt;Node30 -->
<g id="edge39" class="edge"><title>Node29&#45;&gt;Node30</title>
<path fill="none" stroke="midnightblue" d="M1290.32,-347.444C1333.06,-338.023 1401.83,-322.866 1448.07,-312.675"/>
<polygon fill="midnightblue" stroke="midnightblue" points="1448.85,-316.087 1457.86,-310.516 1447.34,-309.251 1448.85,-316.087"/>
</g>
<!-- Node34 -->
<g id="node34" class="node"><title>Node34</title>
<g id="a_node34"><a xlink:href="Log_8hpp.html" target="_top" xlink:title="Core/Log/Log.hpp">
<polygon fill="white" stroke="black" points="1757,-235.5 1757,-254.5 1858,-254.5 1858,-235.5 1757,-235.5"/>
<text text-anchor="middle" x="1807.5" y="-242.5" font-family="Helvetica,sans-Serif" font-size="10.00">Core/Log/Log.hpp</text>
</a>
</g>
</g>
<!-- Node29&#45;&gt;Node34 -->
<g id="edge47" class="edge"><title>Node29&#45;&gt;Node34</title>
<path fill="none" stroke="midnightblue" d="M1311.25,-350.04C1376.21,-343.006 1482.86,-329.835 1573.5,-311 1644.5,-296.245 1725.72,-271.977 1771.38,-257.638"/>
<polygon fill="midnightblue" stroke="midnightblue" points="1772.63,-260.914 1781.11,-254.564 1770.52,-254.239 1772.63,-260.914"/>
</g>
<!-- Node30&#45;&gt;Node5 -->
<g id="edge40" class="edge"><title>Node30&#45;&gt;Node5</title>
<path fill="none" stroke="midnightblue" d="M1521.2,-291.331C1547.8,-280.492 1584.55,-260.254 1570.5,-235 1555.75,-208.487 1537.71,-215.881 1512.5,-199 1492.92,-185.891 1491.15,-177.283 1469.5,-168 1410.99,-142.919 1338.55,-131.779 1288.65,-126.854"/>
<polygon fill="midnightblue" stroke="midnightblue" points="1288.95,-123.367 1278.67,-125.922 1288.3,-130.337 1288.95,-123.367"/>
</g>
<!-- Node30&#45;&gt;Node21 -->
<g id="edge41" class="edge"><title>Node30&#45;&gt;Node21</title>
<path fill="none" stroke="midnightblue" d="M1469.57,-291.356C1452.78,-284.411 1432.52,-272.825 1422.5,-255 1403.31,-220.862 1462.7,-197.107 1436.5,-168 1387.32,-113.368 1186.08,-142.01 1096.03,-131.822"/>
<polygon fill="midnightblue" stroke="midnightblue" points="1096.26,-128.321 1085.88,-130.422 1095.3,-135.255 1096.26,-128.321"/>
</g>
<!-- Node30&#45;&gt;Node26 -->
<g id="edge44" class="edge"><title>Node30&#45;&gt;Node26</title>
<path fill="none" stroke="midnightblue" d="M1467.98,-291.444C1437.43,-282.28 1388.79,-267.688 1354.9,-257.519"/>
<polygon fill="midnightblue" stroke="midnightblue" points="1355.47,-254.038 1344.89,-254.516 1353.46,-260.742 1355.47,-254.038"/>
</g>
<!-- Node31 -->
<g id="node31" class="node"><title>Node31</title>
<polygon fill="white" stroke="#bfbfbf" points="1617.5,-235.5 1617.5,-254.5 1673.5,-254.5 1673.5,-235.5 1617.5,-235.5"/>
<text text-anchor="middle" x="1645.5" y="-242.5" font-family="Helvetica,sans-Serif" font-size="10.00">assert.h</text>
</g>
<!-- Node30&#45;&gt;Node31 -->
<g id="edge42" class="edge"><title>Node30&#45;&gt;Node31</title>
<path fill="none" stroke="midnightblue" d="M1520.11,-291.444C1544.96,-282.438 1584.27,-268.189 1612.25,-258.049"/>
<polygon fill="midnightblue" stroke="midnightblue" points="1613.79,-261.214 1622,-254.516 1611.41,-254.633 1613.79,-261.214"/>
</g>
<!-- Node32 -->
<g id="node32" class="node"><title>Node32</title>
<polygon fill="white" stroke="#bfbfbf" points="1692,-235.5 1692,-254.5 1739,-254.5 1739,-235.5 1692,-235.5"/>
<text text-anchor="middle" x="1715.5" y="-242.5" font-family="Helvetica,sans-Serif" font-size="10.00">deque</text>
</g>
<!-- Node30&#45;&gt;Node32 -->
<g id="edge43" class="edge"><title>Node30&#45;&gt;Node32</title>
<path fill="none" stroke="midnightblue" d="M1533.28,-291.432C1568.8,-283.084 1624.36,-269.835 1681.75,-255.136"/>
<polygon fill="midnightblue" stroke="midnightblue" points="1682.92,-258.451 1691.73,-252.571 1681.17,-251.672 1682.92,-258.451"/>
</g>
<!-- Node33 -->
<g id="node33" class="node"><title>Node33</title>
<g id="a_node33"><a xlink:href="IndexMap_8inl.html" target="_top" xlink:title="Core/Index/IndexMap.inl">
<polygon fill="white" stroke="black" points="1431.5,-235.5 1431.5,-254.5 1561.5,-254.5 1561.5,-235.5 1431.5,-235.5"/>
<text text-anchor="middle" x="1496.5" y="-242.5" font-family="Helvetica,sans-Serif" font-size="10.00">Core/Index/IndexMap.inl</text>
</a>
</g>
</g>
<!-- Node30&#45;&gt;Node33 -->
<g id="edge45" class="edge"><title>Node30&#45;&gt;Node33</title>
<path fill="none" stroke="midnightblue" d="M1491.33,-291.083C1489.82,-283.927 1489.39,-273.635 1490.04,-264.691"/>
<polygon fill="midnightblue" stroke="midnightblue" points="1493.52,-265.126 1491.37,-254.751 1486.58,-264.2 1493.52,-265.126"/>
</g>
<!-- Node33&#45;&gt;Node30 -->
<g id="edge46" class="edge"><title>Node33&#45;&gt;Node30</title>
<path fill="none" stroke="midnightblue" d="M1501.63,-254.751C1503.16,-261.858 1503.6,-272.136 1502.97,-281.101"/>
<polygon fill="midnightblue" stroke="midnightblue" points="1499.49,-280.713 1501.67,-291.083 1506.43,-281.622 1499.49,-280.713"/>
</g>
<!-- Node34&#45;&gt;Node5 -->
<g id="edge48" class="edge"><title>Node34&#45;&gt;Node5</title>
<path fill="none" stroke="midnightblue" d="M1759.06,-235.431C1710.03,-226.295 1637.93,-211.458 1612.5,-199 1592.93,-189.411 1594.52,-176.628 1574.5,-168 1524.4,-146.402 1373.2,-132.877 1288.54,-126.787"/>
<polygon fill="midnightblue" stroke="midnightblue" points="1288.78,-123.295 1278.56,-126.081 1288.29,-130.278 1288.78,-123.295"/>
</g>
<!-- Node34&#45;&gt;Node10 -->
<g id="edge49" class="edge"><title>Node34&#45;&gt;Node10</title>
<path fill="none" stroke="midnightblue" d="M1823.23,-235.236C1835.39,-227.481 1851.31,-214.929 1858.5,-199 1864.17,-186.442 1861.06,-181.537 1858.5,-168 1847.69,-110.898 1805.51,-54.3445 1782.94,-27.3609"/>
<polygon fill="midnightblue" stroke="midnightblue" points="1785.53,-24.9997 1776.37,-19.6758 1780.21,-29.55 1785.53,-24.9997"/>
</g>
<!-- Node35 -->
<g id="node35" class="node"><title>Node35</title>
<polygon fill="white" stroke="#bfbfbf" points="1622,-174 1622,-193 1671,-193 1671,-174 1622,-174"/>
<text text-anchor="middle" x="1646.5" y="-181" font-family="Helvetica,sans-Serif" font-size="10.00">stdio.h</text>
</g>
<!-- Node34&#45;&gt;Node35 -->
<g id="edge50" class="edge"><title>Node34&#45;&gt;Node35</title>
<path fill="none" stroke="midnightblue" d="M1782.03,-235.498C1756.26,-226.776 1715.37,-212.598 1680.5,-199 1678.9,-198.375 1677.26,-197.722 1675.6,-197.053"/>
<polygon fill="midnightblue" stroke="midnightblue" points="1676.77,-193.747 1666.19,-193.144 1674.08,-200.211 1676.77,-193.747"/>
</g>
<!-- Node36 -->
<g id="node36" class="node"><title>Node36</title>
<polygon fill="white" stroke="#bfbfbf" points="1783.5,-112.5 1783.5,-131.5 1827.5,-131.5 1827.5,-112.5 1783.5,-112.5"/>
<text text-anchor="middle" x="1805.5" y="-119.5" font-family="Helvetica,sans-Serif" font-size="10.00">string</text>
</g>
<!-- Node34&#45;&gt;Node36 -->
<g id="edge51" class="edge"><title>Node34&#45;&gt;Node36</title>
<path fill="none" stroke="midnightblue" d="M1817.06,-235.45C1825.59,-227.12 1837.49,-213.604 1842.5,-199 1846.97,-185.968 1847.15,-180.97 1842.5,-168 1838.56,-157.003 1830.64,-146.769 1823.14,-138.848"/>
<polygon fill="midnightblue" stroke="midnightblue" points="1825.52,-136.278 1815.94,-131.755 1820.61,-141.266 1825.52,-136.278"/>
</g>
<!-- Node37 -->
<g id="node37" class="node"><title>Node37</title>
<g id="a_node37"><a xlink:href="StringUtils_8hpp.html" target="_top" xlink:title="Core/String/StringUtils.hpp">
<polygon fill="white" stroke="black" points="1689.5,-174 1689.5,-193 1833.5,-193 1833.5,-174 1689.5,-174"/>
<text text-anchor="middle" x="1761.5" y="-181" font-family="Helvetica,sans-Serif" font-size="10.00">Core/String/StringUtils.hpp</text>
</a>
</g>
</g>
<!-- Node34&#45;&gt;Node37 -->
<g id="edge52" class="edge"><title>Node34&#45;&gt;Node37</title>
<path fill="none" stroke="midnightblue" d="M1800.91,-235.475C1794.01,-226.55 1783,-212.307 1774.37,-201.143"/>
<polygon fill="midnightblue" stroke="midnightblue" points="1776.96,-198.78 1768.08,-193.009 1771.43,-203.061 1776.96,-198.78"/>
</g>
<!-- Node38 -->
<g id="node38" class="node"><title>Node38</title>
<polygon fill="white" stroke="#bfbfbf" points="1521.5,-174 1521.5,-193 1565.5,-193 1565.5,-174 1521.5,-174"/>
<text text-anchor="middle" x="1543.5" y="-181" font-family="Helvetica,sans-Serif" font-size="10.00">ctime</text>
</g>
<!-- Node34&#45;&gt;Node38 -->
<g id="edge56" class="edge"><title>Node34&#45;&gt;Node38</title>
<path fill="none" stroke="midnightblue" d="M1758.73,-235.485C1702.13,-225.408 1612.37,-208.77 1579.5,-199 1577.07,-198.278 1574.58,-197.455 1572.09,-196.576"/>
<polygon fill="midnightblue" stroke="midnightblue" points="1573.28,-193.285 1562.69,-193.006 1570.8,-199.829 1573.28,-193.285"/>
</g>
<!-- Node37&#45;&gt;Node5 -->
<g id="edge53" class="edge"><title>Node37&#45;&gt;Node5</title>
<path fill="none" stroke="midnightblue" d="M1716.91,-173.986C1704.8,-171.846 1691.67,-169.682 1679.5,-168 1539.93,-148.709 1374.91,-134.351 1288.7,-127.49"/>
<polygon fill="midnightblue" stroke="midnightblue" points="1288.83,-123.989 1278.59,-126.69 1288.28,-130.967 1288.83,-123.989"/>
</g>
<!-- Node37&#45;&gt;Node13 -->
<g id="edge55" class="edge"><title>Node37&#45;&gt;Node13</title>
<path fill="none" stroke="midnightblue" d="M1718.22,-173.977C1705.76,-171.76 1692.13,-169.559 1679.5,-168 1454.86,-140.256 1395.75,-162.745 1171.5,-132 1168.07,-131.53 1164.52,-130.953 1160.97,-130.32"/>
<polygon fill="midnightblue" stroke="midnightblue" points="1161.63,-126.883 1151.15,-128.43 1160.31,-133.757 1161.63,-126.883"/>
</g>
<!-- Node37&#45;&gt;Node36 -->
<g id="edge54" class="edge"><title>Node37&#45;&gt;Node36</title>
<path fill="none" stroke="midnightblue" d="M1767.8,-173.975C1774.4,-165.05 1784.94,-150.807 1793.19,-139.643"/>
<polygon fill="midnightblue" stroke="midnightblue" points="1796.08,-141.631 1799.21,-131.509 1790.45,-137.468 1796.08,-141.631"/>
</g>
</g>
</svg>
