<?xml version="1.0" encoding="UTF-8" standalone="no"?>
<!DOCTYPE svg PUBLIC "-//W3C//DTD SVG 1.1//EN"
 "http://www.w3.org/Graphics/SVG/1.1/DTD/svg11.dtd">
<!-- Generated by graphviz version 2.38.0 (20140413.2041)
 -->
<!-- Title: /home/travis/build/STORM&#45;IRIT/Radium&#45;Engine/src/Core/Geometry/Approximation/VariationalShapeApproximation.inl Pages: 1 -->
<svg width="2181pt" height="609pt"
 viewBox="0.00 0.00 2180.50 609.00" xmlns="http://www.w3.org/2000/svg" xmlns:xlink="http://www.w3.org/1999/xlink">
<g id="graph0" class="graph" transform="scale(1 1) rotate(0) translate(4 605)">
<title>/home/travis/build/STORM&#45;IRIT/Radium&#45;Engine/src/Core/Geometry/Approximation/VariationalShapeApproximation.inl</title>
<polygon fill="white" stroke="none" points="-4,4 -4,-605 2176.5,-605 2176.5,4 -4,4"/>
<!-- Node1 -->
<g id="node1" class="node"><title>Node1</title>
<polygon fill="#bfbfbf" stroke="black" points="804,-548.5 804,-600.5 988,-600.5 988,-548.5 804,-548.5"/>
<text text-anchor="start" x="812" y="-588.5" font-family="Helvetica,sans-Serif" font-size="10.00">/home/travis/build</text>
<text text-anchor="start" x="812" y="-577.5" font-family="Helvetica,sans-Serif" font-size="10.00">/STORM&#45;IRIT/Radium&#45;Engine</text>
<text text-anchor="start" x="812" y="-566.5" font-family="Helvetica,sans-Serif" font-size="10.00">/src/Core/Geometry/Approximation</text>
<text text-anchor="middle" x="896" y="-555.5" font-family="Helvetica,sans-Serif" font-size="10.00">/VariationalShapeApproximation.inl</text>
</g>
<!-- Node2 -->
<g id="node2" class="node"><title>Node2</title>
<g id="a_node2"><a xlink:href="VariationalShapeApproximation_8hpp.html" target="_top" xlink:title="Core/Geometry/Approximation\l/VariationalShapeApproximation.hpp">
<polygon fill="white" stroke="black" points="577.5,-481.5 577.5,-511.5 768.5,-511.5 768.5,-481.5 577.5,-481.5"/>
<text text-anchor="start" x="585.5" y="-499.5" font-family="Helvetica,sans-Serif" font-size="10.00">Core/Geometry/Approximation</text>
<text text-anchor="middle" x="673" y="-488.5" font-family="Helvetica,sans-Serif" font-size="10.00">/VariationalShapeApproximation.hpp</text>
</a>
</g>
</g>
<!-- Node1&#45;&gt;Node2 -->
<g id="edge1" class="edge"><title>Node1&#45;&gt;Node2</title>
<path fill="none" stroke="midnightblue" d="M815.972,-548.404C783.225,-537.459 746.555,-524.892 718.516,-514.984"/>
<polygon fill="midnightblue" stroke="midnightblue" points="719.573,-511.645 708.979,-511.597 717.231,-518.242 719.573,-511.645"/>
</g>
<!-- Node35 -->
<g id="node35" class="node"><title>Node35</title>
<g id="a_node35"><a xlink:href="Log_8hpp.html" target="_top" xlink:title="Core/Log/Log.hpp">
<polygon fill="white" stroke="black" points="214.5,-302.5 214.5,-321.5 315.5,-321.5 315.5,-302.5 214.5,-302.5"/>
<text text-anchor="middle" x="265" y="-309.5" font-family="Helvetica,sans-Serif" font-size="10.00">Core/Log/Log.hpp</text>
</a>
</g>
</g>
<!-- Node1&#45;&gt;Node35 -->
<g id="edge68" class="edge"><title>Node1&#45;&gt;Node35</title>
<path fill="none" stroke="midnightblue" d="M803.615,-568.093C696.58,-557.951 518.73,-528.796 392,-445 342.667,-412.38 297.986,-357.491 277.235,-329.903"/>
<polygon fill="midnightblue" stroke="midnightblue" points="279.903,-327.625 271.142,-321.666 274.275,-331.787 279.903,-327.625"/>
</g>
<!-- Node43 -->
<g id="node43" class="node"><title>Node43</title>
<g id="a_node43"><a xlink:href="TriangleOperation_8hpp.html" target="_top" xlink:title="Core/Geometry/Triangle\l/TriangleOperation.hpp">
<polygon fill="white" stroke="black" points="1291.5,-358.5 1291.5,-388.5 1420.5,-388.5 1420.5,-358.5 1291.5,-358.5"/>
<text text-anchor="start" x="1299.5" y="-376.5" font-family="Helvetica,sans-Serif" font-size="10.00">Core/Geometry/Triangle</text>
<text text-anchor="middle" x="1356" y="-365.5" font-family="Helvetica,sans-Serif" font-size="10.00">/TriangleOperation.hpp</text>
</a>
</g>
</g>
<!-- Node1&#45;&gt;Node43 -->
<g id="edge66" class="edge"><title>Node1&#45;&gt;Node43</title>
<path fill="none" stroke="midnightblue" d="M894.286,-548.153C894.326,-527.403 897.913,-498.685 915,-481 940.459,-454.65 1161.9,-410.339 1280.97,-388.098"/>
<polygon fill="midnightblue" stroke="midnightblue" points="1281.92,-391.481 1291.11,-386.211 1280.64,-384.599 1281.92,-391.481"/>
</g>
<!-- Node44 -->
<g id="node44" class="node"><title>Node44</title>
<polygon fill="white" stroke="#bfbfbf" points="924.5,-487 924.5,-506 1027.5,-506 1027.5,-487 924.5,-487"/>
<text text-anchor="middle" x="976" y="-494" font-family="Helvetica,sans-Serif" font-size="10.00">Eigen/Eigenvalues</text>
</g>
<!-- Node1&#45;&gt;Node44 -->
<g id="edge69" class="edge"><title>Node1&#45;&gt;Node44</title>
<path fill="none" stroke="midnightblue" d="M922.639,-548.193C934.809,-536.632 948.843,-523.299 959.464,-513.209"/>
<polygon fill="midnightblue" stroke="midnightblue" points="961.993,-515.634 966.833,-506.209 957.172,-510.559 961.993,-515.634"/>
</g>
<!-- Node45 -->
<g id="node45" class="node"><title>Node45</title>
<polygon fill="white" stroke="#bfbfbf" points="1046,-487 1046,-506 1100,-506 1100,-487 1046,-487"/>
<text text-anchor="middle" x="1073" y="-494" font-family="Helvetica,sans-Serif" font-size="10.00">random</text>
</g>
<!-- Node1&#45;&gt;Node45 -->
<g id="edge70" class="edge"><title>Node1&#45;&gt;Node45</title>
<path fill="none" stroke="midnightblue" d="M954.447,-548.404C984.361,-535.56 1019.47,-520.484 1043.68,-510.089"/>
<polygon fill="midnightblue" stroke="midnightblue" points="1045.21,-513.239 1053.02,-506.078 1042.45,-506.807 1045.21,-513.239"/>
</g>
<!-- Node46 -->
<g id="node46" class="node"><title>Node46</title>
<polygon fill="white" stroke="#bfbfbf" points="1118,-487 1118,-506 1150,-506 1150,-487 1118,-487"/>
<text text-anchor="middle" x="1134" y="-494" font-family="Helvetica,sans-Serif" font-size="10.00">set</text>
</g>
<!-- Node1&#45;&gt;Node46 -->
<g id="edge71" class="edge"><title>Node1&#45;&gt;Node46</title>
<path fill="none" stroke="midnightblue" d="M988.132,-552.172C1026.27,-541.998 1070.5,-528.429 1109,-512 1109.85,-511.638 1110.7,-511.254 1111.56,-510.851"/>
<polygon fill="midnightblue" stroke="midnightblue" points="1113.35,-513.865 1120.56,-506.101 1110.08,-507.674 1113.35,-513.865"/>
</g>
<!-- Node2&#45;&gt;Node1 -->
<g id="edge65" class="edge"><title>Node2&#45;&gt;Node1</title>
<path fill="none" stroke="midnightblue" d="M719.749,-511.597C748.534,-520.98 786.063,-533.637 819.112,-545.061"/>
<polygon fill="midnightblue" stroke="midnightblue" points="818.16,-548.436 828.755,-548.404 820.453,-541.822 818.16,-548.436"/>
</g>
<!-- Node3 -->
<g id="node3" class="node"><title>Node3</title>
<g id="a_node3"><a xlink:href="VectorArray_8hpp.html" target="_top" xlink:title="Core/Containers/VectorArray.hpp">
<polygon fill="white" stroke="black" points="484.5,-302.5 484.5,-321.5 657.5,-321.5 657.5,-302.5 484.5,-302.5"/>
<text text-anchor="middle" x="571" y="-309.5" font-family="Helvetica,sans-Serif" font-size="10.00">Core/Containers/VectorArray.hpp</text>
</a>
</g>
</g>
<!-- Node2&#45;&gt;Node3 -->
<g id="edge2" class="edge"><title>Node2&#45;&gt;Node3</title>
<path fill="none" stroke="midnightblue" d="M627.95,-481.4C610.365,-473.543 591.853,-461.85 581,-445 558.569,-410.173 562.768,-358.949 567.217,-331.685"/>
<polygon fill="midnightblue" stroke="midnightblue" points="570.708,-332.05 569.062,-321.584 563.822,-330.792 570.708,-332.05"/>
</g>
<!-- Node13 -->
<g id="node13" class="node"><title>Node13</title>
<polygon fill="white" stroke="#bfbfbf" points="401.5,-174 401.5,-193 448.5,-193 448.5,-174 401.5,-174"/>
<text text-anchor="middle" x="425" y="-181" font-family="Helvetica,sans-Serif" font-size="10.00">vector</text>
</g>
<!-- Node2&#45;&gt;Node13 -->
<g id="edge64" class="edge"><title>Node2&#45;&gt;Node13</title>
<path fill="none" stroke="midnightblue" d="M577.361,-490.216C500.748,-480.194 406,-452.11 406,-374.5 406,-374.5 406,-374.5 406,-311 406,-272.273 414.816,-227.609 420.438,-203.066"/>
<polygon fill="midnightblue" stroke="midnightblue" points="423.917,-203.561 422.82,-193.023 417.106,-201.945 423.917,-203.561"/>
</g>
<!-- Node25 -->
<g id="node25" class="node"><title>Node25</title>
<g id="a_node25"><a xlink:href="TriangleMesh_8hpp.html" target="_top" xlink:title="Core/Mesh/TriangleMesh.hpp">
<polygon fill="white" stroke="black" points="714.5,-425.5 714.5,-444.5 867.5,-444.5 867.5,-425.5 714.5,-425.5"/>
<text text-anchor="middle" x="791" y="-432.5" font-family="Helvetica,sans-Serif" font-size="10.00">Core/Mesh/TriangleMesh.hpp</text>
</a>
</g>
</g>
<!-- Node2&#45;&gt;Node25 -->
<g id="edge29" class="edge"><title>Node2&#45;&gt;Node25</title>
<path fill="none" stroke="midnightblue" d="M700.964,-481.399C720.321,-471.639 745.908,-458.737 764.856,-449.183"/>
<polygon fill="midnightblue" stroke="midnightblue" points="766.477,-452.285 773.83,-444.658 763.325,-446.035 766.477,-452.285"/>
</g>
<!-- Node41 -->
<g id="node41" class="node"><title>Node41</title>
<polygon fill="white" stroke="#bfbfbf" points="590.5,-425.5 590.5,-444.5 631.5,-444.5 631.5,-425.5 590.5,-425.5"/>
<text text-anchor="middle" x="611" y="-432.5" font-family="Helvetica,sans-Serif" font-size="10.00">array</text>
</g>
<!-- Node2&#45;&gt;Node41 -->
<g id="edge62" class="edge"><title>Node2&#45;&gt;Node41</title>
<path fill="none" stroke="midnightblue" d="M658.307,-481.399C649.019,-472.486 637.001,-460.952 627.402,-451.741"/>
<polygon fill="midnightblue" stroke="midnightblue" points="629.66,-449.057 620.022,-444.658 624.813,-454.107 629.66,-449.057"/>
</g>
<!-- Node42 -->
<g id="node42" class="node"><title>Node42</title>
<polygon fill="white" stroke="#bfbfbf" points="649.5,-425.5 649.5,-444.5 696.5,-444.5 696.5,-425.5 649.5,-425.5"/>
<text text-anchor="middle" x="673" y="-432.5" font-family="Helvetica,sans-Serif" font-size="10.00">queue</text>
</g>
<!-- Node2&#45;&gt;Node42 -->
<g id="edge63" class="edge"><title>Node2&#45;&gt;Node42</title>
<path fill="none" stroke="midnightblue" d="M673,-481.399C673,-473.466 673,-463.458 673,-454.858"/>
<polygon fill="midnightblue" stroke="midnightblue" points="676.5,-454.658 673,-444.658 669.5,-454.658 676.5,-454.658"/>
</g>
<!-- Node4 -->
<g id="node4" class="node"><title>Node4</title>
<g id="a_node4"><a xlink:href="AlignedStdVector_8hpp.html" target="_top" xlink:title="Core/Containers/AlignedStd\lVector.hpp">
<polygon fill="white" stroke="black" points="471.5,-235.5 471.5,-265.5 620.5,-265.5 620.5,-235.5 471.5,-235.5"/>
<text text-anchor="start" x="479.5" y="-253.5" font-family="Helvetica,sans-Serif" font-size="10.00">Core/Containers/AlignedStd</text>
<text text-anchor="middle" x="546" y="-242.5" font-family="Helvetica,sans-Serif" font-size="10.00">Vector.hpp</text>
</a>
</g>
</g>
<!-- Node3&#45;&gt;Node4 -->
<g id="edge3" class="edge"><title>Node3&#45;&gt;Node4</title>
<path fill="none" stroke="midnightblue" d="M567.418,-302.475C564.38,-295.245 559.876,-284.525 555.781,-274.779"/>
<polygon fill="midnightblue" stroke="midnightblue" points="558.992,-273.386 551.892,-265.523 552.539,-276.098 558.992,-273.386"/>
</g>
<!-- Node5 -->
<g id="node5" class="node"><title>Node5</title>
<g id="a_node5"><a xlink:href="RaCore_8hpp.html" target="_top" xlink:title="Core/RaCore.hpp">
<polygon fill="white" stroke="black" points="637,-112.5 637,-131.5 735,-131.5 735,-112.5 637,-112.5"/>
<text text-anchor="middle" x="686" y="-119.5" font-family="Helvetica,sans-Serif" font-size="10.00">Core/RaCore.hpp</text>
</a>
</g>
</g>
<!-- Node3&#45;&gt;Node5 -->
<g id="edge27" class="edge"><title>Node3&#45;&gt;Node5</title>
<path fill="none" stroke="midnightblue" d="M586.172,-302.418C599.088,-294.441 617.352,-281.479 629,-266 644.443,-245.478 668.827,-175.167 680.021,-141.395"/>
<polygon fill="midnightblue" stroke="midnightblue" points="683.37,-142.416 683.164,-131.823 676.719,-140.232 683.37,-142.416"/>
</g>
<!-- Node3&#45;&gt;Node13 -->
<g id="edge28" class="edge"><title>Node3&#45;&gt;Node13</title>
<path fill="none" stroke="midnightblue" d="M531.689,-302.465C508.952,-295.806 481.143,-284.491 462,-266 444.146,-248.754 434.166,-221.295 429.186,-203.085"/>
<polygon fill="midnightblue" stroke="midnightblue" points="432.574,-202.204 426.758,-193.348 425.782,-203.898 432.574,-202.204"/>
</g>
<!-- Node14 -->
<g id="node14" class="node"><title>Node14</title>
<g id="a_node14"><a xlink:href="LinearAlgebra_8hpp.html" target="_top" xlink:title="Core/Math/LinearAlgebra.hpp">
<polygon fill="white" stroke="black" points="1285,-241 1285,-260 1441,-260 1441,-241 1285,-241"/>
<text text-anchor="middle" x="1363" y="-248" font-family="Helvetica,sans-Serif" font-size="10.00">Core/Math/LinearAlgebra.hpp</text>
</a>
</g>
</g>
<!-- Node3&#45;&gt;Node14 -->
<g id="edge13" class="edge"><title>Node3&#45;&gt;Node14</title>
<path fill="none" stroke="midnightblue" d="M657.559,-305.396C779.503,-297.376 1008.81,-281.837 1204,-266 1226.98,-264.135 1251.82,-261.951 1274.88,-259.852"/>
<polygon fill="midnightblue" stroke="midnightblue" points="1275.35,-263.324 1284.99,-258.928 1274.71,-256.353 1275.35,-263.324"/>
</g>
<!-- Node4&#45;&gt;Node5 -->
<g id="edge4" class="edge"><title>Node4&#45;&gt;Node5</title>
<path fill="none" stroke="midnightblue" d="M561.119,-235.208C578.537,-218.811 608.091,-191.196 634,-168 645.258,-157.921 658.094,-146.809 668.196,-138.149"/>
<polygon fill="midnightblue" stroke="midnightblue" points="670.616,-140.685 675.944,-131.528 666.068,-135.364 670.616,-140.685"/>
</g>
<!-- Node12 -->
<g id="node12" class="node"><title>Node12</title>
<polygon fill="white" stroke="#bfbfbf" points="488.5,-174 488.5,-193 581.5,-193 581.5,-174 488.5,-174"/>
<text text-anchor="middle" x="535" y="-181" font-family="Helvetica,sans-Serif" font-size="10.00">Eigen/StdVector</text>
</g>
<!-- Node4&#45;&gt;Node12 -->
<g id="edge11" class="edge"><title>Node4&#45;&gt;Node12</title>
<path fill="none" stroke="midnightblue" d="M543.613,-235.396C542.017,-225.963 539.899,-213.448 538.163,-203.189"/>
<polygon fill="midnightblue" stroke="midnightblue" points="541.591,-202.47 536.471,-193.195 534.689,-203.638 541.591,-202.47"/>
</g>
<!-- Node4&#45;&gt;Node13 -->
<g id="edge12" class="edge"><title>Node4&#45;&gt;Node13</title>
<path fill="none" stroke="midnightblue" d="M519.745,-235.396C498.984,-224.243 470.2,-208.781 449.821,-197.834"/>
<polygon fill="midnightblue" stroke="midnightblue" points="451.302,-194.656 440.836,-193.007 447.989,-200.823 451.302,-194.656"/>
</g>
<!-- Node6 -->
<g id="node6" class="node"><title>Node6</title>
<g id="a_node6"><a xlink:href="CoreMacros_8hpp.html" target="_top" xlink:title="Core/CoreMacros.hpp">
<polygon fill="white" stroke="black" points="498,-56.5 498,-75.5 618,-75.5 618,-56.5 498,-56.5"/>
<text text-anchor="middle" x="558" y="-63.5" font-family="Helvetica,sans-Serif" font-size="10.00">Core/CoreMacros.hpp</text>
</a>
</g>
</g>
<!-- Node5&#45;&gt;Node6 -->
<g id="edge5" class="edge"><title>Node5&#45;&gt;Node6</title>
<path fill="none" stroke="midnightblue" d="M665.718,-112.444C644.653,-103.557 611.483,-89.5632 587.514,-79.4514"/>
<polygon fill="midnightblue" stroke="midnightblue" points="588.761,-76.1787 578.187,-75.5164 586.04,-82.6283 588.761,-76.1787"/>
</g>
<!-- Node7 -->
<g id="node7" class="node"><title>Node7</title>
<polygon fill="white" stroke="#bfbfbf" points="636,-0.5 636,-19.5 688,-19.5 688,-0.5 636,-0.5"/>
<text text-anchor="middle" x="662" y="-7.5" font-family="Helvetica,sans-Serif" font-size="10.00">cassert</text>
</g>
<!-- Node6&#45;&gt;Node7 -->
<g id="edge6" class="edge"><title>Node6&#45;&gt;Node7</title>
<path fill="none" stroke="midnightblue" d="M574.709,-56.324C591.312,-47.7034 617.002,-34.3643 636.22,-24.3855"/>
<polygon fill="midnightblue" stroke="midnightblue" points="638.07,-27.3689 645.332,-19.6545 634.844,-21.1565 638.07,-27.3689"/>
</g>
<!-- Node8 -->
<g id="node8" class="node"><title>Node8</title>
<polygon fill="white" stroke="#bfbfbf" points="429.5,-0.5 429.5,-19.5 474.5,-19.5 474.5,-0.5 429.5,-0.5"/>
<text text-anchor="middle" x="452" y="-7.5" font-family="Helvetica,sans-Serif" font-size="10.00">cstdio</text>
</g>
<!-- Node6&#45;&gt;Node8 -->
<g id="edge7" class="edge"><title>Node6&#45;&gt;Node8</title>
<path fill="none" stroke="midnightblue" d="M540.969,-56.324C523.97,-47.6641 497.624,-34.2424 478.007,-24.249"/>
<polygon fill="midnightblue" stroke="midnightblue" points="479.488,-21.0752 468.988,-19.6545 476.31,-27.3125 479.488,-21.0752"/>
</g>
<!-- Node9 -->
<g id="node9" class="node"><title>Node9</title>
<polygon fill="white" stroke="#bfbfbf" points="492.5,-0.5 492.5,-19.5 551.5,-19.5 551.5,-0.5 492.5,-0.5"/>
<text text-anchor="middle" x="522" y="-7.5" font-family="Helvetica,sans-Serif" font-size="10.00">iostream</text>
</g>
<!-- Node6&#45;&gt;Node9 -->
<g id="edge8" class="edge"><title>Node6&#45;&gt;Node9</title>
<path fill="none" stroke="midnightblue" d="M552.055,-56.083C547.023,-48.5341 539.663,-37.4948 533.487,-28.2298"/>
<polygon fill="midnightblue" stroke="midnightblue" points="536.293,-26.1301 527.834,-19.7511 530.469,-30.0131 536.293,-26.1301"/>
</g>
<!-- Node10 -->
<g id="node10" class="node"><title>Node10</title>
<polygon fill="white" stroke="#bfbfbf" points="227,-0.5 227,-19.5 283,-19.5 283,-0.5 227,-0.5"/>
<text text-anchor="middle" x="255" y="-7.5" font-family="Helvetica,sans-Serif" font-size="10.00">sstream</text>
</g>
<!-- Node6&#45;&gt;Node10 -->
<g id="edge9" class="edge"><title>Node6&#45;&gt;Node10</title>
<path fill="none" stroke="midnightblue" d="M509.989,-56.4435C449.947,-45.743 348.365,-27.6392 293.28,-17.8222"/>
<polygon fill="midnightblue" stroke="midnightblue" points="293.691,-14.3404 283.232,-16.0315 292.463,-21.2318 293.691,-14.3404"/>
</g>
<!-- Node11 -->
<g id="node11" class="node"><title>Node11</title>
<polygon fill="white" stroke="#bfbfbf" points="570,-0.5 570,-19.5 618,-19.5 618,-0.5 570,-0.5"/>
<text text-anchor="middle" x="594" y="-7.5" font-family="Helvetica,sans-Serif" font-size="10.00">thread</text>
</g>
<!-- Node6&#45;&gt;Node11 -->
<g id="edge10" class="edge"><title>Node6&#45;&gt;Node11</title>
<path fill="none" stroke="midnightblue" d="M563.945,-56.083C568.977,-48.5341 576.337,-37.4948 582.513,-28.2298"/>
<polygon fill="midnightblue" stroke="midnightblue" points="585.531,-30.0131 588.166,-19.7511 579.707,-26.1301 585.531,-30.0131"/>
</g>
<!-- Node14&#45;&gt;Node5 -->
<g id="edge14" class="edge"><title>Node14&#45;&gt;Node5</title>
<path fill="none" stroke="midnightblue" d="M1338.34,-240.989C1313.53,-232.003 1274.54,-216.702 1243,-199 1222.46,-187.468 1222.08,-176.211 1200,-168 1118.09,-137.544 862.465,-127.373 745.499,-124.257"/>
<polygon fill="midnightblue" stroke="midnightblue" points="745.383,-120.753 735.296,-123.994 745.203,-127.751 745.383,-120.753"/>
</g>
<!-- Node15 -->
<g id="node15" class="node"><title>Node15</title>
<polygon fill="white" stroke="#bfbfbf" points="1761,-174 1761,-193 1829,-193 1829,-174 1761,-174"/>
<text text-anchor="middle" x="1795" y="-181" font-family="Helvetica,sans-Serif" font-size="10.00">Eigen/Core</text>
</g>
<!-- Node14&#45;&gt;Node15 -->
<g id="edge15" class="edge"><title>Node14&#45;&gt;Node15</title>
<path fill="none" stroke="midnightblue" d="M1441.29,-243.874C1520.42,-237.132 1645.84,-223.54 1752,-199 1755.48,-198.195 1759.08,-197.22 1762.65,-196.16"/>
<polygon fill="midnightblue" stroke="midnightblue" points="1764.02,-199.397 1772.48,-193.02 1761.89,-192.729 1764.02,-199.397"/>
</g>
<!-- Node16 -->
<g id="node16" class="node"><title>Node16</title>
<polygon fill="white" stroke="#bfbfbf" points="1847,-174 1847,-193 1941,-193 1941,-174 1847,-174"/>
<text text-anchor="middle" x="1894" y="-181" font-family="Helvetica,sans-Serif" font-size="10.00">Eigen/Geometry</text>
</g>
<!-- Node14&#45;&gt;Node16 -->
<g id="edge16" class="edge"><title>Node14&#45;&gt;Node16</title>
<path fill="none" stroke="midnightblue" d="M1441.26,-244.731C1535.82,-238.153 1699.49,-224.153 1838,-199 1843.37,-198.024 1848.99,-196.809 1854.5,-195.5"/>
<polygon fill="midnightblue" stroke="midnightblue" points="1855.39,-198.886 1864.25,-193.073 1853.7,-192.094 1855.39,-198.886"/>
</g>
<!-- Node17 -->
<g id="node17" class="node"><title>Node17</title>
<polygon fill="white" stroke="#bfbfbf" points="1252,-174 1252,-193 1332,-193 1332,-174 1252,-174"/>
<text text-anchor="middle" x="1292" y="-181" font-family="Helvetica,sans-Serif" font-size="10.00">Eigen/Sparse</text>
</g>
<!-- Node14&#45;&gt;Node17 -->
<g id="edge17" class="edge"><title>Node14&#45;&gt;Node17</title>
<path fill="none" stroke="midnightblue" d="M1353.42,-240.734C1342.03,-230.305 1322.81,-212.709 1308.9,-199.973"/>
<polygon fill="midnightblue" stroke="midnightblue" points="1311.16,-197.298 1301.42,-193.127 1306.44,-202.461 1311.16,-197.298"/>
</g>
<!-- Node18 -->
<g id="node18" class="node"><title>Node18</title>
<polygon fill="white" stroke="#bfbfbf" points="1350.5,-174 1350.5,-193 1413.5,-193 1413.5,-174 1350.5,-174"/>
<text text-anchor="middle" x="1382" y="-181" font-family="Helvetica,sans-Serif" font-size="10.00">functional</text>
</g>
<!-- Node14&#45;&gt;Node18 -->
<g id="edge18" class="edge"><title>Node14&#45;&gt;Node18</title>
<path fill="none" stroke="midnightblue" d="M1365.56,-240.734C1368.38,-231.085 1373,-215.3 1376.62,-202.906"/>
<polygon fill="midnightblue" stroke="midnightblue" points="1380.03,-203.708 1379.48,-193.127 1373.31,-201.744 1380.03,-203.708"/>
</g>
<!-- Node19 -->
<g id="node19" class="node"><title>Node19</title>
<polygon fill="white" stroke="#bfbfbf" points="1431.5,-168.5 1431.5,-198.5 1576.5,-198.5 1576.5,-168.5 1431.5,-168.5"/>
<text text-anchor="start" x="1439.5" y="-186.5" font-family="Helvetica,sans-Serif" font-size="10.00">unsupported/Eigen/Aligned</text>
<text text-anchor="middle" x="1504" y="-175.5" font-family="Helvetica,sans-Serif" font-size="10.00">Vector3</text>
</g>
<!-- Node14&#45;&gt;Node19 -->
<g id="edge19" class="edge"><title>Node14&#45;&gt;Node19</title>
<path fill="none" stroke="midnightblue" d="M1381.72,-240.869C1402.7,-231.199 1437.3,-215.249 1464.35,-202.778"/>
<polygon fill="midnightblue" stroke="midnightblue" points="1465.95,-205.893 1473.57,-198.528 1463.02,-199.536 1465.95,-205.893"/>
</g>
<!-- Node20 -->
<g id="node20" class="node"><title>Node20</title>
<g id="a_node20"><a xlink:href="Math_8hpp.html" target="_top" xlink:title="Core/Math/Math.hpp">
<polygon fill="white" stroke="black" points="1997,-174 1997,-193 2111,-193 2111,-174 1997,-174"/>
<text text-anchor="middle" x="2054" y="-181" font-family="Helvetica,sans-Serif" font-size="10.00">Core/Math/Math.hpp</text>
</a>
</g>
</g>
<!-- Node14&#45;&gt;Node20 -->
<g id="edge20" class="edge"><title>Node14&#45;&gt;Node20</title>
<path fill="none" stroke="midnightblue" d="M1441.46,-244.071C1554.16,-235.973 1768.31,-219.467 1950,-199 1961.89,-197.661 1974.52,-196.055 1986.72,-194.408"/>
<polygon fill="midnightblue" stroke="midnightblue" points="1987.42,-197.845 1996.85,-193.02 1986.47,-190.91 1987.42,-197.845"/>
</g>
<!-- Node24 -->
<g id="node24" class="node"><title>Node24</title>
<g id="a_node24"><a xlink:href="LinearAlgebra_8inl.html" target="_top" xlink:title="Core/Math/LinearAlgebra.inl">
<polygon fill="white" stroke="black" points="1594.5,-174 1594.5,-193 1743.5,-193 1743.5,-174 1594.5,-174"/>
<text text-anchor="middle" x="1669" y="-181" font-family="Helvetica,sans-Serif" font-size="10.00">Core/Math/LinearAlgebra.inl</text>
</a>
</g>
</g>
<!-- Node14&#45;&gt;Node24 -->
<g id="edge26" class="edge"><title>Node14&#45;&gt;Node24</title>
<path fill="none" stroke="midnightblue" d="M1403.32,-240.936C1458.7,-229.171 1558.29,-208.018 1618.54,-195.218"/>
<polygon fill="midnightblue" stroke="midnightblue" points="1619.54,-198.585 1628.59,-193.083 1618.08,-191.738 1619.54,-198.585"/>
</g>
<!-- Node20&#45;&gt;Node5 -->
<g id="edge21" class="edge"><title>Node20&#45;&gt;Node5</title>
<path fill="none" stroke="midnightblue" d="M2000.68,-173.992C1984.45,-171.692 1966.53,-169.442 1950,-168 1487.3,-127.616 926.297,-123.246 745.314,-122.946"/>
<polygon fill="midnightblue" stroke="midnightblue" points="745.211,-119.446 735.207,-122.933 745.202,-126.446 745.211,-119.446"/>
</g>
<!-- Node21 -->
<g id="node21" class="node"><title>Node21</title>
<polygon fill="white" stroke="#bfbfbf" points="1921,-112.5 1921,-131.5 1983,-131.5 1983,-112.5 1921,-112.5"/>
<text text-anchor="middle" x="1952" y="-119.5" font-family="Helvetica,sans-Serif" font-size="10.00">algorithm</text>
</g>
<!-- Node20&#45;&gt;Node21 -->
<g id="edge22" class="edge"><title>Node20&#45;&gt;Node21</title>
<path fill="none" stroke="midnightblue" d="M2039.39,-173.975C2022.65,-164.211 1995,-148.081 1975.28,-136.581"/>
<polygon fill="midnightblue" stroke="midnightblue" points="1976.99,-133.525 1966.59,-131.509 1973.46,-139.571 1976.99,-133.525"/>
</g>
<!-- Node22 -->
<g id="node22" class="node"><title>Node22</title>
<polygon fill="white" stroke="#bfbfbf" points="2125.5,-112.5 2125.5,-131.5 2172.5,-131.5 2172.5,-112.5 2125.5,-112.5"/>
<text text-anchor="middle" x="2149" y="-119.5" font-family="Helvetica,sans-Serif" font-size="10.00">cmath</text>
</g>
<!-- Node20&#45;&gt;Node22 -->
<g id="edge23" class="edge"><title>Node20&#45;&gt;Node22</title>
<path fill="none" stroke="midnightblue" d="M2067.61,-173.975C2083.06,-164.299 2108.49,-148.372 2126.82,-136.894"/>
<polygon fill="midnightblue" stroke="midnightblue" points="2128.8,-139.783 2135.41,-131.509 2125.08,-133.851 2128.8,-139.783"/>
</g>
<!-- Node23 -->
<g id="node23" class="node"><title>Node23</title>
<g id="a_node23"><a xlink:href="Math_8inl.html" target="_top" xlink:title="Core/Math/Math.inl">
<polygon fill="white" stroke="black" points="2000.5,-112.5 2000.5,-131.5 2107.5,-131.5 2107.5,-112.5 2000.5,-112.5"/>
<text text-anchor="middle" x="2054" y="-119.5" font-family="Helvetica,sans-Serif" font-size="10.00">Core/Math/Math.inl</text>
</a>
</g>
</g>
<!-- Node20&#45;&gt;Node23 -->
<g id="edge24" class="edge"><title>Node20&#45;&gt;Node23</title>
<path fill="none" stroke="midnightblue" d="M2049.1,-173.975C2047.27,-165.58 2046.8,-152.481 2047.69,-141.663"/>
<polygon fill="midnightblue" stroke="midnightblue" points="2051.19,-141.897 2049.1,-131.509 2044.25,-140.929 2051.19,-141.897"/>
</g>
<!-- Node23&#45;&gt;Node20 -->
<g id="edge25" class="edge"><title>Node23&#45;&gt;Node20</title>
<path fill="none" stroke="midnightblue" d="M2058.9,-131.509C2060.73,-139.898 2061.2,-152.996 2060.32,-163.817"/>
<polygon fill="midnightblue" stroke="midnightblue" points="2056.81,-163.588 2058.9,-173.975 2063.75,-164.554 2056.81,-163.588"/>
</g>
<!-- Node25&#45;&gt;Node3 -->
<g id="edge30" class="edge"><title>Node25&#45;&gt;Node3</title>
<path fill="none" stroke="midnightblue" d="M761.616,-425.463C736.89,-417.683 701.023,-404.98 672,-389 640.184,-371.482 607.291,-344.849 588.012,-328.209"/>
<polygon fill="midnightblue" stroke="midnightblue" points="590.224,-325.494 580.395,-321.54 585.613,-330.761 590.224,-325.494"/>
</g>
<!-- Node25&#45;&gt;Node5 -->
<g id="edge38" class="edge"><title>Node25&#45;&gt;Node5</title>
<path fill="none" stroke="midnightblue" d="M764.181,-425.379C746.17,-418.292 723.217,-406.532 709,-389 686.772,-361.59 686,-348.291 686,-313 686,-313 686,-313 686,-249.5 686,-211.202 686,-166.383 686,-141.697"/>
<polygon fill="midnightblue" stroke="midnightblue" points="689.5,-141.589 686,-131.589 682.5,-141.589 689.5,-141.589"/>
</g>
<!-- Node25&#45;&gt;Node14 -->
<g id="edge31" class="edge"><title>Node25&#45;&gt;Node14</title>
<path fill="none" stroke="midnightblue" d="M864.954,-425.487C918.807,-418.325 993.181,-406.43 1057,-389 1137.34,-367.058 1156.29,-356.694 1232,-322 1270.69,-304.273 1313.84,-280.161 1339.69,-265.226"/>
<polygon fill="midnightblue" stroke="midnightblue" points="1341.5,-268.22 1348.38,-260.167 1337.98,-262.169 1341.5,-268.22"/>
</g>
<!-- Node26 -->
<g id="node26" class="node"><title>Node26</title>
<g id="a_node26"><a xlink:href="MeshTypes_8hpp.html" target="_top" xlink:title="Core/Mesh/MeshTypes.hpp">
<polygon fill="white" stroke="black" points="1080.5,-302.5 1080.5,-321.5 1223.5,-321.5 1223.5,-302.5 1080.5,-302.5"/>
<text text-anchor="middle" x="1152" y="-309.5" font-family="Helvetica,sans-Serif" font-size="10.00">Core/Mesh/MeshTypes.hpp</text>
</a>
</g>
</g>
<!-- Node25&#45;&gt;Node26 -->
<g id="edge32" class="edge"><title>Node25&#45;&gt;Node26</title>
<path fill="none" stroke="midnightblue" d="M857.525,-425.442C901.653,-418.532 960.358,-406.954 1010,-389 1054.93,-372.751 1103.14,-344.339 1130.23,-327.237"/>
<polygon fill="midnightblue" stroke="midnightblue" points="1132.36,-330.033 1138.9,-321.698 1128.59,-324.135 1132.36,-330.033"/>
</g>
<!-- Node30 -->
<g id="node30" class="node"><title>Node30</title>
<g id="a_node30"><a xlink:href="Attribs_8hpp.html" target="_top" xlink:title="Core/Utils/Attribs.hpp">
<polygon fill="white" stroke="black" points="882.5,-364 882.5,-383 1001.5,-383 1001.5,-364 882.5,-364"/>
<text text-anchor="middle" x="942" y="-371" font-family="Helvetica,sans-Serif" font-size="10.00">Core/Utils/Attribs.hpp</text>
</a>
</g>
</g>
<!-- Node25&#45;&gt;Node30 -->
<g id="edge39" class="edge"><title>Node25&#45;&gt;Node30</title>
<path fill="none" stroke="midnightblue" d="M812.635,-425.475C838.424,-415.313 881.711,-398.256 911.04,-386.7"/>
<polygon fill="midnightblue" stroke="midnightblue" points="912.385,-389.932 920.406,-383.009 909.819,-383.419 912.385,-389.932"/>
</g>
<!-- Node40 -->
<g id="node40" class="node"><title>Node40</title>
<g id="a_node40"><a xlink:href="TriangleMesh_8inl.html" target="_top" xlink:title="Core/Mesh/TriangleMesh.inl">
<polygon fill="white" stroke="black" points="718,-364 718,-383 864,-383 864,-364 718,-364"/>
<text text-anchor="middle" x="791" y="-371" font-family="Helvetica,sans-Serif" font-size="10.00">Core/Mesh/TriangleMesh.inl</text>
</a>
</g>
</g>
<!-- Node25&#45;&gt;Node40 -->
<g id="edge60" class="edge"><title>Node25&#45;&gt;Node40</title>
<path fill="none" stroke="midnightblue" d="M786.099,-425.475C784.268,-417.08 783.797,-403.981 784.685,-393.163"/>
<polygon fill="midnightblue" stroke="midnightblue" points="788.186,-393.397 786.103,-383.009 781.254,-392.429 788.186,-393.397"/>
</g>
<!-- Node26&#45;&gt;Node5 -->
<g id="edge37" class="edge"><title>Node26&#45;&gt;Node5</title>
<path fill="none" stroke="midnightblue" d="M1167.78,-302.467C1180.2,-294.769 1196.61,-282.179 1204,-266 1209.73,-253.469 1207.44,-248.342 1204,-235 1195.51,-202.06 1195.46,-186.635 1167,-168 1132.44,-145.37 866.212,-130.92 745.348,-125.462"/>
<polygon fill="midnightblue" stroke="midnightblue" points="745.306,-121.957 735.16,-125.008 744.994,-128.95 745.306,-121.957"/>
</g>
<!-- Node26&#45;&gt;Node14 -->
<g id="edge36" class="edge"><title>Node26&#45;&gt;Node14</title>
<path fill="none" stroke="midnightblue" d="M1182.23,-302.475C1219.29,-292.026 1282.19,-274.287 1323.16,-262.733"/>
<polygon fill="midnightblue" stroke="midnightblue" points="1324.15,-266.092 1332.82,-260.009 1322.25,-259.355 1324.15,-266.092"/>
</g>
<!-- Node27 -->
<g id="node27" class="node"><title>Node27</title>
<g id="a_node27"><a xlink:href="Index_8hpp.html" target="_top" xlink:title="Core/Index/Index.hpp">
<polygon fill="white" stroke="black" points="1078.5,-241 1078.5,-260 1195.5,-260 1195.5,-241 1078.5,-241"/>
<text text-anchor="middle" x="1137" y="-248" font-family="Helvetica,sans-Serif" font-size="10.00">Core/Index/Index.hpp</text>
</a>
</g>
</g>
<!-- Node26&#45;&gt;Node27 -->
<g id="edge33" class="edge"><title>Node26&#45;&gt;Node27</title>
<path fill="none" stroke="midnightblue" d="M1149.85,-302.475C1147.71,-293.992 1144.36,-280.704 1141.62,-269.822"/>
<polygon fill="midnightblue" stroke="midnightblue" points="1144.98,-268.85 1139.15,-260.009 1138.2,-270.561 1144.98,-268.85"/>
</g>
<!-- Node28 -->
<g id="node28" class="node"><title>Node28</title>
<polygon fill="white" stroke="#bfbfbf" points="1116,-174 1116,-193 1158,-193 1158,-174 1116,-174"/>
<text text-anchor="middle" x="1137" y="-181" font-family="Helvetica,sans-Serif" font-size="10.00">limits</text>
</g>
<!-- Node27&#45;&gt;Node28 -->
<g id="edge34" class="edge"><title>Node27&#45;&gt;Node28</title>
<path fill="none" stroke="midnightblue" d="M1137,-240.734C1137,-231.183 1137,-215.618 1137,-203.283"/>
<polygon fill="midnightblue" stroke="midnightblue" points="1140.5,-203.127 1137,-193.127 1133.5,-203.127 1140.5,-203.127"/>
</g>
<!-- Node29 -->
<g id="node29" class="node"><title>Node29</title>
<g id="a_node29"><a xlink:href="Index_8inl.html" target="_top" xlink:title="Core/Index/Index.inl">
<polygon fill="white" stroke="black" points="988,-174 988,-193 1098,-193 1098,-174 988,-174"/>
<text text-anchor="middle" x="1043" y="-181" font-family="Helvetica,sans-Serif" font-size="10.00">Core/Index/Index.inl</text>
</a>
</g>
</g>
<!-- Node27&#45;&gt;Node29 -->
<g id="edge35" class="edge"><title>Node27&#45;&gt;Node29</title>
<path fill="none" stroke="midnightblue" d="M1124.32,-240.734C1108.82,-230.013 1082.36,-211.716 1063.84,-198.914"/>
<polygon fill="midnightblue" stroke="midnightblue" points="1065.69,-195.936 1055.48,-193.127 1061.71,-201.694 1065.69,-195.936"/>
</g>
<!-- Node30&#45;&gt;Node3 -->
<g id="edge40" class="edge"><title>Node30&#45;&gt;Node3</title>
<path fill="none" stroke="midnightblue" d="M903.396,-363.967C893.51,-361.897 882.88,-359.773 873,-358 795.774,-344.145 706.896,-331.268 645.654,-322.87"/>
<polygon fill="midnightblue" stroke="midnightblue" points="646.071,-319.395 635.689,-321.51 645.124,-326.331 646.071,-319.395"/>
</g>
<!-- Node30&#45;&gt;Node5 -->
<g id="edge59" class="edge"><title>Node30&#45;&gt;Node5</title>
<path fill="none" stroke="midnightblue" d="M968.701,-363.886C988.046,-356.152 1013,-342.77 1026,-322 1046.55,-289.171 1053.77,-266.331 1031,-235 996.912,-188.095 833.343,-150.716 744.215,-133.43"/>
<polygon fill="midnightblue" stroke="midnightblue" points="744.733,-129.966 734.254,-131.522 743.416,-136.841 744.733,-129.966"/>
</g>
<!-- Node31 -->
<g id="node31" class="node"><title>Node31</title>
<g id="a_node31"><a xlink:href="IndexMap_8hpp.html" target="_top" xlink:title="Core/Index/IndexMap.hpp">
<polygon fill="white" stroke="black" points="880.5,-302.5 880.5,-321.5 1017.5,-321.5 1017.5,-302.5 880.5,-302.5"/>
<text text-anchor="middle" x="949" y="-309.5" font-family="Helvetica,sans-Serif" font-size="10.00">Core/Index/IndexMap.hpp</text>
</a>
</g>
</g>
<!-- Node30&#45;&gt;Node31 -->
<g id="edge41" class="edge"><title>Node30&#45;&gt;Node31</title>
<path fill="none" stroke="midnightblue" d="M943.003,-363.975C943.991,-355.58 945.532,-342.481 946.804,-331.663"/>
<polygon fill="midnightblue" stroke="midnightblue" points="950.306,-331.85 947.999,-321.509 943.354,-331.032 950.306,-331.85"/>
</g>
<!-- Node30&#45;&gt;Node35 -->
<g id="edge49" class="edge"><title>Node30&#45;&gt;Node35</title>
<path fill="none" stroke="midnightblue" d="M905.992,-363.987C895.413,-361.743 883.787,-359.526 873,-358 768.666,-343.243 458.836,-324.22 326.279,-316.493"/>
<polygon fill="midnightblue" stroke="midnightblue" points="326.093,-312.977 315.907,-315.891 325.687,-319.965 326.093,-312.977"/>
</g>
<!-- Node31&#45;&gt;Node5 -->
<g id="edge42" class="edge"><title>Node31&#45;&gt;Node5</title>
<path fill="none" stroke="midnightblue" d="M880.452,-303.011C828.842,-295.739 763.592,-283.46 743,-266 733.024,-257.541 704.977,-178.408 692.328,-141.629"/>
<polygon fill="midnightblue" stroke="midnightblue" points="695.48,-140.029 688.934,-131.699 688.856,-142.294 695.48,-140.029"/>
</g>
<!-- Node31&#45;&gt;Node21 -->
<g id="edge43" class="edge"><title>Node31&#45;&gt;Node21</title>
<path fill="none" stroke="midnightblue" d="M1017.69,-305.815C1238.67,-288.811 1918.7,-233.837 1950,-199 1963.82,-183.617 1961.47,-158.595 1957.57,-141.496"/>
<polygon fill="midnightblue" stroke="midnightblue" points="1960.89,-140.349 1954.94,-131.584 1954.12,-142.147 1960.89,-140.349"/>
</g>
<!-- Node31&#45;&gt;Node27 -->
<g id="edge46" class="edge"><title>Node31&#45;&gt;Node27</title>
<path fill="none" stroke="midnightblue" d="M975.936,-302.475C1008.6,-292.136 1063.82,-274.661 1100.34,-263.102"/>
<polygon fill="midnightblue" stroke="midnightblue" points="1101.64,-266.363 1110.11,-260.009 1099.52,-259.69 1101.64,-266.363"/>
</g>
<!-- Node32 -->
<g id="node32" class="node"><title>Node32</title>
<polygon fill="white" stroke="#bfbfbf" points="752,-241 752,-260 808,-260 808,-241 752,-241"/>
<text text-anchor="middle" x="780" y="-248" font-family="Helvetica,sans-Serif" font-size="10.00">assert.h</text>
</g>
<!-- Node31&#45;&gt;Node32 -->
<g id="edge44" class="edge"><title>Node31&#45;&gt;Node32</title>
<path fill="none" stroke="midnightblue" d="M922.581,-302.381C895.845,-293.569 853.377,-279.321 817,-266 815.105,-265.306 813.16,-264.581 811.201,-263.842"/>
<polygon fill="midnightblue" stroke="midnightblue" points="812.049,-260.419 801.459,-260.098 809.538,-266.953 812.049,-260.419"/>
</g>
<!-- Node33 -->
<g id="node33" class="node"><title>Node33</title>
<polygon fill="white" stroke="#bfbfbf" points="826.5,-241 826.5,-260 873.5,-260 873.5,-241 826.5,-241"/>
<text text-anchor="middle" x="850" y="-248" font-family="Helvetica,sans-Serif" font-size="10.00">deque</text>
</g>
<!-- Node31&#45;&gt;Node33 -->
<g id="edge45" class="edge"><title>Node31&#45;&gt;Node33</title>
<path fill="none" stroke="midnightblue" d="M934.816,-302.475C918.642,-292.755 891.974,-276.727 872.857,-265.237"/>
<polygon fill="midnightblue" stroke="midnightblue" points="874.532,-262.161 864.158,-260.009 870.926,-268.16 874.532,-262.161"/>
</g>
<!-- Node34 -->
<g id="node34" class="node"><title>Node34</title>
<g id="a_node34"><a xlink:href="IndexMap_8inl.html" target="_top" xlink:title="Core/Index/IndexMap.inl">
<polygon fill="white" stroke="black" points="892,-241 892,-260 1022,-260 1022,-241 892,-241"/>
<text text-anchor="middle" x="957" y="-248" font-family="Helvetica,sans-Serif" font-size="10.00">Core/Index/IndexMap.inl</text>
</a>
</g>
</g>
<!-- Node31&#45;&gt;Node34 -->
<g id="edge47" class="edge"><title>Node31&#45;&gt;Node34</title>
<path fill="none" stroke="midnightblue" d="M945.246,-302.475C944.536,-293.992 945.861,-280.704 948.25,-269.822"/>
<polygon fill="midnightblue" stroke="midnightblue" points="951.672,-270.58 950.959,-260.009 944.924,-268.717 951.672,-270.58"/>
</g>
<!-- Node34&#45;&gt;Node31 -->
<g id="edge48" class="edge"><title>Node34&#45;&gt;Node31</title>
<path fill="none" stroke="midnightblue" d="M960.753,-260.009C961.465,-268.486 960.143,-281.772 957.754,-292.657"/>
<polygon fill="midnightblue" stroke="midnightblue" points="954.331,-291.904 955.047,-302.475 961.079,-293.765 954.331,-291.904"/>
</g>
<!-- Node35&#45;&gt;Node5 -->
<g id="edge50" class="edge"><title>Node35&#45;&gt;Node5</title>
<path fill="none" stroke="midnightblue" d="M260.824,-302.249C254.331,-287.249 243.855,-256.198 257,-235 292.3,-178.073 328.134,-188.196 392,-168 471.003,-143.017 566.479,-131.673 626.736,-126.685"/>
<polygon fill="midnightblue" stroke="midnightblue" points="627.139,-130.165 636.83,-125.882 626.584,-123.187 627.139,-130.165"/>
</g>
<!-- Node35&#45;&gt;Node10 -->
<g id="edge51" class="edge"><title>Node35&#45;&gt;Node10</title>
<path fill="none" stroke="midnightblue" d="M214.498,-305.511C158.431,-298.582 72.3493,-285.204 46,-266 12.3865,-241.502 0,-226.094 0,-184.5 0,-184.5 0,-184.5 0,-121 0,-27.9042 145.068,-12.6652 216.368,-10.7975"/>
<polygon fill="midnightblue" stroke="midnightblue" points="216.802,-14.2902 226.736,-10.6069 216.674,-7.29142 216.802,-14.2902"/>
</g>
<!-- Node36 -->
<g id="node36" class="node"><title>Node36</title>
<polygon fill="white" stroke="#bfbfbf" points="266.5,-241 266.5,-260 315.5,-260 315.5,-241 266.5,-241"/>
<text text-anchor="middle" x="291" y="-248" font-family="Helvetica,sans-Serif" font-size="10.00">stdio.h</text>
</g>
<!-- Node35&#45;&gt;Node36 -->
<g id="edge52" class="edge"><title>Node35&#45;&gt;Node36</title>
<path fill="none" stroke="midnightblue" d="M268.725,-302.475C272.471,-293.904 278.36,-280.427 283.142,-269.483"/>
<polygon fill="midnightblue" stroke="midnightblue" points="286.485,-270.574 287.282,-260.009 280.07,-267.771 286.485,-270.574"/>
</g>
<!-- Node37 -->
<g id="node37" class="node"><title>Node37</title>
<polygon fill="white" stroke="#bfbfbf" points="47,-174 47,-193 91,-193 91,-174 47,-174"/>
<text text-anchor="middle" x="69" y="-181" font-family="Helvetica,sans-Serif" font-size="10.00">string</text>
</g>
<!-- Node35&#45;&gt;Node37 -->
<g id="edge53" class="edge"><title>Node35&#45;&gt;Node37</title>
<path fill="none" stroke="midnightblue" d="M214.084,-307.171C158.984,-301.845 76.3713,-290.01 57,-266 42.5193,-248.051 51.0419,-220.379 59.3343,-202.353"/>
<polygon fill="midnightblue" stroke="midnightblue" points="62.555,-203.737 63.8921,-193.227 56.2926,-200.61 62.555,-203.737"/>
</g>
<!-- Node38 -->
<g id="node38" class="node"><title>Node38</title>
<g id="a_node38"><a xlink:href="StringUtils_8hpp.html" target="_top" xlink:title="Core/String/StringUtils.hpp">
<polygon fill="white" stroke="black" points="66,-241 66,-260 210,-260 210,-241 66,-241"/>
<text text-anchor="middle" x="138" y="-248" font-family="Helvetica,sans-Serif" font-size="10.00">Core/String/StringUtils.hpp</text>
</a>
</g>
</g>
<!-- Node35&#45;&gt;Node38 -->
<g id="edge54" class="edge"><title>Node35&#45;&gt;Node38</title>
<path fill="none" stroke="midnightblue" d="M246.804,-302.475C225.491,-292.49 189.969,-275.848 165.337,-264.307"/>
<polygon fill="midnightblue" stroke="midnightblue" points="166.703,-261.082 156.162,-260.009 163.733,-267.421 166.703,-261.082"/>
</g>
<!-- Node39 -->
<g id="node39" class="node"><title>Node39</title>
<polygon fill="white" stroke="#bfbfbf" points="334,-241 334,-260 378,-260 378,-241 334,-241"/>
<text text-anchor="middle" x="356" y="-248" font-family="Helvetica,sans-Serif" font-size="10.00">ctime</text>
</g>
<!-- Node35&#45;&gt;Node39 -->
<g id="edge58" class="edge"><title>Node35&#45;&gt;Node39</title>
<path fill="none" stroke="midnightblue" d="M278.038,-302.475C292.769,-292.843 316.973,-277.017 334.509,-265.552"/>
<polygon fill="midnightblue" stroke="midnightblue" points="336.532,-268.411 342.986,-260.009 332.701,-262.552 336.532,-268.411"/>
</g>
<!-- Node38&#45;&gt;Node5 -->
<g id="edge55" class="edge"><title>Node38&#45;&gt;Node5</title>
<path fill="none" stroke="midnightblue" d="M143.913,-240.924C156.393,-223.615 187.316,-184.727 224,-168 294.323,-135.934 518.632,-126.657 626.694,-124.021"/>
<polygon fill="midnightblue" stroke="midnightblue" points="626.864,-127.518 636.78,-123.786 626.701,-120.52 626.864,-127.518"/>
</g>
<!-- Node38&#45;&gt;Node13 -->
<g id="edge57" class="edge"><title>Node38&#45;&gt;Node13</title>
<path fill="none" stroke="midnightblue" d="M175.815,-240.936C232.182,-228.17 337.364,-204.348 391.263,-192.141"/>
<polygon fill="midnightblue" stroke="midnightblue" points="392.349,-195.483 401.329,-189.861 390.803,-188.656 392.349,-195.483"/>
</g>
<!-- Node38&#45;&gt;Node37 -->
<g id="edge56" class="edge"><title>Node38&#45;&gt;Node37</title>
<path fill="none" stroke="midnightblue" d="M128.694,-240.734C117.728,-230.403 99.2933,-213.037 85.8058,-200.332"/>
<polygon fill="midnightblue" stroke="midnightblue" points="87.8371,-197.437 78.1582,-193.127 83.0372,-202.532 87.8371,-197.437"/>
</g>
<!-- Node40&#45;&gt;Node25 -->
<g id="edge61" class="edge"><title>Node40&#45;&gt;Node25</title>
<path fill="none" stroke="midnightblue" d="M795.897,-383.009C797.73,-391.398 798.203,-404.496 797.317,-415.317"/>
<polygon fill="midnightblue" stroke="midnightblue" points="793.815,-415.088 795.901,-425.475 800.748,-416.054 793.815,-415.088"/>
</g>
<!-- Node43&#45;&gt;Node14 -->
<g id="edge67" class="edge"><title>Node43&#45;&gt;Node14</title>
<path fill="none" stroke="midnightblue" d="M1356.83,-358.145C1358.1,-336.203 1360.52,-294.327 1361.92,-270.091"/>
<polygon fill="midnightblue" stroke="midnightblue" points="1365.42,-270.238 1362.51,-260.052 1358.43,-269.833 1365.42,-270.238"/>
</g>
</g>
</svg>
